<svg xmlns="http://www.w3.org/2000/svg" viewBox="0 0 512 512"><!--! Font Awesome Pro 6.0.0-alpha3 by @fontawesome - https://fontawesome.com License - https://fontawesome.com/license (Commercial License) --><defs><style>.fa-secondary{opacity:.4}</style></defs><path class="fa-primary" d="M-.0034 95.99c.125 18.25 5.34 36.04 15.22 51.29l145.1-121.6C143.4 9.178 120.2 0 95.1 0C42.1 0-.0034 43-.0034 95.99zM313.6 336H248.3l83.98-105c3.473-4.348 5.262-9.66 5.262-15.01C337.6 197.3 320.5 192 313.6 192H198.4c-13.25 0-24 10.75-24 24s10.75 24 24 24h65.25l-83.98 105c-3.473 4.348-5.262 9.658-5.262 15.01C174.4 378.7 191.5 384 198.4 384h115.2c13.25 0 24-10.75 24-24S326.8 336 313.6 336zM415.1 0c-24.25 0-47.48 9.178-65.1 25.68l145.9 121.6c9.875-15.25 15.09-33.04 15.22-51.29C511.1 43 468.1 0 415.1 0z"/><path class="fa-secondary" d="M435.3 421.9C464.4 383.3 480 336.4 480 287.1c0-123.7-100.3-223.1-224-223.1c-137.4 0-224 112.2-224 223.1c0 48.37 15.75 95.34 44.75 133.1l-35.42 35.52C35.11 463.7 32 471.9 32 480c0 8.152 3.101 16.31 9.302 22.54C47.54 508.9 55.78 512 64.01 512c8.215 0 16.43-3.129 22.67-9.383l35.33-35.42C161.7 497.1 208.8 512 256 512s94.31-14.94 133.1-44.81l35.45 35.47C431.7 508.9 439.9 512 448 512c8.158 0 16.31-3.102 22.55-9.305C476.9 496.5 480 488.2 480 480c0-8.215-3.127-16.43-9.383-22.67L435.3 421.9zM313.6 384H198.4c-6.91 0-23.1-5.31-23.1-23.99c0-5.354 1.789-10.66 5.262-15.01L263.7 240H198.4c-13.25 0-24-10.75-24-24S185.2 192 198.4 192h115.2c6.91 0 23.1 5.309 23.1 23.99c0 5.352-1.789 10.66-5.262 15.01L248.3 336h65.25c13.25 0 24 10.75 24 24S326.8 384 313.6 384z"/></svg>