<svg xmlns="http://www.w3.org/2000/svg" viewBox="0 0 512 512"><!--! Font Awesome Pro 6.0.0-alpha3 by @fontawesome - https://fontawesome.com License - https://fontawesome.com/license (Commercial License) --><defs><style>.fa-secondary{opacity:.4}</style></defs><path class="fa-primary" d="M95.1 0c-53 0-96 42.1-96 95.99c.125 18.25 5.34 36.04 15.22 51.29l145.1-121.6C143.4 9.18 120.2 0 95.1 0zM415.1 0c-24.25 0-47.48 9.18-65.1 25.68l145.9 121.6c9.875-15.25 15.09-33.04 15.22-51.29C511.1 42.1 468.1 0 415.1 0zM344 264H280v-64c0-13.2-10.8-24-23.1-24C242.8 176 232 186.8 232 200v64H168C154.8 264 144 274.8 144 288c0 13.2 10.8 24 24 24H232v64c0 13.2 10.8 24 24 24C269.2 400 280 389.2 280 376v-64h64C357.2 312 368 301.2 368 288C368 274.8 357.2 264 344 264z"/><path class="fa-secondary" d="M480 480c0-8.209-3.127-16.42-9.378-22.65l-35.37-35.4c29.12-38.62 44.75-85.59 44.75-133.1c0-122.9-96.42-223.1-224-223.1C132.2 63.1 32 164.2 32 287.1c0 48.37 15.75 95.34 44.75 133.1l-35.42 35.51C35.11 463.7 32 471.9 32 480c0 8.156 3.101 16.31 9.304 22.55C47.54 508.9 55.77 512 63.1 512c8.214 0 16.43-3.126 22.66-9.38l35.34-35.42C161.7 497.1 208.8 512 256 512s94.31-14.93 133.1-44.81l35.45 35.47C431.7 508.9 439.9 512 448 512c8.158 0 16.32-3.103 22.56-9.308C476.9 496.5 480 488.2 480 480zM344 312H280v64c0 13.2-10.8 24-23.1 24C242.8 400 232 389.2 232 376v-64H168C154.8 312 144 301.2 144 288c0-13.2 10.8-24 24-24H232v-64c0-13.2 10.8-24 24-24C269.2 176 280 186.8 280 200v64h64C357.2 264 368 274.8 368 288C368 301.2 357.2 312 344 312z"/></svg>