<svg xmlns="http://www.w3.org/2000/svg" viewBox="0 0 512 512"><!--! Font Awesome Pro 6.0.0-alpha3 by @fontawesome - https://fontawesome.com License - https://fontawesome.com/license (Commercial License) --><defs><style>.fa-secondary{opacity:.4}</style></defs><path class="fa-primary" d="M280 292V184c0-13.25-10.75-24-24-24S232 170.8 232 184V304c0 7.562 3.563 14.66 9.594 19.19l64 48C309.9 374.4 314.1 376 319.1 376c13.2 0 24.02-10.66 24.02-23.98c0-7.297-3.315-14.5-9.597-19.2L280 292zM-.0034 96c0 18.95 5.671 36.5 15.15 51.38l145.9-121.6C143.9 9.914 121.2 0 95.1 0C42.98 0-.0034 42.98-.0034 96zM415.1 0c-25.19 0-47.93 9.914-65.06 25.79l145.9 121.6C506.3 132.5 511.1 114.9 511.1 96C511.1 42.98 469 0 415.1 0z"/><path class="fa-secondary" d="M479.1 288c0 50.3-16.79 96.57-44.78 133.1l35.41 35.41C476.9 463.6 480 471.8 480 480c0 8.19-3.124 16.38-9.373 22.63C464.4 508.9 456.2 512 448 512c-8.189 0-16.38-3.124-22.63-9.372l-35.41-35.41C352.6 495.2 306.3 512 256 512c-50.3 0-96.57-16.78-133.1-44.78l-35.41 35.41C80.38 508.9 72.19 512 63.1 512c-8.188 0-16.38-3.123-22.62-9.37C35.12 496.4 32 488.2 32 479.1c0-8.19 3.124-16.38 9.373-22.63l35.41-35.41C48.78 384.6 32 338.3 32 288c0-123.7 100.3-223.1 224-223.1C384.5 64 479.1 168 479.1 288zM344 352c0-7.297-3.315-14.5-9.597-19.2L280 292V184c0-13.25-10.75-24-24-24C242.8 160 232 170.8 232 184V304c0 7.562 3.562 14.66 9.594 19.19l64 48C309.9 374.4 314.1 376 319.1 376C333.2 376 344 365.3 344 352z"/></svg>