<svg xmlns="http://www.w3.org/2000/svg" viewBox="0 0 448 512"><!--! Font Awesome Pro 6.0.0-alpha3 by @fontawesome - https://fontawesome.com License - https://fontawesome.com/license (Commercial License) --><defs><style>.fa-secondary{opacity:.4}</style></defs><path class="fa-primary" d="M448 192C448 174.3 433.7 160 416 160H32C14.33 160 0 174.3 0 192S14.33 224 32 224h384C433.7 224 448 209.7 448 192zM0 448C0 465.7 14.33 480 32 480h384c17.67 0 32-14.33 32-31.1S433.7 416 416 416H32C14.33 416 0 430.3 0 448z"/><path class="fa-secondary" d="M160 320C160 337.7 174.3 352 192 352h224c17.67 0 32-14.33 32-31.1S433.7 288 416 288H192C174.3 288 160 302.3 160 320zM448 64C448 46.33 433.7 32 416 32H192C174.3 32 160 46.33 160 64S174.3 96 192 96h224C433.7 96 448 81.67 448 64z"/></svg>