<svg xmlns="http://www.w3.org/2000/svg" viewBox="0 0 640 512"><!--! Font Awesome Pro 6.0.0-alpha3 by @fontawesome - https://fontawesome.com License - https://fontawesome.com/license (Commercial License) --><defs><style>.fa-secondary{opacity:.4}</style></defs><path class="fa-primary" d="M601.2 506.9L9.189 42.89c-10.42-8.156-12.24-23.26-4.068-33.7C13.31-1.217 28.35-3.102 38.81 5.116l591.1 463.1c10.42 8.156 12.24 23.26 4.068 33.7C626.7 513.2 611.6 515.1 601.2 506.9z"/><path class="fa-secondary" d="M128 224h34.49l-61.47-48.16C98.11 180.7 95.1 185.1 95.1 192C95.1 209.7 110.3 224 128 224zM512 96c17.67 0 32-14.33 32-31.1S529.7 32 512 32H128C114.6 32 103.2 40.21 98.45 51.86L154.8 96H512zM127.1 352h197.8L244.1 288H127.1c-17.67 0-31.1 14.33-31.1 31.1S110.3 352 127.1 352zM512 160H236.4L318.1 224L512 224c17.67 0 32-14.33 32-31.1S529.7 160 512 160zM127.1 416c-17.67 0-31.1 14.33-31.1 31.1S110.3 480 127.1 480h361.1l-81.66-63.1H127.1zM512 288h-112.3l81.66 64L512 352c17.67 0 32-14.33 32-31.1S529.7 288 512 288z"/></svg>