<svg xmlns="http://www.w3.org/2000/svg" viewBox="0 0 576 512"><!--! Font Awesome Pro 6.0.0-alpha3 by @fontawesome - https://fontawesome.com License - https://fontawesome.com/license (Commercial License) --><defs><style>.fa-secondary{opacity:.4}</style></defs><path class="fa-primary" d="M559.1 352h-34.89c-15.31 90.66-94.16 160-189.1 160H240c-94.95 0-173.8-69.34-189.1-160H16.01c-14.24 0-21.35-17.24-11.32-27.31l63.1-64c6.25-6.25 16.37-6.25 22.62 0l63.1 64C165.3 334.7 158.3 352 144 352H116.6c14.31 55.05 63.99 96 123.5 96h15.1V240h63.1V448h15.1c59.46 0 109.1-40.95 123.5-96h-27.45c-14.24 0-21.35-17.24-11.31-27.31l63.1-64c6.25-6.25 16.37-6.25 22.62 0l63.1 64C581.3 334.7 574.3 352 559.1 352z"/><path class="fa-secondary" d="M368 176h-27.05c25.92-17.19 43.05-46.57 43.05-80c0-53.02-42.98-96-95.1-96S192 42.98 192 96c0 33.43 17.13 62.81 43.05 80H208C199.2 176 192 183.2 192 192v32c0 8.836 7.164 16 15.1 16h159.1c8.838 0 15.1-7.164 15.1-16V192C384 183.2 376.8 176 368 176zM288 128C270.4 128 256 113.6 256 96s14.36-32 31.1-32c17.64 0 31.1 14.36 31.1 32S305.6 128 288 128z"/></svg>