<svg xmlns="http://www.w3.org/2000/svg" viewBox="0 0 448 512"><!--! Font Awesome Pro 6.0.0-alpha3 by @fontawesome - https://fontawesome.com License - https://fontawesome.com/license (Commercial License) --><defs><style>.fa-secondary{opacity:.4}</style></defs><path class="fa-primary" d="M384 480c-12.53 0-24.44-7.422-29.55-19.7L224 147.2l-130.5 313.1c-6.766 16.3-25.48 24.09-41.84 17.22C35.38 470.7 27.67 452 34.47 435.7l160-384C199.4 39.77 211.1 32 224 32s24.56 7.766 29.53 19.69l160 384c6.797 16.31-.9062 35.05-17.22 41.84C392.3 479.2 388.1 480 384 480z"/><path class="fa-secondary" d="M0 256c0 17.67 14.33 32 32 32h64.01l26.67-64H32C14.33 224 0 238.3 0 256zM256 224H192L165.3 288h117.3L256 224zM0 352c0 17.67 14.33 32 32 32h24.01l26.67-64H32C14.33 320 0 334.3 0 352zM416 320h-50.67l26.67 64H416c17.67 0 32-14.33 32-32S433.7 320 416 320zM448 256c0-17.67-14.33-32-32-32h-90.67l26.67 64H416C433.7 288 448 273.7 448 256zM151.1 320l-26.67 64h197.3l-26.67-64H151.1z"/></svg>