<svg xmlns="http://www.w3.org/2000/svg" viewBox="0 0 512 512"><!--! Font Awesome Pro 6.0.0-alpha3 by @fontawesome - https://fontawesome.com License - https://fontawesome.com/license (Commercial License) --><defs><style>.fa-secondary{opacity:.4}</style></defs><path class="fa-primary" d="M496 95.99L448 95.98c-35.25 0-64 28.75-64 64V224L0 224c0 52.26 24.79 99.22 64.35 133.8C74.31 354.3 84.85 352 96 352c41.66 0 76.85 26.83 90.1 64h75.8C275.2 378.8 310.3 352 352 352c11.23 0 21.85 2.301 31.88 5.859C423.3 323.3 448 276.2 448 223.1V159.1h48c8.75 0 16-7.25 16-16V111.1C512 103.2 504.8 95.99 496 95.99z"/><path class="fa-secondary" d="M352 384c-35.35 0-64 28.65-64 63.1c0 35.35 28.65 64 64 64c35.35 0 64-28.65 64-63.1C416 412.7 387.3 384 352 384zM96 384c-35.35 0-64 28.65-64 63.1c0 35.35 28.65 64 64 64c35.35 0 64-28.65 64-63.1C160 412.7 131.3 384 96 384zM90.75 7.598C35.25 51.85 0 117.1 0 192v32L275 224L144.8 16.97C133.5-.7775 107.6-5.777 90.75 7.598z"/></svg>