<svg xmlns="http://www.w3.org/2000/svg" viewBox="0 0 448 512"><!--! Font Awesome Pro 6.0.0-alpha3 by @fontawesome - https://fontawesome.com License - https://fontawesome.com/license (Commercial License) --><defs><style>.fa-secondary{opacity:.4}</style></defs><path class="fa-primary" d="M320 248c-13.25 0-24-10.75-24-24V120c0-39.69-32.3-72-72-72S152 80.31 152 120V224c0 13.25-10.75 24-24 24S104 237.3 104 224V120C104 53.84 157.8 0 224 0s120 53.84 120 120V224C344 237.3 333.3 248 320 248z"/><path class="fa-secondary" d="M448 192v240c0 44.18-35.82 80-80 80h-288C35.82 512 0 476.2 0 432V192c0-17.67 14.33-32 32-32h72v64c0 13.25 10.75 24 24 24S152 237.3 152 224V160h144v64c0 13.25 10.75 24 24 24S344 237.3 344 224V160H416C433.7 160 448 174.3 448 192z"/></svg>