<svg xmlns="http://www.w3.org/2000/svg" viewBox="0 0 320 512"><!--! Font Awesome Pro 6.0.0-alpha3 by @fontawesome - https://fontawesome.com License - https://fontawesome.com/license (Commercial License) --><defs><style>.fa-secondary{opacity:.4}</style></defs><path class="fa-primary" d="M266.8 241.1C279.1 222.7 288 200.3 288 176C288 114.3 237.8 64 176 64H32C14.31 64 0 78.31 0 96v320c0 17.69 14.31 32 32 32h176c61.75 0 112-50.25 112-112C320 295.9 298.6 260.9 266.8 241.1zM64 128h112C202.5 128 224 149.5 224 176S202.5 224 176 224H64V128zM208 384H64V288h144c26.47 0 48 21.53 48 48S234.5 384 208 384z"/><path class="fa-secondary" d="M112 384h64V288h-64V384zM112 480c0 17.69 14.31 32 32 32s32-14.31 32-32v-32h-64V480zM112 224h64V128h-64V224zM144 0c-17.69 0-32 14.31-32 32v32h64V32C176 14.31 161.7 0 144 0z"/></svg>