<svg xmlns="http://www.w3.org/2000/svg" viewBox="0 0 512 512"><!--! Font Awesome Pro 6.0.0-alpha3 by @fontawesome - https://fontawesome.com License - https://fontawesome.com/license (Commercial License) --><defs><style>.fa-secondary{opacity:.4}</style></defs><path class="fa-primary" d="M256 0C114.6 0 0 114.6 0 256c0 141.4 114.6 256 256 256s256-114.6 256-256C512 114.6 397.4 0 256 0zM64 256c0-44.3 15.22-85.02 40.52-117.5l269 269C341 432.8 300.3 448 256 448C150.1 448 64 361.9 64 256zM407.5 373.5L138.5 104.5C170.1 79.22 211.7 64 256 64c105.9 0 192 86.13 192 192C448 300.3 432.8 341 407.5 373.5z"/><path class="fa-secondary" d="M272 128h-64C195.6 128 185 135.4 179.7 145.8L240 206.1V192h32c17.62 0 32 14.38 32 32c0 12.45-7.363 22.99-17.79 28.28l45.56 45.56c17.18-13.45 29.94-32.18 34.34-54.61C378.1 181.1 331.2 128 272 128zM176 352c0 17.6 14.4 32 32 32s32-14.4 32-32v-10.19l-64-64V352z"/></svg>