<svg xmlns="http://www.w3.org/2000/svg" viewBox="0 0 384 512"><!--! Font Awesome Pro 6.0.0-alpha3 by @fontawesome - https://fontawesome.com License - https://fontawesome.com/license (Commercial License) --><defs><style>.fa-secondary{opacity:.4}</style></defs><path class="fa-primary" d="M192 480H160c-52.94 0-96-43.06-96-96V128c0-17.66-14.34-32-32-32C14.31 96 0 81.69 0 64s14.31-32 32-32c52.94 0 96 43.06 96 96v256c0 17.66 14.34 32 32 32h32c70.59 0 128-57.41 128-128V256c0-17.66-14.34-32-32-32h-16c-17.69 0-32-14.31-32-32s14.31-32 32-32H288c52.94 0 96 43.06 96 96v32C384 393.9 297.9 480 192 480z"/><path class="fa-secondary" d="M160 160H128v64h32c17.69 0 32-14.31 32-32S177.7 160 160 160zM0 192c0 17.69 14.31 32 32 32h32V160H32C14.31 160 0 174.3 0 192z"/></svg>