<svg xmlns="http://www.w3.org/2000/svg" viewBox="0 0 512 512"><!--! Font Awesome Pro 6.0.0-alpha3 by @fontawesome - https://fontawesome.com License - https://fontawesome.com/license (Commercial License) --><defs><style>.fa-secondary{opacity:.4}</style></defs><path class="fa-primary" d="M501.6 92.13l-234.4-90.07C264.3 .8958 259.2-.0039 256-.0039c-3.188 0-8.219 .8997-11.22 2.056L10.38 92.13C4.656 94.25 0 100.1 0 107.1V144C0 152.8 7.156 160 16 160H32v16C32 184.8 39.16 192 48 192h416C472.8 192 480 184.8 480 176V160h16C504.8 160 512 152.8 512 144V107.1C512 100.4 507.9 94.44 501.6 92.13zM256 144c-17.67 0-32-14.33-32-32c0-17.67 14.33-32 32-32s32 14.33 32 32C288 129.7 273.7 144 256 144z"/><path class="fa-secondary" d="M512 464v32c0 8.799-7.199 16-16 16h-480C7.199 512 0 504.8 0 496v-32C0 455.2 7.199 448 16 448H32v-32c0-17.67 14.33-32 32-32V192h64v192h96V192h64v192h96V192h64v192c17.67 0 32 14.33 32 32v32h16C504.8 448 512 455.2 512 464z"/></svg>