<svg xmlns="http://www.w3.org/2000/svg" viewBox="0 0 512 512"><!--! Font Awesome Pro 6.0.0-alpha3 by @fontawesome - https://fontawesome.com License - https://fontawesome.com/license (Commercial License) --><defs><style>.fa-secondary{opacity:.4}</style></defs><path class="fa-primary" d="M416 384H31.1C14.33 384 0 398.3 0 415.1S14.33 448 31.1 448H416C433.7 448 448 433.7 448 416S433.7 384 416 384zM416 64H31.1C14.33 64 0 78.33 0 95.1S14.33 128 31.1 128H416C433.7 128 448 113.7 448 96S433.7 64 416 64z"/><path class="fa-secondary" d="M512 256c0 17.67-14.33 32-31.1 32H95.1C78.33 288 64 273.7 64 256s14.33-32 31.1-32h384C497.7 224 512 238.3 512 256z"/></svg>