<svg xmlns="http://www.w3.org/2000/svg" viewBox="0 0 512 512"><!--! Font Awesome Pro 6.0.0-alpha3 by @fontawesome - https://fontawesome.com License - https://fontawesome.com/license (Commercial License) --><defs><style>.fa-secondary{opacity:.4}</style></defs><path class="fa-primary" d="M63.97 223.3c-20.62 1.969-41.21 .1953-60.89-5.008c-1.535 10.37-2.521 20.89-2.773 31.62c15.6 3.664 31.52 6.109 47.85 6.109c6.281 0 12.5-.2813 18.75-.8438c8.812-.8125 15.28-8.625 14.47-17.41C80.56 228.1 72.63 222.8 63.97 223.3zM228.9 114.3C220.8 110.6 211.4 114.1 207.7 122.1c-12.94 28-33.25 52.25-58.75 70.03C140.7 197.9 131.9 203 122.8 207.3C114.8 211.1 111.4 220.7 115.2 228.7c2.75 5.781 8.5 9.156 14.47 9.156c2.312 0 4.625-.5 6.844-1.531c10.72-5.062 21.09-11.09 30.78-17.88c30.12-21.06 54.13-49.69 69.47-82.84C240.4 127.5 236.1 118 228.9 114.3zM249.9 .3047c-10.9 .2578-21.59 1.273-32.11 2.852c3.836 14.51 6.225 29.43 6.225 44.69c0 5.125-.2187 10.22-.6562 15.31C222.6 71.97 229.2 79.69 237.1 80.44C238.4 80.47 238.9 80.5 239.3 80.5c8.219 0 15.22-6.312 15.91-14.66c.5-5.969 .7813-12 .7813-18C256 31.64 253.6 15.81 249.9 .3047zM444 256.9c-8.781 .875-15.22 8.688-14.38 17.5c.875 8.812 9.031 14.97 17.5 14.38c20.86-2.109 41.75-.2734 61.74 5.016c1.553-10.46 2.555-21.08 2.803-31.91C489.7 256.7 466.9 254.8 444 256.9zM374.6 276.2c-10.34 4.906-20.38 10.78-29.91 17.47c-30.34 21.25-54.5 50.22-69.84 83.75c-3.656 8.031-.125 17.53 7.906 21.22c2.156 .9687 4.406 1.438 6.656 1.438c6.062 0 11.88-3.469 14.56-9.344c12.97-28.34 33.41-52.88 59.09-70.88c8.062-5.656 16.56-10.62 25.28-14.78c8-3.812 11.38-13.34 7.562-21.31C392.1 275.7 382.5 272.3 374.6 276.2zM288.6 449.8c.75-8.812-5.781-16.56-14.59-17.28c-8.5-.4062-16.56 5.781-17.28 14.59C256.3 452.8 256 458.5 256 464.2c0 16.19 2.453 32 6.117 47.5c10.89-.2578 21.58-1.27 32.09-2.848C290.4 494.3 288 479.4 288 464.2C288 459.4 288.2 454.6 288.6 449.8z"/><path class="fa-secondary" d="M256.7 447.2c.7187-8.812 8.781-15 17.28-14.59c8.813 .7187 15.34 8.469 14.59 17.28C288.2 454.6 288 459.4 288 464.2c0 15.25 2.383 30.16 6.209 44.66c110.8-16.63 198.2-104.1 214.7-215c-19.99-5.289-40.89-7.125-61.74-5.016c-8.469 .5938-16.62-5.562-17.5-14.38c-.8438-8.812 5.594-16.62 14.38-17.5c22.88-2.141 45.68-.1953 67.67 4.977C511.7 259.9 512 258 512 256c0-141.4-114.6-256-256-256C253.9 0 251.1 .2578 249.9 .3047c3.658 15.51 6.111 31.34 6.111 47.54c0 6-.2813 12.03-.7813 18C254.6 74.19 247.6 80.5 239.3 80.5c-.4687 0-.9375-.0313-1.375-.0625C229.2 79.69 222.6 71.97 223.4 63.16c.4375-5.094 .6562-10.19 .6562-15.31c0-15.26-2.389-30.18-6.225-44.69C106.9 19.79 19.5 107.3 3.08 218.3c19.67 5.203 40.27 6.977 60.89 5.008c8.656-.5 16.59 5.656 17.41 14.47c.8125 8.781-5.656 16.59-14.47 17.41C60.66 255.8 54.44 256 48.16 256c-16.33 0-32.25-2.445-47.85-6.109C.2578 251.1 0 253.9 0 256c0 141.4 114.6 256 256 256c2.066 0 4.062-.2578 6.117-.3086C258.5 496.2 256 480.4 256 464.2C256 458.5 256.3 452.8 256.7 447.2zM274.8 377.4c15.34-33.53 39.5-62.5 69.84-83.75c9.531-6.688 19.56-12.56 29.91-17.47c7.906-3.844 17.5-.4687 21.31 7.562c3.812 7.969 .4375 17.5-7.562 21.31c-8.719 4.156-17.22 9.125-25.28 14.78c-25.69 18-46.13 42.53-59.09 70.88c-2.688 5.875-8.5 9.344-14.56 9.344c-2.25 0-4.5-.4687-6.656-1.438C274.7 394.9 271.2 385.4 274.8 377.4zM236.8 135.6C221.4 168.7 197.4 197.3 167.3 218.4C157.6 225.2 147.2 231.2 136.5 236.3C134.3 237.3 131.1 237.8 129.7 237.8c-5.969 0-11.72-3.375-14.47-9.156c-3.781-8-.3438-17.53 7.625-21.31c9.094-4.312 17.91-9.406 26.12-15.19c25.5-17.78 45.81-42.03 58.75-70.03c3.719-8.031 13.16-11.5 21.25-7.812C236.1 118 240.4 127.5 236.8 135.6z"/></svg>