<svg xmlns="http://www.w3.org/2000/svg" viewBox="0 0 576 512"><!--! Font Awesome Pro 6.0.0-alpha3 by @fontawesome - https://fontawesome.com License - https://fontawesome.com/license (Commercial License) --><defs><style>.fa-secondary{opacity:.4}</style></defs><path class="fa-primary" d="M243.1 2.724C231.3-3.4 216.8 1.193 210.7 12.94L106.7 212.9c-6.109 11.75-1.531 26.25 10.22 32.34C120.5 247.1 124.3 248 127.1 248c8.656 0 17.03-4.719 21.31-12.94l103.1-200C259.4 23.32 254.8 8.818 243.1 2.724zM469.3 212.9l-104-200c-6.141-11.78-20.56-16.37-32.36-10.22c-11.75 6.094-16.33 20.59-10.22 32.34l103.1 200c4.281 8.218 12.64 12.94 21.31 12.94c3.734 0 7.516-.875 11.06-2.719C470.8 239.2 475.4 224.7 469.3 212.9z"/><path class="fa-secondary" d="M560 192l-101.6 .0012l10.89 20.94c6.109 11.75 1.531 26.25-10.22 32.34c-3.547 1.844-7.328 2.719-11.06 2.719c-8.672 0-17.03-4.719-21.31-12.94l-22.38-43.07H171.7L149.3 235.1C145 243.3 136.6 248 127.1 248c-3.734 0-7.516-.875-11.06-2.719C105.2 239.2 100.6 224.7 106.7 212.9l10.89-20.94L16 192c-8.836 0-16 7.164-16 15.1v32c0 8.836 7.164 15.1 16 15.1h23.11l45.75 205.9C91.37 491.2 117.3 512 147.3 512h281.3c29.1 0 55.97-20.83 62.48-50.12l45.75-205.9H560c8.838 0 16-7.164 16-15.1V208C576 199.2 568.8 192 560 192z"/></svg>