<svg xmlns="http://www.w3.org/2000/svg" viewBox="0 0 512 512"><!--! Font Awesome Pro 6.0.0-alpha3 by @fontawesome - https://fontawesome.com License - https://fontawesome.com/license (Commercial License) --><defs><style>.fa-secondary{opacity:.4}</style></defs><path class="fa-primary" d="M494.6 281.3c-1.168 10.72-3.134 21.18-5.675 31.43c-5.934-.6856-11.84-1.817-17.95-1.817c-38.35 0-73.11 14.11-100.7 36.68l65.97 65.98c-7.037 8.043-14.58 15.59-22.63 22.63l-65.97-65.98c-22.57 27.59-36.68 62.35-36.68 100.7c0 6.115 1.132 12.01 1.816 17.95c-10.25 2.539-20.71 4.508-31.42 5.676c-.9785-7.795-2.387-15.57-2.387-23.63c0-47.16 17.75-89.85 46.07-123.3L256 278.6l-157.4 157.4c-8.053-7.045-15.58-14.57-22.63-22.63L233.4 256L164.3 186.1C130.9 215.3 88.2 233 41.04 233c-8.057 0-15.83-1.409-23.63-2.388c1.168-10.72 3.138-21.18 5.677-31.42c5.938 .6836 11.84 1.816 17.95 1.816c38.35 0 73.11-14.11 100.7-36.68L75.56 98.18C82.59 90.15 90.11 82.56 98.15 75.52l66.21 66.21C186.9 114.1 201 79.39 201 41.04c0-6.115-1.133-12.02-1.817-17.95c10.25-2.539 20.71-4.508 31.43-5.676c.9766 7.799 2.386 15.57 2.386 23.63c0 47.16-17.75 89.85-46.07 123.3L256 233.4l157.9-157.9c8.045 7.043 15.54 14.65 22.56 22.69L278.6 256l69.03 69.03c33.46-28.32 76.14-46.07 123.3-46.07C479 278.1 486.8 280.4 494.6 281.3z"/><path class="fa-secondary" d="M141.7 164.4L75.56 98.18C50.57 126.7 32.34 161.2 23.09 199.2c5.984 .6816 11.79 1.816 17.95 1.816C79.39 201 114.1 186.9 141.7 164.4zM186.1 164.3L256 233.4l157.9-157.9C371.6 38.57 316.5 15.1 256 15.1c-8.568 0-17.01 .5347-25.35 1.41c.9785 7.846 2.386 15.52 2.386 23.63C233 88.2 215.3 130.9 186.1 164.3zM201 41.04c0-6.166-1.135-11.97-1.817-17.95c-38.07 9.25-72.54 27.45-101.1 52.43l66.21 66.21C186.9 114.1 201 79.39 201 41.04zM164.3 186.1C130.9 215.3 88.2 233 41.04 233c-8.105 0-15.78-1.407-23.63-2.388C16.54 238.1 16 247.4 16 256c0 60.51 22.57 115.6 59.52 157.9L233.4 256L164.3 186.1zM370.3 347.6l66.21 66.21c24.99-28.55 43.19-63.01 52.44-101.1c-5.986-.6836-11.79-1.817-17.95-1.817C432.6 310.1 397.9 325.1 370.3 347.6zM436.4 98.21L278.6 256l69.03 69.03c33.46-28.32 76.14-46.07 123.3-46.07c8.105 0 15.78 1.408 23.63 2.386C495.5 273 495.1 264.6 495.1 256C495.1 195.5 473.4 140.4 436.4 98.21zM325 347.7L256 278.6l-157.9 157.9C140.4 473.4 195.5 496 256 495.1c8.568 0 17.01-.5331 25.35-1.41c-.9805-7.846-2.387-15.52-2.387-23.63C278.1 423.8 296.7 381.1 325 347.7zM310.1 470.1c0 6.164 1.134 11.97 1.816 17.95c38.07-9.252 72.54-27.45 101.1-52.43l-66.21-66.21C325.1 397.9 310.1 432.6 310.1 470.1z"/></svg>