<svg xmlns="http://www.w3.org/2000/svg" viewBox="0 0 640 512"><!--! Font Awesome Pro 6.0.0-alpha3 by @fontawesome - https://fontawesome.com License - https://fontawesome.com/license (Commercial License) --><defs><style>.fa-secondary{opacity:.4}</style></defs><path class="fa-primary" d="M528 240h-416C103.2 240 96 247.2 96 256v16C96 280.8 103.2 288 112 288h35.61l24.48 209.8c.7187 6.156 4.969 11.38 10.84 13.33c1.656 .5625 3.371 .8242 5.058 .8242c4.312 0 8.536-1.746 11.6-4.98l54.41-57.27l54.41 57.27C311.4 510.2 315.6 512 320 512s8.594-1.797 11.59-4.984l54.41-57.27l54.41 57.27C443.5 510.3 447.7 512 452 512c1.688 0 3.406-.2656 5.062-.8281c5.875-1.953 10.12-7.177 10.84-13.33L492.4 288H528C536.8 288 544 280.8 544 272V256C544 247.2 536.8 240 528 240zM363.5 288L320 333.8L276.5 288H363.5zM184.1 324L179.9 288h46.24L184.1 324zM199.9 460.2l-8.955-76.79l40.96 43.11L199.9 460.2zM203.2 349.8l48.44-41.52l46.35 48.78l-43.94 46.25L203.2 349.8zM320 472.8l-43.94-46.24L320 380.3l43.94 46.25L320 472.8zM342.1 357l46.35-48.78l48.44 41.52l-50.84 53.52L342.1 357zM440.1 460.2l-32-33.68l40.96-43.11L440.1 460.2zM455.9 324L413.9 288h46.24L455.9 324z"/><path class="fa-secondary" d="M192 240h256V160H192V240zM632.5 177.7C574 72.24 456.2 0 320 0S65.96 72.24 7.455 177.7C2.328 186.1 0 197.5 0 208.1v118c0 25.43 15.05 48.44 38.35 58.63l93.09 40.72L115.4 288H112C103.2 288 96 280.8 96 272V256c0-8.838 7.164-16 16-16H160V160c0-17.64 14.34-32 32-32h256c17.66 0 32 14.36 32 32v80h48C536.8 240 544 247.2 544 256v16C544 280.8 536.8 288 528 288h-3.393l-16.04 137.5l93.09-40.73C624.9 374.6 640 351.6 640 326.1V208.1C640 197.5 637.7 186.1 632.5 177.7z"/></svg>