<svg xmlns="http://www.w3.org/2000/svg" viewBox="0 0 640 512"><!--! Font Awesome Pro 6.0.0-alpha3 by @fontawesome - https://fontawesome.com License - https://fontawesome.com/license (Commercial License) --><defs><style>.fa-secondary{opacity:.4}</style></defs><path class="fa-primary" d="M88 168h-64C10.75 168 0 178.8 0 192s10.75 24 24 24h64C101.3 216 112 205.3 112 192S101.3 168 88 168zM131.1 55.25l-55.5-32c-7.375-4.5-16.62-4.625-24.25-.375c-7.5 4.375-12.13 12.38-12.13 21c.125 8.75 4.875 16.75 12.38 20.88l55.5 32c7.375 4.5 16.63 4.625 24.25 .375c7.5-4.375 12.12-12.38 12.12-21C143.4 67.38 138.6 59.37 131.1 55.25zM588.4 64.75c11.25-6.75 14.88-21.25 8.375-32.5c-6.5-11.38-21-15.38-32.38-9l-55.38 32c-9.5 5.375-14 16.5-11.25 27C500.6 92.75 510.1 100 521 100c4.125 0 8.25-1.125 12-3.25L588.4 64.75zM319.1 512C355.4 512 384 483.4 384 448H256C256 483.4 284.6 512 319.1 512zM616 168h-64c-13.25 0-24 10.75-24 24s10.75 24 24 24h64C629.3 216 640 205.3 640 192S629.3 168 616 168z"/><path class="fa-secondary" d="M544 384.1c-.125 16.38-13 31.98-32.13 31.98H128.1c-19.13 0-32-15.61-32.13-31.98c0-8.125 3-15.86 8.625-21.74C124 341.6 160.1 310.3 160.1 208C160.1 130.3 214.5 68.13 288 52.88V32c0-17.62 14.25-32 32-32c17.62 0 32 14.38 32 32v20.88C425.5 68.13 479.9 130.3 479.9 208c0 102.3 36.13 133.6 55.5 154.3C541 368.2 544 375.9 544 384.1z"/></svg>