<svg xmlns="http://www.w3.org/2000/svg" viewBox="0 0 640 512"><!--! Font Awesome Pro 6.0.0-alpha3 by @fontawesome - https://fontawesome.com License - https://fontawesome.com/license (Commercial License) --><defs><style>.fa-secondary{opacity:.4}</style></defs><path class="fa-primary" d="M138.1 444.2c27.62 9.998 57.5-.3763 73.74-23.25l-115.4-41.99C94.26 406.8 110.4 434.1 138.1 444.2zM501.9 476.2c27.62-10.12 43.87-37.24 41.62-65.24l-115.4 41.99C444.4 475.7 474.2 486.2 501.9 476.2z"/><path class="fa-secondary" d="M241.1 253.9c-27.87-76.61 5-160.6 73.75-199.7C307.2 48.53 298.2 43.66 288.2 40.04C218.1 14.92 142.5 50.66 117.3 119.8c-.7499 2.125-14.62 40.49-15.37 42.62c-29.12 80.11-66.37 94.36-87.37 104.1c-20.12 10.37-19.5 40.62 2.1 48.87l243.2 88.49c8.499-19.12 19.5-45.49-3.25-108.1L241.1 253.9zM625.6 299.4c-20.1-10.62-58.37-24.88-87.37-104.1c-.8749-2.125-14.75-40.5-15.5-42.62C497.5 82.64 420.1 46.89 351.7 72.13C282.6 97.25 246.9 173.8 272.1 242.1c.7499 2.125 14.75 40.37 15.62 42.62c29.12 80.11 9.624 114.9 .5 136.6c-8.874 20.62 11.12 43.49 33.62 35.37l300.6-109.4C642.1 340.7 647.3 310.6 625.6 299.4z"/></svg>