<svg xmlns="http://www.w3.org/2000/svg" viewBox="0 0 640 512"><!--! Font Awesome Pro 6.0.0-alpha3 by @fontawesome - https://fontawesome.com License - https://fontawesome.com/license (Commercial License) --><defs><style>.fa-secondary{opacity:.4}</style></defs><path class="fa-primary" d="M615.1 512c-5.188 0-10.39-1.648-14.8-5.117L9.188 42.89C-1.234 34.73-3.057 19.63 5.115 9.19c8.188-10.41 23.23-12.29 33.7-4.073l591.1 463.1c10.42 8.156 12.24 23.26 4.073 33.7C630.2 508.8 623.1 512 615.1 512z"/><path class="fa-secondary" d="M464 463.1l-47.1-.0011v-41.27l-16.31-12.78c-37.08 23.66-80.61 38.05-127.7 38.05c-54 0-103.9-18.12-143.1-48.5v80.5c0 17.62 14.37 31.1 31.1 31.1l303.1 .002c17.61 0 33.85-5.416 47.6-14.34l-43.7-34.25C466.6 463.5 465.4 463.1 464 463.1zM373.5 389.4L71.64 152.8c-4.838 17.6-7.635 36.04-7.635 55.18c0 114.9 93.12 207.1 207.1 207.1C308.9 415.1 343.5 406.3 373.5 389.4zM272 128c44.13 0 80 35.87 80 79.1c0 12.89-3.38 24.88-8.817 35.68l101.8 79.8c22.1-33.04 35.02-72.74 35.02-115.5c0-114.9-93.12-207.1-207.1-207.1c-60.76 0-115.2 26.24-153.2 67.79l101.6 79.63C234.3 135.5 252.2 128 272 128zM246.2 167.7l70.99 55.64C318.9 218.5 320 213.4 320 207.1c0-26.5-21.5-47.1-47.1-47.1C262.5 160 253.7 162.9 246.2 167.7zM528 351.1c-12.06 0-22.94 4.598-31.38 11.95l73.7 57.76c3.414-6.559 5.672-13.81 5.672-21.71C576 373.5 554.5 351.1 528 351.1z"/></svg>