<svg xmlns="http://www.w3.org/2000/svg" viewBox="0 0 640 512"><!--! Font Awesome Pro 6.0.0-alpha3 by @fontawesome - https://fontawesome.com License - https://fontawesome.com/license (Commercial License) --><defs><style>.fa-secondary{opacity:.4}</style></defs><path class="fa-primary" d="M615.1 512c-5.188 0-10.39-1.648-14.8-5.117L9.188 42.89c-10.42-8.156-12.24-23.26-4.073-33.7C13.3-1.216 28.34-3.101 38.81 5.117l591.1 463.1c10.42 8.156 12.24 23.26 4.073 33.7C630.2 508.8 623.1 512 615.1 512z"/><path class="fa-secondary" d="M104.6 362.3c-6 6.5-8.625 14.25-8.625 21.75c.125 16.37 12.1 31.1 32.12 31.1l279.3 .0006L159.5 221.7C156.3 312.5 122.9 342.5 104.6 362.3zM319.1 512c35.38 0 64-28.62 64-63.1H256C256 483.4 284.6 512 319.1 512zM535.4 362.3c-19.25-20.75-55.5-52-55.5-154.2c0-77.75-54.37-139.9-127.9-155.1V32c0-17.62-14.38-32-32-32c-17.75 0-31.1 14.38-31.1 32V52.88C245.3 61.73 209.7 86.77 186.8 121.1l353.4 276.1c2.209-4.42 3.805-9.085 3.842-14.06C544 375.9 541 368.1 535.4 362.3z"/></svg>