<svg xmlns="http://www.w3.org/2000/svg" viewBox="0 0 512 512"><!--! Font Awesome Pro 6.0.0-alpha3 by @fontawesome - https://fontawesome.com License - https://fontawesome.com/license (Commercial License) --><defs><style>.fa-secondary{opacity:.4}</style></defs><path class="fa-primary" d="M464 352c-26.5 0-48 21.5-48 48c0 16.38 8.244 30.89 20.87 39.52C430.7 453.9 416.5 464 400 464H352v-106.2C314.6 393.8 263.9 416 208 416S101.4 393.8 64 357.8V480c0 17.62 14.38 32 32 32h304c42.25 0 77.5-29.9 85.99-69.52C501.4 434.5 512 418.5 512 400C512 373.5 490.5 352 464 352zM208 256C234.5 256 256 234.5 256 208S234.5 160 208 160S160 181.5 160 208S181.5 256 208 256z"/><path class="fa-secondary" d="M416 208C416 93.13 322.9 0 208 0S0 93.13 0 208S93.13 416 208 416S416 322.9 416 208zM128 208C128 163.9 163.9 128 208 128S288 163.9 288 208S252.1 288 208 288S128 252.1 128 208z"/></svg>