<svg xmlns="http://www.w3.org/2000/svg" viewBox="0 0 640 512"><!--! Font Awesome Pro 6.0.0-alpha3 by @fontawesome - https://fontawesome.com License - https://fontawesome.com/license (Commercial License) --><defs><style>.fa-secondary{opacity:.4}</style></defs><path class="fa-primary" d="M525.5 326.5l-150.1-277.7C369.8 38.44 358.1 32 347.2 32H304C295.2 32 288 39.16 288 48V64c0 8.837 7.163 16 16 16h33.69l34.59 64H222.4L195.6 106.1C191.1 99.78 183.8 96 176 96H112C103.2 96 96 103.2 96 112V128c0 8.837 7.163 16 16 16h51.59l22.02 31.1l-79.09 158.2c-3.719 7.438-3.312 16.28 1.062 23.36C111.1 363.7 119.7 368 128 368h175.1c8.492 0 16.34-4.486 20.66-11.8l84.78-143.5l73.84 136.6c4.2 7.771 13.9 10.67 21.68 6.471l14.09-7.609C526.8 343.1 529.7 334.3 525.5 326.5zM217.1 219.5L288.2 320H166.8L217.1 219.5zM316.1 276.3L256.4 192h109.5L316.1 276.3z"/><path class="fa-secondary" d="M128 424c-39.8 0-72-32.2-72-72S88.2 280 128 280c1.686 0 3.264 .377 4.92 .4902l26.13-52.25C149.1 225.7 138.8 224 128 224c-70.75 0-128 57.25-128 128s57.25 128 128 128c65.27 0 118.4-48.9 126.4-112H198.1C190.8 400.1 162.3 424 128 424zM512 224c-13.47 0-26.2 2.647-38.39 6.497L500.1 281.1C504.6 280.5 508.2 280 512 280c39.8 0 72 32.2 72 72s-32.2 72-72 72s-72-32.2-72-72c0-18.57 7.204-35.31 18.73-48.07l-27.36-50.62C402.7 276.8 384 312 384 352c0 70.75 57.25 128 128 128s128-57.25 128-128S582.8 224 512 224z"/></svg>