<svg xmlns="http://www.w3.org/2000/svg" viewBox="0 0 448 512"><!--! Font Awesome Pro 6.0.0-alpha3 by @fontawesome - https://fontawesome.com License - https://fontawesome.com/license (Commercial License) --><defs><style>.fa-secondary{opacity:.4}</style></defs><path class="fa-primary" d="M424 448h-160v64h160c13.25 0 24-10.75 24-24v-16C448 458.7 437.3 448 424 448zM416 0H96C42.98 0 0 42.98 0 96v320c0 53.02 42.98 96 96 96h120v-64H96c-17.67 0-32-14.33-32-32s14.33-32 32-32h120V209.9L176.1 248.1c-9.375 9.375-24.56 9.375-33.94 0s-9.375-24.56 0-33.94l80-80c9.375-9.375 24.56-9.375 33.94 0l80 80c9.375 9.375 9.375 24.56 0 33.94C332.3 253.7 326.2 256 320 256s-12.28-2.344-16.97-7.031L264 209.9V384h160c13.25 0 24-10.75 24-24V32C448 14.33 433.7 0 416 0z"/><path class="fa-secondary" d="M64 416c0 17.67 14.33 32 32 32h120v-64H96C78.33 384 64 398.3 64 416zM264 384v64H416v-64H264z"/></svg>