<svg xmlns="http://www.w3.org/2000/svg" viewBox="0 0 576 512"><!--! Font Awesome Pro 6.0.0-alpha3 by @fontawesome - https://fontawesome.com License - https://fontawesome.com/license (Commercial License) --><defs><style>.fa-secondary{opacity:.4}</style></defs><path class="fa-primary" d="M576 264v-240C576 10.74 565.3 0 552 0H288C234.1 0 192 42.98 192 96v224c0 53.02 42.98 96 96 96h264c13.25 0 24-10.75 24-24v-16c0-10.42-6.727-19.06-16-22.38V286.4C569.3 283.1 576 274.4 576 264zM512 352h-224c-17.67 0-32-14.33-32-32c0-17.67 14.33-32 32-32h224V352z"/><path class="fa-secondary" d="M360 448H97.71c-15.94 0-30.71-10.89-33.27-26.63C61.18 401.3 76.57 384 96 384h81.8C166.8 365.1 160 343.4 160 320V96H96C42.98 96 0 138.1 0 192v224c0 53.02 42.98 96 96 96h264c13.25 0 24-10.75 24-24v-16C384 458.7 373.3 448 360 448z"/></svg>