<svg xmlns="http://www.w3.org/2000/svg" viewBox="0 0 448 512"><!--! Font Awesome Pro 6.0.0-alpha3 by @fontawesome - https://fontawesome.com License - https://fontawesome.com/license (Commercial License) --><defs><style>.fa-secondary{opacity:.4}</style></defs><path class="fa-primary" d="M64 416c0 17.67 14.33 32 32 32h328c13.25 0 24 10.74 24 24v16c0 13.25-10.75 24-24 24H96c-53.02 0-96-42.98-96-96V96c0-53.02 42.98-96 96-96h96v191.1c0 13.41 15.52 20.88 25.1 12.49L272 160l54 44.46C336.5 212.8 352 205.4 352 191.1V0h64c17.67 0 32 14.33 32 32v328c0 13.25-10.75 24-24 24H96C78.33 384 64 398.3 64 416z"/><path class="fa-secondary" d="M416 384v64H96c-17.67 0-32-14.33-32-32c0-17.67 14.33-32 32-32H416z"/></svg>