<svg xmlns="http://www.w3.org/2000/svg" viewBox="0 0 448 512"><!--! Font Awesome Pro 6.0.0-alpha3 by @fontawesome - https://fontawesome.com License - https://fontawesome.com/license (Commercial License) --><defs><style>.fa-secondary{opacity:.4}</style></defs><path class="fa-primary" d="M256 128c0-8.75 7.25-16 16-16S288 119.3 288 128s-7.25 16-16 16S256 136.8 256 128zM64 416c0 17.67 14.33 32 32 32h328c13.25 0 24 10.74 24 24v16c0 13.25-10.75 24-24 24H96c-53.02 0-96-42.98-96-96V96c0-53.02 42.98-96 96-96h320c17.67 0 32 14.33 32 32v328c0 13.25-10.75 24-24 24H96C78.33 384 64 398.3 64 416zM160 128c0 20.88 12.75 39.25 32 50.88V192c0 8.75 7.25 16 16 16h64C280.8 208 288 200.8 288 192V178.9C307.3 167.3 320 148.9 320 128c0-35.25-35.75-64-80-64S160 92.75 160 128zM129 241.8l70.5 30.38L129.1 302.3C125 303.9 123.3 308.6 124.9 312.8l6.375 14.62c1.625 4.125 6.375 5.875 10.5 4.25L240 289.4l98.25 42.13c4.125 1.75 8.875-.125 10.5-4.25l6.375-14.62c1.625-4.125-.125-8.875-4.25-10.5L280.6 272l70.25-30.25c4.125-1.625 5.875-6.375 4.25-10.5l-6.375-14.62c-1.625-4.125-6.375-5.875-10.5-4.25L239.9 254.5L141.6 212.4C137.5 210.8 132.8 212.5 131.1 216.6L124.8 231.3C123.1 235.4 124.9 240.1 129 241.8zM208 144C216.8 144 224 136.8 224 128S216.8 112 208 112S192 119.3 192 128S199.3 144 208 144z"/><path class="fa-secondary" d="M416 384v64H96c-17.67 0-32-14.33-32-32c0-17.67 14.33-32 32-32H416z"/></svg>