<svg xmlns="http://www.w3.org/2000/svg" viewBox="0 0 448 512"><!--! Font Awesome Pro 6.0.0-alpha3 by @fontawesome - https://fontawesome.com License - https://fontawesome.com/license (Commercial License) --><defs><style>.fa-secondary{opacity:.4}</style></defs><path class="fa-primary" d="M448 63.1V416c0 35.2-28.8 64-64 64H31.1C14.33 480 0 465.7 0 448s14.33-32 31.1-32H384V63.1C384 46.33 398.3 32 416 32S448 46.33 448 63.1z"/><path class="fa-secondary" d="M208 96h32C248.9 96 256 88.88 256 80v-32C256 39.12 248.9 32 240 32h-32C199.1 32 192 39.12 192 48v32C192 88.88 199.1 96 208 96zM304 96h32C344.9 96 352 88.88 352 80v-32C352 39.12 344.9 32 336 32h-32C295.1 32 288 39.12 288 48v32C288 88.88 295.1 96 304 96zM112 96h32C152.9 96 160 88.88 160 80v-32C160 39.12 152.9 32 144 32h-32C103.1 32 96 39.12 96 48v32C96 88.88 103.1 96 112 96zM16 288h32C56.88 288 64 280.9 64 272v-32C64 231.1 56.88 224 48 224h-32C7.125 224 0 231.1 0 240v32C0 280.9 7.125 288 16 288zM16 192h32C56.88 192 64 184.9 64 176v-32C64 135.1 56.88 128 48 128h-32C7.125 128 0 135.1 0 144v32C0 184.9 7.125 192 16 192zM16 96h32C56.88 96 64 88.88 64 80v-32C64 39.12 56.88 32 48 32h-32C7.125 32 0 39.12 0 48v32C0 88.88 7.125 96 16 96zM16 384h32C56.88 384 64 376.9 64 368v-32C64 327.1 56.88 320 48 320h-32C7.125 320 0 327.1 0 336v32C0 376.9 7.125 384 16 384z"/></svg>