<svg xmlns="http://www.w3.org/2000/svg" viewBox="0 0 512 512"><!--! Font Awesome Pro 6.0.0-alpha3 by @fontawesome - https://fontawesome.com License - https://fontawesome.com/license (Commercial License) --><defs><style>.fa-secondary{opacity:.4}</style></defs><path class="fa-primary" d="M511.7 18.78l-25.72 128.6c-2.5 12.25-17.62 16.87-26.5 7.1l-34.5-34.47l-250.6 250.5l16.62 49.85c2.375 7.373 .4994 15.5-5.001 20.1l-63.62 63.74c-10.87 10.75-29.25 6.374-34.12-8.124l-18.5-55.62l-55.62-18.5c-14.5-4.873-18.88-23.25-8.126-33.99l63.75-63.82c5.5-5.498 13.62-7.375 20.1-4.1l49.74 16.69l250.6-250.6l-34.5-34.49C347.7 43.62 352.4 28.53 364.6 26.03l128.6-25.75C504.2-1.841 513.8 7.784 511.7 18.78z"/><path class="fa-secondary" d="M282.3 150.5l46.62-46.62c-40.62-25.87-87.75-39.87-136.1-39.87c-49.75 0-97.25 14.25-138.1 40.62L49.97 100.8C43.72 94.53 33.51 94.5 27.26 100.7l-22.54 22.51C-1.533 129.5-1.523 139.7 4.727 145.9l141 140.9l45.24-45.14L100.5 151.3C128.2 136.1 159.5 128 191.1 128C223.1 128 254.8 135.8 282.3 150.5zM407.3 457.4c26.37-40.87 40.62-88.36 40.62-138.1c0-49.37-14-96.36-39.87-136.1l-46.62 46.62c14.75 27.49 22.5 58.24 22.5 90.36c0 32.49-8.125 63.74-23.25 91.48l-90.5-90.61l-45.25 45.24l141.8 141.8c6.25 6.25 16.37 6.25 22.62 0l22.6-22.62c6.248-6.25 6.248-16.5 0-22.75L407.3 457.4z"/></svg>