<svg xmlns="http://www.w3.org/2000/svg" viewBox="0 0 640 512"><!--! Font Awesome Pro 6.0.0-alpha3 by @fontawesome - https://fontawesome.com License - https://fontawesome.com/license (Commercial License) --><defs><style>.fa-secondary{opacity:.4}</style></defs><path class="fa-primary" d="M128.8 135.4C128.6 132.9 128 130.5 128 128C128 57.3 185.3 0 256 0c69.75 0 126 55.82 127.8 125.1l41.63-114.4c3-8.375 12.25-12.63 20.5-9.63l55.5 20.26c8.375 3 12.62 12.14 9.625 20.51l-35.75 98.3l-155.3 19.76l-8.25-1.001c5.125-9.25 8.25-19.52 8.25-30.77c0-35.25-28.75-64.03-64-64.03S192 92.82 192 128.1c0 5.375 .875 10.63 2.25 15.76L128.8 135.4zM430.2 351.4c-7.127 2-14.75-1.011-18.51-7.261l-91.74-152.1l-91.73 152.1c-3.875 6.254-11.5 9.266-18.5 7.266L64 309.8v115.7c0 14.67 9.1 27.35 24.25 30.83l216.1 53.82c10.25 2.486 20.88 2.486 31 0l216.4-53.82C565.1 452.7 576 440 576 425.5V309.8L430.2 351.4z"/><path class="fa-secondary" d="M53.24 169L1.755 271.8C-2.87 281.1 2.038 292.1 11.79 294.8l197.1 56.53c7 2 14.63-1.012 18.5-7.266l91.73-152.1l-250.2-31.87C62.9 159.3 56.24 162.8 53.24 169zM638.3 271.8L586.8 169c-3-6.25-9.757-9.758-16.63-8.883l-250.2 31.87l91.74 152.1c3.752 6.25 11.38 9.261 18.51 7.261l197.9-56.51C638 292 642.8 281 638.3 271.8z"/></svg>