<svg xmlns="http://www.w3.org/2000/svg" viewBox="0 0 448 512"><!--! Font Awesome Pro 6.0.0-alpha3 by @fontawesome - https://fontawesome.com License - https://fontawesome.com/license (Commercial License) --><defs><style>.fa-secondary{opacity:.4}</style></defs><path class="fa-primary" d="M240 160V32h-32v128H0v272C0 458.5 21.49 480 48 480h352c26.51 0 48-21.49 48-48V160H240zM305.1 341.3l-72.63 71.38c-4.75 4.625-12.25 4.625-17 0l-72.63-71.38C121.8 320.5 123.1 286.1 146.6 267c20.5-16.75 51.13-13.75 70 4.75L224 279.1l7.375-7.375c18.88-18.5 49.38-21.5 70-4.75C324.9 286.1 326.1 320.4 305.1 341.3z"/><path class="fa-secondary" d="M447.6 158.8l-56.38-104.9C386.9 40.75 374.8 32 360.9 32H240v128h206.8C447.1 159.5 447.3 159.3 447.6 158.8zM208 160V32H87.13c-13.88 0-26 8.75-30.38 21.88L.375 158.8C.75 159.3 .875 159.5 1.25 160H208z"/></svg>