<svg xmlns="http://www.w3.org/2000/svg" viewBox="0 0 448 512"><!--! Font Awesome Pro 6.0.0-alpha3 by @fontawesome - https://fontawesome.com License - https://fontawesome.com/license (Commercial License) --><defs><style>.fa-secondary{opacity:.4}</style></defs><path class="fa-primary" d="M448 160v272c0 26.51-21.49 48-48 48h-352C21.49 480 0 458.5 0 432V160h160v112C160 280.8 167.2 288 176 288h96C280.8 288 288 280.8 288 272L287.1 160H448z"/><path class="fa-secondary" d="M391.3 53.88C386.9 40.75 374.8 32 360.9 32H256l31.97 128h158.8c.375-.5 .5-.75 .875-1.25L391.3 53.88zM87.13 32c-13.88 0-26 8.75-30.38 21.88L.375 158.8C.75 159.3 .875 159.5 1.25 160H160l32-128H87.13zM160 272C160 281.6 166.4 288 176 288h96C281.6 288 288 281.6 288 272L287.1 160H160V272z"/></svg>