<svg xmlns="http://www.w3.org/2000/svg" viewBox="0 0 576 512"><!--! Font Awesome Pro 6.0.0-alpha3 by @fontawesome - https://fontawesome.com License - https://fontawesome.com/license (Commercial License) --><defs><style>.fa-secondary{opacity:.4}</style></defs><path class="fa-primary" d="M432 224C352.5 224 288 288.5 288 368s64.46 144 144 144C511.5 512 576 447.5 576 368S511.5 224 432 224zM499.3 341.1l-74.66 74.66c-3.125 3.125-7.219 4.688-11.31 4.688s-8.188-1.562-11.31-4.688l-37.34-37.33c-6.25-6.25-6.25-16.38 0-22.62s16.38-6.25 22.62 0l26.03 26.02l63.34-63.34c6.25-6.25 16.38-6.25 22.62 0S505.6 335.7 499.3 341.1z"/><path class="fa-secondary" d="M391.3 53.88C386.9 40.75 374.8 32 360.9 32H240v128h206.8c.375-.5 .5-.75 .875-1.25L391.3 53.88zM208 160V32H87.13c-13.88 0-26 8.75-30.38 21.88L.375 158.8C.75 159.3 .875 159.5 1.25 160H208zM0 432C0 458.5 21.49 480 48 480h248.2C271.1 449.6 256 410.5 256 368C256 270.8 334.8 192 432 192H0V432z"/></svg>