<svg xmlns="http://www.w3.org/2000/svg" viewBox="0 0 448 512"><!--! Font Awesome Pro 6.0.0-alpha3 by @fontawesome - https://fontawesome.com License - https://fontawesome.com/license (Commercial License) --><defs><style>.fa-secondary{opacity:.4}</style></defs><path class="fa-primary" d="M240 160V32h-32v128H0v272C0 458.5 21.49 480 48 480h352c26.51 0 48-21.49 48-48V160H240zM276.2 356.4c-3.08 17.81-16.84 29.38-36.19 33.22L240 400c0 8.844-7.146 16-15.99 16s-16.01-7.156-16.01-16l.0104-10.72c-7.844-1.635-15.71-4.24-22.75-6.783l-3.547-1.266C173.4 378.3 169 369.1 172 360.8c2.953-8.344 12.08-12.67 20.42-9.734l3.703 1.328C203 354.9 210.8 357.7 216.1 358.6c12.75 2.047 26.39 .0156 27.73-7.688c.9531-5.531 .3802-8.26-25.03-15.54l-5.083-1.474c-14.66-4.297-49-14.39-42.8-50.28c3.096-17.91 16.74-29.76 36.25-33.55V240c0-8.844 7.156-16 16-16s16 7.156 16 16v10.86c5.541 1.17 11.28 2.586 16.88 4.52c8.359 2.891 12.8 12 9.906 20.34c-2.875 8.359-12.06 12.73-20.34 9.906c-5.156-1.781-10.59-3.484-15.52-4.25c-12.84-2.062-26.31 0-27.64 7.703C202.5 293.6 201.1 296.9 223.6 303.2l4.745 1.37C248.6 310.4 282.5 320.1 276.2 356.4z"/><path class="fa-secondary" d="M56.75 53.88L.375 158.8C.75 159.3 .875 159.5 1.25 160H208V32H87.13C73.25 32 61.13 40.75 56.75 53.88zM391.3 53.88C386.9 40.75 374.8 32 360.9 32H240v128h206.8c.375-.5 .5-.75 .875-1.25L391.3 53.88z"/></svg>