<svg xmlns="http://www.w3.org/2000/svg" viewBox="0 0 448 512"><!--! Font Awesome Pro 6.0.0-alpha3 by @fontawesome - https://fontawesome.com License - https://fontawesome.com/license (Commercial License) --><defs><style>.fa-secondary{opacity:.4}</style></defs><path class="fa-primary" d="M240 160V32h-32v128H0v272C0 458.5 21.49 480 48 480h352c26.51 0 48-21.49 48-48V160H240z"/><path class="fa-secondary" d="M56.75 53.88L.375 158.8C.75 159.3 .875 159.5 1.25 160H208V32H87.13C73.25 32 61.13 40.75 56.75 53.88zM391.3 53.88C386.9 40.75 374.8 32 360.9 32H240v128h206.8c.375-.5 .5-.75 .875-1.25L391.3 53.88z"/></svg>