<svg xmlns="http://www.w3.org/2000/svg" viewBox="0 0 512 512"><!--! Font Awesome Pro 6.0.0-alpha3 by @fontawesome - https://fontawesome.com License - https://fontawesome.com/license (Commercial License) --><defs><style>.fa-secondary{opacity:.4}</style></defs><path class="fa-primary" d="M442.5 325.5L383.1 384v16H252.8l28.03-18.69c7.344-4.906 9.344-14.83 4.438-22.19c-4.938-7.375-14.91-9.312-22.19-4.438L224 380.8l-39.13-26.08c-7.281-4.859-17.25-2.938-22.19 4.438c-4.906 7.359-2.906 17.28 4.438 22.19L195.2 400H64v-40.86C44.49 341.6 32 316.3 32 288V93.98C32.09 41.75 75.77 0 127.1 0h191.1c53.02 0 96 42.98 96 96l-.0156 32.25c-29.12 0-67.62-5.625-95.99 32.5v-.5H173.2c-22.5 0-43.62-8-60.5-22.38c-3.25-2.625-8-2.625-11 .375L90.49 149.6C87.24 152.9 87.37 158.3 90.87 161.3c22.88 20 51.75 30.88 82.37 30.88h132.5c-1 5.125-1.625 10.5-1.625 16c0 41.13 31.12 75.13 71.12 79.5c4.75 .5 8.875-3.375 8.875-8v-16c0-4-2.875-7.5-6.875-8.125c-24.66-3.41-43.39-25.81-40.91-52.04C338.7 178.1 362.3 160 387.7 160h28.27c35.24 0 63.1 28.75 63.1 64C479.1 237.8 482.7 285.1 442.5 325.5z"/><path class="fa-secondary" d="M383.1 400v64c0 26.51-21.49 48-48 48H112C85.49 512 64 490.5 64 464v-64h131.2l-28.03 18.69c-7.344 4.906-9.344 14.83-4.438 22.19C165.8 445.5 170.8 448 176 448c3.062 0 6.156-.875 8.875-2.688L224 419.2l39.13 26.08C265.8 447.1 268.9 448 272 448c5.156 0 10.22-2.5 13.31-7.125c4.906-7.359 2.906-17.28-4.438-22.19L252.8 400H383.1z"/></svg>