<svg xmlns="http://www.w3.org/2000/svg" viewBox="0 0 512 512"><!--! Font Awesome Pro 6.0.0-alpha3 by @fontawesome - https://fontawesome.com License - https://fontawesome.com/license (Commercial License) --><defs><style>.fa-secondary{opacity:.4}</style></defs><path class="fa-primary" d="M352 328c-16.38 0-30.38 9.9-36.57 24H272V272H320c26.47 0 48-21.53 48-48V180.6C382.1 174.4 392 160.4 392 144c0-22.09-17.91-40-40-40s-40 17.91-40 40c0 16.38 9.9 30.38 24 36.57V224c0 8.828-7.172 16-16 16h-48V56h-32V128H196.6C190.4 113.9 176.4 104 160 104c-22.09 0-40 17.91-40 40S137.9 184 160 184c16.38 0 30.38-9.9 36.57-24H240v80H192C165.5 240 144 261.5 144 288v43.43C129.9 337.6 120 351.6 120 368c0 22.09 17.91 40 40 40s40-17.91 40-40c0-16.38-9.9-30.38-24-36.57V288c0-8.828 7.172-16 16-16h48v184h32V384h43.43C321.6 398.1 335.6 408 352 408c22.09 0 40-17.91 40-40S374.1 328 352 328zM352 128c8.822 0 16 7.178 16 16S360.8 160 352 160s-16-7.178-16-16S343.2 128 352 128zM160 160C151.2 160 144 152.8 144 144S151.2 128 160 128s16 7.178 16 16S168.8 160 160 160zM160 384c-8.822 0-16-7.178-16-16S151.2 352 160 352s16 7.178 16 16S168.8 384 160 384zM352 384c-8.822 0-16-7.178-16-16S343.2 352 352 352s16 7.178 16 16S360.8 384 352 384z"/><path class="fa-secondary" d="M184 0C155 0 132 22 129 50c-28 7-48.99 32-48.99 62c0 6 .9863 12 2.986 18C53.1 136 32 161 32 192c0 15 5 29 13.1 40C19 245 0 272 0 304c0 34 21.1 63 52 75C49.1 385 48 392 48 400c0 35 29 64 64 64c5.1 0 11-1 17-2C131 490 155 512 184 512c31 0 56-25 56-56V272H192C183.2 272 176 279.2 176 288v43.43C190.1 337.6 200 351.6 200 368c0 22.09-17.91 40-40 40s-40-17.91-40-40c0-16.38 9.9-30.38 24-36.57V288c0-26.47 21.53-48 48-48h48V160H196.6C190.4 174.1 176.4 184 160 184c-22.09 0-40-17.91-40-40S137.9 104 160 104c16.38 0 30.38 9.9 36.57 24H240V56C240 25 215 0 184 0zM512 304c0-32-19-59-46-72C475 221 480 207 480 192c0-31-22-56-51-62c2-6 2.987-12 2.987-18c0-30-20.99-55-48.99-62C380 22 357 0 328 0c-31 0-56 25-56 56V240H320c8.828 0 16-7.172 16-16V180.6C321.9 174.4 312 160.4 312 144c0-22.09 17.91-40 40-40s40 17.91 40 40c0 16.38-9.9 30.38-24 36.57V224c0 26.47-21.53 48-48 48h-48V352h43.43C321.6 337.9 335.6 328 352 328c22.09 0 40 17.91 40 40s-17.91 40-40 40c-16.38 0-30.38-9.9-36.57-24H272v72c0 31 25 56 56 56c29 0 53-22 55-50C389 463 393.1 464 400 464c35 0 64-29 64-64c0-8-2-15-4-21C489.1 367 512 338 512 304z"/></svg>