<svg xmlns="http://www.w3.org/2000/svg" viewBox="0 0 512 512"><!--! Font Awesome Pro 6.0.0-alpha3 by @fontawesome - https://fontawesome.com License - https://fontawesome.com/license (Commercial License) --><defs><style>.fa-secondary{opacity:.4}</style></defs><path class="fa-primary" d="M448 32H64C28.65 32 0 60.65 0 96v128h512V96C512 60.65 483.3 32 448 32zM128 148C128 154.6 122.6 160 116 160h-40C69.38 160 64 154.6 64 148v-40C64 101.4 69.38 96 76 96h40C122.6 96 128 101.4 128 108V148zM448 148C448 154.6 442.6 160 436 160h-264C165.4 160 160 154.6 160 148v-40C160 101.4 165.4 96 172 96h264C442.6 96 448 101.4 448 108V148z"/><path class="fa-secondary" d="M0 224v192c0 35.35 28.65 64 64 64h384c35.35 0 64-28.65 64-64V224H0zM76 160h40C122.6 160 128 154.6 128 148v-40C128 101.4 122.6 96 116 96h-40C69.38 96 64 101.4 64 108v40C64 154.6 69.38 160 76 160z"/></svg>