<svg xmlns="http://www.w3.org/2000/svg" viewBox="0 0 384 512"><!--! Font Awesome Pro 6.0.0-alpha3 by @fontawesome - https://fontawesome.com License - https://fontawesome.com/license (Commercial License) --><defs><style>.fa-secondary{opacity:.4}</style></defs><path class="fa-primary" d="M336 .0145h-288c-26.51 0-48 21.49-48 48v432c0 17.67 14.33 32 32 32l112-.0073v-79.99c0-26.51 21.49-48.01 48-48.01s48 21.5 48 48.01v79.99l112 .0073c17.67 0 32-14.33 32-32v-432C384 21.5 362.5 .0145 336 .0145zM160 304c0 8.836-7.164 16-16 16h-32c-8.836 0-16-7.164-16-16v-32c0-8.838 7.164-16 16-16h32c8.836 0 16 7.167 16 16V304zM160 208c0 8.836-7.164 16-16 16h-32c-8.836 0-16-7.164-16-16v-32c0-8.838 7.164-16 16-16h32c8.836 0 16 7.167 16 16V208zM160 112c0 8.836-7.164 15.1-16 15.1h-32c-8.836 0-16-7.159-16-15.1v-32c0-8.838 7.164-16 16-16h32c8.836 0 16 7.162 16 16V112zM288 304c0 8.836-7.164 16-16 16h-32c-8.836 0-16-7.164-16-16v-32c0-8.838 7.164-16 16-16h32c8.836 0 16 7.167 16 16V304zM288 208c0 8.836-7.164 16-16 16h-32c-8.836 0-16-7.164-16-16v-32c0-8.838 7.164-16 16-16h32c8.836 0 16 7.167 16 16V208zM288 112c0 8.836-7.164 15.1-16 15.1h-32c-8.836 0-16-7.159-16-15.1v-32c0-8.838 7.164-16 16-16h32c8.836 0 16 7.162 16 16V112z"/><path class="fa-secondary" d="M144 256h-32c-8.836 0-16 7.167-16 16v32c0 8.836 7.164 16 16 16h32c8.836 0 16-7.164 16-16v-32C160 263.2 152.8 256 144 256zM144 160h-32c-8.836 0-16 7.167-16 16v32c0 8.836 7.164 16 16 16h32c8.836 0 16-7.164 16-16v-32C160 167.2 152.8 160 144 160zM144 64.02h-32c-8.836 0-16 7.162-16 16v32c0 8.836 7.164 15.1 16 15.1h32c8.836 0 16-7.159 16-15.1v-32C160 71.18 152.8 64.02 144 64.02zM272 256h-32c-8.836 0-16 7.167-16 16v32c0 8.836 7.164 16 16 16h32c8.836 0 16-7.164 16-16v-32C288 263.2 280.8 256 272 256zM272 160h-32c-8.836 0-16 7.167-16 16v32c0 8.836 7.164 16 16 16h32c8.836 0 16-7.164 16-16v-32C288 167.2 280.8 160 272 160zM272 64.02h-32c-8.836 0-16 7.162-16 16v32c0 8.836 7.164 15.1 16 15.1h32c8.836 0 16-7.159 16-15.1v-32C288 71.18 280.8 64.02 272 64.02z"/></svg>