<svg xmlns="http://www.w3.org/2000/svg" viewBox="0 0 512 512"><!--! Font Awesome Pro 6.0.0-alpha3 by @fontawesome - https://fontawesome.com License - https://fontawesome.com/license (Commercial License) --><defs><style>.fa-secondary{opacity:.4}</style></defs><path class="fa-primary" d="M464 0h-224C213.5 0 192 21.49 192 48v463.1L480 512c17.67 0 32-14.33 32-32V48C512 21.49 490.5 0 464 0zM320 304c0 8.836-7.164 16-16 16h-32C263.2 320 256 312.8 256 304v-32C256 263.2 263.2 256 272 256h32C312.8 256 320 263.2 320 272V304zM320 208C320 216.8 312.8 224 304 224h-32C263.2 224 256 216.8 256 208v-32C256 167.2 263.2 160 272 160h32C312.8 160 320 167.2 320 176V208zM320 112C320 120.8 312.8 128 304 128h-32C263.2 128 256 120.8 256 112v-32C256 71.16 263.2 64 272 64h32C312.8 64 320 71.16 320 80V112zM448 304c0 8.836-7.164 16-16 16h-32C391.2 320 384 312.8 384 304v-32C384 263.2 391.2 256 400 256h32C440.8 256 448 263.2 448 272V304zM448 208C448 216.8 440.8 224 432 224h-32C391.2 224 384 216.8 384 208v-32C384 167.2 391.2 160 400 160h32C440.8 160 448 167.2 448 176V208zM448 112C448 120.8 440.8 128 432 128h-32C391.2 128 384 120.8 384 112v-32C384 71.16 391.2 64 400 64h32C440.8 64 448 71.16 448 80V112z"/><path class="fa-secondary" d="M48 128c-26.51 0-48 21.49-48 48v304c0 17.67 14.33 32 32 32l160-.0293V128L48 128zM128 336c0 8.836-7.164 16-16 16h-32c-8.836 0-16-7.164-16-16v-32c0-8.838 7.164-16 16-16h32c8.836 0 16 7.162 16 16V336zM128 240c0 8.836-7.164 16-16 16h-32c-8.836 0-16-7.164-16-16v-32c0-8.838 7.164-16 16-16h32c8.836 0 16 7.162 16 16V240z"/></svg>