<svg xmlns="http://www.w3.org/2000/svg" viewBox="0 0 512 512"><!--! Font Awesome Pro 6.0.0-alpha3 by @fontawesome - https://fontawesome.com License - https://fontawesome.com/license (Commercial License) --><defs><style>.fa-secondary{opacity:.4}</style></defs><path class="fa-primary" d="M256 224C238.4 224 224 238.4 224 256s14.36 32 32 32s32-14.36 32-32S273.6 224 256 224zM256 0C114.8 0 0 114.8 0 256s114.8 256 256 256s256-114.8 256-256S397.2 0 256 0zM256 448c-106 0-192-85.96-192-192s85.96-192 192-192s192 85.96 192 192S362 448 256 448z"/><path class="fa-secondary" d="M256 112C176.6 112 112 176.6 112 256s64.6 144 144 144s144-64.6 144-144S335.4 112 256 112zM256 336c-44.18 0-80-35.82-80-80S211.8 176 256 176c44.18 0 80 35.82 80 80S300.2 336 256 336z"/></svg>