<svg xmlns="http://www.w3.org/2000/svg" viewBox="0 0 512 512"><!--! Font Awesome Pro 6.0.0-alpha3 by @fontawesome - https://fontawesome.com License - https://fontawesome.com/license (Commercial License) --><defs><style>.fa-secondary{opacity:.4}</style></defs><path class="fa-primary" d="M480 184.9v110.3C499.1 284 512 263.6 512 240S499.1 195.1 480 184.9zM64 128C28.66 128 0 156.7 0 192v96c0 35.34 28.66 64 64 64h2.53c-10.76 77.8 34.54 143.3 36.81 146.5C109.4 507 118.5 512 128 512h64c12.94 0 24.62-9.078 29.56-23.04c4.969-13.96 2.219-30-6.938-40.69C214.2 447.8 174.3 398.6 185.1 352H192c10.76 0 21.4 1.303 32 2.734V125.3C213.4 126.7 202.8 128 192 128H64z"/><path class="fa-secondary" d="M480 448c0 9.219-7.094 32-32 32c-6.188 0-15.16-3.156-20-7.031l-85.03-68.03C308.7 377.5 267.3 360.6 224 354.7V125.3c43.26-5.84 84.69-22.79 119-50.2l85.03-68.03C433.8 2.375 440.9 0 448 0c25.03 0 32 23.25 32 32V448z"/></svg>