<svg xmlns="http://www.w3.org/2000/svg" viewBox="0 0 512 512"><!--! Font Awesome Pro 6.0.0-alpha3 by @fontawesome - https://fontawesome.com License - https://fontawesome.com/license (Commercial License) --><defs><style>.fa-secondary{opacity:.4}</style></defs><path class="fa-primary" d="M267.3 244.7C263.2 240.6 257.2 239.1 251.6 240.6l-224 64C21.09 306.5 16.45 312.2 16.03 318.1c-.4219 6.766 3.438 13.06 9.672 15.72l74.44 31.91l-84.14 84.14c-12.49 12.49-12.49 32.75-.0005 45.25c12.5 12.5 32.75 12.5 45.25 .0005l84.14-84.14l31.91 74.44C179.8 492.2 185.6 496 192 496c.3281 0 .6719-.0156 1.016-.0313c6.75-.4219 12.52-5.062 14.38-11.58l64-224C272.1 254.8 271.4 248.8 267.3 244.7z"/><path class="fa-secondary" d="M336 256c0 34.06-21.37 62.95-51.36 74.49l-19.6 68.6C340.2 394.3 400 332.3 400 256c0-79.4-64.6-144-144-144c-76.3 0-138.3 59.83-143.1 134.1l68.6-19.6C193.1 197.4 221.9 176 256 176C300.2 176 336 211.8 336 256zM256 0C114.8 0 0 114.8 0 256c0 9.318 .5684 18.5 1.543 27.56c5.055-4.24 10.67-7.84 17.28-9.725l45.43-12.98C64.21 259.2 64 257.6 64 256c0-106 85.96-192 192-192s192 85.96 192 192s-85.96 192-192 192c-1.641 0-3.23-.2051-4.861-.2461l-12.98 45.42c-1.885 6.605-5.494 12.22-9.754 17.28C237.5 511.4 246.7 512 256 512c141.2 0 256-114.8 256-256S397.2 0 256 0z"/></svg>