<svg xmlns="http://www.w3.org/2000/svg" viewBox="0 0 512 512"><!--! Font Awesome Pro 6.0.0-alpha3 by @fontawesome - https://fontawesome.com License - https://fontawesome.com/license (Commercial License) --><defs><style>.fa-secondary{opacity:.4}</style></defs><path class="fa-primary" d="M512 304c0 26.5-21.5 48-48 48h-416c-26.5 0-48-21.5-48-48s21.5-47.1 48-47.1h416C490.5 256 512 277.5 512 304z"/><path class="fa-secondary" d="M58.63 224h394.6c34.63 0 54.63-43.88 34.88-75.88C448 83.25 359.5 32.13 255.1 32C152.5 32.13 64 83.25 23.75 148.1C4 180.1 24.13 224 58.63 224zM384 112c8.875 0 16 7.125 16 16S392.9 144 384 144S368 136.9 368 128S375.1 112 384 112zM256 80C264.9 80 272 87.13 272 96s-7.125 16-16 16S240 104.9 240 96S247.1 80 256 80zM128 112c8.875 0 16 7.125 16 16S136.9 144 128 144S112 136.9 112 128S119.1 112 128 112zM480 384H32c-8.875 0-16 7.125-16 16V416c0 35.38 28.62 64 64 64h352c35.38 0 64-28.62 64-64v-16C496 391.1 488.9 384 480 384z"/></svg>