<svg xmlns="http://www.w3.org/2000/svg" viewBox="0 0 640 512"><!--! Font Awesome Pro 6.0.0-alpha3 by @fontawesome - https://fontawesome.com License - https://fontawesome.com/license (Commercial License) --><defs><style>.fa-secondary{opacity:.4}</style></defs><path class="fa-primary" d="M624 447.1h-320c-8.875 0-16 7.125-16 16c0 26.5 21.5 48 48 48h256c26.5 0 48-21.5 48-48C640 455.1 632.9 447.1 624 447.1zM320 415.1h288c17.62 0 32-14.37 32-31.1s-14.38-32-32-32h-288c-17.62 0-32 14.38-32 32S302.4 415.1 320 415.1zM319.3 319.1h289.5c25.38 0 40-29.25 25.5-50.63C604.8 226.1 540 192.1 464 191.1s-140.8 34.13-170.3 77.37C279.3 290.7 293.9 319.1 319.3 319.1zM544 239.1c8.875 0 16 7.125 16 16c0 8.875-7.168 16-16.04 16s-16-7.125-16-16S535.1 239.1 544 239.1zM464 223.1c8.875 0 16 7.125 16 16s-7.168 16-16.04 16s-15.99-7.125-15.99-15.1S455.1 223.1 464 223.1zM384 239.1c8.875 0 16 7.125 16 16c0 8.875-7.168 16-16.04 16s-16-7.125-16-16S375.1 239.1 384 239.1z"/><path class="fa-secondary" d="M291.4 223.1H38.25l25.75 258.3c1.25 16.88 15.12 29.88 31.1 29.75L256 511.1c4.75-.125 9.375-1.25 13.62-3.375C260.8 495.5 256 479.9 256 463.1c0-14.12 6.25-27.5 17-36.63c-11.62-12.62-17.75-29.37-16.88-46.62c.875-17.12 8.625-33.25 21.5-44.63c-5.75-5.125-10.5-11.12-14.12-17.88c-11.25-21.25-9.75-46.1 3.75-66.87C273.1 241.5 282.4 232.5 291.4 223.1zM335.1 127.1H206.8l20-80L272 47.1c8.875 0 16-7.125 16-16L287.1 15.1c0-8.875-7.124-16-15.1-16H220.5c-18.38 0-34.37 12.49-38.75 30.24l-24.5 97.76h-141.3C7.124 127.1 0 135.1 0 143.1v31.1c0 8.875 7.125 16 16 16h320c8.875 0 16-7.125 16-16l-.0234-31.1C351.1 135.1 344.9 127.1 335.1 127.1z"/></svg>