<svg xmlns="http://www.w3.org/2000/svg" viewBox="0 0 640 512"><!--! Font Awesome Pro 6.0.0-alpha3 by @fontawesome - https://fontawesome.com License - https://fontawesome.com/license (Commercial License) --><defs><style>.fa-secondary{opacity:.4}</style></defs><path class="fa-primary" d="M624 447.1h-320c-8.875 0-16 7.125-16 16c0 26.5 21.5 48 48 48h256c26.5 0 48-21.5 48-48C640 455.1 632.9 447.1 624 447.1zM320 415.1h288c17.62 0 32-14.37 32-31.1s-14.38-32-32-32h-288c-17.62 0-32 14.38-32 32S302.4 415.1 320 415.1zM319.3 319.1h289.5c25.38 0 40-29.25 25.5-50.63C604.8 226.1 540 192.1 464 191.1s-140.8 34.13-170.3 77.38C279.3 290.7 293.9 319.1 319.3 319.1zM544 239.1c8.875 0 16 7.125 16 16s-7.168 16-16.04 16s-16-7.125-16-15.1C527.1 247.1 535.1 239.1 544 239.1zM464 223.1c8.875 0 16 7.125 16 16s-7.168 16-16.04 16s-15.99-7.125-15.99-15.1S455.1 223.1 464 223.1zM384 239.1c8.875 0 16 7.125 16 16s-7.168 16-16.04 16s-16-7.125-16-15.1C367.1 247.1 375.1 239.1 384 239.1z"/><path class="fa-secondary" d="M319.9 0H32.11C13.03 0-1.846 16.49 .1855 35.41l41.25 448C43.19 499.7 56.95 512 73.34 512h199.1C262.3 498.6 256 482.1 256 463.1c0-14.66 6.605-27.8 16.99-36.61C262.5 415.1 256 400.7 256 383.1c0-19.02 8.344-36.14 21.56-47.87c-5.576-4.957-10.33-10.95-13.96-17.8c-11.29-21.3-9.887-46.95 3.709-66.99c16.68-24.45 41.24-44.78 70.16-60.22l14.34-155.7C353.8 16.49 338.1 0 319.9 0zM276.1 160H75.92L67.08 64h217.8L276.1 160z"/></svg>