<svg xmlns="http://www.w3.org/2000/svg" viewBox="0 0 448 512"><!--! Font Awesome Pro 6.0.0-alpha3 by @fontawesome - https://fontawesome.com License - https://fontawesome.com/license (Commercial License) --><defs><style>.fa-secondary{opacity:.4}</style></defs><path class="fa-primary" d="M0 416c0 17.67 14.34 32 32 32h390.4C438.4 448 448 435.2 448 422.4V80C448 35.2 348.8 0 224 0S0 35.2 0 80V416zM400 368c0 17.67-14.34 32-32 32s-32-14.33-32-32s14.34-32 32-32S400 350.3 400 368zM64 128c0-17.67 14.34-32 32-32h256c17.66 0 32 14.33 32 32v128c0 17.67-14.34 32-32 32H96C78.34 288 64 273.7 64 256V128zM80 336c17.66 0 32 14.33 32 32s-14.34 32-32 32s-32-14.33-32-32S62.34 336 80 336z"/><path class="fa-secondary" d="M32 480c0 17.67 14.34 32 32 32h32c17.66 0 32-14.33 32-32v-32H32V480zM320 448v32c0 17.67 14.34 32 32 32h32c17.66 0 32-14.33 32-32v-32H320zM96 288h256c17.66 0 32-14.33 32-32V128c0-17.67-14.34-32-32-32H96C78.34 96 64 110.3 64 128v128C64 273.7 78.34 288 96 288z"/></svg>