<svg xmlns="http://www.w3.org/2000/svg" viewBox="0 0 576 512"><!--! Font Awesome Pro 6.0.0-alpha3 by @fontawesome - https://fontawesome.com License - https://fontawesome.com/license (Commercial License) --><defs><style>.fa-secondary{opacity:.4}</style></defs><path class="fa-primary" d="M56 240H80v20.88C70.63 266.5 64 276.3 64 288v128c0 17.62 14.38 32 32 32h384c17.62 0 32-14.38 32-32V288c0-11.75-6.625-21.5-16-27.12V240h24C533.3 240 544 229.3 544 216v-80c0-13.25-10.75-24-24-24H496v-32C496 35.25 403.9 0 288 0S80 35.25 80 80v32H56C42.75 112 32 122.8 32 136v80C32 229.3 42.75 240 56 240zM464 352c0 17.62-14.38 32-32 32s-32-14.38-32-32s14.38-32 32-32S464 334.4 464 352zM432 160v64c0 17.62-14.38 32-32 32h-96V128h96C417.6 128 432 142.4 432 160zM207.1 64h160c8.836 0 16 7.162 16 16c0 8.836-7.164 16-16 16h-160c-8.836 0-16-7.164-16-16C191.1 71.16 199.1 64 207.1 64zM144 160c0-17.62 14.38-32 32-32h96v128h-96c-17.62 0-32-14.38-32-32V160zM144 320c17.62 0 32 14.38 32 32s-14.38 32-32 32s-32-14.38-32-32S126.4 320 144 320z"/><path class="fa-secondary" d="M96 480c0 17.62 14.38 32 32 32h32c17.62 0 32-14.38 32-32v-32H96V480zM384 448v32c0 17.62 14.38 32 32 32h32c17.62 0 32-14.38 32-32v-32H384zM432 224V160c0-17.62-14.38-32-32-32h-96v128h96C417.6 256 432 241.6 432 224zM144 160v64c0 17.62 14.38 32 32 32h96V128h-96C158.4 128 144 142.4 144 160z"/></svg>