<svg xmlns="http://www.w3.org/2000/svg" viewBox="0 0 576 512"><!--! Font Awesome Pro 6.0.0-alpha3 by @fontawesome - https://fontawesome.com License - https://fontawesome.com/license (Commercial License) --><defs><style>.fa-secondary{opacity:.4}</style></defs><path class="fa-primary" d="M56 256H64v160c0 17.62 14.38 32 32 32h390.4C502.4 448 512 435.3 512 422.4V256h8C533.3 256 544 245.3 544 232v-80C544 138.8 533.3 128 520 128H512V80C512 35.25 412.8 0 288 0S64 35.25 64 80V128H56C42.75 128 32 138.8 32 152v80C32 245.3 42.75 256 56 256zM464 368c0 17.62-14.38 32-32 32s-32-14.38-32-32s14.38-32 32-32S464 350.4 464 368zM448 160v96c0 17.62-14.38 32-32 32h-112V128H416C433.6 128 448 142.4 448 160zM208 64h160C376.8 64 384 71.16 384 80C384 88.84 376.8 96 368 96h-160C199.2 96 192 88.84 192 80C192 71.16 199.2 64 208 64zM128 160c0-17.62 14.38-32 32-32h112v160H160C142.4 288 128 273.6 128 256V160zM144 336c17.62 0 32 14.38 32 32s-14.38 32-32 32s-32-14.38-32-32S126.4 336 144 336z"/><path class="fa-secondary" d="M96 480c0 17.62 14.38 32 32 32h32c17.62 0 32-14.38 32-32v-32H96V480zM384 448v32c0 17.62 14.38 32 32 32h32c17.62 0 32-14.38 32-32v-32H384zM448 256V160c0-17.62-14.38-32-32-32h-112v160H416C433.6 288 448 273.6 448 256zM128 160v96c0 17.62 14.38 32 32 32h112V128H160C142.4 128 128 142.4 128 160z"/></svg>