<svg xmlns="http://www.w3.org/2000/svg" viewBox="0 0 512 512"><!--! Font Awesome Pro 6.0.0-alpha3 by @fontawesome - https://fontawesome.com License - https://fontawesome.com/license (Commercial License) --><defs><style>.fa-secondary{opacity:.4}</style></defs><path class="fa-primary" d="M415.1 224h-144V132.3L239.1 140.8V224H95.99C60.65 224 31.99 252.7 31.99 288v160c0 35.35 28.65 64 63.1 64h319.1c35.35 0 63.1-28.65 63.1-64V288C479.1 252.7 451.3 224 415.1 224zM175.1 384h-96l.0032-96h95.1V384zM303.1 384H207.1V288h96V384zM431.1 384h-96V288h96L431.1 384zM191.1 96c17.75 0 32-14.25 32-32S209.7 32 191.1 32S159.1 46.25 159.1 64S174.2 96 191.1 96zM287.1 64c17.75 0 32-14.25 32-32s-14.25-32-32-32S255.1 14.25 255.1 32S270.2 64 287.1 64z"/><path class="fa-secondary" d="M511.5 51.88c-2.25-8.625-10.99-13.65-19.61-11.28l-479.1 128C3.35 170.8-1.806 179.6 .5693 188.2C2.444 195.2 8.832 200 15.96 200c1.375 0 2.769-.2656 4.144-.5156l479.1-128C508.7 69.23 513.7 60.38 511.5 51.88zM79.99 384h96V288H79.99L79.99 384zM207.1 384h96V288H207.1V384zM335.1 384h96l.0028-96h-96V384z"/></svg>