<svg xmlns="http://www.w3.org/2000/svg" viewBox="0 0 576 512"><!--! Font Awesome Pro 6.0.0-alpha3 by @fontawesome - https://fontawesome.com License - https://fontawesome.com/license (Commercial License) --><defs><style>.fa-secondary{opacity:.4}</style></defs><path class="fa-primary" d="M448 112C448 85.49 426.5 64 400 64H352V31.1C352 14.33 337.7 0 320 0S288 14.33 288 31.1V64H160V31.1C160 14.33 145.7 0 128 0S96 14.33 96 31.1V64H48C21.49 64 0 85.49 0 112V192h448V112zM432 224C352.5 224 288 288.5 288 368s64.46 144 144 144C511.5 512 576 447.5 576 368S511.5 224 432 224zM480 384h-48c-8.844 0-16-7.156-16-16V304.8c0-8.844 7.156-16 16-16s16 7.156 16 16V352h32c8.844 0 16 7.156 16 16S488.8 384 480 384z"/><path class="fa-secondary" d="M448 192h-16c5.402 0 10.72 .3301 16 .8066V192zM256 368C256 270.8 334.8 192 432 192H0v272C0 490.5 21.5 512 48 512h283C285.7 480.2 256 427.6 256 368z"/></svg>