<svg xmlns="http://www.w3.org/2000/svg" viewBox="0 0 448 512"><!--! Font Awesome Pro 6.0.0-alpha3 by @fontawesome - https://fontawesome.com License - https://fontawesome.com/license (Commercial License) --><defs><style>.fa-secondary{opacity:.4}</style></defs><path class="fa-primary" d="M400 64H352V31.1C352 14.4 337.6 0 320 0s-32 14.4-32 31.1V64H160V31.1C160 14.4 145.6 0 128 0S96 14.4 96 31.1V64H48C21.49 64 0 85.49 0 112V192h448V112C448 85.49 426.5 64 400 64zM287 327L248 366.1V264c0-13.25-10.75-24-24-24S200 250.8 200 264v102.1l-39.03-39.03C156.3 322.3 150.2 320 144 320s-12.28 2.344-16.97 7.031c-9.375 9.375-9.375 24.56 0 33.94l80 80c9.375 9.375 24.56 9.375 33.94 0l80-80c9.375-9.375 9.375-24.56 0-33.94S296.4 317.7 287 327z"/><path class="fa-secondary" d="M0 464C0 490.5 21.5 512 48 512h352c26.5 0 48-21.5 48-48V192H0V464zM320.1 360.1l-80 80c-9.375 9.375-24.56 9.375-33.94 0l-80-80c-9.375-9.375-9.375-24.56 0-33.94C131.7 322.3 137.8 320 144 320s12.28 2.344 16.97 7.031L200 366.1V264C200 250.8 210.8 240 224 240s24 10.75 24 24v102.1l39.03-39.03c9.375-9.375 24.56-9.375 33.94 0S330.3 351.6 320.1 360.1z"/></svg>