<svg xmlns="http://www.w3.org/2000/svg" viewBox="0 0 448 512"><!--! Font Awesome Pro 6.0.0-alpha3 by @fontawesome - https://fontawesome.com License - https://fontawesome.com/license (Commercial License) --><defs><style>.fa-secondary{opacity:.4}</style></defs><path class="fa-primary" d="M400 64H352V31.1C352 14.4 337.6 0 320 0C302.4 0 288 14.4 288 31.1V64H160V31.1C160 14.4 145.6 0 128 0S96 14.4 96 31.1V64H48c-26.51 0-48 21.49-48 48L0 192h448l.0002-80C448 85.49 426.5 64 400 64zM112 320C120.8 320 128 312.8 128 304v-32C128 263.2 120.8 256 112 256h-32C71.16 256 64 263.2 64 272v32C64 312.8 71.16 320 80 320H112zM368 384h-32c-8.836 0-16 7.164-16 16v32c0 8.836 7.164 16 16 16h32c8.838 0 16-7.164 16-16v-32C384 391.2 376.8 384 368 384zM360 264h-176C170.7 264 160 274.7 160 288S170.7 312 184 312h176c13.25 0 24-10.75 24-24S373.3 264 360 264zM264 392h-176c-13.25 0-23.1 10.75-23.1 24S74.75 440 88 440h176c13.25 0 24-10.75 24-24S277.3 392 264 392z"/><path class="fa-secondary" d="M0 192l.0002 272c0 26.5 21.5 48 48 48h352c26.5 0 48-21.5 48-48L448 192H0zM64 272C64 263.2 71.16 256 80 256h32C120.8 256 128 263.2 128 272v32C128 312.8 120.8 320 112 320h-32C71.16 320 64 312.8 64 304V272zM264 440h-176c-13.25 0-23.1-10.75-23.1-24S74.75 392 88 392h176c13.25 0 24 10.75 24 24S277.3 440 264 440zM384 432c0 8.836-7.162 16-16 16h-32c-8.836 0-16-7.164-16-16v-32c0-8.836 7.164-16 16-16h32c8.838 0 16 7.164 16 16V432zM360 312h-176C170.7 312 160 301.3 160 288S170.7 264 184 264h176c13.25 0 24 10.75 24 24S373.3 312 360 312z"/></svg>