<svg xmlns="http://www.w3.org/2000/svg" viewBox="0 0 448 512"><!--! Font Awesome Pro 6.0.0-alpha3 by @fontawesome - https://fontawesome.com License - https://fontawesome.com/license (Commercial License) --><defs><style>.fa-secondary{opacity:.4}</style></defs><path class="fa-primary" d="M400 64H352V31.1C352 14.33 337.7 0 320 0S288 14.33 288 31.1V64H160V31.1C160 14.33 145.7 0 128 0S96 14.33 96 31.1V64H48c-26.51 0-48 21.49-48 48L0 192h448l.0002-80C448 85.49 426.5 64 400 64zM313.1 304.3l-54.75-8l-24.5-49.5c-4.375-8.875-17-9-21.5 0l-24.5 49.5l-54.63 8c-9.875 1.5-13.88 13.5-6.625 20.5l39.63 38.63l-9.375 54.63C156 427.8 166.4 435.3 175.1 430.6L224 404.8l49 25.88c8.75 4.625 19.12-2.75 17.38-12.62L281 363.4l39.63-38.63C327.8 317.8 323.8 305.8 313.1 304.3z"/><path class="fa-secondary" d="M0 192l.0002 272c0 26.5 21.5 48 48 48h352c26.5 0 48-21.5 48-48L448 192H0zM320.6 324.8L281 363.4l9.375 54.63c1.75 9.875-8.625 17.25-17.38 12.62L224 404.8l-48.88 25.88C166.4 435.3 156 427.8 157.8 418l9.375-54.63L127.5 324.8c-7.25-7-3.25-19 6.625-20.5l54.63-8l24.5-49.5c4.5-9 17.12-8.875 21.5 0l24.5 49.5l54.75 8C323.8 305.8 327.8 317.8 320.6 324.8z"/></svg>