<svg xmlns="http://www.w3.org/2000/svg" viewBox="0 0 448 512"><!--! Font Awesome Pro 6.0.0-alpha3 by @fontawesome - https://fontawesome.com License - https://fontawesome.com/license (Commercial License) --><defs><style>.fa-secondary{opacity:.4}</style></defs><path class="fa-primary" d="M400 64H352V31.1C352 14.33 337.7 0 320 0S288 14.33 288 31.1V64H160V31.1C160 14.33 145.7 0 128 0S96 14.33 96 31.1V64H48C21.49 64 0 85.49 0 112V192h448V112C448 85.49 426.5 64 400 64zM304 328H247.1V271.1C247.1 258.7 237.3 248 224 248S200 258.7 200 271.1v56H143.1C130.7 328 120 338.7 120 352c0 13.26 10.73 23.1 23.1 23.1H200v56C200 445.3 210.7 456 224 456c13.26 0 23.1-10.74 23.1-23.1V375.1h56C317.3 375.1 328 365.3 328 352S317.3 328 304 328z"/><path class="fa-secondary" d="M0 192v272C0 490.5 21.5 512 48 512h352c26.5 0 48-21.5 48-48V192H0zM304 375.1H247.1v56C247.1 445.3 237.3 456 224 456c-13.27 0-23.1-10.74-23.1-23.1V375.1H143.1C130.7 375.1 120 365.3 120 352c0-13.26 10.74-23.1 23.1-23.1H200V271.1C200 258.7 210.7 248 224 248s23.1 10.74 23.1 23.1v56h56C317.3 328 328 338.7 328 352S317.3 375.1 304 375.1z"/></svg>