<svg xmlns="http://www.w3.org/2000/svg" viewBox="0 0 448 512"><!--! Font Awesome Pro 6.0.0-alpha3 by @fontawesome - https://fontawesome.com License - https://fontawesome.com/license (Commercial License) --><defs><style>.fa-secondary{opacity:.4}</style></defs><path class="fa-primary" d="M400 64H352V31.1C352 14.33 337.7 0 320 0s-32 14.33-32 31.1V64H160V31.1C160 14.33 145.7 0 128 0S96 14.33 96 31.1V64H48C21.49 64 0 85.49 0 112V192h448V112C448 85.49 426.5 64 400 64zM277.8 280.4l-79.13 92.34l-29.69-29.69c-9.375-9.375-24.56-9.375-33.94 0s-9.375 24.56 0 33.94l48 48c4.5 4.5 10.62 7.031 16.97 7.031c.3125 0 .625 0 .9062-.0313c6.688-.25 12.97-3.281 17.31-8.344l96-112c8.625-10.06 7.469-25.22-2.594-33.84C301.6 269.2 286.4 270.3 277.8 280.4z"/><path class="fa-secondary" d="M0 464C0 490.5 21.5 512 48 512h352c26.5 0 48-21.5 48-48V192H0V464zM135 343c9.375-9.375 24.56-9.375 33.94 0l29.69 29.69l79.13-92.34c8.656-10.06 23.81-11.19 33.84-2.594c10.06 8.625 11.22 23.78 2.594 33.84l-96 112c-4.344 5.062-10.62 8.094-17.31 8.344C200.6 431.1 200.3 431.1 200 431.1c-6.344 0-12.47-2.531-16.97-7.031l-48-48C125.7 367.6 125.7 352.4 135 343z"/></svg>