<svg xmlns="http://www.w3.org/2000/svg" viewBox="0 0 448 512"><!--! Font Awesome Pro 6.0.0-alpha3 by @fontawesome - https://fontawesome.com License - https://fontawesome.com/license (Commercial License) --><defs><style>.fa-secondary{opacity:.4}</style></defs><path class="fa-primary" d="M400 64H352V31.1C352 14.4 337.6 0 320 0C302.4 0 288 14.4 288 31.1V64H160V31.1C160 14.4 145.6 0 128 0S96 14.4 96 31.1V64H48c-26.51 0-48 21.49-48 48L0 192h448l.0002-80C448 85.49 426.5 64 400 64zM232.3 274.9l-8.445 8.754l-8.445-8.754c-21.42-22.14-56.3-25.77-79.8-5.754c-26.92 23.02-28.39 64.17-4.281 89.19l82.98 85.56c5.387 5.504 13.95 5.504 19.34 0l82.99-85.56c24.11-25.02 22.64-66.17-4.41-89.19C288.9 249.1 253.9 252.7 232.3 274.9z"/><path class="fa-secondary" d="M0 192l.0002 272c0 26.5 21.5 48 48 48h352c26.5 0 48-21.5 48-48L448 192H0zM316.7 358.3l-82.99 85.56c-5.387 5.504-13.95 5.504-19.34 0l-82.98-85.56c-24.11-25.02-22.64-66.17 4.281-89.19c23.5-20.02 58.39-16.39 79.8 5.754l8.445 8.754l8.445-8.754c21.54-22.14 56.55-25.77 79.93-5.754C339.3 292.1 340.8 333.3 316.7 358.3z"/></svg>