<svg xmlns="http://www.w3.org/2000/svg" viewBox="0 0 448 512"><!--! Font Awesome Pro 6.0.0-alpha3 by @fontawesome - https://fontawesome.com License - https://fontawesome.com/license (Commercial License) --><defs><style>.fa-secondary{opacity:.4}</style></defs><path class="fa-primary" d="M400 64H352V31.1C352 14.33 337.7 0 320 0S288 14.33 288 31.1V64H160V31.1C160 14.33 145.7 0 128 0S96 14.33 96 31.1V64H48c-26.51 0-48 21.49-48 48L0 192h448l.0002-80C448 85.49 426.5 64 400 64z"/><path class="fa-secondary" d="M0 192l.0002 272c0 26.5 21.5 48 48 48h352c26.5 0 48-21.5 48-48L448 192H0zM384 336c0 8.75-7.25 16-15.1 16h-288C71.25 352 64 344.8 64 336v-64C64 263.3 71.25 256 80 256h288C376.8 256 384 263.3 384 272V336z"/></svg>