<svg xmlns="http://www.w3.org/2000/svg" viewBox="0 0 448 512"><!--! Font Awesome Pro 6.0.0-alpha3 by @fontawesome - https://fontawesome.com License - https://fontawesome.com/license (Commercial License) --><defs><style>.fa-secondary{opacity:.4}</style></defs><path class="fa-primary" d="M224 400c-17.67 0-32 14.33-32 32s14.33 32 32 32s32-14.33 32-32S241.7 400 224 400zM400 64H352V31.1C352 14.4 337.6 0 320 0C302.4 0 288 14.4 288 31.1V64H160V31.1C160 14.4 145.6 0 128 0S96 14.4 96 31.1V64H48C21.49 64 0 85.49 0 112V192h448V112C448 85.49 426.5 64 400 64zM224 368c13.25 0 24-10.75 24-24v-80c0-13.25-10.75-24-24-24S200 250.8 200 264v80C200 357.3 210.8 368 224 368z"/><path class="fa-secondary" d="M0 192v272C0 490.5 21.5 512 48 512h352c26.5 0 48-21.5 48-48V192H0zM200 264C200 250.8 210.8 240 224 240s24 10.75 24 24v80c0 13.25-10.75 24-24 24s-24-10.75-24-24V264zM224 464c-17.67 0-32-14.33-32-32s14.33-32 32-32s32 14.33 32 32S241.7 464 224 464z"/></svg>