<svg xmlns="http://www.w3.org/2000/svg" viewBox="0 0 448 512"><!--! Font Awesome Pro 6.0.0-alpha3 by @fontawesome - https://fontawesome.com License - https://fontawesome.com/license (Commercial License) --><defs><style>.fa-secondary{opacity:.4}</style></defs><path class="fa-primary" d="M400 64H352V31.1C352 14.4 337.6 0 320 0s-32 14.4-32 31.1V64H160V31.1C160 14.4 145.6 0 128 0S96 14.4 96 31.1V64H48c-26.51 0-48 21.49-48 48L0 192h448l.0002-80C448 85.49 426.5 64 400 64zM240.1 247c-9.375-9.375-24.56-9.375-33.94 0l-80 80c-9.375 9.375-9.375 24.56 0 33.94s24.56 9.375 33.94 0L200 321.9V424c0 13.25 10.75 24 24 24S248 437.3 248 424v-102.1l39.03 39.03C291.7 365.7 297.8 368 304 368s12.28-2.344 16.97-7.031c9.375-9.375 9.375-24.56 0-33.94L240.1 247z"/><path class="fa-secondary" d="M.0002 464c0 26.5 21.5 48 48 48h352c26.5 0 48-21.5 48-48L448 192H0L.0002 464zM127 327l80-80c9.375-9.375 24.56-9.375 33.94 0l80 80c9.375 9.375 9.375 24.56 0 33.94C316.3 365.7 310.2 368 304 368s-12.28-2.344-16.97-7.031L248 321.9V424c0 13.25-10.75 24-23.1 24S200 437.3 200 424v-102.1l-39.03 39.03c-9.375 9.375-24.56 9.375-33.94 0S117.7 336.4 127 327z"/></svg>