<svg xmlns="http://www.w3.org/2000/svg" viewBox="0 0 448 512"><!--! Font Awesome Pro 6.0.0-alpha3 by @fontawesome - https://fontawesome.com License - https://fontawesome.com/license (Commercial License) --><defs><style>.fa-secondary{opacity:.4}</style></defs><path class="fa-primary" d="M400 64H352V31.1C352 14.4 337.6 0 320 0c-17.6 0-32 14.4-32 31.1V64H160V31.1C160 14.4 145.6 0 128 0S96 14.4 96 31.1V64H48c-26.51 0-48 21.49-48 48L0 192h448l.0002-80C448 85.49 426.5 64 400 64zM120 320h208C341.3 320 352 309.3 352 296S341.3 272 328 272h-208C106.8 272 96 282.8 96 296S106.8 320 120 320zM120 416h112c13.25 0 24-10.75 24-24s-10.75-24-24-24h-112C106.8 368 96 378.8 96 392S106.8 416 120 416z"/><path class="fa-secondary" d="M0 192l.0002 272c0 26.5 21.5 48 48 48h352c26.5 0 48-21.5 48-48L448 192H0zM232 416h-112C106.8 416 96 405.3 96 392s10.75-24 24-24h112c13.25 0 24 10.75 24 24S245.3 416 232 416zM328 320h-208C106.8 320 96 309.3 96 296S106.8 272 120 272h208C341.3 272 352 282.8 352 296S341.3 320 328 320z"/></svg>