<svg xmlns="http://www.w3.org/2000/svg" viewBox="0 0 448 512"><!--! Font Awesome Pro 6.0.0-alpha3 by @fontawesome - https://fontawesome.com License - https://fontawesome.com/license (Commercial License) --><defs><style>.fa-secondary{opacity:.4}</style></defs><path class="fa-primary" d="M400 64H352V31.1C352 14.33 337.7 0 320 0S288 14.33 288 31.1V64H160V31.1C160 14.33 145.7 0 128 0S96 14.33 96 31.1V64H48C21.49 64 0 85.49 0 112V192h448V112C448 85.49 426.5 64 400 64zM304.1 271c-9.375-9.375-24.56-9.375-33.94 0L224 318.1L176.1 271c-9.375-9.375-24.56-9.375-33.94 0s-9.375 24.56 0 33.94L190.1 352l-47.03 47.03c-9.375 9.375-9.375 24.56 0 33.94c9.374 9.374 24.56 9.38 33.94 0L224 385.9l47.03 47.03c9.374 9.374 24.56 9.38 33.94 0c9.375-9.375 9.375-24.56 0-33.94L257.9 352l47.03-47.03C314.3 295.6 314.3 280.4 304.1 271z"/><path class="fa-secondary" d="M0 192v272C0 490.5 21.5 512 48 512h352c26.5 0 48-21.5 48-48V192H0zM304.1 399c9.375 9.375 9.375 24.56 0 33.94c-9.374 9.374-24.56 9.38-33.94 0L224 385.9l-47.03 47.03c-9.374 9.374-24.56 9.38-33.94 0c-9.375-9.375-9.375-24.56 0-33.94L190.1 352L143 304.1c-9.375-9.375-9.375-24.56 0-33.94s24.56-9.375 33.94 0L224 318.1l47.03-47.03c9.375-9.375 24.56-9.375 33.94 0s9.375 24.56 0 33.94L257.9 352L304.1 399z"/></svg>