<svg xmlns="http://www.w3.org/2000/svg" viewBox="0 0 448 512"><!--! Font Awesome Pro 6.0.0-alpha3 by @fontawesome - https://fontawesome.com License - https://fontawesome.com/license (Commercial License) --><defs><style>.fa-secondary{opacity:.4}</style></defs><path class="fa-primary" d="M400 64H352V31.1C352 14.33 337.7 0 320 0S288 14.33 288 31.1V64H160V31.1C160 14.33 145.7 0 128 0S96 14.33 96 31.1V64H48C21.49 64 0 85.49 0 112V192h448V112C448 85.49 426.5 64 400 64zM140.9 387.1c-1.676 1.676-2.818 3.81-3.283 6.133l-9.523 47.58c-.8398 4.197 2.9 7.935 7.097 7.095l47.57-9.526c2.324-.4648 4.457-1.605 6.132-3.281l90.58-90.56l-48-48L140.9 387.1zM292.2 261.3c-7.031-7.031-18.45-7.031-25.47 0l-18.23 18.23l48.01 48.01l18.24-18.24c7.029-7.037 7.029-18.44 0-25.47L292.2 261.3z"/><path class="fa-secondary" d="M0 192v272C0 490.5 21.5 512 48 512h352c26.5 0 48-21.5 48-48V192H0zM188.9 435.1c-1.676 1.676-3.808 2.816-6.132 3.281L135.2 447.9c-4.197 .8398-7.937-2.898-7.097-7.095l9.523-47.58c.4648-2.322 1.607-4.457 3.283-6.133l90.58-90.57l48 48L188.9 435.1zM314.7 309.3l-18.24 18.24l-48.01-48.01l18.23-18.23c7.029-7.031 18.44-7.031 25.47 0l22.54 22.53C321.8 290.8 321.8 302.2 314.7 309.3z"/></svg>