<svg xmlns="http://www.w3.org/2000/svg" viewBox="0 0 512 512"><!--! Font Awesome Pro 6.0.0-alpha3 by @fontawesome - https://fontawesome.com License - https://fontawesome.com/license (Commercial License) --><defs><style>.fa-secondary{opacity:.4}</style></defs><path class="fa-primary" d="M160 48C160 39.16 152.8 32 144 32h-64C71.16 32 64 39.16 64 48V64h96V48zM0 160v272C0 458.5 21.49 480 48 480h416c26.51 0 48-21.49 48-48V160H0zM256 416c-61.73 0-112-50.27-112-112C144 242.3 194.3 192 256 192s112 50.27 112 112C368 365.7 317.7 416 256 416z"/><path class="fa-secondary" d="M464 32h-192.9c-9.936 0-19.74 2.313-28.62 6.757L192 64H48C21.49 64 0 85.49 0 112V160h512V80C512 53.49 490.5 32 464 32zM256 224C211.9 224 176 259.9 176 304c0 44.09 35.91 80 80 80s80-35.91 80-80C336 259.9 300.1 224 256 224z"/></svg>