<svg xmlns="http://www.w3.org/2000/svg" viewBox="0 0 512 512"><!--! Font Awesome Pro 6.0.0-alpha3 by @fontawesome - https://fontawesome.com License - https://fontawesome.com/license (Commercial License) --><defs><style>.fa-secondary{opacity:.4}</style></defs><path class="fa-primary" d="M464 96h-88l-12.38-32.88C356.6 44.38 338.8 32 318.8 32h-125.5c-20 0-38 12.38-45 31.12L136 96H48C21.5 96 0 117.5 0 144v288C0 458.5 21.5 480 48 480h416c26.5 0 48-21.5 48-48v-288C512 117.5 490.5 96 464 96zM256 384c-53 0-96-43-96-96s43-96 96-96s96 43 96 96S309 384 256 384z"/><path class="fa-secondary" d="M256 384c-53 0-96-43-96-96s43-96 96-96s96 43 96 96S309 384 256 384z"/></svg>