<svg xmlns="http://www.w3.org/2000/svg" viewBox="0 0 576 512"><!--! Font Awesome Pro 6.0.0-alpha3 by @fontawesome - https://fontawesome.com License - https://fontawesome.com/license (Commercial License) --><defs><style>.fa-secondary{opacity:.4}</style></defs><path class="fa-primary" d="M1.939 448h572.1c-1.078-3.031-2.53-5.947-4.49-8.552L327.5 117.8l53.5-73.5c5.125-7.249 3.5-17.25-3.625-22.37L351.5 3.03c-7.123-5.197-17.11-3.622-22.29 3.51L288 63.28L246.8 6.54C241.6-.5919 231.6-2.167 224.5 3.03L198.6 21.9C191.5 27.03 189.9 37.03 195 44.28l53.5 73.5L6.43 439.5C4.469 442.1 3.018 444.1 1.939 448zM288 288l116.4 159.1H171.6L288 288z"/><path class="fa-secondary" d="M574.1 448C575.3 451.4 576 455 576 458.7v21.3c0 17.67-14.33 31.1-32 31.1H32c-17.67 0-32-14.33-32-31.1v-21.3c0-3.679 .7207-7.264 1.939-10.69H574.1z"/></svg>