<svg xmlns="http://www.w3.org/2000/svg" viewBox="0 0 640 512"><!--! Font Awesome Pro 6.0.0-alpha3 by @fontawesome - https://fontawesome.com License - https://fontawesome.com/license (Commercial License) --><defs><style>.fa-secondary{opacity:.4}</style></defs><path class="fa-primary" d="M520 224l-108.7-135.9C399.1 72.85 380.7 64 361.3 64H155.4c-26.25 0-49.75 15.88-59.5 40.25L48 226.3C20.5 233.4 0 258.3 0 288v112c0 17.67 14.33 32 32 32C32 370.2 82.24 320 144 320S256 370.2 256 432h128c0-61.76 50.24-112 112-112s112 50.24 112 112c17.67 0 32-14.33 32-32v-56C640 277.7 586.3 224 520 224zM224 224H116.9l38.5-96H224V224zM272 224V128h89.25l76.75 96H272z"/><path class="fa-secondary" d="M496 352c-44.18 0-80 35.82-80 80c0 44.18 35.82 80 80 80s80-35.82 80-80C576 387.8 540.2 352 496 352zM144 352C99.82 352 64 387.8 64 432C64 476.2 99.82 512 144 512S224 476.2 224 432C224 387.8 188.2 352 144 352zM116.9 224H224V128H155.4L116.9 224zM361.3 128H272v96h165.1L361.3 128z"/></svg>