<svg xmlns="http://www.w3.org/2000/svg" viewBox="0 0 640 512"><!--! Font Awesome Pro 6.0.0-alpha3 by @fontawesome - https://fontawesome.com License - https://fontawesome.com/license (Commercial License) --><defs><style>.fa-secondary{opacity:.4}</style></defs><path class="fa-primary" d="M606.5 293.6L579.8 213.3C569.2 181.5 539.4 160 505.8 160h-147.6c-33.57 0-63.38 21.49-74 53.34L257.5 293.6C237.9 301 224 319.8 224 342V480c0 17.67 14.33 32 32 32h16c17.67 0 32-14.33 32-32v-33h256V480c0 17.67 14.33 32 32 32H608c17.67 0 32-14.33 32-32v-137.1C640 319.8 626.1 301 606.5 293.6zM344.9 233.6C346.8 227.8 352.2 224 358.2 224h147.6c6.035 0 11.37 3.846 13.28 9.57L537.2 288h-210.4L344.9 233.6zM304 392c-13.25 0-24-10.75-24-24c0-13.26 10.75-24 24-24s24 10.74 24 24C328 381.3 317.3 392 304 392zM560 392c-13.25 0-24-10.75-24-24c0-13.26 10.75-24 24-24s24 10.74 24 24C584 381.3 573.3 392 560 392z"/><path class="fa-secondary" d="M176 0C77.1 0 0 27.62 0 62.88v259.8C0 338.9 13.12 352 29.38 352H48v32c0 17.67 14.33 32 32 32H96c17.67 0 32-14.24 32-31.91V352h64v-9.1c0-29.44 14.99-55.86 39.27-70.1L246.9 224H192V80h81.38C281.4 80 288 86.63 288 94.63v59.08c17.76-14.8 39.97-23.85 64-25.21V62.88C352 27.62 273.1 0 176 0zM80 312C66.75 312 56 301.3 56 288S66.75 264 80 264S104 274.8 104 288S93.25 312 80 312zM160 224H78.63C70.63 224 64 217.4 64 209.4V94.63C64 86.63 70.63 80 78.63 80H160V224z"/></svg>