<svg xmlns="http://www.w3.org/2000/svg" viewBox="0 0 576 512"><!--! Font Awesome Pro 6.0.0-alpha3 by @fontawesome - https://fontawesome.com License - https://fontawesome.com/license (Commercial License) --><defs><style>.fa-secondary{opacity:.4}</style></defs><path class="fa-primary" d="M139.9 417.1l278.2-115.2l17.29 41.73c6.359 15.36 23.98 22.66 39.34 16.29l27.82-11.52c15.37-6.363 22.66-23.98 16.3-39.34L449.7 142.1c-9.824-23.73-33.07-37.66-57.3-36.1l-64.16-73.98C302.7 1.777 261.3-8 225.4 6.881L67.52 72.28C31.59 87.16 9.227 123.4 11.98 162.1l6.941 97.68c-17.59 16.66-24.18 42.95-14.35 66.68l69.14 166.9c6.363 15.36 23.98 22.66 39.34 16.29l27.82-11.52c15.36-6.363 22.66-23.98 16.3-39.34L139.9 417.1zM366.2 176.7c15.37-6.363 32.98 .9316 39.34 16.29c6.363 15.36-.9336 32.98-16.3 39.34c-15.36 6.363-32.98-.9336-39.34-16.29C343.6 200.7 350.9 183.1 366.2 176.7zM90.57 127.9L248.4 62.52c11.99-4.967 25.77-1.719 34.27 8.09l48.16 55.54l-253.6 105.1l-5.211-73.33C71.13 144.9 78.57 132.9 90.57 127.9zM111.1 347.6c-15.36 6.363-32.98-.9336-39.34-16.29C65.37 315.9 72.66 298.3 88.02 291.9c15.37-6.363 32.98 .9316 39.34 16.29S126.4 341.2 111.1 347.6z"/><path class="fa-secondary" d="M575.6 492.7C578.1 502.6 568.9 512 556.8 512h-185.6c-11.97 0-21.16-9.375-18.83-19.25C363 449 408.9 416 464.1 416C519.1 416 565.1 448.1 575.6 492.7z"/></svg>