<svg xmlns="http://www.w3.org/2000/svg" viewBox="0 0 640 512"><!--! Font Awesome Pro 6.0.0-alpha3 by @fontawesome - https://fontawesome.com License - https://fontawesome.com/license (Commercial License) --><defs><style>.fa-secondary{opacity:.4}</style></defs><path class="fa-primary" d="M624 352H576V192c0-88.37-71.63-160-160-160H64C28.65 32 0 60.65 0 96v256c0 35.35 28.65 64 64 64h8.81C77 353.5 128.5 304 192 304s115 49.53 119.2 112H624c8.837 0 16-7.163 16-16v-32C640 359.2 632.8 352 624 352zM256 224c0 17.67-14.33 32-32 32H96C78.33 256 64 241.7 64 224V160c0-17.67 14.33-32 32-32h128c17.67 0 32 14.33 32 32V224zM448 352h-104.6C337.2 338.1 329.3 326.8 320 315.7V160c0-17.67 14.33-32 32-32h64c17.67 0 32 14.33 32 32V352z"/><path class="fa-secondary" d="M416 224h32V160c0-17.67-14.33-32-32-32h-64c-17.67 0-32 14.33-32 32v155.7c9.307 11.06 17.18 23.25 23.42 36.29H448V256h-32c-8.836 0-16-7.164-16-16C400 231.2 407.2 224 416 224zM256 224V160c0-17.67-14.33-32-32-32H96C78.33 128 64 142.3 64 160v64c0 17.67 14.33 32 32 32h128C241.7 256 256 241.7 256 224zM192 336c-48.6 0-88 39.4-88 88C104 472.6 143.4 512 192 512s88-39.4 88-88C280 375.4 240.6 336 192 336z"/></svg>