<svg xmlns="http://www.w3.org/2000/svg" viewBox="0 0 640 512"><!--! Font Awesome Pro 6.0.0-alpha3 by @fontawesome - https://fontawesome.com License - https://fontawesome.com/license (Commercial License) --><defs><style>.fa-secondary{opacity:.4}</style></defs><path class="fa-primary" d="M624 352H576V192c0-88.37-71.63-160-160-160H64C28.65 32 0 60.65 0 96v256c0 35.35 28.65 64 64 64h8.81C77 353.5 128.5 304 192 304s115 49.53 119.2 112H624c8.837 0 16-7.163 16-16v-32C640 359.2 632.8 352 624 352zM256 224c0 17.67-14.33 32-32 32H96C78.33 256 64 241.7 64 224V160c0-17.67 14.33-32 32-32h128c17.67 0 32 14.33 32 32V224zM448 224c0 17.67-14.33 32-32 32h-64c-17.67 0-32-14.33-32-32V160c0-17.67 14.33-32 32-32h64c17.67 0 32 14.33 32 32V224z"/><path class="fa-secondary" d="M256 224V160c0-17.67-14.33-32-32-32H96C78.33 128 64 142.3 64 160v64c0 17.67 14.33 32 32 32h128C241.7 256 256 241.7 256 224zM416 128h-64c-17.67 0-32 14.33-32 32v64c0 17.67 14.33 32 32 32h64c17.67 0 32-14.33 32-32V160C448 142.3 433.7 128 416 128zM192 336c-48.6 0-88 39.4-88 88S143.4 512 192 512s88-39.4 88-88S240.6 336 192 336z"/></svg>