<svg xmlns="http://www.w3.org/2000/svg" viewBox="0 0 576 512"><!--! Font Awesome Pro 6.0.0-alpha3 by @fontawesome - https://fontawesome.com License - https://fontawesome.com/license (Commercial License) --><defs><style>.fa-secondary{opacity:.4}</style></defs><path class="fa-primary" d="M463.1 416c-26.51 0-47.1 21.49-47.1 48s21.49 48 47.1 48s47.1-21.49 47.1-48S490.5 416 463.1 416zM175.1 416c-26.51 0-47.1 21.49-47.1 48S149.5 512 175.1 512s47.1-21.49 47.1-48S202.5 416 175.1 416zM488 336H179.9L119.6 19.51C117.4 8.19 107.5 0 96 0H23.1C10.75 0 0 10.75 0 23.1S10.75 48 23.1 48h52.14l60.28 316.5C138.6 375.8 148.5 384 160 384H488c13.25 0 24-10.75 24-23.1C512 346.7 501.3 336 488 336z"/><path class="fa-secondary" d="M569.5 44.73c-6.109-8.094-15.42-12.73-25.56-12.73H121.1l48.76 256h318.4c14.23 0 26.88-9.557 30.77-23.21l54.86-191.1C577.5 63.05 575.6 52.83 569.5 44.73z"/></svg>