<svg xmlns="http://www.w3.org/2000/svg" viewBox="0 0 576 512"><!--! Font Awesome Pro 6.0.0-alpha3 by @fontawesome - https://fontawesome.com License - https://fontawesome.com/license (Commercial License) --><defs><style>.fa-secondary{opacity:.4}</style></defs><path class="fa-primary" d="M176 416c-26.51 0-47.1 21.49-47.1 48S149.5 512 176 512s47.1-21.49 47.1-48S202.5 416 176 416zM279.4 132.5l27.48 27.48l-27.47 27.47c-8.001 8.001-7.999 21.09 0 29.09s21.09 8.001 29.09 0l27.47-27.47l27.48 27.48c7.999 7.999 21.09 7.1 29.09-.0009c7.999-7.999 7.999-21.09 0-29.09l-27.48-27.48l27.47-27.47c8.001-8.001 7.998-21.09-.0016-29.09s-21.09-8.001-29.09-.0009l-27.47 27.47L308.5 103.4c-7.999-7.999-21.09-7.999-29.09 0C271.4 111.4 271.4 124.5 279.4 132.5zM488 336H179.9L119.6 19.51C117.4 8.19 107.5 0 96 0H23.1C10.75 0 0 10.75 0 23.1S10.75 48 23.1 48h52.14l60.28 316.5C138.6 375.8 148.5 384 160 384H488c13.25 0 24-10.75 24-24S501.3 336 488 336zM463.1 416c-26.51 0-47.1 21.49-47.1 48s21.49 48 47.1 48s47.1-21.49 47.1-48S490.5 416 463.1 416z"/><path class="fa-secondary" d="M569.5 44.73C563.4 36.64 554.1 32 543.1 32H121.1l48.76 256h318.4c14.23 0 26.88-9.557 30.77-23.21l54.86-191.1C577.5 63.05 575.6 52.83 569.5 44.73zM363.5 216.6l-27.48-27.48l-27.47 27.47c-8.001 8.001-21.09 7.999-29.09 0s-8.001-21.09 0-29.09l27.47-27.47L279.4 132.5C271.4 124.5 271.4 111.4 279.4 103.4c7.999-7.999 21.09-7.999 29.09 0l27.48 27.48l27.47-27.47c8.001-8.001 21.09-7.998 29.09 .0009s8.002 21.09 .0016 29.09l-27.47 27.47l27.48 27.48c7.999 7.999 7.999 21.09 0 29.09C384.6 224.6 371.5 224.6 363.5 216.6z"/></svg>