<svg xmlns="http://www.w3.org/2000/svg" viewBox="0 0 576 512"><!--! Font Awesome Pro 6.0.0-alpha3 by @fontawesome - https://fontawesome.com License - https://fontawesome.com/license (Commercial License) --><defs><style>.fa-secondary{opacity:.4}</style></defs><path class="fa-primary" d="M176 416c-26.51 0-47.1 21.49-47.1 48S149.5 512 176 512s47.1-21.49 47.1-48S202.5 416 176 416zM463.1 416c-26.51 0-47.1 21.49-47.1 48s21.49 48 47.1 48s47.1-21.49 47.1-48S490.5 416 463.1 416zM488 336H179.9L119.6 19.51C117.4 8.191 107.5 0 96 0H23.1C10.75 0 0 10.75 0 23.1S10.75 48 23.1 48h52.14l60.28 316.5C138.6 375.8 148.5 384 160 384H488c13.25 0 24-10.75 24-23.1C512 346.7 501.3 336 488 336zM319 208.1C323.7 213.7 329.9 216 336 216s12.28-2.344 16.97-7.031l64-64c9.375-9.375 9.375-24.56 0-33.94s-24.56-9.375-33.94 0L360 134.1V32h-48v102.1l-23.03-23.03c-9.375-9.375-24.56-9.375-33.94 0s-9.375 24.56 0 33.94L319 208.1z"/><path class="fa-secondary" d="M574.7 72.8l-54.86 191.1C515.1 278.4 503.4 288 489.1 288h-318.4L121.1 32H312v102.1l-23.03-23.03c-9.375-9.375-24.56-9.375-33.94 0s-9.375 24.56 0 33.94l64 64C323.7 213.7 329.9 216 336 216s12.28-2.344 16.97-7.031l64-64c9.375-9.375 9.375-24.56 0-33.94s-24.56-9.375-33.94 0L360 134.1V32h183.1c10.14 0 19.45 4.641 25.56 12.73C575.6 52.83 577.5 63.05 574.7 72.8z"/></svg>