<svg xmlns="http://www.w3.org/2000/svg" viewBox="0 0 512 512"><!--! Font Awesome Pro 6.0.0-alpha3 by @fontawesome - https://fontawesome.com License - https://fontawesome.com/license (Commercial License) --><defs><style>.fa-secondary{opacity:.4}</style></defs><path class="fa-primary" d="M511.3 378.8l-26.81-160c-2.625-15.38-15.82-26.63-31.56-26.63L59.24 192c-15.62 0-28.99 11.25-31.61 26.75L.875 378.8C.375 382.3 0 385.8 0 389.3V480c0 17.75 14.38 32 31.1 32H479.1c17.75 0 31.1-14.25 31.1-32l-.0052-90.75C512.1 385.8 511.9 382.3 511.3 378.8zM280.1 248c0-8.75 7.25-16 15.1-16h15.1c8.749 0 15.1 7.25 15.1 16v16c0 8.75-7.25 16-15.1 16h-15.1c-8.749 0-15.1-7.25-15.1-16V248zM248.1 312h15.1c8.749 0 15.1 7.25 15.1 16v16c0 8.75-7.25 16-15.1 16h-15.1c-8.749 0-15.1-7.25-15.1-16v-16C232.1 319.3 239.4 312 248.1 312zM184.1 248c0-8.75 7.25-16 15.1-16h15.1c8.749 0 15.1 7.25 15.1 16v16c0 8.75-7.25 16-15.1 16h-15.1c-8.749 0-15.1-7.25-15.1-16V248zM120.1 280h-15.1c-8.749 0-15.1-7.25-15.1-16v-16c0-8.75 7.25-16 15.1-16h15.1c8.749 0 15.1 7.25 15.1 16v16C136.1 272.8 128.9 280 120.1 280zM136.1 344v-16c0-8.75 7.25-16 15.1-16h15.1c8.749 0 15.1 7.25 15.1 16v16c0 8.75-7.25 16-15.1 16h-15.1C143.4 360 136.1 352.8 136.1 344zM336.1 464H176.1c-8.8 0-15.1-7.201-15.1-16c0-8.801 7.199-16 15.1-16h159.1c8.8 0 15.1 7.199 15.1 16C352.1 456.8 344.9 464 336.1 464zM376.1 344c0 8.75-7.25 16-15.1 16h-15.1c-8.749 0-15.1-7.25-15.1-16v-16c0-8.75 7.25-16 15.1-16h15.1c8.749 0 15.1 7.25 15.1 16V344zM424.1 264c0 8.75-7.25 16-15.1 16h-15.1c-8.749 0-15.1-7.25-15.1-16v-16c0-8.75 7.25-16 15.1-16h15.1c8.749 0 15.1 7.25 15.1 16V264z"/><path class="fa-secondary" d="M144.1 192l63.1 .125v-64l95.93-.1201c8.749 0 15.1-7.25 15.1-16V16c0-8.75-7.25-16-15.1-16H48.06C39.31 0 32.06 7.25 32.06 16v95.94c0 8.75 7.25 16 15.1 16L144.1 128V192zM80.12 80v-32h191.1v32H80.12zM328.1 248c0-8.75-7.25-16-15.1-16h-15.1c-8.749 0-15.1 7.25-15.1 16v16c0 8.75 7.25 16 15.1 16h15.1c8.749 0 15.1-7.25 15.1-16V248zM264.1 312h-15.1c-8.749 0-15.1 7.25-15.1 16v16c0 8.75 7.25 16 15.1 16h15.1c8.749 0 15.1-7.25 15.1-16v-16C280.1 319.3 272.9 312 264.1 312zM232.1 248c0-8.75-7.25-16-15.1-16h-15.1c-8.749 0-15.1 7.25-15.1 16v16c0 8.75 7.25 16 15.1 16h15.1c8.749 0 15.1-7.25 15.1-16V248zM136.1 248c0-8.75-7.25-16-15.1-16h-15.1c-8.749 0-15.1 7.25-15.1 16v16c0 8.75 7.25 16 15.1 16h15.1c8.749 0 15.1-7.25 15.1-16V248zM168.1 312h-15.1c-8.749 0-15.1 7.25-15.1 16v16c0 8.75 7.25 16 15.1 16h15.1c8.749 0 15.1-7.25 15.1-16v-16C184.1 319.3 176.9 312 168.1 312zM360.1 312h-15.1c-8.749 0-15.1 7.25-15.1 16v16c0 8.75 7.25 16 15.1 16h15.1c8.749 0 15.1-7.25 15.1-16v-16C376.1 319.3 368.9 312 360.1 312zM408.1 232h-15.1c-8.749 0-15.1 7.25-15.1 16v16c0 8.75 7.25 16 15.1 16h15.1c8.749 0 15.1-7.25 15.1-16v-16C424.1 239.3 416.9 232 408.1 232z"/></svg>