<svg xmlns="http://www.w3.org/2000/svg" viewBox="0 0 448 512"><!--! Font Awesome Pro 6.0.0-alpha3 by @fontawesome - https://fontawesome.com License - https://fontawesome.com/license (Commercial License) --><defs><style>.fa-secondary{opacity:.4}</style></defs><path class="fa-primary" d="M433.1 224h-19.75C435.6 262.5 448 305.3 448 345.6c0 39-11.88 70.63-32 95.5V488c0 13.25-10.75 24-24 24s-24-10.75-24-24v-7.5C329 501.8 278.9 512 224 512s-105-10.25-144-31.5V488C80 501.3 69.25 512 56 512S32 501.3 32 488v-46.88c-20.12-24.88-32-56.5-32-95.5C0 305.3 12.38 262.5 33.75 224h-19.75C6.25 224 0 218.6 0 212v-40C0 165.4 6.25 160 13.1 160H96v128c0 17.67 14.33 32 32 32s32-14.33 32-32V160h273.1C441.7 160 448 165.4 448 172v40C448 218.6 441.7 224 433.1 224z"/><path class="fa-secondary" d="M160 0C142.4 0 128 14.38 128 32s14.38 32 32 32s32-14.38 32-32S177.6 0 160 0zM272 32C245.5 32 224 53.5 224 80S245.5 128 272 128S320 106.5 320 80S298.5 32 272 32zM96 288c0 17.67 14.33 32 32 32s32-14.33 32-32V160H96V288z"/></svg>