<svg xmlns="http://www.w3.org/2000/svg" viewBox="0 0 320 512"><!--! Font Awesome Pro 6.0.0-alpha3 by @fontawesome - https://fontawesome.com License - https://fontawesome.com/license (Commercial License) --><defs><style>.fa-secondary{opacity:.4}</style></defs><path class="fa-primary" d="M188.9 448.3c-48.55 0-96.91-19.09-133.8-56.75C-18.19 316.8-18.19 195.2 55.11 120.5c68.95-70.34 177.9-75.97 253.4-13.12c13.59 11.31 15.44 31.5 4.125 45.06s-31.53 15.41-45.06 4.125c-49.66-41.31-121.3-37.56-166.7 8.75c-49.08 50.03-49.08 131.4-.0156 181.4c45.42 46.31 117.1 50.06 166.7 8.75c13.52-11.31 33.75-9.469 45.06 4.125c11.31 13.56 9.469 33.75-4.125 45.06C273.4 433.9 231.1 448.3 188.9 448.3z"/><path class="fa-secondary" d="M160 131.4v249.2c21.03 5.145 43.08 4.422 64-1.881V133.3C203.1 126.1 181 126.3 160 131.4zM160 445.4V480c0 17.69 14.33 32 32 32S224 497.7 224 480v-35.36c-11.62 2.248-23.34 3.645-35.09 3.645C179.2 448.3 169.6 446.9 160 445.4zM192 0C174.3 0 160 14.31 160 32v34.76c21.25-3.371 42.78-3.098 64 1.018V32C224 14.31 209.7 0 192 0z"/></svg>