<svg xmlns="http://www.w3.org/2000/svg" viewBox="0 0 320 512"><!--! Font Awesome Pro 6.0.0-alpha3 by @fontawesome - https://fontawesome.com License - https://fontawesome.com/license (Commercial License) --><defs><style>.fa-secondary{opacity:.4}</style></defs><path class="fa-primary" d="M188.9 448.3c-48.56 0-96.88-19.11-133.8-56.75c-73.31-74.73-73.31-196.4 0-271.1C124 50.11 232.1 44.47 308.5 107.3c13.59 11.31 15.44 31.48 4.125 45.06c-11.34 13.58-31.5 15.45-45.06 4.125c-49.66-41.36-121.3-37.59-166.7 8.734c-49.06 50.03-49.06 131.4 0 181.5c45.41 46.34 117.1 50.08 166.7 8.734c13.56-11.33 33.72-9.453 45.06 4.125c11.31 13.58 9.469 33.75-4.125 45.06C273.4 433.9 231.1 448.3 188.9 448.3z"/><path class="fa-secondary" d="M160 445.4V480c0 17.67 14.31 32 32 32s32-14.33 32-32v-35.35c-11.62 2.25-23.34 3.65-35.09 3.65C179.2 448.3 169.6 446.1 160 445.4zM192 0c-17.69 0-32 14.33-32 32v34.74c21.24-3.367 42.77-3.088 64 1.031V32C224 14.33 209.7 0 192 0z"/></svg>