<svg xmlns="http://www.w3.org/2000/svg" viewBox="0 0 576 512"><!--! Font Awesome Pro 6.0.0-alpha3 by @fontawesome - https://fontawesome.com License - https://fontawesome.com/license (Commercial License) --><defs><style>.fa-secondary{opacity:.4}</style></defs><path class="fa-primary" d="M559.7 288l-237.2-.0006l157.1 158c6.124 6.124 15.99 6.484 22.24 .7343c38.62-36.5 65.25-85.62 73.12-140.9C577.2 296.4 569.4 288 559.7 288zM543.1 223.2c-8.249-119.5-103.7-214.1-223.2-223.2c-9.124-.6249-16.76 7.113-16.76 16.24L304 240l223.7-.0012C536.9 240 544.6 232.4 543.1 223.2z"/><path class="fa-secondary" d="M411.9 443.9c6.874 6.874 6.387 18.49-1.612 24.11c-38.25 27.12-84.88 43.38-135.2 44c-128.1 1.625-238.5-103.5-242.9-231.6c-4.25-124.7 86.88-228.9 205.1-245.7c9.499-1.375 17.87 6.485 17.87 16.11v237.3L411.9 443.9z"/></svg>