<svg xmlns="http://www.w3.org/2000/svg" viewBox="0 0 512 512"><!--! Font Awesome Pro 6.0.0-alpha3 by @fontawesome - https://fontawesome.com License - https://fontawesome.com/license (Commercial License) --><defs><style>.fa-secondary{opacity:.4}</style></defs><path class="fa-primary" d="M288 224c-17.62 0-32 14.38-32 32s14.38 32 32 32s32-14.38 32-32S305.6 224 288 224zM384 288c-17.62 0-32 14.38-32 32s14.38 32 32 32s32-14.38 32-32S401.6 288 384 288zM416 96c-17.62 0-32 14.38-32 32s14.38 32 32 32s32-14.38 32-32S433.6 96 416 96zM160 288c-17.62 0-32 14.38-32 32s14.38 32 32 32s32-14.38 32-32S177.6 288 160 288zM192 128C174.4 128 160 142.4 160 160s14.38 32 32 32s32-14.38 32-32S209.6 128 192 128z"/><path class="fa-secondary" d="M480 416H64V63.1C64 46.33 49.67 32 32 32S0 46.33 0 63.1V448c0 17.6 14.4 32 32 32h448C497.7 480 512 465.7 512 448S497.7 416 480 416z"/></svg>