<svg xmlns="http://www.w3.org/2000/svg" viewBox="0 0 512 512"><!--! Font Awesome Pro 6.0.0-alpha3 by @fontawesome - https://fontawesome.com License - https://fontawesome.com/license (Commercial License) --><defs><style>.fa-secondary{opacity:.4}</style></defs><path class="fa-primary" d="M330.7 282.2l-40.87-102.2C293.4 174 296 167.4 296 160c0-22.03-17.97-40-40-40S216 137.1 216 160c0 3.721 1.172 7.08 2.131 10.5L160 248c-.002 0 .002 0 0 0C137.1 248 120 265.1 120 288S137.1 328 160 328c10.09 0 19.08-4.094 26.13-10.3l98.24 19.65C290.9 350.6 304.3 360 320 360c22.03 0 40-17.97 40-40C360 301.8 347.4 286.1 330.7 282.2zM202.1 271.9l47.5-63.38l31.69 79.22L202.1 271.9z"/><path class="fa-secondary" d="M505.8 233.4l-105.4-179.2C392.3 40.52 377.5 32 361.4 32H150.6C134.5 32 119.7 40.52 111.6 54.17l-105.4 179.2c-8.234 14-8.234 31.27 0 45.27l105.4 179.2C119.7 471.5 134.5 480 150.6 480h210.8c16.12 0 30.94-8.518 39.05-22.17l105.4-179.2C514.1 264.6 514.1 247.4 505.8 233.4zM350.8 416H161.2L67.11 255.1L161.2 96h189.6l94.1 159.1L350.8 416z"/></svg>