<svg xmlns="http://www.w3.org/2000/svg" viewBox="0 0 512 512"><!--! Font Awesome Pro 6.0.0-alpha3 by @fontawesome - https://fontawesome.com License - https://fontawesome.com/license (Commercial License) --><defs><style>.fa-secondary{opacity:.4}</style></defs><path class="fa-primary" d="M371.3 192h-38.5C326.4 192 320 198.4 320 204.8v134.5C320 345.6 326.4 352 332.8 352h38.5C377.6 352 384 345.6 384 339.3v-134.5C384 198.4 377.6 192 371.3 192zM467.3 96h-38.5C422.4 96 416 102.4 416 108.8v230.5C416 345.6 422.4 352 428.8 352h38.5C473.6 352 480 345.6 480 339.3v-230.5C480 102.4 473.6 96 467.3 96zM275.3 128h-38.5C230.4 128 224 134.4 224 140.8v198.5C224 345.6 230.4 352 236.8 352h38.5C281.6 352 288 345.6 288 339.3v-198.5C288 134.4 281.6 128 275.3 128zM179.3 256h-38.5C134.4 256 128 262.4 128 268.8v70.5C128 345.6 134.4 352 140.8 352h38.5C185.6 352 192 345.6 192 339.3v-70.5C192 262.4 185.6 256 179.3 256z"/><path class="fa-secondary" d="M480 416H64V63.1C64 46.33 49.67 32 32 32S0 46.33 0 63.1V448c0 17.6 14.4 32 32 32h448C497.7 480 512 465.7 512 448S497.7 416 480 416z"/></svg>