<svg xmlns="http://www.w3.org/2000/svg" viewBox="0 0 512 512"><!--! Font Awesome Pro 6.0.0-alpha3 by @fontawesome - https://fontawesome.com License - https://fontawesome.com/license (Commercial License) --><defs><style>.fa-secondary{opacity:.4}</style></defs><path class="fa-primary" d="M192 32H32C14.33 32 0 46.33 0 64v144c0 17.67 14.33 32 32 32h160c17.67 0 32-14.33 32-32V64C224 46.33 209.7 32 192 32zM480 352h-192c-17.67 0-32 14.33-32 32v64c0 17.67 14.33 32 32 32h192c17.67 0 32-14.33 32-32v-64C512 366.3 497.7 352 480 352zM480 32h-192c-17.67 0-32 14.33-32 32v64c0 17.67 14.33 32 32 32h192c17.67 0 32-14.33 32-32V64C512 46.33 497.7 32 480 32z"/><path class="fa-secondary" d="M192 272H32c-17.67 0-32 14.33-32 32V448c0 17.67 14.33 32 32 32h160c17.67 0 32-14.33 32-32V304C224 286.3 209.7 272 192 272zM480 192h-192c-17.67 0-32 14.33-32 32v64c0 17.67 14.33 32 32 32h192c17.67 0 32-14.33 32-32V224C512 206.3 497.7 192 480 192z"/></svg>