<svg xmlns="http://www.w3.org/2000/svg" viewBox="0 0 512 512"><!--! Font Awesome Pro 6.0.0-alpha3 by @fontawesome - https://fontawesome.com License - https://fontawesome.com/license (Commercial License) --><defs><style>.fa-secondary{opacity:.4}</style></defs><path class="fa-primary" d="M332.8 192h38.5C377.6 192 384 185.6 384 179.3v-102.5C384 70.38 377.6 64 371.3 64h-38.5C326.4 64 320 70.38 320 76.75v102.5C320 185.6 326.4 192 332.8 192zM236.8 256h38.5C281.6 256 288 249.6 288 243.3v-102.5C288 134.4 281.6 128 275.3 128h-38.5C230.4 128 224 134.4 224 140.8v102.5C224 249.6 230.4 256 236.8 256zM428.8 352h38.5C473.6 352 480 345.6 480 339.3v-262.5C480 70.38 473.6 64 467.3 64h-38.5C422.4 64 416 70.38 416 76.75v262.5C416 345.6 422.4 352 428.8 352zM140.8 352h38.5C185.6 352 192 345.6 192 339.3v-102.5C192 230.4 185.6 224 179.3 224h-38.5C134.4 224 128 230.4 128 236.8v102.5C128 345.6 134.4 352 140.8 352z"/><path class="fa-secondary" d="M480 416H64V63.1C64 46.33 49.67 32 32 32S0 46.33 0 63.1V448c0 17.6 14.4 32 32 32h448C497.7 480 512 465.7 512 448S497.7 416 480 416z"/></svg>