<svg xmlns="http://www.w3.org/2000/svg" viewBox="0 0 512 512"><!--! Font Awesome Pro 6.0.0-alpha3 by @fontawesome - https://fontawesome.com License - https://fontawesome.com/license (Commercial License) --><defs><style>.fa-secondary{opacity:.4}</style></defs><path class="fa-primary" d="M128 192c17.62 0 32-14.38 32-32S145.6 128 128 128S96 142.4 96 160S110.4 192 128 192zM32 96c17.62 0 32-14.38 32-32S49.63 32 32 32S0 46.38 0 64S14.38 96 32 96zM384 288c17.62 0 32-14.38 32-32s-14.38-32-32-32s-32 14.38-32 32S366.4 288 384 288zM384 96c17.62 0 32-14.38 32-32s-14.38-32-32-32s-32 14.38-32 32S366.4 96 384 96zM256 416c-17.62 0-32 14.38-32 32s14.38 32 32 32s32-14.38 32-32S273.6 416 256 416zM480 128c-17.62 0-32 14.38-32 32s14.38 32 32 32s32-14.38 32-32S497.6 128 480 128zM64 256c0-17.62-14.38-32-32-32S0 238.4 0 256s14.38 32 32 32S64 273.6 64 256z"/><path class="fa-secondary" d="M472.6 468.5C466.3 476.1 457.2 480 447.1 480c-7.219 0-14.47-2.438-20.47-7.422L256 329.7l-171.5 142.9c-13.66 11.31-33.78 9.469-45.09-4.094c-11.31-13.58-9.469-33.75 4.094-45.06L224 273V64c0-17.67 14.31-32 32-32s32 14.33 32 32v209l180.5 150.4C482.1 434.7 483.9 454.9 472.6 468.5z"/></svg>