<svg xmlns="http://www.w3.org/2000/svg" viewBox="0 0 512 512"><!--! Font Awesome Pro 6.0.0-alpha3 by @fontawesome - https://fontawesome.com License - https://fontawesome.com/license (Commercial License) --><defs><style>.fa-secondary{opacity:.4}</style></defs><path class="fa-primary" d="M111.1 304C99.5 291.5 99.5 271.2 111.1 258.8l73.38-73.38c12.5-12.5 32.75-12.5 45.25 0L304 258.8l62.06-62.06l-41.38-41.38C314.6 145.2 321.7 128 336 128H464C472.8 128 480 135.2 480 144v128c0 13.32-16.61 22.02-27.31 11.31l-41.38-41.38l-84.69 84.69C320.4 332.9 312.2 336 304 336s-16.38-3.125-22.62-9.375L208 253.3L157.2 304C144.8 316.5 124.5 316.5 111.1 304z"/><path class="fa-secondary" d="M480 416H64V63.1C64 46.33 49.67 32 32 32S0 46.33 0 63.1V448c0 17.6 14.4 32 32 32h448C497.7 480 512 465.7 512 448S497.7 416 480 416z"/></svg>