<svg xmlns="http://www.w3.org/2000/svg" viewBox="0 0 512 512"><!--! Font Awesome Pro 6.0.0-alpha3 by @fontawesome - https://fontawesome.com License - https://fontawesome.com/license (Commercial License) --><defs><style>.fa-secondary{opacity:.4}</style></defs><path class="fa-primary" d="M480 352H128V233.8c0-7.219 2.441-14.22 6.926-19.88l86.27-108.8c9.609-12.12 28-12.12 37.61 0l63.78 80.44l43.38-49.37c9.562-10.88 26.5-10.88 36.06 0l70.01 79.68C477.2 221.7 480 229.2 480 236.1V352z"/><path class="fa-secondary" d="M484 416H64V59.1C64 44.54 51.46 32 36 32H27.1C12.54 32 0 44.54 0 59.1V448c0 17.67 14.33 32 32 32h452C499.5 480 512 467.5 512 452V443.1C512 428.5 499.5 416 484 416z"/></svg>