<svg xmlns="http://www.w3.org/2000/svg" viewBox="0 0 640 512"><!--! Font Awesome Pro 6.0.0-alpha3 by @fontawesome - https://fontawesome.com License - https://fontawesome.com/license (Commercial License) --><defs><style>.fa-secondary{opacity:.4}</style></defs><path class="fa-primary" d="M600 128h-560C17.88 128 0 145.9 0 168v272C0 462.1 17.88 480 40 480h560c22.12 0 40-17.88 40-40v-272C640 145.9 622.1 128 600 128zM176.4 416c-61.87 0-112-50.13-112-112s50.13-112 112-112C238.2 192.1 288.4 242.2 288.4 304.1C288.4 366 238.1 416.1 176.4 416zM464.4 416c-61.87 0-112-50.13-112-112s50.13-112 112-112c61.88 .125 112 50.25 112 112.1C576.4 366 526.1 416.1 464.4 416z"/><path class="fa-secondary" d="M180.4 224.1h-8c-6.625 0-12 5.375-12 12v72c0 6.625 5.375 12 12 12h8c6.625 0 12-5.375 12-12v-72C192.4 229.5 187 224.1 180.4 224.1zM519.5 243c-2.25-2.25-5.25-3.5-8.5-3.5c-3.125 0-6.25 1.25-8.5 3.5l-50.88 50.88c-2.25 2.25-3.5 5.375-3.5 8.5c0 3.25 1.25 6.25 3.5 8.5l5.625 5.625c2.25 2.25 5.375 3.625 8.5 3.625c3.25 0 6.25-1.375 8.5-3.625l50.88-50.88c2.25-2.25 3.5-5.375 3.5-8.5c0-3.25-1.25-6.25-3.5-8.5L519.5 243zM240.1 32H112.1c-8.875 0-16 7.125-16 16L96.13 64c0 8.75 7.125 16 16 16H152.2L152.3 128h48L200.2 80h39.96c8.875 0 16-7.25 16-16L256.1 48C256.1 39.13 248.1 32 240.1 32zM528 96h-128C391.3 96 384 103.1 384 112V128h160V112C544 103.1 536.9 96 528 96z"/></svg>