<svg xmlns="http://www.w3.org/2000/svg" viewBox="0 0 448 512"><!--! Font Awesome Pro 6.0.0-alpha3 by @fontawesome - https://fontawesome.com License - https://fontawesome.com/license (Commercial License) --><defs><style>.fa-secondary{opacity:.4}</style></defs><path class="fa-primary" d="M415.1 160h-160V112h40.01c4.376 0 8.001-3.625 8.001-8v-48c0-4.375-3.625-8-8.001-8h-40.01V8c0-4.375-3.625-8-8.001-8H199.1C195.6 0 191.1 3.625 191.1 8V48h-40.01c-4.376 0-8.001 3.625-8.001 8v48c0 4.375 3.625 8 8.001 8h40.01V160h-160C21.81 160 12.19 164.9 6.188 173C.1864 181.2-1.563 191.9 1.437 201.5L74.45 416h299l73.01-214.5c3.001-9.625 1.251-20.25-4.751-28.5C435.7 164.9 426.1 160 415.1 160z"/><path class="fa-secondary" d="M415.1 496c0 8.836-7.163 16-16 16H47.96c-8.838 0-16-7.164-16-16c0-20.89 13.42-38.48 32.06-45.08V432c0-8.838 7.166-16 16-16h288.1c8.838 0 16 7.162 16 16v18.96C402.7 457.6 415.1 475.2 415.1 496z"/></svg>