<svg xmlns="http://www.w3.org/2000/svg" viewBox="0 0 320 512"><!--! Font Awesome Pro 6.0.0-alpha3 by @fontawesome - https://fontawesome.com License - https://fontawesome.com/license (Commercial License) --><defs><style>.fa-secondary{opacity:.4}</style></defs><path class="fa-primary" d="M312 287.9c0 51.63-22.12 73.88-56 84.63V416H64v-43.5c-33.88-10.75-56-33-56-84.63c0-73.38 59.75-181.1 112.6-225.4C106.6 59.13 96 47 96 32c0-17.62 14.38-32 32-32h64c17.62 0 32 14.38 32 32c0 15-10.62 27.12-24.62 30.5c24.38 20.5 50.13 54.75 70.88 92.63L162.4 263c-3.125 3.125-3.135 8.24-.0104 11.36l11.35 11.27c3.125 3.125 8.156 3.115 11.28-.0104l100.3-100.3C301.3 220.8 312 257.3 312 287.9z"/><path class="fa-secondary" d="M320 496c0 8.836-7.164 16-16 16h-288C7.164 512 0 504.8 0 496c0-20.87 13.4-38.45 32-45.06V432C32 423.2 39.16 416 48 416h224c8.836 0 16 7.162 16 16v18.94C306.6 457.5 320 475.1 320 496z"/></svg>