<svg xmlns="http://www.w3.org/2000/svg" viewBox="0 0 512 512"><!--! Font Awesome Pro 6.0.0-alpha3 by @fontawesome - https://fontawesome.com License - https://fontawesome.com/license (Commercial License) --><defs><style>.fa-secondary{opacity:.4}</style></defs><path class="fa-primary" d="M200.9 96H144V64h24C172.4 64 176 60.38 176 56v-16C176 35.63 172.4 32 168 32H144V8C144 3.625 140.4 0 136 0h-16C115.6 0 112 3.625 112 8V32H88C83.63 32 80 35.63 80 40v16C80 60.38 83.63 64 88 64H112v32H55.13C49.88 96 44.88 98.63 41.88 102.9c-3 4.375-3.625 9.875-1.75 14.75L73.1 208H64C55.13 208 48 215.1 48 224v16C48 248.9 55.13 256 64 256h16C79.75 299.1 74.5 342.1 64 384h128c-10.5-41.88-15.75-84.88-16-128H192c8.875 0 16-7.125 16-16V224c0-8.875-7.125-16-16-16H181.1l33.88-90.38c1.875-4.875 1.125-10.37-1.876-14.75C210.1 98.63 206.1 96 200.9 96zM489.1 192h-26.37c-3.375 0-6 2.625-6 6V224h-24.75V198C432.9 194.6 430.3 192 426.9 192h-53.75c-3.375 0-6 2.625-6 6V224h-24.75V198C342.4 194.6 339.8 192 336.4 192h-26.38C306.6 192 304 194.6 304 198v58.62c0 9.375 4.125 18.25 11.38 24.38l24.5 20.75L336.6 384h126.8l-3.25-82.25l24.5-20.75C491.9 274.9 496 266 496 256.5V198C496 194.6 493.4 192 489.1 192zM416 336h-32v-32C384 295.1 391.1 288 400 288S416 295.1 416 304V336z"/><path class="fa-secondary" d="M247.1 459.6L224 448v-48C224 391.1 216.9 384 208 384h-160C39.13 384 32 391.1 32 400V448l-23.12 11.62C3.375 462.3 0 467.9 0 473.9V496C0 504.9 7.125 512 16 512h224c8.875 0 16-7.125 16-16v-22.12C256 467.9 252.6 462.3 247.1 459.6zM503.1 459.6L480 448v-48c0-8.875-7.125-16-16-16h-128c-8.875 0-16 7.125-16 16V448l-23.12 11.62C291.4 462.3 288 467.9 288 473.9V496c0 8.875 7.125 16 16 16h192c8.875 0 16-7.125 16-16v-22.12C512 467.9 508.6 462.3 503.1 459.6z"/></svg>