<svg xmlns="http://www.w3.org/2000/svg" viewBox="0 0 512 512"><!--! Font Awesome Pro 6.0.0-alpha3 by @fontawesome - https://fontawesome.com License - https://fontawesome.com/license (Commercial License) --><defs><style>.fa-secondary{opacity:.4}</style></defs><path class="fa-primary" d="M256 112c30.88 0 56-25.12 56-56S286.9 0 256 0S199.1 25.12 199.1 56S225.1 112 256 112zM504.9 184.1L476.4 168.2c-7.501-5-16.88-2.5-22.25 4.625c-11 14.62-29.38 21.75-47.25 18.25c-23.13-4.25-38.88-26.25-38.88-49.75C367.1 134 361.1 128 354.6 128h-38.75c-6.001 0-11.63 4-12.88 9.875C298.2 160.1 278.7 176 255.1 176c-22.75 0-42.25-15.87-47-38.12C207.7 132 202.2 128 196.1 128h-38.75C149.1 128 143.1 134 143.1 141.4c0 25.75-19 48.75-44.63 50.5C83.1 193 67.48 185.8 57.72 172.8C52.47 165.6 42.97 163.2 35.72 168.2l-28.63 16C.345 188.6-1.905 197.5 1.72 204.6L104.2 416h303.5l102.5-211.4C513.9 197.4 511.6 188.6 504.9 184.1z"/><path class="fa-secondary" d="M447.1 496c0 8.836-7.164 16-16 16H79.98c-8.839 0-16-7.164-16-16c0-20.88 13.41-38.47 32.03-45.07V432c0-8.838 7.165-16 16-16h288c8.837 0 16 7.162 16 16v18.95C434.6 457.6 447.1 475.1 447.1 496z"/></svg>