<svg xmlns="http://www.w3.org/2000/svg" viewBox="0 0 256 512"><!--! Font Awesome Pro 6.0.0-alpha3 by @fontawesome - https://fontawesome.com License - https://fontawesome.com/license (Commercial License) --><defs><style>.fa-secondary{opacity:.4}</style></defs><path class="fa-primary" d="M230.9 87.62L220.8 81C217.6 78.88 213.6 80 211.4 83C206.8 89.13 199 92.12 191.5 90.62c-9.75-1.875-16.38-11-16.38-21C175.1 66.5 172.6 64 169.5 64h-16.25c-2.625 0-4.875 1.625-5.5 4.125C145.8 77.5 137.5 84.25 128 84.25S110.3 77.5 108.3 68.12C107.6 65.62 105.4 64 102.8 64H86.5C83.38 64 80.88 66.5 80.88 69.62c0 10.88-8 20.5-18.88 21.25c-6.75 .5-13.37-2.5-17.5-8c-2-3.125-6.125-3.875-9.25-2L25.13 87.62C22.38 89.5 21.38 93.25 22.88 96.25L67.38 192H64C55.13 192 48 199.1 48 208V224c0 8.875 7.125 16 16 16h16v14C80 297.9 74.63 341.5 64 384h128c-10.62-42.5-16-86.13-16-129.1V240H192c8.875 0 16-7.125 16-16V208C208 199.1 200.9 192 192 192h-3.375l44.5-95.75C234.6 93.25 233.6 89.5 230.9 87.62zM128 48c13.25 0 24-10.75 24-24S141.3 0 128 0S104 10.75 104 24S114.8 48 128 48z"/><path class="fa-secondary" d="M247.1 459.6L224 448v-48c0-8.875-7.125-16-16-16h-160C39.12 384 32 391.1 32 400V448l-23.12 11.62C3.375 462.2 0 467.9 0 473.9V496C0 504.9 7.124 512 15.1 512H240c8.875 0 16-7.125 16-16v-22.12C256 467.9 252.6 462.2 247.1 459.6z"/></svg>