<svg xmlns="http://www.w3.org/2000/svg" viewBox="0 0 512 512"><!--! Font Awesome Pro 6.0.0-alpha3 by @fontawesome - https://fontawesome.com License - https://fontawesome.com/license (Commercial License) --><defs><style>.fa-secondary{opacity:.4}</style></defs><path class="fa-primary" d="M128 356.6C128 371.7 140.3 384 155.4 384h201.1C371.7 384 384 371.7 384 356.6V224H128V356.6zM356.6 128H320V111.1C320 103.2 312.8 96 304 96S288 103.2 288 111.1V128H224V111.1C224 103.2 216.8 96 208 96S192 103.2 192 111.1V128H155.4C140.3 128 128 140.3 128 155.4V192h256V155.4C384 140.3 371.7 128 356.6 128z"/><path class="fa-secondary" d="M256 0C114.6 0 0 114.6 0 256s114.6 256 256 256s256-114.6 256-256S397.4 0 256 0zM384 356.6C384 371.7 371.7 384 356.6 384H155.4C140.3 384 128 371.7 128 356.6V224h256V356.6zM384 192H128V155.4C128 140.3 140.3 128 155.4 128H192V111.1C192 103.2 199.2 96 208 96S224 103.2 224 111.1V128h64V111.1C288 103.2 295.2 96 304 96S320 103.2 320 111.1V128h36.57C371.7 128 384 140.3 384 155.4V192z"/></svg>