<svg xmlns="http://www.w3.org/2000/svg" viewBox="0 0 512 512"><!--! Font Awesome Pro 6.0.0-alpha3 by @fontawesome - https://fontawesome.com License - https://fontawesome.com/license (Commercial License) --><defs><style>.fa-secondary{opacity:.4}</style></defs><path class="fa-primary" d="M256 224C238.3 224 224 238.3 224 256c0 17.67 14.33 32 32 32s32-14.33 32-32C288 238.3 273.7 224 256 224zM144 224c-17.67 0-32 14.33-32 32c0 17.67 14.33 32 32 32s32-14.33 32-32C176 238.3 161.7 224 144 224zM368 224c-17.67 0-32 14.33-32 32c0 17.67 14.33 32 32 32s32-14.33 32-32C400 238.3 385.7 224 368 224z"/><path class="fa-secondary" d="M256 0C114.6 0 0 114.6 0 256s114.6 256 256 256C397.4 512 512 397.4 512 256S397.4 0 256 0zM144 288c-17.67 0-32-14.33-32-32c0-17.67 14.33-32 32-32s32 14.33 32 32C176 273.7 161.7 288 144 288zM256 288C238.3 288 224 273.7 224 256c0-17.67 14.33-32 32-32s32 14.33 32 32C288 273.7 273.7 288 256 288zM368 288c-17.67 0-32-14.33-32-32c0-17.67 14.33-32 32-32s32 14.33 32 32C400 273.7 385.7 288 368 288z"/></svg>