<svg xmlns="http://www.w3.org/2000/svg" viewBox="0 0 512 512"><!--! Font Awesome Pro 6.0.0-alpha3 by @fontawesome - https://fontawesome.com License - https://fontawesome.com/license (Commercial License) --><defs><style>.fa-secondary{opacity:.4}</style></defs><path class="fa-primary" d="M288 256c0-17.67-14.33-32-32-32C238.3 224 224 238.3 224 256s14.33 32 32 32C273.7 288 288 273.7 288 256zM288 144c0-17.67-14.33-32-32-32c-17.67 0-32 14.33-32 32s14.33 32 32 32C273.7 176 288 161.7 288 144zM288 368c0-17.67-14.33-32-32-32c-17.67 0-32 14.33-32 32s14.33 32 32 32C273.7 400 288 385.7 288 368z"/><path class="fa-secondary" d="M512 256c0-141.4-114.6-256-256-256S0 114.6 0 256c0 141.4 114.6 255.1 255.1 255.1S512 397.4 512 256zM224 144c0-17.67 14.33-32 32-32c17.67 0 32 14.33 32 32s-14.33 32-32 32C238.3 176 224 161.7 224 144zM224 256c0-17.67 14.33-32 32-32c17.67 0 32 14.33 32 32s-14.33 32-32 32C238.3 288 224 273.7 224 256zM224 368c0-17.67 14.33-32 32-32c17.67 0 32 14.33 32 32s-14.33 32-32 32C238.3 400 224 385.7 224 368z"/></svg>