<svg xmlns="http://www.w3.org/2000/svg" viewBox="0 0 640 512"><!--! Font Awesome Pro 6.0.0-alpha3 by @fontawesome - https://fontawesome.com License - https://fontawesome.com/license (Commercial License) --><defs><style>.fa-secondary{opacity:.4}</style></defs><path class="fa-primary" d="M592 192H480V48.01c0-26.51-21.49-48-48-48l-96-.0049c-26.51 0-48 21.49-48 48v47.1L48 96.01c-26.51 0-48 21.49-48 48l0 336c0 17.67 14.33 32 32 32h576c17.67 0 32-14.33 32-32V240C640 213.5 618.5 192 592 192zM128 404c0 6.625-5.375 12-12 12h-40c-6.625 0-12-5.375-12-12v-40c0-6.625 5.375-12 12-12h40c6.625 0 12 5.375 12 12V404zM128 308c0 6.625-5.375 12-12 12h-40c-6.625 0-12-5.375-12-12v-40c0-6.625 5.375-12 12-12h40c6.625 0 12 5.375 12 12V308zM128 212c0 6.625-5.375 12-12 12h-40c-6.625 0-12-5.375-12-12v-40c0-6.625 5.375-12 12-12h40c6.625 0 12 5.375 12 12V212zM256 404c0 6.625-5.375 12-12 12h-40c-6.625 0-12-5.375-12-12v-40c0-6.625 5.375-12 12-12h40c6.625 0 12 5.38 12 12V404zM256 308c0 6.625-5.375 12-12 12h-40c-6.625 0-12-5.375-12-12v-40c0-6.625 5.375-12 12-12h40c6.625 0 12 5.38 12 12V308zM256 212c0 6.625-5.375 12-12 12h-40c-6.625 0-12-5.375-12-12v-40c0-6.625 5.375-12 12-12h40c6.625 0 12 5.375 12 12V212zM416 308c0 6.625-5.375 12-12 12h-40c-6.625 0-12-5.375-12-12v-40c0-6.625 5.375-12 12-12h40c6.625 0 12 5.38 12 12V308zM416 212c0 6.625-5.375 12-12 12h-40c-6.625 0-12-5.375-12-12v-40c0-6.625 5.375-12 12-12h40c6.625 0 12 5.38 12 12V212zM416 116c0 6.625-5.375 12-12 12h-40c-6.625 0-12-5.375-12-12v-40c0-6.625 5.375-12 12-12h40c6.625 0 12 5.375 12 12V116zM576 404c0 6.625-5.375 12-12 12h-40c-6.625 0-12-5.375-12-12v-40c0-6.625 5.375-12 12-12h40c6.625 0 12 5.375 12 12V404zM576 308c0 6.625-5.375 12-12 12h-40c-6.625 0-12-5.375-12-12v-40c0-6.625 5.375-12 12-12h40c6.625 0 12 5.375 12 12V308z"/><path class="fa-secondary" d="M116 160h-40c-6.625 0-12 5.375-12 12v40c0 6.625 5.375 12 12 12h40c6.625 0 12-5.375 12-12v-40C128 165.4 122.6 160 116 160zM116 256h-40c-6.625 0-12 5.375-12 12v40c0 6.625 5.375 12 12 12h40c6.625 0 12-5.375 12-12v-40C128 261.4 122.6 256 116 256zM224 24.01c0-13.26-10.75-23.1-24-23.1S176 10.75 176 24.01v72L224 96.01V24.01zM116 352h-40c-6.625 0-12 5.375-12 12v40c0 6.625 5.375 12 12 12h40c6.625 0 12-5.375 12-12v-40C128 357.4 122.6 352 116 352zM112 24.01c0-13.26-10.75-23.1-24-23.1S64 10.75 64 24.01v72h48V24.01zM564 352h-40c-6.625 0-12 5.375-12 12v40c0 6.625 5.375 12 12 12h40c6.625 0 12-5.375 12-12v-40C576 357.4 570.6 352 564 352zM564 256h-40c-6.625 0-12 5.375-12 12v40c0 6.625 5.375 12 12 12h40c6.625 0 12-5.375 12-12v-40C576 261.4 570.6 256 564 256zM244 256h-40C197.4 256 192 261.4 192 268v40c0 6.625 5.375 12 12 12h40c6.625 0 12-5.375 12-12v-40C256 261.4 250.6 256 244 256zM244 160h-40c-6.625 0-12 5.375-12 12v40c0 6.625 5.375 12 12 12h40c6.625 0 12-5.375 12-12v-40C256 165.4 250.6 160 244 160zM244 352h-40c-6.625 0-12 5.38-12 12v40c0 6.625 5.375 12 12 12h40c6.625 0 12-5.375 12-12v-40C256 357.4 250.6 352 244 352z"/></svg>