<svg xmlns="http://www.w3.org/2000/svg" viewBox="0 0 448 512"><!--! Font Awesome Pro 6.0.0-alpha3 by @fontawesome - https://fontawesome.com License - https://fontawesome.com/license (Commercial License) --><defs><style>.fa-secondary{opacity:.4}</style></defs><path class="fa-primary" d="M273.6 307.2C277.9 310.4 282.1 312 287.1 312c7.297 0 14.5-3.312 19.22-9.594c7.953-10.62 5.801-25.66-4.793-33.59L248 228V120c0-13.25-10.75-24-24-24S200 106.8 200 120V240c0 7.562 3.562 14.66 9.594 19.19L273.6 307.2zM224 448c-123.7 0-224-100.3-224-224v240C0 490.5 21.49 512 48 512h352c26.51 0 48-21.49 48-48V224C448 347.7 347.7 448 224 448z"/><path class="fa-secondary" d="M224 0C100.3 0 0 100.3 0 224s100.3 224 224 224s224-100.3 224-224S347.7 0 224 0zM307.2 302.4C302.5 308.7 295.3 312 287.1 312c-5.016 0-10.06-1.562-14.39-4.812l-64-48C203.6 254.7 200 247.6 200 240V120c0-13.25 10.75-24 23.1-24s24 10.75 24 24v108l54.41 40.81C313 276.8 315.2 291.8 307.2 302.4z"/></svg>