<svg xmlns="http://www.w3.org/2000/svg" viewBox="0 0 512 512"><!--! Font Awesome Pro 6.0.0-alpha3 by @fontawesome - https://fontawesome.com License - https://fontawesome.com/license (Commercial License) --><defs><style>.fa-secondary{opacity:.4}</style></defs><path class="fa-primary" d="M0 320c0 27.75 17.1 53.38 48 74.38v-64.37c-18.88-12-35.38-25.38-48-40.38V320zM80 412.5c27.12 12.88 59.63 22.88 96 28.75V377c-35.38-6-67.75-15.88-96-29V412.5zM464 330v64.37C493.1 373.4 512 347.8 512 320V289.6C499.4 304.6 482.9 318 464 330zM336 441.4c36.38-6 68.88-16 96-28.88V348c-28.25 13.12-60.63 23-96 29V441.4zM208 381.3v64C223.6 446.8 239.5 448 256 448s32.38-1.25 48-2.75v-64C288 383 272 383.9 256 384C240 383.9 224 383 208 381.3z"/><path class="fa-secondary" d="M512 208c0 79.5-114.6 144-256 144S0 287.5 0 208S114.6 64 256 64S512 128.5 512 208z"/></svg>