<svg xmlns="http://www.w3.org/2000/svg" viewBox="0 0 320 512"><!--! Font Awesome Pro 6.0.0-alpha3 by @fontawesome - https://fontawesome.com License - https://fontawesome.com/license (Commercial License) --><defs><style>.fa-secondary{opacity:.4}</style></defs><path class="fa-primary" d="M188.9 448.3c-48.55 0-96.91-19.09-133.8-56.75C-18.19 316.8-18.19 195.2 55.11 120.5c68.95-70.34 177.9-75.97 253.4-13.12c13.59 11.31 15.44 31.5 4.125 45.06c-11.3 13.56-31.53 15.41-45.06 4.125c-49.66-41.31-121.3-37.56-166.7 8.75c-49.08 50.03-49.08 131.4-.0156 181.4c45.42 46.31 117.1 50.06 166.7 8.75c13.52-11.31 33.75-9.469 45.06 4.125c11.31 13.56 9.469 33.75-4.125 45.06C273.4 433.9 231.1 448.3 188.9 448.3z"/><path class="fa-secondary" d="M216.5 66.05l6.576-26.3c4.281-17.12-6.141-34.5-23.28-38.78c-17.12-4.281-34.5 6.094-38.81 23.28L149.1 68.21C171.8 63.5 194.3 62.71 216.5 66.05zM131.3 142.1l-46.07 184.3c4.502 6.865 9.652 13.42 15.59 19.48c11.5 11.73 24.7 20.67 38.78 26.9l61.21-244.9C176.1 126.4 152.9 131.3 131.3 142.1zM48.95 472.3c-4.281 17.12 6.141 34.5 23.28 38.78C74.84 511.7 77.44 512 80.02 512c14.33 0 27.39-9.688 31.03-24.25l12.95-51.79c-20.6-7.719-39.82-19.52-57.29-34.74L48.95 472.3zM295.8 .9687c-17.11-4.281-34.52 6.094-38.81 23.28l-12.08 48.31c20.58 6.537 40.17 17.09 58.2 31.09l15.97-63.9C323.3 22.62 312.9 5.25 295.8 .9687zM151.9 444.5l-6.947 27.79c-4.281 17.12 6.141 34.5 23.28 38.78C170.8 511.7 173.4 512 176 512c14.33 0 27.39-9.688 31.03-24.25l10.48-41.93c-9.496 1.488-19.05 2.457-28.62 2.457C176.5 448.3 164.1 446.1 151.9 444.5zM229.3 134.1l-61.7 246.8c22.67 4.051 46.07 1.586 67.83-7.43l52.71-210.8c-7.262 .0293-14.59-1.977-20.58-6.973C255.8 146.8 242.8 139.7 229.3 134.1z"/></svg>