<svg xmlns="http://www.w3.org/2000/svg" viewBox="0 0 640 512"><!--! Font Awesome Pro 6.0.0-alpha3 by @fontawesome - https://fontawesome.com License - https://fontawesome.com/license (Commercial License) --><defs><style>.fa-secondary{opacity:.4}</style></defs><path class="fa-primary" d="M601.2 506.9L9.189 42.89c-10.42-8.156-12.24-23.26-4.068-33.7C13.31-1.217 28.34-3.102 38.81 5.116l591.1 463.1c10.42 8.156 12.24 23.26 4.068 33.7C626.7 513.2 611.6 515.1 601.2 506.9z"/><path class="fa-secondary" d="M220.1 382.1c-16.66 7.609-33.81-9.547-26.19-26.2l36.1-78.1L82.34 161.2C70.62 190.6 64 222.5 64 256c0 141.4 114.6 256 256 256c55.54 0 106.8-17.87 148.7-47.92L311.1 340.5L220.1 382.1zM320 0C246.9 0 181.3 31.08 134.7 80.29l144.1 113.6l140.2-64.09c16.66-7.594 33.81 9.562 26.19 26.2L389.5 279.1l145.8 114.2C560.1 354.4 576 306.1 576 256C576 114.6 461.4 0 320 0z"/></svg>