<svg xmlns="http://www.w3.org/2000/svg" viewBox="0 0 576 512"><!--! Font Awesome Pro 6.0.0-alpha3 by @fontawesome - https://fontawesome.com License - https://fontawesome.com/license (Commercial License) --><defs><style>.fa-secondary{opacity:.4}</style></defs><path class="fa-primary" d="M512 32h-448c-35.35 0-64 28.65-64 64v320c0 35.35 28.65 64 64 64h448c35.35 0 64-28.65 64-64V96C576 60.65 547.3 32 512 32zM160 376C160 380.4 156.4 384 152 384h-80C67.58 384 64 380.4 64 376l0-16c0-4.42 3.582-8 8-8h80c4.418 0 8 3.58 8 8L160 376zM352 376c0 4.418-3.582 8-8 8h-144C195.6 384 192 380.4 192 376l0-16c0-4.42 3.582-8 8-8h143.1c4.418 0 8 3.58 8 8L352 376z"/><path class="fa-secondary" d="M160 376C160 380.4 156.4 384 152 384h-80C67.58 384 64 380.4 64 376l0-16c0-4.42 3.582-8 8-8h80c4.418 0 8 3.58 8 8L160 376zM352 376c0 4.418-3.582 8-8 8h-144C195.6 384 192 380.4 192 376l0-16c0-4.42 3.582-8 8-8h143.1c4.418 0 8 3.58 8 8L352 376z"/></svg>