<svg xmlns="http://www.w3.org/2000/svg" viewBox="0 0 512 512"><!--! Font Awesome Pro 6.0.0-alpha3 by @fontawesome - https://fontawesome.com License - https://fontawesome.com/license (Commercial License) --><defs><style>.fa-secondary{opacity:.4}</style></defs><path class="fa-primary" d="M431.1 352c-44.25 0-80 35.75-80 79.1S387.7 512 431.1 512s80-35.75 80-79.1S476.2 352 431.1 352zM407.9 257.1c5.395-5.394 8.092-12.47 8.092-19.54s-2.697-14.14-8.092-19.54l-34.35-34.35l133.8-133.8C510.4 46.81 512 42.72 512 38.62s-1.562-8.187-4.688-11.31l-22.62-22.62C481.6 1.563 477.5 0 473.4 0s-8.191 1.562-11.32 4.685L328.3 138.4l-34.35-34.35c-5.395-5.394-12.46-8.091-19.54-8.091s-14.14 2.697-19.54 8.091L191.1 166.1v153h153L407.9 257.1z"/><path class="fa-secondary" d="M191.1 166.1l-182.4 182.4c-5.861 5.863-9.592 13.8-9.592 22.02c0 102.8 108.9 140.6 140.6 140.6c8.217 0 16.16-3.731 22.03-9.595l182.4-182.4H191.1V166.1z"/></svg>