<svg xmlns="http://www.w3.org/2000/svg" viewBox="0 0 512 512"><!--! Font Awesome Pro 6.0.0-alpha3 by @fontawesome - https://fontawesome.com License - https://fontawesome.com/license (Commercial License) --><defs><style>.fa-secondary{opacity:.4}</style></defs><path class="fa-primary" d="M255.1 352C238.3 352 224 366.3 224 384v96c0 17.67 14.33 32 31.1 32S288 497.7 288 480v-96C288 366.3 273.7 352 255.1 352zM128 224H32C14.33 224 0 238.3 0 256c0 17.67 14.33 32 32 32h96c17.67 0 31.1-14.33 31.1-32C159.1 238.3 145.7 224 128 224zM480 224h-96c-17.67 0-32 14.33-32 32c0 17.67 14.33 32 32 32h96c17.67 0 32-14.33 32-32C512 238.3 497.7 224 480 224zM256 0C238.3 0 224 14.33 224 32v96c0 17.67 14.33 32 31.1 32S288 145.7 288 128V32C288 14.33 273.7 0 256 0zM256 224C238.3 224 224 238.3 224 256c0 17.67 14.33 32 32 32s32-14.33 32-32C288 238.3 273.7 224 256 224z"/><path class="fa-secondary" d="M405.2 224h65.76C456.9 128.7 381.5 54.98 288 41.04v67.55c28.4 5.352 55.28 19.1 76.8 41.81C385.2 170.8 398.8 196.2 405.2 224zM109.8 288H40.93C54.61 383.5 128.5 457.4 224 471.1v-64.6c-27.19-6.15-52.91-19.83-73.6-41.67C129.5 342.7 115.9 315.9 109.8 288zM406.6 288c-5.869 28.29-20.24 55.24-41.8 76.8c-22.11 22.11-48.92 35.95-76.8 41.97v64.3C383.5 457.4 457.4 383.5 471.1 288H406.6zM41.01 224h68.52c5.768-27.19 19.04-52.91 40.88-73.6C171.7 130.3 197.3 117.2 224 110.8V41.04C130.5 54.98 55.06 128.7 41.01 224z"/></svg>