<svg xmlns="http://www.w3.org/2000/svg" viewBox="0 0 640 512"><!--! Font Awesome Pro 6.0.0-alpha3 by @fontawesome - https://fontawesome.com License - https://fontawesome.com/license (Commercial License) --><defs><style>.fa-secondary{opacity:.4}</style></defs><path class="fa-primary" d="M464 0C419.8 0 384 35.82 384 80v21L12.12 393.6c-7.625 5.625-12.12 14.62-12.12 24.12c0 22.5 23.63 37 43.75 27l121.5-60.76L352 384c106 0 192-85.96 192-192V80C544 35.82 508.2 0 464 0zM464 56c13.25 0 24 10.75 24 24s-10.75 24-24 24s-24-10.75-24-24S450.8 56 464 56z"/><path class="fa-secondary" d="M640 96c0-35.38-43-64-96-64L527.6 32C537.8 45.4 544 61.91 544 80V112L640 96zM313 384H261.8l44.38 120.1c2.375 6.25 9.25 9.375 15.38 7.125l22.62-8.25c6.25-2.25 9.375-9.125 7.125-15.38L313 384zM406 376.2C388.9 381.2 370.8 384 352 384c1.875 0 3.75-.2513 5.625-.2513l44.5 120.4c2.375 6.25 9.25 9.375 15.38 7.125l22.62-8.25c6.25-2.25 9.375-9.125 7.125-15.38L406 376.2z"/></svg>