<svg xmlns="http://www.w3.org/2000/svg" viewBox="0 0 384 512"><!--! Font Awesome Pro 6.0.0-alpha3 by @fontawesome - https://fontawesome.com License - https://fontawesome.com/license (Commercial License) --><defs><style>.fa-secondary{opacity:.4}</style></defs><path class="fa-primary" d="M228.2 480.2c-58.47 0-116.7-22.09-161.1-65.59C23.81 372.3 0 315.1 0 256s23.81-116.3 67.06-158.6c83-81.28 214.1-87.81 304.9-15.25c13.81 11.05 16.06 31.17 5.031 44.98c-11 13.81-31.16 16.06-44.97 5.016C266.4 79.7 171.8 84.39 111.8 143.1C80.97 173.3 64 213.4 64 256s16.97 82.7 47.81 112.9c59.94 58.67 154.6 63.38 220.2 10.97c13.78-11.03 33.97-8.766 44.97 5.016c11.03 13.81 8.781 33.94-5.031 44.98C329.8 463.6 278.9 480.2 228.2 480.2z"/><path class="fa-secondary" d="M224 320v95.88c-21.95-.5371-43.69-5.273-64-14.37V256c0-17.67 14.31-32 32-32c8.963 0 17.01 3.719 22.82 9.646C227.3 227.6 241.2 224 256 224c16.91 0 33.53 4.453 48.06 12.88c15.28 8.859 20.5 28.45 11.62 43.73c-8.875 15.27-28.44 20.45-43.75 11.64C267.2 289.5 261.7 288 256 288C238.3 288 224 302.4 224 320z"/></svg>