<svg xmlns="http://www.w3.org/2000/svg" viewBox="0 0 576 512"><!--! Font Awesome Pro 6.0.0-alpha3 by @fontawesome - https://fontawesome.com License - https://fontawesome.com/license (Commercial License) --><defs><style>.fa-secondary{opacity:.4}</style></defs><path class="fa-primary" d="M480 224h-384c0-35.35 28.65-64 64-64V128c0-53.02 42.98-96 96-96h144C408.8 32 416 39.16 416 48v32C416 88.84 408.8 96 400 96H256C238.3 96 224 110.3 224 128v32h192C451.3 160 480 188.7 480 224z"/><path class="fa-secondary" d="M0 384c0 53.02 42.98 96 96 96h384c53.02 0 96-42.98 96-96v-16H0L0 384zM480 224h-384c-53.02 0-96 42.98-96 96L0 336h576V320C576 266.1 533 224 480 224z"/></svg>