<svg xmlns="http://www.w3.org/2000/svg" viewBox="0 0 640 512"><!--! Font Awesome Pro 6.0.0-alpha3 by @fontawesome - https://fontawesome.com License - https://fontawesome.com/license (Commercial License) --><defs><style>.fa-secondary{opacity:.4}</style></defs><path class="fa-primary" d="M591.1 0h-96c-26.4 0-48 21.6-48 48v96c0 26.4 21.6 48 48 48h96c26.4 0 48-21.6 48-48v-96C639.1 21.6 618.4 0 591.1 0zM368 320h-96C245.6 320 224 341.6 224 368v96C224 490.4 245.6 512 272 512h96c26.4 0 48-21.6 48-48v-96C416 341.6 394.4 320 368 320zM144 0h-96C21.6 0 0 21.6 0 48v96C0 170.4 21.6 192 48 192h96C170.4 192 192 170.4 192 144v-96C192 21.6 170.4 0 144 0z"/><path class="fa-secondary" d="M144 192H127.8l96.8 169.8C227.7 338.3 247.7 320 272 320h2.449L186.4 165.1C178.4 181.3 162.5 192 144 192zM192 64v64h256V64H192z"/></svg>