<svg xmlns="http://www.w3.org/2000/svg" viewBox="0 0 512 512"><!--! Font Awesome Pro 6.0.0-alpha3 by @fontawesome - https://fontawesome.com License - https://fontawesome.com/license (Commercial License) --><defs><style>.fa-secondary{opacity:.4}</style></defs><path class="fa-primary" d="M176 0h-128C21.49 0 0 21.49 0 48v128C0 202.5 21.49 224 48 224h128C202.5 224 224 202.5 224 176v-128C224 21.49 202.5 0 176 0zM464 288h-128C309.5 288 288 309.5 288 336v128c0 26.51 21.49 48 48 48h128c26.51 0 48-21.49 48-48v-128C512 309.5 490.5 288 464 288z"/><path class="fa-secondary" d="M288 432H176c-52.94 0-96-43.06-96-96V224h64v112c0 17.66 14.34 32 32 32H288V432z"/></svg>