<svg xmlns="http://www.w3.org/2000/svg" viewBox="0 0 640 512"><!--! Font Awesome Pro 6.0.0-alpha3 by @fontawesome - https://fontawesome.com License - https://fontawesome.com/license (Commercial License) --><defs><style>.fa-secondary{opacity:.4}</style></defs><path class="fa-primary" d="M576 32H64C28.65 32 0 60.65 0 96v320c0 35.35 28.65 64 64 64h512c35.35 0 64-28.65 64-64V96C640 60.65 611.3 32 576 32zM576 96v224h-64V96H576zM400 232h64V320h-64V232zM464 96v88h-64V96H464zM352 96v224H288V96H352zM176 232h64V320h-64V232zM240 96v88h-64V96H240zM128 96v224H64V96H128zM64 416v-48h232V416H64zM344 416v-48H576V416H344z"/><path class="fa-secondary" d="M64 320h64V96H64V320zM512 96v224h64V96H512z"/></svg>