<svg xmlns="http://www.w3.org/2000/svg" viewBox="0 0 640 512"><!--! Font Awesome Pro 6.0.0-alpha3 by @fontawesome - https://fontawesome.com License - https://fontawesome.com/license (Commercial License) --><defs><style>.fa-secondary{opacity:.4}</style></defs><path class="fa-primary" d="M608 64v64c0 17.67-14.33 32-32 32h-171.8l-57.6 96H31.1C14.33 256 0 270.3 0 288V224c0-17.67 14.33-32 32-32h203.8l77.36-128.9C324.7 43.79 345.5 32 368 32H576C593.7 32 608 46.33 608 64z"/><path class="fa-secondary" d="M592 320H276.8l38.4 64H576c17.67 0 32 14.33 32 32v32c0 17.67-14.33 32-32 32H297.1c-22.48 0-43.31-11.8-54.88-31.07L164.8 320H32c-17.67 0-32-14.33-32-32c0-17.67 14.33-32 31.1-32H592C600.8 256 608 263.2 608 272v32C608 312.8 600.8 320 592 320z"/></svg>