<svg xmlns="http://www.w3.org/2000/svg" viewBox="0 0 576 512"><!--! Font Awesome Pro 6.0.0-alpha3 by @fontawesome - https://fontawesome.com License - https://fontawesome.com/license (Commercial License) --><defs><style>.fa-secondary{opacity:.4}</style></defs><path class="fa-primary" d="M128 224l160-.0004V384l-96 .0002V496C192 504.9 184.9 512 176 512H112C103.1 512 96 504.9 96 496V282.1C58.88 268.9 32 233.6 32 192C32 174.4 46.38 160 64 160s32 14.38 32 32S110.4 224 128 224zM320 231.8l128 45.63v218.5c0 8.875-7.125 16-16 16l-63.1 .0114C359.1 511.1 352 504.8 352 495.1v-111.1l-31.1-.0025L320 231.8zM528 95.97l-63.1 .0207l-7.125-14.25c-4.875-9.875-17.75-17.75-28.62-17.75l-53.63-.0085L347.3 36.73C337.2 26.6 320 33.73 320 47.98v149.9l128 45.75V207.1l32 .0198C515.4 207.1 544 179.3 544 143.1V111.1C544 103.1 536.9 95.97 528 95.97zM416 127.1c-8.875 0-15.1-7.128-15.1-16S407.1 95.98 416 95.98s16 7.125 16 16S424.9 127.1 416 127.1z"/><path class="fa-secondary" d="M448 243.6v33.88l-128-45.63l.0002 152.1L288 384V224L38.13 41.22C31.25 35.84 29.1 25.72 35.38 18.72l9.875-12.63c5.375-6.875 15.38-8.125 22.38-2.75L320 197.8L448 243.6z"/></svg>