<svg xmlns="http://www.w3.org/2000/svg" viewBox="0 0 320 512"><!--! Font Awesome Pro 6.0.0-alpha3 by @fontawesome - https://fontawesome.com License - https://fontawesome.com/license (Commercial License) --><defs><style>.fa-secondary{opacity:.4}</style></defs><path class="fa-primary" d="M166.2 447.1c-12.56 0-25.75-.9844-39.44-3.016c-26.19-3.766-53.69-13.2-77.94-21.53l-11.03-3.766C21.03 414 12.03 395.8 17.69 379.1s23.88-25.73 40.56-20.08l11.31 3.859c21.59 7.406 46.03 15.81 66.41 18.73c47.09 6.953 97.06-.8438 103.1-34.09c5.188-28.55-11.16-39.89-87.53-60.7L136.5 282.7C92.59 270.4 1.25 244.9 17.97 153c11.81-65.27 82-99.83 175.3-85.97c16.91 2.531 36.22 7.469 60.72 15.55c16.81 5.531 25.94 23.61 20.41 40.41c-5.531 16.77-23.69 25.86-40.41 20.38c-20.72-6.812-37.12-11.08-50.16-13.02C137 123.4 86.97 131.2 80.91 164.5C76.5 188.8 85.66 202 153.8 221l14.59 4.016c59.97 16.33 150.6 41.03 133.7 133.9C291.9 414.6 239.2 447.1 166.2 447.1z"/><path class="fa-secondary" d="M128 445V480c0 17.67 14.35 32 32.04 32S192 497.7 192 480v-33.56c-8.291 .9785-16.9 1.51-25.84 1.51C154 447.1 141.2 446.9 128 445zM160 0C142.3 0 128 14.33 128 32v33.51c19.56-2.291 41.09-1.854 64 1.445V32C192 14.33 177.7 0 160 0z"/></svg>