<svg xmlns="http://www.w3.org/2000/svg" viewBox="0 0 448 512"><!--! Font Awesome Pro 6.0.0-alpha3 by @fontawesome - https://fontawesome.com License - https://fontawesome.com/license (Commercial License) --><defs><style>.fa-secondary{opacity:.4}</style></defs><path class="fa-primary" d="M320 32c-17.67 0-32 14.31-32 32v113.8C269.1 166.8 247.4 160 224 160C153.4 160 96 217.4 96 288s57.42 128 128 128c24.51 0 47.21-7.273 66.7-19.27C295.6 408.1 306.9 416 320 416c17.67 0 32-14.31 32-32V64C352 46.31 337.7 32 320 32zM224 352c-35.3 0-64-28.72-64-64s28.7-64 64-64s64 28.72 64 64S259.3 352 224 352z"/><path class="fa-secondary" d="M384 96c0-17.69-14.33-32-32-32v64C369.7 128 384 113.7 384 96zM256 128h32V64h-32c-17.67 0-32 14.31-32 32S238.3 128 256 128zM392 448H56c-17.67 0-32 14.31-32 32s14.33 32 32 32h336c17.67 0 32-14.31 32-32S409.7 448 392 448z"/></svg>