<svg xmlns="http://www.w3.org/2000/svg" viewBox="0 0 448 512"><!--! Font Awesome Pro 6.0.0-alpha3 by @fontawesome - https://fontawesome.com License - https://fontawesome.com/license (Commercial License) --><defs><style>.fa-secondary{opacity:.4}</style></defs><path class="fa-primary" d="M314.9 401.5l-58.88 58.86C243.4 473 226.4 480 208.7 480H66.87C29.87 480 0 450.1 0 413.1V271.3c0-17.75 7.001-34.77 19.62-47.27l58.89-58.88L314.9 401.5z"/><path class="fa-secondary" d="M443.2 81.94L334.2 190.1l72 71.9c13.12 13.13 13.12 34.25 0 47.38l-91.36 91.27L78.51 165.1l91.35-91.39c13.12-13 34.21-13 47.33 0l71.91 71.99l108.1-109c6.125-6.25 16.36-6.25 22.61-.0001l22.54 22.54C449.6 65.61 449.6 75.69 443.2 81.94z"/></svg>