<svg xmlns="http://www.w3.org/2000/svg" viewBox="0 0 640 512"><!--! Font Awesome Pro 6.0.0-alpha3 by @fontawesome - https://fontawesome.com License - https://fontawesome.com/license (Commercial License) --><defs><style>.fa-secondary{opacity:.4}</style></defs><path class="fa-primary" d="M496 96c-10.25 .125-19.42 6.707-22.42 16.58l44.1-.125C515.5 102.6 506.4 96 496 96zM144 96.06c-10.12 0-19.13 6.394-22.38 16.02h44.75C163.1 102.5 154.1 96.06 144 96.06zM472 160v77.67l-96.88-28.99c-36-10.87-74.42-10.87-110.3 0L168 237.7V160h-48v96.04c0 17.74 14.38 31.99 32 31.99h45.42c-30.12 29.36-49.04 68.36-53.29 110.2c-.5 4.498 1 8.997 4 12.37C151.2 414 155.4 416 160.1 416h16.3C184.6 416 191.1 409.4 192 401.1c4.125-36.74 23.62-69.85 53.62-91.34l33 32.86c6 5.998 14.12 9.372 22.62 9.372h37.5c8.5 0 16.62-3.374 22.62-9.372l32.88-32.86c30.12 21.49 49.58 54.6 53.71 91.34C448.8 409.4 455.3 416 463.6 416h16.32c4.625 0 8.808-1.1 11.93-5.374c3-3.375 4.5-7.874 4-12.37c-4.25-41.86-23.12-80.86-53.25-110.2h45.38c17.62 0 31.1-14.25 31.1-31.99L520 160H472z"/><path class="fa-secondary" d="M288 136.1c0-13.24-10.75-23.99-24-23.99h-240c-13.25 0-24 10.73-24 23.98s10.75 24.01 24 24.01h240C277.2 160.1 288 149.3 288 136.1zM616.4 112.2l-240.8 .7498c-12.87 .2499-23.12 10.75-23 23.62c0 12.75 10.29 23.24 23.17 23.37l240.7-.7498C629.5 159.2 640 148.6 640 135.6C640 122.6 629.4 112.1 616.4 112.2z"/></svg>