<svg xmlns="http://www.w3.org/2000/svg" viewBox="0 0 512 512"><!--! Font Awesome Pro 6.0.0-alpha3 by @fontawesome - https://fontawesome.com License - https://fontawesome.com/license (Commercial License) --><defs><style>.fa-secondary{opacity:.4}</style></defs><path class="fa-primary" d="M172.5 380.2L143.8 401C143.3 418.4 129 432.1 111.6 432S80.13 417.8 80 400.4s13.62-31.63 31-32.13l20.79-28.8C151.1 345.8 166.2 360.9 172.5 380.2zM143.8 111C143.3 93.63 129 79.88 111.6 80S80.13 94.25 80 111.6s13.62 31.63 31 32.13l20.79 28.8c19.3-6.332 34.43-21.46 40.76-40.76L143.8 111zM400.4 432c17.38-.125 31.5-14.25 31.62-31.62s-13.62-31.63-31-32.13l-20.79-28.8c-19.3 6.332-34.43 21.46-40.76 40.76l28.8 20.79C368.7 418.4 383 432.1 400.4 432zM380.2 172.5L401 143.8C418.4 143.3 432.1 129 432 111.6S417.8 80.13 400.4 80s-31.63 13.62-32.13 31l-28.8 20.79C345.8 151.1 360.9 166.2 380.2 172.5zM352 299.2V212.8C328.9 201.8 310.2 183.1 299.2 160H212.8C201.8 183.1 183.1 201.8 160 212.8v86.38C183.1 310.2 201.8 328.9 212.8 352h86.38C310.2 328.9 328.9 310.2 352 299.2z"/><path class="fa-secondary" d="M112 0C50.14 0 0 50.14 0 112S50.14 224 112 224S224 173.9 224 112S173.9 0 112 0zM112 176c-35.29 0-64-28.71-64-64s28.71-64 64-64s64 28.71 64 64S147.3 176 112 176zM400 224C461.9 224 512 173.9 512 112S461.9 0 400 0S288 50.14 288 112S338.1 224 400 224zM400 48c35.29 0 64 28.71 64 64s-28.71 64-64 64s-64-28.71-64-64S364.7 48 400 48zM112 288C50.14 288 0 338.1 0 400S50.14 512 112 512S224 461.9 224 400S173.9 288 112 288zM112 464c-35.29 0-64-28.71-64-64s28.71-64 64-64s64 28.71 64 64S147.3 464 112 464zM400 288c-61.86 0-112 50.14-112 112s50.14 112 112 112s112-50.14 112-112S461.9 288 400 288zM400 464c-35.29 0-64-28.71-64-64s28.71-64 64-64s64 28.71 64 64S435.3 464 400 464z"/></svg>