<svg xmlns="http://www.w3.org/2000/svg" viewBox="0 0 576 512"><!--! Font Awesome Pro 6.0.0-alpha3 by @fontawesome - https://fontawesome.com License - https://fontawesome.com/license (Commercial License) --><defs><style>.fa-secondary{opacity:.4}</style></defs><path class="fa-primary" d="M539.3 208h-75.86c-8.477 0-15.5 7-15.5 15.5v6.875c0 5.875-3.27 11.25-8.477 13.88L424 252c-4.965 2.5-10.9 2.125-15.5-1l-18.16-12.12c-3.996-2.625-8.961-3.375-13.56-1.75L374.1 238c-9.688 3.125-13.56 14.75-7.992 23.25l13.32 19.88C382.2 285.4 387.1 288 392.3 288h8.234c8.598 0 15.5 7 15.5 15.5v11.38c0 3.375-1.09 6.625-3.148 9.25l-18.65 25c-1.453 1.875-2.422 4.125-2.906 6.375l-4.238 22.88c-.6055 3.25-2.301 6.25-4.844 8.625c-9.445 8.625-17.8 18.38-24.95 29.12l-13.08 19.5c-1.535 2.336-3.902 3.758-6.012 5.488c-8.477 2.305-17.16 4.074-26.06 5.199c-6.711-2.328-12.45-7.047-15.76-13.69c-5.449-10.88-8.355-23-8.355-35.25V367.5C288 359 281.1 352 272.5 352H246.6c-14.41 0-28.34-5.75-38.63-16C197.8 325.8 192 311.9 192 297.4V283.3c0-17.12 8.113-33.38 21.92-43.63l27.49-20.75C250.9 211.9 262.4 208 274.2 208h.8477c8.477 0 16.95 2 24.46 5.75l14.77 7.375C317.9 223 322.2 223.3 326.1 222l47.35-15.75c6.297-2.125 10.66-8.125 10.66-14.75c0-8.625-7.023-15.5-15.5-15.5h-10.17c-4.117 0-7.992-1.625-10.9-4.5l-6.902-7C337.7 161.6 333.7 160 329.6 160H239.5c-8.477 0-15.5-7-15.5-15.5V140.1c0-7.125 4.844-13.38 11.75-15.12l14.53-3.5c3.754-1 7.023-3.25 9.082-6.5l8.113-12.12C270.3 98.63 275.2 96 280.3 96h24.22c8.598 0 15.5-7 15.5-15.5V2.211C430.4 16 518.8 99.88 539.3 208z"/><path class="fa-secondary" d="M539.3 208C542.3 223.6 544 239.6 544 256c0 141.4-114.6 256-256 256s-256-114.6-256-256s114.6-256 256-256c10.86 0 21.49 .8984 31.1 2.211V80.5C319.1 89 313.1 96 304.5 96H280.3c-5.086 0-9.93 2.625-12.84 6.875L259.3 115C257.3 118.3 253.1 120.5 250.2 121.5L235.7 125c-6.902 1.75-11.75 8-11.75 15.12V144.5C223.1 153 230.1 160 239.5 160h90.09c4.117 0 8.113 1.625 11.02 4.5l6.902 7C350.4 174.4 354.3 176 358.4 176h10.17c8.477 0 15.5 6.875 15.5 15.5c0 6.625-4.359 12.62-10.66 14.75L326.1 222c-3.875 1.25-8.113 1-11.75-.875l-14.77-7.375C292 210 283.5 208 275.1 208H274.2c-11.87 0-23.37 3.875-32.82 10.88L213.9 239.6C200.1 249.9 192 266.1 192 283.3v14.12C192 311.9 197.8 325.8 207.1 336C218.3 346.3 232.2 352 246.6 352h25.91c8.598 0 15.5 7 15.5 15.5v29.88c0 12.25 2.906 24.38 8.355 35.25c3.305 6.641 9.047 11.36 15.76 13.69c8.902-1.125 17.59-2.895 26.06-5.199c2.109-1.73 4.477-3.152 6.012-5.488l13.08-19.5c7.145-10.75 15.5-20.5 24.95-29.12c2.543-2.375 4.238-5.375 4.844-8.625l4.238-22.88c.4844-2.25 1.453-4.5 2.906-6.375l18.65-25c2.059-2.625 3.148-5.875 3.148-9.25V303.5C416 295 409.1 288 400.5 288h-8.234c-5.207 0-10.05-2.625-12.84-6.875l-13.32-19.88c-5.57-8.5-1.695-20.12 7.992-23.25l2.664-.875c4.602-1.625 9.566-.875 13.56 1.75l18.16 12.12c4.602 3.125 10.54 3.5 15.5 1l15.5-7.75c5.207-2.625 8.477-8 8.477-13.88V223.5c0-8.5 7.023-15.5 15.5-15.5H539.3z"/></svg>