<svg xmlns="http://www.w3.org/2000/svg" viewBox="0 0 576 512"><!--! Font Awesome Pro 6.0.0-alpha3 by @fontawesome - https://fontawesome.com License - https://fontawesome.com/license (Commercial License) --><defs><style>.fa-secondary{opacity:.4}</style></defs><path class="fa-primary" d="M525.8 161.6l-44.63 3.85c-9.566 .8262-18.89 3.451-27.48 7.74c-3.734 1.867-6.92 4.676-9.24 8.15l-19.59 29.38c-5.371 8.061-5.371 18.56 0 26.62l18 27c2.584 3.889 6.248 6.939 10.54 8.779l20.52 10.1l61.47 37.71C540.8 300.1 544 278.5 544 256C544 222.6 537.4 190.8 525.8 161.6zM361.4 297.4C355.4 291.4 347.2 287.1 338.8 288H272c-9.41-4.711-21.48-32-32-32C229.5 256 219.1 253.5 209.7 248.8L198.6 243.3c-5.889-3.037-8.201-10.27-5.164-16.16c1.41-2.736 3.818-4.824 6.725-5.836l31.17-10.39C236.7 209.1 242.6 210.3 246.9 214l9.279 8.061c1.449 1.275 3.309 1.986 5.24 2h5.641C271.5 224.1 275.1 220.5 275.1 216.1C275.1 214.8 274.8 213.6 274.2 212.5L258.6 181.3C257.1 178.2 257.7 174.4 260.2 172l9.92-9.65C271.6 160.9 273.6 160 275.7 160h9c2.123 .002 4.16-.8398 5.66-2.34l8-8c3.123-3.125 3.123-8.188 0-11.31l-4.689-4.689c-3.121-3.125-3.121-8.188 0-11.31l15.02-15.03c6.25-6.248 6.248-16.38 .002-22.63c-.002 0 .002 .002 0 0L284.3 60.29c-2.516-2.52-5.994-3.836-9.549-3.609C272.2 56.85 269.7 57.06 267.2 57.33C260.8 57.97 256 63.3 256 69.66c.084 7.266-4.639 13.71-11.59 15.83C240.6 86.6 236.4 86.21 232.8 84.42c-5.861-2.934-11.25-6.721-16-11.24L171.9 28.04C142.1 42.81 117.3 62.9 96 87.06v57.65c.002 9.961 2.98 19.69 8.551 27.95c11.72 17.39 28.38 42.07 35.67 52.77c5.166 7.611 11.23 14.58 18.06 20.74L159.1 246.9c9.533 8.629 20.18 15.94 31.65 21.75c14 7.051 34.44 18.16 48.81 26.11C249.7 300.4 256 311.1 256 322.8v32c-.002 8.486 3.369 16.63 9.369 22.63c15 15 24.32 38.63 22.63 51.25v13.07c.002 11.6 9.404 21 21 20.1c.832 0 1.662-.0488 2.488-.1484c1.75-.209 3.49-.4395 5.23-.6992c8.391-1.281 15.18-7.508 17.17-15.76L348 404.5c1.1-5.49 3.26-11.21 4.77-16.87c1.1-4.057 3.248-7.75 6.23-10.71c3.32-3.33 7.41-7.398 11.31-11.28c8.789-8.73 13.73-20.61 13.72-33c.0117-8.1-3.201-15.87-8.93-21.6L361.4 297.4z"/><path class="fa-secondary" d="M535.4 320.9C506.6 430.8 406.9 512 288 512c-141.4 0-256-114.6-256-256c0-64.82 24.28-123.8 64-168.9v57.65c.002 9.961 2.98 19.69 8.551 27.95c11.72 17.39 28.38 42.07 35.67 52.77c5.166 7.611 11.23 14.58 18.06 20.74L159.1 246.9c9.533 8.629 20.18 15.94 31.65 21.75c14 7.051 34.44 18.16 48.81 26.11C249.7 300.4 256 311.1 256 322.8v32c-.002 8.486 3.369 16.63 9.369 22.63c15 15 24.32 38.63 22.63 51.25v13.07c.002 11.6 9.404 21 21 20.1c.832 0 1.662-.0488 2.488-.1484c1.75-.209 3.49-.4395 5.23-.6992c8.391-1.281 15.18-7.508 17.17-15.76L348 404.5c1.1-5.49 3.26-11.21 4.77-16.87c1.1-4.057 3.248-7.75 6.23-10.71c3.32-3.33 7.41-7.398 11.31-11.28c8.789-8.73 13.73-20.61 13.72-33c.0117-8.1-3.201-15.87-8.93-21.6L361.4 297.4C355.4 291.4 347.2 287.1 338.8 288H272c-9.41-4.711-21.48-32-32-32C229.5 256 219.1 253.5 209.7 248.8L198.6 243.3c-5.889-3.037-8.201-10.27-5.164-16.16c1.41-2.736 3.818-4.824 6.725-5.836l31.17-10.39C236.7 209.1 242.6 210.3 246.9 214l9.279 8.061c1.449 1.275 3.309 1.986 5.24 2h5.641C271.5 224.1 275.1 220.5 275.1 216.1C275.1 214.8 274.8 213.6 274.2 212.5L258.6 181.3C257.1 178.2 257.7 174.4 260.2 172l9.92-9.65C271.6 160.9 273.6 160 275.7 160h9c2.123 .002 4.16-.8398 5.66-2.34l8-8c3.123-3.125 3.123-8.188 0-11.31l-4.689-4.689c-3.121-3.125-3.121-8.188 0-11.31l15.02-15.03c6.25-6.248 6.248-16.38 .002-22.63c-.002 0 .002 .002 0 0L284.3 60.29c-2.516-2.52-5.994-3.836-9.549-3.609C272.2 56.85 269.7 57.06 267.2 57.33C260.8 57.97 256 63.3 256 69.66c.084 7.266-4.639 13.71-11.59 15.83C240.6 86.6 236.4 86.21 232.8 84.42c-5.861-2.934-11.25-6.721-16-11.24L171.9 28.04C206.8 10.24 246.2 0 288 0c107.1 0 200.2 66.97 237.8 161.6l-44.63 3.85c-9.566 .8262-18.89 3.451-27.48 7.74c-3.734 1.867-6.92 4.676-9.24 8.15l-19.59 29.38c-5.371 8.061-5.371 18.56 0 26.62l18 27c2.584 3.889 6.248 6.939 10.54 8.779l20.52 10.1L535.4 320.9z"/></svg>