<svg xmlns="http://www.w3.org/2000/svg" viewBox="0 0 576 512"><!--! Font Awesome Pro 6.0.0-alpha3 by @fontawesome - https://fontawesome.com License - https://fontawesome.com/license (Commercial License) --><defs><style>.fa-secondary{opacity:.4}</style></defs><path class="fa-primary" d="M205.4 157.1l9.445-9.375c2.059-2.125 3.27-5 3.27-8v-16c0-6.25-5.086-11.38-11.38-11.38c-2.906 0-5.812 1.25-7.992 3.375L173.4 141.1c-2.18 2.125-3.391 5-3.391 8c0 6.125 5.086 11.25 11.38 11.25h15.98C200.4 160.4 203.4 159.3 205.4 157.1zM349.2 7.666L259.1 77.98c-2.059 1.5-3.27 3.871-3.27 6.367v19.97c0 4.367 3.633 7.988 7.992 7.988h15.98c4.48 0 7.992-3.621 7.992-7.988V96.33l16.11-15.98h20.71c6.176 0 11.26 5.117 11.26 11.36c0 2.992-1.211 5.867-3.27 7.984l-26.88 26.71c-1.211 1.25-2.664 2.125-4.359 2.75L261.4 142.4C257.1 143.5 255.8 146.6 255.8 150c0 6.613-2.543 12.86-7.145 17.47L228.6 187.6c-3.027 2.992-4.723 6.988-4.723 11.23v25.21c0 8.859 7.145 15.98 15.98 15.98h22.16c6.055 0 11.5-3.371 14.29-8.738l9.324-18.72c1.453-2.621 4.238-4.367 7.266-4.367h3.027c4.48 0 7.992 3.617 7.992 7.988c0 4.367 3.633 7.988 7.992 7.988h16.11c4.359 0 7.992-3.621 7.992-7.988V214c0-3.496 2.18-6.492 5.449-7.617l31.61-10.48c6.539-2.246 10.9-8.359 10.9-15.23V176.2c0-8.738 7.266-15.98 15.98-15.98h36.69c6.176 0 11.38 5.117 11.38 11.36v9.359c0 6.117-5.207 11.23-11.38 11.23h-31.97c-3.027 0-5.934 1.25-7.992 3.367l-9.445 9.363c-2.059 2.121-3.27 4.992-3.27 7.988c0 6.117 5.086 11.23 11.26 11.23h15.98c3.027 0 5.934 1.25 8.113 3.367l9.324 9.363C430.8 238.1 431.9 241.9 431.9 244.9v8.613l-12.47 12.48c-4.602 4.617-4.602 12.11-.1211 16.73l32.09 32.58C454.3 318.4 458.4 320 462.8 320h72.84C540.9 299.5 544 278.1 544 256C544 135.7 460.1 35.13 349.2 7.666zM442.5 347.1l-17.32-17.38c-5.934-6-14.05-9.375-22.64-9.375h-18.29l-43.11-37.13c-8.234-7-18.77-10.88-29.67-10.88H280.4c-8.234 0-16.35 2.375-23.49 6.5L214 304.6C200.4 312.8 192 327.6 192 343.6v23.88c0 14.25 6.66 27.75 18.16 36.38l22.16 16.75c8.719 6.5 24.58 11.75 35.36 11.75h20.22c8.527 0 15.47 6.777 15.95 15.11c.0977-.0078-.0977 .0039 0 0L304 511.2C404.4 504.1 489.1 441.1 525.2 352h-71.65C449.4 351.6 445.5 350 442.5 347.1z"/><path class="fa-secondary" d="M462.8 320c-4.359 0-8.477-1.625-11.38-4.742l-32.09-32.58c-4.48-4.617-4.48-12.11 .1211-16.73L431.9 253.5v-8.613c0-2.996-1.09-5.867-3.27-7.988l-9.324-9.363c-2.18-2.117-5.086-3.367-8.113-3.367h-15.98c-6.176 0-11.26-5.117-11.26-11.23c0-2.996 1.211-5.867 3.27-7.988l9.445-9.363c2.059-2.117 4.965-3.367 7.992-3.367h31.97c6.176 0 11.38-5.117 11.38-11.23V171.6c0-6.242-5.207-11.36-11.38-11.36h-36.69c-8.719 0-15.98 7.238-15.98 15.98v4.492c0 6.867-4.359 12.98-10.9 15.23l-31.61 10.48c-3.27 1.125-5.449 4.121-5.449 7.617v2.121c0 4.367-3.633 7.988-7.992 7.988h-16.11c-4.359 0-7.992-3.621-7.992-7.988c0-4.371-3.512-7.988-7.992-7.988h-3.027c-3.027 0-5.812 1.746-7.266 4.367l-9.324 18.72C273.5 236.6 268 239.1 261.1 239.1H239.8c-8.84 0-15.98-7.117-15.98-15.98V198.8c0-4.246 1.695-8.242 4.723-11.23l20.1-20.1C253.3 162.9 255.8 156.6 255.8 150c0-3.371 2.18-6.492 5.57-7.617l39.96-13.23c1.695-.625 3.148-1.5 4.359-2.75l26.88-26.71c2.059-2.117 3.27-4.992 3.27-7.984c0-6.242-5.086-11.36-11.26-11.36H303.9L287.8 96.33v7.988c0 4.367-3.512 7.988-7.992 7.988H263.8c-4.359 0-7.992-3.621-7.992-7.988V84.34c0-2.496 1.211-4.867 3.27-6.367l90.09-70.31C329.5 2.842 309.1 0 288 0C146.6 0 32 114.6 32 256s114.6 256 256 256c5.402 0 10.68-.4785 16-.8086l-.1436-63.71c-.0977 .0039 .0977-.0078 0 0c-.4785-8.332-7.423-15.11-15.95-15.11h-20.22c-10.78 0-26.64-5.25-35.36-11.75L210.2 403.9C198.7 395.3 192 381.8 192 367.5v-23.88c0-16 8.355-30.88 22.04-39l42.87-25.75c7.145-4.125 15.26-6.5 23.49-6.5h31.12c10.9 0 21.43 3.875 29.67 10.88l43.11 37.13h18.29c8.598 0 16.71 3.375 22.64 9.375l17.32 17.38C445.5 350 449.4 351.6 453.6 352h71.65c4.188-10.33 7.568-21.05 10.39-32H462.8zM218.1 139.8c0 3-1.211 5.875-3.27 8l-9.445 9.375C203.4 159.3 200.4 160.4 197.4 160.4H181.4c-6.297 0-11.38-5.125-11.38-11.25c0-3 1.211-5.875 3.391-8l25.31-25.38c2.18-2.125 5.086-3.375 7.992-3.375c6.297 0 11.38 5.125 11.38 11.38V139.8z"/></svg>