<svg xmlns="http://www.w3.org/2000/svg" viewBox="0 0 576 512"><!--! Font Awesome Pro 6.0.0-alpha3 by @fontawesome - https://fontawesome.com License - https://fontawesome.com/license (Commercial License) --><defs><style>.fa-secondary{opacity:.4}</style></defs><path class="fa-primary" d="M301.8 219.6C303.1 222.3 305.9 224 308.9 224h3.027c4.48 0 7.992-3.625 7.992-8V137.9c0-6-3.391-11.62-8.84-14.25l-10.78-5.5c-5.57-2.75-5.934-10.38-.8477-13.75l29.86-22.93c7.887-6.059 12.51-15.43 12.51-25.38l.002-50.27C324.5 2.062 306.5 0 288 0C146.6 0 32 114.6 32 256c0 10.86 .8984 21.49 2.211 32h119.1c4.238 0 8.355-1.75 11.38-4.75l19.38-19.38C187.1 260 194.5 261 196.9 265.9l22.64 45.25C222.2 316.6 227.8 320 233.9 320h6.176C248.9 320 256 312.9 256 304V294.6c0-4.25-1.695-8.25-4.723-11.25L245.6 277.6c-3.027-3.125-3.027-8.125 0-11.25l5.691-5.625C254.3 257.8 258.3 256 262.6 256h.3633c5.57 0 10.78-3 13.68-7.75l17.44-29C295.9 216.3 300.2 216.5 301.8 219.6zM443.2 322.5l-11.87-11.88c-1.453-1.5-2.301-3.5-2.301-5.625V292c0-2.25-1.816-4-3.996-4h-6.055c-1.816 0-3.391 1.25-3.875 2.875l-4.238 14.5c-.4844 1.75-2.059 2.875-3.754 2.875h-3.875c-1.574 0-3.027-1-3.633-2.5L394.3 293C392.1 290 390.1 288 386.9 288h-12.11c-1.695 0-3.27 .5-4.723 1.5l-23.61 16.88c-1.816 1.25-3.633 2.25-5.691 3l-39.23 15.75c-3.148 1.25-5.086 4.25-5.086 7.5v10.12c0 2.125 .8477 4.25 2.301 5.75l11.99 11.88c2.906 3 7.023 4.625 11.26 4.625h10.29c1.332 0 2.664-.125 3.996-.375l21.19-5.375c9.203-2.25 18.77 .375 25.43 7l13.08 13C398.9 382.3 403 384 407.3 384h15.14c4.238 0 8.355-1.75 11.38-4.75l5.5-5.461c2.615-3.352 5.252-6.695 7.646-10.22c.5684-1.676 1.021-3.402 1.021-5.195v-24.5C447.1 329.6 446.3 325.5 443.2 322.5z"/><path class="fa-secondary" d="M341.9 5.789l-.002 50.27c0 9.945-4.623 19.32-12.51 25.38l-29.86 22.93c-5.086 3.375-4.723 11 .8477 13.75l10.78 5.5c5.449 2.625 8.84 8.25 8.84 14.25V216c0 4.375-3.512 8-7.992 8h-3.027c-3.027 0-5.812-1.75-7.145-4.375c-1.574-3.125-5.934-3.375-7.75-.375l-17.44 29C273.7 253 268.5 256 262.9 256H262.6C258.3 256 254.3 257.8 251.3 260.8L245.6 266.4c-3.027 3.125-3.027 8.125 0 11.25l5.691 5.75c3.027 3 4.723 7 4.723 11.25V304c0 8.875-7.145 16-15.98 16H233.9c-6.055 0-11.62-3.375-14.29-8.875L196.9 265.9C194.5 261 187.1 260 184.1 263.9L164.7 283.3C161.7 286.3 157.6 288 153.3 288H34.21C49.99 414.2 157.5 512 288 512c141.4 0 256-114.6 256-256C544 133.1 457.4 30.55 341.9 5.789zM447.1 358.4c0 1.793-.4531 3.52-1.021 5.195c-2.395 3.523-5.031 6.867-7.646 10.22l-5.5 5.461C430.8 382.3 426.7 384 422.4 384H407.3c-4.238 0-8.355-1.75-11.26-4.75l-13.08-13c-6.66-6.625-16.23-9.25-25.43-7l-21.19 5.375c-1.332 .25-2.664 .375-3.996 .375h-10.29c-4.238 0-8.355-1.625-11.26-4.625L298.8 348.5c-1.453-1.5-2.301-3.625-2.301-5.75v-10.12c0-3.25 1.938-6.25 5.086-7.5l39.23-15.75c2.059-.75 3.875-1.75 5.691-3l23.61-16.88C371.6 288.5 373.1 288 374.8 288h12.11c3.148 0 6.055 2 7.387 5l5.328 12.75c.6055 1.5 2.059 2.5 3.633 2.5h3.875c1.695 0 3.27-1.125 3.754-2.875l4.238-14.5C415.6 289.3 417.2 288 419 288h6.055c2.18 0 3.996 1.75 3.996 4v13c0 2.125 .8477 4.125 2.301 5.625l11.87 11.88c3.027 3 4.723 7.125 4.723 11.38V358.4z"/></svg>