<svg xmlns="http://www.w3.org/2000/svg" viewBox="0 0 640 512"><!--! Font Awesome Pro 6.0.0-alpha3 by @fontawesome - https://fontawesome.com License - https://fontawesome.com/license (Commercial License) --><defs><style>.fa-secondary{opacity:.4}</style></defs><path class="fa-primary" d="M505.1 211.5L434.7 154.5C426.2 147.7 415.7 144 404.8 144H128C101.5 144 80 165.5 80 192v144C80 362.5 101.5 384 128 384h41.38l49.95 49.95C228.3 442.9 240.5 448 253.3 448H464c26.51 0 48-21.49 48-48V223.1C512 219.1 509.8 214.5 505.1 211.5zM281.8 206.2C281.8 193.9 291.8 184 304 184s22.15 9.922 22.15 22.15v91.69C326.2 310.1 316.2 320 304 320S281.8 310.1 281.8 297.8V206.2zM304 397.5c-16.31 0-29.54-13.23-29.54-29.54c0-16.31 13.23-29.54 29.54-29.54S333.5 351.7 333.5 368C333.5 384.3 320.3 397.5 304 397.5z"/><path class="fa-secondary" d="M392 64h-176C202.7 64 192 74.74 192 88C192 101.3 202.7 112 216 112h64v32h48v-32h64C405.3 112 416 101.3 416 88C416 74.74 405.3 64 392 64zM48 168c0-13.26-10.75-24-24-24S0 154.7 0 168v192C0 373.3 10.75 384 24 384s24-10.75 24-24V288h32V240h-32V168zM608 192h-32c-17.67 0-32 14.33-32 32v192c0 17.67 14.33 32 32 32h32c17.67 0 32-14.33 32-32V224C640 206.3 625.7 192 608 192z"/></svg>