<svg xmlns="http://www.w3.org/2000/svg" viewBox="0 0 384 512"><!--! Font Awesome Pro 6.0.0-alpha3 by @fontawesome - https://fontawesome.com License - https://fontawesome.com/license (Commercial License) --><defs><style>.fa-secondary{opacity:.4}</style></defs><path class="fa-primary" d="M351.2 436.2c3.984 17.22-6.75 34.41-23.97 38.41c-15.84 3.656-31.81 5.438-47.59 5.438c-56.84 0-111.7-23.22-152.8-66.19c-83.44-87.03-83.44-228.7 .0156-315.8c52.58-54.88 127.5-77.5 200.4-60.72c17.22 4 27.95 21.19 23.97 38.41c-3.969 17.22-21.12 27.97-38.38 23.97C262.1 88.09 209.8 104 173 142.4c-60.05 62.66-60.05 164.6-.0156 227.2c36.83 38.44 89.03 54.34 139.8 42.66C329.1 408.2 347.2 419 351.2 436.2z"/><path class="fa-secondary" d="M48 272c-17.67 0-32 14.31-32 31.1S30.33 336 48 336h30.49c-7.568-20.65-12.07-42.21-13.55-64H48zM272 272H129.4c2.129 22.3 8.594 44.04 19.62 64H272c17.67 0 31.1-14.31 31.1-32S289.7 272 272 272zM303.1 208C303.1 190.3 289.7 176 272 176H149c-11.02 19.96-17.49 41.7-19.62 64H272C289.7 240 303.1 225.7 303.1 208zM16 208C16 225.7 30.33 240 48 240h16.94c1.488-21.79 5.988-43.35 13.55-64H48C30.33 176 16 190.3 16 208z"/></svg>