<svg xmlns="http://www.w3.org/2000/svg" viewBox="0 0 512 512"><!--! Font Awesome Pro 6.0.0-alpha3 by @fontawesome - https://fontawesome.com License - https://fontawesome.com/license (Commercial License) --><defs><style>.fa-secondary{opacity:.4}</style></defs><path class="fa-primary" d="M175.9 176c-17.66 0-31.95 14.25-31.95 32s14.28 32 31.95 32c17.79 0 32.07-14.25 32.07-32S193.7 176 175.9 176zM336 180.1c-25.67 0-55.85 16.88-59.85 42.13C274.4 233.3 287.7 240.4 295.1 233l9.566-8.5c14.77-13.25 46.11-13.25 61 0L376 233c8.477 7.375 21.52 .2187 19.95-10.78C391.1 196.1 361.8 180.1 336 180.1z"/><path class="fa-secondary" d="M256 0C114.6 0 0 114.6 0 256s114.6 256 256 256s256-114.6 256-256S397.4 0 256 0zM336 180.1c25.79 0 55.92 16.88 59.91 42.13c1.574 11-11.47 18.16-19.95 10.78l-9.476-8.5c-14.89-13.25-46.23-13.25-61 0L295.1 233c-8.234 7.375-21.58 .3438-19.77-10.78C280.2 196.1 310.4 180.1 336 180.1zM175.9 176c17.79 0 32.07 14.25 32.07 32s-14.28 32-32.07 32c-17.66 0-31.95-14.25-31.95-32S158.3 176 175.9 176zM256 432c-60.55 0-134.5-38.25-143.9-93.25c-1.938-12 9.324-21.62 20.71-18C163.1 330.5 208 336 256 336s92.88-5.5 123.2-15.25c11.26-3.625 22.52 6 20.71 18C390.7 393.8 316.5 432 256 432z"/></svg>