<svg xmlns="http://www.w3.org/2000/svg" viewBox="0 0 512 512"><!--! Font Awesome Pro 6.0.0-alpha3 by @fontawesome - https://fontawesome.com License - https://fontawesome.com/license (Commercial License) --><defs><style>.fa-secondary{opacity:.4}</style></defs><path class="fa-primary" d="M160.1 180.1c-25.67 0-55.92 16.88-59.91 42.13c-.7266 5 1.695 10 6.176 12.38c4.359 2.375 9.93 1.625 13.68-1.625l9.445-8.5c14.89-13.25 46.26-13.25 61.03 0l9.627 8.5c2.543 2.25 7.901 4.75 13.71 1.625c4.48-2.375 6.872-7.375 6.146-12.38C216 196.1 185.8 180.1 160.1 180.1zM352.1 180.1c-25.79 0-55.92 16.88-59.91 42.13c-.8477 5 1.695 10 6.055 12.38c4.48 2.375 9.93 1.625 13.68-1.625l9.657-8.594c14.77-13.12 46.17-13.12 60.94 0l9.536 8.5c2.543 2.375 7.871 4.75 13.68 1.625c4.359-2.375 6.781-7.406 6.176-12.28C407.9 196.1 377.8 180.1 352.1 180.1zM368 272C359.2 272 352 279.2 352 288v205.2c11.09-4.494 21.74-9.801 32-15.74V288C384 279.2 376.8 272 368 272zM144 272C135.2 272 128 279.2 128 288v189.5c10.26 5.943 20.91 11.25 32 15.74V288C160 279.2 152.8 272 144 272z"/><path class="fa-secondary" d="M512 256c0-141.4-114.6-256-256-256S0 114.6 0 256c0 94.7 51.55 177.2 128 221.5V288c0-8.838 7.164-16 16-16S160 279.2 160 288v205.2C189.7 505.2 222 512 256 512s66.33-6.764 96-18.78V288c0-8.838 7.164-16 16-16S384 279.2 384 288v189.5C460.4 433.2 512 350.7 512 256zM190.5 224.5c-14.77-13.25-46.14-13.25-61.03 0l-9.445 8.5c-3.754 3.25-9.324 4-13.68 1.625C101.9 232.2 99.46 227.2 100.2 222.2c3.996-25.25 34.24-42.13 59.91-42.13s55.92 16.88 59.91 42.13c.7266 5-1.665 10-6.146 12.38C208 237.7 202.7 235.2 200.1 232.1L190.5 224.5zM255.1 416c-26.52 0-47.97-28.75-47.97-64s21.45-64 47.97-64s47.97 28.75 47.97 64S282.5 416 255.1 416zM405.8 234.5c-5.812 3.125-11.14 .75-13.68-1.625l-9.536-8.5c-14.77-13.12-46.17-13.12-60.94 0L311.9 232.1c-3.754 3.25-9.203 4-13.68 1.625c-4.359-2.375-6.902-7.375-6.055-12.38c3.996-25.25 34.12-42.13 59.91-42.13c25.67 0 55.82 16.88 59.82 42.13C412.5 227.1 410.1 232.1 405.8 234.5z"/></svg>