<svg xmlns="http://www.w3.org/2000/svg" viewBox="0 0 512 512"><!--! Font Awesome Pro 6.0.0-alpha3 by @fontawesome - https://fontawesome.com License - https://fontawesome.com/license (Commercial License) --><defs><style>.fa-secondary{opacity:.4}</style></defs><path class="fa-primary" d="M382.4 168C373.3 163.1 363.1 160 352 160s-21.3 3.062-30.37 8c-.6934 2.617-1.588 5.164-1.588 8c0 17.67 14.3 32 31.97 32s31.98-14.33 31.98-32C383.1 173.2 383.1 170.6 382.4 168zM160 160C148.9 160 138.7 163.1 129.6 168C128.9 170.6 128 173.2 128 176c0 17.67 14.31 32 31.98 32s31.97-14.33 31.97-32c0-2.836-.8945-5.383-1.588-8C181.3 163.1 171.1 160 160 160z"/><path class="fa-secondary" d="M256 0C114.6 0 0 114.6 0 256s114.6 256 256 256s256-114.6 256-256S397.4 0 256 0zM96.03 224c0-24.25 13.7-45.25 33.56-56C128.9 170.6 128 173.3 128 176c0 17.75 14.3 32 31.98 32s31.97-14.25 31.97-32c0-2.75-.8613-5.375-1.588-8C210.4 178.8 224 199.8 224 224c0 35.25-28.68 64-64.04 64C124.7 288 96.03 259.3 96.03 224zM320.1 400H191.9c-21.19 0-21.19-32 0-32h128.1C341.3 368 341.3 400 320.1 400zM352 288c-35.36 0-64.04-28.75-64.04-64c0-24.25 13.67-45.25 33.65-56c-.7266 2.625-1.588 5.25-1.588 8c0 17.75 14.29 32 31.97 32s31.98-14.25 31.98-32c0-2.75-.8613-5.375-1.588-8C402.3 178.8 415.1 199.8 415.1 224C415.1 259.3 387.3 288 352 288z"/></svg>