<svg xmlns="http://www.w3.org/2000/svg" viewBox="0 0 640 512"><!--! Font Awesome Pro 6.0.0-alpha3 by @fontawesome - https://fontawesome.com License - https://fontawesome.com/license (Commercial License) --><defs><style>.fa-secondary{opacity:.4}</style></defs><path class="fa-primary" d="M304 208c-17.64 0-32.02 14.36-32.02 32s14.38 32 32.02 32S336 257.6 336 240S321.7 208 304 208zM143.1 208C126.3 208 112 222.4 112 240s14.35 32 31.99 32s32.02-14.36 32.02-32S161.6 208 143.1 208zM616 72h-48V23.1C568 10.75 557.3 0 544 0s-24 10.75-24 23.1V72h-48C458.7 72 448 82.75 448 95.1S458.7 120 471.1 120H520v48C520 181.3 530.7 192 544 192s24-10.75 24-23.1V120h48c13.25 0 24-10.75 24-23.1S629.3 72 616 72z"/><path class="fa-secondary" d="M224 64C100.3 64 0 164.3 0 288s100.3 224 224 224c123.7 0 224-100.3 224-224S347.7 64 224 64zM143.1 208c17.64 0 32.02 14.36 32.02 32s-14.38 32-32.02 32S112 257.6 112 240S126.3 208 143.1 208zM332 367.3C304.7 398.2 265.3 416 224 416c-41.3 0-80.67-17.78-108-48.75c-5.844-6.625-5.219-16.75 1.406-22.59s16.73-5.188 22.59 1.406C161.3 370.2 191.9 384 224 384s62.75-13.81 84-37.94c5.844-6.594 16.02-7.25 22.58-1.406C337.2 350.5 337.8 360.6 332 367.3zM304 272c-17.64 0-32.02-14.36-32.02-32s14.38-32 32.02-32S336 222.4 336 240S321.7 272 304 272z"/></svg>