<svg xmlns="http://www.w3.org/2000/svg" viewBox="0 0 512 512"><!--! Font Awesome Pro 6.0.0-alpha3 by @fontawesome - https://fontawesome.com License - https://fontawesome.com/license (Commercial License) --><defs><style>.fa-secondary{opacity:.4}</style></defs><path class="fa-primary" d="M336 168c-25.79 0-55.93 16.88-59.93 42.13c-1.695 11.12 11.5 18.25 19.86 10.88l9.688-8.625c14.77-13.12 46.14-13.12 60.91 0l9.566 8.5c8.355 7.5 21.43 .375 19.74-10.75C391.9 184.9 361.7 168 336 168zM159.9 160C142.3 160 128 174.3 128 192s14.28 32 31.94 32C177.7 224 192 209.8 192 192S177.7 160 159.9 160z"/><path class="fa-secondary" d="M256 0C114.6 0 0 114.6 0 256s114.6 256 256 256s256-114.6 256-256S397.4 0 256 0zM336 168c25.67 0 55.84 16.88 59.84 42.13c1.695 11.12-11.38 18.25-19.74 10.75l-9.566-8.5c-14.77-13.12-46.14-13.12-60.91 0L295.1 221c-8.355 7.375-21.55 .25-19.86-10.88C280.1 184.9 310.3 168 336 168zM159.9 160C177.7 160 192 174.3 192 192S177.7 224 159.9 224C142.3 224 128 209.8 128 192S142.3 160 159.9 160zM264 432H247.1c-73.86 0-134.9-55-143.8-126C102.9 296.5 110.5 288 120.1 288h271.8c9.629 0 17.19 8.375 15.97 18C398.1 377 337.9 432 264 432z"/></svg>