<svg xmlns="http://www.w3.org/2000/svg" viewBox="0 0 512 512"><!--! Font Awesome Pro 6.0.0-alpha3 by @fontawesome - https://fontawesome.com License - https://fontawesome.com/license (Commercial License) --><defs><style>.fa-secondary{opacity:.4}</style></defs><path class="fa-primary" d="M352.4 136.8c-7.992-11.75-25.07-11.5-32.7 0C307.3 155.1 304.6 173.6 303.1 192c.6055 18.38 3.391 36.88 15.74 55.25c7.992 11.75 25.07 11.5 32.7 0C364.7 228.9 367.6 210.4 368.1 192C367.5 173.6 364.7 155.1 352.4 136.8zM159.7 136.8C147.3 155.1 144.5 173.6 143.1 192c.6055 18.38 3.27 36.88 15.74 55.25c7.992 11.75 25.07 11.5 32.7 0C204.8 228.9 207.6 210.4 208 192C207.4 173.6 204.8 155.1 192.4 136.8C184.4 125 167.4 125.3 159.7 136.8z"/><path class="fa-secondary" d="M256 0C114.6 0 0 114.6 0 256s114.6 256 256 256s256-114.6 256-256S397.4 0 256 0zM319.7 136.8c7.629-11.5 24.7-11.75 32.7 0C364.7 155.1 367.5 173.6 368.1 192c-.4844 18.38-3.391 36.88-15.74 55.25c-7.629 11.5-24.7 11.75-32.7 0C307.3 228.9 304.6 210.4 303.1 192C304.6 173.6 307.3 155.1 319.7 136.8zM159.7 136.8c7.629-11.5 24.7-11.75 32.7 0C204.8 155.1 207.4 173.6 208 192C207.6 210.4 204.8 228.9 192.4 247.3c-7.629 11.5-24.7 11.75-32.7 0C147.3 228.9 144.6 210.4 143.1 192C144.5 173.6 147.3 155.1 159.7 136.8zM256 432c-60.55 0-134.5-38.24-143.8-93.24c-1.938-11.88 9.321-21.62 20.7-17.1c30.27 9.75 75.18 15.25 123.1 15.25s92.86-5.499 123.1-15.25c11.38-3.625 22.52 6.124 20.7 17.1C390.6 393.8 316.6 432 256 432z"/></svg>