<svg xmlns="http://www.w3.org/2000/svg" viewBox="0 0 512 512"><!--! Font Awesome Pro 6.0.0-alpha3 by @fontawesome - https://fontawesome.com License - https://fontawesome.com/license (Commercial License) --><defs><style>.fa-secondary{opacity:.4}</style></defs><path class="fa-primary" d="M176 304c-17.67 0-32 14.33-32 32c0 17.67 14.33 32 32 32s32-14.33 32-32C208 318.3 193.7 304 176 304zM336 304c-17.67 0-32 14.33-32 32c0 17.67 14.33 32 32 32s32-14.33 32-32C368 318.3 353.7 304 336 304zM392 47.89c-9.031 0-17.44 2.334-24.99 6.121C362.2 23.45 335.1 0 304 0C284.8 0 267.7 8.631 256 22.02C244.3 8.631 227.2 0 208 0C176 0 149.8 23.45 144.1 54.01C137.4 50.22 129 47.89 120 47.89C89.07 47.89 64 72.9 64 103.8c0 30.85 25.07 55.87 56 55.87H160c17.67 0 32 14.29 32 31.92c0 9.961-4.848 18.5-12.01 24.35C186.3 212.1 193 211.1 200 211.1c8.34 0 16.58 2.18 23.81 6.307L256 235.8l32.19-18.35c7.24-4.129 15.48-6.309 23.82-6.309c6.959 0 13.71 1.848 20.01 4.75c-7.162-5.855-12.01-14.39-12.01-24.35c0-17.63 14.33-31.92 32-31.92h40c30.93 0 56-25.01 56-55.87C448 72.9 422.9 47.89 392 47.89z"/><path class="fa-secondary" d="M511.9 254.4l-16.06 9.098c-4.919 2.804-10.4 4.206-15.88 4.206c-5.479 0-10.96-1.402-15.88-4.206l-32.19-18.35c-2.459-1.402-5.198-2.103-7.938-2.103c-2.739 0-5.479 .701-7.938 2.103l-32.19 18.35c-4.919 2.805-10.4 4.207-15.88 4.207c-5.479 0-10.96-1.402-15.88-4.207l-32.19-18.35c-2.459-1.402-5.198-2.103-7.938-2.103c-2.739 0-5.479 .701-7.938 2.103l-32.19 18.35c-4.919 2.805-10.4 4.207-15.88 4.207c-5.479 0-10.96-1.402-15.88-4.207L207.9 245.2C205.5 243.8 202.7 243.1 200 243.1c-2.739 0-5.479 .701-7.938 2.103L159.9 263.5C154.1 266.3 149.5 267.7 144 267.7S133 266.3 128.1 263.5L95.94 245.2C93.48 243.8 90.74 243.1 88 243.1c-2.739 0-5.479 .701-7.938 2.103L47.88 263.5c-4.918 2.804-10.4 4.206-15.88 4.206c-5.479 0-10.96-1.402-15.88-4.206L.0605 254.4c-.0547 .0312 .0547-.0331 0 0C.0546 255.1 .0008 255.9 .0008 256.6c0 141 114.6 255.4 256 255.4s256-114.3 256-255.4C512 255.9 511.9 255.1 511.9 254.4C511.9 254.4 511.1 254.5 511.9 254.4zM143.1 336.4c0-17.71 14.29-31.92 31.97-31.92c17.8 0 32.09 14.22 32.09 31.92c0 17.71-14.29 31.92-32.09 31.92C158.3 368.3 143.1 354.1 143.1 336.4zM304 446.9H208c-8.836 0-16-7.147-16-15.96c0-26.45 21.49-47.89 48-47.89h32c26.51 0 48 21.44 48 47.89C320 439.8 312.8 446.9 304 446.9zM336 368.3c-17.8 0-32.09-14.22-32.09-31.92c0-17.71 14.29-31.92 32.09-31.92c17.68 0 31.97 14.22 31.97 31.92C368 354.1 353.7 368.3 336 368.3z"/></svg>