<svg xmlns="http://www.w3.org/2000/svg" viewBox="0 0 512 512"><!--! Font Awesome Pro 6.0.0-alpha3 by @fontawesome - https://fontawesome.com License - https://fontawesome.com/license (Commercial License) --><defs><style>.fa-secondary{opacity:.4}</style></defs><path class="fa-primary" d="M143.1 208c0 17.7 14.3 32 31.99 32s32.02-14.3 32.02-32s-14.33-32-32.02-32S143.1 190.3 143.1 208zM368 208c0-17.7-14.3-32-31.99-32s-32.02 14.3-32.02 32s14.33 32 32.02 32S368 225.7 368 208z"/><path class="fa-secondary" d="M256 0C114.6 0 0 114.6 0 256s114.6 256 256 256s256-114.6 256-256S397.4 0 256 0zM175.1 176c17.69 0 32.02 14.3 32.02 32s-14.33 32-32.02 32s-31.99-14.3-31.99-32S158.3 176 175.1 176zM352 368H159.1c-21.19 0-21.19-32 0-32h192C373.2 336 373.2 368 352 368zM336 240c-17.69 0-32.02-14.3-32.02-32s14.33-32 32.02-32s31.99 14.3 31.99 32S353.7 240 336 240z"/></svg>