<svg xmlns="http://www.w3.org/2000/svg" viewBox="0 0 512 512"><!--! Font Awesome Pro 6.0.0-alpha3 by @fontawesome - https://fontawesome.com License - https://fontawesome.com/license (Commercial License) --><defs><style>.fa-secondary{opacity:.4}</style></defs><path class="fa-primary" d="M509 402.5c-8.125-20.75-32-31.5-53.88-25.88l-8.5 2.125l-2.375-8.375c-6-21.38-27.38-36.5-49.75-33c-25.62 4-41.25 28.62-34.63 52.63l23.25 82.63c1.625 5.25 7.125 8.5 12.62 7.125l84.38-21.5C504.7 451.9 518.4 426.4 509 402.5zM175.9 176c-17.68 0-31.96 14.25-31.96 32s14.28 32 31.96 32c17.8 0 32.09-14.25 32.09-32S193.7 176 175.9 176zM376.1 220.9c8.355 7.5 21.43 .375 19.74-10.75C391.9 184.9 361.7 168 336 168c-25.79 0-55.93 16.88-59.93 42.13c-1.695 11.12 11.5 18.25 19.86 10.88l9.688-8.625c14.77-13.12 46.14-13.12 60.91 0L376.1 220.9z"/><path class="fa-secondary" d="M256 0C114.6 0 0 114.6 0 256s114.6 256 256 256c35.92 0 70.07-7.461 101.1-20.81c-1.721-2.883-3.465-5.766-4.494-9.094l-23.48-83.42c-5.641-20.39-2.312-42.11 9.047-59.72c11.48-17.78 30.23-29.89 51.44-33.19c3.828-.6094 7.641-.8906 11.41-.8906c27.45 0 52.48 15.03 66.17 38.27c9.578 .0332 18.64 2.279 27.27 5.51C505.6 319.9 512 288.7 512 256C512 114.6 397.4 0 256 0zM175.9 240c-17.68 0-31.96-14.25-31.96-32s14.28-32 31.96-32c17.8 0 32.09 14.25 32.09 32S193.7 240 175.9 240zM288 388.1c0 19.19-28.7 41.38-71.45 43.87c-8.477 .7461-12.11-11.72-3.633-15.33l17.07-7.23c12.96-5.484 20.71-13.46 20.71-21.44c0-7.973-7.75-15.95-20.71-21.43l-17.07-7.105c-5.934-2.492-6.055-12.21 0-14.83l17.07-7.102c12.96-5.484 20.71-13.46 20.71-21.44S242.1 300.1 229.1 294.6L212.9 287.4C204.3 283.8 208.2 270.9 216.6 272.1C259.3 274.6 288 296.7 288 315.9c0 12.96-13.32 27.17-35.12 35.89C274.7 360.9 288 375.1 288 388.1zM376.1 220.9l-9.566-8.5c-14.77-13.12-46.14-13.12-60.91 0L295.1 221c-8.355 7.375-21.55 .25-19.86-10.88C280.1 184.9 310.3 168 336 168c25.67 0 55.84 16.88 59.84 42.13C397.6 221.3 384.5 228.4 376.1 220.9z"/></svg>