<svg xmlns="http://www.w3.org/2000/svg" viewBox="0 0 512 512"><!--! Font Awesome Pro 6.0.0-alpha3 by @fontawesome - https://fontawesome.com License - https://fontawesome.com/license (Commercial License) --><defs><style>.fa-secondary{opacity:.4}</style></defs><path class="fa-primary" d="M175.1 176c-17.68 0-31.97 14.25-31.97 32s14.29 32 31.97 32c17.8 0 32.09-14.25 32.09-32S193.8 176 175.1 176zM336 176c-17.79 0-32.07 14.25-32.07 32s14.28 32 32.07 32c17.66 0 31.95-14.25 31.95-32S353.7 176 336 176z"/><path class="fa-secondary" d="M256 0C114.6 0 0 114.6 0 256s114.6 256 256 256s256-114.6 256-256S397.4 0 256 0zM143.1 208c0-17.75 14.29-32 31.97-32c17.8 0 32.09 14.25 32.09 32s-14.29 32-32.09 32C158.3 240 143.1 225.8 143.1 208zM256 416c-35.33 0-64.01-28.75-64.01-64S220.7 288 256 288s64.01 28.75 64.01 64S291.3 416 256 416zM336 240c-17.79 0-32.07-14.25-32.07-32s14.28-32 32.07-32c17.66 0 31.95 14.25 31.95 32S353.7 240 336 240z"/></svg>