<svg xmlns="http://www.w3.org/2000/svg" viewBox="0 0 512 512"><!--! Font Awesome Pro 6.0.0-alpha3 by @fontawesome - https://fontawesome.com License - https://fontawesome.com/license (Commercial License) --><defs><style>.fa-secondary{opacity:.4}</style></defs><path class="fa-primary" d="M336 152c23.73 0 52.68 29.25 55.95 71.38C392.7 232 381.2 235.3 377 227.9l-9.446-17c-7.75-13.62-19.21-21.62-31.56-21.62c-12.23 0-23.73 8-31.48 21.62l-9.494 17c-4.117 7.375-15.67 3.95-14.94-4.55C283.1 181.3 312.2 152 336 152zM175.1 152c23.86 0 52.79 29.25 56.06 71.38C232.8 232 221.2 235.3 217.1 227.9l-9.566-17C199.9 197.3 188.4 189.3 176 189.3c-12.23 0-23.73 8-31.48 21.62l-9.445 17C130.9 235.3 119.4 231.9 120.2 223.4C123.2 181.3 152.2 152 175.1 152zM464 128C490.5 128 512 107 512 81.01c0-19.1-28.55-60.36-41.6-77.73c-3.199-4.375-9.598-4.375-12.8 0C444.4 20.65 416 61.01 416 81.01C416 107 437.5 128 464 128z"/><path class="fa-secondary" d="M464 160C419.9 160 384 124.6 384 81.02c0-10.76 3.965-24.12 11.45-39.6C355.3 15.27 307.5 0 256 0C114.6 0 0 114.6 0 256s114.6 256 256 256s256-114.6 256-256c0-35.89-7.445-70.02-20.78-101C482.7 158.1 473.6 160 464 160zM336 152c23.73 0 52.68 29.25 55.95 71.38C392.7 232 381.2 235.3 377 227.9l-9.446-17c-7.75-13.62-19.21-21.62-31.56-21.62c-12.23 0-23.73 8-31.48 21.62l-9.494 17c-4.117 7.375-15.67 3.95-14.94-4.55C283.1 181.3 312.2 152 336 152zM175.1 152c23.86 0 52.79 29.25 56.06 71.38C232.8 232 221.2 235.3 217.1 227.9l-9.566-17C199.9 197.3 188.4 189.3 176 189.3c-12.23 0-23.73 8-31.48 21.62l-9.445 17C130.9 235.3 119.4 231.9 120.2 223.4C123.2 181.3 152.2 152 175.1 152zM256 432c-60.55 0-134.5-38.24-143.8-93.24c-1.938-12 9.443-21.62 20.7-17.1c30.27 9.75 75.18 15.25 123.1 15.25s92.86-5.499 123.1-15.25c11.38-3.625 22.52 6.124 20.7 17.1C390.5 393.8 316.5 432 256 432z"/></svg>