<svg xmlns="http://www.w3.org/2000/svg" viewBox="0 0 512 512"><!--! Font Awesome Pro 6.0.0-alpha3 by @fontawesome - https://fontawesome.com License - https://fontawesome.com/license (Commercial License) --><defs><style>.fa-secondary{opacity:.4}</style></defs><path class="fa-primary" d="M193.9 128.6c-18.65-3-36.45 9.75-41.54 27.88L150.4 163.6L143.3 161.8C125.1 156.9 105.1 166 98.46 183.6C90.71 203.8 102.2 225.4 122.6 230.8L192.8 249c4.602 1.25 9.324-1.5 10.54-6l19.38-69.88C228.3 152.8 215.3 132 193.9 128.6zM413.5 183.5c-6.66-17.62-26.64-26.62-44.8-21.88L361.6 163.5l-1.938-7.125C354.4 138.3 336.6 125.5 318.1 128.5c-21.43 3.375-34.39 24.25-28.82 44.5l19.38 69.88c1.332 4.5 6.055 7.25 10.54 6l70.23-18.12C409.8 225.4 421.3 203.8 413.5 183.5z"/><path class="fa-secondary" d="M256 0C114.6 0 0 114.6 0 256s114.6 256 256 256s256-114.6 256-256S397.4 0 256 0zM98.46 183.6C105.1 166 125.1 156.9 143.3 161.8l7.145 1.875L152.3 156.5c5.086-18.12 22.89-30.88 41.54-27.88C215.3 132 228.3 152.8 222.7 173.1L203.3 243c-1.211 4.5-5.934 7.25-10.54 6L122.6 230.8C102.2 225.4 90.71 203.8 98.46 183.6zM256 432c-60.55 0-134.5-38.25-143.9-93.25c-1.938-11.88 9.203-21.5 20.71-18C163.1 330.5 208 336 256 336s92.88-5.5 123.2-15.25c11.38-3.5 22.52 6.125 20.71 18C390.5 393.8 316.5 432 256 432zM389.4 230.8l-70.23 18.12c-4.48 1.25-9.203-1.5-10.54-6L289.3 173c-5.57-20.25 7.387-41.13 28.82-44.5c18.53-3 36.33 9.75 41.54 27.88l1.938 7.125l7.145-1.875c18.16-4.75 38.14 4.25 44.8 21.88C421.3 203.8 409.8 225.4 389.4 230.8z"/></svg>