<svg xmlns="http://www.w3.org/2000/svg" viewBox="0 0 576 512"><!--! Font Awesome Pro 6.0.0-alpha3 by @fontawesome - https://fontawesome.com License - https://fontawesome.com/license (Commercial License) --><defs><style>.fa-secondary{opacity:.4}</style></defs><path class="fa-primary" d="M572.6 246.3l-55.52-111c-3.375-6.625-8.857-11.96-15.61-14.96L381 66.76c-8.25-3.625-17.76-3.622-26.01 .0029L234.5 120.4C227.8 123.4 222.3 128.6 218.9 135.3L163.4 246.3C161.1 250.8 160 255.6 160 260.5V512h128v-95.1h160V512h128V260.5C576 255.6 574.9 250.6 572.6 246.3zM416 320h-96V224h96V320z"/><path class="fa-secondary" d="M78.9 4.945C30.93 19.36-.0001 66.26-.0001 116.3l.0001 363.7c0 17.67 14.33 31.1 32 31.1H128V260.5c0-9.947 2.317-19.76 6.764-28.65l55.49-110.1C196.9 107.6 208 97.14 221.5 91.14l.375-.25C209.6 26.95 144.7-14.84 78.9 4.945zM320 224v95.1h96V224H320z"/></svg>