<svg xmlns="http://www.w3.org/2000/svg" viewBox="0 0 512 512"><!--! Font Awesome Pro 6.0.0-alpha3 by @fontawesome - https://fontawesome.com License - https://fontawesome.com/license (Commercial License) --><defs><style>.fa-secondary{opacity:.4}</style></defs><path class="fa-primary" d="M512 256c0 22.68-15.78 41.57-36.92 46.59c-5.904 27.9-17.01 53.85-32.25 76.86c8.557 17.85 5.902 39.7-8.891 54.49c-8.646 8.645-19.83 12.84-31.14 13.51l-37.66-80.22c.3379-.377 .5605-.8125 .9238-1.176c3.607-3.605 7.918-5.895 12.22-8.113c18.3-21.91 30.81-48.47 35.29-77.95h-81.83c2.508-7.773 4.248-15.78 4.248-24c0-8.416-1.666-16.38-4.086-24h81.67c-3.979-26.14-14.09-50.09-29.14-70.49l-57.78 57.78c-7.592-14.54-19.4-26.35-33.94-33.94l57.78-57.78C330.1 112.5 306.1 102.4 280 98.43v81.66C272.4 177.7 264.4 176 255.1 176C247.6 176 239.6 177.7 232 180.1V98.43C205.9 102.4 181.9 112.5 161.5 127.6L219.3 185.3C204.7 192.9 192.9 204.7 185.3 219.3L127.6 161.5C112.5 181.9 102.4 205.9 98.43 232h81.65C177.7 239.6 175.1 247.6 175.1 256c0 8.225 1.74 16.23 4.248 24H98.43c4.486 29.47 16.1 56.04 35.29 77.95c4.303 2.219 8.613 4.508 12.22 8.113c.3574 .3574 .5781 .7852 .9102 1.156l-37.68 80.23c-11.31-.6758-22.47-4.869-31.12-13.51c-14.79-14.79-17.45-36.64-8.891-54.49c-15.23-23.01-26.34-48.96-32.25-76.86C15.78 297.6 0 278.7 0 256s15.78-41.57 36.93-46.59C42.83 181.5 53.94 155.6 69.17 132.6c-8.557-17.85-5.902-39.7 8.891-54.49C87.43 68.69 99.72 64 112 64c7.104 0 14.01 2.032 20.55 5.167C155.6 53.94 181.5 42.83 209.4 36.93C214.4 15.78 233.3 0 256 0s41.57 15.78 46.59 36.93c27.9 5.904 53.85 17.01 76.86 32.24C385.1 66.03 392.9 64 400 64c12.28 0 24.57 4.687 33.94 14.06c14.79 14.79 17.45 36.64 8.891 54.49c15.23 23.01 26.33 48.96 32.24 76.86C496.2 214.4 512 233.3 512 256z"/><path class="fa-secondary" d="M382 478.5c3.219 7.406 2.469 15.94-1.969 22.69C375.6 507.9 368.1 512 359.1 512H151.1c-8.094 0-15.62-4.062-20.06-10.84c-4.438-6.75-5.188-15.28-1.969-22.69l89.82-191.3C212.5 278.8 207.1 267.1 207.1 256c0-26.51 21.49-48 48-48s48 21.49 48 48c0 11.97-4.541 22.78-11.79 31.19L382 478.5z"/></svg>