<svg xmlns="http://www.w3.org/2000/svg" viewBox="0 0 512 512"><!--! Font Awesome Pro 6.0.0-alpha3 by @fontawesome - https://fontawesome.com License - https://fontawesome.com/license (Commercial License) --><defs><style>.fa-secondary{opacity:.4}</style></defs><path class="fa-primary" d="M351.3 125.5l-184.7 271.9c-12.03 17.16-35.06 23.8-51.37 14.49c-15.5-8.734-20.13-24.29-19.29-35.92c.4922-6.701 2.781-13.19 6.684-18.77l9.824-14.09c15.17-21.76 9.875-51.68-11.84-66.89C78.91 260.1 49.02 266.3 33.88 288.1L24.09 302.1c-13.81 19.8-22.03 42.98-23.73 66.97c-3.754 52.24 22.19 100.7 67.79 126.5c21.95 12.4 46.51 17.65 70.78 16.27c41-2.342 81.13-23.5 106.7-60.1l185.5-273.1L351.3 125.5z"/><path class="fa-secondary" d="M432 351.1c-44.2 0-80.05 35.85-80.05 80.02C351.1 476.1 387.9 512 432 512s79.95-35.85 79.95-80.02C511.1 387.8 476.2 351.1 432 351.1zM506.5 67.77c10.01-14.73 6.09-34.82-8.723-44.69l-26.62-17.72c-14.58-9.713-34.24-5.855-44.09 8.65L351.3 125.5l79.84 53.17L506.5 67.77z"/></svg>