<svg xmlns="http://www.w3.org/2000/svg" viewBox="0 0 384 512"><!--! Font Awesome Pro 6.0.0-alpha3 by @fontawesome - https://fontawesome.com License - https://fontawesome.com/license (Commercial License) --><defs><style>.fa-secondary{opacity:.4}</style></defs><path class="fa-primary" d="M256 0v128h128L256 0zM263.7 359.5C273.9 343.4 280 324.4 280 304c0-57.44-46.56-104-104-104S72 246.6 72 304s46.56 104 104 104c19.55 0 37.63-5.723 53.25-15.11l52.12 50.42c6.248 6.25 16.38 6.25 22.63 0l11.31-11.31c6.248-6.246 6.248-16.38 0-22.63L263.7 359.5zM176 360c-30.88 0-56-25.12-56-56S145.1 248 176 248s56 25.12 56 56S206.9 360 176 360z"/><path class="fa-secondary" d="M176 248c-30.88 0-56 25.12-56 56s25.12 56 56 56s56-25.12 56-56S206.9 248 176 248zM256 128V0L48 0C21.49 0 0 21.49 0 48v416C0 490.5 21.49 512 48 512h288c26.51 0 48-21.49 48-48V128H256zM315.3 432l-11.31 11.31c-6.248 6.25-16.38 6.25-22.63 0l-52.12-50.42C213.6 402.3 195.6 408 176 408c-57.44 0-104-46.56-104-104S118.6 200 176 200s104 46.56 104 104c0 20.45-6.111 39.37-16.3 55.45l51.61 49.92C321.6 415.6 321.6 425.8 315.3 432z"/></svg>