<svg xmlns="http://www.w3.org/2000/svg" viewBox="0 0 384 512"><!--! Font Awesome Pro 6.0.0-alpha3 by @fontawesome - https://fontawesome.com License - https://fontawesome.com/license (Commercial License) --><defs><style>.fa-secondary{opacity:.4}</style></defs><path class="fa-primary" d="M68.86 480H32c-17.67 0-32-14.31-32-32s14.33-32 32-32h36.86c15.3 0 28.81-8.188 33.63-20.38l119.5-302.8C236.4 56.47 273.8 32 315.1 32H352c17.67 0 32 14.31 32 32s-14.33 32-32 32h-36.86c-15.3 0-28.81 8.188-33.63 20.38l-119.5 302.8C147.6 455.5 110.2 480 68.86 480z"/><path class="fa-secondary" d="M32 256c0 17.69 14.33 32 32 32h80.96l25.26-64H64C46.33 224 32 238.3 32 256zM320 224h-80.96l-25.26 64H320c17.67 0 32-14.31 32-32S337.7 224 320 224z"/></svg>