<svg xmlns="http://www.w3.org/2000/svg" viewBox="0 0 448 512"><!--! Font Awesome Pro 6.0.0-alpha3 by @fontawesome - https://fontawesome.com License - https://fontawesome.com/license (Commercial License) --><defs><style>.fa-secondary{opacity:.4}</style></defs><path class="fa-primary" d="M368 160c0 26.51-21.49 48-48 48c-7.418 0-14.36-1.824-20.63-4.828L240 262.6v44.31c18.6 6.611 32 24.19 32 45.06c0 26.51-21.49 48-48 48S176 378.5 176 352c0-20.87 13.4-38.45 32-45.06V262.6L148.6 203.2C142.3 206.2 135.4 208 128 208C101.5 208 80 186.5 80 160S101.5 112 128 112S176 133.5 176 160c0 7.418-1.822 14.36-4.826 20.63L224 233.4l52.8-52.8C273.8 174.3 272 167.4 272 160c0-26.51 21.49-48 48-48S368 133.5 368 160z"/><path class="fa-secondary" d="M448 112v288c-.125 44.13-35.88 79.88-80 80h-288c-44.13-.125-79.88-35.88-80-80v-288C.125 67.88 35.88 32.13 80 32h288C412.1 32.13 447.9 67.88 448 112zM400 160c0-44.18-35.82-80-80-80S240 115.8 240 160c0 16.3 4.934 31.42 13.3 44.07L224 233.4L194.7 204.1C203.1 191.4 208 176.3 208 160c0-44.18-35.82-80-80-80S48 115.8 48 160c0 44.18 35.82 80 80 80c16.3 0 31.43-4.93 44.07-13.3L208 262.6V273.6c-36.52 7.414-64 39.81-64 78.51C144 396.3 179.8 432 224 432s80-35.7 80-79.88c0-38.7-27.48-71.1-64-78.51V262.6l35.9-35.95C288.5 235.1 303.7 240 320 240C364.2 240 400 204.2 400 160z"/></svg>