<svg xmlns="http://www.w3.org/2000/svg" viewBox="0 0 576 512"><!--! Font Awesome Pro 6.0.0-alpha3 by @fontawesome - https://fontawesome.com License - https://fontawesome.com/license (Commercial License) --><defs><style>.fa-secondary{opacity:.4}</style></defs><path class="fa-primary" d="M411.3 377.4l-51.61-49.92C369.9 311.4 376 292.4 376 272c0-57.44-46.56-104-104-104S168 214.6 168 272s46.56 104 104 104c19.55 0 37.63-5.723 53.25-15.11l52.12 50.42c6.248 6.25 16.38 6.25 22.63 0l11.31-11.31C417.6 393.8 417.6 383.6 411.3 377.4zM272 328c-30.88 0-56-25.12-56-56S241.1 216 272 216s56 25.12 56 56S302.9 328 272 328z"/><path class="fa-secondary" d="M496 96h-192l-64-64h-160C53.5 32 32 53.5 32 80v352C32 458.5 53.5 480 80 480h416c26.5 0 48-21.5 48-48v-288C544 117.5 522.5 96 496 96zM411.3 400l-11.31 11.31c-6.248 6.25-16.38 6.25-22.63 0l-52.12-50.42C309.6 370.3 291.6 376 272 376c-57.44 0-104-46.56-104-104S214.6 168 272 168s104 46.56 104 104c0 20.45-6.111 39.38-16.3 55.45l51.61 49.92C417.6 383.6 417.6 393.8 411.3 400zM272 216c-30.88 0-56 25.12-56 56s25.12 56 56 56s56-25.12 56-56S302.9 216 272 216z"/></svg>