<svg xmlns="http://www.w3.org/2000/svg" viewBox="0 0 448 512"><!--! Font Awesome Pro 6.0.0-alpha3 by @fontawesome - https://fontawesome.com License - https://fontawesome.com/license (Commercial License) --><defs><style>.fa-secondary{opacity:.4}</style></defs><path class="fa-primary" d="M314.5 32.38c31.21 1.387 60.66 6.343 86.68 13.33c16.41 4.408 29.4 17.59 33.67 33.97c5.272 19.95 11.4 50.28 12.85 85.89L314.5 32.38zM.0549 338c.6878 39.44 7.435 73.09 13.14 94.7c4.271 16.38 17.18 28.57 33.6 32.98c28.42 7.628 60.9 13.24 95.11 14.16L.0549 338zM444.5 230.3c-7.808 54.62-30.19 113.9-81.75 165.5c-47.62 47.7-102.7 71.14-157.1 79.92L4.627 274.7c8.753-52.52 31.45-108.8 80.67-158.1c49.52-49.6 107.5-73.19 164.3-81.27L444.5 230.3zM219.3 324.7L155.3 260.7c-6.252-6.252-16.37-6.252-22.63 0c-6.252 6.252-6.252 16.37 0 22.63l64.01 64.01c3.126 3.126 7.218 4.688 11.31 4.688s8.187-1.562 11.31-4.688C225.6 341.1 225.6 330.9 219.3 324.7zM267.3 276.7l-64.01-64.01c-6.252-6.252-16.37-6.252-22.63 0s-6.252 16.37 0 22.63l64.01 64.01c3.126 3.126 7.218 4.688 11.31 4.688s8.187-1.562 11.31-4.688C273.6 293.1 273.6 282.9 267.3 276.7zM315.3 228.7l-64.01-64.01c-6.252-6.252-16.37-6.252-22.63 0s-6.252 16.37 0 22.63l64.01 64.01c3.126 3.126 7.218 4.688 11.31 4.688s8.187-1.562 11.31-4.688C321.6 245.1 321.6 234.9 315.3 228.7z"/><path class="fa-secondary" d="M.0549 338l141.8 141.8c20.78 .5549 42.2-.676 63.75-4.154L4.627 274.7C.9537 296.8-.289 318.1 .0549 338zM314.5 32.38c-21.09-.9417-42.9-.168-64.93 2.966l194.9 194.9c3.243-22.71 4.021-44.53 3.2-64.7L314.5 32.38z"/></svg>