<svg xmlns="http://www.w3.org/2000/svg" viewBox="0 0 640 512"><!--! Font Awesome Pro 6.0.0-alpha3 by @fontawesome - https://fontawesome.com License - https://fontawesome.com/license (Commercial License) --><defs><style>.fa-secondary{opacity:.4}</style></defs><path class="fa-primary" d="M96 320c56.28 0 102.5 41.86 110.4 96h35.23c7.848-54.14 54.1-96 110.4-96c23.82 0 45.83 7.602 64 20.33l-.0002-103.2c0-8.75-1.75-17.25-5.25-25.25l-78.25-182.8C324.9 11.37 307.6 0 288.3 0H144C117.5 0 96 21.5 96 48V160H48c-26.5 0-48 21.5-48 48l.0002 167.2C19.53 342.3 55.05 320 96 320zM160 64h117.8l74.25 173.1V256h-96L160 160V64z"/><path class="fa-secondary" d="M96 512c-44.18 0-79.1-35.82-79.1-80S51.82 352 96 352s80 35.82 80 80S140.2 512 96 512zM432 432c0-44.18-35.82-80-80-80s-79.1 35.82-79.1 80S307.8 512 352 512S432 476.2 432 432zM608 384h-64V31.1c0-17.6-14.4-31.1-32-31.1s-32 14.4-32 31.1L480 432c0 8.8 7.2 16 16 16h112c17.6 0 32-14.4 32-31.1S625.6 384 608 384z"/></svg>