<svg xmlns="http://www.w3.org/2000/svg" viewBox="0 0 576 512"><!--! Font Awesome Pro 6.0.0-alpha3 by @fontawesome - https://fontawesome.com License - https://fontawesome.com/license (Commercial License) --><defs><style>.fa-secondary{opacity:.4}</style></defs><path class="fa-primary" d="M56.13 7.028c-9.324-9.324-24.53-9.414-33.94 0C-17.87 47.09-27.5 290.6 204.6 277.1l231.6 226.9c4.396 4.883 10.61 7.777 17.19 7.953c6.607 .1562 12.97-2.363 17.63-7.023l33.94-33.95c9.369-9.367 9.369-24.57 0-33.94"/><path class="fa-secondary" d="M569.6 93.84c-6.365-4.859-15.34-4.242-20.99 1.414l-101.8 101.8L434.4 184.7l92.65-113.2c5.215-6.359 4.752-15.62-1.061-21.43c-5.811-5.813-15.07-6.278-21.43-1.063l-113.2 92.65l-12.4-12.39l101.8-101.8c5.656-5.66 6.275-14.63 1.414-20.99c-4.752-6.652-13.66-8.176-20.62-4.223l-98.24 55.69c-28.5 18.47-46.91 48.41-50.49 82.22c-2.037 19.33 1.447 38.23 8.855 55.55L287.4 228.6l61.22 58.66l31.74-32.95c17.32 7.406 36.22 10.89 55.55 8.855c33.81-3.582 63.75-21.99 82.69-51.31l55.22-97.43C577.8 107.5 576.3 98.66 569.6 93.84zM71.49 436.6c-4.684 4.461-7.402 10.62-7.49 17.12c-.0879 6.453 2.453 12.7 7.027 17.28l33.94 33.94c4.574 4.578 10.83 7.117 17.28 7.031c6.496-.0938 12.66-2.809 17.12-7.492l122.2-126.8l-63.89-62.6L71.49 436.6z"/></svg>