<svg xmlns="http://www.w3.org/2000/svg" viewBox="0 0 512 512"><!--! Font Awesome Pro 6.0.0-alpha3 by @fontawesome - https://fontawesome.com License - https://fontawesome.com/license (Commercial License) --><defs><style>.fa-secondary{opacity:.4}</style></defs><path class="fa-primary" d="M298.4 277.7l-215.4 226c-4.914 5.156-11.7 8.148-18.85 8.246c-7.104 .0976-13.99-2.699-19.02-7.734L7.739 466.9c-5.035-5.031-7.834-11.92-7.736-19.02c.0977-7.152 3.09-13.94 8.246-18.85L234.3 213.6L298.4 277.7z"/><path class="fa-secondary" d="M509.6 124.1l-60.8 107.3c-20.17 31.12-52.86 51.22-89.78 55.13c-21.11 2.224-41.74-1.581-60.66-9.671L234.3 213.6C226.2 194.7 222.4 174.1 224.6 152.9C228.5 116 248.6 83.34 280.6 62.67l106.4-60.29c7.6-4.32 17.25-2.728 22.51 4.607c5.308 6.951 4.632 16.75-1.544 22.92l-111.2 111.2l13.53 13.53l123.7-101.2c6.947-5.692 17.06-5.188 23.4 1.158s6.852 16.45 1.159 23.4l-101.2 123.6l13.54 13.53l111.2-111.2c6.176-6.176 15.97-6.854 22.92-1.546C512.3 107.7 513.1 117.4 509.6 124.1z"/></svg>