<svg xmlns="http://www.w3.org/2000/svg" viewBox="0 0 320 512"><!--! Font Awesome Pro 6.0.0-alpha3 by @fontawesome - https://fontawesome.com License - https://fontawesome.com/license (Commercial License) --><defs><style>.fa-secondary{opacity:.4}</style></defs><path class="fa-primary" d="M320 64c0 17.67-14.31 32-32 32H112v96H256c17.69 0 32 14.33 32 32s-14.31 32-32 32H112v192c0 17.67-14.31 32-32 32s-32-14.33-32-32V64c0-17.67 14.31-32 32-32H288C305.7 32 320 46.33 320 64z"/><path class="fa-secondary" d="M0 352c0 17.67 14.31 32 32 32h16v-64H32C14.31 320 0 334.3 0 352zM192 320H112v64H192c17.69 0 32-14.33 32-32S209.7 320 192 320z"/></svg>