<svg xmlns="http://www.w3.org/2000/svg" viewBox="0 0 512 512"><!--! Font Awesome Pro 6.0.0-alpha3 by @fontawesome - https://fontawesome.com License - https://fontawesome.com/license (Commercial License) --><defs><style>.fa-secondary{opacity:.4}</style></defs><path class="fa-primary" d="M355.5 45.53L342.4 14.98c-55.9-19.97-116.1-19.97-172.9-.0001L156.5 45.53l99.5 55.13L355.5 45.53zM86.78 96.15L53.67 99.09C18.79 143.1-.0958 199.2 .0001 256c0 2.694 .0519 5.379 .1352 8.063l24.95 21.76l83.2-77.67L86.78 96.15zM318.8 336L357.3 217.4L255.1 144L154.7 217.4l38.82 118.6L318.8 336zM458.3 99.08L425.6 96.16L403.7 208.2l83.21 77.67l24.92-21.79c.0833-2.683 .1559-5.352 .1559-8.045C512.1 199.2 493.2 143.9 458.3 99.08zM51.77 367.7l-7.39 32.46c33.48 49.11 82.96 85.07 140 101.7l28.6-16.99l-48.19-103.3L51.77 367.7zM347.2 381.5l-48.19 103.3l28.57 17c57.05-16.66 106.5-52.62 140-101.7l-7.38-32.46L347.2 381.5z"/><path class="fa-secondary" d="M458.3 99.08L458.3 99.08L458.3 99.08zM511.8 264c-1.442 48.66-16.82 95.87-44.28 136.1l-7.38-32.46l-113 13.86l-48.19 103.3l28.22 16.84c-46.55 13.44-95.89 13.68-142.4 .2374l28.23-17.06l-48.19-103.3l-113-13.88l-7.39 32.46c-27.45-40.19-42.8-87.41-44.25-136.1l24.95 21.76l83.2-77.67L86.78 96.15L53.67 99.09c29.72-38.29 69.67-67.37 115.2-83.88l.3613 .2684L156.5 45.53l99.5 55.13l99.5-55.13L342.4 14.98c45.82 16.48 86 45.64 115.9 84.11L425.6 96.16L403.7 208.2l83.21 77.67L511.8 264zM357.3 217.4L255.1 144L154.7 217.4l38.82 118.6L318.8 336L357.3 217.4z"/></svg>