<svg xmlns="http://www.w3.org/2000/svg" viewBox="0 0 384 512"><!--! Font Awesome Pro 6.0.0-alpha3 by @fontawesome - https://fontawesome.com License - https://fontawesome.com/license (Commercial License) --><defs><style>.fa-secondary{opacity:.4}</style></defs><path class="fa-primary" d="M288 80V192c0 17.6-14.4 32-32 32h-128C110.3 224 96 209.7 96 191.1L96 80c0-8.837 7.163-16 16-16h159.1C280.8 64 288 71.16 288 80z"/><path class="fa-secondary" d="M336 0h-288c-26.4 0-48 21.6-48 48V416c0 52.8 43.2 96 96 96h191.1c53.02 0 95.1-42.98 96-95.1L384 48C384 21.6 362.4 0 336 0zM160 336C160 344.8 152.8 352 144 352H128l0 16c0 8.8-7.2 16-15.1 16H112c-8.8 0-15.1-7.2-15.1-15.1L96 352h-15.1c-8.8 0-15.1-7.2-15.1-15.1V335.1C64 327.2 71.2 320 80 320h15.1l0-16C96 295.2 103.2 288 112 288h0c8.8 0 15.1 7.2 15.1 16L128 320h16c8.8 0 15.1 7.2 15.1 15.1V336zM232 384c-13.25 0-24-10.75-24-24s10.75-24 24-24s24 10.75 24 24S245.3 384 232 384zM128 224C110.3 224 96 209.7 96 191.1L96 80c0-8.837 7.163-16 16-16h159.1c8.837 0 16 7.163 16 16V192c0 17.6-14.4 32-32 32H128zM296 336c-13.25 0-24-10.75-24-24s10.75-24 24-24s24 10.75 24 24S309.3 336 296 336z"/></svg>