<svg xmlns="http://www.w3.org/2000/svg" viewBox="0 0 640 512"><!--! Font Awesome Pro 6.0.0-alpha3 by @fontawesome - https://fontawesome.com License - https://fontawesome.com/license (Commercial License) --><defs><style>.fa-secondary{opacity:.4}</style></defs><path class="fa-primary" d="M468.6 349.3L446.7 283.6C438 257.6 413.7 240 386.2 240H253.8c-27.47 0-51.86 17.58-60.55 43.64l-21.88 65.63c-15.99 6.117-27.39 21.5-27.39 39.64v96.91C144 500.3 155.7 512 170.2 512h13.09c14.46 0 26.18-11.72 26.18-26.18V464h221.1v21.82C430.5 500.3 442.3 512 456.7 512h13.09c14.46 0 26.18-11.72 26.18-26.18v-96.91C496 370.8 484.6 355.4 468.6 349.3zM238.8 298.8C240.1 292.3 246.1 288 253.8 288h132.4c6.82 0 12.85 4.348 15 10.81L418.9 352H221.1L238.8 298.8zM216 432c-13.25 0-24-10.75-24-24c0-13.26 10.75-24 24-24s24 10.74 24 24C240 421.3 229.3 432 216 432zM424 432c-13.25 0-24-10.75-24-24c0-13.26 10.75-24 24-24s24 10.74 24 24C448 421.3 437.3 432 424 432z"/><path class="fa-secondary" d="M640 161.3L640 496c0 8.875-7.125 16-16 16h-63.1c-8.875 0-16-7.125-16-16V224c0-17.62-14.62-32-32.62-32H128.6C110.6 192 96 206.4 96 224v272c0 8.875-7.125 16-15.1 16h-64c-8.875 0-16-7.125-16-16l0-334.8c0-19.38 11.62-36.75 29.5-44.25l271.1-113.3C307.3 1.417 313.6 .25 320 0c6.25 .25 12.58 1.542 18.46 3.667L610.5 117C628.4 124.5 640 141.9 640 161.3z"/></svg>