<svg xmlns="http://www.w3.org/2000/svg" viewBox="0 0 640 512"><!--! Font Awesome Pro 6.0.0-alpha3 by @fontawesome - https://fontawesome.com License - https://fontawesome.com/license (Commercial License) --><defs><style>.fa-secondary{opacity:.4}</style></defs><path class="fa-primary" d="M128 288h383.5l.5-64h-384V288zM468.6 349.3L458.9 320h-50.6l10.67 32H221.1l10.66-32H181.1l-9.754 29.27c-15.99 6.117-27.39 21.5-27.39 39.64v96.91C144 500.3 155.7 512 170.2 512h13.09c14.46 0 26.18-11.72 26.18-26.18V464h221.1v21.82C430.5 500.3 442.3 512 456.7 512h13.09c14.46 0 26.18-11.72 26.18-26.18v-96.91C496 370.8 484.6 355.4 468.6 349.3zM216 432c-13.25 0-24-10.75-24-24c0-13.26 10.75-24 24-24s24 10.74 24 24C240 421.3 229.3 432 216 432zM424 432c-13.25 0-24-10.75-24-24c0-13.26 10.75-24 24-24s24 10.74 24 24C448 421.3 437.3 432 424 432z"/><path class="fa-secondary" d="M610.5 117l-272-113.3C332.6 1.542 326.3 .25 320 0c-6.375 .25-12.67 1.417-18.54 3.667L29.5 117c-17.88 7.5-29.5 24.88-29.5 44.25L.0001 496c0 8.875 7.125 16 16 16h64c8.875 0 15.1-7.125 15.1-16V224c0-17.62 14.63-32 32.63-32h382.8c18 0 32.62 14.38 32.62 32v272c0 8.875 7.125 16 16 16h63.1c8.875 0 16-7.125 16-16l.0001-334.8C640 141.9 628.4 124.5 610.5 117z"/></svg>