<svg xmlns="http://www.w3.org/2000/svg" viewBox="0 0 640 512"><!--! Font Awesome Pro 6.0.0-alpha3 by @fontawesome - https://fontawesome.com License - https://fontawesome.com/license (Commercial License) --><defs><style>.fa-secondary{opacity:.4}</style></defs><path class="fa-primary" d="M615.1 512c-5.188 0-10.39-1.651-14.8-5.12L9.188 42.89c-10.42-8.156-12.24-23.26-4.068-33.7c8.188-10.41 23.22-12.29 33.69-4.073l591.1 463.1c10.42 8.156 12.24 23.26 4.068 33.7C630.1 508.8 623.1 512 615.1 512z"/><path class="fa-secondary" d="M399.1 447.1l-15.1 .0013L384 397.6L96 171.9l-.0001 276.1l-15.1-.0013c-8.75 0-15.1 7.25-15.1 15.1l-.0002 32c0 8.75 7.25 15.1 15.1 15.1h319.1c8.75 0 15.1-7.25 15.1-15.1l0-32C415.1 455.2 408.7 447.1 399.1 447.1zM160 63.1h160v127.1H277.2L384 275.7V63.1C384 28.75 355.3 0 320 0H160c-30.8 0-56.63 21.94-62.66 50.99l62.66 49.12V63.1zM557.2 107.2l-80.97-80.97c-6.25-6.125-16.5-6.125-22.62 0l-11.37 11.37c-6.125 6.125-6.125 16.38 0 22.62l37.75 37.62l0 62.12c0 28.12 20.87 51.25 47.1 55.25v160.7c0 3.805-1.094 7.242-2.673 10.44l38.03 29.81c7.836-11.53 12.64-25.27 12.64-40.25V152.6C575.1 135.6 569.2 119.2 557.2 107.2z"/></svg>