<svg xmlns="http://www.w3.org/2000/svg" viewBox="0 0 576 512"><!--! Font Awesome Pro 6.0.0-alpha3 by @fontawesome - https://fontawesome.com License - https://fontawesome.com/license (Commercial License) --><defs><style>.fa-secondary{opacity:.4}</style></defs><path class="fa-primary" d="M484 375.6l-134 22.38c-1.5 6.375-3.625 12.5-6.875 17.1H232.9C227.4 406.5 224 395.8 224 384c0-35.38 28.62-64 64-64c23 0 43.13 12.25 54.38 30.63L476 328.4c13.12-2.25 25.5 6.625 27.62 19.62C505.9 361.1 497 373.5 484 375.6z"/><path class="fa-secondary" d="M288 32c-159 0-288 129-288 288c0 52.75 14.25 102.3 39 144.8c5.625 9.625 16.38 15.25 27.5 15.25h443c11.12 0 21.88-5.625 27.5-15.25C561.8 422.3 576 372.8 576 320C576 161 447 32 288 32zM484 375.6l-134 22.38c-1.5 6.375-3.625 12.5-6.875 17.1H232.9C227.4 406.5 224 395.8 224 384c0-35.38 28.62-64 64-64c23 0 43.13 12.25 54.38 30.63L476 328.4c13.12-2.25 25.5 6.625 27.62 19.62C505.9 361.1 497 373.5 484 375.6z"/></svg>