<svg xmlns="http://www.w3.org/2000/svg" viewBox="0 0 576 512"><!--! Font Awesome Pro 6.0.0-alpha3 by @fontawesome - https://fontawesome.com License - https://fontawesome.com/license (Commercial License) --><defs><style>.fa-secondary{opacity:.4}</style></defs><path class="fa-primary" d="M343.1 416H232.9c-3.25-5.5-5.375-11.62-6.875-17.1L92 375.6c-13-2.125-21.88-14.5-19.62-27.62c2.125-13 14.5-21.88 27.62-19.62l133.6 22.25C244.9 332.3 265 320 288 320c35.38 0 64 28.63 64 64C352 395.8 348.6 406.5 343.1 416z"/><path class="fa-secondary" d="M288 32c-159 0-288 129-288 288c0 52.75 14.25 102.3 39 144.8c5.625 9.625 16.38 15.25 27.5 15.25h443c11.12 0 21.88-5.625 27.5-15.25C561.8 422.3 576 372.8 576 320C576 161 447 32 288 32zM343.1 416H232.9c-3.25-5.5-5.375-11.62-6.875-17.1L92 375.6c-13-2.125-21.88-14.5-19.62-27.62c2.125-13 14.5-21.88 27.62-19.62l133.6 22.25C244.9 332.3 265 320 288 320c35.38 0 64 28.63 64 64C352 395.8 348.6 406.5 343.1 416z"/></svg>