<svg xmlns="http://www.w3.org/2000/svg" viewBox="0 0 512 512"><!--! Font Awesome Pro 6.0.0-alpha3 by @fontawesome - https://fontawesome.com License - https://fontawesome.com/license (Commercial License) --><defs><style>.fa-secondary{opacity:.4}</style></defs><path class="fa-primary" d="M224 512h64l0-224h-64L224 512zM361 0c-50.82 0-86.34 43.35-105 73.51C237.3 43.35 201.8 0 150.1 0C94.48 0 64 41.39 64 80.33c0 16.26 5.129 31.89 14.83 45.22C94.53 147.1 121.6 160 151.3 160h72.7v96h64V160h72.7c29.68 0 56.77-12.88 72.46-34.44c9.705-13.33 14.83-28.97 14.83-45.22C448 41.39 417.5 0 361 0zM151.3 112c-27.16 0-39.3-17.15-39.3-31.67C112 67.33 122.3 48 150.1 48c30.09 0 57.56 36.5 71.9 64H151.3zM360.7 112h-71.58c14.34-27.5 41.8-64 71.9-64c28.68 0 38.98 19.33 38.98 32.33C400 94.85 387.9 112 360.7 112z"/><path class="fa-secondary" d="M224 288l0 224H64c-17.69 0-32-14.3-32-32L32 288H224zM224 256V160H151.3C122.9 160 97.1 147.9 81.16 128H32c-17.67 0-32 14.33-32 32v64c0 17.6 14.4 31.97 31.1 31.97L224 256zM288 512h160c17.69 0 32-14.3 32-32l-.0001-192h-191.1L288 512zM480 128h-49.16c-15.94 19.94-41.72 32-70.14 32h-72.7v96l191.1-.0332c17.6 0 32-14.37 32-31.97V160C512 142.3 497.7 128 480 128z"/></svg>