<svg xmlns="http://www.w3.org/2000/svg" viewBox="0 0 640 512"><!--! Font Awesome Pro 6.0.0-alpha3 by @fontawesome - https://fontawesome.com License - https://fontawesome.com/license (Commercial License) --><defs><style>.fa-secondary{opacity:.4}</style></defs><path class="fa-primary" d="M240.6 194.1c1.875-30.88 17.25-61.25 43.1-79.87C279.4 103.5 268.8 96.01 256 96.01h-224c-17.75 0-32 14.25-32 31.1v351.1c0 17.75 14.25 32 32 32h168.9c-5.5-9.501-8.875-20.25-8.875-32V256C192 226.1 212.8 201 240.6 194.1zM640 344h-184V272h63.68c25.52 0 49.27-13.15 61.98-34.31c6.762-11.25 10.34-24.19 10.34-37.43c0-35.52-26.98-72.25-72.13-72.25c-35.04 0-66.21 26.67-87.87 75.3c-12.72-28.92-40.54-75.3-87.88-75.3c-45.15 0-72.13 36.73-72.13 72.25c0 13.24 3.58 26.18 10.35 37.44C295.1 258.9 318.8 272 344.3 272h63.68v72H224v48h183.1L408 512h48l-.0001-120h184V344zM519.9 176c17.75 0 24.12 14.5 24.12 24.25c0 2.219-.2499 7.322-3.49 12.71C536.2 220.1 528 224 519.7 224l-44.3 .0052C484.3 203.8 501.3 176 519.9 176zM344.3 224c-8.34 0-16.54-3.873-20.83-11.02c-3.24-5.391-3.49-10.49-3.49-12.71c0-9.75 6.375-24.25 24.12-24.25c18.62 0 35.62 27.37 44.5 47.99L344.3 224z"/><path class="fa-secondary" d="M257.3 74.02c7.25-5.125 9-15.12 3.75-22.25l-9.25-13c-5.125-7.25-15.12-9-22.38-3.75l-32 22.88l11.5-30.62C212 19.02 207.8 9.777 199.5 6.777l-15-5.625C176.3-1.973 167 2.277 163.9 10.53L144 63.52l-19.88-53.12c-3.125-8.25-12.38-12.5-20.62-9.375l-15 5.625C80.25 9.777 76 19.02 79.25 27.27l11.5 30.5L58.63 35.02c-7.25-5.125-17.25-3.5-22.38 3.75l-9.25 13c-5.125 7.125-3.5 17.12 3.75 22.25l30.61 21.99h165.3L257.3 74.02zM282.3 237.7C279.8 233.4 278.1 228.7 276.4 224H256c-17.67 0-31.1 14.33-31.1 32L224 344h183.1V272h-63.68C318.8 272 295.1 258.9 282.3 237.7zM224 480c0 17.67 14.33 32 31.1 32h152l-.0001-120H224L224 480zM608 224h-20.42c-1.631 4.701-3.344 9.4-5.918 13.69C568.9 258.9 545.2 272 519.7 272h-63.68v72h184l-.0001-87.99C640 238.3 625.7 224 608 224zM456 512h151.1c17.67 0 32-14.33 32-32l.0001-88h-184L456 512z"/></svg>