<svg xmlns="http://www.w3.org/2000/svg" viewBox="0 0 576 512"><!--! Font Awesome Pro 6.0.0-alpha3 by @fontawesome - https://fontawesome.com License - https://fontawesome.com/license (Commercial License) --><defs><style>.fa-secondary{opacity:.4}</style></defs><path class="fa-primary" d="M0 320v96h576v-96H0zM183.3 160h54.76L183 215c-9.375 9.375-9.375 24.56 0 33.94C187.7 253.7 193.8 256 200 256s12.28-2.344 16.97-7.031L288 177.1l71.03 71.01C363.7 253.7 369.8 256 376 256s12.28-2.344 16.97-7.031c9.375-9.375 9.375-24.56 0-33.94L337.9 160h54.76c29.68 0 56.77-12.88 72.46-34.44C474.9 112.2 480 96.59 480 80.33C480 41.39 449.5 0 393 0C342.2 0 306.7 43.35 288 73.51C269.3 43.35 233.8 0 182.1 0C126.5 0 96 41.39 96 80.33c0 16.26 5.129 31.89 14.83 45.22C126.5 147.1 153.6 160 183.3 160zM393 48C421.7 48 432 67.33 432 80.33C432 94.85 419.9 112 392.7 112h-71.58C335.5 84.5 362.9 48 393 48zM182.1 48c30.09 0 57.56 36.5 71.9 64H183.3C156.1 112 144 94.85 144 80.33C144 67.33 154.3 48 182.1 48z"/><path class="fa-secondary" d="M0 464C0 490.5 21.49 512 48 512h480c26.51 0 48-21.49 48-48V416H0V464zM528 128h-65.16c-15.94 19.94-41.72 32-70.14 32h-54.76l55.03 55.03c9.375 9.375 9.375 24.56 0 33.94C388.3 253.7 382.2 256 376 256s-12.28-2.344-16.97-7.031L288 177.1L216.1 248.1C212.3 253.7 206.2 256 200 256S187.7 253.7 183 248.1c-9.375-9.375-9.375-24.56 0-33.94L238.1 160H183.3C154.9 160 129.1 147.9 113.2 128H48C21.49 128 0 149.5 0 176V320h576V176C576 149.5 554.5 128 528 128z"/></svg>