<svg xmlns="http://www.w3.org/2000/svg" viewBox="0 0 512 512"><!--! Font Awesome Pro 6.0.0-alpha3 by @fontawesome - https://fontawesome.com License - https://fontawesome.com/license (Commercial License) --><defs><style>.fa-secondary{opacity:.4}</style></defs><path class="fa-primary" d="M475.9 160h-99.56c-8.695-53.07-24.83-100.6-48.03-132.9C305.5 19.93 281.2 16 256 16c39.36 0 73.14 59.27 87.96 144h-175.9c14.82-84.73 48.6-144 87.96-144c-25.2 0-49.48 3.928-72.3 11.13C160.5 59.42 144.4 106.9 135.7 160H36.1c-4.502 10.3-8.168 21.01-11.21 32H131.5C129.3 213 128 234.5 128 256s1.276 42.98 3.485 64H24.89c3.039 10.99 6.705 21.7 11.21 32h99.56c8.695 53.07 24.83 100.6 48.03 132.9C206.5 492.1 230.8 496 256 496c-39.36 0-73.14-59.27-87.96-144h175.9c-14.82 84.73-48.6 144-87.96 144c25.2 0 49.48-3.928 72.3-11.13C351.5 452.6 367.6 405.1 376.3 352H475.9c4.502-10.3 8.168-21.01 11.21-32h-106.6c2.209-21.02 3.485-42.5 3.485-64s-1.276-42.98-3.485-64h106.6C484.1 181 480.4 170.3 475.9 160zM348.4 320H163.6C161.4 299.6 160 278.2 160 256s1.367-43.6 3.623-64h184.8c2.256 20.4 3.623 41.8 3.623 64S350.6 299.6 348.4 320z"/><path class="fa-secondary" d="M343.1 352c-14.82 84.73-48.6 144-87.96 144S182.9 436.7 168 352H343.1zM384 256c0 21.5-1.276 42.98-3.485 64h106.6c5.641-20.4 8.894-41.8 8.894-64s-3.254-43.6-8.894-64h-106.6C382.7 213 384 234.5 384 256zM352 256c0-22.2-1.367-43.6-3.623-64H163.6C161.4 212.4 160 233.8 160 256s1.367 43.6 3.623 64h184.8C350.6 299.6 352 278.2 352 256zM376.3 352c-8.695 53.07-24.83 100.6-48.03 132.9C394.6 463.9 448.3 415 475.9 352H376.3zM376.3 160H475.9c-27.56-63.03-81.32-111.9-147.6-132.9C351.5 59.42 367.6 106.9 376.3 160zM135.7 352H36.1c27.56 63.03 81.32 111.9 147.6 132.9C160.5 452.6 144.4 405.1 135.7 352zM343.1 160c-14.82-84.73-48.6-144-87.96-144S182.9 75.27 168 160H343.1zM24.89 192c-5.641 20.4-8.895 41.8-8.895 64s3.254 43.6 8.895 64H131.5C129.3 298.1 128 277.5 128 256S129.3 213 131.5 192H24.89zM135.7 160C144.4 106.9 160.5 59.42 183.7 27.13C117.4 48.05 63.66 96.97 36.1 160H135.7z"/></svg>