<svg xmlns="http://www.w3.org/2000/svg" viewBox="0 0 512 512"><!--! Font Awesome Pro 6.0.0-alpha3 by @fontawesome - https://fontawesome.com License - https://fontawesome.com/license (Commercial License) --><defs><style>.fa-secondary{opacity:.4}</style></defs><path class="fa-primary" d="M.0001 447.1h52c6.627 0 12 5.375 12 11.1s-5.373 11.1-12 11.1h-52M.0001 391.1h52c6.627 0 12 5.375 12 11.1s-5.373 11.1-12 11.1h-52"/><path class="fa-secondary" d="M509.2 42.9l-226.3 451.4c-5.426 10.83-16.5 17.66-28.61 17.66H32c-17.67 0-32-14.33-32-31.1l0-8h52c6.627 0 12-5.375 12-11.1s-5.373-11.1-12-11.1h-52V415.1h52c6.627 0 12-5.375 12-11.1s-5.373-11.1-12-11.1h-52l0-28.99c0-21.44 20.66-36.81 41.19-30.65l217.8 65.32l193.8-385c6.262-11.69 20.81-16.09 32.5-9.82l14.11 7.566C511 16.68 515.4 31.22 509.2 42.9z"/></svg>