<svg xmlns="http://www.w3.org/2000/svg" viewBox="0 0 512 512"><!--! Font Awesome Pro 6.0.0-alpha3 by @fontawesome - https://fontawesome.com License - https://fontawesome.com/license (Commercial License) --><defs><style>.fa-secondary{opacity:.4}</style></defs><path class="fa-primary" d="M496 352h-15.1l-.0001-112c0-8.75-7.25-16-16-16h-15.1V144c0-8.75-7.25-16-16-16h-15.1l0-112c0-8.75-7.25-16-16-16s-16 7.25-16 16L384 32h-64l0-16c0-8.75-7.25-16-16-16s-16 7.25-16 16V32h-64V16c0-8.75-7.25-16-16-16s-16 7.25-16 16L192 32H128L128 16c0-8.75-7.25-16-16-16s-16 7.25-16 16L96 128H80C71.25 128 64 135.3 64 144V224H48c-8.75 0-16 7.25-16 16L32 352H16c-8.75 0-16 7.25-16 16l0 128c0 8.75 7.25 16 16 16h80v-160h31.1l0-128h31.1l.0001-96h31.1L191.1 224H160l.025 128H128l0 160h79.96l.0418-80c0-8.75 7.25-16 16-16h64c8.75 0 16 7.25 16 16L304 512h80v-160h-31.98l-.025-128h-32.03l.0251-96h32l-.0001 96h32v128h32v160h79.1c8.75 0 16-7.25 16-16v-128C512 359.3 504.8 352 496 352zM232 176c0-8.75 7.25-16 16-16h16c8.75 0 16 7.25 16 16L280 224h-48L232 176zM288 352h-64l0-64c0-8.75 7.25-16 16-16h32c8.75 0 15.1 7.25 15.1 16L288 352z"/><path class="fa-secondary" d="M160 224h31.97l.025-96H160L160 224zM320 128l-.0251 96h32.03l.0001-96H320zM128 352h32.02L160 224H128L128 352zM352 224l.025 128h31.98V224H352zM96 512h32l0-160H96V512zM384 352v160h32v-160H384z"/></svg>