<svg xmlns="http://www.w3.org/2000/svg" viewBox="0 0 384 512"><!--! Font Awesome Pro 6.0.0-alpha3 by @fontawesome - https://fontawesome.com License - https://fontawesome.com/license (Commercial License) --><defs><style>.fa-secondary{opacity:.4}</style></defs><path class="fa-primary" d="M368 322.7c0 30.94-13.12 60.44-35.97 81.11c-36.78 29.83-80.44 44.38-123.7 44.38c-54.16 0-107.7-22.87-146-67.04c-61.94-71.36-61.94-178.9 0-250.3c68.91-79.42 186.8-89.92 268.3-23.78c13.72 11.14 15.84 31.3 4.688 45.02c-11.12 13.69-31.25 15.81-45 4.703c-54.56-44.31-133.5-37.22-179.7 16c-41.16 47.42-41.16 118.1 0 166.4c46.25 53.2 125.2 60.23 179.7 15.98C298.6 347.8 304 335.6 304 322.9L303.8 288H224V224h111.7c17.59 0 31.91 14.23 32 31.83L368 322.7z"/><path class="fa-secondary" d="M160 441.7V480c0 17.67 14.38 32 32.07 32S224 497.7 224 480v-33.13c-5.213 .4238-10.41 1.32-15.62 1.32C192 448.2 175.8 445.9 160 441.7zM192.1 0C174.4 0 160 14.33 160 32v38.25c20.89-5.473 42.49-7.389 64-5.689V32C224 14.33 209.8 0 192.1 0zM160 137.9v236.1c20.37 8.355 42.29 11.69 64 9.121V128.8C202.3 126.2 180.4 129.6 160 137.9z"/></svg>