<svg xmlns="http://www.w3.org/2000/svg" viewBox="0 0 640 512"><!--! Font Awesome Pro 6.0.0-alpha3 by @fontawesome - https://fontawesome.com License - https://fontawesome.com/license (Commercial License) --><defs><style>.fa-secondary{opacity:.4}</style></defs><path class="fa-primary" d="M0 367.1v127.1c0 8.75 7.25 16 16 16L64 511.1v-159.1l-48-.0078C7.25 351.1 0 359.2 0 367.1zM484.6 30.21l-57.25-28.5c-7.875-4-17.5-.75-21.5 7.125L238.8 343.2c-2.625 5.375-8.125 8.75-14.25 8.75L96 351.1V512h126.2c24.12 0 46.33-13.75 57.08-35.38l212.5-424.9c1-1.969 1.547-4.051 1.682-6.125C493.8 39.38 490.5 33.21 484.6 30.21zM544 351.1v160h32v-159.1L544 351.1z"/><path class="fa-secondary" d="M64 511.1L96 512v-160l-32 .0078V511.1zM624 351.1L576 351.1v159.1l48-.0117c8.75 0 16-7.25 16-16v-127.1C640 359.2 632.8 351.1 624 351.1zM212.6 1.715l-57.25 28.5c-7.875 4-11.12 13.63-7.125 21.5l100.2 200.4L302.1 144.9L234.1 8.84C230.1 .9648 220.5-2.285 212.6 1.715zM401.3 343.2l-9.754-19.52l-53.61 107.2l22.86 45.72c10.75 21.62 32.96 35.38 57.08 35.38L544 511.1v-160l-128.5-.0117C409.4 351.1 403.9 348.6 401.3 343.2z"/></svg>