<svg xmlns="http://www.w3.org/2000/svg" viewBox="0 0 576 512"><!--! Font Awesome Pro 6.0.0-alpha3 by @fontawesome - https://fontawesome.com License - https://fontawesome.com/license (Commercial License) --><defs><style>.fa-secondary{opacity:.4}</style></defs><path class="fa-primary" d="M575.1 256c0 24.48-22.19 31.1-32.01 31.1c-7.469 0-14.99-2.594-21.07-7.907L288 74.54L53.08 280.1C46.99 285.4 39.48 288 32 288C23.53 288 .0011 281.3 .0011 256c0-7.379 2.669-16.86 10.92-24.1l255.1-223.1C272.1 2.641 280.5 .0033 288 .0034c7.523 0 15.05 2.637 21.08 7.918l255.1 223.1C573.3 239.2 575.1 248.6 575.1 256z"/><path class="fa-secondary" d="M511.1 270.5L511.1 448c0 35.35-28.65 64-63.1 64H128c-35.35 0-63.1-28.65-63.1-64l.0118-177.5L288 74.54L511.1 270.5z"/></svg>