<svg xmlns="http://www.w3.org/2000/svg" viewBox="0 0 576 512"><!--! Font Awesome Pro 6.0.0-alpha3 by @fontawesome - https://fontawesome.com License - https://fontawesome.com/license (Commercial License) --><defs><style>.fa-secondary{opacity:.4}</style></defs><path class="fa-primary" d="M351.1 256c0-35.35-28.65-63.1-63.1-63.1S223.1 220.7 223.1 256S252.7 320 287.1 320S351.1 291.4 351.1 256zM319.1 352H255.1c-44.18 0-79.1 35.81-79.1 79.1c0 8.836 7.164 15.1 15.1 15.1h191.1c8.836 0 15.1-7.164 15.1-15.1C399.1 387.8 364.2 352 319.1 352zM565.1 231.9l-255.1-223.1c-6.031-5.281-13.55-7.916-21.08-7.916S272.1 2.655 266.9 7.936l-255.1 223.1c-8.266 7.247-10.92 16.73-10.92 24.1c0 24.27 21.99 31.99 31.1 31.1c7.477 0 14.99-2.61 21.08-7.915L288 74.54l234.9 205.6c6.078 5.312 13.6 7.914 21.07 7.914c9.839 0 32.01-7.729 32.01-31.99C575.1 248.6 573.3 239.1 565.1 231.9z"/><path class="fa-secondary" d="M288 74.54L64.02 270.5l-.0124 177.5c0 35.35 28.65 63.1 63.1 63.1h319.1c35.35 0 63.1-28.65 63.1-63.1l-.0029-177.5L288 74.54zM287.1 192c35.35 0 63.1 28.65 63.1 63.1s-28.65 63.1-63.1 63.1S223.1 291.4 223.1 256S252.7 192 287.1 192zM383.1 448H191.1c-8.836 0-15.1-7.164-15.1-15.1c0-44.18 35.82-79.1 79.1-79.1h63.1c44.18 0 79.1 35.81 79.1 79.1C399.1 440.8 392.8 448 383.1 448z"/></svg>