<svg xmlns="http://www.w3.org/2000/svg" viewBox="0 0 576 512"><!--! Font Awesome Pro 6.0.0-alpha3 by @fontawesome - https://fontawesome.com License - https://fontawesome.com/license (Commercial License) --><defs><style>.fa-secondary{opacity:.4}</style></defs><path class="fa-primary" d="M565.1 231.9l-255.1-223.1c-6.031-5.281-13.55-7.918-21.08-7.918S272.1 2.641 266.9 7.922L10.92 231.9C2.657 239.2 .0005 248.6 .0005 256c0 24.27 21.99 31.1 32 31.1c7.477 0 14.99-2.604 21.08-7.908L288 74.54l234.9 205.6c6.078 5.312 13.6 7.907 21.07 7.907c9.839 0 32.01-7.732 32.01-31.1C575.1 248.6 573.3 239.1 565.1 231.9zM340.4 255.1c-15.97 0-32.08 6.586-44.04 18.88l-8.445 8.754L279.4 274.9c-11.89-12.29-27.94-18.88-43.88-18.88c-34.81 0-57.26 30.12-57.26 59.73c0 15.39 5.682 30.78 17.06 42.59l82.99 85.56c2.693 2.752 6.182 4.128 9.671 4.128s6.977-1.376 9.669-4.128l82.99-85.56c11.36-11.79 17.05-27.16 17.05-42.53C397.7 286.2 375.1 255.1 340.4 255.1z"/><path class="fa-secondary" d="M288 74.54L64.02 270.5L64.01 448c0 35.35 28.65 64 63.1 64h319.1c35.35 0 63.1-28.65 63.1-64l-.0021-177.5L288 74.54zM397.7 315.8c0 15.37-5.682 30.75-17.05 42.53l-82.99 85.56c-2.692 2.752-6.181 4.128-9.669 4.128s-6.977-1.376-9.671-4.128l-82.99-85.56c-11.38-11.8-17.06-27.2-17.06-42.59c0-29.53 22.41-59.73 57.26-59.73c15.94 0 31.99 6.586 43.88 18.88l8.447 8.754l8.445-8.754c11.96-12.29 28.08-18.88 44.04-18.88C375.1 255.1 397.7 286.1 397.7 315.8z"/></svg>