<svg xmlns="http://www.w3.org/2000/svg" viewBox="0 0 576 512"><!--! Font Awesome Pro 6.0.0-alpha3 by @fontawesome - https://fontawesome.com License - https://fontawesome.com/license (Commercial License) --><defs><style>.fa-secondary{opacity:.4}</style></defs><path class="fa-primary" d="M199.7 166.4H169.6V136.3c0-4.594-3.727-8.32-8.32-8.32H126.7c-4.594 0-8.32 3.727-8.32 8.32v30.08H88.32C83.73 166.4 80 170.1 80 174.7v34.56c0 4.594 3.727 8.32 8.32 8.32h30.08v30.08c0 4.594 3.727 8.32 8.32 8.32h34.56c4.594 0 8.32-3.727 8.32-8.32V217.6h30.08C204.3 217.6 208 213.9 208 209.3V174.7C208 170.1 204.3 166.4 199.7 166.4zM487.7 102.4h-30.08V72.34c0-4.594-3.727-8.32-8.32-8.32h-34.56c-4.594 0-8.32 3.727-8.32 8.32v30.08h-30.08C371.7 102.4 368 106.1 368 110.7v34.56c0 4.594 3.727 8.32 8.32 8.32h30.08v30.08c0 4.594 3.727 8.32 8.32 8.32h34.56c4.594 0 8.32-3.727 8.32-8.32V153.6h30.08C492.3 153.6 496 149.9 496 145.3V110.7C496 106.1 492.3 102.4 487.7 102.4z"/><path class="fa-secondary" d="M240 64.01h-192c-26.51 0-48 21.49-48 48v368c0 17.67 14.33 32 32 32h240c8.836 0 16-7.169 16-16V112C288 85.5 266.5 64.01 240 64.01zM80 174.7c0-4.594 3.727-8.32 8.32-8.32h30.08V136.3c0-4.594 3.727-8.32 8.32-8.32h34.56c4.594 0 8.32 3.727 8.32 8.32v30.08h30.08C204.3 166.4 208 170.1 208 174.7v34.56c0 4.594-3.727 8.32-8.32 8.32H169.6v30.08c0 4.594-3.727 8.32-8.32 8.32H126.7c-4.594 0-8.32-3.727-8.32-8.32V217.6H88.32C83.73 217.6 80 213.9 80 209.3V174.7zM128 432c0 8.836-7.164 16-16 16h-32c-8.836 0-16-7.164-16-16v-32c0-8.838 7.164-16 16-16h32c8.836 0 16 7.162 16 16V432zM128 336c0 8.836-7.164 16-16 16h-32c-8.836 0-16-7.164-16-16v-32c0-8.838 7.164-16 16-16h32c8.836 0 16 7.162 16 16V336zM224 432c0 8.836-7.164 16-16 16h-32c-8.836 0-16-7.164-16-16v-32c0-8.838 7.164-16 16-16h32c8.836 0 16 7.162 16 16V432zM224 336c0 8.836-7.164 16-16 16h-32c-8.836 0-16-7.164-16-16v-32c0-8.838 7.164-16 16-16h32c8.836 0 16 7.162 16 16V336zM528 .0146h-192c-26.51 0-48 21.49-48 48v.4082c19.31 14.62 32 37.56 32 63.59v368c0 11.05-3.072 21.3-8.023 30.38C314.6 511.1 317.2 512 320 512h224c17.67 0 32-14.33 32-32v-432C576 21.5 554.5 .0146 528 .0146zM368 110.7c0-4.594 3.727-8.32 8.32-8.32h30.08V72.34c0-4.594 3.727-8.32 8.32-8.32h34.56c4.594 0 8.32 3.727 8.32 8.32v30.08h30.08C492.3 102.4 496 106.1 496 110.7v34.56c0 4.594-3.727 8.32-8.32 8.32h-30.08v30.08c0 4.594-3.727 8.32-8.32 8.32h-34.56c-4.594 0-8.32-3.727-8.32-8.32V153.6h-30.08C371.7 153.6 368 149.9 368 145.3V110.7zM416 400c0 8.836-7.164 16-16 16l-32-.0049c-8.836 0-16-7.159-16-15.1v-32c0-8.838 7.164-16 16-16l32 .0049c8.836 0 16 7.162 16 16V400zM416 304c0 8.836-7.164 16-16 16l-32-.0049c-8.836 0-16-7.159-16-15.1V272c0-8.838 7.164-16 16-16l32 .0049c8.836 0 16 7.162 16 16V304zM512 400c0 8.836-7.164 16-16 16h-32c-8.836 0-16-7.164-16-16v-32c0-8.838 7.164-16 16-16h32c8.836 0 16 7.162 16 16V400zM512 304c0 8.836-7.164 16-16 16h-32c-8.836 0-16-7.164-16-16v-32c0-8.838 7.164-16 16-16h32c8.836 0 16 7.162 16 16V304z"/></svg>