<svg xmlns="http://www.w3.org/2000/svg" viewBox="0 0 512 512"><!--! Font Awesome Pro 6.0.0-alpha3 by @fontawesome - https://fontawesome.com License - https://fontawesome.com/license (Commercial License) --><defs><style>.fa-secondary{opacity:.4}</style></defs><path class="fa-primary" d="M480 448v-384c17.67 0 32-14.33 32-32c0-17.67-14.33-32-32-32H32c-17.67 0-32 14.33-32 32c0 17.67 14.33 32 32 32v384c-17.67 0-32 14.33-32 32c0 17.67 14.33 32 32 32h176v-96h96v96H480c17.67 0 32-14.33 32-32C512 462.3 497.7 448 480 448zM224 108.8c0-6.375 6.375-12.75 12.75-12.75h38.5C281.6 96.01 288 102.4 288 108.8v38.5c0 6.375-6.375 12.75-12.75 12.75h-38.5C230.4 160 224 153.6 224 147.3V108.8zM224 204.8c0-6.375 6.375-12.75 12.75-12.75h38.5C281.6 192 288 198.4 288 204.8v38.5c0 6.375-6.375 12.75-12.75 12.75h-38.5C230.4 256 224 249.6 224 243.3V204.8zM96 108.8c0-6.375 6.375-12.75 12.75-12.75h38.5C153.6 96.02 160 102.4 160 108.8V147.3c0 6.375-6.375 12.75-12.75 12.75h-38.5C102.4 160 96 153.6 96 147.3V108.8zM147.3 256h-38.5C102.4 256 96 249.6 96 243.3V204.8c0-6.375 6.375-12.75 12.75-12.75h38.5C153.6 192 160 198.4 160 204.8V243.3C160 249.6 153.6 256 147.3 256zM160 384c0-53 43-96 96-96s96 43 96 96H160zM416 243.3c0 6.375-6.375 12.75-12.75 12.75h-38.5C358.4 256 352 249.6 352 243.3V204.8c0-6.375 6.375-12.75 12.75-12.75h38.5C409.6 192 416 198.4 416 204.8V243.3zM416 147.3c0 6.375-6.375 12.75-12.75 12.75h-38.5C358.4 160 352 153.6 352 147.3V108.8c0-6.375 6.375-12.75 12.75-12.75h38.5C409.6 96.02 416 102.4 416 108.8V147.3z"/><path class="fa-secondary" d="M236.8 160h38.5C281.6 160 288 153.6 288 147.3V108.8c0-6.375-6.375-12.75-12.75-12.75h-38.5C230.4 96.01 224 102.4 224 108.8v38.5C224 153.6 230.4 160 236.8 160zM236.8 256h38.5C281.6 256 288 249.6 288 243.3v-38.5c0-6.375-6.375-12.75-12.75-12.75h-38.5C230.4 192 224 198.4 224 204.8v38.5C224 249.6 230.4 256 236.8 256zM108.8 160h38.5C153.6 160 160 153.6 160 147.3V108.8c0-6.375-6.375-12.75-12.75-12.75h-38.5C102.4 96.02 96 102.4 96 108.8V147.3C96 153.6 102.4 160 108.8 160zM160 204.8c0-6.375-6.375-12.75-12.75-12.75h-38.5C102.4 192 96 198.4 96 204.8V243.3c0 6.375 6.375 12.75 12.75 12.75h38.5C153.6 256 160 249.6 160 243.3V204.8zM256 288c-53 0-96 43-96 96h192C352 331 309 288 256 288zM403.3 192h-38.5C358.4 192 352 198.4 352 204.8V243.3c0 6.375 6.375 12.75 12.75 12.75h38.5C409.6 256 416 249.6 416 243.3V204.8C416 198.4 409.6 192 403.3 192zM403.3 96.02h-38.5C358.4 96.02 352 102.4 352 108.8V147.3c0 6.375 6.375 12.75 12.75 12.75h38.5C409.6 160 416 153.6 416 147.3V108.8C416 102.4 409.6 96.02 403.3 96.02z"/></svg>