<svg xmlns="http://www.w3.org/2000/svg" viewBox="0 0 384 512"><!--! Font Awesome Pro 6.0.0-alpha3 by @fontawesome - https://fontawesome.com License - https://fontawesome.com/license (Commercial License) --><defs><style>.fa-secondary{opacity:.4}</style></defs><path class="fa-primary" d="M32 64h320c17.67 0 32-14.33 32-32c0-17.67-14.33-32-32-32H32C14.33 0 0 14.33 0 32C0 49.67 14.33 64 32 64zM352 448H32c-17.67 0-32 14.33-32 32c0 17.67 14.33 32 32 32h320c17.67 0 32-14.33 32-32C384 462.3 369.7 448 352 448z"/><path class="fa-secondary" d="M288 64h64v21.33c0 27.7-8.982 54.64-25.6 76.8L256 256l70.4 93.87C343 372 352 398.1 352 426.7V448h-64v-21.34c0-13.75-4.545-27.39-12.8-38.4L192 277.3l-83.2 110.9C100.5 399.3 96 412.9 96 426.7V448H32v-21.34c0-27.7 8.982-54.64 25.6-76.8L128 256L57.6 162.1C40.98 139.1 32 113 32 85.33V64h64v21.33c0 13.76 4.545 27.39 12.8 38.4L192 234.7l83.2-110.9C283.5 112.7 288 99.09 288 85.33V64z"/></svg>