<svg xmlns="http://www.w3.org/2000/svg" viewBox="0 0 576 512"><!--! Font Awesome Pro 6.0.0-alpha3 by @fontawesome - https://fontawesome.com License - https://fontawesome.com/license (Commercial License) --><defs><style>.fa-secondary{opacity:.4}</style></defs><path class="fa-primary" d="M351.1 255.1c0-35.35-28.65-63.1-63.1-63.1S224 220.7 224 255.1S252.7 319.1 287.1 319.1S351.1 291.3 351.1 255.1zM319.1 351.1H256c-44.18 0-79.1 35.81-79.1 79.1c0 8.836 7.164 15.1 15.1 15.1h191.1c8.836 0 15.1-7.164 15.1-15.1C399.1 387.8 364.2 351.1 319.1 351.1zM565.1 231.9L511.1 185.5l.003-137.5c0-8.828-7.156-15.1-15.1-15.1l-63.1-.0089c-8.842 0-15.1 7.171-15.1 15.1v53.49l-106.9-93.55c-6.031-5.281-13.55-7.919-21.08-7.919S272.1 2.648 266.9 7.929l-255.1 223.1c-8.266 7.247-10.92 16.72-10.92 24.09c0 24.27 21.99 31.1 32 32c7.477 0 14.99-2.603 21.08-7.907L288 74.54l234.9 205.6c6.078 5.312 13.6 7.906 21.07 7.906c9.839 0 32.01-7.735 32.01-32C575.1 248.6 573.3 239.1 565.1 231.9z"/><path class="fa-secondary" d="M288 74.54L64.02 270.5l-.0104 177.5c0 35.35 28.65 63.1 63.1 63.1h319.1c35.35 0 63.1-28.65 63.1-63.1l-.0012-177.5L288 74.54zM287.1 192c35.35 0 63.1 28.65 63.1 63.1s-28.65 63.1-63.1 63.1S224 291.3 224 255.1S252.7 192 287.1 192zM383.1 447.1H192c-8.836 0-15.1-7.164-15.1-15.1c0-44.18 35.82-79.1 79.1-79.1h63.1c44.18 0 79.1 35.81 79.1 79.1C399.1 440.8 392.8 447.1 383.1 447.1z"/></svg>