<svg xmlns="http://www.w3.org/2000/svg" viewBox="0 0 640 512"><!--! Font Awesome Pro 6.0.0-alpha3 by @fontawesome - https://fontawesome.com License - https://fontawesome.com/license (Commercial License) --><defs><style>.fa-secondary{opacity:.4}</style></defs><path class="fa-primary" d="M0 319.1v63.88c70.75 .125 128 57.38 128.1 128.1H192C192 405.1 105.1 319.1 0 319.1zM0 415.1v96h96C96 458.1 52.1 415.1 0 415.1zM0 223.1v63.88c123.8 0 224.1 100.4 224.1 224.1H288C288 352.1 159 223.1 0 223.1z"/><path class="fa-secondary" d="M640 223.1c0-8.757-3.597-17.32-10.29-23.5l-53.71-49.58V47.99c0-8.838-7.06-16.01-15.9-16.01l-32.1 .0123c-8.836 0-15.1 7.162-15.1 15.1v43.85l-90.29-83.35c-6.127-5.656-13.89-8.486-21.67-8.486c-.0027 0 .0027 0 0 0c-7.785 0-15.61 2.828-21.73 8.486L170.3 200.5C163.6 206.7 160 215.2 160 223.1c0 8.313 2.801 12.57 3.088 13.2C172.7 242.9 181.1 249.1 190.9 255.8C191.3 255.8 191.6 255.1 191.1 255.1l2.49 2.49c51.48 39.59 90.79 94.21 110.7 157.5l222.8-.0021c26.4 0 48.01-21.61 48.01-48.01l-.0811-111.1h32.01C625.8 255.1 640 241.6 640 223.1zM447.1 271.1c0 8.875-7.125 16-16 16h-64c-8.875 0-16-7.126-16-16V207.1c0-8.875 7.176-16.01 16.05-16.01h64.01c8.875 0 15.94 7.132 15.94 16.01V271.1z"/></svg>