<svg xmlns="http://www.w3.org/2000/svg" viewBox="0 0 576 512"><!--! Font Awesome Pro 6.0.0-alpha3 by @fontawesome - https://fontawesome.com License - https://fontawesome.com/license (Commercial License) --><defs><style>.fa-secondary{opacity:.4}</style></defs><path class="fa-primary" d="M565.1 231.9l-53.08-46.45l.0036-137.5c0-8.828-7.156-16-15.1-16l-63.1-.0078c-8.842 0-15.1 7.172-15.1 16v53.49l-106.9-93.55c-6.031-5.281-13.55-7.919-21.08-7.919S272.1 2.641 266.9 7.922L10.92 231.9C2.657 239.2 .0007 248.6 .0007 256c0 24.27 21.99 31.1 32 31.1c7.477 0 14.99-2.604 21.08-7.908L288 74.54l234.9 205.6c6.078 5.312 13.6 7.907 21.07 7.907c9.839 0 32.01-7.732 32.01-31.1C575.1 248.6 573.3 239.1 565.1 231.9zM235.1 256l60.12 119.3l-104.1 64L229.2 512h90.49l-39.87-55.25l104.1-64L235.1 256z"/><path class="fa-secondary" d="M511.1 270.5L511.1 448c0 35.35-28.65 64-63.1 64h-128.3l-39.87-55.25l104.1-64L235.1 256l60.12 119.3l-104.1 64L229.2 512h-101.2c-35.35 0-63.1-28.65-63.1-64l.0109-177.5L288 74.54L511.1 270.5z"/></svg>