<svg xmlns="http://www.w3.org/2000/svg" viewBox="0 0 640 512"><!--! Font Awesome Pro 6.0.0-alpha3 by @fontawesome - https://fontawesome.com License - https://fontawesome.com/license (Commercial License) --><defs><style>.fa-secondary{opacity:.4}</style></defs><path class="fa-primary" d="M215.5 105.1c-13.31-12.11-33.65-12.11-46.96 0L17.14 242.7C6.223 252.6 0 266.7 0 281.4l0 195.7c0 19.28 15.63 34.91 34.91 34.91h314.2c19.28 0 34.91-15.6 34.91-34.88L384 281.2c-.002-14.73-6.179-28.55-17.08-38.46L215.5 105.1zM240 368c0 8.875-7.125 16-16 16H160c-8.875 0-16-7.125-16-16v-64c0-8.875 7.132-16.01 16.01-16.01h64.01C232.9 288 240 295.1 240 304V368z"/><path class="fa-secondary" d="M606.8 512h-200.9c6.281-10.19 10.09-22.06 10.09-34.88L416 281.3c-.0039-23.62-10.06-46.3-27.59-62.24l-101.1-91.89l109.5-118.9c9.998-11 28.5-11 38.5 0l134.1 146.5c13.5 14.75 2 37.25-19.37 37.25h-44.75l94.87 111.5c16.25 19.25 2.375 48.5-23.25 48.5h-35.1l89.87 103.6C650.5 477.4 635.4 512 606.8 512z"/></svg>