<svg xmlns="http://www.w3.org/2000/svg" viewBox="0 0 576 512"><!--! Font Awesome Pro 6.0.0-alpha3 by @fontawesome - https://fontawesome.com License - https://fontawesome.com/license (Commercial License) --><defs><style>.fa-secondary{opacity:.4}</style></defs><path class="fa-primary" d="M565.1 231.9l-53.08-46.45l.0036-137.5c0-8.828-7.156-15.1-15.1-15.1l-63.1-.0074c-8.842 0-15.1 7.172-15.1 15.1v53.49l-106.9-93.55c-6.031-5.281-13.55-7.919-21.08-7.919s-15.05 2.638-21.08 7.919L10.92 231.9C2.657 239.2 .0005 248.6 .0005 256c0 24.27 21.99 31.1 32 31.1c7.477 0 14.99-2.603 21.08-7.908L288 74.54l234.9 205.6c6.078 5.312 13.6 7.907 21.07 7.907c9.839 0 32.01-7.732 32.01-31.1C575.1 248.6 573.3 239.1 565.1 231.9zM384 294h-54V240c0-8.838-7.164-16-16-16h-52c-8.836 0-16 7.162-16 16v54h-54c-8.836 0-16 7.162-16 16v52c0 8.836 7.164 16 16 16h54V432c0 8.836 7.164 16 16 16h52c8.836 0 16-7.164 16-16v-54h54c8.836 0 16-7.164 16-16v-52C400 301.2 392.9 294 384 294z"/><path class="fa-secondary" d="M288 74.54L64.02 270.5l-.0108 177.5c0 35.35 28.65 63.1 63.1 63.1h319.1c35.35 0 63.1-28.65 63.1-63.1l-.002-177.5L288 74.54zM400 362c0 8.836-7.164 16-16 16h-54V432c0 8.836-7.164 16-16 16h-52c-8.836 0-16-7.164-16-16v-54h-54c-8.836 0-16-7.164-16-16v-52c0-8.838 7.164-16 16-16h54V240c0-8.838 7.164-16 16-16h52c8.836 0 16 7.162 16 16v54h54c8.836 0 16 7.162 16 16V362z"/></svg>