<svg xmlns="http://www.w3.org/2000/svg" viewBox="0 0 640 512"><!--! Font Awesome Pro 6.0.0-alpha3 by @fontawesome - https://fontawesome.com License - https://fontawesome.com/license (Commercial License) --><defs><style>.fa-secondary{opacity:.4}</style></defs><path class="fa-primary" d="M629.3 448L592 448V288c0-17.67-12.89-31.1-28.8-31.1h-230.4C316.9 256 304 270.3 304 288v159.1L266.7 448C260.8 448 256 452.8 256 458.7v10.67c.0527 23.47 19.13 42.58 42.6 42.67h298.8C620.9 511.9 639.9 492.8 640 469.3v-10.67C640 452.8 635.2 448 629.3 448zM544 448h-192V304h192V448z"/><path class="fa-secondary" d="M480 224h-147.2c-17.79 0-33.67 8.232-44.8 21.1l.0026-37.1c0-8.875-7.125-15.1-16-15.1H207.1c-8.875 0-16 7.125-16 15.1V272c0 8.873 7.125 15.1 16 15.1l64-.0003l-.001 127.1l-160-.0149c-26.4 0-48-21.6-48-47.1l.0029-111.1h-31.1C14.21 256 0 241.6 0 224C0 215.2 3.598 206.7 10.29 200.5l208-191.1c6.127-5.656 13.92-8.501 21.7-8.501c.0027 0-.0027 0 0 0c7.787 0 15.57 2.845 21.7 8.501l90.29 83.35V48.01c0-8.834 7.164-15.1 15.1-15.1h32c8.838 0 16 7.163 16 15.1v102.9l53.71 49.58C476.4 206.7 479.1 215.3 480 224z"/></svg>