<svg xmlns="http://www.w3.org/2000/svg" viewBox="0 0 576 512"><!--! Font Awesome Pro 6.0.0-alpha3 by @fontawesome - https://fontawesome.com License - https://fontawesome.com/license (Commercial License) --><defs><style>.fa-secondary{opacity:.4}</style></defs><path class="fa-primary" d="M575.1 256c0 24.48-22.19 31.1-32.01 31.1c-7.469 0-14.99-2.595-21.07-7.907L288 74.54L53.08 280.1C46.99 285.4 39.48 287.1 32 287.1c-9.626-.0021-32-7.621-32-31.1c0-7.38 2.671-16.86 10.92-24.09l255.1-223.1c6.031-5.281 13.55-7.919 21.08-7.919s15.05 2.638 21.08 7.919l106.9 93.55V47.98c0-8.828 7.156-15.1 15.1-15.1l63.1 .0074c8.844 0 15.1 7.172 15.1 15.1l-.0036 137.5l53.08 46.45C573.3 239.2 575.1 248.6 575.1 256z"/><path class="fa-secondary" d="M288 74.54L64.02 270.5l-.0108 177.5c0 35.35 28.65 63.1 63.1 63.1h319.1c35.35 0 63.1-28.65 63.1-63.1l-.002-177.5L288 74.54zM351.2 346.6c0 11.88-9.625 21.38-21.38 21.38H244.6c-11.75 0-21.37-9.625-21.37-21.38V261.4C223.2 249.5 232.8 240 244.6 240h85.24c11.75 0 21.38 9.5 21.38 21.38V346.6z"/></svg>