<svg xmlns="http://www.w3.org/2000/svg" viewBox="0 0 384 512"><!--! Font Awesome Pro 6.0.0-alpha3 by @fontawesome - https://fontawesome.com License - https://fontawesome.com/license (Commercial License) --><defs><style>.fa-secondary{opacity:.4}</style></defs><path class="fa-primary" d="M210.8 480H162.1C99.19 480 48 428.8 48 365.9c0-39.34 20.81-76.58 54.31-97.19l147.2-80.72C262.9 179.8 272 163.4 272 146.1C272 118.5 249.5 96 221.9 96H173.3C152.9 96 133 104.3 118.6 118.6c-12.5 12.5-32.75 12.5-45.25 0s-12.5-32.75 0-45.25C100 46.69 135.5 32 173.3 32h48.64C284.8 32 336 83.19 336 146.1c0 39.34-20.81 76.58-54.31 97.19l-147.2 80.72C121.1 332.3 112 348.6 112 365.9C112 393.5 134.5 416 162.1 416h48.64c20.33 0 40.25-8.25 54.63-22.62c12.5-12.5 32.75-12.5 45.25 0s12.5 32.75 0 45.25C283.1 465.3 248.5 480 210.8 480z"/><path class="fa-secondary" d="M384 208c0-17.67-14.33-32-32-32h-20.11c-7.09 25.8-23.23 48.64-45.55 64H352C369.7 240 384 225.7 384 208zM32 240h122.7l94.88-52.02C254.3 185 258.3 180.7 261.8 176H32c-17.67 0-32 14.33-32 32S14.33 240 32 240zM0 304c0 17.67 14.33 32 32 32h20.11c7.09-25.8 23.23-48.64 45.55-64H32C14.33 272 0 286.3 0 304zM352 272h-122.7l-94.88 52.02C129.7 326.1 125.7 331.3 122.2 336H352c17.67 0 32-14.33 32-32S369.7 272 352 272z"/></svg>