<svg xmlns="http://www.w3.org/2000/svg" viewBox="0 0 576 512"><!--! Font Awesome Pro 6.0.0-alpha3 by @fontawesome - https://fontawesome.com License - https://fontawesome.com/license (Commercial License) --><defs><style>.fa-secondary{opacity:.4}</style></defs><path class="fa-primary" d="M512 315V352c0 17.67-14.33 32-32 32H64c-17.67 0-32-14.33-32-32V144.3c0-28.5 18.88-53.63 46.38-61.5L256 32V16C256 7.199 263.2 0 272 0h32C312.8 0 320 7.199 320 16V96H272C263.2 96 256 103.2 256 112C256 120.8 263.2 128 272 128H320v32H272C263.2 160 256 167.2 256 176C256 184.8 263.2 192 272 192H320l119.3 29.88C482 232.6 512 270.9 512 315z"/><path class="fa-secondary" d="M560 416H544c-8.801 0-16 7.199-16 16v7.1C528 453.3 517.3 464 504 464H432V384H384v80H144V384H96v80H32c-17.6 0-32 14.4-32 32C0 504.8 7.199 512 16 512H512c35.2 0 64-28.8 64-64v-16C576 423.2 568.8 416 560 416zM272 128H320V96H272C263.2 96 256 103.2 256 112S263.2 128 272 128zM272 192H320V160H272C263.2 160 256 167.2 256 176S263.2 192 272 192z"/></svg>