<svg xmlns="http://www.w3.org/2000/svg" viewBox="0 0 448 512"><!--! Font Awesome Pro 6.0.0-alpha3 by @fontawesome - https://fontawesome.com License - https://fontawesome.com/license (Commercial License) --><defs><style>.fa-secondary{opacity:.4}</style></defs><path class="fa-primary" d="M368.2 256l-115.6 237.7C247.5 504.9 236.3 511.1 224 511.1s-23.5-7.126-28.62-18.25L79.82 256H368.2z"/><path class="fa-secondary" d="M368 160.1h-1c.6437-5.545 .9598-11.08 .9598-16.57c0-36.61-29.23-143.6-143.1-143.6c-115.7 0-143.1 107.2-143.1 143.6c0 5.496 .3162 11.03 .9598 16.57H80c-26.5 0-48.04 21.48-48.04 47.94s21.36 47.92 47.86 47.92h288.4c26.5 0 47.86-21.46 47.86-47.92S394.5 160.1 368 160.1z"/></svg>