<svg xmlns="http://www.w3.org/2000/svg" viewBox="0 0 576 512"><!--! Font Awesome Pro 6.0.0-alpha3 by @fontawesome - https://fontawesome.com License - https://fontawesome.com/license (Commercial License) --><defs><style>.fa-secondary{opacity:.4}</style></defs><path class="fa-primary" d="M480 319.1V191.1l65.74-.0039C540.2 180.9 534.2 170.2 527.4 159.1L352 159.1V39.37c-10.48-2.381-21.12-4.299-32-5.502v126.1l-271.4-.0049C41.79 170.2 35.76 180.9 30.26 191.1L96 191.1v127.1l-95.1 .002l-.0003 32l176 .0024l.0078 127.1H208V336C208 291.8 243.8 256 288 256s80 35.82 80 80v143.1l32-.0146v-127.1l176-.0024l-.0003-32L480 319.1zM448 319.1l-49.62-.0146C390.5 265.8 344.3 224 288 224S185.5 265.8 177.6 319.1L128 319.1V191.1h320V319.1z"/><path class="fa-secondary" d="M320 33.87C309.5 32.74 298.8 32 288 32c-99.74 0-187.8 50.75-239.4 127.1L320 159.1V33.87zM352 39.37v120.6l175.4-.0049C487.3 99.87 424.7 55.87 352 39.37zM480 319.1l95.1 .002c-.0039-45.99-11.14-89.38-30.26-128L480 191.1V319.1zM96 191.1L30.26 191.1c-19.12 38.62-30.26 82.01-30.26 128L96 319.1V191.1zM400 351.1v127.1L528 480c26.51 0 48-21.49 48-48v-80.01L400 351.1zM176 351.1L0 351.1V432C0 458.5 21.49 480 48 480l128-.0146L176 351.1zM448 191.1H128v127.1l49.62-.0146C185.5 265.8 231.7 224 288 224s102.5 41.85 110.4 95.97L448 319.1V191.1z"/></svg>