<svg xmlns="http://www.w3.org/2000/svg" viewBox="0 0 320 512"><!--! Font Awesome Pro 6.0.0-alpha3 by @fontawesome - https://fontawesome.com License - https://fontawesome.com/license (Commercial License) --><defs><style>.fa-secondary{opacity:.4}</style></defs><path class="fa-primary" d="M320 64c0 17.67-14.33 32-32 32h-56.38C246.1 118.9 256 146.4 256 176c0 73.22-54.94 133.9-125.8 142.8l144.3 103.1c14.39 10.28 17.72 30.27 7.453 44.64C275.8 475.3 265.1 480 255.1 480c-6.438 0-12.94-1.938-18.57-5.953l-224-160C2.078 305.1-2.719 291.5 1.531 278.2C5.766 264.1 18.09 256 32 256h80C156.1 256 192 220.1 192 176S156.1 96 112 96H32C14.33 96 0 81.67 0 64s14.33-32 32-32h256C305.7 32 320 46.33 320 64z"/><path class="fa-secondary" d="M32 144c-17.67 0-32 14.33-32 32s14.33 32 32 32h153.2C189.5 198.2 192 187.4 192 176s-2.473-22.18-6.781-32H32zM288 144h-35.94C254.4 154.3 256 164.1 256 176c0 11.05-1.619 21.66-3.986 32H288c17.67 0 32-14.33 32-32S305.7 144 288 144z"/></svg>