<svg xmlns="http://www.w3.org/2000/svg" viewBox="0 0 512 512"><!--! Font Awesome Pro 6.0.0-alpha3 by @fontawesome - https://fontawesome.com License - https://fontawesome.com/license (Commercial License) --><defs><style>.fa-secondary{opacity:.4}</style></defs><path class="fa-primary" d="M128 480l-96 0c-17.67 0-32-14.33-32-32v-384c0-17.67 14.33-32 32-32h96c17.67 0 32 14.33 32 32V448C160 465.7 145.7 480 128 480z"/><path class="fa-secondary" d="M512 152v295.1c0 17.67-14.33 32-32 32L128 480c17.67 0 32-14.33 32-32V223.1l139.1-92.24C315.1 121.6 336 133.1 336 152V223.1l139.1-92.24C491.1 121.6 512 133.1 512 152z"/></svg>