<svg xmlns="http://www.w3.org/2000/svg" viewBox="0 0 512 512"><!--! Font Awesome Pro 6.0.0-alpha3 by @fontawesome - https://fontawesome.com License - https://fontawesome.com/license (Commercial License) --><defs><style>.fa-secondary{opacity:.4}</style></defs><path class="fa-primary" d="M475.1 131.8L336 223.1V152c0-18.88-20.88-30.37-36.88-20.25L160 223.1v-160c0-17.67-14.33-32-32-32H32c-17.67 0-32 14.33-32 32v384c0 17.67 14.33 32 32 32h448c17.67 0 32-14.33 32-32V152C512 133.1 491.1 121.6 475.1 131.8zM404 384h-40C357.4 384 352 378.6 352 372v-40C352 325.4 357.4 320 364 320h40C410.6 320 416 325.4 416 332v40C416 378.6 410.6 384 404 384zM276 384h-40C229.4 384 224 378.6 224 372v-40C224 325.4 229.4 320 236 320h40C282.6 320 288 325.4 288 332v40C288 378.6 282.6 384 276 384zM148 384h-40C101.4 384 96 378.6 96 372v-40C96 325.4 101.4 320 108 320h40C154.6 320 160 325.4 160 332v40C160 378.6 154.6 384 148 384z"/><path class="fa-secondary" d="M404 384h-40C357.4 384 352 378.6 352 372v-40C352 325.4 357.4 320 364 320h40C410.6 320 416 325.4 416 332v40C416 378.6 410.6 384 404 384zM276 384h-40C229.4 384 224 378.6 224 372v-40C224 325.4 229.4 320 236 320h40C282.6 320 288 325.4 288 332v40C288 378.6 282.6 384 276 384zM148 384h-40C101.4 384 96 378.6 96 372v-40C96 325.4 101.4 320 108 320h40C154.6 320 160 325.4 160 332v40C160 378.6 154.6 384 148 384z"/></svg>