<svg xmlns="http://www.w3.org/2000/svg" viewBox="0 0 384 512"><!--! Font Awesome Pro 6.0.0-alpha3 by @fontawesome - https://fontawesome.com License - https://fontawesome.com/license (Commercial License) --><defs><style>.fa-secondary{opacity:.4}</style></defs><path class="fa-primary" d="M340.8 423.7c13.44 11.5 15 31.69 3.469 45.09C337.1 476.2 328.1 480 319.1 480c-7.375 0-14.78-2.531-20.81-7.719l-171.2-146.7V448c0 17.69-14.31 32-31.1 32s-32-14.31-32-32V64c0-17.69 14.31-32 32-32s31.1 14.31 31.1 32v122.5l171.2-146.7c13.41-11.5 33.66-10 45.09 3.469c11.53 13.41 9.969 33.59-3.469 45.09L145.2 256L340.8 423.7z"/><path class="fa-secondary" d="M0 256C0 273.7 14.31 288 32 288h32V224H32C14.31 224 0 238.3 0 256zM352 224H182.5L145.2 256l37.33 32H352c17.69 0 32-14.31 32-31.1S369.7 224 352 224z"/></svg>