<svg xmlns="http://www.w3.org/2000/svg" viewBox="0 0 640 512"><!--! Font Awesome Pro 6.0.0-alpha3 by @fontawesome - https://fontawesome.com License - https://fontawesome.com/license (Commercial License) --><defs><style>.fa-secondary{opacity:.4}</style></defs><path class="fa-primary" d="M154.7 228l-58.69 38.86L37.31 228C21.31 217.5 0 228.8 0 247.8v80.32c0 19 21.36 30.35 37.31 19.8L95.1 309.2l58.69 38.84c15.95 10.55 37.31-.79 37.31-19.8V247.8C191.1 228.8 170.6 217.5 154.7 228zM630.6 9.37C624.6 3.36 616.5-.0124 608 0h-262.5c-9.306 .0137-18.13 4.068-24.22 11.11l153.8 153.8L239.1 400.1c5.849 5.851 14.3 8.277 22.36 6.42l353.8-81.62c5.078-1.172 9.775-3.607 13.7-7.03l-153.9-153.8L630.6 9.37z"/><path class="fa-secondary" d="M71.1 251l24 15.86l24-15.86L120 224c0-48.6-39.4-88.01-88-88.01L16 136c-8.837 0-16 7.162-16 15.1v16c0 8.837 7.163 16 16 16L32 184c22.09 0 40 17.91 40 40L71.1 251zM630.6 9.37l-155.6 155.6l153.9 153.8C635.1 312.6 640 303.8 640 294.5v-262.5C640 23.51 636.6 15.37 630.6 9.37zM321.3 11.11c-3.411 3.927-5.819 8.611-7.005 13.68L234.2 371.9L146.7 459.4c-6.093 6.092-15.99 6.089-22.08-.0034c-2.917-2.918-4.525-6.887-4.533-11.01l-.035-123.4L95.1 309.2l-24 15.84L72 443.3c0 16.55 5.033 33.03 15.73 45.74c26.48 31.53 69 28.24 92.87 4.322l87.47-87.52l-6.66 1.525c-8.062 1.857-16.51-.5693-22.36-6.42l235.1-235.1L321.3 11.11z"/></svg>