<svg xmlns="http://www.w3.org/2000/svg" viewBox="0 0 576 512"><!--! Font Awesome Pro 6.0.0-alpha3 by @fontawesome - https://fontawesome.com License - https://fontawesome.com/license (Commercial License) --><defs><style>.fa-secondary{opacity:.4}</style></defs><path class="fa-primary" d="M463.1 112l-15.76 .0135c-52.8-.0692-104.3-16.2-147.7-46.25c-4.06-2.813-8.21-5.468-12.5-7.948C258.8 40.94 225.7 31.95 191.1 31.1c-105.1 0-191.1 86.01-191.1 192s85.98 191.1 191.1 191.1c33.71 .0536 66.85-8.811 96.02-25.69c2.83-1.61 5.627-3.506 8.347-5.276c45.67-29.73 97.57-48.94 151.1-49.04l15.65 .0041c61.86 0 112-50.14 112-111.1S525.9 112 463.1 112zM463.1 248c-13.25 0-23.1-10.74-23.1-23.1c0-13.25 10.74-23.1 23.1-23.1s23.1 10.74 23.1 23.1C487.1 237.3 477.2 248 463.1 248z"/><path class="fa-secondary" d="M143.1 409.8l-.0008 54.17c0 8.837-7.163 15.1-15.1 15.1L112 480c-8.837 0-15.1-7.162-15.1-15.1l-.0004-73.92C111 398.8 127.2 405.5 143.1 409.8zM575.1 224c.0018 58.22-44.6 106.7-102.6 111.6l72.56 136C548.7 476.8 554.1 480 559.1 480c1.332-.0036 2.625-.1715 3.916-.5c7.087-1.806 12.09-8.186 12.09-15.5L575.1 224zM207.1 415.3L207.1 464c0 8.837 7.163 15.1 15.1 15.1L239.1 480c8.837 0 15.1-7.162 15.1-15.1l.0055-58.95C240.5 410.5 224.4 413.1 207.1 415.3z"/></svg>