<svg xmlns="http://www.w3.org/2000/svg" viewBox="0 0 512 512"><!--! Font Awesome Pro 6.0.0-alpha3 by @fontawesome - https://fontawesome.com License - https://fontawesome.com/license (Commercial License) --><defs><style>.fa-secondary{opacity:.4}</style></defs><path class="fa-primary" d="M48 256h416C472.8 256 480 248.8 480 240v-32C480 199.3 472.8 192 464 192h-18.88C431.6 111.8 368.3 48.38 288 34.88V16C288 7.25 280.8 0 272 0h-32C231.3 0 224 7.25 224 16v18.88C143.8 48.38 80.38 111.8 66.88 192H48C39.25 192 32 199.3 32 208v32C32 248.8 39.25 256 48 256z"/><path class="fa-secondary" d="M512 464v32c0 8.799-7.199 16-16 16h-480C7.199 512 0 504.8 0 496v-32C0 455.2 7.199 448 16 448H32v-32c0-17.67 14.33-32 32-32V256h64v128h96V256h64v128h96V256h64v128c17.67 0 32 14.33 32 32v32h16C504.8 448 512 455.2 512 464z"/></svg>