<svg xmlns="http://www.w3.org/2000/svg" viewBox="0 0 384 512"><!--! Font Awesome Pro 6.0.0-alpha3 by @fontawesome - https://fontawesome.com License - https://fontawesome.com/license (Commercial License) --><defs><style>.fa-secondary{opacity:.4}</style></defs><path class="fa-primary" d="M384 448c0 17.69-14.33 32-32 32H181.6c-.6875 .0449-1.291 .375-1.988 .375c-1.047 0-2.094-.0625-3.172-.1562C176.1 480.2 175.7 480 175.3 480H32c-17.67 0-32-14.31-32-32s14.33-32 32-32h16.97C18.45 382 0 337.4 0 288.7c0-106.1 88.08-192.3 196.3-192.3c84.14 0 158.8 52.44 185.9 130.4c5.797 16.72-3.047 34.94-19.75 40.72c-16.67 5.844-34.92-3.031-40.72-19.72c-18.14-52.31-68.55-87.44-125.4-87.44C123.4 160.4 64 217.1 64 288.8C64 354 113.7 408.1 179.1 416H352C369.7 416 384 430.3 384 448z"/><path class="fa-secondary" d="M144 32c-17.67 0-32 14.31-32 32v51.29c19.78-9.271 41.27-15.58 64-17.88V64C176 46.31 161.7 32 144 32zM112 256c0 17.69 14.33 32 32 32s32-14.31 32-32V162.4c-24.2 3.662-45.1 13.69-64 28.29V256zM208 256c0 17.69 14.33 32 32 32s32-14.31 32-32V183.5c-18.61-12.59-40.59-20.26-64-22.27V256zM240 32c-17.67 0-32 14.31-32 32v33.28c22.44 1.314 43.95 6.309 64 14.55V64C272 46.31 257.7 32 240 32z"/></svg>