<svg xmlns="http://www.w3.org/2000/svg" viewBox="0 0 512 512"><!--! Font Awesome Pro 6.0.0-alpha3 by @fontawesome - https://fontawesome.com License - https://fontawesome.com/license (Commercial License) --><defs><style>.fa-secondary{opacity:.4}</style></defs><path class="fa-primary" d="M342.5 214.7C342.6 214.6 342.4 214.8 342.5 214.7l128.1-128.1c12.5-12.5 12.5-32.75 0-45.25s-32.75-12.5-45.25 0L297.3 169.5c-.0742 .0742 .0742-.0762 0 0C317.1 178.1 333 194.9 342.5 214.7zM169.5 297.3C169.4 297.4 169.6 297.2 169.5 297.3l-128.1 128.1c-12.5 12.5-12.5 32.75 0 45.25C47.63 476.9 55.81 480 64 480s16.38-3.125 22.62-9.375l128.1-128.1c.0742-.0742-.0742 .0762 0 0C194.9 333 178.1 317.1 169.5 297.3zM342.5 297.3C342.4 297.2 342.6 297.4 342.5 297.3c-9.463 19.78-25.43 35.74-45.21 45.21c.0742 .0762-.0742-.0742 0 0l128.1 128.1C431.6 476.9 439.8 480 448 480s16.38-3.125 22.62-9.375c12.5-12.5 12.5-32.75 0-45.25L342.5 297.3zM86.63 41.38c-12.5-12.5-32.75-12.5-45.25 0s-12.5 32.75 0 45.25L169.5 214.7c.0742 .0742-.0762-.0742 0 0c9.463-19.78 25.43-35.74 45.21-45.21c-.0742-.0762 .0742 .0742 0 0L86.63 41.38z"/><path class="fa-secondary" d="M214.7 169.5C227.2 163.5 241.2 160 256 160s28.76 3.51 41.29 9.502c.0742-.0762-.0742 .0742 0 0l115.5-115.6C369.5 20.26 315.2 0 256 0S142.5 20.26 99.2 53.95L214.7 169.5C214.8 169.6 214.6 169.4 214.7 169.5zM169.5 297.3C163.5 284.8 160 270.8 160 256s3.51-28.76 9.502-41.29c-.0762-.0742 .0742 .0742 0 0L53.95 99.2C20.26 142.5 0 196.8 0 256s20.26 113.5 53.95 156.8L169.5 297.3C169.6 297.2 169.4 297.4 169.5 297.3zM458.1 99.2l-115.6 115.5c-.0742 .0742 .0762-.0742 0 0C348.5 227.2 352 241.2 352 256s-3.51 28.76-9.502 41.29c.0762 .0742-.0742-.0742 0 0l115.6 115.5C491.7 369.5 512 315.2 512 256S491.7 142.5 458.1 99.2zM297.3 342.5C284.8 348.5 270.8 352 256 352s-28.76-3.51-41.29-9.502c-.0742 .0762 .0742-.0742 0 0l-115.5 115.6C142.5 491.7 196.8 512 256 512s113.5-20.26 156.8-53.95L297.3 342.5C297.2 342.4 297.4 342.6 297.3 342.5z"/></svg>