<svg xmlns="http://www.w3.org/2000/svg" viewBox="0 0 320 512"><!--! Font Awesome Pro 6.0.0-alpha3 by @fontawesome - https://fontawesome.com License - https://fontawesome.com/license (Commercial License) --><defs><style>.fa-secondary{opacity:.4}</style></defs><path class="fa-primary" d="M288 480H32c-12.41 0-23.72-7.188-28.97-18.44c-5.281-11.22-3.562-24.5 4.375-34.06c28.25-33.84 43.78-76.56 43.78-120.2V157.3C51.19 88.22 108.3 32 178.6 32c13.66 0 27.19 2.156 40.19 6.375l79.19 25.94c16.78 5.5 25.94 23.56 20.44 40.38c-5.5 16.75-23.53 26.03-40.38 20.44l-79.13-25.91C192.4 97.09 185.5 96 178.6 96C143.6 96 115.2 123.5 115.2 157.3v149.1c0 37.75-8.625 74.91-24.88 108.7H288c17.69 0 32 14.31 32 32S305.7 480 288 480z"/><path class="fa-secondary" d="M0 320c0 17.69 14.31 32 32 32h13.02c3.641-14.63 6.168-29.53 6.168-44.72V288H32C14.31 288 0 302.3 0 320zM256 224c0-17.69-14.31-32-32-32H115.2v64H224C241.7 256 256 241.7 256 224zM0 224c0 17.69 14.31 32 32 32h19.19V192H32C14.31 192 0 206.3 0 224zM224 288H115.2v19.28c0 15.08-1.748 30-4.439 44.72H224c17.69 0 32-14.31 32-32S241.7 288 224 288z"/></svg>