<svg xmlns="http://www.w3.org/2000/svg" viewBox="0 0 512 512"><!--! Font Awesome Pro 6.0.0-alpha3 by @fontawesome - https://fontawesome.com License - https://fontawesome.com/license (Commercial License) --><defs><style>.fa-secondary{opacity:.4}</style></defs><path class="fa-primary" d="M447.1 32h-384c-35.35 0-64 28.65-64 64v320c0 35.35 28.65 64 64 64h384c35.35 0 64-28.65 64-64V96C511.1 60.65 483.3 32 447.1 32zM359.1 96h80.01c7.125 0 10.69 8.625 5.625 13.62l-40 40.01c-3.127 3.125-8.127 3.125-11.25 0l-40-40.01C349.7 105 352.2 96 359.1 96zM447.1 416h-384V192h384V416z"/><path class="fa-secondary" d="M128 280h256c13.25 0 24-10.75 24-24c0-13.26-10.75-24-24-24H128C114.7 232 104 242.7 104 256C104 269.3 114.7 280 128 280zM384 328H128c-13.25 0-24 10.74-24 24c0 13.25 10.75 24 24 24h256c13.25 0 24-10.75 24-24C408 338.7 397.3 328 384 328z"/></svg>