<svg xmlns="http://www.w3.org/2000/svg" viewBox="0 0 384 512"><!--! Font Awesome Pro 6.0.0-alpha3 by @fontawesome - https://fontawesome.com License - https://fontawesome.com/license (Commercial License) --><defs><style>.fa-secondary{opacity:.4}</style></defs><path class="fa-primary" d="M352 480H96c-17.67 0-32-14.31-32-32V64c0-17.69 14.33-32 32-32s32 14.31 32 32v352h224c17.67 0 32 14.31 32 32S369.7 480 352 480z"/><path class="fa-secondary" d="M1.234 264.8C5.25 278.8 18.06 288 31.98 288C34.89 288 37.86 287.6 40.8 286.8L64 280.2V213.6L23.2 225.2C6.219 230.1-3.625 247.8 1.234 264.8zM286.8 183.2c-4.859-17-22.52-26.66-39.56-22L128 195.3v66.59l136.8-39.08C281.8 217.9 291.6 200.2 286.8 183.2z"/></svg>