<svg xmlns="http://www.w3.org/2000/svg" viewBox="0 0 640 512"><!--! Font Awesome Pro 6.0.0-alpha3 by @fontawesome - https://fontawesome.com License - https://fontawesome.com/license (Commercial License) --><defs><style>.fa-secondary{opacity:.4}</style></defs><path class="fa-primary" d="M630.8 469.1L38.81 5.109C34.41 1.672 29.19 0 24.03 0C16.91 0 9.846 3.156 5.127 9.187C-3.061 19.62-1.248 34.72 9.189 42.89l591.1 463.1c10.5 8.203 25.56 6.328 33.69-4.078C643.1 492.4 641.2 477.3 630.8 469.1z"/><path class="fa-secondary" d="M319.1 .0016c-70.83 0-132.4 38.58-165.6 95.67L244.6 166.4c10.74-31.52 40.3-54.38 75.42-54.38c44.12 0 79.1 35.88 79.1 79.1c0 28.26-14.78 53.02-36.97 67.23l94.03 73.7c43.88-65.2 54.94-92.33 54.94-140.9C511.1 85.97 426 .0016 319.1 .0016zM300.3 501.7c9.531 13.77 29.91 13.77 39.44 0c24.04-34.84 44.56-64.11 62.53-89.72L128.1 197.1C129.4 270.4 158.3 295.9 300.3 501.7z"/></svg>