<svg xmlns="http://www.w3.org/2000/svg" viewBox="0 0 640 512"><!--! Font Awesome Pro 6.0.0-alpha3 by @fontawesome - https://fontawesome.com License - https://fontawesome.com/license (Commercial License) --><defs><style>.fa-secondary{opacity:.4}</style></defs><path class="fa-primary" d="M634.9 502.8c-8.125 10.41-23.19 12.28-33.69 4.078L9.189 42.89c-10.44-8.172-12.25-23.26-4.062-33.7C9.846 3.156 16.91 0 24.03 0c5.156 0 10.37 1.672 14.78 5.109l591.1 463.1C641.2 477.3 643.1 492.4 634.9 502.8z"/><path class="fa-secondary" d="M300.3 501.7c9.531 13.77 29.91 13.77 39.44 0c24.04-34.84 44.56-64.11 62.53-89.72L128.1 197.1C129.4 270.4 158.3 295.8 300.3 501.7zM319.1 .0016c-70.83 0-132.4 38.57-165.6 95.67l302.7 237.3c43.88-65.2 54.94-92.33 54.94-140.9C511.1 85.97 426 .0016 319.1 .0016z"/></svg>