<svg xmlns="http://www.w3.org/2000/svg" viewBox="0 0 384 512"><!--! Font Awesome Pro 6.0.0-alpha3 by @fontawesome - https://fontawesome.com License - https://fontawesome.com/license (Commercial License) --><defs><style>.fa-secondary{opacity:.4}</style></defs><path class="fa-primary" d="M293.9 166.9L176.8 283.3c-6.326 6.287-16.58 6.287-22.9 0L90.08 219.9c-6.326-6.281-6.326-16.48 0-22.77l11.44-11.38c6.328-6.289 16.59-6.289 22.91 0l40.89 40.65l94.24-93.66c6.328-6.287 16.58-6.287 22.9 0l11.45 11.38C300.3 150.4 300.3 160.6 293.9 166.9z"/><path class="fa-secondary" d="M192 0C85.97 0 0 85.97 0 192c0 77.41 26.97 99.03 172.3 309.7c9.531 13.77 29.91 13.77 39.44 0C357 291 384 269.4 384 192C384 85.97 298 0 192 0zM293.9 166.9L176.8 283.3c-6.326 6.287-16.58 6.287-22.9 0L90.08 219.9c-6.326-6.281-6.326-16.48 0-22.77l11.44-11.38c6.328-6.289 16.59-6.289 22.91 0l40.89 40.65l94.24-93.66c6.328-6.287 16.58-6.287 22.9 0l11.45 11.38C300.3 150.4 300.3 160.6 293.9 166.9z"/></svg>