<svg xmlns="http://www.w3.org/2000/svg" viewBox="0 0 384 512"><!--! Font Awesome Pro 6.0.0-alpha3 by @fontawesome - https://fontawesome.com License - https://fontawesome.com/license (Commercial License) --><defs><style>.fa-secondary{opacity:.4}</style></defs><path class="fa-primary" d="M192 240c13.25 0 24-10.75 24-24v-112c0-13.25-10.75-24-24-24S168 90.75 168 104v112C168 229.3 178.8 240 192 240zM192 272c-17.67 0-32 14.33-32 32c0 17.67 14.33 32 32 32s32-14.33 32-32C224 286.3 209.7 272 192 272z"/><path class="fa-secondary" d="M192 0C86.38 0 0 86.38 0 191.1c0 76.74 25.62 99.24 172.8 310.3c9.625 12.88 28.88 12.88 38.5 0C358.4 291.2 384 268.7 384 191.1C384 86.38 297.6 0 192 0zM168 104C168 90.75 178.8 80 192 80s24 10.75 24 24v112c0 13.25-10.75 24-24 24S168 229.3 168 216V104zM192 336c-17.67 0-32-14.33-32-32c0-17.67 14.33-32 32-32s32 14.33 32 32C224 321.7 209.7 336 192 336z"/></svg>