<svg xmlns="http://www.w3.org/2000/svg" viewBox="0 0 384 512"><!--! Font Awesome Pro 6.0.0-alpha3 by @fontawesome - https://fontawesome.com License - https://fontawesome.com/license (Commercial License) --><defs><style>.fa-secondary{opacity:.4}</style></defs><path class="fa-primary" d="M272 215.1H215.1V272C215.1 285.3 205.3 296 192 296c-13.27 0-23.1-10.74-23.1-23.1V215.1H111.1C98.73 215.1 88 205.3 88 192c0-13.26 10.74-23.1 23.1-23.1H168V111.1C168 98.74 178.7 88 192 88s23.1 10.74 23.1 23.1V168h56C285.3 168 296 178.7 296 192S285.3 215.1 272 215.1z"/><path class="fa-secondary" d="M192 0C85.97 0 0 85.97 0 192c0 77.41 26.97 99.03 172.3 309.7c9.531 13.77 29.91 13.77 39.44 0C357 291 384 269.4 384 192C384 85.97 298 0 192 0zM272 215.1H215.1V272C215.1 285.3 205.3 296 192 296c-13.27 0-23.1-10.74-23.1-23.1V215.1H111.1C98.73 215.1 88 205.3 88 192c0-13.26 10.74-23.1 23.1-23.1H168V111.1C168 98.74 178.7 88 192 88s23.1 10.74 23.1 23.1V168h56C285.3 168 296 178.7 296 192S285.3 215.1 272 215.1z"/></svg>