<svg xmlns="http://www.w3.org/2000/svg" viewBox="0 0 384 512"><!--! Font Awesome Pro 6.0.0-alpha3 by @fontawesome - https://fontawesome.com License - https://fontawesome.com/license (Commercial License) --><defs><style>.fa-secondary{opacity:.4}</style></defs><path class="fa-primary" d="M280.1 117.1l-14.07-14.07c-9.373-9.375-24.57-9.375-33.94 0l-21.65 21.65l48.01 48.01l21.65-21.65C290.3 141.7 290.3 126.5 280.1 117.1zM108.9 227.1C107.2 228.7 106.1 230.9 105.6 233.2L96.12 280.8C95.28 284.1 99.02 288.7 103.2 287.9l47.58-9.524c2.322-.4687 4.455-1.605 6.131-3.281l79.77-79.76l-48.01-48.01L108.9 227.1z"/><path class="fa-secondary" d="M192 0C85.97 0 0 85.97 0 192c0 77.41 26.97 99.03 172.3 309.7c9.531 13.77 29.91 13.77 39.44 0C357 291 384 269.4 384 192C384 85.97 298 0 192 0zM156.9 275.1c-1.676 1.678-3.809 2.816-6.131 3.281L103.2 287.9C99.02 288.7 95.28 284.1 96.12 280.8l9.522-47.58c.4648-2.322 1.607-4.459 3.283-6.133l79.76-79.77l48.01 48.01L156.9 275.1zM280.1 151l-21.65 21.65l-48.01-48.01l21.65-21.65c9.371-9.373 24.57-9.373 33.94 0l14.07 14.07C290.3 126.5 290.3 141.7 280.1 151z"/></svg>