<svg xmlns="http://www.w3.org/2000/svg" viewBox="0 0 384 512"><!--! Font Awesome Pro 6.0.0-alpha3 by @fontawesome - https://fontawesome.com License - https://fontawesome.com/license (Commercial License) --><defs><style>.fa-secondary{opacity:.4}</style></defs><path class="fa-primary" d="M240 191.1c0 26.51-21.49 48-48 48S144 218.5 144 191.1S165.5 143.1 192 143.1S240 165.5 240 191.1z"/><path class="fa-secondary" d="M192 0C85.97 0 0 85.97 0 192c0 77.41 26.97 99.03 172.3 309.7c9.531 13.77 29.91 13.77 39.44 0C357 291 384 269.4 384 192C384 85.97 298 0 192 0zM192 271.1c-44.13 0-80-35.88-80-80S147.9 111.1 192 111.1s80 35.88 80 80S236.1 271.1 192 271.1z"/></svg>