<svg xmlns="http://www.w3.org/2000/svg" viewBox="0 0 384 512"><!--! Font Awesome Pro 6.0.0-alpha3 by @fontawesome - https://fontawesome.com License - https://fontawesome.com/license (Commercial License) --><defs><style>.fa-secondary{opacity:.4}</style></defs><path class="fa-primary" d="M256 133.2c14.75 0 26.75 11.1 26.75 26.74c0 14.75-12 26.75-26.75 26.75s-26.75-11.1-26.75-26.75C229.3 145.2 241.3 133.2 256 133.2zM128 133.2c14.75 0 26.75 11.1 26.75 26.74c0 14.75-12 26.75-26.75 26.75s-26.75-11.1-26.75-26.75C101.3 145.2 113.3 133.2 128 133.2zM292.3 274.1C267.3 303.2 230.8 319.1 192 319.1S116.8 303.3 91.78 274.1c-5.75-6.75-5-16.9 1.875-22.53c6.625-5.75 16.75-5 22.5 1.75c18.75 21.1 46.5 34.62 75.75 34.62c29.38 0 56.97-12.62 75.84-34.75c5.75-6.625 15.91-7.5 22.53-1.75C297.2 257.2 297.9 267.4 292.3 274.1z"/><path class="fa-secondary" d="M192 0C86.38 0 0 86.37 0 191.1c0 76.75 25.62 99.25 172.8 310.4c9.625 12.88 28.88 12.88 38.5 0C358.4 291.2 384 268.7 384 191.1C384 86.37 297.6 0 192 0zM256 133.2c14.75 0 26.75 11.1 26.75 26.74c0 14.75-12 26.75-26.75 26.75s-26.75-11.1-26.75-26.75C229.3 145.2 241.3 133.2 256 133.2zM128 133.2c14.75 0 26.75 11.1 26.75 26.74c0 14.75-12 26.75-26.75 26.75s-26.75-11.1-26.75-26.75C101.3 145.2 113.3 133.2 128 133.2zM292.3 274.1C267.3 303.2 230.8 319.1 192 319.1S116.8 303.3 91.78 274.1c-5.75-6.75-5-16.9 1.875-22.53c6.625-5.75 16.75-5 22.5 1.75c18.75 21.1 46.5 34.62 75.75 34.62c29.38 0 56.97-12.63 75.84-34.75c5.75-6.625 15.91-7.5 22.53-1.75C297.2 257.2 297.9 267.4 292.3 274.1z"/></svg>