<svg xmlns="http://www.w3.org/2000/svg" viewBox="0 0 640 512"><!--! Font Awesome Pro 6.0.0-alpha3 by @fontawesome - https://fontawesome.com License - https://fontawesome.com/license (Commercial License) --><defs><style>.fa-secondary{opacity:.4}</style></defs><path class="fa-primary" d="M615.1 512c-5.188 0-10.39-1.651-14.8-5.12L9.189 42.89c-10.42-8.156-12.24-23.26-4.068-33.7C13.31-1.217 28.35-3.102 38.81 5.116l591.1 463.1c10.42 8.156 12.24 23.26 4.068 33.7C630.1 508.8 623.1 512 615.1 512z"/><path class="fa-secondary" d="M319.1 383.1c-70.75 0-127.1-57.25-127.1-127.1c0-2.809 .6484-5.437 .8262-8.203L136.1 203.3c-1.947 6.812-3.988 13.59-5.182 20.7H95.1c-17.67 0-32.01 14.33-32.01 31.1c0 17.67 14.34 32 32.01 32h34.88c13.5 80.37 76.75 143.6 157.1 157.1v34.87c0 17.67 14.32 32 31.99 32c17.67 0 32.01-14.33 32.01-32v-34.87c22.76-3.82 43.85-12.03 63.12-23.08l-56.79-44.52C346.2 381.4 333.4 383.1 319.1 383.1zM407.1 256c0-48.52-39.48-87.1-87.1-87.1c-19.33 0-37.1 6.419-51.63 17.02l133 104.2C405.6 278.1 407.1 267.8 407.1 256zM543.1 224h-34.88c-13.5-80.37-76.75-143.6-157.1-157.1V32c0-17.67-14.34-32-32.01-32c-17.67 0-31.99 14.33-31.99 32v34.87C248.2 73.57 213.3 93.17 185.9 120.4l50.39 39.49c27.89-24.31 65.86-37.35 107.4-29.69c44.76 8.265 82.5 41.67 97.28 84.72c12.69 36.95 7.034 70.86-7.674 99.36l50.91 39.9c12.12-19.98 20.91-42.19 24.94-66.18h34.88c17.67 0 31.99-14.33 31.99-32C575.1 238.3 561.7 224 543.1 224z"/></svg>