<svg xmlns="http://www.w3.org/2000/svg" viewBox="0 0 384 512"><!--! Font Awesome Pro 6.0.0-alpha3 by @fontawesome - https://fontawesome.com License - https://fontawesome.com/license (Commercial License) --><defs><style>.fa-secondary{opacity:.4}</style></defs><path class="fa-primary" d="M336 480c-17.67 0-32-14.31-32-32V272C304 210.3 253.8 160 192 160S80 210.3 80 272V448c0 17.69-14.33 32-32 32s-32-14.31-32-32V272C16 174.1 94.95 96 192 96s176 78.97 176 176V448C368 465.7 353.7 480 336 480z"/><path class="fa-secondary" d="M160 165.2V448c0 17.69 14.33 32 32 32s32-14.31 32-32V165.2C213.8 162.2 203.2 160 192 160S170.2 162.2 160 165.2zM192 32C174.3 32 160 46.31 160 64v35.06C170.4 97.14 181.1 96 192 96s21.61 1.139 32 3.059V64C224 46.31 209.7 32 192 32z"/></svg>