<svg xmlns="http://www.w3.org/2000/svg" viewBox="0 0 576 512"><!--! Font Awesome Pro 6.0.0-alpha3 by @fontawesome - https://fontawesome.com License - https://fontawesome.com/license (Commercial License) --><defs><style>.fa-secondary{opacity:.4}</style></defs><path class="fa-primary" d="M408 120c0 48.38-16.86 61.9-107.7 193.5c-5.957 8.602-18.69 8.602-24.65 0C184.9 181.9 168 168.4 168 120C168 53.73 221.7 0 288 0C354.3 0 408 53.73 408 120z"/><path class="fa-secondary" d="M576 176v253.5c0 6.543-3.982 12.43-10.06 14.86L384 512l-192-64l-169.1 62.83C11.49 515 0 507.3 0 495.1V242.4c0-6.543 3.984-12.43 10.06-14.86l137.6-50.02c10.37 23.3 28.68 49.7 60.02 94.35c11.77 16.77 25.56 36.41 41.69 59.79C258.1 344.4 272.6 352 288 352s29.86-7.567 38.63-20.24c16.16-23.43 70.4-100.8 80.42-116.3l147-54.32C564.6 156.1 576 164.7 576 176z"/></svg>