<svg xmlns="http://www.w3.org/2000/svg" viewBox="0 0 320 512"><!--! Font Awesome Pro 6.0.0-alpha3 by @fontawesome - https://fontawesome.com License - https://fontawesome.com/license (Commercial License) --><defs><style>.fa-secondary{opacity:.4}</style></defs><path class="fa-primary" d="M160-.0002c-79.53 0-144 64.47-144 144S80.47 288 160 288s144-64.47 144-144S239.5-.0002 160-.0002zM160 79.1c-35.28 0-64 28.72-64 64c0 8.844-7.156 16-16 16S64 152.8 64 143.1c0-52.94 43.06-96 96-96c8.844 0 16 7.156 16 15.1S168.8 79.1 160 79.1z"/><path class="fa-secondary" d="M192 284.1v176.1c0 4.965-1.156 9.868-3.379 14.31l-14.31 28.62c-5.896 11.79-22.72 11.79-28.62 0l-14.31-28.62C129.2 470.1 128 465.2 128 460.2V284.1c10.32 2.352 20.96 3.852 32 3.852S181.7 286.5 192 284.1z"/></svg>