<svg xmlns="http://www.w3.org/2000/svg" viewBox="0 0 576 512"><!--! Font Awesome Pro 6.0.0-alpha3 by @fontawesome - https://fontawesome.com License - https://fontawesome.com/license (Commercial License) --><defs><style>.fa-secondary{opacity:.4}</style></defs><path class="fa-primary" d="M560 32h-32C519.1 32 512 39.13 512 48v416c0 8.875 7.125 16 16 16h32c8.875 0 16-7.125 16-16v-416C576 39.13 568.9 32 560 32zM32 160C14.33 160 0 174.3 0 192v128c0 17.67 14.33 32 32 32s32-14.33 32-32V192C64 174.3 49.67 160 32 160z"/><path class="fa-secondary" d="M64 192v128l101.5 33.13C162.3 362.9 160 373.1 160 384c0 53 43 96 96 96c44.5 0 81.63-30.62 92.5-71.75L512 464v-416L64 192zM256 432c-26.5 0-48-21.5-48-48c0-5.1 1.25-11.75 3.25-17.12l91.5 27.62C297.1 415.9 278.9 432 256 432z"/></svg>