<svg xmlns="http://www.w3.org/2000/svg" viewBox="0 0 384 512"><!--! Font Awesome Pro 6.0.0-alpha3 by @fontawesome - https://fontawesome.com License - https://fontawesome.com/license (Commercial License) --><defs><style>.fa-secondary{opacity:.4}</style></defs><path class="fa-primary" d="M384 208V416c0 17.69-14.31 32-32 32s-32-14.31-32-32V208C320 181.5 298.5 160 272 160S224 181.5 224 208V416c0 17.69-14.31 32.06-32 32.06S160 433.7 160 416V208C160 181.5 138.5 160 112 160S64 181.5 64 208V416c0 17.69-14.31 32-32 32s-32-14.31-32-32V128c0-17.69 14.31-32 32-32c11.06 0 20.32 5.945 26.07 14.46C74.14 101.5 92.35 96 112 96C143.4 96 171.6 109 192 129.9C212.4 109 240.6 96 272 96C333.8 96 384 146.3 384 208z"/><path class="fa-secondary" d="M160 250.1l-70.47 219.2c-5.406 16.81 3.844 34.84 20.69 40.25C113.5 511.5 116.8 512 120 512c13.53 0 26.09-8.625 30.47-22.22l17.23-53.62C163.1 430.6 160 423.8 160 416V250.1zM273.8 1.531c-16.72-5.344-34.81 3.812-40.25 20.69l-31.99 99.52C220.9 105.9 245.1 96 272 96c1.672 0 3.229 .4219 4.883 .4941l17.59-54.71C299.9 24.97 290.6 6.938 273.8 1.531z"/></svg>