<svg xmlns="http://www.w3.org/2000/svg" viewBox="0 0 576 512"><!--! Font Awesome Pro 6.0.0-alpha3 by @fontawesome - https://fontawesome.com License - https://fontawesome.com/license (Commercial License) --><defs><style>.fa-secondary{opacity:.4}</style></defs><path class="fa-primary" d="M316.4 281.6h-9.242V201.1C307.2 196.5 302.7 192 297.2 192h-28.44C265.1 192 262.3 194.2 260.6 197.4L250.7 215.9c-1.555 3.109-1.398 6.844 .4629 9.801c1.713 2.801 4.982 4.666 8.4 4.666h9.275v51.2H259.6c-5.443 0-9.957 4.514-9.957 9.957v18.49C249.6 315.5 254.1 320 259.6 320h56.89c5.445 0 9.957-4.512 9.957-9.957V291.6C326.4 286.1 321.9 281.6 316.4 281.6zM528 64h-480C21.49 64 0 85.49 0 112v288C0 426.5 21.49 448 48 448h480c26.51 0 48-21.49 48-48v-288C576 85.49 554.5 64 528 64zM528 336c-35.38 0-64 28.62-64 64h-352c0-35.38-28.62-64-64-64v-160c35.38 0 64-28.62 64-64h352c0 35.38 28.62 64 64 64V336z"/><path class="fa-secondary" d="M464 112h-352c0 35.38-28.62 64-64 64v160c35.38 0 64 28.62 64 64h352c0-35.38 28.62-64 64-64v-160C492.6 176 464 147.4 464 112zM288 371.2c-53.02 0-96-51.58-96-115.2c0-63.62 42.98-115.2 96-115.2S384 192.4 384 256C384 319.6 341 371.2 288 371.2z"/></svg>