<svg xmlns="http://www.w3.org/2000/svg" viewBox="0 0 640 512"><!--! Font Awesome Pro 6.0.0-alpha3 by @fontawesome - https://fontawesome.com License - https://fontawesome.com/license (Commercial License) --><defs><style>.fa-secondary{opacity:.4}</style></defs><path class="fa-primary" d="M528 351.1L288 352c-8.836 0-16 7.162-16 16C272 376.8 279.2 384 288 384l240-.0005c8.838 0 16-7.164 16-16C544 359.2 536.8 351.1 528 351.1zM288 288h32V256H288C279.2 256 272 263.2 272 272C272 280.8 279.2 288 288 288zM600.5 39.38L568.6 7.5c-9.875-10-26-10-36 0l-27.25 27.25l67.88 67.88l27.25-27.25C610.5 65.38 610.5 49.25 600.5 39.38zM356.7 182.3C353.7 185.3 352 189.4 352 193.7V256h62.34c4.264 0 8.35-1.703 11.35-4.727l124.9-126l-67.88-67.88L356.7 182.3z"/><path class="fa-secondary" d="M585.6 135.6l-137.2 138.3C439.4 282.8 427 288 414.3 288H288C279.2 288 272 280.8 272 272C272 263.2 279.2 256 288 256h32V193.7c0-12.69 5.163-25.1 14.2-34.08L366.1 128H80C53.6 128 32 149.6 32 176v288C32 490.4 53.6 512 80 512h480c26.4 0 48-21.6 48-48v-288C608 159 598.1 144.1 585.6 135.6zM237.6 362.1c-3.604 20.82-19.34 34.52-41.58 39.33V412c0 11.05-8.988 20-20.03 20s-19.97-8.953-19.97-20v-11.06c-8.707-1.934-17.37-4.752-25.16-7.568l-4.031-1.453C116.4 388.2 111 376.8 114.7 366.4c3.688-10.42 15.2-15.81 25.53-12.16l4.234 1.516c7.844 2.828 16.73 6.047 23.67 7.078c13.61 2.156 28.72 .2187 30.08-7.547c.8594-5 1.344-7.75-27.75-16.08l-5.75-1.656c-17.28-5.078-57.73-16.98-50.34-59.66c3.613-20.88 19.33-34.77 41.67-39.54V228c0-11.05 8.918-20 19.97-20s20.03 8.953 20.03 20v10.95C201.5 240.2 207.3 241.7 214.4 244.2c10.44 3.609 15.97 15 12.34 25.44c-3.609 10.44-14.98 15.97-25.44 12.34C195.5 279.1 189.3 278 183.7 277.2c-13.5-2.109-28.59-.1875-29.95 7.562C153 289.1 152.5 292.3 176 299.2l5.469 1.578C203.7 307.1 245.1 318.9 237.6 362.1zM528 383.1L288 384c-8.836 0-16-7.164-16-16C272 359.2 279.2 352 288 352l240-.0005c8.838 0 16 7.162 16 16C544 376.8 536.8 383.1 528 383.1z"/></svg>