<svg xmlns="http://www.w3.org/2000/svg" viewBox="0 0 576 512"><!--! Font Awesome Pro 6.0.0-alpha3 by @fontawesome - https://fontawesome.com License - https://fontawesome.com/license (Commercial License) --><defs><style>.fa-secondary{opacity:.4}</style></defs><path class="fa-primary" d="M240 319.1h-160c-8.836 0-15.1 7.164-15.1 16s7.164 16 15.1 16h160c8.838 0 16-7.164 16-16S248.8 319.1 240 319.1zM304 224h-224C71.16 224 64 231.2 64 240S71.16 256 79.1 256h224C312.8 256 320 248.8 320 240S312.8 224 304 224zM496 319.1h-96c-8.836 0-16 7.164-16 16s7.164 16 16 16h96c8.838 0 16-7.164 16-16S504.8 319.1 496 319.1z"/><path class="fa-secondary" d="M528 64h-480C21.6 64 0 85.6 0 112v288C0 426.5 21.49 448 48 448h480c26.51 0 48-21.49 48-48v-288C576 85.49 554.5 64 528 64zM240 351.1h-160c-8.836 0-15.1-7.164-15.1-16s7.164-16 15.1-16h160c8.838 0 16 7.164 16 16S248.8 351.1 240 351.1zM304 256h-224C71.16 256 64 248.8 64 240S71.16 224 79.1 224h224C312.8 224 320 231.2 320 240S312.8 256 304 256zM496 351.1h-96c-8.836 0-16-7.164-16-16s7.164-16 16-16h96c8.838 0 16 7.164 16 16S504.8 351.1 496 351.1zM512 240C512 248.8 504.8 256 496 256h-96C391.2 256 384 248.8 384 240v-32C384 199.2 391.2 192 400 192h96C504.8 192 512 199.2 512 208V240z"/></svg>