<svg xmlns="http://www.w3.org/2000/svg" viewBox="0 0 576 512"><!--! Font Awesome Pro 6.0.0-alpha3 by @fontawesome - https://fontawesome.com License - https://fontawesome.com/license (Commercial License) --><defs><style>.fa-secondary{opacity:.4}</style></defs><path class="fa-primary" d="M528 64h-480C21.49 64 0 85.49 0 112v288C0 426.5 21.49 448 48 448h480c26.51 0 48-21.49 48-48v-288C576 85.49 554.5 64 528 64zM528 336c-35.38 0-64 28.62-64 64h-352c0-35.38-28.62-64-64-64v-160c35.38 0 64-28.62 64-64h352c0 35.38 28.62 64 64 64V336z"/><path class="fa-secondary" d="M464 112h-352c0 35.38-28.62 64-64 64v160c35.38 0 64 28.62 64 64h352c0-35.38 28.62-64 64-64v-160C492.6 176 464 147.4 464 112zM288 352c-44.18 0-80-42.98-80-96c0-53.02 35.82-96 80-96s80 42.98 80 96C368 309 332.2 352 288 352z"/></svg>