<svg xmlns="http://www.w3.org/2000/svg" viewBox="0 0 640 512"><!--! Font Awesome Pro 6.0.0-alpha3 by @fontawesome - https://fontawesome.com License - https://fontawesome.com/license (Commercial License) --><defs><style>.fa-secondary{opacity:.4}</style></defs><path class="fa-primary" d="M592 32h-448C117.5 32 96 53.49 96 80v256C96 362.5 117.5 384 144 384h448c26.51 0 48-21.49 48-48v-256C640 53.49 618.5 32 592 32zM592 272c-35.38 0-64 28.62-64 64h-320c0-35.38-28.62-64-64-64v-128c35.38 0 64-28.62 64-64h320c0 35.38 28.62 64 64 64V272z"/><path class="fa-secondary" d="M528 80h-320c0 35.38-28.62 64-64 64v128c35.38 0 64 28.62 64 64h320c0-35.38 28.62-64 64-64v-128C556.6 144 528 115.4 528 80zM367.1 304c-44.18 0-80-42.98-80-96c0-53.02 35.82-96 80-96s80 42.98 80 96C447.1 261 412.2 304 367.1 304zM512 480H120C53.83 480 0 426.2 0 360v-240C0 106.8 10.75 96 24 96S48 106.8 48 120v240c0 39.7 32.3 72 72 72H512c13.25 0 24 10.75 24 24S525.3 480 512 480z"/></svg>