<svg xmlns="http://www.w3.org/2000/svg" viewBox="0 0 576 512"><!--! Font Awesome Pro 6.0.0-alpha3 by @fontawesome - https://fontawesome.com License - https://fontawesome.com/license (Commercial License) --><defs><style>.fa-secondary{opacity:.4}</style></defs><path class="fa-primary" d="M559 54.5C524.1 38.25 489.2 32 454.3 32C343.5 32 232.5 94.38 121.7 94.38c-27.79 0-55.57-4-83.36-13.75C35.21 79.5 32.06 79 29.03 79C13.5 79 0 92.38 0 110.8v317.4c0 12.62 6.525 24.5 16.99 29.38C51.86 473.8 86.85 480 121.7 480c110.8 0 221.7-62.38 332.6-62.38c27.79 0 55.57 4 83.36 13.75c3.15 1.125 6.301 1.625 9.338 1.625C562.5 433 576 419.6 576 401.1V83.88C576 71.25 569.5 59.38 559 54.5zM528 320c-30.62 0-56.15 21.54-62.44 50.28c-3.799-.1289-7.42-.6543-11.28-.6543c-62.03 0-121.6 16.77-179.3 32.98C221.3 417.7 170.5 432 121.7 432c-6.389 0-12.27-1.089-18.4-1.597C103.5 428.3 104 426.2 104 424c0-32.61-24.47-59.22-56-63.19V192c30.62 0 56.15-21.54 62.44-50.28C114.2 141.8 117.9 142.4 121.7 142.4c62.03 0 121.6-16.77 179.3-32.98C354.7 94.28 405.5 80 454.3 80c6.389 0 12.27 1.089 18.4 1.597C472.5 83.73 472 85.8 472 88c0 32.61 24.47 59.22 56 63.19V320z"/><path class="fa-secondary" d="M472 88c0-2.195 .4505-4.268 .6751-6.403C466.5 81.09 460.7 80 454.3 80c-48.78 0-99.54 14.28-153.3 29.39C243.4 125.6 183.8 142.4 121.7 142.4c-3.863 0-7.482-.5254-11.28-.6543C104.2 170.5 78.63 192 48 192v168.8C79.53 364.8 104 391.4 104 424c0 2.195-.4505 4.268-.6751 6.403C109.5 430.9 115.3 432 121.7 432c48.78 0 99.54-14.28 153.3-29.39c57.64-16.21 117.2-32.98 179.3-32.98c3.861 0 7.482 .5254 11.28 .6543C471.8 341.5 497.4 320 528 320V151.2C496.5 147.2 472 120.6 472 88zM288 352c-44.18 0-79.1-42.98-79.1-96c0-53.02 35.82-96 79.1-96s79.1 42.98 79.1 96C367.1 309 332.2 352 288 352z"/></svg>