<svg xmlns="http://www.w3.org/2000/svg" viewBox="0 0 640 512"><!--! Font Awesome Pro 6.0.0-alpha3 by @fontawesome - https://fontawesome.com License - https://fontawesome.com/license (Commercial License) --><defs><style>.fa-secondary{opacity:.4}</style></defs><path class="fa-primary" d="M356.7 182.3C353.7 185.3 352 189.4 352 193.7V256h62.34c4.264 0 8.35-1.703 11.35-4.727l124.9-126l-67.88-67.88L356.7 182.3zM600.5 39.38L568.6 7.5C563.7 2.5 557.2 0 550.7 0s-13.05 2.5-18.05 7.5l-27.25 27.25l67.88 67.88l27.25-27.25C610.5 65.38 610.5 49.25 600.5 39.38zM112 288h128C248.8 288 256 280.8 256 272S248.8 256 240 256h-128C103.2 256 96 263.2 96 272S103.2 288 112 288zM528 352h-416C103.2 352 96 359.2 96 368S103.2 384 112 384h416c8.836 0 16-7.164 16-16S536.8 352 528 352z"/><path class="fa-secondary" d="M585.6 135.6l-137.2 138.3C439.4 282.8 427 288 414.3 288H320V193.7c0-12.69 5.163-25.1 14.2-34.08L366.1 128H80C53.6 128 32 149.6 32 176v288C32 490.4 53.6 512 80 512h480c26.4 0 48-21.6 48-48v-288C608 159 598.1 144.1 585.6 135.6zM112 256h128C248.8 256 256 263.2 256 272S248.8 288 240 288h-128C103.2 288 96 280.8 96 272S103.2 256 112 256zM528 384h-416C103.2 384 96 376.8 96 368S103.2 352 112 352h416c8.836 0 16 7.164 16 16S536.8 384 528 384z"/></svg>