<svg xmlns="http://www.w3.org/2000/svg" viewBox="0 0 640 512"><!--! Font Awesome Pro 6.0.0-alpha3 by @fontawesome - https://fontawesome.com License - https://fontawesome.com/license (Commercial License) --><defs><style>.fa-secondary{opacity:.4}</style></defs><path class="fa-primary" d="M549.5 267.3C529.4 280.3 505.6 288 480 288c-56.63 0-104.3-37.25-121.1-88.38C262.9 224.9 192 312 192 416v32c-17.62 0-32-14.38-32-32V180.7c0-41.84-30.03-80.04-71.66-84.27C40.49 91.56 0 129.1 0 175.1V224c0 17.62 14.38 32 32 32s32-14.38 32-32V176C64 167.1 71.13 160 80 160S96 167.1 96 176V416c0 53.02 42.98 96 96 96h240c8.875 0 16-7.125 16-16c0-26.4-21.6-48-48-48H352l155.6-103.8l34.75 104L544 458.4V480c0 17.67 14.33 32 32 32s32-14.33 32-32v-21.62C608 448 606.4 437.8 603 428L549.5 267.3zM592 64h-21.88C556.9 26.75 521.8 0 480 0s-76.88 26.75-90.13 64H368C341.5 64 320 85.48 320 111.1S341.5 160 368 160H384c0 53 43 96 96 96s96-43.04 96-96.04L592 160C618.5 160 640 138.5 640 111.1S618.5 64 592 64zM528 157.1V176C528 202.5 506.5 224 480 224s-48-21.49-48-48V157.1c-18.6-6.611-32-24.19-32-45.06C400 85.49 421.5 64 448 64h64c26.51 0 48 21.49 48 48C560 132.9 546.6 150.5 528 157.1z"/><path class="fa-secondary" d="M512 64h-64c-26.51 0-48 21.49-48 48c0 20.87 13.4 38.45 32 45.06V176C432 202.5 453.5 224 480 224s48-21.49 48-48V157.1c18.6-6.611 32-24.19 32-45.06C560 85.49 538.5 64 512 64zM440 120c-8.875 0-16-7.125-16-16s7.125-16 16-16s16 7.125 16 16S448.9 120 440 120zM520 120c-8.875 0-16-7.125-16-16s7.125-16 16-16s16 7.125 16 16S528.9 120 520 120z"/></svg>