<svg xmlns="http://www.w3.org/2000/svg" viewBox="0 0 640 512"><!--! Font Awesome Pro 6.0.0-alpha3 by @fontawesome - https://fontawesome.com License - https://fontawesome.com/license (Commercial License) --><defs><style>.fa-secondary{opacity:.4}</style></defs><path class="fa-primary" d="M0 480c0 17.62 14.38 32 32 32h64c17.62 0 32-14.38 32-32V128H0V480zM608 288H192c-17.6 0-32 14.4-32 32v192h64v-64c0-17.62 14.38-32 32-32s32 14.38 32 32v64h64v-72c0-48 48-72 48-72s48 24 48 72V512h64v-64c0-17.62 14.38-32 32-32s32 14.38 32 32v64h64v-192C640 302.4 625.6 288 608 288z"/><path class="fa-secondary" d="M520.1 106.3c-42-26.5-80.63-57.88-112-96.25L400 0l-8.125 10c-31.38 38.38-70 69.75-112 96.25C233.8 135.3 192 176.3 192 229.1C192 250.6 203 270.6 220.9 288h358.3C597 270.6 608 250.6 608 229.1C608 176.3 566.3 135.3 520.1 106.3zM64 0c0 0-64 32-64 96v32h128V96C128 32 64 0 64 0z"/></svg>