<svg xmlns="http://www.w3.org/2000/svg" viewBox="0 0 448 512"><!--! Font Awesome Pro 6.0.0-alpha3 by @fontawesome - https://fontawesome.com License - https://fontawesome.com/license (Commercial License) --><defs><style>.fa-secondary{opacity:.4}</style></defs><path class="fa-primary" d="M352 480c-10.5 0-20.59-5.188-26.62-14.25L128 169.7V448c0 17.69-14.31 32-32 32s-32-14.31-32-32V64c0-14.09 9.219-26.53 22.72-30.62c13.47-4.094 28.09 1.156 35.91 12.88L320 342.3V64c0-17.69 14.31-32 32-32s32 14.31 32 32v384c0 14.09-9.219 26.53-22.72 30.62C358.2 479.6 355.1 480 352 480z"/><path class="fa-secondary" d="M128 256v64h100.2l-42.67-64H128zM0 288c0 17.69 14.31 32 32 32h32V256H32C14.31 256 0 270.3 0 288zM305.1 320H320V256h-57.54L305.1 320zM416 256h-32v64h32c17.69 0 32-14.31 32-32S433.7 256 416 256z"/></svg>