<svg xmlns="http://www.w3.org/2000/svg" viewBox="0 0 512 512"><!--! Font Awesome Pro 6.0.0-alpha3 by @fontawesome - https://fontawesome.com License - https://fontawesome.com/license (Commercial License) --><defs><style>.fa-secondary{opacity:.4}</style></defs><path class="fa-primary" d="M255.1 0C196.9 0 127.1 76.75 127.1 192h256C384 76.75 315.1 0 255.1 0zM.1074 175C-1.018 184.1 6.857 192 16.11 192h79.88c0-75.13 26-136.3 62.38-175.8C78.49 42.75 9.234 99.5 .1074 175zM353.6 16.25C390 55.75 416 116.9 416 192h79.8c9.375 0 17.21-7.75 16.08-17C502.8 99.38 433.5 42.62 353.6 16.25zM320 320H191.1c-17.67 0-32.03 14.33-32.03 32l.0056 128c0 17.67 14.33 32 32 32h128c17.67 0 32-14.33 32-32l-.0069-128C351.1 334.3 337.7 320 320 320z"/><path class="fa-secondary" d="M26.48 192l135.4 150.5c3.475-10.97 12.49-18.94 23.92-21.25L69.53 192H26.48zM442.5 192l-116.3 129.2c11.44 2.312 20.45 10.28 23.92 21.25L485.5 192H442.5zM239.1 320h32l-.0002-128H239.1L239.1 320z"/></svg>