<svg xmlns="http://www.w3.org/2000/svg" viewBox="0 0 320 512"><!--! Font Awesome Pro 6.0.0-alpha3 by @fontawesome - https://fontawesome.com License - https://fontawesome.com/license (Commercial License) --><defs><style>.fa-secondary{opacity:.4}</style></defs><path class="fa-primary" d="M73.61 385.7c-3.25 8.125-7.998 15.5-14.25 21.49l-49.99 50.12c-12.5 12.49-12.5 32.86 0 45.36c12.5 12.5 32.74 12.5 45.24 0l59.36-59.48c6.125-6 10.87-13.37 14.25-21.49l13.5-33.74c-55.36-60.23-38.74-41.74-47.49-53.74L73.61 385.7zM302.4 245.1l-23.24-11.88L269.4 203.9C254.7 159.3 213.7 128.1 167.2 128C131.2 127.9 111.4 138.1 73.98 153.3C52.36 161.9 34.74 178.4 24.24 199.4L17.62 213c-7.873 15.75-1.5 35 14.12 42.88c15.62 7.875 34.62 1.5 42.49-14.25l6.748-13.62c3.5-7 9.248-12.5 16.5-15.38L124.2 201.8L109.1 262.5C103.9 283.3 109.5 305.4 123.1 321.3l59.86 65.51c7.25 7.875 12.37 17.38 14.87 27.62l18.37 73.39c4.248 17 21.62 27.5 38.74 23.25s27.62-21.75 23.37-38.76L256.9 383.3c-2.625-10.38-7.748-20.01-14.87-27.76l-45.49-49.76l17.12-68.63l5.498 16.5c5.375 16.13 16.75 29.38 31.74 37.01l23.24 11.75c15.62 7.875 34.62 1.5 42.49-14.25C324.4 272.4 318.2 253 302.4 245.1z"/><path class="fa-secondary" d="M207.9 95.99c26.5 0 47.1-21.49 47.1-47.99S234.4 0 207.9 0S159.1 21.49 159.1 47.99S181.4 95.99 207.9 95.99z"/></svg>