<svg xmlns="http://www.w3.org/2000/svg" viewBox="0 0 576 512"><!--! Font Awesome Pro 6.0.0-alpha3 by @fontawesome - https://fontawesome.com License - https://fontawesome.com/license (Commercial License) --><defs><style>.fa-secondary{opacity:.4}</style></defs><path class="fa-primary" d="M186.3 332.1l-62.48 131.7h70.87l43.1-90.97l-21.99-12.1C204.1 352.9 194.1 343.4 186.3 332.1zM448 224l-43.9-.0392l-26.11-53.22c-12.49-25.48-35.47-44.18-61.75-50.87l-71.22-21.15c-28.12-6.803-57.8-.5794-80.75 17.03L124.6 146.2C110.4 156.9 107.9 176.1 118.6 191.1c10.71 14.16 30.79 16.1 44.94 6.283c1.197-.9062 2.328-1.893 3.387-2.957l36.38-27.89C210.1 160.7 220.7 158.6 228.6 160.5l14.73 4.383L205.8 252.2c-12.6 29.57-1.376 63.94 26.27 80.34l84.97 50.15l-25.49 81.2h66.98l23.6-75.48c5.873-20.91-2.984-43.18-21.61-54.37l-61.21-36.1l31.32-78.23l20.26 41.36c8.113 16.39 24.83 26.8 43.11 26.89l53.99-.0228c17.66 0 32.03-14.31 32.03-31.97C480 238.3 465.7 224 448 224z"/><path class="fa-secondary" d="M552 416c-13.25 0-24 10.75-24 24c-.0391 13.24-10.76 23.96-24 24h-69.5L460 285.6c-3.812 1.545-7.877 2.29-11.99 2.284L427.3 288l-25.16 176H99.5l52.21-260.9c-11.16 2.766-22.95-.6699-30.88-9L66.88 464H24C10.75 464 0 474.7 0 488S10.75 512 24 512h480c39.75-.0449 71.96-32.25 72-72C575.1 426.8 565.2 416 552 416zM336 96C362.5 96 384 74.51 384 48S362.5 0 336 0S288 21.49 288 48S309.5 96 336 96z"/></svg>