<svg xmlns="http://www.w3.org/2000/svg" viewBox="0 0 512 512"><!--! Font Awesome Pro 6.0.0-alpha3 by @fontawesome - https://fontawesome.com License - https://fontawesome.com/license (Commercial License) --><defs><style>.fa-secondary{opacity:.4}</style></defs><path class="fa-primary" d="M307.6 222.8c-7.752-6.123-17.93-8.244-27.49-5.773L211.8 234L187.7 180.3C176.8 156.2 148.4 145.4 124.2 156.3c-24.18 10.87-34.92 39.3-24.04 63.48l27.79 68.03c7.895 19.09 22.68 27.63 39.76 23.33l88.2-22.11v123.2l63.98-23.72V248C319.9 238.2 315.4 228.8 307.6 222.8z"/><path class="fa-secondary" d="M111.1 127.1c26.51 0 48.01-21.49 48.01-47.99S138.5 31.99 111.1 31.99S63.96 53.48 63.96 79.98S85.46 127.1 111.1 127.1zM255.1 0H223.1L223.1 183.9L255.1 175.9L255.1 0zM191.6 381.3c12.59-4.195 19.37-17.79 15.17-30.37s-17.8-19.42-30.39-15.23l-18.39 6.231c-19.13 6.354-40.04-2.552-48.74-20.73L45.69 188.2C39.98 176.2 25.65 171.2 13.68 176.9S-3.396 196.1 2.321 208.9l63.64 132.1c14.71 30.53 45.61 49.96 79.51 49.99C158 391.9 162.5 390.1 191.6 381.3zM488 287.9c-13.24 .0371-23.97 10.76-24 23.99c-.0488 13.94-8.7 26.38-21.77 31.26L111.6 465.4c-12.6 4.1-19.49 17.43-15.39 30.03s17.65 19.48 30.25 15.38c.5879-.1914 1.168-.4043 1.74-.6406l330.5-121.9c31.92-11.9 53.09-42.32 53.22-76.36C511.1 298.7 501.3 287.9 488 287.9z"/></svg>