<svg xmlns="http://www.w3.org/2000/svg" viewBox="0 0 448 512"><!--! Font Awesome Pro 6.0.0-alpha3 by @fontawesome - https://fontawesome.com License - https://fontawesome.com/license (Commercial License) --><defs><style>.fa-secondary{opacity:.4}</style></defs><path class="fa-primary" d="M173.8 276.8L80.2 370.5c-12.5 12.5-12.5 32.75 0 45.25c6.125 6.125 14.38 9.375 22.5 9.375c8.252 0 16.5-3.125 22.63-9.375l91.89-92L187.1 293.6C182.1 288.6 177.7 282.9 173.8 276.8zM332.6 96.03L127.1 96C110.2 96 95.96 110.3 95.96 128s14.24 32 31.99 32h105.5L213.3 177.3c-13.5 11.5-21.63 28.38-22.25 46C190.3 241.1 197.2 258.5 209.7 271l78.26 78.25V432c0 17.75 14.25 32 32 32s32-14.25 32-32v-89.38c0-12.62-5.125-25-14.13-33.88L276.9 247.8c.5-.5 1.25-.625 1.75-1.125l82.26-82.37c11.5-11.5 14.88-28.5 8.751-43.5C363.4 105.8 348.9 96.03 332.6 96.03z"/><path class="fa-secondary" d="M399.1 448c-8.752 0-16 7.25-16 16S376.7 480 367.1 480h-96.01c-8.75 0-16 7.25-16 16s7.252 16 16 16h96.01c26.5 0 48.01-21.5 48.01-48C415.1 455.3 408.7 448 399.1 448zM117.7 456.6c-6.125 6.125-16.38 6.25-22.5 0l-67.98-67.89c-6.127-6.25-16.41-6.25-22.53 0c-6.25 6.125-6.25 16.41 0 22.53l67.88 67.98c9.377 9.375 21.59 14 33.96 14c12.25 0 24.63-4.75 33.88-14c6.25-6.25 6.25-16.5 0-22.62C134.2 450.4 124.1 450.3 117.7 456.6zM399.1 0c-26.5 0-48.01 21.5-48.01 48s21.5 48 48.01 48C426.5 96 448 74.5 448 48S426.5 0 399.1 0z"/></svg>