<svg xmlns="http://www.w3.org/2000/svg" viewBox="0 0 640 512"><!--! Font Awesome Pro 6.0.0-alpha3 by @fontawesome - https://fontawesome.com License - https://fontawesome.com/license (Commercial License) --><defs><style>.fa-secondary{opacity:.4}</style></defs><path class="fa-primary" d="M567.2 251.7L407.9 172l-41.52-83.13c-3.949-7.926-13.57-11.11-21.49-7.161c-7.926 3.949-11.11 13.56-7.161 21.49l35.56 71.19L287.1 288L95.1 288.1C83.87 288.1 72.78 294.9 67.39 305.8l-31.1 64C24.69 390.1 40.2 416 63.1 416h401.5c9.465 .0156 18.72-2.77 26.61-8l76.77-51.23C573.3 353.8 576 348.8 575.1 343.5V266C576 259.9 572.6 254.4 567.2 251.7z"/><path class="fa-secondary" d="M239.1 96c26.51 0 47.1-21.49 47.1-48S266.5 0 239.1 0S191.1 21.49 191.1 48S213.5 96 239.1 96zM287.1 448H32c-17.67 0-32 14.33-32 32c0 17.67 14.33 32 32 32h255.1c17.67 0 32-14.33 32-32C319.1 462.3 305.7 448 287.1 448zM636.8 446.4l-9.55-12.78c-3.004-4.041-7.759-6.431-12.79-6.423c-3.471 .002-6.882 1.116-9.657 3.198L570.7 456c-6.918 5.205-15.34 8.014-23.1 8h-.7256l-46.61-60.89L492.1 408c-7.887 5.23-17.14 8.016-26.61 8h-16.25l36.73 48h-53.99c-8.838 0-15.1 7.162-15.1 16l.0026 16c0 8.836 7.161 16 15.1 16h114.7c19.04-.0137 37.53-6.2 52.77-17.61l34.11-25.61C640.7 463.5 642.1 453.5 636.8 446.4zM245.1 136.8c-24.99-25-65.5-24.99-90.5 .001c-4.863 4.861-8.915 10.46-11.99 16.61L113.7 213.1C100.1 238.3 106.4 268.8 127.1 288.1L263.6 288L196.6 254.5L222.2 203.4l33.89 33.89c11.96 12.04 28.19 18.85 45.16 18.84h10.73L359.1 192h-58.72L245.1 136.8z"/></svg>