<svg xmlns="http://www.w3.org/2000/svg" viewBox="0 0 512 512"><!--! Font Awesome Pro 6.0.0-alpha3 by @fontawesome - https://fontawesome.com License - https://fontawesome.com/license (Commercial License) --><defs><style>.fa-secondary{opacity:.4}</style></defs><path class="fa-primary" d="M499.2 198.4l-111.5-83.48c-13.76-10.32-29.1-18.35-45.42-23.79l-63.66-21.23L252.5 17.77C244.5 3.126 226.5-2.828 211.3 4.057C195.2 11.34 188 30.28 195.3 46.38L224.4 104.5C230.1 115.9 240 124.5 252.1 128.5l16.45 5.522L227.3 154.6C205.6 165.4 191.8 187.6 191.9 211.8V264.9L117.8 289.6c0 0 .002-.002 0 0c-16.76 5.605-25.78 23.74-20.17 40.5c1.736 4.98 4.696 9.413 8.665 12.89l23.96 8.68c2.645-.0801 5.26-.5225 7.793-1.292l85-28.38c19.59-6.52 32.8-24.86 32.77-45.5v-20.5l60.51 45.27l-19.66 92c-1.311 6.734-.3398 13.79 2.74 19.92l42.27 15.31c9.035-4.113 15.6-12.21 17.78-21.89l21.88-101.1c3.875-18.28-3.196-37.15-18.12-48.4l-52.01-39l66.01-30.5l83.51 62.88c14.14 10.6 34.25 7.755 44.86-6.383C516.2 229.1 513.3 208.1 499.2 198.4z"/><path class="fa-secondary" d="M493.8 471.9c-5.607-12.01-19.79-17.21-31.81-11.6c-.002 0 .002-.002 0 0c-9.264 4.365-20.01 4.872-29.62 1.337L67.6 328.9c-9.656-3.475-17.56-10.68-21.85-19.1c-5.607-12.01-19.87-17.22-31.89-11.62c-12.02 5.605-17.22 19.95-11.62 31.96c9.645 20.88 27.24 36.98 48.89 44.76l364.1 132.8c9.52 3.477 19.45 5.244 29.58 5.275c12.63 .0156 25.1-2.82 36.5-8.232C494.2 498.1 499.4 483.9 493.8 471.9zM431.9 95.99c26.52 0 48-21.49 48-47.1S458.5 0 431.9 0c-26.52 0-48 21.49-48 47.1S405.4 95.99 431.9 95.99z"/></svg>