<svg xmlns="http://www.w3.org/2000/svg" viewBox="0 0 512 512"><!--! Font Awesome Pro 6.0.0-alpha3 by @fontawesome - https://fontawesome.com License - https://fontawesome.com/license (Commercial License) --><defs><style>.fa-secondary{opacity:.4}</style></defs><path class="fa-primary" d="M311.1 96.01H127.1c-17.67 0-32 14.33-32 31.99S110.3 160 127.1 160h97.5L166.6 236.5c-3.4 4.396 .1703-3.576-60.22 143.2c-4.961 12.05-2.03 25.92 7.337 34.99l60.27-30.99l44.89-108.1l121.4-110.5C347.7 156.8 352 146.6 352 135.1C351.1 113.9 334.1 95.1 311.1 96.01z"/><path class="fa-secondary" d="M510.7 190.2c-2.209-13.09-14.64-21.94-27.73-19.73c-13.09 2.209-21.94 14.65-19.73 27.73c3.301 19.3-5.931 38.87-22.03 48.08L12.95 466.7c-11.77 6.109-16.36 20.52-10.25 32.29C6.844 506.1 15.1 512 24.07 512c3.83-.0156 7.557-.9733 10.96-2.733l429.2-220.9C498.7 268.5 517.2 229.4 510.7 190.2zM399.1 0c-26.51 0-48 21.49-48 48S373.5 96 399.1 96s48-21.49 48-48S426.5 0 399.1 0z"/></svg>