<svg xmlns="http://www.w3.org/2000/svg" viewBox="0 0 512 512"><!--! Font Awesome Pro 6.0.0-alpha3 by @fontawesome - https://fontawesome.com License - https://fontawesome.com/license (Commercial License) --><defs><style>.fa-secondary{opacity:.4}</style></defs><path class="fa-primary" d="M293.1 215.8L186.1 162.7C183.1 182.6 189.7 202.7 203.8 217l75.03 75.21l-45.88 68.76l57.33 29.61l49.15-73.82c12.7-19.03 10.19-44.36-5.999-60.54L293.1 215.8zM462.3 195.4l-52.03-26.1l-17.12-51.15c-8.096-24.18-40.92-56.62-84.49-39.23L227.4 111.3l113.7 56.09l10.75 28.99c3.979 12.06 12.49 21.1 23.86 27.65l58.06 28.98c15.96 7.811 35.18 1.213 42.99-14.75C484.5 222.4 478.1 203.3 462.3 195.4z"/><path class="fa-secondary" d="M505.1 452.2c-9.289-9.363-24.49-9.342-33.83-.0332c-12.08 12.1-30.55 15.43-45.13 8.727L35.95 258.8C24.5 252.1 9.848 256 3.223 267.5C-3.4 278.1 .5117 293.7 11.96 300.3c.6582 .3828 1.336 .7324 2.029 1.051l390.1 202.5c11.61 5.367 24.31 8.148 37.1 8.118c23.57 .0352 46.28-9.321 62.97-26.01C514.3 476.6 514.3 461.5 505.1 452.2zM94.63 68.6l26.16 23.01L109.3 114.1C123.2 121.2 140 119.3 152 109.3l215.9 109.8c-7.453-5.791-13.14-13.71-16.1-22.68l-10.75-28.99l-175.5-87c.4551-14.9-7.654-28.74-20.86-35.61L133.7 66.51l-34.53-7.002C97.28 59.11 95.36 59.76 94.14 61.21C92.24 63.38 92.46 66.7 94.63 68.6C94.64 68.61 94.62 68.6 94.63 68.6zM432.1 96.02c26.46 0 47.98-21.5 47.98-48.01C480.1 21.49 458.5 0 432.1 0s-47.98 21.49-47.98 48.01C384.1 74.52 405.6 96.02 432.1 96.02z"/></svg>