<svg xmlns="http://www.w3.org/2000/svg" viewBox="0 0 448 512"><!--! Font Awesome Pro 6.0.0-alpha3 by @fontawesome - https://fontawesome.com License - https://fontawesome.com/license (Commercial License) --><defs><style>.fa-secondary{opacity:.4}</style></defs><path class="fa-primary" d="M129.8 317.5L114.9 352H48c-17.62 0-32 14.38-32 32s14.38 32 32 32h77.5c19.25 0 36.5-11.5 44-29.12l8.875-20.5l-10.75-6.25C150.4 349.9 137.6 334.8 129.8 317.5zM400 224h-44l-26.12-53.25c-12.5-25.5-35.38-44.25-61.75-51L197 98.63c-28.25-6.75-57.75-.5-80.75 17.12L76.5 146.3C62.5 157 59.88 177 70.63 191.1C81.38 205.1 101.5 207.8 115.5 197l39.63-30.38c7.75-5.875 17.5-8 25.38-6.125l14.62 4.25l-37.5 87.5c-12.62 29.38-1.25 64 26.38 80.25l85 50.13l-27.5 87.75c-5.25 16.88 4.125 34.88 21 40.13C265.6 511.5 268.9 512 272 512c13.62 0 26.25-8.75 30.5-22.5l31.75-101c5.875-20.75-3-43.13-21.75-54.38l-61.13-36.12l31.25-78.38l20.25 41.5C310.9 277.4 327.9 288 345.1 288H400c17.62 0 32-14.38 32-32C432 238.3 417.6 224 400 224z"/><path class="fa-secondary" d="M288 96c26.5 0 48-21.5 48-48s-21.5-48-48-48s-48 21.5-48 48S261.5 96 288 96z"/></svg>