<svg xmlns="http://www.w3.org/2000/svg" viewBox="0 0 640 512"><!--! Font Awesome Pro 6.0.0-alpha3 by @fontawesome - https://fontawesome.com License - https://fontawesome.com/license (Commercial License) --><defs><style>.fa-secondary{opacity:.4}</style></defs><path class="fa-primary" d="M400 96C426.5 96 448 74.5 448 48S426.5 0 400 0S352 21.5 352 48S373.5 96 400 96zM480 160h-52.75L356 103c-12-9.625-29.12-9.375-40.75 .625l-112 96C195.6 206.3 191.5 215.9 192.1 225.9c.5 10 5.75 19.12 14.12 24.75L288 305.1V416c0 17.62 14.38 32 32 32s32-14.38 32-32V288c0-10.75-5.375-20.62-14.25-26.62L296.4 233.8l58.25-49.88L396 217C401.6 221.5 408.8 224 416 224h64c17.62 0 32-14.38 32-32S497.6 160 480 160z"/><path class="fa-secondary" d="M128 256c-70.75 0-128 57.25-128 128s57.25 128 128 128s128-57.25 128-128S198.8 256 128 256zM128 456c-39.8 0-72-32.2-72-72S88.2 312 128 312S200 344.2 200 384S167.8 456 128 456zM512 256c-70.75 0-128 57.25-128 128s57.25 128 128 128s128-57.25 128-128S582.8 256 512 256zM512 456c-39.8 0-72-32.2-72-72S472.2 312 512 312s72 32.2 72 72S551.8 456 512 456z"/></svg>