<svg xmlns="http://www.w3.org/2000/svg" viewBox="0 0 384 512"><!--! Font Awesome Pro 6.0.0-alpha3 by @fontawesome - https://fontawesome.com License - https://fontawesome.com/license (Commercial License) --><defs><style>.fa-secondary{opacity:.4}</style></defs><path class="fa-primary" d="M81.01 472.3c-4.375 17.12 6.125 34.5 23.25 38.75C106.9 511.8 109.5 512 112 512c14.37 0 27.37-9.75 30.1-24.25l25.25-101l-52.75-52.75L81.01 472.3zM352 192h-50.75l-46.75-46.75C243.4 134.1 228.6 128 212.9 128c-27 0-50.37 18.25-56.1 44.5L129 280.3C126.3 291.1 129.4 302.6 137.4 310.6l86.62 86.63V480c0 17.62 14.37 32 31.1 32s32-14.38 32-32v-82.75c0-17.12-6.625-33.13-18.75-45.25l-46.87-46.88c.25-.5 .5-.875 .625-1.375l19.1-79.5l22.37 22.38C271.4 252.6 279.5 256 288 256H352c17.67 0 32-14.33 32-32C384 206.3 369.7 192 352 192z"/><path class="fa-secondary" d="M125.1 98C81.26 87.38 36.76 113 25.76 155.1L.5109 253.3C-1.739 261.6 3.603 270.3 12.35 272.3L76.01 287.5c8.75 2.125 17.62-3 19.87-11.38L137 117C139.3 108.6 133.9 100 125.1 98zM352 256h-15.1v240c0 8.875 7.125 16 15.1 16h15.1C376.9 512 384 504.9 384 496V224C384 241.7 369.7 256 352 256zM368 160h-15.1c-8.875 0-15.1 7.125-15.1 16V192H352c17.67 0 32 14.33 32 32V176C384 167.1 376.9 160 368 160zM240 0c-26.5 0-47.1 21.5-47.1 48S213.5 96 240 96c26.5 0 48-21.5 48-48S266.5 0 240 0z"/></svg>