<svg xmlns="http://www.w3.org/2000/svg" viewBox="0 0 384 512"><!--! Font Awesome Pro 6.0.0-alpha3 by @fontawesome - https://fontawesome.com License - https://fontawesome.com/license (Commercial License) --><defs><style>.fa-secondary{opacity:.4}</style></defs><path class="fa-primary" d="M64 480c-17.67 0-32-14.31-32-32V64c0-17.69 14.33-32 32-32h128C280.2 32 352 103.8 352 192s-71.76 160-159.1 160H96v96C96 465.7 81.67 480 64 480zM96 288h96c52.94 0 96-43.06 96-96s-43.06-96-96-96H96V288z"/><path class="fa-secondary" d="M0 192c0 17.69 14.33 32 32 32V160C14.33 160 0 174.3 0 192zM96 160v64h186.1C285.7 213.9 288 203.3 288 192s-2.311-21.94-5.896-32H96zM352 160h-3.234C350.9 170.3 352 181 352 192s-1.125 21.66-3.234 32H352c17.67 0 32-14.31 32-32S369.7 160 352 160z"/></svg>