<svg xmlns="http://www.w3.org/2000/svg" viewBox="0 0 448 512"><!--! Font Awesome Pro 6.0.0-alpha3 by @fontawesome - https://fontawesome.com License - https://fontawesome.com/license (Commercial License) --><defs><style>.fa-secondary{opacity:.4}</style></defs><path class="fa-primary" d="M96 480c-17.67 0-32-14.31-32-32V64c0-17.69 14.33-32 32-32h112C305.1 32 384 110.1 384 208S305.1 384 208 384H128v64C128 465.7 113.7 480 96 480zM128 320h80c61.75 0 112-50.25 112-112S269.8 96 208 96H128V320z"/><path class="fa-secondary" d="M32 256c0 17.69 14.33 32 32 32V224C46.33 224 32 238.3 32 256zM400 224h-16.81c-2.076 22.89-8.598 44.47-18.62 64H400c17.67 0 32-14.31 32-32S417.7 224 400 224zM400 192c17.67 0 32-14.31 32-32s-14.33-32-32-32h-35.43c10.02 19.53 16.54 41.11 18.62 64H400zM32 160c0 17.69 14.35 32 32.02 32L64 128C46.33 128 32 142.3 32 160zM128 128v64h190.4c-3.607-24.89-15.05-47.21-32.25-64H128zM128 288h158.1c17.19-16.79 28.64-39.11 32.25-64H128V288z"/></svg>