<svg xmlns="http://www.w3.org/2000/svg" viewBox="0 0 576 512"><!--! Font Awesome Pro 6.0.0-alpha3 by @fontawesome - https://fontawesome.com License - https://fontawesome.com/license (Commercial License) --><defs><style>.fa-secondary{opacity:.4}</style></defs><path class="fa-primary" d="M51.26 255.5c-12.99-2.639-21.41-15.28-18.77-28.27C34.71 215.8 45.39 208 56.99 208h.9998c3.315 0 6-2.686 6-5.999v-20C63.99 178.7 61.3 176 57.99 176c-28.5 0-53.89 20.41-57.51 48.63C.1564 227-.0039 229.4 0 231.8C-.0391 262.8 25.01 287.1 55.98 288L95.99 288c.0098-10.75 1.081-21.48 3.309-32l-43.32 .0039C54.39 256 52.82 255.8 51.26 255.5zM431.1 256c-8.836 0-16 7.164-16 16S423.2 288 431.1 288s16-7.164 16-16S440.8 256 431.1 256zM339.3 5.781C328.8 1.965 317.7 .0078 306.5 0C253.5-.0137 210.5 42.96 210.5 95.98c-.0039 12.53 2.447 24.94 7.213 36.53C230.2 129.5 243.1 127.1 255.1 128h128c4.25 .0332 8.627 .3174 12.84 .8701C414.1 79.01 389.1 23.91 339.3 5.781z"/><path class="fa-secondary" d="M559.1 224l-29.53 .0035c-8.771-19.84-21.46-37.71-37.35-52.48L511.1 96l-32 .0063c-29.4 0-55.39 13.46-73 34.28C399.4 129.2 391.9 128 383.1 128H255.1C161.2 128 95.99 206.9 95.99 288C95.95 338.4 119.7 385.8 160 416l-.0101 64c0 17.67 14.33 32 32 32H223.1c17.67 0 32-14.33 32-32l.0026-32h128l-.0033 32c0 17.67 14.33 32 32 32h32c17.67 0 32-14.33 32-32l-.0002-64.73c11.82-8.932 22.39-19.44 31.32-31.26L559.1 384C568.8 384 576 376.8 576 368v-128C576 231.2 568.8 224 559.1 224zM431.1 288c-8.836 0-16-7.164-16-16S423.2 256 431.1 256s16 7.164 16 16S440.8 288 431.1 288z"/></svg>