<svg xmlns="http://www.w3.org/2000/svg" viewBox="0 0 448 512"><!--! Font Awesome Pro 6.0.0-alpha3 by @fontawesome - https://fontawesome.com License - https://fontawesome.com/license (Commercial License) --><defs><style>.fa-secondary{opacity:.4}</style></defs><path class="fa-primary" d="M145.4 211.6C137.5 205.3 128.1 200 118.1 196.6C70.82 180.7 19.94 207.3 4.484 256.2c-15.46 48.85 10.35 101.4 57.64 117.4l310.3 104.8c12.94 4.342 27.75 .1719 36.59-11.57c11.27-14.98 8.65-36.56-5.85-48.2L145.4 211.6zM96.17 319.7c-17.58 0-31.89-14.31-31.89-31.89c0-17.58 14.31-31.89 31.89-31.89c17.58 0 31.89 14.31 31.89 31.89C128.1 305.4 113.8 319.7 96.17 319.7z"/><path class="fa-secondary" d="M352 32c-53.02 0-96 42.98-96 96s42.98 96 96 96s96-42.98 96-96S405 32 352 32z"/></svg>