<svg xmlns="http://www.w3.org/2000/svg" viewBox="0 0 576 512"><!--! Font Awesome Pro 6.0.0-alpha3 by @fontawesome - https://fontawesome.com License - https://fontawesome.com/license (Commercial License) --><defs><style>.fa-secondary{opacity:.4}</style></defs><path class="fa-primary" d="M479.1 192H111.1L68.8 134.4C65.77 130.4 61.02 128 55.99 128H15.99c-10.41 0-18.03 9.781-15.5 19.88L23.18 225.8C9.897 229.7 .0001 241.5 .0001 256s9.897 26.33 23.18 30.22l-22.7 77.9C-2.043 374.2 5.583 384 15.99 384h40c5.031 0 9.781-2.375 12.81-6.406L111.1 320h368C515.3 320 576 291.3 576 256S515.3 192 479.1 192zM336 128c8.838 0 16-7.164 16-16v-32c0-8.836-7.162-16-16-16h-43.43l36.57 64H336zM336 384h-6.871l-36.58 64h43.45c8.838 0 16-7.164 16-16v-32C352 391.2 344.8 384 336 384z"/><path class="fa-secondary" d="M165.8 491.6C162.9 501.8 170.6 512 181.2 512h65.5c5.719 0 11.03-3.078 13.87-8.062L365.7 320H214.9L165.8 491.6zM214.9 192h150.8L260.6 8.062C258.1 3.609 251.8 0 246.7 0H181.2C170.6 0 162.9 10.17 165.8 20.39L214.9 192z"/></svg>