<svg xmlns="http://www.w3.org/2000/svg" viewBox="0 0 640 512"><!--! Font Awesome Pro 6.0.0-alpha3 by @fontawesome - https://fontawesome.com License - https://fontawesome.com/license (Commercial License) --><defs><style>.fa-secondary{opacity:.4}</style></defs><path class="fa-primary" d="M634.9 502.8c-8.125 10.41-23.19 12.28-33.69 4.078L9.189 42.89c-10.44-8.172-12.25-23.26-4.062-33.7C9.845 3.156 16.91 0 24.03 0c5.156 0 10.37 1.672 14.78 5.109l591.1 463.1C641.2 477.3 643.1 492.4 634.9 502.8z"/><path class="fa-secondary" d="M32.5 147.9L63.1 256L32.5 364.1c-2.531 10.09 5.094 19.87 15.5 19.87H87.1c5.031 0 9.781-2.375 12.81-6.406L143.1 319.1h102.9l-49.03 171.6c-2.938 10.22 4.747 20.41 15.37 20.41h65.5c5.719 0 11.03-3.079 13.87-8.063l70.23-122.9L41.82 129.5C34.87 132.4 30.51 139.1 32.5 147.9zM440.6 319.1h71.43c35.34 0 96-28.66 96-63.1s-60.66-63.1-96-63.1h-114.3L292.6 8.065c-2.562-4.453-8.781-8.063-13.91-8.063H213.2c-10.62 0-18.31 10.17-15.37 20.39L238.1 161.3L440.6 319.1z"/></svg>