<svg xmlns="http://www.w3.org/2000/svg" viewBox="0 0 576 512"><!--! Font Awesome Pro 6.0.0-alpha3 by @fontawesome - https://fontawesome.com License - https://fontawesome.com/license (Commercial License) --><defs><style>.fa-secondary{opacity:.4}</style></defs><path class="fa-primary" d="M368 128l-.0021 16c0 8.836 7.164 16 16 16s16-7.164 16-16v-32c8.836 0 16-7.164 16-16c0-8.838-7.165-16-16-16v-32c0-8.838-7.164-16-16-16s-16 7.162-16 16L368 64h-38.86l9.143 64H368zM224 128h13.71l9.143-64H224C206.3 64 192 78.33 192 96C192 113.7 206.3 128 224 128zM479.1 192h-174.3c-11.81 0-23.6 .6523-35.34 1.957L31.8 220.5C13.7 222.5 0 237.8 0 256c0 18.22 13.7 33.52 31.8 35.53l238.6 26.51C282.1 319.3 293.9 320 305.7 320h158.8c29.61 0 59.26-7.539 83.76-24.17C623.1 245.1 528.1 192 479.1 192zM224 384c-17.67 0-32 14.33-32 32c0 17.67 14.33 32 32 32h22.86l-9.143-64H224zM399.1 400v-32c0-8.838-7.164-16-16-16s-16 7.162-16 16L368 384h-29.71l-9.143 64H368l-.0021 16c0 8.836 7.164 16 16 16s16-7.164 16-16v-32c8.836 0 16-7.164 16-16C415.1 407.2 408.8 400 399.1 400z"/><path class="fa-secondary" d="M305.7 192h41.71l-25.46-178.3C320.8 5.854 314.1 0 306.1 0H269.9C261.9 0 255.2 5.854 254 13.74L227.6 198.7l42.77-4.752C282.1 192.7 293.9 192 305.7 192zM49.16 376.2C49.81 380.7 53.67 384 58.21 384h43.57c4.549 0 8.406-3.346 9.051-7.85L121.5 301.5L37.16 292.1L49.16 376.2zM270.4 318L227.6 313.3l26.42 184.1C255.2 506.1 261.9 512 269.9 512h36.25c7.963 0 14.72-5.855 15.84-13.74L347.4 320H305.7C293.9 320 282.1 319.3 270.4 318zM101.8 128H58.21C53.67 128 49.81 131.3 49.16 135.8l-12 84.02L121.5 210.5L110.8 135.8C110.2 131.3 106.3 128 101.8 128z"/></svg>