<svg xmlns="http://www.w3.org/2000/svg" viewBox="0 0 512 512"><!--! Font Awesome Pro 6.0.0-alpha3 by @fontawesome - https://fontawesome.com License - https://fontawesome.com/license (Commercial License) --><defs><style>.fa-secondary{opacity:.4}</style></defs><path class="fa-primary" d="M192 96C192 60.66 220.7 0 256 0s64 60.66 64 96v304l57.59 43.19C381.6 446.2 384 450.1 384 456v40c0 10.41-9.781 18.03-19.88 15.5L256 480l-108.1 31.5C137.8 514 128 506.4 128 496v-40c0-5.031 2.375-9.781 6.406-12.81L192 400V96z"/><path class="fa-secondary" d="M192 329.1V178.3L8.063 283.4C3.609 285.9 0 292.2 0 297.3v65.5c0 10.63 10.17 18.31 20.39 15.38L192 329.1zM491.6 378.2C501.8 381.1 512 373.4 512 362.8V297.3c0-5.719-3.078-11.03-8.062-13.88L320 178.3v150.8L491.6 378.2z"/></svg>