<svg xmlns="http://www.w3.org/2000/svg" viewBox="0 0 576 512"><!--! Font Awesome Pro 6.0.0-alpha3 by @fontawesome - https://fontawesome.com License - https://fontawesome.com/license (Commercial License) --><defs><style>.fa-secondary{opacity:.4}</style></defs><path class="fa-primary" d="M479.1 192C515.3 192 576 220.7 576 256s-60.66 64-96 64H111.1l-43.19 57.59C65.77 381.6 61.02 384 55.99 384h-40c-10.41 0-18.03-9.781-15.5-19.88L31.99 256L.4885 147.9C-2.043 137.8 5.582 128 15.99 128h40c5.031 0 9.781 2.375 12.81 6.406L111.1 192H479.1z"/><path class="fa-secondary" d="M214.9 192h150.8L260.6 8.062C258.1 3.609 251.8 0 246.7 0H181.2C170.6 0 162.9 10.17 165.8 20.39L214.9 192zM165.8 491.6C162.9 501.8 170.6 512 181.2 512h65.5c5.719 0 11.03-3.078 13.87-8.062L365.7 320H214.9L165.8 491.6z"/></svg>