<svg xmlns="http://www.w3.org/2000/svg" viewBox="0 0 640 512"><!--! Font Awesome Pro 6.0.0-alpha3 by @fontawesome - https://fontawesome.com License - https://fontawesome.com/license (Commercial License) --><defs><style>.fa-secondary{opacity:.4}</style></defs><path class="fa-primary" d="M574.9 343.5c-3.875 14.5-17.62 27.37-47.25 35.62c-26.5 7.373-54.5 5.873-80.1-1.25L158.1 299.5c-9.5-2.625-18.12-7.373-25.5-13.1L44.75 205.5c-6.5-5.875-12.38-14.25-12.5-23.25L32 80.57c.25-10.87 10.38-18.75 20.75-15.87L92.5 75.57c5 1.375 9 5 11 9.875l27.5 67.86l102.2 27.87l-47.87-164.2C185.1 5.832 195.5-2.291 205.1 .582l65.13 17.62c5.75 1.625 10.12 6.123 11.62 11.1l100.4 191.8l97.5 26.5c26.5 7.248 51.62 20.12 70.87 39.99C573.1 310.8 578.7 329 574.9 343.5z"/><path class="fa-secondary" d="M608 448H31.1C14.33 448 0 462.3 0 479.1S14.33 512 31.1 512h576C625.7 512 640 497.7 640 480S625.7 448 608 448z"/></svg>