<svg xmlns="http://www.w3.org/2000/svg" viewBox="0 0 512 512"><!--! Font Awesome Pro 6.0.0-alpha3 by @fontawesome - https://fontawesome.com License - https://fontawesome.com/license (Commercial License) --><defs><style>.fa-secondary{opacity:.4}</style></defs><path class="fa-primary" d="M272.1 256C259.4 256 246.7 257.6 234.4 260.8l-198.3 50.8C14.85 317 0 336.1 0 358.1v24.31c0 19.87 12.24 37.68 30.79 44.81l194.4 74.68C242.6 508.6 261.1 512 279.8 512H512V256H272.1zM360 400h-144c-13.25 0-23.1-10.75-23.1-24c0-13.26 10.75-24 23.1-24h144c13.25 0 24 10.74 24 24C384 389.3 373.3 400 360 400z"/><path class="fa-secondary" d="M272.1 256h111.1L130.4 9.373C124.4 3.334 116.2-.041 107.7 0L31.86 .3613C11.72 .457-3.322 18.9 .6348 38.65l60.06 266.6l173.7-44.5C246.7 257.6 259.4 256 272.1 256zM360 352h-144c-13.25 0-23.1 10.74-23.1 24c0 13.25 10.75 24 23.1 24h144c13.25 0 24-10.75 24-24C384 362.7 373.3 352 360 352z"/></svg>