<svg xmlns="http://www.w3.org/2000/svg" viewBox="0 0 448 512"><!--! Font Awesome Pro 6.0.0-alpha3 by @fontawesome - https://fontawesome.com License - https://fontawesome.com/license (Commercial License) --><defs><style>.fa-secondary{opacity:.4}</style></defs><path class="fa-primary" d="M360 64h-8.006V48c0-8.836-7.162-16-16-16H112C103.2 32 96 39.16 96 48V64H88C74.75 64 64 74.74 64 88V464h320V88C384 74.75 373.3 64 360 64zM128 136C128 131.6 131.6 128 136 128H160v32H128V136zM128 176h32v32H136C131.6 208 128 204.4 128 200V176zM208 312C208 316.4 204.4 320 200 320h-64C131.6 320 128 316.4 128 312v-64C128 243.6 131.6 240 136 240h64c4.418 0 8 3.582 8 8V312zM208 200c0 4.418-3.582 8-8 8H176v-32h32V200zM208 160h-32V128h24C204.4 128 208 131.6 208 136V160zM272 208h-24c-4.418 0-8-3.582-8-8V176h32V208zM272 160h-32V136C240 131.6 243.6 128 248 128h24V160zM320 200c0 4.418-3.582 8-8 8H288v-32h32V200zM320 160h-32V128h24C316.4 128 320 131.6 320 136V160z"/><path class="fa-secondary" d="M240 160h32V128h-24c-4.418 0-8 3.582-8 8V160zM240 200c0 4.418 3.582 8 8 8h24v-32h-32V200zM320 136C320 131.6 316.4 128 312 128H288v32h32V136zM320 200V176h-32v32h24C316.4 208 320 204.4 320 200zM240 16C240 7.164 232.8 0 224 0S208 7.164 208 16V32h32V16zM136 208H160v-32H128v24C128 204.4 131.6 208 136 208zM400 464h-352C39.16 464 32 471.2 32 480v16C32 504.8 39.16 512 48 512h352c8.836 0 16-7.164 16-16V480C416 471.2 408.8 464 400 464zM160 128H136C131.6 128 128 131.6 128 136V160h32V128zM208 136C208 131.6 204.4 128 200 128H176v32h32V136zM208 200V176h-32v32h24C204.4 208 208 204.4 208 200z"/></svg>