<svg xmlns="http://www.w3.org/2000/svg" viewBox="0 0 640 512"><!--! Font Awesome Pro 6.0.0-alpha3 by @fontawesome - https://fontawesome.com License - https://fontawesome.com/license (Commercial License) --><defs><style>.fa-secondary{opacity:.4}</style></defs><path class="fa-primary" d="M640 256c0 35.35-21.49 64-48 64c-13.88 0-26.28-7.945-34.1-20.54C552.2 292.6 544.8 288 536.4 288C522.9 288 512 298.9 512 312.4V416c0 17.67-14.33 32-32 32h-103.6C362.9 448 352 437.1 352 423.6c0-8.398 4.555-15.87 11.46-20.64C376.1 394.3 384 381.9 384 368c0-26.51-28.65-48-64-48s-64 21.49-64 48c0 13.88 7.943 26.28 20.54 34.1C283.4 407.8 288 415.2 288 423.6C288 437.1 277.1 448 263.6 448H160c-17.67 0-32-14.33-32-32V312.4C128 298.9 117.1 288 103.6 288C95.24 288 87.78 292.6 82.1 299.5C74.28 312.1 61.88 320 48 320c-26.51 0-47.1-28.65-47.1-64S21.49 191.1 48 191.1c13.88 0 26.28 7.943 34.1 20.54c4.779 6.906 12.25 11.46 20.64 11.46C117.1 223.1 128 213.1 128 199.6V95.1C128 78.33 142.3 63.1 160 63.1l103.6 0C277.1 63.1 288 74.9 288 88.36c0 8.398-4.555 15.87-11.46 20.64C263.9 117.7 256 130.1 256 143.1C256 170.5 284.7 192 320 192s64-21.49 64-48c0-13.88-7.943-26.28-20.54-34.1C356.6 104.2 352 96.76 352 88.36c0-13.45 10.91-24.36 24.36-24.36L480 63.1c17.67 0 32 14.33 32 32v103.6c0 13.45 10.91 24.36 24.36 24.36c8.396 0 15.87-4.555 20.64-11.46C565.7 199.9 578.1 191.1 592 191.1C618.5 191.1 640 220.7 640 256z"/></svg>