<svg xmlns="http://www.w3.org/2000/svg" viewBox="0 0 448 512"><!--! Font Awesome Pro 6.0.0-alpha3 by @fontawesome - https://fontawesome.com License - https://fontawesome.com/license (Commercial License) --><defs><style>.fa-secondary{opacity:.4}</style></defs><path class="fa-primary" d="M352 480h32v-32h-32V480zM416 288v32h-64V288h-96v192h64v-96h32v32h96V288H416zM416 480h32v-32h-32V480z"/><path class="fa-secondary" d="M160 288H32c-17.67 0-32 14.33-32 32v128c0 17.67 14.33 32 32 32h128c17.67 0 32-14.33 32-32v-128C192 302.3 177.7 288 160 288zM128 416H64v-64h64V416zM160 32H32C14.33 32 0 46.33 0 64v128c0 17.67 14.33 32 32 32h128c17.67 0 32-14.33 32-32V64C192 46.33 177.7 32 160 32zM128 160H64V96h64V160zM416 32h-128c-17.67 0-32 14.33-32 32v128c0 17.67 14.33 32 32 32h128c17.67 0 32-14.33 32-32V64C448 46.33 433.7 32 416 32zM384 160h-64V96h64V160z"/></svg>