<svg xmlns="http://www.w3.org/2000/svg" viewBox="0 0 640 512"><!--! Font Awesome Pro 6.0.0-alpha3 by @fontawesome - https://fontawesome.com License - https://fontawesome.com/license (Commercial License) --><defs><style>.fa-secondary{opacity:.4}</style></defs><path class="fa-primary" d="M615.5 59.71c-55.27-77.8-182.9-78.77-283.4-7.583C274.7 92.72 237.4 148.5 225.2 203.2C217.4 238.3 202.9 271 183.5 300.8c-13.89 21.33-32.45 39.25-53.31 53.85l45.72 64.39l1.506-1.054c19.25-13.47 40.6-24.18 63.34-30.08c66.4-17.24 110.9-6.453 134.3-6.453c49.52 0 104.4-16.95 153.6-51.8C630.9 257.3 669.8 136.4 615.5 59.71zM569.7 176.7c-23.88 74.31-110.9 140.8-195.1 140.8c-70.53 0-105.2-46.43-83.94-112.5c16.38-51.08 88.7-141 195.1-141C556.5 64 591.1 110.8 569.7 176.7z"/><path class="fa-secondary" d="M11.86 420.5c-12.77 9.157-15.65 26.93-6.585 39.47l28.51 40.01c9.097 12.85 26.88 15.69 39.23 6.956l98.21-66.56c7.428-5.038 9.254-15.19 4.045-22.5l-44.04-61.76c-5.108-7.162-15.05-8.86-22.25-3.8L11.86 420.5zM485.4 63.56C378.9 63.78 307 153.9 290.7 205c-21.12 66.11 13.41 112.6 83.94 112.5c84.16-.1745 171.1-67.13 194.8-141.5C590.7 110 556 63.41 485.4 63.56z"/></svg>