<svg xmlns="http://www.w3.org/2000/svg" viewBox="0 0 640 512"><!--! Font Awesome Pro 6.0.0-alpha3 by @fontawesome - https://fontawesome.com License - https://fontawesome.com/license (Commercial License) --><defs><style>.fa-secondary{opacity:.4}</style></defs><path class="fa-primary" d="M192 415.1c-20.13 0-37.87-9.48-49.6-24.01c-8.215 4.475-17.48 7.132-27.35 7.649l38.91 97.27C157.6 506 166.4 512 176.2 512h23.75C213.3 512 224 501.3 224 487.1l0-78.41c-.4941-.5703-1.123-1.011-1.598-1.599C213.3 412.9 203.1 415.1 192 415.1zM352 415.1c-11.07 0-21.32-3.064-30.4-8.01C321.1 408.6 320.5 409 320 409.6v78.41C320 501.3 330.7 512 343.1 512h23.75c9.812 0 18.64-5.975 22.29-15.09l38.91-97.27c-9.871-.5176-19.13-3.175-27.35-7.649C389.9 406.5 372.1 415.1 352 415.1zM624.3 100.8l-53.11-53.11C561.2 37.63 547.6 31.1 533.4 31.1l-99.68-.0025c-19.76-20.3-47.12-33.11-77.88-31.92C302.4 2.151 258.2 46.4 256.1 99.89C254.4 142.3 278.4 179.5 313.7 197.1C334.1 207.7 360 192.2 360 168.4c0-12.28-7.168-23.2-18.11-28.78C328.9 133 320 119.5 320 104c0-23.38 20.14-42.12 43.98-39.81C384.8 66.21 400 84.89 400 105.8v42.3c7.623-2.412 15.58-4.07 24-4.07c32.79 0 60.89 19.77 73.25 47.1l89.31 .0015c20.24 0 38.75-11.44 47.8-29.54C644.6 141.9 640.6 117 624.3 100.8zM511.1 111.1c-8.836 0-16-7.164-16-16s7.164-16 16-16c8.836 0 15.1 7.164 15.1 16S520.8 111.1 511.1 111.1z"/><path class="fa-secondary" d="M543.1 256c0 30.78-21.74 56.45-50.7 62.58C494.9 324.2 496 329.9 496 336c0 35.35-28.65 64-64 64c-11.07 0-21.32-3.065-30.4-8.01C389.9 406.5 372.1 415.1 352 415.1c-11.07 0-21.32-3.064-30.4-8.01C309.9 422.5 292.1 432 271.1 432s-37.86-9.481-49.6-24.01C213.3 412.9 203.1 415.1 192 415.1c-20.13 0-37.87-9.481-49.6-24.01C133.3 396.9 123.1 400 112 400c-35.35 0-64-28.65-64-64c0-6.082 1.119-11.85 2.705-17.42C21.75 312.5 0 286.8 0 256s21.75-56.45 50.71-62.58C49.12 187.8 48 182.1 48 176c0-35.35 28.65-64 64-64c11.07 0 21.32 3.064 30.4 8.01C154.1 105.5 171.9 96 192 96c11.07 0 21.32 3.064 30.4 8.01C230.9 93.43 242.7 85.65 256.2 82.19C256.5 82.12 256.7 81.97 257 81.9c-.0039 .0332 .0039-.0332 0 0c.5059-.123 1.054-.042 1.563-.1553c-1.322 5.902-2.254 11.94-2.494 18.14C254.4 142.3 278.4 179.5 313.7 197.1C334.1 207.7 360 192.2 360 168.4c0-12.28-7.168-23.2-18.11-28.78C328.9 133 320 119.5 320 104c0-23.38 20.14-42.12 43.98-39.81C384.8 66.21 400 84.89 400 105.8v42.3c7.623-2.412 15.58-4.07 24-4.07c33.94 0 62.77 21.22 74.39 51.04C524.7 202.1 543.1 227.1 543.1 256z"/></svg>