<svg xmlns="http://www.w3.org/2000/svg" viewBox="0 0 384 512"><!--! Font Awesome Pro 6.0.0-alpha3 by @fontawesome - https://fontawesome.com License - https://fontawesome.com/license (Commercial License) --><defs><style>.fa-secondary{opacity:.4}</style></defs><path class="fa-primary" d="M288 320H96l-84.43 168.9C6.258 499.5 13.99 512 25.88 512h332.2c11.89 0 19.62-12.51 14.31-23.15L288 320z"/><path class="fa-secondary" d="M384 32v320c0 17.75-14.25 32-32 32h-32l-32-64h32V64H64v256h32l-32 64H32c-17.75 0-32-14.25-32-32V32c0-17.75 14.25-32 32-32h320C369.8 0 384 14.25 384 32z"/></svg>