<svg xmlns="http://www.w3.org/2000/svg" viewBox="0 0 576 512"><!--! Font Awesome Pro 6.0.0-alpha3 by @fontawesome - https://fontawesome.com License - https://fontawesome.com/license (Commercial License) --><defs><style>.fa-secondary{opacity:.4}</style></defs><path class="fa-primary" d="M440 160C426.8 160 416 170.8 416 184v28.41C408.5 209.7 400.5 208 392 208C352.2 208 320 240.2 320 280S352.2 352 392 352c11.11 0 21.51-2.727 30.9-7.221c4.355 4.439 10.39 7.221 17.1 7.221c13.25 0 24-10.75 24-24v-144C464 170.8 453.3 160 440 160zM392 304c-13.23 0-24-10.77-24-24S378.8 256 392 256C405.2 256 416 266.8 416 280S405.2 304 392 304zM229.5 173.3c-8.125-16.25-34.81-16.25-42.94 0l-72 144c-5.938 11.86-1.125 26.27 10.75 32.2c11.88 5.969 26.28 1.125 32.19-10.73L166.8 320H249.2l9.367 18.73C262.8 347.1 271.2 352 280 352c3.594 0 7.25-.8125 10.69-2.531c11.88-5.938 16.69-20.34 10.75-32.2L229.5 173.3zM186.8 280L208 237.7L229.2 280H186.8z"/><path class="fa-secondary" d="M186.8 280H229.2L208 237.7L186.8 280zM512 32H64c-35.35 0-64 28.65-64 64v320c0 35.35 28.65 64 64 64h448c35.35 0 64-28.65 64-64v-320C576 60.65 547.3 32 512 32zM290.7 349.5C287.3 351.2 283.6 352 280 352c-8.812 0-17.28-4.859-21.5-13.27L249.2 320H166.8l-9.367 18.73c-5.906 11.86-20.31 16.7-32.19 10.73c-11.88-5.938-16.69-20.34-10.75-32.2l72-144c8.125-16.25 34.81-16.25 42.94 0l72 144C307.4 329.1 302.6 343.5 290.7 349.5zM464 328c0 13.25-10.75 24-24 24c-6.707 0-12.74-2.781-17.1-7.221C413.5 349.3 403.1 352 392 352C352.2 352 320 319.8 320 280s32.24-72 72-72c8.461 0 16.46 1.727 24 4.408V184c0-13.25 10.75-23.1 24-23.1S464 170.8 464 184V328zM392 256c-13.23 0-24 10.77-24 24s10.77 24 24 24C405.2 304 416 293.2 416 280S405.2 256 392 256z"/></svg>