<svg xmlns="http://www.w3.org/2000/svg" viewBox="0 0 640 512"><!--! Font Awesome Pro 6.0.0-alpha3 by @fontawesome - https://fontawesome.com License - https://fontawesome.com/license (Commercial License) --><defs><style>.fa-secondary{opacity:.4}</style></defs><path class="fa-primary" d="M352 208v-160C352 22.4 329.6 0 304 0h-256C22.4 0 0 22.4 0 48v160C0 233.6 22.4 256 48 256h256C329.6 256 352 233.6 352 208z"/><path class="fa-secondary" d="M592 0h-128C438.4 0 416 22.4 416 48v288c0 25.6 22.4 48 48 48h128c25.6 0 48-22.4 48-48v-288C640 22.4 617.6 0 592 0zM320 304H112C86.4 304 64 326.4 64 352v112C64 489.6 86.4 512 112 512H320c25.6 0 48-22.4 48-48V352C368 326.4 345.6 304 320 304z"/></svg>