<svg xmlns="http://www.w3.org/2000/svg" viewBox="0 0 576 512"><!--! Font Awesome Pro 6.0.0-alpha3 by @fontawesome - https://fontawesome.com License - https://fontawesome.com/license (Commercial License) --><defs><style>.fa-secondary{opacity:.4}</style></defs><path class="fa-primary" d="M112 128h-32C71.2 128 64 135.2 64 144v224C64 376.8 71.2 384 80 384h32C120.8 384 128 376.8 128 368v-224C128 135.2 120.8 128 112 128zM176 128C167.2 128 160 135.2 160 143.1V368C160 376.8 167.2 384 176 384S192 376.8 192 368V143.1C192 135.2 184.8 128 176 128zM240 128C231.2 128 224 135.2 224 143.1V368C224 376.8 231.2 384 240 384S256 376.8 256 368V143.1C256 135.2 248.8 128 240 128zM368 128h-32C327.2 128 320 135.2 320 144v224c0 8.799 7.199 16 16 16h32c8.801 0 16-7.201 16-16v-224C384 135.2 376.8 128 368 128zM496 128h-32C455.2 128 448 135.2 448 143.1v224C448 376.8 455.2 384 463.1 384H496c8.801 0 16-7.201 16-16v-224C512 135.2 504.8 128 496 128z"/><path class="fa-secondary" d="M528 32h-480C21.5 32 0 53.5 0 80v352C0 458.5 21.5 480 48 480h480c26.5 0 48-21.5 48-48v-352C576 53.5 554.5 32 528 32zM128 368C128 376.8 120.8 384 112 384h-32C71.2 384 64 376.8 64 368v-224C64 135.2 71.2 128 80 128h32C120.8 128 128 135.2 128 144V368zM192 368C192 376.8 184.8 384 176 384S160 376.8 160 368V143.1C160 135.2 167.2 128 176 128S192 135.2 192 143.1V368zM256 368C256 376.8 248.8 384 240 384S224 376.8 224 368V143.1C224 135.2 231.2 128 240 128S256 135.2 256 143.1V368zM384 368c0 8.799-7.199 16-16 16h-32c-8.801 0-16-7.201-16-16v-224C320 135.2 327.2 128 336 128h32C376.8 128 384 135.2 384 144V368zM512 368c0 8.799-7.199 16-16 16h-32C455.2 384 448 376.8 448 368V143.1C448 135.2 455.2 128 463.1 128H496C504.8 128 512 135.2 512 144V368z"/></svg>