<svg xmlns="http://www.w3.org/2000/svg" viewBox="0 0 512 512"><!--! Font Awesome Pro 6.0.0-alpha3 by @fontawesome - https://fontawesome.com License - https://fontawesome.com/license (Commercial License) --><defs><style>.fa-secondary{opacity:.4}</style></defs><path class="fa-primary" d="M505.1 19.33c-1.207-5.576-7.088-11.36-12.67-12.54C460.5 0 435.4 0 410.4 0c-77.43 0-131.6 31.08-173.3 77.31c-28.54 31.6-12.9 15.1-141.6 234.3c-7.412 12.58-5.463 28.69 4.859 39.01l61.04 61.04c10.33 10.33 26.45 12.27 39.03 4.846c218.4-128.1 202.6-113.2 234.2-141.8c46.21-41.8 77.44-95.99 77.44-172.1C512.1 76.59 512 51.3 505.1 19.33zM383.1 168c-22 0-39.1-17.88-39.1-40s17.1-40 39.1-40c22.12 0 39.1 17.88 39.1 40S406.1 168 383.1 168z"/><path class="fa-secondary" d="M51.99 154.5L2.493 253.2C.993 256.6 .1181 260.3-.0069 264c0 13.25 10.75 24 23.1 24h85.32c46.64-79.44 72.15-124.5 87.53-151.5C198.4 133.7 199.6 130.8 201.2 128H94.86C78.49 128 59.24 139.9 51.99 154.5zM375.5 314.9c-26.92 15.39-71.97 40.96-151.5 87.77L223.1 488c0 13.25 10.75 24 23.1 24c3.75-.125 7.312-1 10.69-2.5l98.71-49.38c14.62-7.375 26.53-26.5 26.53-42.88l.0642-106.7C381.2 312.1 378.3 313.3 375.5 314.9z"/></svg>