<svg xmlns="http://www.w3.org/2000/svg" viewBox="0 0 512 512"><!--! Font Awesome Pro 6.0.0-alpha3 by @fontawesome - https://fontawesome.com License - https://fontawesome.com/license (Commercial License) --><defs><style>.fa-secondary{opacity:.4}</style></defs><path class="fa-primary" d="M505.2 19.66c-1.228-5.684-7.273-11.71-12.96-12.91C460.4 0 435.4 0 410.4 0C332.1 0 278.8 31.08 237 77.31C209.6 107.7 222.6 95.06 109.3 288c63.29 0 114.7 51.32 114.7 114.6c192.9-113.5 180.1-100.4 210.5-127.9c46.21-41.8 77.44-95.99 77.44-172.1C512.1 76.64 512.1 51.53 505.2 19.66zM383.1 168c-22 0-39.1-17.88-39.1-40s18.06-40 40.06-40C406.2 88 423.1 105.9 423.1 128S406.1 168 383.1 168zM75.87 394.8c-8.625 8.5-12.87 30.12-11.62 53c22.1 1.25 44.5-3.125 53.12-11.62c13.37-13.5 14.25-31.38 1.1-43.5C107.2 380.4 89.37 381.3 75.87 394.8z"/><path class="fa-secondary" d="M52.05 154.5L2.65 253.2C1.15 256.6 .225 260.3 .1 264c0 13.25 10.8 24 24.05 24h85.17c46.64-79.44 72.15-124.5 87.53-151.5C198.4 133.7 199.6 130.8 201.2 128H94.92C78.55 128 59.3 139.9 52.05 154.5zM375.5 314.9c-26.92 15.39-71.95 40.95-151.5 87.76L224 488c0 13.25 10.75 24 23.1 24c3.75-.125 7.375-1.05 10.75-2.55l98.69-49.38c14.62-7.375 26.5-26.45 26.5-42.83l0-106.7C381.2 312.1 378.3 313.3 375.5 314.9zM35.62 352.1c-25.75 25.75-38.62 90.5-34.1 159.3c69.12 3.625 133.6-9.375 159.4-35.13c40.25-40.25 42.87-93.87 6.25-130.5C129.6 309.3 75.1 311.8 35.62 352.1zM117.4 436.1c-8.625 8.5-30.12 12.88-53.12 11.62c-1.25-22.88 2.1-44.5 11.62-53c13.5-13.5 31.37-14.38 43.5-2.125C131.6 404.8 130.7 422.6 117.4 436.1z"/></svg>