<svg xmlns="http://www.w3.org/2000/svg" viewBox="0 0 640 512"><!--! Font Awesome Pro 6.0.0-alpha3 by @fontawesome - https://fontawesome.com License - https://fontawesome.com/license (Commercial License) --><defs><style>.fa-secondary{opacity:.4}</style></defs><path class="fa-primary" d="M640 240v216c0 13.25-10.75 24-24 24h-16C586.7 480 576 469.3 576 456v-96.38C553.1 374.1 525.6 384 496 384c-60.84 0-117.3-30.22-151-80.81L234.5 137.4C217.2 111.5 188.3 96 157.1 96C105.8 96 64 137.8 64 189.1V456C64 469.3 53.25 480 40 480h-16C10.75 480 0 469.3 0 456V189.1C0 102.5 70.47 32 157.1 32c52.63 0 101.5 26.16 130.7 69.94l110.5 165.8C420.1 300.4 456.6 320 496 320c44.13 0 80-35.88 80-80S540.1 160 496 160c-38.99 0-75.46 14.37-104.7 39.59l-36.05-54.08C395.1 113.5 444.2 96 496 96C575.4 96 640 160.6 640 240z"/><path class="fa-secondary" d="M432 258.2V174.2c-14.54 6.512-28.37 14.72-40.69 25.35l33.56 50.34C426.9 253 429.6 255.5 432 258.2zM296 456C296 469.3 306.7 480 320 480s24-10.75 24-24V301.7l-48-72V456zM104 456C104 469.3 114.7 480 128 480s24-10.75 24-24V96.51c-17.77 .9785-34.25 6.684-48 16.29V456zM200 106.6V456C200 469.3 210.7 480 224 480s24-10.75 24-24V157.7L234.5 137.4C225.6 124.2 213.7 113.7 200 106.6zM496 384c-2.695 0-5.324-.377-8-.4941V456c0 13.25 10.75 24 24 24s24-10.75 24-24v-78.36C523.2 381.4 509.1 384 496 384zM392 456c0 13.25 10.75 24 24 24s24-10.75 24-24v-81.17c-17.08-5.539-33.32-13.3-48-23.57V456zM528 275.5V166.8C518.2 162.5 507.4 160 496 160c-5.434 0-10.68 .9219-16 1.471v124.5C485.3 287 490.5 288 496 288C508.3 288 519.5 283.2 528 275.5z"/></svg>