<svg xmlns="http://www.w3.org/2000/svg" viewBox="0 0 448 512"><!--! Font Awesome Pro 6.0.0-alpha3 by @fontawesome - https://fontawesome.com License - https://fontawesome.com/license (Commercial License) --><defs><style>.fa-secondary{opacity:.4}</style></defs><path class="fa-primary" d="M414.5 192H33.53C29.38 165.7 18.78 138.8 6.646 113.9c-3.998-8.25-3.373-17.75 1.875-25.12l41.12-58.38c5-7.125 15.75-13.12 27.5-8.625c15.37 5.875 32.62 8.875 50.25 8.875c29.5 0 59.87-8.5 83.12-26.12C214.5 1.5 219.3 0 224 0s9.501 1.5 13.5 4.5c23.25 17.62 53.62 26.12 83.12 26.12c17.62 0 34.87-2.1 50.24-8.875c11.75-4.5 22.37 1.375 27.5 8.625l41.12 58.25C444.7 96 445.4 105.6 441.4 113.8C429.2 138.8 418.6 165.7 414.5 192z"/><path class="fa-secondary" d="M33.53 192h380.9c-4.314 27.36-1.65 54.06 13.89 77.25c37.1 56.5 18.62 139.4-38.75 166L224 512l-165.6-76.75c-57.37-26.62-76.74-109.5-38.75-166C35.19 246.1 37.85 219.3 33.53 192z"/></svg>