<svg xmlns="http://www.w3.org/2000/svg" viewBox="0 0 512 512"><!--! Font Awesome Pro 6.0.0-alpha3 by @fontawesome - https://fontawesome.com License - https://fontawesome.com/license (Commercial License) --><defs><style>.fa-secondary{opacity:.4}</style></defs><path class="fa-primary" d="M96 256c-53 0-96 43-96 96s96 160 96 160s96-107 96-160S149 256 96 256zM96 384c-17.75 0-32-14.25-32-32s14.25-32 32-32s32 14.25 32 32S113.8 384 96 384zM416 0c-53 0-96 43-96 96s96 160 96 160s96-107 96-160S469 0 416 0zM416 128c-17.75 0-32-14.25-32-32s14.25-32 32-32s32 14.25 32 32S433.8 128 416 128z"/><path class="fa-secondary" d="M512 416c0 52.88-43.13 96-96 96H96c0 0 25.84-28.87 50.71-64H416c17.62 0 32-14.38 32-32s-14.38-32-32-32h-96c-52.88 0-96-43.13-96-96s43.13-96 96-96h45.27C390.1 227.1 416 256 416 256h-96c-17.62 0-32 14.38-32 32s14.38 32 32 32h96C468.9 320 512 363.1 512 416z"/></svg>