<svg xmlns="http://www.w3.org/2000/svg" viewBox="0 0 512 512"><!--! Font Awesome Pro 6.0.0-alpha3 by @fontawesome - https://fontawesome.com License - https://fontawesome.com/license (Commercial License) --><defs><style>.fa-secondary{opacity:.4}</style></defs><path class="fa-primary" d="M494.9 192H17.11c-3.819-51.72 2.604-99.81 14.03-136.9c3.626-11.62 14.1-19.12 26.25-16c18.25 5.125 37.74 8 58.12 8c49.13 0 93.61-15.1 126.1-42.12C245.9 1.625 250.9 0 256 0c5.126 0 10.12 1.625 14.37 5c32.63 26.12 76.98 42.12 126.1 42.12c20.38 0 39.87-2.875 58.12-7.875c11.25-3.25 22.62 4.25 26.25 15.88C492.3 92.19 498.7 140.3 494.9 192z"/><path class="fa-secondary" d="M17.11 192h477.8C486.3 307.7 426.5 441.8 256 512C85.53 441.8 25.66 307.7 17.11 192z"/></svg>