<svg xmlns="http://www.w3.org/2000/svg" viewBox="0 0 384 512"><!--! Font Awesome Pro 6.0.0-alpha3 by @fontawesome - https://fontawesome.com License - https://fontawesome.com/license (Commercial License) --><defs><style>.fa-secondary{opacity:.4}</style></defs><path class="fa-primary" d="M240 32H96C78.33 32 64 46.33 64 64v192H32C14.33 256 0 270.3 0 288s14.33 32 32 32h32v128c0 17.67 14.33 32 32 32s32-14.33 32-32v-128h112c79.41 0 144-64.59 144-144S319.4 32 240 32zM240 256H128V96h112C284.1 96 320 131.9 320 176S284.1 256 240 256z"/><path class="fa-secondary" d="M288 352H128v64h160c17.67 0 32-14.33 32-32S305.7 352 288 352zM0 384c0 17.67 14.33 32 32 32h32v-64H32C14.33 352 0 366.3 0 384z"/></svg>