<svg xmlns="http://www.w3.org/2000/svg" viewBox="0 0 512 512"><!--! Font Awesome Pro 6.0.0-alpha3 by @fontawesome - https://fontawesome.com License - https://fontawesome.com/license (Commercial License) --><defs><style>.fa-secondary{opacity:.4}</style></defs><path class="fa-primary" d="M170.2 307.4C220.7 285 256 234.6 256 176C256 96.59 191.4 32 112 32H32C14.33 32 0 46.31 0 64v384c0 17.69 14.33 32 32 32s32-14.31 32-32v-128h42.33l55.95 139.9C167.3 472.4 179.3 480 192 480c3.953 0 7.971-.7187 11.88-2.281c16.41-6.562 24.39-25.19 17.83-41.59L170.2 307.4zM64 96h48C156.1 96 192 131.9 192 176S156.1 256 112 256H64V96z"/><path class="fa-secondary" d="M320 512c-17.67 0-32-14.31-32-32V192c0-17.69 14.33-32 32-32h72C458.2 160 512 213.8 512 280s-53.83 120-120 120H352V480C352 497.7 337.7 512 320 512zM352 336h40c30.88 0 56-25.12 56-56S422.9 224 392 224H352V336z"/></svg>