<svg xmlns="http://www.w3.org/2000/svg" viewBox="0 0 640 512"><!--! Font Awesome Pro 6.0.0-alpha3 by @fontawesome - https://fontawesome.com License - https://fontawesome.com/license (Commercial License) --><defs><style>.fa-secondary{opacity:.4}</style></defs><path class="fa-primary" d="M511.9 32l-127.9 .0004L383.9 15.1c0-8.75-7.248-16-15.1-16H239.1c-8.748 0-15.1 7.249-15.1 15.1l.0215 16l-159.1-.0005C28.75 32 0 60.75 0 95.1v197.5c0 17 6.749 33.25 18.75 45.25l50.13 50.14C86.45 366.6 113.4 352 144 352c41.7 0 76.83 26.74 90.09 63.89l149.8 .0002l.0249-255.9l191.9 .0007c17.87 0 32.12-14.75 31.99-32.75C607.5 74.63 564.6 32 511.9 32zM255.1 208c0 8.75-7.25 16-15.1 16H111.1c-8.748 0-15.1-7.25-15.1-16v-64c0-8.75 7.248-16 15.1-16h127.1c8.748 0 15.1 7.25 15.1 16V208z"/><path class="fa-secondary" d="M144 384c-35.35 0-64 28.65-64 64s28.65 64 64 64c35.35 0 64-28.65 64-64S179.3 384 144 384zM496 384c-35.35 0-64 28.65-64 64s28.65 64 64 64c35.35 0 64-28.65 64-64S531.3 384 496 384zM621.1 269.3l-58.24-58.25c-11.1-12-28.38-18.84-45.37-18.84l-101.5-.1667l-.0413 204.2C432.9 369.7 462.2 352 496 352c41.74 0 76.9 26.8 90.13 64.01l21.88-.0068C625.6 416 640 401.6 640 384V314.5C639.9 297.5 633.1 281.3 621.1 269.3zM479.1 288V240h37.45c4.248 0 8.249 1.75 11.25 4.75l43.37 43.25H479.1z"/></svg>