<svg xmlns="http://www.w3.org/2000/svg" viewBox="0 0 512 512"><!--! Font Awesome Pro 6.0.0-alpha3 by @fontawesome - https://fontawesome.com License - https://fontawesome.com/license (Commercial License) --><defs><style>.fa-secondary{opacity:.4}</style></defs><path class="fa-primary" d="M320 96H192C183.2 96 176 103.2 176 112S183.2 128 192 128h128C328.9 128 336 120.8 336 112S328.9 96 320 96zM262.6 296.9L256.4 295.1C231 287.6 231.6 284.4 232.3 280.3c1.188-6.797 15.34-10 32.25-7.422c4.969 .7813 11.38 2.547 19.59 5.406c12.44 4.391 26.19-2.281 30.56-14.8c4.344-12.53-2.281-26.2-14.81-30.55c-7.578-2.637-13.9-4.367-19.81-5.732V216c0-13.25-10.77-24-24.02-24S232.1 202.8 232.1 216v10.52c-25.29 5.709-42.94 21.73-47.09 45.64c-8.533 49.47 39.72 63.66 57.91 69.02l6.5 1.875c31.69 9.062 31.19 11.91 30.38 16.61c-1.188 6.781-15.41 10.11-32.38 7.391c-7.719-1.156-17.69-4.75-26.5-7.922l-4.844-1.75c-12.53-4.391-26.22 2.125-30.66 14.61s2.125 26.2 14.59 30.64l4.656 1.656c8.49 3.062 17.91 6.098 27.44 8.316V424c0 13.25 10.73 24 23.98 24s24.02-10.75 24.02-24v-10.43c25.23-5.729 42.86-21.86 47-45.74C335.7 317.8 288.1 304.2 262.6 296.9z"/><path class="fa-secondary" d="M192 96h128l47.39-71.13C370.7 20 371 13.62 368.3 8.5C365.4 3.25 360 0 354.2 0H157.1c-6.002 0-11.38 3.25-14.13 8.5C140.1 13.62 141.4 20 144.6 24.88L192 96zM320 128H192c-202.4 115.4-191.9 268.6-191.9 288c0 53 49.11 96 109.6 96h292.5c60.63 0 109.7-43 109.7-96C511.9 397 521.3 242.8 320 128zM327.1 367.8c-4.139 23.88-21.77 40.01-47 45.74V424c0 13.25-10.77 24-24.02 24s-23.98-10.75-23.98-24v-11.4c-9.527-2.219-18.95-5.254-27.44-8.316l-4.656-1.656c-12.47-4.438-19.03-18.16-14.59-30.64s18.12-19 30.66-14.61l4.844 1.75c8.812 3.172 18.78 6.766 26.5 7.922c16.97 2.719 31.19-.6094 32.38-7.391c.8125-4.703 1.312-7.547-30.38-16.61l-6.5-1.875c-18.19-5.359-66.44-19.55-57.91-69.02C189.1 248.3 206.8 232.2 232.1 226.5V216c0-13.25 10.73-24 23.98-24s24.02 10.75 24.02 24v11.25c5.916 1.365 12.23 3.096 19.81 5.732c12.53 4.344 19.16 18.02 14.81 30.55c-4.375 12.52-18.12 19.19-30.56 14.8c-8.219-2.859-14.62-4.625-19.59-5.406C247.6 270.3 233.5 273.5 232.3 280.3C231.6 284.4 231 287.6 256.4 295.1l6.188 1.797C288.1 304.2 335.7 317.8 327.1 367.8z"/></svg>