<svg xmlns="http://www.w3.org/2000/svg" viewBox="0 0 512 512"><!--! Font Awesome Pro 6.0.0-alpha3 by @fontawesome - https://fontawesome.com License - https://fontawesome.com/license (Commercial License) --><defs><style>.fa-secondary{opacity:.4}</style></defs><path class="fa-primary" d="M320 128H192C183.2 128 176 120.8 176 112S183.2 96 192 96h128C328.9 96 336 103.2 336 111.1S328.9 128 320 128z"/><path class="fa-secondary" d="M192 96h128l47.39-71.13c3.25-4.875 3.625-11.25 .8751-16.38C365.4 3.25 360 0 354.2 0H157.1c-6.002 0-11.38 3.25-14.13 8.5C140.1 13.62 141.4 20 144.6 24.88L192 96zM320 128H192c-202.4 115.4-191.9 268.6-191.9 288c0 53 49.11 96 109.6 96h292.5c60.63 0 109.7-43 109.7-96C511.9 397 521.3 242.8 320 128z"/></svg>