<svg xmlns="http://www.w3.org/2000/svg" viewBox="0 0 512 512"><!--! Font Awesome Pro 6.0.0-alpha3 by @fontawesome - https://fontawesome.com License - https://fontawesome.com/license (Commercial License) --><defs><style>.fa-secondary{opacity:.4}</style></defs><path class="fa-primary" d="M272 160h-192C71.16 160 64 167.2 64 176v256C64 440.8 71.16 448 80 448h192c8.838 0 16-7.164 16-16v-256C288 167.2 280.8 160 272 160zM192 16C192 7.199 184.8 0 176 0h-32C135.2 0 128 7.199 128 16V64h64V16zM256 8C256 3.625 252.4 0 248 0h-16C227.6 0 224 3.625 224 8V64h32V8zM496 0h-32C455.2 0 448 7.199 448 16v256C448 280.8 455.2 288 464 288h32C504.8 288 512 280.8 512 272v-256C512 7.199 504.8 0 496 0zM408 0h-16C387.6 0 384 3.625 384 8v272C384 284.4 387.6 288 392 288h16C412.4 288 416 284.4 416 280v-272C416 3.625 412.4 0 408 0zM336 0h-32C295.2 0 288 7.199 288 16V64h64V16C352 7.199 344.8 0 336 0z"/><path class="fa-secondary" d="M320 96H32C14.33 96 0 110.3 0 128v352c0 17.67 14.33 32 32 32h288c17.67 0 32-14.33 32-32V128C352 110.3 337.7 96 320 96zM288 432c0 8.836-7.162 16-16 16h-192C71.16 448 64 440.8 64 432v-256C64 167.2 71.16 160 80 160h192C280.8 160 288 167.2 288 176V432z"/></svg>