<svg xmlns="http://www.w3.org/2000/svg" viewBox="0 0 640 512"><!--! Font Awesome Pro 6.0.0-alpha3 by @fontawesome - https://fontawesome.com License - https://fontawesome.com/license (Commercial License) --><defs><style>.fa-secondary{opacity:.4}</style></defs><path class="fa-primary" d="M192 416c-20.13 0-37.87-9.48-49.6-24.01c-8.215 4.475-17.5 7.082-27.37 7.6l38.93 97.32C157.6 506 166.4 512 176.2 512H200C213.3 512 224 501.3 224 488v-78.41c-.4941-.5703-1.123-1.012-1.598-1.6C213.3 412.9 203.1 416 192 416zM352 416c-11.07 0-21.32-3.064-30.4-8.01C321.1 408.6 320.5 409 320 409.6V488c0 13.25 10.75 24 24 24h23.75c9.812 0 18.64-5.975 22.28-15.09l38.93-97.32c-9.871-.5176-19.15-3.125-27.37-7.6C389.9 406.5 372.1 416 352 416zM624.3 100.8l-53.11-53.11C561.2 37.63 547.6 32 533.4 32H464c0-17.67-14.33-32-32-32s-32 14.33-32 32v85.74c7.129 8.104 12.26 18.01 14.58 28.96C420.2 145.1 425.9 144 432 144c29.79 0 54.59 20.45 61.72 48h92.83c20.24 0 38.75-11.44 47.8-29.54C644.6 141.9 640.6 117 624.3 100.8zM512 112c-8.836 0-16-7.164-16-16s7.164-16 16-16s16 7.164 16 16S520.8 112 512 112z"/><path class="fa-secondary" d="M493.3 318.6C494.9 324.2 496 329.9 496 336c0 35.35-28.65 64-64 64c-11.07 0-21.32-3.064-30.4-8.01C389.9 406.5 372.1 416 352 416c-11.07 0-21.32-3.064-30.4-8.01C309.9 422.5 292.1 432 271.1 432s-37.86-9.48-49.6-24.01C213.3 412.9 203.1 416 192 416c-20.13 0-37.87-9.48-49.6-24.01C133.3 396.9 123.1 400 112 400c-35.35 0-64-28.65-64-64c0-6.082 1.119-11.85 2.705-17.42C21.75 312.5 0 286.8 0 256s21.75-56.45 50.71-62.58C49.12 187.8 48 182.1 48 176c0-35.35 28.65-64 64-64c11.07 0 21.32 3.064 30.4 8.01C154.1 105.5 171.9 96 192 96c11.07 0 21.32 3.064 30.4 8.01C234.1 89.48 251.9 80 272 80s37.87 9.48 49.6 24.01C330.7 99.06 340.9 96 352 96c30.78 0 56.45 21.75 62.58 50.71C420.2 145.1 425.9 144 432 144c30.42 0 55.77 21.28 62.27 49.73C522.7 200.2 543.1 225.6 543.1 256C543.1 286.8 522.3 312.5 493.3 318.6z"/></svg>