<svg xmlns="http://www.w3.org/2000/svg" viewBox="0 0 448 512"><!--! Font Awesome Pro 6.0.0-alpha3 by @fontawesome - https://fontawesome.com License - https://fontawesome.com/license (Commercial License) --><defs><style>.fa-secondary{opacity:.4}</style></defs><path class="fa-primary" d="M32 480c-17.69 0-32-14.33-32-32V64c0-17.67 14.31-32 32-32h160c70.59 0 128 57.42 128 128v160c0 17.67-14.31 32-32 32s-32-14.33-32-32V160c0-35.3-28.72-64-64-64H64v352C64 465.7 49.69 480 32 480z"/><path class="fa-secondary" d="M320 480H160c-17.69 0-32-14.33-32-32V192c0-17.67 14.31-32 32-32s32 14.33 32 32v224h128c35.28 0 64-28.7 64-64V64c0-17.67 14.31-32 32-32s32 14.33 32 32v288C448 422.6 390.6 480 320 480z"/></svg>