<svg xmlns="http://www.w3.org/2000/svg" viewBox="0 0 640 512"><!--! Font Awesome Pro 6.0.0-alpha3 by @fontawesome - https://fontawesome.com License - https://fontawesome.com/license (Commercial License) --><defs><style>.fa-secondary{opacity:.4}</style></defs><path class="fa-primary" d="M576 280.3c0 7.32-4.188 17.46-9.375 22.65l-92 88.82c-13.44 13.17-39.66 24.04-58.47 24.24c-21.24 0-46.33-5.852-59.12-21.89C348.2 382.9 334.5 376.5 320 376.3c-14.46 .125-28.15 6.597-37.04 17.76c-12.79 16.04-37.88 21.89-59.12 21.89c-18.81-.2031-45.03-11.07-58.47-24.24l-92-88.82C68.19 297.7 64 287.6 64 280.3C64 267.4 73.94 253.7 86.22 249.8l224-72.07C313.8 176.6 317 176.3 320 176.4c2.953-.0234 6.213 .2145 9.781 1.365l224 72.07C566.1 253.7 576 267.4 576 280.3z"/><path class="fa-secondary" d="M594.4 448.4c-28.43-2.992-54.76-15.52-70.53-34.71c-6.451-7.852-18.08-6.516-24.75 1.156c-39.09 44.1-131.2 43.85-167.1-1.156c-2.996-3.758-7.533-5.652-12.03-5.691c-4.5 .0391-9.01 1.934-12.01 5.691c-35.9 45.01-128 46.15-167.1 1.156c-6.664-7.672-18.3-9.008-24.75-1.156c-15.77 19.19-42.11 31.72-70.53 34.71C37.69 449.2 32 456.2 32 464l.0911 32.01c.002 9.051 7.546 16.71 16.62 15.92c28.8-2.488 56.11-11.33 79.41-25.75c56.49 34.39 136.9 33.92 191.9 .0781c54.1 33.84 135.4 34.31 191.9-.0781c23.3 14.42 50.61 23.27 79.41 25.75c9.078 .7852 16.72-6.87 16.72-15.92L608 464C608 456.2 602.3 449.2 594.4 448.4zM192 128.1h256v87.64l64 20.59V96.09c0-17.67-14.34-32.03-32-32.03l-63.1-.0362L416 24.02c0-13.26-10.75-24.02-24-24.02h-144c-13.25 0-24 10.76-24 24.02L223.1 64.02L160 64.06c-17.66 0-32 14.36-32 32.03v140.3l64-20.59V128.1z"/></svg>