<svg xmlns="http://www.w3.org/2000/svg" viewBox="0 0 640 512"><!--! Font Awesome Pro 6.0.0-alpha3 by @fontawesome - https://fontawesome.com License - https://fontawesome.com/license (Commercial License) --><defs><style>.fa-secondary{opacity:.4}</style></defs><path class="fa-primary" d="M607.1 192H32.1C6.47 192-8.78 163.5 5.47 142.2l85.25-128c6-9 16-14.25 26.63-14.25h405.3c10.63 0 20.63 5.25 26.63 14.25l85.38 128C648.7 163.5 633.5 192 607.1 192z"/><path class="fa-secondary" d="M63.99 192l-.0147 288c0 17.75 14.25 32 32 32h256c17.75 0 32-14.25 32-32l.0005-224h128l-.0004 240c0 8.75 7.25 16 16 16h32.01c8.75 0 16-7.25 16-16l.004-304H63.99zM127.1 416V256h192v160H127.1z"/></svg>