<svg xmlns="http://www.w3.org/2000/svg" viewBox="0 0 640 512"><!--! Font Awesome Pro 6.0.0-alpha3 by @fontawesome - https://fontawesome.com License - https://fontawesome.com/license (Commercial License) --><defs><style>.fa-secondary{opacity:.4}</style></defs><path class="fa-primary" d="M634.9 502.8c-8.125 10.41-23.19 12.28-33.69 4.078L9.188 42.89c-10.44-8.172-12.26-23.27-4.068-33.7C9.839 3.156 16.91 0 24.03 0c5.156 0 10.37 1.672 14.78 5.109l591.1 463.1C641.2 477.3 643.1 492.4 634.9 502.8z"/><path class="fa-secondary" d="M23.54 115.1L5.471 142.3c-14.25 21.25 1 49.75 26.62 49.75l89.54 .0016L23.54 115.1zM319.1 384H127.1V224L63.98 224l-.0089 255.1C63.97 497.8 78.22 512 95.97 512h255.1c17.75 0 31.1-14.25 31.1-31.1v-82.38L319.1 347.5V384zM319.1 225.5l63.1 50.16V224H319.1V225.5zM511.1 375.1l64.01 50.17V224l-64.01 .0015V375.1zM634.6 142.3l-85.38-127.1c-6-8.1-16-14.25-26.62-14.25H117.3c-10.62 0-20.62 5.253-26.62 14.25L76.92 34.98l200.3 157l330.7-.0016C633.5 192 648.7 163.5 634.6 142.3z"/></svg>