<svg xmlns="http://www.w3.org/2000/svg" viewBox="0 0 640 512"><!--! Font Awesome Pro 6.0.0-alpha3 by @fontawesome - https://fontawesome.com License - https://fontawesome.com/license (Commercial License) --><defs><style>.fa-secondary{opacity:.4}</style></defs><path class="fa-primary" d="M576.8 192.3C533 171.8 474.3 160 416 160H160c0-17.67-14.33-32-32-32H32C14.33 128 0 142.3 0 160v192c0 17.67 14.33 32 32 32h96c17.67 0 32-14.33 32-32h256c58.33 0 117-11.83 160.8-32.33C616.3 301.2 640 277.3 640 256C640 234.7 616.3 210.8 576.8 192.3zM481.1 306.1c-5.477 0-10.02-4.537-10.02-10.01V215.9c0-5.477 4.539-10.02 10.02-10.02C521.9 205.9 522 306.1 481.1 306.1z"/><path class="fa-secondary" d="M32 432C32 458.5 53.49 480 80 480H96v-96H32V432zM160 160h256C288 128 192 32 128 32v96C145.7 128 160 142.3 160 160zM32 80V128h64V32H80C53.49 32 32 53.49 32 80zM128 384v96c64 0 160-96 288-128H160C160 369.7 145.7 384 128 384z"/></svg>