<svg xmlns="http://www.w3.org/2000/svg" viewBox="0 0 512 512"><!--! Font Awesome Pro 6.0.0-alpha3 by @fontawesome - https://fontawesome.com License - https://fontawesome.com/license (Commercial License) --><defs><style>.fa-secondary{opacity:.4}</style></defs><path class="fa-primary" d="M483.1 191.1h-20c0 5.1 4.251 55.75-44.76 71.25l-91.14 28.75l-26.45 45.33l-77.97 36.41L197.9 347.9l70.76-70.75l140.9-44.5c13.25-4.25 22.38-16.62 22.38-30.5V107.1c0-15.5-12.5-27.1-28.01-27.1h-94.14c-14 0-26.25 9.124-30.51 22.37L234.8 243.2L164 313.1l-25.75-25.75l36.38-77.95l45.44-26.42l28.76-91.12c14.5-45.1 58.89-44.75 71.14-44.75V27.1c0-15.37-12.63-27.1-28.01-27.1H237.3c-10.75 0-20.75 6.25-25.38 16.25L95.42 266.5L56.19 305.8l150 149.1l39.26-39.27l250.3-116.5C505.6 295.4 512 285.5 512 274.6V219.1C512 204.6 499.4 191.1 483.1 191.1z"/><path class="fa-secondary" d="M31.04 330.1c-41.38 41.37-41.38 108.6 0 149.1s108.6 41.37 150 0l25.16-25.2L56.19 305.8L31.04 330.1z"/></svg>