<svg xmlns="http://www.w3.org/2000/svg" viewBox="0 0 512 512"><!--! Font Awesome Pro 6.0.0-alpha3 by @fontawesome - https://fontawesome.com License - https://fontawesome.com/license (Commercial License) --><defs><style>.fa-secondary{opacity:.4}</style></defs><path class="fa-primary" d="M288 32v448h160c35.35 0 64-28.65 64-64V96c0-35.35-28.65-64-64-64H288zM352 312C352 298.7 362.7 288 376 288h48C437.3 288 448 298.7 448 312c0 13.25-10.75 24-24 24h-48C362.7 336 352 325.3 352 312zM352 216C352 202.7 362.7 192 376 192h48C437.3 192 448 202.7 448 216c0 13.25-10.75 24-24 24h-48C362.7 240 352 229.3 352 216zM352 120C352 106.7 362.7 96 376 96h48C437.3 96 448 106.7 448 120c0 13.25-10.75 24-24 24h-48C362.7 144 352 133.3 352 120z"/><path class="fa-secondary" d="M64 32h224v448H64c-35.35 0-64-28.65-64-64V96C0 60.65 28.65 32 64 32z"/></svg>