<svg xmlns="http://www.w3.org/2000/svg" viewBox="0 0 512 512"><!--! Font Awesome Pro 6.0.0-alpha3 by @fontawesome - https://fontawesome.com License - https://fontawesome.com/license (Commercial License) --><defs><style>.fa-secondary{opacity:.4}</style></defs><path class="fa-primary" d="M507.3 84.75l-43.25-43.38C458.1 35.38 449.9 32 441.4 32H55.94C42.69 32 31.94 42.75 31.94 56v80c0 13.25 10.75 24 24 24h385.5c8.5 0 16.62-3.375 22.62-9.375l43.25-43.25C513.6 101 513.6 91 507.3 84.75zM455.1 224H70.57c-8.5 0-16.63 3.375-22.63 9.375L4.688 276.8c-6.25 6.25-6.25 16.38 0 22.62l43.25 43.25C53.94 348.6 62.06 352 70.56 352h385.4c13.25 0 24-10.75 24-24v-80C479.9 234.8 469.2 224 455.1 224z"/><path class="fa-secondary" d="M224 496C224 504.8 231.2 512 240 512h32c8.838 0 16-7.164 16-16V352H224V496zM271.1 0h-32c-8.836 0-16 7.164-16 16V32h64V16C287.1 7.164 280.8 0 271.1 0zM223.1 224h64L288 160H224L223.1 224z"/></svg>