<svg xmlns="http://www.w3.org/2000/svg" viewBox="0 0 512 512"><!--! Font Awesome Pro 6.0.0-alpha3 by @fontawesome - https://fontawesome.com License - https://fontawesome.com/license (Commercial License) --><defs><style>.fa-secondary{opacity:.4}</style></defs><path class="fa-primary" d="M160 384h320V128H160V384z"/><path class="fa-secondary" d="M496 63.1L128 63.1v-48c0-8.75-7.25-16-16-16l-32 0c-8.75 0-16 7.25-16 16v48L16 63.1c-8.75 0-16 7.25-16 16v32c0 8.75 7.25 16 16 16H64v368C64 504.8 71.25 512 80 512h32C120.8 512 128 504.8 128 496v-368h368c8.75 0 16-7.25 16-16v-32C512 71.25 504.8 63.1 496 63.1z"/></svg>