<svg xmlns="http://www.w3.org/2000/svg" viewBox="0 0 448 512"><!--! Font Awesome Pro 6.0.0-alpha3 by @fontawesome - https://fontawesome.com License - https://fontawesome.com/license (Commercial License) --><defs><style>.fa-secondary{opacity:.4}</style></defs><path class="fa-primary" d="M439.2 453l-142-69.01l142-69c7.875-4 11.13-13.62 7.125-21.5l-14.25-28.63c-4-7.875-13.5-11.13-21.5-7.125L224 348.4L37.47 257.8C29.6 253.8 19.97 257 15.97 264.9L1.715 293.5c-4 7.877-.7504 17.5 7.127 21.5l142 69l-142 69.01c-7.877 4-11.13 13.62-7.127 21.5l14.25 28.63c4 7.875 13.63 11.13 21.5 7.125L224 419.7l186.5 90.63c7.877 4 17.5 .7498 21.5-7.125l14.25-28.63C450.3 466.7 447 457 439.2 453zM167.1 176c17.63 0 32-14.38 32-32S185.6 112 167.1 112c-17.63 0-32.01 14.38-32.01 32S150.4 176 167.1 176zM280 176c17.63 0 32-14.38 32-32s-14.38-32-32-32c-17.63 0-32.01 14.38-32.01 32S262.4 176 280 176z"/><path class="fa-secondary" d="M368 127.1C368 57.25 303.5 0 224 0C144.5 0 79.99 57.25 79.99 127.1c0 46.5 28.24 86.88 69.1 109.3L144.5 263.1C141.9 275.8 149.1 288 160.1 288h126c11.13 0 19.13-12.25 16.5-24.88l-5.502-25.88C339.8 214.9 368 174.5 368 127.1zM167.1 176c-17.63 0-32.01-14.38-32.01-32s14.38-32 32.01-32c17.63 0 32 14.38 32 32S185.6 176 167.1 176zM280 176c-17.63 0-32.01-14.38-32.01-32s14.38-32 32.01-32c17.63 0 32 14.38 32 32S297.6 176 280 176z"/></svg>