<svg xmlns="http://www.w3.org/2000/svg" viewBox="0 0 640 512"><!--! Font Awesome Pro 6.0.0-alpha3 by @fontawesome - https://fontawesome.com License - https://fontawesome.com/license (Commercial License) --><defs><style>.fa-secondary{opacity:.4}</style></defs><path class="fa-primary" d="M576 128c0 17.75-14.25 32-32 32v96c0 53-43 96-96 96v80h-64V352H192v80H128v-84.5C72.88 333.3 32 283.6 32 224V96C14.25 96 0 81.75 0 64s14.25-32 32-32h20.75C118.4 32 178.6 69.25 208 128s89.5 96 155.3 96H384c35.25 0 64-28.75 64-64V96h96C561.8 96 576 110.3 576 128z"/><path class="fa-secondary" d="M612.7 350.8l-9.375-7.5c-6.875-5.5-17-4.375-22.5 2.5l-10 12.5c-5.5 7-4.375 17 2.5 22.5l9.375 7.5c5.875 4.625 9.125 11.63 9.125 19.13c0 13.62-11 24.62-24.62 24.62H48C39.25 432 32 439.2 32 448l.0001 16c0 8.75 7.25 16 16 16h516c39 0 73.72-29.25 75.84-68.25C641.2 387.9 631.2 365.4 612.7 350.8z"/></svg>