<svg xmlns="http://www.w3.org/2000/svg" viewBox="0 0 640 512"><!--! Font Awesome Pro 6.0.0-alpha3 by @fontawesome - https://fontawesome.com License - https://fontawesome.com/license (Commercial License) --><defs><style>.fa-secondary{opacity:.4}</style></defs><path class="fa-primary" d="M120 376c-13.22 .0331-24.03 10.78-24 24c.0331 13.22 10.78 24 24 23.97c13.22-.0332 24-10.78 23.97-24C143.1 386.8 133.2 376 120 376zM200 376c-13.22 .0331-24.04 10.78-24 23.1c.0331 13.22 10.78 24.01 24 23.97c13.22-.0332 24-10.78 23.97-24C223.1 386.8 213.2 376 200 376zM360 376c-13.22 .0331-24.03 10.78-24 24c.0331 13.22 10.78 24 24 23.97c13.22-.0332 24-10.78 23.97-24C383.1 386.8 373.2 376 360 376zM280 376c-13.22 .0331-24.03 10.78-24 24c.0331 13.22 10.78 24 24 23.97c13.22-.0332 24-10.77 23.97-23.1C303.1 386.8 293.2 376 280 376zM598.7 425.4c-14.48-14.48-22.62-34.14-22.61-54.62V269.2c-.0104-20.48 8.133-40.13 22.61-54.62l36.67-36.73c6.198-6.259 6.191-16.34-.0064-22.6l-22.58-22.58c-6.259-6.198-16.32-6.183-22.58 .0148l-36.73 36.66c-26.51 26.49-41.39 62.42-41.39 99.89v18.73h-64.01V237.1c-.0158-8.666-1.81-17.26-5.225-25.23l-78.28-182.8c-7.574-17.68-25.1-29.15-44.33-29.11L176 0c-26.51 0-48 21.49-48 48v112h-16c-26.51 0-48 21.49-48 48L64 298.8c15-7.119 31.4-10.83 48-10.8h256c43.27-.0105 82.71 24.93 101.3 64.03l42.79-.0179v18.73c-.0001 37.48 14.88 73.4 41.39 99.89l36.73 36.66c6.259 6.198 16.32 6.202 22.58 .0039l22.58-22.58c6.198-6.259 6.204-16.33 .0064-22.59L598.7 425.4zM256 224L192 160V64h117.8l68.62 160H256z"/><path class="fa-secondary" d="M368 352c26.51 0 48 21.49 48 48S394.5 448 368 448h-256c-26.51 0-48-21.49-48-48S85.5 352 112 352H368zM368 288h-256C50.14 288 0 338.1 0 400S50.15 512 112 512h256c61.86 0 112-50.14 112-112S429.9 288 368 288z"/></svg>