<svg xmlns="http://www.w3.org/2000/svg" viewBox="0 0 512 512"><!--! Font Awesome Pro 6.0.0-alpha3 by @fontawesome - https://fontawesome.com License - https://fontawesome.com/license (Commercial License) --><defs><style>.fa-secondary{opacity:.4}</style></defs><path class="fa-primary" d="M256 320c-88.73 0-174.3-13.76-254.7-39.15C2.412 292.9 4.604 304.5 7.363 316C86.26 339.3 169.7 352 256 352s169.7-12.71 248.6-35.1c2.76-11.47 4.951-23.15 6.107-35.16C430.3 306.2 344.7 320 256 320zM192 240c44.13 0 80-35.88 80-80S236.1 80 192 80S112 115.9 112 160S147.9 240 192 240zM192 136c13.25 0 24 10.75 24 24S205.3 184 192 184S168 173.3 168 160S178.8 136 192 136z"/><path class="fa-secondary" d="M7.363 316C34.41 428.4 135.3 512 256 512s221.6-83.61 248.6-195.1C425.7 339.3 342.3 352 256 352S86.26 339.3 7.363 316zM256 0C114.6 0 0 114.6 0 256c0 8.389 .4668 16.66 1.256 24.85C81.71 306.2 167.3 320 256 320s174.3-13.76 254.7-39.15C511.5 272.7 512 264.4 512 256C512 114.6 397.4 0 256 0zM192 240C147.9 240 112 204.1 112 160S147.9 80 192 80s80 35.88 80 80S236.1 240 192 240z"/></svg>