<svg xmlns="http://www.w3.org/2000/svg" viewBox="0 0 512 512"><!--! Font Awesome Pro 6.0.0-alpha3 by @fontawesome - https://fontawesome.com License - https://fontawesome.com/license (Commercial License) --><defs><style>.fa-secondary{opacity:.4}</style></defs><path class="fa-primary" d="M256 320c-88.73 0-174.3-13.76-254.7-39.15C2.412 292.9 4.604 304.5 7.363 316C86.26 339.3 169.7 352 256 352s169.7-12.71 248.6-35.1c2.76-11.47 4.951-23.15 6.107-35.16C430.3 306.2 344.7 320 256 320zM192 240c44.13 0 80-35.88 80-80S236.1 80 192 80S112 115.9 112 160S147.9 240 192 240zM191.1 136C205.2 136 215.1 146.8 215.1 160S205.2 184 191.1 184c-13.25 0-24-10.75-24-24S178.7 136 191.1 136z"/><path class="fa-secondary" d="M510.7 280.8C511.5 272.7 512 264.4 512 256c0-10.86-.8984-21.49-2.211-32H448V160h-80V96H416V56.33C372.2 21.16 316.6 0 256 0c-141.4 0-256 114.6-256 256c0 8.389 .4668 16.66 1.256 24.85C81.71 306.2 167.3 320 256 320S430.3 306.2 510.7 280.8zM192 240C147.9 240 112 204.1 112 160S147.9 80 192 80s80 35.88 80 80S236.1 240 192 240zM448 424.9C401.2 478.2 332.6 512 256 512c-120.7 0-221.6-83.61-248.6-195.1C86.26 339.3 169.7 352 256 352c43.48 0 86.21-3.254 128-9.43V384h64V424.9z"/></svg>