<svg xmlns="http://www.w3.org/2000/svg" viewBox="0 0 512 512"><!--! Font Awesome Pro 6.0.0-alpha3 by @fontawesome - https://fontawesome.com License - https://fontawesome.com/license (Commercial License) --><defs><style>.fa-secondary{opacity:.4}</style></defs><path class="fa-primary" d="M290.4 287.6l-207.4 216.2c-4.914 5.156-11.7 8.148-18.85 8.246c-7.104 .0976-13.99-2.699-19.02-7.734l-37.36-37.36c-5.035-5.031-7.834-11.92-7.736-19.02c.0977-7.152 3.09-13.94 8.246-18.85l216.2-207.4L290.4 287.6z"/><path class="fa-secondary" d="M450.3 265.1c-.5039 .5039-1.008 1.004-1.516 1.496c-42.99 41.93-107.1 47.27-158.5 20.95L224.4 221.6C198.1 170.3 203.4 106.2 245.4 63.18c.4941-.5078 .9922-1.012 1.496-1.516c64.29-64.29 176.4-85.34 232.5-29.09C535.7 88.7 514.6 200.8 450.3 265.1z"/></svg>