<svg xmlns="http://www.w3.org/2000/svg" viewBox="0 0 448 512"><!--! Font Awesome Pro 6.0.0-alpha3 by @fontawesome - https://fontawesome.com License - https://fontawesome.com/license (Commercial License) --><defs><style>.fa-secondary{opacity:.4}</style></defs><path class="fa-primary" d="M256 256c0-17.67-14.33-32-32-32C206.3 224 192 238.3 192 256s14.33 32 32 32C241.7 288 256 273.7 256 256zM256 144c0-17.67-14.33-32-32-32c-17.67 0-32 14.33-32 32s14.33 32 32 32C241.7 176 256 161.7 256 144zM256 368c0-17.67-14.33-32-32-32c-17.67 0-32 14.33-32 32s14.33 32 32 32C241.7 400 256 385.7 256 368z"/><path class="fa-secondary" d="M384 32H64C28.65 32 0 60.66 0 96v320c0 35.34 28.65 64 64 64h320c35.35 0 64-28.66 64-64V96C448 60.66 419.3 32 384 32zM224 400c-17.67 0-32-14.33-32-32s14.33-32 32-32c17.67 0 32 14.33 32 32S241.7 400 224 400zM224 288C206.3 288 192 273.7 192 256s14.33-32 32-32c17.67 0 32 14.33 32 32S241.7 288 224 288zM224 176c-17.67 0-32-14.33-32-32s14.33-32 32-32c17.67 0 32 14.33 32 32S241.7 176 224 176z"/></svg>