<svg xmlns="http://www.w3.org/2000/svg" viewBox="0 0 640 512"><!--! Font Awesome Pro 6.0.0-alpha3 by @fontawesome - https://fontawesome.com License - https://fontawesome.com/license (Commercial License) --><defs><style>.fa-secondary{opacity:.4}</style></defs><path class="fa-primary" d="M630.8 469.1L38.81 5.109C34.41 1.672 29.19 0 24.03 0C16.91 0 9.845 3.156 5.127 9.187c-8.187 10.44-6.375 25.53 4.062 33.7L601.2 506.9c10.5 8.203 25.56 6.328 33.69-4.078C643.1 492.4 641.2 477.3 630.8 469.1z"/><path class="fa-secondary" d="M287.1 352c0 17.6-14.4 31.1-31.1 31.1s-32-14.4-32-31.1l.0001-79.76L95.1 171.9l.0001 244.1c0 35.35 28.65 63.1 63.1 63.1L480 480l1.933-5.601l-193.9-152V352zM479.1 32H159.1c-21.62 0-40.59 10.8-52.1 27.25l117.8 92.34C229.5 138.1 241.4 128 255.1 128l80-.0018c59.17 0 106.1 53.1 94.11 115.2c-3.701 18.87-13.54 34.92-26.71 47.63l140.6 110.2l.0002-305.1C543.1 60.66 515.3 32 479.1 32zM367.1 224c0-17.62-14.37-31.1-31.1-31.1H287.1v8.408l64.34 50.43C361.5 245.2 367.1 235.5 367.1 224z"/></svg>