<svg xmlns="http://www.w3.org/2000/svg" viewBox="0 0 448 512"><!--! Font Awesome Pro 6.0.0-alpha3 by @fontawesome - https://fontawesome.com License - https://fontawesome.com/license (Commercial License) --><defs><style>.fa-secondary{opacity:.4}</style></defs><path class="fa-primary" d="M310.8 314.3c-5.312 28.42-29.03 47.14-62.72 52.54V384c0 13.25-10.75 24-23.1 24s-23.1-10.75-23.1-24v-18.06c-14.09-2.43-28.46-6.939-41.25-11.21l-6.281-2.078c-12.59-4.125-19.47-17.69-15.34-30.28s17.75-19.45 30.28-15.34l6.5 2.156c12.12 4.031 25.84 8.594 36.1 10.16c27.88 4.016 50.37-1.984 52.62-13.91c1.812-9.609-1.844-14.67-45.78-26.28L209.2 276.9C184.5 270.2 126.6 254.5 137.2 197.7c5.322-28.44 29.06-47.2 62.84-52.56V128c0-13.25 10.75-24 23.1-24S248 114.8 248 128v18c8.953 1.566 18.85 3.982 31.22 7.936c12.62 4.016 19.62 17.53 15.59 30.16c-4 12.62-17.53 19.66-30.16 15.56c-11.56-3.688-20.69-5.984-27.84-7.016C209.3 188.7 186.6 194.6 184.4 206.6C183 213.6 181.9 219.7 221.8 230.5L230 232.8C264.3 241.8 321.5 256.9 310.8 314.3z"/><path class="fa-secondary" d="M384 32H64C28.65 32 0 60.65 0 96v320c0 35.35 28.65 64 64 64h320c35.35 0 64-28.65 64-64V96C448 60.65 419.3 32 384 32zM310.8 314.3c-5.312 28.42-29.03 47.14-62.72 52.54V384c0 13.25-10.75 24-23.1 24s-23.1-10.75-23.1-24v-18.06c-14.09-2.43-28.46-6.939-41.25-11.21l-6.281-2.078c-12.59-4.125-19.47-17.69-15.34-30.28s17.75-19.45 30.28-15.34l6.5 2.156c12.12 4.031 25.84 8.594 36.1 10.16c27.88 4.016 50.37-1.984 52.62-13.91c1.812-9.609-1.844-14.67-45.78-26.28L209.2 276.9C184.5 270.2 126.6 254.5 137.2 197.7c5.322-28.44 29.06-47.2 62.84-52.56V128c0-13.25 10.75-24 23.1-24S248 114.8 248 128v18c8.953 1.566 18.85 3.982 31.22 7.936c12.62 4.016 19.62 17.53 15.59 30.16c-4 12.62-17.53 19.66-30.16 15.56c-11.56-3.688-20.69-5.984-27.84-7.016C209.3 188.7 186.6 194.6 184.4 206.6C183 213.6 181.9 219.7 221.8 230.5L230 232.8C264.3 241.8 321.5 256.9 310.8 314.3z"/></svg>