<svg xmlns="http://www.w3.org/2000/svg" viewBox="0 0 448 512"><!--! Font Awesome Pro 6.0.0-alpha3 by @fontawesome - https://fontawesome.com License - https://fontawesome.com/license (Commercial License) --><defs><style>.fa-secondary{opacity:.4}</style></defs><path class="fa-primary" d="M336 224h-224C103.1 224 96 231.1 96 240v32C96 280.9 103.1 288 112 288h224C344.9 288 352 280.9 352 272v-32C352 231.1 344.9 224 336 224zM176 320h-64C103.1 320 96 327.1 96 336v32C96 376.9 103.1 384 112 384h64C184.9 384 192 376.9 192 368v-32C192 327.1 184.9 320 176 320zM112 192h128C248.9 192 256 184.9 256 176v-32c0-8.875-7.125-16-16-16h-128C103.1 127.1 96 135.1 96 144v32C96 184.9 103.1 192 112 192z"/><path class="fa-secondary" d="M384 31.1H64c-35.35 0-64 28.65-64 63.1v320c0 35.35 28.65 64 64 64h320c35.35 0 64-28.65 64-64v-320C448 60.65 419.3 31.1 384 31.1zM96 144c0-8.875 7.125-16 16-16h128c8.875 0 16 7.125 16 16v32C256 184.9 248.9 192 240 192h-128C103.1 192 96 184.9 96 176V144zM192 368C192 376.9 184.9 384 176 384h-64C103.1 384 96 376.9 96 368v-32C96 327.1 103.1 320 112 320h64C184.9 320 192 327.1 192 336V368zM352 272C352 280.9 344.9 288 336 288h-224C103.1 288 96 280.9 96 272v-32C96 231.1 103.1 224 112 224h224C344.9 224 352 231.1 352 240V272z"/></svg>