<svg xmlns="http://www.w3.org/2000/svg" viewBox="0 0 448 512"><!--! Font Awesome Pro 6.0.0-alpha3 by @fontawesome - https://fontawesome.com License - https://fontawesome.com/license (Commercial License) --><defs><style>.fa-secondary{opacity:.4}</style></defs><path class="fa-primary" d="M140 101.5c-6.062-6.938-17.97-6.938-24.09 0l-55.94 64C55.88 170.2 54.91 176.9 57.5 182.6C60.09 188.3 65.78 192 72.06 192h24.06v112c0 8.75 7.125 16 16 16h31.97c8.75 0 16.03-7.25 16.03-16V192h23.94c8.844 0 16-7.156 16-16c0-4.219-1.625-8.062-4.312-10.92C192.3 161.3 140 101.5 140 101.5zM387.7 165.1c-3.406-3.781-55.72-63.61-55.72-63.61c-6.062-6.938-17.97-6.938-24.09 0l-55.94 64c-4.125 4.734-5.094 11.44-2.5 17.14C252 188.3 257.7 192 264 192H288v112c0 8.75 7.25 16 16 16h32c8.75 0 16-7.25 16-16V192h24c8.844 0 16-7.156 16-16C392 171.8 390.4 167.9 387.7 165.1z"/><path class="fa-secondary" d="M384 32H64C28.65 32 0 60.65 0 96v320c0 35.35 28.65 64 64 64h320c35.35 0 64-28.65 64-64V96C448 60.65 419.3 32 384 32zM57.5 182.6C54.91 176.9 55.88 170.2 60 165.5l55.94-64c6.125-6.938 18.03-6.938 24.09 0c0 0 52.31 59.83 55.72 63.61C198.4 167.9 200.1 171.8 200.1 176c0 8.844-7.156 16-16 16H160.1v112c0 8.75-7.281 16-16.03 16H112.1c-8.875 0-16-7.25-16-16V192H72.06C65.78 192 60.09 188.3 57.5 182.6zM384 408c0 4.375-3.625 8-8 8h-304C67.63 416 64 412.4 64 408v-16C64 387.6 67.63 384 72 384h304c4.375 0 8 3.625 8 8V408zM376 192H352v112c0 8.75-7.25 16-16 16h-32C295.3 320 288 312.8 288 304V192h-24c-6.281 0-11.97-3.672-14.56-9.391c-2.594-5.703-1.625-12.41 2.5-17.14l55.94-64c6.124-6.938 18.03-6.938 24.09 0c0 0 52.31 59.83 55.72 63.61C390.4 167.9 392 171.8 392 176C392 184.8 384.8 192 376 192z"/></svg>