<svg xmlns="http://www.w3.org/2000/svg" viewBox="0 0 448 512"><!--! Font Awesome Pro 6.0.0-alpha3 by @fontawesome - https://fontawesome.com License - https://fontawesome.com/license (Commercial License) --><defs><style>.fa-secondary{opacity:.4}</style></defs><path class="fa-primary" d="M224 224C206.3 224 192 238.3 192 256c0 17.67 14.33 32 32 32s32-14.33 32-32C256 238.3 241.7 224 224 224zM112 224c-17.67 0-32 14.33-32 32c0 17.67 14.33 32 32 32s32-14.33 32-32C144 238.3 129.7 224 112 224zM336 224c-17.67 0-32 14.33-32 32c0 17.67 14.33 32 32 32s32-14.33 32-32C368 238.3 353.7 224 336 224z"/><path class="fa-secondary" d="M384 32H64C28.65 32 0 60.66 0 96v320c0 35.34 28.65 64 64 64h320c35.35 0 64-28.66 64-64V96C448 60.66 419.3 32 384 32zM112 288c-17.67 0-32-14.33-32-32c0-17.67 14.33-32 32-32s32 14.33 32 32C144 273.7 129.7 288 112 288zM224 288C206.3 288 192 273.7 192 256c0-17.67 14.33-32 32-32s32 14.33 32 32C256 273.7 241.7 288 224 288zM336 288c-17.67 0-32-14.33-32-32c0-17.67 14.33-32 32-32s32 14.33 32 32C368 273.7 353.7 288 336 288z"/></svg>