<svg xmlns="http://www.w3.org/2000/svg" viewBox="0 0 448 512"><!--! Font Awesome Pro 6.0.0-alpha3 by @fontawesome - https://fontawesome.com License - https://fontawesome.com/license (Commercial License) --><defs><style>.fa-secondary{opacity:.4}</style></defs><path class="fa-primary" d="M320 208c0 47.54-34.64 86.73-80 94.39V384H288c8.836 0 16 7.162 16 16c0 8.836-7.164 16-16 16H160c-8.836 0-16-7.164-16-16C144 391.2 151.2 384 160 384h48V302.4C162.6 294.7 128 255.5 128 208v-96C128 103.2 135.2 96 144 96h32l32 64l-32 32L256 256l-32-64l48-32l-32-64h64C312.8 96 320 103.2 320 112V208z"/><path class="fa-secondary" d="M384 32H64C28.65 32 0 60.65 0 96v320c0 35.35 28.65 64 64 64h320c35.35 0 64-28.65 64-64V96C448 60.65 419.3 32 384 32zM320 208c0 47.54-34.64 86.73-80 94.39V384H288c8.836 0 16 7.162 16 16c0 8.836-7.164 16-16 16H160c-8.836 0-16-7.164-16-16C144 391.2 151.2 384 160 384h48V302.4C162.6 294.7 128 255.5 128 208v-96C128 103.2 135.2 96 144 96h160C312.8 96 320 103.2 320 112V208z"/></svg>