<svg xmlns="http://www.w3.org/2000/svg" viewBox="0 0 576 512"><!--! Font Awesome Pro 6.0.0-alpha3 by @fontawesome - https://fontawesome.com License - https://fontawesome.com/license (Commercial License) --><defs><style>.fa-secondary{opacity:.4}</style></defs><path class="fa-primary" d="M128 351.1c-.0002 8.836-7.163 16-15.1 15.1c-8.836-.0002-15.1-7.164-15.1-16c.0002-8.836 7.163-15.1 15.1-15.1C120.8 335.1 128 343.2 128 351.1zM112 143.1C103.2 143.1 96.01 151.2 96.01 159.1C96.01 168.8 103.2 175.1 112 175.1c8.837 .0002 15.1-7.163 15.1-15.1c0-.0001 0 0 0 0C128 151.2 120.8 143.1 112 143.1C112 143.1 112 143.1 112 143.1zM80.01 239.1C71.18 239.1 64.01 247.2 64.01 255.1C64.01 264.8 71.18 271.1 80.01 271.1c8.837 .0002 15.1-7.163 15.1-15.1c0-.0001 0 0 0 0C96.01 247.2 88.85 239.1 80.01 239.1C80.01 239.1 80.01 239.1 80.01 239.1zM480 432c-.001 26.51-21.49 47.1-47.1 48l-63.99-.0002c-14.4-.0024-28.03-6.474-37.14-17.62l-103.7-126.7c-1.078 .043-2.081 .3191-3.167 .3191c-44.8 .617-81.62-35.2-82.24-79.1C141.2 211.2 176.1 174.4 221.8 173.8c44.8-.617 81.62 35.2 82.23 79.1c.0982 7.128-.7437 14.24-2.504 21.15L390.8 384h41.25C458.5 384 480 405.5 480 432zM256 256c-.0004-17.67-14.33-31.1-32-31.1c-17.67 .0004-31.1 14.33-31.1 32c.0004 17.67 14.33 31.1 31.1 31.1C241.7 287.1 256 273.7 256 256z"/><path class="fa-secondary" d="M560 223.6C568.8 223.6 576 216.5 576 207.6V155.2c0-6.725-4.193-12.78-10.51-15.08L311.4 47.61C255.6 27.55 193.6 25.57 139.3 49.13c-143.3 62.07-139.2 206.9-139.2 206.9s-4.336 144.7 139.2 206.9c54.39 23.56 116.4 21.59 172.1 1.527l16.27-5.902l-100.5-122.8c-1.078 .043-2.081 .3191-3.167 .3191c-44.8 .6172-81.62-35.2-82.24-79.1c-.6152-44.8 35.2-81.62 79.1-82.23s81.62 35.2 82.23 79.1c.0996 7.129-.7422 14.24-2.504 21.15L390.8 384h41.25c16.22 .0059 31.32 8.243 40.14 21.85l93.34-33.1C571.8 369.6 576 363.5 576 356.8V304.4c0-8.836-7.164-16-15.1-16H416V223.6H560zM80.01 271.1c-8.836 0-15.1-7.162-15.1-16c0-8.836 7.164-15.1 16-15.1s15.1 7.164 15.1 16S88.85 271.1 80.01 271.1zM112 367.1c-8.836 0-15.1-7.162-15.1-16c0-8.836 7.163-15.1 15.1-15.1c8.838 0 16 7.164 16 16C128 360.8 120.8 367.1 112 367.1zM112 175.1c-8.836 0-15.1-7.162-15.1-16c0-8.836 7.164-15.1 15.1-15.1c8.838 0 15.1 7.164 15.1 16C128 168.8 120.8 175.1 112 175.1z"/></svg>