<svg xmlns="http://www.w3.org/2000/svg" viewBox="0 0 640 512"><!--! Font Awesome Pro 6.0.0-alpha3 by @fontawesome - https://fontawesome.com License - https://fontawesome.com/license (Commercial License) --><defs><style>.fa-secondary{opacity:.4}</style></defs><path class="fa-primary" d="M512 352v80c0 8.837-7.163 16-16 16h-64c-8.837 0-16-7.163-16-16V352h-32V256l-30.25-241.1C352.7 6.001 345.9 0 337.9 0H302.1C294.1 0 287.3 6.001 286.3 14.01L256 256v96H224v80C224 440.8 216.8 448 208 448h-64C135.2 448 128 440.8 128 432V352H48v76.77L176 480v16c.0004 8.836 7.164 15.1 15.1 16H208c8.836-.0004 15.1-7.164 16-16V480h192v16c.0004 8.836 7.164 15.1 16 16H448c8.836-.0004 15.1-7.164 16-16V480l128-51.23V352H512zM352 304c-.0004 8.836-7.164 15.1-16 16h-32C295.2 319.1 288 312.8 288 304V256c0-17.67 14.33-32 32-32s32 14.33 32 32V304z"/><path class="fa-secondary" d="M208 288h-64C135.2 288 128 295.2 128 304v128C128 440.8 135.2 448 144 448h64C216.8 448 224 440.8 224 432v-128C224 295.2 216.8 288 208 288zM56 128H48V112.9c0-7.969-5.414-15.35-13.28-16.63c-8.717-1.479-17.01 4.373-18.49 13.09C16.08 110.2 16 111.1 16 112V128H8C3.582 128 0 131.6 0 136v16C0 156.4 3.582 160 8 160h7.1L16 431.1c0 7.969 5.414 15.35 13.28 16.63c8.719 1.479 17.02-4.377 18.49-13.1C47.93 433.8 48 432.9 48 432V160h8C60.42 160 64 156.4 64 152v-16C64 131.6 60.42 128 56 128zM320 224C302.3 224 288 238.3 288 256v48C288 312.8 295.2 320 304 320h32c8.836 0 16-7.164 16-16V256C352 238.3 337.7 224 320 224zM496 288h-64C423.2 288 416 295.2 416 304v128c0 8.836 7.164 16 16 16h64c8.838 0 16-7.164 16-16v-128C512 295.2 504.8 288 496 288zM632 128H624V112.9c0-7.969-5.414-15.35-13.28-16.63c-8.717-1.479-17.01 4.373-18.49 13.09C592.1 110.2 592 111.1 592 112V128h-8C579.6 128 576 131.6 576 136v16C576 156.4 579.6 160 584 160h8v271.1c0 7.969 5.414 15.35 13.28 16.63c8.719 1.479 17.02-4.377 18.49-13.1C623.9 433.8 624 432.9 624 432V160h8C636.4 160 640 156.4 640 152v-16C640 131.6 636.4 128 632 128z"/></svg>