<svg xmlns="http://www.w3.org/2000/svg" viewBox="0 0 576 512"><!--! Font Awesome Pro 6.0.0-alpha3 by @fontawesome - https://fontawesome.com License - https://fontawesome.com/license (Commercial License) --><defs><style>.fa-secondary{opacity:.4}</style></defs><path class="fa-primary" d="M288 96C199.6 96 128 167.6 128 256s71.63 160 160 160s160-71.63 160-160C448 167.6 376.4 96 288 96C287.1 96 288 96 288 96zM300 161.2c16.98 2.097 33.09 8.748 46.6 19.24l-22.63 22.63c-7.224-4.897-15.39-8.259-23.97-9.867V161.2zM276 161.2v32c-8.578 1.608-16.75 4.97-23.97 9.867L229.4 180.5C242.9 169.1 259 163.3 276 161.2zM212.5 197.4l22.63 22.63C230.2 227.3 226.8 235.4 225.2 244H193.2C195.3 227 201.1 210.9 212.5 197.4zM193.2 268H225.2c1.61 8.578 4.971 16.75 9.867 23.97L212.5 314.6C201.1 301.1 195.3 284.1 193.2 268zM276 350.8c-16.98-2.097-33.09-8.748-46.6-19.24l22.63-22.63C259.3 313.8 267.4 317.2 276 318.8V350.8zM256 256c0-17.67 14.33-32 32-32s32 14.33 32 32s-14.33 32-32 32C270.3 287.1 256 273.7 256 256zM300 350.8v-32c8.578-1.608 16.75-4.97 23.97-9.867l22.63 22.63C333.1 342 316.1 348.7 300 350.8zM363.5 314.6l-22.63-22.63C345.8 284.7 349.2 276.6 350.8 268h32C380.7 284.1 374 301.1 363.5 314.6zM350.8 244c-1.61-8.578-4.971-16.75-9.867-23.97l22.63-22.63c10.49 13.51 17.14 29.62 19.24 46.6H350.8zM48 32H16C7.164 31.1 .0003 39.16 0 47.1V464c.0004 8.836 7.164 15.1 16 16h32c8.836-.0004 15.1-7.164 16-16v-416C64 39.16 56.84 32 48 32C48 32 48 32 48 32zM560 32H528c-8.836-.0003-15.1 7.163-16 15.1V464c.0004 8.836 7.164 15.1 16 16h32c8.836-.0004 15.1-7.164 16-16v-416C576 39.16 568.8 32 560 32C559.1 32 560 32 560 32z"/><path class="fa-secondary" d="M225.2 268H193.2C195.3 284.1 201.1 301.1 212.5 314.6l22.63-22.63C230.2 284.7 226.8 276.6 225.2 268zM229.4 331.5C242.9 342 259 348.7 276 350.8v-32C267.4 317.2 259.3 313.8 252 308.9L229.4 331.5zM64 216v80l75.51 18.88c-15.36-37.75-15.36-80 0-117.8L64 216zM235.1 220L212.5 197.4C201.1 210.9 195.3 227 193.2 244H225.2C226.8 235.4 230.2 227.3 235.1 220zM346.6 180.5C333.1 169.1 316.1 163.3 300 161.2v32c8.578 1.607 16.75 4.971 23.97 9.867L346.6 180.5zM436.5 197.1c15.36 37.75 15.36 80 0 117.8L512 296v-80L436.5 197.1zM340.9 220C345.8 227.3 349.2 235.4 350.8 244h32c-2.098-16.98-8.747-33.09-19.24-46.6L340.9 220zM340.9 291.1l22.63 22.63C374 301.1 380.7 284.1 382.8 268h-32C349.2 276.6 345.8 284.7 340.9 291.1zM252 203.1C259.3 198.2 267.4 194.8 276 193.2v-32c-16.98 2.098-33.09 8.749-46.6 19.24L252 203.1zM300 318.8v32c16.98-2.098 33.09-8.749 46.6-19.24l-22.63-22.63C316.7 313.8 308.6 317.2 300 318.8z"/></svg>