<svg xmlns="http://www.w3.org/2000/svg" viewBox="0 0 640 512"><!--! Font Awesome Pro 6.0.0-alpha3 by @fontawesome - https://fontawesome.com License - https://fontawesome.com/license (Commercial License) --><defs><style>.fa-secondary{opacity:.4}</style></defs><path class="fa-primary" d="M319.1 95.1C319.1 95.1 319.1 95.1 319.1 95.1S319.1 95.1 319.1 95.1C231.6 95.1 160 167.6 160 256s71.63 160 159.1 160S480 344.4 480 256S408.4 95.1 319.1 95.1zM331.1 161.2c16.98 2.098 33.07 8.744 46.58 19.24l-22.63 22.63c-7.225-4.896-15.38-8.256-23.96-9.863V161.2zM307.1 161.2v32C299.4 194.8 291.3 198.2 284 203.1L261.4 180.4C274.9 169.1 291 163.3 307.1 161.2zM244.4 197.4l22.63 22.63c-4.896 7.225-8.254 15.38-9.863 23.96H225.2C227.3 227 233.1 210.9 244.4 197.4zM225.2 268h31.1c1.609 8.578 4.967 16.73 9.863 23.96l-22.63 22.63C233.1 301.1 227.3 284.1 225.2 268zM307.1 350.8c-16.98-2.098-33.07-8.744-46.58-19.24L284 308.9c7.225 4.896 15.38 8.256 23.96 9.863V350.8zM287.1 256c0-17.67 14.33-32 32-32s31.1 14.33 31.1 32s-14.33 32-31.1 32S287.1 273.7 287.1 256zM331.1 350.8V318.8c8.578-1.607 16.73-4.965 23.96-9.863l22.63 22.63C365.1 342 348.1 348.7 331.1 350.8zM395.6 314.6l-22.63-22.63c4.896-7.225 8.254-15.38 9.863-23.96h31.1C412.7 284.1 406 301.1 395.6 314.6zM382.8 244c-1.609-8.578-4.967-16.73-9.863-23.96l22.63-22.63c10.49 13.51 17.14 29.61 19.23 46.58H382.8zM64.1 354.7L64.05 157.3l107.3-107.3C177.6 43.69 177.6 33.56 171.3 27.31L148.7 4.682C142.4-1.564 132.3-1.56 126 4.692L9.462 121.4C3.493 127.3 .0996 135.5 .0684 143.9v224.1c.0059 8.473 3.405 16.61 9.393 22.6l116.6 116.7c6.246 6.252 16.38 6.256 22.63 .0098l22.65-22.63c6.25-6.246 6.254-16.38 .0078-22.63L64.1 354.7zM639.9 143.1c-.0039-8.473-3.407-16.61-9.396-22.6L513.1 4.692c-6.246-6.252-16.38-6.256-22.63-.0098l-22.65 22.63c-6.25 6.246-6.254 16.38-.0078 22.63L575.9 157.2l.0469 197.5l-107.3 107.3c-6.246 6.25-6.244 16.38 .0078 22.63l22.64 22.63c6.252 6.246 16.38 6.242 22.63-.0078l116.6-116.7c5.969-5.984 9.364-14.12 9.396-22.56V143.1z"/><path class="fa-secondary" d="M257.2 268H225.2c2.098 16.98 8.743 33.07 19.23 46.58l22.63-22.63C262.2 284.7 258.8 276.6 257.2 268zM64.04 215.1l.0117 80.02l107.5 18.87c-15.36-37.75-15.36-80.01 0-117.8L64.04 215.1zM261.4 331.6c13.51 10.49 29.61 17.14 46.58 19.24V318.8C299.4 317.2 291.3 313.8 284 308.9L261.4 331.6zM267.1 220l-22.63-22.63C233.1 210.9 227.3 227 225.2 244h31.1C258.8 235.4 262.2 227.3 267.1 220zM378.6 180.4c-13.51-10.49-29.61-17.14-46.58-19.24v32c8.578 1.607 16.73 4.967 23.96 9.863L378.6 180.4zM372.9 291.1l22.63 22.63c10.49-13.51 17.14-29.61 19.23-46.58h-31.1C381.2 276.6 377.8 284.7 372.9 291.1zM372.9 220c4.896 7.225 8.254 15.38 9.863 23.96h31.1c-2.098-16.98-8.743-33.07-19.23-46.58L372.9 220zM468.5 197.1c15.36 37.75 15.36 80.01 0 117.8l107.5-18.87L575.1 215.1L468.5 197.1zM331.1 318.8v32c16.98-2.098 33.07-8.744 46.58-19.24L355.1 308.9C348.7 313.8 340.6 317.2 331.1 318.8zM284 203.1c7.225-4.896 15.38-8.256 23.96-9.863V161.2c-16.98 2.098-33.07 8.744-46.58 19.24L284 203.1z"/></svg>