<svg xmlns="http://www.w3.org/2000/svg" viewBox="0 0 640 512"><!--! Font Awesome Pro 6.0.0-alpha3 by @fontawesome - https://fontawesome.com License - https://fontawesome.com/license (Commercial License) --><defs><style>.fa-secondary{opacity:.4}</style></defs><path class="fa-primary" d="M448 192c-35.35 0-64 28.65-64 64s28.65 64 64 64s64-28.65 64-64C511.1 220.7 483.3 192 448 192zM448 288c-17.67 0-32-14.33-32-32s14.33-32 32-32s32 14.33 32 32C480 273.7 465.7 288 448 288zM204.5 211.2L141.4 160H65.34l70.65 57.4L130.8 217.9C111.1 219.8 96 236.3 96 256s15.12 36.25 34.75 38.13l5.234 .4727L65.34 352h76.1l63.04-51.22L229 303C225.7 287.5 224 271.8 224 256S225.7 224.5 229 209L204.5 211.2z"/><path class="fa-secondary" d="M208 352H24C10.75 352 0 362.7 0 376v16C0 405.3 10.75 416 24 416H208c17.67 0 32-14.33 32-32S225.7 352 208 352zM448 64c-106 0-192 85.96-192 192s85.96 192 192 192s192-85.96 192-192S554 64 448 64zM448 320c-35.35 0-64-28.65-64-64s28.65-64 64-64s64 28.65 64 64C511.1 291.3 483.3 319.1 448 320zM208 96H24C10.75 96 0 106.7 0 120v16C0 149.3 10.75 160 24 160H208c17.67 0 32-14.33 32-32S225.7 96 208 96z"/></svg>