<svg xmlns="http://www.w3.org/2000/svg" viewBox="0 0 512 512"><!--! Font Awesome Pro 6.0.0-alpha3 by @fontawesome - https://fontawesome.com License - https://fontawesome.com/license (Commercial License) --><defs><style>.fa-secondary{opacity:.4}</style></defs><path class="fa-primary" d="M256 16C123.5 16 16 123.5 16 256s107.5 240 240 240s240-107.5 240-240S388.5 16 256 16zM256 432c-97.05 0-176-78.95-176-176S158.1 80 256 80s176 78.95 176 176S353 432 256 432z"/><path class="fa-secondary" d="M432 256c0 10.94-1.139 21.61-3.059 32h-92.9l-48.07 64v76.95C277.6 430.9 266.9 432 256 432s-21.59-1.137-31.97-3.053V352L175.1 288H83.06C81.14 277.6 80 266.9 80 256s1.139-21.61 3.059-32H168.9c11.02-19 31.5-32 55.11-32h63.95c23.61 0 44.05 13 55.19 32h85.78C430.9 234.4 432 245.1 432 256z"/></svg>