<svg xmlns="http://www.w3.org/2000/svg" viewBox="0 0 320 512"><!--! Font Awesome Pro 6.0.0-alpha3 by @fontawesome - https://fontawesome.com License - https://fontawesome.com/license (Commercial License) --><defs><style>.fa-secondary{opacity:.4}</style></defs><path class="fa-primary" d="M288 480H32c-12.41 0-23.72-7.188-28.97-18.44c-5.281-11.23-3.562-24.52 4.375-34.05c28.25-33.86 43.78-76.55 43.78-120.2V157.3C51.19 88.22 108.3 32 178.6 32c13.69 0 27.25 2.156 40.25 6.422l79.09 25.89c16.81 5.484 25.97 23.56 20.47 40.36c-5.469 16.77-23.62 25.98-40.34 20.45l-79.13-25.89C192.3 97.09 185.5 96 178.6 96C143.6 96 115.2 123.5 115.2 157.3v149.1c0 37.73-8.625 74.91-24.88 108.7H288c17.69 0 32 14.33 32 32S305.7 480 288 480z"/><path class="fa-secondary" d="M0 256c0 17.67 14.31 32 32 32h19.19V224H32C14.31 224 0 238.3 0 256zM224 224H115.2v64H224c17.69 0 32-14.33 32-32S241.7 224 224 224z"/></svg>