<svg xmlns="http://www.w3.org/2000/svg" viewBox="0 0 448 512"><!--! Font Awesome Pro 6.0.0-alpha3 by @fontawesome - https://fontawesome.com License - https://fontawesome.com/license (Commercial License) --><defs><style>.fa-secondary{opacity:.4}</style></defs><path class="fa-primary" d="M212 252c0-26.47-21.53-48-48-48s-48 21.53-48 48C116 263 124.1 272 136 272s20-8.969 20-20c0-8.812 16-10.88 16 2.062c0 16.28-6.609 32.25-18.16 43.81C134.6 317.1 124 342.7 124 369.9V384c0 11.03 8.953 20 20 20H192c11.05 0 20-8.969 20-20S203 364 192 364H164.3c1.391-14.19 7.719-27.72 17.86-37.88C201.4 306.9 212 281.3 212 252zM288 204c-28.67 0-52 23.31-52 52v96c0 28.69 23.33 52 52 52s52-23.31 52-52V256C340 227.3 316.7 204 288 204zM300 352c0 6.625-5.391 12-12 12S276 358.6 276 352V256c0-6.625 5.391-12 12-12S300 249.4 300 256V352z"/><path class="fa-secondary" d="M398.5 190.9l27.18-27.18c6.252-6.248 6.253-16.38 .0043-22.63L403 118.4c-6.247-6.248-16.38-6.249-22.63-.0014l-24.69 24.69c-28-23-62.19-38.8-99.69-44.59V64h16.02c17.6 0 31.99-14.4 31.99-32S289.6 0 272 0H176C158.4 0 144 14.4 144 32S158.4 64 176 64h15.98v34.5C94.37 113.5 19.15 196.5 16.09 297.6c-3.451 113.9 90.68 212.6 204.6 214.4C337.1 513.8 432 419.1 432 304C432 262.2 419.7 223.3 398.5 190.9zM192 364c11.05 0 20 8.969 20 20S203 404 192 404H144c-11.05 0-20-8.969-20-20v-14.06c0-27.22 10.59-52.81 29.84-72.06C165.4 286.3 172 270.3 172 254.1c0-12.94-16-10.88-16-2.062C156 263 147 272 136 272S116 263 116 252c0-26.47 21.53-48 48-48s48 21.53 48 48c0 29.28-10.59 54.88-29.84 74.13C172 336.3 165.7 349.8 164.3 364H192zM340 352c0 28.69-23.33 52-52 52S236 380.7 236 352V256c0-28.69 23.33-52 52-52S340 227.3 340 256V352zM288 244c-6.609 0-12 5.375-12 12v96c0 6.625 5.391 12 12 12s12-5.375 12-12V256C300 249.4 294.6 244 288 244z"/></svg>