<svg xmlns="http://www.w3.org/2000/svg" viewBox="0 0 448 512"><!--! Font Awesome Pro 6.0.0-alpha3 by @fontawesome - https://fontawesome.com License - https://fontawesome.com/license (Commercial License) --><defs><style>.fa-secondary{opacity:.4}</style></defs><path class="fa-primary" d="M224 192C210.8 192 200 202.8 200 216v112C200 341.3 210.8 352 224 352s24-10.75 24-24v-112C248 202.8 237.3 192 224 192zM425.7 163.7c6.25-6.246 6.253-16.38 .0031-22.63l-22.68-22.69c-6.25-6.25-16.38-6.25-22.63-.0003l-24.67 24.67c17.07 13.99 31.76 30.7 43.66 49.38c-.3203-.4961-.543-1.059-.8672-1.555L425.7 163.7zM272 0H176C158.4 0 144 14.4 144 32C144 49.6 158.4 64 176 64h15.99v34.61C202.4 96.99 213.1 96 223.1 96c10.91 0 21.54 .9883 31.1 2.605V64h16.02c17.6 0 31.1-14.4 31.1-31.1S289.6 0 272 0z"/><path class="fa-secondary" d="M223.1 96C109.1 96 16 189.1 16 304S109.1 512 224 512s208-93.13 208-208S338.9 96 223.1 96zM248 328c0 13.25-10.75 24-24 24s-24-10.75-24-24v-112C200 202.8 210.8 192 224 192s24 10.75 24 24V328z"/></svg>