<svg xmlns="http://www.w3.org/2000/svg" viewBox="0 0 640 512"><!--! Font Awesome Pro 6.0.0-alpha3 by @fontawesome - https://fontawesome.com License - https://fontawesome.com/license (Commercial License) --><defs><style>.fa-secondary{opacity:.4}</style></defs><path class="fa-primary" d="M634.9 502.8c-8.125 10.41-23.19 12.28-33.69 4.078L9.188 42.89c-10.44-8.172-12.26-23.27-4.068-33.7C9.839 3.156 16.91 0 24.03 0c5.156 0 10.37 1.672 14.78 5.109l591.1 463.1C641.2 477.3 643.1 492.4 634.9 502.8z"/><path class="fa-secondary" d="M159.9 384V250.5c-11.42 3.56-23.38 5.521-35.56 5.521c-5.449 0-10.9-.3652-16.35-1.08C103.8 254.4 100 252.8 96 251.7l.0136 212.3C96.01 490.5 117.5 512 144 512h352c9.105 0 17.56-2.678 24.81-7.08l-154.3-120.9H159.9zM124.4 224c10.87 0 21.01-2.357 30.54-5.92L49.28 135.3C43.63 175.6 68.62 217.3 112.2 223.2C116.2 223.7 120.3 224 124.4 224zM515.4 256c-12.13 0-24.05-1.953-35.45-5.504v100.4l64.04 50.2l.0504-149.4c-4.146 1.082-8.088 2.709-12.4 3.281C526.4 255.6 521 256 515.4 256zM579.6 103.8l-57.32-90.68c-5.105-8.15-14.21-13.13-23.93-13.13H141.6c-9.717 0-18.83 4.98-23.94 13.13L94.92 49.08l206 161.5C308 206.3 314.4 201.1 319.9 195c15.9 17.59 39.11 28.97 65.17 28.97c26.17 0 49.29-11.38 65.19-28.97c15.98 17.59 39.13 28.97 65.19 28.97c4.141 0 8.112-.2734 12.09-.793C583 215.8 609.3 150.7 579.6 103.8z"/></svg>