<svg xmlns="http://www.w3.org/2000/svg" viewBox="0 0 576 512"><!--! Font Awesome Pro 6.0.0-alpha3 by @fontawesome - https://fontawesome.com License - https://fontawesome.com/license (Commercial License) --><defs><style>.fa-secondary{opacity:.4}</style></defs><path class="fa-primary" d="M495.5 223.2C491.6 223.7 487.6 224 483.4 224c-26.05 0-49.21-11.38-65.19-28.97C402.4 212.6 379.2 224 353.1 224c-26.05 0-49.26-11.38-65.16-28.97C272 212.6 248.9 224 222.7 224c-26.06 0-49.26-11.38-65.16-28.97C141.7 212.6 118.5 224 92.36 224c-4.057 0-8.15-.2848-12.12-.8044C24.92 215.8-1.256 150.6 28.33 103.8l57.32-90.68c5.105-8.15 14.21-13.13 23.93-13.13h356.8c9.715 0 18.82 4.978 23.93 13.13l57.32 90.68C577.3 150.7 551 215.8 495.5 223.2z"/><path class="fa-secondary" d="M512 218.8L512.1 464c0 26.51-21.49 48-47.1 48H112c-26.51 0-47.1-21.49-47.1-48L64.03 218.8c5.143 1.971 10.39 3.605 16.21 4.388C84.21 223.7 88.3 224 92.36 224c12.74 0 24.72-2.787 35.55-7.594V384H448V216.4C458.8 221.2 470.8 224 483.4 224c4.141 0 8.113-.2734 12.09-.793C501.5 222.4 506.8 220.8 512 218.8z"/></svg>