<svg xmlns="http://www.w3.org/2000/svg" viewBox="0 0 512 512"><!--! Font Awesome Pro 6.0.0-alpha3 by @fontawesome - https://fontawesome.com License - https://fontawesome.com/license (Commercial License) --><defs><style>.fa-secondary{opacity:.4}</style></defs><path class="fa-primary" d="M448 32H64C28.65 32 0 60.65 0 96v320c0 35.35 28.65 64 64 64h384c35.35 0 64-28.65 64-64V96C512 60.65 483.3 32 448 32zM448 416H64V96h384V416z"/><path class="fa-secondary" d="M448 224V160h-85.33V96h-64v64H213.3V96h-64v64H64v64h85.33v64H64v64h85.33v64h64v-64h85.33v64h64v-64H448V288h-85.33V224H448zM298.7 288H213.3V224h85.33V288z"/></svg>