<svg xmlns="http://www.w3.org/2000/svg" viewBox="0 0 512 512"><!--! Font Awesome Pro 6.0.0-alpha3 by @fontawesome - https://fontawesome.com License - https://fontawesome.com/license (Commercial License) --><defs><style>.fa-secondary{opacity:.4}</style></defs><path class="fa-primary" d="M448 32H160v128h288v256H128V192H0v224c0 35.35 28.65 64 64 64h384c35.35 0 64-28.65 64-64V96C512 60.65 483.3 32 448 32z"/><path class="fa-secondary" d="M413.6 242.4l-40-40c-3.125-3.127-8.125-3.127-11.25 0l-40 40C317.3 247.4 320.9 256 328 256H352v56C352 316.4 348.4 320 344 320H288V295.1c0-7.814-9.002-10.31-13.63-5.627l-40 40.01c-3.125 3.125-3.125 8.125 0 11.25l40 40.01C279.4 386.7 288 383.1 288 375.1V352h56C366.1 352 384 334.1 384 312V256h24.01C415.8 256 418.3 246.1 413.6 242.4zM0 96v64h128V32H64C28.65 32 0 60.65 0 96z"/></svg>