<svg xmlns="http://www.w3.org/2000/svg" viewBox="0 0 512 512"><!--! Font Awesome Pro 6.0.0-alpha3 by @fontawesome - https://fontawesome.com License - https://fontawesome.com/license (Commercial License) --><defs><style>.fa-secondary{opacity:.4}</style></defs><path class="fa-primary" d="M305.1 478.8c-35.33 3.988-71.97-7.281-99.09-34.47l-35.95-36.04l-81.03 92.85c-11.92 13.79-32.98 14.55-45.85 1.652l-34.05-34.2c-12.85-12.93-12.09-34.08 1.646-46.05l92.38-81.32L66.59 304.5C26.23 264.1 20.57 202.3 54.19 150.2l237.3 237.3c-2.105 9.205-3.45 18.69-3.45 28.53C288 438.1 294.5 460.2 305.1 478.8z"/><path class="fa-secondary" d="M416 320c-52.99 0-95.99 42.1-95.99 95.1c0 52.1 42.1 95.1 95.99 95.1C469 511.1 512 468.1 512 416C512 363 469 320 416 320zM416 287.1c27.99 0 53.68 9.254 74.76 24.51c39.42-83.77 23.56-187.2-48.08-254.8c-87.72-82.82-227.7-74.16-312.9 11.27l-54.66 54.8c-8.354 8.375-15.06 17.3-20.95 26.44l237.3 237.3C304.5 330.6 355.2 287.1 416 287.1z"/></svg>