<svg xmlns="http://www.w3.org/2000/svg" viewBox="0 0 576 512"><!--! Font Awesome Pro 6.0.0-alpha3 by @fontawesome - https://fontawesome.com License - https://fontawesome.com/license (Commercial License) --><defs><style>.fa-secondary{opacity:.4}</style></defs><path class="fa-primary" d="M463.6 225.6L286.4 48.4C277.4 39.38 259.6 32 246.8 32H59.1c-15.46 0-28 12.54-28 28v186.8c0 12.76 7.381 30.58 16.4 39.6l177.2 177.2c21.87 21.87 57.32 21.87 79.2 .002l158.8-158.8C485.5 282.9 485.5 247.5 463.6 225.6zM143.1 176c-17.67 0-32-14.32-32-32c0-17.68 14.33-32 32-32s32 14.32 32 32C175.1 161.7 161.7 176 143.1 176z"/></svg>