<svg xmlns="http://www.w3.org/2000/svg" viewBox="0 0 640 512"><!--! Font Awesome Pro 6.0.0-alpha3 by @fontawesome - https://fontawesome.com License - https://fontawesome.com/license (Commercial License) --><defs><style>.fa-secondary{opacity:.4}</style></defs><path class="fa-primary" d="M617.9 190.4L41.86 378.4c-16.73 5.427-34.85-3.822-40.26-20.55c-5.437-16.79 3.738-34.92 20.53-40.35L598 129.6c16.85-5.467 34.94 3.769 40.4 20.62C643.9 166.1 634.7 185 617.9 190.4z"/><path class="fa-secondary" d="M96.02 448C96.02 465.7 110.3 480 128 480s32-14.33 32-31.1L160 339.8l-64 20.88L96.02 448zM224 448C224 465.7 238.3 480 256 480s32-14.33 32-31.1L288 298.1L224 318.9L224 448zM256 32C238.3 32 224 46.32 224 63.1L224 251.6l64-20.88l.0022-166.7C288 46.32 273.7 32 256 32zM128 32C110.3 32 96.02 46.32 96.02 63.1L96 293.3l64-20.88l.0111-208.5C160 46.32 145.7 32 128 32zM383.1 32c-17.67 0-32 14.32-32 31.1L352 209.8l64-20.88l-.0067-124.1C415.1 46.32 401.7 32 383.1 32zM351.1 448C351.1 465.7 366.3 480 383.1 480s31.1-14.33 31.1-31.1L416 256.3l-64 20.88L351.1 448zM511.1 32c-17.67 0-32 14.32-32 31.1L480 168.1l64-20.88l-.0155-83.2C543.1 46.32 529.7 32 511.1 32zM479.1 448C479.1 465.7 494.3 480 511.1 480s31.99-14.32 31.99-31.1L544 214.5l-64 20.88L479.1 448z"/></svg>