<svg xmlns="http://www.w3.org/2000/svg" viewBox="0 0 512 512"><!--! Font Awesome Pro 6.0.0-alpha3 by @fontawesome - https://fontawesome.com License - https://fontawesome.com/license (Commercial License) --><defs><style>.fa-secondary{opacity:.4}</style></defs><path class="fa-primary" d="M217.6 3.188c18.19 69.24-6.623 145.6-68.63 189C104.8 223 51.59 230 3.227 217.3C1.582 228.1 .5254 239.1 .2793 250.3c15.71 3.699 31.82 5.613 48 5.613c41.19 0 82.81-12.19 119-37.56c71.66-50.2 101.8-137.7 82.97-218.1C239.2 .5234 228.3 1.57 217.6 3.188zM344.7 293.6c-71.66 50.2-101.8 137.7-82.97 218.1c11.11-.2461 22-1.285 32.72-2.906c-18.18-69.24 6.635-145.6 68.63-188.1c30.66-21.44 65.84-31.75 100.7-31.75c15.25 0 30.38 2.156 45.1 6.031c1.58-10.55 2.596-21.28 2.846-32.22C455.1 248.8 395.1 258.3 344.7 293.6z"/><path class="fa-secondary" d="M363.1 319.8c-61.1 43.43-86.81 119.7-68.63 188.1c110.6-16.7 197.9-104 214.4-214.7c-14.72-3.875-29.85-6.031-45.1-6.031C428.9 288.1 393.7 298.4 363.1 319.8zM255.1-.0078c-1.928 0-3.791 .2461-5.709 .2891c18.85 80.39-11.31 167.9-82.97 218.1C131.1 243.8 89.47 255.9 48.28 255.9c-16.18 0-32.29-1.914-48-5.613c-.041 1.902-.2871 3.754-.2871 5.668c0 141.4 114.6 256 256 256c1.932 0 3.799-.2461 5.721-.2891c-18.84-80.39 11.32-167.9 82.97-218.1c50.45-35.36 111.3-44.88 167-31.75c.0449-1.977 .2969-3.898 .2969-5.883C511.1 114.6 397.4-.0078 255.1-.0078zM148.9 192.2c62-43.43 86.82-119.8 68.63-189c-110.4 16.67-197.5 103.7-214.3 214.1C51.59 230 104.8 223 148.9 192.2z"/></svg>