<svg xmlns="http://www.w3.org/2000/svg" viewBox="0 0 576 512"><!--! Font Awesome Pro 6.0.0-alpha3 by @fontawesome - https://fontawesome.com License - https://fontawesome.com/license (Commercial License) --><defs><style>.fa-secondary{opacity:.4}</style></defs><path class="fa-primary" d="M456 128H120c-13.25 0-24 10.75-24 24v207.1c0 13.25 10.75 24 24 24h336c13.25 0 24-10.75 24-24V152C480 138.8 469.3 128 456 128zM448 352H128v-192h320V352z"/><path class="fa-secondary" d="M128 352h320v-192H128V352zM576 208V112c0-26.5-21.5-48-48-48h-480c-26.5 0-48 21.5-48 48v95.1c26.5 0 48 21.5 48 47.1S26.5 304 0 304v96c0 26.5 21.5 48 48 48h480c26.5 0 48-21.5 48-48v-96c-26.5 0-48-21.5-48-48S549.5 208 576 208zM480 360c0 13.25-10.75 24-24 24H120c-13.25 0-24-10.75-24-24V152c0-13.25 10.75-24 24-24h336c13.25 0 24 10.75 24 24V360z"/></svg>