<svg xmlns="http://www.w3.org/2000/svg" viewBox="0 0 576 512"><!--! Font Awesome Pro 6.0.0-alpha3 by @fontawesome - https://fontawesome.com License - https://fontawesome.com/license (Commercial License) --><defs><style>.fa-secondary{opacity:.4}</style></defs><path class="fa-primary" d="M416 352H160c-17.67 0-32-14.33-32-32V192c0-17.67 14.33-32 32-32h256c17.67 0 32 14.33 32 32v128C448 337.7 433.7 352 416 352z"/><path class="fa-secondary" d="M576 208v-96C576 85.5 554.5 64 528 64h-480C21.5 64 0 85.5 0 112v96c26.5 0 48 21.5 48 48S26.5 304 0 304v96C0 426.5 21.5 448 48 448h480c26.5 0 48-21.5 48-48v-96c-26.5 0-48-21.5-48-48S549.5 208 576 208zM448 320c0 17.67-14.33 32-32 32H160c-17.67 0-32-14.33-32-32V192c0-17.67 14.33-32 32-32h256c17.67 0 32 14.33 32 32V320z"/></svg>