<svg xmlns="http://www.w3.org/2000/svg" viewBox="0 0 640 512"><!--! Font Awesome Pro 6.0.0-alpha3 by @fontawesome - https://fontawesome.com License - https://fontawesome.com/license (Commercial License) --><defs><style>.fa-secondary{opacity:.4}</style></defs><path class="fa-primary" d="M304 288H255.1l-55.74 91.72C198.8 382.4 195.9 384 192.9 384H158.2c-5.633-.002-9.709-5.404-8.152-10.82L176 288H119.1L98.4 316.8C96.89 318.8 94.51 319.1 91.1 320h-20c-5.203 0-9.018-4.893-7.752-9.939L79.99 256L64.25 201.9C62.98 196.9 66.79 192 71.1 192h20C94.51 192 96.89 193.2 98.4 195.2L119.1 224h56.02L150 138.8C148.5 133.4 152.5 128 158.2 128h34.73C195.6 128 198.9 129.9 200.3 132.3L256 224h48c17.67 0 48 14.33 48 31.1S321.7 288 304 288z"/><path class="fa-secondary" d="M640 208v-96C640 85.5 618.5 64 592 64h-544C21.5 64 0 85.5 0 112v288C0 426.5 21.5 448 48 448h544c26.5 0 48-21.5 48-48v-96c-26.5 0-48-21.5-48-48S613.5 208 640 208zM304 288H255.1l-55.74 91.72C198.8 382.4 195.9 384 192.9 384H158.2c-5.633-.002-9.709-5.404-8.152-10.82L176 288H119.1L98.4 316.8C96.89 318.8 94.51 319.1 91.1 320h-20c-5.203 0-9.018-4.893-7.752-9.939L79.99 256L64.25 201.9C62.98 196.9 66.79 192 71.1 192h20C94.51 192 96.89 193.2 98.4 195.2L119.1 224h56.02L150 138.8C148.5 133.4 152.5 128 158.2 128h34.73C195.6 128 198.9 129.9 200.3 132.3L256 224h48c17.67 0 48 14.33 48 31.1S321.7 288 304 288zM432 400c-8.836 0-16-7.164-16-16c0-8.838 7.164-16 16-16S448 375.2 448 384C448 392.8 440.8 400 432 400zM432 336c-8.836 0-16-7.164-16-16c0-8.838 7.164-16 16-16S448 311.2 448 320C448 328.8 440.8 336 432 336zM432 272C423.2 272 416 264.8 416 256c0-8.838 7.164-16 16-16S448 247.2 448 256C448 264.8 440.8 272 432 272zM432 208C423.2 208 416 200.8 416 192c0-8.838 7.164-16 16-16S448 183.2 448 192C448 200.8 440.8 208 432 208zM432 144C423.2 144 416 136.8 416 128c0-8.838 7.164-16 16-16S448 119.2 448 128C448 136.8 440.8 144 432 144z"/></svg>