<svg xmlns="http://www.w3.org/2000/svg" viewBox="0 0 640 512"><!--! Font Awesome Pro 6.0.0-alpha3 by @fontawesome - https://fontawesome.com License - https://fontawesome.com/license (Commercial License) --><defs><style>.fa-secondary{opacity:.4}</style></defs><path class="fa-primary" d="M208 80C208 35.82 172.2 0 128 0C83.82 0 48 35.82 48 80S83.82 160 128 160C172.2 160 208 124.2 208 80zM128 112c-17.64 0-32-14.36-32-32s14.36-32 32-32s32 14.36 32 32S145.6 112 128 112zM224 352c-44.18 0-80 35.82-80 80S179.8 512 224 512c44.18 0 80-35.82 80-80S268.2 352 224 352zM224 464c-17.64 0-32-14.36-32-32s14.36-32 32-32s32 14.36 32 32S241.6 464 224 464zM352 0C307.8 0 272 35.82 272 80S307.8 160 352 160c44.18 0 80-35.82 80-80S396.2 0 352 0zM352 112c-17.64 0-32-14.36-32-32s14.36-32 32-32s32 14.36 32 32S369.6 112 352 112z"/><path class="fa-secondary" d="M640 256c0 10.08-4.75 19.56-12.81 25.59l-96 72C525.4 357.9 518.7 360 512 360c-9.75 0-19.34-4.422-25.62-12.8c-10.62-14.14-7.75-34.2 6.406-44.8L512 288H256v70.75C246.2 354.5 235.4 352 224 352s-22.19 2.459-32 6.754V288H32C14.33 288 0 273.7 0 256s14.33-32 32-32h64V153.2C105.8 157.5 116.6 160 128 160s22.19-2.459 32-6.754V224h160V153.2C329.8 157.5 340.6 160 352 160s22.19-2.459 32-6.754V224h128l-19.2-14.41c-14.16-10.59-17.03-30.66-6.406-44.8c10.59-14.11 30.66-17.02 44.78-6.391l96 72C635.3 236.4 640 245.9 640 256z"/></svg>