<svg xmlns="http://www.w3.org/2000/svg" viewBox="0 0 640 512"><!--! Font Awesome Pro 6.0.0-alpha3 by @fontawesome - https://fontawesome.com License - https://fontawesome.com/license (Commercial License) --><defs><style>.fa-secondary{opacity:.4}</style></defs><path class="fa-primary" d="M128 0C83.82 0 48 35.82 48 80S83.82 160 128 160c44.18 0 80-35.82 80-80S172.2 0 128 0zM128 112c-17.64 0-32-14.36-32-32s14.36-32 32-32s32 14.36 32 32S145.6 112 128 112zM320 352c-44.18 0-80 35.82-80 80S275.8 512 320 512c44.18 0 80-35.82 80-80S364.2 352 320 352zM320 464c-17.64 0-32-14.36-32-32s14.36-32 32-32s32 14.36 32 32S337.6 464 320 464zM512 0c-44.18 0-80 35.82-80 80S467.8 160 512 160c44.18 0 80-35.82 80-80S556.2 0 512 0zM512 112c-17.64 0-32-14.36-32-32s14.36-32 32-32s32 14.36 32 32S529.6 112 512 112z"/><path class="fa-secondary" d="M640 256c0 17.67-14.33 32-32 32h-256v70.75C342.2 354.5 331.4 352 320 352s-22.19 2.459-32 6.754V288H32C14.33 288 0 273.7 0 256s14.33-32 32-32h64V153.2C105.8 157.5 116.6 160 128 160s22.19-2.459 32-6.754V224h320V153.2C489.8 157.5 500.6 160 512 160s22.19-2.459 32-6.754V224h64C625.7 224 640 238.3 640 256z"/></svg>