<svg xmlns="http://www.w3.org/2000/svg" viewBox="0 0 512 512"><!--! Font Awesome Pro 6.0.0-alpha3 by @fontawesome - https://fontawesome.com License - https://fontawesome.com/license (Commercial License) --><defs><style>.fa-secondary{opacity:.4}</style></defs><path class="fa-primary" d="M256 288c-17.62 0-32 14.38-32 32c0 17.75 14.37 32 31.1 32s32-14.25 32-32C288 302.4 273.6 288 256 288zM256 256c13.25 0 24-10.75 24-24V96c0-13.25-10.75-24-24-24S232 82.75 232 96v136C232 245.3 242.8 256 256 256z"/><path class="fa-secondary" d="M512 284.1C512 360.9 479.5 430.3 432 480l.0006 16c0 8.875-7.125 16-16 16h-32c-8.875 0-16-7.125-16-16V480h-32v16c0 8.875-7.125 16-16 16h-32c-8.875 0-16-7.125-16-16V480h-32v16c0 8.875-7.125 16-16 16h-32c-8.875 0-15.1-7.125-15.1-16V480h-32v16c0 8.875-7.125 16-16 16h-32c-8.875 0-16-7.125-16-16L80 480C32.5 430.3 0 360.9 0 284.1C0 231.8 13.75 183 37.5 141.5C53.63 113.3 64 80.63 64 46.13v-29C64 7.625 71.13 0 80 0h32C120.9 0 128 7.125 128 16V64c0 32-15.25 74.88-34.88 109.3C73.1 206.5 64 244.9 64 284.1c0 41.13 12.75 82.5 35.75 118.1C105.5 411 115.8 416 126.3 416h259.5c10.5 0 20.75-5 26.5-13.75C435.3 366.6 448 325.3 448 284.1c0-39.25-10-77.63-29-110.9C399.3 138.9 384 96 384 64V16C384 7.125 391.1 0 400 0h32C440.9 0 448 7.625 448 17.12v29c0 34.5 10.38 67.13 26.5 95.38C498.3 183 512 231.8 512 284.1z"/></svg>