<svg xmlns="http://www.w3.org/2000/svg" viewBox="0 0 512 512"><!--! Font Awesome Pro 6.0.0-alpha3 by @fontawesome - https://fontawesome.com License - https://fontawesome.com/license (Commercial License) --><defs><style>.fa-secondary{opacity:.4}</style></defs><path class="fa-primary" d="M476.4 417.8C498.1 379.8 512 335.4 512 288c0-141.4-114.6-256-256-256S0 146.6 0 288c0 47.45 13.03 91.78 35.58 129.8C15.13 423.3 0 441.8 0 464C0 490.5 21.49 512 48 512h416c26.51 0 48-21.49 48-48C512 441.8 496.9 423.3 476.4 417.8zM256 448c-88.37 0-160-71.63-160-160s71.63-160 160-160s160 71.63 160 160S344.4 448 256 448zM256 256C238.4 256 224 270.4 224 288s14.36 32 32 32s32-14.36 32-32S273.6 256 256 256z"/><path class="fa-secondary" d="M256 128C167.6 128 96 199.6 96 288s71.63 160 160 160s160-71.63 160-160S344.4 128 256 128zM256 160c22.34 0 43.06 6.264 61.36 16.37l-37.94 52.2c-7.268-2.867-15.13-4.572-23.41-4.572S239.8 225.7 232.6 228.6l-37.94-52.2C212.9 166.3 233.7 160 256 160zM128 288c0-36.73 15.76-69.65 40.63-93.01l38.18 52.53C197.7 258.6 192 272.6 192 288c0 1.314 .3086 2.545 .3867 3.84L130.4 311.1C128.9 304.2 128 296.2 128 288zM240 414.4c-44.12-5.588-81.16-33.31-99.47-72.04l61.6-20.02C210.7 335.8 224.2 345.6 240 349.7V414.4zM224 288c0-17.64 14.36-32 32-32s32 14.36 32 32s-14.36 32-32 32S224 305.6 224 288zM272 414.4v-64.64c15.85-4.104 29.28-13.98 37.87-27.42l61.6 20.02C353.2 381.1 316.1 408.8 272 414.4zM319.6 291.8C319.7 290.5 320 289.3 320 288c0-15.45-5.695-29.43-14.81-40.48l38.18-52.53C368.2 218.4 384 251.3 384 288c0 8.207-.9251 16.2-2.408 23.98L319.6 291.8z"/></svg>