<svg xmlns="http://www.w3.org/2000/svg" viewBox="0 0 512 512"><!--! Font Awesome Pro 6.0.0-alpha3 by @fontawesome - https://fontawesome.com License - https://fontawesome.com/license (Commercial License) --><defs><style>.fa-secondary{opacity:.4}</style></defs><path class="fa-primary" d="M480 192h-9.375c-4.5-14.88-10.25-29.12-17.5-42.5l6.5-6.625c12.5-12.5 12.5-32.75 0-45.25l-45.25-45.25c-12.5-12.5-32.75-12.5-45.25 0l-6.625 6.5C349.1 51.63 334.9 45.88 320 41.38V32c0-17.62-14.38-32-32-32H224C206.4 0 192 14.38 192 32v9.375c-14.88 4.5-29.12 10.25-42.5 17.5l-6.625-6.5c-12.5-12.5-32.75-12.5-45.25 0L52.38 97.63c-12.5 12.5-12.5 32.75 0 45.25l6.5 6.625C51.63 162.9 45.88 177.1 41.38 192H32C14.38 192 0 206.4 0 224v64c0 17.62 14.38 32 32 32h9.375c4.5 14.88 10.25 29.12 17.5 42.63l-6.5 6.5c-12.5 12.5-12.5 32.75 0 45.25l45.25 45.25c12.5 12.5 32.75 12.5 45.25 0l6.625-6.5C162.9 460.4 177.1 466.1 192 470.6V480c0 17.62 14.38 32 32 32h64c17.62 0 32-14.38 32-32v-9.375c14.88-4.5 29.12-10.25 42.5-17.5l6.625 6.5c12.5 12.5 32.75 12.5 45.25 0l45.25-45.25c12.5-12.5 12.5-32.75 0-45.25l-6.5-6.5c7.25-13.5 13-27.75 17.5-42.63H480c17.62 0 32-14.38 32-32V224C512 206.4 497.6 192 480 192zM256 384c-70.75 0-128-57.38-128-128c0-70.75 57.25-128 128-128s128 57.25 128 128C384 326.6 326.8 384 256 384z"/><path class="fa-secondary" d="M256 128C185.3 128 128 185.3 128 256c0 70.63 57.25 128 128 128s128-57.38 128-128C384 185.3 326.8 128 256 128zM180.1 256.6C167.5 252.5 160.6 238.9 164.7 226.3S182.3 206.8 194.9 210.9C207.5 215 214.4 228.6 210.3 241.2C206.3 253.8 192.7 260.7 180.1 256.6zM233.1 328.4c-7.791 10.72-22.8 13.1-33.52 5.311c-10.72-7.791-13.1-22.8-5.309-33.52c7.791-10.72 22.8-13.1 33.52-5.312C238.5 302.6 240.9 317.6 233.1 328.4zM256 208c-13.25 0-24-10.75-24-24C232 170.7 242.7 160 256 160s24 10.74 24 24C280 197.3 269.3 208 256 208zM312.4 333.7c-10.72 7.791-25.73 5.412-33.52-5.311s-5.418-25.74 5.304-33.53c10.72-7.791 25.74-5.411 33.53 5.314C325.5 310.9 323.2 325.9 312.4 333.7zM331.9 256.6c-12.61 4.096-26.15-2.801-30.25-15.41c-4.096-12.61 2.807-26.15 15.41-30.24c12.61-4.098 26.14 2.803 30.24 15.41S344.5 252.5 331.9 256.6z"/></svg>