<svg xmlns="http://www.w3.org/2000/svg" viewBox="0 0 512 512"><!--! Font Awesome Pro 6.0.0-alpha3 by @fontawesome - https://fontawesome.com License - https://fontawesome.com/license (Commercial License) --><defs><style>.fa-secondary{opacity:.4}</style></defs><path class="fa-primary" d="M256 224C238.4 224 224 238.4 224 256s14.36 32 32 32s32-14.36 32-32S273.6 224 256 224zM256 0C114.6 0 0 114.6 0 256s114.6 256 256 256s256-114.6 256-256S397.4 0 256 0zM256 416c-88.37 0-160-71.63-160-160s71.63-160 160-160s160 71.63 160 160S344.4 416 256 416z"/><path class="fa-secondary" d="M256 96C167.6 96 96 167.6 96 256s71.63 160 160 160s160-71.63 160-160S344.4 96 256 96zM256 128c22.34 0 43.06 6.264 61.36 16.37l-37.94 52.2c-7.268-2.867-15.13-4.572-23.41-4.572S239.8 193.7 232.6 196.6l-37.94-52.2C212.9 134.3 233.7 128 256 128zM128 256c0-36.73 15.76-69.65 40.63-93.01l38.18 52.53C197.7 226.6 192 240.6 192 256c0 1.314 .3086 2.545 .3867 3.84L130.4 279.1C128.9 272.2 128 264.2 128 256zM240 382.4c-44.12-5.588-81.16-33.31-99.47-72.04l61.6-20.02C210.7 303.8 224.2 313.6 240 317.7V382.4zM224 256c0-17.64 14.36-32 32-32s32 14.36 32 32s-14.36 32-32 32S224 273.6 224 256zM272 382.4V317.7c15.85-4.104 29.28-13.98 37.87-27.42l61.6 20.02C353.2 349.1 316.1 376.8 272 382.4zM319.6 259.8C319.7 258.5 320 257.3 320 256c0-15.45-5.695-29.43-14.81-40.48l38.18-52.53C368.2 186.4 384 219.3 384 256c0 8.207-.9251 16.2-2.408 23.98L319.6 259.8z"/></svg>