<svg xmlns="http://www.w3.org/2000/svg" viewBox="0 0 512 512"><!--! Font Awesome Pro 6.0.0-alpha3 by @fontawesome - https://fontawesome.com License - https://fontawesome.com/license (Commercial License) --><defs><style>.fa-secondary{opacity:.4}</style></defs><path class="fa-primary" d="M496 192h-480C7.125 192 0 199.1 0 208v32C0 248.9 7.125 256 15.1 256h480C504.9 256 512 248.9 512 240v-32C512 199.1 504.9 192 496 192zM376.5 32.02L135.5 32.02C88.53 32.02 42.13 21 0 0v96c0 17.62 14.38 32 32 32h448c17.62 0 32-14.38 32-32V0C469.9 21 423.5 32.02 376.5 32.02z"/><path class="fa-secondary" d="M64 192h64V128H64V192zM224 192h64V128H224V192zM384 128v64h64V128H384zM64 496C64 504.8 71.16 512 80 512h32C120.8 512 128 504.8 128 496V256H64V496zM384 496c0 8.836 7.164 16 16 16h32c8.836 0 16-7.164 16-16V256h-64V496z"/></svg>