<svg xmlns="http://www.w3.org/2000/svg" viewBox="0 0 448 512"><!--! Font Awesome Pro 6.0.0-alpha3 by @fontawesome - https://fontawesome.com License - https://fontawesome.com/license (Commercial License) --><defs><style>.fa-secondary{opacity:.4}</style></defs><path class="fa-primary" d="M96 352L96 480c0 17.67 14.33 32 32 32h192c17.67 0 32-14.33 32-32l-.0028-128H96zM287.1 96H248V48h16C277.3 48 288 37.25 288 24C288 10.74 277.3 0 264 0h-80C170.7 0 160 10.74 160 24C160 37.25 170.7 48 184 48h16V96H160C142.3 96 128 110.3 128 128h191.1C319.1 110.3 305.7 96 287.1 96z"/><path class="fa-secondary" d="M415.1 128H32.02c-21.26 0-36.61 20.35-30.77 40.79l37.74 132.1C34.88 306.3 32 312.7 32 320c0 17.67 14.33 32 32 32h320c17.67 0 32-14.33 32-32c0-7.305-2.875-13.71-6.996-19.1l37.75-132.1C452.6 148.3 437.2 128 415.1 128zM128 288H85.23l-32-112H128V288zM288 288H160V176h128V288zM362.8 288H320V176h74.77L362.8 288z"/></svg>