<svg xmlns="http://www.w3.org/2000/svg" viewBox="0 0 640 512"><!--! Font Awesome Pro 6.0.0-alpha3 by @fontawesome - https://fontawesome.com License - https://fontawesome.com/license (Commercial License) --><defs><style>.fa-secondary{opacity:.4}</style></defs><path class="fa-primary" d="M640 192v50.75c.002 8.486-3.372 16.62-9.372 22.63L579.8 316.2C563.7 308.3 545.1 304.1 528 304c-39.14 0-73.57 19-95.48 48H352V314C352 301.8 342.2 291.1 329.1 291.1h-7.135C319.9 282 315.9 272.4 311 263.3l5.04-5.04c8.59-8.59 8.59-22.52 0-31.11L284.9 196c-8.592-8.59-22.52-8.59-31.11 0L248.7 201.1C239.6 196.1 229.1 192.1 220 189.1V181.1C220 169.8 210.2 160 197.1 160H308L266.9 64H160v96H153.1C141.8 160 132 169.8 132 181.1v7.14C122 192.1 112.4 196.1 103.3 201L98.25 196C97.55 195.3 96.78 194.7 96 194.1V48C96.03 21.5 117.5 .0273 144 0h133.5c19.22-.0195 36.6 11.45 44.13 29.13L377.6 160H480V119.8c.0176-29.84 10.45-58.7 29.5-81.67c5.637-7.006 15.88-8.14 22.89-2.503c.6465 .5195 1.277 1.063 1.836 1.675l21.63 24.21c4.869 5.432 5.705 13.7 1.285 19.5C548.6 92.14 544 105.7 544 119.8V160h64C625.7 160 640 174.3 640 192z"/><path class="fa-secondary" d="M528 336c-48.6 0-88 39.4-88 88c0 48.6 39.4 88 88 88s88-39.4 88-88C616 375.4 576.6 336 528 336zM528 448c-13.25 0-24-10.75-24-24c0-13.26 10.75-24 24-24s24 10.74 24 24C552 437.3 541.3 448 528 448zM329.1 291.1h-7.135C319.9 282 315.9 272.4 311 263.3l5.04-5.04c8.59-8.59 8.59-22.52 0-31.11L284.9 196c-8.592-8.592-22.52-8.592-31.11 0L248.7 201.1C239.6 196.1 229.1 192.1 220 189.1V181.1C220 169.9 210.2 160 197.1 160h-44C141.8 160 132 169.9 132 181.1v7.14C122 192.1 112.4 196.1 103.3 201L98.25 196c-8.59-8.592-22.52-8.592-31.11 0L36 227.1c-8.59 8.592-8.59 22.53 0 31.12l5.02 5.02C36.08 272.4 32.11 282 29.13 291.1H21.1C9.85 291.1 0 301.8 0 314v43.1C0 370.1 9.85 380 21.1 380h7.131c2.979 9.955 6.947 19.6 11.89 28.74l-5 5c-8.59 8.592-8.59 22.53 0 31.12L67.12 475.1c8.592 8.592 22.53 8.592 31.12 0l5.02-5.02c9.145 4.939 18.78 8.906 28.74 11.89v7.133C132 502.1 141.8 512 153.1 512h44C210.2 512 220 502.1 220 489.1v-7.13c9.953-2.965 19.6-6.948 28.74-11.87l5.02 5.02c8.592 8.59 22.53 8.59 31.12 0L316 444.9c8.59-8.592 8.59-22.53 0-31.12l-5.062-5.02C315.9 399.6 319.9 389.1 322.9 380h7.133C342.2 380 352 370.1 352 357.1V314C352 301.8 342.2 291.1 329.1 291.1zM176 415.1c-44.18 0-80-35.82-80-80c0-44.18 35.82-80 80-80s80 35.82 80 80C256 380.2 220.2 415.1 176 415.1z"/></svg>