<svg xmlns="http://www.w3.org/2000/svg" viewBox="0 0 512 512"><!--! Font Awesome Pro 6.0.0-alpha3 by @fontawesome - https://fontawesome.com License - https://fontawesome.com/license (Commercial License) --><defs><style>.fa-secondary{opacity:.4}</style></defs><path class="fa-primary" d="M362.1 192H149.9L111.6 288h288.8L362.1 192zM289.8 10.12C287.3 3.1 281.4 0 274.9 0H237.1c-6.5 0-12.38 3.1-14.88 10.12L175.4 128h161.3L289.8 10.12zM480 448h-16l-38.25-96H86.25L48 448H31.1C14.33 448 0 462.3 0 479.1S14.33 512 31.1 512h448c17.67 0 32-14.33 32-31.1S497.7 448 480 448z"/><path class="fa-secondary" d="M400.4 288H111.6l-25.38 64h339.5L400.4 288zM336.6 128H175.4l-25.5 64h212.3L336.6 128z"/></svg>