<svg xmlns="http://www.w3.org/2000/svg" viewBox="0 0 448 512"><!--! Font Awesome Pro 6.0.0-alpha3 by @fontawesome - https://fontawesome.com License - https://fontawesome.com/license (Commercial License) --><defs><style>.fa-secondary{opacity:.4}</style></defs><path class="fa-primary" d="M352 0H96C42.98 0 0 42.98 0 96v256c0 49.5 37.61 89.78 85.73 94.96C89.15 447.3 92.48 448 96 448h256c3.516 0 6.849-.6665 10.27-1.036C410.4 441.8 448 401.5 448 352V96C448 42.98 405 0 352 0zM96 384c-17.62 0-32-14.38-32-32s14.38-32 32-32s32 14.38 32 32S113.6 384 96 384zM208 224c0 17.67-14.33 32-32 32H96C78.4 256 64 241.6 64 224V128c0-17.6 14.4-32 32-32h80c17.67 0 32 14.33 32 32V224zM352 384c-17.62 0-32-14.38-32-32s14.38-32 32-32s32 14.38 32 32S369.6 384 352 384zM384 224c0 17.6-14.4 32-32 32h-80c-17.67 0-32-14.33-32-32V128c0-17.67 14.33-32 32-32H352c17.6 0 32 14.4 32 32V224z"/><path class="fa-secondary" d="M413.6 498.3l-51.38-51.38C358.8 447.3 355.5 448 352 448h-56.58l59.31 59.31C357.7 510.3 361.8 512 366.1 512h41.94C415.1 512 418.7 503.4 413.6 498.3zM85.73 446.1l-51.38 51.38C29.32 503.4 32.88 512 40.01 512h41.94c4.244 0 8.314-1.686 11.31-4.688L152.6 448H96C92.48 448 89.15 447.3 85.73 446.1zM384 224V128c0-17.6-14.4-32-32-32h-80c-17.67 0-32 14.33-32 32v96c0 17.67 14.33 32 32 32H352C369.6 256 384 241.6 384 224zM176 96H96C78.4 96 64 110.4 64 128v96c0 17.6 14.4 32 32 32h80c17.67 0 32-14.33 32-32V128C208 110.3 193.7 96 176 96z"/></svg>