<svg xmlns="http://www.w3.org/2000/svg" viewBox="0 0 448 512"><!--! Font Awesome Pro 6.0.0-alpha3 by @fontawesome - https://fontawesome.com License - https://fontawesome.com/license (Commercial License) --><defs><style>.fa-secondary{opacity:.4}</style></defs><path class="fa-primary" d="M352 0H96C42.98 0 0 42.98 0 96v256c0 49.5 37.61 89.78 85.73 94.96C89.15 447.3 92.48 448 96 448h256c3.516 0 6.849-.6665 10.27-1.036C410.4 441.8 448 401.5 448 352V96C448 42.98 405 0 352 0zM224 368c-26.44 0-48-21.56-48-48S197.6 272 224 272s48 21.56 48 48S250.4 368 224 368zM384 192c0 17.6-14.4 32-32 32H96C78.4 224 64 209.6 64 192V96c0-17.6 14.4-32 32-32h256c17.6 0 32 14.4 32 32V192z"/><path class="fa-secondary" d="M85.73 446.1l-51.38 51.38C29.32 503.4 32.88 512 40.01 512h41.94c4.244 0 8.314-1.686 11.31-4.688L152.6 448H96C92.48 448 89.15 447.3 85.73 446.1zM413.6 498.3l-51.38-51.38C358.8 447.3 355.5 448 352 448h-56.58l59.31 59.31C357.7 510.3 361.8 512 366.1 512h41.94C415.1 512 418.7 503.4 413.6 498.3zM96 224h256c17.6 0 32-14.4 32-32V96c0-17.6-14.4-32-32-32H96C78.4 64 64 78.4 64 96v96C64 209.6 78.4 224 96 224z"/></svg>