<svg xmlns="http://www.w3.org/2000/svg" viewBox="0 0 640 512"><!--! Font Awesome Pro 6.0.0-alpha3 by @fontawesome - https://fontawesome.com License - https://fontawesome.com/license (Commercial License) --><defs><style>.fa-secondary{opacity:.4}</style></defs><path class="fa-primary" d="M624 320H544V64c0-17.67-14.33-32-32-32H32C14.33 32 0 46.33 0 64v288c0 17.67 14.33 32 32 32h33.63C73.5 329.8 119.6 288 176 288s102.5 41.75 110.4 96H624c8.836 0 16-7.164 16-16v-32C640 327.2 632.8 320 624 320zM96 243.6C84.63 249.4 73.88 256.4 64 264.4V104C64 99.63 67.63 96 72 96h16C92.38 96 96 99.63 96 104V243.6zM192 225.1C186.8 224.6 181.4 224 176 224S165.3 224.6 160 225.1V104C160 99.63 163.6 96 168 96h16C188.4 96 192 99.63 192 104V225.1zM288 264.4c-9.875-8-20.62-15-32-20.75V104C256 99.63 259.6 96 264 96h16C284.4 96 288 99.63 288 104V264.4zM384 320h-32V104C352 99.63 355.6 96 360 96h16C380.4 96 384 99.63 384 104V320zM480 320h-32V104C448 99.63 451.6 96 456 96h16C476.4 96 480 99.63 480 104V320z"/><path class="fa-secondary" d="M96 104C96 99.63 92.38 96 88 96h-16C67.63 96 64 99.63 64 104v160.4c9.875-8 20.62-15 32-20.75V104zM192 225.1V104C192 99.63 188.4 96 184 96h-16C163.6 96 160 99.63 160 104v121.1C165.3 224.6 170.6 224 176 224S186.8 224.6 192 225.1zM280 96h-16C259.6 96 256 99.63 256 104v139.6c11.38 5.75 22.12 12.75 32 20.75V104C288 99.63 284.4 96 280 96zM472 96h-16C451.6 96 448 99.63 448 104V320h32V104C480 99.63 476.4 96 472 96zM376 96h-16C355.6 96 352 99.63 352 104V320h32V104C384 99.63 380.4 96 376 96zM176 320C131.9 320 96 355.9 96 400S131.9 480 176 480S256 444.1 256 400S220.1 320 176 320z"/></svg>