<svg xmlns="http://www.w3.org/2000/svg" viewBox="0 0 640 512"><!--! Font Awesome Pro 6.0.0-alpha3 by @fontawesome - https://fontawesome.com License - https://fontawesome.com/license (Commercial License) --><defs><style>.fa-secondary{opacity:.4}</style></defs><path class="fa-primary" d="M621.3 237.2l-58.5-58.49c-12-12-28.25-18.62-45.25-18.62H464c-17.75 0-32 14.25-32 31.1v127.9L400 320V79.99C400 53.48 378.5 32 352 32H48C21.49 32 0 53.48 0 79.99l0 283.1C17.19 337.1 46.57 320 80 320s62.81 17.13 80 43.05C177.2 337.1 206.6 320 240 320c41.83 0 77.04 26.92 90.2 64.25h107.6C450.1 346.9 486.2 320 528 320c41.79 0 76.97 26.86 90.16 64.13L624 384.1c8.75 0 16-7.247 16-15.1V282.6C640 265.5 633.3 249.2 621.3 237.2zM96 256H64V96h32V256zM176 256h-32V96h32V256zM256 256H224V96h32V256zM336 256h-32V96h32V256zM480 255.1V207.1h37.5c4.25 0 8.25 1.749 11.25 4.749l43.38 43.24L480 255.1z"/><path class="fa-secondary" d="M528 352c-35.35 0-64 28.65-64 64c0 35.35 28.65 64 64 64s64-28.65 64-64C592 380.7 563.3 352 528 352zM80 352c-35.35 0-64 28.65-64 64c0 35.35 28.65 64 64 64s64-28.65 64-64C144 380.7 115.3 352 80 352zM240 352c-35.35 0-64 28.65-64 64c0 35.35 28.65 64 64 64s64-28.65 64-64C304 380.7 275.3 352 240 352zM96 96H64v160h32V96zM176 96h-32v160h32V96zM256 96H224v160h32V96zM304 256h32V96h-32V256z"/></svg>