<svg xmlns="http://www.w3.org/2000/svg" viewBox="0 0 640 512"><!--! Font Awesome Pro 6.0.0-alpha3 by @fontawesome - https://fontawesome.com License - https://fontawesome.com/license (Commercial License) --><defs><style>.fa-secondary{opacity:.4}</style></defs><path class="fa-primary" d="M624 416c8.812 0 16-7.203 16-16v-32c0-8.797-7.188-16-16-16H608V237.3C608 220.2 601.3 204.1 589.3 192L512 114.8C500.1 102.8 483.6 96 466.8 96H416V48C416 21.5 394.5 0 368 0h-320C21.5 0 0 21.5 0 48v320C0 394.5 21.5 416 48 416h18.16C74.03 361.9 119.8 320 176 320c56.28 0 102.5 41.86 110.4 96h67.23C361.5 361.9 407.7 320 464 320c56.22 0 101.1 41.93 109.8 96H624zM304 184C304 188.4 300.4 192 296 192H240v56C240 252.4 236.4 256 232 256h-48C179.6 256 176 252.4 176 248V192H120C115.6 192 112 188.4 112 184v-48C112 131.6 115.6 128 120 128H176V72C176 67.63 179.6 64 184 64h48C236.4 64 240 67.63 240 72V128h56C300.4 128 304 131.6 304 136V184zM416 256V160h50.75L544 237.3V256H416z"/><path class="fa-secondary" d="M464 352c-44.18 0-80 35.82-80 80c0 44.18 35.82 80 80 80s80-35.82 80-80C544 387.8 508.2 352 464 352zM176 352C131.8 352 96 387.8 96 432C96 476.2 131.8 512 176 512S256 476.2 256 432C256 387.8 220.2 352 176 352zM296 128H240V72C240 67.63 236.4 64 232 64h-48C179.6 64 176 67.63 176 72V128H120C115.6 128 112 131.6 112 136v48C112 188.4 115.6 192 120 192H176v56C176 252.4 179.6 256 184 256h48C236.4 256 240 252.4 240 248V192h56C300.4 192 304 188.4 304 184v-48C304 131.6 300.4 128 296 128z"/></svg>