<svg xmlns="http://www.w3.org/2000/svg" viewBox="0 0 640 512"><!--! Font Awesome Pro 6.0.0-alpha3 by @fontawesome - https://fontawesome.com License - https://fontawesome.com/license (Commercial License) --><defs><style>.fa-secondary{opacity:.4}</style></defs><path class="fa-primary" d="M640 0v332.1C616.5 305.3 582.5 288 544 288c-66.58 0-120.4 51.07-126.6 116L22.77 511.7c-4.25 1.125-8.625-1.375-9.875-5.625l-12.62-46.37c-1.125-4.125 1.375-8.5 5.625-9.75l346.1-94.37l-.0009-291.6C352 28.65 380.7 0 416 0H640z"/><path class="fa-secondary" d="M640 416c0 53.02-42.98 96-96 96s-96-42.98-96-96s42.98-96 96-96S640 362.1 640 416z"/></svg>