<svg xmlns="http://www.w3.org/2000/svg" viewBox="0 0 640 512"><!--! Font Awesome Pro 6.0.0-alpha3 by @fontawesome - https://fontawesome.com License - https://fontawesome.com/license (Commercial License) --><defs><style>.fa-secondary{opacity:.4}</style></defs><path class="fa-primary" d="M624 288H608V224c0-17.62-14.38-32-32-32h-48l-108.8-136C407.1 40.88 388.6 32 369.2 32H256C238.4 32 224 46.38 224 64v128H64C46.38 192 32 206.4 32 224v64H16C7.125 288 0 295.1 0 304v32C0 344.9 7.125 352 15.1 352h47.35C79.88 305.5 123.8 272 176 272S272.1 305.5 288.7 352h62.7C367.9 305.5 411.8 272 464 272s96.12 33.5 112.7 80H624c8.875 0 16-7.125 16-16v-32C640 295.1 632.9 288 624 288zM288 192V96h81.25l76.75 96H288z"/><path class="fa-secondary" d="M176 304c-48.6 0-88 39.4-88 88C88 440.6 127.4 480 176 480s88-39.4 88-88C264 343.4 224.6 304 176 304zM464 304c-48.6 0-88 39.4-88 88c0 48.6 39.4 88 88 88s88-39.4 88-88C552 343.4 512.6 304 464 304z"/></svg>