<svg xmlns="http://www.w3.org/2000/svg" viewBox="0 0 640 512"><!--! Font Awesome Pro 6.0.0-alpha3 by @fontawesome - https://fontawesome.com License - https://fontawesome.com/license (Commercial License) --><defs><style>.fa-secondary{opacity:.4}</style></defs><path class="fa-primary" d="M598.7 393.4c-14.5-14.5-22.63-34.13-22.63-54.63V237.2c0-20.5 8.125-40.13 22.63-54.63l36.63-36.75c6.25-6.125 6.25-16.35 .0001-22.6l-22.54-22.54c-6.252-6.25-16.46-6.229-22.59 .0208l-36.75 36.63c-26.5 26.5-41.38 62.37-41.38 99.87V288h-32V224c0-17.75-14.25-32-32-32h-45.88l-82.01-136.8C311.5 40.87 295.8 32 278.9 32H168C145.9 32 128 49.88 128 72L128 192H32C14.25 192 0 206.3 0 224v96c0 9.359 4.105 17.56 10.46 23.4C29.13 301.4 71.06 272 120 272c52.17 0 96.12 33.5 112.7 80h30.7C279.9 305.5 323.8 272 376 272s96.12 33.5 112.7 80h24.65c3.125 32.63 16.75 63.25 40.13 86.63l36.75 36.63c6.125 6.25 16.33 6.271 22.59 .0208l22.54-22.54c6.25-6.25 6.25-16.48-.0001-22.6L598.7 393.4zM192 192V96h77.88l57.63 96H192z"/><path class="fa-secondary" d="M120 304C71.4 304 32 343.4 32 392C32 440.6 71.4 480 120 480s88-39.4 88-88C208 343.4 168.6 304 120 304zM376 304C327.4 304 288 343.4 288 392C288 440.6 327.4 480 376 480s88-39.4 88-88C464 343.4 424.6 304 376 304z"/></svg>