<svg xmlns="http://www.w3.org/2000/svg" viewBox="0 0 512 512"><!--! Font Awesome Pro 6.0.0-alpha3 by @fontawesome - https://fontawesome.com License - https://fontawesome.com/license (Commercial License) --><defs><style>.fa-secondary{opacity:.4}</style></defs><path class="fa-primary" d="M448 0H64C28.65 0 0 28.65 0 64v304c0 35.35 28.65 64 64 64h384c35.35 0 64-28.65 64-64V64C512 28.65 483.3 0 448 0zM134.8 149.9C139.2 136.8 151.4 128 165.2 128h181.6c13.8 0 26 8.793 30.36 21.88L401.9 224H110.1L134.8 149.9zM96 352c-17.67 0-32-14.33-32-32c0-17.67 14.33-32 32-32s32 14.33 32 32C128 337.7 113.7 352 96 352zM416 352c-17.67 0-32-14.33-32-32c0-17.67 14.33-32 32-32s32 14.33 32 32C448 337.7 433.7 352 416 352z"/><path class="fa-secondary" d="M377.2 149.9C372.8 136.8 360.6 128 346.8 128h-181.6c-13.8 0-26 8.793-30.36 21.88L110.1 224h291.7L377.2 149.9zM32 423.1V480c0 17.67 14.33 32 32 32h32c17.67 0 32-14.33 32-32v-48H64C52.28 432 41.45 428.6 32 423.1zM448 432h-64V480c0 17.67 14.33 32 32 32h32c17.67 0 32-14.33 32-32v-56.88C470.6 428.6 459.7 432 448 432z"/></svg>