<svg xmlns="http://www.w3.org/2000/svg" viewBox="0 0 640 512"><!--! Font Awesome Pro 6.0.0-alpha3 by @fontawesome - https://fontawesome.com License - https://fontawesome.com/license (Commercial License) --><defs><style>.fa-secondary{opacity:.4}</style></defs><path class="fa-primary" d="M175.8 225.1L151 133.2l-61.75 16.5L114 242.5L175.8 225.1zM416 0c-35.35 0-63.1 28.65-63.1 63.1l.001 291.6l-346.1 94.37c-4.25 1.25-6.75 5.625-5.625 9.75l12.62 46.37c1.25 4.25 5.625 6.75 9.875 5.625l394.7-107.7C423.6 339.1 477.4 288 544 288c38.45 0 72.54 17.3 96 44.14V0H416z"/><path class="fa-secondary" d="M544 320c-53.02 0-96 42.98-96 96s42.98 96 96 96s96-42.98 96-96S597 320 544 320zM247.8 123.7c-2.25-8.498-11-13.5-19.5-11.25L151 133.2l24.75 92.75L114 242.5L89.27 149.7L11.89 170.5c-8.5 2.25-13.62 11.12-11.25 19.62l49.62 185.5c2.25 8.5 11 13.62 19.5 11.25l216.5-57.1c8.5-2.25 13.5-11.12 11.25-19.62L247.8 123.7z"/></svg>