<svg xmlns="http://www.w3.org/2000/svg" viewBox="0 0 640 512"><!--! Font Awesome Pro 6.0.0-alpha3 by @fontawesome - https://fontawesome.com License - https://fontawesome.com/license (Commercial License) --><defs><style>.fa-secondary{opacity:.4}</style></defs><path class="fa-primary" d="M621.3 192L544 114.8C531.1 102.7 515.7 96 498.7 96H416c-17.67 0-32 14.33-32 32v159.1L32 288c-17.67 0-32 14.33-32 32v64c0 17.67 14.33 32 32 32h17.61C57.44 361.8 103.6 319.1 160 319.1S262.6 361.8 270.4 416h99.23C377.4 361.8 423.6 319.1 480 319.1S582.6 361.8 590.4 416H608c17.67 0 32-14.33 32-32V237.3C640 220.3 633.3 204 621.3 192zM576 256h-128V160h50.75L576 237.3V256z"/><path class="fa-secondary" d="M136.8 .0059c0 0-41.06-.0156-41.28 0C78.09 .2871 64 14.53 64 32v143.1c0 8.828-7.188 16-16 16S32 184.8 32 176V160c0-8.842-7.156-15.1-16-15.1S0 151.2 0 160v16c0 26.47 21.53 47.1 48 47.1S96 202.5 96 176V53.58L206.3 288L384 287.1V263.8L160.8 10.83C154.7 3.943 145.1 .0059 136.8 .0059zM160 352c-44.18 0-80 35.82-80 80C80 476.2 115.8 512 160 512s80-35.82 80-80C240 387.8 204.2 352 160 352zM480 352c-44.18 0-80 35.82-80 80c0 44.18 35.82 80 80 80s80-35.82 80-80C560 387.8 524.2 352 480 352z"/></svg>