<svg xmlns="http://www.w3.org/2000/svg" viewBox="0 0 640 512"><!--! Font Awesome Pro 6.0.0-alpha3 by @fontawesome - https://fontawesome.com License - https://fontawesome.com/license (Commercial License) --><defs><style>.fa-secondary{opacity:.4}</style></defs><path class="fa-primary" d="M640 0v332.1C616.5 305.3 582.5 288 544 288c-66.58 0-120.4 51.07-126.6 116L22.77 511.7c-4.25 1.125-8.625-1.375-9.875-5.625l-12.62-46.37c-1.125-4.125 1.375-8.5 5.625-9.75l346.1-94.37l-.001-291.6C352 28.65 380.7 0 416 0H640z"/><path class="fa-secondary" d="M21.39 235.1c39.62-10.62 73.75 13.33 85.5 43.33L231.1 244.9C226.6 209.2 248.5 174.2 284.2 164.7c2.5-.625 5.25-.6667 8-1.042c-9.998-36.1-45.1-55.12-78.75-46.37L58.93 158.7C26.18 167.6 4.186 201.4 13.81 237.9C16.31 236.9 18.77 235.7 21.39 235.1zM292.4 195.6c-21.25 5.625-33.1 27.62-28.25 48.1l6.125 23.13L84.89 317.5L78.77 294.2c-5.75-21.25-27.75-33.1-49-28.25c-21.37 5.75-33.1 27.75-28.37 48.1l22.79 84.1l295.9-79.25V198.7C311.8 194.7 302.1 193.1 292.4 195.6zM544 320c-53.02 0-96 42.98-96 96s42.98 96 96 96s96-42.98 96-96S597 320 544 320z"/></svg>