<svg xmlns="http://www.w3.org/2000/svg" viewBox="0 0 640 512"><!--! Font Awesome Pro 6.0.0-alpha3 by @fontawesome - https://fontawesome.com License - https://fontawesome.com/license (Commercial License) --><defs><style>.fa-secondary{opacity:.4}</style></defs><path class="fa-primary" d="M624 352H608V237.3c0-17.09-6.65-33.15-18.74-45.24l-77.26-77.26C500.1 102.8 483.6 96 466.8 96H416V48C416 21.5 394.5 0 368 0h-320C21.5 0 0 21.5 0 48v320C0 394.5 21.5 416 48 416h18.16C74.03 361.9 119.8 320 176 320c56.28 0 102.5 41.86 110.4 96h67.23C361.5 361.9 407.7 320 464 320c56.22 0 101.1 41.93 109.8 96H624c8.812 0 16-7.203 16-16v-32C640 359.2 632.8 352 624 352zM208 272C146.1 272 96 221.9 96 160s50.13-112 112-112S320 98.13 320 160S269.9 272 208 272zM544 256h-128V160h50.75L544 237.3V256z"/><path class="fa-secondary" d="M176 352C131.8 352 96 387.8 96 432C96 476.2 131.8 512 176 512S256 476.2 256 432C256 387.8 220.2 352 176 352zM464 352c-44.18 0-80 35.82-80 80c0 44.18 35.82 80 80 80s80-35.82 80-80C544 387.8 508.2 352 464 352zM248 144H224V88C224 83.63 220.4 80 216 80h-16C195.6 80 192 83.63 192 88v80C192 172.4 195.6 176 200 176h48C252.4 176 256 172.4 256 168v-16C256 147.6 252.4 144 248 144z"/></svg>