<svg xmlns="http://www.w3.org/2000/svg" viewBox="0 0 640 512"><!--! Font Awesome Pro 6.0.0-alpha3 by @fontawesome - https://fontawesome.com License - https://fontawesome.com/license (Commercial License) --><defs><style>.fa-secondary{opacity:.4}</style></defs><path class="fa-primary" d="M621.3 237.2l-58.3-58.26c-12.05-12.05-28.4-18.85-45.45-18.85H464c-17.67 0-32 14.32-32 31.1V288H32c-17.67 0-32 14.33-32 32v43.05C17.19 337.1 46.57 320 80 320s62.81 17.13 80 43.05C177.2 337.1 206.6 320 240 320c41.83 0 77.04 26.92 90.2 64.25h107.6C450.1 346.9 486.2 320 528 320c41.79 0 76.97 26.86 90.16 64.13L624 384.1c8.75 0 16-7.247 16-15.1V282.5C640 265.5 633.3 249.2 621.3 237.2zM480 255.1V207.1h37.5c4.25 0 8.25 1.749 11.25 4.749l43.38 43.24L480 255.1z"/><path class="fa-secondary" d="M528 352c-35.35 0-64 28.65-64 64c0 35.35 28.65 64 64 64s64-28.65 64-64C592 380.7 563.3 352 528 352zM80 352c-35.35 0-64 28.65-64 64c0 35.35 28.65 64 64 64s64-28.65 64-64C144 380.7 115.3 352 80 352zM240 352c-35.35 0-64 28.65-64 64c0 35.35 28.65 64 64 64s64-28.65 64-64C304 380.7 275.3 352 240 352z"/></svg>