<svg xmlns="http://www.w3.org/2000/svg" viewBox="0 0 640 512"><!--! Font Awesome Pro 6.0.0-alpha3 by @fontawesome - https://fontawesome.com License - https://fontawesome.com/license (Commercial License) --><defs><style>.fa-secondary{opacity:.4}</style></defs><path class="fa-primary" d="M624 352H608V237.3c0-17.09-6.65-33.15-18.74-45.24l-77.26-77.26C500.1 102.8 483.6 96 466.8 96H416V48C416 21.5 394.5 0 368 0H109.8c-26.5 0-48 21.5-48 48V96H272C280.8 96 288 103.2 288 112S280.8 128 272 128H61.84v32H240C248.8 160 256 167.2 256 176S248.8 192 240 192H61.84v32H208C216.8 224 224 231.2 224 240S216.8 256 208 256H61.84v112c0 10.25 3.277 19.7 8.756 27.5C85.79 351.7 126.1 320 176 320c56.38 0 102.6 41.79 110.4 96h67.23C361.5 361.9 407.7 320 464 320c56.22 0 101.1 41.93 109.8 96H624c8.812 0 16-7.203 16-16v-32C640 359.2 632.8 352 624 352zM544 256h-128V160h50.75L544 237.3V256z"/><path class="fa-secondary" d="M176 352C131.8 352 96 387.8 96 432C96 476.2 131.8 512 176 512S256 476.2 256 432C256 387.8 220.2 352 176 352zM464 352c-44.18 0-80 35.82-80 80c0 44.18 35.82 80 80 80s80-35.82 80-80C544 387.8 508.2 352 464 352zM240 160h-192C39.16 160 32 167.2 32 176S39.16 192 47.1 192h192C248.8 192 256 184.8 256 176S248.8 160 240 160zM224 240C224 231.2 216.8 224 208 224h-192C7.164 224 0 231.2 0 240S7.164 256 15.1 256h192C216.8 256 224 248.8 224 240zM272 96h-256C7.164 96 0 103.2 0 111.1S7.164 128 15.1 128h256C280.8 128 288 120.8 288 112S280.8 96 272 96z"/></svg>