<svg xmlns="http://www.w3.org/2000/svg" viewBox="0 0 640 512"><!--! Font Awesome Pro 6.0.0-alpha3 by @fontawesome - https://fontawesome.com License - https://fontawesome.com/license (Commercial License) --><defs><style>.fa-secondary{opacity:.4}</style></defs><path class="fa-primary" d="M624 224H608V160c0-17.62-14.38-32-32-32h-73.63l-83.12-104C407.1 8.875 388.7 0 369.3 0H256C238.4 0 224 14.38 224 32v96H48C39.13 128 32 135.1 32 144V224H16C7.125 224 0 231.1 0 240v32C0 280.9 7.125 288 16 288h16.75C61.88 249.4 107.9 224 160 224s98.13 25.38 127.3 64h65.5C381.1 249.4 427.9 224 480 224c52.25 0 98.13 25.38 127.3 64H624C632.9 288 640 280.9 640 272v-32C640 231.1 632.9 224 624 224zM288 128V64h81.25l51.25 64H288z"/><path class="fa-secondary" d="M272 352H266.8c-2.125-7.375-5-14.25-8.625-20.88l3.75-3.625c6.25-6.25 6.25-16.5 0-22.75L239.3 282.1c-6.25-6.25-16.5-6.25-22.75 0L212.9 285.9C206.3 282.3 199.3 279.4 192 277.3V272C192 263.1 184.9 256 176 256h-32C135.1 256 128 263.1 128 272v5.25c-7.375 2.125-14.25 5-20.88 8.625L103.5 282.1c-6.25-6.25-16.5-6.25-22.75 0L58.12 304.8c-6.25 6.25-6.25 16.38 0 22.62l3.75 3.75C58.25 337.8 55.37 344.8 53.25 352H48C39.13 352 32 359.1 32 368v32C32 408.9 39.13 416 48 416h5.25c2.125 7.375 5 14.25 8.625 20.88L58.12 440.5c-6.25 6.25-6.25 16.38 0 22.62l22.63 22.62c6.25 6.25 16.5 6.25 22.75 0l3.625-3.625C113.8 485.8 120.6 488.6 128 490.8V496C128 504.9 135.1 512 144 512h32C184.9 512 192 504.9 192 496v-5.25c7.375-2.125 14.25-5 20.88-8.625l3.75 3.625c6.25 6.25 16.38 6.25 22.62 0l22.62-22.62c6.25-6.25 6.25-16.38 0-22.62l-3.75-3.625C261.8 430.3 264.6 423.3 266.9 416H272C280.9 416 288 408.9 288 400v-32C288 359.1 280.9 352 272 352zM160 432c-26.5 0-48-21.5-48-48s21.5-48 48-48s48 21.5 48 48S186.5 432 160 432zM592 352h-5.25c-2.125-7.375-5-14.25-8.625-20.88l3.75-3.625c6.25-6.25 6.25-16.5 0-22.75l-22.62-22.62c-6.25-6.25-16.5-6.25-22.75 0l-3.625 3.75C526.3 282.3 519.3 279.4 512 277.3V272C512 263.1 504.9 256 496 256h-32C455.1 256 448 263.1 448 272v5.25c-7.375 2.125-14.25 5-20.88 8.625L423.5 282.1c-6.25-6.25-16.5-6.25-22.75 0l-22.62 22.62c-6.25 6.25-6.25 16.5 0 22.75l3.75 3.625C378.3 337.8 375.4 344.8 373.3 352H368c-8.875 0-16 7.125-16 16v32c0 8.875 7.125 16 16 16h5.25c2.125 7.375 5 14.25 8.625 20.88l-3.75 3.625c-6.25 6.25-6.25 16.5 0 22.75l22.62 22.62c6.25 6.25 16.5 6.25 22.75 0l3.625-3.75c6.625 3.625 13.5 6.5 20.88 8.625V496c0 8.875 7.125 16 16 16h32c8.875 0 16-7.125 16-16v-5.25c7.375-2.125 14.25-5 20.88-8.625l3.75 3.75c6.25 6.25 16.38 6.25 22.62 0l22.62-22.62c6.25-6.25 6.25-16.5 0-22.75l-3.75-3.625C581.8 430.3 584.6 423.3 586.9 416H592c8.875 0 16-7.125 16-16v-32C608 359.1 600.9 352 592 352zM480 432c-26.5 0-48-21.5-48-48s21.5-48 48-48s48 21.5 48 48S506.5 432 480 432z"/></svg>