<svg xmlns="http://www.w3.org/2000/svg" viewBox="0 0 640 512"><!--! Font Awesome Pro 6.0.0-alpha3 by @fontawesome - https://fontawesome.com License - https://fontawesome.com/license (Commercial License) --><defs><style>.fa-secondary{opacity:.4}</style></defs><path class="fa-primary" d="M621.3 237.3l-58.51-58.51c-11.93-11.93-28.1-18.62-44.96-18.62L480 160.1V96c0-35.35-28.65-64-64-64H64C28.65 32 0 60.65 0 96v267.1C17.19 337.1 46.57 319.1 79.1 319.1S142.8 337.1 160 363.1C177.2 337.1 206.6 320 240 320c41.74 0 76.9 26.8 90.12 64h107.8C451.1 346.8 486.3 319.1 528 319.1S604.9 346.8 618.1 384H624c8.75 0 16-7.25 16-16V282.5C640 265.5 633.3 249.3 621.3 237.3zM480 256V208h37.5c4.25 0 8.25 1.75 11.25 4.75L572.1 256H480z"/><path class="fa-secondary" d="M80 352c-35.35 0-64 28.65-64 64c0 35.35 28.65 64 64 64s64-28.65 64-64C144 380.7 115.3 352 80 352zM240 352c-35.35 0-64 28.65-64 64c0 35.35 28.65 64 64 64s64-28.65 64-64C304 380.7 275.3 352 240 352zM528 352c-35.35 0-64 28.65-64 64c0 35.35 28.65 64 64 64s64-28.65 64-64C592 380.7 563.3 352 528 352z"/></svg>