<svg xmlns="http://www.w3.org/2000/svg" viewBox="0 0 640 512"><!--! Font Awesome Pro 6.0.0-alpha3 by @fontawesome - https://fontawesome.com License - https://fontawesome.com/license (Commercial License) --><defs><style>.fa-secondary{opacity:.4}</style></defs><path class="fa-primary" d="M320 47.25C319.1 47.25 320 47.25 320 47.25S320 47.25 320 47.25c-51.88 0-96.41-19.5-116.5-47.25L180.8 11.73c26.6 41.07 80.56 67.52 139.3 67.52c58.67 0 112.6-26.45 139.2-67.52L436.5 0C416.4 27.75 371.9 47.25 320 47.25zM33.93 87.65l71.44 142.9l28.1-15.36L62.37 72.95L33.93 87.65zM577.6 72.95l-71.1 142.2l28.1 15.36l71.44-142.9L577.6 72.95z"/><path class="fa-secondary" d="M577.6 72.95l-118.4-61.22c-26.6 41.07-80.52 67.52-139.2 67.52c-58.7 0-112.7-26.45-139.3-67.52L62.37 72.95l71.1 142.2l26.63-14.56L160 480c-.0059 17.67 14.32 32 31.99 32h256C465.7 512 480 497.7 480 480l-.0996-279.4l26.63 14.56L577.6 72.95zM622.2 96l-16.15-8.352l-71.44 142.9l16.25 8.887c15.78 7.73 34.83 1.299 42.7-14.41l43.04-85.1C644.5 123.2 638.1 103.8 622.2 96zM17.78 96C1.945 103.8-4.537 123.2 3.373 138.1l43.04 85.1c7.863 15.71 26.92 22.14 42.7 14.41l16.25-8.887L33.93 87.65L17.78 96z"/></svg>