<svg xmlns="http://www.w3.org/2000/svg" viewBox="0 0 384 512"><!--! Font Awesome Pro 6.0.0-alpha3 by @fontawesome - https://fontawesome.com License - https://fontawesome.com/license (Commercial License) --><defs><style>.fa-secondary{opacity:.4}</style></defs><path class="fa-primary" d="M384 64c0 17.69-14.31 32-32 32h-128v352c0 17.69-14.31 32-32 32s-32-14.31-32-32V96H32C14.31 96 0 81.69 0 64s14.31-32 32-32h320C369.7 32 384 46.31 384 64z"/><path class="fa-secondary" d="M351 184.3c-4.281-17.16-21.72-27.62-38.78-23.28L224 183v65.94l103.8-25.94C344.9 218.8 355.3 201.4 351 184.3zM32.97 359.8C36.59 374.3 49.63 384 63.97 384c2.562 0 5.188-.3125 7.781-.9687L160 360.1V295l-103.8 25.94C39.09 325.3 28.66 342.6 32.97 359.8zM32.97 263.8C36.59 278.3 49.63 288 63.97 288c2.562 0 5.188-.3125 7.781-.9687L160 264.1V199L56.25 224.1C39.09 229.3 28.66 246.6 32.97 263.8zM312.3 256.1L224 279v65.94l103.8-25.94c17.16-4.281 27.59-21.66 23.28-38.78C346.8 263.1 329.3 252.6 312.3 256.1z"/></svg>