<svg xmlns="http://www.w3.org/2000/svg" viewBox="0 0 384 512"><!--! Font Awesome Pro 6.0.0-alpha3 by @fontawesome - https://fontawesome.com License - https://fontawesome.com/license (Commercial License) --><defs><style>.fa-secondary{opacity:.4}</style></defs><path class="fa-primary" d="M192 480H96c-17.67 0-32-14.33-32-32V64c0-17.67 14.33-32 32-32s32 14.33 32 32v352h64c70.58 0 128-57.42 128-128c0-17.67 14.33-32 32-32s32 14.33 32 32C384 393.9 297.9 480 192 480z"/><path class="fa-secondary" d="M1.234 264.8c4.016 14.05 16.83 23.22 30.75 23.22c2.906 0 5.875-.4062 8.812-1.25L64 280.1V213.6L23.2 225.2C6.219 230.1-3.625 247.8 1.234 264.8zM286.8 87.2c-4.859-16.98-22.53-26.86-39.56-21.97L128 99.29v66.56l136.8-39.08C281.8 121.9 291.6 104.2 286.8 87.2zM1.234 168.8c4.016 14.05 16.83 23.22 30.75 23.22c2.906 0 5.875-.4062 8.812-1.25L64 184.1V117.6L23.2 129.2C6.219 134.1-3.625 151.8 1.234 168.8zM247.2 161.2L128 195.3v66.56l136.8-39.08c16.98-4.859 26.83-22.56 21.97-39.56C281.9 166.2 264.2 156.3 247.2 161.2z"/></svg>