<svg xmlns="http://www.w3.org/2000/svg" viewBox="0 0 640 512"><!--! Font Awesome Pro 6.0.0-alpha3 by @fontawesome - https://fontawesome.com License - https://fontawesome.com/license (Commercial License) --><defs><style>.fa-secondary{opacity:.4}</style></defs><path class="fa-primary" d="M383 288L96 288C78.33 288 64 273.7 64 256V224c0-88.37 96-160 192-160s192 71.8 192 160.2c0 13.88-4.625 27.21-13.25 38.46C422.3 278.8 403.5 288 383 288z"/><path class="fa-secondary" d="M584.3 137.3l-48.63-34.75c-35.13-17.38-80.5 1.625-86.75 40.25C448.2 146.1 448 149.5 448 153v71.17c0 13.88-4.625 27.21-13.25 38.46C422.2 278.8 403.5 288 383 288L50.62 288C40.38 288 32 296.4 32 306.6c0 8 5.125 15.13 12.75 17.62l98.25 22.13l-44.88 77.63c-6.125 10.62 1.625 24 13.88 24h37c5.75 0 11-3 13.88-8l40.25-69.75C229.1 378.8 248.8 384 288 384c39.38 0 58.88-5.25 84.88-13.75l40.25 69.75c2.875 5 8.25 8 13.88 8H464c12.25 0 20-13.38 13.88-24l-47.25-81.75c21.25-8.375 40.38-21.75 54.88-40.5c14-18.38 22.38-39.5 25.25-61.75h40.62C582.6 240 608 214.6 608 183.4C608 165 599.1 147.9 584.3 137.3zM512 175.1c-8.875 0-16-7.125-16-16s7.125-16 16-16s16 7.125 16 16S520.9 175.1 512 175.1z"/></svg>