<svg xmlns="http://www.w3.org/2000/svg" viewBox="0 0 576 512"><!--! Font Awesome Pro 6.0.0-alpha3 by @fontawesome - https://fontawesome.com License - https://fontawesome.com/license (Commercial License) --><defs><style>.fa-secondary{opacity:.4}</style></defs><path class="fa-primary" d="M432.1 111.3c3.453 12.67 5.9 25.75 5.9 39.52c0 2.695-.2656 5.326-.4062 7.99c-45.93 20.86-96.63 33.16-150.5 33.16s-104.5-12.29-150.4-33.16c-.1406-2.664-.4062-5.296-.4062-7.991c0-13.77 2.439-26.85 5.893-39.52c-85.46 19.43-143 55.4-143 96.67c0 61.86 128.9 112 287.1 112s287.1-50.15 287.1-112C575.1 166.7 518.4 130.8 432.1 111.3zM120 208c0 13.25-10.75 24-24 24c-13.26 0-23.1-10.75-24-24c0-13.25 10.75-24 24-24C109.3 184 120 194.8 120 208C120 208 120 208 120 208zM312 256c0 13.25-10.75 24-24 24c-13.26 0-23.1-10.75-24-24c0-13.25 10.75-24 24-24C301.3 232 312 242.8 312 256C312 256 312 256 312 256zM504 208c0 13.25-10.75 24-24 24c-13.26 0-23.1-10.75-24-24c0-13.25 10.75-24 24-24C493.3 184 504 194.8 504 208z"/><path class="fa-secondary" d="M288 0C288 0 288 0 288 0C204.7 0 137.1 67.54 137.1 150.9c0 2.695 .2656 5.327 .4062 7.991c45.93 20.86 96.62 33.16 150.4 33.16s104.5-12.29 150.5-33.16c.1406-2.664 .4062-5.295 .4062-7.99C438.9 67.54 371.3 0 288 0zM1.722 481.7c-3.951 7.9-.7659 17.53 7.134 21.48c.002 0-.002 0 0 0l14.29 7.145c7.902 3.951 17.53 .7617 21.48-7.141l81.72-163.4c.8906-1.812 1.389-3.758 1.535-5.773c-15.43-3.693-30.66-8.203-45.61-13.49L1.722 481.7zM574.3 481.7l-80.54-161.2c-14.96 5.283-30.19 9.794-45.62 13.49c.1543 2.014 .6523 3.958 1.535 5.772l81.72 163.4c3.955 7.902 13.58 11.09 21.48 7.141l14.28-7.143C575 499.2 578.2 489.6 574.3 481.7z"/></svg>