<svg xmlns="http://www.w3.org/2000/svg" viewBox="0 0 640 512"><!--! Font Awesome Pro 6.0.0-alpha3 by @fontawesome - https://fontawesome.com License - https://fontawesome.com/license (Commercial License) --><defs><style>.fa-secondary{opacity:.4}</style></defs><path class="fa-primary" d="M493.7 212.6C495.1 221.6 495.9 230.8 496 240c0 3.146-.3047 6.215-.4687 9.322C441.9 273.7 382.8 287.1 320 287.1s-121.9-14.34-175.5-38.67C144.3 246.2 144 243.1 144 240c.0685-9.186 .8534-18.35 2.348-27.42C58.36 235.4 0 274.9 0 320C0 390.7 143.3 448 320 448s320-57.31 320-127.1C640 274.9 581.6 235.4 493.7 212.6zM128 360c-13.25 0-24-10.75-24-24S114.7 312 128 312s24 10.75 24 24C151.1 349.3 141.3 359.1 128 360zM320 392c-13.25 0-24-10.75-24-24s10.75-24 24-24s24 10.75 24 24C343.1 381.3 333.3 391.1 320 392zM512 360c-13.25 0-24-10.75-24-24S498.7 312 512 312s24 10.75 24 24C535.1 349.3 525.3 359.1 512 360z"/><path class="fa-secondary" d="M496 240c0 3.146-.3047 6.215-.4687 9.322C441.9 273.7 382.8 287.1 320 287.1s-121.9-14.34-175.5-38.67C144.3 246.2 144 243.1 144 240c0-97.2 78.8-176 175.1-176S496 142.8 496 240z"/></svg>