<svg xmlns="http://www.w3.org/2000/svg" viewBox="0 0 640 512"><!--! Font Awesome Pro 6.0.0-alpha3 by @fontawesome - https://fontawesome.com License - https://fontawesome.com/license (Commercial License) --><defs><style>.fa-secondary{opacity:.4}</style></defs><path class="fa-primary" d="M320 310.2v52.18c27.5 7.125 48 31.88 48 61.63v32c0 4.25-1.625 8.25-4.625 11.25L353 477.6c-3 3.125-8.125 3.125-11.25 0l-11.25-11.38c-3.125-3-3.125-8.125 0-11.25l5.625-5.75v-23.5c0-16-10.88-30.75-26.62-33.38c-20-3.125-37.38 12.25-37.38 31.62v25.25L277.9 455c3.125 3.125 3.125 8.25 0 11.25L266.5 477.6c-3 3.125-8.125 3.125-11.25 0L245 467.3c-3-3-4.812-7-4.812-11.25l.0625-29.25c0-30 19.75-57 48-64.5V304.7C283.8 304.3 279.3 304 274.7 304H173.3c-4.418 0-8.752 .3359-13.09 .6602v65.96c23.12 6.875 40 28.12 40 53.38c0 30.88-25.12 56-56 56s-56-25.12-56-56c0-25.25 16.88-46.5 40-53.38V310.1C54.42 330 0 397.2 0 477.3C0 496.5 15.52 512 34.66 512H413.3C432.5 512 448 496.5 448 477.3C448 397.3 393.7 330.2 320 310.2zM120.3 424c0 13.25 10.69 24 23.94 24s24.06-10.75 24.06-24s-10.75-24-24-24S120.3 410.8 120.3 424z"/><path class="fa-secondary" d="M592 0h-160C405.5 0 384 21.49 384 48v128C384 202.5 405.5 224 432 224H448v55.97c0 6.5 7.5 10.33 12.75 6.5L543.1 224H592C618.5 224 640 202.5 640 176v-128C640 21.49 618.5 0 592 0zM160.3 370.6V304.7c-10.1 .8242-21.67 2.693-32 5.473v60.49c-23.12 6.875-40 28.12-40 53.38c0 30.88 25.12 56 56 56s56-25.12 56-56C200.3 398.8 183.4 377.5 160.3 370.6zM144.2 448c-13.25 0-23.94-10.75-23.94-24s10.75-24 24-24s24 10.75 24 24S157.4 448 144.2 448zM320 362.4V310.2C309.8 307.4 299.2 305.5 288.3 304.7v57.56c-28.25 7.5-48 34.5-48 64.5L240.2 456c0 4.25 1.812 8.25 4.812 11.25l10.25 10.38c3.125 3.125 8.25 3.125 11.25 0l11.38-11.38c3.125-3 3.125-8.125 0-11.25l-5.75-5.75V424c0-19.38 17.38-34.75 37.38-31.62c15.75 2.625 26.62 17.38 26.62 33.38v23.5L330.5 455c-3.125 3.125-3.125 8.25 0 11.25l11.25 11.38c3.125 3.125 8.25 3.125 11.25 0l10.38-10.38C366.4 464.3 368 460.3 368 456v-32C368 394.3 347.5 369.5 320 362.4zM352 128c0-70.69-57.3-128-128-128C153.3 0 96 57.31 96 128s57.31 128 128 128C294.7 256 352 198.7 352 128z"/></svg>