<svg xmlns="http://www.w3.org/2000/svg" viewBox="0 0 448 512"><!--! Font Awesome Pro 6.0.0-alpha3 by @fontawesome - https://fontawesome.com License - https://fontawesome.com/license (Commercial License) --><defs><style>.fa-secondary{opacity:.4}</style></defs><path class="fa-primary" d="M133.3 308.8C56.91 326.9 0 395.4 0 477.3C0 496.5 15.52 512 34.66 512H184L133.3 308.8zM314.7 308.8L264 512h149.3C432.5 512 448 496.5 448 477.3C448 395.4 391.1 326.9 314.7 308.8z"/><path class="fa-secondary" d="M176 288l32 56l-31.99 135.1L184 512h80l7.988-32.05L240 344l32-56H176zM224 0C153.3 0 96 57.25 96 128s57.25 128 128 128s128-57.25 128-128S294.8 0 224 0z"/></svg>