<svg xmlns="http://www.w3.org/2000/svg" viewBox="0 0 512 512"><!--! Font Awesome Pro 6.0.0-alpha3 by @fontawesome - https://fontawesome.com License - https://fontawesome.com/license (Commercial License) --><defs><style>.fa-secondary{opacity:.4}</style></defs><path class="fa-primary" d="M223.5 11.8c-2.126-7.718-9.407-12.94-17.57-11.59c-7.941 1.062-13.85 7.843-13.85 15.84v143.1H174.5L159.9 14.46C159.1 6.273 152.3 .0547 144 .0547c-8.223 0-15.1 6.218-15.91 14.4L113.6 160H96.02V16.05c0-7.999-5.906-14.78-13.85-15.84c-8.066-1.344-15.44 3.875-17.57 11.59L34.5 120.6c-7.097 33.22 1.058 67.4 22.44 93.83c12.24 15.11 28.06 26.01 45.56 33.02L96.02 487.3c-.1563 6.468 2.281 12.75 6.814 17.4C107.3 509.4 113.6 512 120 512h48.01c6.472 0 12.69-2.625 17.19-7.249c4.533-4.656 6.971-10.94 6.814-17.4l-6.484-239.9c17.5-7.011 33.32-17.91 45.56-33.02c21.39-26.43 29.54-60.62 22.19-94.74L223.5 11.8z"/><path class="fa-secondary" d="M455.1 .0195c-56.66 0-235.7 147.1-61.98 301.7l-9.998 184.1c-.3438 6.562 2 12.1 6.532 17.78C395.1 509.3 401.4 512 407.1 512h48.01C469.3 512 480 501.3 480 488V24.02C480 10.83 469.3 .0195 455.1 .0195z"/></svg>