<svg xmlns="http://www.w3.org/2000/svg" viewBox="0 0 640 512"><!--! Font Awesome Pro 6.0.0-alpha3 by @fontawesome - https://fontawesome.com License - https://fontawesome.com/license (Commercial License) --><defs><style>.fa-secondary{opacity:.4}</style></defs><path class="fa-primary" d="M628.9 210.6L494.4 49.27C485.3 38.33 471.8 32 457.5 32H48C21.6 32 0 53.6 0 80v256C0 362.4 21.6 384 48 384h1.613C57.44 329.8 103.6 288 160 288s102.6 41.79 110.4 96h99.23C377.4 329.8 423.6 288 480 288s102.6 41.79 110.4 96H592c26.4 0 48-21.6 48-48V241.4C640 230.1 636 219.3 628.9 210.6zM160 192H64V96h96V192zM320 192H224V96h96V192zM384 192V96h65.1l79.1 96H384z"/><path class="fa-secondary" d="M160 320c-44.18 0-80 35.82-80 80S115.8 480 160 480s80-35.82 80-80S204.2 320 160 320zM480 320c-44.18 0-80 35.82-80 80S435.8 480 480 480s80-35.82 80-80S524.2 320 480 320z"/></svg>