<svg xmlns="http://www.w3.org/2000/svg" viewBox="0 0 576 512"><!--! Font Awesome Pro 6.0.0-alpha3 by @fontawesome - https://fontawesome.com License - https://fontawesome.com/license (Commercial License) --><defs><style>.fa-secondary{opacity:.4}</style></defs><path class="fa-primary" d="M224 80c-88.37 0-160 71.63-160 160c0 88.36 71.63 160 160 160s160-71.64 160-160C384 151.6 312.4 80 224 80zM224 304c-35.35 0-64-28.65-64-64c0-35.35 28.65-64 64-64s64 28.65 64 64C288 275.3 259.3 304 224 304zM464 128C437.5 128 416 149.5 416 176c0 20.87 13.4 38.45 32 45.06V336c0 8.844 7.156 16 16 16s16-7.156 16-16V221.1C498.6 214.4 512 196.9 512 176C512 149.5 490.5 128 464 128z"/><path class="fa-secondary" d="M512 0H64C28.65 0 0 28.65 0 64v352c0 35.35 28.65 64 64 64h16L96 512h64l16-32h224l16 32h64l16-32H512c35.35 0 64-28.65 64-64V64C576 28.65 547.3 0 512 0zM224 400c-88.37 0-160-71.63-160-160s71.63-160 160-160s160 71.63 160 160S312.4 400 224 400zM480 221.1V336c0 8.844-7.156 16-16 16S448 344.8 448 336V221.1C429.4 214.4 416 196.9 416 176C416 149.5 437.5 128 464 128S512 149.5 512 176C512 196.9 498.6 214.4 480 221.1z"/></svg>