<svg xmlns="http://www.w3.org/2000/svg" viewBox="0 0 640 512"><!--! Font Awesome Pro 6.0.0-alpha3 by @fontawesome - https://fontawesome.com License - https://fontawesome.com/license (Commercial License) --><defs><style>.fa-secondary{opacity:.4}</style></defs><path class="fa-primary" d="M40.88 270.3L96 288h447.1l55.12-17.75c11.87-5.875 11.87-22.62 0-28.5L479.1 192H160L40.88 241.8C29.01 247.6 29.01 264.4 40.88 270.3zM160 128h319.1l27.25-16.25c7.75-7.75 5.625-20.75-4.125-25.63L320 0L136.9 86.13C127.1 91 125 104 132.8 111.8L160 128zM632.9 400.8L543.1 352H96l-88.87 48.75C1.758 404.4-.6145 410.4 .1355 416c.625 5 3.622 9.75 8.747 12.38L64 448h511.1l55.12-19.62C636.2 425.8 639.2 421 639.9 416C640.6 410.4 638.2 404.4 632.9 400.8z"/><path class="fa-secondary" d="M64 496c0 8.836 7.164 16 15.1 16h31.1c8.836 0 15.1-7.164 15.1-16V448H64L64 496zM479.1 496c0 8.836 7.164 16 15.1 16h31.1c8.836 0 16-7.164 16-16V448h-63.1V496zM288 496c0 8.836 7.163 16 15.1 16h31.1c8.836 0 15.1-7.164 15.1-16V448H288V496zM96 352h63.1V288H96L96 352zM160 192h63.1V128H160L160 192zM479.1 128h-63.1v64h63.1L479.1 128zM288 352h63.1V288H288V352zM479.1 288v64h63.1l.0007-64H479.1z"/></svg>