<svg xmlns="http://www.w3.org/2000/svg" viewBox="0 0 512 512"><!--! Font Awesome Pro 6.0.0-alpha3 by @fontawesome - https://fontawesome.com License - https://fontawesome.com/license (Commercial License) --><defs><style>.fa-secondary{opacity:.4}</style></defs><path class="fa-primary" d="M433.5 440.2c-25.42 5.105-49.71 7.668-72.38 7.668c-102.6 0-175.7-44.87-207.2-68.58C139.1 404.9 126.9 436.1 119.4 472.3c-9.994-6.32-19.57-13.2-28.56-20.8c31.12-126.3 120.5-188.1 149.3-204.1C239.1 228.8 237.1 185.1 214.9 134.6C173.6 151.6 60.4 211.8 26.67 369.2C18.57 352.9 12.19 335.5 7.721 317.4C53.51 181.8 156 124.8 200.3 106C185.4 80.25 165.1 53.88 137.4 29.26C147.6 23.88 158.3 19.33 169.4 15.36c93.77 90.08 102.6 198.4 102.8 231.7c15.44 8.73 54.71 28.05 109.5 34.04c5.947-44.22 10.38-172.3-109-280.2c18.68 1.203 36.84 4.315 54.21 9.315c94.59 107.4 92.74 224.8 86.89 272.5c29.68 .0547 62.6-4.341 97.71-15.99c-.4883 11.8-1.687 23.39-3.72 34.73C474.5 311.1 443 315 414.4 315c-79.69 0-137.9-28.67-158.6-40.55c-15.24 8.977-51.68 33.34-84.32 77.86c35.35 27.28 144.2 95.29 297.6 45.58C458.8 413.3 446.8 427.4 433.5 440.2z"/><path class="fa-secondary" d="M255.7 274.5c-15.24 8.977-51.68 33.34-84.32 77.86c35.35 27.28 144.2 95.29 297.6 45.58c19.1-28.61 32.4-61.3 38.71-96.47C474.5 311.1 443 315 414.4 315C334.7 315 276.5 286.3 255.7 274.5zM200.3 106C185.4 80.25 165.1 53.88 137.4 29.26C55.76 72.05 0 157.5 0 256c0 21.2 2.861 41.69 7.721 61.39C53.51 181.8 156 124.8 200.3 106zM326.9 10.16c94.59 107.4 92.74 224.8 86.89 272.5c29.68 .0547 62.6-4.341 97.71-15.99C511.6 263.1 512 259.6 512 256C512 139.2 433.7 40.91 326.9 10.16zM381.7 281.1c5.947-44.22 10.38-172.3-109-280.2C267.1 .4818 261.6 0 256 0C225.5 0 196.5 5.599 169.4 15.36c93.77 90.08 102.6 198.4 102.8 231.7C287.6 255.8 326.9 275.1 381.7 281.1zM240.1 246.5C239.1 228.8 237.1 185.1 214.9 134.6C173.6 151.6 60.4 211.8 26.67 369.2c15.66 31.66 37.51 59.65 64.22 82.23C121.1 325.1 211.4 263.3 240.1 246.5zM153.1 379.3C139.1 404.9 126.9 436.1 119.4 472.3C158.1 497.3 205.7 512 256 512c69 0 131.5-27.43 177.5-71.82c-25.42 5.105-49.71 7.668-72.38 7.668C258.6 447.8 185.5 402.1 153.1 379.3z"/></svg>