<svg xmlns="http://www.w3.org/2000/svg" viewBox="0 0 640 512"><!--! Font Awesome Pro 6.0.0-alpha3 by @fontawesome - https://fontawesome.com License - https://fontawesome.com/license (Commercial License) --><defs><style>.fa-secondary{opacity:.4}</style></defs><path class="fa-primary" d="M575.1 271.8v31.98c0 8.836-7.164 15.99-16 15.99H542.2C522 300.1 494.5 288 463.1 288c-61.85 0-111.1 50.14-111.1 112c0 5.48 .8492 10.73 1.609 16H286.4c.7597-5.27 1.617-10.52 1.617-16c0-61.86-50.14-112-111.1-112C145.5 288 117.9 300.1 97.75 319.8H79.99c-8.836 0-16-7.155-16-15.99V271.8c0-8.838 7.177-15.95 16.01-15.95L223.1 256L223.1 40c0-4.42 3.582-8 7.1-8h15.1c4.418 0 7.1 3.58 7.1 8L255.1 256h127.1l-.0039-216c0-4.42 3.582-8 7.1-8h15.1c4.418 0 7.1 3.58 7.1 8L415.1 256l143.1-.1065C568.8 255.9 575.1 263 575.1 271.8z"/><path class="fa-secondary" d="M223.1 256L223.1 58.98c0-15.59-11.23-28.91-26.6-31.54L39.51 .3908c-25.1-4-46.5 23.35-37.25 49.73L83.39 256H223.1zM383.1 55.99c0-22.12-17.87-39.98-39.1-39.98H296c-22.12 0-39.1 17.86-39.1 39.98L255.1 256h127.1L383.1 55.99zM175.1 288c-61.85 0-111.1 50.14-111.1 112S114.1 512 175.1 512s111.1-50.14 111.1-112S237.9 288 175.1 288zM159.1 461.7C137.6 455.9 120.1 438.4 114.3 416h45.73L159.1 461.7zM159.1 384H114.3c5.816-22.38 23.34-40.12 45.72-45.94L159.1 384zM191.1 461.7L191.1 416h45.72C231.9 438.4 214.4 455.9 191.1 461.7zM191.1 384l-.007-45.94C214.4 343.9 231.9 361.6 237.7 384H191.1zM600.5 .3908L442.6 27.44c-15.36 2.631-26.6 15.95-26.6 31.54L415.1 256h140.6l81.14-205.9C646.1 23.74 626.5-3.609 600.5 .3908zM463.1 288c-61.85 0-111.1 50.14-111.1 112S402.1 512 463.1 512s111.1-50.14 111.1-112S525.8 288 463.1 288zM447.1 461.7C425.6 455.9 408.1 438.4 402.3 416h45.73L447.1 461.7zM447.1 384h-45.73c5.816-22.38 23.35-40.12 45.73-45.94L447.1 384zM479.1 461.7L479.1 416h45.72C519.9 438.4 502.4 455.9 479.1 461.7zM479.1 384l-.0015-45.94C502.4 343.9 519.9 361.6 525.7 384H479.1z"/></svg>