<svg xmlns="http://www.w3.org/2000/svg" viewBox="0 0 448 512"><!--! Font Awesome Pro 6.0.0-alpha3 by @fontawesome - https://fontawesome.com License - https://fontawesome.com/license (Commercial License) --><defs><style>.fa-secondary{opacity:.4}</style></defs><path class="fa-primary" d="M319.9 .0001L190.6 .0002C143.7-.1248 103.6 33.73 95.98 79.98L.2377 487.6c-1.5 8.75 4.25 16.1 12.1 18.5l31.5 5.499c8.749 1.5 16.1-4.247 18.5-12.1l64.49-274.7h224.2v168.9C361.4 387.3 372.3 384 384 384c11.69 0 22.5 3.287 31.94 8.764V95.98C415.9 42.98 372.9 .0001 319.9 .0001zM351.9 159.1h-209.1l16.25-69.23c2.5-15.5 15.87-26.74 31.5-26.74h129.4c17.62 0 31.1 14.37 31.1 31.99V159.1z"/><path class="fa-secondary" d="M448 448c0 35.35-28.69 64-64.03 64s-63.96-28.65-63.96-64c0-35.35 28.66-64 64-64S448 412.7 448 448z"/></svg>