<svg xmlns="http://www.w3.org/2000/svg" viewBox="0 0 512 512"><!--! Font Awesome Pro 6.0.0-alpha3 by @fontawesome - https://fontawesome.com License - https://fontawesome.com/license (Commercial License) --><defs><style>.fa-secondary{opacity:.4}</style></defs><path class="fa-primary" d="M448 128H48C21.49 128 0 106.5 0 80V416c0 35.35 28.65 64 64 64h384c35.35 0 64-28.65 64-64V192C512 156.7 483.3 128 448 128zM416 336c-17.67 0-32-14.33-32-32c0-17.67 14.33-32 32-32s32 14.33 32 32C448 321.7 433.7 336 416 336z"/><path class="fa-secondary" d="M480 80v56.88C470.6 131.4 459.7 128 448 128H48C21.49 128 0 106.5 0 80S21.49 32 48 32h384C458.5 32 480 53.49 480 80z"/></svg>