<svg xmlns="http://www.w3.org/2000/svg" viewBox="0 0 640 512"><!--! Font Awesome Pro 6.0.0-alpha3 by @fontawesome - https://fontawesome.com License - https://fontawesome.com/license (Commercial License) --><defs><style>.fa-secondary{opacity:.4}</style></defs><path class="fa-primary" d="M640 161.3V496c0 8.875-7.125 16-16 16h-64c-8.875 0-16-7.125-16-16V256c0-17.62-14.62-32-32.63-32H128C109.1 224 95.38 238.4 95.38 256L96 496C96 504.9 88.88 512 80 512h-64C7.125 512 0 504.9 0 496V161.3C0 141.9 11.62 124.5 29.5 117l271.1-113.3C307.3 1.417 313.6 .25 320 0c6.25 .25 12.58 1.542 18.46 3.667L610.5 117C628.4 124.5 640 141.9 640 161.3z"/><path class="fa-secondary" d="M511.8 352H128v64h383.5L511.8 352zM128 512h384v-64H128.1L128 512zM512 256H128v64h383.9L512 256z"/></svg>