<svg xmlns="http://www.w3.org/2000/svg" viewBox="0 0 384 512"><!--! Font Awesome Pro 6.0.0-alpha3 by @fontawesome - https://fontawesome.com License - https://fontawesome.com/license (Commercial License) --><defs><style>.fa-secondary{opacity:.4}</style></defs><path class="fa-primary" d="M152 160c13.25 0 24 10.74 24 24c0 13.25-10.75 24-24 24S128 197.3 128 184C128 170.7 138.7 160 152 160zM152 352c-13.25 0-24-10.75-24-24c0-13.26 10.75-24 24-24s24 10.74 24 24C176 341.3 165.3 352 152 352zM264 280c-13.25 0-24-10.75-24-24c0-13.26 10.75-24 24-24S288 242.7 288 256C288 269.3 277.3 280 264 280zM288 0H96C78.38 0 64 14.38 64 32v48h256V32C320 14.38 305.6 0 288 0zM64 480c0 17.62 14.38 32 32 32h192c17.62 0 32-14.38 32-32v-47.1H64V480z"/><path class="fa-secondary" d="M320 80H64c-35.38 0-64 28.63-64 64v223.1c0 35.38 28.62 63.1 64 63.1h256c35.38 0 64-28.62 64-63.1V144C384 108.6 355.4 80 320 80zM232 160c13.25 0 24 10.74 24 24c0 13.25-10.75 24-24 24s-24-10.75-24-24C208 170.7 218.7 160 232 160zM152 160c13.25 0 24 10.74 24 24c0 13.25-10.75 24-24 24S128 197.3 128 184C128 170.7 138.7 160 152 160zM96 256c0-13.26 10.75-24 24-24s24 10.74 24 24c0 13.25-10.75 24-24 24S96 269.3 96 256zM152 352c-13.25 0-24-10.75-24-24c0-13.26 10.75-24 24-24s24 10.74 24 24C176 341.3 165.3 352 152 352zM160 256c0-17.67 14.33-31.1 32-31.1s32 14.33 32 31.1s-14.33 32-32 32S160 273.7 160 256zM232 352c-13.25 0-24-10.75-24-24c0-13.26 10.75-24 24-24s24 10.74 24 24C256 341.3 245.3 352 232 352zM264 280c-13.25 0-24-10.75-24-24c0-13.26 10.75-24 24-24S288 242.7 288 256C288 269.3 277.3 280 264 280z"/></svg>