<svg xmlns="http://www.w3.org/2000/svg" viewBox="0 0 384 512"><!--! Font Awesome Pro 6.0.0-alpha3 by @fontawesome - https://fontawesome.com License - https://fontawesome.com/license (Commercial License) --><defs><style>.fa-secondary{opacity:.4}</style></defs><path class="fa-primary" d="M64 398.8V464C64 490.4 85.6 512 112 512h160c26.4 0 48-21.6 48-48v-65.18C286 429.3 241.2 448 192 448C142.8 448 97.98 429.3 64 398.8zM272 0h-160C85.6 0 64 21.6 64 48v65.18C97.98 82.7 142.8 64 192 64c49.24 0 94.01 18.7 128 49.18V48C320 21.6 298.4 0 272 0zM192 152c-13.25 0-24 10.75-24 24v72c0 7.125 3.156 13.88 8.625 18.44l48 40C229.1 310.2 234.6 312 240 312c6.875 0 13.69-2.938 18.44-8.625c8.5-10.19 7.125-25.31-3.062-33.81L216 236.8V176C216 162.8 205.3 152 192 152z"/><path class="fa-secondary" d="M192 64C85.96 64 0 149.1 0 256s85.96 192 192 192s192-85.96 192-192S298 64 192 64zM192 400c-79.4 0-144-64.6-144-144S112.6 112 192 112s144 64.6 144 144S271.4 400 192 400z"/></svg>