<svg xmlns="http://www.w3.org/2000/svg" viewBox="0 0 384 512"><!--! Font Awesome Pro 6.0.0-alpha3 by @fontawesome - https://fontawesome.com License - https://fontawesome.com/license (Commercial License) --><defs><style>.fa-secondary{opacity:.4}</style></defs><path class="fa-primary" d="M168 368c0 4.375 3.625 8 8 8h32c4.375 0 8-3.625 8-8v-32c0-4.375-3.625-7.1-8-7.1h-32c-4.375 0-8 3.625-8 7.1V368zM176 280h32c4.375 0 8-3.625 8-8V240c0-4.375-3.625-8-8-8h-32c-4.375 0-8 3.625-8 8v31.1C168 276.4 171.6 280 176 280zM72 368c0 4.375 3.625 8 8 8h32c4.375 0 8-3.625 8-8v-32c0-4.375-3.625-8-8-8h-32c-4.375 0-8 3.625-8 8V368zM80 280h32c4.375 0 8-3.625 8-8V240c0-4.375-3.625-8-8-8h-32c-4.375 0-8 3.625-8 8v31.1C72 276.4 75.63 280 80 280zM272 280h32c4.375 0 8-3.625 8-8V240c0-4.375-3.625-8-8-8h-32c-4.375 0-8 3.625-8 8v31.1C264 276.4 267.6 280 272 280zM264 368c0 4.375 3.625 8 8 8h32c4.375 0 8-3.625 8-8v-32c0-4.375-3.625-8-8-8h-32c-4.375 0-8 3.625-8 8V368zM64 480c0 17.62 14.38 32 32 32h192c17.62 0 32-14.38 32-32v-47.1H64V480zM288 0H96C78.38 0 64 14.38 64 32v48h256V32C320 14.38 305.6 0 288 0z"/><path class="fa-secondary" d="M320 80H64c-35.38 0-64 28.63-64 64v223.1c0 35.38 28.62 63.1 64 63.1h256c35.38 0 64-28.62 64-63.1V144C384 108.6 355.4 80 320 80zM120 368c0 4.375-3.625 8-8 8h-32c-4.375 0-8-3.625-8-8v-32c0-4.375 3.625-8 8-8h32c4.375 0 8 3.625 8 8V368zM120 272c0 4.375-3.625 8-8 8h-32c-4.375 0-8-3.625-8-8V240c0-4.375 3.625-8 8-8h32c4.375 0 8 3.625 8 8V272zM216 368c0 4.375-3.625 8-8 8h-32c-4.375 0-8-3.625-8-8v-32c0-4.375 3.625-7.1 8-7.1h32c4.375 0 8 3.625 8 7.1V368zM216 272c0 4.375-3.625 8-8 8h-32c-4.375 0-8-3.625-8-8V240c0-4.375 3.625-8 8-8h32c4.375 0 8 3.625 8 8V272zM312 368c0 4.375-3.625 8-8 8h-32c-4.375 0-8-3.625-8-8v-32c0-4.375 3.625-8 8-8h32c4.375 0 8 3.625 8 8V368zM312 272c0 4.375-3.625 8-8 8h-32c-4.375 0-8-3.625-8-8V240c0-4.375 3.625-8 8-8h32c4.375 0 8 3.625 8 8V272zM312 176c0 4.375-3.625 8-8 8h-224c-4.375 0-8-3.625-8-8v-32c0-4.375 3.625-8 8-8h224c4.375 0 8 3.625 8 8V176z"/></svg>