<svg xmlns="http://www.w3.org/2000/svg" viewBox="0 0 384 512"><!--! Font Awesome Pro 6.0.0-alpha3 by @fontawesome - https://fontawesome.com License - https://fontawesome.com/license (Commercial License) --><defs><style>.fa-secondary{opacity:.4}</style></defs><path class="fa-primary" d="M288 0H96C78.38 0 64 14.38 64 32v48h256V32C320 14.38 305.6 0 288 0zM64 480c0 17.62 14.38 32 32 32h192c17.62 0 32-14.38 32-32v-48H64V480zM192 160C178.8 160 168 170.8 168 184V256c0 7.125 3.156 13.88 8.625 18.44l48 40C229.1 318.2 234.6 320 240 320c6.875 0 13.69-2.938 18.44-8.625c8.5-10.19 7.125-25.31-3.062-33.81L216 244.8V184C216 170.8 205.3 160 192 160z"/><path class="fa-secondary" d="M320 80H64c-35.38 0-64 28.62-64 64v224c0 35.38 28.62 64 64 64h256c35.38 0 64-28.62 64-64v-224C384 108.6 355.4 80 320 80zM258.4 311.4C253.7 317.1 246.9 320 240 320c-5.438 0-10.88-1.812-15.38-5.562l-48-40C171.2 269.9 168 263.1 168 256V184C168 170.8 178.8 160 192 160s24 10.75 24 24v60.75l39.38 32.81C265.6 286.1 266.9 301.2 258.4 311.4z"/></svg>