<svg xmlns="http://www.w3.org/2000/svg" viewBox="0 0 576 512"><!--! Font Awesome Pro 6.0.0-alpha3 by @fontawesome - https://fontawesome.com License - https://fontawesome.com/license (Commercial License) --><defs><style>.fa-secondary{opacity:.4}</style></defs><path class="fa-primary" d="M576 128v16C576 152.9 568.9 160 560 160h-32C519.1 160 512 152.9 512 144V128c0-17.62-14.38-32-32-32s-32 14.38-32 32v229.2c-1.719 1.514-3.508 2.938-5.035 4.695C431.2 375.5 408.6 383.9 384 383.1V288H192v95.99c-24.58-.0898-47.15-8.531-58.97-22.13C131.5 360.1 129.7 358.7 128 357.2V128c0-53 43-96 96-96s96 43 96 96v16C320 152.9 312.9 160 304 160h-32C263.1 160 256 152.9 256 144V128c0-17.62-14.38-32-32-32S192 110.4 192 128v96h192V128c0-53 43-96 96-96S576 75 576 128z"/><path class="fa-secondary" d="M576 432v32.03c-.002 9.051-7.637 16.68-16.71 15.89c-28.8-2.488-56.11-11.33-79.41-25.75c-56.49 34.39-136.9 33.91-191.9 .0781c-54.1 33.84-135.4 34.31-191.9-.0781c-23.3 14.42-50.61 23.27-79.41 25.75C7.637 480.7 .002 473.1 0 464v-32.03c0-7.855 5.688-14.81 13.59-15.62c28.43-2.992 54.76-15.52 70.54-34.71c6.451-7.852 18.08-6.516 24.75 1.156c39.09 44.1 131.2 43.85 167.1-1.156c2.996-3.758 7.506-5.652 12.01-5.691c4.5 .0391 9.037 1.934 12.03 5.691c35.9 45.01 128 46.15 167.1 1.156c6.664-7.672 18.3-9.008 24.75-1.156c15.77 19.19 42.11 31.72 70.54 34.71C570.3 417.2 576 424.2 576 432z"/></svg>