<svg xmlns="http://www.w3.org/2000/svg" viewBox="0 0 512 512"><!--! Font Awesome Pro 6.0.0-alpha3 by @fontawesome - https://fontawesome.com License - https://fontawesome.com/license (Commercial License) --><defs><style>.fa-secondary{opacity:.4}</style></defs><path class="fa-primary" d="M320 128H64c-35.35 0-64 28.65-64 64v256c0 35.34 28.65 64 64 64h256c35.35 0 64-28.66 64-64v-256C384 159.7 357.7 128 320 128zM320 256H64V192h256V256z"/><path class="fa-secondary" d="M448 .0001H192c-35.35 0-64 28.65-64 63.1v32h192c52.94 0 96 43.07 96 96v192l32-.0005c35.35 0 64-28.66 64-64v-256C512 28.65 483.3 .0001 448 .0001z"/></svg>