<svg xmlns="http://www.w3.org/2000/svg" viewBox="0 0 512 512"><!--! Font Awesome Pro 6.0.0-alpha3 by @fontawesome - https://fontawesome.com License - https://fontawesome.com/license (Commercial License) --><defs><style>.fa-secondary{opacity:.4}</style></defs><path class="fa-primary" d="M512 224V96c0-35.35-28.65-64-64-64H64C28.65 32 0 60.65 0 96v128H512zM416 96c17.75 0 32 14.25 32 32s-14.25 32-32 32s-32-14.25-32-32S398.3 96 416 96zM320 96c17.75 0 32 14.25 32 32s-14.25 32-32 32s-32-14.25-32-32S302.3 96 320 96zM224 96c17.75 0 32 14.25 32 32S241.8 160 224 160S192 145.8 192 128S206.3 96 224 96z"/><path class="fa-secondary" d="M0 224v192c0 35.35 28.65 64 64 64h384c35.35 0 64-28.65 64-64V224H0zM416 160c17.75 0 32-14.25 32-32s-14.25-32-32-32s-32 14.25-32 32S398.3 160 416 160zM320 160c17.75 0 32-14.25 32-32s-14.25-32-32-32s-32 14.25-32 32S302.3 160 320 160z"/></svg>