<svg xmlns="http://www.w3.org/2000/svg" viewBox="0 0 512 512"><!--! Font Awesome Pro 6.0.0-alpha3 by @fontawesome - https://fontawesome.com License - https://fontawesome.com/license (Commercial License) --><defs><style>.fa-secondary{opacity:.4}</style></defs><path class="fa-primary" d="M352.1 479.1c-.4219 0-.875 .0018-1.297-.0294c-14.2-.5313-26.36-10.41-29.81-24.2L256 195.9l-64.95 259.8c-3.453 13.8-15.61 23.67-29.81 24.2c-13.84 1.125-27.08-8.344-31.59-21.84l-128-384C-3.953 57.36 5.109 39.23 21.88 33.64c16.84-5.656 34.91 3.484 40.48 20.23l93.25 279.8l69.34-277.4C228.5 42 241.3 32.01 256 32.01s27.48 9.993 31.05 24.23l69.34 277.4l93.25-279.8c5.578-16.75 23.64-25.89 40.48-20.23c16.77 5.594 25.83 23.72 20.23 40.48l-128 384C377.1 471.2 365.8 479.1 352.1 479.1z"/><path class="fa-secondary" d="M244.1 240l-15.1 64h54.03l-15.1-64H244.1zM32 240c-17.67 0-32 14.33-32 32s14.33 32 32 32l46.31 .0023L56.93 240H32zM145.7 304h17.28l15.1-64h-54.61L145.7 304zM348.1 304h17.28l21.33-64h-54.61L348.1 304zM480 240h-24.93l-21.37 64L480 304c17.67 0 32-14.33 32-32S497.7 240 480 240z"/></svg>