<svg xmlns="http://www.w3.org/2000/svg" viewBox="0 0 320 512"><!--! Font Awesome Pro 6.0.0-alpha3 by @fontawesome - https://fontawesome.com License - https://fontawesome.com/license (Commercial License) --><defs><style>.fa-secondary{opacity:.4}</style></defs><path class="fa-primary" d="M314.6 81.75L192 265.7V448c0 17.67-14.33 32-32 32s-32-14.33-32-32V265.7L5.375 81.75C-4.422 67.05-.4531 47.17 14.25 37.38c14.69-9.828 34.53-5.844 44.38 8.875L160 198.3l101.4-152.1c9.797-14.72 29.64-18.7 44.38-8.875C320.5 47.17 324.4 67.05 314.6 81.75z"/><path class="fa-secondary" d="M304 256C304 238.3 289.7 224 272 224h-52.21L192 265.7V288h80C289.7 288 304 273.7 304 256zM272 320H192v64h80c17.67 0 32-14.33 32-31.1S289.7 320 272 320zM16 352C16 369.7 30.33 384 48 384H128v-64H48C30.33 320 16 334.3 16 352zM48 224c-17.67 0-32 14.33-32 32S30.33 288 48 288H128V265.7L100.2 224H48z"/></svg>