<svg xmlns="http://www.w3.org/2000/svg" viewBox="0 0 512 512"><!--! Font Awesome Pro 6.0.0-alpha3 by @fontawesome - https://fontawesome.com License - https://fontawesome.com/license (Commercial License) --><path d="M328 200C328 193.7 322.1 192 320 192H192C187.6 192 184 195.6 184 200S187.6 208 192 208h112.3l-118.8 163.3c-1.018 1.393-1.535 3.041-1.535 4.697C183.1 382.3 189.9 384 192 384h128c4.406 0 8-3.578 8-8S324.4 368 320 368H207.7l118.8-163.3C327.5 203.3 328 201.7 328 200zM36.31 154.8C23.22 139.6 16 120.1 16 100C16 53.69 53.69 16 100 16c20.09 0 39.56 7.219 54.78 20.31c3.391 2.891 8.438 2.531 11.28-.8438c2.891-3.344 2.5-8.406-.8438-11.28C147.1 8.594 123.9 0 100 0C44.86 0 0 44.86 0 100c0 23.92 8.594 47.09 24.19 65.22C25.77 167.1 28 168 30.25 168c1.844 0 3.703-.6406 5.219-1.938C38.81 163.2 39.2 158.1 36.31 154.8zM256 63.1c-123.7 0-224 100.3-224 223.1c0 58.97 22.97 112.5 60.22 152.5l-57.88 57.88c-3.125 3.125-3.125 8.188 0 11.31C35.91 511.2 37.95 512 40 512s4.094-.7813 5.656-2.344l57.88-57.88C143.5 489 197 512 256 512s112.5-22.97 152.5-60.22l57.88 57.88C467.9 511.2 469.1 512 472 512s4.094-.7813 5.656-2.344c3.125-3.125 3.125-8.188 0-11.31l-57.88-57.88C457 400.5 480 346.1 480 287.1C480 164.3 379.7 63.1 256 63.1zM256 496c-114.9 0-208-93.13-208-208S141.1 80 256 80s208 93.13 208 208S370.9 496 256 496zM412 0c-23.92 0-47.09 8.594-65.22 24.19c-3.344 2.875-3.734 7.938-.8438 11.28c2.891 3.375 7.938 3.734 11.28 .8438C372.4 23.22 391.9 16 412 16c46.31 0 84 37.69 84 84c0 20.09-7.219 39.56-20.31 54.78c-2.891 3.344-2.5 8.406 .8438 11.28C478 167.4 479.9 168 481.8 168c2.25 0 4.484-.9375 6.062-2.781C503.4 147.1 512 123.9 512 100C512 44.86 467.1 0 412 0z"/></svg>