<svg xmlns="http://www.w3.org/2000/svg" viewBox="0 0 448 512"><!--! Font Awesome Pro 6.0.0-alpha3 by @fontawesome - https://fontawesome.com License - https://fontawesome.com/license (Commercial License) --><path d="M440 56h-432C3.582 56 0 59.58 0 64s3.582 8.001 7.1 8.001h432c4.418 0 8-3.582 8-8.001S444.4 56 440 56zM0 192c0 4.418 3.582 8.001 7.1 8.001h432c4.418 0 8-3.582 8-8.001s-3.582-7.999-8-7.999h-432C3.582 184 0 187.6 0 192zM0 320c0 4.418 3.582 8.001 7.1 8.001h432c4.418 0 8-3.582 8-8.001s-3.582-7.999-8-7.999h-432C3.582 312 0 315.6 0 320zM7.1 456h432c4.418 0 8-3.582 8-8.001s-3.582-7.999-8-7.999h-432C3.582 440 0 443.6 0 448S3.582 456 7.1 456z"/></svg>