<svg xmlns="http://www.w3.org/2000/svg" viewBox="0 0 640 512"><!--! Font Awesome Pro 6.0.0-alpha3 by @fontawesome - https://fontawesome.com License - https://fontawesome.com/license (Commercial License) --><path d="M104 440c-4.418 0-8.001 3.58-8.001 7.998S99.58 456 104 456h351.1l-20.13-16H104zM536 312h-29.77l20.13 16H536c4.418 0 8-3.584 8-8.002S540.4 312 536 312zM536 184h-190.8l20.13 16H536c4.418 0 8-3.584 8-8.002S540.4 184 536 184zM536 72c4.418 0 8-3.584 8-8.002S540.4 56 536 56H184.2l20.13 16H536zM104 200h29.88l-20.13-16H104c-4.418 0-8 3.58-8 7.998S99.58 200 104 200zM104 328h190.9l-20.13-16H104c-4.418 0-8.001 3.581-8.001 7.999S99.58 328 104 328zM636.1 497.7l-623.1-496c-1.463-1.164-3.217-1.73-4.963-1.73c-2.352 0-4.689 1.029-6.287 3.012c-2.75 3.469-2.172 8.5 1.281 11.25l623.1 496c1.484 1.172 3.234 1.734 4.984 1.734c2.344 0 4.688-1.031 6.266-3.016C641 505.5 640.4 500.5 636.1 497.7z"/></svg>