<svg xmlns="http://www.w3.org/2000/svg" viewBox="0 0 448 512"><!--! Font Awesome Pro 6.0.0-alpha3 by @fontawesome - https://fontawesome.com License - https://fontawesome.com/license (Commercial License) --><path d="M160 64c0 4.418 3.582 8.001 8 8.001h272c4.418 0 8-3.582 8-8.001s-3.582-7.999-8-7.999h-272C163.6 56 160 59.58 160 64zM440 184h-432C3.582 184 0 187.6 0 192s3.582 8.001 7.1 8.001h432c4.418 0 8-3.582 8-8.001S444.4 184 440 184zM440 312h-272c-4.418 0-8 3.581-8 7.999s3.582 8.001 8 8.001h272c4.418 0 8-3.582 8-8.001S444.4 312 440 312zM448 448c0-4.418-3.582-7.999-8-7.999h-432C3.582 440 0 443.6 0 448s3.582 8.001 7.1 8.001h432C444.4 456 448 452.4 448 448z"/></svg>