<svg xmlns="http://www.w3.org/2000/svg" viewBox="0 0 576 512"><!--! Font Awesome Pro 6.0.0-alpha3 by @fontawesome - https://fontawesome.com License - https://fontawesome.com/license (Commercial License) --><path d="M573.1 338.6l-72-80c-3.062-3.344-8.844-3.344-11.91 0l-72 80c-2.953 3.297-2.688 8.344 .5938 11.31c3.312 2.969 8.328 2.703 11.31-.5938L488 284.8V296c0 107.6-85.44 195.3-192 199.6V216h80C380.4 216 384 212.4 384 208s-3.578-8-8-8h-80V159.2C336.4 155.1 368 121.4 368 80c0-44.18-35.82-80-79.1-80S208 35.82 208 80c0 41.44 31.63 75.13 72 79.19V200h-80C195.6 200 192 203.6 192 208s3.578 8 8 8h80v279.6c-106.6-4.244-192-92.01-192-199.6V284.8l58.05 64.52C147.6 351.1 149.8 352 152 352c1.906 0 3.828-.6719 5.359-2.047c3.281-2.969 3.547-8.016 .5938-11.31l-72-80c-3.062-3.344-8.844-3.344-11.91 0l-72 80c-2.953 3.297-2.688 8.344 .5938 11.31c3.297 2.969 8.344 2.703 11.31-.5938L72 284.8V296c0 116.4 92.61 211.3 208 215.6V512h16v-.4043c115.4-4.256 208-99.19 208-215.6V284.8l58.05 64.52C563.6 351.1 565.8 352 568 352c1.906 0 3.828-.6719 5.359-2.047C576.6 346.1 576.9 341.9 573.1 338.6zM224 80c0-35.29 28.71-64 64-64s64 28.71 64 64c0 35.29-28.71 64-64 64S224 115.3 224 80z"/></svg>