<svg xmlns="http://www.w3.org/2000/svg" viewBox="0 0 576 512"><!--! Font Awesome Pro 6.0.0-alpha3 by @fontawesome - https://fontawesome.com License - https://fontawesome.com/license (Commercial License) --><path d="M560 96C568.9 96 576 88.88 576 80v-64C576 7.125 568.9 0 560 0h-544C7.125 0 0 7.125 0 16v64C0 88.88 7.125 96 16 96h8v400h-16C3.578 496 0 499.6 0 504S3.578 512 8 512H192c4.422 0 8-3.578 8-8v-176C200 279.5 239.5 240 288 240s88 39.47 88 88v176c0 4.422 3.578 8 8 8h184c4.422 0 8-3.578 8-8s-3.578-8-8-8h-16V96H560zM16 80v-64h544v64H16zM536 496h-144v-168C392 270.7 345.3 224 288 224s-104 46.66-104 104v168h-144V96h496V496z"/></svg>