<svg xmlns="http://www.w3.org/2000/svg" viewBox="0 0 576 512"><!--! Font Awesome Pro 6.0.0-alpha3 by @fontawesome - https://fontawesome.com License - https://fontawesome.com/license (Commercial License) --><path d="M576 224v184c0 4.422-3.594 8-8 8H384c-4.406 0-8-3.578-8-8S379.6 400 384 400h164.7L320 171.3L197.7 293.7C196.1 295.2 194 296 192 296S187.9 295.2 186.3 293.7l-184-184C.7813 108.1 0 106 0 104C0 99.43 3.737 96 8 96c2.047 0 4.094 .7813 5.656 2.344L192 276.7l122.3-122.3C315.9 152.8 317.1 152 320 152s4.094 .7813 5.656 2.344L560 388.7V224c0-4.422 3.594-8 8-8S576 219.6 576 224z"/></svg>