<svg xmlns="http://www.w3.org/2000/svg" viewBox="0 0 576 512"><!--! Font Awesome Pro 6.0.0-alpha3 by @fontawesome - https://fontawesome.com License - https://fontawesome.com/license (Commercial License) --><path d="M576 104V288c0 4.422-3.594 8-8 8S560 292.4 560 288V123.3l-234.3 234.3c-3.125 3.125-8.188 3.125-11.31 0L192 235.3l-178.3 178.3C12.09 415.2 10.06 416 8 416s-4.094-.7813-5.656-2.344c-3.125-3.125-3.125-8.188 0-11.31l184-184c3.125-3.125 8.188-3.125 11.31 0L320 340.7L548.7 112H384c-4.406 0-8-3.578-8-8S379.6 96 384 96h184C572.4 96 576 99.58 576 104z"/></svg>