<svg xmlns="http://www.w3.org/2000/svg" viewBox="0 0 448 512"><!--! Font Awesome Pro 6.0.0-alpha3 by @fontawesome - https://fontawesome.com License - https://fontawesome.com/license (Commercial License) --><path d="M440 335.9h-81.23l-34.07-80.08H440c4.422 0 8-3.582 8-8.008c0-4.426-3.578-8.008-8-8.008h-122.1l-86.52-203.3c-2.5-5.881-12.22-5.881-14.72 0L130.1 239.8H8c-4.422 0-8 3.582-8 8.008c0 4.426 3.578 8.008 8 8.008h115.3l-34.07 80.08H8c-4.422 0-8 3.439-8 7.865s3.578 8.151 8 8.151h74.41l-49.77 116.1c-1.734 4.082 .1562 8.775 4.219 10.51c4.062 1.72 8.766-.1877 10.5-4.223l52.45-123.3h248.4l52.45 123.3C401.9 478.2 404.9 480 408 480c1.047 0 2.109-.2033 3.141-.6413c4.062-1.736 5.953-6.428 4.219-10.51l-49.77-116.1H440c4.422 0 8-3.725 8-8.151S444.4 335.9 440 335.9zM224 59.1l76.49 179.8H147.5L224 59.1zM106.6 335.9l34.07-80.08h166.6l34.07 80.08H106.6z"/></svg>