<svg xmlns="http://www.w3.org/2000/svg" viewBox="0 0 512 512"><!--! Font Awesome Pro 6.0.0-alpha3 by @fontawesome - https://fontawesome.com License - https://fontawesome.com/license (Commercial License) --><path d="M8 191.1c4.422 0 8-3.578 8-8c0-62.78 29.89-122.1 81.98-162.7C111.2 11.03 129.7 16.74 137 27.91l104.3 160.4C242.8 190.7 245.4 191.1 248 191.1c1.5 0 3.016-.4219 4.359-1.297c3.703-2.406 4.75-7.36 2.344-11.06L150.4 19.21C144.1 9.444 133.5 2.678 121.5 .6313C109.5-1.4 97.34 1.522 88.16 8.647C32.13 52.34 0 116.2 0 183.1C0 188.4 3.578 191.1 8 191.1zM504 111.1h-32c-22.06 0-40 17.94-40 40V223.1H16.86c-9.166 0-16.94 7.725-16.01 16.84c6.1 60.17 44.61 112.3 100.4 143.7C99.51 384.4 97.83 384 96 384c-35.35 0-64 28.65-64 63.1s28.65 64 64 64c35.35 0 64-28.65 64-63.1c0-17.96-7.441-34.14-19.35-45.76C166.4 411.1 194.5 415.1 224 415.1c29.58 0 57.76-5.046 83.62-13.98C295.6 413.7 288 429.9 288 447.1c0 35.35 28.65 64 64 64c35.35 0 64-28.65 64-63.1s-28.65-64-64-64c-1.818 0-3.499 .37-5.278 .5185C407.7 350.2 448 291.2 448 223.1V151.1c0-13.23 10.77-23.98 24-23.98h32c4.422 0 8-3.602 8-8.024C512 115.5 508.4 111.1 504 111.1zM144 447.1c0 26.47-21.53 48-48 48s-48-21.53-48-48c0-26.47 21.53-48 48-48S144 421.5 144 447.1zM352 399.1c26.47 0 48 21.53 48 48c0 26.47-21.53 48-48 48s-48-21.53-48-48C304 421.5 325.5 399.1 352 399.1zM224 399.1c-107.1 0-198.1-70.62-207.1-160h414.3C421.6 329.6 332.3 399.1 224 399.1z"/></svg>