<svg xmlns="http://www.w3.org/2000/svg" viewBox="0 0 448 512"><!--! Font Awesome Pro 6.0.0-alpha3 by @fontawesome - https://fontawesome.com License - https://fontawesome.com/license (Commercial License) --><path d="M400 160h-80V96c0-52.94-43.06-96-95.1-96S128 43.06 128 96v64H48c-17.67 0-32 14.33-32 32v240C16 476.2 51.82 512 96 512h256c44.18 0 80-35.82 80-80V192C432 174.3 417.7 160 400 160zM144 96c0-44.11 35.88-80 80-80s80 35.89 80 80v64h-160V96zM416 432c0 35.29-28.71 64-64 64H96c-35.29 0-64-28.71-64-64V192c0-8.822 7.176-16 16-16H128v72C128 252.4 131.6 256 136 256S144 252.4 144 248V176h160v72C304 252.4 307.6 256 312 256S320 252.4 320 248V176h80C408.8 176 416 183.2 416 192V432z"/></svg>