<svg xmlns="http://www.w3.org/2000/svg" viewBox="0 0 576 512"><!--! Font Awesome Pro 6.0.0-alpha3 by @fontawesome - https://fontawesome.com License - https://fontawesome.com/license (Commercial License) --><path d="M528 256h-288c-26.51 0-48 21.49-48 48v160C192 490.5 213.5 512 240 512h288c26.51 0 48-21.49 48-47.1v-160C576 277.5 554.5 256 528 256zM560 464c0 17.64-14.36 32-32 32h-288c-17.64 0-32-14.36-32-32v-160c0-17.64 14.36-32 32-32h288c17.64 0 32 14.36 32 32V464zM16 432v-224c0-17.67 14.33-32 32-32h352c17.67 0 32 14.33 32 32v8c0 4.418 3.582 8 8 8s8-3.582 8-8V208c0-26.51-21.49-48-48-48L320 160V98.81c0-49.96-37.01-93.69-86.75-98.37C176.2-4.933 128 40.01 128 96v64L48 160c-26.51 0-48 21.49-48 48v224c0 26.51 21.49 48 48 48l104 0C156.4 480 160 476.4 160 472s-3.582-8-7.1-8H48C30.33 464 16 449.7 16 432zM144 96c0-44.11 35.88-80 80-80s80 35.89 80 80v64h-160V96zM456 320c-4.406 0-8 3.578-8 8v40c0 35.3-28.72 64-64 64s-64-28.7-64-64v-40c0-4.422-3.594-8-8-8s-8 3.578-8 8v40c0 44.11 35.88 79.1 80 79.1s80-35.89 80-79.1v-40C464 323.6 460.4 320 456 320z"/></svg>