<svg xmlns="http://www.w3.org/2000/svg" viewBox="0 0 320 512"><!--! Font Awesome Pro 6.0.0-alpha3 by @fontawesome - https://fontawesome.com License - https://fontawesome.com/license (Commercial License) --><path d="M222.4 249.9C251.9 232.5 272 200.7 272 164C272 108.9 227.1 64 172 64H136V8C136 3.594 132.4 0 128 0S120 3.594 120 8V64h-80C26.78 64 16 74.78 16 88v336C16 437.2 26.78 448 40 448l80 .0781V504C120 508.4 123.6 512 128 512s8-3.594 8-8V448h68c55.13 0 100-44.88 100-100C304 299.2 268.8 258.6 222.4 249.9zM172 80C218.3 80 256 117.7 256 164S218.3 248 172 248H136V80H172zM32 88C32 83.59 35.59 80 40 80h80v168H32V88zM40 432C35.59 432 32 428.4 32 424v-160h88v168H40zM204 432H136V264h68C250.3 264 288 301.7 288 348S250.3 432 204 432z"/></svg>