<svg xmlns="http://www.w3.org/2000/svg" viewBox="0 0 512 512"><!--! Font Awesome Pro 6.0.0-alpha3 by @fontawesome - https://fontawesome.com License - https://fontawesome.com/license (Commercial License) --><path d="M184 384C188.4 384 192 380.4 192 376V320h78.06l-16-16H192V241.9l-16-16V376C176 380.4 179.6 384 184 384zM256 0C114.8 0 0 114.8 0 256s114.8 256 256 256s256-114.8 256-256S397.2 0 256 0zM256 496c-132.3 0-240-107.7-240-240c0-63.3 24.81-120.8 64.98-163.7l338.7 338.7C376.8 471.2 319.3 496 256 496zM192 180.7V144h96c44.11 0 80 35.89 80 80c0 35.95-24.02 65.97-56.74 75.95L192 180.7zM431 419.7L324.1 312.8C359.2 298.5 384 264.2 384 224c0-52.94-43.06-96-96-96H184C179.6 128 176 131.6 176 136v28.69L92.3 80.98C135.2 40.81 192.7 16 256 16c132.3 0 240 107.7 240 240C496 319.3 471.2 376.8 431 419.7z"/></svg>