<svg xmlns="http://www.w3.org/2000/svg" viewBox="0 0 384 512"><!--! Font Awesome Pro 6.0.0-alpha3 by @fontawesome - https://fontawesome.com License - https://fontawesome.com/license (Commercial License) --><path d="M384 264C384 383.1 287.1 480 168 480C128.3 480 96 447.7 96 408V208H40C35.59 208 32 204.4 32 200S35.59 192 40 192H96V72C96 58.78 85.22 48 72 48h-32C35.59 48 32 44.41 32 40S35.59 32 40 32h32C94.06 32 112 49.94 112 72V192h72C188.4 192 192 195.6 192 200S188.4 208 184 208H112v200c0 30.88 25.12 56 56 56c110.3 0 200-89.72 200-200c0-30.88-25.12-56-56-56h-32c-4.406 0-8-3.594-8-8S275.6 192 280 192h32C351.7 192 384 224.3 384 264z"/></svg>