<svg xmlns="http://www.w3.org/2000/svg" viewBox="0 0 512 512"><!--! Font Awesome Pro 6.0.0-alpha3 by @fontawesome - https://fontawesome.com License - https://fontawesome.com/license (Commercial License) --><path d="M501.6 92.13l-234.4-90.07C264.3 .9271 259.2-.0039 256-.0039c-3.188 0-8.219 .931-11.22 2.056L10.38 92.13C4.656 94.25 0 100.1 0 107.1V144C0 152.8 7.156 160 16 160h480C504.8 160 512 152.8 512 144V107.1C512 100.4 507.9 94.44 501.6 92.13zM256 144c-17.67 0-32-14.33-32-32s14.33-32 32-32s32 14.33 32 32S273.7 144 256 144zM496 144h-204.5C299.2 135.5 304 124.3 304 112C304 85.53 282.5 64 256 64S208 85.53 208 112c0 12.34 4.809 23.49 12.48 32H16l.1133-36.94l234.3-90.05C251.6 16.57 254.7 16 256 16c1.316 0 4.422 .5586 5.508 .9648L496 107.1V144zM504 496H8C3.594 496 0 499.6 0 504S3.594 512 8 512h496c4.406 0 8-3.594 8-8S508.4 496 504 496zM72 192C67.59 192 64 195.6 64 200v176C64 380.4 67.59 384 72 384h368c4.406 0 8-3.594 8-8v-176C448 195.6 444.4 192 440 192S432 195.6 432 200v168h-104V200C328 195.6 324.4 192 320 192s-8 3.594-8 8v168h-112V200C200 195.6 196.4 192 192 192S184 195.6 184 200v168H80V200C80 195.6 76.41 192 72 192zM32 440C32 444.4 35.59 448 40 448h432c4.406 0 8-3.594 8-8s-3.594-8-8-8H40C35.59 432 32 435.6 32 440z"/></svg>