<svg xmlns="http://www.w3.org/2000/svg" viewBox="0 0 512 512"><!--! Font Awesome Pro 6.0.0-alpha3 by @fontawesome - https://fontawesome.com License - https://fontawesome.com/license (Commercial License) --><path d="M8 32C3.578 32 0 35.58 0 40v432C0 476.4 3.578 480 8 480s8-3.578 8-8V40C16 35.58 12.42 32 8 32zM120 32C115.6 32 112 35.58 112 40v432C112 476.4 115.6 480 120 480S128 476.4 128 472V40C128 35.58 124.4 32 120 32zM56 32C51.58 32 48 35.58 48 40v432C48 476.4 51.58 480 56 480S64 476.4 64 472V40C64 35.58 60.42 32 56 32zM192 32C187.6 32 184 35.58 184 40v432C184 476.4 187.6 480 192 480s8-3.578 8-8V40C200 35.58 196.4 32 192 32zM264 32C259.6 32 256 35.58 256 40v432c0 4.422 3.578 8 8 8s8-3.578 8-8V40C272 35.58 268.4 32 264 32zM312 32c-4.422 0-8 3.578-8 8v432c0 4.422 3.578 8 8 8S320 476.4 320 472V40C320 35.58 316.4 32 312 32zM392 32C387.6 32 384 35.58 384 40v432c0 4.422 3.578 8 8 8s8-3.578 8-8V40C400 35.58 396.4 32 392 32zM456 32C451.6 32 448 35.58 448 40v432c0 4.422 3.578 8 8 8s8-3.578 8-8V40C464 35.58 460.4 32 456 32zM504 32c-4.422 0-8 3.578-8 8v432c0 4.422 3.578 8 8 8S512 476.4 512 472V40C512 35.58 508.4 32 504 32z"/></svg>