<svg xmlns="http://www.w3.org/2000/svg" viewBox="0 0 640 512"><!--! Font Awesome Pro 6.0.0-alpha3 by @fontawesome - https://fontawesome.com License - https://fontawesome.com/license (Commercial License) --><path d="M632 248H8C3.578 248 0 251.6 0 255.1C0 260.4 3.578 264 8 264h624C636.4 264 640 260.4 640 256C640 251.6 636.4 248 632 248zM264 40C264 35.58 260.4 32 256 32S248 35.58 248 40V192h16V40zM80 40C80 35.58 76.42 32 72 32S64 35.58 64 40V192h16V40zM128 40C128 35.58 124.4 32 120 32S112 35.58 112 40V192H128V40zM192 40C192 35.58 188.4 32 184 32S176 35.58 176 40V192h15.1L192 40zM336 40C336 35.58 332.4 32 328 32S320 35.58 320 40V192h16V40zM384 40C384 35.58 380.4 32 376 32S368 35.58 368 40V192H384V40zM528 40C528 35.58 524.4 32 520 32S512 35.58 512 40V192h16V40zM576 40C576 35.58 572.4 32 568 32S560 35.58 560 40V192H576V40zM464 40C464 35.58 460.4 32 456 32S448 35.58 448 40V192h16V40zM320 472c0 4.422 3.578 8 8 8s8-3.578 8-8V320H320V472zM512 472c0 4.422 3.578 8 8 8s8-3.578 8-8V320H512V472zM64 472C64 476.4 67.58 480 72 480s8-3.578 8-8V320H64V472zM560 472c0 4.422 3.578 8 8 8S576 476.4 576 472V320h-16V472zM368 472c0 4.422 3.578 8 8 8S384 476.4 384 472V320h-16V472zM448 472c0 4.422 3.578 8 8 8s8-3.578 8-8V320H448V472zM112 472C112 476.4 115.6 480 120 480S128 476.4 128 472V320H112V472zM248 472C248 476.4 251.6 480 256 480s8-3.578 8-8V320h-16V472zM176 472C176 476.4 179.6 480 184 480S192 476.4 192 472L191.1 320H176V472z"/></svg>