<svg xmlns="http://www.w3.org/2000/svg" viewBox="0 0 576 512"><!--! Font Awesome Pro 6.0.0-alpha3 by @fontawesome - https://fontawesome.com License - https://fontawesome.com/license (Commercial License) --><path d="M144 376v-240C144 131.6 140.4 128 136 128S128 131.6 128 136v240C128 380.4 131.6 384 136 384S144 380.4 144 376zM376 128c-4.422 0-8 3.578-8 8v240c0 4.422 3.578 8 8 8S384 380.4 384 376v-240C384 131.6 380.4 128 376 128zM328 128C323.6 128 320 131.6 320 136v240c0 4.422 3.578 8 8 8s8-3.578 8-8v-240C336 131.6 332.4 128 328 128zM184 128C179.6 128 176 131.6 176 136v240C176 380.4 179.6 384 184 384S192 380.4 192 376v-240C192 131.6 188.4 128 184 128zM248 128C243.6 128 240 131.6 240 136v240C240 380.4 243.6 384 248 384S256 380.4 256 376v-240C256 131.6 252.4 128 248 128zM440 376v-240C440 131.6 436.4 128 432 128s-8 3.578-8 8v240c0 4.422 3.578 8 8 8S440 380.4 440 376zM152 0h-144C3.578 0 0 3.578 0 8v144C0 156.4 3.578 160 8 160S16 156.4 16 152V16h136C156.4 16 160 12.42 160 8S156.4 0 152 0zM568 352c-4.422 0-8 3.578-8 8v136h-136c-4.422 0-8 3.578-8 8S419.6 512 424 512h144c4.422 0 8-3.578 8-8v-144C576 355.6 572.4 352 568 352zM152 496H16v-136C16 355.6 12.42 352 8 352S0 355.6 0 360v144C0 508.4 3.578 512 8 512h144C156.4 512 160 508.4 160 504S156.4 496 152 496zM568 0h-144C419.6 0 416 3.578 416 8s3.578 8 8 8h136v136C560 156.4 563.6 160 568 160S576 156.4 576 152v-144C576 3.578 572.4 0 568 0z"/></svg>