<svg xmlns="http://www.w3.org/2000/svg" viewBox="0 0 512 512"><!--! Font Awesome Pro 6.0.0-alpha3 by @fontawesome - https://fontawesome.com License - https://fontawesome.com/license (Commercial License) --><path d="M488 192H24C10.75 192 0 202.8 0 216v80C0 309.3 10.75 320 24 320h464C501.3 320 512 309.3 512 296v-80C512 202.8 501.3 192 488 192zM176 304H24C19.59 304 16 300.4 16 296v-80c0-4.412 3.59-8 8-8H176V304zM496 296c0 4.412-3.588 8-8 8H192v-96h296c4.412 0 8 3.588 8 8V296zM488 32H24C10.75 32 0 42.75 0 56v80C0 149.3 10.75 160 24 160h464C501.3 160 512 149.3 512 136v-80C512 42.75 501.3 32 488 32zM368 144H24C19.59 144 16 140.4 16 136v-80c0-4.412 3.59-8 8-8H368V144zM496 136c0 4.412-3.588 8-8 8H384v-96h104c4.412 0 8 3.588 8 8V136zM488 352H24C10.75 352 0 362.8 0 376v80C0 469.3 10.75 480 24 480h464c13.25 0 24-10.75 24-24v-80C512 362.8 501.3 352 488 352zM304 464H24c-4.41 0-8-3.588-8-8v-80c0-4.412 3.59-8 8-8h280V464zM496 456c0 4.412-3.588 8-8 8H320v-96h168c4.412 0 8 3.588 8 8V456z"/></svg>