<svg xmlns="http://www.w3.org/2000/svg" viewBox="0 0 448 512"><!--! Font Awesome Pro 6.0.0-alpha3 by @fontawesome - https://fontawesome.com License - https://fontawesome.com/license (Commercial License) --><path d="M8 104h432c4.406 0 8-3.594 8-7.1S444.4 88 440 88H8C3.594 88 0 91.59 0 95.1S3.594 104 8 104zM376 248h-304C67.59 248 64 251.6 64 255.1C64 260.4 67.59 264 72 264h304c4.406 0 8-3.594 8-7.1C384 251.6 380.4 248 376 248zM280 408h-112C163.6 408 160 411.6 160 415.1S163.6 424 168 424h112c4.406 0 8-3.594 8-7.1S284.4 408 280 408z"/></svg>