<svg xmlns="http://www.w3.org/2000/svg" viewBox="0 0 512 512"><!--! Font Awesome Pro 6.0.0-alpha3 by @fontawesome - https://fontawesome.com License - https://fontawesome.com/license (Commercial License) --><path d="M8 104h432c4.422 0 8-3.594 8-7.1S444.4 88 440 88H8C3.578 88 0 91.59 0 95.1S3.578 104 8 104zM440 408H8C3.578 408 0 411.6 0 415.1S3.578 424 8 424h432c4.422 0 8-3.594 8-7.1S444.4 408 440 408zM504 248H72C67.58 248 64 251.6 64 256s3.578 8 8 8h432C508.4 264 512 260.4 512 256S508.4 248 504 248z"/></svg>