<svg xmlns="http://www.w3.org/2000/svg" viewBox="0 0 576 512"><!--! Font Awesome Pro 6.0.0-alpha3 by @fontawesome - https://fontawesome.com License - https://fontawesome.com/license (Commercial License) --><path d="M538.6 240.2c-4.281-.875-8.578 1.781-9.547 6.063l-45.75 205.9c-5.75 25.84-28.23 43.88-54.67 43.88H147.3c-26.44 0-48.92-18.03-54.67-43.88L46.92 246.2C45.97 241.1 41.75 239.3 37.38 240.2C33.06 241.2 30.34 245.4 31.3 249.7l45.75 205.9C84.44 488.8 113.3 512 147.3 512h281.3c34 0 62.9-23.19 70.29-56.38l45.75-205.9C545.7 245.4 542.9 241.2 538.6 240.2zM568 191.1l-152.5 .0046l-80.13-187.2c-1.75-4.063-6.5-5.875-10.52-4.188c-4.062 1.719-5.938 6.438-4.203 10.5l77.5 180.8H177.9l77.5-180.8c1.734-4.063-.1406-8.781-4.203-10.5C247.1-1.072 242.4 .7405 240.6 4.834L160.5 191.1L8 191.1c-4.422 0-8 3.594-8 8s3.578 8 8 8h145.6L120.6 284.8c-1.734 4.063 .1406 8.781 4.203 10.5C125.9 295.8 126.9 295.1 128 295.1c3.094 0 6.047-1.813 7.359-4.844l35.64-83.16h234l35.64 83.16C441.1 294.2 444.9 295.1 448 295.1c1.062 0 2.125-.2187 3.156-.6562c4.062-1.719 5.938-6.438 4.203-10.5l-32.93-76.85H568c4.422 0 8-3.594 8-8S572.4 191.1 568 191.1zM200 439.1v-112c0-4.406-3.578-7.999-8-7.999s-8 3.593-8 7.999v112c0 4.406 3.578 8 8 8S200 444.4 200 439.1zM296 439.1v-112c0-4.406-3.578-7.998-8-7.998s-8 3.592-8 7.998v112c0 4.406 3.578 8.002 8 8.002S296 444.4 296 439.1zM392 439.1v-112c0-4.406-3.578-7.999-8-7.999s-8 3.593-8 7.999v112c0 4.406 3.578 8 8 8S392 444.4 392 439.1z"/></svg>