<svg xmlns="http://www.w3.org/2000/svg" viewBox="0 0 512 512"><!--! Font Awesome Pro 6.0.0-alpha3 by @fontawesome - https://fontawesome.com License - https://fontawesome.com/license (Commercial License) --><path d="M256 15.1C123.5 15.1 16 123.5 16 256S123.5 495.1 256 495.1S495.1 388.5 495.1 256S388.5 15.1 256 15.1zM480 256c0 10.99-1.062 21.71-2.598 32.27C475.6 288.2 473.8 288 472 288c-47.85 0-91.36 18.52-124.1 48.57L267.3 256l152.4-152.4C456.1 143.6 480 197.1 480 256zM304 472c0-43.44 16.1-82.69 44.14-112.5l60.25 60.25c-28.75 26.78-64.42 46.16-104.1 54.92C304.2 473.7 304 472.9 304 472zM408.4 92.29L256 244.7L175.4 164.1C205.5 131.4 224 87.85 224 40c0-1.824-.1836-3.602-.2734-5.402C234.3 33.06 245 32 256 32C314.9 32 368.4 55.01 408.4 92.29zM208 40c0 43.44-16.1 82.69-44.14 112.5L103.6 92.29c28.75-26.78 64.42-46.16 104.1-54.92C207.8 38.25 208 39.1 208 40zM92.29 103.6l60.25 60.25C122.7 191 83.44 208 40 208c-.8984 0-1.748-.1855-2.623-.2656C46.14 168 65.51 132.4 92.29 103.6zM32 256c0-10.99 1.062-21.71 2.598-32.27C36.4 223.8 38.18 224 40 224c47.85 0 91.36-18.52 124.1-48.57L244.7 256l-152.4 152.4C55.01 368.4 32 314.9 32 256zM103.6 419.7L256 267.3l80.57 80.57C306.5 380.6 288 424.1 288 472c0 1.824 .1836 3.602 .2734 5.402C277.7 478.9 266.1 480 256 480C197.1 480 143.6 456.1 103.6 419.7zM419.7 408.4l-60.25-60.25C389.3 320.1 428.6 304 472 304c.8984 0 1.748 .1855 2.623 .2656C465.9 343.1 446.5 379.6 419.7 408.4z"/></svg>