<svg xmlns="http://www.w3.org/2000/svg" viewBox="0 0 640 512"><!--! Font Awesome Pro 6.0.0-alpha3 by @fontawesome - https://fontawesome.com License - https://fontawesome.com/license (Commercial License) --><path d="M479.9 208c0-77.75-54.38-139.9-127.9-155.1V32c0-17.62-14.38-32-32-32S288 14.38 288 32v20.88C214.5 68.13 160.1 130.3 160.1 208c0 102.3-36.25 133.6-55.5 154.3C98.63 368.8 96 376.6 96 384.1c.125 16.38 12.1 31.98 32.13 31.98h383.8c19.12 0 32-15.61 32.13-31.98c0-7.5-2.625-15.24-8.625-21.74C516.1 341.6 479.9 310.3 479.9 208zM511.9 400H128.1C118.1 400 112.1 391.8 112 384c0-6.977 3.822-10.3 8.092-14.83C141 347.1 176.1 310.1 176.1 208c0-64.72 39.72-123.8 127.9-142.1V32c0-8.822 7.178-16 16-16s16 7.178 16 16v33.9C424.8 84.3 463.9 144.1 463.9 208c0 102.1 35.08 139.1 56.03 161.2C523.8 373.3 528 376.9 528 383.9C527.9 391.8 521.9 400 511.9 400zM376 440c-4.406 0-7.853 3.578-7.853 8c0 26.47-21.68 48-48.15 48S271.8 474.5 271.8 448c0-4.422-3.44-8-7.847-8S256 443.6 256 448C256 483.3 284.7 512 319.1 512S384 483.3 384 448C384 443.6 380.4 440 376 440zM112 184c0-4.422-3.578-8-8-8h-96C3.578 176 0 179.6 0 184S3.578 192 8 192h96C108.4 192 112 188.4 112 184zM632 176h-96c-4.422 0-8 3.578-8 8S531.6 192 536 192h96C636.4 192 640 188.4 640 184S636.4 176 632 176zM116.4 87.16C117.6 87.73 118.8 88 120 88c2.922 0 5.75-1.625 7.156-4.422c1.969-3.953 .375-8.75-3.578-10.73l-80-40C39.66 30.89 34.84 32.48 32.84 36.42C30.88 40.38 32.47 45.17 36.42 47.16L116.4 87.16zM520 88c1.203 0 2.422-.2656 3.578-.8438l80-40c3.953-1.984 5.547-6.781 3.578-10.73c-1.984-3.953-6.75-5.562-10.73-3.578l-80 40c-3.953 1.984-5.547 6.781-3.578 10.73C514.3 86.38 517.1 88 520 88z"/></svg>