<svg xmlns="http://www.w3.org/2000/svg" viewBox="0 0 512 512"><!--! Font Awesome Pro 6.0.0-alpha3 by @fontawesome - https://fontawesome.com License - https://fontawesome.com/license (Commercial License) --><path d="M288 208C288 163.8 252.2 128 208 128S128 163.8 128 208C128 252.2 163.8 288 208 288S288 252.2 288 208zM144 208c0-35.29 28.71-64 64-64s64 28.71 64 64s-28.71 64-64 64S144 243.3 144 208zM464 352c-26.51 0-48 21.49-48 48c0 23.77 17.32 43.37 40 47.19V472c0 13.23-10.77 24-24 24h-88.84C348.4 489.2 352 481.2 352 472v-114.2C391.4 319.1 416 266.9 416 208C416 93.13 322.9 0 208 0S0 93.13 0 208c0 58.93 24.62 111.1 64 149.8V472C64 494.1 81.94 512 104 512H432c22.06 0 40-17.94 40-40v-24.81C494.7 443.4 512 423.8 512 400C512 373.5 490.5 352 464 352zM16 208c0-105.9 86.13-192 192-192s192 86.13 192 192s-86.13 192-192 192S16 313.9 16 208zM336 472c0 13.23-10.77 24-24 24h-208c-13.23 0-24-10.77-24-24v-100.3C115.3 399.4 159.7 416 208 416s92.69-16.63 128-44.28V472zM464 432c-17.64 0-32-14.36-32-32s14.36-32 32-32s32 14.36 32 32S481.6 432 464 432z"/></svg>