<svg xmlns="http://www.w3.org/2000/svg" viewBox="0 0 640 512"><!--! Font Awesome Pro 6.0.0-alpha3 by @fontawesome - https://fontawesome.com License - https://fontawesome.com/license (Commercial License) --><path d="M535.5 406.7c-4.406 .2032-7.718 4.829-7.531 9.251c0 26.47-21.53 48-47.1 48c-14.75 0-28.53-6.829-37.75-18.74c-2.687-3.5-7.75-4.11-11.22-1.422c-3.5 2.703-4.125 7.735-1.406 11.24C441.8 470.9 460.2 480 479.1 480c35.28 0 63.1-28.71 63.1-64.01c0-.8126-.0938-1.578-.2187-2.5C543.6 409.1 539.9 406.4 535.5 406.7zM243.4 387L27.76 308.6c-6.656-2.438-11.28-8.798-11.75-16.2C15.82 288.1 16.32 280.6 25.61 275.8l3.75-1.875C50.82 263.3 86.79 245.5 114.3 169.6c.7187-1.735 15.16-41.69 15.16-41.69C152.5 64.97 222.3 32.42 285.3 55.35C289.4 56.9 294.1 54.72 295.6 50.57c1.5-4.141-.625-8.735-4.781-10.25C219.5 14.38 140.4 51.15 114.4 122.4c0 0-14.12 39.08-15.06 41.43c-25.41 70.16-56.5 85.51-77.06 95.67L18.29 261.5c-12.28 6.36-19.09 18.27-18.22 31.88c.8437 13.74 9.562 25.6 22.19 30.22l215.6 78.46c.9062 .3282 1.844 .4844 2.75 .4844c3.281 0 6.343-2.016 7.531-5.266C249.7 393.1 247.5 388.6 243.4 387zM625.6 299.4c-20.1-10.63-58.37-24.86-87.37-104.1c-.8749-2.125-14.75-40.5-15.5-42.62c-19.75-54.08-70.87-87.74-125.3-87.74c-15.16 0-30.57 2.627-45.65 8.126C282.6 97.26 246.9 173.7 272.1 242.1c.75 2.127 14.75 40.37 15.62 42.62c29.12 80.13 9.625 114.9 .5 136.6c-7.615 17.7 6.029 37.05 24.27 37.05c3.016 0 6.159-.53 9.351-1.682l300.6-109.4C642.1 340.7 647.3 310.6 625.6 299.4zM617 333.2l-300.6 109.4c-1.342 .4864-2.658 .7306-3.914 .7306c-3.373 0-6.595-1.836-8.621-4.911c-1.17-1.779-2.853-5.42-.9023-9.956l1.816-4.231c10.24-23.62 27.38-63.14-2.154-144.4C301.7 277.3 287.9 239.7 287.1 237.5C276.4 208 277.8 176.1 291 147.7c13.24-28.4 36.74-49.94 66.19-60.64c12.98-4.735 26.5-7.135 40.17-7.135c49.11 0 93.44 31.03 110.3 77.06c.125 .3535 14.6 40.5 15.54 42.75c29.46 81.4 68.23 100.5 91.4 111.1l3.664 1.82c5.084 2.629 5.924 6.755 5.734 9.753C623.8 326.8 621.8 331.4 617 333.2zM194.7 416.1c-9.218 9.673-21.56 15-34.72 15c-25.12 0-46.06-19.77-47.69-44.99c-.25-4.391-4.094-7.766-8.468-7.469c-4.406 .2813-7.781 4.094-7.468 8.501c2.125 33.61 30.09 59.96 63.62 59.96c17.56 0 34.03-7.094 46.28-19.97c3.062-3.188 2.937-8.251-.25-11.31C202.8 413.7 197.7 413.8 194.7 416.1z"/></svg>