<svg xmlns="http://www.w3.org/2000/svg" viewBox="0 0 640 512"><!--! Font Awesome Pro 6.0.0-alpha3 by @fontawesome - https://fontawesome.com License - https://fontawesome.com/license (Commercial License) --><path d="M636.1 497.7L12.99 1.73C11.53 .5664 9.772 0 8.026 0C5.674 0 3.337 1.029 1.739 3.012c-2.75 3.469-2.172 8.5 1.281 11.25l623.1 496C628.5 511.4 630.2 512 631.1 512c2.344 0 4.688-1.031 6.266-3.016C641 505.5 640.4 500.5 636.1 497.7zM272 16c105.9 0 192 86.13 192 192c0 21.78-3.82 42.65-10.54 62.18l13.16 10.46C475.1 258 480 233.6 480 207.1c0-114.9-93.12-207.1-207.1-207.1c-42.47 0-81.93 12.79-114.9 34.65l13.4 10.65C200 26.85 234.7 16 272 16zM496 496h-88.84c5.213-6.756 8.844-14.82 8.844-24v-47.63l-16-12.72V472c0 13.23-10.77 24-24 24h-208c-13.23 0-24-10.77-24-24v-100.3c35.31 27.65 79.67 44.28 127.1 44.28c36.54 0 70.77-9.557 100.6-26.14l-13.68-10.87C332.8 392.3 303.3 400 272 400c-105.9 0-192-86.13-192-192c0-15.91 2.16-31.29 5.824-46.08l-13.72-10.91C66.94 169.1 64 188.2 64 207.1c0 58.93 24.62 111.1 63.1 149.8L128 472c0 22.06 17.94 40 40 40h328c8.033 0 15.09-2.973 21.36-7.062l-13.29-10.57C501.5 495.3 498.9 496 496 496z"/></svg>