<svg xmlns="http://www.w3.org/2000/svg" viewBox="0 0 448 512"><!--! Font Awesome Pro 6.0.0-alpha3 by @fontawesome - https://fontawesome.com License - https://fontawesome.com/license (Commercial License) --><path d="M439.4 362.3C420.1 341.6 383.9 310.3 383.9 208c0-77.75-54.38-139.9-127.9-155.1V32c0-17.62-14.38-32-32-32S192 14.38 192 32v20.88C118.5 68.13 64.13 130.3 64.13 208c0 102.3-36.25 133.6-55.5 154.3C2.625 368.8 0 376.6 0 384.1c.125 16.38 13 31.98 32.13 31.98h383.8c19.12 0 32-15.61 32.13-31.98C448 376.6 445.4 368.8 439.4 362.3zM415.9 400H32.13C22.11 400 16.06 391.8 16 384c0-6.977 3.822-10.3 8.092-14.83C45.05 347.1 80.13 310.1 80.13 208c0-64.72 39.72-123.8 127.9-142.1V32c0-8.822 7.178-16 16-16s16 7.178 16 16v33.9C328.8 84.3 367.9 144.1 367.9 208c0 102.1 35.08 139.1 56.03 161.2C427.8 373.3 432 376.9 432 383.9C431.9 391.8 425.9 400 415.9 400zM280 440c-4.406 0-7.853 3.578-7.853 8c0 26.47-21.68 48-48.15 48S175.8 474.5 175.8 448c0-4.422-3.44-8-7.847-8S160 443.6 160 448C160 483.3 188.7 512 223.1 512S288 483.3 288 448C288 443.6 284.4 440 280 440zM296 232h-64v-64c0-4.422-3.594-7.1-8-7.1S216 163.6 216 168v64h-64c-4.422 0-8 3.594-8 8S147.6 248 152 248h64v64c0 4.422 3.594 8 8 8S232 316.4 232 312v-64h64c4.422 0 8-3.593 8-7.1S300.4 232 296 232z"/></svg>