<svg xmlns="http://www.w3.org/2000/svg" viewBox="0 0 640 512"><!--! Font Awesome Pro 6.0.0-alpha3 by @fontawesome - https://fontawesome.com License - https://fontawesome.com/license (Commercial License) --><path d="M376 440c-4.406 0-7.853 3.578-7.853 8c0 26.47-21.68 48-48.15 48S271.8 474.5 271.8 448c0-4.422-3.44-8-7.847-8s-7.1 3.579-7.1 8C256 483.3 284.7 512 319.1 512s64-28.7 64-63.1C384 443.6 380.4 440 376 440zM304 65.9V32c0-8.822 7.178-16 16-16s16 7.178 16 16v33.9C424.8 84.3 463.9 144.1 463.9 208c0 31.58 3.43 56.68 8.676 77.25l22.73 18.07c-8.855-22.38-15.4-52.33-15.4-95.31c0-77.75-54.37-139.9-127.9-155.1V32c0-17.62-14.38-32-32-32s-31.1 14.38-31.1 32V52.88c-25.48 5.287-48.41 16.51-67.82 31.76L233.1 95.63C252.6 82.33 275.5 71.81 304 65.9zM128.1 400C118.1 400 112.1 391.8 112 384c0-6.977 3.822-10.3 8.092-14.83c19.12-20.15 49.69-53.28 54.95-136.4L159.6 220.4c-2.967 91.84-36.54 121.1-54.94 141.8c-6 6.5-8.625 14.25-8.625 21.75c.125 16.38 12.1 31.1 32.12 31.1L405.6 416l-20.13-16H128.1zM636.1 497.7l-623.1-496C11.52 .5664 9.771 0 8.025 0C5.673 0 3.335 1.029 1.738 3.012c-2.75 3.469-2.172 8.5 1.281 11.25l623.1 496c1.484 1.172 3.234 1.734 4.984 1.734c2.344 0 4.688-1.031 6.266-3.016C641 505.5 640.4 500.5 636.1 497.7z"/></svg>