<svg xmlns="http://www.w3.org/2000/svg" viewBox="0 0 320 512"><!--! Font Awesome Pro 6.0.0-alpha3 by @fontawesome - https://fontawesome.com License - https://fontawesome.com/license (Commercial License) --><path d="M222.4 249.9C251.9 232.5 272 200.7 272 164c0-51.18-38.83-93.04-88.48-98.84C183.6 64.73 184 64.45 184 64V8C184 3.594 180.4 0 176 0s-8 3.594-8 8V64h-80V8C88 3.594 84.41 0 80 0S72 3.594 72 8V64h-32C26.78 64 16 74.78 16 88v336C16 437.2 26.78 448 40 448h32v56C72 508.4 75.59 512 80 512s8-3.594 8-8V448h80v56c0 4.406 3.594 8 8 8s8-3.594 8-8V448h20c55.13 0 100-44.88 100-100C304 299.2 268.8 258.6 222.4 249.9zM32 88C32 83.59 35.59 80 40 80h132C218.3 80 256 117.7 256 164S218.3 248 172 248H32V88zM204 432H40C35.59 432 32 428.4 32 424v-160h172C250.3 264 288 301.7 288 348S250.3 432 204 432z"/></svg>