<svg xmlns="http://www.w3.org/2000/svg" viewBox="0 0 512 512"><!--! Font Awesome Pro 6.0.0-alpha3 by @fontawesome - https://fontawesome.com License - https://fontawesome.com/license (Commercial License) --><path d="M512 96c0-4.406-3.594-8-8-8H8C3.594 88 0 91.59 0 96s3.594 8 8 8h496C508.4 104 512 100.4 512 96zM504 248H136C131.6 248 128 251.6 128 256s3.594 8 8 8h368C508.4 264 512 260.4 512 256S508.4 248 504 248zM504 408H136C131.6 408 128 411.6 128 416s3.594 8 8 8h368c4.406 0 8-3.594 8-8S508.4 408 504 408zM24 224C19.59 224 16 227.6 16 232v208C16 444.4 19.59 448 24 448S32 444.4 32 440v-208C32 227.6 28.41 224 24 224z"/></svg>