<svg xmlns="http://www.w3.org/2000/svg" viewBox="0 0 448 512"><!--! Font Awesome Pro 6.0.0-alpha3 by @fontawesome - https://fontawesome.com License - https://fontawesome.com/license (Commercial License) --><path d="M128 80c8.822 0 16-7.18 16-16S136.8 48 128 48S112 55.18 112 64S119.2 80 128 80zM320 80c8.822 0 16-7.18 16-16S328.8 48 320 48S304 55.18 304 64S311.2 80 320 80zM32 80c8.822 0 16-7.18 16-16S40.82 48 32 48S16 55.18 16 64S23.18 80 32 80zM224 80c8.822 0 16-7.18 16-16S232.8 48 224 48S208 55.18 208 64S215.2 80 224 80zM32 272c8.822 0 16-7.18 16-16S40.82 240 32 240S16 247.2 16 256S23.18 272 32 272zM32 176c8.822 0 16-7.18 16-16S40.82 144 32 144S16 151.2 16 160S23.18 176 32 176zM440 32c-4.418 0-8 3.582-8 8V448c0 8.838-7.164 16-16 16H8C3.582 464 0 467.6 0 472S3.582 480 8 480H416c17.67 0 32-14.33 32-32V40C448 35.58 444.4 32 440 32zM32 368c8.822 0 16-7.18 16-16S40.82 336 32 336S16 343.2 16 352S23.18 368 32 368z"/></svg>