<svg xmlns="http://www.w3.org/2000/svg" viewBox="0 0 448 512"><!--! Font Awesome Pro 6.0.0-alpha3 by @fontawesome - https://fontawesome.com License - https://fontawesome.com/license (Commercial License) --><path d="M128 240C119.2 240 112 247.2 112 256S119.2 272 128 272S144 264.8 144 256S136.8 240 128 240zM224 240C215.2 240 208 247.2 208 256S215.2 272 224 272s16-7.18 16-16S232.8 240 224 240zM224 336c-8.82 0-16 7.18-16 16s7.18 16 16 16s16-7.18 16-16S232.8 336 224 336zM224 144C215.2 144 208 151.2 208 160S215.2 176 224 176s16-7.18 16-16S232.8 144 224 144zM320 240c-8.82 0-16 7.18-16 16s7.18 16 16 16s16-7.18 16-16S328.8 240 320 240zM416 32H32C14.33 32 0 46.33 0 64v384c0 17.67 14.33 32 32 32h384c17.67 0 32-14.33 32-32V64C448 46.33 433.7 32 416 32zM432 448c0 8.822-7.176 16-16 16H32c-8.824 0-16-7.178-16-16V64c0-8.822 7.176-16 16-16h384c8.824 0 16 7.178 16 16V448z"/></svg>