<svg xmlns="http://www.w3.org/2000/svg" viewBox="0 0 448 512"><!--! Font Awesome Pro 6.0.0-alpha3 by @fontawesome - https://fontawesome.com License - https://fontawesome.com/license (Commercial License) --><path d="M416 368c8.822 0 16-7.18 16-16s-7.178-16-16-16s-16 7.18-16 16S407.2 368 416 368zM320 80c8.822 0 16-7.18 16-16S328.8 48 320 48S304 55.18 304 64S311.2 80 320 80zM224 176c8.822 0 16-7.18 16-16S232.8 144 224 144S208 151.2 208 160S215.2 176 224 176zM320 272c8.822 0 16-7.18 16-16S328.8 240 320 240S304 247.2 304 256S311.2 272 320 272zM224 80c8.822 0 16-7.18 16-16S232.8 48 224 48S208 55.18 208 64S215.2 80 224 80zM416 272c8.822 0 16-7.18 16-16S424.8 240 416 240S400 247.2 400 256S407.2 272 416 272zM416 80c8.822 0 16-7.18 16-16S424.8 48 416 48S400 55.18 400 64S407.2 80 416 80zM416 176c8.822 0 16-7.18 16-16S424.8 144 416 144S400 151.2 400 160S407.2 176 416 176zM32 272c8.822 0 16-7.18 16-16S40.82 240 32 240S16 247.2 16 256S23.18 272 32 272zM32 368c8.822 0 16-7.18 16-16S40.82 336 32 336S16 343.2 16 352S23.18 368 32 368zM32 176c8.822 0 16-7.18 16-16S40.82 144 32 144S16 151.2 16 160S23.18 176 32 176zM440 464H8C3.594 464 0 467.6 0 472S3.594 480 8 480h432c4.406 0 8-3.578 8-8S444.4 464 440 464zM224 272c8.822 0 16-7.18 16-16S232.8 240 224 240S208 247.2 208 256S215.2 272 224 272zM32 80c8.822 0 16-7.18 16-16S40.82 48 32 48S16 55.18 16 64S23.18 80 32 80zM128 272c8.822 0 16-7.18 16-16S136.8 240 128 240S112 247.2 112 256S119.2 272 128 272zM224 368c8.822 0 16-7.18 16-16s-7.178-16-16-16S208 343.2 208 352S215.2 368 224 368zM128 80c8.822 0 16-7.18 16-16S136.8 48 128 48S112 55.18 112 64S119.2 80 128 80z"/></svg>