<svg xmlns="http://www.w3.org/2000/svg" viewBox="0 0 448 512"><!--! Font Awesome Pro 6.0.0-alpha3 by @fontawesome - https://fontawesome.com License - https://fontawesome.com/license (Commercial License) --><path d="M128 240C119.2 240 112 247.2 112 256S119.2 272 128 272S144 264.8 144 256S136.8 240 128 240zM224 336c-8.822 0-16 7.18-16 16s7.178 16 16 16s16-7.18 16-16S232.8 336 224 336zM224 432c-8.822 0-16 7.18-16 16s7.178 16 16 16s16-7.18 16-16S232.8 432 224 432zM128 432c-8.822 0-16 7.18-16 16s7.178 16 16 16s16-7.18 16-16S136.8 432 128 432zM32 240C23.18 240 16 247.2 16 256S23.18 272 32 272S48 264.8 48 256S40.82 240 32 240zM32 336c-8.822 0-16 7.18-16 16s7.178 16 16 16s16-7.18 16-16S40.82 336 32 336zM32 144C23.18 144 16 151.2 16 160S23.18 176 32 176S48 168.8 48 160S40.82 144 32 144zM32 432c-8.822 0-16 7.18-16 16s7.178 16 16 16s16-7.18 16-16S40.82 432 32 432zM320 240c-8.822 0-16 7.18-16 16s7.178 16 16 16s16-7.18 16-16S328.8 240 320 240zM416 240c-8.822 0-16 7.18-16 16s7.178 16 16 16s16-7.18 16-16S424.8 240 416 240zM416 144c-8.822 0-16 7.18-16 16s7.178 16 16 16s16-7.18 16-16S424.8 144 416 144zM416 336c-8.822 0-16 7.18-16 16s7.178 16 16 16s16-7.18 16-16S424.8 336 416 336zM440 32H8C3.594 32 0 35.58 0 40S3.594 48 8 48h432C444.4 48 448 44.42 448 40S444.4 32 440 32zM416 432c-8.822 0-16 7.18-16 16s7.178 16 16 16s16-7.18 16-16S424.8 432 416 432zM224 144C215.2 144 208 151.2 208 160S215.2 176 224 176s16-7.18 16-16S232.8 144 224 144zM224 240C215.2 240 208 247.2 208 256S215.2 272 224 272s16-7.18 16-16S232.8 240 224 240zM320 432c-8.822 0-16 7.18-16 16s7.178 16 16 16s16-7.18 16-16S328.8 432 320 432z"/></svg>