<svg xmlns="http://www.w3.org/2000/svg" viewBox="0 0 448 512"><!--! Font Awesome Pro 6.0.0-alpha3 by @fontawesome - https://fontawesome.com License - https://fontawesome.com/license (Commercial License) --><path d="M416 432c-8.822 0-16 7.18-16 16s7.178 16 16 16s16-7.18 16-16S424.8 432 416 432zM320 432c-8.822 0-16 7.18-16 16s7.178 16 16 16s16-7.18 16-16S328.8 432 320 432zM224 432c-8.822 0-16 7.18-16 16s7.178 16 16 16s16-7.18 16-16S232.8 432 224 432zM128 432c-8.822 0-16 7.18-16 16s7.178 16 16 16s16-7.18 16-16S136.8 432 128 432zM416 144c-8.822 0-16 7.18-16 16s7.178 16 16 16s16-7.18 16-16S424.8 144 416 144zM416 336c-8.822 0-16 7.18-16 16s7.178 16 16 16s16-7.18 16-16S424.8 336 416 336zM440 32H32C14.33 32 0 46.33 0 64v408C0 476.4 3.582 480 8 480s8-3.582 8-8V64c0-8.838 7.164-16 16-16h408C444.4 48 448 44.42 448 40S444.4 32 440 32zM416 240c-8.822 0-16 7.18-16 16s7.178 16 16 16s16-7.18 16-16S424.8 240 416 240z"/></svg>