<svg xmlns="http://www.w3.org/2000/svg" viewBox="0 0 448 512"><!--! Font Awesome Pro 6.0.0-alpha3 by @fontawesome - https://fontawesome.com License - https://fontawesome.com/license (Commercial License) --><path d="M224 176c8.822 0 16-7.18 16-16S232.8 144 224 144S208 151.2 208 160S215.2 176 224 176zM32 432c-8.822 0-16 7.18-16 16s7.178 16 16 16s16-7.18 16-16S40.82 432 32 432zM32 80c8.822 0 16-7.18 16-16S40.82 48 32 48S16 55.18 16 64S23.18 80 32 80zM32 176c8.822 0 16-7.18 16-16S40.82 144 32 144S16 151.2 16 160S23.18 176 32 176zM224 80c8.822 0 16-7.18 16-16S232.8 48 224 48S208 55.18 208 64S215.2 80 224 80zM416 80c8.822 0 16-7.18 16-16S424.8 48 416 48S400 55.18 400 64S407.2 80 416 80zM416 176c8.822 0 16-7.18 16-16S424.8 144 416 144S400 151.2 400 160S407.2 176 416 176zM320 80c8.822 0 16-7.18 16-16S328.8 48 320 48S304 55.18 304 64S311.2 80 320 80zM128 80c8.822 0 16-7.18 16-16S136.8 48 128 48S112 55.18 112 64S119.2 80 128 80zM320 432c-8.822 0-16 7.18-16 16s7.178 16 16 16s16-7.18 16-16S328.8 432 320 432zM416 432c-8.822 0-16 7.18-16 16s7.178 16 16 16s16-7.18 16-16S424.8 432 416 432zM32 336c-8.822 0-16 7.18-16 16s7.178 16 16 16s16-7.18 16-16S40.82 336 32 336zM416 336c-8.822 0-16 7.18-16 16s7.178 16 16 16s16-7.18 16-16S424.8 336 416 336zM128 432c-8.822 0-16 7.18-16 16s7.178 16 16 16s16-7.18 16-16S136.8 432 128 432zM224 336c-8.822 0-16 7.18-16 16s7.178 16 16 16s16-7.18 16-16S232.8 336 224 336zM224 432c-8.822 0-16 7.18-16 16s7.178 16 16 16s16-7.18 16-16S232.8 432 224 432zM440 248H8C3.594 248 0 251.6 0 256s3.594 8 8 8h432C444.4 264 448 260.4 448 256S444.4 248 440 248z"/></svg>