<svg xmlns="http://www.w3.org/2000/svg" viewBox="0 0 448 512"><!--! Font Awesome Pro 6.0.0-alpha3 by @fontawesome - https://fontawesome.com License - https://fontawesome.com/license (Commercial License) --><path d="M224 144C215.2 144 208 151.2 208 160S215.2 176 224 176s16-7.18 16-16S232.8 144 224 144zM224 432c-8.82 0-16 7.18-16 16s7.18 16 16 16s16-7.18 16-16S232.8 432 224 432zM224 240C215.2 240 208 247.2 208 256S215.2 272 224 272s16-7.18 16-16S232.8 240 224 240zM416 80c8.82 0 16-7.18 16-16S424.8 48 416 48S400 55.18 400 64S407.2 80 416 80zM128 432c-8.82 0-16 7.18-16 16s7.18 16 16 16s16-7.18 16-16S136.8 432 128 432zM128 240C119.2 240 112 247.2 112 256S119.2 272 128 272S144 264.8 144 256S136.8 240 128 240zM128 48C119.2 48 112 55.18 112 64S119.2 80 128 80S144 72.82 144 64S136.8 48 128 48zM224 336c-8.82 0-16 7.18-16 16s7.18 16 16 16s16-7.18 16-16S232.8 336 224 336zM416 432c-8.82 0-16 7.18-16 16s7.18 16 16 16s16-7.18 16-16S424.8 432 416 432zM416 336c-8.82 0-16 7.18-16 16s7.18 16 16 16s16-7.18 16-16S424.8 336 416 336zM416 240c-8.82 0-16 7.18-16 16s7.18 16 16 16s16-7.18 16-16S424.8 240 416 240zM224 48C215.2 48 208 55.18 208 64S215.2 80 224 80s16-7.18 16-16S232.8 48 224 48zM416 144c-8.82 0-16 7.18-16 16s7.18 16 16 16s16-7.18 16-16S424.8 144 416 144zM320 432c-8.82 0-16 7.18-16 16s7.18 16 16 16s16-7.18 16-16S328.8 432 320 432zM320 48c-8.82 0-16 7.18-16 16s7.18 16 16 16s16-7.18 16-16S328.8 48 320 48zM320 240c-8.82 0-16 7.18-16 16s7.18 16 16 16s16-7.18 16-16S328.8 240 320 240zM8 32C3.594 32 0 35.58 0 40v432C0 476.4 3.594 480 8 480s8-3.578 8-8V40C16 35.58 12.41 32 8 32z"/></svg>