<svg xmlns="http://www.w3.org/2000/svg" viewBox="0 0 448 512"><!--! Font Awesome Pro 6.0.0-alpha3 by @fontawesome - https://fontawesome.com License - https://fontawesome.com/license (Commercial License) --><path d="M416 32H32C14.33 32 0 46.33 0 64v384c0 17.67 14.33 32 32 32h384c17.67 0 32-14.33 32-32V64C448 46.33 433.7 32 416 32zM16 64c0-8.822 7.178-16 16-16h184v200H16V64zM32 464c-8.822 0-16-7.178-16-16V264h200v200H32zM432 448c0 8.822-7.178 16-16 16h-184V264h200V448zM232 248V48H416c8.822 0 16 7.178 16 16v184H232z"/></svg>