<svg xmlns="http://www.w3.org/2000/svg" viewBox="0 0 448 512"><!--! Font Awesome Pro 6.0.0-alpha3 by @fontawesome - https://fontawesome.com License - https://fontawesome.com/license (Commercial License) --><path d="M224 432c-8.82 0-16 7.18-16 16s7.18 16 16 16s16-7.18 16-16S232.8 432 224 432zM128 432c-8.82 0-16 7.18-16 16s7.18 16 16 16s16-7.18 16-16S136.8 432 128 432zM128 240C119.2 240 112 247.2 112 256S119.2 272 128 272S144 264.8 144 256S136.8 240 128 240zM128 48C119.2 48 112 55.18 112 64S119.2 80 128 80S144 72.82 144 64S136.8 48 128 48zM32 48C23.18 48 16 55.18 16 64S23.18 80 32 80S48 72.82 48 64S40.82 48 32 48zM32 432c-8.82 0-16 7.18-16 16s7.18 16 16 16s16-7.18 16-16S40.82 432 32 432zM32 144C23.18 144 16 151.2 16 160S23.18 176 32 176S48 168.8 48 160S40.82 144 32 144zM32 240C23.18 240 16 247.2 16 256S23.18 272 32 272S48 264.8 48 256S40.82 240 32 240zM32 336c-8.82 0-16 7.18-16 16s7.18 16 16 16s16-7.18 16-16S40.82 336 32 336zM320 432c-8.82 0-16 7.18-16 16s7.18 16 16 16s16-7.18 16-16S328.8 432 320 432zM320 240c-8.82 0-16 7.18-16 16s7.18 16 16 16s16-7.18 16-16S328.8 240 320 240zM224 336c-8.82 0-16 7.18-16 16s7.18 16 16 16s16-7.18 16-16S232.8 336 224 336zM320 48c-8.82 0-16 7.18-16 16s7.18 16 16 16s16-7.18 16-16S328.8 48 320 48zM224 240C215.2 240 208 247.2 208 256S215.2 272 224 272s16-7.18 16-16S232.8 240 224 240zM224 48C215.2 48 208 55.18 208 64S215.2 80 224 80s16-7.18 16-16S232.8 48 224 48zM224 144C215.2 144 208 151.2 208 160S215.2 176 224 176s16-7.18 16-16S232.8 144 224 144zM440 32c-4.406 0-8 3.578-8 8v432c0 4.422 3.594 8 8 8S448 476.4 448 472V40C448 35.58 444.4 32 440 32z"/></svg>