<svg xmlns="http://www.w3.org/2000/svg" viewBox="0 0 448 512"><!--! Font Awesome Pro 6.0.0-alpha3 by @fontawesome - https://fontawesome.com License - https://fontawesome.com/license (Commercial License) --><path d="M441.2 146.5l-48.4-96.8C387.4 38.85 376.3 32 364.2 32H83.78C71.66 32 60.58 38.85 55.16 49.69L6.756 146.5C2.313 155.4 0 165.2 0 175.1V448c0 17.67 14.33 32 32 32h384c17.67 0 32-14.33 32-32V175.1C448 165.2 445.7 155.4 441.2 146.5zM232 48h132.2c6.1 0 11.58 3.389 14.31 8.844l48.4 96.8C427.9 155.7 428.5 157.9 429.2 160H232V48zM21.07 153.6l48.4-96.8C72.2 51.39 77.68 48 83.78 48H216V160H18.77C19.48 157.9 20.06 155.7 21.07 153.6zM432 448c0 8.822-7.178 16-16 16H32c-8.822 0-16-7.178-16-16V176h416V448zM194.3 381.7C195.9 383.2 197.9 384 200 384s4.094-.7813 5.656-2.344l120-120c3.125-3.125 3.125-8.188 0-11.31s-8.188-3.125-11.31 0L200 364.7L141.7 306.3c-3.125-3.125-8.188-3.125-11.31 0s-3.125 8.188 0 11.31L194.3 381.7z"/></svg>