<svg xmlns="http://www.w3.org/2000/svg" viewBox="0 0 640 512"><!--! Font Awesome Pro 6.0.0-alpha3 by @fontawesome - https://fontawesome.com License - https://fontawesome.com/license (Commercial License) --><path d="M67.79 32C61.65 32 56.03 35.44 53.24 41.02L1.755 143.8c-4.58 9.152 .188 20.21 10.03 23.02l197.1 56.53C211.3 223.8 212.8 224 214.3 224C219.9 224 225.3 221.1 228.3 216.1L320 63.38L69.77 32.13C69.09 32.05 68.46 32 67.79 32zM214.2 207.1l-198.2-57l51.43-102.8C67.55 48.04 67.71 48 67.79 48l225.8 28.21L214.2 207.1zM638.3 143.8l-51.49-102.8C584 35.43 578.3 32 572.2 32c-.6738 0-1.369 .0454-2.051 .1313L320 63.38l91.74 152.7C414.8 221.1 420.1 224 425.7 224c1.492 0 3.066-.1926 4.556-.6184l197.9-56.51C638 164.1 642.9 152.9 638.3 143.8zM425.4 207.8l-79.02-131.6L572.2 48l51.57 103.5L425.4 207.8zM568 224c-4.406 0-8 3.578-8 8v154.8c0 10.58-7.156 19.75-17.41 22.31L328 462.7V168C328 163.6 324.4 160 320 160S312 163.6 312 168v294.7l-214.6-53.65C87.16 406.5 80 397.3 80 386.8V232C80 227.6 76.41 224 72 224S64 227.6 64 232v154.8c0 17.92 12.16 33.48 29.53 37.84l217 54.25C313.6 479.6 316.8 480 319.1 480s6.401-.3906 9.495-1.156l217-54.25C563.8 420.2 576 404.7 576 386.8V232C576 227.6 572.4 224 568 224z"/></svg>