<svg xmlns="http://www.w3.org/2000/svg" viewBox="0 0 640 512"><!--! Font Awesome Pro 6.0.0-alpha3 by @fontawesome - https://fontawesome.com License - https://fontawesome.com/license (Commercial License) --><path d="M567.1 352c-4.406 0-8 3.578-8 8v58.75c0 10.58-7.156 19.75-17.41 22.31l-214.6 53.65V296c0-4.422-3.594-8-8-8s-8 3.578-8 8v198.7l-214.6-53.65C87.16 438.5 79.1 429.3 79.1 418.8V360c0-4.422-3.594-8-8-8s-8 3.578-8 8v58.75c0 17.92 12.16 33.48 29.53 37.84l217 54.25C313.6 511.6 316.8 512 319.1 512s6.401-.3906 9.495-1.156l217-54.25c17.38-4.359 29.53-19.92 29.53-37.84V360C575.1 355.6 572.4 352 567.1 352zM638.3 271.8L586.8 169C584 163.4 578.3 160 572.2 160c-.6738 0-1.369 .0454-2.05 .1313L319.1 191.4l91.74 152.7C414.8 349.1 420.1 352 425.7 352c1.492 0 3.066-.1926 4.557-.6183l197.9-56.51C638 292.1 642.9 280.9 638.3 271.8zM425.4 335.8l-79.02-131.6l225.8-28.21l51.57 103.5L425.4 335.8zM67.78 160C61.65 160 56.03 163.4 53.24 169L1.755 271.8c-4.58 9.152 .188 20.21 10.03 23.02l197.1 56.53C211.3 351.8 212.8 352 214.3 352c5.637 0 10.95-2.871 13.96-7.884l91.73-152.7L69.77 160.1C69.09 160 68.46 160 67.78 160zM214.2 335.1l-198.2-57l51.43-102.8C67.55 176 67.7 176 67.78 176l225.8 28.21L214.2 335.1zM308.2 167.1c1.219 .6875 2.562 1.016 3.875 1.016c2.812 0 5.531-1.484 7-4.109c5.906-10.64 8.906-21.86 8.906-33.38c0-38.23-31.09-69.33-69.34-69.33c-38.22 0-69.31 31.09-69.31 69.33c0 5.578 .8125 11.2 2.438 17.22c1.156 4.25 5.594 6.734 9.812 5.609c4.281-1.172 6.781-5.562 5.625-9.828c-1.25-4.609-1.875-8.875-1.875-13c0-29.41 23.91-53.33 53.31-53.33s53.34 23.92 53.34 53.33c0 8.75-2.312 17.38-6.906 25.59C302.1 160.1 304.3 165 308.2 167.1zM128.7 138.2c.2187 4.391 3.938 8.141 8.406 7.562c4.406-.2187 7.812-3.984 7.594-8.406C144.6 136 144.5 134.8 144.3 133.5C144.2 132.5 143.1 131.6 143.1 130.7C143.1 67.44 195.4 16 258.7 16c62.59 0 112.9 49.2 114.5 112c.0938 3.844 2.906 7.078 6.719 7.688c3.781 .6875 7.469-1.516 8.812-5.156l39.88-109.6c.6562-1.844 2-3.312 3.781-4.156c1.781-.8594 3.844-.9219 5.594-.2656l53.25 19.42c1.844 .6719 3.312 2 4.125 3.75c.8438 1.766 .9375 3.781 .25 5.641l-34.25 94.17c-1.5 4.156 .6562 8.75 4.812 10.25c.875 .3281 1.812 .4844 2.719 .4844c3.281 0 6.344-2.016 7.531-5.266l34.25-94.2c2.094-5.891 1.812-12.23-.8125-17.86c-2.625-5.641-7.344-9.922-13.19-12.02l-53.22-19.41c-5.812-2.188-12.25-1.844-17.88 .8125c-5.656 2.656-9.938 7.359-12.03 13.2l-29.09 79.98C369.1 39.94 318.9 0 258.7 0C186.6 0 127.1 58.63 127.1 130.7c0 1.719 .2187 3.391 .4375 5.062C128.6 136.5 128.7 137.3 128.7 138.2z"/></svg>