<svg xmlns="http://www.w3.org/2000/svg" viewBox="0 0 448 512"><!--! Font Awesome Pro 6.0.0-alpha3 by @fontawesome - https://fontawesome.com License - https://fontawesome.com/license (Commercial License) --><path d="M441.2 146.5l-48.4-96.8C387.4 38.85 376.3 32 364.2 32H83.78C71.66 32 60.58 38.85 55.16 49.69L6.756 146.5C2.313 155.4 0 165.2 0 175.1V448c0 17.67 14.33 32 32 32h384c17.67 0 32-14.33 32-32V175.1C448 165.2 445.7 155.4 441.2 146.5zM232 48h132.2c6.1 0 11.58 3.389 14.31 8.844l48.4 96.8C427.9 155.7 428.5 157.9 429.2 160H232V48zM21.07 153.6l48.4-96.8C72.2 51.39 77.68 48 83.78 48H216V160H18.77C19.48 157.9 20.06 155.7 21.07 153.6zM432 448c0 8.822-7.178 16-16 16H32c-8.822 0-16-7.178-16-16V176h416V448zM211.4 402.9c3.969 3.844 9.031 5.766 14.09 5.766s10.16-1.938 14.09-5.797l72.66-71.41c11.72-11.64 17.97-27.69 17.16-44.03c-.8125-16.53-8.438-31.48-21.47-42.09c-23-18.75-58.53-16.45-80.72 5.297l-1.719 1.719L223.7 250.6C201.5 228.8 166.1 226.5 143 245.3C130.1 255.8 122.3 271.3 121.5 287.7c-.7813 16.31 5.531 32.27 17.25 43.78L211.4 402.9zM153.2 257.7c7.562-6.156 16.97-9.188 26.53-9.188c11.75 0 23.72 4.547 32.75 13.41l13.03 13.03l12.97-12.97c16.47-16.13 42.5-17.94 59.38-4.266c9.469 7.719 15 18.55 15.59 30.48c.593 11.81-3.938 23.44-12.41 31.86l-72.63 71.34c-1.656 1.625-4.219 1.562-5.812 .0313l-72.63-71.38c-8.469-8.328-13-19.86-12.47-31.64C138 276.4 143.6 265.5 153.2 257.7z"/></svg>