<svg xmlns="http://www.w3.org/2000/svg" viewBox="0 0 448 512"><!--! Font Awesome Pro 6.0.0-alpha3 by @fontawesome - https://fontawesome.com License - https://fontawesome.com/license (Commercial License) --><path d="M441.2 146.5l-48.4-96.8C387.4 38.85 376.3 32 364.2 32H83.78C71.66 32 60.58 38.85 55.16 49.69L6.756 146.5C2.313 155.4 0 165.2 0 175.1V448c0 17.67 14.33 32 32 32h384c17.67 0 32-14.33 32-32V175.1C448 165.2 445.7 155.4 441.2 146.5zM232 48h132.2c6.1 0 11.58 3.389 14.31 8.844l48.4 96.8C427.9 155.7 428.5 157.9 429.2 160H232V48zM21.07 153.6l48.4-96.8C72.2 51.39 77.68 48 83.78 48H216V160H18.77C19.48 157.9 20.06 155.7 21.07 153.6zM432 448c0 8.822-7.178 16-16 16H32c-8.822 0-16-7.178-16-16V176h416V448zM215 325.9l6.938 1.844c33.69 8.906 49.16 15.2 45.53 34.58c-3.609 19.23-30.53 24.2-55.63 20.58c-10.14-1.422-21.84-5.312-32.17-8.75L174.5 372.4c-4.234-1.328-8.719 .9062-10.09 5.125c-1.375 4.203 .9219 8.719 5.125 10.09l5.109 1.688c10.97 3.641 23.42 7.781 34.97 9.406C211.8 399 213.8 398.1 216 399.2V424c0 4.422 3.594 8 8.016 8S232 428.4 232 424v-24.48c27.8-1.322 47.29-13.49 51.19-34.3c6.781-36.09-28.67-45.45-57.17-52.98L219.2 310.4C186.5 301.5 177.5 293.9 180.5 277.7c3.594-19.23 30.56-24.19 55.58-20.56c6.578 .9531 14.34 2.906 24.45 6.141c4.203 1.312 8.703-1 10.06-5.188c1.344-4.203-.9844-8.703-5.188-10.06c-10.97-3.5-19.56-5.641-27.03-6.734C236.2 240.1 234.1 240.9 232 240.7V216c0-4.422-3.578-8-8-8S216 211.6 216 216v24.3c-27.9 1.295-47.28 13.61-51.19 34.46C158.1 310.4 193.7 320.1 215 325.9z"/></svg>