<svg xmlns="http://www.w3.org/2000/svg" viewBox="0 0 576 512"><!--! Font Awesome Pro 6.0.0-alpha3 by @fontawesome - https://fontawesome.com License - https://fontawesome.com/license (Commercial License) --><path d="M432 224C352.5 224 288 288.5 288 368s64.46 144 144 144C511.5 512 576 447.5 576 368S511.5 224 432 224zM432 496C361.4 496 304 438.6 304 368s57.42-128 128-128C502.6 240 560 297.4 560 368S502.6 496 432 496zM488.6 320.9l-77.31 77.31l-35.81-35.83c-3.094-3.109-8.156-3.141-11.31 0c-3.125 3.125-3.125 8.188 0 11.31l41.47 41.48c1.5 1.5 3.531 2.344 5.656 2.344s4.156-.8438 5.656-2.344l82.97-82.97c3.125-3.125 3.125-8.188 0-11.31S491.7 317.7 488.6 320.9zM280 464H32c-8.836 0-16-7.164-16-16V176h416v8C432 188.4 435.6 192 440 192S448 188.4 448 184V175.1c0-9.938-2.314-19.74-6.758-28.62l-48.4-96.79C387.4 38.85 376.3 32 364.2 32H83.78C71.66 32 60.58 38.85 55.16 49.69L6.756 146.5C2.313 155.4 0 165.2 0 175.1V448c0 17.67 14.33 32 32 32h248C284.4 480 288 476.4 288 472S284.4 464 280 464zM232 48h132.2c6.1 0 11.58 3.389 14.31 8.844l48.4 96.8C427.9 155.7 428.5 157.9 429.2 160H232V48zM21.07 153.6l48.4-96.8C72.2 51.39 77.68 48 83.78 48H216V160H18.77C19.48 157.9 20.06 155.7 21.07 153.6z"/></svg>