<svg xmlns="http://www.w3.org/2000/svg" viewBox="0 0 576 512"><!--! Font Awesome Pro 6.0.0-alpha3 by @fontawesome - https://fontawesome.com License - https://fontawesome.com/license (Commercial License) --><path d="M224 288H32c-17.67 0-32 14.33-32 32v160c0 17.67 14.33 32 32 32h192c17.67 0 32-14.33 32-32v-160C256 302.3 241.7 288 224 288zM96 304h64v95.36l-27-21.61c-2.938-2.344-7.062-2.344-10 0L96 399.4V304zM240 480c0 8.822-7.176 16-16 16H32c-8.824 0-16-7.178-16-16v-160c0-8.822 7.176-16 16-16h48V416c0 3.078 1.75 5.875 4.531 7.203c2.719 1.328 6.062 .9687 8.469-.9531L128 394.3l35 28C164.4 423.4 166.2 424 168 424c1.188 0 2.375-.2656 3.469-.7969C174.3 421.9 176 419.1 176 416V304H224c8.824 0 16 7.178 16 16V480zM544 288h-192c-17.67 0-32 14.33-32 32v160c0 17.67 14.33 32 32 32h192c17.67 0 32-14.33 32-32v-160C576 302.3 561.7 288 544 288zM416 304h64v95.36l-27-21.61c-2.938-2.344-7.062-2.344-10 0L416 399.4V304zM560 480c0 8.822-7.176 16-16 16h-192c-8.824 0-16-7.178-16-16v-160c0-8.822 7.176-16 16-16h48V416c0 3.078 1.75 5.875 4.531 7.203c2.719 1.328 6.062 .9687 8.469-.9531l35-28l35 28C484.4 423.4 486.2 424 488 424c1.188 0 2.375-.2656 3.469-.7969C494.3 421.9 496 419.1 496 416V304H544c8.824 0 16 7.178 16 16V480zM192 224h192c17.67 0 32-14.33 32-32V32c0-17.67-14.33-32-32-32H192C174.3 0 160 14.33 160 32v160C160 209.7 174.3 224 192 224zM256 16h64v95.36l-27-21.61c-2.938-2.344-7.062-2.344-10 0L256 111.4V16zM176 32c0-8.822 7.176-16 16-16h48V128c0 3.078 1.75 5.875 4.531 7.203C247.3 136.5 250.6 136.2 253 134.3L288 106.3l35 28C324.4 135.4 326.2 136 328 136c1.188 0 2.375-.2656 3.469-.7969C334.3 133.9 336 131.1 336 128V16H384c8.824 0 16 7.178 16 16v160c0 8.822-7.176 16-16 16H192C183.2 208 176 200.8 176 192V32z"/></svg>