<svg xmlns="http://www.w3.org/2000/svg" viewBox="0 0 512 512"><!--! Font Awesome Pro 6.0.0-alpha3 by @fontawesome - https://fontawesome.com License - https://fontawesome.com/license (Commercial License) --><path d="M311.9 16c26.12 0 48.33 21.07 47.94 48.81C362.5 64.37 365.2 64 367.9 64c26.52 0 48.02 21.49 48.02 48c0 12.58-4.948 23.93-12.87 32.49c2.213-.1936 4.346-.2866 6.405-.2866c45.68 0 54.49 45.77 54.49 55.8c0 16.51-7.28 31.19-18.65 41.44C474.3 247.6 496 273.2 496 304c0 31.97-23.52 58.23-54.16 63.01c3.799 7.555 6.14 15.96 6.14 24.99c0 30.93-25.08 56-56.03 56c-8.701 0-16.84-2.152-24.18-5.69C368.8 472.6 344.6 496 315.9 496c-28.73 0-52.03-23.28-52.03-52V64C263.9 37.49 285.4 16 311.9 16zM200.1 16c26.52 0 48.02 21.49 48.02 48v380c0 28.72-23.29 52-52.03 52c-28.69 0-52.88-23.45-51.86-53.69C136.9 445.8 128.8 448 120.1 448c-30.94 0-56.03-25.07-56.03-56c0-9.031 2.341-17.44 6.14-24.99C39.52 362.2 16 335.1 16 304c0-30.76 21.73-56.41 50.67-62.56C55.3 231.2 48.02 216.5 48.02 200c0-10.54 9.069-55.8 54.49-55.8c2.058 .0002 4.192 .093 6.401 .2864C100.1 135.9 96.04 124.6 96.04 112c0-26.51 21.5-48 48.02-48C146.8 64 149.5 64.37 152.2 64.81C151.8 37.05 173.1 16 200.1 16zM311.9 0C287.9 0 266.1 13.26 256 32.83C245 13.26 224.1 0 200.1 0c-17.03 0-33.66 6.953-45.61 19.08C146.4 27.28 140.8 37.31 138.1 48.28C105.6 51.31 80.01 78.73 80.01 112c0 6.394 .9945 12.69 2.86 18.7C63.47 135.1 51.62 148.6 44.68 159.6c-10 15.9-12.67 32.86-12.67 40.37c0 12.05 3.112 23.84 8.859 34.3C16.26 248.2 0 274.7 0 304c0 33.13 19.97 61.77 49.51 73.79C48.52 382.5 48.02 387.2 48.02 392c0 39.7 32.31 72 72.03 72c3.623 0 7.228-.2844 10.8-.8503c3.013 10.46 8.538 20.07 16.3 28.1C159.9 504.4 177.7 512 196.1 512C221.1 512 244.5 497.5 256 476.2C267.5 497.5 290 512 315.9 512c18.35 0 36.19-7.564 48.94-20.75c7.762-8.03 13.29-17.64 16.3-28.1C384.7 463.7 388.3 464 391.9 464c39.72 0 72.03-32.3 72.03-72c0-4.779-.498-9.526-1.488-14.21C492 365.8 512 337.1 512 304c0-29.31-16.26-55.8-40.88-69.7C476.9 223.8 479.1 212 479.1 200c0-19.43-13.25-58.88-50.87-69.25C430.1 124.7 431.1 118.4 431.1 112c0-33.27-25.56-60.69-58.06-63.72c-2.734-10.97-8.325-21-16.41-29.2C345.6 6.952 328.9 0 311.9 0z"/></svg>