<svg xmlns="http://www.w3.org/2000/svg" viewBox="0 0 512 512"><!--! Font Awesome Pro 6.0.0-alpha3 by @fontawesome - https://fontawesome.com License - https://fontawesome.com/license (Commercial License) --><path d="M352 320c-14.81 0-26.75 10.32-30.38 24H264v16h57.62C325.3 373.7 337.2 384 352 384c17.64 0 32-14.36 32-32S369.6 320 352 320zM352 368c-8.836 0-16-7.164-16-16c0-8.838 7.164-16 16-16s16 7.162 16 16C368 360.8 360.8 368 352 368zM512 304c0-29.31-16.26-55.8-40.88-69.7C476.9 223.8 479.1 212 479.1 200c0-19.43-13.25-58.88-50.87-69.25C430.1 124.7 431.1 118.4 431.1 112c0-33.27-25.56-60.69-58.06-63.72c-2.734-10.97-8.326-21-16.41-29.2C345.6 6.951 328.9 0 311.9 0C287.9 0 266.1 13.26 256 32.83C245 13.26 224.1 0 200.1 0c-17.03 0-33.66 6.953-45.61 19.08C146.4 27.28 140.8 37.31 138.1 48.28C105.6 51.31 80.01 78.73 80.01 112c0 6.395 .9941 12.69 2.859 18.7C63.47 135.1 51.62 148.6 44.69 159.6C34.69 175.5 32.02 192.5 32.02 200c0 12.05 3.111 23.84 8.859 34.3C16.26 248.2 0 274.7 0 304c0 33.13 19.97 61.77 49.51 73.79C48.52 382.5 48.03 387.2 48.03 392c0 39.7 32.31 72 72.03 72c3.623 0 7.229-.2852 10.8-.8516c3.014 10.46 8.539 20.07 16.3 28.1C159.9 504.4 177.7 512 196.1 512C221.1 512 244.5 497.5 256 476.2C267.5 497.5 290 512 315.9 512c18.35 0 36.19-7.564 48.94-20.75c7.762-8.031 13.29-17.63 16.3-28.1C384.7 463.7 388.3 464 391.9 464c39.72 0 72.03-32.3 72.03-72c0-4.779-.498-9.525-1.488-14.21C492 365.8 512 337.1 512 304zM248.1 136H206.4C202.7 122.3 190.8 112 176 112c-17.64 0-32 14.36-32 32s14.36 32 32 32c14.81 0 26.75-10.32 30.38-24h41.74v96H192C169.9 248 152 265.9 152 288v33.62C138.3 325.3 128 337.2 128 352c0 17.64 14.36 32 32 32s32-14.36 32-32c0-14.81-10.32-26.75-24-30.38V288c0-13.23 10.77-24 24-24h56.12v180c0 28.72-23.29 52-52.03 52c-28.69 0-52.88-23.45-51.86-53.69C136.9 445.8 128.8 448 120.1 448c-30.94 0-56.03-25.07-56.03-56c0-9.031 2.34-17.44 6.139-24.99C39.52 362.2 16 335.1 16 304c0-30.76 21.73-56.41 50.67-62.56C55.3 231.2 48.02 216.5 48.02 200c0-10.54 9.068-55.8 54.49-55.8c2.057 0 4.191 .0938 6.4 .2871C100.1 135.9 96.04 124.6 96.04 112c0-26.51 21.5-48 48.02-48c2.77 0 5.445 .3652 8.086 .8145C151.8 37.05 173.1 16 200.1 16c26.52 0 48.02 21.49 48.02 48V136zM192 144C192 152.8 184.8 160 176 160S160 152.8 160 144C160 135.2 167.2 128 176 128S192 135.2 192 144zM176 352c0 8.836-7.164 16-16 16S144 360.8 144 352c0-8.838 7.164-16 16-16S176 343.2 176 352zM441.8 367c3.799 7.555 6.141 15.96 6.141 24.99c0 30.93-25.09 56-56.03 56c-8.701 0-16.84-2.152-24.18-5.689C368.8 472.6 344.6 496 315.9 496c-28.73 0-52.03-23.28-52.03-52V264H304c22.06 0 40-17.94 40-40V174.4C357.7 170.7 368 158.8 368 144c0-17.64-14.36-32-32-32s-32 14.36-32 32c0 14.81 10.32 26.75 24 30.38V224c0 13.23-10.77 24-24 24h-40.12V64c0-26.51 21.5-48 48.03-48c26.12 0 48.33 21.06 47.94 48.81C362.5 64.37 365.2 64 367.9 64c26.52 0 48.03 21.49 48.03 48c0 12.58-4.949 23.93-12.87 32.49c2.213-.1934 4.346-.2871 6.406-.2871c45.68 0 54.49 45.77 54.49 55.8c0 16.51-7.281 31.19-18.65 41.44C474.3 247.6 496 273.2 496 304C496 335.1 472.5 362.2 441.8 367zM320 144C320 135.2 327.2 128 336 128S352 135.2 352 144C352 152.8 344.8 160 336 160S320 152.8 320 144z"/></svg>