<svg xmlns="http://www.w3.org/2000/svg" viewBox="0 0 640 512"><!--! Font Awesome Pro 6.0.0-alpha3 by @fontawesome - https://fontawesome.com License - https://fontawesome.com/license (Commercial License) --><path d="M320 320c4.406 0 8.016-3.594 8.016-8v-176c0-4.406-3.61-8-8.017-8S312 131.6 312 136v176C312 316.4 315.6 320 320 320zM320.1 352c-8.824 0-16 7.178-16 16S311.2 384 320 384s16.07-7.178 16.07-16S328.9 352 320.1 352zM320 32C196.3 32 96 132.3 96 256c0 123.7 100.3 224 224 224s224-100.3 224-224C544 132.3 443.7 32 320 32zM320 464c-114.7 0-208-93.31-208-208S205.3 48 320 48s208 93.31 208 208S434.7 464 320 464zM79 57.69C75.5 55 70.47 55.59 67.75 59.06C23.44 115.8 0 183.8 0 256s23.44 140.3 67.75 196.9C69.34 454.9 71.69 456 74.06 456c1.719 0 3.469-.5625 4.938-1.688c3.469-2.719 4.094-7.75 1.375-11.25C38.25 389.3 16 324.6 16 256s22.25-133.3 64.38-187.1C83.09 65.44 82.47 60.41 79 57.69zM572.3 59.06C569.5 55.59 564.5 55 561 57.69c-3.469 2.719-4.094 7.75-1.375 11.25C601.8 122.8 624 187.4 624 256s-22.25 133.3-64.38 187.1c-2.719 3.5-2.094 8.531 1.375 11.25C562.5 455.4 564.2 456 565.9 456c2.375 0 4.719-1.062 6.312-3.062C616.6 396.3 640 328.2 640 256S616.6 115.8 572.3 59.06z"/></svg>