<svg xmlns="http://www.w3.org/2000/svg" viewBox="0 0 576 512"><!--! Font Awesome Pro 6.0.0-alpha3 by @fontawesome - https://fontawesome.com License - https://fontawesome.com/license (Commercial License) --><path d="M472 448c-4.422 0-8 3.594-8 8c0 22.06-17.94 40-40 40h-352c-30.88 0-56-25.12-56-56v-288c0-22.06 17.94-40 40-40C60.42 112 64 108.4 64 104S60.42 96 56 96C25.13 96 0 121.1 0 152v288C0 479.7 32.3 512 72 512h352c30.88 0 56-25.12 56-56C480 451.6 476.4 448 472 448zM528 0h-384C117.5 0 96 21.49 96 48v320C96 394.5 117.5 416 144 416h384c26.51 0 48-21.49 48-48v-320C576 21.49 554.5 0 528 0zM112 48c0-17.64 14.36-32 32-32h40V96H112V48zM560 368c0 17.64-14.36 32-32 32h-384c-17.64 0-32-14.36-32-32v-256h448V368zM560 96H200V16H528c17.64 0 32 14.36 32 32V96z"/></svg>