<svg xmlns="http://www.w3.org/2000/svg" viewBox="0 0 512 512"><!--! Font Awesome Pro 6.0.0-alpha3 by @fontawesome - https://fontawesome.com License - https://fontawesome.com/license (Commercial License) --><path d="M184 128h-144C17.94 128 0 145.9 0 168v336C0 508.4 3.594 512 8 512s8-3.594 8-8V168c0-13.22 10.78-24 24-24h144c13.22 0 24 10.78 24 24v336C208 508.4 211.6 512 216 512S224 508.4 224 504V168C224 145.9 206.1 128 184 128zM304 88h-32c-13.22 0-24 10.78-24 24v32c0 13.22 10.78 24 24 24h32c13.22 0 24-10.78 24-24v-32C328 98.78 317.2 88 304 88zM312 144c0 4.406-3.594 8-8 8h-32c-4.406 0-8-3.594-8-8v-32c0-4.406 3.594-8 8-8h32c4.406 0 8 3.594 8 8V144zM472 0h-256C193.9 0 176 17.94 176 40v48C176 92.41 179.6 96 184 96S192 92.41 192 88v-48C192 26.78 202.8 16 216 16h256c13.22 0 24 10.78 24 24v464c0 4.406 3.594 8 8 8S512 508.4 512 504V40C512 17.94 494.1 0 472 0zM128 328H96c-13.22 0-24 10.78-24 24v32c0 13.22 10.78 24 24 24h32c13.22 0 24-10.78 24-24v-32C152 338.8 141.2 328 128 328zM136 384c0 4.5-3.5 8-8 8H96c-4.5 0-8-3.5-8-8v-32c0-4.5 3.5-8 8-8h32c4.5 0 8 3.5 8 8V384zM432 344h-32c-13.22 0-24 10.78-24 24v32c0 13.22 10.78 24 24 24h32c13.22 0 24-10.78 24-24v-32C456 354.8 445.2 344 432 344zM440 400c0 4.406-3.594 8-8 8h-32c-4.406 0-8-3.594-8-8v-32c0-4.406 3.594-8 8-8h32c4.406 0 8 3.594 8 8V400zM128 200H96C82.78 200 72 210.8 72 224v32c0 13.22 10.78 24 24 24h32c13.22 0 24-10.78 24-24V224C152 210.8 141.2 200 128 200zM136 256c0 4.5-3.5 8-8 8H96C91.5 264 88 260.5 88 256V224c0-4.5 3.5-8 8-8h32c4.5 0 8 3.5 8 8V256zM304 216h-32c-13.22 0-24 10.78-24 24v32c0 13.22 10.78 24 24 24h32c13.22 0 24-10.78 24-24v-32C328 226.8 317.2 216 304 216zM312 272c0 4.406-3.594 8-8 8h-32c-4.406 0-8-3.594-8-8v-32c0-4.406 3.594-8 8-8h32c4.406 0 8 3.594 8 8V272zM432 216h-32c-13.22 0-24 10.78-24 24v32c0 13.22 10.78 24 24 24h32c13.22 0 24-10.78 24-24v-32C456 226.8 445.2 216 432 216zM440 272c0 4.406-3.594 8-8 8h-32c-4.406 0-8-3.594-8-8v-32c0-4.406 3.594-8 8-8h32c4.406 0 8 3.594 8 8V272zM432 88h-32c-13.22 0-24 10.78-24 24v32c0 13.22 10.78 24 24 24h32c13.22 0 24-10.78 24-24v-32C456 98.78 445.2 88 432 88zM440 144c0 4.406-3.594 8-8 8h-32c-4.406 0-8-3.594-8-8v-32c0-4.406 3.594-8 8-8h32c4.406 0 8 3.594 8 8V144zM304 344h-32c-13.22 0-24 10.78-24 24v32c0 13.22 10.78 24 24 24h32c13.22 0 24-10.78 24-24v-32C328 354.8 317.2 344 304 344zM312 400c0 4.406-3.594 8-8 8h-32c-4.406 0-8-3.594-8-8v-32c0-4.406 3.594-8 8-8h32c4.406 0 8 3.594 8 8V400z"/></svg>