<svg xmlns="http://www.w3.org/2000/svg" viewBox="0 0 384 512"><!--! Font Awesome Pro 6.0.0-alpha3 by @fontawesome - https://fontawesome.com License - https://fontawesome.com/license (Commercial License) --><path d="M108 168h40c11.03 0 20-8.969 20-20v-40c0-11.03-8.969-20-20-20h-40c-11.03 0-20 8.969-20 20v40C88 159 96.97 168 108 168zM104 108c0-2.219 1.781-4 4-4h40c2.219 0 4 1.781 4 4v40c0 2.219-1.781 4-4 4h-40c-2.219 0-4-1.781-4-4V108zM168 276v-40c0-11.03-8.969-20-20-20h-40c-11.03 0-20 8.969-20 20v40c0 11.03 8.969 20 20 20h40C159 296 168 287 168 276zM104 276v-40c0-2.219 1.781-4 4-4h40c2.219 0 4 1.781 4 4v40c0 2.219-1.781 4-4 4h-40C105.8 280 104 278.2 104 276zM192 384c-30.88 0-56 25.12-56 55.99v64c0 4.406 3.578 8.007 8 8.007S152 508.4 152 504v-64c0-22.06 17.94-40 40-40s40 17.94 40 40v64c0 4.406 3.578 8.007 8 8.007s8-3.601 8-8.007v-64C248 409.1 222.9 384 192 384zM276 216h-40c-11.03 0-20 8.969-20 20v40c0 11.03 8.969 20 20 20h40c11.03 0 20-8.969 20-20v-40C296 224.1 287 216 276 216zM280 276c0 2.219-1.781 4-4 4h-40c-2.219 0-4-1.781-4-4v-40c0-2.219 1.781-4 4-4h40c2.219 0 4 1.781 4 4V276zM344 0h-304C17.94 0 0 17.94 0 40v464C0 508.4 3.594 512 8 512s8-3.594 8-8V40c0-13.22 10.78-24 24-24h304c13.22 0 24 10.78 24 24v464c0 4.406 3.594 8 8 8S384 508.4 384 504V40C384 17.94 366.1 0 344 0zM276 88h-40c-11.03 0-20 8.969-20 20v40c0 11.03 8.969 20 20 20h40c11.03 0 20-8.969 20-20v-40C296 96.97 287 88 276 88zM280 148c0 2.219-1.781 4-4 4h-40c-2.219 0-4-1.781-4-4v-40c0-2.219 1.781-4 4-4h40c2.219 0 4 1.781 4 4V148z"/></svg>