<svg xmlns="http://www.w3.org/2000/svg" viewBox="0 0 512 512"><!--! Font Awesome Pro 6.0.0-alpha3 by @fontawesome - https://fontawesome.com License - https://fontawesome.com/license (Commercial License) --><path d="M261.7 251c-2.062-2.068-5-2.869-7.844-2.068l-224 62.81C26.34 312.7 23.94 315.9 24 319.6s2.531 6.783 6.062 7.678l114.3 28.64l-142 142.4c-3.125 3.133-3.125 8.209 0 11.34C3.906 511.2 5.938 512 8 512s4.094-.7832 5.656-2.352l142-142.4l28.58 114.6c.875 3.525 4 6.018 7.625 6.08c3.562 0 6.812-2.365 7.812-5.812l64-223.3C264.5 256.1 263.7 253.1 261.7 251zM192.5 448.1l-24.78-99.38c-.0273-.1074-1.023-4.645-5.812-5.844L63.25 319l181.1-50.78L192.5 448.1zM256 0C114.8 0 0 114.8 0 256c0 4.406 3.594 8 8 8S16 260.4 16 256c0-132.3 107.7-240 240-240s240 107.7 240 240s-107.7 240-240 240c-4.406 0-8 3.594-8 8S251.6 512 256 512c141.2 0 256-114.8 256-256S397.2 0 256 0zM248 416c0 4.406 3.594 8 8 8c92.63 0 168-75.38 168-168S348.6 88 256 88S88 163.4 88 256c0 4.406 3.594 8 8 8S104 260.4 104 256c0-83.81 68.19-152 152-152S408 172.2 408 256s-68.19 152-152 152C251.6 408 248 411.6 248 416zM284 304.5c-3.844 2.219-5.125 7.125-2.938 10.94c1.5 2.562 4.188 4 6.938 4c1.375 0 2.75-.3438 4-1.062C314.2 305.5 328 281.6 328 256c0-39.69-32.31-72-72-72c-25.62 0-49.53 13.78-62.38 36C191.4 223.8 192.7 228.7 196.6 230.9C200.3 233.1 205.3 231.8 207.5 228C217.5 210.7 236.1 200 256 200c30.88 0 56 25.12 56 56C312 275.9 301.3 294.5 284 304.5z"/></svg>