<svg xmlns="http://www.w3.org/2000/svg" viewBox="0 0 512 512"><!--! Font Awesome Pro 6.0.0-alpha3 by @fontawesome - https://fontawesome.com License - https://fontawesome.com/license (Commercial License) --><path d="M432 0c-7.125 0-14.19 2.375-19.97 7.031L327 75.06C284.3 109.2 230.7 128 176 128H64C28.66 128 0 156.7 0 192v96c0 35.34 28.66 64 64 64h2.53c-10.77 77.8 34.54 143.3 36.81 146.5C109.4 507 118.5 512 128 512h64c12.94 0 24.62-9.078 29.56-23.04c4.969-13.96 2.219-30-6.938-40.69c-.4375-.5061-39.79-49.1-28.75-95.43c51.19 2.133 101 20.04 141.1 52.09L412 472.1C416.8 476.8 425.8 480 432 480c24.91 0 32-22.78 32-32V313.1C492.2 300.7 512 272.8 512 240c0-32.77-19.8-60.74-48-73.11V32C464 23.25 457 0 432 0zM64 336c-26.47 0-48-21.53-48-48V192c0-26.47 21.53-48 48-48h112c58.25 0 115.4-20.04 160.1-56.45l85.07-68.06C424.9 17.24 428.4 16 432 16C447.1 16 448 31.84 448 32v416c0 .1599-.6875 16-16 16c-2.562 0-7.988-1.912-10-3.525l-85.04-68.04C291.4 356 234.3 336 176 336H64zM464 294.9V185.1c19.04 11.05 32 31.38 32 54.94S483 283.9 464 294.9zM128 496c-4.309 0-8.543-2.479-11.61-6.781C114.3 486.2 71.48 424.4 82.63 352h86.41c-10.91 53.83 32.95 106.1 33.44 106.7c5.441 6.35 7.055 16.36 4 24.94C203.8 491.1 198.1 496 192 496H128zM248 160C243.6 160 240 163.6 240 168v144C240 316.4 243.6 320 248 320S256 316.4 256 312v-144C256 163.6 252.4 160 248 160z"/></svg>