<svg xmlns="http://www.w3.org/2000/svg" viewBox="0 0 512 512"><!--! Font Awesome Pro 6.0.0-alpha3 by @fontawesome - https://fontawesome.com License - https://fontawesome.com/license (Commercial License) --><path d="M256 0C114.8 0 0 114.8 0 256s114.8 256 256 256s256-114.8 256-256S397.2 0 256 0zM256 496c-132.3 0-240-107.7-240-240S123.7 16 256 16s240 107.7 240 240S388.3 496 256 496zM256 88C163.4 88 88 163.4 88 256s75.38 168 168 168s168-75.38 168-168S348.6 88 256 88zM256 408c-83.81 0-152-68.19-152-152S172.2 104 256 104S408 172.2 408 256S339.8 408 256 408zM256 184C216.3 184 184 216.3 184 256s32.31 72 72 72S328 295.7 328 256S295.7 184 256 184zM256 312C225.1 312 200 286.9 200 256S225.1 200 256 200S312 225.1 312 256S286.9 312 256 312z"/></svg>