<svg xmlns="http://www.w3.org/2000/svg" viewBox="0 0 512 512"><!--! Font Awesome Pro 6.0.0-alpha3 by @fontawesome - https://fontawesome.com License - https://fontawesome.com/license (Commercial License) --><path d="M320.1 81.44l15.25 83.88L250.3 250.3c-3.125 3.125-3.125 8.188 0 11.31C251.9 263.2 253.9 263.1 256 263.1s4.094-.7813 5.656-2.344l85.03-85.03l83.88 15.25c.4687 .0781 .9687 .1274 1.438 .1274c2.094 0 4.156-.8305 5.656-2.346l72-72c2-1.984 2.781-4.875 2.094-7.609s-2.75-4.906-5.438-5.703l-75.88-22.77l-22.78-75.88c-.8125-2.703-2.969-4.766-5.688-5.453c-2.75-.7031-5.625 .1094-7.625 2.094l-72 72C320.5 76.2 319.7 78.84 320.1 81.44zM488.9 115.8l-59.56 59.56l-68.86-12.51l65.83-65.83L488.9 115.8zM396.2 23.12l18.78 62.59l-65.83 65.83l-12.51-68.86L396.2 23.12zM503.4 189.9c-1.125-4.25-5.562-6.781-9.781-5.656c-4.281 1.125-6.812 5.5-5.656 9.781C493.3 214.2 496 235 496 256c0 132.3-107.7 240-240 240S16 388.3 16 256S123.7 16 256 16c21 0 41.84 2.719 61.94 8.062c4.25 1.188 8.688-1.375 9.781-5.656c1.156-4.281-1.375-8.656-5.656-9.781C300.6 2.906 278.4 0 256 0C114.8 0 0 114.8 0 256s114.8 256 256 256s256-114.8 256-256C512 233.6 509.1 211.4 503.4 189.9zM295.8 100.8c.875-4.344-1.938-8.562-6.25-9.438C278.6 89.13 267.3 88 256 88C163.4 88 88 163.4 88 256s75.38 168 168 168s168-75.38 168-168c0-11.31-1.125-22.62-3.344-33.59c-.9062-4.312-5.219-7.062-9.438-6.25c-4.312 .875-7.125 5.094-6.25 9.438C406.1 235.5 408 245.8 408 256c0 83.81-68.19 152-152 152S104 339.8 104 256S172.2 104 256 104c10.25 0 20.5 1.031 30.41 3.031C290.8 107.8 294.1 105.1 295.8 100.8zM256 200c4.406 0 8-3.594 8-8S260.4 184 256 184C216.3 184 184 216.3 184 256s32.31 72 72 72S328 295.7 328 256c0-4.406-3.594-8-8-8S312 251.6 312 256c0 30.88-25.12 56-56 56S200 286.9 200 256S225.1 200 256 200z"/></svg>