<svg xmlns="http://www.w3.org/2000/svg" viewBox="0 0 640 512"><!--! Font Awesome Pro 6.0.0-alpha3 by @fontawesome - https://fontawesome.com License - https://fontawesome.com/license (Commercial License) --><path d="M263 62.99c1.938-3.625 3.734-4.156 4.359-4.344l34.27-10.25c2.734-.8437 5.531-.2187 7.656 1.719c2.078 1.844 3.016 4.531 2.531 7.187L289.5 178.5C288.2 185.5 295.1 190.5 301.9 186.6c.0664-.0449-.0664 .0449 0 0C303.7 185.4 305 183.4 305.4 181.3l22.18-121.1c1.5-8.25-1.391-16.5-7.625-21.97C313.8 32.52 305.2 30.61 297.1 33.08L262.9 43.3C257 45.05 252.3 49.11 248.9 55.49C246.8 59.36 248.3 64.21 252.2 66.3C256.1 68.33 260.1 66.92 263 62.99zM93.25 239.3C94 243.1 97.35 245.8 101.1 245.8c.5156 0 1.031-.0625 1.547-.1562c4.344-.8438 7.172-5.031 6.328-9.375L72.1 47.14C71.53 44.14 72.74 41.08 75.19 39.24l28.56-21.66c2.078-1.625 5.016-2.031 7.641-.1C114 17.58 115.9 19.8 116.4 22.58l3.75 19.1c.8125 4.375 5.062 7.125 9.328 6.406c4.344-.8125 7.203-4.1 6.391-9.344L132.1 19.67C130.6 11.39 124.1 4.643 117.1 1.674c-7.781-3.094-16.67-1.812-23.11 3.187L65.58 26.46c-7.266 5.406-10.89 14.69-9.203 23.69L93.25 239.3zM238.7 501.3c-1.215-3.117-4.136-5.339-7.481-5.339H85.74c-7.514 0-14.02-5.219-15.65-12.55L15.98 239.1l34.02 .125C61.48 286.5 120.8 319.1 192 319.1c11.67 0 22.87-1.137 33.7-2.916c3.678-.6055 6.378-3.9 6.479-7.627c.002-.0762-.002 .0762 0 0C232.3 304.6 228 300.6 223.2 301.4C213.2 303 202.8 303.1 192 303.1c-64.63 0-118.1-29.1-126.8-69c-1.5-6.75-8.25-10.1-15.25-10.1L15.1 223.1c-4.875 0-9.522 2.281-12.52 6.031c-3.002 3.75-4.104 8.716-3.104 13.47l54.13 243.5C57.75 501.6 70.76 512 85.73 512h145.6C236.8 512 240.7 506.4 238.7 501.3C238.7 501.3 238.7 501.4 238.7 501.3zM16.15 193.6c.75 3.812 4.094 6.437 7.828 6.437c.5313 0 1.047-.0625 1.578-.1562C29.88 199 32.7 194.8 31.84 190.5l-15.58-78.4c-1-5.437 .9062-10.97 5.062-14.72c3.703-3.312 8.938-4.469 14.11-3.25C39.73 95.14 44.05 92.46 45.05 88.14c1.016-4.312-1.641-8.625-5.938-9.625C28.68 75.99 18.34 78.55 10.62 85.42C2.289 92.99-1.492 103.1 .5391 115L16.15 193.6zM159.1 276.8c4.422 0 8-3.594 8-7.1V23.99c0-2.781 1.438-5.375 3.844-6.844C174.1 15.74 177.1 15.61 179.5 16.89l32.13 16.06c2.625 1.25 4.328 3.1 4.328 7.031v228.8c0 4.406 3.578 7.1 8 7.1s8-3.594 8-7.1V39.99c0-9.156-5.266-17.56-13.3-21.41L186.8 2.612C179.4-1.169 170.4-.8257 163.5 3.518C156.4 7.799 151.1 15.64 151.1 23.99v244.8C151.1 273.2 155.6 276.8 159.1 276.8zM349.6 96.86c3.609-.5625 8.844-.5 13.06 3.344c4.141 3.656 6.031 9.062 5.078 14.34l-6.469 31.42c-1.203 5.852 4.242 10.85 9.969 9.144c2.805-.8301 5.127-3.141 5.717-6.004l6.486-31.5c2-11.06-1.812-22.03-10.09-29.31c-6.859-6.312-16.25-8.812-26.31-7.25c-4.359 .7187-7.328 4.844-6.609 9.187C341.2 94.61 345.4 97.42 349.6 96.86zM364 287.1c6.656 0 12-5.344 12-11.1s-5.344-11.1-12-11.1S352 269.3 352 275.1S357.3 287.1 364 287.1zM616 342.7V303.1c0-21.87-9.406-42.84-27.22-60.61c-30.81-30.77-87.22-51.39-140.4-51.39c-.2187-.0313-.4687-.0156-.7187 0c-53.22 0-109.6 20.62-140.4 51.39C289.4 261.2 280 282.1 280 303.1v38.66C265.7 350.1 256 366.3 256 383.1s9.711 33.02 24 41.34v42.66c0 24.27 19.75 44 44 44H572c24.25 0 44-19.74 44-44v-42.66c14.29-8.316 24-23.62 24-41.34C640 366.3 630.3 350.1 616 342.7zM296 303.1c0-17.78 7.562-34.37 22.53-49.28c28-27.97 79.86-46.71 129.2-46.71c.2187 .0313 .4844 .0156 .6406 0c49.28 0 101.1 18.74 129.1 46.71C592.4 269.6 600 286.2 600 303.1v32.81c-2.617-.4414-5.258-.8066-8-.8066h-288c-2.742 0-5.383 .3652-8 .8066V303.1zM600 467.1c0 15.44-12.56 27.1-28 27.1h-248c-15.44 0-28-12.56-28-27.1v-36.81c2.617 .4414 5.258 .8066 8 .8066h288c2.742 0 5.383-.3652 8-.8066V467.1zM592 415.1h-288c-17.64 0-32-14.36-32-31.1c0-17.64 14.36-31.1 32-31.1h288c17.64 0 32 14.36 32 31.1C624 401.6 609.6 415.1 592 415.1zM448 267.1c6.656 0 12-5.344 12-11.1c0-6.656-5.344-11.1-12-11.1s-12 5.344-12 11.1C436 262.7 441.3 267.1 448 267.1zM532 287.1c6.656 0 12-5.344 12-11.1s-5.344-11.1-12-11.1S520 269.3 520 275.1S525.3 287.1 532 287.1z"/></svg>