<svg xmlns="http://www.w3.org/2000/svg" viewBox="0 0 640 512"><!--! Font Awesome Pro 6.0.0-alpha3 by @fontawesome - https://fontawesome.com License - https://fontawesome.com/license (Commercial License) --><path d="M248 496H108.7c-12.25 0-22.53-9.172-23.88-21.36L48.04 144H344C348.4 144 352 140.4 352 136S348.4 128 344 128H186.2l23.45-93.83C212.4 23.47 221.1 16 233 16H280C284.4 16 288 12.42 288 8S284.4 0 280 0H233C214.6 0 198.7 12.45 194.2 30.3L169.8 128H8C3.594 128 0 131.6 0 136S3.594 144 8 144h24.32C32.31 144.3 32.02 144.6 32.06 144.9l36.84 331.5C71.13 496.7 88.22 512 108.7 512H248C252.4 512 256 508.4 256 504S252.4 496 248 496zM448 268c6.656 0 12-5.344 12-12S454.7 244 448 244S436 249.3 436 256S441.3 268 448 268zM364 288c6.656 0 12-5.344 12-12S370.7 264 364 264S352 269.3 352 276S357.3 288 364 288zM532 288C538.7 288 544 282.7 544 276S538.7 264 532 264S520 269.3 520 276S525.3 288 532 288zM616 342.7V304c0-21.88-9.406-42.84-27.22-60.61C557.1 212.6 501.6 192 448.4 192c-.2187-.0313-.4687-.0156-.7187 0c-53.22 0-109.6 20.62-140.4 51.39C289.4 261.2 280 282.1 280 304v38.66C265.7 350.1 256 366.3 256 384s9.711 33.03 24 41.34V468C280 492.3 299.8 512 324 512h248c24.25 0 44-19.73 44-44v-42.66c14.29-8.316 24-23.62 24-41.34S630.3 350.1 616 342.7zM296 304c0-17.78 7.562-34.38 22.53-49.28C346.5 226.8 398.4 208 447.7 208c.2187 .0313 .5 .0156 .6562 0c49.28 0 101.1 18.75 129.1 46.72C592.4 269.6 600 286.2 600 304v32.81C597.4 336.4 594.7 336 592 336h-288c-2.742 0-5.383 .3652-8 .8066V304zM600 468c0 15.44-12.56 28-28 28h-248c-15.44 0-28-12.56-28-28v-36.81C298.6 431.6 301.3 432 304 432h288c2.742 0 5.383-.3652 8-.8066V468zM592 416h-288c-17.64 0-32-14.36-32-32s14.36-32 32-32h288c17.64 0 32 14.36 32 32S609.6 416 592 416z"/></svg>