<svg xmlns="http://www.w3.org/2000/svg" viewBox="0 0 640 512"><!--! Font Awesome Pro 6.0.0-alpha3 by @fontawesome - https://fontawesome.com License - https://fontawesome.com/license (Commercial License) --><path d="M448 268c6.656 0 12-5.344 12-12S454.7 244 448 244S436 249.3 436 256S441.3 268 448 268zM616 342.7V304c0-21.88-9.406-42.84-27.22-60.61C557.1 212.6 501.6 192 448.4 192c-.2187-.0313-.4687-.0156-.7187 0c-53.22 0-109.6 20.62-140.4 51.39C289.4 261.2 280 282.1 280 304v38.66C265.7 350.1 256 366.3 256 383.1s9.711 33.03 24 41.34V468C280 492.3 299.8 512 324 512h248c24.25 0 44-19.73 44-44v-42.66C630.3 417 640 401.7 640 383.1S630.3 350.1 616 342.7zM296 304c0-17.78 7.562-34.38 22.53-49.28C346.5 226.8 398.4 208 447.7 208c.2187 .0313 .5 .0156 .6562 0c49.28 0 101.1 18.75 129.1 46.72C592.4 269.6 600 286.2 600 304v32.81C597.4 336.4 594.7 336 592 336h-288c-2.742 0-5.383 .3652-8 .8066V304zM600 468c0 15.44-12.56 28-28 28h-248c-15.44 0-28-12.56-28-28v-36.81C298.6 431.6 301.3 432 304 432h288c2.742 0 5.383-.3652 8-.8066V468zM592 416h-288c-17.64 0-32-14.36-32-32s14.36-32 32-32h288c17.64 0 32 14.36 32 32S609.6 416 592 416zM532 288C538.7 288 544 282.7 544 276S538.7 264 532 264S520 269.3 520 276S525.3 288 532 288zM364 288c6.656 0 12-5.344 12-12S370.7 264 364 264S352 269.3 352 276S357.3 288 364 288zM233 496H56.03c-6.322 0-11.61-4.969-12.03-11.39L24.1 206H265C268.9 206 272 202.9 272 199C272 195.1 268.9 192 265 192H23.1L16.02 92.85C15.83 89.49 17 86.2 19.23 83.83C21.56 81.36 24.69 80 28.04 80h263.9c3.348 0 6.475 1.359 8.797 3.824c2.236 2.379 3.41 5.668 3.236 8.785L298.7 167.4C298.3 172 302.1 175.9 306.8 175.8c.0801 0-.0801 .002 0 0c4.09-.0586 7.569-3.24 7.86-7.32l5.34-74.77c.4375-7.766-2.295-15.31-7.545-20.89C307.1 67.17 299.7 64 291.1 64H28.04C20.27 64 12.95 67.17 7.59 72.86c-5.25 5.578-7.982 13.12-7.545 20.89l27.99 392C29.02 500.5 41.27 512 56.03 512H233C236.9 512 240 508.9 240 505v-2C240 499.1 236.9 496 233 496z"/></svg>