<svg xmlns="http://www.w3.org/2000/svg" viewBox="0 0 512 512"><!--! Font Awesome Pro 6.0.0-alpha3 by @fontawesome - https://fontawesome.com License - https://fontawesome.com/license (Commercial License) --><path d="M384 192c8.875 0 16-7.125 16-16S392.9 160 384 160s-16 7.125-16 16S375.1 192 384 192zM256 160c8.875 0 16-7.125 16-16S264.9 128 256 128S240 135.1 240 144S247.1 160 256 160zM128 192c8.875 0 16-7.125 16-16S136.9 160 128 160S112 167.1 112 176S119.1 192 128 192zM496 304c0-23.1-14.07-42.96-34.07-51.51c3.768-3.439 7.26-7.34 10.04-12.18c10.69-18.55 10.66-42.52-.0938-61.05C431.3 109.4 346.6 64.13 256.1 64c-90.5 .125-175.3 45.36-215.1 115.3c-10.75 18.5-10.75 42.45-.0625 61.02c2.793 4.848 6.291 8.756 10.06 12.2C30.08 261 16 280.9 16 304c0 20.35 11.03 38.03 27.31 47.83C36.56 357.8 32 366.5 32 376.6C32 415.1 61.44 448 97.59 448h316.8C450.6 448 480 415.1 480 376.6c0-10.12-4.561-18.82-11.31-24.81C484.1 342 496 324.3 496 304zM53.91 187.3C91.25 123.2 172.4 80.11 256 80c83.63 .1094 164.8 43.23 202.1 107.3c7.906 13.67 7.937 31.34 .0625 45.03C452.4 242.3 443.4 248 433.6 248H78.41c-9.812 0-18.75-5.719-24.5-15.72C45.1 218.6 45.1 200.9 53.91 187.3zM386.4 264L320 302.7L253.6 264H386.4zM414.4 432H97.59C70.25 432 48 407.2 48 376.6C48 367.5 54.47 360 62.41 360h387.2C457.5 360 464 367.5 464 376.6C464 407.2 441.8 432 414.4 432zM440 344H72C49.94 344 32 326.1 32 304s17.94-40 40-40h149.8l94.13 54.91C317.2 319.6 318.6 320 320 320s2.781-.3594 4.031-1.094L418.2 264H440C462.1 264 480 281.9 480 304S462.1 344 440 344z"/></svg>