<svg xmlns="http://www.w3.org/2000/svg" viewBox="0 0 448 512"><!--! Font Awesome Pro 6.0.0-alpha3 by @fontawesome - https://fontawesome.com License - https://fontawesome.com/license (Commercial License) --><path d="M352 392c22.07 0 40-17.91 40-40S374.1 312 352 312s-40 17.91-40 40S329.9 392 352 392zM352 328c13.23 0 24 10.77 24 24c0 13.23-10.77 24-24 24s-24-10.77-24-24C328 338.8 338.8 328 352 328zM224 0C99.19 0 0 35.2 0 80V416c0 17.67 14.33 32 32 32h16v56C48 508.4 51.58 512 55.1 512S64 508.4 64 504V448h320v56c0 4.418 3.582 8 8 8s8-3.582 8-8V448h22.41C438.4 448 448 435.2 448 422.4V80C448 35.2 348.8 0 224 0zM432 422.4C432 425.7 429.1 432 422.4 432H32c-8.824 0-16-7.178-16-16V272h416V422.4zM432 256h-416V112h416V256zM432 96h-416V80c0-26.72 79.13-64 208-64s208 37.28 208 64V96zM96 392c22.07 0 40-17.91 40-40S118.1 312 96 312S56 329.9 56 352S73.93 392 96 392zM96 328c13.23 0 24 10.77 24 24c0 13.23-10.77 24-24 24S72 365.2 72 352C72 338.8 82.77 328 96 328z"/></svg>