<svg xmlns="http://www.w3.org/2000/svg" viewBox="0 0 576 512"><!--! Font Awesome Pro 6.0.0-alpha3 by @fontawesome - https://fontawesome.com License - https://fontawesome.com/license (Commercial License) --><path d="M360 48h-144C211.6 48 208 51.58 208 56S211.6 64 216 64h144c4.422 0 8-3.578 8-8S364.4 48 360 48zM72 248C72 243.6 68.41 240 64 240H56C51.59 240 48 236.4 48 232v-112c0-4.406 3.594-8 8-8H64c4.406 0 8-3.578 8-8S68.41 96 64 96H56C42.78 96 32 106.8 32 120v112C32 245.2 42.78 256 56 256H64C68.41 256 72 252.4 72 248zM520 96H512c-4.406 0-8 3.578-8 8S507.6 112 512 112h8c4.406 0 8 3.594 8 8v112c0 4.406-3.594 8-8 8H512c-4.406 0-8 3.578-8 8S507.6 256 512 256h8C533.2 256 544 245.2 544 232v-112C544 106.8 533.2 96 520 96zM160 312c-22.07 0-40 17.91-40 40S137.9 392 160 392S200 374.1 200 352S182.1 312 160 312zM160 376c-13.23 0-24-10.77-24-24c0-13.23 10.77-24 24-24S184 338.8 184 352C184 365.2 173.2 376 160 376zM480 258.9V73.85C480 32.54 394.1 0 288 0C181 0 96 32.54 96 73.85v185.1C77.4 265.5 64 283.1 64 304v96C64 426.5 85.49 448 112 448v56C112 508.4 115.6 512 120 512S128 508.4 128 504V448h320v56c0 4.418 3.582 8 8 8s8-3.582 8-8V448c26.51 0 48-21.49 48-48v-96C512 283.1 498.6 265.5 480 258.9zM112 73.85C112 49.69 178.1 16 288 16c109 0 176 33.69 176 57.85V96h-352V73.85zM464 112V256h-168V112H464zM112 112h168V256H112V112zM496 400c0 17.64-14.36 32-32 32h-352c-17.64 0-32-14.36-32-32v-96c0-17.64 14.36-32 32-32h352c17.64 0 32 14.36 32 32V400zM416 312c-22.07 0-40 17.91-40 40s17.93 40 40 40s40-17.91 40-40S438.1 312 416 312zM416 376c-13.23 0-24-10.77-24-24c0-13.23 10.77-24 24-24s24 10.77 24 24C440 365.2 429.2 376 416 376z"/></svg>