<svg xmlns="http://www.w3.org/2000/svg" viewBox="0 0 576 512"><!--! Font Awesome Pro 6.0.0-alpha3 by @fontawesome - https://fontawesome.com License - https://fontawesome.com/license (Commercial License) --><path d="M416 392c22.07 0 40-17.91 40-40S438.1 312 416 312s-40 17.91-40 40S393.9 392 416 392zM416 328c13.23 0 24 10.77 24 24c0 13.23-10.77 24-24 24s-24-10.77-24-24C392 338.8 402.8 328 416 328zM24 128H32c4.406 0 8-3.578 8-8S36.41 112 32 112H24C10.78 112 0 122.8 0 136v112C0 261.2 10.78 272 24 272H32c4.406 0 8-3.578 8-8S36.41 256 32 256H24C19.59 256 16 252.4 16 248v-112C16 131.6 19.59 128 24 128zM552 112H544c-4.406 0-8 3.578-8 8S539.6 128 544 128h8c4.406 0 8 3.594 8 8v112C560 252.4 556.4 256 552 256H544c-4.406 0-8 3.578-8 8S539.6 272 544 272h8C565.2 272 576 261.2 576 248v-112C576 122.8 565.2 112 552 112zM288 0C163.2 0 64 35.2 64 80V416c0 17.67 14.34 32 32 32h16v56C112 508.4 115.6 512 120 512S128 508.4 128 504V448h320v56c0 4.418 3.582 8 8 8s8-3.582 8-8V448h22.39C502.4 448 512 435.2 512 422.4V80C512 35.2 412.8 0 288 0zM80 112h200V256H80V112zM496 422.4C496 425.7 493.1 432 486.4 432H96c-8.824 0-16-7.178-16-16V272h416V422.4zM496 256h-200V112h200V256zM496 96h-416V80c0-26.72 79.13-64 208-64s208 37.28 208 64V96zM160 392c22.07 0 40-17.91 40-40S182.1 312 160 312S120 329.9 120 352S137.9 392 160 392zM160 328c13.23 0 24 10.77 24 24c0 13.23-10.77 24-24 24S136 365.2 136 352C136 338.8 146.8 328 160 328zM360 48h-144C211.6 48 208 51.58 208 56S211.6 64 216 64h144c4.422 0 8-3.578 8-8S364.4 48 360 48z"/></svg>