<svg xmlns="http://www.w3.org/2000/svg" viewBox="0 0 512 512"><!--! Font Awesome Pro 6.0.0-alpha3 by @fontawesome - https://fontawesome.com License - https://fontawesome.com/license (Commercial License) --><path d="M240 384h32c17.67 0 32-14.33 32-32v-32c0-17.67-14.33-32-32-32h-32c-17.67 0-32 14.33-32 32v32C208 369.7 222.3 384 240 384zM224 320c0-8.822 7.178-16 16-16h32c8.822 0 16 7.178 16 16v32c0 8.822-7.178 16-16 16h-32C231.2 368 224 360.8 224 352V320zM80 320l-.0006 32c0 17.67 14.33 32 32 32h32c17.67 0 32-14.33 32-32v-32c0-17.67-14.33-32-32-32h-32C94.33 288 80 302.3 80 320zM96 320c0-8.822 7.178-16 16-16h32C152.8 304 160 311.2 160 320l.0025 32c0 8.822-7.18 16-16 16h-32C103.2 368 96 360.8 96 352V320zM368 384h32c17.67 0 32-14.33 32-32L432 320c0-17.67-14.33-32-32-32h-32c-17.67 0-32 14.33-32 32v32C336 369.7 350.3 384 368 384zM352 320c0-8.822 7.178-16 16-16h32c8.822 0 16 7.178 16 16v32c0 8.822-7.178 16-16 16h-32c-8.822 0-16-7.178-16-16L352 320zM501.1 40.25l-495.1 128C1.721 169.4-.8418 173.7 .252 178C1.189 181.6 4.439 184 8.002 184c.6562 0 1.344-.0781 2-.25L248 122.3V224H95.99C60.65 224 31.99 252.7 31.99 288v160c0 35.35 28.65 64 63.1 64h319.1c35.35 0 63.1-28.65 63.1-64V288c0-35.35-28.65-64-63.1-64H264V118.2l241.1-62.45c4.281-1.109 6.844-5.469 5.75-9.75C510.7 41.72 506.2 39.17 501.1 40.25zM416 240c26.47 0 48 21.53 48 48v160c0 26.47-21.53 48-48 48H96c-26.47 0-48-21.53-48-48V288c0-26.47 21.53-48 48-48H416zM191.1 96c17.67 0 32-14.33 32-32c0-17.67-14.33-32-32-32S159.1 46.33 159.1 64C159.1 81.67 174.3 96 191.1 96zM192 48c8.822 0 16 7.178 16 16S200.8 80 192 80S176 72.82 176 64S183.2 48 192 48zM287.1 64c17.67 0 32-14.33 32-32c0-17.67-14.33-32-32-32S255.1 14.33 255.1 32C255.1 49.67 270.3 64 287.1 64zM288 16c8.822 0 16 7.178 16 16S296.8 48 288 48S272 40.82 272 32S279.2 16 288 16z"/></svg>