<svg xmlns="http://www.w3.org/2000/svg" viewBox="0 0 448 512"><!--! Font Awesome Pro 6.0.0-alpha3 by @fontawesome - https://fontawesome.com License - https://fontawesome.com/license (Commercial License) --><path d="M400 64h-63.1V8c0-4.422-3.594-8-8-8s-8 3.578-8 8L320 64h-192l.0003-56c0-4.422-3.594-8-8-8s-8 3.578-8 8V64h-64c-26.5 0-48 21.5-48 48v352c0 26.5 21.5 48 48 48h352c26.5 0 48-21.5 48-48v-352C448 85.5 426.5 64 400 64zM432 464c0 17.64-14.36 32-32 32h-352c-17.64 0-31.1-14.36-31.1-32v-256h416V464zM432 192h-416V112c0-17.64 14.36-32 31.1-32h64V128c0 4.422 3.594 8 8 8s8-3.578 8-8V80h192V128c0 4.422 3.594 8 8 8s8-3.578 8-8V80h64c17.64 0 32 14.36 32 32V192zM133.1 359.4c.875 .3438 1.609 .6562 2.5 .6562c5.123 0 15.6-10.37 80.44-76.5V440c0 4.406 3.578 8 7.1 8s8-3.594 8-8V283.3l74.34 74.34c3.125 3.125 8.188 3.125 11.31 0s3.125-8.188 0-11.31l-88-88C228.2 256.8 226.1 256 224 256S219.8 256.9 218.3 258.4c-30.45 31.06-80.17 81.41-86.47 86.78c-1.422 .875-2.594 2.188-3.25 3.875C126.9 353.2 128.1 357.8 133.1 359.4z"/></svg>