<svg xmlns="http://www.w3.org/2000/svg" viewBox="0 0 512 512"><!--! Font Awesome Pro 6.0.0-alpha3 by @fontawesome - https://fontawesome.com License - https://fontawesome.com/license (Commercial License) --><path d="M464 64L400 64V8c0-4.422-3.594-8-8-8s-8 3.578-8 8L384 64h-160l.0003-56c0-4.422-3.594-8-8-8s-8 3.578-8 8V64L144 64c-26.5 0-48 21.5-48 48l-.0001 256c0 26.5 21.5 48 48 48h320c26.5 0 48-21.5 48-48l.0001-256C512 85.5 490.5 64 464 64zM496 368c0 17.64-14.36 32-32 32h-320c-17.64 0-32-14.36-32-32v-160h384V368zM496 192h-384V112c0-17.64 14.36-32 32-32h64V128c0 4.422 3.594 8 8 8s8-3.578 8-8V80h160V128c0 4.422 3.594 8 8 8s8-3.578 8-8V80h64c17.64 0 32 14.36 32 32V192zM408 448c-4.422 0-8 3.594-8 8c0 22.06-17.94 40-40 40h-288c-30.87 0-55.1-25.12-55.1-56v-224c0-22.06 17.94-40 40-40c4.422 0 7.1-3.594 7.1-8S60.42 160 56 160c-30.88 0-56 25.12-56 56v224c0 39.69 32.3 72 71.1 72h288c30.88 0 56-25.12 56-56C416 451.6 412.4 448 408 448z"/></svg>