<svg xmlns="http://www.w3.org/2000/svg" viewBox="0 0 448 512"><!--! Font Awesome Pro 6.0.0-alpha3 by @fontawesome - https://fontawesome.com License - https://fontawesome.com/license (Commercial License) --><path d="M352 384c-17.67 0-32 14.33-32 32s14.33 32 32 32c17.67 0 32-14.33 32-32S369.7 384 352 384zM352 432c-8.822 0-16-7.178-16-16s7.178-16 16-16s16 7.178 16 16S360.8 432 352 432zM168 296h208c4.406 0 7.1-3.578 7.1-8s-3.593-8-7.1-8h-208C163.6 280 160 283.6 160 288S163.6 296 168 296zM96 320c17.67 0 32-14.33 32-32s-14.33-32-32-32c-17.67 0-32 14.33-32 32S78.33 320 96 320zM96 272c8.822 0 16 7.178 16 16s-7.178 16-16 16s-16-7.178-16-16S87.18 272 96 272zM400 64h-63.1V8c0-4.422-3.594-8-8-8s-8 3.578-8 8L320 64h-192l.0003-56c0-4.422-3.594-8-8-8s-8 3.578-8 8V64h-64c-26.5 0-48 21.5-48 48v352c0 26.5 21.5 48 48 48h352c26.5 0 48-21.5 48-48v-352C448 85.5 426.5 64 400 64zM432 464c0 17.64-14.36 32-32 32h-352c-17.64 0-31.1-14.36-31.1-32v-256h416V464zM432 192h-416V112c0-17.64 14.36-32 31.1-32h64V128c0 4.422 3.594 8 8 8s8-3.578 8-8V80h192V128c0 4.422 3.594 8 8 8s8-3.578 8-8V80h64c17.64 0 32 14.36 32 32V192zM72 424h208c4.406 0 7.1-3.578 7.1-8s-3.593-8-7.1-8H72c-4.406 0-8 3.578-8 8S67.59 424 72 424z"/></svg>