<svg xmlns="http://www.w3.org/2000/svg" viewBox="0 0 448 512"><!--! Font Awesome Pro 6.0.0-alpha3 by @fontawesome - https://fontawesome.com License - https://fontawesome.com/license (Commercial License) --><path d="M400 64h-64V8C336 3.578 332.4 0 328 0S320 3.578 320 8V64H128V8C128 3.578 124.4 0 120 0S112 3.578 112 8V64h-64C21.5 64 0 85.5 0 112v352C0 490.5 21.5 512 48 512h352c26.5 0 48-21.5 48-48v-352C448 85.5 426.5 64 400 64zM432 464c0 17.64-14.36 32-32 32h-352c-17.64 0-32-14.36-32-32v-256h416V464zM432 192h-416V112c0-17.64 14.36-32 32-32h64V128c0 4.422 3.594 8 8 8S128 132.4 128 128V80h192V128c0 4.422 3.594 8 8 8S336 132.4 336 128V80h64c17.64 0 32 14.36 32 32V192zM314.9 344.6c-.875-.3438-1.609-.6562-2.5-.6562c-5.123 0-15.6 10.37-80.44 76.5V264c0-4.406-3.578-8-8-8s-8 3.594-8 8v156.7l-74.34-74.34c-3.125-3.125-8.188-3.125-11.31 0s-3.125 8.188 0 11.31l88 88C219.8 447.2 221.9 448 223.1 448s4.219-.875 5.719-2.406c30.45-31.06 80.17-81.41 86.47-86.78c1.422-.875 2.594-2.188 3.25-3.875C321.1 350.8 319 346.2 314.9 344.6z"/></svg>