<svg xmlns="http://www.w3.org/2000/svg" viewBox="0 0 448 512"><!--! Font Awesome Pro 6.0.0-alpha3 by @fontawesome - https://fontawesome.com License - https://fontawesome.com/license (Commercial License) --><path d="M111.9 312h224c4.406 0 8-3.578 8-8s-3.594-8-8-8H111.9c-4.406 0-8 3.578-8 8S107.5 312 111.9 312zM111.9 408h128c4.406 0 8-3.578 8-8s-3.594-8-8-8H111.9c-4.406 0-8 3.578-8 8S107.5 408 111.9 408zM400 64h-63.1V8c0-4.422-3.594-8-8-8s-8 3.578-8 8L320 64h-192l.0003-56c0-4.422-3.594-8-8-8s-8 3.578-8 8V64h-64c-26.5 0-48 21.5-48 48v352c0 26.5 21.5 48 48 48h352c26.5 0 48-21.5 48-48v-352C448 85.5 426.5 64 400 64zM432 464c0 17.64-14.36 32-32 32h-352c-17.64 0-31.1-14.36-31.1-32v-256h416V464zM432 192h-416V112c0-17.64 14.36-32 31.1-32h64V128c0 4.422 3.594 8 8 8s8-3.578 8-8V80h192V128c0 4.422 3.594 8 8 8s8-3.578 8-8V80h64c17.64 0 32 14.36 32 32V192z"/></svg>