<svg xmlns="http://www.w3.org/2000/svg" viewBox="0 0 448 512"><!--! Font Awesome Pro 6.0.0-alpha3 by @fontawesome - https://fontawesome.com License - https://fontawesome.com/license (Commercial License) --><path d="M400 64h-63.1V8c0-4.422-3.594-8-8-8s-8 3.578-8 8L320 64h-192l.0003-56c0-4.422-3.594-8-8-8s-8 3.578-8 8V64h-64c-26.5 0-48 21.5-48 48v352c0 26.5 21.5 48 48 48h352c26.5 0 48-21.5 48-48v-352C448 85.5 426.5 64 400 64zM432 464c0 17.64-14.36 32-32 32h-352c-17.64 0-31.1-14.36-31.1-32v-256h416V464zM432 192h-416V112c0-17.64 14.36-32 31.1-32h64V128c0 4.422 3.594 8 8 8s8-3.578 8-8V80h192V128c0 4.422 3.594 8 8 8s8-3.578 8-8V80h64c17.64 0 32 14.36 32 32V192zM169.4 379.4l-8.969 54.56C159.2 441.8 165.1 448 171.8 448c1.766 0 3.586-.4395 5.332-1.406l46.9-25.76l46.9 25.76c1.742 .957 3.555 1.393 5.316 1.393c6.668 0 12.61-6.227 11.34-14.03l-8.969-54.56l37.94-38.62c6.816-6.938 3.051-19.05-6.359-20.47l-52.43-7.984l-23.44-49.65C232.2 258.2 228.1 256 223.1 256c-4.082 0-8.164 2.211-10.27 6.676L190.3 312.3l-52.43 7.984c-9.41 1.424-13.18 13.53-6.359 20.47L169.4 379.4zM192.7 328.1l8.422-1.283l22.9-48.51l22.9 48.51l52.94 8.064l-38.37 39.06l8.887 54.06l-46.36-25.47l-46.36 25.47l8.887-54.06l-38.37-39.06L192.7 328.1z"/></svg>