<svg xmlns="http://www.w3.org/2000/svg" viewBox="0 0 448 512"><!--! Font Awesome Pro 6.0.0-alpha3 by @fontawesome - https://fontawesome.com License - https://fontawesome.com/license (Commercial License) --><path d="M400 64h-63.1V8c0-4.422-3.594-8-8-8s-8 3.578-8 8L320 64h-192l.0003-56c0-4.422-3.594-8-8-8s-8 3.578-8 8V64h-64c-26.5 0-48 21.5-48 48v352c0 26.5 21.5 48 48 48h352c26.5 0 48-21.5 48-48v-352C448 85.5 426.5 64 400 64zM432 464c0 17.64-14.36 32-32 32h-352c-17.64 0-31.1-14.36-31.1-32v-256h416V464zM432 192h-416V112c0-17.64 14.36-32 31.1-32h64V128c0 4.422 3.594 8 8 8s8-3.578 8-8V80h192V128c0 4.422 3.594 8 8 8s8-3.578 8-8V80h64c17.64 0 32 14.36 32 32V192zM214.3 443.9C217 446.6 220.5 448 224 448s6.976-1.376 9.669-4.128l82.99-85.56c24.11-25.02 22.64-66.17-4.41-89.19C301.9 260.2 289.2 256 276.4 256c-15.97 0-32.08 6.586-44.04 18.88l-8.445 8.754l-8.445-8.754C203.5 262.6 187.5 256 171.6 256C158.8 256 146.1 260.2 135.6 269.1c-26.92 23.02-28.39 64.17-4.281 89.19L214.3 443.9zM146 281.3C153.2 275.2 161.1 272 171.6 272c11.97 0 23.77 5.105 32.36 13.99l19.96 20.69l19.91-20.64C252.5 277.1 264.4 272 276.4 272c9.574 0 18.38 3.209 25.51 9.312c9.541 8.119 15.14 19.55 15.77 32.18c.6211 12.54-3.938 24.83-12.47 33.68l-81.17 83.69l-81.13-83.65c-8.564-8.887-13.13-21.18-12.52-33.73C130.1 300.8 136.5 289.4 146 281.3z"/></svg>