<svg xmlns="http://www.w3.org/2000/svg" viewBox="0 0 576 512"><!--! Font Awesome Pro 6.0.0-alpha3 by @fontawesome - https://fontawesome.com License - https://fontawesome.com/license (Commercial License) --><path d="M488 368H432V296C432 291.6 428.4 288 424 288S416 291.6 416 296v80c0 4.406 3.578 8 8 8h64c4.422 0 8-3.594 8-8S492.4 368 488 368zM432 224C352.5 224 288 288.5 288 368s64.47 144 144 144S576 447.5 576 368S511.5 224 432 224zM432 496c-70.58 0-128-57.42-128-128s57.42-128 128-128c70.58 0 128 57.42 128 128S502.6 496 432 496zM16 464v-256h264C284.4 208 288 204.4 288 200S284.4 192 280 192H16V112c0-17.67 14.33-32 32-32h64V128c0 4.422 3.594 8 8 8S128 132.4 128 128V80h192V128c0 4.422 3.594 8 8 8S336 132.4 336 128V80h64c17.67 0 32 14.33 32 32v40C432 156.4 435.6 160 440 160S448 156.4 448 152V112C448 85.49 426.5 64 400 64h-64V8C336 3.578 332.4 0 328 0S320 3.578 320 8V64H128V8C128 3.578 124.4 0 120 0S112 3.578 112 8V64h-64C21.49 64 0 85.49 0 112v352C0 490.5 21.49 512 48 512h232C284.4 512 288 508.4 288 504S284.4 496 280 496H48C30.33 496 16 481.7 16 464z"/></svg>