<svg xmlns="http://www.w3.org/2000/svg" viewBox="0 0 448 512"><!--! Font Awesome Pro 6.0.0-alpha3 by @fontawesome - https://fontawesome.com License - https://fontawesome.com/license (Commercial License) --><path d="M139.3 353.9l-46.69 64.02c-5.344 7.359-6.094 16.94-1.969 24.98C94.72 450.1 102.9 456 112 456h224c8.875 0 16.97-4.859 21.12-12.66c4.219-7.812 3.781-17.27-1.156-24.66l-85.34-128c-8.938-13.38-31-13.38-39.94 0L183.6 361.4l-5.5-7.5C169.2 341.5 148.2 341.5 139.3 353.9zM184.1 389.4L244 299.6c3-4.469 10.31-4.469 13.31 0l85.34 128c1.656 2.453 1.812 5.578 .375 8.203C341.7 438.4 338.9 440 336 440h-224c-3.031 0-5.75-1.672-7.125-4.391c-1.375-2.688-1.125-5.875 .6562-8.312l46.69-64.03C153.7 361.2 156.1 360 158.7 360c2.562 0 4.969 1.219 6.469 3.297L184.1 389.4zM400 64h-64V8C336 3.578 332.4 0 328 0S320 3.578 320 8V64H128V8C128 3.578 124.4 0 120 0S112 3.578 112 8V64h-64C21.5 64 0 85.5 0 112v352C0 490.5 21.5 512 48 512h352c26.5 0 48-21.5 48-48v-352C448 85.5 426.5 64 400 64zM432 464c0 17.64-14.36 32-32 32h-352c-17.64 0-32-14.36-32-32v-256h416V464zM432 192h-416V112c0-17.64 14.36-32 32-32h64V128c0 4.422 3.594 8 8 8S128 132.4 128 128V80h192V128c0 4.422 3.594 8 8 8S336 132.4 336 128V80h64c17.64 0 32 14.36 32 32V192zM128 328c22.06 0 40-17.94 40-40S150.1 248 128 248S88 265.9 88 288S105.9 328 128 328zM128 264c13.22 0 24 10.77 24 24S141.2 312 128 312S104 301.2 104 288S114.8 264 128 264z"/></svg>