<svg xmlns="http://www.w3.org/2000/svg" viewBox="0 0 512 512"><!--! Font Awesome Pro 6.0.0-alpha3 by @fontawesome - https://fontawesome.com License - https://fontawesome.com/license (Commercial License) --><path d="M384 320V192c0-17.67-14.33-32-32-32h-36l-6.188-16.44C306.3 134.2 297.4 128 287.4 128H224.6c-10 0-19 6.188-22.5 15.56L196 160H160C142.3 160 128 174.3 128 192v128c0 17.67 14.33 32 32 32h192C369.7 352 384 337.7 384 320zM144 320V192c0-8.822 7.178-16 16-16h47.11l10-26.84C218.3 146.1 221.3 144 224.6 144h62.75c3.355 0 6.279 2.023 7.463 5.199L304.9 176H352c8.822 0 16 7.178 16 16v128c0 8.822-7.178 16-16 16H160C151.2 336 144 328.8 144 320zM256 208C229.5 208 208 229.5 208 256S229.5 304 256 304s48-21.5 48-48S282.5 208 256 208zM256 288C238.4 288 224 273.6 224 256s14.36-32 32-32s32 14.36 32 32S273.6 288 256 288zM8 160C12.42 160 16 156.4 16 152v-112c0-13.22 10.77-24 24-24h112C156.4 16 160 12.41 160 8S156.4 0 152 0h-112C17.94 0 0 17.94 0 40v112C0 156.4 3.578 160 8 160zM472 0h-112C355.6 0 352 3.594 352 8s3.578 8 8 8h112c13.23 0 24 10.78 24 24v112C496 156.4 499.6 160 504 160S512 156.4 512 152v-112C512 17.94 494.1 0 472 0zM504 352c-4.422 0-8 3.594-8 8v112c0 13.22-10.77 24-24 24h-112c-4.422 0-8 3.594-8 8S355.6 512 360 512h112c22.06 0 40-17.94 40-40v-112C512 355.6 508.4 352 504 352zM152 496h-112c-13.23 0-24-10.78-24-24v-112C16 355.6 12.42 352 8 352S0 355.6 0 360v112C0 494.1 17.94 512 40 512h112C156.4 512 160 508.4 160 504S156.4 496 152 496z"/></svg>