<svg xmlns="http://www.w3.org/2000/svg" viewBox="0 0 512 512"><!--! Font Awesome Pro 6.0.0-alpha3 by @fontawesome - https://fontawesome.com License - https://fontawesome.com/license (Commercial License) --><path d="M464 96h-88l-12.38-32.88C356.6 44.38 338.8 32 318.8 32h-125.5c-20 0-38 12.38-45 31.12L136 96H48C21.5 96 0 117.5 0 144v288C0 458.5 21.5 480 48 480h416c26.5 0 48-21.5 48-48v-288C512 117.5 490.5 96 464 96zM496 432c0 17.64-14.36 32-32 32h-416c-17.64 0-32-14.36-32-32v-288c0-17.64 14.36-32 32-32h99.11l16.12-43.28C167.9 56.33 179.9 48 193.3 48h125.5c13.25 0 25.26 8.326 29.9 20.76L364.9 112H464c17.64 0 32 14.36 32 32V432zM256 176C194.2 176 144 226.2 144 288c0 61.76 50.24 112 112 112s112-50.24 112-112C368 226.2 317.8 176 256 176zM256 384c-53 0-96-43-96-96s43-96 96-96s96 43 96 96S309 384 256 384z"/></svg>