<svg xmlns="http://www.w3.org/2000/svg" viewBox="0 0 512 512"><!--! Font Awesome Pro 6.0.0-alpha3 by @fontawesome - https://fontawesome.com License - https://fontawesome.com/license (Commercial License) --><path d="M464 32h-160.9c-9.936 0-19.73 2.312-28.62 6.756L192 80H48C21.49 80 0 101.5 0 128v304C0 458.5 21.49 480 48 480h416c26.51 0 48-21.49 48-48v-352C512 53.49 490.5 32 464 32zM496 432c0 17.64-14.36 32-32 32h-416c-17.64 0-32-14.36-32-32v-192h121.5C131.5 254.8 128 270.1 128 288c0 70.69 57.31 128 128 128s128-57.31 128-128c0-17-3.473-33.16-9.492-48H496V432zM144 288c0-61.76 50.24-112 112-112s112 50.24 112 112s-50.24 112-112 112S144 349.8 144 288zM496 224h-129.8C344.1 185.9 303.3 160 256 160S167.9 185.9 145.8 224H16V128c0-17.64 14.36-32 32-32h147.8l85.86-42.93C288.3 49.75 295.7 48 303.1 48H464c17.64 0 32 14.36 32 32V224zM72 48h80C156.4 48 160 44.42 160 40S156.4 32 152 32h-80C67.58 32 64 35.58 64 40S67.58 48 72 48z"/></svg>