<svg xmlns="http://www.w3.org/2000/svg" viewBox="0 0 640 512"><!--! Font Awesome Pro 6.0.0-alpha3 by @fontawesome - https://fontawesome.com License - https://fontawesome.com/license (Commercial License) --><path d="M112 464c-17.64 0-32-14.36-32-32V157.2L64 144.5V432C64 458.5 85.5 480 112 480h374.1l-20.13-16H112zM227.2 68.72C231.9 56.33 243.9 48 257.3 48h125.5c13.25 0 25.26 8.326 29.9 20.76L428.9 112H528c17.64 0 32 14.36 32 32v210.8l16 12.72V144C576 117.5 554.5 96 528 96h-88l-12.38-32.88C420.6 44.38 402.8 32 382.8 32h-125.5c-20 0-38 12.38-45 31.12L207.9 74.89l13.17 10.47L227.2 68.72zM337.3 177.7l86.58 68.82C409.4 210.5 376.7 183.9 337.3 177.7zM636.1 497.7L12.99 1.73C11.52 .5664 9.77 0 8.023 0C5.672 0 3.334 1.029 1.736 3.012c-2.75 3.469-2.172 8.5 1.281 11.25l623.1 496C628.5 511.4 630.2 512 631.1 512c2.344 0 4.688-1.031 6.266-3.016C641 505.5 640.4 500.5 636.1 497.7zM211.4 261.7C209.4 270.2 208 278.9 208 288c0 61.76 50.24 112 112 112c18.04 0 34.86-4.691 49.97-12.3l-13.71-10.9C345.1 381.4 332.8 384 320 384c-53 0-96-43-96-96c0-5.178 .7363-10.16 1.525-15.12L211.4 261.7z"/></svg>