<svg xmlns="http://www.w3.org/2000/svg" viewBox="0 0 576 512"><!--! Font Awesome Pro 6.0.0-alpha3 by @fontawesome - https://fontawesome.com License - https://fontawesome.com/license (Commercial License) --><path d="M527.6 393.2l-229.2-278.3l83.81-101.8c2.812-3.406 2.328-8.437-1.094-11.25c-3.391-2.812-8.422-2.312-11.25 1.094L288 102.3L206.2 2.934C203.3-.5038 198.3-.9882 194.9 1.84C191.5 4.652 191 9.683 193.8 13.09l83.81 101.8l-229.2 278.3C37.83 406 32 422.3 32 438.1v65.03C32 508.4 35.58 512 40 512h496c4.422 0 8-3.578 8-7.1v-65.03C544 422.3 538.2 406 527.6 393.2zM179.4 496L288 341.9l108.6 154.1H179.4zM528 496h-111.8l-121.6-172.6c-3-4.25-10.09-4.25-13.09 0l-121.6 172.6H48v-57.03c0-12.97 4.531-25.61 12.77-35.61L288 127.4l227.2 275.9C523.5 413.4 528 426 528 438.1V496z"/></svg>