<svg xmlns="http://www.w3.org/2000/svg" viewBox="0 0 640 512"><!--! Font Awesome Pro 6.0.0-alpha3 by @fontawesome - https://fontawesome.com License - https://fontawesome.com/license (Commercial License) --><path d="M213.8 181.2c-4.746-1.967-9.666-2.898-14.5-2.898c-14.89 0-29.02 8.818-35.07 23.43C156.3 221 165.4 243.2 184.8 251.3c4.746 1.965 9.666 2.896 14.5 2.896c14.89 0 29.02-8.818 35.07-23.43C242.4 211.4 233.2 189.2 213.8 181.2zM219.6 224.6c-3.412 8.234-11.38 13.55-20.29 13.55c-2.869 0-5.688-.5664-8.379-1.68c-11.18-4.631-16.5-17.49-11.87-28.67c3.41-8.232 11.37-13.55 20.29-13.55c2.869 0 5.689 .5645 8.379 1.68C218.9 200.6 224.2 213.4 219.6 224.6zM500.8 341.1c8.018-19.36-1.176-41.55-20.53-49.57c-4.746-1.967-9.666-2.898-14.5-2.898c-14.89 0-29.02 8.818-35.07 23.43c-8.018 19.36 1.176 41.55 20.53 49.57c4.746 1.965 9.666 2.896 14.5 2.896C480.6 364.5 494.7 355.7 500.8 341.1zM485.1 334.9c-3.41 8.234-11.37 13.55-20.29 13.55c-2.869 0-5.688-.5664-8.379-1.68c-11.18-4.631-16.5-17.49-11.87-28.67c3.41-8.232 11.37-13.55 20.28-13.55c2.871 0 5.689 .5645 8.381 1.68C485.3 310.9 490.6 323.8 485.1 334.9zM632 496h-162.1l22.66-54.71c.6309 .0254 1.266 .1855 1.895 .1855c17.87 0 34.82-10.58 42.08-28.12l34.84-84.12c11.73-28.32 .2617-60.23-25.44-75.33l7.92-111.5c2.109-29.55-14.88-57-42.23-68.34L345.4 5.234C318-6.078 286.6 1.312 267.2 23.7L193.1 108.1C188.9 106.8 183.9 105.9 178.8 105.9c-23.82 .002-46.42 14.11-56.11 37.49L87.87 227.5C80.35 245.7 85.55 265.8 99.21 278.3l-27.24 65.79c-1.688 4.078 .25 8.766 4.328 10.45c1 .4219 2.047 .6094 3.062 .6094c3.141 0 6.109-1.859 7.391-4.938L112.9 287.2l363.8 150.7L452.6 496H8C3.578 496 0 499.6 0 504S3.578 512 8 512h624c4.422 0 8-3.578 8-8S636.4 496 632 496zM279.3 34.17c14.88-17.16 39.02-22.86 59.97-14.16l166.2 68.84c21 8.703 34.02 29.77 32.39 52.44l-7.479 105.3L210.1 113.9L279.3 34.17zM118.6 272.2C103.6 265.1 96.42 248.7 102.6 233.6l34.85-84.12c6.947-16.77 23.17-27.61 41.33-27.61c5.855 0 11.6 1.15 17.08 3.42L532.4 264.7c22.77 9.432 33.63 35.63 24.19 58.41l-34.85 84.12c-4.59 11.08-15.3 18.24-27.3 18.24c-3.865 0-7.662-.7598-11.28-2.26L118.6 272.2z"/></svg>