<svg xmlns="http://www.w3.org/2000/svg" viewBox="0 0 640 512"><!--! Font Awesome Pro 6.0.0-alpha3 by @fontawesome - https://fontawesome.com License - https://fontawesome.com/license (Commercial License) --><path d="M516.2 224.4l-106.7-133.4C395.7 73.84 375.2 64 353.2 64H171.3c-29.61 0-55.84 17.77-66.84 45.27L58.59 224H48C21.49 224 0 245.5 0 272V384c0 26.51 21.49 48 48 48h17.61C73.27 477.4 112.5 512 160 512s86.73-34.64 94.39-80h131.2C393.3 477.4 432.5 512 480 512s86.73-34.64 94.39-80H592c26.51 0 48-21.49 48-48v-32C640 282.7 584.9 226.7 516.2 224.4zM264 80h89.23c17.09 0 33.03 7.656 43.73 21.02L495.4 224H264V80zM119.3 115.2C127.9 93.81 148.3 80 171.3 80H248V224H75.81L119.3 115.2zM160 496c-44.11 0-80-35.89-80-80s35.89-80 80-80c44.11 0 80 35.89 80 80S204.1 496 160 496zM480 496c-44.11 0-80-35.89-80-80s35.89-80 80-80c44.11 0 80 35.89 80 80S524.1 496 480 496zM624 384c0 17.64-14.36 32-32 32H576c0-53.02-42.98-96-96-96s-96 42.98-96 96H256c0-53.02-42.98-96-96-96s-96 42.98-96 96H48c-17.64 0-32-14.36-32-32V272c0-17.64 14.36-32 32-32H512c61.76 0 112 50.24 112 112V384z"/></svg>