<svg xmlns="http://www.w3.org/2000/svg" viewBox="0 0 640 512"><!--! Font Awesome Pro 6.0.0-alpha3 by @fontawesome - https://fontawesome.com License - https://fontawesome.com/license (Commercial License) --><path d="M640 184c0-2.794-1.467-5.507-4.07-6.977l-311.1-176c-1.234-.6875-2.585-1.03-3.937-1.03S317.3 .3438 316.1 1.031l-311.1 176C1.464 178.5-.0032 181.2-.0032 184c0 5.734 5.098 7.985 8.027 7.985c1.331 0 2.68-.3298 3.918-1.024L320 17.19l308.1 173.8C629.3 191.7 630.7 192 631.1 192C634.9 192 640 189.7 640 184zM448 336c-17.67 0-32 14.33-32 32c0 17.67 14.33 32 32 32s32-14.33 32-32C480 350.3 465.7 336 448 336zM448 384c-8.822 0-16-7.178-16-16S439.2 352 448 352s16 7.178 16 16S456.8 384 448 384zM192 336c-17.67 0-32 14.33-32 32c0 17.67 14.33 32 32 32s32-14.33 32-32C224 350.3 209.7 336 192 336zM192 384c-8.822 0-16-7.178-16-16S183.2 352 192 352s16 7.178 16 16S200.8 384 192 384zM473.7 288.1l-24.43-73.28C441.4 191.1 419.2 176 394.2 176H245.8c-25.03 0-47.17 15.95-55.09 39.7l-24.43 73.28C135.6 293.7 112 320 112 352v43.34c0 21.7 13.21 40.36 32 48.41V504C144 508.4 147.6 512 152 512S160 508.4 160 504v-56.47C161.6 447.7 163.1 448 164.7 448h310.7C476.9 448 478.4 447.7 480 447.5V504c0 4.418 3.582 8 8 8s8-3.582 8-8v-60.24c18.79-8.051 32-26.71 32-48.41V352C528 320 504.4 293.7 473.7 288.1zM205.9 220.8C211.6 203.6 227.7 192 245.8 192h148.4c18.14 0 34.17 11.56 39.91 28.77L456.5 288H183.5L205.9 220.8zM512 395.3C512 415.6 495.6 432 475.3 432H164.7C144.4 432 128 415.6 128 395.3V352c0-26.47 21.53-48 48-48h288c26.47 0 48 21.53 48 48V395.3z"/></svg>