<svg xmlns="http://www.w3.org/2000/svg" viewBox="0 0 512 512"><!--! Font Awesome Pro 6.0.0-alpha3 by @fontawesome - https://fontawesome.com License - https://fontawesome.com/license (Commercial License) --><path d="M184 248h-112C67.59 248 64 251.6 64 256s3.594 8 8 8h112C188.4 264 192 260.4 192 256S188.4 248 184 248zM440 248h-48v-48C392 195.6 388.4 192 384 192s-8 3.578-8 8v48h-48C323.6 248 320 251.6 320 256s3.594 8 8 8h48v48C376 316.4 379.6 320 384 320s8-3.578 8-8v-48h48C444.4 264 448 260.4 448 256S444.4 248 440 248zM448 128V88C448 74.8 437.2 64 424 64h-80C330.8 64 320 74.8 320 88V128H192V88C192 74.8 181.2 64 168 64h-80C74.8 64 64 74.8 64 88V128C28.65 128 0 156.7 0 191.1v192C0 419.3 28.65 448 63.1 448H448c35.35 0 64-28.65 64-63.1V191.1C512 156.7 483.3 128 448 128zM336 88c0-4.406 3.594-8 8-8h80c4.406 0 8 3.594 8 8V128h-96V88zM80 88c0-4.406 3.594-8 8-8h80c4.406 0 8 3.594 8 8V128h-96V88zM496 384c0 26.51-21.49 48-48 48H64c-26.51 0-48-21.49-48-48V192c0-26.51 21.49-48 48-48h384c26.51 0 48 21.49 48 48V384z"/></svg>