<svg xmlns="http://www.w3.org/2000/svg" viewBox="0 0 512 512"><!--! Font Awesome Pro 6.0.0-alpha3 by @fontawesome - https://fontawesome.com License - https://fontawesome.com/license (Commercial License) --><path d="M504 96h-55.97l-14.22-16.23L446.5 64h57.55c2.594 0 5.031-1.266 6.531-3.391s1.875-4.844 1-7.297C500.2 21.42 470 0 436.4 0c-31.69 0-60.36 19.06-73.03 48H148.6C135.1 19.06 107.3 0 75.59 0C41.1 0 11.79 21.42 .4648 53.31c-.875 2.453-.5 5.172 1 7.297S5.402 64 7.996 64h55.97l14.22 16.23L65.54 96H7.996C5.402 96 2.965 97.27 1.465 99.39s-1.875 4.844-1 7.297C11.79 138.6 41.1 160 75.59 160C107.3 160 135.1 140.9 148.6 112h214.8C376 140.9 404.7 160 436.4 160c33.59 0 63.8-21.42 75.13-53.31c.875-2.453 .5-5.172-1-7.297S506.6 96 504 96zM436.4 144c-26.84 0-50.98-17.16-60.06-42.69C375.2 98.13 372.2 96 368.8 96H143.2C139.8 96 136.8 98.13 135.7 101.3C126.6 126.8 102.4 144 75.59 144c-22.91 0-43.83-12.48-55.13-32H69.39c2.422 0 4.719-1.109 6.25-3l19.23-24c2.422-3.031 2.328-7.359-.2344-10.27l-21.03-24C72.09 49 69.9 48 67.59 48H20.46c11.3-19.52 32.22-32 55.13-32c26.84 0 50.98 17.16 60.06 42.69C136.8 61.88 139.8 64 143.2 64h225.6c3.391 0 6.406-2.125 7.531-5.312C385.4 33.16 409.6 16 436.4 16c22.91 0 43.83 12.48 55.13 32H442.6c-2.422 0-4.719 1.109-6.25 3l-19.23 24c-2.422 3.031-2.328 7.359 .2344 10.27l21.03 24C439.9 111 442.1 112 444.4 112h47.13C480.2 131.5 459.3 144 436.4 144zM384 336c-17.67 0-32 14.33-32 32c0 17.67 14.33 32 32 32s32-14.33 32-32C416 350.3 401.7 336 384 336zM384 384c-8.822 0-16-7.178-16-16S375.2 352 384 352s16 7.178 16 16S392.8 384 384 384zM128 336c-17.67 0-32 14.33-32 32c0 17.67 14.33 32 32 32s32-14.33 32-32C160 350.3 145.7 336 128 336zM128 384c-8.822 0-16-7.178-16-16S119.2 352 128 352s16 7.178 16 16S136.8 384 128 384zM409.7 288.1l-24.43-73.28C377.4 191.1 355.2 176 330.2 176H181.8c-25.03 0-47.17 15.95-55.09 39.7l-24.43 73.28C71.62 293.7 48 320 48 352v43.34c0 21.7 13.21 40.36 32 48.41V504C80 508.4 83.58 512 88 512S96 508.4 96 504v-56.47C97.56 447.7 99.06 448 100.7 448h310.7C412.9 448 414.4 447.7 416 447.5V504c0 4.418 3.582 8 8 8s8-3.582 8-8v-60.24c18.79-8.051 32-26.71 32-48.41V352C464 320 440.4 293.7 409.7 288.1zM141.9 220.8C147.6 203.6 163.7 192 181.8 192h148.4c18.14 0 34.17 11.56 39.91 28.77L392.5 288H119.5L141.9 220.8zM448 395.3C448 415.6 431.6 432 411.3 432H100.7C80.44 432 64 415.6 64 395.3V352c0-26.47 21.53-48 48-48h288c26.47 0 48 21.53 48 48V395.3z"/></svg>