<svg xmlns="http://www.w3.org/2000/svg" viewBox="0 0 640 512"><!--! Font Awesome Pro 6.0.0-alpha3 by @fontawesome - https://fontawesome.com License - https://fontawesome.com/license (Commercial License) --><path d="M560 336c-17.67 0-32 14.33-32 32c0 17.67 14.33 32 32 32s32-14.33 32-32C592 350.3 577.7 336 560 336zM560 384c-8.822 0-16-7.178-16-16s7.178-16 16-16s16 7.178 16 16S568.8 384 560 384zM304 336c-17.67 0-32 14.33-32 32c0 17.67 14.33 32 32 32s32-14.33 32-32C336 350.3 321.7 336 304 336zM304 384C295.2 384 288 376.8 288 368S295.2 352 304 352s16 7.178 16 16S312.8 384 304 384zM591.4 290.1l-30.13-90.39C553.4 175.1 531.2 160 506.2 160h-148.4c-25.03 0-47.19 15.95-55.09 39.7l-30.13 90.39C244.8 297 224 322 224 352v43.34c0 21.7 13.21 40.36 32 48.41V504C256 508.4 259.6 512 264 512s8-3.582 8-8v-56.47C273.6 447.7 275.1 448 276.7 448h310.7c1.594 0 3.098-.332 4.656-.4707V504c0 4.418 3.582 8 8 8S608 508.4 608 504v-60.24c18.79-8.051 32-26.71 32-48.41V352C640 322 619.2 297 591.4 290.1zM317.9 204.8C323.6 187.6 339.7 176 357.8 176h148.4c18.12 0 34.19 11.56 39.91 28.77L573.8 288H290.2L317.9 204.8zM624 395.3C624 415.6 607.6 432 587.3 432H276.7C256.4 432 240 415.6 240 395.3V352c0-26.47 21.53-48 48-48h288c26.47 0 48 21.53 48 48V395.3zM48 272c0 17.64 14.34 32 32 32s32-14.36 32-32s-14.34-32-32-32S48 254.4 48 272zM96 272C96 280.8 88.81 288 80 288S64 280.8 64 272S71.19 256 80 256S96 263.2 96 272zM184 336H29.38C21.99 336 16 330 16 322.6V208h232C252.4 208 256 204.4 256 200S252.4 192 248 192H16V96h320v24C336 124.4 339.6 128 344 128S352 124.4 352 120V62.88C352 27.62 273.1 0 176 0C77.1 0 0 27.62 0 62.88v259.8C0 338.8 13.15 352 29.38 352H48v56C48 412.4 51.58 416 56 416S64 412.4 64 408V352h120C188.4 352 192 348.4 192 344S188.4 336 184 336zM16 62.88C16 46.52 70.95 16 176 16c105 0 160 30.52 160 46.88V80h-320V62.88z"/></svg>