<svg xmlns="http://www.w3.org/2000/svg" viewBox="0 0 640 512"><!--! Font Awesome Pro 6.0.0-alpha3 by @fontawesome - https://fontawesome.com License - https://fontawesome.com/license (Commercial License) --><path d="M132.1 83.52l26.13-66.12l26.13 66.13C187.1 90.64 195.2 94.39 202.4 92.18L270.5 71.33L258.4 92.43C256.2 96.24 257.5 101.1 261.4 103.3C265.2 105.4 270.1 104.1 272.3 100.3l13.7-23.8C289.1 71.21 288.6 64.74 284.7 60c-3.812-4.711-10.03-6.607-15.83-4.836l-69.61 22.54l-27.35-69.22C167.5-2.834 148.9-2.818 144.5 8.469l-25.72 68.51L47.48 55.17C41.7 53.32 35.48 55.29 31.67 60C27.84 64.74 27.34 71.21 30.36 76.48l37.51 62.94L6.4 181.5C1.363 184.9-.9902 190.1 .3906 196.9c1.365 5.891 6.119 10.28 12.13 11.19L85.05 217.1L79.64 292.2C79.2 298.3 82.5 303.9 88.02 306.6C90.06 307.5 92.23 308 94.38 308c3.641 0 7.219-1.354 10.03-3.934l50.96-47.07c3.248-2.984 3.422-8.021 .4082-11.24c-3.029-3.219-8.113-3.389-11.36-.3887L95.91 290.1l5.18-70.96c.5801-7.586-4.896-14.44-12.48-15.59L18.09 192.8l58.91-40.31C83.36 148.2 85.27 139.8 81.45 133.1L45.9 71.33l68.09 20.85C121.4 94.4 129.3 90.63 132.1 83.52zM613.6 278.5l7.193-101c1.922-27.02-13.61-52.14-38.64-62.5l-150.1-62.19c-25-10.34-53.78-3.594-71.52 16.89L294.1 146.2C289.8 145.1 285.5 144.4 281.3 144.4c-21.51 0-41.93 12.75-50.68 33.86L199.1 254.3c-6.676 16.12-2.193 33.89 9.682 45.28l-24.75 59.76c-1.688 4.078 .25 8.766 4.328 10.45c1 .4219 2.047 .6094 3.062 .6094c3.141 0 6.109-1.859 7.391-4.938l23.61-56.99l327.1 135.5l-23.6 56.99c-1.688 4.078 .25 8.766 4.328 10.45C531.3 511.8 532.3 512 533.3 512c3.141 0 6.109-1.859 7.391-4.938l24.72-59.71c.291 .0059 .582 .1738 .873 .1738c16.13 0 31.45-9.561 38.01-25.39l31.47-75.98C646.3 320.8 636.3 292.3 613.6 278.5zM372.6 80.14c13.22-15.2 34.63-20.3 53.3-12.58L576 129.8c18.66 7.719 30.23 26.45 28.8 46.59L598 271.2L310.3 151.1L372.6 80.14zM621 340l-31.47 75.98c-3.904 9.426-13.02 15.52-23.22 15.52c-3.287 0-6.516-.6465-9.596-1.922L227.5 293.2C214.7 287.9 208.6 273.2 213.9 260.4l31.47-75.98c6.033-14.57 20.12-23.98 35.9-23.98c5.084 0 10.07 .998 14.83 2.969l303.9 125.9c9.58 3.971 17.04 11.43 21.01 21.01C625 319.9 625 330.4 621 340zM553.5 312.1c-4.287-1.775-8.73-2.617-13.1-2.617c-13.45 0-26.21 7.965-31.67 21.16c-7.242 17.48 1.061 37.53 18.54 44.77c4.287 1.775 8.73 2.617 13.1 2.617c13.45 0 26.21-7.965 31.67-21.16C579.3 339.3 570.1 319.3 553.5 312.1zM557.3 350.7c-2.84 6.855-9.471 11.29-16.89 11.29c-2.389 0-4.736-.4707-6.977-1.4c-9.307-3.854-13.74-14.56-9.887-23.87c2.84-6.855 9.471-11.29 16.89-11.29c2.389 0 4.736 .4707 6.977 1.398C556.7 330.7 561.1 341.4 557.3 350.7zM312.9 212.4C308.6 210.6 304.2 209.8 299.8 209.8c-13.45 0-26.21 7.967-31.67 21.16C260.9 248.4 269.2 268.5 286.7 275.7c4.287 1.775 8.73 2.617 13.1 2.617c13.45 0 26.21-7.965 31.67-21.16C338.7 239.7 330.4 219.6 312.9 212.4zM316.7 251c-2.838 6.855-9.469 11.29-16.89 11.29c-2.389 0-4.734-.4707-6.977-1.398c-9.305-3.855-13.74-14.56-9.887-23.87C285.7 230.2 292.4 225.8 299.8 225.8c2.387 0 4.734 .4707 6.977 1.4C311.3 229 314.8 232.6 316.7 237.1C318.5 241.6 318.5 246.5 316.7 251z"/></svg>