<svg xmlns="http://www.w3.org/2000/svg" viewBox="0 0 448 512"><!--! Font Awesome Pro 6.0.0-alpha3 by @fontawesome - https://fontawesome.com License - https://fontawesome.com/license (Commercial License) --><path d="M384 127.1c25.64 0 46.5-20.43 46.5-45.42c0-22.12-33.31-69.1-39.98-79.38C389 1.055 386.5 0 384 0s-5.016 1.055-6.516 3.164c-6.672 9.379-39.98 57.26-39.98 79.38C337.5 107.5 358.4 127.1 384 127.1zM384 21.91c13.78 20.62 30.5 49.3 30.5 60.63c0 16.16-13.69 29.31-30.5 29.31s-30.5-13.15-30.5-29.31C353.5 71.22 370.2 42.52 384 21.91zM224 127.1c25.64 0 46.5-20.44 46.5-45.43c0-22.12-33.31-69.1-39.98-79.38C229 1.055 226.5 .0062 224 .0062S218.1 1.055 217.5 3.164C210.8 12.54 177.5 60.42 177.5 82.54C177.5 107.5 198.4 127.1 224 127.1zM224 21.91c13.78 20.62 30.5 49.3 30.5 60.63c0 16.16-13.69 29.31-30.5 29.31S193.5 98.7 193.5 82.54C193.5 71.22 210.2 42.52 224 21.91zM64 127.1c25.64 0 46.5-20.43 46.5-45.42c0-22.12-33.31-69.1-39.98-79.38C69.02 1.055 66.51 0 64 0S58.98 1.055 57.48 3.164C50.81 12.54 17.5 60.42 17.5 82.54C17.5 107.5 38.36 127.1 64 127.1zM64 21.91c13.78 20.62 30.5 49.3 30.5 60.63c0 16.16-13.69 29.31-30.5 29.31S33.5 98.7 33.5 82.54C33.5 71.22 50.22 42.52 64 21.91zM352 336c-17.67 0-32 14.33-32 32c0 17.67 14.33 32 32 32s32-14.33 32-32C384 350.3 369.7 336 352 336zM352 384c-8.822 0-16-7.178-16-16S343.2 352 352 352s16 7.178 16 16S360.8 384 352 384zM96 336c-17.67 0-32 14.33-32 32c0 17.67 14.33 32 32 32s32-14.33 32-32C128 350.3 113.7 336 96 336zM96 384c-8.822 0-16-7.178-16-16S87.18 352 96 352s16 7.178 16 16S104.8 384 96 384zM377.7 288.1l-24.43-73.28C345.4 191.1 323.2 176 298.2 176H149.8c-25.03 0-47.17 15.95-55.09 39.7l-24.43 73.28C39.62 293.7 16 320 16 352v43.34c0 21.7 13.21 40.36 32 48.41V504C48 508.4 51.58 512 56 512S64 508.4 64 504v-56.47C65.56 447.7 67.06 448 68.66 448h310.7C380.9 448 382.4 447.7 384 447.5V504c0 4.418 3.582 8 8 8s8-3.582 8-8v-60.24c18.79-8.051 32-26.71 32-48.41V352C432 320 408.4 293.7 377.7 288.1zM109.9 220.8C115.6 203.6 131.7 192 149.8 192h148.4c18.14 0 34.17 11.56 39.91 28.77L360.5 288H87.5L109.9 220.8zM416 395.3C416 415.6 399.6 432 379.3 432H68.66C48.44 432 32 415.6 32 395.3V352c0-26.47 21.53-48 48-48h288c26.47 0 48 21.53 48 48V395.3z"/></svg>