<svg xmlns="http://www.w3.org/2000/svg" viewBox="0 0 640 512"><!--! Font Awesome Pro 6.0.0-alpha3 by @fontawesome - https://fontawesome.com License - https://fontawesome.com/license (Commercial License) --><path d="M208 72c-4.406 0-8 3.578-8 8v64c0 4.422 3.594 8 8 8h64c4.406 0 8-3.578 8-8v-64c0-4.422-3.594-8-8-8H208zM264 136h-48v-48h48V136zM256 208c0-4.422-3.594-8-8-8H208c-4.406 0-8 3.578-8 8v64c0 4.422 3.594 8 8 8S216 276.4 216 272V216h32C252.4 216 256 212.4 256 208zM336 40v80C336 124.4 339.6 128 344 128S352 124.4 352 120v-80C352 17.94 334.1 0 312 0h-272C17.94 0 0 17.94 0 40v432C0 476.4 3.594 480 8 480s8-3.578 8-8V40c0-13.23 10.78-24 24-24h272C325.2 16 336 26.77 336 40zM144 328h-64c-4.406 0-8 3.578-8 8v64c0 4.422 3.594 8 8 8h64c4.406 0 8-3.578 8-8v-64C152 331.6 148.4 328 144 328zM136 392h-48v-48h48V392zM144 200h-64c-4.406 0-8 3.578-8 8v64c0 4.422 3.594 8 8 8h64c4.406 0 8-3.578 8-8v-64C152 203.6 148.4 200 144 200zM136 264h-48v-48h48V264zM144 72h-64c-4.406 0-8 3.578-8 8v64c0 4.422 3.594 8 8 8h64c4.406 0 8-3.578 8-8v-64C152 75.58 148.4 72 144 72zM136 136h-48v-48h48V136zM560 336c-17.67 0-32 14.33-32 32c0 17.67 14.33 32 32 32s32-14.33 32-32C592 350.3 577.7 336 560 336zM560 384c-8.822 0-16-7.178-16-16s7.178-16 16-16s16 7.178 16 16S568.8 384 560 384zM304 336c-17.67 0-32 14.33-32 32c0 17.67 14.33 32 32 32s32-14.33 32-32C336 350.3 321.7 336 304 336zM304 384C295.2 384 288 376.8 288 368S295.2 352 304 352s16 7.178 16 16S312.8 384 304 384zM591.4 290.1l-30.13-90.39C553.4 175.1 531.2 160 506.2 160h-148.4c-25.03 0-47.19 15.95-55.09 39.7l-30.13 90.39C244.8 297 224 322 224 352v43.34c0 21.7 13.21 40.36 32 48.41V504C256 508.4 259.6 512 264 512s8-3.582 8-8v-56.47C273.6 447.7 275.1 448 276.7 448h310.7c1.594 0 3.098-.332 4.656-.4707V504c0 4.418 3.582 8 8 8S608 508.4 608 504v-60.24c18.79-8.051 32-26.71 32-48.41V352C640 322 619.2 297 591.4 290.1zM317.9 204.8C323.6 187.6 339.7 176 357.8 176h148.4c18.12 0 34.19 11.56 39.91 28.77L573.8 288H290.2L317.9 204.8zM624 395.3C624 415.6 607.6 432 587.3 432H276.7C256.4 432 240 415.6 240 395.3V352c0-26.47 21.53-48 48-48h288c26.47 0 48 21.53 48 48V395.3z"/></svg>