<svg xmlns="http://www.w3.org/2000/svg" viewBox="0 0 576 512"><!--! Font Awesome Pro 6.0.0-alpha3 by @fontawesome - https://fontawesome.com License - https://fontawesome.com/license (Commercial License) --><path d="M464.1 416c-53.94 0-100.1 36.3-111.9 86.3c-.9375 4.312 1.781 8.578 6.125 9.516C358.9 511.9 359.4 512 360 512c3.688 0 7-2.547 7.812-6.297C377.1 463 417.6 432 464.1 432c46.53 0 86.97 30.98 96.13 73.67c.9062 4.344 5.312 6.953 9.5 6.156c4.312-.9375 7.062-5.188 6.125-9.5C565.1 452.3 518.1 416 464.1 416zM463.1 287.2l26.13 63.1c1.281 3.078 4.25 4.938 7.391 4.938c1.016 0 2.062-.1875 3.062-.6094c4.078-1.688 6.016-6.375 4.328-10.45l-27.24-65.79c13.66-12.57 18.87-32.67 11.35-50.82l-34.84-84.12c-9.682-23.38-32.29-37.49-56.11-37.49c-5.051 0-10.13 .8906-15.18 2.205l-73.21-84.42c-19.38-22.39-50.77-29.78-78.19-18.47L64.39 74.08C37.03 85.42 20.05 112.9 22.16 142.4l7.92 111.5c-25.7 15.1-37.17 47.01-25.44 75.33l34.84 84.12c7.262 17.53 24.21 28.12 42.08 28.12c.6289 0 1.264-.1602 1.895-.1855l27.25 65.77C111.1 510.1 114.1 512 118.1 512c1.016 0 2.062-.1875 3.062-.6094c4.078-1.688 6.016-6.375 4.328-10.45l-26.14-63.09L463.1 287.2zM70.52 88.86l166.2-68.84c21.02-8.688 45.13-2.969 59.97 14.16l69.16 79.74L45.6 246.6L38.13 141.3C36.5 118.6 49.52 97.56 70.52 88.86zM81.56 425.5c-11.99 0-22.71-7.158-27.3-18.24l-34.84-84.12C9.986 300.3 20.84 274.1 43.61 264.7L380.1 125.3c5.477-2.27 11.22-3.42 17.08-3.42c18.16 0 34.38 10.84 41.32 27.61l34.84 84.12c6.23 15.04-.9375 32.35-15.98 38.58L92.84 423.2C89.22 424.7 85.43 425.5 81.56 425.5zM376.7 178.3c-4.84 0-9.756 .9316-14.5 2.898c-19.36 8.018-28.55 30.21-20.53 49.57c6.053 14.61 20.18 23.43 35.07 23.43c4.838 0 9.756-.9297 14.5-2.896c19.36-8.018 28.55-30.21 20.53-49.57C405.7 187.1 391.5 178.3 376.7 178.3zM396.9 224.6c-2.242 5.414-6.459 9.633-11.87 11.88c-2.691 1.113-5.51 1.68-8.379 1.68c-8.914 0-16.88-5.32-20.29-13.55c-4.631-11.18 .6953-24.04 11.87-28.66c2.689-1.115 5.51-1.68 8.381-1.68c8.91 0 16.87 5.32 20.28 13.55C399.2 213.2 399.2 219.2 396.9 224.6zM110.3 288.6c-4.838 0-9.754 .9316-14.5 2.898c-19.36 8.018-28.55 30.21-20.53 49.57c6.053 14.61 20.18 23.43 35.07 23.43c4.838 0 9.756-.9297 14.5-2.896c19.36-8.018 28.55-30.21 20.53-49.57C139.3 297.4 125.2 288.6 110.3 288.6zM118.7 346.8c-2.691 1.113-5.51 1.68-8.379 1.68c-8.912 0-16.88-5.32-20.29-13.55C85.39 323.8 90.72 310.9 101.9 306.3c2.691-1.115 5.51-1.68 8.379-1.68c8.914 0 16.88 5.32 20.29 13.55C135.2 329.3 129.9 342.2 118.7 346.8z"/></svg>