<svg xmlns="http://www.w3.org/2000/svg" viewBox="0 0 512 512"><!--! Font Awesome Pro 6.0.0-alpha3 by @fontawesome - https://fontawesome.com License - https://fontawesome.com/license (Commercial License) --><path d="M104 256C81.91 256 64 273.9 64 296c0 22.09 17.91 40 40 40S144 318.1 144 296C144 273.9 126.1 256 104 256zM104 320c-13.23 0-23.1-10.77-23.1-24c0-13.23 10.76-24 23.1-24s23.1 10.77 23.1 24C128 309.2 117.2 320 104 320zM408 256c-22.09 0-40 17.91-40 40c0 22.09 17.91 40 40 40S448 318.1 448 296C448 273.9 430.1 256 408 256zM407.1 320c-13.23 0-23.1-10.77-23.1-24c0-13.23 10.76-24 23.1-24s23.1 10.77 23.1 24C431.1 309.2 421.2 320 407.1 320zM454.8 195.7l-35.61-112.2C409.4 52.7 381.9 32 350.8 32H161.2C130.1 32 102.6 52.7 92.83 83.53l-35.61 112.2C24.21 205.6 0 235.8 0 272v200C0 476.4 3.582 480 8 480s8-3.582 8-8V400h480v72c0 4.418 3.582 8 8 8S512 476.4 512 472V272C512 235.8 487.8 205.6 454.8 195.7zM108.1 88.38C115.7 64.22 137.1 48 161.2 48h189.7c24.09 0 45.42 16.22 53.08 40.38l33.06 104.1C435.3 192.4 433.7 192 432 192h-352C78.29 192 76.7 192.4 75.02 192.5L108.1 88.38zM496 384h-480V272c0-35.29 28.71-64 64-64h352c35.29 0 64 28.71 64 64V384z"/></svg>