<svg xmlns="http://www.w3.org/2000/svg" viewBox="0 0 640 512"><!--! Font Awesome Pro 6.0.0-alpha3 by @fontawesome - https://fontawesome.com License - https://fontawesome.com/license (Commercial License) --><path d="M632 400h-60.9C573.9 395.2 576 389.1 576 384V192c0-88.37-71.63-160-160-160H64C28.65 32 0 60.65 0 96v256c0 35.35 28.65 64 64 64h32c0 53.02 42.98 96 96 96s96-42.98 96-96h344c4.422 0 8-3.578 8-8S636.4 400 632 400zM192 496c-44.11 0-80-35.89-80-80s35.89-80 80-80s80 35.89 80 80S236.1 496 192 496zM560 384c0 8.822-7.178 16-16 16H286.4C278.7 354.6 239.5 320 192 320s-86.73 34.64-94.39 80H64c-26.47 0-48-21.53-48-48V96c0-26.47 21.53-48 48-48h352c79.4 0 144 64.6 144 144V384zM224 128H96C78.33 128 64 142.3 64 160v64c0 17.67 14.33 32 32 32h128c17.67 0 32-14.33 32-32V160C256 142.3 241.7 128 224 128zM240 224c0 8.822-7.178 16-16 16H96C87.18 240 80 232.8 80 224V160c0-8.822 7.178-16 16-16h128c8.822 0 16 7.178 16 16V224zM416 128h-64c-17.67 0-32 14.33-32 32v64c0 17.67 14.33 32 32 32h64c17.67 0 32-14.33 32-32V160C448 142.3 433.7 128 416 128zM432 224c0 8.822-7.178 16-16 16h-64c-8.822 0-16-7.178-16-16V160c0-8.822 7.178-16 16-16h64c8.822 0 16 7.178 16 16V224z"/></svg>