<svg xmlns="http://www.w3.org/2000/svg" viewBox="0 0 640 512"><!--! Font Awesome Pro 6.0.0-alpha3 by @fontawesome - https://fontawesome.com License - https://fontawesome.com/license (Commercial License) --><path d="M560 336c-17.67 0-32 14.33-32 32c0 17.67 14.33 32 32 32s32-14.33 32-32C592 350.3 577.7 336 560 336zM560 384c-8.822 0-16-7.178-16-16s7.178-16 16-16s16 7.178 16 16S568.8 384 560 384zM304 336c-17.67 0-32 14.33-32 32c0 17.67 14.33 32 32 32s32-14.33 32-32C336 350.3 321.7 336 304 336zM304 384C295.2 384 288 376.8 288 368S295.2 352 304 352s16 7.178 16 16S312.8 384 304 384zM591.4 290.1l-30.13-90.38C553.4 175.1 531.2 160 506.2 160h-148.4c-25.03 0-47.17 15.95-55.09 39.7L272.6 290.1C244.8 297 224 322 224 352v43.34c0 21.7 13.21 40.36 32 48.41V504C256 508.4 259.6 512 264 512s8-3.582 8-8v-56.47C273.6 447.7 275.1 448 276.7 448h310.7c1.594 0 3.098-.332 4.656-.4707V504c0 4.418 3.582 8 8 8S608 508.4 608 504v-60.24c18.79-8.051 32-26.71 32-48.41V352C640 322 619.2 297 591.4 290.1zM317.9 204.8C323.6 187.6 339.7 176 357.8 176h148.4c18.14 0 34.17 11.56 39.91 28.77L573.8 288H290.2L317.9 204.8zM624 395.3C624 415.6 607.6 432 587.3 432H276.7C256.4 432 240 415.6 240 395.3V352c0-26.47 21.53-48 48-48h288c26.47 0 48 21.53 48 48V395.3zM48 208c0 17.67 14.33 32 32 32s32-14.33 32-32c0-17.67-14.33-32-32-32S48 190.3 48 208zM96 208C96 216.8 88.82 224 80 224S64 216.8 64 208S71.18 192 80 192S96 199.2 96 208zM208 272H52.66C32.44 272 16 255.6 16 235.3V192c0-26.47 21.53-48 48-48h208c4.422 0 8-3.578 8-8S276.4 128 272 128H66.16l27.74-83.23C99.64 27.56 115.7 16 133.8 16h148.4c18.14 0 34.17 11.56 39.91 28.77l23.25 69.77c1.422 4.203 5.953 6.5 10.12 5.062c4.188-1.406 6.453-5.938 5.062-10.12l-23.25-69.77C329.4 15.95 307.2 0 282.2 0H133.8C108.8 0 86.64 15.95 78.72 39.7L48.59 130.1C20.76 137 0 162 0 192v43.34c0 21.7 13.21 40.36 32 48.41V344C32 348.4 35.58 352 40 352s8-3.582 8-8V287.5C49.56 287.7 51.06 288 52.66 288H208c4.422 0 8-3.578 8-8S212.4 272 208 272z"/></svg>