<svg xmlns="http://www.w3.org/2000/svg" viewBox="0 0 640 512"><!--! Font Awesome Pro 6.0.0-alpha3 by @fontawesome - https://fontawesome.com License - https://fontawesome.com/license (Commercial License) --><path d="M527.1 416c-26.51 0-47.1 21.49-47.1 48s21.49 48 47.1 48c26.51 0 48-21.49 48-48S554.5 416 527.1 416zM527.1 496c-17.64 0-31.1-14.36-31.1-32s14.35-32 31.1-32s32 14.36 32 32S545.6 496 527.1 496zM635.2 73.69C630.7 67.53 623.6 64 615.1 64H150.9L135.7 5.984C134.8 2.453 131.7 0 127.1 0H72C67.59 0 64 3.578 64 8S67.59 16 72 16h49.81l94.44 362C217.2 381.5 220.3 384 224 384h343.1c4.406 0 8-3.578 8-8s-3.594-8-8-8H230.2L217.7 320h324c17.81 0 33.22-11.45 38.31-28.52l58.97-196.6C641.2 87.56 639.8 79.83 635.2 73.69zM564.7 286.9C561.6 296.1 552.2 304 541.7 304H213.5L155.1 80h460.9c2.562 0 4.906 1.172 6.406 3.219c1.531 2.047 1.969 4.625 1.25 7.078L564.7 286.9zM239.1 416c-26.51 0-47.1 21.49-47.1 48S213.5 512 239.1 512s47.1-21.49 47.1-48S266.5 416 239.1 416zM239.1 496c-17.64 0-32-14.36-32-32s14.36-32 32-32s32 14.36 32 32S257.6 496 239.1 496zM8 144h112C124.4 144 128 140.4 128 136S124.4 128 120 128h-112C3.582 128 0 131.6 0 136S3.582 144 8 144zM8 208h128c4.418 0 8-3.582 8-8S140.4 192 136 192h-128C3.582 192 0 195.6 0 200S3.582 208 8 208zM152 256h-144C3.582 256 0 259.6 0 264S3.582 272 8 272h144C156.4 272 160 268.4 160 264S156.4 256 152 256z"/></svg>