<svg xmlns="http://www.w3.org/2000/svg" viewBox="0 0 576 512"><!--! Font Awesome Pro 6.0.0-alpha3 by @fontawesome - https://fontawesome.com License - https://fontawesome.com/license (Commercial License) --><path d="M176 416c-26.51 0-47.1 21.49-47.1 48S149.5 512 176 512s47.1-21.49 47.1-48S202.5 416 176 416zM176 496c-17.64 0-31.1-14.36-31.1-32s14.36-32 31.1-32s31.1 14.36 31.1 32S193.6 496 176 496zM463.1 416c-26.51 0-47.1 21.49-47.1 48s21.49 48 47.1 48c26.51 0 47.1-21.49 47.1-48S490.5 416 463.1 416zM463.1 496c-17.64 0-31.1-14.36-31.1-32s14.36-32 31.1-32s31.1 14.36 31.1 32S481.6 496 463.1 496zM571 73.38C566.4 67.42 559.5 64 551.1 64H100.4L87.81 6.297C87.02 2.625 83.77 0 80 0H8.001C3.579 0 .0009 3.578 .0009 8S3.579 16 8.001 16h65.55l78.64 361.7C152.1 381.4 156.2 384 160 384H503.1c4.422 0 8-3.578 8-8s-3.578-8-8-8H166.5L156 320h328.2c18.09 0 33.98-12.2 38.66-29.69l52.3-196.1C577.1 86.92 575.6 79.34 571 73.38zM507.4 286.2C504.6 296.7 495.1 304 484.2 304H152.5l-48.7-224h448.1c2.5 0 4.812 1.141 6.344 3.125c1.531 1.984 2.031 4.516 1.391 6.938L507.4 286.2zM391.1 184h-55.1V128c0-4.422-3.578-8-7.1-8S320 123.6 320 128l-.0045 56H264C259.6 184 256 187.6 256 192s3.575 8 7.996 8h55.1L320 256c0 4.422 3.574 8 7.996 8s7.1-3.578 7.1-8V200h55.1c4.422 0 7.1-3.578 7.1-8S396.4 184 391.1 184z"/></svg>