<svg xmlns="http://www.w3.org/2000/svg" viewBox="0 0 576 512"><!--! Font Awesome Pro 6.0.0-alpha3 by @fontawesome - https://fontawesome.com License - https://fontawesome.com/license (Commercial License) --><path d="M175.1 416c-26.51 0-47.1 21.49-47.1 48S149.5 512 175.1 512s47.1-21.49 47.1-48S202.5 416 175.1 416zM175.1 496c-17.64 0-31.1-14.36-31.1-32s14.36-32 31.1-32s31.1 14.36 31.1 32S193.6 496 175.1 496zM571.2 73.69C566.7 67.53 559.6 64 551.1 64H86.88L71.75 5.984C70.81 2.453 67.65 0 63.1 0H7.1C3.594 0 0 3.578 0 8S3.594 16 7.1 16h49.81l94.44 362C153.2 381.5 156.3 384 160 384h343.1c4.406 0 7.1-3.578 7.1-8s-3.594-8-7.1-8H166.2L153.7 320H477.7c17.81 0 33.22-11.45 38.31-28.52l58.97-196.6C577.2 87.56 575.8 79.83 571.2 73.69zM500.7 286.9C497.6 296.1 488.2 304 477.7 304H149.5l-58.44-224h460.9c2.562 0 4.906 1.172 6.406 3.219c1.531 2.047 1.969 4.625 1.25 7.078L500.7 286.9zM463.1 416c-26.51 0-47.1 21.49-47.1 48s21.49 48 47.1 48c26.51 0 47.1-21.49 47.1-48S490.5 416 463.1 416zM463.1 496c-17.64 0-31.1-14.36-31.1-32s14.36-32 31.1-32c17.64 0 31.1 14.36 31.1 32S481.6 496 463.1 496z"/></svg>