<svg xmlns="http://www.w3.org/2000/svg" viewBox="0 0 576 512"><!--! Font Awesome Pro 6.0.0-alpha3 by @fontawesome - https://fontawesome.com License - https://fontawesome.com/license (Commercial License) --><path d="M176 416c-26.51 0-47.1 21.49-47.1 48S149.5 512 176 512s47.1-21.49 47.1-48S202.5 416 176 416zM176 496c-17.64 0-31.1-14.36-31.1-32s14.36-32 31.1-32s31.1 14.36 31.1 32S193.6 496 176 496zM463.1 416c-26.51 0-47.1 21.49-47.1 48s21.49 48 47.1 48c26.51 0 47.1-21.49 47.1-48S490.5 416 463.1 416zM463.1 496c-17.64 0-31.1-14.36-31.1-32s14.36-32 31.1-32s31.1 14.36 31.1 32S481.6 496 463.1 496zM571 73.38C566.4 67.42 559.5 64 551.1 64H100.4L87.81 6.297C87.02 2.625 83.77 0 80 0H8.001C3.579 0 .0009 3.578 .0009 8S3.579 16 8.001 16h65.55l78.64 361.7C152.1 381.4 156.2 384 160 384H503.1c4.422 0 8-3.578 8-8s-3.578-8-8-8H166.5L156 320h328.2c18.09 0 33.98-12.2 38.66-29.69l52.3-196.1C577.1 86.92 575.6 79.34 571 73.38zM507.4 286.2C504.6 296.7 495.1 304 484.2 304H152.5l-48.7-224h448.1c2.5 0 4.812 1.141 6.344 3.125c1.531 1.984 2.031 4.516 1.391 6.938L507.4 286.2zM378.9 231.6l-39.6-39.6l39.6-39.6c3.127-3.127 3.127-8.187 0-11.31c-3.127-3.127-8.187-3.127-11.31 0l-39.6 39.6l-39.6-39.6C285.3 137.1 280.2 137.1 277.1 141.1s-3.127 8.187 0 11.31l39.6 39.6L277.1 231.6c-3.127 3.127-3.127 8.187 0 11.31c3.127 3.127 8.187 3.127 11.31 0l39.6-39.6l39.6 39.6c3.127 3.127 8.187 3.127 11.31 0S382 234.7 378.9 231.6z"/></svg>