<svg xmlns="http://www.w3.org/2000/svg" viewBox="0 0 512 512"><!--! Font Awesome Pro 6.0.0-alpha3 by @fontawesome - https://fontawesome.com License - https://fontawesome.com/license (Commercial License) --><path d="M160 320c-8.836 0-16 7.162-16 16C144 344.8 151.2 352 160 352s16-7.164 16-16C176 327.2 168.8 320 160 320zM208 256C199.2 256 192 263.2 192 272C192 280.8 199.2 288 208 288S224 280.8 224 272C224 263.2 216.8 256 208 256zM272 56h-192C75.58 56 72 59.58 72 64S75.58 72 80 72h192c4.422 0 8-3.578 8-8S276.4 56 272 56zM112 256C103.2 256 96 263.2 96 272C96 280.8 103.2 288 112 288S128 280.8 128 272C128 263.2 120.8 256 112 256zM304 256C295.2 256 288 263.2 288 272C288 280.8 295.2 288 304 288S320 280.8 320 272C320 263.2 312.8 256 304 256zM256 320c-8.836 0-16 7.162-16 16c0 8.836 7.164 16 16 16s16-7.164 16-16C272 327.2 264.8 320 256 320zM511.3 378.8l-26.81-160c-2.625-15.38-15.81-26.63-31.56-26.63L184 192v-64.16l120.1 .1201c8.836 0 15.1-7.164 15.1-16V16c0-8.838-7.164-16-15.1-16H48.06c-8.836 0-15.1 7.162-15.1 16v95.94c0 8.836 7.164 16 15.1 16L168 127.9v64.16L59.24 192c-15.62 0-28.99 11.25-31.61 26.75L.875 378.8C.375 382.3 0 385.8 0 389.3V480c0 17.75 14.37 32 31.1 32H479.1c17.75 0 31.1-14.25 31.1-32l-.0052-90.75C512.1 385.8 511.9 382.3 511.3 378.8zM48 111.9V16h256v95.88H48zM16.66 381.4l26.74-159.1c1.316-7.777 7.982-13.42 15.85-13.42l393.6 .125c7.869 0 14.54 5.602 15.84 13.26l26.78 160.2c.1328 .752 .0762 1.666 .1582 2.438H16.44C16.54 383.2 16.54 382.2 16.66 381.4zM495.1 480c0 8.971-7.027 16-16 16H32c-8.822 0-16-7.178-16-16v-79.99h479.1V480zM400 256C391.2 256 384 263.2 384 272C384 280.8 391.2 288 400 288S416 280.8 416 272C416 263.2 408.8 256 400 256zM352 320c-8.836 0-16 7.162-16 16c0 8.836 7.164 16 16 16s16-7.164 16-16C368 327.2 360.8 320 352 320z"/></svg>