<svg xmlns="http://www.w3.org/2000/svg" viewBox="0 0 640 512"><!--! Font Awesome Pro 6.0.0-alpha3 by @fontawesome - https://fontawesome.com License - https://fontawesome.com/license (Commercial License) --><path d="M608 160l-32 .0072c-17.67 0-32 14.32-32 31.99v32l-32 .0058V32c0-17.67-14.33-32-32-32h-40c-17.67 0-32 14.33-32 32v32h-32V32c0-17.67-14.33-32-32-32h-48c-17.67 0-32 14.33-32 32v32h-32V32c0-17.67-14.33-32-32-32H160C142.3 0 128 14.33 128 32v192L96 224V192c0-17.67-14.33-31.99-32-31.99L32 160C14.33 160 0 174.3 0 192v256c0 35.35 28.65 64 64 64h512c35.35 0 64-28.65 64-64V192C640 174.3 625.7 160 608 160zM144 32c0-8.822 7.178-16 16-16h40c8.822 0 16 7.178 16 16v48h64V32c0-8.822 7.178-16 16-16h48c8.822 0 16 7.178 16 16v48h64V32c0-8.822 7.178-16 16-16H480c8.822 0 16 7.178 16 16v192h-352V32zM256 496v-111.1c0-35.35 28.65-64 64-64s64 28.65 64 64V496H256zM624 448c0 26.47-21.53 48-48 48h-176V384c0-44.11-35.89-80-80-80S240 339.9 240 384v112H64c-26.47 0-48-21.53-48-48V192c0-8.822 7.178-16 16-16h32c8.822 0 16 7.178 16 16v48h480V192c0-8.822 7.178-16 16-16h32c8.822 0 16 7.178 16 16V448z"/></svg>