<svg xmlns="http://www.w3.org/2000/svg" viewBox="0 0 448 512"><!--! Font Awesome Pro 6.0.0-alpha3 by @fontawesome - https://fontawesome.com License - https://fontawesome.com/license (Commercial License) --><path d="M393.4 176H440C444.4 176 448 172.4 448 168S444.4 160 440 160H8C3.578 160 0 163.6 0 168S3.578 176 8 176h46.65C20.75 239.2 0 308.6 0 352c0 33.4 11.83 62.79 32.37 87.1C32.33 439.4 32 439.6 32 440v64C32 508.4 35.58 512 40 512s8-3.578 8-8v-48.75C88.3 491.1 150.9 512 224 512s135.7-20.95 176-56.75V504c0 4.422 3.578 8 8 8S416 508.4 416 504v-64c0-.3516-.3301-.5605-.373-.9004C436.2 414.8 448 385.4 448 352C448 308.6 427.3 239.2 393.4 176zM224 496c-122.5 0-208-59.21-208-144c0-44.57 23.07-115.8 56.67-176h302.7C408.9 236.2 432 307.4 432 352C432 436.8 346.5 496 224 496zM160 64c17.67 0 32-14.33 32-32c0-17.67-14.33-32-32-32S128 14.33 128 32C128 49.67 142.3 64 160 64zM160 16c8.822 0 16 7.178 16 16S168.8 48 160 48S144 40.82 144 32S151.2 16 160 16zM272 128C298.5 128 320 106.5 320 80S298.5 32 272 32S224 53.49 224 80S245.5 128 272 128zM272 48c17.64 0 32 14.36 32 32s-14.36 32-32 32s-32-14.36-32-32S254.4 48 272 48z"/></svg>