<svg xmlns="http://www.w3.org/2000/svg" viewBox="0 0 320 512"><!--! Font Awesome Pro 6.0.0-alpha3 by @fontawesome - https://fontawesome.com License - https://fontawesome.com/license (Commercial License) --><path d="M306.1 392.5c-31.48 25.37-69.15 37.78-106.1 38.96V80.57c37.83 1.188 75.5 13.6 106.1 38.96c3.391 2.75 8.453 2.219 11.25-1.188c2.766-3.438 2.219-8.5-1.219-11.25C282.6 79.31 241.4 65.77 200 64.58V8c0-4.406-3.579-8-8.001-8c-4.422 0-7.999 3.594-7.999 8v56.05c-46.32 2.461-91.78 21.32-127 56.17C20.23 156.5-.0003 204.7-.0003 256s20.23 99.53 56.95 135.8c35.26 34.83 80.74 53.01 127 55.48V504c0 4.406 3.577 8 7.999 8c4.422 0 8.001-3.594 8.001-8v-56.22c41.37-1.191 82.6-15.11 117-42.88c3.438-2.75 3.984-7.812 1.219-11.25C315.4 390.3 310.4 389.7 306.1 392.5zM68.2 380.4C34.55 347.2 15.1 303 15.1 256s18.55-91.16 52.2-124.4c32.16-31.77 73.57-48.98 115.8-51.41v351.6C141.8 429.4 100.4 412.2 68.2 380.4z"/></svg>