<svg xmlns="http://www.w3.org/2000/svg" viewBox="0 0 320 512"><!--! Font Awesome Pro 6.0.0-alpha3 by @fontawesome - https://fontawesome.com License - https://fontawesome.com/license (Commercial License) --><path d="M318.2 393.7c2.781 3.438 2.25 8.469-1.188 11.25C282.6 432.7 241.4 446.6 200 447.8V504c0 4.422-3.594 8-8 8s-8-3.578-8-8v-56.76c-46.3-2.459-91.79-20.62-127.1-55.45C20.22 355.5 0 307.3 0 256s20.22-99.53 56.94-135.8C92.22 85.35 137.7 66.52 184 64.07V8C184 3.578 187.6 0 192 0s8 3.578 8 8v56.61c41.38 1.197 82.6 14.74 117 42.49c3.438 2.781 3.969 7.812 1.188 11.25c-2.75 3.453-7.781 3.953-11.25 1.219c-71.06-57.33-173.7-52.19-238.8 12.02C34.53 164.8 16 209 16 256s18.53 91.17 52.19 124.4c65.06 64.23 167.8 69.36 238.8 12.02C310.4 389.7 315.5 390.2 318.2 393.7z"/></svg>