<svg xmlns="http://www.w3.org/2000/svg" viewBox="0 0 512 512"><!--! Font Awesome Pro 6.0.0-alpha3 by @fontawesome - https://fontawesome.com License - https://fontawesome.com/license (Commercial License) --><path d="M186.3 261.7c3.125 3.125 8.188 3.125 11.31 0l90.34-90.34L452.7 336h-100.7c-4.406 0-8 3.578-8 8s3.594 8 8 8h120c4.406 0 8-3.578 8-8V224c0-4.422-3.594-8-8-8s-8 3.578-8 8v100.7l-170.3-170.3c-3.125-3.125-8.188-3.125-11.31 0L192 244.7L109.7 162.3C108.1 160.8 106.1 159.1 104 159.1S99.91 160.8 98.34 162.3c-3.125 3.125-3.125 8.188 0 11.31L186.3 261.7zM504 464H72c-30.88 0-56-25.12-56-56V40C16 35.59 12.41 32 8 32S0 35.59 0 40v368C0 447.7 32.31 480 72 480h432c4.406 0 8-3.594 8-8S508.4 464 504 464z"/></svg>