<svg xmlns="http://www.w3.org/2000/svg" viewBox="0 0 512 512"><!--! Font Awesome Pro 6.0.0-alpha3 by @fontawesome - https://fontawesome.com License - https://fontawesome.com/license (Commercial License) --><path d="M103.1 320c2.062 0 4.094-.7813 5.656-2.344L192 235.3l90.34 90.34c3.125 3.125 8.188 3.125 11.31 0L464 155.3V256c0 4.422 3.594 8 8 8S480 260.4 480 256V136C480 131.6 476.4 128 472 128H352c-4.406 0-8 3.578-8 8S347.6 144 352 144h100.7L288 308.7L197.7 218.3c-3.125-3.125-8.188-3.125-11.31 0L98.34 306.3c-3.125 3.125-3.125 8.188 0 11.31C99.9 319.2 101.9 320 103.1 320zM504 464H72c-30.88 0-56-25.12-56-56V40C16 35.59 12.41 32 8 32S0 35.59 0 40v368C0 447.7 32.31 480 72 480h432c4.406 0 8-3.594 8-8S508.4 464 504 464z"/></svg>