<svg xmlns="http://www.w3.org/2000/svg" viewBox="0 0 512 512"><!--! Font Awesome Pro 6.0.0-alpha3 by @fontawesome - https://fontawesome.com License - https://fontawesome.com/license (Commercial License) --><path d="M0 320v96c0 17.6 14.4 32 32 32h192V288H32C14.4 288 0 302.4 0 320zM208 432H32c-8.822 0-16-7.178-16-16v-96c0-8.822 7.178-16 16-16h176V432zM480 288h-96V280c0-4.42-3.582-8-8-8S368 275.6 368 280V288H256v16h112v128H256V448h112v8c0 4.418 3.582 8 8 8S384 460.4 384 456V448h96c17.6 0 32-14.4 32-32v-96C512 302.4 497.6 288 480 288zM496 416c0 8.822-7.178 16-16 16h-96v-128h96c8.822 0 16 7.178 16 16V416zM32 224h96V64H32C14.4 64 0 78.4 0 96v96C0 209.6 14.4 224 32 224zM16 96c0-8.822 7.178-16 16-16h80v128H32C23.18 208 16 200.8 16 192V96zM480 64h-192V56c0-4.42-3.582-8-8-8S272 51.58 272 56V64H160v16h112v128H160V224h112v8c0 4.418 3.582 8 8 8S288 236.4 288 232V224h192c17.6 0 32-14.4 32-32V96C512 78.4 497.6 64 480 64zM496 192c0 8.822-7.178 16-16 16h-192v-128h192c8.822 0 16 7.178 16 16V192z"/></svg>