<svg xmlns="http://www.w3.org/2000/svg" viewBox="0 0 512 512"><!--! Font Awesome Pro 6.0.0-alpha3 by @fontawesome - https://fontawesome.com License - https://fontawesome.com/license (Commercial License) --><path d="M461.2 288H223.1V50.77c0-8.937-7.173-16.26-15.81-16.26c-.666 0-1.386 .0486-2.065 .1384C87.12 51.52-4.001 155.4 .1234 280.1c4.125 123.1 107.7 227.6 231.7 231.7C234.6 511.1 237.3 512 239.1 512c121.1 0 220.8-89.72 237.4-206.1C478.6 296.4 470.8 288 461.2 288zM240 496c-2.521 0-5.066-.043-7.603-.127c-115.4-3.84-212.4-100.9-216.3-216.3c-3.785-114.5 78.76-212.9 191.9-229.1L207.1 288c0 8.835 7.164 15.1 15.1 15.1l237.5-.3711C445.1 413.3 350.7 496 240 496zM288.8 .027C288.4 .0016 288.1 0 287.8 0c-8.677 0-15.77 7.46-15.77 16.27l.0079 207.7c0 8.835 7.164 15.1 15.1 15.1l207.7-.0011c9.167 0 16.88-7.63 16.25-16.78C503.7 103.8 408.2 8.323 288.8 .027zM287.1 224l.1075-207.1c110.8 7.923 200.3 97.37 207.8 207.1L287.1 224z"/></svg>