<svg xmlns="http://www.w3.org/2000/svg" viewBox="0 0 512 512"><!--! Font Awesome Pro 6.0.0-alpha3 by @fontawesome - https://fontawesome.com License - https://fontawesome.com/license (Commercial License) --><path d="M144 176h224C376.8 176 384 168.8 384 160V128c0-8.859-7.172-16-16-16h-224C135.2 112 128 119.1 128 128v32C128 168.8 135.2 176 144 176zM144 128h224v32h-224V128zM144 368h288c8.828 0 16-7.172 16-16v-32c0-8.859-7.172-16-16-16h-288C135.2 304 128 311.1 128 320v32C128 360.8 135.2 368 144 368zM144 320h288v32h-288V320zM504 464H72c-30.88 0-56-25.12-56-56V40C16 35.58 12.42 32 8 32S0 35.58 0 40v368C0 447.7 32.31 480 72 480h432c4.422 0 8-3.578 8-8S508.4 464 504 464zM144 272h160C312.8 272 320 264.8 320 256V224c0-8.859-7.172-16-16-16h-160C135.2 208 128 215.1 128 224v32C128 264.8 135.2 272 144 272zM144 224h160v32h-160V224z"/></svg>