<svg xmlns="http://www.w3.org/2000/svg" viewBox="0 0 512 512"><!--! Font Awesome Pro 6.0.0-alpha3 by @fontawesome - https://fontawesome.com License - https://fontawesome.com/license (Commercial License) --><path d="M505.8 233.4l-105.4-179.2C392.3 40.52 377.5 32 361.4 32H150.6C134.5 32 119.7 40.52 111.6 54.17l-105.4 179.2c-8.234 14-8.234 31.27 0 45.27l105.4 179.2C119.7 471.5 134.5 480 150.6 480h210.8c16.12 0 30.94-8.518 39.05-22.17l105.4-179.2C514.1 264.6 514.1 247.4 505.8 233.4zM492 270.5l-105.3 179.1C381.4 458.5 371.7 464 361.4 464H150.6c-10.34 0-20.04-5.496-25.26-14.28l-105.4-179.2c-5.268-8.959-5.268-20.09 .002-29.04l105.3-179.1C130.6 53.5 140.3 48 150.6 48h210.8c10.35 0 20.04 5.496 25.26 14.28l105.4 179.2C497.3 250.4 497.3 261.6 492 270.5zM320 272c-3.479 0-6.855 .4141-10.13 1.121l-28.92-72.31C294.7 192.4 304 177.3 304 160c0-26.47-21.53-48-48-48S208 133.5 208 160c0 12.79 5.102 24.35 13.28 32.96l-39.42 52.55C175.3 242.1 167.9 240 160 240C133.5 240 112 261.5 112 288s21.53 48 48 48c20.43 0 37.79-12.88 44.71-30.9l67.43 13.49C272.1 319.1 272 319.5 272 320c0 26.47 21.53 48 48 48s48-21.53 48-48S346.5 272 320 272zM256 128c17.66 0 32 14.36 32 32s-14.34 32-32 32S224 177.6 224 160S238.3 128 256 128zM160 320c-17.66 0-32-14.36-32-32s14.34-32 32-32s32 14.36 32 32S177.7 320 160 320zM275.3 302.9L207.9 289.4C207.9 288.9 208 288.5 208 288c0-12.78-5.1-24.35-13.28-32.96l39.41-52.56C240.7 205.9 248.1 208 256 208c3.479 0 6.855-.4141 10.12-1.121l28.93 72.31C286.1 284.7 279.1 292.1 275.3 302.9zM320 352c-17.66 0-32-14.36-32-32s14.34-32 32-32s32 14.36 32 32S337.7 352 320 352z"/></svg>