<svg xmlns="http://www.w3.org/2000/svg" viewBox="0 0 576 512"><!--! Font Awesome Pro 6.0.0-alpha3 by @fontawesome - https://fontawesome.com License - https://fontawesome.com/license (Commercial License) --><path d="M344 496H8C3.594 496 0 499.6 0 504S3.594 512 8 512h336c4.406 0 8-3.578 8-8S348.4 496 344 496zM560 128h-24V72C536 67.58 532.4 64 528 64s-8 3.578-8 8V128h-48V72C472 67.58 468.4 64 464 64s-8 3.578-8 8V128H432C423.2 128 416 135.2 416 144v32c0 41.55 31.8 75.31 72.32 79.23C488.3 255.5 488 255.7 488 256v132c0 24.27-19.75 44-44 44S400 412.3 400 388V344c0-39.7-32.31-72-72-72H320V72C320 32.3 287.7 0 248 0h-144C64.31 0 32 32.3 32 72V464c0 4.422 3.594 8 8 8S48 468.4 48 464V72c0-30.88 25.12-56 56-56h144c30.88 0 56 25.12 56 56V464c0 4.422 3.594 8 8 8S320 468.4 320 464V288h8C358.9 288 384 313.1 384 344v44C384 421.1 410.9 448 444 448s60-26.92 60-60V256c0-.3027-.2891-.4805-.3203-.7734C544.2 251.3 576 217.6 576 176v-32C576 135.2 568.8 128 560 128zM560 176c0 35.29-28.71 64-64 64s-64-28.71-64-64v-32h128V176zM162.5 96.4c-4.109-1.344-8.703 .875-10.12 5.062l-32 96C119.6 199.9 120 202.6 121.5 204.7C123 206.7 125.4 207.1 128 207.1h83.88L168.6 308.8C166.9 312.9 168.8 317.6 172.8 319.3C173.9 319.8 174.9 319.1 176 319.1c3.094 0 6.047-1.812 7.359-4.844l48-112C232.4 200.7 232.2 197.8 230.7 195.6C229.2 193.3 226.7 191.1 224 191.1L139.1 191.1l28.5-85.47C168.1 102.3 166.7 97.8 162.5 96.4z"/></svg>