<svg xmlns="http://www.w3.org/2000/svg" viewBox="0 0 512 512"><!--! Font Awesome Pro 6.0.0-alpha3 by @fontawesome - https://fontawesome.com License - https://fontawesome.com/license (Commercial License) --><path d="M399.1 384h32c8.836 0 16.01-7.164 16.01-16l-.0068-256c0-8.838-7.157-16-15.99-16h-32.01c-8.836 0-16 7.162-16 16v256C383.1 376.8 391.2 384 399.1 384zM399.1 112h32v256h-32V112zM207.1 384h32c8.836 0 16.01-7.164 16.01-16l-.0068-224c0-8.838-7.157-16-15.99-16H207.1c-8.836 0-16 7.162-16 16v224C191.1 376.8 199.2 384 207.1 384zM207.1 144h32v224h-32V144zM111.1 384h32c8.836 0 16.01-7.164 16.01-16l-.0068-96c0-8.838-7.157-16-15.99-16H111.1c-8.836 0-16 7.162-16 16v96C95.99 376.8 103.2 384 111.1 384zM111.1 272h32v96h-32V272zM303.1 384h32c8.836 0 16.01-7.164 16.01-16l-.0068-160c0-8.838-7.157-16-15.99-16h-32.01c-8.836 0-16 7.162-16 16v160C287.1 376.8 295.2 384 303.1 384zM303.1 208h32v160h-32V208zM504 464H72c-30.88 0-56-25.12-56-56V40C16 35.59 12.41 32 8 32S0 35.59 0 40v368C0 447.7 32.31 480 72 480h432c4.406 0 8-3.594 8-8S508.4 464 504 464z"/></svg>