<svg xmlns="http://www.w3.org/2000/svg" viewBox="0 0 512 512"><!--! Font Awesome Pro 6.0.0-alpha3 by @fontawesome - https://fontawesome.com License - https://fontawesome.com/license (Commercial License) --><path d="M72.01 416h400c4.406 0 8-3.578 8-8V288c0-1.766-.5938-3.484-1.656-4.875l-92.31-120c-3.062-3.938-9.625-3.938-12.69 0L302.2 255.6L201.3 130.1c-3.062-3.75-9.375-3.75-12.44 0l-123.1 152C64.64 284.4 64.01 286.2 64.01 288v120C64.01 412.4 67.61 416 72.01 416zM80.01 290.8l115.1-142.1l101.1 124.8c1.531 1.875 3.812 2.969 6.219 2.969c2.219-.2656 4.812-1.172 6.344-3.125l70.97-92.27l84.31 109.6V400h-384V290.8zM504 464H72c-30.88 0-56-25.12-56-56V40C16 35.59 12.41 32 8 32S0 35.59 0 40v368C0 447.7 32.31 480 72 480h432c4.406 0 8-3.594 8-8S508.4 464 504 464z"/></svg>