<svg xmlns="http://www.w3.org/2000/svg" viewBox="0 0 576 512"><!--! Font Awesome Pro 6.0.0-alpha3 by @fontawesome - https://fontawesome.com License - https://fontawesome.com/license (Commercial License) --><path d="M64 352H32c-17.67 0-32 14.33-32 32v96c0 17.67 14.33 32 32 32h32c17.67 0 32-14.33 32-32v-96C96 366.3 81.67 352 64 352zM80 480c0 8.822-7.178 16-16 16H32c-8.822 0-16-7.178-16-16v-96c0-8.822 7.178-16 16-16h32c8.822 0 16 7.178 16 16V480zM224 192H192C174.3 192 160 206.3 160 224v256c0 17.67 14.33 32 32 32h32c17.67 0 32-14.33 32-32V224C256 206.3 241.7 192 224 192zM240 480c0 8.822-7.178 16-16 16H192c-8.822 0-16-7.178-16-16V224c0-8.822 7.178-16 16-16h32c8.822 0 16 7.178 16 16V480zM384 320h-32c-17.67 0-32 14.33-32 32v128c0 17.67 14.33 32 32 32h32c17.67 0 32-14.33 32-32v-128C416 334.3 401.7 320 384 320zM400 480c0 8.822-7.178 16-16 16h-32c-8.822 0-16-7.178-16-16v-128c0-8.822 7.178-16 16-16h32c8.822 0 16 7.178 16 16V480zM544 192h-32c-17.67 0-32 14.33-32 32v256c0 17.67 14.33 32 32 32h32c17.67 0 32-14.33 32-32V224C576 206.3 561.7 192 544 192zM560 480c0 8.822-7.178 16-16 16h-32c-8.822 0-16-7.178-16-16V224c0-8.822 7.178-16 16-16h32c8.822 0 16 7.178 16 16V480zM496.2 83.7C504.7 91.26 515.7 96 528 96C554.5 96 576 74.51 576 48S554.5 0 528 0S480 21.49 480 48c0 8.455 2.375 16.28 6.213 23.18l-86.4 69.12C391.3 132.7 380.3 128 368 128s-23.33 4.736-31.81 12.3L249.8 71.18C253.6 64.28 256 56.46 256 48C256 21.49 234.5 0 208 0S160 21.49 160 48c0 10.36 3.359 19.9 8.943 27.74L75.74 168.9C67.9 163.4 58.36 160 48 160C21.49 160 0 181.5 0 208S21.49 256 48 256S96 234.5 96 208c0-10.36-3.359-19.9-8.943-27.74L180.3 87.06C188.1 92.64 197.6 96 208 96c12.26 0 23.33-4.736 31.81-12.3l86.4 69.12C322.4 159.7 320 167.5 320 176C320 202.5 341.5 224 368 224S416 202.5 416 176c0-8.455-2.375-16.28-6.213-23.18L496.2 83.7zM528 16c17.64 0 32 14.36 32 32s-14.36 32-32 32s-32-14.36-32-32S510.4 16 528 16zM48 240c-17.64 0-32-14.36-32-32s14.36-32 32-32s32 14.36 32 32S65.64 240 48 240zM208 80c-17.64 0-32-14.36-32-32s14.36-32 32-32s32 14.36 32 32S225.6 80 208 80zM368 208c-17.64 0-32-14.36-32-32s14.36-32 32-32s32 14.36 32 32S385.6 208 368 208z"/></svg>