<svg xmlns="http://www.w3.org/2000/svg" viewBox="0 0 512 512"><!--! Font Awesome Pro 6.0.0-alpha3 by @fontawesome - https://fontawesome.com License - https://fontawesome.com/license (Commercial License) --><path d="M32 96c17.67 0 32-14.33 32-32S49.67 32 32 32C14.33 32 0 46.33 0 64S14.33 96 32 96zM32 48c8.822 0 16 7.178 16 16S40.82 80 32 80S16 72.82 16 64S23.18 48 32 48zM64 256c0-17.67-14.33-32-32-32C14.33 224 0 238.3 0 256s14.33 32 32 32C49.67 288 64 273.7 64 256zM32 272C23.18 272 16 264.8 16 256S23.18 240 32 240S48 247.2 48 256S40.82 272 32 272zM128 192c17.67 0 32-14.33 32-32S145.7 128 128 128C110.3 128 96 142.3 96 160S110.3 192 128 192zM128 144c8.822 0 16 7.178 16 16S136.8 176 128 176S112 168.8 112 160S119.2 144 128 144zM384 96c17.67 0 32-14.33 32-32s-14.33-32-32-32s-32 14.33-32 32S366.3 96 384 96zM384 48c8.822 0 16 7.178 16 16S392.8 80 384 80S368 72.82 368 64S375.2 48 384 48zM480 128c-17.67 0-32 14.33-32 32s14.33 32 32 32s32-14.33 32-32S497.7 128 480 128zM480 176c-8.822 0-16-7.178-16-16s7.178-16 16-16s16 7.178 16 16S488.8 176 480 176zM384 288c17.67 0 32-14.33 32-32s-14.33-32-32-32s-32 14.33-32 32S366.3 288 384 288zM384 240c8.822 0 16 7.178 16 16S392.8 272 384 272S368 264.8 368 256S375.2 240 384 240zM256 416c-17.67 0-32 14.33-32 32s14.33 32 32 32c17.67 0 32-14.33 32-32S273.7 416 256 416zM256 464c-8.822 0-16-7.178-16-16s7.178-16 16-16s16 7.178 16 16S264.8 464 256 464zM264 284.3V40C264 35.58 260.4 32 256 32S248 35.58 248 40v244.3l-213.2 181.6c-3.359 2.875-3.766 7.922-.9062 11.28c2.891 3.391 7.953 3.781 11.28 .9062L256 298.5l210.8 179.6C468.3 479.4 470.2 480 472 480c2.266 0 4.5-.9531 6.094-2.812c2.859-3.359 2.453-8.406-.9062-11.28L264 284.3z"/></svg>