<svg xmlns="http://www.w3.org/2000/svg" viewBox="0 0 512 512"><!--! Font Awesome Pro 6.0.0-alpha3 by @fontawesome - https://fontawesome.com License - https://fontawesome.com/license (Commercial License) --><path d="M104 320c2.047 0 4.094-.7656 5.656-2.344l108.7-106.3l90.34 90.33c3.125 3.141 8.188 3.141 11.31 0l157.7-159.1c3.127-3.127 3.127-8.199 0-11.33c-3.129-3.127-8.199-3.127-11.33 0l-151.1 154.3L224 194.4c-3.125-3.141-8.188-3.141-11.31 0L98.34 306.3c-3.141 3.125-3.141 8.188 0 11.31C99.91 319.2 101.9 320 104 320zM504 464H72c-30.88 0-56-25.12-56-56V40C16 35.58 12.42 32 8 32S0 35.58 0 40v368C0 447.7 32.31 480 72 480h432c4.422 0 8-3.578 8-8S508.4 464 504 464z"/></svg>