<svg xmlns="http://www.w3.org/2000/svg" viewBox="0 0 512 512"><!--! Font Awesome Pro 6.0.0-alpha3 by @fontawesome - https://fontawesome.com License - https://fontawesome.com/license (Commercial License) --><path d="M480 32h-192c-17.67 0-32 14.33-32 32v64c0 17.67 14.33 32 32 32h192c17.67 0 32-14.33 32-32V64C512 46.33 497.7 32 480 32zM496 128c0 8.822-7.178 16-16 16h-192c-8.822 0-16-7.178-16-16V64c0-8.822 7.178-16 16-16h192c8.822 0 16 7.178 16 16V128zM480 192h-192c-17.67 0-32 14.33-32 32v64c0 17.67 14.33 32 32 32h192c17.67 0 32-14.33 32-32V224C512 206.3 497.7 192 480 192zM496 288c0 8.822-7.178 16-16 16h-192c-8.822 0-16-7.178-16-16V224c0-8.822 7.178-16 16-16h192c8.822 0 16 7.178 16 16V288zM480 352h-192c-17.67 0-32 14.33-32 32v64c0 17.67 14.33 32 32 32h192c17.67 0 32-14.33 32-32v-64C512 366.3 497.7 352 480 352zM496 448c0 8.822-7.178 16-16 16h-192c-8.822 0-16-7.178-16-16v-64c0-8.822 7.178-16 16-16h192c8.822 0 16 7.178 16 16V448zM192 272H32c-17.67 0-32 14.33-32 32V448c0 17.67 14.33 32 32 32h160c17.67 0 32-14.33 32-32V304C224 286.3 209.7 272 192 272zM208 448c0 8.822-7.178 16-16 16H32c-8.822 0-16-7.178-16-16V304C16 295.2 23.18 288 32 288h160c8.822 0 16 7.178 16 16V448zM192 32H32C14.33 32 0 46.33 0 64v144c0 17.67 14.33 32 32 32h160c17.67 0 32-14.33 32-32V64C224 46.33 209.7 32 192 32zM208 208C208 216.8 200.8 224 192 224H32C23.18 224 16 216.8 16 208V64c0-8.822 7.178-16 16-16h160c8.822 0 16 7.178 16 16V208z"/></svg>