<svg xmlns="http://www.w3.org/2000/svg" viewBox="0 0 512 512"><!--! Font Awesome Pro 6.0.0-alpha3 by @fontawesome - https://fontawesome.com License - https://fontawesome.com/license (Commercial License) --><path d="M432 352h32c8.828 0 16-7.172 16-16v-256C480 71.17 472.8 64 464 64h-32C423.1 64 416 71.17 416 80v256C416 344.8 423.1 352 432 352zM432 80h32v256h-32V80zM240 256h32C280.8 256 288 248.8 288 240v-96C288 135.2 280.8 128 272 128h-32C231.1 128 224 135.2 224 144v96C224 248.8 231.1 256 240 256zM240 144h32v96h-32V144zM504 464H72c-30.88 0-56-25.12-56-56V40C16 35.58 12.42 32 8 32S0 35.58 0 40v368C0 447.7 32.31 480 72 480h432c4.422 0 8-3.578 8-8S508.4 464 504 464zM336 192h32C376.8 192 384 184.8 384 176v-96C384 71.17 376.8 64 368 64h-32C327.1 64 320 71.17 320 80v96C320 184.8 327.1 192 336 192zM336 80h32v96h-32V80zM144 352h32C184.8 352 192 344.8 192 336v-96C192 231.2 184.8 224 176 224h-32C135.1 224 128 231.2 128 240v96C128 344.8 135.1 352 144 352zM144 240h32v96h-32V240z"/></svg>