<svg xmlns="http://www.w3.org/2000/svg" viewBox="0 0 640 512"><!--! Font Awesome Pro 6.0.0-alpha3 by @fontawesome - https://fontawesome.com License - https://fontawesome.com/license (Commercial License) --><path d="M576 384c-20.41 0-38.38 9.732-50.1 24.61l-90.39-54.23C443.2 339.2 448 322.2 448 304C448 242.1 397.9 192 336 192c-14.1 0-27.45 2.893-39.88 7.646L258 118C275.1 106.7 288 86.8 288 64c0-35.35-28.65-64-64-64C188.7 0 160 28.65 160 64c0 35.35 28.65 64 64 64c6.842 0 13.31-1.357 19.49-3.346l38.23 81.95C247.4 225.8 224 261.1 224 304c0 61.86 50.14 112 112 112c37.9 0 71.26-18.94 91.53-47.75l89.97 53.97C514 430.1 512 438.8 512 448c0 35.35 28.65 64 64 64C611.4 512 640 483.3 640 448C640 412.7 611.3 384 576 384zM224 112C197.5 112 176 90.47 176 64S197.5 16 224 16S272 37.53 272 64S250.5 112 224 112zM336 400c-52.93 0-96-43.07-96-96c0-52.94 43.07-96 96-96c52.94 0 96 43.06 96 96C432 356.9 388.9 400 336 400zM576 496c-26.47 0-48-21.53-48-48s21.53-48 48-48s48 21.53 48 48S602.5 496 576 496zM48 256C21.49 256 0 277.5 0 304S21.49 352 48 352S96 330.5 96 304S74.51 256 48 256zM48 336c-17.64 0-32-14.36-32-32s14.36-32 32-32s32 14.36 32 32S65.64 336 48 336zM592 160C618.5 160 640 138.5 640 112S618.5 64 592 64S544 85.49 544 112S565.5 160 592 160zM592 80c17.64 0 32 14.36 32 32s-14.36 32-32 32s-32-14.36-32-32S574.4 80 592 80zM336 256C309.5 256 288 277.5 288 304S309.5 352 336 352S384 330.5 384 304S362.5 256 336 256zM336 336c-17.64 0-32-14.36-32-32s14.36-32 32-32s32 14.36 32 32S353.6 336 336 336zM489.6 196.8c1.594 0 3.203-.6406 4.797-1.609C497.9 192.6 498.5 187.5 496 184c-2.562-3.531-7.688-4.172-11.2-1.609s-4.156 7.688-1.609 11.2C484.8 195.8 487 196.8 489.6 196.8zM464 216c1.594 0 3.188-.6406 4.797-1.609c3.516-2.562 4.156-7.672 1.594-11.2c-2.562-3.516-7.672-4.156-11.2-1.594c-3.516 2.562-4.156 7.688-1.594 11.2C459.2 215 461.4 216 464 216zM540.8 158.4c1.594 0 3.203-.6406 4.797-1.594c3.516-2.562 4.156-7.688 1.594-11.2C544.6 142.1 539.5 141.4 536 144c-3.531 2.547-4.172 7.672-1.609 11.19C536 157.4 538.2 158.4 540.8 158.4zM515.2 177.6c1.609 0 3.203-.6406 4.812-1.594c3.516-2.562 4.156-7.688 1.594-11.2s-7.672-4.156-11.2-1.609c-3.516 2.562-4.156 7.688-1.594 11.2C510.4 176.6 512.6 177.6 515.2 177.6zM438.4 235.2c1.609 0 3.203-.6406 4.797-1.594c3.531-2.562 4.172-7.672 1.609-11.2c-2.562-3.516-7.688-4.156-11.2-1.594S429.4 228.5 432 232C433.6 233.9 435.8 235.2 438.4 235.2zM208 296c-4.484 0-8 3.528-8 8.013C200 308.5 203.5 312 208 312c4.469 0 8-3.531 8-8C216 299.5 212.5 296 208 296zM112 296c-4.484 0-8 3.516-8 8c0 4.469 3.516 8 8 8c4.469 0 8-3.531 8-8C120 299.5 116.5 296 112 296zM144 296c-4.484 0-8 3.516-8 8c0 4.469 3.516 8 8 8c4.469 0 8-3.544 8-8.013C152 299.5 148.5 296 144 296zM176 296c-4.484 0-8 3.516-8 8c0 4.469 3.516 8 8 8c4.469 0 8-3.531 8-8C184 299.5 180.5 296 176 296z"/></svg>