<svg xmlns="http://www.w3.org/2000/svg" viewBox="0 0 576 512"><!--! Font Awesome Pro 6.0.0-alpha3 by @fontawesome - https://fontawesome.com License - https://fontawesome.com/license (Commercial License) --><path d="M559.7 288l-198.6 .0007c-14.25 0-21.39 17.23-11.31 27.31l130.7 130.7c2.656 2.641 7.904 4.846 11.65 4.862c3.812 0 7.645-1.346 10.58-4.128c38.69-36.46 65.31-85.61 73.12-140.9C577.2 296.4 569.3 288 559.7 288zM491.9 434.7l-130.7-130.7h198.7l.2207-.4062C552.9 353.6 528.7 400.2 491.9 434.7zM320 240l207.7 .0017c9.141 0 16.86-7.657 16.23-16.78c-8.244-119.5-103.8-214.1-223.2-223.2C320.4-.0077 320.1 0 319.8 0c-8.656 0-15.76 7.479-15.76 16.26l.0023 207.7C304 232.8 311.2 240 320 240zM320.2 16.04c110.9 7.877 200.2 97.34 207.6 207.1h-207.8L320.2 16.04zM256 288V50.75c0-8.828-7.182-16.25-15.74-16.25c-.6875 0-1.405 .0346-2.124 .144C118.1 51.47 27.92 155.6 32.14 280.4c4.213 123.3 108 231.6 242.9 231.6c50.41-.6406 96.94-16.85 135.2-44c7.875-5.61 8.456-17.27 1.612-24.11L256 288zM275 495.1c-121 0-222.8-96.97-226.9-216.2C44.26 165.2 126.7 66.72 240.2 50.52l-.2227 237.5c0 4.242 1.686 8.313 4.685 11.31l156.4 155.6C363.1 481.2 320.3 495.4 275 495.1z"/></svg>