<svg xmlns="http://www.w3.org/2000/svg" viewBox="0 0 512 512"><!--! Font Awesome Pro 6.0.0-alpha3 by @fontawesome - https://fontawesome.com License - https://fontawesome.com/license (Commercial License) --><path d="M506.3 417l-213.3-364C284.8 39 270.4 32 255.1 32S227.2 39 218.1 53l-213.2 364C-10.59 444.9 9.852 480 42.74 480H469.3C502.1 480 522.6 445 506.3 417zM440.3 336H71.73L156.1 192h199.8L440.3 336zM232.8 61.1C237.6 52.9 246.3 48 255.1 48c9.717 0 18.37 4.883 23.15 13.09L346.5 176H165.4L232.8 61.1zM492.5 450.7C487.7 459 479 464 469.3 464H42.74c-9.785 0-18.48-4.986-23.27-13.34c-4.682-8.17-4.652-17.49 .0801-25.58L62.36 352h387.3l42.82 73.06C497.2 433.2 497.2 442.5 492.5 450.7z"/></svg>