<svg xmlns="http://www.w3.org/2000/svg" viewBox="0 0 512 512"><!--! Font Awesome Pro 6.0.0-alpha3 by @fontawesome - https://fontawesome.com License - https://fontawesome.com/license (Commercial License) --><path d="M192 200c22.06 0 40-17.94 40-40S214.1 120 192 120S152 137.9 152 160S169.9 200 192 200zM192 136c13.23 0 24 10.77 24 24S205.2 184 192 184S168 173.2 168 160S178.8 136 192 136zM416 168c22.06 0 40-17.94 40-40S438.1 88 416 88S376 105.9 376 128S393.9 168 416 168zM416 104c13.23 0 24 10.77 24 24S429.2 152 416 152S392 141.2 392 128S402.8 104 416 104zM384 360c22.06 0 40-17.94 40-40S406.1 280 384 280S344 297.9 344 320S361.9 360 384 360zM384 296c13.23 0 24 10.77 24 24s-10.77 24-24 24s-24-10.77-24-24S370.8 296 384 296zM288 296c22.06 0 40-17.94 40-40S310.1 216 288 216S248 233.9 248 256S265.9 296 288 296zM288 232c13.23 0 24 10.77 24 24S301.2 280 288 280S264 269.2 264 256S274.8 232 288 232zM160 360c22.06 0 40-17.94 40-40S182.1 280 160 280S120 297.9 120 320S137.9 360 160 360zM160 296c13.23 0 24 10.77 24 24S173.2 344 160 344S136 333.2 136 320S146.8 296 160 296zM504 464H72c-30.88 0-56-25.12-56-56V40C16 35.59 12.41 32 8 32S0 35.59 0 40v368C0 447.7 32.31 480 72 480h432c4.406 0 8-3.594 8-8S508.4 464 504 464z"/></svg>