<svg xmlns="http://www.w3.org/2000/svg" viewBox="0 0 512 512"><!--! Font Awesome Pro 6.0.0-alpha3 by @fontawesome - https://fontawesome.com License - https://fontawesome.com/license (Commercial License) --><path d="M408 320h16v56c0 4.422 3.594 8 8 8s8-3.578 8-8V320h16C469.3 320 480 309.3 480 296v-80C480 202.7 469.3 192 456 192h-16V136C440 131.6 436.4 128 432 128s-8 3.578-8 8V192h-16C394.7 192 384 202.7 384 216v80C384 309.3 394.7 320 408 320zM400 216c0-4.418 3.582-8 8-8h48c4.418 0 8 3.582 8 8v80c0 4.418-3.582 8-8 8h-48c-4.418 0-8-3.582-8-8V216zM504 464H72c-30.88 0-56-25.12-56-56V40C16 35.58 12.42 32 8 32S0 35.58 0 40v368C0 447.7 32.31 480 72 480h432c4.422 0 8-3.578 8-8S508.4 464 504 464zM280 256h16v56c0 4.422 3.594 8 8 8s8-3.578 8-8V256h16C341.3 256 352 245.3 352 232v-112C352 106.7 341.3 96 328 96h-16V40C312 35.58 308.4 32 304 32s-8 3.578-8 8V96h-16C266.7 96 256 106.7 256 120v112C256 245.3 266.7 256 280 256zM272 120c0-4.418 3.582-8 8-8h48c4.42 0 8 3.582 8 8v112c0 4.42-3.58 8-8 8h-48c-4.418 0-8-3.58-8-8V120zM152 320h16v56C168 380.4 171.6 384 176 384s8-3.578 8-8V320h16C213.3 320 224 309.3 224 296v-144C224 138.7 213.3 128 200 128h-16V72C184 67.58 180.4 64 176 64S168 67.58 168 72V128h-16C138.7 128 128 138.7 128 152v144C128 309.3 138.7 320 152 320zM144 152c0-4.418 3.582-8 8-8h48c4.42 0 8 3.582 8 8v144c0 4.42-3.58 8-8 8h-48C147.6 304 144 300.4 144 296V152z"/></svg>