<svg xmlns="http://www.w3.org/2000/svg" viewBox="0 0 640 512"><!--! Font Awesome Pro 6.0.0-alpha3 by @fontawesome - https://fontawesome.com License - https://fontawesome.com/license (Commercial License) --><path d="M351.9 304c0 61.86 50.14 112 112 112s112-50.08 112-111.9S525.8 192 463.9 192S351.9 242.1 351.9 304zM368 304c0-52.94 43.07-96 96-96s96 43.06 96 96c0 52.93-43.07 96-96 96S368 356.9 368 304zM176 192C114.1 192 63.94 242.1 63.94 304s50.14 112 112 112s112-50.08 112-111.9S237.9 192 176 192zM176 400c-52.93 0-96-43.07-96-96c0-52.94 43.07-96 96-96s96 43.06 96 96C272 356.9 228.9 400 176 400zM0 192l0 224c0 35.35 28.65 64 64 64h512c35.35 0 64-28.65 64-64V192c0-35.35-28.65-64-64-64h-104V48h64C540.4 48 544 44.42 544 40S540.4 32 536 32h-144C387.6 32 384 35.58 384 40s3.594 8 8 8h64V128H64C28.65 128 0 156.7 0 192zM16 192c0-26.47 21.53-48 48-48h512c26.47 0 48 21.53 48 48v224c0 26.47-21.53 48-48 48H64c-26.47 0-48-21.53-48-48V192zM256 88C256 83.58 252.4 80 248 80h-144C99.59 80 96 83.58 96 88S99.59 96 104 96h144C252.4 96 256 92.42 256 88zM456 240v64c0 4.422 3.594 8 8 8s8-3.578 8-8v-64c0-4.422-3.594-8-8-8S456 235.6 456 240zM215.6 253.1L170.3 298.3c-3.125 3.125-3.125 8.188 0 11.31C171.9 311.2 173.9 312 176 312s4.094-.7813 5.656-2.344l45.25-45.25c3.125-3.125 3.125-8.188 0-11.31S218.7 249.1 215.6 253.1z"/></svg>