<svg xmlns="http://www.w3.org/2000/svg" viewBox="0 0 320 512"><!--! Font Awesome Pro 6.0.0-alpha3 by @fontawesome - https://fontawesome.com License - https://fontawesome.com/license (Commercial License) --><path d="M264 448h-208C25.13 448 0 473.1 0 504C0 508.4 3.594 512 8 512s8-3.578 8-8c0-22.06 17.94-40 40-40h208c22.06 0 40 17.94 40 40c0 4.422 3.594 8 8 8S320 508.4 320 504C320 473.1 294.9 448 264 448zM56 386.2V408C56 412.4 59.59 416 64 416s8-3.578 8-8v-27.5c0-3.484-2.25-6.578-5.594-7.625C31.09 361.7 16 338.6 16 295.9c0-71.73 59-176.8 109.8-219.2C128.1 74.7 129.1 71.61 128.4 68.67S125.4 63.44 122.5 62.72C111.6 60.09 104 50.75 104 40C104 26.77 114.8 16 128 16h64c13.22 0 24 10.77 24 24c0 10.75-7.594 20.09-18.5 22.72c-2.938 .7187-5.219 3.016-5.906 5.953s.3438 6.031 2.656 7.969c24.45 20.46 50.69 55.56 71.45 94.35l-103.3 103.4c-3.125 3.125-3.146 8.167-.0208 11.29C163.9 287.2 165.9 288 168 288s4.156-.8021 5.719-2.365l99.51-99.55C291.4 223.6 304 263.1 304 295.9c0 42.75-15.09 65.78-50.41 77C250.3 373.9 248 377 248 380.5V408c0 4.422 3.594 8 8 8s8-3.578 8-8v-21.78C302.2 372.1 320 343.2 320 295.9c0-72.75-54.16-173.5-106-223C225 65.69 232 53.52 232 40C232 17.94 214.1 0 192 0H128C105.9 0 88 17.94 88 40c0 13.52 7 25.69 18.03 32.84C54.16 122.4 0 223.1 0 295.9C0 343.2 17.84 372.1 56 386.2z"/></svg>