<svg xmlns="http://www.w3.org/2000/svg" viewBox="0 0 320 512"><!--! Font Awesome Pro 6.0.0-alpha3 by @fontawesome - https://fontawesome.com License - https://fontawesome.com/license (Commercial License) --><path d="M306.6 452.4L288 443.1V432c0-13.23-10.77-24-24-24h-208C42.77 408 32 418.8 32 432v11.06l-18.58 9.344C5.266 456.3 0 464.7 0 473.9V488C0 501.2 10.77 512 24 512h272c13.23 0 24-10.77 24-24v-14.12C320 464.8 314.8 456.3 306.6 452.4zM304 488c0 4.484-3.516 8-8 8h-272c-4.484 0-8-3.516-8-8v-14.12c0-3.016 1.703-5.781 4.469-7.109L48 452.9V432c0-4.484 3.516-8 8-8h208c4.484 0 8 3.516 8 8v20.94l27.67 13.91C302.3 468.1 304 470.9 304 473.9V488zM50.25 234.8l28.88 12.88c7.531 3.359 16.22 3.531 23.83 .5l9.172-3.641c8.734-3.531 15.31-10.73 18.05-19.77L136.8 202.6c.6875-2.672 2.438-4.906 3.594-5.625l3.781-1.234v34.25c0 11.62-3.094 14.28-41.44 35.5C95.22 269.6 86.61 274.4 77 279.9c-22.5 11.45-36.59 28.42-39.66 47.77c-2.906 18.39 4.547 37.56 21 54.02c3.125 3.125 8.188 3.125 11.31 0s3.125-8.188 0-11.31c-12.92-12.92-18.62-26.81-16.5-40.19C55.39 316 66.44 303.2 84.58 293.1C94.45 288.4 103 283.6 110.4 279.5C148.6 258.4 160.1 252 160.1 230V184.8c0-2.562-1.219-4.969-3.297-6.469C154.8 176.8 152.1 176.3 149.7 177.1L134.2 182.3c-6.422 3.297-11.14 9.266-12.89 16.08L114.8 220.2C113.5 224.5 110.4 228 106.2 229.7L97.03 233.3c-3.578 1.438-7.75 1.375-11.39-.2656l-28.92-12.89C51.42 217.8 48 212.5 48 206.6V124.8C48 122.3 48.94 120 50.66 118.3l6.375-6.375c2.438-2.438 3.047-6.156 1.5-9.234L48.41 82.42L48.5 80h92.38C213.2 80 272 138.8 272 211.1V344c0 10.14-6.328 18.08-13.98 26.69c-2.938 3.297-2.641 8.359 .6719 11.3C260.2 383.3 262.1 384 264 384c2.203 0 4.406-.9062 5.984-2.688C277.2 373.2 288 361 288 344V211.1C288 130 221.1 64 140.9 64H48.5C39.41 64 32 71.41 32 80.5c0 3.297 .6875 6.266 2.094 9.078l7.547 15.09L39.34 106.1C34.61 111.7 32 118 32 124.8v81.88C32 218.9 39.17 229.9 50.25 234.8zM80 144C80 152.8 87.16 160 96 160c8.838 0 16-7.164 16-16C112 135.2 104.8 128 96 128C87.16 128 80 135.2 80 144z"/></svg>