<svg xmlns="http://www.w3.org/2000/svg" viewBox="0 0 512 512"><!--! Font Awesome Pro 6.0.0-alpha3 by @fontawesome - https://fontawesome.com License - https://fontawesome.com/license (Commercial License) --><path d="M392.1 448H120.1c-30.87 0-55.1 25.12-55.1 56c0 4.422 3.578 8 7.1 8s7.1-3.578 7.1-8c0-22.06 17.94-40 39.1-40h271.1c22.06 0 39.1 17.94 39.1 40c0 4.422 3.578 8 7.1 8c4.422 0 7.1-3.578 7.1-8C448.1 473.1 422.9 448 392.1 448zM256 112c30.87 0 56-25.12 56-56S286.9 0 256 0S199.1 25.12 199.1 56S225.1 112 256 112zM256 16c22.06 0 39.1 17.94 39.1 40S278.1 96 256 96S216 78.06 216 56S233.1 16 256 16zM501.1 183.4l-27.06-15.05c-10.44-6.953-24.36-4.266-32.39 6.328c-8.797 11.67-23.58 17.55-37.95 14.61c-17.72-3.25-31.09-20.59-31.09-40.33C372.6 137.4 363.1 128 351.6 128h-37.55c-9.797 0-18.33 6.688-20.31 15.89c-3.828 18.03-19.34 30.61-37.7 30.61S222.2 161.9 218.3 143.9C216.4 134.7 207.8 128 198 128H160.5C148.9 128 139.5 137.4 139.5 148.1c0 21.59-15.72 39.58-35.78 40.95C90.65 190.8 78.25 185.1 70.4 174.6C62.62 164 48.45 161.3 38.75 168L10.56 183.8c-9.984 6.484-13.42 19.42-7.1 30.05l99.31 197.8c1.969 3.953 6.812 5.516 10.75 3.562c3.937-1.984 5.531-6.797 3.562-10.75L16.84 206.6c-1.672-3.281-.6094-7.406 1.984-9.109l28.36-15.89C50.86 179 55.23 181 57.57 184.2c11.16 14.88 28.97 22.8 47.26 21.72c28.42-1.953 50.69-26.95 50.69-56.92C155.5 146.2 157.8 144 160.5 144h37.53c2.266 0 4.266 1.391 4.656 3.234C208.1 172.7 230.1 190.5 256 190.5s47.92-17.8 53.36-43.27C309.8 145.4 311.8 144 314.1 144h37.55c2.734 0 4.953 2.219 4.953 4.953c0 27.34 18.1 51.45 44.12 56.05c20.08 3.953 41.25-4.172 53.69-20.69c2.375-3.156 6.734-5.281 11.3-2.328l27.06 15.05c3.172 2.109 4.219 6.156 2.484 9.609l-99.3 197.8c-1.969 3.953-.375 8.766 3.562 10.75C400.6 415.7 401.9 416 403.1 416c2.922 0 5.75-1.609 7.156-4.406l99.3-197.8C514.8 203.2 511.4 190.3 501.1 183.4z"/></svg>