<svg xmlns="http://www.w3.org/2000/svg" viewBox="0 0 320 512"><!--! Font Awesome Pro 6.0.0-alpha3 by @fontawesome - https://fontawesome.com License - https://fontawesome.com/license (Commercial License) --><path d="M306.6 452.4L288 443.1V432c0-13.23-10.77-24-24-24h-208C42.77 408 32 418.8 32 432v11.06l-18.58 9.344C5.266 456.3 0 464.7 0 473.9V488C0 501.2 10.77 512 24 512h272c13.23 0 24-10.77 24-24v-14.12C320 464.8 314.8 456.3 306.6 452.4zM304 488c0 4.484-3.516 8-8 8h-272c-4.484 0-8-3.516-8-8v-14.12c0-3.016 1.703-5.781 4.469-7.109L48 452.9V432c0-4.484 3.516-8 8-8h208c4.484 0 8 3.516 8 8v20.94l27.67 13.91C302.3 468.1 304 470.9 304 473.9V488zM71.86 210.7l-7.844 164.9c-.2187 4.406 3.188 8.156 7.609 8.359c4.359 .4219 8.156-3.172 8.359-7.609l8-168c.1094-2-.5625-3.953-1.844-5.5L53.56 163.8C49.97 159.5 48 154 48 148.4V80h32v20C80 115.5 92.54 128 107.1 128S136 115.5 136 100V80h48v20C184 115.5 196.5 128 211.1 128S240 115.5 240 100V80h32v68.42c0 5.614-1.968 11.05-5.562 15.36l-32.58 39.09c-1.281 1.547-1.953 3.5-1.844 5.5l8 168C240.2 380.7 243.8 384 248 384c.125 0 .25 0 .375-.0156c4.422-.2031 7.828-3.953 7.609-8.359l-7.844-164.9l30.6-36.73C284.7 166.8 288 157.8 288 148.4V72C288 67.58 284.4 64 280 64h-48C227.6 64 224 67.58 224 72v28C224 106.6 218.6 112 212 112S200 106.6 200 100V72C200 67.58 196.4 64 192 64H128C123.6 64 120 67.58 120 72v28C120 106.6 114.6 112 108 112S96 106.6 96 100V72C96 67.58 92.42 64 88 64h-48C35.58 64 32 67.58 32 72v76.42C32 157.8 35.28 166.8 41.26 174L71.86 210.7zM160 192C142.4 192 128 206.4 128 224v56C128 284.4 131.6 288 136 288h48C188.4 288 192 284.4 192 280V224C192 206.4 177.6 192 160 192zM176 272h-32V224c0-8.828 7.172-16 16-16s16 7.172 16 16V272z"/></svg>