<svg xmlns="http://www.w3.org/2000/svg" viewBox="0 0 256 512"><!--! Font Awesome Pro 6.0.0-alpha3 by @fontawesome - https://fontawesome.com License - https://fontawesome.com/license (Commercial License) --><path d="M75.7 224H64C59.59 224 56 227.6 56 232S59.59 240 64 240h11.75l-11.71 135.3c-.375 4.406 2.875 8.281 7.281 8.656c4.219 .5 8.312-2.891 8.656-7.281L91.79 240h72.41l11.82 136.7C176.4 380.9 179.9 384 184 384c.2187 0 .4687-.0156 .6875-.0313c4.406-.375 7.656-4.25 7.281-8.656L180.3 240H192c4.406 0 8-3.578 8-8S196.4 224 192 224h-11.7l38.17-96.7c2.688-7 1.688-14.95-2.656-21.31C211.4 99.64 204.5 96 196.8 96H136V48h32c4.406 0 8-3.578 8-8S172.4 32 168 32h-32V8C136 3.578 132.4 0 128 0S120 3.578 120 8V32h-32C83.59 32 80 35.58 80 40S83.59 48 88 48h32V96H59.16C51.5 96 44.34 99.77 40.03 106.1C35.75 112.3 34.81 120.2 37.56 127.4L75.7 224zM53.22 115.1C54.56 113.1 56.75 112 59.16 112h137.7c3.219 0 5.031 1.906 5.812 3.047c1.344 1.969 1.688 4.469 .9375 6.438L163.1 224H92.89L52.47 121.5C51.31 118.6 52.44 116.3 53.22 115.1zM242.7 452.4L224 443.1V432c0-13.23-10.78-24-24-24h-144C42.78 408 32 418.8 32 432v11.06l-18.56 9.344C5.281 456.3 0 464.7 0 473.9V488C0 501.2 10.78 512 24 512h208c13.22 0 24-10.77 24-24v-14.12C256 464.8 250.8 456.3 242.7 452.4zM240 488c0 4.484-3.5 8-8 8h-208c-4.5 0-8-3.516-8-8v-14.12c0-3.016 1.688-5.781 4.469-7.109L48 452.9V432c0-4.484 3.5-8 8-8h144c4.5 0 8 3.516 8 8v20.94l27.53 13.83C238.2 468 240 470.9 240 473.9V488z"/></svg>