<svg xmlns="http://www.w3.org/2000/svg" viewBox="0 0 256 512"><!--! Font Awesome Pro 6.0.0-alpha3 by @fontawesome - https://fontawesome.com License - https://fontawesome.com/license (Commercial License) --><path d="M48 240h28.96l-12.93 135.2c-.4062 4.406 2.812 8.312 7.219 8.734C71.5 383.1 71.75 384 72 384c4.094 0 7.562-3.094 7.969-7.234l13-136C92.1 240.5 92.74 240.3 92.73 240h70.54c-.0039 .2832-.2637 .4785-.2363 .7656l13 136C176.4 380.9 179.9 384 184 384c.25 0 .5-.0156 .75-.0313c4.406-.4219 7.625-4.328 7.219-8.734L179 240H208c4.406 0 8-3.578 8-8S212.4 224 208 224h-15.08c9.045-11.74 14.55-27.81 14.55-47.3c0-37.91-23.21-98.4-51.09-128.7H160c4.406 0 8-3.578 8-8S164.4 32 160 32H96C91.59 32 88 35.58 88 40S91.59 48 96 48h3.617C71.74 78.3 48.53 138.8 48.53 176.7c0 19.49 5.502 35.56 14.55 47.3H48C43.59 224 40 227.6 40 232S43.59 240 48 240zM119 51.22C121.5 49.06 124.7 48 128 48s6.512 1.057 8.965 3.223c14.46 12.77 29.57 37.67 40.26 64.24l-46.88 46.88c-3.125 3.125-3.125 8.188 0 11.31C131.9 175.2 133.9 176 136 176s4.094-.7813 5.656-2.344l41.56-41.56c4.998 15.7 8.25 31.27 8.25 44.61c0 23.05-8.125 40.56-21.81 47.3H86.34C72.66 217.3 64.53 199.8 64.53 176.7C64.53 135.8 93.11 74.12 119 51.22zM242.7 452.4L224 443.1V432c0-13.23-10.78-24-24-24h-144C42.78 408 32 418.8 32 432v11.06l-18.56 9.344C5.281 456.3 0 464.7 0 473.9V488C0 501.2 10.78 512 24 512h208c13.22 0 24-10.77 24-24v-14.12C256 464.8 250.8 456.3 242.7 452.4zM240 488c0 4.484-3.5 8-8 8h-208c-4.5 0-8-3.516-8-8v-14.12c0-3.016 1.688-5.781 4.469-7.109L48 452.9V432c0-4.484 3.5-8 8-8h144c4.5 0 8 3.516 8 8v20.94l27.53 13.83C238.2 468 240 470.9 240 473.9V488z"/></svg>