<svg xmlns="http://www.w3.org/2000/svg" viewBox="0 0 256 512"><!--! Font Awesome Pro 6.0.0-alpha3 by @fontawesome - https://fontawesome.com License - https://fontawesome.com/license (Commercial License) --><path d="M242.6 452.4L224 443.1V432c0-13.23-10.77-24-24-24h-144C42.77 408 32 418.8 32 432v11.06l-18.58 9.344C5.266 456.3 0 464.7 0 473.9V488C0 501.2 10.77 512 24 512h208c13.23 0 24-10.77 24-24v-14.11C256 464.8 250.8 456.3 242.6 452.4zM240 488c0 4.484-3.516 8-8 8h-208c-4.484 0-8-3.516-8-8v-14.12c0-3.016 1.703-5.781 4.469-7.109L48 452.9V432c0-4.484 3.516-8 8-8h144c4.484 0 8 3.516 8 8v20.94l27.67 13.91C238.3 468.1 240 470.9 240 473.9V488zM80.48 240.1H64c-4.422 0-8 3.496-8 7.918S59.58 256 64 256h14.94l-14.88 119c-.5469 4.391 2.562 8.391 6.938 8.938C71.34 383.1 71.67 384 72.02 384c3.969 0 7.422-2.953 7.922-7L95.06 256h65.88l15.12 121C176.6 381 180 384 183.1 384c.3438 0 .6719-.0156 1.016-.0625c4.375-.5469 7.484-4.547 6.938-8.938L177.1 256H192c4.422 0 8-3.578 8-8S196.4 240.1 192 240.1h-16.48C195.1 225.5 208 202.3 208 176C208 131.8 172.2 96 128 96C83.82 96 48 131.8 48 176C48 202.3 60.9 225.5 80.48 240.1zM128 112c35.29 0 64 28.71 64 64c0 35.29-28.71 64-64 64c-35.29 0-64-28.71-64-64C64 140.7 92.71 112 128 112z"/></svg>