<svg xmlns="http://www.w3.org/2000/svg" viewBox="0 0 256 512"><!--! Font Awesome Pro 6.0.0-alpha3 by @fontawesome - https://fontawesome.com License - https://fontawesome.com/license (Commercial License) --><path d="M242.6 452.4L224 443.1V432c0-13.23-10.77-24-24-24h-144C42.77 408 32 418.8 32 432v11.06l-18.58 9.344C5.266 456.3 0 464.7 0 473.9V488C0 501.2 10.77 512 24 512h208c13.23 0 24-10.77 24-24v-14.12C256 464.8 250.8 456.3 242.6 452.4zM240 488c0 4.484-3.516 8-8 8h-208c-4.484 0-8-3.516-8-8v-14.12c0-3.016 1.703-5.781 4.469-7.109L48 452.9V432c0-4.484 3.516-8 8-8h144c4.484 0 8 3.516 8 8v20.94l27.67 13.91C238.3 468.1 240 470.9 240 473.9V488zM73.27 192H64C59.58 192 56 195.6 56 200S59.58 208 64 208h12.38l-12.37 167.4c-.3125 4.406 2.984 8.25 7.391 8.578C71.61 384 71.81 384 72.02 384c4.141 0 7.656-3.203 7.969-7.406L92.44 208h71.13l12.45 168.6C176.3 380.8 179.8 384 183.1 384c.2031 0 .4062 0 .6094-.0156c4.406-.3281 7.703-4.172 7.391-8.578L179.6 208H192c4.422 0 8-3.578 8-8S196.4 192 192 192h-9.266l50.39-79.75c1.5-3 .5-6.75-2.25-8.625L220.8 97c-1.104-.752-2.318-1.096-3.523-1.096c-2.211 0-4.396 1.154-5.852 3.096c-3.834 5.076-9.814 8.006-16.02 8.006c-1.281 0-2.572-.125-3.855-.3809c-9.75-1.875-16.38-11-16.38-21C175.1 82.5 172.6 80 169.5 80h-16.25c-2.625 0-4.875 1.625-5.5 4.125C145.8 93.5 137.5 100.3 128 100.3S110.3 93.5 108.3 84.13C107.6 81.63 105.4 80 102.8 80H86.5c-3.125 0-5.625 2.5-5.625 5.625c0 10.88-8 20.5-18.88 21.25C61.51 106.9 61.03 106.9 60.54 106.9c-6.234 0-12.21-2.949-16.04-8.053C43.23 96.88 41.09 95.86 38.9 95.86c-1.252 0-2.518 .3359-3.654 1.018L25.13 103.6C22.38 105.5 21.38 109.3 22.88 112.3L73.27 192zM60.54 122.9l2.01-.0527L63.1 122.8C78.56 121.8 91.29 110.7 95.44 96C101.5 108.1 114.1 116.3 128 116.3c14.01 0 26.61-8.27 32.5-20.25c3.689 13.29 14.33 23.71 27.86 26.31c2.33 .4668 4.672 .6934 6.996 .6934c4.775 0 9.465-.9707 13.8-2.779L163.8 192H92.18L46.71 120.1C51.05 121.1 55.75 122.9 60.54 122.9zM128 64c17.64 0 32-14.36 32-32s-14.31-32-31.95-32S96 14.36 96 32S110.4 64 128 64zM128 16c8.828 0 16 7.172 16 16S136.8 48 128 48S112 40.83 112 32S119.2 16 128 16z"/></svg>