<svg xmlns="http://www.w3.org/2000/svg" viewBox="0 0 384 512"><!--! Font Awesome Pro 6.0.0-alpha3 by @fontawesome - https://fontawesome.com License - https://fontawesome.com/license (Commercial License) --><path d="M328 448h-272C25.13 448 0 473.1 0 504C0 508.4 3.578 512 8 512s8-3.578 8-8c0-22.06 17.94-40 40-40h272c22.06 0 40 17.94 40 40c0 4.422 3.578 8 8 8S384 508.4 384 504C384 473.1 358.9 448 328 448zM216 328c8.836 0 16-7.164 16-16V256c0-22.06-17.94-40-40-40S152 233.9 152 256v56c0 8.836 7.164 16 16 16H216zM168 256c0-13.23 10.77-24 24-24S216 242.8 216 256v56h-48V256zM368 32h-64C295.2 32 288 39.17 288 48v32C288 88.83 280.8 96 272 96S256 88.83 256 80v-32C256 39.17 248.8 32 240 32h-96C135.2 32 128 39.17 128 48v32C128 88.83 120.8 96 112 96S96 88.83 96 80v-32C96 39.17 88.83 32 80 32h-64C7.172 32 0 39.17 0 48v155.2c0 15.78 9.328 30.14 23.75 36.56l47.69 21.19l-15.39 146.2c-.4687 4.406 2.719 8.344 7.109 8.797c4.531 .4844 8.312-2.719 8.797-7.109l16.61-157.8L30.25 225.1C21.59 221.3 16 212.7 16 203.2V48h64v32c0 17.64 14.36 32 32 32s32-14.36 32-32v-32h96v32c0 17.64 14.36 32 32 32s32-14.36 32-32v-32h64v155.2c0 9.469-5.594 18.09-14.25 21.94l-58.31 25.91l16.61 157.8C312.5 412.1 315.1 416 319.1 416c.2813 0 .5625-.0156 .8594-.0469c4.391-.4531 7.578-4.391 7.109-8.797l-15.39-146.2l47.69-21.19C374.7 233.3 384 218.1 384 203.2V48C384 39.17 376.8 32 368 32z"/></svg>