<svg xmlns="http://www.w3.org/2000/svg" viewBox="0 0 384 512"><!--! Font Awesome Pro 6.0.0-alpha3 by @fontawesome - https://fontawesome.com License - https://fontawesome.com/license (Commercial License) --><path d="M23.89 274.5l40.61 18c9.875 4.391 21.2 4.641 31.11 .6094l12.73-5.109c11.47-4.578 20.02-13.94 23.44-25.62l9.344-30.97c1.188-4.641 4.172-8.344 8.469-10.45l10.53-5.281v50.67c0 14.95-8.719 28.97-22.2 35.72l-57.14 28.62C50.31 346 32.13 374.9 32.13 408c0 4.422 3.578 8 8 8s8-3.578 8-8c0-26.91 14.89-50.44 39.83-62.97l57.13-28.62c18.86-9.438 31.05-29.06 31.05-50.03V202.7c0-2.781-1.438-5.359-3.797-6.812C169.9 194.5 167 194.3 164.5 195.6L142.5 206.7c-8.391 4.109-14.53 11.7-16.77 20.5L116.5 257.8C114.4 264.8 109.3 270.4 102.4 273.2L89.63 278.3c-5.891 2.391-12.67 2.266-18.64-.3906l-40.61-18C21.72 256 16.13 247.4 16.13 237.1V114c0-4.25 1.703-8.391 4.656-11.34l9-9c2.438-2.438 3.047-6.172 1.5-9.25L17.11 56.2C16.47 54.84 16.13 53.39 16.13 52c0-2.203 1.797-4 4-4h140C258.8 48 336 128.8 336 232v176c0 4.422 3.578 8 8 8S352 412.4 352 408v-176C352 119.8 267.6 32 160 32H20.13c-11.03 0-20 8.969-20 20c0 3.75 .875 7.562 2.594 11.22L14.39 86.42L9.469 91.34C3.438 97.38 .125 105.4 .125 114v123.1C.125 253.8 9.438 268.1 23.89 274.5zM64 144C64 152.8 71.2 160 80 160S96 152.8 96 144C96 135.2 88.8 128 80 128S64 135.2 64 144zM328 448h-272C25.13 448 0 473.1 0 504C0 508.4 3.578 512 8 512s8-3.578 8-8c0-22.06 17.94-40 40-40h272c22.06 0 40 17.94 40 40c0 4.422 3.578 8 8 8S384 508.4 384 504C384 473.1 358.9 448 328 448z"/></svg>