<svg xmlns="http://www.w3.org/2000/svg" viewBox="0 0 448 512"><!--! Font Awesome Pro 6.0.0-alpha3 by @fontawesome - https://fontawesome.com License - https://fontawesome.com/license (Commercial License) --><path d="M440.3 176.3C432.8 166.1 420.7 160 408.1 160h-176.1V72h56.01c4.407 0 8.001-3.578 8.001-8s-3.594-8-8.001-8h-56.01v-48c0-4.422-3.602-8-8.009-8C219.6 0 215.1 3.578 215.1 8v48H159.1C155.6 56 151.1 59.58 151.1 64s3.594 8 8.001 8h56.01V160H39.89C27.26 160 15.2 166.1 7.666 176.3C.1965 186.5-1.991 199.8 1.884 212.3l73.04 198.5c1.5 4.141 6.126 6.219 10.25 4.75c4.157-1.531 6.282-6.125 4.751-10.28l-72.92-198.1C14.76 199.9 16.11 191.9 20.57 185.8C25.08 179.6 32.3 176 39.89 176h368.2c7.595 0 14.81 3.641 19.28 9.703c4.501 6.188 5.845 14.19 3.719 21.03l-73.04 198.5c-1.531 4.156 .5938 8.75 4.751 10.28C363.7 415.8 364.6 416 365.5 416c3.251 0 6.314-1.1 7.501-5.234l73.17-198.9C449.1 199.8 447.8 186.5 440.3 176.3zM360 448H87.96c-30.88 0-56.01 25.12-56.01 56c0 4.422 3.594 8 8.001 8c4.407 0 8.001-3.578 8.001-8c0-22.06 17.94-40 40.01-40h272c22.07 0 40.01 17.94 40.01 40c0 4.422 3.594 8 8.001 8c4.407 0 8.001-3.578 8.001-8C416 473.1 390.9 448 360 448z"/></svg>