<svg xmlns="http://www.w3.org/2000/svg" viewBox="0 0 640 512"><!--! Font Awesome Pro 6.0.0-alpha3 by @fontawesome - https://fontawesome.com License - https://fontawesome.com/license (Commercial License) --><path d="M461.4 231.6L328 155.4V104h80C412.4 104 416 100.4 416 96s-3.578-8-8-8h-80v-80C328 3.578 324.4 0 320 0S312 3.578 312 8v80h-80C227.6 88 224 91.58 224 96s3.578 8 8 8h80v51.48L177.1 235.9C166.9 242.5 160 254.7 160 267.6v235.2c0 4.422 3.578 8 8 8s8-3.578 8-8V267.6c0-7.328 3.906-14.2 10.17-17.97l133.9-80.36l133.3 76.2C459.1 249.2 464 256.2 464 263.7v239.1c0 4.422 3.578 8 8 8s8-3.578 8-8V263.7C480 250.4 472.9 238.1 461.4 231.6zM116.4 320.8L22.11 368C8.469 374.8 0 388.5 0 403.8V504C0 508.4 3.578 512 8 512s8-3.578 8-8v-100.2c0-9.156 5.078-17.38 13.27-21.47l94.31-47.16c3.953-1.984 5.547-6.781 3.578-10.73C125.2 320.5 120.4 318.9 116.4 320.8zM617.9 368l-94.31-47.16c-3.922-1.953-8.734-.3438-10.73 3.578c-1.969 3.953-.375 8.75 3.578 10.73l94.31 47.16C618.9 386.4 624 394.6 624 403.8V504c0 4.422 3.578 8 8 8S640 508.4 640 504v-100.2C640 388.5 631.5 374.8 617.9 368zM320 352c-44.11 0-80 35.88-80 79.99v72C240 508.4 243.6 512 248 512S256 508.4 256 504V432c0-35.3 28.7-64 64-64s64 28.7 64 64v72c0 4.422 3.578 8 8 8s8-3.578 8-8V432C400 387.9 364.1 352 320 352z"/></svg>