<svg xmlns="http://www.w3.org/2000/svg" viewBox="0 0 512 512"><!--! Font Awesome Pro 6.0.0-alpha3 by @fontawesome - https://fontawesome.com License - https://fontawesome.com/license (Commercial License) --><path d="M256 240C247.2 240 240 247.2 240 256S247.2 272 256 272c8.838 0 16-7.164 16-16S264.8 240 256 240zM160 240C151.2 240 144 247.2 144 256S151.2 272 160 272c8.838 0 16-7.164 16-16S168.8 240 160 240zM352 240c-8.836 0-16 7.164-16 16s7.164 16 16 16c8.838 0 16-7.164 16-16S360.8 240 352 240zM256 0C114.6 0 0 114.6 0 256s114.6 256 256 256S512 397.4 512 256S397.4 0 256 0zM256 496c-132.3 0-240-107.7-240-240S123.7 16 256 16s240 107.7 240 240S388.3 496 256 496z"/></svg>