<svg xmlns="http://www.w3.org/2000/svg" viewBox="0 0 512 512"><!--! Font Awesome Pro 6.0.0-alpha3 by @fontawesome - https://fontawesome.com License - https://fontawesome.com/license (Commercial License) --><path d="M258.1 248.3L248.6 245.6C207.6 234 187.6 222.9 192.8 194.2c4.75-26.41 36.19-39.09 80.38-32.55c9.156 1.375 20.05 4.234 34.3 8.969c4.25 1.375 8.734-.9062 10.12-5.062c1.391-4.203-.875-8.734-5.062-10.12c-15.16-5.031-26.91-8.078-36.98-9.594C271.6 145.3 267.8 145.1 264 144.8V104C264 99.58 260.4 96 256 96S248 99.58 248 104v40.25C209.2 145.2 182.3 162.2 177 191.4C168.4 239.5 215.9 252.1 244.3 261l9.594 2.656c44.5 12.27 71.11 22.03 65.34 54.11c-4.734 26.41-36.28 39.14-80.42 32.53c-14.25-2.062-30.55-7.719-44.94-12.7l-7.266-2.516c-4.094-1.406-8.719 .8125-10.16 5c-1.422 4.172 .8125 8.719 5 10.16l7.188 2.469c15.05 5.234 32.11 11.16 47.84 13.42C240.5 366.8 244.1 366.7 248 367V408C248 412.4 251.6 416 256 416s8-3.578 8-8v-40.13c38.79-.9297 65.71-18.06 70.95-47.24C343.7 271.8 298.2 259.3 258.1 248.3zM256 0C114.6 0 0 114.6 0 256s114.6 256 256 256s256-114.6 256-256S397.4 0 256 0zM256 496c-132.3 0-240-107.7-240-240S123.7 16 256 16s240 107.7 240 240S388.3 496 256 496z"/></svg>