<svg xmlns="http://www.w3.org/2000/svg" viewBox="0 0 512 512"><!--! Font Awesome Pro 6.0.0-alpha3 by @fontawesome - https://fontawesome.com License - https://fontawesome.com/license (Commercial License) --><path d="M256 336c-8.836 0-16 7.164-16 16c0 8.838 7.164 16 16 16s16-7.162 16-16C272 343.2 264.8 336 256 336zM256 240C247.2 240 240 247.2 240 256c0 8.838 7.164 16 16 16s16-7.162 16-16C272 247.2 264.8 240 256 240zM256 144C247.2 144 240 151.2 240 160c0 8.838 7.164 16 16 16s16-7.162 16-16C272 151.2 264.8 144 256 144zM256 0c-141.4 0-255.1 114.6-255.1 256S114.6 511.1 256 511.1s256-114.6 256-255.1S397.4 0 256 0zM256 496c-132.3 0-240-107.7-240-240S123.7 16 256 16s240 107.7 240 240S388.3 496 256 496z"/></svg>