<svg xmlns="http://www.w3.org/2000/svg" viewBox="0 0 512 512"><!--! Font Awesome Pro 6.0.0-alpha3 by @fontawesome - https://fontawesome.com License - https://fontawesome.com/license (Commercial License) --><path d="M288 128H184C179.6 128 176 131.6 176 136v240C176 380.4 179.6 384 184 384S192 380.4 192 376V320h96c52.94 0 96-43.06 96-96S340.9 128 288 128zM288 304H192v-160h96c44.11 0 80 35.89 80 80S332.1 304 288 304zM256 0C114.8 0 0 114.8 0 256s114.8 256 256 256s256-114.8 256-256S397.2 0 256 0zM256 496c-132.3 0-240-107.7-240-240S123.7 16 256 16s240 107.7 240 240S388.3 496 256 496z"/></svg>