<svg xmlns="http://www.w3.org/2000/svg" viewBox="0 0 576 512"><!--! Font Awesome Pro 6.0.0-alpha3 by @fontawesome - https://fontawesome.com License - https://fontawesome.com/license (Commercial License) --><path d="M370.1 152c-2.918 0-5.881 .5742-8.725 1.75l-196 84c-9.562 4.094-14.98 14.47-12.89 24.62C154.5 272.6 163.6 280 173.1 280H264v90c0 10.41 7.391 19.5 17.62 21.59C283.1 391.9 284.6 392 285.1 392c8.797 0 16.73-5.219 20.23-13.31l84-196c3.562-8.344 1.719-17.86-4.656-24.2C381.4 154.3 375.8 152 370.1 152zM375.5 176.4l-83.98 195.9c-.9355 2.168-3.167 3.584-6.573 3.584c-.0938 0 .0977 .0039 0 0C282.2 375.4 280 372.8 280 370V264H173.1c-2.785 0-5.311-2.07-5.877-4.824C167.5 256.5 169.1 253.6 171.6 252.5l195.8-83.93c.8535-.3516 1.73-.5313 2.607-.5313c1.586 0 3.055 .6016 4.221 1.777C376 171.6 376.5 174.1 375.5 176.4zM288 0C146.8 0 32 114.8 32 256s114.8 256 256 256s256-114.8 256-256S429.2 0 288 0zM288 496c-132.3 0-240-107.7-240-240S155.7 16 288 16s240 107.7 240 240S420.3 496 288 496z"/></svg>