<svg xmlns="http://www.w3.org/2000/svg" viewBox="0 0 512 512"><!--! Font Awesome Pro 6.0.0-alpha3 by @fontawesome - https://fontawesome.com License - https://fontawesome.com/license (Commercial License) --><path d="M472 384h-48C419.6 384 416 387.6 416 392s3.594 8 8 8h48c13.22 0 24 10.78 24 24v48c0 13.22-10.78 24-24 24H40c-13.22 0-24-10.78-24-24v-48c0-13.22 10.78-24 24-24h48C92.41 400 96 396.4 96 392S92.41 384 88 384h-48C17.94 384 0 401.9 0 424v48C0 494.1 17.94 512 40 512h432c22.06 0 40-17.94 40-40v-48C512 401.9 494.1 384 472 384zM56 448c0 4.406 3.594 8 8 8h384c4.406 0 8-3.594 8-8s-3.594-8-8-8H64C59.59 440 56 443.6 56 448zM256 416c114.9 0 208-93.13 208-208S370.9 0 256 0S48 93.13 48 208S141.1 416 256 416zM256 16c105.9 0 192 86.13 192 192s-86.13 192-192 192s-192-86.13-192-192S150.1 16 256 16zM245.4 213.4l8.531 2.266c39 10.22 62.31 18.31 57.38 44.3c-4.625 24.69-38.69 31.14-70.53 26.58C228.1 284.8 213.6 280 200.8 275.8L194.5 273.7C190.3 272.4 185.8 274.7 184.4 278.9C183 283.1 185.3 287.6 189.5 288.9l6.312 2.078C209.3 295.5 224.5 300.5 238.6 302.4C241.9 302.9 244.8 302.9 248 303.1V336c0 4.422 3.594 8 8 8s8-3.578 8-8V303.8c34.42-1.049 58.33-15.82 63.06-40.86c8.031-42.52-34.72-53.73-69.06-62.75L249.6 198C213.7 188.3 196.3 179.2 200.7 156c4.656-24.69 38.69-31.11 70.5-26.58c8.094 1.156 17.75 3.562 30.41 7.547c4.344 1.344 8.719-1 10.03-5.219c1.344-4.203-1-8.703-5.219-10.03c-13.5-4.266-23.97-6.859-32.97-8.141C270.2 113.1 267.1 113 264 112.7V80c0-4.422-3.594-8-8-8S248 75.58 248 80v32.29C213.6 113.4 189.7 128 184.9 153C177 195 219.8 206.6 245.4 213.4z"/></svg>