<svg xmlns="http://www.w3.org/2000/svg" viewBox="0 0 512 512"><!--! Font Awesome Pro 6.0.0-alpha3 by @fontawesome - https://fontawesome.com License - https://fontawesome.com/license (Commercial License) --><path d="M352 128h-32V104C320 99.58 316.4 96 312 96S304 99.58 304 104V128h-96V104C208 99.58 204.4 96 200 96S192 99.58 192 104V128H160C142.3 128 128 142.3 128 160v192c0 17.67 14.33 32 32 32h192c17.67 0 32-14.33 32-32V160C384 142.3 369.7 128 352 128zM368 352c0 8.836-7.164 16-16 16H160c-8.836 0-16-7.164-16-16V232h224V352zM368 216h-224V160c0-8.836 7.164-16 16-16h32v24C192 172.4 195.6 176 200 176S208 172.4 208 168V144h96v24c0 4.422 3.578 8 8 8S320 172.4 320 168V144h32c8.836 0 16 7.164 16 16V216zM256 0C114.6 0 0 114.6 0 256c0 141.4 114.6 256 256 256s256-114.6 256-256C512 114.6 397.4 0 256 0zM256 496c-132.3 0-240-107.7-240-240S123.7 16 256 16s240 107.7 240 240S388.3 496 256 496z"/></svg>