<svg xmlns="http://www.w3.org/2000/svg" viewBox="0 0 640 512"><!--! Font Awesome Pro 6.0.0-alpha3 by @fontawesome - https://fontawesome.com License - https://fontawesome.com/license (Commercial License) --><path d="M120 296h-48c-8.812 0-16 7.172-16 16v48c0 8.828 7.188 16 16 16h48c8.812 0 16-7.172 16-16v-48C136 303.2 128.8 296 120 296zM120 359.1C120 360 120 359.1 120 359.1L72 360v-48h48V359.1zM120 424h-48c-8.812 0-16 7.172-16 16v48c0 8.828 7.188 16 16 16h48c8.812 0 16-7.172 16-16v-48C136 431.2 128.8 424 120 424zM120 487.1C120 488 120 487.1 120 487.1L72 488v-48h48V487.1zM408 200h-48c-8.812 0-16 7.172-16 16v48c0 8.828 7.188 16 16 16h48c8.812 0 16-7.172 16-16v-48C424 207.2 416.8 200 408 200zM408 263.1C408 264 408 263.1 408 263.1L360 264v-48h48V263.1zM608 192l-128 .0098V32c0-17.67-14.33-32-31.1-32H319.1C302.3 0 288 14.33 288 32v64.01L216 96V8C216 3.578 212.4 0 208 0S200 3.578 200 8V96h-112V8C88 3.578 84.41 0 80 0S72 3.578 72 8V96H32C14.33 96 0 110.3 0 128v376C0 508.4 3.594 512 8 512s8-3.578 8-8V128c0-8.838 7.164-16 16-16h272V32c0-8.838 7.164-16 16-16h128c8.836 0 16 7.162 16 16v176H608c8.836 0 16 7.162 16 16v280c0 4.422 3.594 8 8 8S640 508.4 640 504V224C640 206.3 625.7 192 608 192zM120 168h-48c-8.812 0-16 7.172-16 16v48c0 8.828 7.188 16 16 16h48c8.812 0 16-7.172 16-16v-48C136 175.2 128.8 168 120 168zM120 231.1C120 232 120 231.1 120 231.1L72 232v-48h48V231.1zM568 296h-48c-8.812 0-16 7.172-16 16v48c0 8.828 7.188 16 16 16h48c8.812 0 16-7.172 16-16v-48C584 303.2 576.8 296 568 296zM568 359.1C568 360 568 359.1 568 359.1L520 360v-48h48V359.1zM408 72h-48c-8.812 0-16 7.172-16 16v48c0 8.828 7.188 16 16 16h48c8.812 0 16-7.172 16-16v-48C424 79.17 416.8 72 408 72zM408 135.1C408 136 408 135.1 408 135.1L360 136v-48h48V135.1zM248 168h-48c-8.812 0-16 7.172-16 16v48c0 8.828 7.188 16 16 16h48c8.812 0 16-7.172 16-16v-48C264 175.2 256.8 168 248 168zM248 231.1C248 232 248 231.1 248 231.1L200 232v-48h48V231.1zM408 328h-48c-8.812 0-16 7.172-16 16v48c0 8.828 7.188 16 16 16h48c8.812 0 16-7.172 16-16v-48C424 335.2 416.8 328 408 328zM408 391.1C408 392 408 391.1 408 391.1L360 392v-48h48V391.1zM568 424h-48c-8.812 0-16 7.172-16 16v48c0 8.828 7.188 16 16 16h48c8.812 0 16-7.172 16-16v-48C584 431.2 576.8 424 568 424zM568 487.1C568 488 568 487.1 568 487.1L520 488v-48h48V487.1zM248 424h-48c-8.812 0-16 7.172-16 16v48c0 8.828 7.188 16 16 16h48c8.812 0 16-7.172 16-16v-48C264 431.2 256.8 424 248 424zM248 487.1C248 488 248 487.1 248 487.1L200 488v-48h48V487.1zM248 296h-48c-8.812 0-16 7.172-16 16v48c0 8.828 7.188 16 16 16h48c8.812 0 16-7.172 16-16v-48C264 303.2 256.8 296 248 296zM248 359.1C248 360 248 359.1 248 359.1L200 360v-48h48V359.1z"/></svg>