<svg xmlns="http://www.w3.org/2000/svg" viewBox="0 0 448 512"><!--! Font Awesome Pro 6.0.0-alpha3 by @fontawesome - https://fontawesome.com License - https://fontawesome.com/license (Commercial License) --><path d="M224 0C100.3 0 0 100.3 0 224v248C0 494.1 17.94 512 40 512h368c22.06 0 40-17.94 40-40V224C448 100.3 347.7 0 224 0zM432 472c0 13.22-10.78 24-24 24H40c-13.22 0-24-10.78-24-24V306.8C48.95 389.5 129.6 448 224 448s175-58.51 208-141.2V472zM224 432c-114.7 0-208-93.31-208-208S109.3 16 224 16s208 93.31 208 208S338.7 432 224 432zM232 236.1V104c0-4.406-3.587-8-7.993-8S216 99.59 216 104V240c0 2.469 1.125 4.812 3.094 6.312l72 56C292.6 303.4 294.3 304 296 304c2.375 0 4.75-1.062 6.312-3.094c2.719-3.469 2.094-8.5-1.406-11.22L232 236.1z"/></svg>