<svg xmlns="http://www.w3.org/2000/svg" viewBox="0 0 512 512"><!--! Font Awesome Pro 6.0.0-alpha3 by @fontawesome - https://fontawesome.com License - https://fontawesome.com/license (Commercial License) --><path d="M264 252.7V95.1c0-4.422-3.594-8-8-8s-8 3.578-8 8v163.3l98.34 98.34C347.9 359.2 349.9 359.1 352 359.1s4.094-.7813 5.656-2.344c3.125-3.125 3.125-8.188 0-11.31L264 252.7zM255.1 0c-141.4 0-256 114.6-256 256s114.6 256 256 256s255.1-114.6 255.1-256S397.4 0 255.1 0zM256 496c-132.3 0-240-107.7-240-240S123.7 16 256 16s240 107.7 240 240S388.3 496 256 496z"/></svg>