<svg xmlns="http://www.w3.org/2000/svg" viewBox="0 0 512 512"><!--! Font Awesome Pro 6.0.0-alpha3 by @fontawesome - https://fontawesome.com License - https://fontawesome.com/license (Commercial License) --><path d="M280 96c0-2.375-1.062-4.625-2.875-6.156l-96-80C177.8 7.062 172.7 7.469 169.9 10.88C167 14.28 167.5 19.31 170.9 22.16L249.9 88H144C104.3 88 72 120.3 72 160v192.8C40.47 356.8 16 383.4 16 416c0 35.35 28.65 64 64 64c35.35 0 64-28.65 64-64c0-32.61-24.47-59.22-56-63.2V160c0-30.88 25.12-56 56-56h105.9L170.9 169.8c-3.391 2.844-3.844 7.875-1.016 11.28C171.4 183 173.7 184 176 184c1.812 0 3.625-.5938 5.125-1.844l96-80C278.9 100.6 280 98.38 280 96zM128 416c0 26.47-21.53 48-48 48S32 442.5 32 416s21.53-48 48-48S128 389.5 128 416zM256 98.91V93.09L259.5 96L256 98.91zM432 32c-35.35 0-64 28.65-64 64c0 32.61 24.47 59.22 56 63.2V352c0 30.88-25.12 56-56 56h-105.9l79.02-65.84c3.391-2.844 3.844-7.875 1.016-11.28c-2.828-3.438-7.891-3.875-11.27-1.031l-96 80C233.1 411.4 232 413.6 232 416s1.062 4.625 2.875 6.156l96 80C332.4 503.4 334.2 504 336 504c2.281 0 4.562-.9687 6.141-2.875c2.828-3.406 2.375-8.438-1.016-11.28L262.1 424H368c39.7 0 72-32.31 72-72V159.2C471.5 155.2 496 128.6 496 96C496 60.65 467.3 32 432 32zM256 418.9L252.5 416L256 413.1V418.9zM432 144C405.5 144 384 122.5 384 96s21.53-48 48-48S480 69.53 480 96S458.5 144 432 144z"/></svg>