<svg xmlns="http://www.w3.org/2000/svg" viewBox="0 0 512 512"><!--! Font Awesome Pro 6.0.0-alpha3 by @fontawesome - https://fontawesome.com License - https://fontawesome.com/license (Commercial License) --><path d="M320 0C213.1 0 128 28.65 128 64v56.05C128 124.4 131.6 128 135.9 128S144 124.4 144 120.1V89.54C173.6 112.2 241.2 128 320 128s146.4-15.83 176-38.46V152c0 17.68-29.26 37.56-74.16 50.41C418.4 203.4 416 206.5 416 210c0 4.485 3.67 7.983 7.884 7.983c1.72 0 47.02-11.82 72.12-35.32V248c0 12.19-28.16 30.68-74.03 43.04C418.5 291.1 416 295.1 416 298.7v.4215c0 4.529 3.717 7.941 7.994 7.941C435.9 307.1 512 281.1 512 248V64C512 28.65 426 0 320 0zM320 112C206.1 112 144 80.29 144 64S206.1 16 320 16s176 31.71 176 48S433.9 112 320 112zM192 160C85.96 160 0 195.8 0 240v200C0 475.3 85.96 512 192 512s192-36.65 192-72V240C384 195.8 298 160 192 160zM368 440c0 19.67-72.58 56-176 56s-176-36.33-176-56v-73.2C46.22 395.1 115.6 416 192 416s145.8-20.88 176-49.2V440zM368 336c0 28.98-78.5 64-176 64s-176-35.02-176-64V274.1C44.47 302.2 108.1 320 192 320s147.5-17.79 176-45.88V336zM192 304c-100.3 0-176-27.52-176-64c0-30.21 75.27-64 176-64s176 33.79 176 64C368 276.5 292.3 304 192 304z"/></svg>