<svg xmlns="http://www.w3.org/2000/svg" viewBox="0 0 512 512"><!--! Font Awesome Pro 6.0.0-alpha3 by @fontawesome - https://fontawesome.com License - https://fontawesome.com/license (Commercial License) --><path d="M256 64C114.8 64 0 128.6 0 208v96c0 79.41 114.8 144 256 144s256-64.59 256-144v-96C512 128.6 397.2 64 256 64zM256 80c132.3 0 240 57.42 240 128s-107.7 128-240 128s-240-57.42-240-128S123.7 80 256 80zM440 307.9v78.15c-29.09 18.53-67.78 32.63-112 40.06V346.1C371.2 338.1 409.6 325.6 440 307.9zM184 346.1v79.98c-44.22-7.432-82.91-21.53-112-40.06V307.9C102.4 325.6 140.8 338.1 184 346.1zM16 304V257.6c9.562 14.58 23.06 28.08 40 40.01v76.96C30.78 354.3 16 330.1 16 304zM200 428.3v-79.92C218.1 350.7 236.7 352 256 352s37.95-1.301 56-3.578v79.92C293.1 430.6 275.3 432 256 432S217.1 430.6 200 428.3zM496 304c0 26.08-14.78 50.35-40 70.6V297.6c16.94-11.94 30.44-25.43 40-40.01V304z"/></svg>