<svg xmlns="http://www.w3.org/2000/svg" viewBox="0 0 320 512"><!--! Font Awesome Pro 6.0.0-alpha3 by @fontawesome - https://fontawesome.com License - https://fontawesome.com/license (Commercial License) --><path d="M306.1 392.5c-30.97 24.96-67.95 37.35-105.2 38.89L281.4 102.6c8.852 4.922 17.49 10.43 25.63 16.98c3.406 2.75 8.422 2.219 11.25-1.187c2.766-3.437 2.219-8.5-1.219-11.25c-10.04-8.105-20.7-14.95-31.73-20.77l18.49-76.44c1.031-4.281-1.609-8.625-5.906-9.656c-4.281-1.062-8.594 1.625-9.656 5.906l-17.87 73.87c-24.3-10.32-49.93-15.6-75.75-15.62l13.18-54.49c1.031-4.281-1.609-8.625-5.906-9.656c-4.219-1.062-8.609 1.625-9.656 5.906l-14.22 58.77C133.8 68.63 90.69 86.9 56.95 120.2C20.23 156.5 0 204.7 0 255.1s20.23 99.54 56.95 135.8c10.86 10.72 22.87 19.5 35.38 27.19l-20.12 83.15c-1.031 4.281 1.609 8.625 5.906 9.656C78.75 511.9 79.41 512 80.02 512c3.609 0 6.87-2.469 7.761-6.125l19.18-79.25c23.56 11.84 48.78 18.7 74.59 20.4l-13.33 55.1c-1.031 4.281 1.609 8.625 5.906 9.656C174.8 511.9 175.4 512 176 512c3.609 0 6.871-2.469 7.761-6.125l14.01-57.91c42.11-.7363 84.19-14.79 119.2-43.06c3.438-2.75 3.984-7.812 1.219-11.25C315.4 390.3 310.4 389.7 306.1 392.5zM68.2 380.4c-33.66-33.25-52.2-77.4-52.2-124.4s18.55-91.15 52.2-124.4c29.59-29.23 67.07-45.57 105.8-50l-77.72 321.2C86.36 396.4 76.9 389 68.2 380.4zM110.8 410.8l79.98-330.6c25.82-.5156 51.58 4.816 75.78 15.5l-81.36 336.3C159.4 430.7 134.1 423.1 110.8 410.8z"/></svg>