<svg xmlns="http://www.w3.org/2000/svg" viewBox="0 0 576 512"><!--! Font Awesome Pro 6.0.0-alpha3 by @fontawesome - https://fontawesome.com License - https://fontawesome.com/license (Commercial License) --><path d="M384.6 122.6L240.3 188.5C232.6 192.1 224.1 200.5 220.6 208.3L154.6 352.6c-4.875 10.66-2.688 22.89 5.594 31.19c5.375 5.359 12.41 8.172 19.56 8.172c3.906 0 7.875-.8281 11.62-2.547l144.4-65.98c7.719-3.531 16.19-12 19.69-19.7l65.97-144.4c4.875-10.64 2.688-22.88-5.594-31.16C407.5 119.9 395.3 117.7 384.6 122.6zM406.8 152.7l-65.97 144.4c-1.938 4.234-7.562 9.859-11.78 11.8l-144.3 65.97c-6.812 3.125-11.84-1-13.22-2.375c-1.375-1.359-5.531-6.312-2.375-13.22l65.97-144.4c1.938-4.25 7.562-9.875 11.81-11.81l144.3-65.97c7-3.188 11.91 1.047 13.25 2.391C405.8 140.9 409.1 145.8 406.8 152.7zM288 224C279.8 224 271.6 227.1 265.4 233.4c-12.5 12.5-12.5 32.75 0 45.25C271.6 284.9 279.8 288 288 288s16.38-3.124 22.63-9.374c12.5-12.5 12.5-32.77 0-45.25C304.4 227.1 296.2 224 288 224zM299.3 267.3C296.3 270.3 292.3 272 288 272S279.7 270.3 276.7 267.3S272 260.3 272 256c0-4.271 1.664-8.289 4.688-11.31S283.7 240 288 240s8.289 1.664 11.32 4.695C302.3 247.7 304 251.7 304 255.1C304 260.3 302.3 264.3 299.3 267.3zM288 0C146.8 0 32 114.8 32 256s114.8 256 256 256s256-114.8 256-256S429.2 0 288 0zM288 496c-132.3 0-240-107.7-240-240S155.7 16 288 16s240 107.7 240 240S420.3 496 288 496z"/></svg>