<svg xmlns="http://www.w3.org/2000/svg" viewBox="0 0 640 512"><!--! Font Awesome Pro 6.0.0-alpha3 by @fontawesome - https://fontawesome.com License - https://fontawesome.com/license (Commercial License) --><path d="M403.4 230.3l12.91 10.26l37.1-81.2c4.875-10.64 2.688-22.88-5.594-31.16c-8.312-8.312-20.56-10.52-31.19-5.656l-94.47 43.19l14.05 11.17l87.04-39.79c7-3.188 11.91 1.047 13.25 2.391c1.344 1.359 5.498 6.312 2.344 13.2L403.4 230.3zM236.6 281.7L223.7 271.5l-37.09 81.15c-4.875 10.66-2.688 22.89 5.594 31.19c5.375 5.359 12.41 8.172 19.56 8.172c3.906 0 7.875-.8281 11.62-2.547l94.44-43.16l-14.05-11.17l-87.01 39.77c-6.812 3.125-11.84-1-13.22-2.375c-1.375-1.359-5.533-6.312-2.375-13.22L236.6 281.7zM320 16c132.3 0 240 107.7 240 240c0 30.3-5.877 59.2-16.17 85.92l13.18 10.47C569.2 322.6 576 290.1 576 256c0-141.2-114.8-256-256-256C265.2 0 214.4 17.48 172.7 46.94l12.93 10.28C224 31.21 270.3 16 320 16zM320 496c-132.3 0-240-107.7-240-240c0-30.31 5.881-59.22 16.18-85.95L83 159.6C70.84 189.4 64 221.9 64 256c0 141.2 114.8 256 256 256c54.84 0 105.6-17.49 147.3-46.96l-12.93-10.27C415.1 480.8 369.7 496 320 496zM636.1 497.7L12.99 1.73C11.53 .5664 9.771 0 8.025 0C5.674 0 3.336 1.029 1.738 3.012c-2.75 3.469-2.172 8.5 1.281 11.25l623.1 496c1.484 1.172 3.234 1.734 4.984 1.734c2.344 0 4.688-1.031 6.266-3.016C641 505.5 640.4 500.5 636.1 497.7z"/></svg>