<svg xmlns="http://www.w3.org/2000/svg" viewBox="0 0 576 512"><!--! Font Awesome Pro 6.0.0-alpha3 by @fontawesome - https://fontawesome.com License - https://fontawesome.com/license (Commercial License) --><path d="M343.1 384H199.1c-4.418 0-8 3.582-8 8s3.582 8 7.1 8h144c4.418 0 8-3.582 8-8S348.4 384 343.1 384zM512 32h-448c-35.34 0-64 28.65-64 64v320c0 35.35 28.66 64 64 64h448c35.34 0 64-28.65 64-64V96C576 60.65 547.3 32 512 32zM559.1 416c0 26.47-21.53 48-48 48h-448c-26.47 0-48-21.53-48-48V96c0-26.47 21.53-48 48-48h448c26.47 0 48 21.53 48 48V416zM151.1 384H71.1c-4.418 0-8 3.582-8 8s3.582 8 7.1 8h80c4.418 0 8-3.582 8-8S156.4 384 151.1 384zM496 96h-96c-8.836 0-16 7.164-16 16v64c0 8.836 7.164 16 16 16H496C504.8 192 512 184.8 512 176v-64C512 103.2 504.8 96 496 96zM495.1 176h-96v-64h96V176zM496 256h-64c-8.836 0-16 7.164-16 16L416 304c0 8.836 7.164 16 16 16h64c8.836 0 16-7.164 16-16v-32C512 263.2 504.8 256 496 256zM495.1 304h-64v-32h64V304zM367.1 256h-128C231.2 256 223.1 263.2 223.1 272v32C223.1 312.8 231.2 320 240 320h128c8.836 0 16-7.164 16-16l0-32C383.1 263.2 376.8 256 367.1 256zM367.1 304h-128v-32h128V304zM191.1 272c0-8.836-7.164-16-16-16h-96c-8.836 0-16 7.164-16 16v32c0 8.836 7.164 16 16 16h96c8.836 0 16-7.164 16-16V272zM175.1 304h-96v-32h96V304z"/></svg>