<svg xmlns="http://www.w3.org/2000/svg" viewBox="0 0 576 512"><!--! Font Awesome Pro 6.0.0-alpha3 by @fontawesome - https://fontawesome.com License - https://fontawesome.com/license (Commercial License) --><path d="M151.1 352h-80c-4.418 0-8 3.582-8 8s3.582 8 7.1 8h80c4.418 0 8-3.582 8-8S156.4 352 151.1 352zM512 32h-448c-35.34 0-64 28.65-64 64v320c0 35.35 28.66 64 64 64h448c35.34 0 64-28.65 64-64V96C576 60.65 547.3 32 512 32zM559.1 416c0 26.47-21.53 48-48 48h-448c-26.47 0-48-21.53-48-48V96c0-26.47 21.53-48 48-48h448c26.47 0 48 21.53 48 48V416zM343.1 352H199.1c-4.418 0-8 3.582-8 8s3.582 8 7.1 8h144c4.418 0 8-3.582 8-8S348.4 352 343.1 352z"/></svg>