<svg xmlns="http://www.w3.org/2000/svg" viewBox="0 0 512 512"><!--! Font Awesome Pro 6.0.0-alpha3 by @fontawesome - https://fontawesome.com License - https://fontawesome.com/license (Commercial License) --><path d="M503.1 248h-48.41c-4.137-103.9-87.71-187.5-191.6-191.6V8C263.1 3.578 260.4 0 256 0S247.1 3.578 247.1 8v48.41C144.1 60.54 60.54 144.1 56.41 248H7.1C3.578 248 0 251.6 0 256s3.578 8 7.1 8h48.41c4.137 103.9 87.71 187.5 191.6 191.6V504c0 4.422 3.578 8 8 8s7.1-3.578 7.1-8v-48.41C367.9 451.5 451.5 367.9 455.6 264h48.41C508.4 264 512 260.4 512 256S508.4 248 503.1 248zM359.1 264h79.6c-4.119 95.06-80.54 171.5-175.6 175.6V360c0-4.422-3.578-8-7.1-8s-8 3.578-8 8v79.6C152.9 435.5 76.52 359.1 72.4 264h79.6c4.422 0 8-3.578 8-8S156.4 248 151.1 248H72.4c4.119-95.06 80.54-171.5 175.6-175.6V152c0 4.422 3.578 8 8 8s7.1-3.578 7.1-8V72.4C359.1 76.52 435.5 152.9 439.6 248h-79.6c-4.422 0-7.1 3.578-7.1 8S355.6 264 359.1 264zM255.1 216c-22.06 0-40 17.94-40 40s17.94 40 40 40s40-17.94 40-40S278.1 216 255.1 216zM255.1 280c-13.23 0-24-10.77-24-24s10.77-24 24-24s24 10.77 24 24S269.2 280 255.1 280z"/></svg>