<svg xmlns="http://www.w3.org/2000/svg" viewBox="0 0 640 512"><!--! Font Awesome Pro 6.0.0-alpha3 by @fontawesome - https://fontawesome.com License - https://fontawesome.com/license (Commercial License) --><path d="M415.1 79.97c-8.834 0-15.1 7.179-15.1 16.01c0 8.832 7.166 15.99 15.1 15.99s16-7.168 16-16C431.1 87.14 424.8 79.97 415.1 79.97zM506.1 64.01C492.9 26.8 457.7 0 415.1 0c-53.02 0-96 42.98-96 96.01v30.18l-307.9 267.5c-7.625 5.625-12.12 14.62-12.12 24.12c0 17.54 14.37 30.24 30.24 30.24c4.486 0 9.077-1.027 13.51-3.232l148.2-60.74h98.47l46.04 122.8C337.7 510 340.8 512 343.1 512c.9375 0 1.891-.1562 2.812-.5156c4.141-1.547 6.234-6.156 4.672-10.3L307.6 384h12.45c21.91 0 42.88-3.85 62.49-10.61l50.02 133.4C433.7 510 436.8 512 439.1 512c.9375 0 1.891-.1562 2.812-.5156c4.141-1.547 6.234-6.156 4.672-10.3l-50.07-133.5c67.45-29.78 114.6-97.16 114.6-175.6l0-33.12l118.3-16.72c5.879-.832 10.56-5.465 9.541-10.44C632 93.75 575.2 64.32 506.1 64.01zM495.1 192c0 97.05-78.95 176-176 176H234.1l99.02-38.22c45.66-17.47 79.25-56.38 89.84-104.1c.9531-4.312-1.766-8.594-6.078-9.547c-4.328-.9238-8.594 1.766-9.547 6.078c-9.422 42.46-39.31 77.07-79.95 92.62l-291.6 115.6c-2.066 1.025-4.223 1.547-6.41 1.547c-6.84 0-14.22-5.438-14.22-14.22c0-4.447 2.102-8.652 6.617-12.05l313.4-272.2V96.01c0-44.12 35.89-80.01 80-80.01s80 35.89 80 80V192zM511.1 142.7l0-46.73c0-5.404-.7344-10.61-1.592-15.77c57.36 1.359 99.44 23.77 111.1 47.03L511.1 142.7z"/></svg>