<svg xmlns="http://www.w3.org/2000/svg" viewBox="0 0 384 512"><!--! Font Awesome Pro 6.0.0-alpha3 by @fontawesome - https://fontawesome.com License - https://fontawesome.com/license (Commercial License) --><path d="M382.3 418.4c2.719 3.465 2.094 8.49-1.375 11.21C337.7 463.3 285.6 480 233.6 480c-59.87 0-119.5-22.13-165.1-65.68C24.34 372 0 315.8 0 256c0-59.82 24.34-116 68.53-158.3c85.06-81.37 219.3-87.94 312.4-15.25c3.469 2.715 4.094 7.74 1.375 11.2c-2.781 3.496-7.781 4.121-11.25 1.375c-86.84-67.84-212.2-61.69-291.5 14.21C38.59 148.5 16 200.6 16 256s22.59 107.5 63.59 146.8c27.68 26.48 61.11 43.92 96.41 53.24V263.1C175.1 259.6 179.6 256 183.1 256s8 3.574 8 7.99V283.3C205.2 266.8 225.3 256 247.1 256c29.47 0 55.69 17.63 66.75 44.94c1.656 4.088-.3125 8.738-4.406 10.41c-4.062 1.607-8.781-.3418-10.41-4.416c-8.625-21.24-29-34.96-51.94-34.96c-30.88 0-55.1 25.09-55.1 55.93v131.7c61.42 11.49 127.1-2.033 179.1-42.63C374.5 414.2 379.5 414.8 382.3 418.4z"/></svg>