<svg xmlns="http://www.w3.org/2000/svg" viewBox="0 0 576 512"><!--! Font Awesome Pro 6.0.0-alpha3 by @fontawesome - https://fontawesome.com License - https://fontawesome.com/license (Commercial License) --><path d="M560.1 266l-128.1-50.17V70.14c0-9.625-5.781-18.08-14.72-21.53l-120.9-47.01C293.7 .5312 290.8 0 288 0S282.3 .5312 279.6 1.594L158.7 48.61c-8.969 3.453-14.75 11.91-14.75 21.53v145.7L15.02 266C5.891 269.6-.0001 278.2-.0001 287.1v153.3c0 9.687 5.812 18.28 14.78 21.86l114.7 46.01C134.2 511 139.2 512 144.3 512c4.844 0 9.688-.875 14.41-2.656l129.3-52.7l129.3 52.7C422 511.1 426.9 512 431.7 512c5.062 0 10.06-.9687 14.81-2.875l114.7-46.01c8.969-3.578 14.78-12.17 14.78-21.86V287.1C575.1 278.2 570.1 269.6 560.1 266zM415.1 216.8c0 .9023-.4434 1.652-.7539 2.455l-119.2 46.37V118.2l120-46.67V216.8zM285.5 16.5C285.5 16.5 285.4 16.5 285.5 16.5C286.2 16.17 287.1 16.02 287.1 16.02s1.75 .1562 2.562 .4844l111.4 43.3L287.1 104.1L174.1 59.8L285.5 16.5zM159.1 71.49l120 46.67v147.5L160.8 219.2c-.3105-.8027-.7539-1.553-.7539-2.455V71.49zM135.1 494.4c-.1914-.0703-.4023-.041-.5938-.1172l-114.7-46.01C17.86 447.1 15.1 444.4 15.1 441.3V291.9l120 49.4V494.4zM144.1 327.4L26.16 278.8l121.8-47.39l121.4 47.21L144.1 327.4zM152.8 494.5c-.2734 .1015-.5684 .0566-.8438 .1484v-153.1l128-49.78v150.9L152.8 494.5zM423.1 494.6c-.2754-.0918-.5703-.0469-.8438-.1484l-127.2-51.83V291.7l128 49.78V494.6zM306.6 278.7l121.4-47.21l121.8 47.39l-117.9 48.56L306.6 278.7zM559.1 441.3c0 3.109-1.859 5.859-4.734 7.015l-114.7 46.01c-.1914 .0762-.4023 .0469-.5938 .1172v-153l120-49.4V441.3z"/></svg>