<svg xmlns="http://www.w3.org/2000/svg" viewBox="0 0 512 512"><!--! Font Awesome Pro 6.0.0-alpha3 by @fontawesome - https://fontawesome.com License - https://fontawesome.com/license (Commercial License) --><path d="M486 83.55l-216-81c-9.062-3.406-19.03-3.406-28.09 0L25.97 83.54C10.44 89.35-.0001 104.4-.0001 120.1v270c0 16.59 10.44 31.64 25.95 37.44l216 81C246.5 511.2 251.3 512 256 512s9.516-.8438 14.05-2.547l215.1-80.98c15.53-5.812 25.97-20.86 25.97-37.45V120.1C511.1 104.4 501.6 89.35 486 83.55zM31.58 98.52l216-81c2.719-1.016 5.562-1.516 8.422-1.516s5.703 .5 8.422 1.516L480.4 98.54c3.227 1.207 5.898 3.25 8.258 5.594L255.1 197.2L23.31 104.1C25.67 101.8 28.34 99.74 31.58 98.52zM31.56 413.5c-9.312-3.484-15.56-12.5-15.56-22.45V120.1c0-.832 .2891-1.596 .375-2.412l231.6 92.65v283.3c-.1367-.0488-.2852-.0254-.4219-.0762L31.56 413.5zM495.1 391c0 9.953-6.25 18.97-15.58 22.47l-216 81c-.1367 .0508-.2852 .0273-.4219 .0762V211.2l231.6-92.65c.0859 .8164 .375 1.58 .375 2.412V391z"/></svg>