<svg xmlns="http://www.w3.org/2000/svg" viewBox="0 0 640 512"><!--! Font Awesome Pro 6.0.0-alpha3 by @fontawesome - https://fontawesome.com License - https://fontawesome.com/license (Commercial License) --><path d="M576 0h-64c-35.35 0-64 28.65-64 64v64c0 35.35 28.65 64 64 64h64c35.35 0 64-28.65 64-64V64C640 28.65 611.3 0 576 0zM624 128c0 26.47-21.53 48-48 48h-64c-26.47 0-48-21.53-48-48V64c0-26.47 21.53-48 48-48h64c26.47 0 48 21.53 48 48V128zM352 320H288c-35.35 0-64 28.65-64 64v64c0 35.35 28.65 64 64 64h64c35.35 0 64-28.65 64-64v-64C416 348.7 387.3 320 352 320zM400 448c0 26.47-21.53 48-48 48H288c-26.47 0-48-21.53-48-48v-64c0-26.47 21.53-48 48-48h64c26.47 0 48 21.53 48 48V448zM416 88H192V64c0-35.35-28.65-64-64-64H64C28.65 0 0 28.65 0 64v64c0 35.35 28.65 64 64 64h63.83c6.238 0 12.31-1.174 18.01-2.838l71.57 103.4C218.1 294.8 221.5 296 224 296c1.578 0 3.172-.4531 4.547-1.422c3.641-2.516 4.547-7.5 2.031-11.12L160.8 182.7C179.4 171.5 192 151.3 192 128V104h224c4.422 0 8-3.578 8-8S420.4 88 416 88zM176 128c0 26.47-21.53 48-48 48H64C37.53 176 16 154.5 16 128V64c0-26.47 21.53-48 48-48h64c26.47 0 48 21.53 48 48V128z"/></svg>