<svg xmlns="http://www.w3.org/2000/svg" viewBox="0 0 640 512"><!--! Font Awesome Pro 6.0.0-alpha3 by @fontawesome - https://fontawesome.com License - https://fontawesome.com/license (Commercial License) --><path d="M40 224H256c14.66 0 28.12-7.984 35.13-20.84l77.81-142.7C373.1 52.78 381.2 48 389.1 48H600C604.4 48 608 44.42 608 40S604.4 32 600 32h-210c-14.66 0-28.12 7.984-35.12 20.84L277.1 195.5C272.9 203.2 264.8 208 256 208H40C35.59 208 32 211.6 32 216S35.59 224 40 224zM608 296C608 291.6 604.4 288 600 288H40C35.59 288 32 291.6 32 296S35.59 304 40 304h145.1c8.813 0 16.88 4.781 21.06 12.5l77.81 142.7C291.9 472 305.3 480 320 480h280c4.406 0 8-3.578 8-8s-3.594-8-8-8H320c-8.812 0-16.88-4.781-21.06-12.5L221.1 308.8C220.1 307.1 218.8 305.6 217.6 304H600C604.4 304 608 300.4 608 296z"/></svg>