<svg xmlns="http://www.w3.org/2000/svg" viewBox="0 0 640 512"><!--! Font Awesome Pro 6.0.0-alpha3 by @fontawesome - https://fontawesome.com License - https://fontawesome.com/license (Commercial License) --><path d="M576 32H64C28.65 32 0 60.65 0 96v320c0 35.35 28.65 64 64 64h512c35.35 0 64-28.65 64-64V96C640 60.65 611.3 32 576 32zM392 48h96V192h-96V48zM392 208h96v136h-96V208zM264 48h112v296h-112V48zM152 48h96V192h-96V48zM152 208h96v136h-96V208zM16 96c0-26.47 21.53-48 48-48h72v296H16V96zM312 464H64c-26.47 0-48-21.53-48-48v-56h296V464zM624 416c0 26.47-21.53 48-48 48h-248v-104h296V416zM624 344h-120V48H576c26.47 0 48 21.53 48 48V344z"/></svg>