<svg xmlns="http://www.w3.org/2000/svg" viewBox="0 0 512 512"><!--! Font Awesome Pro 6.0.0-alpha3 by @fontawesome - https://fontawesome.com License - https://fontawesome.com/license (Commercial License) --><path d="M448 288h-96c-35.35 0-64 28.65-64 64v96c0 35.35 28.65 64 64 64h96c35.35 0 64-28.65 64-64v-96C512 316.7 483.3 288 448 288zM496 448c0 26.47-21.53 48-48 48h-96c-26.47 0-48-21.53-48-48v-96c0-26.47 21.53-48 48-48h96c26.47 0 48 21.53 48 48V448zM248 392H176c-30.88 0-56-25.12-56-56V224H160c35.35 0 64-28.65 64-64V64c0-35.35-28.65-64-64-64H64C28.65 0 0 28.65 0 64v96c0 35.35 28.65 64 64 64h40v112c0 39.69 32.31 72 72 72h72c4.406 0 8-3.594 8-8S252.4 392 248 392zM64 208C37.53 208 16 186.5 16 160V64c0-26.47 21.53-48 48-48h96c26.47 0 48 21.53 48 48v96c0 26.47-21.53 48-48 48H64z"/></svg>