<svg xmlns="http://www.w3.org/2000/svg" viewBox="0 0 640 512"><!--! Font Awesome Pro 6.0.0-alpha3 by @fontawesome - https://fontawesome.com License - https://fontawesome.com/license (Commercial License) --><path d="M600 192h-112C483.6 192 480 195.6 480 200s3.578 8 8 8h112c13.23 0 24 10.78 24 24v240c0 13.22-10.77 24-24 24h-240c-13.23 0-24-10.78-24-24v-48c0-4.406-3.578-8-8-8S320 419.6 320 424v48c0 22.06 17.94 40 40 40h240c22.06 0 40-17.94 40-40v-240C640 209.9 622.1 192 600 192zM480 384c17.64 0 32-14.36 32-32s-14.36-32-32-32s-32 14.36-32 32S462.4 384 480 384zM480 336c8.834 0 16 7.166 16 16s-7.166 16-16 16s-16-7.166-16-16S471.2 336 480 336zM447.1 223.1c0-12.56-4.782-25.13-14.35-34.76L258.8 14.35C249.1 4.783 236.5-.0035 223.1-.0035s-25.08 4.787-34.71 14.35L14.35 189.2C4.782 198.9-.0027 211.4-.0027 223.1s4.785 25.18 14.35 34.8l174.9 174.9C198.9 443.2 211.4 447.1 224 447.1s25.13-4.783 34.75-14.35l174.9-174.9C443.2 249.1 447.1 236.6 447.1 223.1zM431.1 224c0 8.492-3.207 16.98-9.615 23.43l-174.9 174.9C241.2 428.6 232.8 432 224 432s-17.18-3.443-23.44-9.66L25.7 247.5C19.26 240.1 16.04 232.5 16.04 223.1c0-8.492 3.207-16.98 9.615-23.43l174.9-174.9C206.8 19.44 215.2 16 224 16s17.18 3.443 23.44 9.66l174.9 174.9C428.7 207 431.1 215.5 431.1 224zM112 192c-17.64 0-32 14.36-32 32s14.36 32 32 32s32-14.36 32-32S129.6 192 112 192zM112 240C103.2 240 96 232.8 96 224s7.166-16 16-16S128 215.2 128 224S120.8 240 112 240zM224 304c-17.64 0-32 14.36-32 32s14.36 32 32 32s32-14.36 32-32S241.6 304 224 304zM224 352c-8.834 0-16-7.166-16-16S215.2 320 224 320s16 7.166 16 16S232.8 352 224 352zM224 192C206.4 192 192 206.4 192 224s14.36 32 32 32s32-14.36 32-32S241.6 192 224 192zM224 240C215.2 240 208 232.8 208 224S215.2 208 224 208S240 215.2 240 224S232.8 240 224 240zM224 80c-17.64 0-32 14.36-32 32s14.36 32 32 32s32-14.36 32-32S241.6 80 224 80zM224 128C215.2 128 208 120.8 208 112S215.2 96 224 96s16 7.166 16 16S232.8 128 224 128zM336 192c-17.64 0-32 14.36-32 32s14.36 32 32 32s32-14.36 32-32S353.6 192 336 192zM336 240C327.2 240 320 232.8 320 224s7.166-16 16-16S352 215.2 352 224S344.8 240 336 240z"/></svg>