<svg xmlns="http://www.w3.org/2000/svg" viewBox="0 0 512 512"><!--! Font Awesome Pro 6.0.0-alpha3 by @fontawesome - https://fontawesome.com License - https://fontawesome.com/license (Commercial License) --><path d="M512 309.1c0-7.045-2.342-14.15-7.127-20.07l-224-277.1C274.5 3.969 265.2 0 256 0S237.5 3.969 231.1 11.88l-224 277.1C2.342 294.9 0 302 0 309.1c0 9.61 4.358 19.12 12.62 25.43l224 170.1C242.3 509.9 249.2 512 256 512c6.843 0 13.66-2.135 19.37-6.51l224-170.1C507.6 328.2 512 318.7 512 309.1zM247.1 493.3C247.5 493 246.8 493.1 246.3 492.7l-224-170.9C15.68 316.8 15.1 309.4 15.1 309.1c0-3.628 1.231-7.117 3.547-9.986l224-277.1c1.215-1.5 2.801-2.527 4.402-3.484V493.3zM489.7 321.8l-224.1 170.1c-.4766 .3652-1.156 .2539-1.664 .5586V18.44c1.609 .957 3.195 1.99 4.414 3.492l224 277.2c2.319 2.872 3.55 6.36 3.55 9.989C496 309.4 496.3 316.8 489.7 321.8z"/></svg>