<svg xmlns="http://www.w3.org/2000/svg" viewBox="0 0 576 512"><!--! Font Awesome Pro 6.0.0-alpha3 by @fontawesome - https://fontawesome.com License - https://fontawesome.com/license (Commercial License) --><path d="M512 96.01l-48-.0207l-7.125-14.25c-4.875-9.875-17.75-17.75-28.62-17.75l-53.63-.0085L347.3 36.73C344.1 33.44 340 31.1 336.1 31.1C327.9 31.1 320 38.35 320 47.98v165.9l-275.1-212.2c-3.438-2.687-8.5-2.094-11.22 1.469C30.97 6.642 31.62 11.64 35.12 14.36l271.8 209.6L160 223.1c-16.12 0-30.67 6.162-41.93 15.1H104c-30.88 0-56-25.12-56-55.1c0-4.406-3.594-7.1-8-7.1S32 179.6 32 184c0 39.69 32.31 71.1 72 71.1h.877C99.38 265.4 96 276.3 96 287.1v192C96 497.7 110.3 512 128 512h32c17.67 0 32-14.33 32-31.1v-95.1l160-.0229v96.02C352 497.7 366.3 512 384 512h32c17.67 0 32-14.33 32-31.1V224h32c35.35 0 64-28.65 64-63.1V128C544 110.3 529.7 96.01 512 96.01zM288 368H176l.0007 111.1c0 8.822-7.178 15.1-16 15.1H128c-8.822 0-16-7.178-16-15.1V287.1C112 261.5 133.5 239.1 160 239.1l128 .002V368zM432 480c0 8.822-7.178 15.1-16 15.1h-32c-8.822 0-15.1-7.177-15.1-15.1L368 368h-64V240h22.38L432 285.3V480zM528 160c0 26.47-21.53 47.98-47.1 47.98L432 208v59.87l-96-41.14l-.0499-178.7c.0156-.0137-.0313 .0137 0 0l32.07 31.96h60.23c4.912 0 12.12 4.457 14.31 8.906l11.55 23.09H512c8.822 0 16 7.178 16 15.1V160zM416 104c-6.627 0-12 5.373-12 11.1s5.373 11.99 12 11.99S428 122.6 428 116S422.6 104 416 104z"/></svg>