<svg xmlns="http://www.w3.org/2000/svg" viewBox="0 0 576 512"><!--! Font Awesome Pro 6.0.0-alpha3 by @fontawesome - https://fontawesome.com License - https://fontawesome.com/license (Commercial License) --><path d="M512 96L464 96l-7.125-14.25C452 71.88 439.1 64 428.3 64l-53.63 .0008l-27.38-27.25C344 33.47 340 32 336.1 32C327.9 32 320 38.37 320 48v175.1l-160-.002c-16.12 0-30.67 6.162-41.93 15.1H104c-30.88 0-56-25.12-56-55.1c0-4.406-3.578-7.1-8-7.1S32 179.6 32 184c0 39.69 32.3 71.1 72 71.1h.877C99.38 265.4 96 276.3 96 287.1v192C96 497.7 110.3 512 128 512h32c17.67 0 32-14.33 32-31.1v-95.1h160v95.1C352 497.7 366.3 512 384 512h32c17.67 0 32-14.33 32-31.1V224h32c35.35 0 64-28.65 64-63.1v-32C544 110.3 529.7 96 512 96zM432 480c0 8.822-7.178 15.1-16 15.1h-32c-8.822 0-16-7.178-16-16v-111.1h-192v111.1c0 8.822-7.178 16-16 16H128c-8.822 0-16-7.178-16-15.1V287.1c0-26.47 21.53-47.1 48-47.1l166.4 .002L432 285.3V480zM528 160c0 26.47-21.53 47.1-48 47.1l-48 .0008v59.87l-96-41.14l-.0501-178.7c.0156-.0137-.0313 .0137 0 0l32.07 31.97h60.23c4.912 0 12.12 4.457 14.31 8.906l11.55 23.09H512c8.822 0 16 7.178 16 15.1V160zM416 104c-6.627 0-12 5.373-12 11.1S409.4 128 416 128s12-5.374 12-12S422.6 104 416 104z"/></svg>