<svg xmlns="http://www.w3.org/2000/svg" viewBox="0 0 320 512"><!--! Font Awesome Pro 6.0.0-alpha3 by @fontawesome - https://fontawesome.com License - https://fontawesome.com/license (Commercial License) --><path d="M302.1 369.3c-9.531 49.86-60.16 78.73-133.2 78.73c-.2363 0-.5137-.0547-.75-.0547V504c0 4.422-3.657 8-8.063 8s-7.937-3.578-7.937-8v-57.15C142.9 446.3 133.1 446.2 124.2 444.8c-29.06-3.938-60.97-14.33-89.15-23.48l-13.47-4.359c-4.219-1.344-6.531-5.859-5.187-10.06c1.375-4.203 5.906-6.453 10.06-5.188l13.56 4.391c27.53 8.953 58.72 19.09 86.37 22.86c87.75 12.34 150.4-12.25 160-62.63c12.72-66.25-55.87-83.94-128.5-102.7L139.9 258.1c-54.69-14.5-137.3-36.42-121.1-116.3C27.47 92.68 78.65 64.14 152 64.3V8c0-4.422 3.606-8 8.012-8c4.406 0 7.988 3.578 7.988 8v56.72c9.058 .5156 18.19 1.125 27.81 2.486c18.69 2.641 40.5 7.953 68.56 16.7c4.219 1.312 6.562 5.812 5.25 10.02c-1.312 4.219-5.781 6.578-9.1 5.266c-27.25-8.5-48.22-13.62-66.06-16.14C106.1 70.64 43.29 95.3 33.6 145.7c-11.56 60.34 43.16 80.02 110.4 97.84l17.87 4.656C234.9 267 317.7 288.3 302.1 369.3z"/></svg>