<svg xmlns="http://www.w3.org/2000/svg" viewBox="0 0 448 512"><!--! Font Awesome Pro 6.0.0-alpha3 by @fontawesome - https://fontawesome.com License - https://fontawesome.com/license (Commercial License) --><path d="M408 464H40C35.58 464 32 467.6 32 472S35.58 480 40 480h368c4.422 0 8-3.594 8-8S412.4 464 408 464zM216 416c44.73 0 83.37-24.9 104-61.28V408c0 4.406 3.578 8 8 8s8-3.594 8-8V96h40C380.4 96 384 92.41 384 88S380.4 80 376 80H336V40C336 35.59 332.4 32 328 32S320 35.59 320 40V80h-88C227.6 80 224 83.59 224 88S227.6 96 232 96H320v141.3C299.4 200.9 260.7 176 216 176C149.8 176 96 229.8 96 296S149.8 416 216 416zM216 192C273.3 192 320 238.7 320 296s-46.66 104-104 104S112 353.3 112 296S158.7 192 216 192z"/></svg>