<svg xmlns="http://www.w3.org/2000/svg" viewBox="0 0 448 512"><!--! Font Awesome Pro 6.0.0-alpha3 by @fontawesome - https://fontawesome.com License - https://fontawesome.com/license (Commercial License) --><path d="M445.7 45.66c3.125-3.125 3.125-8.188 0-11.31s-8.188-3.125-11.31 0l-120 120.1c-.0449 .0449 .043-.0449 0 0l-78.89-78.77c-15.52-15.5-40.75-15.5-56.23 0L11.67 243.2C4.25 250.6 0 260.8 0 271.3v168.1C0 462.2 17.84 480 39.77 480h168.1c10.64 0 20.58-4.156 28.08-11.66l167.5-167.5C411.9 293.3 416 283.3 416 272.7s-4.141-20.62-11.66-28.12l-78.77-78.87c.0449-.043-.0449 .0449 0 0L445.7 45.66zM225.5 457C221 461.5 215 464 208.7 464H39.77C26.66 464 16 453.3 16 440.2V271.3c0-6.281 2.531-12.41 6.969-16.81l94.11-94.11l202.5 202.5L225.5 457zM400 272.7c0 6.344-2.469 12.31-6.969 16.81l-62.11 62.11L128.4 149.1l62.11-62.11c4.641-4.625 10.72-6.938 16.8-6.938c6.094 0 12.17 2.312 16.81 6.938l168.9 168.9C397.5 260.4 400 266.3 400 272.7z"/></svg>