<svg xmlns="http://www.w3.org/2000/svg" viewBox="0 0 640 512"><!--! Font Awesome Pro 6.0.0-alpha3 by @fontawesome - https://fontawesome.com License - https://fontawesome.com/license (Commercial License) --><path d="M632 128h-112V104C520 99.59 516.4 96 512 96s-8 3.594-8 8V128h-112C387.6 128 384 131.6 384 136s3.594 8 8 8h112v88.53l-114.8-31.34C366.6 195.1 343.3 192 320 192S273.4 195.1 250.9 201.2L136 232.5V144h112C252.4 144 256 140.4 256 136S252.4 128 248 128h-112V104C136 99.59 132.4 96 128 96S120 99.59 120 104V128h-112C3.594 128 0 131.6 0 136.1S3.594 144 8 144h112v136.8c0 8.836 7.164 16 16 16h75.74c-31.46 28.27-52.81 66.63-59.64 109.9c-.6875 4.375 2.312 8.469 6.656 9.156C159.2 415.1 159.7 416 160.1 416c3.875 0 7.206-2.812 7.831-6.75c6.631-42.09 27.82-79.38 59.53-105.5l41.84 38.03C276.6 348.4 286.1 352 296.3 352h47.44c10.13 0 19.71-3.609 26.97-10.16l41.88-38.06c31.71 26.1 52.89 63.38 59.53 105.5C472.7 413.2 476 416 479.9 416c.4062 0 .9125-.0313 1.35-.0938c4.344-.6875 7.344-4.781 6.656-9.156c-6.828-43.31-28.19-81.68-59.64-109.9H504c8.836 0 16-7.164 16-16V144h112C636.4 144 640 140.4 640 136S636.4 128 632 128zM504 280.8h-82.8c-4.6 0-8.912 1.725-12.36 4.742l-48.88 44.42C355.5 333.1 349.6 336 343.7 336H296.3c-5.895 0-11.79-2.012-16.24-6.037L231.2 285.5C227.7 282.5 223.4 280.8 218.8 280.8H136V249.1l119-32.49C276.3 210.9 298.2 208 320 208s43.7 2.875 64.97 8.625L504 249.1V280.8z"/></svg>