<svg xmlns="http://www.w3.org/2000/svg" viewBox="0 0 512 512"><!--! Font Awesome Pro 6.0.0-alpha3 by @fontawesome - https://fontawesome.com License - https://fontawesome.com/license (Commercial License) --><path d="M400 152c22.06 0 40-17.94 40-40s-17.94-40-40-40s-40 17.94-40 40c0 8.102 3.018 15.21 7.17 21.52l-31.3 31.3C331.1 162 325.9 160 320 160H192C186.1 160 180.9 162 176.1 164.8L144.8 133.5C148.1 127.2 152 120.1 152 112c0-22.06-17.94-40-40-40S72 89.94 72 112S89.94 152 112 152c8.102 0 15.21-3.018 21.52-7.17l31.3 31.3C162 180.9 160 186.1 160 192v128c0 5.902 2.029 11.12 4.816 15.87L133.5 367.2C127.2 363 120.1 360 112 360c-22.06 0-40 17.94-40 40s17.94 40 40 40s40-17.94 40-40c0-8.102-3.016-15.21-7.168-21.52l31.3-31.3C180.9 349.1 186.1 352 192 352h128c5.902 0 11.12-2.029 15.87-4.816l31.3 31.3C363 384.8 360 391.9 360 400c0 22.06 17.94 40 40 40s40-17.94 40-40s-17.94-40-40-40c-8.102 0-15.21 3.018-21.52 7.17l-31.3-31.3C349.1 331.1 352 325.9 352 320V192c0-5.902-2.029-11.12-4.816-15.87l31.3-31.3C384.8 148.1 391.9 152 400 152zM112 136c-13.23 0-24-10.78-24-24S98.77 88 112 88S136 98.78 136 112S125.2 136 112 136zM112 424c-13.23 0-24-10.78-24-24s10.77-24 24-24s24 10.78 24 24S125.2 424 112 424zM400 376c13.23 0 24 10.78 24 24s-10.77 24-24 24s-24-10.78-24-24S386.8 376 400 376zM336 320c0 8.822-7.178 16-16 16H192c-8.822 0-16-7.178-16-16V192c0-8.822 7.178-16 16-16h128c8.822 0 16 7.178 16 16V320zM400 88c13.23 0 24 10.78 24 24s-10.77 24-24 24s-24-10.78-24-24S386.8 88 400 88zM296.3 112c4.076 0 7.637-3.059 7.936-7.125c3.748-50.86 47.29-90.82 99.53-88.8c49.37 1.912 90.22 42.76 92.13 92.13c2.023 52.24-37.94 95.78-88.8 99.53C403.1 208 400 211.6 400 215.7c0 4.715 4.064 8.352 8.766 7.986c61.81-4.809 109.7-60.03 102.5-124.5c-5.719-51.24-47.24-92.76-98.48-98.48c-64.44-7.193-119.7 40.71-124.5 102.5C287.1 107.9 291.6 112 296.3 112zM103.2 223.7C107.9 224 112 220.4 112 215.7c0-4.076-3.059-7.637-7.125-7.936C54.02 203.1 14.05 160.4 16.07 108.2C17.98 58.84 58.84 17.98 108.2 16.07c52.24-2.021 95.78 37.94 99.53 88.8C208 108.9 211.6 112 215.7 112c4.715 0 8.352-4.066 7.986-8.766C218.9 41.43 163.6-6.477 99.19 .7168C47.96 6.436 6.436 47.96 .7168 99.19C-6.477 163.6 41.43 218.9 103.2 223.7zM408.8 288.3C404.1 287.1 400 291.6 400 296.3c0 4.076 3.059 7.635 7.125 7.936c50.86 3.748 90.82 47.29 88.8 99.53c-1.91 49.37-42.76 90.22-92.13 92.13c-52.24 2.021-95.78-37.94-99.53-88.8C303.1 403.1 300.4 400 296.3 400c-4.715 0-8.352 4.064-7.986 8.766c4.809 61.81 60.03 109.7 124.5 102.5c51.24-5.719 92.76-47.24 98.48-98.48C518.5 348.4 470.6 293.1 408.8 288.3zM215.7 400c-4.076 0-7.637 3.059-7.936 7.123c-3.748 50.86-47.29 90.82-99.53 88.8c-49.37-1.91-90.22-42.76-92.13-92.13c-2.023-52.24 37.94-95.78 88.8-99.53C108.9 303.1 112 300.4 112 296.3c0-4.715-4.064-8.354-8.766-7.986c-61.81 4.809-109.7 60.03-102.5 124.5c5.719 51.24 47.24 92.76 98.48 98.48c64.44 7.193 119.7-40.71 124.5-102.5C224 404.1 220.4 400 215.7 400z"/></svg>