<svg xmlns="http://www.w3.org/2000/svg" viewBox="0 0 512 512"><!--! Font Awesome Pro 6.0.0-alpha3 by @fontawesome - https://fontawesome.com License - https://fontawesome.com/license (Commercial License) --><path d="M256 175.1c-4.422 0-8 3.561-8 7.967v288c0 4.406 3.578 8.003 8 8.003s8-3.596 8-8.003V183.9C264 179.5 260.4 175.1 256 175.1zM512 256.1c0-30.35-5.547-60.35-16.5-89.17c-3.234-8.502-9.922-15.25-18.38-18.57c-1.596-.6211-3.312-.459-4.967-.8145c.7695-1.648 1.996-3.031 2.482-4.811c2.406-8.846 .9375-18.35-4.031-26.07c-19.64-30.44-45.92-56.85-76-76.42c-7.719-5-17.23-6.471-26.11-4.094c-1.49 .4062-2.629 1.471-4.027 2.078c-.3477-1.467-.1797-3.004-.7383-4.424c-3.406-8.625-10.36-15.44-19.11-18.69c-57.03-21.32-120.2-21.32-177.3 0c-8.75 3.25-15.7 10.06-19.11 18.69C147.7 36.1 147.9 37.63 147.5 39.1C146.1 38.49 144.1 37.43 143.5 37.02C134.6 34.65 125.1 36.12 117.4 41.12c-30.08 19.56-56.36 45.98-76 76.42c-4.969 7.721-6.438 17.22-4.031 26.07c.4844 1.777 1.709 3.158 2.479 4.803C38.19 148.8 36.47 148.6 34.88 149.2C26.42 152.5 19.73 159.3 16.5 167.8C5.547 196.6 0 226.6 0 256.1v7C0 273.6 4.492 281.1 11.24 287.8C4.492 293.5 0 301.6 0 310.1v58.01c0 9.393 4.564 17.54 11.4 23.23C4.564 398.2 0 406.8 0 416.8v62.45c0 18.07 14.36 32.79 32 32.79h64c17.64 0 32-14.72 32-32.79V416.8c0-9.924-4.564-18.54-11.4-24.56C123.4 386.5 128 378.4 128 368.1V310.1c0-9.33-4.492-17.44-11.24-23.13C123.5 281.1 128 273.6 128 263.1v-15c0-11.06 1.625-22.13 4.828-32.91c2.305-7.801 1.422-15.78-1.791-22.68c7.123-1.912 13.6-6.205 17.98-12.64c8.531-12.53 19.22-23.22 31.77-31.76c6.203-4.219 10.31-10.42 12.32-17.23c6.5 2.887 13.93 3.574 21.11 1.508c26.19-7.562 57.42-7.562 83.58 0c2.797 .8125 5.656 1.188 8.469 1.188c4.375 0 8.557-1.207 12.51-2.957c1.979 6.916 6.158 13.21 12.45 17.49c12.55 8.533 23.23 19.22 31.75 31.76c4.387 6.438 10.87 10.73 17.99 12.64c-3.213 6.9-4.096 14.88-1.791 22.68C382.4 226.8 384 237.9 384 248.1v15c0 9.637 4.492 18.01 11.24 23.88C388.5 293.5 384 301.6 384 310.1v58.01c0 9.393 4.564 17.54 11.4 23.23C388.6 398.2 384 406.8 384 416.8v62.45c0 18.07 14.36 32.79 32 32.79h64c17.64 0 32-14.72 32-32.79V416.8c0-9.924-4.564-18.54-11.4-24.56C507.4 386.5 512 378.4 512 368.1V310.1c0-9.33-4.492-17.44-11.24-23.13C507.5 281.1 512 273.6 512 263.1V256.1zM112 479.2c0 9.252-7.172 16.78-16 16.78H32c-8.828 0-16-7.531-16-16.78V416.8c0-9.25 7.172-16.78 16-16.78h64c8.828 0 16 7.533 16 16.78V479.2zM112 368.1c0 8.281-7.172 15-16 15H32c-8.828 0-16-6.721-16-15V310.1c0-8.283 7.172-14.99 16-14.99l64-.0164c8.828 0 16 6.719 16 15V368.1zM117.5 211.5C113.8 223.8 112 236.4 112 248.1v15c0 8.814-7.172 16-16 16H32c-8.828 0-16-7.189-16-16v-7c0-28.41 5.203-56.51 15.47-83.48c2.857-7.568 12.47-13.59 22.2-8.75l55.7 27.85C116.3 196 119.7 203.1 117.5 211.5zM171.8 135.7c-14.22 9.689-26.33 21.79-36 36.01C131.4 178.2 122.8 180.4 115.8 176.9L61.13 149.6C50.16 144.1 51.16 131.9 54.83 126.2C73.27 97.65 97.91 72.87 126.1 54.56c10.21-6.688 20.34 .1426 23.38 6.219l27.45 54.92C180.5 122.7 178.2 131.3 171.8 135.7zM320.2 109.6c-3.406 6.783-10.98 10.22-18 8.252c-26.79-7.764-61.44-8.967-92.42 0c-7.062 2-14.61-1.469-18.02-8.252L163.7 53.49C158.8 43.73 164.1 33.93 172.1 30.99c53.47-20 112.6-20 166.1 0c7.988 2.941 14.14 12.73 9.25 22.5L320.2 109.6zM376.2 171.7c-9.656-14.22-21.77-26.32-35.98-36.01c-6.453-4.375-8.672-13-5.156-20.03l27.45-54.92c3.012-6.023 13.21-12.88 23.38-6.219c28.2 18.31 52.84 43.1 71.28 71.67c3.635 5.633 4.662 17.88-6.281 23.35l-54.64 27.32C389.2 180.4 380.6 178.2 376.2 171.7zM496 479.2c0 9.252-7.172 16.78-16 16.78h-64c-8.828 0-16-7.531-16-16.78V416.8c0-9.25 7.172-16.78 16-16.78h64c8.828 0 16 7.533 16 16.78V479.2zM496 368.1c0 8.281-7.172 15-16 15h-64c-8.828 0-16-6.721-16-15V310.1c0-8.283 7.172-15 16-15l64 .0164c8.828 0 16 6.702 16 14.99V368.1zM496 263.1c0 8.814-7.172 16-16 16h-64c-8.828 0-16-7.189-16-16v-15c0-12.6-1.844-25.19-5.484-37.47c-2.219-7.5 1.188-15.44 8.109-18.91l55.7-27.85c9.613-4.775 19.28 1.006 22.2 8.75C490.8 200.5 496 228.6 496 256.1V263.1zM192 207.1c-4.422 0-8 3.594-8 8.002v256c0 4.406 3.578 8.003 8 8.003s8-3.596 8-8.003V215.1C200 211.5 196.4 207.1 192 207.1zM320 207.1c-4.422 0-8 3.594-8 8.002v256c0 4.406 3.578 8.003 8 8.003s8-3.596 8-8.003V215.1C328 211.5 324.4 207.1 320 207.1z"/></svg>