<svg xmlns="http://www.w3.org/2000/svg" viewBox="0 0 576 512"><!--! Font Awesome Pro 6.0.0-alpha3 by @fontawesome - https://fontawesome.com License - https://fontawesome.com/license (Commercial License) --><path d="M453.8 344.4h-4.141c-2.781 0-5.438-1.062-7.281-2.906l-17.3-17.34c-7.5-7.562-17.56-11.75-28.33-11.75h-15.33l-40.89-35.22c-9.703-8.25-22.08-12.78-34.84-12.78H274.6c-9.391 0-18.91 2.625-27.62 7.656L204.1 297.8c-16.02 9.5-25.97 27.09-25.97 45.88v23.88c0 16.75 7.984 32.75 21.34 42.75l22.2 16.78c10.03 7.5 27.66 13.34 40.14 13.34h20.22c4.141 0 7.578 3.344 7.828 7.594s3.766 7.531 7.984 7.531h.4687c4.406-.2813 7.781-4.062 7.516-8.469c-.7344-12.69-11.19-22.66-23.8-22.66H261.8c-9.031 0-23.31-4.75-30.53-10.12l-22.19-16.78c-9.375-7.031-14.97-18.22-14.97-29.97v-23.88c0-13.19 6.953-25.47 18.17-32.16l42.73-25.66c6.156-3.562 12.91-5.438 19.5-5.438h31.12c8.984 0 17.67 3.188 24.44 8.938l43.11 37.13c1.453 1.25 3.297 1.938 5.219 1.938h18.3c6.469 0 12.48 2.5 16.97 7.031l17.34 17.38c4.844 4.844 11.61 7.594 18.59 7.594h4.141c4.422 0 8-3.594 8-8S458.2 344.4 453.8 344.4zM197.4 168.4c5.25 0 10.25-2.062 13.62-5.562l9.547-9.5c3.562-3.656 5.531-8.469 5.531-13.56v-16c0-10.69-8.688-19.38-19.38-19.38c-4.938 0-9.891 2.062-13.66 5.719L167.8 135.4C164.1 139.1 162.1 143.9 162.1 149.1c0 10.62 8.688 19.25 19.38 19.25H197.4zM178.1 149.1c0-.875 .375-1.688 1-2.312c.0313-.0313-.0156 .0313 0 0L204.3 121.5c.7031-.6875 1.625-1.125 2.422-1.125c1.859 0 3.375 1.5 3.375 3.375v16c0 .875-.3594 1.781-.9062 2.312l-9.578 9.5c-.4844 .5-1.312 .8125-2.219 .8125H181.4C179.6 152.4 178.1 150.9 178.1 149.1zM468.7 312.4h-11.73c-2.234 0-4.203-.7813-5.672-2.375l-32.05-32.56c-1.469-1.5-1.453-4.062 .0313-5.531l12.47-12.5c1.5-1.5 2.344-3.531 2.344-5.656V245.1c0-5.281-2.016-10.12-5.594-13.66l-9.406-9.438c-3.734-3.656-8.594-5.656-13.7-5.656h-15.98c-1.734 0-3.266-1.531-3.266-3.25c0-.875 .375-1.781 .9062-2.312l9.547-9.5c.5781-.5938 1.422-.9375 2.25-.9375h31.97c10.69 0 19.39-8.625 19.39-19.25V171.8c0-10.69-8.703-19.38-19.39-19.38h-36.69c-13.22 0-23.98 10.78-23.98 24v4.5c0 3.469-2.219 6.562-5.422 7.656L333 199.1c-6.5 2.219-10.86 8.312-10.86 15.19l.0156 2.125h-16.11c0-8.812-7.172-16-15.98-16H287c-5.891 0-11.36 3.25-14.42 8.812L263.3 227.8C261.9 230.6 259.2 232.3 256.2 232.3H233.1c-4.406 0-8-3.594-8-8V199c0-2.094 .844-4.062 2.391-5.594l20.11-20.12c6.109-6.125 9.469-14.38 9.562-23.19l40.19-13.34c2.891-1.062 5.359-2.625 7.266-4.594l26.97-26.84c3.562-3.656 5.531-8.469 5.531-13.56c0-10.69-8.641-19.38-19.27-19.38h-20.7c-2.109 0-4.141 .8438-5.641 2.312l-16.11 16c-1.516 1.5-2.359 3.562-2.359 5.688l.0156 8H257.1l.1094-20l17.38-13.12c3.516-2.656 4.219-7.656 1.562-11.19C274.3 56.5 269.3 55.84 265.8 58.5L248.5 71.53c-4.125 3-6.578 7.781-6.578 12.84v20c0 8.812 7.172 16 16 16h15.98c8.812 0 15.98-7.188 15.98-16V99.72l11.41-11.34h17.41c1.766 0 3.266 1.531 3.266 3.375c0 .875-.3594 1.781-.9062 2.344l-28.12 27.56L253 134.9C246.4 137.1 241.1 143.2 241.1 150.1c0 4.531-1.703 8.75-4.797 11.84L217.1 182.1C212.5 186.6 209.1 192.6 209.1 199v25.25c0 13.22 10.77 24 24 24h22.16c9.016 0 17.22-5 21.44-13.19l9.438-18.69h3.016c0 8.812 7.172 16 16 16h16.11c8.812 0 15.98-7.188 15.98-16L338.1 214.2l31.67-10.53c1.344-.4687 2.625-1.031 3.844-1.688c-2.266 3.25-3.531 7.188-3.531 11.12c0 10.62 8.641 19.25 19.27 19.25h15.98c.8906 0 1.797 .4062 2.438 1.031l9.406 9.438c.7031 .6875 .8594 1.625 .8594 2.281v5.312l-10.14 10.16c-7.625 7.656-7.719 20.22-.1562 28.03l31.94 32.44c4.375 4.719 10.5 7.312 17.23 7.312h11.73c4.422 0 8-3.594 8-8S473.1 312.4 468.7 312.4zM383.5 191.7c1.656-3.281 2.578-7 2.578-10.84v-4.5c0-4.344 3.656-8 7.984-8h36.69c1.812 0 3.391 1.562 3.391 3.375v9.375c0 1.688-1.609 3.25-3.391 3.25h-31.97c-5.141 0-10.14 2.125-13.62 5.688L383.5 191.7zM288 0C146.6 0 32 114.6 32 256s114.6 256 256 256s256-114.6 256-256S429.4 0 288 0zM288 496c-132.3 0-240-107.7-240-240S155.7 16 288 16s240 107.7 240 240S420.3 496 288 496z"/></svg>