<svg xmlns="http://www.w3.org/2000/svg" viewBox="0 0 576 512"><!--! Font Awesome Pro 6.0.0-alpha3 by @fontawesome - https://fontawesome.com License - https://fontawesome.com/license (Commercial License) --><path d="M229.2 91.53c3.453 1.719 7.156 2.594 10.84 2.594c4.359 0 8.719-1.219 12.59-3.594C259.8 86.13 264 78.5 264 70.13V66.88c0-4.406-3.578-8-8-8s-8 3.594-8 8v3.25c0 4-2.656 6.062-3.797 6.781C243.1 77.59 240 79.03 236.4 77.22L222.1 70.06C218.2 68.16 213.3 69.72 211.3 73.63C209.4 77.59 210.1 82.41 214.9 84.38L229.2 91.53zM271 371.8c-4.453-4.5-7.016-10.69-7.016-17v-32c0-14.56-7.891-27.97-20.58-35c-14.48-8.031-35.05-19.09-49.11-26.28C183.7 256.1 173.6 249.2 163.6 240.1c-6.281-5.562-11.91-12-16.75-19.12C138.9 209.3 127 191.7 117.5 177.5C115 173.9 110 172.9 106.4 175.4C102.7 177.8 101.8 182.8 104.2 186.5C113.8 200.7 125.7 218.3 133.6 230c5.562 8.219 12.08 15.66 20.03 22.81c10.27 9.25 21.55 17 33.45 22.94c13.84 7.094 34.22 18.03 48.56 26c7.609 4.219 12.34 12.25 12.34 21v32c0 10.62 4.141 20.66 11.67 28.28C274.1 397.4 281.3 418.7 280 428.6V448c0 4.406 3.578 8 8 8s8-3.594 8-8l-.0781-18.31C298.1 413.6 286.9 387.6 271 371.8zM480.3 271.8L459 266.5c-3.984-1.031-7.344-3.375-9.516-6.688l-18.03-27c-3.578-5.344-3.578-12.28 0-17.62l19.56-29.44c1.609-2.375 3.75-4.25 6.156-5.469l5.844-2.906c3.969-1.938 5.578-6.75 3.625-10.72c-1.969-3.969-6.766-5.531-10.73-3.594l-5.875 2.906c-4.859 2.438-9.094 6.156-12.28 10.84l-19.61 29.5c-7.172 10.75-7.172 24.62 0 35.38l18 26.94C440.5 275.2 447.2 279.1 455.1 282l21.36 5.312c.6562 .1875 1.297 .25 1.938 .25c3.594 0 6.859-2.438 7.766-6.062C487.2 277.2 484.6 272.9 480.3 271.8zM367 291.7C359.4 284.2 349.4 280 338.7 280H274.4C271.9 277.8 267.9 272.4 265.2 268.6C257.4 258 250.1 248 240 248c-9.156 0-18.45-2.188-26.75-6.25L202.1 236.1C200.8 235.4 199.1 234.1 199.1 232.6c0-1.719 1.094-3.25 2.766-3.781L233.8 218.5c2.828-.9375 5.766-.3438 7.938 1.531l9.234 8.031C253.8 230.6 257.7 232 261.5 232h5.562c5.578 0 10.66-2.844 13.59-7.562c2.938-4.75 3.203-10.59 .7031-15.66L265.7 177.6L275.7 168h9.078c4.219 0 8.344-1.75 11.22-4.719l7.984-8C306.1 152.3 308.7 148.3 308.7 144s-1.672-8.281-4.625-11.19L299.4 128l15.03-15c9.219-9.344 9.219-24.53-.0313-33.91l-20.72-20.75c-3.125-3.125-8.188-3.125-11.31 0s-3.125 8.188 0 11.31l20.69 20.72C306.1 93.5 306.1 98.63 303.1 101.7l-15.06 15.06C285 119.7 283.3 123.8 283.3 128S285 136.3 287.1 139.2l4.688 4.781L284.7 152H275.7c-4.125 0-8.062 1.594-11.14 4.5L254.4 166.3c-4.703 4.844-5.953 12.22-3 18.56L267 216L261.4 215.1L252.2 207.9C245.7 202.4 237 200.7 228.8 203.3L197.7 213.7C189.5 216.3 183.1 223.1 183.1 232.6c0 7.656 4.281 14.47 11.02 17.75l11.16 5.688c10.53 5.156 22.19 7.906 33.41 7.906c2.812 .7813 9.328 9.469 12.73 14.12C257.6 285.4 262.6 292.3 268.4 295.2C269.5 295.7 270.8 296 272 296h66.72c6.375 0 12.42 2.5 17 7.031l13.64 13.59c4.297 4.344 6.656 10.03 6.656 16c0 10.16-4.141 20.12-11.25 27.25c-4.031 3.906-8.062 7.938-11.44 11.31c-3.906 3.875-6.781 8.812-8.312 14.44l-1.016 4.031c-.9844 4.062-1.969 8.125-3.453 12.06l-14.06 37.69c-1.547 4.125 .5625 8.719 4.703 10.28c.9219 .3438 1.859 .5 2.797 .5c3.25 0 6.297-2 7.5-5.219l14.05-37.66c1.703-4.5 2.859-9.156 4.016-13.81l.9375-3.75c.7656-2.812 2.172-5.281 4.125-7.219c3.344-3.344 7.312-7.312 11.39-11.25c10.17-10.22 16.02-24.31 16.02-38.66c0-10.22-4-19.91-11.33-27.28L367 291.7zM288 0C146.6 0 32 114.6 32 256s114.6 256 256 256s256-114.6 256-256S429.4 0 288 0zM288 496c-132.3 0-240-107.7-240-240S155.7 16 288 16s240 107.7 240 240S420.3 496 288 496z"/></svg>