<svg xmlns="http://www.w3.org/2000/svg" viewBox="0 0 576 512"><!--! Font Awesome Pro 6.0.0-alpha3 by @fontawesome - https://fontawesome.com License - https://fontawesome.com/license (Commercial License) --><path d="M473.7 200H463.5C450.5 200 440 210.5 440 223.5v6.875c0 2.875-1.562 5.469-4.062 6.719l-15.56 7.781c-2.281 1.156-5.156 1.031-7.438-.5313l-18.22-12.16c-6.188-4.094-13.78-5.094-20.44-2.656l-2.625 .8438c-6.906 2.25-12.28 7.5-14.72 14.41c-2.5 7.031-1.594 14.62 2.531 20.91l13.31 19.84C377.1 292.1 384.4 296 392.3 296h8.25c4.125 0 7.5 3.375 7.5 7.5v11.38c0 1.625-.5 3.094-1.562 4.469l-18.59 24.91c-2.094 2.719-3.594 6-4.438 9.812l-4.188 22.81c-.3125 1.594-1.156 3.062-2.375 4.219c-9.906 9-18.72 19.31-26.25 30.59l-13.09 19.56c-.4062 .5938-1.438 1.375-2.531 2.219l-.4375 .3438c-7.25 1.875-14.44 3.312-21.44 4.312c-4.219-1.875-7.562-5.031-9.594-9.062c-4.906-9.812-7.5-20.78-7.5-31.69V367.5c0-12.97-10.53-23.5-23.5-23.5H246.6c-12.25 0-24.28-4.969-32.94-13.62C204.1 321.6 200 309.6 200 297.4V283.3c0-14.59 6.969-28.5 18.72-37.25l27.47-20.69c13.47-10.03 33.72-12.44 49.78-4.406l14.66 7.312c5.406 2.812 11.91 3.312 17.97 1.375l47.38-15.78c9.625-3.25 16.09-12.22 16.09-22.31c0-12.97-10.53-23.5-23.5-23.5h-10.19c-1.969 0-3.812-.7813-5.188-2.125l-6.969-7.062C341.8 154.5 335.8 152 329.6 152H239.5c-4.062 0-7.5-3.438-7.5-7.5V140.1c0-3.5 2.344-6.531 5.625-7.344l14.72-3.562c5.844-1.531 10.72-5.094 13.66-9.75l8.062-12.06C275.5 105.3 277.9 104 280.3 104h24.22C317.5 104 328 93.47 328 80.5V66.88c0-4.406-3.594-8-8-8s-8 3.594-8 8V80.5C312 84.63 308.6 88 304.5 88H280.3c-7.75 0-15 3.875-19.5 10.41L252.5 110.8c-.9062 1.438-2.438 2.5-4.156 2.969L233.8 117.3C223.3 119.9 215.1 129.3 215.1 140.1V144.5c0 12.97 10.53 23.5 23.5 23.5h90.09c2.031 0 4 .8125 5.344 2.125l6.938 7.031C346.3 181.6 352.1 184 358.4 184h10.19c4.125 0 7.5 3.375 7.5 7.5c0 3.188-2.156 6.125-5.188 7.156l-47.28 15.72c-1.969 .5938-4.031 .4687-5.719-.4062l-14.78-7.375C283.5 196.8 256 198 236.6 212.5L209.1 233.2C193.4 244.9 184 263.6 184 283.3v14.12c0 16.66 6.5 32.38 18.34 44.28C214 353.3 230.2 360 246.6 360h25.91c4.125 0 7.5 3.375 7.5 7.5v29.88c0 13.38 3.188 26.81 9.188 38.81c4.156 8.312 11.38 14.59 20.28 17.69l1.781 .5938l1.844-.2187c8.875-1.125 18-2.938 27.16-5.406l4.375-2.625c1.938-1.469 4.344-3.312 6.219-6.156l13.06-19.5c6.812-10.22 14.78-19.53 23.78-27.72c3.781-3.562 6.281-8.031 7.25-13.03l4.156-22.56c.2813-1.25 .7813-2.406 1.5-3.344l18.53-24.84c3.156-4 4.875-9.031 4.875-14.19V303.5c0-12.97-10.53-23.5-23.5-23.5h-8.25c-2.469 0-4.844-1.25-6.188-3.312l-13.28-19.81C371.5 254.8 371.2 252.4 372 250.1c.4687-1.25 1.656-3.531 4.625-4.5l2.812-.9375c2.188-.75 4.469-.4687 6.469 .875l18.12 12.09c7 4.719 16.03 5.281 23.53 1.531l15.53-7.75C451.1 247.4 456 239.3 456 230.4V223.5C456 219.4 459.4 216 463.5 216h10.19c4.406 0 8-3.594 8-8S478.1 200 473.7 200zM288 0C146.6 0 32 114.6 32 256s114.6 256 256 256s256-114.6 256-256S429.4 0 288 0zM288 496c-132.3 0-240-107.7-240-240S155.7 16 288 16s240 107.7 240 240S420.3 496 288 496z"/></svg>