<svg xmlns="http://www.w3.org/2000/svg" viewBox="0 0 576 512"><!--! Font Awesome Pro 6.0.0-alpha3 by @fontawesome - https://fontawesome.com License - https://fontawesome.com/license (Commercial License) --><path d="M308.1 232h3.016c8.828 0 16-7.188 16-16V137.9c0-9.125-5.25-17.56-13.2-21.38l-10.39-5.781l42.38-32.53c3.5-2.688 4.156-7.719 1.469-11.22C345.5 63.41 340.5 62.78 337 65.5l-41.92 32.22c-4.766 3.156-7.484 8.656-7.125 14.34c.3594 5.719 3.672 10.69 8.75 13.19l10.95 5.594c2.625 1.25 4.312 4 4.312 7.031V216l-3.016 .0313c-2.047-4.094-6.156-6.719-10.69-6.875C293.7 208 289.6 211.3 287.2 215.1L269.8 244.1C268.3 246.5 265.7 248 262.6 248c-6.281 0-12.28 2.5-16.88 7.062L239.9 260.8C233.8 267.1 233.8 276.9 239.9 283.3l5.75 5.812c1.516 1.5 2.344 3.469 2.344 5.562V304c0 4.406-3.578 8-7.984 8H233.9c-3.078 0-5.797-1.688-7.141-4.469L204.1 262.3C201.8 257.8 197.5 254.5 192.4 253.7c-5.047-.875-10.33 .875-13.98 4.5L159.1 277.6C157.5 279.1 155.4 280 153.3 280H98.89c-4.422 0-8 3.594-8 8s3.578 8 8 8h54.45c6.297 0 12.5-2.594 17.03-7.094l19.41-19.44l22.59 45.16C216.4 322.9 224.6 328 233.9 328h6.172c13.22 0 23.98-10.78 23.98-24V294.6c0-6.406-2.516-12.41-7.031-16.88L251.3 272.1l5.688-5.625C258.5 264.9 260.5 264 262.9 264c8.281 0 16.14-4.438 20.55-11.62l14.73-24.53C301.1 230.5 304.1 232 308.1 232zM437.1 305V292c0-6.625-5.391-12-12-12h-6.047c-5.344 0-10.09 3.562-11.55 8.625l-2.609 8.875l-3.25-7.75C399 283.8 393.2 280 386.9 280l-12.03-.0459c-3.312 0-6.502 1.015-9.471 3.046l-23.5 16.78c-1.391 .9687-2.578 1.594-4.125 2.156L298.6 317.7c-6.156 2.438-10.14 8.312-10.14 14.94v10.12c0 4.188 1.672 8.312 4.688 11.44l11.86 11.75c4.344 4.5 10.55 7.062 17.02 7.062h10.28c1.844 0 3.656-.1562 5.969-.625l21.11-5.344c6.531-1.562 13.2 .2187 17.91 4.906l12.97 12.88C394.7 389.4 400.9 392 407.3 392h15.12c6.281 0 12.48-2.562 17.03-7.062l5.5-5.469c.2344-.25 1.031-1.219 1.234-1.5c2.531-3.25 5.078-6.5 7.391-9.906c.3906-.5938 .7031-1.219 .9219-1.875c1.016-2.875 1.484-5.375 1.484-7.812v-24.5c0-6.375-2.578-12.56-7.062-17.03L437.1 305zM439.1 358.4c0 .4062-.0938 .9375-.2813 1.625c-1.953 2.781-4.047 5.469-6.125 8.125c0 0-.125 .1562-.2656 .3438l-5.125 5.094C426.6 375.1 424.5 376 422.4 376h-15.12c-2.047 0-4.109-.875-5.625-2.438l-13.08-12.97c-6.609-6.594-15.36-10.12-24.48-10.12c-2.828 0-5.703 .3438-8.562 1.031l-20.7 5.25c-.8284 .1562-1.672 .25-2.516 .25h-10.28c-2.156 0-4.172-.8125-5.641-2.312l-11.92-11.94l.0781-10.19l38.98-15.66c2.594-.9687 4.969-2.219 7.609-4.031L374.8 296l12.11 .0938l5.281 12.59c1.781 4.531 6.234 7.562 11.06 7.562h3.875c5.328 0 10.03-3.594 11.42-8.625l2.5-8.5V305c0 4.188 1.609 8.156 4.641 11.28l11.89 11.88c1.5 1.5 2.359 3.594 2.359 5.719V358.4zM288 0C146.6 0 32 114.6 32 256s114.6 256 256 256s256-114.6 256-256S429.4 0 288 0zM288 496c-132.3 0-240-107.7-240-240S155.7 16 288 16s240 107.7 240 240S420.3 496 288 496z"/></svg>