<svg xmlns="http://www.w3.org/2000/svg" viewBox="0 0 512 512"><!--! Font Awesome Pro 6.0.0-alpha3 by @fontawesome - https://fontawesome.com License - https://fontawesome.com/license (Commercial License) --><path d="M96 240C87.16 240 80 247.2 80 256S87.16 272 96 272c8.838 0 16-7.164 16-16S104.8 240 96 240zM256 240C247.2 240 240 247.2 240 256S247.2 272 256 272c8.838 0 16-7.164 16-16S264.8 240 256 240zM416 240c-8.836 0-16 7.164-16 16s7.164 16 16 16c8.838 0 16-7.164 16-16S424.8 240 416 240z"/></svg>