<svg xmlns="http://www.w3.org/2000/svg" viewBox="0 0 192 512"><!--! Font Awesome Pro 6.0.0-alpha3 by @fontawesome - https://fontawesome.com License - https://fontawesome.com/license (Commercial License) --><path d="M96 16c26.47 0 48 21.53 48 48S122.5 112 96 112S48 90.47 48 64S69.53 16 96 16zM96 208c26.47 0 48 21.53 48 48S122.5 304 96 304S48 282.5 48 256S69.53 208 96 208zM96 400c26.47 0 48 21.53 48 48s-21.53 48-48 48S48 474.5 48 448S69.53 400 96 400zM96 0C60.63 0 32 28.61 32 64s28.62 64 64 64s64-28.61 64-64S131.4 0 96 0zM96 192C60.63 192 32 220.6 32 256s28.62 64 64 64s64-28.61 64-64S131.4 192 96 192zM96 384c-35.38 0-64 28.61-64 64s28.62 64 64 64s64-28.61 64-64S131.4 384 96 384z"/></svg>