<svg xmlns="http://www.w3.org/2000/svg" viewBox="0 0 512 512"><!--! Font Awesome Pro 6.0.0-alpha3 by @fontawesome - https://fontawesome.com License - https://fontawesome.com/license (Commercial License) --><path d="M448 208c26.47 0 48 21.53 48 48S474.5 304 448 304S400 282.5 400 256S421.5 208 448 208zM256 208c26.47 0 48 21.53 48 48S282.5 304 256 304S208 282.5 208 256S229.5 208 256 208zM64 208c26.47 0 48 21.53 48 48S90.47 304 64 304S16 282.5 16 256S37.53 208 64 208zM448 192c-35.39 0-64 28.62-64 64s28.61 64 64 64s64-28.62 64-64S483.4 192 448 192zM256 192C220.6 192 192 220.6 192 256s28.61 64 64 64s64-28.62 64-64S291.4 192 256 192zM64 192C28.61 192 0 220.6 0 256s28.61 64 64 64s64-28.62 64-64S99.39 192 64 192z"/></svg>