<svg xmlns="http://www.w3.org/2000/svg" viewBox="0 0 640 512"><!--! Font Awesome Pro 6.0.0-alpha3 by @fontawesome - https://fontawesome.com License - https://fontawesome.com/license (Commercial License) --><path d="M192 224C174.3 224 160 238.4 160 256s14.34 32 32 32s32-14.36 32-32S209.7 224 192 224zM192 272C183.2 272 176 264.8 176 256S183.2 240 192 240S208 247.2 208 256S200.8 272 192 272zM384 224c-17.66 0-32 14.36-32 32s14.34 32 32 32s32-14.36 32-32S401.7 224 384 224zM384 272c-8.812 0-16-7.172-16-16s7.188-16 16-16s16 7.172 16 16S392.8 272 384 272zM608 192h-16c-17.66 0-32 14.36-32 32v32H512V208c0-4.859-2.219-9.453-6.001-12.5l-71.22-56.95C426.3 131.8 415.7 128 404.8 128H296V80h96c4.418 0 8-3.582 8-8S396.4 64 392 64h-208C179.6 64 176 67.58 176 72S179.6 80 184 80h96V128H112C85.53 128 64 149.5 64 176v72H16v-112C16 131.6 12.42 128 8 128S0 131.6 0 136v240C0 380.4 3.582 384 8 384s8-3.582 8-8v-112H64v72C64 362.5 85.53 384 112 384h73.38l49.94 49.94C244.3 442.9 256.6 448 269.3 448H464c26.47 0 48-21.53 48-48V384h48v32c0 17.64 14.34 32 32 32H608c17.66 0 32-14.36 32-32V224C640 206.4 625.7 192 608 192zM496 400c0 17.64-14.36 32-32 32H269.3c-8.42 0-16.67-3.418-22.62-9.377L192 368H112c-17.64 0-32-14.36-32-32v-160c0-17.64 14.36-32 32-32h292.8c7.242 0 14.34 2.494 20.01 7.043L496 207.1V400zM624 416c0 8.822-7.178 16-16 16h-16c-8.822 0-16-7.178-16-16v-48h-64v-96h64V224c0-8.822 7.178-16 16-16H608c8.822 0 16 7.178 16 16V416zM288 224C270.3 224 256 238.4 256 256s14.34 32 32 32s32-14.36 32-32S305.7 224 288 224zM288 272C279.2 272 272 264.8 272 256S279.2 240 288 240S304 247.2 304 256S296.8 272 288 272z"/></svg>