<svg xmlns="http://www.w3.org/2000/svg" viewBox="0 0 384 512"><!--! Font Awesome Pro 6.0.0-alpha3 by @fontawesome - https://fontawesome.com License - https://fontawesome.com/license (Commercial License) --><path d="M335.8 465.1c.9219 4.342-1.828 8.591-6.156 9.497C312.8 478.3 295.9 480 279.1 480c-60.62 0-119.2-23.02-163.2-65.54c-27.69-26.76-47.56-59.14-58.38-94.46L24 319.1c-4.422 0-7.1-3.593-7.1-7.997c0-4.405 3.578-7.997 7.1-7.997h29.46C49.96 288.4 47.1 272.4 47.1 256c0-16.35 1.959-32.39 5.464-47.99H24c-4.422 0-7.1-3.593-7.1-7.997S19.58 192 24 192l33.49 .009c10.83-35.32 30.69-67.72 58.38-94.48c56.22-54.29 136.2-76.85 213.8-60.17c4.328 .906 7.078 5.155 6.156 9.497c-.9375 4.28-5.094 7.091-9.5 6.123c-72.55-15.43-146.1 5.436-199.3 56.04C102.5 132.7 84.82 161.1 74.5 192h229.5c4.422 0 7.1 3.593 7.1 7.997s-3.574 7.98-7.996 7.98L69.98 208c-3.797 15.57-5.978 31.6-5.978 47.98s2.182 32.42 5.978 47.98l234 .0036c4.422 0 7.996 3.589 7.996 7.994c0 4.405-3.578 7.997-7.1 7.997H74.5c10.33 30.93 28.03 59.32 52.5 82.97c52.36 50.58 126.8 71.57 199.3 56.04C330.7 457.1 334.9 460.8 335.8 465.1z"/></svg>