<svg xmlns="http://www.w3.org/2000/svg" viewBox="0 0 512 512"><!--! Font Awesome Pro 6.0.0-alpha3 by @fontawesome - https://fontawesome.com License - https://fontawesome.com/license (Commercial License) --><path d="M175.1 287.1c-2.406 0-4.828 1.094-6.463 3.281C156.5 308.6 128 349 128 369C128 395 149.4 416 175.1 416s48.07-21 48.07-47c0-20-28.58-60.38-41.66-77.75C180.8 289.1 178.4 287.1 175.1 287.1zM175.1 400C158.3 400 144 386.1 144 369c0-7.592 10.04-29.05 31.96-59.49c21.98 30.51 32.09 51.96 32.09 59.49C208 386.1 193.6 400 175.1 400zM176 224C184.8 224 192 216.9 192 208S184.8 192 176 192S160 199.1 160 208S167.2 224 176 224zM336 224C344.8 224 352 216.9 352 208S344.8 192 336 192S320 199.1 320 208S327.2 224 336 224zM264.8 320C260.1 319.7 256 323.3 256 328c0 4.326 3.459 7.732 7.805 8.014c40.12 2.596 76.85 25.07 97.11 59.95C362.4 398.6 365.1 400 367.9 400c1.389 0 2.775-.3457 4.037-1.082c3.881-2.211 5.174-7.117 2.965-10.96C351.9 348.4 310.3 322.9 264.8 320zM256 0C114.6 0 0 114.6 0 256s114.6 256 256 256s256-114.6 256-256S397.4 0 256 0zM256 496c-132.3 0-240-107.7-240-240S123.7 16 256 16s240 107.7 240 240S388.3 496 256 496z"/></svg>