<svg xmlns="http://www.w3.org/2000/svg" viewBox="0 0 512 512"><!--! Font Awesome Pro 6.0.0-alpha3 by @fontawesome - https://fontawesome.com License - https://fontawesome.com/license (Commercial License) --><path d="M169.1 348.7c2.828 .7109 5.68-.1953 7.594-2.109c.9961-.9961 1.734-2.266 2.109-3.703l22.64-90.57c.6719-2.754-.0957-5.614-2.084-7.606C197.4 242.7 194.5 241.9 191.8 242.6L101.2 265.2C97.01 266.3 94.31 270.6 95.38 274.9c1.086 4.312 5.43 6.91 9.73 5.836l77.61-19.41l-19.42 77.61C162.2 343.2 164.8 347.6 169.1 348.7zM312.6 312.6c-33.94 33.93-69.57 61.79-97.89 76.31c-1.543 .7969-2.905 1.846-4.046 2.987c-6.695 6.695-6.294 18.31 2.132 24.39c45.51 32.32 124.9 7.055 167.7-35.79s68.2-122.3 35.79-167.7c-6.148-8.355-17.77-8.741-24.42-2.1c-1.129 1.129-2.171 2.48-2.956 4.016C374.4 243 346.5 278.6 312.6 312.6zM403.2 222c26.95 37.77 4.339 108.8-33.97 147.1c-38.26 38.25-109.3 61.03-147.2 34.06c29.57-15.16 66.73-44.05 101.9-79.27C359.1 288.7 388 251.6 403.2 222zM412.8 107.1c.4141 0 .8359-.0313 1.266-.0977c21.6-2.969 70.24-11.41 84.38-25.55c18.38-18.38 17.1-48.46-.7148-67.17C488.2 4.777 475.8 0 463.5 0c-11.97 0-23.86 4.5-32.92 13.55c-14.14 14.14-22.49 62.88-25.55 84.38C404.3 102.9 408 107.1 412.8 107.1zM441.9 24.87C447.6 19.15 455.3 16 463.5 16c8.609 0 16.75 3.402 22.94 9.582c12.47 12.48 12.79 32.46 .7148 44.54c-5.645 5.641-29.55 13.85-64.67 19.51C428.5 52.48 436.6 30.18 441.9 24.87zM99.2 404.9c-.4141 0-.8359 .0313-1.266 .0977c-21.6 2.969-70.24 11.41-84.38 25.55c-18.38 18.38-17.1 48.46 .7148 67.17C23.76 507.2 36.18 512 48.52 512c11.97 0 23.87-4.5 32.92-13.55c14.14-14.14 22.49-62.88 25.55-84.38C107.7 409.1 103.1 404.9 99.2 404.9zM70.13 487.1C64.41 492.9 56.73 496 48.52 496c-8.609 0-16.75-3.402-22.93-9.582c-12.47-12.48-12.79-32.46-.7148-44.54c5.594-5.594 29.14-13.71 64.66-19.43C83.46 459.5 75.43 481.8 70.13 487.1zM274.9 95.38c-4.277-1.07-8.598 1.609-9.707 5.812L242.5 191.8c-.6719 2.75 .1396 5.649 2.124 7.642c1.992 1.988 4.853 2.761 7.61 2.085l90.56-22.64c1.438-.375 2.711-1.121 3.707-2.113c1.91-1.91 2.816-4.762 2.113-7.594c-1.09-4.312-5.43-6.91-9.734-5.836l-77.61 19.41l19.41-77.61C281.8 100.8 279.2 96.46 274.9 95.38zM43.53 392c1.406 0 2.844-.375 4.125-1.156c3.781-2.281 5-7.203 2.719-10.98C27.88 342.6 16 299.8 16 256c0-132.3 107.7-240 240-240c43.75 0 86.59 11.89 123.9 34.39c3.75 2.297 8.688 1.094 10.97-2.703c2.281-3.781 1.062-8.703-2.719-10.98C348.4 12.69 302.7 0 256 0C114.8 0 0 114.8 0 256c0 46.69 12.69 92.38 36.69 132.1C38.19 390.6 40.84 392 43.53 392zM475.3 123.9C473 120.1 468.1 118.9 464.3 121.2c-3.781 2.281-5 7.203-2.719 10.98C484.1 169.4 496 212.2 496 256c0 132.3-107.7 240-240 240c-43.75 0-86.59-11.89-123.9-34.39c-3.688-2.266-8.688-1.078-10.97 2.703s-1.062 8.703 2.719 10.98C163.6 499.3 209.3 512 256 512c141.2 0 256-114.8 256-256C512 209.3 499.3 163.6 475.3 123.9z"/></svg>