<svg xmlns="http://www.w3.org/2000/svg" viewBox="0 0 512 512"><!--! Font Awesome Pro 6.0.0-alpha3 by @fontawesome - https://fontawesome.com License - https://fontawesome.com/license (Commercial License) --><path d="M126.1 215.8c4.188 1.031 8.609-1.562 9.703-5.812C139.5 194.9 155 152 175.1 152s36.49 42.91 40.26 57.94C217.2 213.6 220.4 216 224 216c.6406 0 1.297-.0938 1.938-.25c4.297-1.062 6.891-5.406 5.828-9.688C229.1 198.9 213.1 136 175.1 136S122 198.9 120.2 206.1C119.2 210.3 121.8 214.7 126.1 215.8zM286.1 215.8c4.156 1.031 8.609-1.562 9.703-5.812C299.5 194.9 315.1 152 336 152s36.45 42.91 40.21 57.94C377.2 213.6 380.4 216 384 216c.6406 0 1.297-.0938 1.938-.25c4.297-1.062 6.891-5.406 5.828-9.688C389.1 198.9 373.2 136 336 136s-53.98 62.88-55.78 70.06C279.2 210.3 281.8 214.7 286.1 215.8zM391.9 288H120.1C110.5 288 102.9 296.5 104.1 306C113 377 174.1 432 247.1 432h16.02c73.86 0 134.1-55 143.9-126C409.1 296.4 401.5 288 391.9 288zM264 416H247.1c-64.94 0-119.1-48.14-127.9-112h271.8C383.9 367.8 328.1 416 264 416zM256 0C114.6 0 0 114.6 0 256s114.6 256 256 256s256-114.6 256-256S397.4 0 256 0zM256 496c-132.3 0-240-107.7-240-240S123.7 16 256 16s240 107.7 240 240S388.3 496 256 496z"/></svg>