<svg xmlns="http://www.w3.org/2000/svg" viewBox="0 0 640 512"><!--! Font Awesome Pro 6.0.0-alpha3 by @fontawesome - https://fontawesome.com License - https://fontawesome.com/license (Commercial License) --><path d="M304 256C312.8 256 320 248.9 320 240S312.8 224 304 224S288 231.1 288 240S295.2 256 304 256zM327.9 356C306.6 393 266.7 416 224 416s-82.56-23-103.9-60c-2.281-3.844-7.219-5.156-10.94-2.922C105.3 355.3 104 360.2 106.2 364C130.4 405.1 175.6 432 224 432s93.56-26.05 117.8-68c2.188-3.828 .9062-8.719-2.938-10.92C335.1 350.8 330.2 352.2 327.9 356zM144 256C152.8 256 160 248.9 160 240S152.8 224 144 224S128 231.1 128 240S135.2 256 144 256zM224 64C100.3 64 0 164.3 0 288c0 123.7 100.3 224 224 224s224-100.3 224-224C448 164.3 347.7 64 224 64zM224 496c-114.7 0-208-93.31-208-208S109.3 80 224 80s208 93.31 208 208S338.7 496 224 496zM632 88h-80v-80C552 3.594 548.4 0 544 0s-8 3.594-8 8v80h-80C451.6 88 448 91.59 448 95.1S451.6 104 456 104h80v80C536 188.4 539.6 192 544 192s8-3.594 8-8v-80h80c4.406 0 8-3.594 8-7.1S636.4 88 632 88z"/></svg>