<svg xmlns="http://www.w3.org/2000/svg" viewBox="0 0 512 512"><!--! Font Awesome Pro 6.0.0-alpha3 by @fontawesome - https://fontawesome.com License - https://fontawesome.com/license (Commercial License) --><path d="M192 240C192 231.2 184.8 224 176 224S160 231.2 160 240S167.2 256 176 256S192 248.8 192 240zM231.6 210.5C233 206.3 230.7 201.8 226.5 200.4l-96-32c-4.125-1.391-8.719 .8906-10.12 5.062C119 177.7 121.3 182.2 125.5 183.6l96 32C227.2 217.5 230.8 212.9 231.6 210.5zM256 344c-29.53 0-57.78 12.64-77.53 34.66c-2.938 3.297-2.656 8.359 .625 11.3c3.312 2.969 8.375 2.703 11.31-.6094C207.1 370.7 231 360 256 360s48.91 10.69 65.59 29.34C323.2 391.1 325.4 392 327.6 392c1.906 0 3.812-.6719 5.344-2.047c3.281-2.938 3.562-8 .625-11.3C313.8 356.6 285.5 344 256 344zM336 224C327.2 224 320 231.2 320 240C320 248.8 327.2 256 336 256S352 248.8 352 240C352 231.2 344.8 224 336 224zM381.5 168.4l-96 32c-4.188 1.406-6.469 5.938-5.062 10.12c.7832 2.328 4.393 6.973 10.12 5.062l96-32c4.188-1.406 6.469-5.938 5.062-10.12C390.2 169.3 385.7 167 381.5 168.4zM256 0C114.6 0 0 114.6 0 256s114.6 256 256 256s256-114.6 256-256S397.4 0 256 0zM256 496c-132.3 0-240-107.7-240-240S123.7 16 256 16s240 107.7 240 240S388.3 496 256 496z"/></svg>