<svg xmlns="http://www.w3.org/2000/svg" viewBox="0 0 512 512"><!--! Font Awesome Pro 6.0.0-alpha3 by @fontawesome - https://fontawesome.com License - https://fontawesome.com/license (Commercial License) --><path d="M376.8 211.6C378.3 214.4 381.1 216 384 216c1.203 0 2.438-.2813 3.578-.8438c3.953-1.969 5.547-6.781 3.578-10.75C379.9 181.1 358.8 168 336 168s-43.95 13.97-55.2 36.41c-1.969 3.969-.375 8.781 3.578 10.75c3.922 1.969 8.766 .375 10.73-3.562C303.7 194.6 319.3 184 336 184S368.3 194.6 376.8 211.6zM304 299.1c0-29.19-67.53-43.25-70.41-43.84C229.4 255.4 225 258.1 224.2 262.4C223.3 266.7 226.1 270.9 230.4 271.8C256.5 277.1 288 290.9 288 299.1s-31.5 22.88-57.59 28.16C226.7 328.9 224 332.2 224 335.1s2.672 7.094 6.406 7.844C256.5 349.1 288 362.9 288 371.1s-31.5 22.88-57.59 28.16c-4.328 .875-7.125 5.094-6.25 9.438c.7813 3.781 4.109 6.406 7.828 6.406c.5313 0 1.078-.0625 1.609-.1562C236.5 415.2 304 401.2 304 371.1c0-17.06-23.05-28.94-42.78-36C280.1 328.9 304 317 304 299.1zM143.1 208C143.1 216.9 151.2 224 160 224s16-7.148 16-16S168.8 192 160 192S143.1 199.1 143.1 208zM466.9 375.1c-3.92 0-7.873 .4844-11.77 1.484l-8.5 2.125l-2.375-8.375c-5.418-19.3-23.37-33.5-43.28-33.5c-2.141 0-4.303 .1641-6.475 .5039c-25.62 4-41.25 28.62-34.63 52.63l23.25 82.63c1.373 4.434 5.508 7.441 10.07 7.441c.8398 0 1.695-.1016 2.551-.3164l84.38-21.5c24.5-6.375 38.25-31.88 28.88-55.75C502.4 385.4 485 375.1 466.9 375.1zM493.3 429.2c-3.385 6.648-9.633 11.58-17.06 13.52l-79.12 20.33l-21.76-77.33c-1.979-7.164-.8574-14.54 3.158-20.76c4.127-6.391 10.7-10.58 18.52-11.8c1.344-.2109 2.68-.3125 4.002-.3125c12.6 0 24.32 9.18 27.88 21.87l6.605 23.29l23.65-5.91c2.525-.6484 5.143-.9805 7.779-.9805c12.25 0 23.18 6.91 27.22 17.21C496.9 415.3 496.6 422.7 493.3 429.2zM348.9 477.4C319.5 489.7 288.2 496 256 496c-132.3 0-240-107.7-240-240S123.7 16 256 16s240 107.7 240 240c0 26.52-4.297 52.56-12.77 77.42c-1.422 4.188 .8125 8.719 5 10.16c4.156 1.344 8.711-.8125 10.15-5C507.4 312.1 512 284.3 512 256c0-141.2-114.8-256-256-256S0 114.8 0 256s114.8 256 256 256c34.34 0 67.69-6.688 99.09-19.89c4.078-1.703 6-6.406 4.281-10.47C357.7 477.6 352.1 475.7 348.9 477.4z"/></svg>