<svg xmlns="http://www.w3.org/2000/svg" viewBox="0 0 512 512"><!--! Font Awesome Pro 6.0.0-alpha3 by @fontawesome - https://fontawesome.com License - https://fontawesome.com/license (Commercial License) --><path d="M160 192C142.4 192 128 206.3 128 224s14.36 32 32 32s32-14.34 32-32S177.6 192 160 192zM160 240C151.2 240 144 232.8 144 224S151.2 208 160 208S176 215.2 176 224S168.8 240 160 240zM352 192c-17.64 0-32 14.34-32 32s14.36 32 32 32s32-14.34 32-32S369.6 192 352 192zM352 240c-8.828 0-16-7.188-16-16s7.172-16 16-16s16 7.188 16 16S360.8 240 352 240zM240 224c0-44.17-35.78-80-80.05-80C115.8 144 80.03 179.8 80.03 224s35.79 80 79.93 80C204.2 304 240 268.2 240 224zM159.9 288C124.7 288 96 259.3 96 224s28.68-64 63.93-64C195.3 160 224 188.7 224 224S195.3 288 159.9 288zM320.1 368H191.9C181.3 368 181.4 384 191.9 384h128.1C330.6 384 330.7 368 320.1 368zM352 144c-44.27 0-80.06 35.83-80.06 80s35.78 80 80.06 80c44.14 0 79.93-35.83 79.93-80S396.2 144 352 144zM352.1 288C316.7 288 288 259.3 288 224s28.74-64 64.07-64C387.3 160 416 188.7 416 224S387.3 288 352.1 288zM256 0C114.6 0 0 114.6 0 256s114.6 256 256 256s256-114.6 256-256S397.4 0 256 0zM256 496c-132.3 0-240-107.7-240-240S123.7 16 256 16s240 107.7 240 240S388.3 496 256 496z"/></svg>