<svg xmlns="http://www.w3.org/2000/svg" viewBox="0 0 512 512"><!--! Font Awesome Pro 6.0.0-alpha3 by @fontawesome - https://fontawesome.com License - https://fontawesome.com/license (Commercial License) --><path d="M256 288c-35.35 0-64.04 28.65-64.04 64S220.7 416 256 416s64.04-28.65 64.04-64S291.3 288 256 288zM256 400c-26.47 0-48-21.53-48-48S229.5 304 256 304s48 21.53 48 48S282.5 400 256 400zM200 240c2.047 0 4.094-.7813 5.656-2.344c3.125-3.125 3.125-8.188 0-11.31L171.3 192l34.34-34.34c3.125-3.125 3.125-8.188 0-11.31s-8.188-3.125-11.31 0L160 180.7L125.7 146.3c-3.125-3.125-8.188-3.125-11.31 0s-3.125 8.188 0 11.31L148.7 192L114.3 226.3c-3.125 3.125-3.125 8.188 0 11.31C115.9 239.2 117.1 240 120 240s4.094-.7813 5.656-2.344L160 203.3l34.34 34.34C195.9 239.2 197.1 240 200 240zM397.7 146.3c-3.125-3.125-8.188-3.125-11.31 0L352 180.7l-34.34-34.34c-3.125-3.125-8.188-3.125-11.31 0s-3.125 8.188 0 11.31L340.7 192l-34.34 34.34c-3.125 3.125-3.125 8.188 0 11.31C307.9 239.2 309.1 240 312 240s4.094-.7813 5.656-2.344L352 203.3l34.34 34.34C387.9 239.2 389.1 240 392 240s4.094-.7813 5.656-2.344c3.125-3.125 3.125-8.188 0-11.31L363.3 192l34.34-34.34C400.8 154.5 400.8 149.5 397.7 146.3zM256 0C114.6 0 0 114.6 0 256s114.6 256 256 256s256-114.6 256-256S397.4 0 256 0zM256 496c-132.3 0-240-107.7-240-240S123.7 16 256 16s240 107.7 240 240S388.3 496 256 496z"/></svg>