<svg xmlns="http://www.w3.org/2000/svg" viewBox="0 0 512 512"><!--! Font Awesome Pro 6.0.0-alpha3 by @fontawesome - https://fontawesome.com License - https://fontawesome.com/license (Commercial License) --><path d="M359.9 324C338.6 361 298.7 384 256 384s-82.56-23-103.9-60c-2.281-3.844-7.219-5.156-10.94-2.922C137.3 323.3 136 328.2 138.2 332C162.4 373.1 207.6 400 256 400s93.56-26.05 117.8-68c2.188-3.828 .9062-8.719-2.938-10.92C367.1 318.8 362.2 320.2 359.9 324zM176 224C184.8 224 192 216.9 192 208S184.8 192 176 192S160 199.1 160 208S167.2 224 176 224zM336 184c-22.77 0-43.91 13.97-55.16 36.41c-1.969 3.969-.375 8.781 3.578 10.75c3.922 1.969 8.766 .375 10.73-3.562C303.7 210.6 319.3 200 336 200s32.33 10.56 40.84 27.59C378.3 230.4 381.1 232 384 232c1.203 0 2.438-.2813 3.578-.8438c3.953-1.969 5.547-6.781 3.578-10.75C379.9 197.1 358.8 184 336 184zM256 0C114.6 0 0 114.6 0 256s114.6 256 256 256s256-114.6 256-256S397.4 0 256 0zM256 496c-132.3 0-240-107.7-240-240S123.7 16 256 16s240 107.7 240 240S388.3 496 256 496z"/></svg>