<svg xmlns="http://www.w3.org/2000/svg" viewBox="0 0 512 512"><!--! Font Awesome Pro 6.0.0-alpha3 by @fontawesome - https://fontawesome.com License - https://fontawesome.com/license (Commercial License) --><path d="M320 299.1c0-29.19-67.53-43.25-70.41-43.84C245.4 255.4 241 258.1 240.2 262.4C239.3 266.7 242.1 270.9 246.4 271.8C272.5 277.1 304 290.9 304 299.1s-31.5 22.88-57.59 28.16C242.7 328.9 240 332.2 240 335.1s2.672 7.094 6.406 7.844C272.5 349.1 304 362.9 304 371.1s-31.5 22.88-57.59 28.16c-4.328 .875-7.125 5.094-6.25 9.438c.7813 3.781 4.109 6.406 7.828 6.406c.5313 0 1.078-.0625 1.609-.1562C252.5 415.2 320 401.2 320 371.1c0-17.06-23.05-28.94-42.78-36C296.1 328.9 320 317 320 299.1zM176 136c-37.17 0-53.97 62.88-55.77 70.06C119.2 210.3 121.8 214.7 126.1 215.8c4.188 1.031 8.609-1.562 9.703-5.812C139.5 194.9 155.1 152 176 152s36.44 42.91 40.21 57.94C217.2 213.6 220.4 216 224 216c.6406 0 1.297-.0938 1.938-.25c4.297-1.062 6.891-5.406 5.828-9.688C229.1 198.9 213.2 136 176 136zM336 136c-37.17 0-53.97 62.88-55.77 70.06c-1.062 4.281 1.531 8.625 5.828 9.688c4.156 1.031 8.609-1.562 9.703-5.812C299.5 194.9 315.1 152 336 152s36.43 42.91 40.2 57.94C377.2 213.6 380.4 216 384 216c.6406 0 1.297-.0938 1.938-.25c4.297-1.062 6.891-5.406 5.828-9.688C389.1 198.9 373.2 136 336 136zM256 0C114.6 0 0 114.6 0 256s114.6 256 256 256s256-114.6 256-256S397.4 0 256 0zM256 496c-132.3 0-240-107.7-240-240S123.7 16 256 16s240 107.7 240 240S388.3 496 256 496z"/></svg>