<svg xmlns="http://www.w3.org/2000/svg" viewBox="0 0 512 512"><!--! Font Awesome Pro 6.0.0-alpha3 by @fontawesome - https://fontawesome.com License - https://fontawesome.com/license (Commercial License) --><path d="M176 222.6c8.844 0 16-7.148 16-16s-7.156-16-16-16s-16 7.148-16 16S167.2 222.6 176 222.6zM336 222.6c8.844 0 16-7.148 16-16s-7.156-16-16-16s-16 7.148-16 16S327.2 222.6 336 222.6zM352 304H160c-17.67 0-31.98 14.33-31.98 32L128 368c0 17.67 14.33 32 32 32h192c17.67 0 32-14.33 32-32l-.0234-32C383.1 318.3 369.7 304 352 304zM184 384H160c-8.822 0-16-7.176-16-16v-32c0-8.824 7.201-16.02 16.02-16.02L184 320V384zM248 384h-48v-64h48V384zM312 384h-48v-64h48V384zM368 368c0 8.824-7.178 16-16 16h-24v-64h23.98C360.8 320 368 327.2 368 336V368zM256 0C114.6 0 0 114.6 0 256s114.6 256 256 256s256-114.6 256-256S397.4 0 256 0zM256 496c-132.3 0-240-107.7-240-240S123.7 16 256 16s240 107.7 240 240S388.3 496 256 496z"/></svg>