<svg xmlns="http://www.w3.org/2000/svg" viewBox="0 0 512 512"><!--! Font Awesome Pro 6.0.0-alpha3 by @fontawesome - https://fontawesome.com License - https://fontawesome.com/license (Commercial License) --><path d="M176 224C184.8 224 192 216.9 192 208S184.8 192 176 192S160 199.1 160 208S167.2 224 176 224zM336 224C344.8 224 352 216.9 352 208S344.8 192 336 192S320 199.1 320 208S327.2 224 336 224zM256 320c-48.41 0-93.56 26.05-117.8 68C136 391.8 137.3 396.7 141.1 398.9C144.8 401.1 149.8 399.8 152.1 396C173.4 359 213.3 336 256 336s82.56 23 103.9 60c1.5 2.562 4.188 4 6.938 4c1.375 0 2.75-.3438 4-1.078C374.7 396.7 376 391.8 373.8 388C349.6 346 304.4 320 256 320zM256 0C114.6 0 0 114.6 0 256s114.6 256 256 256s256-114.6 256-256S397.4 0 256 0zM256 496c-132.3 0-240-107.7-240-240S123.7 16 256 16s240 107.7 240 240S388.3 496 256 496z"/></svg>