<svg xmlns="http://www.w3.org/2000/svg" viewBox="0 0 512 512"><!--! Font Awesome Pro 6.0.0-alpha3 by @fontawesome - https://fontawesome.com License - https://fontawesome.com/license (Commercial License) --><path d="M286.1 231.8c4.156 1.031 8.609-1.562 9.703-5.812C299.5 210.9 315 168 336 168s36.47 42.91 40.23 57.94C377.2 229.6 380.4 232 384 232c.6406 0 1.297-.0938 1.938-.25c4.297-1.062 6.891-5.406 5.828-9.688C389.1 214.9 373.2 152 336 152s-54 62.88-55.8 70.06C279.2 226.3 281.8 230.7 286.1 231.8zM126.1 231.8c4.188 1.031 8.609-1.562 9.703-5.812C139.5 210.9 155 168 176 168s36.47 42.91 40.23 57.94C217.2 229.6 220.4 232 224 232c.6406 0 1.297-.0938 1.938-.25c4.297-1.062 6.891-5.406 5.828-9.688C229.1 214.9 213.1 152 175.1 152S122 214.9 120.2 222.1C119.2 226.3 121.8 230.7 126.1 231.8zM383.1 320c-1.598 0-3.204 .2227-4.843 .75c-30.26 9.746-75.2 15.25-123.1 15.25s-92.87-5.503-123.1-15.25c-1.656-.5273-3.261-.75-4.872-.75c-9.455 0-17.49 8.499-15.83 18.75c9.318 54.99 83.32 93.24 143.8 93.24s134.6-38.26 143.8-93.24C401.4 328.5 393.4 320 383.1 320zM256.1 416c-54.04 0-120.3-34.16-128.1-79.1c31.6 10.18 78.25 16.02 127.1 16.02c49.72 0 96.35-5.832 127.1-16.01C376.3 381.7 310.2 416 256.1 416zM256 0C114.6 0 0 114.6 0 256s114.6 256 256 256s256-114.6 256-256S397.4 0 256 0zM256 496c-132.3 0-240-107.7-240-240S123.7 16 256 16s240 107.7 240 240S388.3 496 256 496z"/></svg>