<svg xmlns="http://www.w3.org/2000/svg" viewBox="0 0 512 512"><!--! Font Awesome Pro 6.0.0-alpha3 by @fontawesome - https://fontawesome.com License - https://fontawesome.com/license (Commercial License) --><path d="M192 335.2c0-8.854-7.139-15.96-16.03-15.96C167.1 319.2 160 326.4 160 335.2s7.139 15.96 15.97 15.96C184.9 351.2 192 344.1 192 335.2zM511.9 254.4l-16.06 9.098C490.1 266.3 485.5 267.7 480 267.7s-10.96-1.4-15.88-4.205L431.9 245.2C429.5 243.8 426.7 243.1 424 243.1c-2.738 0-5.479 .6992-7.938 2.102l-32.19 18.35C378.1 266.3 373.5 267.7 368 267.7s-10.96-1.402-15.88-4.207L319.9 245.2C317.5 243.8 314.7 243.1 312 243.1c-2.738 0-5.479 .6992-7.938 2.102l-32.19 18.35C266.1 266.3 261.5 267.7 256 267.7S245 266.3 240.1 263.5L207.9 245.2C205.5 243.8 202.7 243.1 200 243.1c-2.738 0-5.479 .6992-7.938 2.102L159.9 263.5C154.1 266.3 149.5 267.7 144 267.7S133 266.3 128.1 263.5L95.94 245.2C93.48 243.8 90.74 243.1 88 243.1c-2.738 0-5.479 .6992-7.938 2.102L47.88 263.5C42.96 266.3 37.48 267.7 32 267.7S21.04 266.3 16.13 263.5L.0605 254.4C.0547 255.1 0 255.9 0 256.6C0 397.7 114.6 512 256 512c141.4 0 256-114.3 256-255.4C512 255.9 511.9 255.1 511.9 254.4zM256 496c-130.5 0-227.1-100.5-238.7-214.7C22.01 282.9 26.98 283.7 32 283.7c8.338 0 16.57-2.182 23.81-6.311L88 259l32.19 18.35C127.4 281.5 135.7 283.7 144 283.7c8.34 0 16.57-2.184 23.81-6.311L200 259l32.19 18.35C239.4 281.5 247.7 283.7 256 283.7c8.34 0 16.57-2.184 23.81-6.311L312 259l32.19 18.35C351.4 281.5 359.7 283.7 368 283.7c8.34 0 16.57-2.184 23.81-6.311L424 259l32.19 18.35C463.4 281.5 471.7 283.7 480 283.7c5.016 0 9.996-.7891 14.74-2.318C483 395.8 386.2 496 256 496zM336 319.2C327.1 319.2 320 326.4 320 335.2s7.139 15.96 16.03 15.96C344.9 351.2 352 344.1 352 335.2S344.9 319.2 336 319.2zM272 367.1h-32c-30.88 0-56 25.07-56 55.87c0 13.2 10.77 23.94 24 23.94h96c13.23 0 24-10.74 24-23.94C328 392.2 302.9 367.1 272 367.1zM304 430.1h-96c-4.406 0-8-3.586-8-7.98c0-22.01 17.94-39.91 40-39.91h32c22.06 0 40 17.89 40 39.91C312 427.4 308.4 430.1 304 430.1zM121.9 167.6h38.58c4.75 0 9.477 1.396 14.9 4.357C185.8 177.7 192 187.9 192 199.1c0 1.393-.0781 2.674-.2187 3.857C191.2 207.7 194.1 211.8 199.8 211.7c.0762-.002-.0762 .002 0 0c3.709-.0469 7.048-2.742 7.647-6.4C207.8 202.9 208 200.8 208 199.1c0-11.89-4.5-22.95-12.5-31.47H248c4.422 0 8-3.568 8-7.98S252.4 151.6 248 151.6H121.7c-20.84 0-39.49-15.2-41.51-35.94C77.88 91.91 96.63 71.83 120 71.83c14.42 0 18.88 6.691 24.12 6.691c4.742 0 7.918-3.828 8.006-7.814C152.7 40.53 177.8 15.96 208 15.96c32.08 0 39.05 21.89 48 21.89c11.67 0 18.5-33.09 74.62-17.91c21.43 5.799 31.88 27.47 29.31 49.53c-.6133 5.279 3.484 9.061 7.947 9.061c5.139 0 9.574-6.553 23.63-6.701c18.43-.1953 35.31 12.58 39.42 30.55C436.9 128.4 417.1 151.6 392 151.6h-40.44c-7.453 0-14.89 2.088-22.67 6.375C313.3 166.6 304 181.1 304 199.1c0 1.582 .1992 3.668 .582 6.02c.6094 3.734 3.888 6.566 7.673 6.615c.0684 .002-.0703-.002 0 0c4.77 .0684 8.526-4.039 7.964-8.775C320.1 201.8 320 200.5 320 199.1c0-11.21 6.242-21.35 16.66-27.12c5.422-2.961 10.15-4.357 14.9-4.357h38.58c28.4 0 53.76-20.35 57.38-48.52C451.9 85.02 425.3 55.87 392 55.87c-5.922 0-11.72 .9512-17.33 2.854C368.4 25.44 338.9 0 304 0c-17.72 0-34.8 6.703-48 18.64C242.8 6.703 225.7 0 208 0C173.1 0 143.6 25.44 137.3 58.72C131.7 56.82 125.9 55.87 120 55.87c-33.3 0-59.91 29.16-55.53 63.22C68.1 147.3 93.46 167.6 121.9 167.6z"/></svg>