<svg xmlns="http://www.w3.org/2000/svg" viewBox="0 0 512 512"><!--! Font Awesome Pro 6.0.0-alpha3 by @fontawesome - https://fontawesome.com License - https://fontawesome.com/license (Commercial License) --><path d="M481.6 152.6c-4.078 1.703-6 6.406-4.281 10.47C489.7 192.5 496 223.8 496 256c0 132.3-107.7 240-240 240S16 388.3 16 256S123.7 16 256 16c46.61 0 91.81 13.38 130.7 38.69c3.703 2.438 8.672 1.359 11.06-2.344c2.406-3.703 1.358-8.521-2.345-10.93C353.9 14.42 305.7 0 256 0C114.8 0 0 114.8 0 256s114.8 256 256 256s256-114.8 256-256c0-34.34-6.688-67.69-19.89-99.09C490.4 152.8 485.7 150.9 481.6 152.6zM464 128C490.5 128 512 107 512 81.01c0-19.1-28.55-60.36-41.6-77.73C468.8 1.093 466.4-.002 464-.002s-4.801 1.095-6.398 3.283C444.4 20.65 416 61.01 416 81.01C416 107 437.5 128 464 128zM463.1 21.55C485.9 52.07 496 73.51 496 81.01C496 98.1 481.6 112 464 112s-32-13.9-32-30.99C432 73.1 442.9 50.71 463.1 21.55zM112.2 338.8c9.316 54.99 83.32 93.24 143.8 93.24s134.6-38.26 143.8-93.24c1.551-10.25-6.48-18.75-15.86-18.75c-1.598 0-3.201 .2227-4.841 .75c-30.26 9.746-75.2 15.25-123.1 15.25s-92.87-5.503-123.1-15.25c-1.656-.5273-3.264-.75-4.878-.75C118.5 320 110.5 328.5 112.2 338.8zM256 352c49.72 0 96.34-5.832 127.1-16.01c-7.645 45.72-73.79 79.99-127.9 79.99c-54.04 0-120.3-34.16-128.1-79.1C159.6 346.2 206.3 352 256 352zM135.8 225.9C139.5 210.9 155 168 175.1 168s36.47 42.91 40.23 57.94C217.2 229.6 220.4 232 223.1 232c.6406 0 1.297-.0938 1.938-.25c4.297-1.062 6.891-5.406 5.828-9.688C229.1 214.9 213.1 152 175.1 152S122 214.9 120.2 222.1C119.2 226.3 121.8 230.7 126.1 231.8C130.2 232.8 134.7 230.2 135.8 225.9zM295.8 225.9C299.5 210.9 315 168 335.1 168s36.47 42.91 40.23 57.94C377.2 229.6 380.4 232 383.1 232c.6406 0 1.297-.0938 1.938-.25c4.297-1.062 6.891-5.406 5.828-9.688C389.1 214.9 373.2 152 336 152s-54.01 62.88-55.8 70.06c-1.062 4.281 1.531 8.625 5.828 9.688C290.2 232.8 294.7 230.2 295.8 225.9z"/></svg>