<svg xmlns="http://www.w3.org/2000/svg" viewBox="0 0 512 512"><!--! Font Awesome Pro 6.0.0-alpha3 by @fontawesome - https://fontawesome.com License - https://fontawesome.com/license (Commercial License) --><path d="M367.2 153.8c-6.562-22.12-28.34-36.59-50.34-33.16c-12.34 1.938-23.25 9-29.94 19.38s-8.625 23.19-5.344 35.16l19.41 70c2.125 7.281 8.844 12.06 15.97 12.06c1.406 0 2.844-.1875 4.25-.5625l70.22-18.12c12-3.188 22.12-11.28 27.75-22.25c5.719-11.12 6.344-23.78 1.812-35.56C413.2 159.9 389.7 148.2 367.2 153.8zM404.1 208.9C401.4 215.9 395 221 387.4 223l-71.03 17.75l-19.38-69.88c-2.094-7.562-.875-15.69 3.344-22.25c4.281-6.625 11.03-10.97 19.03-12.22c1.375-.2187 2.719-.3438 4.094-.3438c12.62 0 24.66 9.219 28.44 22.41l4.031 14.78l14.81-3.875c14.69-3.812 30.22 3.562 35.28 17C408.9 193.9 408.6 201.9 404.1 208.9zM190.7 256.7c1.438 .4062 2.906 .5938 4.375 .5938c2.875 0 5.719-.75 8.281-2.25c3.844-2.219 6.594-5.781 7.688-9.938l19.38-69.88c3.281-12.03 1.344-24.84-5.344-35.19c-6.781-10.5-17.41-17.38-29.91-19.34C173.1 117.3 151.3 131.7 144.8 153.9C122.5 148.3 98.88 159.9 91 180.8C86.53 192.4 87.19 205.3 92.78 216.2c5.594 11 15.72 19.12 27.78 22.31L190.7 256.7zM107 208.9c-3.594-7-3.969-14.94-1.094-22.41c4.188-11 15.31-18.06 27.28-18.06c2.656 0 5.344 .3438 8 1.062l14.81 3.875l4-14.72c4.156-14.69 18.53-24.31 32.59-22.12c8 1.25 14.72 5.594 19 12.19C215.8 155.3 217.1 163.4 214.1 171L194.8 241.3L124.6 223C116.1 221 110.6 215.9 107 208.9zM384 319.1c-1.598 0-3.238 .2461-4.875 .7734C348.9 330.5 303.1 336 256 336s-92.88-5.5-123.2-15.25C131.2 320.2 129.5 319.1 127.9 319.1c-9.461 0-17.45 8.52-15.79 18.77C121.5 393.8 195.5 432 256 432s134.7-38.25 143.9-93.25C401.4 328.5 393.4 319.1 384 319.1zM256 416c-54.07 0-120.3-34.18-128.1-80.02C159.6 346.2 206.2 352 256 352c49.74 0 96.39-5.832 128-16.01C376.4 381.7 310.1 416 256 416zM256 0C114.6 0 0 114.6 0 256s114.6 256 256 256s256-114.6 256-256S397.4 0 256 0zM256 496c-132.3 0-240-107.7-240-240S123.7 16 256 16s240 107.7 240 240S388.3 496 256 496z"/></svg>