<svg xmlns="http://www.w3.org/2000/svg" viewBox="0 0 512 512"><!--! Font Awesome Pro 6.0.0-alpha3 by @fontawesome - https://fontawesome.com License - https://fontawesome.com/license (Commercial License) --><path d="M336 264c22.81 0 40-30.97 40-72s-17.19-72-40-72S296 150.1 296 192S313.2 264 336 264zM336.1 136C347.5 136 360 159.9 360 192s-12.51 56-23.86 56S312 224.1 312 192S324.8 136 336.1 136zM176 264c22.81 0 40-30.97 40-72S198.8 120 176 120S136 150.1 136 192S153.2 264 176 264zM176 136c11.34 0 24 23.94 24 56S187.3 248 176 248S152 224.1 152 192S164.7 136 176 136zM384.1 320c-1.598 0-3.293 .2227-4.932 .75c-30.26 9.746-75.2 15.25-123.1 15.25s-92.87-5.503-123.1-15.25c-1.656-.5273-3.173-.75-4.784-.75c-9.455 0-17.58 8.499-15.92 18.75c9.318 54.99 83.32 93.24 143.8 93.24s134.6-38.26 143.8-93.24C401.4 328.5 393.5 320 384.1 320zM256.1 416c-54.04 0-120.3-34.16-127.1-79.1c31.6 10.18 78.25 16.02 127.1 16.02c49.72 0 96.35-5.832 127.1-16.01C376.5 381.7 310.3 416 256.1 416zM256 0C114.6 0 0 114.6 0 256s114.6 256 256 256s256-114.6 256-256S397.4 0 256 0zM256 496c-132.3 0-240-107.7-240-240S123.7 16 256 16s240 107.7 240 240S388.3 496 256 496z"/></svg>