<svg xmlns="http://www.w3.org/2000/svg" viewBox="0 0 512 512"><!--! Font Awesome Pro 6.0.0-alpha3 by @fontawesome - https://fontawesome.com License - https://fontawesome.com/license (Commercial License) --><path d="M384 319.1c-1.598 0-3.238 .2461-4.875 .7734C348.9 330.5 303.1 336 256 336s-92.88-5.5-123.2-15.25C131.2 320.2 129.5 319.1 127.9 319.1c-9.461 0-17.45 8.52-15.79 18.77C121.5 393.8 195.5 432 256 432s134.7-38.25 143.9-93.25C401.4 328.5 393.4 319.1 384 319.1zM256.1 416c-54.07 0-120.4-34.18-128.1-80.02C159.6 346.2 206.2 352 256 352c49.74 0 96.39-5.832 128-16.01C376.4 381.7 310.2 416 256.1 416zM371.9 262.9c1.281 .75 2.703 1.125 4.109 1.125c2.703 0 5.359-1.375 6.859-3.875c2.281-3.812 1.047-8.719-2.75-11l-68.56-41.13l68.56-41.13c3.797-2.281 5.031-7.188 2.75-11c-2.266-3.781-7.219-4.938-10.97-2.75l-80 48c-2.422 1.469-3.889 4.074-3.889 6.887s1.467 5.395 3.889 6.863L371.9 262.9zM129.1 260.1c1.5 2.5 4.156 3.875 6.859 3.875c1.406 0 2.828-.375 4.109-1.125l80-48C222.5 213.4 223.1 210.8 223.1 207.1s-1.471-5.418-3.893-6.887l-80-48C136.4 150.9 131.4 152.1 129.1 155.9C126.9 159.7 128.1 164.6 131.9 166.9l68.56 41.13L131.9 249.1C128.1 251.4 126.9 256.3 129.1 260.1zM256 0C114.6 0 0 114.6 0 256s114.6 256 256 256s256-114.6 256-256S397.4 0 256 0zM256 496c-132.3 0-240-107.7-240-240S123.7 16 256 16s240 107.7 240 240S388.3 496 256 496z"/></svg>