<svg xmlns="http://www.w3.org/2000/svg" viewBox="0 0 512 512"><!--! Font Awesome Pro 6.0.0-alpha3 by @fontawesome - https://fontawesome.com License - https://fontawesome.com/license (Commercial License) --><path d="M176 224C184.8 224 192 216.9 192 208S184.8 192 176 192S160 199.1 160 208S167.2 224 176 224zM336 224C344.8 224 352 216.9 352 208S344.8 192 336 192S320 199.1 320 208S327.2 224 336 224zM256 304c-37 0-95.55 21.56-103.7 67.88c-1.453 8.25 1.422 16.5 7.688 22.06c6.328 5.562 14.89 7.5 22.98 4.969C213.7 389.6 240.1 384 256 384s42.3 5.562 72.98 14.91c2.359 .7187 4.75 1.062 7.125 1.062c5.75 0 11.36-2.062 15.83-6c6.281-5.531 9.172-13.78 7.719-22.09C351.5 325.6 293 304 256 304zM341.4 381.1c-2.109 1.844-4.875 2.469-7.703 1.625C301.5 373.8 272.5 368 256 368s-45.53 5.844-77.64 15.59c-2.812 .8125-5.562 .2187-7.719-1.625c-2.109-1.875-3.031-4.531-2.547-7.344C174.3 339.5 223.1 320 256 320s81.73 19.47 87.91 54.63C344.6 378.6 342.3 381.1 341.4 381.1zM256 0C114.6 0 0 114.6 0 256s114.6 256 256 256s256-114.6 256-256S397.4 0 256 0zM256 496c-132.3 0-240-107.7-240-240S123.7 16 256 16s240 107.7 240 240S388.3 496 256 496z"/></svg>