<svg xmlns="http://www.w3.org/2000/svg" viewBox="0 0 512 512"><!--! Font Awesome Pro 6.0.0-alpha3 by @fontawesome - https://fontawesome.com License - https://fontawesome.com/license (Commercial License) --><path d="M176 192C167.2 192 160 199.2 160 208C160 216.8 167.2 224 176 224S192 216.8 192 208C192 199.2 184.8 192 176 192zM256 288c-35.35 0-64.01 28.65-64.01 64c0 35.35 28.67 64 64.01 64s64.01-28.65 64.01-64C320 316.7 291.3 288 256 288zM256 400c-26.47 0-48-21.53-48-48S229.5 304 256 304s48 21.53 48 48S282.5 400 256 400zM336 192C327.2 192 320 199.2 320 208C320 216.8 327.2 224 336 224S352 216.8 352 208C352 199.2 344.8 192 336 192zM256 0C114.6 0 0 114.6 0 256s114.6 256 256 256s256-114.6 256-256S397.4 0 256 0zM256 496c-132.3 0-240-107.7-240-240S123.7 16 256 16s240 107.7 240 240S388.3 496 256 496z"/></svg>