<svg xmlns="http://www.w3.org/2000/svg" viewBox="0 0 512 512"><!--! Font Awesome Pro 6.0.0-alpha3 by @fontawesome - https://fontawesome.com License - https://fontawesome.com/license (Commercial License) --><path d="M256 288c-45.46 0-100.9 38.28-107.8 93.4c-1.27 10.02 4.68 18.59 11.8 18.59c1.197 0 2.43-.2441 3.668-.7637C186.4 389.5 220.1 384 256 384s69.61 5.469 92.29 15.2C349.5 399.8 350.7 400 351.9 400c7.066 0 13.08-8.5 11.81-18.6C356.9 326.3 301.5 288 256 288zM256 368c-34.8 0-67.7 4.996-91.66 13.76C170.9 337.1 217.8 304 256 304c38.23 0 85.07 33.15 91.66 77.78C323.6 372.1 290.8 368 256 368zM224 208c0-2.812-1.469-5.422-3.891-6.859l-80-48C136.4 150.9 131.4 152.1 129.1 155.9C126.9 159.7 128.1 164.6 131.9 166.9L200.5 208L131.9 249.1C128.1 251.4 126.9 256.3 129.1 260.1C130.6 262.6 133.3 264 136 264c1.406 0 2.828-.3594 4.109-1.141l80-48C222.5 213.4 224 210.8 224 208zM382.9 155.9c-2.281-3.797-7.203-5.016-10.97-2.75l-80 48C289.5 202.6 288 205.2 288 208s1.469 5.422 3.891 6.859l80 48C373.2 263.6 374.6 264 376 264c2.703 0 5.359-1.391 6.859-3.891c2.281-3.781 1.047-8.703-2.75-10.97L311.5 208l68.56-41.14C383.9 164.6 385.1 159.7 382.9 155.9zM256 0C114.6 0 0 114.6 0 256s114.6 256 256 256s256-114.6 256-256S397.4 0 256 0zM256 496c-132.3 0-240-107.7-240-240S123.7 16 256 16s240 107.7 240 240S388.3 496 256 496z"/></svg>