<svg xmlns="http://www.w3.org/2000/svg" viewBox="0 0 512 512"><!--! Font Awesome Pro 6.0.0-alpha3 by @fontawesome - https://fontawesome.com License - https://fontawesome.com/license (Commercial License) --><path d="M255.1 288c-26.47 0-47.97 28.72-47.97 64s21.5 64 47.97 64s47.97-28.72 47.97-64S282.5 288 255.1 288zM256 400c-17.34 0-32-21.97-32-48s14.66-48 32-48s32 21.97 32 48S273.3 400 256 400zM211.6 231.2c3.953-1.969 5.547-6.781 3.578-10.75C203.9 197.1 182.8 184 160 184S116.1 197.1 104.8 220.4C102.9 224.4 104.5 229.2 108.4 231.2c3.922 1.969 8.766 .375 10.73-3.562C127.7 210.6 143.3 200 160 200s32.33 10.56 40.84 27.59C202.3 230.4 205.1 232 208 232C209.2 232 210.4 231.7 211.6 231.2zM352 184c-22.77 0-43.91 13.97-55.16 36.41c-1.969 3.969-.375 8.781 3.578 10.75c3.922 1.969 8.766 .375 10.73-3.562C319.7 210.6 335.3 200 352 200s32.33 10.56 40.84 27.59C394.3 230.4 397.1 232 400 232c1.203 0 2.438-.2813 3.578-.8438c3.953-1.969 5.547-6.781 3.578-10.75C395.9 197.1 374.8 184 352 184zM256 0C114.8 0 0 114.8 0 256s114.8 256 256 256s256-114.8 256-256S397.2 0 256 0zM360 471.1V288c0-4.406-3.564-8-7.986-8S344 283.6 344 288v191.1C316.7 489.9 287.1 496 256 496s-60.71-6.131-88-16.93V288c0-4.406-3.592-8-8.014-8S152 283.6 152 288v183.1C71.67 433.1 16 351.1 16 256c0-132.3 107.7-240 240-240s240 107.7 240 240C496 351.1 440.3 433.1 360 471.1z"/></svg>