<svg xmlns="http://www.w3.org/2000/svg" viewBox="0 0 640 512"><!--! Font Awesome Pro 6.0.0-alpha3 by @fontawesome - https://fontawesome.com License - https://fontawesome.com/license (Commercial License) --><path d="M359.8 225.9C363.5 210.9 379 168 400 168s36.47 42.91 40.23 57.94C441.2 229.6 444.4 232 448 232c.6406 0 1.297-.0938 1.938-.25c4.297-1.062 6.891-5.406 5.828-9.688C453.1 214.9 437.2 152 400 152s-54 62.88-55.8 70.06c-1.062 4.281 1.298 8.625 5.595 9.688C353.1 232.8 358.7 230.2 359.8 225.9zM199.8 225.9C203.5 210.9 219 168 240 168s36.47 42.91 40.23 57.94C281.2 229.6 284.4 232 288 232c.6406 0 1.527-.0938 2.168-.25c4.297-1.062 6.66-5.406 5.598-9.688C293.1 214.9 277.1 152 239.1 152S186 214.9 184.2 222.1C183.2 226.3 185.8 230.7 190.1 231.8C194.3 232.8 198.7 230.2 199.8 225.9zM176.2 338.8c9.318 54.99 83.32 93.24 143.8 93.24s134.6-38.26 143.8-93.24c1.553-10.25-6.478-18.75-15.86-18.75c-1.598 0-3.204 .2227-4.843 .75c-30.26 9.746-75.2 15.25-123.1 15.25s-92.87-5.503-123.1-15.25c-1.656-.5273-3.261-.75-4.872-.75C182.5 320 174.5 328.5 176.2 338.8zM320 352c49.72 0 96.35-5.832 127.1-16.01c-7.646 45.72-73.79 79.99-127.9 79.99c-54.04 0-120.3-34.16-128.1-79.1C223.6 346.2 270.3 352 320 352zM99.21 244.9c-.416 0-.8398 .0313-1.27 .0977C76.34 247.1 27.69 256.4 13.55 270.6c-18.38 18.38-17.1 48.46 .7148 67.17C23.76 347.2 36.18 352 48.52 352c11.97 0 23.87-4.5 32.92-13.55c14.14-14.14 22.49-62.88 25.55-84.38C107.7 249.1 103.1 244.9 99.21 244.9zM70.12 327.1C64.4 332.9 56.73 336 48.52 336c-8.609 0-16.75-3.402-22.93-9.582C13.11 313.9 12.79 293.1 24.87 281.9C30.46 276.3 54.01 268.2 89.52 262.4C83.46 299.5 75.43 321.8 70.12 327.1zM626.4 270.6c-14.14-14.14-62.79-22.58-84.38-25.55c-.4277-.0664-.8516-.0977-1.268-.0977c-4.777 0-8.545 4.223-7.779 9.145c3.055 21.51 11.41 70.24 25.55 84.38C567.6 347.5 579.5 352 591.5 352c12.33 0 24.75-4.773 34.25-14.27C644.4 319 644.8 288.9 626.4 270.6zM614.4 326.4C608.2 332.6 600.1 336 591.5 336c-8.215 0-15.89-3.148-21.61-8.867c-5.299-5.301-13.32-27.52-19.4-64.69c35.42 5.691 59.05 13.83 64.65 19.43C627.2 293.1 626.9 313.9 614.4 326.4zM534.2 364.4C493 445.6 410.1 496 320 496s-173-50.44-214.2-131.6c-2-3.969-6.812-5.438-10.75-3.531c-3.938 2-5.5 6.812-3.5 10.75C135.4 458.2 222.1 512 320 512s184.6-53.8 228.4-140.4c2-3.938 .4375-8.75-3.5-10.75C541 358.9 536.2 360.5 534.2 364.4zM75.13 215.8c4.25 .9219 8.5-1.984 9.375-6.312C106.5 97.39 205.5 16 320 16s213.5 81.39 235.5 193.5C556.3 213.4 559.6 216 563.3 216c.5 0 1.031-.0469 1.531-.1562c4.344-.8438 7.156-5.047 6.312-9.375C547.8 86.83 442.1 0 320 0S92.25 86.83 68.81 206.5C67.97 210.8 70.78 215 75.13 215.8z"/></svg>