<svg xmlns="http://www.w3.org/2000/svg" viewBox="0 0 512 512"><!--! Font Awesome Pro 6.0.0-alpha3 by @fontawesome - https://fontawesome.com License - https://fontawesome.com/license (Commercial License) --><path d="M224 224c0-35.35-28.67-64-64.02-64C124.7 160 96.03 188.7 96.03 224s28.61 64 63.96 64C195.3 288 224 259.3 224 224zM160 176c8.822 0 16 7.176 16 16S168.8 208 159.1 208S144 200.8 144 192S151.2 176 160 176zM160 272C133.5 272 112 250.5 112 224c0-14.53 6.623-27.41 16.85-36.22C128.7 189.2 128 190.5 128 192c0 17.67 14.31 32 31.99 32C177.7 224 192 209.7 192 192c0-1.496-.6523-2.773-.8516-4.219C201.4 196.6 208 209.5 208 224C208 250.5 186.5 272 160 272zM352 160c-35.35 0-64.02 28.65-64.02 64s28.69 64 64.04 64c35.35 0 63.96-28.65 63.96-64S387.3 160 352 160zM352 176c8.822 0 16 7.176 16 16s-7.164 16-15.99 16S336 200.8 336 192S343.2 176 352 176zM352 272c-26.47 0-48.02-21.53-48.02-48c0-14.53 6.646-27.41 16.88-36.22C320.7 189.2 320 190.5 320 192c0 17.67 14.34 32 32.01 32C369.7 224 384 209.7 384 192c0-1.496-.6523-2.773-.8516-4.219C393.4 196.6 400 209.5 400 224C400 250.5 378.5 272 352 272zM320 376H192c-4.406 0-8 3.578-8 8S187.6 392 192 392h128c4.406 0 8-3.578 8-8S324.4 376 320 376zM256 0C114.6 0 0 114.6 0 256s114.6 256 256 256s256-114.6 256-256S397.4 0 256 0zM256 496c-132.3 0-240-107.7-240-240S123.7 16 256 16s240 107.7 240 240S388.3 496 256 496z"/></svg>