<svg xmlns="http://www.w3.org/2000/svg" viewBox="0 0 512 512"><!--! Font Awesome Pro 6.0.0-alpha3 by @fontawesome - https://fontawesome.com License - https://fontawesome.com/license (Commercial License) --><path d="M120.4 256.1C119.6 261.5 123.8 266 128.7 266c1.352 0 2.76-.3398 4.135-1.098l35.17-18.43l35.17 18.29C204.6 265.5 205.1 265.9 207.3 265.9c4.938 0 9.123-4.547 8.268-9.961L208.8 216.7l28.62-27.72c5.18-5.207 2.18-13.79-4.908-14.91L193.2 168.4L175.8 132.8C174.1 129.6 171 127.9 167.9 127.9S161.7 129.6 160.1 132.8L142.7 168.4L103.4 174c-6.951 1.125-9.949 9.707-4.77 15.05l28.49 27.58L120.4 256.1zM120.3 187.8l33.03-4.738l14.64-29.87l14.64 29.87l33.02 4.734L191.6 211l5.658 32.59L167.1 228.4L138.8 243.8l5.551-32.74L120.3 187.8zM408.5 174.1L369.2 168.5l-17.44-35.59c-1.637-3.234-4.736-4.852-7.836-4.852s-6.201 1.617-7.836 4.852L318.7 168.5l-39.25 5.625c-6.949 1.125-9.947 9.707-4.906 14.91l28.62 27.57l-6.814 39.39c-.8555 5.414 3.33 9.957 8.268 9.957c1.352 0 2.758-.3398 4.133-1.094l35.29-18.43l35.16 18.29c1.377 .7539 2.783 1.094 4.135 1.094c4.938 0 9.123-4.543 8.266-9.957L384.9 216.6l28.48-27.71C418.6 183.7 415.6 175.1 408.5 174.1zM373.7 205.1l-6.025 5.863l5.547 32.61L344 228.4l-29.32 15.31l5.66-32.72l-23.99-23.11l32.96-4.727l14.63-29.86l14.63 29.86l32.92 4.719L373.7 205.1zM383.1 320c-1.598 0-3.192 .2285-4.831 .7559C348.9 330.5 303.9 336 256 336s-92.88-5.503-123.1-15.25C131.2 320.2 129.6 320 127.1 320c-9.455 0-17.49 8.505-15.83 18.75C121.5 393.7 195.5 432 256 432s134.6-38.26 143.8-93.25C401.4 328.5 393.4 320 383.1 320zM256 416c-54.04 0-120.3-34.17-127.1-80C159.6 346.2 206.3 352 256 352c49.72 0 96.35-5.832 127.1-16.01C376.3 381.7 310.1 416 256 416zM256 0C114.6 0 0 114.6 0 256s114.6 256 256 256s256-114.6 256-256S397.4 0 256 0zM256 496c-132.3 0-240-107.7-240-240S123.7 16 256 16s240 107.7 240 240S388.3 496 256 496z"/></svg>