<svg xmlns="http://www.w3.org/2000/svg" viewBox="0 0 512 512"><!--! Font Awesome Pro 6.0.0-alpha3 by @fontawesome - https://fontawesome.com License - https://fontawesome.com/license (Commercial License) --><path d="M129.1 228.1c1.5 2.5 4.156 3.875 6.859 3.875c1.406 0 2.828-.375 4.109-1.125l80-48c2.422-1.469 3.889-4.055 3.889-6.867S222.5 170.6 220.1 169.1l-80-48C136.4 118.9 131.4 120.1 129.1 123.9c-2.281 3.812-1.047 8.719 2.75 11l68.56 41.13L131.9 217.1C128.1 219.4 126.9 224.3 129.1 228.1zM371.9 230.9c1.281 .75 2.703 1.125 4.109 1.125c2.703 0 5.359-1.375 6.859-3.875c2.281-3.812 1.047-8.719-2.75-11l-68.56-41.13L380.1 134.9c3.797-2.281 5.031-7.188 2.75-11c-2.266-3.781-7.219-4.938-10.97-2.75l-80 48c-2.422 1.469-3.893 4.07-3.893 6.883s1.471 5.398 3.893 6.867L371.9 230.9zM391.9 288H120.1C110.5 288 102.9 296.5 104.1 306C113 377 174.1 432 247.1 432h16.02c73.86 0 134.1-55 143.9-126C409.1 296.4 401.5 288 391.9 288zM264 416H247.1c-64.94 0-119.1-48.14-127.9-112h271.8C383.9 367.8 328.1 416 264 416zM256 0C114.6 0 0 114.6 0 256s114.6 256 256 256s256-114.6 256-256S397.4 0 256 0zM256 496c-132.3 0-240-107.7-240-240S123.7 16 256 16s240 107.7 240 240S388.3 496 256 496z"/></svg>