<svg xmlns="http://www.w3.org/2000/svg" viewBox="0 0 512 512"><!--! Font Awesome Pro 6.0.0-alpha3 by @fontawesome - https://fontawesome.com License - https://fontawesome.com/license (Commercial License) --><path d="M295.2 211.6C303.7 194.6 319.3 184 336 184s32.33 10.56 40.84 27.59C378.3 214.4 381.1 216 384 216c1.203 0 2.438-.2813 3.578-.8438c3.953-1.969 5.547-6.781 3.578-10.75C379.9 181.1 358.8 168 336 168s-43.95 13.97-55.2 36.41c-1.969 3.969-.375 8.781 3.578 10.75C288.3 217.1 293.2 215.5 295.2 211.6zM176 208C184.8 208 192 200.9 192 192S184.8 176 176 176S160 183.1 160 192S167.2 208 176 208zM391.9 288H120.1C110.5 288 102.9 296.5 104.1 306C113 377 174.1 432 247.1 432h16.09c73.86 0 134.9-55 143.8-126C409.1 296.4 401.5 288 391.9 288zM264 416H247.1c-64.94 0-119.1-48.14-127.9-112h271.8C383.9 367.8 328.1 416 264 416zM256 0C114.6 0 0 114.6 0 256s114.6 256 256 256s256-114.6 256-256S397.4 0 256 0zM256 496c-132.3 0-240-107.7-240-240S123.7 16 256 16s240 107.7 240 240S388.3 496 256 496z"/></svg>