<svg xmlns="http://www.w3.org/2000/svg" viewBox="0 0 512 512"><!--! Font Awesome Pro 6.0.0-alpha3 by @fontawesome - https://fontawesome.com License - https://fontawesome.com/license (Commercial License) --><path d="M176 224C184.8 224 192 216.9 192 208S184.8 192 176 192S160 199.1 160 208S167.2 224 176 224zM336 224C344.8 224 352 216.9 352 208S344.8 192 336 192S320 199.1 320 208S327.2 224 336 224zM359.9 324C338.6 361 298.7 384 256 384s-82.56-23-103.9-60c-2.281-3.844-7.219-5.156-10.94-2.922C137.3 323.3 136 328.2 138.2 332C162.4 373.1 207.6 399.1 256 399.1s93.56-26.02 117.8-67.98c2.188-3.828 .9062-8.719-2.938-10.92C367.1 318.8 362.2 320.2 359.9 324zM256 0C114.6 0 0 114.6 0 256s114.6 256 256 256s256-114.6 256-256S397.4 0 256 0zM256 496c-132.3 0-240-107.7-240-240S123.7 16 256 16s240 107.7 240 240S388.3 496 256 496z"/></svg>