<svg xmlns="http://www.w3.org/2000/svg" viewBox="0 0 512 512"><!--! Font Awesome Pro 6.0.0-alpha3 by @fontawesome - https://fontawesome.com License - https://fontawesome.com/license (Commercial License) --><path d="M176 224C184.8 224 192 216.9 192 208S184.8 192 176 192S160 199.1 160 208S167.2 224 176 224zM384 319.1c-1.598 0-3.236 .2461-4.875 .7734C348.9 330.5 303.1 336 256 336s-92.88-5.5-123.2-15.25C131.2 320.2 129.5 319.1 127.9 319.1c-9.459 0-17.44 8.52-15.79 18.77C121.5 393.8 195.5 432 256 432s134.7-38.25 143.9-93.25C401.4 328.5 393.4 319.1 384 319.1zM256.1 416c-54.07 0-120.4-34.18-128.1-80.02C159.6 346.2 206.2 352 255.9 352c49.74 0 96.45-5.832 128.1-16.01C376.4 381.7 310.2 416 256.1 416zM295.2 227.6C303.7 210.6 319.3 200 336 200s32.33 10.56 40.84 27.59C378.3 230.4 381.1 232 384 232c1.203 0 2.438-.2813 3.578-.8438c3.953-1.969 5.547-6.781 3.578-10.75C379.9 197.1 358.8 184 336 184s-43.91 13.97-55.16 36.41c-1.969 3.969-.375 8.781 3.578 10.75C288.3 233.1 293.2 231.5 295.2 227.6zM256 0C114.6 0 0 114.6 0 256s114.6 256 256 256s256-114.6 256-256S397.4 0 256 0zM256 496c-132.3 0-240-107.7-240-240S123.7 16 256 16s240 107.7 240 240S388.3 496 256 496z"/></svg>