<svg xmlns="http://www.w3.org/2000/svg" viewBox="0 0 512 512"><!--! Font Awesome Pro 6.0.0-alpha3 by @fontawesome - https://fontawesome.com License - https://fontawesome.com/license (Commercial License) --><path d="M320 299.1c0-29.19-67.53-43.25-70.41-43.84C245.4 255.4 241 258.1 240.2 262.4C239.3 266.7 242.1 270.9 246.4 271.8C272.5 277.1 304 290.9 304 299.1s-31.5 22.88-57.59 28.16C242.7 328.9 240 332.2 240 335.1s2.672 7.094 6.406 7.844C272.5 349.1 304 362.9 304 371.1s-31.5 22.88-57.59 28.16c-4.328 .875-7.125 5.094-6.25 9.438c.7813 3.781 4.109 6.406 7.828 6.406c.5313 0 1.078-.0625 1.609-.1562C252.5 415.2 320 401.2 320 371.1c0-17.06-23.05-28.94-42.78-36C296.1 328.9 320 317 320 299.1zM176 192C167.2 192 160 199.1 160 208S167.2 224 176 224S192 216.9 192 208S184.8 192 176 192zM336 192C327.2 192 320 199.1 320 208S327.2 224 336 224S352 216.9 352 208S344.8 192 336 192zM256 0C114.6 0 0 114.6 0 256s114.6 256 256 256s256-114.6 256-256S397.4 0 256 0zM256 496c-132.3 0-240-107.7-240-240S123.7 16 256 16s240 107.7 240 240S388.3 496 256 496z"/></svg>