<svg xmlns="http://www.w3.org/2000/svg" viewBox="0 0 512 512"><!--! Font Awesome Pro 6.0.0-alpha3 by @fontawesome - https://fontawesome.com License - https://fontawesome.com/license (Commercial License) --><path d="M365.1 391.6c18.12-14.77 31.22-33.11 34.74-54.08c1.553-10.25-6.445-18.76-15.83-18.76c-1.598 0-3.236 .2461-4.875 .7734c-30.27 9.742-75.2 15.24-123.2 15.24s-92.88-5.496-123.2-15.24C131.1 319 129.5 318.8 127.9 318.8c-9.459 0-17.44 8.514-15.79 18.76c3.561 20.99 16.69 39.34 34.84 54.13C152.2 395.9 160 392.3 160 385.6c0-2.389-1.123-4.68-2.975-6.193c-15.3-12.52-26.28-27.69-29.13-44.61c31.61 10.17 78.29 16.01 128.1 16.01c49.74 0 96.39-5.826 128-15.1c-2.824 16.86-13.73 32.12-29.01 44.61C353.1 380.9 352 383.2 352 385.6C352 392.3 359.8 395.9 365.1 391.6zM288.7 377c-2.834 0-5.688 .3418-8.477 1.041L256 384.1l-24.22-6.051c-2.791-.6992-5.643-1.041-8.477-1.041c-9.293 0-18.38 3.727-24.27 11.07C194.6 393.6 192 400.5 192 408.1v39.97C192 483.4 220.7 512 256.1 512C291.4 512 320 483.4 320 448.1v-39.97c0-7.568-2.631-14.52-7.029-20C307.1 380.7 297.1 377 288.7 377zM304 448.1c0 26.45-21.53 47.96-48 47.96s-48-21.51-48-47.96v-39.97c0-4.648 1.908-8.002 3.51-9.992c2.6-3.24 6.898-5.094 11.79-5.094c1.545 0 3.09 .1875 4.596 .5664l20.13 5.105c-.002 .0547 0-.0547 0 0L248 430.7c0 4.402 3.578 7.994 8 7.994s8-3.592 8-7.994l-.0293-32.04c0-.0547 .002 .0547 0 0l20.13-5.105c1.502-.3789 3.049-.5664 4.594-.5664c4.895 0 9.193 1.854 11.79 5.094C302.1 400.1 304 403.4 304 408.1V448.1zM352 206.9c0-8.844-7.156-15.99-16-15.99S320 198 320 206.9c0 8.846 7.156 15.99 16 15.99S352 215.7 352 206.9zM192 206.9c0-8.844-7.156-15.99-16-15.99S160 198 160 206.9c0 8.846 7.156 15.99 16 15.99S192 215.7 192 206.9zM256 0C114.8 0 0 114.8 0 256c0 97 53.78 184.5 140.4 228.5c3.938 1.969 8.75 .4375 10.75-3.516s.4375-8.766-3.5-10.77C66.44 429 16 346.9 16 256c0-132.3 107.7-240 240-240s240 107.7 240 240c0 90.94-50.44 173-131.6 214.2c-3.938 2-5.5 6.812-3.5 10.77c1.406 2.781 4.219 4.375 7.125 4.375c1.219 0 2.469-.2813 3.625-.8594C458.2 440.5 512 353 512 256C512 114.8 397.2 0 256 0z"/></svg>