<svg xmlns="http://www.w3.org/2000/svg" viewBox="0 0 512 512"><!--! Font Awesome Pro 6.0.0-alpha3 by @fontawesome - https://fontawesome.com License - https://fontawesome.com/license (Commercial License) --><path d="M336 224C344.8 224 352 216.9 352 208S344.8 192 336 192S320 199.1 320 208S327.2 224 336 224zM176 224C184.8 224 192 216.9 192 208S184.8 192 176 192S160 199.1 160 208S167.2 224 176 224zM352 344H160c-4.406 0-8 3.578-8 8S155.6 360 160 360h192c4.406 0 8-3.578 8-8S356.4 344 352 344zM256 0C114.6 0 0 114.6 0 256s114.6 256 256 256s256-114.6 256-256S397.4 0 256 0zM256 496c-132.3 0-240-107.7-240-240S123.7 16 256 16s240 107.7 240 240S388.3 496 256 496z"/></svg>