<svg xmlns="http://www.w3.org/2000/svg" viewBox="0 0 512 512"><!--! Font Awesome Pro 6.0.0-alpha3 by @fontawesome - https://fontawesome.com License - https://fontawesome.com/license (Commercial License) --><path d="M359.9 324C338.6 361 298.7 384 256 384s-82.56-23-103.9-60c-2.281-3.844-7.219-5.156-10.94-2.922C137.3 323.3 136 328.2 138.2 332C162.4 373.1 207.6 399.1 256 399.1s93.56-26.02 117.8-67.98c2.188-3.828 .9062-8.719-2.938-10.92C367.1 318.8 362.2 320.2 359.9 324zM336 152c-37.17 0-54 62.88-55.8 70.06c-1.062 4.281 1.531 8.625 5.828 9.688c4.156 1.031 8.609-1.562 9.703-5.812C299.5 210.9 315 168 336 168s36.47 42.91 40.23 57.94C377.2 229.6 380.4 232 384 232c.6406 0 1.297-.0938 1.938-.25c4.297-1.062 6.891-5.406 5.828-9.688C389.1 214.9 373.2 152 336 152zM176 168c20.97 0 36.47 42.91 40.23 57.94C217.2 229.6 220.4 232 224 232c.6406 0 1.297-.0938 1.938-.25c4.297-1.062 6.891-5.406 5.828-9.688C229.1 214.9 213.1 152 175.1 152S122 214.9 120.2 222.1C119.2 226.3 121.8 230.7 126.1 231.8c4.188 1.031 8.609-1.562 9.703-5.812C139.5 210.9 155 168 176 168zM256 0C114.6 0 0 114.6 0 256s114.6 256 256 256s256-114.6 256-256S397.4 0 256 0zM256 496c-132.3 0-240-107.7-240-240S123.7 16 256 16s240 107.7 240 240S388.3 496 256 496z"/></svg>