<svg xmlns="http://www.w3.org/2000/svg" viewBox="0 0 576 512"><!--! Font Awesome Pro 6.0.0-alpha3 by @fontawesome - https://fontawesome.com License - https://fontawesome.com/license (Commercial License) --><path d="M120 495.1H39c-12.69 0-23-10.31-23-23.01V120.6c0-46.54 29.09-87.78 70.75-100.3c51.69-15.47 106.3 11.79 124.3 62.24c1.484 4.189 6.047 6.314 10.22 4.846c4.156-1.469 6.328-6.064 4.844-10.22C205.3 18.69 142.1-12.91 82.14 5.002C33.78 19.51 0 67.05 0 120.6v352.4c0 21.51 17.5 39.01 39 39.01H120c4.422 0 8-3.596 8-8.002C128 499.6 124.4 495.1 120 495.1zM408 224h-80c-4.422 0-8 3.594-8 8v80c0 4.406 3.578 8 8 8h80c4.422 0 8-3.594 8-8V232C416 227.6 412.4 224 408 224zM400 304h-64V240h64V304zM571.9 244.2l-53.45-107.2c-3.984-8.031-10.69-14.44-18.86-18.06l-115.9-51.62c-10-4.469-21.48-4.469-31.48 .0313L236.3 119.1C228.1 122.7 221.4 129.2 217.5 137.2L164.1 244.2C161.4 249.5 160 255.5 160 261.5v226.5c0 13.22 10.77 23.1 24 23.1h96c13.23 0 24-10.78 24-23.1V399.1h128v88.03c0 13.22 10.77 23.1 24 23.1h96c13.23 0 24-10.78 24-23.1V261.5C576 255.5 574.6 249.5 571.9 244.2zM560 488c0 4.404-3.594 7.998-8 7.998h-96c-4.406 0-8-3.594-8-7.998V391.1c0-4.406-3.578-8-8-8h-144c-4.422 0-8 3.594-8 8v96.03c0 4.404-3.594 7.998-8 7.998h-96c-4.406 0-8-3.594-8-7.998V261.5c0-3.531 .8281-7.063 2.406-10.22l53.36-107C234.1 139.6 238 135.8 242.8 133.7l115.1-51.75c5.875-2.594 12.61-2.625 18.45-.0313l115.9 51.62c4.766 2.125 8.688 5.875 11.03 10.56l53.45 107.2C559.2 254.5 560 257.1 560 261.5V488z"/></svg>