<svg xmlns="http://www.w3.org/2000/svg" viewBox="0 0 576 512"><!--! Font Awesome Pro 6.0.0-alpha3 by @fontawesome - https://fontawesome.com License - https://fontawesome.com/license (Commercial License) --><path d="M569.6 66.14l-44.8-59.73C521.6 2.14 516.8 0 512 0c-4.801 0-9.6 2.14-12.8 6.407l-44.8 59.73C450.2 71.68 448 78.42 448 85.34V152h-96V85.34c0-6.924-2.246-13.66-6.4-19.2l-44.8-59.73C297.6 2.14 292.8 0 288 0C283.2 0 278.4 2.14 275.2 6.407L230.4 66.14C226.2 71.68 224 78.42 224 85.34V152H128V85.34C128 78.42 125.8 71.68 121.6 66.14L76.8 6.407C73.6 2.14 68.8 0 64 0C59.2 0 54.4 2.14 51.2 6.407L6.4 66.14C2.246 71.68 0 78.42 0 85.34v394.7c0 17.67 14.33 32 32 32h64c17.67 0 32-14.33 32-32V424h96v56.01c0 17.67 14.33 32 32 32h64c17.67 0 32-14.33 32-32V424h96v56.01c0 17.67 14.33 32 32 32h64c17.67 0 32-14.33 32-32V85.34C576 78.42 573.8 71.68 569.6 66.14zM112 480c0 8.822-7.178 16-16 16H32c-8.822 0-16-7.178-16-16V85.34c0-3.439 1.137-6.85 3.199-9.602L63.98 16c.0039-.002-.0176 0 0 0l44.82 59.73C110.9 78.48 112 81.89 112 85.34V480zM224 408H128v-48h96V408zM224 344H128v-112h96V344zM224 216H128v-48h96V216zM336 480c0 8.822-7.178 16-16 16H256c-8.822 0-16-7.178-16-16V85.34c0-3.441 1.137-6.852 3.197-9.602L287.1 16c.002-.002-.0176 0 0 0l44.82 59.73C334.9 78.49 336 81.9 336 85.34V480zM448 408h-96v-48h96V408zM448 344h-96v-112h96V344zM448 216h-96v-48h96V216zM560 480c0 8.822-7.178 16-16 16h-64c-8.822 0-16-7.178-16-16V85.34c0-3.441 1.137-6.852 3.197-9.602l44.79-59.73c.002-.002-.0176 0 0 0l44.82 59.73C558.9 78.49 560 81.9 560 85.34V480z"/></svg>