<svg xmlns="http://www.w3.org/2000/svg" viewBox="0 0 512 512"><!--! Font Awesome Pro 6.0.0-alpha3 by @fontawesome - https://fontawesome.com License - https://fontawesome.com/license (Commercial License) --><path d="M466.5 208.3c-5.586-24.62-15.39-47.61-28.61-68.27c13.8-18.78 13.03-44.94-3.955-61.93c-16.99-16.99-43.14-17.76-61.93-3.955c-20.65-13.22-43.64-23.02-68.27-28.61C302.4 20.18 281.7 0 256 0S209.6 20.18 208.3 45.5c-24.62 5.586-47.61 15.39-68.27 28.61C121.2 60.3 95.05 61.07 78.06 78.06C61.07 95.04 60.3 121.2 74.1 139.1C60.88 160.6 51.08 183.6 45.5 208.3C20.18 209.6 0 230.3 0 256c0 25.84 20.47 46.76 46.05 47.8C51.55 327.9 61.06 350.8 74.34 371.7c-14.08 18.8-13.37 45.19 3.719 62.28C87.43 443.3 99.71 448 112 448c12.28 0 24.57-4.688 33.94-14.06c18.74-18.75 18.74-49.14 0-67.88c-16.36-16.36-41.18-17.56-59.8-5.365c-11.25-18.26-19.25-38.17-24.16-59C79.13 296.4 92.16 282 95.19 264h113.6c2.309 13.64 10.32 25.29 21.56 32.44l-76.43 182.3c-3.125 7.406-2.344 15.84 2.125 22.56S168 512 176.1 512h159.9c8.062 0 15.53-4 20-10.72s5.25-15.16 2.125-22.56l-76.43-182.3C292.9 289.3 300.9 277.6 303.2 264h113.6c3.037 18.01 16.06 32.44 33.22 37.69c-4.914 20.84-12.91 40.74-24.16 59c-18.62-12.2-43.44-10.1-59.8 5.365c-18.74 18.74-18.74 49.14 0 67.88C375.4 443.3 387.7 448 400 448c12.28 0 24.57-4.688 33.94-14.06c17.09-17.09 17.79-43.48 3.719-62.28c13.29-20.89 22.79-43.77 28.29-67.86C491.5 302.8 512 281.8 512 256C512 230.3 491.8 209.6 466.5 208.3zM89.37 377.4C95.42 371.3 103.5 368 112 368s16.58 3.328 22.63 9.371c12.48 12.48 12.48 32.78 .002 45.26C128.6 428.7 120.5 432 112 432s-16.58-3.33-22.63-9.371C76.9 410.2 76.9 389.8 89.37 377.4zM422.6 422.6C416.6 428.7 408.5 432 400 432s-16.58-3.33-22.63-9.371c-12.48-12.48-12.48-32.78-.002-45.26C383.4 371.3 391.5 368 400 368s16.58 3.328 22.63 9.371C435.1 389.8 435.1 410.2 422.6 422.6zM377.4 89.37C383.4 83.33 391.5 80 400 80s16.58 3.328 22.63 9.371c12.48 12.48 12.48 32.78 .002 45.26C416.6 140.7 408.5 144 400 144s-16.58-3.33-22.63-9.371C364.9 122.2 364.9 101.8 377.4 89.37zM256 16c17.64 0 32 14.36 32 32s-14.36 32-32 32s-32-14.36-32-32S238.4 16 256 16zM89.37 89.37C95.42 83.33 103.5 80 112 80s16.58 3.328 22.63 9.371c12.48 12.48 12.48 32.78 .002 45.26C128.6 140.7 120.5 144 112 144S95.42 140.7 89.37 134.6C76.9 122.2 76.9 101.8 89.37 89.37zM48 288c-17.64 0-32-14.36-32-32s14.36-32 32-32s32 14.36 32 32S65.64 288 48 288zM208.8 248H95.19C92.13 229.8 78.89 215.3 61.51 210.2c4.988-21.16 13.34-40.98 24.47-58.96C93.97 156.5 102.8 160 112 160c9.654 0 18.9-3.756 27.14-9.545l77.82 77.82C212.8 234 210 240.7 208.8 248zM150.5 139.1c11.32-16.11 11.55-36.81 .7461-53.16C169.2 74.85 189 66.5 210.2 61.51C215.3 78.89 229.8 92.13 248 95.19v113.6C240.7 210 234 212.8 228.3 216.1L150.5 139.1zM343.3 484.9c1.062 2.5 .8125 5.25-.7187 7.5C341.1 494.7 338.7 496 335.9 496H176.1c-2.719 0-5.156-1.312-6.656-3.594c-1.531-2.25-1.781-5-.7187-7.5l76.43-182.3C248.6 303.5 252.2 304 256 304s7.373-.5371 10.88-1.357L343.3 484.9zM256 288C238.3 288 224 273.7 224 256c0-17.67 14.33-32 32-32s32 14.33 32 32C288 273.7 273.7 288 256 288zM283.7 216.1C277.1 212.8 271.3 210 264 208.8V95.19c18.17-3.064 32.71-16.3 37.84-33.69c21.16 4.988 40.98 13.34 58.96 24.47c-10.81 16.35-10.57 37.05 .7461 53.16L283.7 216.1zM416.8 248h-113.6c-1.23-7.266-4.039-13.96-8.15-19.73l77.82-77.82C381.1 156.2 390.3 160 400 160c9.219 0 18.03-3.52 26.02-8.799c11.13 17.99 19.48 37.8 24.47 58.96C433.1 215.3 419.9 229.8 416.8 248zM464 288c-17.64 0-32-14.36-32-32s14.36-32 32-32s32 14.36 32 32S481.6 288 464 288z"/></svg>