<svg xmlns="http://www.w3.org/2000/svg" viewBox="0 0 512 512"><!--! Font Awesome Pro 6.0.0-alpha3 by @fontawesome - https://fontawesome.com License - https://fontawesome.com/license (Commercial License) --><path d="M432 351.1c-44.2 0-80.05 35.85-80.05 80.02C351.1 476.1 387.9 512 432 512s79.95-35.85 79.95-80.02C511.1 387.8 476.2 351.1 432 351.1zM432.1 496C396.7 496 368 467.3 368 432s28.73-64 64.05-64c35.26 0 63.95 28.71 63.95 64S467.3 496 432.1 496zM497.7 23.08l-26.62-17.72C465.7 1.734 459.5 0 453.5 0c-10.22 0-20.26 4.908-26.44 14.01L166.6 397.4c-13.71 19.56-37.26 22.54-51.37 14.49c-15.5-8.734-20.13-24.29-19.29-35.92c.8224-11.2 4.156-15.14 16.51-32.86c15.17-21.76 9.875-51.68-11.84-66.89C69.1 254.1 40.91 277.1 33.88 288.1L24.09 302.1c-13.81 19.8-22.03 42.98-23.73 66.97c-3.754 52.24 22.19 100.7 67.79 126.5C87.8 506.7 109.5 512 131.2 512c67.54 0 104.7-46.36 114.4-60.25l260.8-383.1C516.5 53.04 512.5 32.95 497.7 23.08zM232.5 442.6C224 454.7 190.8 496 131.2 496c-19.52 0-38.61-4.961-55.21-14.34c-40.13-22.69-63.01-65.37-59.7-111.4c1.496-21.12 8.719-41.5 20.89-58.96l9.809-14.08c10.01-14.41 29.85-18.1 44.41-7.885c14.45 10.12 17.99 30.14 7.891 44.63c-18.83 27.01-18.56 30.25-19.34 40.86c-1.195 16.53 5.375 38.61 27.32 50.97c28.96 16.53 59.94-1.415 72.54-19.4l184.3-271.4l53.2 35.43L232.5 442.6zM493.2 58.78l-66.86 98.43L373.2 121.8l67.09-98.78c2.063-3.036 11.28-11.45 21.99-4.324l26.61 17.72C496.3 41.34 498.2 51.39 493.2 58.78z"/></svg>