<svg xmlns="http://www.w3.org/2000/svg" viewBox="0 0 576 512"><!--! Font Awesome Pro 6.0.0-alpha3 by @fontawesome - https://fontawesome.com License - https://fontawesome.com/license (Commercial License) --><path d="M326.1 56c-102.4 0-179.7 83.41-207.6 118.4L40.27 106.8C32.7 99.69 22.45 98.22 13.5 103.1C3.641 108.4-1.609 119.8 .5008 131.9L27.8 256L.4383 380.4c-2.047 11.69 3.203 23.16 13.09 28.47c8.922 4.906 19.13 3.438 26.38-3.406l78.5-67.91C146.3 372.6 223.7 456 326.1 456C466.7 456 576 296.5 576 256S466.7 56 326.1 56zM326.1 440c-102.3 0-179-90.94-200.1-118.8L120.8 314.4l-91.6 79.19c-3.078 2.938-6.078 2.312-8.063 1.25c-3.172-1.719-5.922-5.969-5-11.31L44.17 256L16.19 128.8C15.2 123.1 17.94 118.9 21.1 117.2c1.969-1.094 4.985-1.75 8.453 1.531l91.35 78.94l5.156-6.844C169.4 133.4 244.7 72 326.1 72c128.8 0 233.9 147.9 233.9 184S454.9 440 326.1 440zM415.1 216C393.9 216 375.1 233.9 375.1 256S393.9 296 415.1 296c22.06 0 40-17.94 40-40S438.1 216 415.1 216zM415.1 280c-13.23 0-24-10.78-24-24s10.77-24 24-24c13.23 0 24 10.78 24 24S429.2 280 415.1 280z"/></svg>