<svg xmlns="http://www.w3.org/2000/svg" viewBox="0 0 448 512"><!--! Font Awesome Pro 6.0.0-alpha3 by @fontawesome - https://fontawesome.com License - https://fontawesome.com/license (Commercial License) --><path d="M368 32h-288C35.88 32.13 .125 67.88 0 112v288c.125 44.13 35.88 79.88 80 80h288c44.13-.125 79.88-35.88 80-80v-288C447.9 67.88 412.1 32.13 368 32zM432 399.1c-.0996 35.21-28.83 63.95-64 64.05H80.04C44.83 463.9 16.1 435.2 16 400V112C16.1 76.83 44.83 48.1 80 48h287.1c35.21 .1016 63.95 28.83 64.04 64V399.1zM128 232C88.3 232 56 199.7 56 160S88.3 88 128 88S200 120.3 200 160c0 4.406 3.578 8 8 8S216 164.4 216 160c0-48.53-39.47-88-88-88S40 111.5 40 160S79.47 248 128 248c4.422 0 8-3.594 8-8S132.4 232 128 232zM276.8 281.1c-3.531-2.656-8.531-1.906-11.2 1.625c-2.641 3.531-1.906 8.562 1.641 11.19C282.8 306.4 296 332.7 296 352.3C296 391.8 263.8 424 223.8 424C184.2 424 152 391.8 152 352.3c0-19.41 13.19-45.75 28.81-57.47C184.3 292.1 185 287.1 182.4 283.6S174.7 279.3 171.2 281.1C151.5 296.8 136 327.7 136 352.3C136 400.6 175.4 440 224.3 440c48.39 0 87.75-39.38 87.75-87.75C312 327.5 296.5 296.7 276.8 281.1zM320 72c-48.53 0-88 39.47-88 88c0 4.406 3.578 8 8 8S248 164.4 248 160c0-39.69 32.3-72 72-72S392 120.3 392 160S359.7 232 320 232c-4.422 0-8 3.594-8 8S315.6 248 320 248c48.53 0 88-39.47 88-88S368.5 72 320 72zM224 360c4.422 0 8-3.594 8-8V259.3l93.66-93.66c3.125-3.125 3.125-8.188 0-11.31s-8.188-3.125-11.31 0L224 244.7L133.7 154.3c-3.125-3.125-8.188-3.125-11.31 0s-3.125 8.188 0 11.31L216 259.3V352C216 356.4 219.6 360 224 360z"/></svg>