<svg xmlns="http://www.w3.org/2000/svg" viewBox="0 0 576 512"><!--! Font Awesome Pro 6.0.0-alpha3 by @fontawesome - https://fontawesome.com License - https://fontawesome.com/license (Commercial License) --><path d="M496 96h-192L249.4 41.38C243.4 35.37 235.2 32 226.7 32H80C53.49 32 32 53.49 32 80v352C32 458.5 53.49 480 80 480h416c26.51 0 48-21.49 48-48v-288C544 117.5 522.5 96 496 96zM528 432c0 17.67-14.33 32-32 32h-416c-17.67 0-32-14.33-32-32v-352c0-17.67 14.33-32 32-32h140.1c8.486 0 16.62 3.371 22.63 9.371L297.4 112H496c17.67 0 32 14.33 32 32V432zM344.1 333.7C359.1 316.1 368 295.6 368 272c0-53.02-42.98-96-96-96s-96 42.98-96 96s42.98 96 96 96c23.62 0 44.96-8.859 61.68-23l68.66 68.66C403.9 415.2 405.9 416 408 416s4.094-.7813 5.656-2.344c3.125-3.125 3.125-8.188 0-11.31L344.1 333.7zM272 352C227.9 352 192 316.1 192 272S227.9 192 272 192S352 227.9 352 272S316.1 352 272 352z"/></svg>