<svg xmlns="http://www.w3.org/2000/svg" viewBox="0 0 448 512"><!--! Font Awesome Pro 6.0.0-alpha3 by @fontawesome - https://fontawesome.com License - https://fontawesome.com/license (Commercial License) --><path d="M434.8 79.68c-4.27-16.37-17.26-29.56-33.67-33.97C391.5 43.1 351.2 32 298.5 32c-63.51 0-145.1 16.44-213.2 84.61c-110.8 110.1-87.53 257.6-72.11 316.1c4.27 16.37 17.19 28.57 33.6 32.98C56.6 468.3 97.46 480 150.8 480c63.3 0 144.3-16.45 211.9-84.2C473.6 284.8 450.3 138 434.8 79.68zM150.8 464c-32.49 0-65.61-4.516-99.88-13.82c-11.2-3.004-19.51-11.06-22.26-21.59C22.23 404.1 14.26 363 16.43 315.7l147.7 147.7C159.7 463.6 155.3 464 150.8 464zM351.4 384.4c-44.96 45.02-100.7 70.92-165.1 77.63L18.08 294.8c5.992-54.51 26.7-114.9 78.54-166.8c44.97-45.03 100.8-71.02 166.1-77.91l167.3 167.3C424.1 271.9 403.4 332.4 351.4 384.4zM283.9 48.62C288.8 48.41 293.5 48 298.5 48c32.42 0 65.22 4.422 98.58 13.44c10.89 2.922 19.42 11.48 22.26 22.39c6.449 24.41 14.42 65.34 12.31 112.5L283.9 48.62zM141.7 258.3c-3.125-3.125-8.188-3.125-11.31 0s-3.125 8.188 0 11.31l80 80C211.9 351.2 213.9 352 216 352s4.094-.7813 5.656-2.344c3.125-3.125 3.125-8.188 0-11.31L141.7 258.3zM226.3 162.3c-3.125 3.125-3.125 8.188 0 11.31l80 80C307.9 255.2 309.9 256 312 256s4.094-.7813 5.656-2.344c3.125-3.125 3.125-8.188 0-11.31l-80-80C234.5 159.2 229.5 159.2 226.3 162.3zM189.7 210.3c-3.125-3.125-8.188-3.125-11.31 0s-3.125 8.188 0 11.31l80 80C259.9 303.2 261.9 304 264 304s4.094-.7813 5.656-2.344c3.125-3.125 3.125-8.188 0-11.31L189.7 210.3z"/></svg>