<svg xmlns="http://www.w3.org/2000/svg" viewBox="0 0 512 512"><!--! Font Awesome Pro 6.0.0-alpha3 by @fontawesome - https://fontawesome.com License - https://fontawesome.com/license (Commercial License) --><path d="M346.3 213.9c3.127 3.127 8.186 3.127 11.31 0l128-128.2c3.123-3.125 3.123-8.188 0-11.31c-3.125-3.125-8.188-3.125-11.31 0l-128 128.2C343.2 205.7 343.2 210.8 346.3 213.9zM298.3 165.9c3.127 3.127 8.186 3.127 11.31 0l128-128.2c3.125-3.125 3.125-8.188 0-11.31s-8.188-3.125-11.31 0l-128 128.2C295.2 157.7 295.2 162.7 298.3 165.9zM508.1 122C504.3 119.8 499.4 121.1 497.1 124.9l-61.51 104.6c-18.38 28.38-48.19 46.72-81.78 50.28c-19.55 2.062-45.88-1.656-62.67-8.844c-3.062-1.344-6.578-.625-8.906 1.781l-210.8 218.9c-6.309 6.609-15.73 4.695-20.14 .2813l-31.17-31.19c-4.844-4.844-6.141-14.05 .3281-20.19L239.6 230.1c2.39-2.312 3.109-5.875 1.812-8.938C234.2 204.3 230.5 177.9 232.6 158.4c3.562-33.65 22.19-63.69 50.81-82.22l104.7-61.28c3.812-2.25 5.094-7.125 2.859-10.94c-2.234-3.844-7.141-5.125-10.95-2.875l-104.1 61.47c-33 21.34-54.26 55.65-58.33 94.15c-2.141 20.38 1.125 46.4 8 65.5l-215.3 206.7C3.518 434.5 .1113 442.3 .002 450.4S3.111 466.3 8.799 472l31.14 31.19C45.55 508.8 53.25 512 61.14 512h.4531c8.031-.125 15.81-3.531 21.36-9.312l207.1-214.1c19.06 6.875 45.03 10 65.44 8.031c38.44-4.125 72.53-25.06 93.72-57.81l61.69-104.9C513.1 129.2 511.9 124.3 508.1 122z"/></svg>