<svg xmlns="http://www.w3.org/2000/svg" viewBox="0 0 576 512"><!--! Font Awesome Pro 6.0.0-alpha3 by @fontawesome - https://fontawesome.com License - https://fontawesome.com/license (Commercial License) --><path d="M403.2 330.1c-1.381-1.373-3.223-2.158-5.168-2.248c-7.246-.3418-11.38 8.33-6.234 13.45l99.69 99.15c5.969 5.738 5.93 14.74 .4219 20.25l-31.18 31.19c-4.594 4.564-13.91 6.219-20.15-.3125l-113.6-117.9c-3.111-3.229-8.279-3.229-11.39-.002c-2.953 3.066-3.244 8.225-.2871 11.29l113.7 117.7C434.6 508.5 442.3 511.9 450.4 512h.4687c7.93 0 15.54-3.15 21.14-8.758l31.21-31.21c5.689-5.656 8.91-13.56 8.801-21.59c-.1094-8.062-3.518-15.84-9.363-21.41L403.2 330.1zM152.8 308.3c4.459-4.279 2.752-12.05-3.229-13.61c-69.43-18.06-102.9-60.49-118.4-97.89C1.471 125 21.79 42.66 42.75 21.72c7.654-7.652 20.1-7.598 27.7 0l164.8 163.9C240.4 190.7 249 186.7 248.6 179.4c-.0039-.0859 .0039 .0859 0 0c-.0996-1.943-.8955-3.908-2.274-5.281L81.75 10.41c-13.88-13.88-36.46-13.88-50.31 0C4.111 37.72-15.33 126.3 16.4 202.9c17.02 41.07 53.47 87.78 128.9 107.4C147.1 310.1 150.8 310.2 152.8 308.3zM410.3 213.9c3.127 3.127 8.186 3.127 11.31 0l128-128.2c3.123-3.125 3.123-8.188 0-11.31c-3.125-3.125-8.188-3.125-11.31 0l-128 128.2C407.2 205.7 407.2 210.8 410.3 213.9zM572.1 122C568.3 119.8 563.4 121.1 561.1 124.9l-61.51 104.6c-18.38 28.38-48.19 46.72-81.78 50.28c-19.55 2.062-45.88-1.656-62.67-8.844c-3.062-1.344-6.578-.625-8.906 1.781l-210.8 218.9c-6.309 6.609-15.73 4.695-20.14 .2813l-31.17-31.19c-4.844-4.844-6.141-14.05 .3281-20.19l219.2-210.4c2.39-2.312 3.109-5.875 1.812-8.938c-7.188-16.81-10.91-43.19-8.859-62.72c3.562-33.65 22.19-63.69 50.81-82.22l104.7-61.28c3.812-2.25 5.094-7.125 2.859-10.94c-2.234-3.844-7.141-5.125-10.95-2.875l-104.1 61.47c-33 21.34-54.26 55.65-58.33 94.15c-2.141 20.38 1.125 46.4 8 65.5l-215.3 206.7C67.52 434.5 64.11 442.3 64 450.4S67.11 466.3 72.8 472l31.14 31.19C109.5 508.8 117.3 512 125.1 512h.5317c8.031-.125 15.73-3.531 21.28-9.312l207.1-214.1c19.06 6.875 45.03 10 65.44 8.031c38.44-4.125 72.53-25.06 93.72-57.81l61.69-104.9C577.1 129.2 575.9 124.3 572.1 122zM362.3 165.9c3.127 3.127 8.186 3.127 11.31 0l128-128.2c3.125-3.125 3.125-8.188 0-11.31s-8.188-3.125-11.31 0l-128 128.2C359.2 157.7 359.2 162.7 362.3 165.9z"/></svg>