<svg xmlns="http://www.w3.org/2000/svg" viewBox="0 0 320 512"><!--! Font Awesome Pro 6.0.0-alpha3 by @fontawesome - https://fontawesome.com License - https://fontawesome.com/license (Commercial License) --><path d="M320 40c0 4.422-3.594 8-8 8h-208C90.78 48 80 58.77 80 72V208h200C284.4 208 288 211.6 288 216S284.4 224 280 224H80v112h136c4.406 0 8 3.578 8 8S220.4 352 216 352H80v120C80 476.4 76.41 480 72 480S64 476.4 64 472V352H8C3.594 352 0 348.4 0 344s3.594-8 8-8H64V72C64 49.94 81.94 32 104 32h208C316.4 32 320 35.58 320 40z"/></svg>