<svg xmlns="http://www.w3.org/2000/svg" viewBox="0 0 640 512"><!--! Font Awesome Pro 6.0.0-alpha3 by @fontawesome - https://fontawesome.com License - https://fontawesome.com/license (Commercial License) --><path d="M638.6 368.2l-33.38-211.6c-8.844-50.25-48.42-90.77-100.7-103.1C454.3 41.62 371.6 32 320 32C268.4 32 185.7 41.62 135.5 53.48C83.16 65.84 43.63 106.3 34.78 156.6l-33.38 211.6c-10.31 58.52 37.41 111.8 100.1 111.8c49.69 0 93.78-30.06 109.5-74.64l7.5-21.36h202.1l7.5 21.36c15.72 44.58 59.81 74.64 109.5 74.64C601.2 479.1 648.9 426.7 638.6 368.2zM605.7 433.4c-16.33 19.46-40.84 30.63-67.24 30.63c-42.98 0-80.92-25.7-94.4-63.94l-11.26-32.06H207.2l-11.25 32.04c-13.49 38.26-51.43 63.96-94.41 63.96c-26.4 0-50.91-11.16-67.24-30.63c-14.97-17.84-21.04-39.99-17.05-62.67L50.54 159.4C58.28 115.4 93.07 79.95 139.2 69.06c49.16-11.61 130.3-21.06 180.8-21.06c50.51 0 131.6 9.446 180.8 21.06l1.15 .2656c45.53 11.2 79.81 46.44 87.44 89.78l33.42 211.9C626.8 393.4 620.7 415.5 605.7 433.4zM256 216h-56v-56c0-4.406-3.594-8-8-8s-8 3.594-8 8v56h-56c-4.406 0-8 3.594-8 8s3.594 8 8 8h56v56c0 4.406 3.594 8 8 8s8-3.594 8-8V232h56c4.406 0 8-3.594 8-8S260.4 216 256 216zM496 135.1c-22.09 0-40 17.91-40 40s17.91 40 40 40s40-17.91 40-40S518.1 135.1 496 135.1zM496 200c-13.23 0-24-10.77-24-24c0-13.23 10.77-24 24-24s24 10.77 24 24C520 189.2 509.2 200 496 200zM432 231.1c-22.09 0-40 17.91-40 40s17.91 40 40 40s40-17.91 40-40S454.1 231.1 432 231.1zM432 296c-13.23 0-24-10.77-24-24s10.77-24 24-24s24 10.77 24 24S445.2 296 432 296z"/></svg>