<svg xmlns="http://www.w3.org/2000/svg" viewBox="0 0 640 512"><!--! Font Awesome Pro 6.0.0-alpha3 by @fontawesome - https://fontawesome.com License - https://fontawesome.com/license (Commercial License) --><path d="M376 415.1h-112c-4.406 0-8 3.594-8 8s3.594 8 8 8h112c4.406 0 8-3.594 8-8S380.4 415.1 376 415.1zM614.4 112.6l-291.5-112.1c-1.875-.6875-3.875-.6875-5.75 0l-291.5 112.1C10.31 118.6 .0003 133.6 .0003 149.1v354c0 4.406 3.594 8 8 8s8-3.594 8-8V149.1c0-9.844 6.188-18.84 15.38-22.38l288.6-111l288.6 111c9.188 3.531 15.38 12.53 15.38 22.38v354c0 4.406 3.594 8 8 8s8-3.594 8-8V149.1C640 133.6 629.7 118.6 614.4 112.6zM520 191.1H120c-13.22 0-24 10.78-24 24v288c0 4.406 3.594 8 8 8s8-3.594 8-8v-168h415.1v168c0 4.406 3.594 8 8 8s8-3.594 8-8V215.1C544 202.8 533.2 191.1 520 191.1zM528 319.1H112V215.1c0-4.406 3.594-8 8-8h399.1c4.406 0 8 3.594 8 8V319.1z"/></svg>