<svg xmlns="http://www.w3.org/2000/svg" viewBox="0 0 640 512"><!--! Font Awesome Pro 6.0.0-alpha3 by @fontawesome - https://fontawesome.com License - https://fontawesome.com/license (Commercial License) --><path d="M614.4 112.6l-291.5-112.1c-1.875-.6875-3.875-.6875-5.75 0l-291.5 112.1C10.31 118.6 .0003 133.6 .0003 149.1v354c0 4.406 3.594 8 8 8s8-3.594 8-8V149.1c0-9.844 6.188-18.84 15.38-22.38l288.6-111l288.6 111c9.188 3.531 15.38 12.53 15.38 22.38v354c0 4.406 3.594 8 8 8s8-3.594 8-8V149.1C640 133.6 629.7 118.6 614.4 112.6zM520 191.1H120c-13.22 0-24 10.78-24 24v288c0 4.406 3.594 8 8 8s8-3.594 8-8v-216h415.1v216c0 4.406 3.594 8 8 8s8-3.594 8-8V215.1C544 202.8 533.2 191.1 520 191.1zM528 271.1H112V215.1c0-4.406 3.594-8 8-8h399.1c4.406 0 8 3.594 8 8V271.1zM451.9 340.4l-6.344-15.47c-1.234-3.004-4.16-4.965-7.406-4.965c-5.695 0-9.566 5.774-7.406 11.04l2.07 5.039c-.2813-.0039-.5391-.082-.8203-.082h-224c-.2813 0-.5391 .0781-.8203 .082l2.07-5.039c2.16-5.27-1.711-11.04-7.406-11.04c-3.246 0-6.172 1.961-7.406 4.965l-6.344 15.47c-16.54 7.574-28.09 24.18-28.09 43.57v104c0 13.25 10.75 24 24 24h16c13.25 0 24-10.75 24-24v-24h192v24c0 13.25 10.75 24 24 24h16c13.25 0 24-10.75 24-24v-104C480 364.6 468.4 348 451.9 340.4zM208 487.1c0 4.41-3.59 8-8 8h-16c-4.41 0-8-3.59-8-8v-24h32V487.1zM464 487.1c0 4.41-3.59 8-8 8h-16c-4.41 0-8-3.59-8-8v-24h32V487.1zM464 447.1h-288v-64c0-17.65 14.36-32 32-32h224c17.64 0 32 14.36 32 32V447.1zM224 383.1c-8.836 0-16 7.164-16 16s7.164 16 16 16s16-7.164 16-16S232.8 383.1 224 383.1zM416 383.1c-8.836 0-16 7.164-16 16s7.164 16 16 16s16-7.164 16-16S424.8 383.1 416 383.1z"/></svg>