<svg xmlns="http://www.w3.org/2000/svg" viewBox="0 0 512 512"><!--! Font Awesome Pro 6.0.0-alpha3 by @fontawesome - https://fontawesome.com License - https://fontawesome.com/license (Commercial License) --><path d="M500.3 112.1l-86.62-86.63c-3.125-3.125-8.188-3.125-11.31 0s-3.125 8.188 0 11.31l29.66 29.66V168c0 22.06 17.94 40 39.1 40h24v184c0 22.06-17.94 40-40 40c-22.06 0-39.1-17.94-39.1-40v-64c0-39.69-32.31-72-72-72h-24l.0002-184c0-39.69-32.31-72-72-72h-144C64.31 0 32 32.31 32 72V496h-24c-4.406 0-8 3.594-8 8s3.594 8 8 8h336c4.406 0 8-3.594 8-8s-3.594-8-8-8h-24v-224h24c30.88 0 56 25.12 56 56v64c0 30.88 25.12 56 55.1 56s56-25.12 56-56V141.3C512 130.7 507.7 120.4 500.3 112.1zM304 496h-256v-64h256V496zM304 416h-256V72c0-30.88 25.13-56 56-56h144c30.88 0 56 25.12 56 56V416zM496 192h-24c-13.22 0-24-10.78-24-24V83.31l40.97 40.97c4.469 4.469 7.031 10.66 7.031 16.97V192zM232 64h-112c-13.22 0-24 10.78-24 24v128c0 4.406 3.594 8 8 8h144c4.406 0 8-3.594 8-8v-128C256 74.78 245.2 64 232 64zM240 208h-128V88c0-4.406 3.594-8 8-8h112c4.406 0 8 3.594 8 8V208z"/></svg>