<svg xmlns="http://www.w3.org/2000/svg" viewBox="0 0 640 512"><!--! Font Awesome Pro 6.0.0-alpha3 by @fontawesome - https://fontawesome.com License - https://fontawesome.com/license (Commercial License) --><path d="M636.1 497.7L12.99 1.73C11.52 .5664 9.774 0 8.024 0C5.672 0 3.336 1.031 1.739 3.012c-2.75 3.469-2.172 8.5 1.281 11.25l623.1 496C628.5 511.4 630.2 512 631.1 512c2.344 0 4.688-1.031 6.266-3.016C641 505.5 640.4 500.5 636.1 497.7zM408 496h-24v-97.19l-16-12.72V416h-256V182.6l-16-12.72V496h-24c-4.406 0-8 3.594-8 8s3.594 8 8 8h336c4.406 0 8-3.594 8-8S412.4 496 408 496zM368 496h-256v-64h256V496zM168 16h144c30.88 0 56 25.12 56 56v130.1l16 12.72V72c0-39.69-32.31-72-72-72h-144C153.5 0 139.1 4.406 128.6 11.86l13.54 10.76C149.9 18.53 158.6 16 168 16zM496 67.31V168c0 22.06 17.94 40 39.1 40h24v146.7l16 12.72V141.3c0-10.53-4.281-20.84-11.72-28.28l-86.62-86.63c-3.125-3.125-8.188-3.125-11.31 0s-3.125 8.188 0 11.31L496 67.31zM512 83.31l40.97 40.97c4.469 4.469 7.031 10.66 7.031 16.97V192h-24c-13.22 0-24-10.78-24-24V83.31z"/></svg>