<svg xmlns="http://www.w3.org/2000/svg" viewBox="0 0 576 512"><!--! Font Awesome Pro 6.0.0-alpha3 by @fontawesome - https://fontawesome.com License - https://fontawesome.com/license (Commercial License) --><path d="M464 352c0 8.836 7.164 16 16 16s16-7.164 16-16c0-8.838-7.164-16-16-16S464 343.2 464 352zM304 128c0-8.838-7.164-16-16-16S272 119.2 272 128c0 8.836 7.164 16 16 16S304 136.8 304 128zM416 192c0 8.836 7.164 16 16 16S448 200.8 448 192c0-8.838-7.164-16-16-16S416 183.2 416 192zM80 352c0 8.836 7.164 16 16 16s16-7.164 16-16c0-8.838-7.164-16-16-16S80 343.2 80 352zM131.3 169.5c-3.562 2.594-4.344 7.609-1.75 11.17l111.8 152.1C216.6 349.3 200 376.7 200 408C200 412.4 203.6 416 208 416s8-3.578 8-8c0-39.7 32.31-72 72-72s72 32.3 72 72c0 4.422 3.594 8 8 8s8-3.578 8-8c0-48.53-39.47-87.1-88-87.1c-11.4 0-22.23 2.344-32.23 6.306L142.5 171.3C139.8 167.7 134.8 166.1 131.3 169.5zM0 320c0 55.09 16.25 109.2 46.94 156.4C48.44 478.6 50.94 480 53.66 480h468.7c2.719 0 5.219-1.375 6.719-3.641C559.8 429.2 576 375.1 576 320c0-158.8-129.2-288-288-288S0 161.2 0 320zM16 320c0-149.1 122-272 272-272s272 122 272 272c0 50.58-14.53 100.3-42.03 144H58.03C30.53 420.3 16 370.6 16 320z"/></svg>