<svg xmlns="http://www.w3.org/2000/svg" viewBox="0 0 576 512"><!--! Font Awesome Pro 6.0.0-alpha3 by @fontawesome - https://fontawesome.com License - https://fontawesome.com/license (Commercial License) --><path d="M295.7 320.8C295.7 320.5 296 320.3 296 320V112c0-4.422-3.594-7.1-8-7.1S280 107.6 280 112V320c0 .3027 .2891 .4805 .3223 .7754C235.4 324.7 200 362.1 200 408C200 412.4 203.6 416 208 416s8-3.578 8-8c0-39.7 32.31-72 72-72s72 32.3 72 72c0 4.422 3.594 8 8 8s8-3.578 8-8C376 362.1 340.6 324.7 295.7 320.8zM96 336c-8.836 0-16 7.162-16 16c0 8.836 7.164 16 16 16s16-7.164 16-16C112 343.2 104.8 336 96 336zM144 176C135.2 176 128 183.2 128 192c0 8.836 7.164 16 16 16S160 200.8 160 192C160 183.2 152.8 176 144 176zM432 176C423.2 176 416 183.2 416 192c0 8.836 7.164 16 16 16S448 200.8 448 192C448 183.2 440.8 176 432 176zM480 336c-8.836 0-16 7.162-16 16c0 8.836 7.164 16 16 16s16-7.164 16-16C496 343.2 488.8 336 480 336zM288 32c-158.8 0-288 129.2-288 288c0 55.09 16.25 109.2 46.94 156.4C48.44 478.6 50.94 480 53.66 480h468.7c2.719 0 5.219-1.375 6.719-3.641C559.8 429.2 576 375.1 576 320C576 161.2 446.8 32 288 32zM517.1 464H58.03C30.53 420.3 16 370.6 16 320c0-149.1 122-272 272-272s272 122 272 272C560 370.6 545.5 420.3 517.1 464z"/></svg>