<svg xmlns="http://www.w3.org/2000/svg" viewBox="0 0 576 512"><!--! Font Awesome Pro 6.0.0-alpha3 by @fontawesome - https://fontawesome.com License - https://fontawesome.com/license (Commercial License) --><path d="M288 320c-31.43 0-58.86 16.69-74.43 41.54L81.5 336.1c-4.344-.7656-8.531 2.016-9.344 6.344c-.8438 4.344 2 8.531 6.344 9.375l127.6 24.54C202.3 386.2 200 396.8 200 408C200 412.4 203.6 416 208 416s8-3.578 8-8c0-39.7 32.31-72 72-72s72 32.3 72 72c0 4.422 3.594 8 8 8s8-3.578 8-8C376 359.5 336.5 320 288 320zM288 32c-158.8 0-288 129.2-288 288c0 55.09 16.25 109.2 46.94 156.4C48.44 478.6 50.94 480 53.66 480h468.7c2.719 0 5.219-1.375 6.719-3.641C559.8 429.2 576 375.1 576 320C576 161.2 446.8 32 288 32zM517.1 464H58.03C30.53 420.3 16 370.6 16 320c0-149.1 122-272 272-272s272 122 272 272C560 370.6 545.5 420.3 517.1 464z"/></svg>