<svg xmlns="http://www.w3.org/2000/svg" viewBox="0 0 576 512"><!--! Font Awesome Pro 6.0.0-alpha3 by @fontawesome - https://fontawesome.com License - https://fontawesome.com/license (Commercial License) --><path d="M512 128h-57.17c15.22-13.2 25.17-33.27 25.17-56c0-39.7-29.78-72-66.37-72c-31 0-54.23 6.344-125.2 120.2c-.3223-.0195-.5684-.0195-.8906 0C216.6 6.344 193.4 0 162.4 0C125.8 0 96 32.3 96 72c0 22.73 9.953 42.8 25.17 56H64C28.65 128 .0001 156.7 .0001 192v256c0 35.35 28.65 64 63.1 64h448c35.35 0 64-28.65 64-64V192C576 156.7 547.3 128 512 128zM413.6 16c27.78 0 50.38 25.12 50.38 56S441.4 128 413.6 128h-111.3C372.2 16 390.5 16 413.6 16zM112 72c0-30.88 22.59-56 50.38-56c23.09 0 41.47 0 111.3 112H162.4C134.6 128 112 102.9 112 72zM560 448c0 26.47-21.53 48-48 48H64c-26.47 0-48-21.53-48-48v-32h544V448zM560 400h-544V320h544V400zM16 304V192c0-26.47 21.53-48 48-48h196.7L186.3 218.3c-3.125 3.125-3.125 8.188 0 11.31C187.9 231.2 189.1 232 192 232s4.094-.7813 5.656-2.344L283.3 144h9.375l85.66 85.66C379.9 231.2 381.1 232 384 232s4.094-.7813 5.656-2.344c3.125-3.125 3.125-8.188 0-11.31L315.3 144h196.7c26.47 0 48 21.53 48 48v112H16z"/></svg>