<svg xmlns="http://www.w3.org/2000/svg" viewBox="0 0 640 512"><!--! Font Awesome Pro 6.0.0-alpha3 by @fontawesome - https://fontawesome.com License - https://fontawesome.com/license (Commercial License) --><path d="M576 223.1h-15.71c9.668-10.18 15.71-24.33 15.71-40c0-30.88-23.32-56-51.98-56c-25.97 0-43.69 8.688-92.02 85.92c-48.33-77.23-66.05-85.92-92.02-85.92c-28.66 0-51.98 25.12-51.98 56c0 15.68 6.047 29.83 15.71 40H288c-35.35 0-64 28.66-64 64.01v160C224 483.3 252.7 512 288 512h288c35.35 0 64-28.65 64-64V287.1C640 252.6 611.3 223.1 576 223.1zM339.1 143.1c16.5 0 29.62 0 79.49 80h-79.49c-19.84 0-35.98-17.95-35.98-40S320.1 143.1 339.1 143.1zM424 495.1h-136c-26.47 0-48-21.53-48-48v-72h184V495.1zM424 359.1h-184v-72c0-26.47 21.53-48 48-48h136V359.1zM524 143.1c19.84 0 35.98 17.95 35.98 40s-16.14 40-35.98 40h-79.49C494.4 143.1 507.5 143.1 524 143.1zM624 447.1c0 26.47-21.53 48-48 48h-135.1v-120h183.1V447.1zM624 359.1h-183.1V239.1h135.1c26.47 0 48 21.53 48 48V359.1zM184 495.1h-136c-17.67 0-32-14.33-32-32V143.1c0-17.67 14.33-32 32-32h200c4.418 0 8-3.582 8-8s-3.582-8-8-8H181.6l70.45-41.1C255.8 52.66 257.1 47.76 254.9 43.94C252.7 40.07 247.7 38.82 243.1 41.07L159.9 90.13l39.3-78.6C201.1 7.597 199.5 2.784 195.6 .8156C191.6-1.06 186.8 .4406 184.8 4.41l-40.84 81.69l-40.84-81.69C101.2 .4406 96.41-1.091 92.42 .8156C88.47 2.784 86.88 7.597 88.84 11.53L128.1 90.13L44.03 41.07C40.22 38.82 35.31 40.07 33.09 43.94C30.86 47.76 32.16 52.66 35.97 54.88l70.45 41.1H48c-26.51 0-48 21.49-48 48V463.1c0 26.51 21.49 48 48 48h136c4.418 0 8-3.582 8-8S188.4 495.1 184 495.1z"/></svg>