<svg xmlns="http://www.w3.org/2000/svg" viewBox="0 0 512 512"><!--! Font Awesome Pro 6.0.0-alpha3 by @fontawesome - https://fontawesome.com License - https://fontawesome.com/license (Commercial License) --><path d="M480 128h-57.17C438 114.8 448 94.73 448 72C448 32.3 418.2 0 381.6 0C350.6 0 327.3 6.326 256 120.9C184.7 6.326 161.4 0 130.4 0C93.78 0 64 32.3 64 72C64 94.73 73.95 114.8 89.17 128H32c-17.67 0-32 14.33-32 32v64c0 17.67 14.33 31.97 31.1 31.97L32 448c0 35.35 28.65 64 64 64h320c35.35 0 64-28.65 64-64l.0001-192c17.67 0 32-14.29 32-31.97V160C512 142.3 497.7 128 480 128zM381.6 16C409.4 16 432 41.13 432 72S409.4 128 381.6 128h-111.3C340.2 16 358.5 16 381.6 16zM80 72c0-30.88 22.59-56 50.38-56c23.09 0 41.47 0 111.3 112H130.4C102.6 128 80 102.9 80 72zM16 224V160c0-8.822 7.176-16 16-16h216v96H32C23.18 240 16 232.8 16 224zM96 496c-26.47 0-48-21.53-48-48V256h200v240H96zM464 448c0 26.47-21.53 48-48 48h-152V256h200V448zM496 224c0 8.822-7.176 16-16 16h-216v-96H480c8.824 0 16 7.178 16 16V224z"/></svg>