<svg xmlns="http://www.w3.org/2000/svg" viewBox="0 0 384 512"><!--! Font Awesome Pro 6.0.0-alpha3 by @fontawesome - https://fontawesome.com License - https://fontawesome.com/license (Commercial License) --><path d="M344.4 40.86C339.1 35.17 331.7 32 323.1 32H60.04C52.27 32 44.95 35.17 39.59 40.86c-5.25 5.578-7.982 13.12-7.545 20.89l27.99 392C61.02 468.5 73.27 480 88.03 480h207.9c14.76 0 27.01-11.48 27.99-26.25l27.99-392C352.4 53.98 349.7 46.44 344.4 40.86zM307.1 452.7C307.6 459 302.3 464 295.1 464H88.03c-6.322 0-11.61-4.969-12.03-11.39L48.02 60.85C47.83 57.49 49 54.2 51.23 51.83C53.56 49.36 56.69 48 60.04 48h263.9c3.348 0 6.475 1.359 8.797 3.824c2.236 2.379 3.41 5.668 3.236 8.785L307.1 452.7z"/></svg>