<svg xmlns="http://www.w3.org/2000/svg" viewBox="0 0 448 512"><!--! Font Awesome Pro 6.0.0-alpha3 by @fontawesome - https://fontawesome.com License - https://fontawesome.com/license (Commercial License) --><path d="M376 496h-144v-81.33C344.3 402.6 432 307.4 432 192c0-60.36-24.95-118.2-68.35-160.3l18-18C383.2 12.09 384 10.05 384 8c0-4.263-3.433-8-8-8c-2.047 0-4.094 .7813-5.656 2.344l-64.25 64.25C277.2 44 242.8 32 208 32c-43.7 0-159.6 34.59-159.6 159c0 35.01 11.48 70.08 34.29 99.16C82.59 290.3 82.44 290.3 82.34 290.3l-64 64C16.78 355.9 16 357.1 16 360c0 4.263 3.433 8 8 8c2.047 0 4.094-.7813 5.656-2.344l18.01-18.01C89.81 391 147.7 416 208 416c2.701 0 5.322-.3086 8-.4062V496h-144c-4.422 0-8 3.594-8 8s3.578 8 8 8h304c4.422 0 8-3.594 8-8S380.4 496 376 496zM64.09 192c0-79.25 63.99-144 143.9-144c79.88 0 143.9 64.71 143.9 144c0 79.25-63.99 144-143.9 144C128.1 336 64.09 271.3 64.09 192zM58.95 336.4l33.82-33.82C104.1 314.3 142.2 351.1 208 351.1c85.27 0 160-68.65 160-159.1c0-65.77-37.72-103.9-49.47-115.2l33.81-33.81c40.42 39.16 63.58 93.08 63.58 149.2c0 114.7-93.25 207.9-207.9 207.9C151.9 400 98.12 376.8 58.95 336.4z"/></svg>