<svg xmlns="http://www.w3.org/2000/svg" viewBox="0 0 512 512"><!--! Font Awesome Pro 6.0.0-alpha3 by @fontawesome - https://fontawesome.com License - https://fontawesome.com/license (Commercial License) --><path d="M499.3 10.42l-14.11-7.566C481.6 .9186 477.7 0 473.9 0c-8.564 0-16.85 4.594-21.18 12.67l-193.8 385L41.19 332.4c-3.105-.9297-6.215-1.371-9.254-1.371c-17.06 0-31.94 13.82-31.94 32.02v116.1c0 17.67 14.33 31.1 32 31.1h222.3c12.11 0 23.18-6.836 28.61-17.66l226.3-451.4C515.4 31.22 511 16.68 499.3 10.42zM494.8 35.73L268.6 487.2C265.8 492.6 260.4 496 254.3 496H32c-8.822 0-16-7.18-16-16v-24h48c4.422 0 8-3.594 8-8s-3.578-8-8-8H16v-32h48c4.422 0 8-3.594 8-8s-3.578-8-8-8H16v-28.99c0-4.34 1.693-8.391 4.768-11.4c2.998-2.934 7.07-4.617 11.17-4.617c1.551 0 3.119 .2344 4.658 .6953l230.6 69.18l199.6-396.6C468.5 17.11 471.6 16 473.9 16c1.312 0 2.576 .3203 3.756 .9531l14.11 7.566C495.7 26.6 497.1 31.46 494.8 35.73z"/></svg>