<svg xmlns="http://www.w3.org/2000/svg" viewBox="0 0 512 512"><!--! Font Awesome Pro 6.0.0-alpha3 by @fontawesome - https://fontawesome.com License - https://fontawesome.com/license (Commercial License) --><path d="M320 432v72c0 4.418-3.582 8-8 8s-8-3.582-8-8l-.0002-72c0-8.837-7.163-16-16-16h-64c-8.837 0-16 7.163-16 16l.0002 72c0 4.418-3.582 8-8 8s-8-3.582-8-8V432c0-17.67 14.33-32 32-32h64C305.7 400 320 414.3 320 432zM16 504c0 4.418-3.582 8-7.1 8s-8-3.582-8-8V384c0-17.67 14.33-32 31.1-32l.0002-96c0-17.67 14.33-32 31.1-32V144c0-17.67 14.33-32 32-32V8c0-4.406 3.578-8 8-8s8 3.594 8 8v28.91C116.8 34.07 122 32 128 32h63.1l.0002-24c0-4.406 3.578-8 8-8s8 3.594 8 8V32h96V8c0-4.406 3.578-8 8-8s8 3.594 8 8L320 32h64c5.957 0 11.22 2.07 16 4.906V8c0-4.406 3.578-8 8-8s8 3.594 8 8V112c17.67 0 31.1 14.33 31.1 32V224c17.67 0 32 14.33 32 32l-.0002 96c17.67 0 32 14.33 32 32v120c0 4.418-3.582 8-7.1 8s-8-3.582-8-8V384c0-8.837-7.163-16-16-16h-63.1v136c0 4.418-3.582 8-8 8s-8-3.582-8-8V368h-288v136c0 4.418-3.582 8-8 8s-8-3.582-8-8V368H32c-8.837 0-16 7.163-16 16V504zM288 304c0-8.824-7.178-16-16-16h-32c-8.822 0-16 7.176-16 16L224 352h64L288 304zM384 240h-240V352h64.06L208 304c0-17.67 14.33-32 31.1-32h32c17.67 0 32 14.33 32 32L304 352h79.1L384 240zM288 192v32h48V128h-160v96h48V192c0-17.67 14.33-32 32-32S288 174.3 288 192zM256 176c-8.822 0-16 7.176-16 16L240 224h32l.0002-32C272 183.2 264.8 176 256 176zM400 240V352h63.1V256c0-8.824-7.178-16-16-16H400zM352 128l-.0001 96h80V144c0-8.824-7.178-16-16-16H352zM112 112h288V64c0-8.824-7.178-16-16-16h-256c-8.822 0-16 7.176-16 16V112zM80 224h79.1l.0001-96H96C87.18 128 80 135.2 80 144V224zM48 352h79.1l.0002-112h-64c-8.822 0-16 7.176-16 16V352z"/></svg>