<svg xmlns="http://www.w3.org/2000/svg" viewBox="0 0 512 512"><!--! Font Awesome Pro 6.0.0-alpha3 by @fontawesome - https://fontawesome.com License - https://fontawesome.com/license (Commercial License) --><path d="M176 288h-128C21.49 288 0 309.5 0 336v128C0 490.5 21.49 512 48 512h128C202.5 512 224 490.5 224 464v-128C224 309.5 202.5 288 176 288zM208 464c0 17.64-14.36 32-32 32h-128c-17.64 0-32-14.36-32-32v-128c0-17.64 14.36-32 32-32h128c17.64 0 32 14.36 32 32V464zM464 0h-128C309.5 0 288 21.49 288 48v128C288 202.5 309.5 224 336 224h128C490.5 224 512 202.5 512 176v-128C512 21.49 490.5 0 464 0zM496 176c0 17.64-14.36 32-32 32h-128c-17.64 0-32-14.36-32-32v-128c0-17.64 14.36-32 32-32h128c17.64 0 32 14.36 32 32V176zM176 0h-128C21.49 0 0 21.49 0 48v128C0 202.5 21.49 224 48 224h128C202.5 224 224 202.5 224 176v-128C224 21.49 202.5 0 176 0zM208 176c0 17.64-14.36 32-32 32h-128c-17.64 0-32-14.36-32-32v-128c0-17.64 14.36-32 32-32h128c17.64 0 32 14.36 32 32V176zM504 392h-96v-96C408 291.6 404.4 288 400 288s-8 3.578-8 8v96h-96c-4.406 0-8 3.578-8 8s3.594 8 8 8h96v96c0 4.422 3.594 8 8 8s8-3.578 8-8v-96h96c4.406 0 8-3.578 8-8S508.4 392 504 392z"/></svg>