<svg xmlns="http://www.w3.org/2000/svg" viewBox="0 0 640 512"><!--! Font Awesome Pro 6.0.0-alpha3 by @fontawesome - https://fontawesome.com License - https://fontawesome.com/license (Commercial License) --><path d="M144 288h-96c-17.67 0-32 14.33-32 32v96c0 17.67 14.33 32 32 32h96c17.67 0 32-14.33 32-32v-96C176 302.3 161.7 288 144 288zM160 416c0 8.822-7.178 16-16 16h-96C39.18 432 32 424.8 32 416v-96c0-8.822 7.178-16 16-16h96C152.8 304 160 311.2 160 320V416zM368 288h-96c-17.67 0-32 14.33-32 32v96c0 17.67 14.33 32 32 32h96c17.67 0 32-14.33 32-32v-96C400 302.3 385.7 288 368 288zM384 416c0 8.822-7.178 16-16 16h-96C263.2 432 256 424.8 256 416v-96c0-8.822 7.178-16 16-16h96c8.822 0 16 7.178 16 16V416zM592 288h-96c-17.67 0-32 14.33-32 32v96c0 17.67 14.33 32 32 32h96c17.67 0 32-14.33 32-32v-96C624 302.3 609.7 288 592 288zM608 416c0 8.822-7.178 16-16 16h-96c-8.822 0-16-7.178-16-16v-96c0-8.822 7.178-16 16-16h96c8.822 0 16 7.178 16 16V416zM144 64h-96c-17.67 0-32 14.33-32 32v96c0 17.67 14.33 32 32 32h96c17.67 0 32-14.33 32-32V96C176 78.33 161.7 64 144 64zM160 192c0 8.822-7.178 16-16 16h-96C39.18 208 32 200.8 32 192V96c0-8.822 7.178-16 16-16h96C152.8 80 160 87.18 160 96V192zM368 64h-96c-17.67 0-32 14.33-32 32v96c0 17.67 14.33 32 32 32h96c17.67 0 32-14.33 32-32V96C400 78.33 385.7 64 368 64zM384 192c0 8.822-7.178 16-16 16h-96C263.2 208 256 200.8 256 192V96c0-8.822 7.178-16 16-16h96C376.8 80 384 87.18 384 96V192zM592 64h-96c-17.67 0-32 14.33-32 32v96c0 17.67 14.33 32 32 32h96c17.67 0 32-14.33 32-32V96C624 78.33 609.7 64 592 64zM608 192c0 8.822-7.178 16-16 16h-96C487.2 208 480 200.8 480 192V96c0-8.822 7.178-16 16-16h96C600.8 80 608 87.18 608 96V192z"/></svg>