<svg xmlns="http://www.w3.org/2000/svg" viewBox="0 0 512 512"><!--! Font Awesome Pro 6.0.0-alpha3 by @fontawesome - https://fontawesome.com License - https://fontawesome.com/license (Commercial License) --><path d="M80 138.7h-64c-8.836 0-16 7.164-16 16v64c0 8.838 7.164 16 16 16h64c8.836 0 16-7.162 16-16v-64C96 145.8 88.84 138.7 80 138.7zM80 218.7h-64v-64h64V218.7zM357.3 277.3h-64c-8.838 0-16 7.162-16 16v64c0 8.836 7.162 16 16 16h64c8.836 0 16-7.164 16-16v-64C373.3 284.5 366.2 277.3 357.3 277.3zM357.3 357.3h-64v-64h64V357.3zM80 277.3h-64c-8.836 0-16 7.162-16 16v64c0 8.836 7.164 16 16 16h64c8.836 0 16-7.164 16-16v-64C96 284.5 88.84 277.3 80 277.3zM80 357.3h-64v-64h64V357.3zM496 138.7h-64c-8.836 0-16 7.164-16 16v64c0 8.838 7.164 16 16 16h64c8.836 0 16-7.162 16-16v-64C512 145.8 504.8 138.7 496 138.7zM496 218.7h-64v-64h64V218.7zM218.7 0h-64c-8.836 0-16 7.164-16 16v64c0 8.836 7.164 16 16 16h64c8.838 0 16-7.164 16-16v-64C234.7 7.164 227.5 0 218.7 0zM218.7 80h-64v-64h64V80zM496 0h-64C423.2 0 416 7.164 416 16v64C416 88.84 423.2 96 432 96h64C504.8 96 512 88.84 512 80v-64C512 7.164 504.8 0 496 0zM496 80h-64v-64h64V80zM80 0h-64C7.164 0 0 7.164 0 16v64C0 88.84 7.164 96 16 96h64C88.84 96 96 88.84 96 80v-64C96 7.164 88.84 0 80 0zM80 80h-64v-64h64V80zM80 416h-64C7.164 416 0 423.2 0 432v64C0 504.8 7.164 512 16 512h64C88.84 512 96 504.8 96 496v-64C96 423.2 88.84 416 80 416zM80 496h-64v-64h64V496zM357.3 138.7h-64c-8.838 0-16 7.164-16 16v64c0 8.838 7.162 16 16 16h64c8.836 0 16-7.162 16-16v-64C373.3 145.8 366.2 138.7 357.3 138.7zM357.3 218.7h-64v-64h64V218.7zM357.3 416h-64c-8.838 0-16 7.164-16 16v64c0 8.836 7.162 16 16 16h64c8.836 0 16-7.164 16-16v-64C373.3 423.2 366.2 416 357.3 416zM357.3 496h-64v-64h64V496zM218.7 138.7h-64c-8.836 0-16 7.164-16 16v64c0 8.838 7.164 16 16 16h64c8.838 0 16-7.162 16-16v-64C234.7 145.8 227.5 138.7 218.7 138.7zM218.7 218.7h-64v-64h64V218.7zM496 416h-64c-8.836 0-16 7.164-16 16v64c0 8.836 7.164 16 16 16h64c8.836 0 16-7.164 16-16v-64C512 423.2 504.8 416 496 416zM496 496h-64v-64h64V496zM218.7 416h-64c-8.836 0-16 7.164-16 16v64c0 8.836 7.164 16 16 16h64c8.838 0 16-7.164 16-16v-64C234.7 423.2 227.5 416 218.7 416zM218.7 496h-64v-64h64V496zM357.3 0h-64c-8.838 0-16 7.164-16 16v64c0 8.836 7.162 16 16 16h64c8.836 0 16-7.164 16-16v-64C373.3 7.164 366.2 0 357.3 0zM357.3 80h-64v-64h64V80zM218.7 277.3h-64c-8.836 0-16 7.162-16 16v64c0 8.836 7.164 16 16 16h64c8.838 0 16-7.164 16-16v-64C234.7 284.5 227.5 277.3 218.7 277.3zM218.7 357.3h-64v-64h64V357.3zM496 277.3h-64c-8.836 0-16 7.162-16 16v64c0 8.836 7.164 16 16 16h64c8.836 0 16-7.164 16-16v-64C512 284.5 504.8 277.3 496 277.3zM496 357.3h-64v-64h64V357.3z"/></svg>