<svg xmlns="http://www.w3.org/2000/svg" viewBox="0 0 512 512"><!--! Font Awesome Pro 6.0.0-alpha3 by @fontawesome - https://fontawesome.com License - https://fontawesome.com/license (Commercial License) --><path d="M480 0h-64c-17.67 0-32 14.33-32 32v64c0 17.67 14.33 32 32 32h64c17.67 0 32-14.33 32-32V32C512 14.33 497.7 0 480 0zM496 96c0 8.822-7.178 16-16 16h-64c-8.822 0-16-7.178-16-16V32c0-8.822 7.178-16 16-16h64c8.822 0 16 7.178 16 16V96zM96 192H32C14.33 192 0 206.3 0 224v64c0 17.67 14.33 32 32 32h64c17.67 0 32-14.33 32-32V224C128 206.3 113.7 192 96 192zM112 288c0 8.822-7.178 16-16 16H32C23.18 304 16 296.8 16 288V224c0-8.822 7.178-16 16-16h64c8.822 0 16 7.178 16 16V288zM288 0H224C206.3 0 192 14.33 192 32v64c0 17.67 14.33 32 32 32h64c17.67 0 32-14.33 32-32V32C320 14.33 305.7 0 288 0zM304 96c0 8.822-7.178 16-16 16H224C215.2 112 208 104.8 208 96V32c0-8.822 7.178-16 16-16h64c8.822 0 16 7.178 16 16V96zM96 384H32c-17.67 0-32 14.33-32 32v64c0 17.67 14.33 32 32 32h64c17.67 0 32-14.33 32-32v-64C128 398.3 113.7 384 96 384zM112 480c0 8.822-7.178 16-16 16H32c-8.822 0-16-7.178-16-16v-64c0-8.822 7.178-16 16-16h64c8.822 0 16 7.178 16 16V480zM480 384h-64c-17.67 0-32 14.33-32 32v64c0 17.67 14.33 32 32 32h64c17.67 0 32-14.33 32-32v-64C512 398.3 497.7 384 480 384zM496 480c0 8.822-7.178 16-16 16h-64c-8.822 0-16-7.178-16-16v-64c0-8.822 7.178-16 16-16h64c8.822 0 16 7.178 16 16V480zM288 192H224C206.3 192 192 206.3 192 224v64c0 17.67 14.33 32 32 32h64c17.67 0 32-14.33 32-32V224C320 206.3 305.7 192 288 192zM304 288c0 8.822-7.178 16-16 16H224C215.2 304 208 296.8 208 288V224c0-8.822 7.178-16 16-16h64c8.822 0 16 7.178 16 16V288zM288 384H224c-17.67 0-32 14.33-32 32v64c0 17.67 14.33 32 32 32h64c17.67 0 32-14.33 32-32v-64C320 398.3 305.7 384 288 384zM304 480c0 8.822-7.178 16-16 16H224c-8.822 0-16-7.178-16-16v-64c0-8.822 7.178-16 16-16h64c8.822 0 16 7.178 16 16V480zM480 192h-64c-17.67 0-32 14.33-32 32v64c0 17.67 14.33 32 32 32h64c17.67 0 32-14.33 32-32V224C512 206.3 497.7 192 480 192zM496 288c0 8.822-7.178 16-16 16h-64c-8.822 0-16-7.178-16-16V224c0-8.822 7.178-16 16-16h64c8.822 0 16 7.178 16 16V288zM96 0H32C14.33 0 0 14.33 0 32v64c0 17.67 14.33 32 32 32h64c17.67 0 32-14.33 32-32V32C128 14.33 113.7 0 96 0zM112 96c0 8.822-7.178 16-16 16H32C23.18 112 16 104.8 16 96V32c0-8.822 7.178-16 16-16h64c8.822 0 16 7.178 16 16V96z"/></svg>