<svg xmlns="http://www.w3.org/2000/svg" viewBox="0 0 512 512"><!--! Font Awesome Pro 6.0.0-alpha3 by @fontawesome - https://fontawesome.com License - https://fontawesome.com/license (Commercial License) --><path d="M176 288h-128C21.49 288 0 309.5 0 336v128C0 490.5 21.49 512 48 512h128C202.5 512 224 490.5 224 464v-128C224 309.5 202.5 288 176 288zM208 464c0 17.64-14.36 32-32 32h-128c-17.64 0-32-14.36-32-32v-128c0-17.64 14.36-32 32-32h128c17.64 0 32 14.36 32 32V464zM176 0h-128C21.49 0 0 21.49 0 48v128C0 202.5 21.49 224 48 224h128C202.5 224 224 202.5 224 176v-128C224 21.49 202.5 0 176 0zM208 176c0 17.64-14.36 32-32 32h-128c-17.64 0-32-14.36-32-32v-128c0-17.64 14.36-32 32-32h128c17.64 0 32 14.36 32 32V176zM464 0h-128C309.5 0 288 21.49 288 48v128C288 202.5 309.5 224 336 224h128C490.5 224 512 202.5 512 176v-128C512 21.49 490.5 0 464 0zM496 176c0 17.64-14.36 32-32 32h-128c-17.64 0-32-14.36-32-32v-128c0-17.64 14.36-32 32-32h128c17.64 0 32 14.36 32 32V176zM464 288h-128C309.5 288 288 309.5 288 336v128c0 26.51 21.49 48 48 48h128c26.51 0 48-21.49 48-48v-128C512 309.5 490.5 288 464 288zM496 464c0 17.64-14.36 32-32 32h-128c-17.64 0-32-14.36-32-32v-128c0-17.64 14.36-32 32-32h128c17.64 0 32 14.36 32 32V464z"/></svg>