<svg xmlns="http://www.w3.org/2000/svg" viewBox="0 0 448 512"><!--! Font Awesome Pro 6.0.0-alpha3 by @fontawesome - https://fontawesome.com License - https://fontawesome.com/license (Commercial License) --><path d="M448 192V128c0-17.67-14.33-32-32-32h-64c-17.67 0-32 14.33-32 32v64c0 17.67 14.33 32 32 32h64C433.7 224 448 209.7 448 192zM352 208c-8.824 0-16-7.178-16-16V128c0-8.822 7.176-16 16-16h63.1c8.824 0 16 7.178 16 16v64c0 8.822-7.176 16-16 16H352zM448 384v-64c0-17.67-14.33-32-32-32h-64c-17.67 0-32 14.33-32 32v64c0 17.67 14.33 32 32 32h64C433.7 416 448 401.7 448 384zM352 400c-8.824 0-16-7.178-16-16v-64c0-8.822 7.176-16 16-16h63.1c8.824 0 16 7.178 16 16v64c0 8.822-7.176 16-16 16H352zM288 384v-64c0-17.67-14.33-32-32-32h-64c-17.67 0-32 14.33-32 32v64c0 17.67 14.33 32 32 32h64C273.7 416 288 401.7 288 384zM192 400c-8.824 0-16-7.178-16-16v-64c0-8.822 7.176-16 16-16h64c8.824 0 16 7.178 16 16v64c0 8.822-7.176 16-16 16H192zM288 192V128c0-17.67-14.33-32-32-32h-64c-17.67 0-32 14.33-32 32v64c0 17.67 14.33 32 32 32h64C273.7 224 288 209.7 288 192zM192 208c-8.824 0-16-7.178-16-16V128c0-8.822 7.176-16 16-16h64c8.824 0 16 7.178 16 16v64c0 8.822-7.176 16-16 16H192zM128 384v-64c0-17.67-14.33-32-32-32h-64C14.33 288 .0001 302.3 .0001 320v64c0 17.67 14.33 32 32 32h64C113.7 416 128 401.7 128 384zM32 400c-8.824 0-16-7.178-16-16v-64c0-8.822 7.176-16 16-16h64c8.824 0 16 7.178 16 16v64c0 8.822-7.176 16-16 16H32zM128 192V128c0-17.67-14.33-32-32-32h-64C14.33 96 .0001 110.3 .0001 128v64c0 17.67 14.33 32 32 32h64C113.7 224 128 209.7 128 192zM32 208C23.18 208 16 200.8 16 192V128c0-8.822 7.176-16 16-16h64c8.824 0 16 7.178 16 16v64c0 8.822-7.176 16-16 16H32z"/></svg>