<svg xmlns="http://www.w3.org/2000/svg" viewBox="0 0 320 512"><!--! Font Awesome Pro 6.0.0-alpha3 by @fontawesome - https://fontawesome.com License - https://fontawesome.com/license (Commercial License) --><path d="M96 32H32c-17.67 0-32 14.33-32 32v64c0 17.67 14.33 32 32 32h64c17.67 0 32-14.33 32-32V64C128 46.33 113.7 32 96 32zM112 128c0 8.824-7.178 16-16 16H32C23.18 144 16 136.8 16 128V64c0-8.824 7.178-16 16-16h64c8.822 0 16 7.176 16 16V128zM288 32h-64c-17.67 0-32 14.33-32 32v64c0 17.67 14.33 32 32 32h64c17.67 0 32-14.33 32-32V64C320 46.33 305.7 32 288 32zM304 128c0 8.824-7.178 16-16 16h-64c-8.822 0-16-7.176-16-16V64c0-8.824 7.178-16 16-16h64c8.822 0 16 7.176 16 16V128zM288 192h-64c-17.67 0-32 14.33-32 32v64c0 17.67 14.33 32 32 32h64c17.67 0 32-14.33 32-32V224C320 206.3 305.7 192 288 192zM304 288c0 8.824-7.178 16-16 16h-64c-8.822 0-16-7.176-16-16V224c0-8.824 7.178-16 16-16h64c8.822 0 16 7.176 16 16V288zM96 192H32c-17.67 0-32 14.33-32 32v64c0 17.67 14.33 32 32 32h64c17.67 0 32-14.33 32-32V224C128 206.3 113.7 192 96 192zM112 288c0 8.824-7.178 16-16 16H32C23.18 304 16 296.8 16 288V224c0-8.824 7.178-16 16-16h64c8.822 0 16 7.176 16 16V288zM288 352h-64c-17.67 0-32 14.33-32 32v64c0 17.67 14.33 32 32 32h64c17.67 0 32-14.33 32-32v-64C320 366.3 305.7 352 288 352zM304 448c0 8.824-7.178 16-16 16h-64c-8.822 0-16-7.176-16-16v-64c0-8.824 7.178-16 16-16h64c8.822 0 16 7.176 16 16V448zM96 352H32c-17.67 0-32 14.33-32 32v64c0 17.67 14.33 32 32 32h64c17.67 0 32-14.33 32-32v-64C128 366.3 113.7 352 96 352zM112 448c0 8.824-7.178 16-16 16H32c-8.822 0-16-7.176-16-16v-64c0-8.824 7.178-16 16-16h64c8.822 0 16 7.176 16 16V448z"/></svg>