<svg xmlns="http://www.w3.org/2000/svg" viewBox="0 0 384 512"><!--! Font Awesome Pro 6.0.0-alpha3 by @fontawesome - https://fontawesome.com License - https://fontawesome.com/license (Commercial License) --><path d="M344 240h-143.7V80.23c42.94-1.877 85.51 11.1 118.9 39.3c3.432 2.766 8.455 2.297 11.23-1.141c2.808-3.422 2.253-8.469-1.148-11.27c-36.29-29.63-82.42-44.74-129-42.92V8c0-4.422-3.803-8-8.202-8c-4.399 0-7.772 3.578-7.772 8v57.63C183.1 65.78 181.9 65.78 180.7 65.95C126.1 73.67 80.12 103.1 48.83 148.7C8.954 206.9 5.085 284.7 38.97 346.1c27.99 51.36 75.25 85.89 133.1 97.25c4.062 .7969 8.149 1.244 12.23 1.785V504c0 4.422 3.373 8 7.772 8c4.399 0 8.202-3.578 8.202-8v-56.55c3.485 .1816 6.971 .5039 10.45 .5039c45.24 0 89.71-15.3 124.2-43.51C355.1 385.3 368 358 368 329.6V264C368 250.8 357.2 240 344 240zM175.1 428.5c-53.1-10.42-96.47-42.11-122.1-89.2c-31.04-57.02-27.52-128.3 8.985-181.5c28.73-41.94 71.7-68.92 120.1-76c.4368-.0625 .8736-.0605 1.31-.1191V240H136.4c-4.399 0-7.987 3.578-7.987 8S131.1 256 136.4 256h47.92v173.8C181.2 429.3 178.2 429.1 175.1 428.5zM352 329.6c0 23.98-10.17 47-27.55 62.88c-34.06 27.82-79.06 41.54-124.2 38.98V256h143.8c4.399 0 7.987 3.594 7.987 8V329.6z"/></svg>