<svg xmlns="http://www.w3.org/2000/svg" viewBox="0 0 640 512"><!--! Font Awesome Pro 6.0.0-alpha3 by @fontawesome - https://fontawesome.com License - https://fontawesome.com/license (Commercial License) --><path d="M303.1 384h271.1C593.7 384 608 369.7 608 352c0-123.7-100.3-224-224-224H360V16h208C572.4 16 576 12.41 576 8S572.4 0 568 0H136C131.6 0 128 3.594 128 8S131.6 16 136 16h208V128H107.5L64.32 70.4C61.29 66.37 56.55 64 51.52 64H15.99C5.578 64-2.043 73.78 .48 83.88l23.07 92.25C26.04 186.1 33.17 194.3 42.71 198.1L191.1 256l86.38 115.2C284.4 379.3 293.9 384 303.1 384zM416 146.7C515.5 162.2 592 248.2 592 352c0 8.824-7.176 16-16 16h-160V146.7zM202.1 242.7L48.65 183.2c-4.754-1.902-8.336-6.008-9.578-10.98L16.01 80h35.51l48 64c0 0 295.2 .4062 300.5 .8125V368h-96c-5.012 0-9.797-2.391-12.8-6.402L202.1 242.7zM632 432c-4.406 0-8 3.594-8 8c0 30.88-25.12 56-56 56H232C227.6 496 224 499.6 224 504S227.6 512 232 512h336c39.69 0 72-32.31 72-72C640 435.6 636.4 432 632 432z"/></svg>