<svg xmlns="http://www.w3.org/2000/svg" viewBox="0 0 640 512"><!--! Font Awesome Pro 6.0.0-alpha3 by @fontawesome - https://fontawesome.com License - https://fontawesome.com/license (Commercial License) --><path d="M232.4 219.1c2.949 5.895 11.37 5.891 14.31-.0039c1.125-2.254 1.125-4.902-.002-7.156L162.6 44.56l57.25-28.5c.0664 .0117-.0117-.0234 0 0l57.26 114.5c2.947 5.898 11.37 5.898 14.31 0c1.125-2.254 1.125-4.906 0-7.156L234.1 8.84C231.3 3.258 225.6 0 219.8 0C217.4 0 214.9 .5508 212.6 1.715l-57.25 28.5c-5.906 3-9.211 9.164-8.807 15.38C146.7 47.67 147.3 49.75 148.3 51.72L232.4 219.1zM608 351.1l-192.5-.0117c-3.154 0-6.143-.8945-8.658-2.496c-3.736-2.383-8.689-1.168-10.99 2.617c-2.332 3.828-1.02 8.75 2.791 11.11c4.922 3.051 10.71 4.766 16.86 4.766H544v128L417.9 496c-17.1 0-34.8-10.4-42.8-26.5l-12.14-24.28c-2.947-5.895-11.36-5.895-14.31 0c-1.127 2.25-1.127 4.902 0 7.156l12.12 24.22c10.75 21.62 32.96 35.38 57.08 35.38L608 511.1c17.6 0 32-14.4 32-32v-95.98C640 366.4 625.6 351.1 608 351.1zM624 479.1c0 8.824-7.178 16-16 16h-48v-127.1l47.1-.0078c8.824 0 16 7.176 16 16V479.1zM493.4 45.59c.4043-6.215-2.9-12.38-8.807-15.38l-57.25-28.5C425.1 .5508 422.6 0 420.2 0c-5.861 0-11.52 3.258-14.36 8.84L238.8 343.2c-2.625 5.375-8.125 8.75-14.25 8.75L32 351.1c-17.6 0-32 14.41-32 32.01v95.98c0 17.6 14.4 32 32 32L222.2 512c24.12 0 46.33-13.75 57.08-35.38l212.5-424.9C492.8 49.75 493.3 47.67 493.4 45.59zM80 495.1H32c-8.822 0-16-7.176-16-16v-95.99c0-8.824 7.178-16 16-16L80 367.1V495.1zM264.9 469.5C256.9 485.6 240.1 496 222.1 496L96 495.1v-128h128.5c12.32 0 23.29-6.793 28.56-17.6L420.2 16.04c.0117-.0234-.0664 .0117 0 0l57.25 28.52L264.9 469.5z"/></svg>