<svg xmlns="http://www.w3.org/2000/svg" viewBox="0 0 576 512"><!--! Font Awesome Pro 6.0.0-alpha3 by @fontawesome - https://fontawesome.com License - https://fontawesome.com/license (Commercial License) --><path d="M576 256c0-2.202-.9053-4.408-2.686-5.987l-280-248c-1.516-1.343-3.414-2.012-5.312-2.012c-1.898 0-3.796 .6693-5.313 2.012l-280 248c-1.78 1.579-2.686 3.784-2.686 5.987c0 4.321 3.48 7.984 7.969 7.984c1.897 0 3.804-.6679 5.342-2.002l50.69-44.17L64.01 480c0 17.67 14.33 32 32 32h95.99c17.67 0 32-14.33 32-32l-.0082-144h128l.0022 144c0 17.67 14.33 32 31.1 32h95.99c17.67 0 32-14.33 32-32l.0052-262.2l50.69 44.17C564.2 263.3 566.1 264 568 264C572.5 264 576 260.4 576 256zM480 496h-96c-8.837 0-16-7.163-16-16v-144c0-8.837-7.163-16-16-16H223.1c-8.837 0-16 7.163-16 16V480c0 8.837-7.163 16-16 16H95.1c-8.837 0-16-7.163-16-16V203.6L288 18.7l208 184.9V480C496 488.8 488.8 496 480 496z"/></svg>