<svg xmlns="http://www.w3.org/2000/svg" viewBox="0 0 576 512"><!--! Font Awesome Pro 6.0.0-alpha3 by @fontawesome - https://fontawesome.com License - https://fontawesome.com/license (Commercial License) --><path d="M279.5 242.9C267.6 230.6 251.5 223.1 235.5 223.1c-35.12 0-57.2 30.29-57.2 59.66c0 15.42 5.683 30.83 17.06 42.6l82.82 85.59c2.707 2.805 6.229 4.152 9.8 4.152c3.572 0 7.091-1.347 9.8-4.152l82.87-85.59c11.4-11.78 17.07-27.16 17.07-42.59c0-29.38-22.16-59.67-57.23-59.67c-16.07 0-32.23 6.604-44.1 18.85L287.1 251.6L279.5 242.9zM307.9 253.1C316.5 245.1 328.4 240 340.6 240c25.2 0 41.12 21.71 41.12 43.54c0 11.81-4.529 23.2-12.6 31.54l-81.13 83.89l-81.13-83.88C198.8 306.8 194.3 295.4 194.3 283.6c0-.6845 .0152-1.37 .0459-2.057C194.9 268 205.4 240 235.4 240c12.17 0 24.07 5.086 32.67 13.96L288 274.5L307.9 253.1zM575.1 256c0-2.202-.906-4.407-2.686-5.986l-280-248c-1.517-1.343-3.414-2.012-5.312-2.012c-1.898 0-3.796 .6694-5.313 2.012l-280 248C.9068 251.6 .0005 253.8 .0005 256c0 4.321 3.48 7.984 7.97 7.984c1.897 0 3.804-.6679 5.341-2.002l50.69-44.17L64.01 448c0 35.35 28.65 64 63.1 64h319.1c35.35 0 63.1-28.65 63.1-64l.0045-230.2l50.69 44.17C564.2 263.3 566.1 264 568 264C572.5 264 575.1 260.4 575.1 256zM496 448c0 26.51-21.49 48-47.1 48H127.1c-26.51 0-47.1-21.49-47.1-48V203.6L288 18.7l208 184.9V448z"/></svg>