<svg xmlns="http://www.w3.org/2000/svg" viewBox="0 0 576 512"><!--! Font Awesome Pro 6.0.0-alpha3 by @fontawesome - https://fontawesome.com License - https://fontawesome.com/license (Commercial License) --><path d="M575.1 256c0-2.202-.9053-4.408-2.686-5.987l-280-248c-1.516-1.343-3.414-2.012-5.312-2.012S284.2 .6727 282.7 2.016l-280 248c-1.78 1.579-2.686 3.784-2.686 5.987c0 4.321 3.479 7.984 7.969 7.984c1.897 0 3.804-.6679 5.342-2.002l50.69-44.17L64.01 448c0 35.35 28.65 64 63.1 64h319.1c35.35 0 63.1-28.65 63.1-64l.0048-230.2l50.69 44.17C564.2 263.3 566.1 264 568 264C572.5 264 575.1 260.4 575.1 256zM448 496H127.1c-26.51 0-47.1-21.49-47.1-48V203.6L288 18.7l208 184.9V448C496 474.5 474.5 496 448 496z"/></svg>