<svg xmlns="http://www.w3.org/2000/svg" viewBox="0 0 576 512"><!--! Font Awesome Pro 6.0.0-alpha3 by @fontawesome - https://fontawesome.com License - https://fontawesome.com/license (Commercial License) --><path d="M575.1 256c0-2.202-.9047-4.403-2.686-5.982l-280-247.1c-1.516-1.343-3.414-2.022-5.312-2.022c-1.898 0-3.796 .6795-5.313 2.022L2.686 250C.9052 251.6 .0001 253.8 .0001 256c0 4.321 3.479 7.988 7.969 7.988c1.897 0 3.804-.6679 5.342-2.002l50.69-44.17l.0131 230.2c0 35.34 28.65 63.1 63.1 63.1h319.1c35.35 0 63.1-28.65 63.1-63.1l.0041-230.2l50.69 44.17c1.531 1.344 3.406 2.016 5.312 2.016C572.5 264 575.1 260.4 575.1 256zM496 448c0 26.51-21.49 47.1-47.1 47.1H127.1c-26.51 0-47.1-21.49-47.1-47.1v-244.4l208-184.9l208 184.9V448zM223.1 256c0 35.34 28.65 63.1 63.1 63.1s63.1-28.65 63.1-63.1s-28.65-63.1-63.1-63.1S223.1 220.7 223.1 256zM335.1 256c0 26.47-21.53 47.1-47.1 47.1c-26.47 0-47.1-21.53-47.1-47.1c0-26.47 21.53-47.1 47.1-47.1C314.5 208 335.1 229.5 335.1 256zM255.1 352c-44.18 0-79.1 35.82-79.1 79.1c0 8.835 7.164 15.1 15.1 15.1h191.1c8.836 0 15.1-7.164 15.1-15.1c0-44.18-35.82-79.1-79.1-79.1H255.1zM383.1 432H191.1c0-35.29 28.71-63.1 63.1-63.1h63.1C355.3 368 383.1 396.7 383.1 432z"/></svg>