<svg xmlns="http://www.w3.org/2000/svg" viewBox="0 0 384 512"><!--! Font Awesome Pro 6.0.0-alpha3 by @fontawesome - https://fontawesome.com License - https://fontawesome.com/license (Commercial License) --><path d="M344 0h-304C17.94 0 0 17.94 0 40v464C0 508.4 3.594 512 8 512s8-3.594 8-8V40c0-13.22 10.78-24 24-24h304c13.22 0 24 10.78 24 24v464c0 4.406 3.594 8 8 8S384 508.4 384 504V40C384 17.94 366.1 0 344 0zM207.7 56H176.3C167.3 56 160 63.31 160 72.31V96H136.3C127.3 96 120 103.3 120 112.3v31.38C120 152.7 127.3 160 136.3 160h23.47L160 183.7C160 192.7 167.3 200 176.3 200h31.38C216.7 200 224 192.7 224 183.7V160.2L247.7 160C256.7 160 264 152.7 264 143.7V112.3C264 103.3 256.7 96 247.7 96H224V72.31C224 63.31 216.7 56 207.7 56zM248 112.3L247.6 144L208 144.4L207.7 184L176 183.6L175.6 144L136 143.7L136.3 112H176l.3125-40L208 72.31V112L248 112.3zM136 268c0-11.03-8.969-20-20-20h-40c-11.03 0-20 8.969-20 20v40c0 11.03 8.969 20 20 20h40c11.03 0 20-8.969 20-20V268zM120 308c0 2.219-1.781 4-4 4h-40c-2.219 0-4-1.781-4-4v-40c0-2.219 1.781-4 4-4h40c2.219 0 4 1.781 4 4V308zM172 248c-11.03 0-20 8.969-20 20v40c0 11.03 8.969 20 20 20h40c11.03 0 20-8.969 20-20v-40c0-11.03-8.969-20-20-20H172zM216 268v40c0 2.219-1.781 4-4 4h-40c-2.219 0-4-1.781-4-4v-40c0-2.219 1.781-4 4-4h40C214.2 264 216 265.8 216 268zM308 248h-40c-11.03 0-20 8.969-20 20v40c0 11.03 8.969 20 20 20h40c11.03 0 20-8.969 20-20v-40C328 256.1 319 248 308 248zM312 308c0 2.219-1.781 4-4 4h-40c-2.219 0-4-1.781-4-4v-40c0-2.219 1.781-4 4-4h40c2.219 0 4 1.781 4 4V308zM192 384c-30.88 0-56 25.12-56 55.99v64c0 4.406 3.578 8.007 8 8.007S152 508.4 152 504v-64c0-22.06 17.94-40 40-40s40 17.94 40 40v64c0 4.406 3.578 8.007 8 8.007s8-3.601 8-8.007v-64C248 409.1 222.9 384 192 384z"/></svg>