<svg xmlns="http://www.w3.org/2000/svg" viewBox="0 0 576 512"><!--! Font Awesome Pro 6.0.0-alpha3 by @fontawesome - https://fontawesome.com License - https://fontawesome.com/license (Commercial License) --><path d="M144 376h-32c-13.22 0-24 10.78-24 24v32c0 13.22 10.78 24 24 24h32c13.22 0 24-10.78 24-24v-32C168 386.8 157.2 376 144 376zM152 432c0 4.5-3.5 8-8 8h-32c-4.5 0-8-3.5-8-8v-32c0-4.5 3.5-8 8-8h32c4.5 0 8 3.5 8 8V432zM216 128h-176C17.94 128 0 145.9 0 168v336C0 508.4 3.594 512 8 512s8-3.594 8-8V168c0-13.22 10.78-24 24-24h176c13.22 0 24 10.78 24 24v336C240 508.4 243.6 512 248 512S256 508.4 256 504V168C256 145.9 238.1 128 216 128zM536 0h-240C273.9 0 256 17.94 256 40v48C256 92.41 259.6 96 264 96S272 92.41 272 88v-48c0-13.22 10.78-24 24-24h240c13.22 0 24 10.78 24 24v464c0 4.406 3.594 8 8 8S576 508.4 576 504V40C576 17.94 558.1 0 536 0zM368 376h-32c-13.22 0-24 10.78-24 24v32c0 13.22 10.78 24 24 24h32c13.22 0 24-10.78 24-24v-32C392 386.8 381.2 376 368 376zM376 432c0 4.406-3.594 8-8 8h-32c-4.406 0-8-3.594-8-8v-32c0-4.406 3.594-8 8-8h32c4.406 0 8 3.594 8 8V432zM496 376h-32c-13.22 0-24 10.78-24 24v32c0 13.22 10.78 24 24 24h32c13.22 0 24-10.78 24-24v-32C520 386.8 509.2 376 496 376zM504 432c0 4.406-3.594 8-8 8h-32c-4.406 0-8-3.594-8-8v-32c0-4.406 3.594-8 8-8h32c4.406 0 8 3.594 8 8V432zM496 248h-32c-13.22 0-24 10.78-24 24v32c0 13.22 10.78 24 24 24h32c13.22 0 24-10.78 24-24v-32C520 258.8 509.2 248 496 248zM504 304c0 4.406-3.594 8-8 8h-32c-4.406 0-8-3.594-8-8v-32c0-4.406 3.594-8 8-8h32c4.406 0 8 3.594 8 8V304zM368 248h-32c-13.22 0-24 10.78-24 24v32c0 13.22 10.78 24 24 24h32c13.22 0 24-10.78 24-24v-32C392 258.8 381.2 248 368 248zM376 304c0 4.406-3.594 8-8 8h-32c-4.406 0-8-3.594-8-8v-32c0-4.406 3.594-8 8-8h32c4.406 0 8 3.594 8 8V304zM448 183.5V160l23.69-.2187c9 0 16.31-7.312 16.31-16.31V112.1c0-9-7.312-16.31-16.31-16.31H448V72.09c0-9-7.312-16.31-16.31-16.31h-31.38C391.3 55.78 384 63.09 384 72.09v23.69h-23.69c-9 0-16.31 7.312-16.31 16.31v31.38c0 9 7.312 16.31 16.31 16.31h23.47L384 183.5c0 9 7.312 16.31 16.31 16.31h31.38C440.7 199.8 448 192.5 448 183.5zM431.7 183.8L400 183.4l-.4062-39.59L360 143.5l.3125-31.69H400v-40l32 .3125v39.69l40 .3125l-.4062 31.69L432 144.2L431.7 183.8zM183.7 223.8H160V200.1c0-9-7.312-16.31-16.31-16.31H112.3C103.3 183.8 96 191.1 96 200.1v23.69H72.31C63.31 223.8 56 231.1 56 240.1v31.38c0 9 7.312 16.31 16.31 16.31h23.47L96 311.5c0 9 7.312 16.31 16.31 16.31h31.38C152.7 327.8 160 320.5 160 311.5V288l23.69-.2187c9 0 16.31-7.312 16.31-16.31V240.1C200 231.1 192.7 223.8 183.7 223.8zM183.6 271.8L144 272.2L143.7 311.8L112 311.4L111.6 271.8L72 271.5l.3125-31.69H112v-40l32 .3125v39.69l40 .3125L183.6 271.8z"/></svg>