<svg xmlns="http://www.w3.org/2000/svg" viewBox="0 0 640 512"><!--! Font Awesome Pro 6.0.0-alpha3 by @fontawesome - https://fontawesome.com License - https://fontawesome.com/license (Commercial License) --><path d="M480 320c53.02 0 96-42.98 96-96s-42.98-96-96-96s-96 42.98-96 96S426.1 320 480 320zM480 144c44.11 0 80 35.89 80 80S524.1 304 480 304c-44.11 0-80-35.89-80-80S435.9 144 480 144zM132 352h-40c-11.03 0-20 8.969-20 20v40c0 11.03 8.969 20 20 20h40c11.03 0 20-8.969 20-20v-40C152 360.1 143 352 132 352zM136 412C136 414.2 134.2 416 132 416h-40c-2.219 0-4-1.781-4-4v-40c0-2.219 1.781-4 4-4h40c2.219 0 4 1.781 4 4V412zM132 240h-40C80.97 240 72 248.1 72 260v40C72 311 80.97 320 92 320h40C143 320 152 311 152 300v-40C152 248.1 143 240 132 240zM136 300C136 302.2 134.2 304 132 304h-40C89.78 304 88 302.2 88 300v-40C88 257.8 89.78 256 92 256h40C134.2 256 136 257.8 136 260V300zM336 40v304c0 4.406 3.594 8 8 8S352 348.4 352 344v-304C352 17.94 334.1 0 312 0h-272C17.94 0 0 17.94 0 40v464C0 508.4 3.594 512 8 512s8-3.594 8-8V40c0-13.22 10.78-24 24-24h272C325.2 16 336 26.78 336 40zM512 352h-64c-70.69 0-128 57.3-128 128c0 17.67 14.33 32 32 32h256c17.67 0 32-14.33 32-32C640 409.3 582.7 352 512 352zM608 496h-256c-8.822 0-16-7.176-16-16c0-61.76 50.24-112 112-112h64c61.76 0 112 50.24 112 112C624 488.8 616.8 496 608 496zM260 352h-40c-11.03 0-20 8.969-20 20v40c0 11.03 8.969 20 20 20h40c11.03 0 20-8.969 20-20v-40C280 360.1 271 352 260 352zM264 412C264 414.2 262.2 416 260 416h-40c-2.219 0-4-1.781-4-4v-40c0-2.219 1.781-4 4-4h40c2.219 0 4 1.781 4 4V412zM260 240h-40C208.1 240 200 248.1 200 260v40C200 311 208.1 320 220 320h40C271 320 280 311 280 300v-40C280 248.1 271 240 260 240zM264 300C264 302.2 262.2 304 260 304h-40C217.8 304 216 302.2 216 300v-40C216 257.8 217.8 256 220 256h40C262.2 256 264 257.8 264 260V300zM208 183.7V160.2L231.7 160C240.7 160 248 152.7 248 143.7V112.3C248 103.3 240.7 96 231.7 96H208V72.31C208 63.31 200.7 56 191.7 56H160.3C151.3 56 144 63.31 144 72.31V96H120.3C111.3 96 104 103.3 104 112.3v31.38C104 152.7 111.3 160 120.3 160h23.47L144 183.7C144 192.7 151.3 200 160.3 200h31.38C200.7 200 208 192.7 208 183.7zM191.7 184L160 183.6L159.6 144L120 143.7L120.3 112H160l.3125-40L192 72.31V112l40 .3125L231.6 144L192 144.4L191.7 184z"/></svg>