<svg xmlns="http://www.w3.org/2000/svg" viewBox="0 0 576 512"><!--! Font Awesome Pro 6.0.0-alpha3 by @fontawesome - https://fontawesome.com License - https://fontawesome.com/license (Commercial License) --><path d="M244 248h-40c-11.03 0-20 8.969-20 20v40c0 11.03 8.969 20 20 20h40c11.03 0 20-8.969 20-20v-40C264 256.1 255 248 244 248zM248 308c0 2.219-1.781 4-4 4h-40c-2.219 0-4-1.781-4-4v-40c0-2.219 1.781-4 4-4h40c2.219 0 4 1.781 4 4V308zM244 376h-40c-11.03 0-20 8.969-20 20v40c0 11.03 8.969 20 20 20h40c11.03 0 20-8.969 20-20v-40C264 384.1 255 376 244 376zM248 436c0 2.219-1.781 4-4 4h-40c-2.219 0-4-1.781-4-4v-40c0-2.219 1.781-4 4-4h40c2.219 0 4 1.781 4 4V436zM320 183.7V160.2L343.7 160C352.7 160 360 152.7 360 143.7V112.3C360 103.3 352.7 96 343.7 96H320V72.31C320 63.31 312.7 56 303.7 56H272.3C263.3 56 256 63.31 256 72.31V96H232.3C223.3 96 216 103.3 216 112.3v31.38C216 152.7 223.3 160 232.3 160h23.47L256 183.7C256 192.7 263.3 200 272.3 200h31.38C312.7 200 320 192.7 320 183.7zM303.7 184L272 183.6L271.6 144L232 143.7L232.3 112H272l.3125-40L304 72.31V112l40 .3125L343.6 144L304 144.4L303.7 184zM372 248h-40c-11.03 0-20 8.969-20 20v40c0 11.03 8.969 20 20 20h40c11.03 0 20-8.969 20-20v-40C392 256.1 383 248 372 248zM376 308c0 2.219-1.781 4-4 4h-40c-2.219 0-4-1.781-4-4v-40c0-2.219 1.781-4 4-4h40c2.219 0 4 1.781 4 4V308zM372 376h-40c-11.03 0-20 8.969-20 20v40c0 11.03 8.969 20 20 20h40c11.03 0 20-8.969 20-20v-40C392 384.1 383 376 372 376zM376 436c0 2.219-1.781 4-4 4h-40c-2.219 0-4-1.781-4-4v-40c0-2.219 1.781-4 4-4h40c2.219 0 4 1.781 4 4V436zM536 96L448 96.01V40C448 17.94 430.1 0 408 0h-240C145.9 0 128 17.94 128 40v56.01L40 96C17.94 96 0 113.9 0 136v368C0 508.4 3.594 512 8 512s8-3.594 8-8V136c0-13.22 10.78-24 24-24H128v392C128 508.4 131.6 512 136 512s8-3.594 8-8V40c0-13.22 10.78-24 24-24h240c13.22 0 24 10.78 24 24v464c0 4.406 3.594 8 8 8S448 508.4 448 504V112h88c13.22 0 24 10.78 24 24v368c0 4.406 3.594 8 8 8S576 508.4 576 504V136C576 113.9 558.1 96 536 96z"/></svg>