<svg xmlns="http://www.w3.org/2000/svg" viewBox="0 0 512 512"><!--! Font Awesome Pro 6.0.0-alpha3 by @fontawesome - https://fontawesome.com License - https://fontawesome.com/license (Commercial License) --><path d="M300 296h40c11.03 0 20-8.969 20-20v-40c0-11.03-8.969-20-20-20h-40c-11.03 0-20 8.969-20 20v40C280 287 288.1 296 300 296zM296 236c0-2.219 1.781-4 4-4h40c2.219 0 4 1.781 4 4v40c0 2.219-1.781 4-4 4h-40c-2.219 0-4-1.781-4-4V236zM300 168h40c11.03 0 20-8.969 20-20v-40c0-11.03-8.969-20-20-20h-40c-11.03 0-20 8.969-20 20v40C280 159 288.1 168 300 168zM296 108c0-2.219 1.781-4 4-4h40c2.219 0 4 1.781 4 4v40c0 2.219-1.781 4-4 4h-40c-2.219 0-4-1.781-4-4V108zM172 296h40c11.03 0 20-8.969 20-20v-40c0-11.03-8.969-20-20-20h-40c-11.03 0-20 8.969-20 20v40C152 287 160.1 296 172 296zM168 236c0-2.219 1.781-4 4-4h40c2.219 0 4 1.781 4 4v40c0 2.219-1.781 4-4 4h-40c-2.219 0-4-1.781-4-4V236zM172 168h40c11.03 0 20-8.969 20-20v-40c0-11.03-8.969-20-20-20h-40c-11.03 0-20 8.969-20 20v40C152 159 160.1 168 172 168zM168 108c0-2.219 1.781-4 4-4h40c2.219 0 4 1.781 4 4v40c0 2.219-1.781 4-4 4h-40c-2.219 0-4-1.781-4-4V108zM504 496H480v-480h24C508.4 16 512 12.42 512 8S508.4 0 504 0H8C3.582 0 0 3.582 0 8S3.582 16 8 16H32v480H8C3.582 496 0 499.6 0 504S3.582 512 8 512h496c4.418 0 8-3.582 8-8S508.4 496 504 496zM296 496h-80v-56c0-22.06 17.94-40 40-40s40 17.94 40 40V496zM464 496h-152v-56c0-30.88-25.12-56-56-56s-56 25.12-56 56v56H48v-480h416V496zM157.9 389.3c-1.469 4.156 .7187 8.719 4.875 10.19c4.234 1.5 8.75-.6875 10.22-4.875C185.4 359.6 218.8 336 256 336s70.59 23.56 83 58.66C340.2 397.9 343.3 400 346.5 400c.8906 0 1.781-.1562 2.672-.4687c4.156-1.469 6.344-6.031 4.875-10.19C339.4 347.9 300 320 256 320S172.6 347.9 157.9 389.3z"/></svg>