<svg xmlns="http://www.w3.org/2000/svg" viewBox="0 0 384 512"><!--! Font Awesome Pro 6.0.0-alpha3 by @fontawesome - https://fontawesome.com License - https://fontawesome.com/license (Commercial License) --><path d="M352 77V56c0-4.406-3.578-8-8-8S336 51.59 336 56v21c0 28.47-9.562 56.34-26.94 78.44l-75.34 95.75c-2.297 2.906-2.297 6.969 0 9.875l75.34 95.78C326.4 378.9 336 406.8 336 435.3V456c0 4.406 3.578 8 8 8S352 460.4 352 456v-20.75c0-32.03-10.78-63.38-30.38-88.28l-71.45-90.84l71.45-90.81C341.2 140.4 352 109.1 352 77zM32 435.3V456c0 4.406 3.578 8 8 8s8-3.594 8-8v-20.75c0-28.47 9.562-56.31 26.94-78.41l75.34-95.78c2.297-2.906 2.297-6.969 0-9.875L74.94 155.4C57.56 133.3 48 105.5 48 77V56c0-4.406-3.578-8-8-8S32 51.59 32 56v21c0 32.06 10.78 63.41 30.38 88.31l71.45 90.81l-71.45 90.84C42.78 371.9 32 403.2 32 435.3zM376 496H8C3.578 496 0 499.6 0 504S3.578 512 8 512h368c4.422 0 8-3.594 8-8S380.4 496 376 496zM8 16h368C380.4 16 384 12.41 384 8S380.4 0 376 0H8C3.578 0 0 3.594 0 8S3.578 16 8 16zM288 48H96c-4.422 0-8 3.594-8 8v21.34c0 15.44 5.109 30.78 14.39 43.22l83.2 110.9C187.1 233.5 189.5 234.7 192 234.7s4.891-1.195 6.406-3.195l83.2-110.9C290.9 108.1 296 92.78 296 77.34V56C296 51.59 292.4 48 288 48zM280 77.34c0 12.03-3.984 23.97-11.2 33.59L192 213.3L115.2 110.1C107.1 101.3 104 89.38 104 77.34V64h176V77.34z"/></svg>