<svg xmlns="http://www.w3.org/2000/svg" viewBox="0 0 384 512"><!--! Font Awesome Pro 6.0.0-alpha3 by @fontawesome - https://fontawesome.com License - https://fontawesome.com/license (Commercial License) --><path d="M376 496H8C3.578 496 0 499.6 0 504S3.578 512 8 512h368c4.422 0 8-3.594 8-8S380.4 496 376 496zM32 435V456c0 4.406 3.578 8 8 8s8-3.594 8-8v-21c0-28.47 9.562-56.34 26.94-78.44l75.34-95.75c2.297-2.906 2.297-6.969 0-9.875L74.94 155.2C57.56 133.1 48 105.2 48 76.75V56c0-4.406-3.578-8-8-8S32 51.59 32 56v20.75c0 32.03 10.78 63.38 30.38 88.28l71.45 90.84l-71.45 90.81C42.78 371.6 32 402.9 32 435zM352 76.75V56c0-4.406-3.578-8-8-8S336 51.59 336 56v20.75c0 28.47-9.562 56.31-26.94 78.41l-75.34 95.78c-2.297 2.906-2.297 6.969 0 9.875l75.34 95.75C326.4 378.7 336 406.5 336 435V456c0 4.406 3.578 8 8 8S352 460.4 352 456v-21c0-32.06-10.78-63.41-30.38-88.31l-71.45-90.81l71.45-90.84C341.2 140.1 352 108.8 352 76.75zM8 16h368C380.4 16 384 12.41 384 8S380.4 0 376 0H8C3.578 0 0 3.594 0 8S3.578 16 8 16zM192 277.3c-2.516 0-4.891 1.195-6.406 3.195L102.4 391.5C93.11 403.9 88 419.2 88 434.7V456c0 4.406 3.578 8 8 8h192c4.422 0 8-3.594 8-8v-21.34c0-15.44-5.109-30.78-14.39-43.22l-83.2-110.9C196.9 278.5 194.5 277.3 192 277.3zM280 434.7V448h-176v-13.34c0-12.03 3.984-23.97 11.2-33.59L192 298.7l76.8 102.3C276 410.7 280 422.6 280 434.7z"/></svg>