<svg xmlns="http://www.w3.org/2000/svg" viewBox="0 0 384 512"><!--! Font Awesome Pro 6.0.0-alpha3 by @fontawesome - https://fontawesome.com License - https://fontawesome.com/license (Commercial License) --><path d="M32 435.3V456c0 4.406 3.578 8 8 8s8-3.594 8-8v-20.75c0-28.47 9.562-56.31 26.94-78.41l75.34-95.78c2.297-2.906 2.297-6.969 0-9.875L74.94 155.4C57.56 133.3 48 105.5 48 77V56c0-4.406-3.578-8-8-8S32 51.59 32 56v21c0 32.06 10.78 63.41 30.38 88.31l71.45 90.81l-71.45 90.84C42.78 371.9 32 403.2 32 435.3zM352 77V56c0-4.406-3.578-8-8-8S336 51.59 336 56v21c0 28.47-9.562 56.34-26.94 78.44l-75.34 95.75c-2.297 2.906-2.297 6.969 0 9.875l75.34 95.78C326.4 378.9 336 406.8 336 435.3V456c0 4.406 3.578 8 8 8S352 460.4 352 456v-20.75c0-32.03-10.78-63.38-30.38-88.28l-71.45-90.84l71.45-90.81C341.2 140.4 352 109.1 352 77zM8 16h368C380.4 16 384 12.41 384 8S380.4 0 376 0H8C3.578 0 0 3.594 0 8S3.578 16 8 16zM376 496H8C3.578 496 0 499.6 0 504S3.578 512 8 512h368c4.422 0 8-3.594 8-8S380.4 496 376 496zM192 234.7c2.516 0 4.891-1.195 6.406-3.195l74-98.66c1.812-2.438 2.109-5.688 .75-8.375C271.8 121.7 269 120 265.1 120H117.1c-3.031 0-5.796 1.719-7.156 4.438C109.5 127.1 109.8 130.4 111.6 132.8l74 98.66C187.1 233.5 189.5 234.7 192 234.7zM249.1 136L192 213.3L133.1 136H249.1zM96 464h192c4.422 0 8-3.594 8-8v-21.34c0-15.44-5.109-30.78-14.41-43.22l-9.203-12.25C270.9 377.2 268.5 376 265.1 376H117.1c-2.515 0-4.89 1.188-6.39 3.188L102.4 391.5C93.11 403.9 88 419.2 88 434.7V456C88 460.4 91.58 464 96 464zM104 434.7c0-12.03 3.984-23.97 11.19-33.59L121.1 392h139.1l6.797 9.031C276 410.7 280 422.6 280 434.7V448h-176V434.7z"/></svg>