<svg xmlns="http://www.w3.org/2000/svg" viewBox="0 0 576 512"><!--! Font Awesome Pro 6.0.0-alpha3 by @fontawesome - https://fontawesome.com License - https://fontawesome.com/license (Commercial License) --><path d="M575.1 255.1c0-2.202-.9069-4.404-2.688-5.983l-61.31-54.3l-.0046-147.7c0-8.836-7.163-15.1-15.1-15.1l-95.1 .0089c-8.836 0-15.1 7.163-15.1 15.1l.0016 34.34l-90.69-80.32c-1.516-1.343-3.413-2.019-5.312-2.019c-1.898 0-3.797 .6762-5.313 2.019L2.688 250c-1.78 1.579-2.687 3.78-2.687 5.982c0 4.321 3.481 7.988 7.971 7.988c1.897 0 3.804-.6679 5.341-2.002l50.69-44.17l.0129 230.2c0 35.34 28.65 63.1 63.1 63.1h319.1c35.35 0 63.1-28.65 63.1-63.1l.0031-230.2l50.69 44.17c1.531 1.344 3.406 2.016 5.312 2.016C572.5 263.1 575.1 260.4 575.1 255.1zM495.1 447.1c0 26.51-21.49 47.1-47.1 47.1H127.1c-26.51 0-47.1-21.49-47.1-47.1v-244.4l207.1-184.9l207.1 184.9V447.1zM496 181.5l-95.1-85.02V48.01h95.1V181.5zM224 255.1c0 35.34 28.65 63.1 63.1 63.1S351.1 291.3 351.1 255.1s-28.65-63.1-63.1-63.1S224 220.7 224 255.1zM335.1 256c0 26.47-21.53 47.1-47.1 47.1S239.1 282.5 239.1 256c0-26.47 21.53-47.1 47.1-47.1S335.1 229.5 335.1 256zM256 351.1c-44.18 0-79.1 35.82-79.1 79.1c0 8.835 7.164 15.1 15.1 15.1h191.1c8.836 0 15.1-7.164 15.1-15.1c0-44.18-35.82-79.1-79.1-79.1H256zM383.1 431.1H192c0-35.29 28.71-63.1 63.1-63.1h63.1C355.3 367.1 383.1 396.7 383.1 431.1z"/></svg>