<svg xmlns="http://www.w3.org/2000/svg" viewBox="0 0 576 512"><!--! Font Awesome Pro 6.0.0-alpha3 by @fontawesome - https://fontawesome.com License - https://fontawesome.com/license (Commercial License) --><path d="M575.1 503.7c0-4.137-3.175-7.648-7.368-7.961c-55.91-4.356-78.62-47.47-88.62-47.47c-8.188 0-37.63 47.57-95.44 47.77h-.3438c-57.1 0-88.55-47.77-96.22-47.77c-8.188 0-37.63 47.57-95.44 47.77H192.2c-57.1 0-88.55-47.77-96.22-47.77c-2.25 0-4.406 .9531-5.937 2.625c-50.61 55.81-90.06 36.57-90.06 52.83c0 .333-.0435 8.022 8.287 8.022c3.021 0 45.24-.903 87.74-43.88c28.91 28.94 62.12 44.04 96.3 44.04c34.12-.1094 67.23-15.21 95.7-44.03c28.91 28.92 61.89 44.16 96.08 44.16L384.6 512c34.12-.1094 66.97-15.34 95.44-44.16c43.12 43.14 85.46 43.87 88.51 43.87C573.2 511.7 575.1 507.1 575.1 503.7zM247.1 191.1c-13.23 0-23.1 10.78-23.1 24v80c0 13.22 10.77 24 23.1 24h79.1c13.23 0 23.1-10.78 23.1-24V215.1c0-13.22-10.77-24-23.1-24H247.1zM335.1 215.1v80c0 4.406-3.594 8-7.1 8H247.1c-4.406 0-7.1-3.594-7.1-8V215.1c0-4.406 3.594-8 7.1-8h79.1C332.4 207.1 335.1 211.6 335.1 215.1zM7.972 263.1c1.897 0 3.804-.6679 5.342-2.002L64 217.8v190.2c0 4.422 3.582 8 7.1 8c4.418 0 7.1-3.578 7.1-8v-204.4L288 18.7l207.1 184.9v204.4c0 4.422 3.582 8 8 8s7.1-3.578 7.1-8V217.8l50.69 44.16c1.531 1.344 3.406 2.016 5.312 2.016c4.458 0 7.999-3.63 7.999-8.002c0-2.202-.9064-4.404-2.687-5.983L512 195.7l-.0052-147.7c0-8.836-7.164-15.1-15.1-15.1l-95.1 .0076c-8.836 0-15.1 7.164-15.1 15.1l.0014 34.34L293.3 2.014c-1.517-1.342-3.414-2.011-5.312-2.011c-1.898 0-3.796 .6691-5.313 2.011l-279.1 248C.9079 251.6 .0014 253.8 .0014 255.1C.0014 260.3 3.482 263.1 7.972 263.1zM400 47.1h95.1v133.5L400 96.51V47.1z"/></svg>