<svg xmlns="http://www.w3.org/2000/svg" viewBox="0 0 576 512"><!--! Font Awesome Pro 6.0.0-alpha3 by @fontawesome - https://fontawesome.com License - https://fontawesome.com/license (Commercial License) --><path d="M245.9 207.1v53.91H192c-8.836 0-15.1 7.162-15.1 15.1v52.18c0 8.836 7.164 15.1 15.1 15.1h53.91v53.91c0 8.836 7.164 15.1 15.1 15.1h52.18c8.836 0 15.1-7.164 15.1-15.1v-53.91H384c8.836 0 15.1-7.164 15.1-15.1V277.9c0-8.838-7.164-15.1-15.1-15.1h-53.91V207.1c0-8.838-7.164-15.1-15.1-15.1H261.9C253.1 191.1 245.9 199.2 245.9 207.1zM383.1 277.8v52.36h-69.82v69.82h-52.36v-69.82H192V277.8h69.82V207.1h52.36v69.82H383.1zM575.1 256c0-2.202-.906-4.409-2.686-5.988l-61.31-54.3l-.0056-147.7c0-8.836-7.164-15.1-15.1-15.1l-95.1 .0074c-8.836 0-15.1 7.164-15.1 15.1l.001 34.34l-90.69-80.32c-1.517-1.343-3.414-2.011-5.312-2.011c-1.898 0-3.796 .6679-5.313 2.011L2.687 250C.9068 251.6 .0005 253.8 .0005 256c0 4.321 3.48 7.983 7.97 7.983c1.897 0 3.804-.6679 5.341-2.002l50.69-44.17l.0134 230.2c0 35.35 28.65 63.1 63.1 63.1h319.1c35.35 0 63.1-28.65 63.1-63.1l.0046-230.2l50.69 44.17c1.531 1.344 3.406 2.016 5.312 2.016C572.5 263.1 575.1 260.4 575.1 256zM496 447.1c0 26.51-21.49 47.1-47.1 47.1H127.1c-26.51 0-47.1-21.49-47.1-47.1V203.6L288 18.7l208 184.9V447.1zM496 181.5L400 96.51V47.1h96V181.5z"/></svg>