<svg xmlns="http://www.w3.org/2000/svg" viewBox="0 0 640 512"><!--! Font Awesome Pro 6.0.0-alpha3 by @fontawesome - https://fontawesome.com License - https://fontawesome.com/license (Commercial License) --><path d="M639.1 311.9c0-2.203-.8965-4.56-2.657-6.154l-231.1-208.3c-1.531-1.346-3.438-2.019-5.344-2.019s-3.812 .6729-5.344 2.019L162.7 305.7C160.9 307.3 159.1 309.7 159.1 311.9c0 4.432 3.539 7.789 7.983 7.789c1.905 0 3.819-.6612 5.36-1.987l50.66-45.49v199.8C223.1 494 241.9 512 263.1 512h271.1c22.06 0 40-17.97 40-40.06V272.2l50.66 45.49c1.531 1.346 3.438 2.034 5.344 2.034C636.3 319.7 639.1 316.4 639.1 311.9zM559.1 471.9c0 13.24-10.78 24.04-24 24.04H263.1c-13.22 0-24-10.8-24-24.04V257.8l160-143.7l159.1 143.7V471.9zM343.1 303.7v64.1c0 13.24 10.78 24.04 24 24.04h64c13.22 0 24-10.8 24-24.04V303.7c0-13.24-10.78-24.04-24-24.04h-64C354.8 279.6 343.1 290.4 343.1 303.7zM439.1 303.7v64.1c0 4.413-3.594 8.013-8 8.013h-64c-4.406 0-8-3.599-8-8.013V303.7c0-4.413 3.594-8.013 8-8.013h64C436.4 295.7 439.1 299.3 439.1 303.7zM133.8 265.3c-.8408 0-1.697 .1339-2.543 .4162L65.94 287.5C65.62 287.6 65.29 287.6 64.96 287.6c-2.508 0-3.372-1.97-3.372-3.219c0-.3614 .0611-.7281 .1896-1.087l23.97-72.21L17.78 177.1C16.66 176.6 15.1 175.5 15.1 174.2c0-1.252 .6562-2.316 1.875-2.911l67.78-34.09l-23.94-71.86C61.6 64.97 61.54 64.58 61.54 64.21c0-1.778 1.322-3.326 3.243-3.326c.3653 0 .7339 .06 1.088 .1846l72.09 24.01l33.91-68.08C172.4 15.86 173.6 15.28 174.8 15.28c1.172 0 2.348 .5946 2.93 1.808l34 67.98l71.91-24.01C283.9 60.97 284.3 60.92 284.6 60.92c2.097 0 3.315 1.689 3.315 3.163c0 .3537-.0638 .716-.1946 1.081L265.9 130.6C265.7 131.5 265.5 132.3 265.5 133.2c0 4.392 3.577 8.026 8.037 8.026c3.349 0 6.443-2.117 7.566-5.49l21.78-65.39c.7085-2.027 1.054-4.117 1.054-6.194c0-4.976-1.984-9.874-5.71-13.65C294.6 46.89 289.6 44.92 284.5 44.92c-1.987 0-3.984 .3031-5.914 .9297L219.8 65.48L192 9.985C188.8 3.318 181.8 0 174.8 0S160.7 3.318 157.5 9.922L129.8 65.48L71.03 45.89C69.03 45.2 66.94 44.86 64.84 44.86c-12.37 0-19.28 10.3-19.28 19.36c0 1.991 .2965 4.014 .9058 6.011l19.63 58.91L10.78 156.9C4.124 160.2-.0007 166.8-.0007 174.2c0 7.418 4.125 14.05 10.72 17.28l55.47 27.73L46.62 278.1C45.93 280.1 45.59 282.2 45.59 284.3c0 7.388 5.637 19.3 19.35 19.3c2 0 4.031-.313 6-.939l65.37-21.82C139.7 279.8 141.8 276.6 141.8 273.3C141.8 268.9 138.2 265.3 133.8 265.3zM175.1 127.4c26.47 0 48 21.57 48 48.08c0 4.413 3.594 8.013 8 8.013s8-3.599 8-8.013c0-35.34-28.72-64.1-64-64.1S111.1 140.1 111.1 175.5s28.72 64.1 63.1 64.1c4.406 0 8-3.599 8-8.013s-3.594-8.013-8-8.013c-26.47 0-47.1-21.57-47.1-48.08S149.5 127.4 175.1 127.4z"/></svg>