<svg xmlns="http://www.w3.org/2000/svg" viewBox="0 0 576 512"><!--! Font Awesome Pro 6.0.0-alpha3 by @fontawesome - https://fontawesome.com License - https://fontawesome.com/license (Commercial License) --><path d="M575.1 256c0-2.202-.9056-4.407-2.686-5.986L512 195.7l-.0055-147.7c0-8.837-7.163-16-15.1-16L400 32c-8.837 0-15.1 7.163-15.1 16l.0014 34.34l-90.69-80.32c-1.516-1.343-3.414-2.012-5.312-2.012c-1.898 0-3.797 .6693-5.313 2.012l-280 248C.9063 251.6 .0007 253.8 .0007 256c0 4.321 3.48 7.985 7.969 7.985c1.897 0 3.804-.6679 5.342-2.002l50.69-44.17L64.01 448c0 35.35 28.65 64 63.1 64h319.1c35.35 0 63.1-28.65 63.1-64l.0045-230.2l50.69 44.17C564.2 263.3 566.1 264 568 264C572.5 264 575.1 260.4 575.1 256zM304.1 371.5c0-1.482-.4113-2.946-1.223-4.24L256.9 293.7l113.2 93.75l-94.38 56.19c-.7447 .4444-3.904 2.55-3.904 6.886c0 1.706 .5398 3.384 1.591 4.771L303.8 496H234l-31.44-59.5l97.59-58.09C302.3 377.2 304.1 374.7 304.1 371.5zM496 448c0 26.51-21.49 48-47.1 48H323.7l-32.16-43.19l96.5-57.47c2.332-1.412 3.903-3.924 3.903-6.905c0-2.36-1.071-4.61-2.903-6.126L229.1 249.8C227.6 248.6 225.8 247.1 223.1 247.1c-6.179 0-7.995 5.672-7.995 8.006c0 1.459 .398 2.932 1.223 4.249l67.75 108.6l-97.08 57.8c-2.51 1.494-3.917 4.155-3.917 6.895c0 1.266 .3002 2.548 .9305 3.741L215.9 496h-87.95c-26.51 0-47.1-21.49-47.1-48V203.6L288 18.7l208 184.9V448zM496 181.5l-96-85.03V48h96V181.5z"/></svg>