<svg xmlns="http://www.w3.org/2000/svg" viewBox="0 0 640 512"><!--! Font Awesome Pro 6.0.0-alpha3 by @fontawesome - https://fontawesome.com License - https://fontawesome.com/license (Commercial License) --><path d="M640 312c0-2.199-.8962-4.397-2.656-5.989l-232-208c-1.531-1.344-3.409-2.018-5.315-2.018s-3.841 .6741-5.373 2.018l-232 208C160.9 307.6 160 309.8 160 312c0 4.435 3.548 7.932 7.983 7.932c1.905 0 3.819-.6602 5.36-1.984L224 272.5v199.5C224 494.1 241.9 512 264 512h272c22.06 0 40-17.94 40-40V272.5l50.66 45.42C628.2 319.3 630.1 319.1 632 319.1C636.4 319.1 640 316.5 640 312zM560 471.1c0 13.22-10.78 24-24 24h-272c-13.22 0-24-10.78-24-24V258.2l160-143.5l160 143.5V471.1zM344 303.1v64c0 13.22 10.78 24 24 24h64c13.22 0 24-10.78 24-24v-64c0-13.22-10.78-24-24-24h-64C354.8 279.1 344 290.8 344 303.1zM440 303.1v64c0 4.406-3.594 8-8 8h-64c-4.406 0-8-3.594-8-8v-64c0-4.406 3.594-8 8-8h64C436.4 295.1 440 299.6 440 303.1zM110.9 224c33.66 0 65.06-15.13 86.06-41.35C199 180.3 200.1 177.3 200.1 174.3c0-2.321-.6358-4.592-1.905-6.468C195.8 163.9 191.7 161.5 187.2 161.5c-2.49 0-7.314 1.605-16.37 1.605c-40.49 0-72.46-33.55-72.46-73.64c0-25.8 13.5-50.38 37.02-63.79c3.917-2.361 6.222-6.542 6.222-11.16c0-14.03-16.34-14.24-30.69-14.5C49.78 0 0 50.25 0 112S49.78 224 110.9 224zM110.8 16c3.094 .0625 6.188 .2188 9.188 .5313C96.01 33.47 82.38 60.79 82.38 89.36c0 48.82 38.81 89.71 88.63 89.71c2.732 0 5.481-.1262 8.241-.3824C161.4 197.4 136.9 208 110.9 208C58.59 208 16 164.9 16 112S58.59 16 110.8 16zM200 72h48v48c0 4.406 3.593 7.997 7.999 7.997C260.4 128 264 124.4 264 120V72h48c4.406 0 7.998-3.596 7.998-8.002S316.4 56 312 56h-48V8c0-4.406-3.595-8.001-8.001-8.001C251.6-.0004 248 3.594 248 8v48h-48C195.6 56 191.1 59.59 191.1 64S195.6 72 200 72zM152 376h-48v-48c0-4.406-3.595-8.008-8.001-8.008S88 323.6 88 328v48h-48c-4.406 0-8 3.584-8 7.99s3.594 8.01 8 8.01h48v48c0 4.406 3.593 7.989 7.999 7.989S104 444.4 104 440v-48h48c4.406 0 7.999-3.604 7.999-8.01S156.4 376 152 376z"/></svg>