<svg xmlns="http://www.w3.org/2000/svg" viewBox="0 0 640 512"><!--! Font Awesome Pro 6.0.0-alpha3 by @fontawesome - https://fontawesome.com License - https://fontawesome.com/license (Commercial License) --><path d="M8 223.1c-4.406 0-8 3.594-8 8s3.594 8 8 8c145.6 0 264 118.4 264 264C272 508.4 275.6 512 280 512S288 508.4 288 503.1C288 349.6 162.4 223.1 8 223.1zM8 319.1c-4.406 0-8 3.594-8 8s3.594 8 8 8c92.63 0 168 75.38 168 168C176 508.4 179.6 512 184 512S192 508.4 192 503.1C192 402.5 109.5 319.1 8 319.1zM8 415.1c-4.406 0-8 3.594-8 8s3.594 8 8 8c39.69 0 72 32.31 72 72C80 508.4 83.59 512 88 512S96 508.4 96 503.1C96 455.5 56.53 415.1 8 415.1zM432 295.1c13.22 0 24-10.78 24-24v-64c0-13.22-10.78-24-24-24h-64c-13.22 0-24 10.78-24 24v64c0 13.22 10.78 24 24 24H432zM360 271.1v-64c0-4.406 3.594-8 8-8h64c4.406 0 8 3.594 8 8v64c0 4.406-3.594 8-8 8h-64C363.6 279.1 360 276.4 360 271.1zM640 216c0-2.199-.8962-4.397-2.656-5.99l-232-208c-1.531-1.344-3.406-2.016-5.312-2.016s-3.844 .6726-5.375 2.016l-232 208C160.9 211.6 160 213.8 160 216c0 4.435 3.548 7.932 7.983 7.932c1.905 0 3.819-.6602 5.36-1.984L224 176.5v87.45c0 4.418 3.582 8 7.1 8S240 268.4 240 263.1V162.2l160-143.5l160 143.5v213.8c0 13.2-10.8 24-24 24h-208c-4.418 0-8 3.582-8 8c0 4.418 3.582 8 8 8h208c22.09 0 40-17.91 40-40V176.5l50.66 45.42C628.2 223.3 630.1 223.1 632 223.1C636.4 223.1 640 220.5 640 216z"/></svg>