<svg xmlns="http://www.w3.org/2000/svg" viewBox="0 0 640 512"><!--! Font Awesome Pro 6.0.0-alpha3 by @fontawesome - https://fontawesome.com License - https://fontawesome.com/license (Commercial License) --><path d="M622.9 242.8l-151.4-137.7C464.8 99.03 456.4 96 447.1 96s-16.83 3.031-23.48 9.084L273.1 242.7C262.2 252.6 256 266.7 256 281.4v195.7c0 19.28 15.63 34.91 34.91 34.91h314.2c19.28 0 34.91-15.6 34.91-34.88L640 281.2C639.1 266.5 633.8 252.7 622.9 242.8zM623.1 477.1C623.1 487.5 615.5 496 605.1 496H290.9C280.5 496 272 487.5 272 477.1V281.4c0-10.22 4.338-20.03 11.9-26.91l151.4-137.6c3.488-3.17 8.004-4.918 12.72-4.918c4.713 0 9.229 1.748 12.72 4.92l151.4 137.6C619.7 261.4 623.1 271.2 624 281.3L623.1 477.1zM480 264h-64c-13.22 0-24 10.78-24 24v64c0 13.22 10.78 24 24 24h64c13.22 0 24-10.78 24-24V288C504 274.8 493.2 264 480 264zM488 352c0 4.5-3.5 8-8 8h-64c-4.5 0-8-3.5-8-8V288c0-4.5 3.5-8 8-8h64c4.5 0 8 3.5 8 8V352zM336 128c0 4.406 3.594 8 8 8S352 132.3 352 127.8V8C352 3.594 348.4 0 344 0H8C3.594 0 0 3.594 0 8v195.8c0 9.812 3.594 19.28 10.12 26.56L64 291V504C64 508.4 67.59 512 72 512s8-3.594 8-8V288c0-1.969-.7187-3.844-2.031-5.312L22.06 219.8C18.16 215.4 16 209.8 16 203.8V16h96v72C112 92.41 115.6 96 120 96S128 92.41 128 88V16.01h96V88C224 92.41 227.6 96 232 96S240 92.41 240 88V16h96V128zM176 128C149.5 128 128 149.5 128 176V224c0 8.836 7.164 16 16 16h64C216.8 240 224 232.8 224 224V176C224 149.5 202.5 128 176 128zM208 224h-64V176c0-17.64 14.36-32 32-32s32 14.36 32 32V224z"/></svg>