<svg xmlns="http://www.w3.org/2000/svg" viewBox="0 0 576 512"><!--! Font Awesome Pro 6.0.0-alpha3 by @fontawesome - https://fontawesome.com License - https://fontawesome.com/license (Commercial License) --><path d="M279.5 242.9C267.6 230.6 251.5 223.1 235.5 223.1c-35.1 0-57.2 30.26-57.2 59.66c0 15.42 5.684 30.83 17.06 42.6l82.82 85.59c2.707 2.805 6.229 4.152 9.8 4.152c3.572 0 7.091-1.347 9.8-4.152l82.87-85.59c11.4-11.78 17.07-27.16 17.07-42.59c0-29.38-22.16-59.67-57.23-59.67c-16.07 0-32.23 6.604-44.1 18.85L287.1 251.6L279.5 242.9zM307.9 253.1c8.594-8.871 20.5-13.96 32.66-13.96c25.2 0 41.12 21.71 41.12 43.54c0 11.81-4.529 23.2-12.6 31.54l-81.13 83.89L206.9 315.1C198.8 306.8 194.3 295.4 194.3 283.6c0-.6846 .0152-1.371 .0459-2.057c.5978-13.46 11.1-41.51 41.08-41.51c12.17 0 24.07 5.086 32.67 13.96L288 274.5L307.9 253.1zM575.1 255.1c0-2.202-.9068-4.407-2.687-5.986l-61.31-54.3l-.0057-147.7c0-8.836-7.164-15.1-15.1-15.1l-95.1 .0074c-8.836 0-15.1 7.164-15.1 15.1l.001 34.34l-90.69-80.32c-1.517-1.343-3.415-2.011-5.313-2.011c-1.898 0-3.796 .6679-5.312 2.011L2.689 250c-1.78 1.579-2.687 3.784-2.687 5.986c0 4.321 3.481 7.985 7.971 7.985c1.897 0 3.804-.6679 5.341-2.002l50.69-44.17l.013 230.2c0 35.35 28.65 63.1 63.1 63.1h319.1c35.35 0 63.1-28.65 63.1-63.1l.0042-230.2L562.7 261.1c1.531 1.344 3.406 2.016 5.312 2.016C572.5 263.1 575.1 260.4 575.1 255.1zM495.1 447.1c0 26.51-21.49 47.1-47.1 47.1H127.1c-26.51 0-47.1-21.49-47.1-47.1V203.6L288 18.7l207.1 184.9V447.1zM496 181.5l-96-85.03V47.1h96V181.5z"/></svg>