<svg xmlns="http://www.w3.org/2000/svg" viewBox="0 0 640 512"><!--! Font Awesome Pro 6.0.0-alpha3 by @fontawesome - https://fontawesome.com License - https://fontawesome.com/license (Commercial License) --><path d="M272 408c0-4.418-3.582-7.1-8-7.1h-160c-13.2 0-24-10.8-24-24V162.2l160-143.5l160 143.5v53.8c0 4.418 3.582 7.1 8 7.1S416 220.4 416 216V176.5l50.66 45.42c1.542 1.323 3.455 1.984 5.36 1.984c4.443 0 7.983-3.508 7.983-7.935c0-2.199-.8962-4.393-2.656-5.986l-232-208c-1.531-1.344-3.44-2.018-5.346-2.018s-3.81 .674-5.341 2.018l-231.1 208c-1.76 1.592-2.657 3.787-2.657 5.986c0 4.455 3.621 7.983 8.001 7.983c1.906 0 3.812-.6875 5.344-2.031L64 176.5v199.5c0 22.09 17.91 40 40 40h160C268.4 416 272 412.4 272 408zM632 448l-40 .0004V296c0-22.06-17.94-39.1-40-39.1h-208c-22.06 0-40 17.94-40 39.1v151.1l-40-.0004c-4.422 0-8 3.594-8 7.1v15.1c0 22.06 17.94 39.1 40 39.1h304c22.06 0 40-17.94 40-39.1v-15.1C640 451.6 636.4 448 632 448zM320 296c0-13.22 10.77-23.1 24-23.1h208c13.23 0 24 10.78 24 23.1v151.1h-256V296zM624 472c0 13.22-10.77 23.1-24 23.1h-304c-13.23 0-24-10.78-24-23.1v-7.1h352V472zM288 240c4.418 0 8-3.582 8-7.1V207.1c0-13.2-10.8-23.1-24-23.1h-64c-13.2 0-24 10.8-24 23.1v64c0 13.2 10.8 24 24 24H264c4.418 0 7.997-3.581 7.997-7.999c0-4.418-3.579-8.003-7.997-8.003H208c-4.4 0-8-3.6-8-7.1V207.1c0-4.4 3.6-7.1 8-7.1h64c4.4 0 8 3.6 8 7.1v24.01C280 236.4 283.6 240 288 240z"/></svg>