<svg xmlns="http://www.w3.org/2000/svg" viewBox="0 0 640 512"><!--! Font Awesome Pro 6.0.0-alpha3 by @fontawesome - https://fontawesome.com License - https://fontawesome.com/license (Commercial License) --><path d="M215.5 105.1C208.8 99.03 200.4 96 191.1 96S175.2 99.03 168.5 105.1L17.14 242.7C6.223 252.6 0 266.7 0 281.4l0 195.7c0 19.28 15.63 34.91 34.91 34.91h314.2c19.28 0 34.91-15.6 34.91-34.88L384 281.2c-.002-14.73-6.179-28.55-17.08-38.46L215.5 105.1zM367.1 477.1C367.1 487.5 359.5 496 349.1 496H34.91C24.48 496 16 487.5 16 477.1V281.4c0-10.22 4.338-20.03 11.9-26.91L179.3 116.9C182.8 113.7 187.3 111.1 191.1 111.1c4.713 0 9.229 1.748 12.72 4.92l151.4 137.6C363.7 261.4 367.1 271.2 368 281.3L367.1 477.1zM224 264H160C146.8 264 136 274.8 136 288v64c0 13.22 10.78 24 24 24h64c13.22 0 24-10.78 24-24V288C248 274.8 237.2 264 224 264zM232 352c0 4.5-3.5 8-8 8H160c-4.5 0-8-3.5-8-8V288c0-4.5 3.5-8 8-8h64c4.5 0 8 3.5 8 8V352zM629.9 444.1l-75.55-87.21h17.34c14.75 0 27.72-8.196 33.84-21.43c6.031-12.98 3.1-27.84-5.249-38.82l-80.65-94.91h26.03c13.19 0 24.97-7.351 29.93-18.71c4.593-10.45 2.562-22.27-5.312-30.84L439.6 10.13c-12.25-13.51-36.9-13.48-49.09-.0313L298.1 110.5C295.1 113.8 295.3 118.9 298.6 121.8c3.25 3.066 8.343 2.815 11.28-.4692l92.4-100.5c6.249-6.819 19.22-6.851 25.53 .0313l130.7 142c3.625 3.941 4.5 8.884 2.469 13.58c-1.937 4.411-6.999 9.134-15.31 9.134h-43.34c-3.125 0-5.968 1.814-7.249 4.661c-1.312 2.815-.8749 6.162 1.156 8.54l91.83 108.1c5.281 6.256 6.374 14.36 2.968 21.71c-3.531 7.633-10.78 12.17-19.34 12.17H536.8c-3.125 0-5.968 1.846-7.281 4.692c-1.312 2.847-.8124 6.194 1.25 8.571l87.05 100.5c7.78 9.009 7.062 19.93 3.75 27.12c-4.062 8.946-12.22 14.3-21.81 14.3h-175.8c-4.406 0-7.999 3.597-7.999 8.008c0 4.411 3.593 8.008 7.999 8.008h175.8c15.78 0 29.72-9.072 36.37-23.65C642.1 473.4 640.6 456.4 629.9 444.1z"/></svg>