<svg xmlns="http://www.w3.org/2000/svg" viewBox="0 0 640 512"><!--! Font Awesome Pro 6.0.0-alpha3 by @fontawesome - https://fontawesome.com License - https://fontawesome.com/license (Commercial License) --><path d="M600 0h-240C337.9 0 320 17.94 320 40v112C320 156.4 323.6 160 328 160s8-3.594 8-8v-112c0-13.22 10.78-24 24-24h240c13.22 0 24 10.78 24 24v464c0 4.406 3.594 8 8 8S640 508.4 640 504V40C640 17.94 622.1 0 600 0zM552 208h-32c-13.22 0-24 10.78-24 24v32C496 277.2 506.8 288 520 288h32C565.2 288 576 277.2 576 264v-32C576 218.8 565.2 208 552 208zM560 264c0 4.5-3.5 8-8 8h-32C515.5 272 512 268.5 512 264v-32C512 227.5 515.5 224 520 224h32c4.5 0 8 3.5 8 8V264zM440 320h-16C419.6 320 416 323.6 416 328s3.582 8 8 8h16c4.418 0 8 3.582 8 8v32c0 4.418-3.582 8-8 8h-16C419.6 384 416 387.6 416 392s3.582 8 8 8h16c13.2 0 24-10.8 24-24v-32C464 330.8 453.2 320 440 320zM224 264H160C146.8 264 136 274.8 136 288v64c0 13.22 10.78 24 24 24h64c13.22 0 24-10.78 24-24V288C248 274.8 237.2 264 224 264zM232 352c0 4.5-3.5 8-8 8H160c-4.5 0-8-3.5-8-8V288c0-4.5 3.5-8 8-8h64c4.5 0 8 3.5 8 8V352zM215.5 105.1C208.8 99.03 200.4 96 191.1 96S175.2 99.03 168.5 105.1L17.14 242.7C6.223 252.6 0 266.7 0 281.4v195.7c0 19.28 15.63 34.91 34.91 34.91h314.2c19.28 0 34.91-15.6 34.91-34.88L384 281.2c-.002-14.73-6.179-28.55-17.08-38.46L215.5 105.1zM367.1 477.1C367.1 487.5 359.5 496 349.1 496H34.91C24.48 496 16 487.5 16 477.1V281.4c0-10.22 4.338-20.03 11.9-26.91L179.3 116.9C182.8 113.7 187.3 111.1 191.1 111.1c4.713 0 9.229 1.748 12.72 4.92l151.4 137.6C363.7 261.4 367.1 271.2 368 281.3L367.1 477.1zM440 208h-32c-5.42 0-10.28 1.924-14.2 5.051c-3.438 2.742-3.664 7.924-.7344 11.2c2.547 2.848 6.975 3.73 10 1.398C404.4 224.6 406.1 224 408 224h32C444.4 224 448 227.6 448 232v32c0 4.418-3.582 8-8 8h-16C419.6 272 416 275.6 416 280S419.6 288 424 288h16c13.2 0 24-10.8 24-24v-32C464 218.8 453.2 208 440 208zM552 320h-32c-13.22 0-24 10.78-24 24v32c0 13.22 10.78 24 24 24h32c13.22 0 24-10.78 24-24v-32C576 330.8 565.2 320 552 320zM560 376c0 4.5-3.5 8-8 8h-32C515.5 384 512 380.5 512 376v-32c0-4.5 3.5-8 8-8h32c4.5 0 8 3.5 8 8V376zM440 96h-32C394.8 96 384 106.8 384 120v32c0 13.22 10.78 24 24 24h32c13.22 0 24-10.78 24-24v-32C464 106.8 453.2 96 440 96zM448 152C448 156.5 444.5 160 440 160h-32c-4.5 0-8-3.5-8-8v-32c0-4.5 3.5-8 8-8h32C444.5 112 448 115.5 448 120V152zM552 96h-32c-13.22 0-24 10.78-24 24v32c0 13.22 10.78 24 24 24h32C565.2 176 576 165.2 576 152v-32C576 106.8 565.2 96 552 96zM560 152C560 156.5 556.5 160 552 160h-32C515.5 160 512 156.5 512 152v-32c0-4.5 3.5-8 8-8h32c4.5 0 8 3.5 8 8V152z"/></svg>