<svg xmlns="http://www.w3.org/2000/svg" viewBox="0 0 384 512"><!--! Font Awesome Pro 6.0.0-alpha3 by @fontawesome - https://fontawesome.com License - https://fontawesome.com/license (Commercial License) --><path d="M384 296c0 4.422-3.578 8-8 8H121.7L107.8 311.7C80.36 326.8 64 352.1 64 381.6C64 427 105.6 464 156.7 464h49.38c35.66 0 70.53-12.94 95.69-35.52c3.281-2.969 8.328-2.719 11.3 .6094c2.953 3.281 2.672 8.344-.6094 11.3C283.1 465.9 246.2 480 206 480H156.7C96.75 480 48 435.9 48 381.6C48 351.3 63.92 322.5 90.1 304H8C3.578 304 0 300.4 0 296S3.578 288 8 288h109.5l144.8-80H8C3.578 208 0 204.4 0 200S3.578 192 8 192h279.8C307.8 176.5 320 154.5 320 130.4C320 84.95 278.4 48 227.3 48H177.1c-35.66 0-70.53 12.94-95.69 35.52c-3.312 2.922-8.359 2.672-11.3-.6094C68.02 79.63 68.3 74.56 71.58 71.61C100 46.06 137.8 32 177.1 32h49.38C287.3 32 336 76.13 336 130.4C336 153 327 174.7 311.7 192H376C380.4 192 384 195.6 384 200S380.4 208 376 208h-82.1c-3.184 2.244-6.451 4.408-9.93 6.328L150.6 288H376C380.4 288 384 291.6 384 296z"/></svg>