<svg xmlns="http://www.w3.org/2000/svg" viewBox="0 0 448 512"><!--! Font Awesome Pro 6.0.0-alpha3 by @fontawesome - https://fontawesome.com License - https://fontawesome.com/license (Commercial License) --><path d="M344 287.9c-2.946 0-5.809 1.646-7.205 4.504l-93.22 191.2C240.1 491.2 232.4 495.1 224 495.1s-16.09-4.845-19.66-12.44L111.2 292.5C109.8 289.6 106.9 287.9 104 287.9c-4.125 0-8.003 3.348-8.003 8.016c0 1.178 .2616 2.374 .8132 3.504l93.09 190.1C196 503.5 209.4 511.1 224 511.1s27.98-8.47 34.03-21.44l93.16-191.1c.5517-1.13 .8132-2.326 .8132-3.504C352 291.2 348.1 287.9 344 287.9zM369.7 150.6c.1486-2.612 .2222-5.22 .2222-7.821c0-36.87-29.92-142.8-145.1-142.8c-117.1 0-145.1 106.2-145.1 142.8c0 2.601 .0736 5.209 .2222 7.821C52.14 154.3 32 176.4 32 202.1c0 29.19 24.22 52.95 53.1 52.95h276C391.8 255.9 416 232.2 416 202.1C416 176.4 395.9 154.3 369.7 150.6zM361.1 239.9h-276C65.05 239.9 48 223.4 48 202.1s17.05-36.95 38.95-36.95h9L94.89 157.1c-.5681-4.792-.8469-9.58-.8469-14.34c0-69.03 56.93-126.7 129.1-126.7c72.9 0 129.1 57.62 129.1 126.7c0 4.763-.2788 9.551-.8469 14.34l-1.062 8.939h9.953C382.1 166.1 400 182.6 400 202.1S382.1 239.9 361.1 239.9z"/></svg>