<svg xmlns="http://www.w3.org/2000/svg" viewBox="0 0 576 512"><!--! Font Awesome Pro 6.0.0-alpha3 by @fontawesome - https://fontawesome.com License - https://fontawesome.com/license (Commercial License) --><path d="M288 32C128.9 32 .0003 160.9 .0003 319.1L0 416c0 35.35 28.65 64 64 64h448c35.35 0 64-28.65 64-64l-.0003-96.01C575.1 160.9 447.1 32 288 32zM336 52.5C412.8 66.25 478.3 112.2 518.3 176H336V52.5zM288 48c10.84 0 21.48 .8125 32 2.055V176H57.67C105.8 99.27 190.9 48 288 48zM16 320c0-46.26 11.67-89.82 32.13-128H112v144h-96V320zM176 384v80H64c-26.47 0-48-21.53-48-48v-64h165.2C178.2 362.2 176 372.8 176 384zM384 464H192V384c0-52.94 43.06-96 96-96s96 43.06 96 96V464zM288 272c-44.51 0-82.72 26.3-100.8 64H128V191.1h320V336h-59.23C370.7 298.3 332.5 272 288 272zM560 416c0 26.47-21.53 48-48 48h-112V384c0-11.2-2.15-21.79-5.223-32H560V416zM560 336h-96V192h63.87C548.3 230.2 560 273.7 560 320V336z"/></svg>