<svg xmlns="http://www.w3.org/2000/svg" viewBox="0 0 448 512"><!--! Font Awesome Pro 6.0.0-alpha3 by @fontawesome - https://fontawesome.com License - https://fontawesome.com/license (Commercial License) --><path d="M8 71.1h432c4.406 0 8-3.594 8-7.1s-3.594-8-8-8H8c-4.406 0-8 3.594-8 8S3.594 71.1 8 71.1zM440 311.1h-240c-4.406 0-8 3.594-8 8s3.594 7.1 8 7.1h240c4.406 0 8-3.594 8-7.1S444.4 311.1 440 311.1zM440 183.1h-240c-4.406 0-8 3.594-8 8s3.594 7.1 8 7.1h240c4.406 0 8-3.594 8-7.1S444.4 183.1 440 183.1zM12.5 349.8c2.938 1.469 6.125 2.219 9.5 2.219c5.282 0 10.34-1.938 14.22-5.375l84-73.34C125.2 268.1 128 262.7 128 255.1S125.2 243 120.2 238.7L36.25 165.4c-6.5-5.719-15.78-7-23.75-3.188C4.906 165.1 0 174 0 182.7v146.7C0 338 4.906 346 12.5 349.8zM16 182.7c0-2.625 1.406-5.031 3.5-6.062c2.906-1.289 5.008-.1953 6.219 .8438l84 73.34C111.2 252 112 253.1 112 255.1S111.2 259.1 109.7 261.2l-84.06 73.41c-2.406 2.156-4.5 1.562-6.031 .8438C17.41 334.4 16 331.1 16 329.3V182.7zM440 439.1H8c-4.406 0-8 3.594-8 8s3.594 7.1 8 7.1h432c4.406 0 8-3.594 8-7.1S444.4 439.1 440 439.1z"/></svg>