<svg xmlns="http://www.w3.org/2000/svg" viewBox="0 0 320 512"><!--! Font Awesome Pro 6.0.0-alpha3 by @fontawesome - https://fontawesome.com License - https://fontawesome.com/license (Commercial License) --><path d="M320 176c0 4.406-3.578 8-8 8h-56.81c-4.178 74.41-64.6 133.7-139.6 135.6l153.9 146.6c3.203 3.031 3.328 8.094 .2813 11.31C268.2 479.2 266.1 480 264 480c-1.984 0-3.969-.7187-5.516-2.219L92.81 320H8C3.578 320 0 316.4 0 312S3.578 304 8 304H112c67.84 0 122.1-53.2 127.2-120H8C3.578 184 0 180.4 0 176s3.578-8 8-8h231.2C234.1 101.2 179.8 48 112 48H8C3.578 48 0 44.41 0 40S3.578 32 8 32h304C316.4 32 320 35.59 320 40S316.4 48 312 48h-135.4c44.6 22.61 75.65 67.39 78.61 120H312C316.4 168 320 171.6 320 176z"/></svg>