<svg xmlns="http://www.w3.org/2000/svg" viewBox="0 0 512 512"><!--! Font Awesome Pro 6.0.0-alpha3 by @fontawesome - https://fontawesome.com License - https://fontawesome.com/license (Commercial License) --><path d="M487.9 127.1c-4.297 0-8.707 1.171-12.8 3.761L336 223.1V152c0-14.05-11.57-24.01-24.08-24.01c-4.297-.0039-8.707 1.171-12.8 3.76L160 223.1v-160c0-17.67-14.33-32-32-32H32c-17.67 0-32 14.33-32 32v384c0 17.67 14.33 32 32 32h448c17.67 0 32-14.33 32-32V152C512 137.1 500.4 127.1 487.9 127.1zM496 447.1c0 8.824-7.176 16-16 16H32c-8.824 0-16-7.176-16-16v-384c0-8.824 7.176-16 16-16h96c8.824 0 16 7.176 16 16v160c0 5.895 3.238 11.31 8.434 14.1C154.8 239.4 157.4 239.1 160 239.1c3.09 0 6.172-.8945 8.84-2.664l138.8-92.05c1.348-.8516 2.773-1.281 4.238-1.281C315.8 143.1 320 147.1 320 152v71.99c0 5.895 3.238 11.31 8.434 14.1C330.8 239.4 333.4 239.1 336 239.1c3.09 0 6.172-.8945 8.84-2.664l138.8-92.05c1.348-.8516 2.773-1.281 4.242-1.281C491.8 143.1 496 147.1 496 152V447.1zM404 311.1h-40c-11.03 0-20 8.969-20 20v40c0 11.03 8.969 20 20 20h40c11.03 0 20-8.969 20-20v-40C424 320.1 415 311.1 404 311.1zM408 371.1c0 2.219-1.781 4-4 4h-40c-2.219 0-4-1.781-4-4v-40c0-2.219 1.781-4 4-4h40c2.219 0 4 1.781 4 4V371.1zM276 311.1h-40c-11.03 0-20 8.969-20 20v40c0 11.03 8.969 20 20 20h40c11.03 0 20-8.969 20-20v-40C296 320.1 287 311.1 276 311.1zM280 371.1c0 2.219-1.781 4-4 4h-40c-2.219 0-4-1.781-4-4v-40c0-2.219 1.781-4 4-4h40c2.219 0 4 1.781 4 4V371.1zM148 311.1h-40c-11.03 0-20 8.969-20 20v40c0 11.03 8.969 20 20 20h40c11.03 0 20-8.969 20-20v-40C168 320.1 159 311.1 148 311.1zM152 371.1c0 2.219-1.781 4-4 4h-40c-2.219 0-4-1.781-4-4v-40c0-2.219 1.781-4 4-4h40c2.219 0 4 1.781 4 4V371.1z"/></svg>