<svg xmlns="http://www.w3.org/2000/svg" viewBox="0 0 640 512"><!--! Font Awesome Pro 6.0.0-alpha3 by @fontawesome - https://fontawesome.com License - https://fontawesome.com/license (Commercial License) --><path d="M576 64H63.1C28.65 64 0 92.65 0 128v256c0 35.35 28.65 64 63.1 64H576C611.3 448 640 419.3 640 384V128C640 92.65 611.3 64 576 64zM624 384c0 26.47-21.53 48-47.1 48H63.1C37.53 432 16 410.5 16 384V128c0-26.47 21.53-48 47.1-48H576C602.5 80 624 101.5 624 128V384zM112 168c-4.406 0-8 3.578-8 8v160c0 4.406 3.594 8 8 8s8-3.594 8-8v-160C120 171.6 116.4 168 112 168z"/></svg>