<svg xmlns="http://www.w3.org/2000/svg" viewBox="0 0 640 512"><!--! Font Awesome Pro 6.0.0-alpha3 by @fontawesome - https://fontawesome.com License - https://fontawesome.com/license (Commercial License) --><path d="M576 64H63.1C28.65 64 0 92.65 0 128v256c0 35.35 28.65 64 63.1 64H576C611.3 448 640 419.3 640 384V128C640 92.65 611.3 64 576 64zM624 384c0 26.47-21.53 48-47.1 48H63.1C37.53 432 16 410.5 16 384V128c0-26.47 21.53-48 47.1-48H576C602.5 80 624 101.5 624 128V384zM392.8 251C402.2 242.3 408 229.8 408 216c0-26.47-21.53-48-48-48H304c-4.406 0-8 3.578-8 8v160c0 4.406 3.594 8 8 8h72c26.47 0 48-21.53 48-48C424 275.4 411 257.8 392.8 251zM312 184h48c17.66 0 32 14.36 32 32s-14.34 32-32 32h-48V184zM376 328h-64v-64h64c17.66 0 32 14.36 32 32C408 313.7 393.7 328 376 328zM168.6 173l-64 160c-1.625 4.094 .375 8.75 4.469 10.41c4.094 1.594 8.781-.3438 10.41-4.469L136.6 296h78.75l17.19 42.97C233.8 342.1 236.8 344 240 344c1 0 1.1-.1875 2.969-.5625c4.094-1.656 6.094-6.312 4.469-10.41l-64-160C181 166.9 171 166.9 168.6 173zM143 280L176 197.5L208.1 280H143z"/></svg>