<svg xmlns="http://www.w3.org/2000/svg" viewBox="0 0 640 512"><!--! Font Awesome Pro 6.0.0-alpha3 by @fontawesome - https://fontawesome.com License - https://fontawesome.com/license (Commercial License) --><path d="M576 64H63.1C28.65 64 0 92.65 0 128v256c0 35.35 28.65 64 63.1 64H576C611.3 448 640 419.3 640 384V128C640 92.65 611.3 64 576 64zM624 384c0 26.47-21.53 48-47.1 48H63.1C37.53 432 16 410.5 16 384V128c0-26.47 21.53-48 47.1-48H576C602.5 80 624 101.5 624 128V384zM336 328H258.3l63.11-68.08c15.09-16.27 18.92-39.06 10.02-59.5C322.7 180.4 303.9 168 282.4 168c-17.92 0-34.83 11.27-44.13 29.42C236.2 201.3 237.8 206.2 241.7 208.2c3.891 1.984 8.719 .4531 10.77-3.484C259.1 191.7 270.3 184 282.4 184c15.08 0 28.27 8.75 34.41 22.81c4.969 11.39 5.719 28.45-7.062 42.23l-75.58 81.52c-2.172 2.344-2.75 5.719-1.469 8.625C233.9 342.1 236.8 344 240 344h96c4.422 0 8-3.594 8-8S340.4 328 336 328zM176 328H152V176c0-4.422-3.578-8-8-8h-32c-4.422 0-8 3.578-8 8S107.6 184 112 184h24v144H112c-4.422 0-8 3.594-8 8s3.578 8 8 8h64c4.422 0 8-3.594 8-8S180.4 328 176 328z"/></svg>