<svg xmlns="http://www.w3.org/2000/svg" viewBox="0 0 640 512"><!--! Font Awesome Pro 6.0.0-alpha3 by @fontawesome - https://fontawesome.com License - https://fontawesome.com/license (Commercial License) --><path d="M623.2 233.4l-148.5-45.25C465.8 185.5 454.8 184 444.8 184h-58.56L252.1 16H288c4.406 0 8-3.594 8-8S292.4 0 288 0H200C195.6 0 192 3.594 192 8v176H152.1L112.4 136.6C107.8 131.1 101.1 128 93.1 128H55.19c-13.22 0-24 10.78-24 24V208H23.59C10.59 208 0 218.6 0 231.6v48.81C0 293.4 10.59 304 23.59 304h7.594v56c0 13.22 10.78 24 24 24h38.81c7.126 0 13.81-3.125 18.38-8.594L152.1 328H192v176C192 508.4 195.6 512 200 512H288c4.406 0 8-3.594 8-8S292.4 496 288 496H252.1l134.2-168h58.56c10.06 0 20.94-1.5 29.91-4.156l148.3-45.19C633.4 275.6 640 266.7 640 256S633.4 236.4 623.2 233.4zM208 16h23.59l134.2 168H208V16zM231.6 496H208v-168h157.8L231.6 496zM618.5 263.3l-148.4 45.22C462.6 310.7 453.4 312 444.8 312H148.4c-2.375 0-4.625 1.062-6.125 2.875l-42.16 50.28C98.59 366.1 96.38 368 93.1 368H55.19c-4.406 0-8-3.594-8-8v-64c0-4.406-3.594-8-8-8H23.59C19.41 288 16 284.6 16 280.4V231.6C16 227.4 19.41 224 23.59 224h15.59c4.406 0 8-3.594 8-8v-64c0-4.406 3.594-8 8-8h38.81c2.376 0 4.594 1.031 6.126 2.844l42.16 50.28C143.8 198.9 146 200 148.4 200h296.4c8.562 0 17.81 1.281 25.25 3.469l148.5 45.25C623.6 250.2 624 254.7 624 256S623.6 261.8 618.5 263.3zM152 248H72C67.59 248 64 251.6 64 256s3.594 8 7.1 8h79.1c4.406 0 7.1-3.594 7.1-8S156.4 248 152 248z"/></svg>