<svg xmlns="http://www.w3.org/2000/svg" viewBox="0 0 576 512"><!--! Font Awesome Pro 6.0.0-alpha3 by @fontawesome - https://fontawesome.com License - https://fontawesome.com/license (Commercial License) --><path d="M554.1 83.5L318.4 4.875C308.5 1.625 298.3 0 288 0S267.5 1.625 257.6 4.875L21.88 83.5C8.875 87.87 0 100.1 0 113.9v310.8c0 15 10.38 28 25 31.25l242.1 53.88C273.1 511.2 281 511.1 288 511.1s13.1-.75 20.88-2.25l242.1-53.88C565.6 452.6 576 439.6 576 424.6V113.9C576 100.1 567.3 87.87 554.1 83.5zM560 424.6c0 7.57-5.129 14-12.48 15.63l-242.1 53.86C299.7 495.4 293.9 495.1 288 495.1s-11.74-.6328-17.4-1.867l-242.1-53.88C21.13 438.6 16 432.2 16 424.6V182.4l251.3-75.39c13.5-4.062 27.88-4.062 41.38 0L560 182.4V424.6zM560 165.7l-246.7-74.01c-16.56-5-34.06-5-50.63 0L16 165.7V113.9c0-6.887 4.412-13 10.94-15.2l235.7-78.61C270.8 17.37 279.4 15.1 288 15.1s17.16 1.371 25.31 4.055l235.8 78.63C555.6 100.9 560 106.1 560 113.9V165.7zM115.8 216.1L45.91 236.1C41.63 237.2 39.13 241.6 40.28 245.9C41.25 249.4 44.47 251.6 48 251.6c.6875 0 1.406 .0468 2.094-.1407l69.88-19.09c4.281-1.156 6.781-5.562 5.625-9.812S120.1 215.8 115.8 216.1zM259.8 177.7l-96 26.25C159.5 205.1 157 209.5 158.2 213.8c.9687 3.531 4.188 5.875 7.719 5.875c.6875 0 1.406-.0938 2.125-.2813l96-26.25c4.25-1.156 6.75-5.562 5.594-9.844C268.4 179.1 264.2 176.6 259.8 177.7zM456 232.4l69.88 19.09C526.6 251.7 527.3 251.6 528 251.6c3.531 0 6.75-2.203 7.719-5.766c1.156-4.25-1.344-8.656-5.625-9.812l-69.88-19.09c-4.156-1.125-8.656 1.375-9.812 5.625S451.8 231.2 456 232.4zM312 193.2l96 26.25c.7187 .1875 1.438 .2813 2.125 .2813c3.531 0 6.75-2.344 7.719-5.875c1.156-4.281-1.344-8.688-5.594-9.844l-96-26.25c-4.406-1.094-8.688 1.375-9.844 5.594C305.3 187.6 307.8 191.1 312 193.2z"/></svg>