<svg xmlns="http://www.w3.org/2000/svg" viewBox="0 0 512 512"><!--! Font Awesome Pro 6.0.0-alpha3 by @fontawesome - https://fontawesome.com License - https://fontawesome.com/license (Commercial License) --><path d="M416 0h-96c-53.02 0-96 42.98-96 96v96c0 23.62 8.857 44.96 23 61.68l-244.7 244.7c-3.125 3.125-3.125 8.188 0 11.31C3.906 511.2 5.938 512 8 512s4.094-.7813 5.656-2.344l46.06-46.06l41.38 41.38C105.8 509.7 111.9 512 118.1 512s12.28-2.344 16.97-7.031l49.44-49.44c9.344-9.344 9.344-24.59 0-33.94l-41.38-41.38l115.2-115.2C275 279.1 296.4 288 320 288h96c53.02 0 96-42.98 96-96V96C512 42.98 469 0 416 0zM173.2 432.9c3.125 3.125 3.125 8.188 0 11.31l-49.44 49.44c-3.125 3.125-8.188 3.125-11.31 0l-41.38-41.38l60.75-60.75L173.2 432.9zM496 192c0 44.11-35.89 80-80 80h-96c-44.11 0-80-35.89-80-80V96c0-44.11 35.89-80 80-80h96c44.11 0 80 35.89 80 80V192zM416 64h-96c-17.67 0-32 14.33-32 32v96c0 17.67 14.33 32 32 32h96c17.67 0 32-14.33 32-32V96C448 78.33 433.7 64 416 64zM432 192c0 8.822-7.178 16-16 16h-96c-8.822 0-16-7.178-16-16V96c0-8.822 7.178-16 16-16h96c8.822 0 16 7.178 16 16V192z"/></svg>