<svg xmlns="http://www.w3.org/2000/svg" viewBox="0 0 384 512"><!--! Font Awesome Pro 6.0.0-alpha3 by @fontawesome - https://fontawesome.com License - https://fontawesome.com/license (Commercial License) --><path d="M384 256C384 260.4 380.4 264 376 264H117.4l231.9 201.1c3.344 2.906 3.688 7.969 .7813 11.28C348.4 479.1 346.2 480 344 480c-1.875 0-3.75-.6562-5.25-1.969L104 273.6V472c0 4.406-3.595 8-8.002 8S88 476.4 88 472v-208h-80C3.594 264 0 260.4 0 256C0 251.6 3.594 248 8 248h80v-208C88 35.59 91.59 32 95.1 32S104 35.59 104 40v198.4l234.8-204.5c3.281-2.875 8.344-2.562 11.28 .7813c2.906 3.312 2.562 8.375-.7813 11.28L117.4 248H376C380.4 248 384 251.6 384 256z"/></svg>