<svg xmlns="http://www.w3.org/2000/svg" viewBox="0 0 640 512"><!--! Font Awesome Pro 6.0.0-alpha3 by @fontawesome - https://fontawesome.com License - https://fontawesome.com/license (Commercial License) --><path d="M600 0h-256.6c-14.98 0-27.81 10.19-31.19 24.78L224.7 403.1l-84.43 84.43C135.4 493.3 128.9 496 121.9 496C107.6 496 96 484.4 96 470.1V317.7l57.3 32.33C155.6 351.3 158.2 352 160.8 352c2.609 0 5.203-.6875 7.578-2.062C173.1 347.2 176 342.1 176 336.5V271.5c0-5.625-2.875-10.69-7.672-13.47C163.6 255.3 158 255.3 153.3 257.1L96 290.3V232C96 183.5 56.53 144 8 144C3.578 144 0 147.6 0 152S3.578 160 8 160C47.7 160 80 192.3 80 232v58.3L22.7 257.1C17.98 255.3 12.39 255.4 7.672 258.1C2.875 260.8 0 265.8 0 271.4v65.16c0 5.625 2.875 10.59 7.672 13.37C10.05 351.3 12.66 352 15.27 352c2.547 0 5.094-.6562 7.422-1.969L80 317.7v152.4C80 493.2 98.81 512 121.9 512c11.22 0 21.77-4.375 29.66-12.28l84.46-84.46l379.2-87.48C629.8 324.4 640 311.6 640 296.6V40C640 17.94 622.1 0 600 0zM160 271.5v63.91L104.1 303.9L160 271.5zM16 336.5V272.6l55.88 31.53L16 336.5zM600 16c3.688 0 7.082 .9844 10.21 2.48L480 148.7L347.3 16H600zM327.8 28.41c.5449-2.359 1.711-4.363 3.117-6.164L468.7 160l-222.6 222.6L327.8 28.41zM611.6 312.2L257.4 393.9L480 171.3l137.8 137.8C615.1 310.5 613.1 311.7 611.6 312.2zM624 292.7L491.3 160l130.2-130.2C623 32.92 624 36.31 624 40V292.7z"/></svg>