<svg xmlns="http://www.w3.org/2000/svg" viewBox="0 0 576 512"><!--! Font Awesome Pro 6.0.0-alpha3 by @fontawesome - https://fontawesome.com License - https://fontawesome.com/license (Commercial License) --><path d="M464 192c-17.67 0-32 14.33-32 32s14.33 32 32 32s32-14.33 32-32S481.7 192 464 192zM464 240C455.2 240 448 232.8 448 224s7.178-16 16-16S480 215.2 480 224S472.8 240 464 240zM575.8 216h-.4023c-4.248-59.57-57.87-103.1-117.8-103.1l-9.372 .0001c-52.75 0-104.2-16.25-147.7-46.25C269.6 44.46 232.3 32 191.1 31.1c-14.55 0-29.51 1.608-44.69 5.022c-17.1 4.125-147.4 41.26-147.3 186.1C-.082 329.6 67.75 378.1 112 398.4V472C112 476.4 115.6 480 119.1 480S128 476.4 128 472l.002-66.92c9.061 3.328 16 5.148 19.24 5.891c15.17 3.41 30.18 5.033 44.74 5.033c10.96 0 21.57-1.095 32.02-2.865L224 472C224 476.4 227.6 480 232 480s8-3.594 8-8v-62.6c21.86-5.688 42.38-14.68 60.49-27.18c43.5-30 95.1-46.22 147.8-46.22l9.27-.0272c7.207 0 14.3-.7344 21.26-1.969L561.1 476C562.5 478.5 565.2 480 568 480c.6875 0 1.391-.0938 2.078-.2813C573.6 478.8 576 475.6 576 472L575.8 216zM457.6 319.1h-9.375c-56.04 0-110.3 16.97-156.8 49.08C262.1 389.3 227.7 400 191.9 400c-13.61 0-27.46-1.559-41.09-4.625C147.7 394.7 139.2 392.4 128 388V328C128 323.6 124.4 320 120 320S112 323.6 112 328v52.98c-40.17-19.89-96.07-64.19-96-156.1C15.89 87.49 137 55.79 150.8 52.64C164.5 49.56 178.3 47.1 191.9 48c35.76 0 70.17 10.7 99.49 30.95c46.56 32.11 100.8 49.07 156.8 49.07h9.375c53.74 0 99.56 40.74 102.1 90.73l.0605 5.121l-.0566 5.27C557.2 279.2 511.3 319.1 457.6 319.1zM494.9 329.7c27.25-8.738 50.46-26.61 64.1-50.36l.123 162.8L494.9 329.7z"/></svg>