<svg xmlns="http://www.w3.org/2000/svg" viewBox="0 0 512 512"><!--! Font Awesome Pro 6.0.0-alpha3 by @fontawesome - https://fontawesome.com License - https://fontawesome.com/license (Commercial License) --><path d="M480.6 10.41c-13.85-13.88-36.43-13.88-50.31 0L9.365 429c-5.846 5.562-9.254 13.34-9.363 21.41c-.1094 8.031 3.111 15.94 8.801 21.59l31.18 31.19C45.6 508.8 53.29 512 61.15 512h.4687c8.033-.125 15.82-3.531 21.37-9.312L259.4 320h28.67c131.4 0 185.4-63.69 207.5-117.1C527.3 126.3 507.9 37.72 480.6 10.41zM480.8 196.8C460.5 245.7 410.7 304 288.2 304l-32.01-.5625c-2.549 0-4.361 .8438-5.908 2.438l-178.9 185.7c-6.236 6.531-15.55 4.877-20.15 .3125l-31.18-31.19c-5.508-5.506-5.547-14.51 .4219-20.25L441.6 21.72c7.6-7.598 20.04-7.652 27.7 0C490.2 42.66 510.5 125 480.8 196.8z"/></svg>