<svg xmlns="http://www.w3.org/2000/svg" viewBox="0 0 512 512"><!--! Font Awesome Pro 6.0.0-alpha3 by @fontawesome - https://fontawesome.com License - https://fontawesome.com/license (Commercial License) --><path d="M56 256h400C469.3 256 480 245.3 480 232v-32c0-13.26-10.75-24-24-24h-14.29c-20.72-80.33-92.05-139.9-177.1-143.3C263.8 32.41 264 32.26 264 32V8C264 3.594 260.4 0 256 0S248 3.594 248 8V32c0 .2578 .25 .4062 .2734 .6562C162.3 36.13 91.01 95.67 70.29 176H56C42.75 176 32 186.7 32 200v32C32 245.3 42.75 256 56 256zM256 48c78.74 0 147.4 52.5 168.8 128H87.18C108.6 100.5 177.3 48 256 48zM48 200C48 195.6 51.59 192 56 192h400c4.412 0 8 3.59 8 8v32c0 4.41-3.588 8-8 8H56C51.59 240 48 236.4 48 232V200zM72 288C67.59 288 64 291.6 64 296v80C64 380.4 67.59 384 72 384h368c4.406 0 8-3.594 8-8v-80C448 291.6 444.4 288 440 288S432 291.6 432 296v72h-104V296C328 291.6 324.4 288 320 288s-8 3.594-8 8v72h-112V296C200 291.6 196.4 288 192 288S184 291.6 184 296v72H80V296C80 291.6 76.41 288 72 288zM504 496H8C3.594 496 0 499.6 0 504S3.594 512 8 512h496c4.406 0 8-3.594 8-8S508.4 496 504 496zM40 448h432c4.406 0 8-3.594 8-8s-3.594-8-8-8H40C35.59 432 32 435.6 32 440S35.59 448 40 448z"/></svg>