<svg xmlns="http://www.w3.org/2000/svg" viewBox="0 0 640 512"><!--! Font Awesome Pro 6.0.0-alpha3 by @fontawesome - https://fontawesome.com License - https://fontawesome.com/license (Commercial License) --><path d="M576 63.1H64c-35.35 0-64 28.65-64 64v256c0 35.35 28.65 64 64 64h512c35.35 0 64-28.65 64-64v-256C640 92.65 611.3 63.1 576 63.1zM312 431.1H64c-26.47 0-48-21.53-48-48v-256c0-26.47 21.53-48 48-48h248V431.1zM624 383.1c0 26.47-21.53 48-48 48h-248v-352H576c26.47 0 48 21.53 48 48V383.1zM84.97 351.4c4.125 1.656 8.75-.3125 10.44-4.375l24.21-59.19C119.8 287.9 119.9 287.1 120 287.1h80c.1484 0 .2344-.1484 .3828-.1562l24.21 59.19C225.9 350.1 228.8 351.1 232 351.1c1 0 2.031-.1875 3.031-.5938c4.094-1.688 6.031-6.344 4.375-10.44l-72-176c-2.438-6-12.38-6-14.81 0l-72 176C78.94 345.1 80.88 349.7 84.97 351.4zM160 189.1l33.9 82.88H126.1L160 189.1zM560 192l-72-.002v-24c0-4.406-3.594-7.1-8-7.1s-8 3.594-8 7.1v24L400 192c-4.406 0-8 3.592-8 7.998s3.594 8 8 8h127.3c-3.383 37.13-29.22 68.61-55.22 91.13c-13.1-11.81-24.6-24.86-33.23-39.26c-2.344-3.812-7.188-4.969-11-2.75c-3.781 2.281-5 7.219-2.75 11c9.055 15.08 21.03 28.7 34.52 41.15c-22.47 17.32-41.96 27.34-42.43 27.57c-3.938 1.969-5.531 6.781-3.562 10.75c1.406 2.781 4.219 4.406 7.156 4.406c1.219 0 2.438-.2813 3.562-.8438c2.062-1.023 23.55-12.04 47.74-31.05c15.77 12.4 33.39 23.17 52.82 31.27c1 .4375 2.031 .625 3.062 .625c3.125 0 6.094-1.844 7.375-4.938c1.719-4.062-.2187-8.75-4.312-10.44c-16.97-7.078-32.3-16.45-46.27-27.05c27.95-24.69 55.38-59.45 58.58-101.6H560c4.406 0 8-3.594 8-8S564.4 192 560 192z"/></svg>