<svg xmlns="http://www.w3.org/2000/svg" viewBox="0 0 384 512"><!--! Font Awesome Pro 6.0.0-alpha3 by @fontawesome - https://fontawesome.com License - https://fontawesome.com/license (Commercial License) --><path d="M384 472c0 4.406-3.578 8-8 8H8C3.578 480 0 476.4 0 472s3.578-8 8-8h107.1C46.83 434.1 0 367.1 0 288.7C0 202.3 57.33 128.8 136 104.6V40C136 35.59 139.6 32 144 32s8 3.594 8 8v60.44C165.2 97.59 178.8 96 192.9 96C206.3 96 219.3 97.84 232 100.5V40C232 35.59 235.6 32 240 32s8 3.594 8 8v64.33c58.86 17.53 107.2 62.21 127.6 122.4c1.422 4.188-.8281 8.719-5 10.12c-4.219 1.531-8.734-.7813-10.16-5C342.2 178.2 299.9 137.8 248 120.8V280C248 284.4 244.4 288 240 288s-8-3.594-8-8V116.9C219.3 114 206.3 112 192.9 112C178.8 112 165.1 113.8 152 116.9V280C152 284.4 148.4 288 144 288S136 284.4 136 280V121.5C66.33 145.2 16 211 16 288.5c0 90.91 68.22 166.3 158.7 175.5H376C380.4 464 384 467.6 384 472z"/></svg>