<svg xmlns="http://www.w3.org/2000/svg" viewBox="0 0 512 512"><!--! Font Awesome Pro 6.0.0-alpha3 by @fontawesome - https://fontawesome.com License - https://fontawesome.com/license (Commercial License) --><path d="M442.4 431.1C485.4 385.3 512 323.8 512 256s-26.55-129.3-69.59-175.1l11.25-11.25c3.125-3.125 3.125-8.188 0-11.31s-8.188-3.125-11.31 0l-11.25 11.25C385.3 26.55 323.8 0 256 0S126.7 26.55 80.91 69.59L69.66 58.34c-3.125-3.125-8.188-3.125-11.31 0s-3.125 8.188 0 11.31l11.25 11.25C26.55 126.7 0 188.2 0 256s26.55 129.3 69.59 175.1l-11.25 11.25c-3.125 3.125-3.125 8.188 0 11.31C59.91 455.2 61.95 456 64 456s4.094-.7813 5.656-2.344l11.25-11.25C126.7 485.4 188.2 512 256 512s129.3-26.55 175.1-69.59l11.25 11.25C443.9 455.2 445.1 456 448 456s4.094-.7813 5.656-2.344c3.125-3.125 3.125-8.188 0-11.31L442.4 431.1zM496 256c0 63.29-24.81 120.8-64.99 163.7l-102-102C343.1 300.1 352 279.6 352 256s-8.857-44.96-23-61.68l102-102C471.2 135.2 496 192.7 496 256zM176 256c0-44.11 35.89-80 80-80c44.11 0 80 35.89 80 80s-35.89 80-80 80C211.9 336 176 300.1 176 256zM256 16c63.29 0 120.8 24.81 163.7 64.99l-102 102C300.1 168.9 279.6 160 256 160S211 168.9 194.3 183L92.3 80.99C135.2 40.81 192.7 16 256 16zM16 256c0-63.29 24.81-120.8 64.99-163.7l102 102C168.9 211 160 232.4 160 256s8.857 44.96 23 61.68l-102 102C40.81 376.8 16 319.3 16 256zM256 496c-63.29 0-120.8-24.81-163.7-64.99l102-102C211 343.1 232.4 352 256 352s44.96-8.857 61.68-23l102 102C376.8 471.2 319.3 496 256 496z"/></svg>