<svg xmlns="http://www.w3.org/2000/svg" viewBox="0 0 576 512"><!--! Font Awesome Pro 6.0.0-alpha3 by @fontawesome - https://fontawesome.com License - https://fontawesome.com/license (Commercial License) --><path d="M264 104h304C572.4 104 576 100.4 576 96s-3.594-8-8-8h-304C259.6 88 256 91.59 256 96S259.6 104 264 104zM568 248h-304C259.6 248 256 251.6 256 256s3.594 8 8 8h304C572.4 264 576 260.4 576 256S572.4 248 568 248zM568 408h-304C259.6 408 256 411.6 256 416s3.594 8 8 8h304c4.406 0 8-3.594 8-8S572.4 408 568 408zM178.3 133.7C179.9 135.2 181.9 136 184 136s4.094-.7813 5.656-2.344c3.125-3.125 3.125-8.188 0-11.31l-88-88c-3.125-3.125-8.188-3.125-11.31 0l-88 88c-3.125 3.125-3.125 8.188 0 11.31s8.188 3.125 11.31 0L88 59.31v393.4l-74.34-74.34c-3.125-3.125-8.188-3.125-11.31 0s-3.125 8.188 0 11.31l88 88C91.91 479.2 93.94 480 96 480s4.094-.7813 5.656-2.344l88-88c3.125-3.125 3.125-8.188 0-11.31s-8.188-3.125-11.31 0L104 452.7V59.31L178.3 133.7z"/></svg>