<svg xmlns="http://www.w3.org/2000/svg" viewBox="0 0 512 512"><!--! Font Awesome Pro 6.0.0-alpha3 by @fontawesome - https://fontawesome.com License - https://fontawesome.com/license (Commercial License) --><path d="M216 56h-208C3.594 56 0 59.59 0 63.1S3.594 72 8 72h208C220.4 72 224 68.41 224 64S220.4 56 216 56zM216 184h-208C3.594 184 0 187.6 0 191.1S3.594 200 8 200h208C220.4 200 224 196.4 224 192S220.4 184 216 184zM216 312h-208C3.594 312 0 315.6 0 320s3.594 8 8 8h208C220.4 328 224 324.4 224 320S220.4 312 216 312zM216 440h-208C3.594 440 0 443.6 0 448s3.594 8 8 8h208C220.4 456 224 452.4 224 448S220.4 440 216 440zM296 72h208c4.406 0 8-3.594 8-7.1S508.4 56 504 56h-208C291.6 56 288 59.59 288 63.1S291.6 72 296 72zM504 184h-208C291.6 184 288 187.6 288 191.1S291.6 200 296 200h208c4.406 0 8-3.594 8-7.1S508.4 184 504 184zM504 312h-208C291.6 312 288 315.6 288 320s3.594 8 8 8h208c4.406 0 8-3.594 8-8S508.4 312 504 312zM504 440h-208C291.6 440 288 443.6 288 448s3.594 8 8 8h208c4.406 0 8-3.594 8-8S508.4 440 504 440z"/></svg>