<svg xmlns="http://www.w3.org/2000/svg" viewBox="0 0 320 512"><!--! Font Awesome Pro 6.0.0-alpha3 by @fontawesome - https://fontawesome.com License - https://fontawesome.com/license (Commercial License) --><path d="M320 472c0 4.406-3.594 8-8 8h-304c-3.156 0-6.031-1.875-7.312-4.75c-1.281-2.906-.75-6.281 1.406-8.625C39.82 425.1 64.82 374.3 74.93 320H8C3.594 320 0 316.4 0 312S3.594 304 8 304h69.16C78.85 291.1 80 278.2 80 265.1V224H8C3.594 224 0 220.4 0 216S3.594 208 8 208H80V129.5C80 75.72 123.7 32 177.5 32c10.47 0 20.84 1.688 30.84 5l82.22 27.41c4.188 1.406 6.469 5.938 5.062 10.12c-1.406 4.219-5.906 6.469-10.12 5.062l-82.22-27.41C194.9 49.41 186.2 48 177.5 48C132.6 48 96 84.56 96 129.5V208h152C252.4 208 256 211.6 256 216S252.4 224 248 224H96v41.06C96 278.2 94.91 291.1 93.32 304H248C252.4 304 256 307.6 256 312S252.4 320 248 320H91.16c-9.271 52.62-31.74 102.1-65.76 144H312C316.4 464 320 467.6 320 472z"/></svg>