<svg xmlns="http://www.w3.org/2000/svg" viewBox="0 0 512 512"><!--! Font Awesome Pro 6.0.0-alpha3 by @fontawesome - https://fontawesome.com License - https://fontawesome.com/license (Commercial License) --><path d="M504 248H168C163.6 248 160 251.6 160 256s3.578 8 8 8h336C508.4 264 512 260.4 512 256S508.4 248 504 248zM168 104h336C508.4 104 512 100.4 512 96s-3.578-8-8-8H168C163.6 88 160 91.58 160 96S163.6 104 168 104zM504 408H168C163.6 408 160 411.6 160 416s3.578 8 8 8h336c4.422 0 8-3.578 8-8S508.4 408 504 408zM64 32C28.65 32 0 60.65 0 96c0 35.35 28.65 64 64 64c35.35 0 64-28.65 64-64C128 60.65 99.35 32 64 32zM64 144C37.53 144 16 122.5 16 96S37.53 48 64 48S112 69.53 112 96S90.47 144 64 144zM64 80C55.16 80 48 87.16 48 96c0 8.836 7.164 16 16 16c8.838 0 16-7.164 16-16C80 87.16 72.84 80 64 80zM64 192C28.65 192 0 220.7 0 256s28.65 64 64 64c35.35 0 64-28.65 64-64S99.35 192 64 192zM64 304C37.53 304 16 282.5 16 256S37.53 208 64 208S112 229.5 112 256S90.47 304 64 304zM64 352c-35.35 0-64 28.65-64 64s28.65 64 64 64c35.35 0 64-28.65 64-64S99.35 352 64 352zM64 464c-26.47 0-48-21.53-48-48s21.53-48 48-48s48 21.53 48 48S90.47 464 64 464z"/></svg>