<svg xmlns="http://www.w3.org/2000/svg" viewBox="0 0 512 512"><!--! Font Awesome Pro 6.0.0-alpha3 by @fontawesome - https://fontawesome.com License - https://fontawesome.com/license (Commercial License) --><path d="M168 104h336c4.406 0 8-3.594 8-7.1S508.4 88 504 88H168C163.6 88 160 91.59 160 95.1S163.6 104 168 104zM504 248H168C163.6 248 160 251.6 160 256s3.594 8 8 8h336C508.4 264 512 260.4 512 256S508.4 248 504 248zM504 408H168C163.6 408 160 411.6 160 416s3.594 8 8 8h336c4.406 0 8-3.594 8-8S508.4 408 504 408zM48 48C21.49 48 0 69.49 0 96s21.49 48 48 48S96 122.5 96 96S74.51 48 48 48zM48.06 128C30.42 128 16 113.6 16 96s14.42-32 32.06-32S80 78.36 80 96S65.71 128 48.06 128zM48 368C21.49 368 0 389.5 0 416s21.49 48 48 48S96 442.5 96 416S74.51 368 48 368zM48.06 448C30.42 448 16 433.6 16 416s14.42-32 32.06-32S80 398.4 80 416S65.71 448 48.06 448zM48 208C21.49 208 0 229.5 0 256s21.49 48 48 48S96 282.5 96 256S74.51 208 48 208zM48.06 288C30.42 288 16 273.6 16 256s14.42-32 32.06-32S80 238.4 80 256S65.71 288 48.06 288z"/></svg>