<svg xmlns="http://www.w3.org/2000/svg" viewBox="0 0 512 512"><!--! Font Awesome Pro 6.0.0-alpha3 by @fontawesome - https://fontawesome.com License - https://fontawesome.com/license (Commercial License) --><path d="M504 248h-208C291.6 248 288 251.6 288 256s3.578 8 8 8h208C508.4 264 512 260.4 512 256S508.4 248 504 248zM168 104h336C508.4 104 512 100.4 512 96s-3.578-8-8-8H168C163.6 88 160 91.58 160 96S163.6 104 168 104zM200 208h-48C138.8 208 128 218.8 128 232v16H56V144h16C85.25 144 96 133.3 96 120v-48C96 58.75 85.25 48 72 48h-48C10.75 48 0 58.75 0 72v48C0 133.3 10.75 144 24 144h16V384c0 22.06 17.94 40 40 40H128v16c0 13.25 10.75 24 24 24h48C213.3 464 224 453.3 224 440v-48c0-13.25-10.75-24-24-24h-48C138.8 368 128 378.8 128 392v16H80c-13.23 0-24-10.78-24-24V264H128v16C128 293.3 138.8 304 152 304h48C213.3 304 224 293.3 224 280v-48C224 218.8 213.3 208 200 208zM144 392C144 387.6 147.6 384 152 384h48c4.422 0 8 3.562 8 8v48C208 444.4 204.4 448 200 448h-48c-4.422 0-8-3.562-8-8V392zM24 128C19.58 128 16 124.4 16 120v-48C16 67.58 19.58 64 24 64h48C76.42 64 80 67.58 80 72v48C80 124.4 76.42 128 72 128H24zM208 280C208 284.4 204.4 288 200 288h-48C147.6 288 144 284.4 144 280v-48C144 227.6 147.6 224 152 224h48C204.4 224 208 227.6 208 232V280zM504 408h-208C291.6 408 288 411.6 288 416s3.578 8 8 8h208c4.422 0 8-3.562 8-8S508.4 408 504 408z"/></svg>