<svg xmlns="http://www.w3.org/2000/svg" viewBox="0 0 512 512"><!--! Font Awesome Pro 6.0.0-alpha3 by @fontawesome - https://fontawesome.com License - https://fontawesome.com/license (Commercial License) --><path d="M200 104h304C508.4 104 512 100.4 512 96s-3.594-8-8-8h-304C195.6 88 192 91.59 192 96S195.6 104 200 104zM31.13 224h97.75c4.406 0 8-3.578 8-8s-3.594-8-8-8H88V40c0-2.859-1.531-5.516-4-6.938C81.47 31.64 78.44 31.64 75.97 33.09L36.84 55.91C33.03 58.13 31.75 63.03 33.97 66.84c2.188 3.828 7.062 5.094 10.94 2.875L72 53.92V208H31.13c-4.406 0-8 3.578-8 8S26.72 224 31.13 224zM145.5 464H37.03l80.66-71.81c26.34-22.72 29.5-62.73 7.062-89.2C113.5 289.7 97.62 281.6 80.09 280.2C62.62 278.9 45.53 284.3 32.22 295.8L17.81 308.2c-3.344 2.891-3.719 7.938-.8438 11.28c2.938 3.359 7.967 3.734 11.28 .8438l14.41-12.41c10.06-8.641 23.03-12.77 36.19-11.77c13.25 1.047 25.22 7.141 33.72 17.17c17.06 20.14 14.72 49.45-5.406 66.83l-96.47 85.88c-2.5 2.203-3.344 5.719-2.156 8.812C9.719 477.1 12.69 480 15.1 480h129.5c4.406 0 8-3.578 8-8S149.9 464 145.5 464zM504 408h-304C195.6 408 192 411.6 192 416s3.594 8 8 8h304c4.406 0 8-3.594 8-8S508.4 408 504 408zM504 248h-304C195.6 248 192 251.6 192 256s3.594 8 8 8h304C508.4 264 512 260.4 512 256S508.4 248 504 248z"/></svg>