<svg xmlns="http://www.w3.org/2000/svg" viewBox="0 0 512 512"><!--! Font Awesome Pro 6.0.0-alpha3 by @fontawesome - https://fontawesome.com License - https://fontawesome.com/license (Commercial License) --><path d="M48 368C21.49 368 0 389.5 0 416s21.49 48 48 48S96 442.5 96 416S74.51 368 48 368zM48 448c-17.64 0-32-14.36-32-32s14.36-32 32-32s32 14.36 32 32S65.64 448 48 448zM176 150.6C182 156.6 190.1 160 198.6 160H416c17.67 0 32-14.33 32-32V64c0-17.67-14.33-32-32-32H198.6C190.1 32 182 35.37 176 41.37L132.7 84.69c-6.248 6.25-6.248 16.38 0 22.63L176 150.6zM187.3 52.69C190.3 49.66 194.4 48 198.6 48H416c8.822 0 16 7.178 16 16v64c0 8.822-7.178 16-16 16H198.6c-4.273 0-8.291-1.664-11.31-4.688L144 96L187.3 52.69zM480 192H198.6C190.1 192 182 195.4 176 201.4L132.7 244.7c-6.248 6.25-6.248 16.38 0 22.63L176 310.6C182 316.6 190.1 320 198.6 320H480c17.67 0 32-14.33 32-32V224C512 206.3 497.7 192 480 192zM496 288c0 8.822-7.178 16-16 16H198.6c-4.273 0-8.291-1.664-11.31-4.688L144 256l43.31-43.31C190.3 209.7 194.4 208 198.6 208H480c8.822 0 16 7.178 16 16V288zM48 208C21.49 208 0 229.5 0 256s21.49 48 48 48S96 282.5 96 256S74.51 208 48 208zM48 288c-17.64 0-32-14.36-32-32s14.36-32 32-32s32 14.36 32 32S65.64 288 48 288zM416 352H198.6C190.1 352 182 355.4 176 361.4l-43.31 43.31c-6.248 6.25-6.248 16.38 0 22.63L176 470.6C182 476.6 190.1 480 198.6 480H416c17.67 0 32-14.33 32-32v-64C448 366.3 433.7 352 416 352zM432 448c0 8.822-7.178 16-16 16H198.6c-4.273 0-8.291-1.664-11.31-4.688L144 416l43.31-43.31C190.3 369.7 194.4 368 198.6 368H416c8.822 0 16 7.178 16 16V448zM48 48C21.49 48 0 69.49 0 96s21.49 48 48 48S96 122.5 96 96S74.51 48 48 48zM48 128c-17.64 0-32-14.36-32-32s14.36-32 32-32s32 14.36 32 32S65.64 128 48 128z"/></svg>