<svg xmlns="http://www.w3.org/2000/svg" viewBox="0 0 512 512"><!--! Font Awesome Pro 6.0.0-alpha3 by @fontawesome - https://fontawesome.com License - https://fontawesome.com/license (Commercial License) --><path d="M447.1 32h-384c-35.36 0-64 28.64-64 64v320c0 35.36 28.64 64 64 64h384c35.36 0 64-28.64 64-64V96C511.1 60.64 483.4 32 447.1 32zM496 416c0 26.47-21.53 48-48 48H64c-26.47 0-48-21.53-48-48V176h480V416zM496 160h-480V96c0-26.47 21.53-48 48-48h384c26.47 0 48 21.53 48 48V160zM120 288h272c4.422 0 8-3.578 8-8S396.4 272 392 272h-272C115.6 272 112 275.6 112 280S115.6 288 120 288zM120 384h272c4.422 0 8-3.594 8-8s-3.578-8-8-8h-272c-4.422 0-8 3.594-8 8S115.6 384 120 384zM419 89.75L384 117.8l-35-28c-3.438-2.688-8.484-2.172-11.25 1.25C335 94.45 335.5 99.48 339 102.3l40 32C380.5 135.4 382.2 136 384 136s3.531-.5781 5-1.75l40-32c3.453-2.766 4-7.797 1.25-11.25C427.5 87.56 422.5 87.02 419 89.75z"/></svg>