<svg xmlns="http://www.w3.org/2000/svg" viewBox="0 0 512 512"><!--! Font Awesome Pro 6.0.0-alpha3 by @fontawesome - https://fontawesome.com License - https://fontawesome.com/license (Commercial License) --><path d="M168 104h336c4.406 0 8-3.594 8-7.1S508.4 88 504 88H168C163.6 88 160 91.59 160 95.1S163.6 104 168 104zM504 408H168C163.6 408 160 411.6 160 416s3.594 8 8 8h336c4.406 0 8-3.594 8-8S508.4 408 504 408zM504 248H168C163.6 248 160 251.6 160 256s3.594 8 8 8h336C508.4 264 512 260.4 512 256S508.4 248 504 248zM72 48h-48C10.75 48 0 58.75 0 72v48C0 133.3 10.75 144 24 144h48C85.25 144 96 133.3 96 120v-48C96 58.75 85.25 48 72 48zM80 120C80 124.4 76.41 128 72 128h-48C19.59 128 16 124.4 16 120v-48C16 67.59 19.59 64 24 64h48C76.41 64 80 67.59 80 72V120zM72 368h-48C10.75 368 0 378.7 0 392v48c0 13.25 10.75 24 24 24h48C85.25 464 96 453.3 96 440v-48C96 378.7 85.25 368 72 368zM80 440C80 444.4 76.41 448 72 448h-48c-4.412 0-8-3.59-8-8v-48C16 387.6 19.59 384 24 384h48c4.412 0 8 3.59 8 8V440zM72 208h-48C10.75 208 0 218.7 0 232v48C0 293.3 10.75 304 24 304h48C85.25 304 96 293.3 96 280v-48C96 218.7 85.25 208 72 208zM80 280C80 284.4 76.41 288 72 288h-48C19.59 288 16 284.4 16 280v-48C16 227.6 19.59 224 24 224h48C76.41 224 80 227.6 80 232V280z"/></svg>