<svg xmlns="http://www.w3.org/2000/svg" viewBox="0 0 384 512"><!--! Font Awesome Pro 6.0.0-alpha3 by @fontawesome - https://fontawesome.com License - https://fontawesome.com/license (Commercial License) --><path d="M384 472c0 4.418-3.582 8-8 8h-240C113.9 480 96 462.1 96 440V243.5L9.844 263.8C9.219 263.9 8.594 264 8 264c-3.625 0-6.906-2.469-7.781-6.156C-.8125 253.5 1.875 249.2 6.156 248.2L96 227.1V40C96 35.59 99.59 32 104 32S112 35.59 112 40v183.3l166.2-39.09c4.5-1.031 8.625 1.656 9.625 5.938c1.031 4.312-1.656 8.625-5.938 9.625L112 239.7V440c0 13.2 10.8 24 24 24h240C380.4 464 384 467.6 384 472z"/></svg>