<svg xmlns="http://www.w3.org/2000/svg" viewBox="0 0 640 512"><!--! Font Awesome Pro 6.0.0-alpha3 by @fontawesome - https://fontawesome.com License - https://fontawesome.com/license (Commercial License) --><path d="M393.8 222.8c3.955-9.479 6.173-19.86 6.173-30.78c0-44.18-35.82-79.1-79.1-79.1c-17.4 0-33.38 5.698-46.51 15.13l13.2 10.49C296.4 131.6 307.8 128 320 128c35.29 0 64 28.71 64 64c0 7.076-1.428 13.77-3.559 20.14L393.8 222.8zM320 16c97.05 0 176 78.95 176 176c0 33.65-5.254 55.4-26.13 91.22l12.58 9.998c23.06-39.17 29.55-63.71 29.55-101.2c0-106-85.97-191.1-191.1-191.1c-53 0-100.1 21.48-135.7 56.21L197 66.33C228.8 35.25 272.2 16 320 16zM326.6 492.6C324.5 495.5 321.6 495.1 320 495.1s-4.496-.4473-6.549-3.41c-25.93-37.59-48.1-69.17-67.02-96.12c-78.07-111.2-98.51-140.5-101.8-187.8L128.1 195.5c.8613 74.52 29.17 98.84 172.2 306.2C305 508.6 312.5 511.1 320 511.1s14.95-3.444 19.72-10.33c23.74-34.42 44.04-63.37 61.86-88.77l-12.55-9.975C371.1 428.5 350.5 457.9 326.6 492.6zM636.1 497.7L12.99 1.73C11.53 .5664 9.771 0 8.025 0C5.674 0 3.336 1.029 1.738 3.012c-2.75 3.469-2.172 8.5 1.281 11.25l623.1 496C628.5 511.4 630.2 512 631.1 512c2.344 0 4.688-1.031 6.266-3.016C641 505.5 640.4 500.5 636.1 497.7z"/></svg>