<svg xmlns="http://www.w3.org/2000/svg" viewBox="0 0 384 512"><!--! Font Awesome Pro 6.0.0-alpha3 by @fontawesome - https://fontawesome.com License - https://fontawesome.com/license (Commercial License) --><path d="M278.3 138.3L164 252.7l-58.34-58.34c-3.125-3.125-8.188-3.125-11.31 0c-3.125 3.125-3.125 8.188 0 11.31l64 64C159.9 271.2 161.9 271.1 164 271.1s4.094-.7813 5.656-2.344l120-120c3.125-3.125 3.125-8.188 0-11.31C286.5 135.2 281.5 135.2 278.3 138.3zM192 0C85.97 0 0 85.97 0 192c0 77.41 26.97 99.03 172.3 309.7C177 508.6 184.5 512 192 512s14.95-3.441 19.72-10.32C357 291 384 269.4 384 192C384 85.97 298 0 192 0zM198.6 492.6C196.5 495.6 193.6 495.1 192 495.1s-4.496-.4473-6.549-3.41c-25.93-37.59-48.1-69.17-67.02-96.12C31.64 272.8 16 250.6 16 192c0-97.05 78.95-176 176-176s176 78.95 176 176c0 58.55-15.64 80.83-102.4 204.5C246.6 423.4 224.5 454.1 198.6 492.6z"/></svg>