<svg xmlns="http://www.w3.org/2000/svg" viewBox="0 0 384 512"><!--! Font Awesome Pro 6.0.0-alpha3 by @fontawesome - https://fontawesome.com License - https://fontawesome.com/license (Commercial License) --><path d="M192 0C86.38 0 0 86.37 0 191.1c0 76.75 25.62 99.25 172.8 310.4C177.6 508.8 184.8 512 192 512s14.44-3.211 19.25-9.648C358.4 291.2 384 268.7 384 191.1C384 86.37 297.6 0 192 0zM198.4 492.8C196.3 495.6 193.5 496 192 496s-4.33-.4219-6.123-2.805c-22.5-32.28-42.15-60.16-59.32-84.49C32.88 275.9 16 251.9 16 191.1C16 94.95 94.95 16 192 16s176 78.95 176 175.1c0 59.95-16.88 83.88-110.6 216.7C240.3 433 220.6 460.9 198.4 492.8zM128 176c8.838 0 16-7.164 16-16S136.8 144 128 144C119.2 144 112 151.2 112 160S119.2 176 128 176zM256 176c8.838 0 16-7.164 16-16S264.8 144 256 144c-8.836 0-16 7.164-16 16S247.2 176 256 176zM281.1 251.1C262.1 284.5 228.8 304 192 304S121.9 284.5 102.9 251.1C100.7 248.1 95.73 246.8 91.97 249.1c-3.812 2.219-5.109 7.125-2.875 10.94C111 297.6 149.5 319.1 192 319.1s80.98-22.41 102.9-59.95c2.234-3.812 .9375-8.719-2.875-10.94C288.2 246.8 283.3 248.1 281.1 251.1z"/></svg>