<svg xmlns="http://www.w3.org/2000/svg" viewBox="0 0 640 512"><!--! Font Awesome Pro 6.0.0-alpha3 by @fontawesome - https://fontawesome.com License - https://fontawesome.com/license (Commercial License) --><path d="M400.8 412.2C376.5 424.8 349.1 432 319.9 432c-97.05 0-175.1-78.95-175.1-176c0-15.02 2.096-29.53 5.654-43.46L136.6 202.2c-4.33 14.77-7.562 29.98-8.211 46C128.2 248.2 128.1 248 127.1 248H71.95c-4.422 0-7.961 3.594-7.961 8C63.99 260.4 67.53 264 71.95 264h55.1c.1543 0 .2441-.1562 .3965-.1641c4.037 99.76 84.01 179.7 183.8 183.8C312.1 447.8 311.9 447.8 311.9 448v56c0 4.406 3.618 7.999 8.04 7.999c4.422 0 7.96-3.593 7.96-7.999V448c0-.1562-.1562-.2422-.1641-.3984c31.3-1.266 60.21-10.69 85.88-25.17L400.8 412.2zM239.2 99.79C263.4 87.22 290.8 80 319.9 80c97.05 0 175.1 78.95 175.1 176c0 15-2.088 29.48-5.635 43.39l13.05 10.38c4.318-14.74 7.541-29.94 8.187-45.93C511.7 263.8 511.8 264 511.9 264h55.1c4.422 0 8.042-3.593 8.042-7.1c0-4.406-3.62-8-8.042-8h-55.1c-.1543 0-.2441 .1562-.3965 .1641c-4.037-99.76-84.01-179.7-183.8-183.8C327.8 64.24 327.9 64.16 327.9 64V8c0-4.406-3.537-7.998-7.959-7.998S311.9 3.594 311.9 8V64c0 .1562 .1562 .2422 .1641 .3984C280.8 65.66 251.1 75.07 226.3 89.53L239.2 99.79zM636.1 497.7l-623.1-496c-1.463-1.164-3.217-1.73-4.963-1.73c-2.352 0-4.689 1.027-6.287 3.012c-2.75 3.469-2.172 8.5 1.281 11.25l623.1 496C628.5 511.4 630.2 512 631.1 512c2.344 0 4.688-1.031 6.266-3.016C641 505.5 640.4 500.5 636.1 497.7z"/></svg>