<svg xmlns="http://www.w3.org/2000/svg" viewBox="0 0 384 512"><!--! Font Awesome Pro 6.0.0-alpha3 by @fontawesome - https://fontawesome.com License - https://fontawesome.com/license (Commercial License) --><path d="M192 0C85.97 0 0 85.97 0 192c0 77.41 26.97 99.03 172.3 309.7C177 508.6 184.5 512 192 512s14.95-3.441 19.72-10.32C357 291 384 269.4 384 192C384 85.97 298 0 192 0zM198.6 492.6C196.5 495.6 193.6 495.1 192 495.1s-4.496-.4473-6.549-3.41c-25.93-37.59-48.1-69.17-67.02-96.12C31.64 272.8 16 250.6 16 192c0-97.05 78.95-176 176-176s176 78.95 176 176c0 58.55-15.64 80.83-102.4 204.5C246.6 423.4 224.5 454.1 198.6 492.6zM192 111.1c-44.18 0-80 35.82-80 80c0 44.18 35.82 80 80 80s80-35.82 80-80C272 147.8 236.2 111.1 192 111.1zM192 256c-35.29 0-64-28.71-64-64c0-35.29 28.71-64 64-64s64 28.71 64 64C256 227.3 227.3 256 192 256z"/></svg>