<svg xmlns="http://www.w3.org/2000/svg" viewBox="0 0 384 512"><!--! Font Awesome Pro 6.0.0-alpha3 by @fontawesome - https://fontawesome.com License - https://fontawesome.com/license (Commercial License) --><path d="M192 0C85.97 0 0 85.96 0 191.1c0 77.41 26.97 99.04 172.3 309.7C177 508.6 184.5 512 192 512s14.95-3.441 19.72-10.32C357 291 384 269.4 384 191.1C384 85.96 298 0 192 0zM198.6 492.6C196.5 495.6 193.6 496 192 496s-4.496-.4473-6.549-3.41c-25.93-37.59-48.1-69.17-67.02-96.12C31.64 272.8 16 250.6 16 192C16 94.95 94.95 16 192 16s176 78.95 176 176c0 58.55-15.64 80.83-102.4 204.5C246.6 423.4 224.5 455 198.6 492.6zM269.7 114.3c-3.125-3.125-8.188-3.125-11.31 0L192 180.7L125.7 114.3c-3.125-3.125-8.188-3.125-11.31 0s-3.125 8.188 0 11.31L180.7 191.1L114.3 258.3c-3.125 3.125-3.125 8.188 0 11.31c3.127 3.127 8.186 3.127 11.31 0L192 203.3l66.34 66.34c3.127 3.127 8.186 3.127 11.31 0c3.125-3.125 3.125-8.188 0-11.31L203.3 191.1l66.34-66.34C272.8 122.5 272.8 117.5 269.7 114.3z"/></svg>