<svg xmlns="http://www.w3.org/2000/svg" viewBox="0 0 512 512"><!--! Font Awesome Pro 6.0.0-alpha3 by @fontawesome - https://fontawesome.com License - https://fontawesome.com/license (Commercial License) --><path d="M256 159.1c-53.02 0-96 42.98-96 96s42.98 96 96 96s96-42.98 96-96S309 159.1 256 159.1zM256 335.1c-44.11 0-80-35.89-80-80s35.89-80 80-80c44.11 0 80 35.89 80 80S300.1 335.1 256 335.1zM504 247.1H448c-.1543 0-.2441 .1562-.3965 .1641c-4.037-99.76-84.01-179.7-183.8-183.8C263.8 64.24 264 64.16 264 63.1v-56c0-4.406-3.578-7.1-7.1-7.1S248 3.594 248 7.1v56c0 .1562 .1562 .2422 .1641 .3984C148.4 68.43 68.43 148.4 64.4 248.2C64.24 248.2 64.15 247.1 64 247.1H8c-4.422 0-8 3.594-8 7.1s3.578 8 8 8H64c.1543 0 .2441-.1562 .3965-.1641c4.037 99.76 84.01 179.7 183.8 183.8C248.2 447.8 248 447.8 248 447.1v56c0 4.406 3.578 8 7.1 8S264 508.4 264 503.1v-56c0-.1562-.1562-.2422-.1641-.3984c99.76-4.035 179.7-84.01 183.8-183.8C447.8 263.8 447.8 263.1 448 263.1h56c4.422 0 8-3.594 8-7.1S508.4 247.1 504 247.1zM256 431.1c-97.05 0-176-78.95-176-176s78.95-176 176-176s176 78.95 176 176S353 431.1 256 431.1z"/></svg>