<svg xmlns="http://www.w3.org/2000/svg" viewBox="0 0 384 512"><!--! Font Awesome Pro 6.0.0-alpha3 by @fontawesome - https://fontawesome.com License - https://fontawesome.com/license (Commercial License) --><path d="M270.4 104.2c-10.93-10.93-28.66-10.94-39.6-.002L107.9 227.1L106.2 230.3l-10.08 50.53C95.29 284.9 98.57 287.1 102.2 287.1c.3887 0 .6719-.0381 1.064-.1182l50.53-10.08l3.133-1.678l122.9-122.9c10.94-10.93 10.94-28.66 .0039-39.6L270.4 104.2zM147.7 262.7L114.7 269.3l6.594-32.96l91.86-91.86l26.38 26.38L147.7 262.7zM268.5 141.9l-17.65 17.64l-26.38-26.38l17.65-17.65c4.688-4.684 12.28-4.689 16.97 .002l9.408 9.41C273.2 129.6 273.2 137.2 268.5 141.9zM192 0C85.97 0 0 85.97 0 192c0 77.41 26.97 99.03 172.3 309.7C177 508.6 184.5 512 192 512s14.95-3.441 19.72-10.32C357 291 384 269.4 384 192C384 85.97 298 0 192 0zM198.6 492.6C196.5 495.6 193.6 495.1 192 495.1s-4.496-.4473-6.549-3.41c-25.93-37.59-48.1-69.17-67.02-96.12C31.64 272.8 16 250.6 16 192c0-97.05 78.95-176 176-176s176 78.95 176 176c0 58.55-15.64 80.83-102.4 204.5C246.6 423.4 224.5 454.1 198.6 492.6z"/></svg>