<svg xmlns="http://www.w3.org/2000/svg" viewBox="0 0 384 512"><!--! Font Awesome Pro 6.0.0-alpha3 by @fontawesome - https://fontawesome.com License - https://fontawesome.com/license (Commercial License) --><path d="M192 0C85.97 0 0 85.97 0 192c0 77.41 26.97 99.03 172.3 309.7C177 508.6 184.5 512 192 512s14.95-3.441 19.72-10.32C357 291 384 269.4 384 192C384 85.97 298 0 192 0zM198.6 492.6C196.5 495.6 193.6 496 192 496s-4.496-.4473-6.549-3.41c-25.93-37.59-48.1-69.17-67.02-96.12C31.64 272.8 16 250.6 16 192C16 94.95 94.95 16 192 16s176 78.95 176 176c0 58.55-15.64 80.83-102.4 204.5C246.6 423.4 224.5 455 198.6 492.6zM280 184h-176C99.58 184 96 187.6 96 192c0 4.422 3.578 8 8 8h176C284.4 200 288 196.4 288 192S284.4 184 280 184z"/></svg>