<svg xmlns="http://www.w3.org/2000/svg" viewBox="0 0 448 512"><!--! Font Awesome Pro 6.0.0-alpha3 by @fontawesome - https://fontawesome.com License - https://fontawesome.com/license (Commercial License) --><path d="M433.9 46.08C424.8 36.89 412.5 32 399.1 32c-6.115 0-12.27 1.17-18.14 3.584L29.83 179.6C8.598 188.3-3.527 210.8 .9103 233.3c4.422 22.53 24.16 38.75 47.09 38.75h159.1v159.1C208 456 227.2 480 256 480c19.17 0 36.92-11.53 44.41-29.81L444.4 98.21C451.8 80.3 447.6 59.74 433.9 46.08zM429.6 92.15l-143.1 351.1c-4.943 12.07-16.56 19.87-29.6 19.87c-19.78 0-32.02-16.61-32.02-31.1v-175.1H48c-15.25 0-28.45-10.86-31.4-25.85C13.66 215.2 21.77 200.2 35.89 194.4l352-144c3.844-1.578 7.9-2.383 12.06-2.383c8.437 0 16.69 3.422 22.66 9.406C431.8 66.54 434.5 80.17 429.6 92.15z"/></svg>