<svg xmlns="http://www.w3.org/2000/svg" viewBox="0 0 384 512"><!--! Font Awesome Pro 6.0.0-alpha3 by @fontawesome - https://fontawesome.com License - https://fontawesome.com/license (Commercial License) --><path d="M192 0c-106 0-192 85.96-192 191.1c0 77.41 26.97 99.04 172.3 309.7C177 508.6 184.5 512 192 512s14.95-3.441 19.72-10.32C357 291 384 269.4 384 191.1C384 85.96 298 0 192 0zM198.6 492.6C196.5 495.6 193.6 496 192 496s-4.496-.4453-6.549-3.41c-25.93-37.59-48.1-69.17-67.02-96.12C31.64 272.8 16 250.6 16 192c0-97.05 78.95-176 176-176s176 78.95 176 176c0 58.55-15.64 80.83-102.4 204.5C246.6 423.4 224.5 455 198.6 492.6zM192 312c-8.822 0-16 7.18-16 16C176 336.8 183.2 344 192 344s16-7.176 16-15.1C208 319.2 200.8 312 192 312zM192 96C152.3 96 120 124.4 120 159.3c0 4.422 3.594 8 8 8s8-3.578 8-8C136 133.2 161.1 112 192 112s56 21.2 56 47.27c0 16.66-10.09 31.77-27 40.44C198.2 211.4 184 234.1 184 261.1c0 4.422 3.594 8 8 8s8-3.578 8-8c0-20.11 10.84-38.17 28.31-47.14C250.3 202.6 264 181.7 264 159.3C264 124.4 231.7 96 192 96z"/></svg>