<svg xmlns="http://www.w3.org/2000/svg" viewBox="0 0 384 512"><!--! Font Awesome Pro 6.0.0-alpha3 by @fontawesome - https://fontawesome.com License - https://fontawesome.com/license (Commercial License) --><path d="M368 272v199.5c0 4.406-3.578 8-8 8s-8-3.594-8-8V272c0-43.53-17.17-84.25-48.38-114.6C275.4 129.9 238.9 114.1 200 112.1V472c0 4.406-3.578 8-8 8s-8-3.594-8-8V112.5C98.51 116.8 32 185.9 32 272v200C32 476.4 28.42 480 24 480S16 476.4 16 472V272c0-94.97 73.56-171.3 168-175.5V40C184 35.59 187.6 32 192 32s8 3.594 8 8v57.01c43.18 2.055 83.54 18.49 114.8 48.91C349.1 179.4 368 224.1 368 272z"/></svg>