<svg xmlns="http://www.w3.org/2000/svg" viewBox="0 0 320 512"><!--! Font Awesome Pro 6.0.0-alpha3 by @fontawesome - https://fontawesome.com License - https://fontawesome.com/license (Commercial License) --><path d="M304 143.1c0-79.53-64.47-144-144-144s-144 64.47-144 144c0 76.9 60.44 139.2 136.3 143.2C152.3 287.5 152 287.7 152 288v216C152 508.4 155.6 512 160 512s8-3.594 8-8V288c0-.3008-.2891-.4805-.3203-.7734C243.6 283.2 304 220.9 304 143.1zM160 272c-70.58 0-128-57.42-128-128c0-70.58 57.42-128 128-128s128 57.42 128 128C288 214.6 230.6 272 160 272zM160 47.1c-52.94 0-96 43.06-96 96C64 148.4 67.59 152 72 152S80 148.4 80 144C80 99.88 115.9 64 160 64c4.406 0 8-3.594 8-8S164.4 47.1 160 47.1z"/></svg>