<svg xmlns="http://www.w3.org/2000/svg" viewBox="0 0 576 512"><!--! Font Awesome Pro 6.0.0-alpha3 by @fontawesome - https://fontawesome.com License - https://fontawesome.com/license (Commercial License) --><path d="M269.1 326.1C273.4 332.3 280.4 336 288 336s14.62-3.703 18.91-9.906c16.12-23.38 29.91-43.03 41.72-59.81C403.1 188.7 416 170.3 416 128c0-70.58-57.41-128-128-128S160 57.42 160 128c0 42.3 12.94 60.73 67.38 138.3C239.2 283.1 252.1 302.7 269.1 326.1zM288 16c61.75 0 112 50.25 112 112c0 37.25-9.844 51.27-64.5 129.1C323.7 273.9 309.9 293.6 293.7 317c-2.625 3.812-8.812 3.812-11.44 0c-16.16-23.42-30-43.11-41.78-59.91C185.8 179.3 176 165.3 176 128C176 66.25 226.3 16 288 16zM572.6 161.4c-2.125-1.5-4.875-1.875-7.344-.9375l-152 56c-4.125 1.516-6.25 6.125-4.719 10.27s6 6.312 10.28 4.734L560 179.5v255l-152 57.91V328c0-4.422-3.594-8-8-8s-8 3.578-8 8v165.4l-208-59.43V328C184 323.6 180.4 320 176 320s-8 3.578-8 8v106.5L16 492.4V229.5l122.8-46.06C142.9 181.9 145 177.3 143.5 173.2C141.9 169 137.3 166.9 133.2 168.5l-128 48C2.063 217.7 0 220.7 0 224v280c0 2.625 1.281 5.094 3.469 6.594C4.813 511.5 6.406 512 8 512c.9687 0 1.938-.1719 2.844-.5313l165.5-63.05l221.4 63.27c1.625 .4531 3.438 .4062 5.031-.2187l168-64C573.9 446.3 576 443.3 576 440v-272C576 165.4 574.7 162.9 572.6 161.4z"/></svg>