<svg xmlns="http://www.w3.org/2000/svg" viewBox="0 0 576 512"><!--! Font Awesome Pro 6.0.0-alpha3 by @fontawesome - https://fontawesome.com License - https://fontawesome.com/license (Commercial License) --><path d="M554.7 32.89l-163.2 57.74L188.4 32.64c-4.684-1.395-8.727-.0254-8.812 0l-168 48C4.75 82.61 0 88.86 0 96.01v367.1c0 10.66 10.38 18.77 21.34 15.11l163.2-57.74l203 57.99c4.684 1.395 8.766 .0322 8.852 .0068l167.1-48.01C571.3 429.4 576 423.1 576 415.1V48.01C576 37.35 565.6 29.23 554.7 32.89zM176 407.4l-159.9 56.54c-.1328 .043 .0547-.002 0 0L15.99 96.02L176 50.31V407.4zM384 461.7l-192-54.84V50.31l192 54.84V461.7zM400 461.7V104.6l159.9-56.54c.1328-.043-.0547 .002 0 0l.1543 367.9L400 461.7z"/></svg>