<svg xmlns="http://www.w3.org/2000/svg" viewBox="0 0 576 512"><!--! Font Awesome Pro 6.0.0-alpha3 by @fontawesome - https://fontawesome.com License - https://fontawesome.com/license (Commercial License) --><path d="M528 31.1h-480c-26.5 0-48 21.5-48 48v320C0 426.5 21.5 448 48 448h480c26.5 0 48-21.5 48-48v-320C576 53.5 554.5 31.1 528 31.1zM560 400c0 17.64-14.36 32-32 32h-480c-17.64 0-32-14.36-32-32v-320c0-17.64 14.36-32 32-32h480c17.64 0 32 14.36 32 32V400zM390.4 120H121.6C103 120 88 135.4 88 154.3v171.4C88 344.6 103 360 121.6 360h268.8c18.56 0 33.6-15.35 33.6-34.29V154.3C424 135.4 408.1 120 390.4 120zM408 325.7C408 335.8 400.1 344 390.4 344H121.6C111.9 344 104 335.8 104 325.7V154.3C104 144.2 111.9 136 121.6 136h268.8C400.1 136 408 144.2 408 154.3V325.7zM496 224c-17.64 0-32 14.36-32 32s14.36 32 32 32s32-14.36 32-32S513.6 224 496 224zM496 272C487.2 272 480 264.8 480 256s7.172-16 16-16S512 247.2 512 256S504.8 272 496 272zM496 128c-17.64 0-32 14.36-32 32s14.36 32 32 32s32-14.36 32-32S513.6 128 496 128zM496 176C487.2 176 480 168.8 480 160s7.172-16 16-16S512 151.2 512 160S504.8 176 496 176zM128 464H64c-4.422 0-8 3.578-8 8S59.58 480 64 480h64c4.422 0 8-3.578 8-8S132.4 464 128 464zM512 464h-64c-4.422 0-8 3.578-8 8S443.6 480 448 480h64c4.422 0 8-3.578 8-8S516.4 464 512 464z"/></svg>