<svg xmlns="http://www.w3.org/2000/svg" viewBox="0 0 384 512"><!--! Font Awesome Pro 6.0.0-alpha3 by @fontawesome - https://fontawesome.com License - https://fontawesome.com/license (Commercial License) --><path d="M276 111.1c-10.94 0-21.33 2.123-31.06 5.656l34.52-107.2c1.342-4.219-.9672-8.719-5.148-10.09c-4.274-1.281-8.705 .9688-10.08 5.156l-39.34 122.1C210.6 137.3 199.1 150.9 192 166.9C177.7 134.6 145.5 111.1 107.1 111.1c-31.57 0-59.43 16.03-76 40.37V119.1c0-4.406-3.588-8-7.987-8C19.59 111.1 16 115.6 16 119.1v320.3c0 4.406 3.594 7.859 7.994 7.859c4.399 0 7.981-3.453 7.981-7.859V204.1c0-42 34.1-76.16 76-76.16c41.93 0 76.03 34.16 76.03 76.16v50.54l-79.5 246.8c-1.342 4.219 .9672 8.719 5.148 10.09c.8424 .25 1.59 .375 2.401 .375c3.37 0 6.585-2.156 7.677-5.531l64.27-199.6v133.4c0 4.406 3.588 7.776 7.987 7.776s7.987-3.37 7.987-7.776V257.3l38.28-118.9c11.17-6.465 23.95-10.45 37.75-10.45c41.9 0 76 34.16 76 76.16v236.1c0 4.406 3.582 7.859 7.981 7.859S368 444.7 368 440.3V204.1C368 153.3 326.8 111.1 276 111.1zM199.1 204.1c0-16.68 5.538-31.1 14.65-44.56l-14.65 45.5V204.1z"/></svg>