<svg xmlns="http://www.w3.org/2000/svg" viewBox="0 0 640 512"><!--! Font Awesome Pro 6.0.0-alpha3 by @fontawesome - https://fontawesome.com License - https://fontawesome.com/license (Commercial License) --><path d="M580.8 140.6C577.5 143.9 577.6 149.3 581.1 152.3C587.7 158.1 592 166.5 592 176v288c0 17.67-14.33 32-32 32h-480c-17.67 0-32-14.33-32-32v-288c0-17.67 14.33-32 32-32h266.6c2.113 0 4.141-.8359 5.639-2.326C357.3 136.6 353.7 128 346.6 128H80C53.6 128 32 149.6 32 176v288C32 490.4 53.6 512 80 512h480c26.4 0 48-21.6 48-48v-288c0-14.24-6.326-27.03-16.27-35.82C588.6 137.4 583.7 137.6 580.8 140.6zM320 217.7V280C320 284.4 323.6 288 328 288h62.34c6.344 0 12.53-2.578 17.03-7.078l190.8-191.9C604.5 82.66 608 74.2 608 65.22c-.0313-8.891-3.531-17.25-9.844-23.5l-31.84-31.84c-12.56-12.72-34.69-12.7-47.31-.0469l-191.9 190.8C322.6 205.1 320 211.3 320 217.7zM336 217.7c0-2.125 .8438-4.188 2.375-5.672l191.9-190.8c6.594-6.594 18.03-6.719 24.69 0l31.89 31.89c0 .0156 0 0 0 0C590.1 56.3 592 60.66 592 65.27c0 4.688-1.812 9.109-5.188 12.47l-190.8 191.9C394.5 271.1 392.5 272 390.3 272H336V217.7zM104 384h432c4.406 0 8-3.578 8-8s-3.594-8-8-8H104C99.59 368 96 371.6 96 376S99.59 384 104 384zM104 288h176C284.4 288 288 284.4 288 280S284.4 272 280 272h-176C99.59 272 96 275.6 96 280S99.59 288 104 288zM536 272h-80C451.6 272 448 275.6 448 280S451.6 288 456 288h80C540.4 288 544 284.4 544 280S540.4 272 536 272z"/></svg>