<svg xmlns="http://www.w3.org/2000/svg" viewBox="0 0 576 512"><!--! Font Awesome Pro 6.0.0-alpha3 by @fontawesome - https://fontawesome.com License - https://fontawesome.com/license (Commercial License) --><path d="M312 312h-16V192c0-4.422-3.578-8-8-8H272C267.6 184 264 187.6 264 192S267.6 200 272 200h8v112h-16C259.6 312 256 315.6 256 320s3.578 8 8 8h48c4.422 0 8-3.578 8-8S316.4 312 312 312zM112.1 133.9c-4.234-.9375-8.578 1.781-9.516 6.109C97.05 165.5 74.08 184 48 184C43.58 184 40 187.6 40 192S43.58 200 48 200c33.55 0 63.09-23.8 70.25-56.58C119.2 139.1 116.5 134.8 112.1 133.9zM49 352.9c-4.453-.5469-8.375 2.531-8.938 6.938c-.5469 4.391 2.562 8.391 6.938 8.938C74.94 372.3 96 396 96 424c0 .9687-.1719 1.906-.3125 2.844l-.375 2.734c-.4531 4.391 2.875 7.375 7.266 7.812c.2344 .0313 .4531 .0313 .6562 .0313c4.141 0 7.828-3.953 8.25-8.125C111.8 427.6 112 425.8 112 424C112 387.1 84.92 357.4 49 352.9zM288 128C230.6 128 184 185.3 184 256s46.56 128 104 128s104-57.31 104-128S345.4 128 288 128zM288 368c-48.52 0-88-50.24-88-112S239.5 144 288 144s88 50.24 88 112S336.5 368 288 368zM559 52.21C524.1 37.57 489.2 32 454.3 32C343.5 32.01 232.5 88.11 121.7 88.11c-27.79 0-55.58-3.529-83.39-12.35C25.99 71.82 0 77.03 0 102.9v330.3c0 11.38 6.498 22.15 16.96 26.52C51.86 474.4 86.79 480 121.7 480c110.8 0 221.7-56.11 332.6-56.11c27.81 0 55.6 3.518 83.39 12.35C562 443.9 576 423.1 576 409.1V78.75C576 67.37 569.5 56.6 559 52.21zM560 409.1c0 9.596-9.48 14.45-17.49 11.92C514.8 412.2 485.9 407.9 454.3 407.9c-57.41 0-114.8 14.51-170.2 28.54C230.5 449.1 175.2 464 121.7 464c-35.92 0-68.16-6.207-98.6-18.98C18.87 443.2 16 438.5 16 433.3V102.9c0-9.703 9.598-14.45 17.5-11.92C61.3 99.83 90.16 104.1 121.7 104.1c57.41 0 114.7-14.51 170.2-28.54C345.5 62.02 400.8 48 454.2 48c35.91 0 68.2 6.203 98.62 18.96C557.1 68.76 560 73.49 560 78.75V409.1zM528 312c-33.55 0-63.09 23.8-70.25 56.58c-.9531 4.312 1.781 8.578 6.109 9.516c.5781 .125 1.141 .1875 1.719 .1875c3.672 0 6.984-2.547 7.797-6.297C478.1 346.5 501.9 328 528 328c4.422 0 8-3.578 8-8S532.4 312 528 312zM527 159.1c.3438 .0469 .6719 .0625 1.016 .0625c3.969 0 7.406-2.953 7.922-7c.5469-4.391-2.562-8.391-6.938-8.938C501.1 139.7 480 115.1 480 88c0-.9687 .1719-1.906 .3125-2.844l.375-2.734c.4531-4.391-2.875-7.375-7.266-7.812c-5.047-.6719-8.453 3.719-8.906 8.094C464.2 84.44 464 86.19 464 88C464 124 491.1 154.6 527 159.1z"/></svg>