<svg xmlns="http://www.w3.org/2000/svg" viewBox="0 0 640 512"><!--! Font Awesome Pro 6.0.0-alpha3 by @fontawesome - https://fontawesome.com License - https://fontawesome.com/license (Commercial License) --><path d="M320 217.7V280C320 284.4 323.6 288 328 288h62.34c6.344 0 12.53-2.578 17.03-7.078l190.8-191.9C604.5 82.66 608 74.2 608 65.22c-.0313-8.891-3.531-17.25-9.844-23.5l-31.84-31.84c-12.56-12.72-34.69-12.7-47.31-.0469l-191.9 190.8C322.6 205.1 320 211.3 320 217.7zM336 217.7c0-2.125 .8438-4.188 2.375-5.672l191.9-190.8c6.594-6.594 18.03-6.719 24.69 0l31.89 31.89c0 .0156 0 0 0 0C590.1 56.3 592 60.66 592 65.27c0 4.688-1.812 9.109-5.188 12.47l-190.8 191.9C394.5 271.1 392.5 272 390.3 272H336V217.7zM536 272h-80C451.6 272 448 275.6 448 280S451.6 288 456 288h80C540.4 288 544 284.4 544 280S540.4 272 536 272zM536 368h-272C259.6 368 256 371.6 256 376S259.6 384 264 384h272c4.406 0 8-3.578 8-8S540.4 368 536 368zM580.8 140.6C577.5 143.9 577.6 149.3 581.1 152.3C587.7 158.1 592 166.5 592 176v288c0 17.67-14.33 32-32 32h-480c-17.67 0-32-14.33-32-32v-288c0-17.67 14.33-32 32-32h266.6c2.113 0 4.141-.8359 5.639-2.326C357.3 136.6 353.7 128 346.6 128H80C53.6 128 32 149.6 32 176v288C32 490.4 53.6 512 80 512h480c26.4 0 48-21.6 48-48v-288c0-14.24-6.326-27.03-16.27-35.82C588.6 137.4 583.7 137.6 580.8 140.6zM160 432c4.422 0 8-3.578 8-8v-24.48c27.8-1.322 47.29-13.49 51.19-34.3c6.781-36.09-28.67-45.45-57.17-52.98L155.2 310.4C122.5 301.5 113.5 293.9 116.5 277.7C120.1 258.5 147.1 253.5 172.1 257.1c6.578 .9531 14.34 2.906 24.45 6.141c4.172 1.312 8.703-1 10.06-5.188C207.1 253.9 205.6 249.4 201.4 248C190.5 244.5 181.9 242.4 174.4 241.3C172.2 240.1 170.1 240.9 168 240.7V216C168 211.6 164.4 208 160 208S152 211.6 152 216v24.28c-27.91 1.279-47.28 13.64-51.2 34.49C94.13 310.4 129.7 320.1 151 325.9l6.938 1.844c33.69 8.906 49.16 15.2 45.53 34.58c-3.609 19.23-30.58 24.22-55.63 20.58c-10.14-1.422-21.84-5.312-32.17-8.75L110.5 372.4c-4.219-1.359-8.719 .9219-10.09 5.125s.9219 8.719 5.125 10.09l5.109 1.688c10.97 3.641 23.42 7.781 34.97 9.406C147.8 399 149.8 398.1 152 399.2V424C152 428.4 155.6 432 160 432z"/></svg>