<svg xmlns="http://www.w3.org/2000/svg" viewBox="0 0 640 512"><!--! Font Awesome Pro 6.0.0-alpha3 by @fontawesome - https://fontawesome.com License - https://fontawesome.com/license (Commercial License) --><path d="M591.1 31.1H144c-26.51 0-48 21.49-48 48v256c0 26.51 21.49 48 48 48h447.1C618.5 384 640 362.5 640 336v-256C640 53.49 618.5 31.1 591.1 31.1zM624 336c0 17.64-14.36 32-32 32h-448c-17.64 0-32-14.36-32-32v-256c0-17.64 14.36-32 32-32h448c17.64 0 32 14.36 32 32V336zM367.1 112c-44.18 0-80 42.98-80 96c0 53.02 35.82 96 80 96s80-42.98 80-96C447.1 154.1 412.2 112 367.1 112zM367.1 288c-35.29 0-64-35.89-64-80s28.71-80 64-80s64 35.89 64 80S403.3 288 367.1 288zM536 416c-4.422 0-8 3.578-8 8c0 22.06-17.94 40-40 40h-416c-30.88 0-56-25.12-56-56v-256c0-22.06 17.94-40 40-40C60.42 112 64 108.4 64 104S60.42 96 56 96C25.12 96 0 121.1 0 152v256C0 447.7 32.3 480 72 480h416c30.88 0 56-25.12 56-56C544 419.6 540.4 416 536 416z"/></svg>