<svg xmlns="http://www.w3.org/2000/svg" viewBox="0 0 640 512"><!--! Font Awesome Pro 6.0.0-alpha3 by @fontawesome - https://fontawesome.com License - https://fontawesome.com/license (Commercial License) --><path d="M504 80c-4.418 0-8 3.582-8 8V464c0 17.67-14.33 32-32 32h-288c-17.67 0-32-14.33-32-32V88c0-4.418-3.582-8-8-8S128 83.58 128 88V464C128 490.5 149.5 512 176 512h288c26.51 0 48-21.49 48-48V88C512 83.58 508.4 80 504 80zM416 288c0-44.18-42.98-80-96-80C266.1 208 224 243.8 224 288s42.98 80 96 80C373 368 416 332.2 416 288zM240 288c0-35.29 35.89-64 80-64s80 28.71 80 64c0 35.29-35.89 64-80 64S240 323.3 240 288zM600 0H40C17.94 0 0 17.94 0 40v80C0 124.4 3.578 128 8 128S16 124.4 16 120v-80c0-13.23 10.77-24 24-24h560c13.23 0 24 10.77 24 24v80C624 124.4 627.6 128 632 128S640 124.4 640 120v-80C640 17.94 622.1 0 600 0z"/></svg>