<svg xmlns="http://www.w3.org/2000/svg" viewBox="0 0 640 512"><!--! Font Awesome Pro 6.0.0-alpha3 by @fontawesome - https://fontawesome.com License - https://fontawesome.com/license (Commercial License) --><path d="M464 392c-39.7 0-72 32.3-72 72c0 4.422 3.578 8 8 8s8-3.578 8-8c0-30.88 25.12-56 56-56c4.422 0 8-3.578 8-8S468.4 392 464 392zM504.1 80C499.7 80 496 83.54 496 87.91V464c0 17.67-14.33 32-32 32h-288c-17.67 0-32-14.33-32-32V87.91C144 83.54 140.5 80 136.1 80S128 83.54 128 87.91V464C128 490.5 149.5 512 176 512h288c26.51 0 48-21.49 48-48V87.91C512 83.54 508.5 80 504.1 80zM464 104c-17.57 0-33.23-8.184-43.5-20.9C418.1 81.2 416.7 80 414.3 80c-6.562 0-10.38 7.621-6.299 12.76C421.1 109.3 441.3 120 464 120c4.422 0 8-3.578 8-8S468.4 104 464 104zM176 408c30.88 0 56 25.12 56 56c0 4.422 3.578 8 8 8s8-3.578 8-8c0-39.7-32.3-72-72-72c-4.422 0-8 3.578-8 8S171.6 408 176 408zM600 0H40C17.94 0 0 17.94 0 40v80C0 124.4 3.578 128 8 128S16 124.4 16 120v-80c0-13.23 10.77-24 24-24h560c13.23 0 24 10.77 24 24v80C624 124.4 627.6 128 632 128S640 124.4 640 120v-80C640 17.94 622.1 0 600 0zM320 208C266.1 208 224 243.8 224 288s42.98 80 96 80c53.02 0 96-35.82 96-80S373 208 320 208zM320 352c-44.11 0-80-28.71-80-64c0-35.29 35.89-64 80-64s80 28.71 80 64C400 323.3 364.1 352 320 352zM225.7 80c-2.449 0-4.682 1.199-6.221 3.104C209.2 95.82 193.6 104 176 104c-4.422 0-8 3.578-8 8S171.6 120 176 120c22.74 0 42.88-10.69 56.02-27.24C236.1 87.62 232.3 80 225.7 80z"/></svg>