<svg xmlns="http://www.w3.org/2000/svg" viewBox="0 0 576 512"><!--! Font Awesome Pro 6.0.0-alpha3 by @fontawesome - https://fontawesome.com License - https://fontawesome.com/license (Commercial License) --><path d="M288 160C243.8 160 208 202.1 208 256S243.8 352 288 352c44.15 0 79.1-42.97 79.1-96C367.1 202.1 332.2 160 288 160zM288 336c-35.29 0-63.1-35.89-63.1-80c0-44.11 28.71-80 63.1-80s63.1 35.89 63.1 80C351.1 300.1 323.3 336 288 336zM559 52.21C524.1 37.57 489.2 32 454.3 32C343.5 32.01 232.5 88.11 121.7 88.11c-27.79 0-55.58-3.529-83.39-12.35C25.99 71.82 0 77.03 0 102.9v330.3c0 11.38 6.498 22.15 16.96 26.52C51.86 474.4 86.79 480 121.7 480c110.8 0 221.7-56.11 332.6-56.11c27.81 0 55.6 3.518 83.39 12.35C562 443.9 576 423.1 576 409.1V78.75C576 67.37 569.5 56.6 559 52.21zM560 409.1c0 9.596-9.48 14.45-17.49 11.92C514.8 412.2 485.9 407.9 454.3 407.9c-57.41 0-114.8 14.51-170.2 28.54C230.5 449.1 175.2 464 121.7 464c-35.92 0-68.16-6.207-98.6-18.98C18.87 443.2 16 438.5 16 433.3V102.9c0-9.703 9.598-14.45 17.5-11.92C61.3 99.83 90.16 104.1 121.7 104.1c57.41 0 114.7-14.51 170.2-28.54C345.5 62.02 400.8 48 454.2 48c35.91 0 68.2 6.203 98.62 18.96C557.1 68.76 560 73.49 560 78.75V409.1z"/></svg>