<svg xmlns="http://www.w3.org/2000/svg" viewBox="0 0 576 512"><!--! Font Awesome Pro 6.0.0-alpha3 by @fontawesome - https://fontawesome.com License - https://fontawesome.com/license (Commercial License) --><path d="M528 64h-480C21.49 64 0 85.49 0 112v288C0 426.5 21.49 448 48 448h480c26.51 0 48-21.49 48-48v-288C576 85.49 554.5 64 528 64zM560 400c0 17.64-14.36 32-32 32h-480c-17.64 0-32-14.36-32-32v-288c0-17.64 14.36-32 32-32h480c17.64 0 32 14.36 32 32V400zM288 160C243.8 160 208 202.1 208 256c0 53.02 35.82 96 80 96s80-42.98 80-96C368 202.1 332.2 160 288 160zM288 336c-35.29 0-64-35.89-64-80s28.71-80 64-80c35.29 0 64 35.89 64 80S323.3 336 288 336z"/></svg>