<svg xmlns="http://www.w3.org/2000/svg" viewBox="0 0 576 512"><!--! Font Awesome Pro 6.0.0-alpha3 by @fontawesome - https://fontawesome.com License - https://fontawesome.com/license (Commercial License) --><path d="M528 64h-480C21.49 64 0 85.49 0 112v288C0 426.5 21.49 448 48 448h480c26.51 0 48-21.49 48-48v-288C576 85.49 554.5 64 528 64zM560 400c0 17.64-14.36 32-32 32h-480c-17.64 0-32-14.36-32-32v-288c0-17.64 14.36-32 32-32h480c17.64 0 32 14.36 32 32V400zM504 304h-80C419.6 304 416 307.6 416 312S419.6 320 424 320h80C508.4 320 512 316.4 512 312S508.4 304 504 304zM344 304h-80C259.6 304 256 307.6 256 312S259.6 320 264 320h80C348.4 320 352 316.4 352 312S348.4 304 344 304zM504 208h-240C259.6 208 256 211.6 256 216S259.6 224 264 224h240C508.4 224 512 220.4 512 216S508.4 208 504 208zM130 248.2L123.2 246.4C90.53 237.5 81.5 229.9 84.52 213.7c3.609-19.23 30.55-24.2 55.59-20.58c6.578 .9531 14.34 2.906 24.45 6.141c4.172 1.297 8.703-.9844 10.06-5.188C175.1 189.9 173.6 185.4 169.4 184C158.5 180.5 149.9 178.4 142.4 177.3C140.2 176.1 138.1 176.9 136 176.7V152C136 147.6 132.4 144 128 144S120 147.6 120 152v24.29C92.05 177.6 72.72 189.9 68.8 210.8C62.13 246.4 97.73 256.1 119 261.9l6.938 1.844C159.6 272.6 175.1 278.9 171.5 298.3c-3.609 19.23-30.53 24.19-55.63 20.58C105.7 317.4 93.1 313.5 83.67 310.1L78.48 308.4C74.3 307 69.77 309.3 68.39 313.5s.9219 8.719 5.125 10.09l5.109 1.688c10.97 3.641 23.42 7.781 34.97 9.406C115.8 335 117.8 334.1 120 335.2V360c0 4.422 3.578 8 8 8s8-3.578 8-8v-24.48c27.8-1.322 47.29-13.49 51.19-34.3C193.1 265.1 158.5 255.8 130 248.2z"/></svg>