<svg xmlns="http://www.w3.org/2000/svg" viewBox="0 0 576 512"><!--! Font Awesome Pro 6.0.0-alpha3 by @fontawesome - https://fontawesome.com License - https://fontawesome.com/license (Commercial License) --><path d="M504 336h-112c-4.406 0-8 3.578-8 8S387.6 352 392 352h112c4.406 0 8-3.578 8-8S508.4 336 504 336zM280 240h-208C67.59 240 64 243.6 64 248S67.59 256 72 256h208C284.4 256 288 252.4 288 248S284.4 240 280 240zM248 336h-176C67.59 336 64 339.6 64 344S67.59 352 72 352h176C252.4 352 256 348.4 256 344S252.4 336 248 336zM528 64h-480C21.49 64 0 85.49 0 112v288C0 426.5 21.49 448 48 448h480c26.51 0 48-21.49 48-48v-288C576 85.49 554.5 64 528 64zM560 400c0 17.64-14.36 32-32 32h-480c-17.64 0-32-14.36-32-32v-288c0-17.64 14.36-32 32-32h480c17.64 0 32 14.36 32 32V400zM496 160h-128C359.2 160 352 167.2 352 176v64C352 248.8 359.2 256 368 256h128C504.8 256 512 248.8 512 240v-64C512 167.2 504.8 160 496 160zM496 240h-128v-64h128V240z"/></svg>