<svg xmlns="http://www.w3.org/2000/svg" viewBox="0 0 640 512"><!--! Font Awesome Pro 6.0.0-alpha3 by @fontawesome - https://fontawesome.com License - https://fontawesome.com/license (Commercial License) --><path d="M551.6 261.3c-1.344-4.184-5.719-6.496-10.09-5.121c-4.188 1.373-6.469 5.887-5.094 10.09l51.03 156C590.5 431.1 592 440.4 592 450.1v21.61c0 13.22-10.78 23.98-24 23.98S544 484.9 544 471.7l-.0938-22.88l-1.906-11.29l-38.37-120.2c-1.344-4.201-5.812-6.496-10.06-5.184c-4.219 1.342-6.531 5.84-5.188 10.05l5.916 18.48l-144.8 99H320c-4.406 0-8 3.576-8 7.994c0 4.42 3.594 7.994 8 7.994h75.69c20.69 0 36.31 14.43 36.31 33.56c0 3.795-2.969 6.76-6.781 6.76H264c-30.88 0-56-25.11-56-55.96v-24.59c0-87.55 74.75-170.5 147-200.1c4.094-1.686 6.031-6.355 4.375-10.43c-1.688-4.076-6.281-6.121-10.44-4.373C271.8 232.2 192 321.2 192 415.5v24.59c0 14.94 4.596 28.82 12.43 40.34C177.8 463.3 160 433.6 160 399.7V175.9c0-44.08-35.88-79.95-80-79.95S0 131.9 0 175.1V247.8c0 4.418 3.594 7.994 8 7.994S16 252.3 16 247.8V175.9c0-35.27 28.72-63.96 64-63.96s64 28.68 64 63.96v223.8C144 461.4 194.3 512 256 512h169.2C437.8 512 448 501.8 448 489.3c0-28.25-22.5-49.54-52.31-49.54h-17.8l121.5-83.08l27.08 84.59L528 450.1v21.61c0 22.05 17.94 39.97 40 39.97S608 493.7 608 471.7v-21.61c0-11.46-1.844-22.55-5.406-32.84L551.6 261.3zM581.5 55.96c-7.045 0-13.92 1.553-20.61 4.027C546.6 24.84 512.3 0 472 0s-74.64 24.84-88.89 59.99c-6.688-2.475-13.57-4.027-20.61-4.027C330.3 55.96 304 81.07 304 111.9C304 142.8 330.3 167.9 362.5 167.9c4.596 0 9.32-1.252 14.06-2.432C379.5 215.8 420.9 255.8 472 255.8s92.5-40.03 95.44-90.37C572.2 166.6 576.9 167.9 581.5 167.9C613.8 167.9 640 142.8 640 111.1C640 81.12 613.8 55.96 581.5 55.96zM376 95.94v53.59c-4.717 1.504-9.158 2.377-13.5 2.377C339.1 151.9 320 134 320 111.1c0-22.05 19.06-40.02 42.5-40.02c5.387 0 10.7 1.211 15.89 3.236C376.9 81.89 376 88.79 376 95.94zM552 159.9c0 44.08-35.89 79.95-80 79.95s-80-35.87-80-79.95V95.94c0-44.08 35.89-79.95 80-79.95s80 35.86 80 79.95V159.9zM568 149.6V95.94c0-7.145-.9082-14.05-2.391-20.75c5.189-2.025 10.5-3.236 15.89-3.236c23.44 0 42.5 17.93 42.5 39.97C624 138 598.3 159.2 568 149.6zM440 95.94c-8.875 0-16 7.121-16 15.99c0 8.867 7.125 15.99 16 15.99s16-7.121 16-15.99C456 103.1 448.9 95.94 440 95.94zM504 95.94c-8.875 0-16 7.121-16 15.99c0 8.867 7.125 15.99 16 15.99s16-7.121 16-15.99C520 103.1 512.9 95.94 504 95.94z"/></svg>