<svg xmlns="http://www.w3.org/2000/svg" viewBox="0 0 384 512"><!--! Font Awesome Pro 6.0.0-alpha3 by @fontawesome - https://fontawesome.com License - https://fontawesome.com/license (Commercial License) --><path d="M67.16 399.9c4.156 .0625 8.281-2.814 8.719-7.207L102.8 109.3c.5625-5.533 3.031-10.74 6.938-14.66l76.5-76.55c3.125-3.127 8.188-3.127 11.31 0l76.63 76.55c3.906 3.924 6.375 9.129 6.938 14.62l26.97 283.4c.4062 4.143 3.875 7.238 7.969 7.238c.25 0 .5-.0156 .75-.0313c4.406-.4219 7.625-4.33 7.219-8.738l-26.97-283.5c-.9375-9.193-5.031-17.84-11.56-24.36l-76.63-76.55c-9.062-9.066-24.88-9.066-33.94 0l-76.5 76.55C91.94 89.87 87.84 98.51 86.91 107.8l-26.97 283.4C59.53 395.6 62.75 399.5 67.16 399.9zM152 239.8c-13.22 0-24 10.77-24 24.01v32.02C128 309.1 138.8 319.9 152 319.9h80c13.22 0 24-10.77 24-24.01V263.9c0-13.24-10.78-24.01-24-24.01H152zM240 263.9v32.08c0 4.408-3.594 7.939-8 7.939h-80c-4.406 0-8-3.531-8-7.939V263.9c0-4.408 3.594-8.004 8-8.004h80C236.4 255.9 240 259.4 240 263.9zM360 431.1H24c-13.22 0-24 10.77-24 24.01v32.02C0 501.2 10.78 512 23.1 512h336c13.22 0 24-10.76 24-24v-32.02C384 442.7 373.2 431.1 360 431.1zM368 487.1c0 4.486-3.5 8.004-8 8.004H24c-4.5 0-8-3.518-8-8.004v-32.02c0-4.486 3.5-8.004 8-8.004h336c4.5 0 8 3.518 8 8.004V487.1z"/></svg>