<svg xmlns="http://www.w3.org/2000/svg" viewBox="0 0 640 512"><!--! Font Awesome Pro 6.0.0-alpha3 by @fontawesome - https://fontawesome.com License - https://fontawesome.com/license (Commercial License) --><path d="M64 0C4.059 29.92 0 79.5 0 92.77v411.2C0 508.4 3.594 512 8 512s8-3.572 8-7.986V92.77c0-42.28 36.28-67.61 48-74.68c11.72 7.064 48 32.39 48 74.68v411.2C112 508.4 115.6 512 120 512S128 508.4 128 504V92.77C128 79.5 123.9 29.92 64 0zM218.6 286.4c3.312-2.934 3.594-7.986 .6562-11.28C206.5 260.8 200 245.1 200 231.1c0-40.54 28.28-78.32 84.06-112.3C350.6 78.01 383.3 41.2 400 21.37c33.11 39.76 72.36 70.72 115.1 97.38C571.7 152.8 600 190.5 600 231.1c0 14.91-6.5 29.73-19.28 44.03c-2.938 3.291-2.656 8.344 .6562 11.28c3.076 2.781 8.15 2.82 11.28-.6406C608.2 268.4 616 250 616 231.1c0-46.48-30.84-88.85-91.69-125.1c-24.49-14.97-68.6-42.11-118.2-101.3c-3-3.648-9.25-3.648-12.25 0c-50.4 59.99-93.85 86.44-118.2 101.3C214.8 142.2 184 184.6 184 231.1c0 18.95 7.844 37.34 23.34 54.67C210.3 289 215.4 289.3 218.6 286.4zM260 380.2c-24.25 0-44 19.7-44 43.92v79.85C216 508.4 219.6 512 224 512s8-3.572 8-7.986v-79.85c0-15.41 12.56-27.95 28-27.95S288 408.8 288 424.2v79.85C288 508.4 291.6 512 296 512s8-3.572 8-7.986v-79.85C304 399.9 284.3 380.2 260 380.2zM601.1 304.4H198.9C177.5 304.4 160 322.3 160 344.3v159.7C160 508.4 163.6 512 168 512s8-3.572 8-7.986v-159.7c0-13.21 10.28-23.96 22.94-23.96h402.1c12.66 0 22.94 10.75 22.94 23.96v159.7C624 508.4 627.6 512 632 512S640 508.4 640 504v-159.7C640 322.3 622.5 304.4 601.1 304.4zM400 351.4c-52.48 26.19-56 68.98-56 80.79v71.87C344 508.4 347.6 512 352 512s8-3.572 8-7.986v-71.87c0-34.98 29.56-56.26 40-62.67c10.44 6.41 40 27.68 40 62.67v71.87C440 508.4 443.6 512 448 512s8-3.572 8-7.986v-71.87C456 420.3 452.5 377.5 400 351.4zM540 384.2c-24.25 0-44 19.7-44 43.92v75.86C496 508.4 499.6 512 504 512S512 508.4 512 504v-75.86c0-15.41 12.56-27.95 28-27.95s28 12.54 28 27.95v75.86C568 508.4 571.6 512 576 512s8-3.572 8-7.986v-75.86C584 403.9 564.3 384.2 540 384.2z"/></svg>