<svg xmlns="http://www.w3.org/2000/svg" viewBox="0 0 640 512"><!--! Font Awesome Pro 6.0.0-alpha3 by @fontawesome - https://fontawesome.com License - https://fontawesome.com/license (Commercial License) --><path d="M128 224c-70.69 0-128 57.31-128 128s57.31 128 128 128s128-57.31 128-128S198.7 224 128 224zM128 464c-61.76 0-112-50.24-112-112S66.24 240 128 240S240 290.2 240 352S189.8 464 128 464zM128 288c-35.35 0-64 28.65-64 64s28.65 64 64 64s64-28.65 64-64S163.3 288 128 288zM128 400c-26.47 0-48-21.53-48-48S101.5 304 128 304s48 21.53 48 48S154.5 400 128 400zM512 224c-18.2 0-35.45 3.916-51.12 10.76l-71.81-140l46.44-34.63C445.3 52.3 457.7 48 470.3 48H488C501.2 48 512 58.77 512 72v32C512 117.2 501.2 128 488 128h-32C451.6 128 448 131.6 448 136s3.594 8 8 8h32c22.06 0 40-17.94 40-40v-32C528 49.94 510.1 32 488 32h-17.63c-16.16 0-32.12 5.516-44.62 15.41l-44.09 32.88l-22.54-43.95C357.8 33.67 355 32 352 32H264C259.6 32 256 35.58 256 40S259.6 48 264 48h83.13l21.53 41.99L253.3 176H237.3L217.4 156.1C199.5 138.3 174.8 128 149.5 128H56C42.78 128 32 138.8 32 152V176c0 13.23 10.78 24 24 24h65.56c76.59 0 142.1 51.75 155.7 123c3.781 19.75 3.656 39.73-.3125 59.38c-.4687 2.359 .125 4.797 1.656 6.656C280.1 390.9 282.4 392 284.8 392h70.44c2.406 0 4.688-1.078 6.188-2.938c1.531-1.859 2.125-4.297 1.656-6.656C361 372.4 360 362.2 360 352c0-39.91 15.84-77.67 44.66-106.3c3.125-3.125 3.125-8.188 0-11.31c-3.094-3.141-8.156-3.141-11.31-.0313C361.5 266 344 307.8 344 352c0 8 .5625 16.03 1.719 24H294.3c2.688-18.59 2.219-37.38-1.344-55.97C277.9 241.2 205.8 184 121.6 184H56C51.59 184 48 180.4 48 176V152c0-4.406 3.594-8 8-8h93.47c21.06 0 41.68 8.547 56.59 23.44l22.22 22.22C229.8 191.2 231.8 192 233.9 192H256c1.719 0 3.406-.5625 4.781-1.594l115.3-85.98l70.75 137.1C409.4 264.7 384 305.2 384 352c0 70.69 57.31 128 128 128s128-57.31 128-128S582.7 224 512 224zM512 464c-61.76 0-112-50.24-112-112c0-40.49 21.81-75.71 54.09-95.38l50.83 99.14C506.4 358.5 509.1 360 512 360c1.25 0 2.469-.2813 3.656-.875c3.938-2.016 5.411-6.94 3.411-10.88l-50.91-99.28C481.6 243.2 496.4 240 512 240c61.76 0 112 50.24 112 112S573.8 464 512 464z"/></svg>