<svg xmlns="http://www.w3.org/2000/svg" viewBox="0 0 640 512"><!--! Font Awesome Pro 6.0.0-alpha3 by @fontawesome - https://fontawesome.com License - https://fontawesome.com/license (Commercial License) --><path d="M629.8 381.6l-126.1-197.5c-6.291-9.855-16.64-14.79-26.98-14.79s-20.67 4.932-26.96 14.79L409.6 247.1c0 0-129.6-203-129.6-203C274.7 36.08 265.3 32 255.9 32C246.5 32 237.1 36.07 231.9 44.22L8.928 393.6C-14.95 431 11.95 480 56.33 480h519.6C626.4 480 657 424.2 629.8 381.6zM56.29 464c-14.91 0-28.09-7.807-35.26-20.88c-7.164-13.07-6.652-28.38 1.367-40.94l223-349.4C247.7 49.27 252.3 48 255.9 48c3.584 0 8.24 1.262 10.57 4.826l222.1 349.4c8.02 12.56 8.529 27.87 1.367 40.94C483.7 456.2 470.5 464 455.6 464H56.29zM617.1 439.1C609.4 454.7 593.7 464 575.9 464h-81.32c17.91-17.52 23.81-46.3 8.41-70.43l-83.79-131.3l44.12-69.66c2.998-4.699 7.916-7.393 13.49-7.393s10.49 2.693 13.49 7.391l126.1 197.5C625.9 405.2 626.5 423.5 617.1 439.1z"/></svg>