<svg xmlns="http://www.w3.org/2000/svg" viewBox="0 0 448 512"><!--! Font Awesome Pro 6.0.0-alpha3 by @fontawesome - https://fontawesome.com License - https://fontawesome.com/license (Commercial License) --><path d="M440 272H384V40C384 35.59 380.4 32 376 32S368 35.59 368 40V272h-122.1L78.53 35.41c-2-2.875-5.75-4.125-8.938-3.031C66.25 33.44 64 36.5 64 40V272H8C3.594 272 0 275.6 0 280S3.594 288 8 288H64v184C64 476.4 67.59 480 72 480s8-3.594 8-8V288h156.7l132.7 188.6C371 478.8 373.4 480 376 480c.8125 0 1.625-.125 2.406-.375C381.8 478.6 384 475.5 384 472V288h56C444.4 288 448 284.4 448 280S444.4 272 440 272zM80 272V65.28L225.5 272H80zM368 446.7L256.3 288H368V446.7z"/></svg>