<svg xmlns="http://www.w3.org/2000/svg" viewBox="0 0 576 512"><!--! Font Awesome Pro 6.0.0-alpha3 by @fontawesome - https://fontawesome.com License - https://fontawesome.com/license (Commercial License) --><path d="M568.6 463.6c-29.28-2.289-57.88-17.86-82.72-45.04C484.4 416.9 482.3 416 480 416s-4.406 .957-5.938 2.635c-26.66 29.53-57.63 45.2-89.5 45.31l-.4541-.0547c-31.94 0-63.08-15.63-90.2-45.28C292.4 416.9 290.3 416 288 416s-4.406 .957-5.938 2.635c-26.66 29.53-57.63 45.2-89.5 45.31L192.1 463.9c-31.94 0-63.08-15.63-90.21-45.28C100.4 416.9 98.25 416 95.1 416s-4.406 .957-5.938 2.635c-24.66 27.29-53.25 42.88-82.66 45.04c-4.406 .3301-7.719 4.188-7.375 8.611c.3438 4.406 3.344 7.543 8.562 7.416c31.22-2.32 61.28-17.48 87.44-44.04C124.9 464.7 157.9 480 192.1 480h.4824c34.13-.1094 66.97-15.4 95.44-44.32C316.9 464.7 349.9 480 384.1 480h.4863c34.13-.1094 66.97-15.4 95.44-44.32c26.28 26.39 56.31 41.54 87.35 43.96c5.158 .6445 8.252-2.979 8.596-7.369C576.3 467.8 573 463.1 568.6 463.6zM288 384c35.35 0 64-28.65 64-64c0-32.71-24.64-59.39-56.32-63.22C295.7 256.5 296 256.3 296 256V144h80C380.4 144 384 140.4 384 136S380.4 128 376 128h-80V72c0-13.23 10.77-24 24-24h56C380.4 48 384 44.42 384 40S380.4 32 376 32H320c-22.06 0-40 17.94-40 40V256c0 .3027 .2871 .4824 .3203 .7754C248.6 260.6 224 287.3 224 320C224 355.3 252.7 384 288 384zM288 272c26.47 0 48 21.53 48 48s-21.53 48-48 48S240 346.5 240 320S261.5 272 288 272zM8.588 351.1c31.22-2.332 61.28-17.57 87.44-44.24c26.37 26.61 56.22 41.71 87.2 44.16C187.9 352.3 192 348.6 192 343.9c0-4.121-3.07-7.693-7.145-8.002c-29.36-2.227-57.92-17.74-82.95-45.24C100.4 288.9 98.25 288 95.1 288S91.59 288.1 90.06 290.6c-24.66 27.41-53.25 43.07-82.66 45.25c-4.406 .332-7.719 4.207-7.375 8.65C.3691 348.1 3.369 352.1 8.588 351.1zM392.8 351.9c30.99-2.451 60.84-17.55 87.2-44.16c26.16 26.67 56.22 41.91 87.44 44.24c5.219 .127 8.219-3.025 8.562-7.451c.3438-4.443-2.969-8.318-7.375-8.65c-29.41-2.174-58-17.83-82.66-45.25C484.4 288.1 482.3 288 480 288s-4.406 .9453-5.938 2.615c-25.04 27.5-53.59 43.02-82.95 45.24C387.1 336.2 384 339.7 384 343.9C384 348.6 388.1 352.3 392.8 351.9z"/></svg>