<svg xmlns="http://www.w3.org/2000/svg" viewBox="0 0 640 512"><!--! Font Awesome Pro 6.0.0-alpha3 by @fontawesome - https://fontawesome.com License - https://fontawesome.com/license (Commercial License) --><path d="M637.9 168c-2.906-5.057-8.255-8.012-13.93-8.012c-1.131 0-2.287 .1203-3.426 .3625l-169.7 37.61l-49.97-30.44C392.8 162.6 383.3 160 373.3 160H264V80h87.1C356.4 80 360 76.42 360 72S356.4 64 352 64H160C155.6 64 152 67.58 152 72S155.6 80 159.1 80H248V160H47.1C21.53 160 0 181.5 0 208v64.3c0 19.06 11.28 36.32 28.75 43.98l67.25 29.46L96 374C96 397.2 117.5 416 143.1 416h256.8c13.89 0 27.08-5.203 36.59-14.75l198.4-214.4C640.5 181.7 641.4 174.1 637.9 168zM96 328.2l-60.83-26.61C23.53 296.5 16 285 16 272.3V208c0-17.64 14.36-32 32-32H96V328.2zM426 389.1C419.6 396.4 410.6 400 400.8 400H144c-17.64 0-32-11.66-32-25.1V176h261.3c6.988 0 13.62 1.799 19.21 5.211l55.47 33.79l176-39.01L426 389.1z"/></svg>