<svg xmlns="http://www.w3.org/2000/svg" viewBox="0 0 640 512"><!--! Font Awesome Pro 6.0.0-alpha3 by @fontawesome - https://fontawesome.com License - https://fontawesome.com/license (Commercial License) --><path d="M608 32h-32l-13.26-13.26C550.7 6.74 534.5 0 517.5 0h-20.5c-11.21 0-22.22 2.926-31.95 8.489L311.1 96H255.1C149.1 96 63.98 181.1 63.99 288l.0025 38.38c-.0117 9.844-3.064 19.25-8.852 27.2l-43.22 59.44C4.125 423.7 0 436.4 0 449.7C0 484 27.95 512 62.33 512H216C220.4 512 224 508.4 224 504S220.4 496 216 496H62.33C36.78 496 16 475.2 16 449.7c0-9.859 3.062-19.28 8.859-27.25l40.85-56.18C72.21 394.7 97.56 416 127.1 416h176c8.875 0 16-7.125 16-16c0-26.4-21.6-48-48-48H223.1l149.5-80.5l65.56 127.2C444.5 409.3 455.5 416 467.5 416h60.5c8.875 0 16-7.125 16-16c0-26.4-21.6-48-48-48h-12.25l-55.12-110.3L521.1 192h22.88c53.02 0 96-42.98 96-96l.0002-32C640 46.4 625.6 32 608 32zM544 176h-22.88c-2.646 0-5.25 .6562-7.58 1.908l-91.23 49.07c-6.713-12.38-8.164-26.52-3.893-39.99c4.406-13.86 14.08-24.86 27.23-31l48.78-22.73C501.8 129.8 509.1 128 518.1 128h99.13C604.8 156.2 576.7 176 544 176zM624 96c0 5.479-.5645 10.83-1.619 16h-104.3c-10.45 0-20.97 2.328-30.42 6.75l-48.76 22.73c-17.02 7.938-30.05 22.75-35.73 40.66s-3.594 37.53 5.734 53.83l60.53 123.2C472.1 364.6 477.7 368 483.7 368h12.25c17.65 0 32 14.36 32 32H467.5c-6.016 0-11.46-3.32-14.22-8.668l-65.56-127.2c-1.969-3.816-5.387-6.682-9.486-7.951C376.7 255.7 375.1 255.5 373.5 255.5c-2.625 0-5.234 .6445-7.586 1.912L224 333.8V296C224 291.6 220.4 288 216 288S208 291.6 208 296V352c0 1.301 .1504 2.605 .4805 3.912C210.3 363 216.7 368 223.1 368h48c17.64 0 32 14.36 32 32h-176c-26.46 0-47.1-21.53-48-47.1l.002-25.65c0-.0156 0 .0156 0 0V287.1c0-.0078 0 .0078 0 0c0-47 18.3-91.2 51.53-124.4C164.8 130.3 208.1 112 255.1 112h56.02c2.785 0 5.523-.7266 7.941-2.111l153-87.51C480.3 18.21 488.6 16 496.1 16h20.5c12.81 0 24.86 4.99 33.93 14.05l13.26 13.26C567.7 46.31 571.8 48 575.1 48H608c8.822 0 16 7.178 16 16V96zM511.1 48c-8.875 0-16 7.125-16 16s7.126 16 16 16s16-7.125 16-16S520.9 48 511.1 48z"/></svg>