<svg xmlns="http://www.w3.org/2000/svg" viewBox="0 0 448 512"><!--! Font Awesome Pro 6.0.0-alpha3 by @fontawesome - https://fontawesome.com License - https://fontawesome.com/license (Commercial License) --><path d="M440 312h-240C195.6 312 192 315.6 192 320s3.578 8 8 8h240c4.422 0 8-3.578 8-8S444.4 312 440 312zM8 72h432C444.4 72 448 68.42 448 64s-3.578-8-8-8H8C3.578 56 0 59.58 0 64S3.578 72 8 72zM440 184h-240C195.6 184 192 187.6 192 192s3.578 8 8 8h240C444.4 200 448 196.4 448 192S444.4 184 440 184zM440 440H8C3.578 440 0 443.6 0 448s3.578 8 8 8h432c4.422 0 8-3.578 8-8S444.4 440 440 440zM91.75 346.6c6.5 5.719 15.78 7 23.75 3.188C123.1 346.1 128 338 128 329.4V182.7c0-8.656-4.906-16.69-12.5-20.44C112.6 160.8 109.4 160 105.1 160c-5.281 0-10.34 1.938-14.22 5.375l-84 73.34C2.844 243.1 0 249.4 0 256c0 6.656 2.844 12.99 7.781 17.3L91.75 346.6zM18.28 250.8l84.06-73.41c2.406-2.156 4.5-1.562 6.031-.8438C110.6 177.7 112 180.1 112 182.7v146.7c0 2.625-1.406 5.031-3.5 6.062c-2.906 1.289-5.008 .1953-6.219-.8438l-84-73.34C16.84 260 16 258.1 16 256S16.84 252.1 18.28 250.8z"/></svg>