<svg xmlns="http://www.w3.org/2000/svg" viewBox="0 0 384 512"><!--! Font Awesome Pro 6.0.0-alpha3 by @fontawesome - https://fontawesome.com License - https://fontawesome.com/license (Commercial License) --><path d="M336 104v264c0 79.41-64.59 144-144 144s-144-64.59-144-144V200C48 195.6 51.58 192 56 192S64 195.6 64 200v168c0 70.58 57.42 128 128 128s128-57.42 128-128V104c0-48.53-39.47-88-88-88S144 55.47 144 104V320c0 26.47 21.53 48 48 48s48-21.53 48-48V136C240 131.6 243.6 128 248 128S256 131.6 256 136V320c0 35.3-28.7 64-64 64s-64-28.7-64-64V104C128 46.66 174.7 0 232 0S336 46.66 336 104z"/></svg>