<svg xmlns="http://www.w3.org/2000/svg" viewBox="0 0 512 512"><!--! Font Awesome Pro 6.0.0-alpha3 by @fontawesome - https://fontawesome.com License - https://fontawesome.com/license (Commercial License) --><path d="M511.5 187.1C491.1 80.93 384.5 0 255.1 0S20.89 80.93 .5348 187.1C-3.162 206.3 12.81 224 32.67 224h20.02l112.1 112.1C162 340.9 159.1 346.1 159.1 352l.0056 128c0 17.67 14.33 32 32 32h128c17.67 0 32-14.33 32-32l-.0069-128c0-5.902-2.002-11.12-4.789-15.87L459.3 224h20.02C499.2 224 515.2 206.3 511.5 187.1zM383.6 208h-255.2c5.045-107.2 60.36-192 127.6-192C323.3 16 378.6 100.8 383.6 208zM32.67 208c-5.145 0-9.969-2.266-13.23-6.215C17.79 199.8 15.19 195.6 16.25 190.1c15.8-82.38 85.97-146.3 176.3-166.9C147.8 57.43 116.2 126.6 112.5 208H32.67zM75.31 224h172.7v96H191.1c-5.902 0-11.12 2.029-15.87 4.816L75.31 224zM335.1 480c0 8.822-7.178 16-16 16H191.1c-8.822 0-16-7.178-16-16v-128c0-8.822 7.178-16 16-16h127.1c8.822 0 16 7.178 16 16V480zM335.9 324.8C331.1 322 325.9 320 320 320h-56V224h172.7L335.9 324.8zM492.6 201.8C489.3 205.7 484.5 208 479.3 208h-79.85c-3.705-81.37-35.28-150.6-80.03-184.9c90.33 20.67 160.5 84.55 176.3 166.9C496.8 195.6 494.2 199.8 492.6 201.8z"/></svg>