<svg xmlns="http://www.w3.org/2000/svg" viewBox="0 0 640 512"><!--! Font Awesome Pro 6.0.0-alpha3 by @fontawesome - https://fontawesome.com License - https://fontawesome.com/license (Commercial License) --><path d="M413.5 192H504C508.4 192 512 188.4 512 184S508.4 176 504 176h-90.5c-1.781 0-3.531-.5938-4.938-1.688l-47.03-36.58c-14.88-11.62-36.16-11.08-50.59 1.203L252.1 189.4c-9.781 8.406-14.84 20.61-13.84 33.48c1.031 12.89 7.906 24.17 18.94 30.95l59 36.33C318.5 291.6 320 294.2 320 296.9V440c0 4.422 3.594 8 8 8s8-3.578 8-8V296.9c0-8.297-4.375-16.12-11.44-20.44l-59-36.31C258.1 236.1 254.8 229.3 254.2 221.6C253.6 213.9 256.6 206.6 262.5 201.5l58.84-50.44c8.624-7.375 21.41-7.703 30.34-.7344l47.03 36.58C402.9 190.2 408.2 192 413.5 192zM400 96C426.5 96 448 74.51 448 48S426.5 0 400 0S352 21.49 352 48S373.5 96 400 96zM400 16c17.64 0 32 14.36 32 32s-14.36 32-32 32s-32-14.36-32-32S382.4 16 400 16zM188.8 186.1c3.176 3.883 7.668 5.891 12.12 5.891c3.438 0 6.852-1.191 9.625-3.641L314.8 99.5c6.375-5.5 7-15.5 1.375-22.38C300.2 57.95 277.7 47.98 255.3 47.98c-17.12 0-34.12 5.85-47.95 17.89L149.3 114.6c-6.375 5.625-7 15.5-1.375 22.38L188.8 186.1zM217.9 77.94c10.49-9.131 23.44-13.96 37.45-13.96c18.49 0 36.16 8.514 49.04 23.34L201.1 175.9L159.5 126.9L217.9 77.94zM240 352H234.8c-2.125-7.25-5-14.25-8.625-20.88l3.75-3.625c6.25-6.25 6.25-16.5 0-22.75L207.3 282.1C204.1 279 200 277.4 195.9 277.4S187.6 279 184.5 282.1L180.9 285.9C174.3 282.3 167.3 279.4 160 277.3V272C160 263.1 152.9 256 144 256h-32C103.1 256 96 263.1 96 272v5.25c-7.25 2.125-14.25 5-20.88 8.625L71.5 282.1C68.38 279 64.28 277.4 60.16 277.4S51.9 279 48.78 282.1L26.15 304.8c-6.25 6.25-6.25 16.5 0 22.75l3.725 3.625C26.25 337.8 23.37 344.8 21.25 352H16C7.125 352 0 359.1 0 368v32C0 408.9 7.125 416 16 416h5.25c2.125 7.25 5 14.25 8.625 20.88L26.12 440.5c-6.25 6.25-6.25 16.5 0 22.75l22.63 22.62C51.88 489 56 490.6 60.13 490.6s8.225-1.562 11.35-4.688l3.65-3.75C81.75 485.8 88.75 488.6 96 490.8V496C96 504.9 103.1 512 112 512h32C152.9 512 160 504.9 160 496v-5.25c7.25-2.125 14.25-5 20.88-8.625l3.675 3.75c3.125 3.125 7.231 4.688 11.36 4.688s8.219-1.562 11.34-4.688l22.62-22.62c6.25-6.25 6.25-16.5 0-22.75l-3.75-3.625C229.8 430.3 232.6 423.3 234.8 416H240C248.9 416 256 408.9 256 400v-32C256 359.1 248.9 352 240 352zM240 400H222.8l-3.371 11.5c-1.816 6.203-4.277 12.16-7.305 17.7l-5.859 10.7l12.33 12.04l-22.56 22.82l-12.11-12.52l-10.7 5.855c-5.539 3.031-11.49 5.49-17.7 7.309L144 478.8V496h-32v-17.23l-11.5-3.369c-6.203-1.818-12.16-4.277-17.7-7.309l-10.7-5.855l-12.04 12.33l-22.82-22.56l12.52-12.11l-5.859-10.7c-3.027-5.539-5.488-11.49-7.305-17.7L33.23 400H16v-32h17.23l3.371-11.5c1.816-6.203 4.277-12.16 7.305-17.7l5.855-10.7L37.44 316.1l22.56-22.82l12.11 12.52l10.7-5.857C88.34 296.9 94.3 294.4 100.5 292.6L112 289.2V272h32v17.23l11.5 3.371c6.203 1.818 12.16 4.277 17.7 7.307l10.7 5.857l12.04-12.33l22.82 22.56l-12.52 12.11l5.855 10.7c3.027 5.539 5.488 11.49 7.305 17.7L222.8 368H240V400zM624 352h-5.25c-2.125-7.25-5-14.25-8.625-20.88l3.75-3.625c6.25-6.25 6.25-16.5 0-22.75l-22.62-22.62C588.1 279 584 277.4 579.9 277.4S571.6 279 568.5 282.1l-3.625 3.75C558.3 282.3 551.3 279.4 544 277.3V272C544 263.1 536.9 256 528 256h-32C487.1 256 480 263.1 480 272v5.25c-7.25 2.125-14.25 5-20.88 8.625L455.5 282.1c-3.125-3.125-7.219-4.688-11.31-4.688S435.1 279 432.9 282.1l-22.6 22.62c-6.25 6.25-6.25 16.5 0 22.75l3.625 3.625C410.3 337.8 407.4 344.8 405.3 352H400c-8.875 0-16 7.125-16 16v32c0 8.875 7.125 16 16 16h5.25c2.125 7.25 5 14.25 8.625 20.88l-3.75 3.625c-6.25 6.25-6.25 16.5 0 22.75l22.62 22.62C435.9 489 440 490.6 444.1 490.6s8.225-1.562 11.35-4.688l3.65-3.75C465.8 485.8 472.8 488.6 480 490.8V496c0 8.875 7.125 16 16 16h32c8.875 0 16-7.125 16-16v-5.25c7.25-2.125 14.25-5 20.88-8.625l3.75 3.75c3.125 3.125 7.219 4.688 11.31 4.688s8.188-1.562 11.31-4.688l22.62-22.62c6.25-6.25 6.25-16.5 0-22.75l-3.75-3.625C613.8 430.3 616.6 423.3 618.8 416H624c8.875 0 16-7.125 16-16v-32C640 359.1 632.9 352 624 352zM624 400h-17.23l-3.371 11.5c-1.816 6.203-4.277 12.16-7.305 17.7l-5.859 10.7l12.33 12.04l-22.62 22.62l-12.23-12.23l-10.52 5.754c-5.539 3.031-11.49 5.49-17.7 7.309L528 478.8V496h-32v-17.23l-11.5-3.369c-6.203-1.818-12.16-4.277-17.7-7.309l-10.7-5.855l-12.04 12.33l-22.82-22.56l12.52-12.11l-5.859-10.7c-3.027-5.539-5.488-11.49-7.305-17.7L417.2 400H400v-32h17.23l3.371-11.5c1.816-6.203 4.277-12.16 7.305-17.7l5.754-10.52l-12.1-12.22l22.43-22.82l12.11 12.52l10.7-5.857c5.539-3.029 11.49-5.488 17.7-7.307L496 289.2V272h32v17.23l11.5 3.371c6.203 1.818 12.16 4.277 17.7 7.307l10.7 5.857l12.04-12.33l22.82 22.56l-12.52 12.11l5.855 10.7c3.027 5.539 5.488 11.49 7.305 17.7L606.8 368H624V400zM128 320c-35.35 0-64 28.65-64 64s28.65 64 64 64s64-28.65 64-64S163.3 320 128 320zM128 432c-26.47 0-48-21.53-48-48s21.53-48 48-48s48 21.53 48 48S154.5 432 128 432zM512 320c-35.35 0-64 28.65-64 64s28.65 64 64 64s64-28.65 64-64S547.3 320 512 320zM512 432c-26.47 0-48-21.53-48-48s21.53-48 48-48s48 21.53 48 48S538.5 432 512 432z"/></svg>