<svg xmlns="http://www.w3.org/2000/svg" viewBox="0 0 640 512"><!--! Font Awesome Pro 6.0.0-alpha3 by @fontawesome - https://fontawesome.com License - https://fontawesome.com/license (Commercial License) --><path d="M104 256c2.938 0 5.781-1.625 7.172-4.469l42.67-86.41c7.609-15.06 22.09-25.69 38.69-28.44c16.77-2.812 33.81 2.812 45.61 14.59l52.39 54.28C292 207.1 294.1 208 296.3 208H320c4.422 0 8-3.594 8-8S324.4 192 320 192H299.7L249.5 140.1C234 124.5 211.8 117.5 189.1 120.9C168.3 124.5 149.5 138.3 139.5 157.1l-42.7 86.5C94.88 248.4 96.5 253.2 100.5 255.2C101.6 255.8 102.8 256 104 256zM637.7 442.3c-3.125-3.125-8.188-3.125-11.31 0l-9.141 9.125c-15.85 15.87-34.76 27.34-55.21 34.84l-71.64-78.8l75.05-48.35c6.609-4.281 10.56-11.41 10.56-19.12V267.4c0-8.875-5-16.78-13.23-20.69l-172.5-76.7l-30.78-76.96c-1.641-4.094-6.281-6.094-10.39-4.469c-4.109 1.656-6.094 6.312-4.453 10.41l30.2 75.51L284.8 280L102.1 280.1c-14.95 0-28.33 8-34.89 20.81l-24.52 47.38c-2.031 3.938-.4844 8.75 3.438 10.78c3.859 2.062 8.734 .5313 10.78-3.406l24.53-47.44c3.828-7.469 11.73-12.12 20.66-12.12L292.1 296l94.06-110.3l169.9 75.47c2.406 1.156 3.906 3.5 3.906 6.156v72.66c0 2.25-1.219 4.375-3.234 5.688L472.5 400H352c-4.422 0-8 3.594-8 8S347.6 416 352 416h124.5l68.58 75.44C533.6 494.2 521.8 496 509.7 496H424c-4.422 0-8 3.594-8 8S419.6 512 424 512h85.72c67.77 0 111.1-42.4 118.8-49.22l9.141-9.125C640.8 450.5 640.8 445.5 637.7 442.3zM256 384H64c-35.35 0-64 28.65-64 64s28.65 64 64 64h192c35.35 0 64-28.65 64-64S291.3 384 256 384zM256 496H64c-26.47 0-48-21.53-48-48s21.53-48 48-48h192c26.47 0 48 21.53 48 48S282.5 496 256 496zM236 104C264.7 104 288 80.72 288 52S264.7 0 236 0S184 23.28 184 52S207.3 104 236 104zM236 16C255.9 16 272 32.15 272 52c0 19.85-16.15 36-36 36c-19.85 0-36-16.15-36-36C200 32.15 216.2 16 236 16z"/></svg>