<svg xmlns="http://www.w3.org/2000/svg" viewBox="0 0 640 512"><!--! Font Awesome Pro 6.0.0-alpha3 by @fontawesome - https://fontawesome.com License - https://fontawesome.com/license (Commercial License) --><path d="M400 96C426.5 96 448 74.51 448 48S426.5 0 400 0S352 21.49 352 48S373.5 96 400 96zM400 16c17.64 0 32 14.36 32 32s-14.36 32-32 32s-32-14.36-32-32S382.4 16 400 16zM413.5 192H504C508.4 192 512 188.4 512 184S508.4 176 504 176h-90.5c-1.781 0-3.531-.5938-4.938-1.688l-47.03-36.58c-14.88-11.62-36.16-11.08-50.59 1.203L252.1 189.4c-9.781 8.406-14.84 20.61-13.84 33.48c1.031 12.89 7.906 24.17 18.94 30.95l59 36.33C318.5 291.6 320 294.2 320 296.9V440c0 4.422 3.594 8 8 8s8-3.578 8-8V296.9c0-8.297-4.375-16.12-11.44-20.44l-59-36.31C258.1 236.1 254.8 229.3 254.2 221.6C253.6 213.9 256.6 206.6 262.5 201.5l58.84-50.44c8.624-7.375 21.41-7.703 30.34-.7344l47.03 36.58C402.9 190.2 408.2 192 413.5 192zM512 256c-70.69 0-128 57.31-128 128c0 70.69 57.31 128 128 128s128-57.31 128-128C640 313.3 582.7 256 512 256zM512 496c-61.76 0-112-50.24-112-112s50.24-112 112-112s112 50.24 112 112S573.8 496 512 496zM128 256c-70.69 0-128 57.31-128 128c0 70.69 57.31 128 128 128s128-57.31 128-128C256 313.3 198.7 256 128 256zM128 496c-61.76 0-112-50.24-112-112S66.24 272 128 272s112 50.24 112 112S189.8 496 128 496z"/></svg>