<svg xmlns="http://www.w3.org/2000/svg" viewBox="0 0 448 512"><!--! Font Awesome Pro 6.0.0-alpha3 by @fontawesome - https://fontawesome.com License - https://fontawesome.com/license (Commercial License) --><path d="M408 240h-48.17C364.7 224.8 368 208.8 368 192c0-10.96-1.125-21.66-3.234-32H408C412.4 160 416 156.4 416 152S412.4 144 408 144h-48.17C339.3 79.32 279.4 32 208 32H120C97.94 32 80 49.94 80 72V144H40C35.58 144 32 147.6 32 152S35.58 160 40 160H80v80H40C35.58 240 32 243.6 32 248S35.58 256 40 256H80v216C80 476.4 83.58 480 88 480S96 476.4 96 472L96.14 352h111.9c65.44 0 121.6-39.59 146.4-96H408C412.4 256 416 252.4 416 248S412.4 240 408 240zM96 72C96 58.78 106.8 48 120 48H208c62.49 0 115.3 40.25 135.2 96H96V72zM96.02 160h252.1C350.5 170.3 352 180.1 352 192c0 16.91-3.467 32.91-8.846 48h-247.1L96.02 160zM208 336H96V256h240.3C312.7 303.2 264.3 336 208 336z"/></svg>