<svg xmlns="http://www.w3.org/2000/svg" viewBox="0 0 576 512"><!--! Font Awesome Pro 6.0.0-alpha3 by @fontawesome - https://fontawesome.com License - https://fontawesome.com/license (Commercial License) --><path d="M536 224l-5.534 .0035c-8.25-18.84-20.5-36.25-35.5-50.85l16.78-67.22c.5938-2.391 .0625-4.922-1.438-6.859C508.8 97.14 506.5 96 504 96h-32c-28.16 0-55.41 11.93-75.16 32.87C392.6 128.4 388.4 128 383.1 128H255.1C170.4 128 100.9 195.7 96.78 280.3C96.48 280.3 96.3 280 96 280H40C26.78 280 16 269.2 16 256V224c0-13.23 10.78-24 24-24S64 210.8 64 224c0 4.422 3.594 8 8 8S80 228.4 80 224c0-22.06-17.94-40-40-40S0 201.9 0 224v32c0 22.06 17.94 40 40 40H96c.1797 0 .2852-.1797 .4629-.1914C98.81 342.9 121.1 386.9 160 415.6V472C160 494.1 177.9 512 200 512h16C238.1 512 256 494.1 256 472L255.1 448h128L384 472c0 22.06 17.94 40 40 40h16c22.06 0 40-17.94 40-40l-.0025-56.73c12.06-9.125 22.39-19.42 31.32-31.26L536 384c22.06 0 40-17.94 40-40v-80C576 241.9 558.1 224 536 224zM392 447.5c-.0078 0-.0176-.2773-.0273-.3496c.1992-.0098 .3926-.0527 .5918-.0645C392.4 447.2 392.2 447.5 392 447.5zM560 344c0 13.23-10.78 24-24 24h-28.44c-2.594 0-5 1.25-6.5 3.344c-9.219 12.88-20.56 24.2-33.72 33.67C465.3 406.5 464 408.9 464 411.5V472c0 13.23-10.78 24-24 24h-16c-13.22 0-24-10.77-24-24v-25.71c5.916-.5977 11.93-.6309 17.69-1.887c4.312-.9219 7.062-5.188 6.125-9.5c-.9375-4.328-5.219-7.062-9.5-6.125C404.4 430.9 394.2 432 384 432H256c-10.25 0-20.47-1.078-30.31-3.203c-4.219-.8281-8.562 1.828-9.5 6.141c-.9375 4.328 1.812 8.578 6.125 9.516C228.1 445.7 234.1 445.7 240 446.3V472c0 13.23-10.78 24-24 24h-16c-13.22 0-24-10.77-24-24v-60.45c0-2.578-1.25-5.016-3.344-6.516c-38-27.09-60.67-70.84-60.67-117C111.1 208.6 176.6 144 256 144h128c4.631 0 8.883 .4922 15.28 1.203c2.906 .2344 5.188-.7344 6.906-2.688C423.3 122.8 446.7 112 472 112h21.75l-15.44 61.83c-.7187 2.844 .1875 5.859 2.344 7.844c16.22 14.86 29 33.28 36.94 53.28C518.8 238 521.8 240 525 240H536c13.22 0 24 10.77 24 24V344zM431.1 256c-8.836 0-16 7.164-16 16S423.2 288 431.1 288c8.838 0 16-7.164 16-16S440.8 256 431.1 256zM208 112c4.406 0 8-3.578 8-8c0-48.53 39.47-88 88-88c45.44 0 83.97 35.42 87.69 80.66c.3438 4.406 4.625 7.812 8.625 7.312C404.7 103.6 408 99.75 407.6 95.34C403.2 41.88 357.7 0 303.1 0C246.6 0 200 46.66 200 104C200 108.4 203.6 112 208 112z"/></svg>