<svg xmlns="http://www.w3.org/2000/svg" viewBox="0 0 640 512"><!--! Font Awesome Pro 6.0.0-alpha3 by @fontawesome - https://fontawesome.com License - https://fontawesome.com/license (Commercial License) --><path d="M320 351.1c-44.11 0-80 35.84-80 79.98v72.04C240 508.4 243.6 512 248 512S256 508.4 256 503.1V431.1c0-35.32 28.7-64.03 64-64.03s64 28.72 64 64.03v72.04C384 508.4 387.6 512 392 512s8-3.58 8-8.004V431.1C400 387.8 364.1 351.1 320 351.1zM116.4 320.7L22.11 367.9C8.469 374.7 0 388.5 0 403.7v100.3C0 508.4 3.578 512 8 512s8-3.58 8-8.004v-100.3c0-9.161 5.078-17.38 13.27-21.48l94.31-47.18c3.953-1.985 5.547-6.785 3.578-10.74C125.2 320.4 120.4 318.8 116.4 320.7zM617.9 367.9l-94.31-47.18c-3.922-1.954-8.734-.3439-10.73 3.58c-1.969 3.955-.375 8.755 3.578 10.74l94.31 47.18C618.9 386.3 624 394.6 624 403.7v100.3C624 508.4 627.6 512 632 512S640 508.4 640 503.1v-100.3C640 388.5 631.5 374.7 617.9 367.9zM461.7 235.4L424 210.2V105.1c0-10.26-4-19.9-11.44-27.34L336.4 6.519c-8.75-8.755-24.22-8.567-32.59-.1876L227.3 77.96C220 85.22 216 94.88 216 105.2V210.2l-37.39 24.97C167.1 242.1 160 254.7 160 268.1v235.9C160 508.4 163.6 512 168 512s8-3.58 8-8.004V268.1c0-7.801 4.141-15.12 11.16-19.32L232 218.8V105.2c0-6.003 2.328-11.63 6.391-15.68l76.53-71.65c2.797-2.798 7.359-2.798 10.34 .1876l76.17 71.29C405.7 93.55 408 99.18 408 105.1v113.7l45.17 30.14C459.9 252.1 464 260.3 464 268.1v235.9C464 508.4 467.6 512 472 512S480 508.4 480 503.1V268.1C480 254.7 472.9 242.1 461.7 235.4z"/></svg>