<svg xmlns="http://www.w3.org/2000/svg" viewBox="0 0 576 512"><!--! Font Awesome Pro 6.0.0-alpha3 by @fontawesome - https://fontawesome.com License - https://fontawesome.com/license (Commercial License) --><path d="M479.1 192h-114.3l-36.57-64h6.859c8.838 0 16-7.164 16-16v-32c0-8.836-7.162-16-16-16h-43.43L260.6 8.062C258.1 3.609 251.8 0 246.7 0H181.2C170.6 0 162.9 10.17 165.8 20.39L214.9 192H111.1L68.8 134.4C65.77 130.4 61.02 128 55.99 128H15.99C5.581 128-2.043 137.8 .4884 147.9L23.18 225.8C9.896 229.7 .0001 241.5 .0001 256s9.896 26.33 23.18 30.22l-22.7 77.9C-2.043 374.2 5.581 384 15.99 384h40c5.031 0 9.781-2.375 12.81-6.406L111.1 320h102.9l-49.03 171.6C162.9 501.8 170.6 512 181.2 512h65.5c5.719 0 11.03-3.078 13.87-8.062L292.6 448h43.45c8.838 0 16-7.164 16-16v-32c0-8.836-7.162-16-16-16h-6.871l36.58-64h114.3C515.3 320 576 291.3 576 256S515.3 192 479.1 192zM181.2 16h65.52l36.57 64h52.71v32h-34.43L347.3 192h-115.8L181.2 16zM301.6 400h34.45v32H283.3l-36.56 64L181.2 495.1L231.5 320h115.8L301.6 400zM479.1 304H103.1l-48 64l-40.14 .5996l27.17-93.24l-15.33-4.49C21.87 269.2 16 263.9 16 256s5.867-13.16 11.68-14.87l15.33-4.49L15.99 144L56 144L103.1 208H479.1C511.6 208 560 233.7 560 256S511.6 304 479.1 304z"/></svg>