<svg xmlns="http://www.w3.org/2000/svg" viewBox="0 0 512 512"><!--! Font Awesome Pro 6.0.0-alpha3 by @fontawesome - https://fontawesome.com License - https://fontawesome.com/license (Commercial License) --><path d="M192 96v82.28L8.063 283.4C3.609 285.9 0 292.2 0 297.3v65.5c0 10.63 10.17 18.31 20.39 15.38L192 329.1v70.88l-57.59 43.19C130.4 446.2 128 450.1 128 456v40c0 10.41 9.781 18.03 19.88 15.5L256 480l108.1 31.5C374.2 514 384 506.4 384 496v-40c0-5.031-2.375-9.781-6.406-12.81L320 400V329.1l171.6 49.03C501.8 381.1 512 373.4 512 362.8V297.3c0-5.719-3.078-11.03-8.062-13.88L320 178.3v-82.28C320 60.66 291.3 0 256 0S192 60.66 192 96zM16 362.8V297.3L192 196.7v115.8L16 362.8zM496 297.3l-.0117 65.49L320 312.5V196.7L496 297.3zM304 96v312l64 48l.5996 40.14L256 463.3L144 496l.0059-40.01L208 408V96C208 64.42 233.7 16 256 16S304 64.42 304 96z"/></svg>