<svg xmlns="http://www.w3.org/2000/svg" viewBox="0 0 640 512"><!--! Font Awesome Pro 6.0.0-alpha3 by @fontawesome - https://fontawesome.com License - https://fontawesome.com/license (Commercial License) --><path d="M80.47 341.3C86.85 348.1 95.6 352 104.8 352l130.5-.25c10.38 0 20.5-2.375 29.62-7.125l290.1-147.6c26.75-13.5 50.75-32.87 66.1-58.24c18.38-28.5 20.38-49.12 13.12-63.62c-7.25-14.62-24.75-25.37-58.25-27.5c-3.092-.207-6.182-.3086-9.268-.3086c-26.71 0-53 7.592-76.98 19.81l-98.5 49.99L174.3 35.03C171.4 33.01 167.9 32 164.4 32C161.7 32 158.9 32.64 156.3 33.91L90.6 67.28C79.97 72.78 77.35 87.03 85.47 95.9L241.6 193.9L138.5 246.3L66.1 209.9C63.54 208.6 60.79 207.9 58.04 207.9S52.54 208.6 49.97 209.9L9.852 230.3c-10.38 5.25-13.12 19.12-5.5 27.1L80.47 341.3zM17.1 244.5l40.12-20.37l1.674 .043l79.62 39.99l135.5-68.82L96.75 84.09c-.0566-.2832-.0566-.5859 0-.9082c.0938-.5371 .3809-1.266 1.092-1.633l65.66-33.33C163.8 48.07 164.1 48 164.4 48l.9902 .2969l1.559 1.053l227.1 85.25l104.8-53.19c23.53-11.99 46.99-18.06 69.72-18.06c2.729 0 5.463 .0898 8.254 .2773c16.81 1.064 38.25 5.164 44.95 18.68c6.699 13.4-2.971 33.38-12.29 47.83c-13.58 21.21-34.59 39.39-60.76 52.6l-291.1 147.7c-6.779 3.527-14.26 5.316-22.27 5.316L104.8 336c-4.787 0-9.277-1.998-12.58-5.562L16.49 247.8C15.95 247.2 15.95 246.5 16.05 245.1C16.14 245.5 16.4 244.9 17.1 244.5zM632 496H8C3.578 496 0 499.6 0 504S3.578 512 8 512h624c4.422 0 8-3.578 8-8S636.4 496 632 496z"/></svg>