<svg xmlns="http://www.w3.org/2000/svg" viewBox="0 0 640 512"><!--! Font Awesome Pro 6.0.0-alpha3 by @fontawesome - https://fontawesome.com License - https://fontawesome.com/license (Commercial License) --><path d="M44.75 205.5L133.5 285.5c7.375 6.625 16 11.37 25.5 13.1l287.6 78.36C461.1 381.8 476.1 384 490.1 384c12.35 0 24.66-1.518 36.66-4.859c29.62-8.25 43.38-21.12 47.25-35.62s-1.75-32.74-23.38-54.99c-19.25-19.87-44.37-32.74-70.87-39.99l-97.5-26.5L282.7 30.2c-1.5-5.875-5.875-10.37-11.62-11.1L205.1 .582C204.6 .1875 203.1 0 201.7 0l.0566 15.92l65.48 18.24l.4609 1.807l104.5 199.7l104.2 28.32c25.83 7.064 47.83 19.41 63.62 35.71c10.74 11.04 22.81 26.9 19.39 39.71c-3.41 12.76-21.51 20.28-36.08 24.34C513.1 366.6 502.2 368 490.1 368c-12.93 0-26.45-1.871-40.13-5.547L163.3 284.1C156.2 282.1 149.7 278.6 144.2 273.6L55.48 193.7C51.13 189.7 48.29 185.2 48.25 182.3l.2793-102.1l40.14 11.32l30.47 75.21l137.5 37.47L201.8 15.92L201.7 0c-8.854 0-16.55 7.361-16.33 16.96l47.87 164.2L130.1 153.3L103.5 85.44c-2-4.875-6-8.5-11-9.875L52.75 64.7C51.29 64.29 49.83 64.1 48.41 64.1C39.72 64.1 32.21 71.23 32 80.57l.25 101.7C32.38 191.3 38.25 199.7 44.75 205.5zM632 496H8C3.578 496 0 499.6 0 504S3.578 512 8 512h624c4.422 0 8-3.578 8-8S636.4 496 632 496z"/></svg>