<svg xmlns="http://www.w3.org/2000/svg" viewBox="0 0 576 512"><!--! Font Awesome Pro 6.0.0-alpha3 by @fontawesome - https://fontawesome.com License - https://fontawesome.com/license (Commercial License) --><path d="M472 184h-119.9l-6.863-48H384v16C384 156.4 387.6 160 392 160s8-3.582 8-8v-48h8c4.418 0 7.999-3.582 7.999-8S412.4 88 408 88H400v-48C400 35.58 396.4 32 392 32S384 35.58 384 40v16h-50.21l-3.916-27.39C328.2 16.86 317.1 8 306.1 8H269.9c-11.88 0-22.09 8.859-23.75 20.61L242.2 56H224C201.9 56 184 73.94 184 96S201.9 136 224 136h6.76L223.2 188.7L134.4 196.1L126.8 142.7C125.5 134.3 118.3 128 109.8 128H66.22C57.75 128 50.47 134.3 49.25 142.7L38.78 216C17.28 216.7 0 234.4 0 256s17.28 39.34 38.78 39.97l10.47 73.34C50.47 377.7 57.75 384 66.22 384h43.56c8.469 0 15.75-6.312 16.97-14.72l7.625-53.41l88.84 7.406L230.8 376H224c-22.06 0-40 17.94-40 40S201.9 456 224 456h18.21l3.916 27.38C247.8 495.1 257.1 504 269.9 504h36.25c11.87 0 22.09-8.875 23.75-20.62L333.8 456H384v16c0 4.418 3.582 8 8 8s8-3.582 8-8v-48h8c4.418 0 7.999-3.582 7.999-8S412.4 408 408 408H400v-48c0-4.418-3.582-8-8-8S384 355.6 384 360v16h-38.77l6.863-48H472C508.5 328 576 298.3 576 256S508.5 184 472 184zM384 72v48h-41.06l-6.863-48H384zM224 120C210.8 120 200 109.2 200 96S210.8 72 224 72h15.92l-6.867 48H224zM224 440c-13.22 0-24-10.78-24-24S210.8 392 224 392h9.051l6.867 48H224zM384 392v48h-47.92l6.863-48H384zM472 312h-133.8l-24.16 169.1C313.5 485.1 310.2 488 306.1 488H269.9c-4.031 0-7.344-2.906-7.938-6.875L237.3 308.4L120.7 298.7L109.8 368l-44.72-.9687L52.66 280H40C26.78 280 16 269.2 16 256s10.78-24 24-24h12.66L66.22 144l44.72 .9687l9.75 68.33l116.6-9.719l24.66-172.7C262.5 26.95 265.9 24 269.9 24h36.25c3.969 0 7.375 2.953 7.938 6.859L338.2 200H472c33.09 0 88 27.12 88 56S505.1 312 472 312z"/></svg>