<svg xmlns="http://www.w3.org/2000/svg" viewBox="0 0 640 512"><!--! Font Awesome Pro 6.0.0-alpha3 by @fontawesome - https://fontawesome.com License - https://fontawesome.com/license (Commercial License) --><path d="M272 96c0-31.59 25.75-80 48-80c22.26 0 48 48.41 48 80v91.57l192 109.7l-.0078 57.49l15.18 12.07C575.5 365.5 576 364.2 576 362.8v-65.5c0-5.719-3.078-11.03-8.062-13.88L384 178.3V96C384 60.66 355.3 0 320 0S256 60.66 256 96v17.14l16 12.72V96zM636.1 497.7L12.99 1.73C9.537-1.016 4.51-.4238 1.74 3.012c-2.75 3.469-2.172 8.5 1.281 11.25l623.1 495.1c4.064 3.209 9.025 1.516 11.25-1.281C641 505.5 640.4 500.5 636.1 497.7zM368 387.9v20.06l64 48l.6016 40.14L320 463.3l-112 32.66l.0059-40.01L272 408V307.9l-192 54.87V297.3l102.5-58.57l-13.49-10.72L72.06 283.4C67.61 285.9 64 292.2 64 297.3v65.5c0 11.44 10.94 18.09 20.39 15.38L256 329.1v70.88l-57.59 43.19C194.4 446.2 192 450.1 192 456v40c0 11.28 10.62 17.82 19.88 15.5L320 480l108.1 31.5C437.6 513.9 448 507 448 496v-40c0-5.031-2.375-9.781-6.406-12.81L368 387.9z"/></svg>