<svg xmlns="http://www.w3.org/2000/svg" viewBox="0 0 640 512"><!--! Font Awesome Pro 6.0.0-alpha3 by @fontawesome - https://fontawesome.com License - https://fontawesome.com/license (Commercial License) --><path d="M215 80.58l21.52 17.11L213.2 16h65.52l109.7 192h123.6C543.6 208 592 233.7 592 256s-48.41 48-80 48h-15.95l19.75 15.65C551.5 317.8 607.1 290.2 607.1 256c0-35.34-60.66-63.1-96-63.1h-114.3L292.6 8.065C290.1 3.612 283.8 .0016 278.7 .0016H213.2c-10.62 0-18.31 10.17-15.37 20.39L215 80.58zM278.7 496L213.2 495.1l54.23-189.8L264.7 304H135.1l-48 64l-40.14 .6016L80.65 256l-32.67-112l15.4 .002L44.33 128.9C35.98 130.9 30.29 139.1 32.5 147.9L63.1 256L32.5 364.1c-2.531 10.09 5.094 19.87 15.5 19.87H87.1c5.031 0 9.781-2.375 12.81-6.406L143.1 319.1h102.9l-49.03 171.6c-2.938 10.22 4.747 20.41 15.37 20.41h65.5c5.719 0 11.03-3.079 13.87-8.063l69.85-122.2l-12.67-10.07L278.7 496zM636.1 497.7L12.99 1.73C11.53 .5664 9.773 0 8.027 0C5.676 0 3.338 1.029 1.74 3.012c-2.75 3.469-2.172 8.5 1.281 11.25l623.1 496C628.5 511.4 630.2 512 631.1 512c2.344 0 4.688-1.031 6.266-3.016C641 505.5 640.4 500.5 636.1 497.7z"/></svg>