<svg xmlns="http://www.w3.org/2000/svg" viewBox="0 0 512 512"><!--! Font Awesome Pro 6.0.0-alpha3 by @fontawesome - https://fontawesome.com License - https://fontawesome.com/license (Commercial License) --><path d="M504 496H267.3c-6.5 0-12.94-1.125-19.12-3.375l-216.3-78.5c-9.469-3.438-15.81-12.5-15.81-22.56v-42.38c0-11.12 7.531-20.72 18.34-23.31l216.1-52.3C254.8 272.5 259.2 272 263.6 272h240.4c4.406 0 7.1-3.578 7.1-8S508.4 256 504 256h-110.5L141.5 11.28C133.1 4 124.1 0 113.6 0H40.01C27.91 0 16.6 5.391 8.975 14.78C1.35 24.16-1.619 36.33 .8501 48.16l53.41 256.4l-23.66 5.725c-17.1 4.375-30.59 20.34-30.59 38.88v42.38c0 16.78 10.59 31.88 26.37 37.63l216.3 78.5C250.6 510.5 258.9 512 267.3 512h236.7c4.406 0 7.1-3.594 7.1-8S508.4 496 504 496zM16.54 44.89C15.04 37.8 16.82 30.5 21.38 24.86C25.97 19.23 32.76 16 40.01 16h73.59c6.281 0 12.22 2.406 16.75 6.766L370.6 256h-106.1C257.9 256 252.3 256.7 246.7 258L69.84 300.8L16.54 44.89zM200 368c-4.406 0-8.003 3.594-8.003 8S195.6 384 200 384h175.1c4.406 0 7.999-3.594 7.999-8s-3.592-8-7.999-8H200z"/></svg>