<svg xmlns="http://www.w3.org/2000/svg" viewBox="0 0 576 512"><!--! Font Awesome Pro 6.0.0-alpha3 by @fontawesome - https://fontawesome.com License - https://fontawesome.com/license (Commercial License) --><path d="M479.1 192h-114.3L260.6 8.062C258.1 3.609 251.8 0 246.7 0H181.2C170.6 0 162.9 10.17 165.8 20.39L214.9 192H111.1L68.8 134.4C65.77 130.4 61.02 128 55.99 128h-40C5.582 128-2.043 137.8 .4885 147.9L31.99 256l-31.5 108.1C-2.043 374.2 5.582 384 15.99 384h40c5.031 0 9.781-2.375 12.81-6.406L111.1 320h102.9l-49.03 171.6C162.9 501.8 170.6 512 181.2 512h65.5c5.719 0 11.03-3.078 13.87-8.062L365.7 320h114.3C515.3 320 576 291.3 576 256S515.3 192 479.1 192zM181.2 16h65.52l100.6 176H231.5L181.2 16zM246.7 496l-65.49-.0117L231.5 320h115.8L246.7 496zM479.1 304H103.1l-48 64l-40.14 .5996L48.65 256L15.99 144l40.01 .0059L103.1 208h376c31.59 0 80 25.75 80 48S511.6 304 479.1 304z"/></svg>