<svg xmlns="http://www.w3.org/2000/svg" viewBox="0 0 448 512"><!--! Font Awesome Pro 6.0.0-alpha3 by @fontawesome - https://fontawesome.com License - https://fontawesome.com/license (Commercial License) --><path d="M416 496H32c-4.406 0-8 3.578-8 8S27.59 512 32 512h384c4.406 0 8-3.578 8-8S420.4 496 416 496zM72 472c4.406 0 8-3.578 8-8V104c0-13.23 10.78-24 24-24h240c13.22 0 24 10.77 24 24V464c0 4.422 3.594 8 8 8S384 468.4 384 464V104c0-19.23-13.89-34.56-32-38.38V56C352 42.77 341.2 32 328 32h-96V8C232 3.578 228.4 0 224 0S216 3.578 216 8V32h-96C106.8 32 96 42.77 96 56v9.617C77.9 69.44 64 84.77 64 104V464C64 468.4 67.59 472 72 472zM112 56c0-4.406 3.594-8 8-8h208c4.406 0 8 3.594 8 8V64h-224V56zM208 144C208 135.2 200.8 128 192 128H128C119.2 128 112 135.2 112 144v64C112 216.8 119.2 224 128 224h64c8.836 0 16-7.164 16-16V144zM152 208H128V184h24V208zM152 168H128V144h24V168zM192 208H168V184H192V208zM192 168H168V144H192V168zM192 256H128C119.2 256 112 263.2 112 272v64C112 344.8 119.2 352 128 352h64c8.836 0 16-7.164 16-16v-64C208 263.2 200.8 256 192 256zM192 336H128v-64h64V336zM256 128c-8.836 0-16 7.164-16 16v64C240 216.8 247.2 224 256 224h64c8.836 0 16-7.164 16-16v-64C336 135.2 328.8 128 320 128H256zM280 208H256V184h24V208zM280 168H256V144h24V168zM320 208h-24V184H320V208zM320 168h-24V144H320V168z"/></svg>