<svg xmlns="http://www.w3.org/2000/svg" viewBox="0 0 640 512"><!--! Font Awesome Pro 6.0.0-alpha3 by @fontawesome - https://fontawesome.com License - https://fontawesome.com/license (Commercial License) --><path d="M80 96C106.5 96 128 74.5 128 48S106.5 0 80 0S32 21.5 32 48S53.5 96 80 96zM80 16c17.64 0 32 14.36 32 32s-14.36 32-32 32s-32-14.36-32-32S62.36 16 80 16zM128 336C128 309.5 106.5 288 80 288S32 309.5 32 336S53.5 384 80 384S128 362.5 128 336zM48 336c0-17.64 14.36-32 32-32s32 14.36 32 32s-14.36 32-32 32S48 353.6 48 336zM616 32H248C234.8 32 224 42.75 224 56v112C224 181.3 234.8 192 248 192h368C629.3 192 640 181.3 640 168v-112C640 42.75 629.3 32 616 32zM496 176H248C243.6 176 240 172.4 240 168v-112c0-4.412 3.59-8 8-8h248V176zM624 168c0 4.412-3.588 8-8 8H512v-128h104c4.412 0 8 3.588 8 8V168zM94.41 128H65.59C29.42 128 0 157.4 0 193.6V216C0 220.4 3.578 224 8 224S16 220.4 16 216V193.6C16 166.3 38.25 144 65.59 144h28.81C121.8 144 144 166.3 144 193.6V216C144 220.4 147.6 224 152 224S160 220.4 160 216V193.6C160 157.4 130.6 128 94.41 128zM94.41 416H65.59C29.42 416 0 445.4 0 481.6V504C0 508.4 3.578 512 8 512s8-3.578 8-8v-22.41C16 454.3 38.25 432 65.59 432h28.81C121.8 432 144 454.3 144 481.6V504C144 508.4 147.6 512 152 512S160 508.4 160 504v-22.41C160 445.4 130.6 416 94.41 416zM616 320H248C234.8 320 224 330.8 224 344v112C224 469.3 234.8 480 248 480h368c13.25 0 24-10.75 24-24v-112C640 330.8 629.3 320 616 320zM336 464H248c-4.41 0-8-3.588-8-8v-112c0-4.412 3.59-8 8-8h88V464zM624 456c0 4.412-3.588 8-8 8H352v-128h264c4.412 0 8 3.588 8 8V456z"/></svg>