<svg xmlns="http://www.w3.org/2000/svg" viewBox="0 0 512 512"><!--! Font Awesome Pro 6.0.0-alpha3 by @fontawesome - https://fontawesome.com License - https://fontawesome.com/license (Commercial License) --><path d="M456 216c-15.88 0-31.03 8.734-41.58 23.98C410.9 245.1 405.8 248 400.4 248C391.3 248 384 240.7 384 231.6V168C384 145.9 366.1 128 344 128l-63.64 0c-9.016 0-16.36-7.344-16.36-16.36c0-5.406 2.922-10.53 8-14.06C287.3 87.03 296 71.88 296 56c0-30.88-32.3-56-72-56S152 25.12 152 56c0 15.88 8.75 31.03 23.98 41.58C181.1 101.1 184 106.2 184 111.6c0 9.016-7.344 16.36-16.36 16.36L40 128C17.94 128 0 145.9 0 168v63.64C0 249.5 14.52 264 32.36 264c10.58 0 20.75-5.578 27.22-14.92C67.2 238.1 77.3 232 88 232C110.1 232 128 257.1 128 288s-17.94 56-40 56c-10.7 0-20.8-6.078-28.42-17.11C53.11 317.6 42.92 312 32.36 312C14.52 312 0 326.5 0 344.4V472C0 494.1 17.94 512 40 512h127.6C185.5 512 200 497.5 200 479.6c0-10.56-5.562-20.75-14.91-27.22C174.1 444.8 168 434.7 168 424C168 401.9 193.1 384 224 384s56 17.94 56 40c0 10.7-6.078 20.8-17.11 28.42C253.6 458.9 248 469.1 248 479.6C248 497.5 262.5 512 280.4 512H344c22.06 0 40-17.94 40-40v-127.6c0-9.016 7.344-16.36 16.36-16.36c5.406 0 10.53 2.922 14.06 8c10.55 15.25 25.7 24 41.58 24C486.9 360 512 327.7 512 288S486.9 216 456 216zM456 344c-10.7 0-20.8-6.078-28.42-17.11C421.1 317.6 410.9 312 400.4 312C382.5 312 368 326.5 368 344.4V472c0 13.23-10.77 24-24 24h-63.64C271.3 496 264 488.7 264 479.6c0-5.406 2.922-10.53 8-14.06c15.25-10.55 24-25.7 24-41.58c0-30.88-32.3-56-72-56s-72 25.12-72 56c0 15.88 8.75 31.03 23.98 41.58C181.1 469.1 184 474.2 184 479.6C184 488.7 176.7 496 167.6 496H40c-13.23 0-24-10.77-24-24v-127.6C16 335.3 23.34 328 32.36 328c5.406 0 10.53 2.922 14.06 8C56.97 351.3 72.13 360 88 360c30.88 0 56-32.3 56-72S118.9 216 88 216c-15.88 0-31.03 8.734-41.58 23.98C42.89 245.1 37.77 248 32.36 248C23.34 248 16 240.7 16 231.6V168c0-13.23 10.77-24 24-24h127.6C185.5 144 200 129.5 200 111.6c0-10.56-5.562-20.75-14.91-27.22C174.1 76.8 168 66.7 168 56C168 33.94 193.1 16 224 16s56 17.94 56 40c0 10.7-6.078 20.8-17.11 28.42C253.6 90.89 248 101.1 248 111.6C248 129.5 262.5 144 280.4 144H344c13.23 0 24 10.77 24 24v63.64C368 249.5 382.5 264 400.4 264c10.58 0 20.75-5.578 27.22-14.92C435.2 238.1 445.3 232 456 232c22.06 0 40 25.12 40 56S478.1 344 456 344z"/></svg>