<svg xmlns="http://www.w3.org/2000/svg" viewBox="0 0 640 512"><!--! Font Awesome Pro 6.0.0-alpha3 by @fontawesome - https://fontawesome.com License - https://fontawesome.com/license (Commercial License) --><path d="M584 184c-15.88 0-31.03 8.734-41.58 23.98C538.9 213.1 533.8 216 528.4 216C519.3 216 512 208.7 512 199.6V104C512 81.94 494.1 64 472 64l-95.64 0c-17.84 0-32.36 14.52-32.36 32.36c0 10.56 5.562 20.75 14.91 27.22C369.9 131.2 376 141.3 376 152C376 174.1 350.9 192 320 192S264 174.1 264 152c0-10.7 6.078-20.8 17.09-28.42C290.4 117.1 296 106.9 296 96.36c0-17.84-14.52-32.36-32.36-32.36L168 64C145.9 64 128 81.94 128 104v95.64C128 208.7 120.7 216 111.6 216c-5.406 0-10.53-2.922-14.06-8.016C87.03 192.7 71.88 184 56 184C25.12 184 .0004 216.3 .0004 256S25.12 328 56 328c15.88 0 31.03-8.75 41.58-23.98C101.1 298.9 106.2 296 111.6 296C120.7 296 128 303.3 128 312.4V408C128 430.1 145.9 448 168 448h95.64C281.5 448 296 433.5 296 415.6c0-10.58-5.562-20.77-14.91-27.22C270.1 380.8 264 370.7 264 360C264 337.9 289.1 320 320 320s56 17.94 56 40c0 10.7-6.078 20.8-17.11 28.42C349.6 394.9 344 405.1 344 415.6C344 433.5 358.5 448 376.4 448H472c22.06 0 40-17.94 40-40V312.4C512 303.3 519.3 296 528.4 296c5.406 0 10.53 2.922 14.06 8c10.55 15.25 25.7 24 41.58 24C614.9 328 640 295.7 640 256S614.9 184 584 184zM584 312c-10.7 0-20.8-6.078-28.42-17.11C549.1 285.6 538.9 280 528.4 280C510.5 280 496 294.5 496 312.4V408c0 13.23-10.77 24-24 24h-95.64C367.3 432 360 424.7 360 415.6c0-5.406 2.922-10.53 8-14.06c15.25-10.55 24-25.7 24-41.58c0-30.88-32.3-56-72-56s-72 25.12-72 56c0 15.88 8.75 31.03 24 41.58c5.078 3.516 8 8.641 8 14.06C280 424.7 272.7 432 263.6 432H168c-13.23 0-24-10.77-24-24V312.4C144 294.5 129.5 280 111.6 280c-10.56 0-20.75 5.562-27.22 14.91C76.8 305.9 66.7 312 56 312C33.94 312 16 286.9 16 256s17.94-56 40-56c10.7 0 20.8 6.062 28.42 17.08C90.89 226.4 101.1 232 111.6 232C129.5 232 144 217.5 144 199.6V104c0-13.23 10.77-24 24-24h95.64C272.7 80 280 87.34 280 96.36c0 5.422-2.922 10.55-8 14.06C256.8 120.1 248 136.1 248 152C248 182.9 280.3 208 320 208s72-25.12 72-56c0-15.88-8.75-31.03-23.98-41.58C362.9 106.9 360 101.8 360 96.36C360 87.34 367.3 80 376.4 80H472c13.23 0 24 10.77 24 24v95.64C496 217.5 510.5 232 528.4 232c10.58 0 20.75-5.578 27.22-14.92C563.2 206.1 573.3 200 584 200c22.06 0 40 25.12 40 56S606.1 312 584 312z"/></svg>