<svg xmlns="http://www.w3.org/2000/svg" viewBox="0 0 448 512"><!--! Font Awesome Pro 6.0.0-alpha3 by @fontawesome - https://fontawesome.com License - https://fontawesome.com/license (Commercial License) --><path d="M64 160h64V96H64V160zM80 112h32v32h-32V112zM160 32H32C14.33 32 0 46.33 0 64v128c0 17.67 14.33 32 32 32h128c17.67 0 32-14.33 32-32V64C192 46.33 177.7 32 160 32zM176 192c0 8.822-7.178 16-16 16H32C23.18 208 16 200.8 16 192V64c0-8.822 7.178-16 16-16h128c8.822 0 16 7.178 16 16V192zM160 288H32c-17.67 0-32 14.33-32 32v128c0 17.67 14.33 32 32 32h128c17.67 0 32-14.33 32-32v-128C192 302.3 177.7 288 160 288zM176 448c0 8.822-7.178 16-16 16H32c-8.822 0-16-7.178-16-16v-128c0-8.822 7.178-16 16-16h128c8.822 0 16 7.178 16 16V448zM64 416h64v-64H64V416zM80 368h32v32h-32V368zM320 160h64V96h-64V160zM336 112h32v32h-32V112zM416 32h-128c-17.67 0-32 14.33-32 32v128c0 17.67 14.33 32 32 32h128c17.67 0 32-14.33 32-32V64C448 46.33 433.7 32 416 32zM432 192c0 8.822-7.178 16-16 16h-128c-8.822 0-16-7.178-16-16V64c0-8.822 7.178-16 16-16h128c8.822 0 16 7.178 16 16V192zM352 480h32v-32h-32V480zM440 288H384c-4.422 0-8 3.578-8 8V320h-16V296C360 291.6 356.4 288 352 288h-88C259.6 288 256 291.6 256 296v176c0 4.422 3.578 8 8 8H320c4.422 0 8-3.578 8-8V384h16v24c0 4.422 3.578 8 8 8h88c4.422 0 8-3.578 8-8v-112C448 291.6 444.4 288 440 288zM432 400h-72v-24c0-4.422-3.578-8-8-8h-32c-4.422 0-8 3.578-8 8v88H272v-160h72v24c0 4.422 3.578 8 8 8h32c4.422 0 8-3.578 8-8V304h40V400zM416 480h32v-32h-32V480z"/></svg>