<svg xmlns="http://www.w3.org/2000/svg" viewBox="0 0 512 512"><!--! Font Awesome Pro 6.0.0-alpha3 by @fontawesome - https://fontawesome.com License - https://fontawesome.com/license (Commercial License) --><path d="M400 256c0 55.83-32.72 107.1-83.38 130.7c-4 1.859-5.75 6.609-3.875 10.62C314.1 400.2 317 401.9 320 401.9c1.125 0 2.281-.2344 3.375-.75C379.7 375 416 318 416 256c0-4.422-3.594-8-8-8S400 251.6 400 256zM136 256c0-22.06-17.94-40-40-40S56 233.9 56 256S73.94 296 96 296S136 278.1 136 256zM96 280C82.78 280 72 269.2 72 256S82.78 232 96 232S120 242.8 120 256S109.2 280 96 280zM504 248c-4.406 0-8 3.578-8 8c0 132.3-107.7 240-240 240S16 388.3 16 256S123.7 16 256 16c61.4 0 119.1 23.13 163.8 64.91l-56.85 56.85C333.5 111.1 296 96 256 96C193.1 96 137 132.4 110.8 188.6C108.1 192.6 110.7 197.4 114.7 199.3C115.8 199.8 116.1 200 118.1 200c3 0 5.906-1.719 7.25-4.625C148.9 144.7 200.2 112 256 112c35.75 0 69.2 13.42 95.61 37.08l-56.57 56.57C283.9 196.1 270.3 192 256 192C220.7 192 192 220.7 192 256s28.72 64 64 64s64-28.7 64-64c0-4.422-3.594-8-8-8S304 251.6 304 256c0 26.47-21.53 48-48 48S208 282.5 208 256S229.5 208 256 208c10.02 0 19.16 3.818 27.19 9.496L250.3 250.3c-3.125 3.125-3.125 8.188 0 11.31C251.9 263.2 253.9 264 256 264s4.094-.7813 5.656-2.344l248-248c3.125-3.125 3.125-8.188 0-11.31s-8.188-3.125-11.31 0l-67.25 67.25C383.4 24.79 321.7 0 256 0C114.8 0 0 114.8 0 256s114.8 256 256 256s256-114.8 256-256C512 251.6 508.4 248 504 248zM188.6 401.2C189.7 401.7 190.9 401.9 192 401.9c3 0 5.906-1.719 7.25-4.625c1.875-4.016 .125-8.766-3.875-10.62c-30.81-14.31-55.69-39.19-70.03-70.03c-1.844-4-6.656-5.781-10.62-3.875c-4 1.859-5.75 6.625-3.875 10.62C126.8 357.6 154.4 385.3 188.6 401.2zM216 416c0 22.06 17.94 40 40 40s40-17.94 40-40s-17.94-40-40-40S216 393.9 216 416zM280 416c0 13.23-10.78 24-24 24S232 429.2 232 416s10.78-24 24-24S280 402.8 280 416z"/></svg>