<svg xmlns="http://www.w3.org/2000/svg" viewBox="0 0 640 512"><!--! Font Awesome Pro 6.0.0-alpha3 by @fontawesome - https://fontawesome.com License - https://fontawesome.com/license (Commercial License) --><path d="M216 430.5c-4.422 0-8 3.594-8 8v39.28C208 487.8 200.2 496 190.5 496H182.3c-7.141 0-13.5-4.469-16.19-11.38l-24.7-63.53c-1.594-4.125-6.266-6.031-10.36-4.562c-4.109 1.625-6.156 6.25-4.547 10.38l24.7 63.53C156.3 503.5 168.5 512 182.3 512h8.219C209 512 224 496.7 224 477.8v-39.28C224 434.1 220.4 430.5 216 430.5zM412.9 416.5c-4.125-1.5-8.75 .4375-10.36 4.562l-24.7 63.53C375.2 491.5 368.8 496 361.7 496h-8.219C343.8 496 336 487.8 336 477.8v-39.28c0-4.406-3.578-8-8-8s-8 3.594-8 8v39.28C320 496.7 335 512 353.5 512h8.219c13.78 0 25.98-8.469 31.09-21.56l24.7-63.53C419.1 422.8 417 418.2 412.9 416.5zM527.1 95.1c0-8.836-7.162-16-15.1-16c-8.836 0-16 7.164-16 16s7.164 16 16 16C520.8 111.1 527.1 104.8 527.1 95.1zM624.3 100.8l-53.11-53.11C561.2 37.63 547.6 31.1 533.4 31.1L450.6 32C431.1 11.8 404.2 0 376 0C318.7 0 272 46.66 272 104S318.7 208 376 208c47.48 0 88.89-32.08 100.7-77.1c1.094-4.282-1.484-8.641-5.75-9.75c-4.312-1.094-8.641 1.484-9.75 5.75C451.2 164.9 416.2 192 376 192C327.5 192 288 152.5 288 104s39.48-88 88-88c25.23 0 49.3 10.86 66 29.8C443.8 47.86 446.4 48.32 448.9 48h84.53c9.934 0 19.46 3.945 26.48 10.97l51.9 51.9c10.98 10.98 15.3 27.58 9.359 41.92C615.3 167 601.7 176 586.6 176H520C515.6 176 512 179.6 512 184S515.6 192 520 192h64.76c17.48 0 34.53-7.631 44.84-21.75C645.5 148.5 642.7 119.1 624.3 100.8zM494.3 193.7c-.8501-3.718-2.051-7.292-3.546-10.71c-2.353-5.381-9.734-6.298-13.38-1.693L477.1 181.7c-1.915 2.407-2.292 5.652-.9889 8.439c1.066 2.281 1.989 4.646 2.573 7.193c1.387 6.054 6.159 10.68 12.21 12.08c27.47 6.382 44.5 34.97 33.97 64.32c-5.477 15.26-19.15 25.79-34.99 29.27c-4.288 .9415-8.003 3.605-10.27 7.367c-2.291 3.799-2.9 8.375-1.688 12.64c2.615 9.196 2.675 15.45 .7677 22.52c-4.642 17.21-17.16 31.89-34.3 36.77c-11.83 3.368-23.8 1.864-35.12-4.306c-2.416-1.316-5.045-1.951-7.646-1.951c-4.707 0-9.328 2.078-12.46 5.949C379.9 393.4 366.3 400 352 400c-7.711 0-15.37-2.039-22.75-6.061c-2.416-1.316-5.045-1.951-7.646-1.951c-4.707 0-9.328 2.078-12.46 5.949C299.9 409.4 286.3 416 272 416s-27.88-6.584-37.15-18.06c-3.129-3.873-7.75-5.949-12.46-5.949c-2.602 0-5.23 .6348-7.645 1.951C207.4 397.1 199.7 400 192 400c-14.34 0-27.88-6.584-37.15-18.06c-3.129-3.873-7.75-5.949-12.46-5.949c-2.602 0-5.23 .6348-7.645 1.951c-11.33 6.168-23.29 7.673-35.12 4.309c-17.14-4.876-29.66-19.56-34.31-36.76c-1.909-7.072-1.85-13.33 .7653-22.53C67.31 318.7 66.7 314.1 64.41 310.3c-2.201-3.647-5.759-6.262-9.883-7.276C42.75 300.1 31.53 294.6 24.88 284.5C3.823 252.3 22.89 215.7 54.02 209.1c4.34-.918 8.102-3.596 10.39-7.393C66.7 197.9 67.31 193.3 66.09 189C63.48 179.8 63.42 173.6 65.33 166.5C69.97 149.3 82.49 134.6 99.63 129.8c11.83-3.364 23.79-1.86 35.12 4.309C137.2 135.4 139.8 136 142.4 136c4.707 0 9.33-2.078 12.46-5.949C164.1 118.6 177.7 112 192 112c7.711 0 15.37 2.039 22.75 6.061C217.2 119.4 219.8 120 222.4 120c4.707 0 9.33-2.078 12.46-5.949C237.7 110.5 241.1 107.6 244.7 105.1c2.107-1.455 3.432-3.829 3.586-6.385c.0037-.0623-.0039 .0622 0 0c.3984-6.425-6.822-10.75-12.17-7.161C230.9 94.1 226.3 99.17 222.4 104C213.3 99.06 203.1 96 192 96C171.9 96 154.1 105.5 142.4 120C132.9 114.8 122 111.7 110.3 112C95.73 112.4 82.01 119.3 71.61 129.6C45.33 155.6 45.6 175.5 50.71 193.4C21.75 199.5 0 225.2 0 256s21.75 56.45 50.71 62.58c-5.102 17.93-5.373 37.87 20.91 63.84c10.39 10.27 24.12 17.16 38.72 17.57c11.7 .324 22.53-2.795 32.06-7.987C154.1 406.5 171.9 415.1 192 415.1c11.07 0 21.32-3.064 30.4-8.01C234.1 422.5 251.9 432 271.1 432s37.87-9.481 49.6-24.01c9.08 4.945 19.33 8.01 30.4 8.01c20.13 0 37.87-9.481 49.6-24.01c9.533 5.192 20.36 8.311 32.06 7.987c14.61-.4043 28.33-7.295 38.72-17.57c26.28-25.97 26.01-45.9 20.91-63.84C522.3 312.5 543.1 286.8 543.1 256C543.1 225.6 522.7 200.2 494.3 193.7z"/></svg>