<svg xmlns="http://www.w3.org/2000/svg" viewBox="0 0 384 512"><!--! Font Awesome Pro 6.0.0-alpha3 by @fontawesome - https://fontawesome.com License - https://fontawesome.com/license (Commercial License) --><path d="M344 0h-304C17.94 0 0 17.94 0 40v304.8c0 20.12 15.38 36.97 35.75 39.19c4.281 .9062 8.328-2.688 8.828-7.062c.4844-4.406-2.688-8.344-7.078-8.812C25.23 366.7 16 356.7 16 344.8V40c0-13.23 10.77-24 24-24h304c13.23 0 24 10.77 24 24v304.8c0 11.94-9.234 21.97-21.5 23.31c-4.391 .4687-7.562 4.406-7.078 8.812C339.9 380.1 343.3 384 347.4 384c.2969 0 .5938 0 .8906-.0625C368.6 381.7 384 364.9 384 344.8V40C384 17.94 366.1 0 344 0zM273 308.4C271.7 305.7 268.9 304 265.9 304H118.1c-3.031 0-5.797 1.719-7.156 4.406l-84.44 168.9c-3.75 7.5-3.344 16.22 1.062 23.34S39.64 512 48.02 512h287.1c8.375 0 16-4.25 20.41-11.38s4.812-15.84 1.062-23.38L273 308.4zM342.8 492.2C342.1 493.3 340 496 335.1 496H48.02c-4.031 0-6.094-2.656-6.797-3.781c-.7031-1.156-2.156-4.188-.3594-7.781L123.1 320h137.8l82.22 164.4C344.9 488 343.5 491.1 342.8 492.2z"/></svg>