<svg xmlns="http://www.w3.org/2000/svg" viewBox="0 0 448 512"><!--! Font Awesome Pro 6.0.0-alpha3 by @fontawesome - https://fontawesome.com License - https://fontawesome.com/license (Commercial License) --><path d="M400 0c-3.273 0-6.633 1.021-9.645 3.289L352 48.03l-54.38-44.74C294.8 1.101 291.4 .0078 288 .0078s-6.75 1.093-9.625 3.281L224 48.03L169.6 3.289C166.8 1.101 163.4 .0078 160 .0078S153.3 1.101 150.4 3.289L96 48.03L57.63 3.289C54.62 1.023 51.25 0 47.98 0C39.71 0 32 6.541 32 16.04v479.9C32 505.5 39.71 512 47.98 512c3.271 0 6.633-1.021 9.643-3.289L96 463.1l54.38 44.74C153.3 510.9 156.6 511.1 160 511.1s6.75-1.093 9.625-3.281L224 463.1l54.38 44.74C281.3 510.9 284.6 511.1 288 511.1s6.75-1.093 9.625-3.281L352 463.1l38.38 44.74C393.3 510.1 396.7 512 399.1 512C408.2 512 416 505.5 416 495.1V16.04C416 6.543 408.3 0 400 0zM364.1 453.6c-3.16-3.686-7.641-5.584-12.15-5.584c-3.58 0-7.182 1.197-10.16 3.645l-53.29 44.74L234.2 451.6C231.2 449.2 227.6 447.1 224 447.1c-3.605 0-7.213 1.215-10.17 3.645l-53.29 44.74L106.2 451.6c-2.975-2.449-6.576-3.645-10.16-3.645c-4.512 0-8.992 1.898-12.15 5.584L48 495.4V16.64l35.86 41.8c3.16 3.686 7.641 5.584 12.15 5.584c3.582 0 7.184-1.197 10.16-3.645l53.29-44.74L213.8 60.39C216.8 62.82 220.4 64.03 224 64.03c3.607 0 7.213-1.215 10.17-3.645l53.29-44.74L341.8 60.39c2.977 2.449 6.576 3.645 10.16 3.645c4.512 0 8.992-1.898 12.15-5.584L400 16.64l.0723 478.8L364.1 453.6zM344 152h-240c-4.422 0-7.995 3.563-7.995 7.985S99.58 168 104 168h240c4.422 0 8.02-3.593 8.02-8.015S348.4 152 344 152zM344 248h-240c-4.422 0-7.995 3.555-7.995 7.977C96.01 260.4 99.58 264 104 264h240c4.422 0 8.02-3.602 8.02-8.023C352 251.6 348.4 248 344 248zM344 344h-240c-4.422 0-7.995 3.562-7.995 7.968S99.58 360 104 360h240c4.422 0 8.02-3.626 8.02-8.032S348.4 344 344 344z"/></svg>