<svg xmlns="http://www.w3.org/2000/svg" viewBox="0 0 640 512"><!--! Font Awesome Pro 6.0.0-alpha3 by @fontawesome - https://fontawesome.com License - https://fontawesome.com/license (Commercial License) --><path d="M352 208v-160C352 22.4 329.6 0 304 0h-256C22.4 0 0 22.4 0 48v160C0 233.6 22.4 256 48 256h256C329.6 256 352 233.6 352 208zM16 208v-160c0-16.75 15.25-32 32-32h256c16.75 0 32 15.25 32 32v160c0 16.75-15.25 32-32 32h-256C31.25 240 16 224.7 16 208zM592 0h-128C438.4 0 416 22.4 416 48v288c0 25.6 22.4 48 48 48h128c25.6 0 48-22.4 48-48v-288C640 22.4 617.6 0 592 0zM624 336c0 16.75-15.25 32-32 32h-128c-16.75 0-32-15.25-32-32v-288c0-16.75 15.25-32 32-32h128c16.75 0 32 15.25 32 32V336zM320 304H112C86.4 304 64 326.4 64 352v112C64 489.6 86.4 512 112 512H320c25.6 0 48-22.4 48-48V352C368 326.4 345.6 304 320 304zM352 464c0 16.75-15.25 32-32 32H112c-16.75 0-32-15.25-32-32V352c0-16.75 15.25-32 32-32H320c16.75 0 32 15.25 32 32V464z"/></svg>