<svg xmlns="http://www.w3.org/2000/svg" viewBox="0 0 576 512"><!--! Font Awesome Pro 6.0.0-alpha3 by @fontawesome - https://fontawesome.com License - https://fontawesome.com/license (Commercial License) --><path d="M136 128C131.6 128 128 131.6 128 136v240C128 380.4 131.6 384 136 384s8-3.578 8-8v-240C144 131.6 140.4 128 136 128zM88 128C83.58 128 80 131.6 80 136v240C80 380.4 83.58 384 88 384S96 380.4 96 376v-240C96 131.6 92.42 128 88 128zM376 128C371.6 128 368 131.6 368 136v240c0 4.422 3.587 8 8.009 8S384 380.4 384 376v-240C384 131.6 380.4 128 376 128zM328 128C323.6 128 320 131.6 320 136v240c0 4.422 3.578 8 8 8s8-3.578 8-8v-240C336 131.6 332.4 128 328 128zM184 128C179.6 128 176 131.6 176 136v240C176 380.4 179.6 384 184 384S192 380.4 192 376v-240C192 131.6 188.4 128 184 128zM248 128C243.6 128 240 131.6 240 136v240C240 380.4 243.6 384 248 384S256 380.4 256 376v-240C256 131.6 252.4 128 248 128zM488 128C483.6 128 480 131.6 480 136v240c0 4.422 3.578 8 8 8s8-3.578 8-8v-240C496 131.6 492.4 128 488 128zM432 128c-4.422 0-8 3.578-8 8v240c0 4.422 3.578 8 8 8s8-3.578 8-8v-240C440 131.6 436.4 128 432 128zM512 32H64C28.66 32 0 60.65 0 96v320c0 35.35 28.66 64 64 64h448c35.34 0 64-28.65 64-64V96C576 60.65 547.3 32 512 32zM560 416c0 26.47-21.53 48-48 48H64c-26.47 0-48-21.53-48-48V96c0-26.47 21.53-48 48-48h448c26.47 0 48 21.53 48 48V416z"/></svg>