<svg xmlns="http://www.w3.org/2000/svg" viewBox="0 0 576 512"><!--! Font Awesome Pro 6.0.0-alpha3 by @fontawesome - https://fontawesome.com License - https://fontawesome.com/license (Commercial License) --><path d="M512 32H64C28.66 32 0 60.65 0 96v320c0 35.34 28.66 64 64 64h448c35.35 0 64-28.66 64-64V96C576 60.65 547.3 32 512 32zM560 416c0 26.47-21.53 48-48 48H64c-26.47 0-48-21.53-48-48V96c0-26.47 21.53-48 48-48h448c26.47 0 48 21.53 48 48V416zM472 152h-272C195.6 152 192 155.6 192 160S195.6 168 200 168h272c4.406 0 8-3.594 8-8S476.4 152 472 152zM472 344h-272C195.6 344 192 347.6 192 352s3.594 8 8 8h272c4.406 0 8-3.594 8-8S476.4 344 472 344zM472 248h-272C195.6 248 192 251.6 192 256c0 4.406 3.594 8 8 8h272c4.406 0 8-3.594 8-8C480 251.6 476.4 248 472 248zM128 128C110.3 128 96 142.3 96 160s14.34 32 32 32s32-14.34 32-32S145.7 128 128 128zM128 176C119.2 176 112 168.8 112 160S119.2 144 128 144S144 151.2 144 160S136.8 176 128 176zM128 224C110.3 224 96 238.3 96 256s14.34 32 32 32s32-14.34 32-32S145.7 224 128 224zM128 272C119.2 272 112 264.8 112 256S119.2 240 128 240S144 247.2 144 256S136.8 272 128 272zM128 320c-17.66 0-32 14.34-32 32s14.34 32 32 32s32-14.34 32-32S145.7 320 128 320zM128 368c-8.812 0-16-7.188-16-16s7.188-16 16-16s16 7.188 16 16S136.8 368 128 368z"/></svg>