<svg xmlns="http://www.w3.org/2000/svg" viewBox="0 0 576 512"><!--! Font Awesome Pro 6.0.0-alpha3 by @fontawesome - https://fontawesome.com License - https://fontawesome.com/license (Commercial License) --><path d="M512 32H64c-35.35 0-64 28.65-64 64v320c0 35.35 28.65 64 64 64h448c35.35 0 64-28.65 64-64v-320C576 60.65 547.3 32 512 32zM560 416c0 26.47-21.53 48-48 48H64c-26.47 0-48-21.53-48-48v-320c0-26.47 21.53-48 48-48h448c26.47 0 48 21.53 48 48V416zM198.1 164.4C197.6 161.7 194.8 160 191.8 160S185.1 161.7 184.6 164.4l-87.8 176c-1.969 3.953-.375 8.766 3.578 10.73C101.6 351.7 102.8 352 104 352c2.938 0 5.766-1.625 7.156-4.422l29.72-59.58h102.1l29.86 59.58c2 3.969 6.812 5.562 10.73 3.578c3.953-1.984 5.547-6.797 3.578-10.73L198.1 164.4zM148.9 272l42.96-86.11l43.15 86.11H148.9zM440 160c-4.422 0-8 3.579-8 8.001v72.71c-12.48-14.97-31.03-24.71-52-24.71c-37.5 0-68 30.5-68 68s30.5 68 68 68c20.97 0 39.52-9.74 52-24.71v16.71c0 4.422 3.578 7.999 8 7.999S448 348.4 448 344v-176C448 163.6 444.4 160 440 160zM380 336c-28.67 0-52-23.33-52-52s23.33-52 52-52s52 23.33 52 52S408.7 336 380 336z"/></svg>