<svg xmlns="http://www.w3.org/2000/svg" viewBox="0 0 576 512"><!--! Font Awesome Pro 6.0.0-alpha3 by @fontawesome - https://fontawesome.com License - https://fontawesome.com/license (Commercial License) --><path d="M512 0H256C220.7 0 192 28.65 192 64v384c0 35.35 28.65 64 64 64h256c35.35 0 64-28.65 64-64V64C576 28.65 547.3 0 512 0zM560 448c0 26.47-21.53 48-48 48H256c-26.47 0-48-21.53-48-48V64c0-26.47 21.53-48 48-48h256c26.47 0 48 21.53 48 48V448zM152 64C156.4 64 160 60.41 160 56S156.4 48 152 48C121.1 48 96 73.13 96 104v304c0 30.88 25.12 56 56 56C156.4 464 160 460.4 160 456S156.4 448 152 448c-22.06 0-40-17.94-40-40v-304C112 81.94 129.9 64 152 64zM56 112C60.42 112 64 108.4 64 104S60.42 96 56 96C25.13 96 0 121.1 0 152v208C0 390.9 25.13 416 56 416C60.42 416 64 412.4 64 408S60.42 400 56 400c-22.06 0-40-17.94-40-40v-208C16 129.9 33.94 112 56 112z"/></svg>