<svg xmlns="http://www.w3.org/2000/svg" viewBox="0 0 576 512"><!--! Font Awesome Pro 6.0.0-alpha3 by @fontawesome - https://fontawesome.com License - https://fontawesome.com/license (Commercial License) --><path d="M573.2 415.9l-125.7-352c-6.822-19.1-24.92-31.86-45.2-31.86H173.8c-20.29 0-38.38 12.75-45.2 31.86l-125.7 352C-8.326 447.1 14.85 480 48.04 480h479.9C561.2 480 584.3 447.1 573.2 415.9zM554.1 450.4C548 459.1 538.5 464 527.1 464H296v-72c0-4.406-3.594-8-8-8s-8 3.594-8 8v72H48.04c-10.55 0-20.08-4.945-26.16-13.57s-7.527-19.26-3.979-29.2l125.7-352C148.2 56.54 160.3 48 173.8 48H280v72C280 124.4 283.6 128 288 128s8-3.594 8-8V48h106.2c13.49 0 25.6 8.535 30.13 21.24l125.7 352C561.6 431.2 560.2 441.8 554.1 450.4zM288 192C283.6 192 280 195.6 280 200v112C280 316.4 283.6 320 288 320s8-3.594 8-8v-112C296 195.6 292.4 192 288 192z"/></svg>