<svg xmlns="http://www.w3.org/2000/svg" viewBox="0 0 512 512"><!--! Font Awesome Pro 6.0.0-alpha3 by @fontawesome - https://fontawesome.com License - https://fontawesome.com/license (Commercial License) --><path d="M505.1 20.11c-1.359-6.367-6.692-11.71-13.06-13.07C459.1 0 432.8 0 407.5 0C320.8 0 254.2 37.63 198.9 118.2L182.7 146.2L99.36 314.6c-6.197 12.53-3.688 27.62 6.219 37.48l54.7 54.45c7.42 7.387 15.51 9.48 22.29 9.48c7.613 0 13.57-2.641 15.08-3.383c0 0 127.2-62.95 167.6-83.11l28.84-16.7c80.33-55.5 117.9-121.1 117.9-208.1C512.1 79.18 512.1 53.22 505.1 20.11zM386.1 298.1l-27.96 16.22c-40.42 20.15-167.6 83.08-167.6 83.08c-.0352 .0176-3.559 1.725-7.983 1.725c-4.205 0-7.701-1.531-11-4.82l-54.7-54.45c-5.043-5.021-6.315-12.68-3.162-19.05l84.82-170.9l13.51-23.55C264.2 51.35 326.3 16 407.5 16c24.54 0 49.92 0 81.95 7.443c6.715 31.49 6.641 55.64 6.563 81.27C495.1 185.4 460.7 247.4 386.1 298.1zM367.1 88c-30.88 0-55.1 25.12-55.1 56s25.12 56 55.1 56s55.1-25.12 55.1-56S398.9 88 367.1 88zM367.1 184c-22.06 0-40-17.94-40-40s17.94-40 40-40c22.06 0 40 17.94 40 40S390.1 184 367.1 184zM80 272H31c-8.281 0-15-6.625-15-14.78c0-1.75 .7813-5.047 1.406-6.312l47.47-86.14C70.6 153.5 86.16 144 98.85 144H152c4.406 0 8-3.578 8-8S156.4 128 152 128H98.85c-18.63 .0156-39.81 12.98-48.1 29.28L3.281 243.4C1.375 247.2 0 252.1 0 257.2C0 274.2 13.91 288 31 288h49C84.41 288 88 284.4 88 280S84.41 272 80 272zM376 352c-4.406 0-8 3.578-8 8v53.11c-.0313 12.72-9.531 28.28-21.03 34.11l-85.69 47.23C259.8 495.2 256.5 496 254.8 496c-8.156 0-14.78-6.734-14.78-15V432c0-4.422-3.594-8-8-8c-4.406 0-8 3.578-8 8v49C224 498.1 237.8 512 254.8 512c4.25 0 10.06-1.391 14.03-3.422l85.66-47.22c16.53-8.375 29.5-29.56 29.53-48.23V360C384 355.6 380.4 352 376 352z"/></svg>