<svg xmlns="http://www.w3.org/2000/svg" viewBox="0 0 512 512"><!--! Font Awesome Pro 6.0.0-alpha3 by @fontawesome - https://fontawesome.com License - https://fontawesome.com/license (Commercial License) --><path d="M102.4 320c-47.1 0-100.4 39.38-102.2 160L0 512h31.1c171.6-3.375 184.9-115.3 133.7-166.6C150.9 330.4 127.2 320 102.4 320zM171.2 432.8c-15.58 38.55-66.42 61.48-139.5 62.92L24.75 496H16l.123-15.75C17.53 389.9 49.77 336 102.4 336c19.46 0 39.39 7.908 52.03 20.66C174.9 377.3 181.5 407.2 171.2 432.8zM505.1 19.25c-1.125-5.375-6.1-11.25-12.37-12.37C460.6 0 435.4 0 410.4 0C307.2 0 245.4 55.25 199.1 128H94.92C78.67 128 59.3 139.9 52.05 154.5L2.65 253.2C1.15 256.6 .225 260.3 .1 264c0 13.25 10.8 24 24.05 24h103.9c52.1 0 95.99 43 95.99 96l-.0125 104c0 13.25 10.75 24 23.1 24c3.75-.125 7.375-.925 10.75-2.55l98.69-49.38c14.62-7.25 26.5-26.58 26.5-42.83V312.8c72.62-46.25 127.1-108.4 127.1-211C512.1 76.5 512.1 51.37 505.1 19.25zM123.4 272H24.25c-4.41 0-7.998-3.588-8.006-7.467c.0527-1.609 .4336-3.219 .8184-4.129l49.4-98.8C70.94 152.6 84.81 144 94.99 144h95.54C171.2 176.2 153.7 210.2 137.3 243.8C132.7 253.3 128.1 262.7 123.4 272zM367.1 417.3c0 10.3-8.391 23.85-17.66 28.44l-98.4 49.27C250.6 495.6 249.1 495.1 248.1 496c-4.41 0-7.998-3.588-7.998-8v-99.45c8.881-4.406 17.83-8.799 26.92-13.21c33.92-16.55 68.31-34.19 100.9-53.89V417.3zM260 360.9c-7.168 3.502-14.16 6.959-21.2 10.42C232.9 319.8 192.3 279.1 140.7 273.3c3.682-7.459 7.359-14.89 11.05-22.46C219.9 110.1 274.5 16 410.5 16c24.9 0 48.43 0 78.05 6.244c.2754 .1504 .7402 .4834 .9043 .4834c.0527 0 .0156 .1016 0 0c6.746 30.96 6.656 55.32 6.539 79.02C495.1 230.1 412.9 286.4 260 360.9zM367.1 88c-30.87 0-55.1 25.12-55.1 56c0 31 25.12 56 55.1 56c30.1 0 55.1-25 55.1-56C423.1 113.1 398.1 88 367.1 88zM368 184c-22.05 0-40.06-17.94-40.06-40s17.94-40 39.1-40s39.1 17.94 39.1 40S390.1 184 368 184z"/></svg>