<svg xmlns="http://www.w3.org/2000/svg" viewBox="0 0 640 512"><!--! Font Awesome Pro 6.0.0-alpha3 by @fontawesome - https://fontawesome.com License - https://fontawesome.com/license (Commercial License) --><path d="M640 223.3V472c0 4.406-3.594 8-8 8s-8-3.594-8-8V283.1c-19.39 35.51-54.75 61.29-96 67.12V472c0 4.406-3.594 8-8 8S512 476.4 512 472v-120.1C511.5 351.9 511.1 352 510.7 352C477.4 352 444.3 340.9 416 321.5V472c0 4.406-3.594 8-8 8s-8-3.594-8-8V309.1c-11.44-9.887-21.84-21.16-30.62-33.83L304 180.9V472C304 476.4 300.4 480 296 480S288 476.4 288 472V157.9L249.7 102.6C238.8 86.87 224.4 74.25 208 65.01V472C208 476.4 204.4 480 200 480S192 476.4 192 472V57.31C176.8 51.32 160.4 48 143.5 48C132.6 48 122.1 49.74 112 52.23V472C112 476.4 108.4 480 104 480S96 476.4 96 472V57c-46.81 18.12-80 61.97-80 113.3V472C16 476.4 12.41 480 8 480S0 476.4 0 472V170.3C0 94.03 64.38 32 143.5 32c48 0 92.59 22.97 119.3 61.44l119.7 172.7C412.4 309.2 461.5 336 510.7 336C572.1 336 624 284.4 624 223.3c0-48.93-34.33-91.21-80-105.6V288c0 4.406-3.594 8-8 8S528 292.4 528 288V115.3c0-.5859 .502-.9531 .623-1.502C522.7 112.9 516.8 112 510.7 112c-21.15 0-42.22 4.237-62.69 11.26c.002 .0605 0-.0625 0 0L448 248C448 252.4 444.4 256 440 256S432 252.4 432 248V129.6c-19.11 8.377-37.53 19.14-54.22 33.23c-3.406 2.812-8.469 2.375-11.28-.9687c-2.844-3.375-2.406-8.406 .9687-11.28C409.1 115.4 460 96 510.7 96C580.8 96 640 154.3 640 223.3z"/></svg>