<svg xmlns="http://www.w3.org/2000/svg" viewBox="0 0 512 512"><!--! Font Awesome Pro 6.0.0-alpha3 by @fontawesome - https://fontawesome.com License - https://fontawesome.com/license (Commercial License) --><path d="M96 256c-53 0-96 43-96 96s96 160 96 160s96-107 96-160S149 256 96 256zM16 352c0-44.11 35.89-80 80-80S176 307.9 176 352c0 30.49-45.06 94.13-80 135.6C61.06 446.1 16 382.5 16 352zM96 320c-17.75 0-32 14.25-32 32s14.25 32 32 32s32-14.25 32-32S113.8 320 96 320zM96 368c-8.971 0-16-7.027-16-16s7.029-16 16-16c8.973 0 16 7.027 16 16S104.1 368 96 368zM512 96c0-53-43-96-96-96s-96 43-96 96s96 160 96 160S512 149 512 96zM416 16c44.11 0 80 35.89 80 80c0 30.49-45.06 94.13-80 135.6C381.1 190.1 336 126.5 336 96C336 51.89 371.9 16 416 16zM448 96c0-17.75-14.25-32-32-32s-32 14.25-32 32s14.25 32 32 32S448 113.8 448 96zM400 96c0-8.973 7.029-16 16-16c8.973 0 16 7.027 16 16S424.1 112 416 112C407 112 400 104.1 400 96zM440 368h-128c-30.88 0-56-25.12-56-56S281.1 256 312 256H352c4.406 0 8-3.594 8-8S356.4 240 352 240h-40c-39.69 0-72 32.31-72 72S272.3 384 312 384h128c30.88 0 56 25.12 56 56s-25.12 56-56 56H160c-4.406 0-8 3.594-8 8S155.6 512 160 512h280c39.69 0 72-32.31 72-72S479.7 368 440 368z"/></svg>