<svg xmlns="http://www.w3.org/2000/svg" viewBox="0 0 512 512"><!--! Font Awesome Pro 6.0.0-alpha3 by @fontawesome - https://fontawesome.com License - https://fontawesome.com/license (Commercial License) --><path d="M480.9 55.12c-3.049-9.777-11.64-16.63-20.96-16.63c-1.764 0-3.499 .2383-5.286 .7559c-18.25 5-37.75 7.875-58.12 7.875c-49.12 0-93.49-15.1-126.1-42.12C266.1 1.625 261.1 0 256 0C250.9 0 245.9 1.625 241.6 5C209.1 31.12 164.6 47.12 115.5 47.12c-20.37 0-39.87-2.875-58.12-8C55.66 38.64 53.89 38.46 52.18 38.46c-9.389-.002-17.98 6.836-21.04 16.67C-5.854 175.1 9.406 410.4 256 512C502.6 410.4 517.9 175.1 480.9 55.12zM256 494.6C104.8 429.8 44.95 309.3 33.91 200h444.2C467 309.3 407.2 429.8 256 494.6zM479.2 184H32.77c-2.668-45.64 2.756-88.76 13.65-124.1c1.134-3.632 4.008-5.493 6.646-5.357c20.31 5.703 41.32 8.596 62.44 8.596c51.17 0 99.51-16.21 136.1-45.6c2.743-2.181 6.451-1.901 8.793-.041c36.75 29.43 85.09 45.64 136.1 45.64c20.92 0 41.9-2.842 63.46-8.637c1.939 0 4.576 2.02 5.613 5.352C476.5 95.21 481.9 138.3 479.2 184z"/></svg>