<svg xmlns="http://www.w3.org/2000/svg" viewBox="0 0 384 512"><!--! Font Awesome Pro 6.0.0-alpha3 by @fontawesome - https://fontawesome.com License - https://fontawesome.com/license (Commercial License) --><path d="M328 376H80V304h152c74.98 0 136-61.02 136-136S306.1 32 232 32l-128 0c-22.06 0-40 17.94-40 40V288H8C3.578 288 0 291.6 0 296S3.578 304 8 304H64v72H8C3.578 376 0 379.6 0 384s3.578 8 8 8H64v80C64 476.4 67.58 480 72 480s8-3.578 8-8v-80h248c4.422 0 8-3.578 8-8S332.4 376 328 376zM80 72c0-13.23 10.77-24 24-24h128C298.2 48 352 101.8 352 168S298.2 288 232 288H80V72z"/></svg>