<svg xmlns="http://www.w3.org/2000/svg" viewBox="0 0 512 512"><!--! Font Awesome Pro 6.0.0-alpha3 by @fontawesome - https://fontawesome.com License - https://fontawesome.com/license (Commercial License) --><path d="M151.1 32H72C49.94 32 32 49.94 32 72v400C32 476.4 35.59 480 40 480s8-3.594 8-8V304h103.1c3.365 0 6.529-.752 9.834-.9941l54.55 171.4C217.5 477.8 220.6 480 224 480c.8125 0 1.625-.125 2.438-.375c4.188-1.344 6.531-5.844 5.188-10.06L178.1 301.4C240.6 289.1 287.1 234.1 287.1 168C287.1 93 226.1 32 151.1 32zM152 288H48V72c0-13.22 10.78-24 24-24h80c66.16 0 120 53.84 120 120S218.2 288 152 288zM394.4 328.3l-10.5-3.438c-39.75-13.22-69.62-26.78-62.96-70.34c2.187-14.44 8.999-25.84 20.19-33.88c16.47-11.84 41.37-15.53 69.87-10.47c10.22 1.812 22.31 5.531 38.09 11.69c3.1 1.625 8.749-.4062 10.34-4.531c1.625-4.094-.4062-8.75-4.531-10.34c-16.75-6.594-29.81-10.56-41.09-12.56c-32.9-5.813-61.99-1.156-81.99 13.22c-14.62 10.5-23.87 25.88-26.69 44.47c-9.218 60.34 40.68 76.94 73.71 87.94l10.62 3.469c43.4 14.06 80.87 26.22 73.59 73.94c-2.187 14.44-8.999 25.84-20.19 33.88c-16.53 11.81-41.37 15.47-69.93 10.47c-15.78-2.688-33.84-10.09-49.78-16.59l-8.187-3.344c-4.031-1.563-8.718 .3438-10.41 4.469c-1.625 4.094 .3437 8.75 4.468 10.41l8.093 3.281c16.69 6.813 35.62 14.56 53.06 17.53C379.4 479.2 388.3 480 396.8 480c21.84 0 40.97-5.312 55.37-15.66c14.62-10.5 23.87-25.88 26.69-44.47C488.2 358.7 438.4 342.6 394.4 328.3z"/></svg>