<svg xmlns="http://www.w3.org/2000/svg" viewBox="0 0 512 512"><!--! Font Awesome Pro 6.0.0-alpha3 by @fontawesome - https://fontawesome.com License - https://fontawesome.com/license (Commercial License) --><path d="M400 160h-72C305.9 160 288 177.9 288 200v304c0 4.406 3.578 8 8 8s8-3.594 8-8V384h92.78c53.45 0 102.1-36.12 112.8-88.48C524.3 223.5 469.4 160 400 160zM494.1 291.1C485.3 336.7 442.6 368 396.2 368H304V200c0-13.26 10.75-24 24-24h72C459.2 176 506 229.8 494.1 291.1zM120 32h-80C17.94 32 0 49.94 0 72v400C0 476.4 3.594 480 8 480s8-3.594 8-8V304h104c3.365 0 6.523-.752 9.828-.9941l54.55 171.4C185.5 477.8 188.6 480 192 480c.8125 0 1.611-.125 2.424-.375c4.188-1.344 6.531-5.844 5.188-10.06L146.1 301.4C208.6 289.1 256 234.1 256 168C256 93 195 32 120 32zM120 288H16V72c0-13.22 10.78-24 24-24h80c66.16 0 120 53.84 120 120S186.2 288 120 288z"/></svg>