<svg xmlns="http://www.w3.org/2000/svg" viewBox="0 0 640 512"><!--! Font Awesome Pro 6.0.0-alpha3 by @fontawesome - https://fontawesome.com License - https://fontawesome.com/license (Commercial License) --><path d="M239.1 112H111.1c-17.64 0-31.1 14.36-31.1 32v64c0 17.64 14.35 32 31.1 32h127.1c17.64 0 31.1-14.36 31.1-32V144C271.1 126.4 257.6 112 239.1 112zM255.1 208c0 8.75-7.25 16-15.1 16H111.1c-8.748 0-15.1-7.25-15.1-16v-64c0-8.75 7.248-16 15.1-16h127.1c8.748 0 15.1 7.25 15.1 16V208zM620.1 266.1l-54.05-54.06c-12.53-12.56-29.95-19.75-47.77-19.75l-94.31-.2187c-4.406 0-8 3.562-8.016 7.969c-.0156 4.438 3.562 8.031 7.984 8.031l94.33 .2187c13.61 0 26.91 5.5 36.47 15.06L603.3 272H424C419.6 272 416 275.6 416 280S419.6 288 424 288h192.7c4.553 7.771 7.199 16.55 7.262 25.78v64.53c0 10.31-7.359 19.28-17.5 21.28c-4.344 .8438-7.156 5.062-6.297 9.406c.75 3.812 4.094 6.438 7.828 6.438c.5156 0 1.047-.0625 1.562-.1562c17.62-3.469 30.41-19.03 30.41-36.97V313.7C639.8 295.7 632.8 278.8 620.1 266.1zM496 336c-48.6 0-88 39.4-88 88c0 48.6 39.4 88 88 88s88-39.4 88-88C584 375.4 544.6 336 496 336zM496 496c-39.7 0-72-32.3-72-72S456.3 352 496 352s72 32.3 72 72S535.7 496 496 496zM607.9 127.3c-.375-52.63-43.24-95.25-95.98-95.25L387.9 31.1c-2.209 0-4-1.791-4-4L383.9 15.1c0-8.799-7.198-16-15.1-16H239.1c-8.797 0-15.1 7.202-15.1 15.1L223.1 27.1c0 2.209-1.791 4-4 4L63.99 32C28.8 32 0 60.81 0 95.1v197.5c0 16.98 6.743 33.25 18.75 45.25l72.54 72.55c3.002 3.002 7.074 4.689 11.32 4.688l18.21-.0078C120.6 418.7 120 421.3 120 424C120 472.6 159.4 512 208 512s88-39.4 88-88c0-2.768-.5645-5.377-.8145-8.08l72.75-.0293c8.834-.002 15.99-7.166 15.99-16V164c0-2.209 1.791-4 4-4l187.1 .0024C593.8 160 608 145.3 607.9 127.3zM367.9 15.1v16L239.1 32L239.1 15.1H367.9zM208 496c-39.7 0-72-32.3-72-72S168.3 352 208 352s72 32.3 72 72S247.7 496 208 496zM383.9 144c-8.836 0-15.96 7.163-15.96 15.1l-.0371 235.9c0 2.209-1.789 3.998-3.998 4l-71.69 .0273C281.7 363.1 248.2 336 208 336c-40.22 0-73.76 27.14-84.26 63.98l-21.14 .0078l-72.54-72.56C21.05 318.4 16 306.2 16 293.5V96c0-26.51 21.49-48 48-48l159.1-.0039c.0156 0-.0156 0 0 0l287.9 .0039c43.79 0 79.67 35.6 79.98 79.36c.0332 4.553-1.682 8.805-4.828 11.97c-2.99 3.012-6.955 4.67-11.16 4.67H383.9z"/></svg>