<svg xmlns="http://www.w3.org/2000/svg" viewBox="0 0 512 512"><!--! Font Awesome Pro 6.0.0-alpha3 by @fontawesome - https://fontawesome.com License - https://fontawesome.com/license (Commercial License) --><path d="M332.2 120h19.85c4.422 0 8-3.594 8-8s-3.578-8-8-8H159.1c-4.422 0-8 3.594-8 8s3.578 8 8 8h19.75c-189.1 119.2-179.7 272.2-179.7 292c0 55.25 49.14 100 109.6 100h292.5c60.62 0 109.7-44.75 109.7-100C511.9 392.6 520.2 238.6 332.2 120zM495.9 412c0 46.32-42.06 84-93.75 84h-292.5c-51.62 0-93.62-37.68-93.62-84C15.29 335 28.05 243.8 208.2 120h95.6C483.2 243.5 496.7 331.1 495.9 412zM181.5 84.69C184.1 88.25 189.1 89 192.7 86.5c3.578-2.594 4.391-7.594 1.797-11.19L160.8 28.69c-1.797-2.5-2.047-5.594-.6406-8.344C161.6 17.62 164.2 16 167.3 16h177.4c3.078 0 5.734 1.625 7.125 4.344c1.406 2.75 1.156 5.844-.6406 8.344l-33.67 46.63c-2.594 3.594-1.781 8.594 1.797 11.19c3.667 2.579 8.602 1.734 11.17-1.812l33.67-46.63c5.312-7.344 6.047-16.94 1.922-25S353.8 0 344.7 0H167.3C158.2 0 150 5 145.9 13.06s-3.391 17.66 1.922 25L181.5 84.69z"/></svg>