<svg xmlns="http://www.w3.org/2000/svg" viewBox="0 0 512 512"><!--! Font Awesome Pro 6.0.0-alpha3 by @fontawesome - https://fontawesome.com License - https://fontawesome.com/license (Commercial License) --><path d="M181.5 84.69C184.1 88.25 189.1 89 192.7 86.5c3.578-2.594 4.391-7.594 1.797-11.19L160.8 28.69c-1.797-2.5-2.047-5.594-.6406-8.344C161.6 17.62 164.2 16 167.3 16h177.4c3.078 0 5.734 1.625 7.125 4.344c1.406 2.75 1.156 5.844-.6406 8.344l-33.67 46.63c-2.594 3.594-1.781 8.594 1.797 11.19C320.7 87.5 322.4 88 324 88c2.469 0 4.922-1.156 6.484-3.312l33.67-46.63c5.312-7.344 6.047-16.94 1.922-25S353.8 0 344.7 0H167.3C158.2 0 150 5 145.9 13.06s-3.391 17.66 1.922 25L181.5 84.69zM332.2 120h19.85c4.422 0 8-3.594 8-8s-3.578-8-8-8H159.1c-4.422 0-8 3.594-8 8s3.578 8 8 8h19.75c-189.1 119.2-179.7 272.2-179.7 292c0 55.25 49.14 100 109.6 100h292.5c60.62 0 109.7-44.75 109.7-100C511.9 392.6 520.2 238.6 332.2 120zM495.9 412c0 46.32-42.06 84-93.75 84h-292.5c-51.62 0-93.62-37.68-93.62-84l-.0313-3.043C13.61 245.5 146.5 162.4 208.2 120h95.6c64.05 44.07 194.2 125.7 192.2 289.4L495.9 412zM257.1 312.2L249.6 309.1C213.7 300.3 196.3 291 200.7 267.6c4.656-24.88 38.84-31.36 70.47-26.8c8.156 1.172 17.84 3.594 30.41 7.609c4.188 1.312 8.719-.9687 10.06-5.188s-1-8.719-5.188-10.06C293 228.9 282.5 226.3 273.5 224.1c-3.289-.4727-6.33-.6377-9.49-.9014c0-.041 0 .041 0 0l.084-32.05c0-4.422-3.562-8-8-8.016c-4.406 0-8 3.578-8 7.984L248 223.7C213.6 224.8 189.7 239.5 184.9 264.7C177 306.9 219.8 318.5 245.4 325.4l8.5 2.266c39 10.3 62.34 18.45 57.41 44.7c-4.656 24.86-38.59 31.38-70.53 26.8c-12.62-1.75-27.09-6.562-39.84-10.81L194.5 386.2c-4.312-1.375-8.719 .9375-10.09 5.125s.9062 8.719 5.094 10.09l6.375 2.094c13.41 4.469 28.62 9.531 42.66 11.48c3.354 .4824 6.314 .585 9.523 .8506c-.0039 .1035 0-.1035 0 0l.0078 32.13c0 4.406 3.594 7.984 8 7.984c4.438-.0156 8-3.594 8-8.016L264 416.5c34.44-1.047 58.33-15.93 63.06-41.13C335.1 332.6 292.3 321.3 257.1 312.2z"/></svg>