<svg xmlns="http://www.w3.org/2000/svg" viewBox="0 0 512 512"><!--! Font Awesome Pro 6.0.0-alpha3 by @fontawesome - https://fontawesome.com License - https://fontawesome.com/license (Commercial License) --><path d="M448 0c-4.422 0-8 3.578-8 8v272C440 284.4 443.6 288 448 288s8-3.578 8-8v-272C456 3.578 452.4 0 448 0zM136 64C140.4 64 144 60.42 144 56v-48C144 3.578 140.4 0 136 0S128 3.578 128 8v48C128 60.42 131.6 64 136 64zM208 64c4.422 0 8-3.578 8-8v-48C216 3.578 212.4 0 208 0S200 3.578 200 8v48C200 60.42 203.6 64 208 64zM504 0c-4.422 0-8 3.578-8 8v272C496 284.4 499.6 288 504 288S512 284.4 512 280v-272C512 3.578 508.4 0 504 0zM256 64c4.422 0 8-3.578 8-8v-48C264 3.578 260.4 0 256 0S248 3.578 248 8v48C248 60.42 251.6 64 256 64zM400 0c-4.422 0-8 3.578-8 8v272C392 284.4 395.6 288 400 288s8-3.578 8-8v-272C408 3.578 404.4 0 400 0zM320 64c4.422 0 8-3.578 8-8v-48C328 3.578 324.4 0 320 0s-8 3.578-8 8v48C312 60.42 315.6 64 320 64zM256 160H96C78.33 160 64 174.3 64 192v224c0 17.67 14.33 32 32 32h160c17.67 0 32-14.33 32-32V192C288 174.3 273.7 160 256 160zM272 416c0 8.822-7.178 16-16 16H96c-8.822 0-16-7.178-16-16V192c0-8.822 7.178-16 16-16h160c8.822 0 16 7.178 16 16V416zM304 96h-256C21.49 96 0 117.5 0 144v320C0 490.5 21.49 512 48 512h256c26.51 0 48-21.49 48-48v-320C352 117.5 330.5 96 304 96zM336 464c0 17.64-14.36 32-32 32h-256c-17.64 0-32-14.36-32-32v-320c0-17.64 14.36-32 32-32h256c17.64 0 32 14.36 32 32V464z"/></svg>