<svg xmlns="http://www.w3.org/2000/svg" viewBox="0 0 576 512"><!--! Font Awesome Pro 6.0.0-alpha3 by @fontawesome - https://fontawesome.com License - https://fontawesome.com/license (Commercial License) --><path d="M320 32.03h-207.1c-61.86 0-111.1 50.14-111.1 111.1c0 48.42 30.87 89.25 73.88 104.9L7.5 363.1c-15.36 26.66-6.156 61 20.55 76.53l55.38 32c8.812 5.062 18.42 7.469 27.91 7.469c19.41 0 38.3-10.06 48.64-28.03L273 256l46.98 .0142c17.67 0 31.1-14.33 31.1-31.1V64.03C352 46.35 337.7 32.03 320 32.03zM146.1 443.9c-5.328 9.281-13.97 15.91-24.3 18.69c-10.31 2.688-21.14 1.344-30.39-4l-55.34-31.97C16.98 415.5 10.39 391 21.36 371.1l68.23-118.2C96.83 255.2 104.3 256 112 256h142.6L146.1 443.9zM336 224c0 8.822-7.178 16-16 16H112c-52.93 0-96-43.07-96-96c0-52.94 43.07-96 96-96H320c8.822 0 16 7.178 16 16V224zM424 48h144C572.4 48 576 44.42 576 39.1S572.4 32 568 32h-143.1c-4.422 0-7.999 3.577-7.999 7.999S419.6 48 424 48zM568 464h-144c-4.422 0-7.99 3.541-7.99 7.963s3.578 7.999 7.999 7.999h143.1C572.4 479.1 576 476.4 576 471.1S572.4 464 568 464zM568 80h-144c-4.422 0-7.99 3.573-7.99 7.995s3.578 7.999 7.999 7.999h143.1C572.4 95.99 576 92.42 576 87.1S572.4 80 568 80zM568 127.1h-143.1c-4.422 0-7.999 3.577-7.999 7.999S419.6 144 424 144h144C572.4 144 576 140.4 576 135.1S572.4 127.1 568 127.1zM568 376h-144C419.6 376 416 379.6 416 384s3.578 8 8 8h144c4.422 0 8-3.578 8-8S572.4 376 568 376zM568 191.1h-143.1c-4.422 0-7.999 3.577-7.999 7.999S419.6 208 424 208h144C572.4 208 576 204.4 576 199.1S572.4 191.1 568 191.1zM568 319.1h-143.1C419.6 319.1 416 323.6 416 328s3.578 8 8 8h144c4.422 0 8-3.578 8-8S572.4 319.1 568 319.1zM568 272h-144C419.6 272 416 275.6 416 280s3.588 7.978 8.01 7.978h143.1C572.4 287.1 576 284.4 576 280S572.4 272 568 272z"/></svg>