<svg xmlns="http://www.w3.org/2000/svg" viewBox="0 0 640 512"><!--! Font Awesome Pro 6.0.0-alpha3 by @fontawesome - https://fontawesome.com License - https://fontawesome.com/license (Commercial License) --><path d="M352 168h-24v-32c0-4.406-3.578-8.004-8-8.004S312 131.6 312 136V176c0 4.406 3.578 8 8 8h32c4.422 0 8-3.594 8-8S356.4 168 352 168zM360 352h-80c-22.06 0-40 17.94-40 40v112C240 508.4 243.6 512 248 512S256 508.4 256 504v-112c0-13.22 10.77-24 24-24h80c13.23 0 24 10.78 24 24v112c0 4.406 3.578 8 8 8s8-3.594 8-8v-112C400 369.9 382.1 352 360 352zM85.41 187.1l-62.06 28.22C9.156 222.7 0 236.9 0 252.6V504C0 508.4 3.594 512 8 512s8-3.594 8-8V252.6c0-9.406 5.469-17.94 13.97-21.81l62.06-28.22C96.05 200.7 97.83 195.1 96 191.1C94.17 187.1 89.43 186.2 85.41 187.1zM320 88c-48.53 0-88 39.47-88 88S271.5 264 320 264s88-39.47 88-88S368.5 88 320 88zM320 248c-39.7 0-72-32.31-72-72S280.3 104 320 104s72 32.31 72 72S359.7 248 320 248zM493.9 111.8l-169.5-110.5c-2.656-1.75-6.094-1.75-8.75 0L146.1 111.8C134.8 119.3 128 131.8 128 145.3V504C128 508.4 131.6 512 136 512s8-3.594 8-8V145.3c0-8.156 4.078-15.66 10.89-20.12L320 17.56l165.1 107.7C491.9 129.7 496 137.2 496 145.3V504c0 4.406 3.578 8 8 8S512 508.4 512 504V145.3C512 131.8 505.2 119.3 493.9 111.8zM616.7 216.2l-62.06-28.22C550.6 186.2 545.8 187.1 544 191.1c-1.828 4.021-.0508 8.759 3.971 10.59l62.06 28.22C618.5 234.7 624 243.2 624 252.6V504c0 4.406 3.594 8 8 8S640 508.4 640 504V252.6C640 236.9 630.8 222.7 616.7 216.2z"/></svg>