<svg xmlns="http://www.w3.org/2000/svg" viewBox="0 0 448 512"><!--! Font Awesome Pro 6.0.0-alpha3 by @fontawesome - https://fontawesome.com License - https://fontawesome.com/license (Commercial License) --><path d="M440.4 284.1c-6.266-8.094-15.48-12.75-25.3-12.75H68.25L40.52 208h303.5c4.422 0 7.997-3.594 7.997-8S348.4 192 344 192H33.52L21.41 164.3C17.81 156.1 16 147.4 16 138.5V8c0-4.406-3.578-8-8-8C3.578 0 0 3.594 0 8v130.5C0 149.6 2.266 160.5 6.75 170.8l85.94 196.4c12.81 29.28 41.77 48.22 73.75 48.22h65.82C232.2 415.6 232 415.8 232 416v80H104c-4.422 0-8 3.594-8 8S99.58 512 104 512h272c4.422 0 8-3.594 8-8s-3.578-8-8-8H248V416c0-.2441-.2383-.3867-.2598-.625h142.1c18.41 0 34.72-13.34 39.7-32.5l17.27-66.53C449.7 305.1 447.3 293.1 440.4 284.1zM431.3 312.3l-17.27 66.53c-3.125 12.06-13.09 20.5-24.2 20.5H166.4c-25.63 0-48.83-15.16-59.1-38.66L75.25 287.4h339.8c4.891 0 9.391 2.312 12.64 6.531C431.6 298.1 432.1 305.9 431.3 312.3z"/></svg>