<svg xmlns="http://www.w3.org/2000/svg" viewBox="0 0 640 512"><!--! Font Awesome Pro 6.0.0-alpha3 by @fontawesome - https://fontawesome.com License - https://fontawesome.com/license (Commercial License) --><path d="M412.9 416.5c-4.125-1.5-8.75 .4375-10.38 4.562l-24.72 63.53C375.2 491.5 368.8 496 361.7 496h-8.219C343.8 496 336 487.8 336 477.8v-39.28c0-4.406-3.594-8-8-8s-8 3.594-8 8v39.28C320 496.7 335 512 353.5 512h8.23c13.78 0 25.96-8.469 31.08-21.56l24.72-63.53C419.1 422.8 417.1 418.2 412.9 416.5zM624.3 100.8l-53.11-53.11C561.2 37.63 547.6 32 533.4 32H464c0-18.71-16.06-33.67-35.14-31.85C412.2 1.736 400 16.66 400 33.38V88C400 92.42 403.6 96 408 96S416 92.42 416 88V32.9c0-7.973 5.428-15.38 13.29-16.68C439.3 14.57 448 22.29 448 32v16h85.45c9.934 0 19.46 3.945 26.48 10.97l51.9 51.9c10.98 10.98 15.3 27.58 9.361 41.92C615.3 167 601.7 176 586.6 176H536c-4.418 0-8 3.582-8 8S531.6 192 536 192h48.76c17.48 0 34.53-7.631 44.84-21.75C645.5 148.5 642.7 119.1 624.3 100.8zM216 430.5c-4.406 0-8 3.594-8 8v39.28C208 487.8 200.2 496 190.5 496H182.3c-7.125 0-13.47-4.469-16.16-11.38l-24.72-63.53c-1.625-4.125-6.188-6.062-10.38-4.562c-4.125 1.625-6.156 6.25-4.562 10.38l24.72 63.53C156.3 503.5 168.5 512 182.3 512h8.219C209 512 224 496.7 224 477.8v-39.28C224 434.1 220.4 430.5 216 430.5zM528 96c0-8.836-7.164-16-16-16S496 87.16 496 96s7.164 16 16 16S528 104.8 528 96zM494.3 193.7C487.8 165.3 462.4 144 432 144c-6.082 0-11.85 1.119-17.42 2.705C408.5 117.7 382.8 96 352 96c-11.07 0-21.32 3.064-30.4 8.01C309.9 89.48 292.1 80 272 80S234.1 89.48 222.4 104C213.3 99.06 203.1 96 192 96C171.9 96 154.1 105.5 142.4 120C133.3 115.1 123.1 112 112 112c-35.35 0-64 28.65-64 64c0 6.082 1.119 11.85 2.705 17.42C21.75 199.5 0 225.2 0 256s21.75 56.45 50.71 62.58C49.12 324.2 48 329.9 48 336c0 35.35 28.65 64 64 64c11.07 0 21.32-3.064 30.4-8.01C154.1 406.5 171.9 416 192 416c11.07 0 21.32-3.064 30.4-8.01C234.1 422.5 251.9 432 271.1 432s37.87-9.48 49.6-24.01C330.7 412.9 340.9 416 352 416c20.13 0 37.87-9.48 49.6-24.01C410.7 396.9 420.9 400 432 400c35.35 0 64-28.65 64-64c0-6.082-1.119-11.85-2.705-17.42C522.3 312.5 543.1 286.8 543.1 256C543.1 225.6 522.7 200.2 494.3 193.7zM489.1 302.9c-4.34 .918-8.102 3.596-10.39 7.393c-2.291 3.797-2.902 8.375-1.688 12.64C479.3 327.1 480 332.1 480 336c0 26.47-21.53 48-48 48c-7.711 0-15.37-2.039-22.75-6.061c-2.414-1.316-5.043-1.951-7.645-1.951c-4.707 0-9.328 2.076-12.46 5.949C379.9 393.4 366.3 400 352 400c-7.711 0-15.37-2.039-22.75-6.061c-2.414-1.316-5.043-1.951-7.645-1.951c-4.707 0-9.328 2.076-12.46 5.949C299.9 409.4 286.3 416 272 416s-27.88-6.584-37.15-18.06c-3.129-3.873-7.75-5.949-12.46-5.949c-2.602 0-5.23 .6348-7.645 1.951C207.4 397.1 199.7 400 192 400c-14.34 0-27.88-6.584-37.15-18.06c-3.129-3.873-7.75-5.949-12.46-5.949c-2.602 0-5.23 .6348-7.645 1.951C127.4 381.1 119.7 384 112 384C85.53 384 64 362.5 64 336c0-3.879 .666-8.023 2.094-13.04C67.31 318.7 66.7 314.1 64.41 310.3c-2.289-3.797-6.051-6.475-10.39-7.393C31.99 298.3 16 278.5 16 256s15.99-42.26 38.02-46.92c4.34-.916 8.102-3.594 10.39-7.391C66.7 197.9 67.31 193.3 66.09 189C64.67 184 64 179.9 64 176C64 149.5 85.53 128 112 128c7.711 0 15.37 2.039 22.75 6.061C137.2 135.4 139.8 136 142.4 136c4.707 0 9.328-2.076 12.46-5.949C164.1 118.6 177.7 112 192 112c7.711 0 15.37 2.039 22.75 6.061C217.2 119.4 219.8 120 222.4 120c4.707 0 9.328-2.076 12.46-5.949C244.1 102.6 257.7 96 272 96s27.88 6.582 37.15 18.06c3.127 3.873 7.748 5.949 12.46 5.949c2.602 0 5.23-.6348 7.645-1.949C336.6 114 344.3 112 352 112c22.53 0 42.26 15.99 46.92 38.02c.918 4.338 3.596 8.102 7.393 10.39c2.518 1.518 5.377 2.299 8.262 2.299c1.467 0 2.941-.2031 4.379-.6113C423.1 160.7 428.1 160 432 160c22.46 0 41.66 15.33 46.68 37.29c1.369 5.988 6.045 10.66 12.03 12.03C512.7 214.3 528 233.5 528 256C528 278.5 512 298.3 489.1 302.9z"/></svg>