<svg xmlns="http://www.w3.org/2000/svg" viewBox="0 0 448 512"><!--! Font Awesome Pro 6.0.0-alpha3 by @fontawesome - https://fontawesome.com License - https://fontawesome.com/license (Commercial License) --><path d="M280 136v208c0 4.422 3.594 8 8 8s8-3.578 8-8v-208C296 78.66 249.3 32 192 32H72C49.94 32 32 49.94 32 72v400C32 476.4 35.59 480 40 480s8-3.578 8-8V72c0-13.23 10.78-24 24-24H192C240.5 48 280 87.47 280 136zM408 32c-4.406 0-8 3.578-8 8v336c0 48.53-39.47 88-88 88H192c-13.22 0-24-10.77-24-24v-272C168 163.6 164.4 160 160 160S152 163.6 152 168v272C152 462.1 169.9 480 192 480h120c57.34 0 104-46.66 104-104V40C416 35.58 412.4 32 408 32z"/></svg>