<svg xmlns="http://www.w3.org/2000/svg" viewBox="0 0 640 512"><!--! Font Awesome Pro 6.0.0-alpha3 by @fontawesome - https://fontawesome.com License - https://fontawesome.com/license (Commercial License) --><path d="M145.2 412.3c2.375 3.703 7.313 4.812 11.06 2.422c3.719-2.375 4.813-7.312 2.438-11.05L83.46 285.9c-3.781-6.188-4.5-13.61-1.938-20.34c2.688-7.078 8.531-12.44 16-14.7l214.5-64.79V408c0 4.422 3.594 8 8 8c4.406 0 8-3.578 8-8V186l214.4 64.8c7.5 2.266 13.34 7.625 16.03 14.7c2.563 6.734 1.844 14.16-1.875 20.22l-75.35 117.1c-2.375 3.734-1.281 8.672 2.438 11.05C485 415.6 486.5 416 488 416c2.625 0 5.219-1.297 6.75-3.688l75.41-118.1c6.406-10.45 7.625-22.98 3.281-34.41c-4.469-11.75-14.09-20.61-26.38-24.33l-35.4-10.7C511.7 224.5 512 224.3 512 224V104c0-22.06-17.94-40-40-40l-56 .0241l.0017-40.73C416 10.45 405.5 0 392.7 0H247.3C234.4 0 223.1 10.45 223.1 23.3l.0019 40.73L167.1 64C145.9 64 127.1 81.94 127.1 104V224c0 .3105 .2949 .4941 .3301 .7969L92.9 235.5C80.62 239.2 71.03 248.1 66.56 259.8C62.21 271.2 63.43 283.8 69.9 294.4L145.2 412.3zM239.1 23.3C239.1 19.27 243.3 16 247.3 16h145.4c4.031 0 7.313 3.266 7.313 7.297V64H239.1V23.3zM143.1 104c0-13.23 10.78-24 24-24h304c13.22 0 24 10.77 24 24v116.1L327.3 169.1c-4.813-1.453-9.844-1.484-14.53 0L143.1 220.1V104zM600.6 495.7c-29.28-2.281-57.88-17.8-82.72-44.88c-1.531-1.656-3.656-2.594-5.906-2.594s-4.406 .9531-5.938 2.625C479.4 480.3 448.4 495.9 416.6 496h-.3438c-31.94 0-63.19-15.62-90.31-45.17c-1.531-1.656-3.656-2.594-5.906-2.594c-2.25 0-4.406 .9531-5.938 2.625C287.4 480.3 256.4 495.9 224.6 496H224.2c-31.94 0-63.19-15.62-90.31-45.17c-1.531-1.656-3.656-2.594-5.906-2.594S123.6 449.2 122.1 450.9c-24.66 27.19-53.25 42.72-82.66 44.88c-4.406 .3281-7.719 4.172-7.375 8.578c.3438 4.391 3.344 7.516 8.563 7.391c31.22-2.312 61.28-17.42 87.44-43.88c28.91 28.94 61.89 44.17 96.08 44.17L224.6 512c34.13-.1094 66.97-15.34 95.44-44.16C348.9 496.8 382 512 416.2 512h.375c34.13-.1094 66.97-15.34 95.44-44.16c26.28 26.3 56.31 41.39 87.35 43.8c5.156 .6406 8.25-2.969 8.594-7.344C608.3 499.9 605 496 600.6 495.7z"/></svg>