<svg xmlns="http://www.w3.org/2000/svg" viewBox="0 0 640 512"><!--! Font Awesome Pro 6.0.0-alpha3 by @fontawesome - https://fontawesome.com License - https://fontawesome.com/license (Commercial License) --><path d="M634.6 142.2l-85.38-128c-6-9-16-14.25-26.63-14.25H117.3c-10.62 0-20.63 5.25-26.63 14.25l-85.25 128C-8.78 163.5 6.47 192 32.1 192H63.99l.0142 272c0 26.51 21.49 47.1 48 47.1h224c26.5 0 47.1-21.49 47.1-47.1L384 231.1C384 227.6 380.4 224 376 224s-8 3.58-8 7.998V464c0 17.67-14.33 32-32 32H111.1c-17.67 0-31.99-14.32-31.99-31.99V192H560v296c0 4.406-3.594 8-8 8h-32c-4.406 0-8-3.594-8-8v-256C512 227.6 508.4 224 504 224S496 227.6 496 232v256c0 13.22 10.77 24 24 24h31.1c13.23 0 24-10.78 24-24L575.1 192h31.99C633.5 192 648.7 163.5 634.6 142.2zM622 167.6C620.7 170.1 616.6 176 607.1 176H32.1c-8.709 0-12.81-5.928-14.17-8.477C16.57 164.1 13.95 158.3 18.79 151.1l85.25-127.1C107 18.66 111.1 16 117.3 16h405.3c5.361 0 10.34 2.664 13.31 7.127l85.36 127.1C626.1 158.3 623.4 165 622 167.6zM135.1 224c-4.404 0-7.998 3.578-7.998 8v144c0 4.422 3.594 8 7.998 8h176c4.404 0 7.998-3.578 7.998-8v-144c0-4.422-3.594-8-7.998-8c-4.406 0-7.998 3.578-7.998 8v136H143.1V232C143.1 227.6 140.4 224 135.1 224z"/></svg>