<svg xmlns="http://www.w3.org/2000/svg" viewBox="0 0 640 512"><!--! Font Awesome Pro 6.0.0-alpha3 by @fontawesome - https://fontawesome.com License - https://fontawesome.com/license (Commercial License) --><path d="M368 464c0 17.67-14.33 32-32 32H111.1c-17.67 0-31.99-14.32-31.99-31.99V192h43.77L103.6 176H32.1c-8.709 0-12.81-5.928-14.17-8.477C16.57 164.1 13.95 158.3 18.79 151.1l18.54-27.83L24.76 113.3L5.471 142.3c-14.25 21.25 .9999 49.75 26.62 49.75L64 192v272C64 490.5 85.49 512 112 512h224C362.5 512 384 490.5 384 464v-65.15l-15.1-12.72V464zM496 232v71.91L512 316.6V232C512 227.6 508.4 224 504 224S496 227.6 496 232zM522.6 16c5.361 0 10.34 2.664 13.31 7.127l85.36 127.1c4.783 7.199 2.123 13.9 .7578 16.45C620.7 170.1 616.6 176 607.1 176h-272.9L355.2 192H560v162.8l16 12.72V192l31.97 .0033c25.5 0 40.75-28.5 26.62-49.75l-85.38-127.1c-6-9-15.1-14.25-26.62-14.25H117.3c-1.086 0-2.119 .2799-3.19 .3874L133.8 16H522.6zM12.99 1.73C11.53 .5664 9.771 0 8.025 0C5.674 0 3.336 1.029 1.738 3.012c-2.75 3.469-2.172 8.5 1.281 11.25l623.1 496C628.5 511.4 630.2 512 631.1 512c2.344 0 4.688-1.031 6.266-3.016c2.75-3.469 2.172-8.5-1.281-11.25L12.99 1.73zM135.1 224c-4.404 0-7.998 3.578-7.998 8v144c0 4.422 3.594 8 7.998 8h176c4.404 0 7.998-3.578 7.998-8v-28.01L304 335.3V368H143.1V232C143.1 227.6 140.4 224 135.1 224z"/></svg>