<svg xmlns="http://www.w3.org/2000/svg" viewBox="0 0 640 512"><!--! Font Awesome Pro 6.0.0-alpha3 by @fontawesome - https://fontawesome.com License - https://fontawesome.com/license (Commercial License) --><path d="M576.8 192.3C533 171.8 474.3 160 416 160h-9.109C291.4 109.5 231.1 32 112 32h-32C53.49 32 32 53.49 32 80V128C14.33 128 0 142.3 0 160v192c0 17.67 14.33 32 32 32v48C32 458.5 53.49 480 80 480h32c119.1 0 179.4-77.45 294.9-128H416c58.33 0 117-11.83 160.8-32.33C616.3 301.2 640 277.3 640 256C640 234.7 616.3 210.8 576.8 192.3zM136 49.29c60.25 5.988 105.3 33.95 156.4 65.88C315.8 129.7 340.9 145.4 369.3 160H176C167.4 145.2 153 134.3 136 130.1V49.29zM48 80c0-17.64 14.36-32 32-32h32c2.77 0 5.295 .3398 8 .4277V128H48V80zM120 463.6C117.3 463.7 114.8 464 112 464h-32c-17.64 0-32-14.36-32-32V384h72V463.6zM292.4 396.8C241.3 428.8 196.3 456.7 136 462.7v-80.78C153 377.7 167.4 366.8 176 352h193.3C340.9 366.6 315.8 382.3 292.4 396.8zM570.1 305.2C528.2 324.8 472 336 416 336H166.8l-4.629 7.951C153.4 359 137.1 368 120.9 368H32c-8.822 0-16-7.178-16-16V264H224c4.406 0 8-3.594 8-8S228.4 248 224 248H16V160c0-8.822 7.178-16 16-16h88.88c17.09 0 32.53 8.99 41.29 24.05L166.8 176H416c56.02 0 112.2 11.23 154 30.82C607.3 224.3 624 244.1 624 256S607.3 287.7 570.1 305.2zM488 216C483.6 216 480 219.6 480 224v64c0 4.406 3.594 8 8 8S496 292.4 496 288V224C496 219.6 492.4 216 488 216z"/></svg>