<svg xmlns="http://www.w3.org/2000/svg" viewBox="0 0 512 512"><!--! Font Awesome Pro 6.0.0-alpha3 by @fontawesome - https://fontawesome.com License - https://fontawesome.com/license (Commercial License) --><path d="M360 200c0 4.406 3.578 8 8 8H448c4.422 0 8-3.594 8-8S452.4 192 448 192h-80C363.6 192 360 195.6 360 200zM360 264c0 4.406 3.578 8 8 8H448c4.422 0 8-3.594 8-8S452.4 256 448 256h-80C363.6 256 360 259.6 360 264zM448 128h-80c-4.422 0-8 3.594-8 8S363.6 144 368 144H448c4.422 0 8-3.594 8-8S452.4 128 448 128zM0 96v320c0 35.35 28.65 64 64 64h384c35.35 0 64-28.65 64-64V96c0-35.35-28.65-64-64-64H64C28.65 32 0 60.65 0 96zM320 48h128c26.47 0 48 21.53 48 48v320c0 26.47-21.53 48-48 48h-128V48zM16 96c0-26.47 21.53-48 48-48h240v416H64c-26.47 0-48-21.53-48-48V96z"/></svg>