<svg xmlns="http://www.w3.org/2000/svg" viewBox="0 0 512 512"><!--! Font Awesome Pro 6.0.0-alpha3 by @fontawesome - https://fontawesome.com License - https://fontawesome.com/license (Commercial License) --><path d="M144 192H64C59.58 192 56 195.6 56 200S59.58 208 64 208h80c4.422 0 8-3.594 8-8S148.4 192 144 192zM144 256H64C59.58 256 56 259.6 56 264S59.58 272 64 272h80c4.422 0 8-3.594 8-8S148.4 256 144 256zM56 136C56 140.4 59.58 144 64 144h80c4.422 0 8-3.594 8-8S148.4 128 144 128H64C59.58 128 56 131.6 56 136zM448 32H64C28.65 32 0 60.65 0 96v320c0 35.35 28.65 64 64 64h384c35.35 0 64-28.65 64-64V96C512 60.65 483.3 32 448 32zM192 464H64c-26.47 0-48-21.53-48-48V96c0-26.47 21.53-48 48-48h128V464zM496 416c0 26.47-21.53 48-48 48H208v-416H448c26.47 0 48 21.53 48 48V416z"/></svg>