<svg xmlns="http://www.w3.org/2000/svg" viewBox="0 0 512 512"><!--! Font Awesome Pro 6.0.0-alpha3 by @fontawesome - https://fontawesome.com License - https://fontawesome.com/license (Commercial License) --><path d="M504 88H104v-80C104 3.594 100.4 0 96 0S88 3.594 88 8v80h-80C3.594 88 0 91.59 0 96s3.594 8 8 8h80v400C88 508.4 91.59 512 96 512s8-3.594 8-8V104h400C508.4 104 512 100.4 512 96S508.4 88 504 88zM472 136c-4.406 0-8 3.594-8 8v224h-288v-224c0-4.406-3.594-8-8-8S160 139.6 160 144v232C160 380.4 163.6 384 168 384h304c4.406 0 8-3.594 8-8V144C480 139.6 476.4 136 472 136z"/></svg>