<svg xmlns="http://www.w3.org/2000/svg" viewBox="0 0 512 512"><!--! Font Awesome Pro 6.0.0-alpha3 by @fontawesome - https://fontawesome.com License - https://fontawesome.com/license (Commercial License) --><path d="M441.4 160c8.5 0 16.62-3.375 22.62-9.375l43.25-43.25c6.25-6.375 6.25-16.38 0-22.62l-43.25-43.38C458.1 35.38 449.9 32 441.4 32H264V8C264 3.578 260.4 0 255.1 0S248 3.578 248 8V32H55.94C42.69 32 31.94 42.75 31.94 56v80c0 13.25 10.75 24 24 24H248v64H70.57c-8.5 0-16.63 3.375-22.63 9.375L4.688 276.8c-6.25 6.25-6.25 16.38 0 22.62l43.25 43.25C53.94 348.6 62.06 352 70.56 352H248v152c0 4.422 3.557 8 7.979 8S264 508.4 264 504V352h191.9c13.25 0 24-10.75 24-24v-80c0-13.25-10.73-24-23.98-24H264V160H441.4zM455.9 240c4.412 0 8 3.59 8 8v80c0 4.41-3.588 8-8 8H70.56c-4.27 0-8.287-1.664-11.31-4.688L16.02 288l43.23-43.36C62.28 241.7 66.29 240 70.56 240H455.9zM55.94 144c-4.41 0-8-3.59-8-8v-80c0-4.41 3.59-8 8-8h385.5c4.271 0 8.289 1.664 11.29 4.672L496 96.06l-43.25 43.25C449.7 142.3 445.7 144 441.4 144H55.94z"/></svg>