<svg xmlns="http://www.w3.org/2000/svg" viewBox="0 0 448 512"><!--! Font Awesome Pro 6.0.0-alpha3 by @fontawesome - https://fontawesome.com License - https://fontawesome.com/license (Commercial License) --><path d="M149.1 237.3L144.5 263.1C141.9 275.8 149.1 288 160.1 288h126c11.13 0 19.13-12.25 16.5-24.88l-5.502-25.88c41.76-22.38 69.1-62.75 69.1-109.3C368 57.25 303.5 0 224 0C144.5 0 79.99 57.25 79.99 127.1C79.99 174.5 108.2 214.9 149.1 237.3zM224 16c70.59 0 128 50.24 128 112c0 38.92-23.02 74.49-61.57 95.15c-6.275 3.363-9.574 10.47-8.094 17.43l5.486 25.8C288.5 269.4 287.1 271.7 287 272L161.6 272.1C160.9 271.7 159.5 269.4 160.1 266.5l5.5-25.88c1.48-6.963-1.818-14.07-8.094-17.43C118.1 202.5 95.98 166.9 95.98 128C95.98 66.24 153.4 16 224 16zM240.5 384l203.4-113c3.859-2.156 5.25-7.031 3.109-10.88c-2.172-3.906-7.031-5.25-10.89-3.125L224 374.8L11.9 257c-3.859-2.125-8.734-.8125-10.89 3.125C-1.136 263.1 .255 268.8 4.114 271L207.5 384l-203.4 113c-3.859 2.156-5.25 7.031-3.109 10.88C2.474 510.5 5.208 512 8.005 512c1.328 0 2.656-.3125 3.891-1L224 393.2l212.1 117.8C437.3 511.7 438.7 512 439.1 512c2.797 0 5.531-1.469 6.1-4.125c2.141-3.844 .7499-8.719-3.109-10.88L240.5 384zM271.1 176c17.64 0 31.1-14.36 31.1-31.1c0-17.64-14.36-32-31.1-32s-31.1 14.36-31.1 32C239.1 161.6 254.4 176 271.1 176zM271.1 128c8.812 0 15.1 7.188 15.1 16C287.1 152.8 280.8 160 271.1 160c-8.812 0-15.1-7.188-15.1-15.1C255.1 135.2 263.2 128 271.1 128zM176 176c17.64 0 31.1-14.36 31.1-31.1c0-17.64-14.36-32-31.1-32s-31.1 14.36-31.1 32C144 161.6 158.4 176 176 176zM176 128c8.812 0 15.1 7.188 15.1 16C192 152.8 184.8 160 176 160C167.2 160 160 152.8 160 144C160 135.2 167.2 128 176 128z"/></svg>