<svg xmlns="http://www.w3.org/2000/svg" viewBox="0 0 512 512"><!--! Font Awesome Pro 6.0.0-alpha3 by @fontawesome - https://fontawesome.com License - https://fontawesome.com/license (Commercial License) --><path d="M256 0C114.8 0 0 100.9 0 225c0 68.03 34.59 131.7 94.88 174.8c7.219 5.188 10.98 13.34 9.797 21.62l-8.625 81.78c-.4687 4.406 2.719 8.344 7.109 8.812c4.562 .4375 8.312-2.75 8.797-7.125l8.594-81.5c2-13.88-4.266-27.91-16.36-36.59C48.14 346.8 16 287.8 16 225C16 109.8 123.7 16 256 16s240 93.75 240 209c0 62.78-32.14 121.8-88.19 161.7c-12.11 8.656-18.38 22.69-16.39 36.34l8.625 81.78C400.5 508.9 403.1 512 407.1 512c.2813 0 .5625 0 .8594-.0313c4.391-.4687 7.578-4.406 7.109-8.812l-8.656-82.09c-1.172-8 2.594-16.16 9.797-21.31C477.4 356.7 512 293 512 225C512 100.9 397.2 0 256 0zM163 186c-38.59 0-70 31.41-70 69.1s31.41 70 70 70S233 294.6 233 256S201.6 186 163 186zM163 310c-29.78 0-54-24.22-54-54s24.22-53.1 54-53.1S217 226.2 217 256S192.8 310 163 310zM419 256c0-38.59-31.41-69.1-70-69.1S279 217.4 279 256s31.41 70 70 70S419 294.6 419 256zM295 256c0-29.78 24.22-53.1 54-53.1S403 226.2 403 256s-24.22 54-54 54S295 285.8 295 256zM184 440c-4.422 0-8 3.594-8 8v56C176 508.4 179.6 512 184 512S192 508.4 192 504V448C192 443.6 188.4 440 184 440zM256 440c-4.422 0-8 3.594-8 8v56C248 508.4 251.6 512 256 512s8-3.594 8-8V448C264 443.6 260.4 440 256 440zM328 440C323.6 440 320 443.6 320 448v56c0 4.406 3.578 8 8 8s8-3.594 8-8V448C336 443.6 332.4 440 328 440z"/></svg>