<svg xmlns="http://www.w3.org/2000/svg" viewBox="0 0 640 512"><!--! Font Awesome Pro 6.0.0-alpha3 by @fontawesome - https://fontawesome.com License - https://fontawesome.com/license (Commercial License) --><path d="M32 216c0 69.74 52.95 126.7 120.6 134.4C152.5 351 152 351.4 152 352v64c0 4.406 3.578 8 8 8S168 420.4 168 416v-64h240v64c0 4.406 3.578 8 8 8s8-3.594 8-8v-64h16C497.3 352 544 305.3 544 248V144c0-4.406-3.578-8-8-8S528 139.6 528 144v104c0 48.53-39.47 88-88 88H168c-66.17 0-120-53.84-120-120V102.2c0-4.406-3.578-8-8-8c-13.02 0-24-10.56-24-23.09C16 58.38 26.36 48 39.11 48h20.17c62.08 0 117.2 33.03 143.8 86.22C233.2 194.5 293.8 232 361.2 232h20.17C421.8 232 456 200.7 456 163.6V112h112C572.4 112 576 108.4 576 104S572.4 96 568 96H448c-4.422 0-8 3.594-8 8v59.56C440 194.9 409.7 216 381.3 216h-20.17c-61.27 0-116.4-34.06-143.8-88.94C188 68.44 127.5 32 59.28 32H39.11C17.55 32 0 49.56 0 71.13C0 90 13.77 105.8 32 109.4V216zM613.7 346.3c-3.125-3.125-8.188-3.125-11.31 0s-3.125 8.188 0 11.31C613.1 368.4 624 387.8 624 404.1C624 437.1 597.1 464 564.1 464H40C35.58 464 32 467.6 32 472S35.58 480 40 480h524C605.9 480 640 445.1 640 404.1C640 382.5 626.3 359 613.7 346.3z"/></svg>