<svg xmlns="http://www.w3.org/2000/svg" viewBox="0 0 640 512"><!--! Font Awesome Pro 6.0.0-alpha3 by @fontawesome - https://fontawesome.com License - https://fontawesome.com/license (Commercial License) --><path d="M96.02 384c-8.836 0-16 7.164-16 16s7.164 16 16 16s16-7.164 16-16S104.9 384 96.02 384zM384 384c-8.836 0-16 7.164-16 16S375.2 416 384 416c8.838 0 16-7.164 16-16S392.8 384 384 384zM288 384c-8.836 0-16 7.164-16 16S279.2 416 288 416c8.838 0 16.01-7.18 16.01-16.02S296.8 384 288 384zM192 384c-8.836 0-15.98 7.172-15.98 16.01S183.2 416 192 416s16-7.164 16-16S200.9 384 192 384zM448 320V264C448 241.9 430.1 224 408 224H259.3L207 171.7C199.5 164.2 189.4 160 178.8 160H104C81.94 160 64 177.9 64 200l.0031 99.24C26.3 317.3 0 355.5 0 400C0 461.8 50.25 512 112 512h256c61.75 0 112-50.25 112-112c0-30.69-12.46-58.51-32.52-78.76C447.6 320.8 448 320.5 448 320zM80 200c0-13.22 10.77-24 24-24h74.75c6.312 0 12.5 2.562 16.97 7.031l54.63 54.63C251.8 239.2 253.9 240 256 240h152c13.23 0 24 10.78 24 24v44.33c-18.17-12.73-40.17-20.33-63.99-20.33h-256c-11.19 0-21.79 2.145-32 5.217V200zM464 400c0 52.94-43.06 96-96 96h-256c-52.94 0-96-43.06-96-96s43.06-96 96-96h256C420.9 304 464 347.1 464 400zM136 136C140.4 136 144 132.4 144 128V16h171.2l93.75 179.7C410.3 198.4 413.1 200 416 200c1.25 0 2.516-.2813 3.703-.9062c3.922-2.031 5.438-6.875 3.391-10.78l-96-184c-1.375-2.656-3.908-4.312-6.892-4.312L136 0C131.6 0 128 3.594 128 8V128C128 132.4 131.6 136 136 136zM587.1 447.8C564.5 425.2 552 395 552 362.1V277c0-32.06 12.48-62.22 35.14-84.88l50.52-50.5c3.125-3.125 3.125-8.188 0-11.31s-8.188-3.125-11.31 0l-50.52 50.5C550.1 206.5 536 240.7 536 277V312H480c-4.422 0-8 3.594-8 8s3.578 8 8 8h56v34.97c0 36.34 14.14 70.5 39.83 96.19l50.52 50.5C627.9 511.2 629.1 512 632 512s4.094-.7813 5.656-2.344c3.125-3.125 3.125-8.188 0-11.31L587.1 447.8z"/></svg>