<svg xmlns="http://www.w3.org/2000/svg" viewBox="0 0 512 512"><!--! Font Awesome Pro 6.0.0-alpha3 by @fontawesome - https://fontawesome.com License - https://fontawesome.com/license (Commercial License) --><path d="M256 0C114.8 0 0 114.8 0 256s114.8 256 256 256s256-114.8 256-256S397.2 0 256 0zM256 496c-109.9 0-202.5-74.3-230.9-175.2C100 341.3 177.6 352 256 352s155.1-10.72 230.9-31.24C458.5 421.7 365.9 496 256 496zM20.71 303.2C17.66 287.9 16 272.1 16 256c0-132.3 107.7-240 240-240s240 107.7 240 240c0 16.15-1.656 31.91-4.711 47.17C338.9 346.6 173.1 346.6 20.71 303.2zM192 80C147.9 80 112 115.9 112 160S147.9 240 192 240s80-35.89 80-80S236.1 80 192 80zM192 224C156.7 224 128 195.3 128 160s28.7-64 64-64s64 28.7 64 64S227.3 224 192 224zM192 144C183.2 144 176 151.2 176 160S183.2 176 192 176c8.838 0 16-7.164 16-16S200.8 144 192 144z"/></svg>