<svg xmlns="http://www.w3.org/2000/svg" viewBox="0 0 512 512"><!--! Font Awesome Pro 6.0.0-alpha3 by @fontawesome - https://fontawesome.com License - https://fontawesome.com/license (Commercial License) --><path d="M192 80C147.9 80 112 115.9 112 160S147.9 240 192 240s80-35.89 80-80S236.1 80 192 80zM192 224C156.7 224 128 195.3 128 160s28.7-64 64-64s64 28.7 64 64S227.3 224 192 224zM192 144C183.2 144 176 151.2 176 160S183.2 176 192 176c8.838 0 16-7.164 16-16S200.8 144 192 144zM352 144c-4.422 0-8 3.578-8 8S347.6 160 352 160h96c4.422 0 8-3.578 8-8S452.4 144 448 144H352zM447.1 192H352c-4.422 0-8 3.578-8 8S347.6 208 352 208h96c4.422 0 8-3.578 8-8S452.4 192 447.1 192zM504 248H416c-4.422 0-8 3.578-8 8S411.6 264 416 264h79.91c-.3438 14.05-1.688 29.83-5.609 39.55c-152.1 43.16-317.6 42.1-469.6-.377C17.66 287.9 16 272.1 16 256c0-132.3 107.7-240 240-240c64.83 0 126.3 26.03 171.4 71.98L360 88C355.6 88 352 91.58 352 96s3.578 8 8 8l85.48-.0156c3.109 0 5.953-1.812 7.25-4.641c1.312-2.812 .875-6.141-1.141-8.531C402.8 33.11 331.5 0 256 0c-141.2 0-256 114.8-256 256s114.8 256 256 256c90.5 0 172.5-46.3 219.3-123.9c1.5-2.484 1.547-5.562 .125-8.078C473.1 377.5 471.3 376 468.5 376H400c-4.422 0-8 3.578-8 8s3.578 8 8 8h53.78C408.9 457.4 336 496 256 496c-109.9 0-202.5-74.3-230.9-175.2C100 341.3 177.6 352 256 352c82.36 0 163.8-11.47 242.2-34.08c2.062-.5938 3.906-2.188 4.922-4.078C505.3 309.8 512 297.4 512 256C512 251.6 508.4 248 504 248z"/></svg>