<svg xmlns="http://www.w3.org/2000/svg" viewBox="0 0 512 512"><!--! Font Awesome Pro 6.0.0-alpha3 by @fontawesome - https://fontawesome.com License - https://fontawesome.com/license (Commercial License) --><path d="M484.7 27.28C466.9 9.438 441.4 .0313 411 0c-48.59 0-104.8 24.75-143.1 63.06c-.0156 .0313-1.438 1.438-1.453 1.469C230.9 100.9 222.7 156.6 244.8 207.9l-235.4 221.1c-5.844 5.562-9.25 13.34-9.359 21.41c-.1094 8.031 3.109 15.94 8.797 21.59l31.17 31.19C45.58 508.8 53.27 512 61.14 512h.4531c8.031-.125 15.81-3.531 21.42-9.406l221.1-235.4c51.33 22.09 107 13.84 143.3-21.69c.0156-.0313 1.453-1.406 1.469-1.438c38.34-38.34 63.09-94.53 63.06-143.2C511.1 70.53 502.5 45.06 484.7 27.28zM436.3 234.1C396.5 272.9 342.8 268 305.6 250.3c-3.156-1.5-6.875-.8125-9.266 1.75l-224.1 239.5c-6.337 6.639-15.72 4.677-20.14 .3125l-31.17-31.19c-6.221-6.221-4.742-15.3 .25-20.06l239.6-225c2.531-2.406 3.234-6.125 1.734-9.281c-17.64-37.09-22.64-90.91 17.56-132C314.7 38.91 366.4 16 410.1 16c26.06 0 47.69 7.812 62.42 22.59c14.78 14.75 22.59 36.31 22.61 62.34C496 145.5 473.1 197.3 436.3 234.1z"/></svg>