<svg xmlns="http://www.w3.org/2000/svg" viewBox="0 0 512 512"><!--! Font Awesome Pro 6.0.0-alpha3 by @fontawesome - https://fontawesome.com License - https://fontawesome.com/license (Commercial License) --><path d="M104 128C108.4 128 112 124.4 112 120V36C112 24.97 120.1 16 132 16h56C199 16 208 24.97 208 36V120C208 124.4 211.6 128 216 128S224 124.4 224 120V36C224 16.16 207.8 0 188 0h-56C112.2 0 96 16.16 96 36V120C96 124.4 99.56 128 104 128zM160 248c-48.53 0-88 39.47-88 88S111.5 424 160 424s88-39.47 88-88S208.5 248 160 248zM160 408c-39.69 0-72-32.31-72-72S120.3 264 160 264s72 32.31 72 72S199.7 408 160 408zM224 160H96C43 160 0 203 0 256v224c0 17.62 14.38 32 32 32h256c17.62 0 32-14.38 32-32V256C320 203 277 160 224 160zM304 480c0 8.828-7.188 16-16 16H32c-8.812 0-16-7.172-16-16V256c0-44.11 35.88-80 80-80h128c44.13 0 80 35.89 80 80V480zM504 232h-32v-32C472 195.6 468.4 192 464 192s-8 3.578-8 8v32h-32C419.6 232 416 235.6 416 240s3.594 8 8 8h32v32C456 284.4 459.6 288 464 288s8-3.578 8-8v-32h32C508.4 248 512 244.4 512 240S508.4 232 504 232zM424 56h32v32C456 92.42 459.6 96 464 96s8-3.578 8-8v-32h32C508.4 56 512 52.42 512 48s-3.594-8-8-8h-32v-32C472 3.578 468.4 0 464 0s-8 3.578-8 8v32h-32C419.6 40 416 43.58 416 48S419.6 56 424 56zM448 144c0-4.422-3.594-8-8-8h-32v-32C408 99.58 404.4 96 400 96s-8 3.578-8 8v32h-32C355.6 136 352 139.6 352 144s3.594 8 8 8h32v32C392 188.4 395.6 192 400 192s8-3.578 8-8v-32h32C444.4 152 448 148.4 448 144zM384 48c0-4.422-3.594-8-8-8h-32v-32C344 3.578 340.4 0 336 0s-8 3.578-8 8v32h-32C291.6 40 288 43.58 288 48s3.594 8 8 8h32v32C328 92.42 331.6 96 336 96s8-3.578 8-8v-32h32C380.4 56 384 52.42 384 48z"/></svg>