<svg xmlns="http://www.w3.org/2000/svg" viewBox="0 0 448 512"><!--! Font Awesome Pro 6.0.0-alpha3 by @fontawesome - https://fontawesome.com License - https://fontawesome.com/license (Commercial License) --><path d="M384 32H64C28.65 32 0 60.65 0 96v320c0 35.35 28.65 64 64 64h320c35.34 0 64-28.65 64-64V96C448 60.65 419.3 32 384 32zM432 416c0 26.47-21.53 48-48 48H64c-26.47 0-48-21.53-48-48V96c0-26.47 21.53-48 48-48h320c26.47 0 48 21.53 48 48V416zM376 384h-304C67.59 384 64 387.6 64 392s3.594 8 8 8h304c4.406 0 8-3.578 8-8S380.4 384 376 384zM69.66 189.7L120 139.3V312C120 316.4 123.6 320 128 320s8-3.578 8-8V139.3l50.34 50.34C187.9 191.2 189.9 192 192 192s4.094-.7813 5.656-2.344c3.125-3.125 3.125-8.188 0-11.31l-64-64c-3.125-3.125-8.188-3.125-11.31 0l-64 64c-3.125 3.125-3.125 8.188 0 11.31S66.53 192.8 69.66 189.7zM325.7 114.3c-3.125-3.125-8.188-3.125-11.31 0l-64 64c-3.125 3.125-3.125 8.188 0 11.31s8.188 3.125 11.31 0L312 139.3V312C312 316.4 315.6 320 320 320s8-3.578 8-8V139.3l50.34 50.34C379.9 191.2 381.9 192 384 192s4.094-.7813 5.656-2.344c3.125-3.125 3.125-8.188 0-11.31L325.7 114.3z"/></svg>