<svg xmlns="http://www.w3.org/2000/svg" viewBox="0 0 448 512"><!--! Font Awesome Pro 6.0.0-alpha3 by @fontawesome - https://fontawesome.com License - https://fontawesome.com/license (Commercial License) --><path d="M224 336c-8.836 0-16 7.164-16 16c0 8.838 7.164 16 16 16s16-7.162 16-16C240 343.2 232.8 336 224 336zM224 240C215.2 240 208 247.2 208 256c0 8.838 7.164 16 16 16s16-7.162 16-16C240 247.2 232.8 240 224 240zM224 144C215.2 144 208 151.2 208 160c0 8.838 7.164 16 16 16s16-7.162 16-16C240 151.2 232.8 144 224 144zM384 32H64C28.65 32 0 60.66 0 96v320c0 35.34 28.65 64 64 64h320c35.35 0 64-28.66 64-64V96C448 60.66 419.3 32 384 32zM432 416c0 26.47-21.53 48-48 48H64c-26.47 0-48-21.53-48-48V96c0-26.47 21.53-48 48-48h320c26.47 0 48 21.53 48 48V416z"/></svg>