<svg xmlns="http://www.w3.org/2000/svg" viewBox="0 0 448 512"><!--! Font Awesome Pro 6.0.0-alpha3 by @fontawesome - https://fontawesome.com License - https://fontawesome.com/license (Commercial License) --><path d="M384 32H64C28.65 32 0 60.65 0 96v320c0 35.35 28.65 64 64 64h320c35.34 0 64-28.65 64-64V96C448 60.65 419.3 32 384 32zM432 416c0 26.47-21.53 48-48 48H64c-26.47 0-48-21.53-48-48V96c0-26.47 21.53-48 48-48h320c26.47 0 48 21.53 48 48V416zM240 128H136C131.6 128 128 131.6 128 136v240C128 380.4 131.6 384 136 384s8-3.578 8-8V320h96c52.94 0 96-43.06 96-96S292.9 128 240 128zM240 304h-96v-160h96C284.1 144 320 179.9 320 224S284.1 304 240 304z"/></svg>