<svg xmlns="http://www.w3.org/2000/svg" viewBox="0 0 448 512"><!--! Font Awesome Pro 6.0.0-alpha3 by @fontawesome - https://fontawesome.com License - https://fontawesome.com/license (Commercial License) --><path d="M384 32H64C28.65 32 0 60.66 0 96v320c0 35.34 28.65 64 64 64h320c35.34 0 64-28.66 64-64V96C448 60.66 419.3 32 384 32zM432 416c0 26.47-21.53 48-48 48H64c-26.47 0-48-21.53-48-48V96c0-26.47 21.53-48 48-48h320c26.47 0 48 21.53 48 48V416zM226.1 248.3L216.6 245.6C175.6 234 155.7 222.9 160.8 194.2c4.75-26.41 36.38-39.06 80.41-32.55c9.156 1.375 20.03 4.234 34.28 8.969c4.25 1.453 8.719-.8594 10.12-5.062s-.875-8.734-5.062-10.12c-15.16-5.031-26.88-8.078-36.97-9.594c-4-.6055-7.736-.7773-11.56-1.096V104C232 99.58 228.4 96 224 96S216 99.58 216 104v40.26c-38.76 .9434-65.71 17.95-70.97 47.13C136.4 239.5 183.9 252.1 212.3 261l9.594 2.656c44.53 12.27 71.13 22.03 65.38 54.11c-4.719 26.42-36.31 39.2-80.44 32.53c-14.22-2.047-30.5-7.703-44.84-12.67l-7.344-2.547c-4.312-1.328-8.719 .8594-10.16 5c-1.438 4.172 .8125 8.719 4.969 10.16l7.281 2.5c15.03 5.219 32.06 11.12 47.75 13.39C208.5 366.8 212.1 366.7 216 367V408C216 412.4 219.6 416 224 416s8-3.578 8-8v-40.13c38.82-.9336 65.71-18.06 70.97-47.26C311.7 271.8 266.2 259.3 226.1 248.3z"/></svg>