<svg xmlns="http://www.w3.org/2000/svg" viewBox="0 0 448 512"><!--! Font Awesome Pro 6.0.0-alpha3 by @fontawesome - https://fontawesome.com License - https://fontawesome.com/license (Commercial License) --><path d="M384 31.1H64c-35.35 0-64 28.65-64 63.1v320c0 35.35 28.65 64 64 64h320c35.35 0 64-28.65 64-64v-320C448 60.65 419.3 31.1 384 31.1zM432 416c0 26.47-21.53 48-48 48H64c-26.47 0-48-21.53-48-48V96c0-26.47 21.53-48 48-48h320c26.47 0 48 21.53 48 48V416zM112 192h128C248.9 192 256 184.9 256 176v-32c0-8.875-7.125-16-16-16h-128C103.1 127.1 96 135.1 96 144v32C96 184.9 103.1 192 112 192zM112 144h128v32h-128V144zM176 320h-64C103.1 320 96 327.1 96 336v32C96 376.9 103.1 384 112 384h64C184.9 384 192 376.9 192 368v-32C192 327.1 184.9 320 176 320zM176 368h-64v-32h64V368zM336 224h-224C103.1 224 96 231.1 96 240v32C96 280.9 103.1 288 112 288h224C344.9 288 352 280.9 352 272v-32C352 231.1 344.9 224 336 224zM336 272h-224v-32h224V272z"/></svg>