<svg xmlns="http://www.w3.org/2000/svg" viewBox="0 0 448 512"><!--! Font Awesome Pro 6.0.0-alpha3 by @fontawesome - https://fontawesome.com License - https://fontawesome.com/license (Commercial License) --><path d="M384 32H64C28.65 32 0 60.65 0 96v320c0 35.35 28.65 64 64 64h320c35.34 0 64-28.65 64-64V96C448 60.65 419.3 32 384 32zM432 416c0 26.47-21.53 48-48 48H64c-26.47 0-48-21.53-48-48V96c0-26.47 21.53-48 48-48h320c26.47 0 48 21.53 48 48V416zM288 96H160C142.3 96 128 110.3 128 128v96c0 50.39 38.96 91.25 88.32 95.23C216.3 319.5 216 319.7 216 320v80h-48C163.6 400 160 403.6 160 408S163.6 416 168 416h112c4.406 0 8-3.578 8-8s-3.594-8-8-8h-48V320c0-.3027-.2891-.4805-.3223-.7734C281 315.3 320 274.4 320 224V128C320 110.3 305.7 96 288 96zM304 224c0 44.11-35.89 80-80 80S144 268.1 144 224V128c0-8.822 7.178-16 16-16h60.15l23.04 28.78L196.8 160.6C194.4 161.7 192.7 163.9 192.2 166.5s.3125 5.297 2.188 7.172l56 56C251.9 231.2 253.9 232 256 232s4.094-.7813 5.656-2.344c3.125-3.125 3.125-8.188 0-11.31L213.1 170.7l45.16-19.34c2.281-.9844 4-2.984 4.594-5.422c.625-2.422 .0625-4.984-1.5-6.938L240.7 112H288c8.822 0 16 7.178 16 16V224z"/></svg>