<svg xmlns="http://www.w3.org/2000/svg" viewBox="0 0 448 512"><!--! Font Awesome Pro 6.0.0-alpha3 by @fontawesome - https://fontawesome.com License - https://fontawesome.com/license (Commercial License) --><path d="M384 31.1H64c-35.35 0-64 28.65-64 63.1v320c0 35.35 28.65 64 64 64h320c35.35 0 64-28.65 64-64v-320C448 60.65 419.3 31.1 384 31.1zM432 416c0 26.47-21.53 48-48 48H64c-26.47 0-48-21.53-48-48V96c0-26.47 21.53-48 48-48h320c26.47 0 48 21.53 48 48V416zM144 224h-32C103.1 224 96 231.1 96 240v128C96 376.9 103.1 384 112 384h32C152.9 384 160 376.9 160 368v-128C160 231.1 152.9 224 144 224zM144 368h-32v-128h32V368zM240 127.1h-32C199.1 127.1 192 135.1 192 144v224C192 376.9 199.1 384 208 384h32c8.875 0 16-7.125 16-16v-224C256 135.1 248.9 127.1 240 127.1zM240 368h-32v-224h32V368zM336 288h-32C295.1 288 288 295.1 288 304v64c0 8.875 7.125 16 16 16h32c8.875 0 16-7.125 16-16v-64C352 295.1 344.9 288 336 288zM336 368h-32v-64h32V368z"/></svg>