<svg xmlns="http://www.w3.org/2000/svg" viewBox="0 0 640 512"><!--! Font Awesome Pro 6.0.0-alpha3 by @fontawesome - https://fontawesome.com License - https://fontawesome.com/license (Commercial License) --><path d="M428 249.9C430.3 241.6 432 233 432 224c0-52.94-43.06-95.1-96-95.1L274.7 128l20.13 16H336C380.1 144 416 179.9 416 224c0 5.174-.5859 10.21-1.529 15.11L428 249.9zM160 464c-26.47 0-48-21.53-48-48V182.6L96 169.9l-.0001 246.1c0 35.35 28.65 63.1 63.1 63.1L480 480c1.85 0 3.59-.3906 5.4-.5449L465.1 464H160zM480 48c26.47 0 48 21.53 48 48v233.4l16 12.72l-.0004-246.1c0-35.35-28.66-63.1-63.1-63.1H159.1c-1.848 0-3.586 .3892-5.394 .5435L174 48H480zM224 271.7V376C224 380.4 227.6 384 232 384s8-3.578 8-8V320h44.86L264.7 304H240V284.4L224 271.7zM636.1 497.7L12.99 1.73C11.53 .5664 9.771 0 8.025 0C5.674 0 3.336 1.029 1.738 3.012c-2.75 3.469-2.172 8.5 1.281 11.25l623.1 496C628.5 511.4 630.2 512 631.1 512c2.344 0 4.688-1.031 6.266-3.016C641 505.5 640.4 500.5 636.1 497.7z"/></svg>