<svg xmlns="http://www.w3.org/2000/svg" viewBox="0 0 448 512"><!--! Font Awesome Pro 6.0.0-alpha3 by @fontawesome - https://fontawesome.com License - https://fontawesome.com/license (Commercial License) --><path d="M128 240C119.2 240 112 247.2 112 256S119.2 272 128 272c8.838 0 16-7.164 16-16S136.8 240 128 240zM224 240C215.2 240 208 247.2 208 256S215.2 272 224 272c8.838 0 16-7.164 16-16S232.8 240 224 240zM320 240c-8.836 0-16 7.164-16 16s7.164 16 16 16c8.838 0 16-7.164 16-16S328.8 240 320 240zM384 32H64C28.65 32 0 60.66 0 96v320c0 35.34 28.65 64 64 64h320c35.35 0 64-28.66 64-64V96C448 60.66 419.3 32 384 32zM432 416c0 26.47-21.53 48-48 48H64c-26.47 0-48-21.53-48-48V96c0-26.47 21.53-48 48-48h320c26.47 0 48 21.53 48 48V416z"/></svg>