<svg xmlns="http://www.w3.org/2000/svg" viewBox="0 0 640 512"><!--! Font Awesome Pro 6.0.0-alpha3 by @fontawesome - https://fontawesome.com License - https://fontawesome.com/license (Commercial License) --><path d="M23.03 355.7C18.56 351.3 16 345.1 16 338.8v-165.5c0-6.312 2.562-12.5 7.031-16.97l118.6-118.6c3.125-3.125 3.125-8.188 0-11.31s-8.188-3.125-11.31 0L11.72 144.1C4.266 152.4 0 162.7 0 173.3v165.5c0 10.53 4.266 20.84 11.72 28.28l118.6 118.6C131.9 487.2 133.1 488 136 488s4.094-.7813 5.656-2.344c3.125-3.125 3.125-8.188 0-11.31L23.03 355.7zM591.8 295.8c-.9687-4.312-5.328-6.969-9.562-6.062l-113.9 25.65C475.7 297 480 277 480 256s-4.307-41.02-11.69-59.43l113.9 25.65C582.8 222.3 583.4 222.4 584 222.4c3.672 0 6.969-2.531 7.812-6.25c.9687-4.312-1.75-8.594-6.062-9.562l-126.8-28.55c-27.42-48.73-79.02-82.04-138.9-82.04s-111.5 33.31-138.9 82.04l-126.8 28.55C49.94 207.6 47.22 211.8 48.19 216.2C49.03 219.9 52.33 222.4 56 222.4c.5781 0 1.172-.0625 1.75-.1875l113.9-25.65C164.3 214.1 160 234.1 160 256s4.307 41.02 11.69 59.43L57.75 289.8C53.52 288.9 49.16 291.5 48.19 295.8s1.75 8.594 6.062 9.562l126.8 28.55c27.42 48.73 79.01 82.04 138.9 82.04s111.5-33.31 138.9-82.04l126.8-28.55C590.1 304.4 592.8 300.2 591.8 295.8zM320 400c-79.4 0-144-64.6-144-144S240.6 112 320 112s144 64.6 144 144S399.4 400 320 400zM628.3 144.1l-118.6-118.6c-3.125-3.125-8.188-3.125-11.31 0s-3.125 8.188 0 11.31l118.6 118.6C621.4 160.8 624 166.9 624 173.3v165.5c0 6.312-2.562 12.5-7.031 16.97l-118.6 118.6c-3.125 3.125-3.125 8.188 0 11.31C499.9 487.2 501.1 488 504 488s4.094-.7813 5.656-2.344l118.6-118.6C635.7 359.6 640 349.3 640 338.8v-165.5C640 162.7 635.7 152.4 628.3 144.1zM320 144C258.1 144 208 194.1 208 256s50.14 112 112 112s112-50.14 112-112S381.9 144 320 144zM328 160.8c20.41 1.721 38.87 9.709 53.65 22.22l-33.92 33.93C341.1 212.9 335.3 210 328 208.8V160.8zM312 160.8v48C304.7 210 298 212.9 292.3 216.1L258.3 183C273.1 170.5 291.6 162.5 312 160.8zM247 194.3L280.1 228.3C276.8 234 274 240.7 272.8 248h-48C226.5 227.6 234.5 209.1 247 194.3zM224.8 264h48c1.229 7.262 4.039 13.95 8.146 19.72L247 317.7C234.5 302.9 226.5 284.4 224.8 264zM312 351.2c-20.41-1.721-38.87-9.711-53.65-22.23l33.92-33.93C298 299.1 304.7 301.1 312 303.2V351.2zM287.1 256c0-17.67 14.33-32 32-32c17.67 0 31.1 14.33 31.1 32s-14.33 32-31.1 32C302.3 288 287.1 273.7 287.1 256zM328 351.2v-48c7.268-1.23 13.96-4.043 19.73-8.156l33.92 33.93C366.9 341.5 348.4 349.5 328 351.2zM392.1 317.7L359 283.7C363.2 277.1 365.1 271.3 367.2 264h48C413.5 284.4 405.5 302.9 392.1 317.7zM367.2 248c-1.229-7.262-4.039-13.95-8.146-19.72l33.92-33.93C405.5 209.1 413.5 227.6 415.2 248H367.2z"/></svg>