<svg xmlns="http://www.w3.org/2000/svg" viewBox="0 0 576 512"><!--! Font Awesome Pro 6.0.0-alpha3 by @fontawesome - https://fontawesome.com License - https://fontawesome.com/license (Commercial License) --><path d="M112 160C120.9 160 128 152.8 128 144S120.9 128 112 128S96.04 135.2 96.04 144S103.2 160 112 160zM112 352c-8.835 0-15.99 7.164-15.99 16S103.2 384 112 384s15.99-7.164 15.99-16S120.9 352 112 352zM64.04 240C55.2 240 48.03 247.2 48.03 256s7.177 16 16.01 16S80.02 264.8 80.02 256S72.87 240 64.04 240zM560 239.1C568.9 239.1 576 232.9 576 223.1V166.4c0-13.38-8.375-25.5-20.1-29.1l-243.6-88.77C283.5 37.36 254 32.13 224.3 32c-.0664 0 .0664 0 0 0c-.0625 0 .0625 0 0 0C69.03 32.26-2.336 173.2 .0227 255.1c-2.32 81.4 68.62 223.7 224.3 223.1c.0625 0-.0625 0 0 0c.0664 0-.0664 0 0 0c29.75-.125 59.2-5.35 87.07-15.6l10.62-3.879l13.54 18.83C343 489.8 355.2 496 368 496h55.99c22.05 0 39.1-17.95 39.1-40c0-17.46-11.41-31.93-27.04-37.38l118-42.1C567.6 371.1 576 358.1 576 345.6V287.1c0-8.875-7.125-15.1-15.1-15.1h-111.1V239.1H560zM224 464c-114.9 0-207.1-93.13-207.1-208S109.2 48 224 48s207.1 93.13 207.1 208c0 55.02-21.65 104.8-56.54 141.9l-68.26-94.87c7.917-13.96 12.8-29.87 12.8-47.06c0-53.02-42.98-95.1-95.1-95.1S128 202.1 128 255.1s42.98 95.1 95.1 95.1c6.357 0 12.55-.6912 18.56-1.871l68.03 94.56C284.2 456.9 255 464 224 464zM304 255.1c0 44.11-35.89 80-80 80S144 300.1 144 255.1s35.89-80 79.1-80S304 211.9 304 255.1zM448 455.1c0 13.25-10.75 24-23.1 24l-56 .0002c-7.749 0-14.1-3.75-19.49-10L258.8 345.3c15.29-5.963 28.44-15.82 38.76-28.24l82.73 114.1h43.75C437.3 431.1 448 442.7 448 455.1zM560 288v57.63c0 6.719-4.168 12.72-10.48 14.97L397.4 416h-8.974l-3.855-5.359C416.4 377.7 438.7 335.6 445.5 288H560zM445.5 224c-7.902-55.1-35.78-103.7-76.15-138.2l180.2 65.66c6.203 2.211 10.37 8.209 10.37 14.93V224H445.5z"/></svg>