<svg xmlns="http://www.w3.org/2000/svg" viewBox="0 0 640 512"><!--! Font Awesome Pro 6.0.0-alpha3 by @fontawesome - https://fontawesome.com License - https://fontawesome.com/license (Commercial License) --><path d="M168 304h32c4.422 0 8-3.594 8-8S204.4 288 200 288h-32C145.9 288 128 305.9 128 328v16H40V160h16C60.42 160 64 156.4 64 152S60.42 144 56 144h-16V104C40 99.59 36.42 96 32 96S24 99.59 24 104V144h-16C3.578 144 0 147.6 0 152S3.578 160 8 160h16v280C24 444.4 27.58 448 32 448s8-3.594 8-8v-12.35l89.21 34.31C131.9 472.2 140.9 480 152 480H192v24C192 508.4 195.6 512 200 512s8-3.594 8-8v-32c0-4.406-3.578-8-8-8h-48c-4.406 0-8-3.594-8-8v-128C144 314.8 154.8 304 168 304zM128 444.3L40 410.5V360H128V444.3zM632 144h-16V104C616 99.59 612.4 96 608 96s-8 3.594-8 8V144h-16C579.6 144 576 147.6 576 152S579.6 160 584 160h16v184H512v-16C512 305.9 494.1 288 472 288h-32c-4.422 0-8 3.594-8 8s3.578 8 8 8h32c13.23 0 24 10.78 24 24v128c0 4.406-3.594 8-8 8h-48c-4.422 0-8 3.594-8 8v32c0 4.406 3.578 8 8 8S448 508.4 448 504V480h40c11.12 0 20.08-7.766 22.79-18.04L600 427.7V440c0 4.406 3.578 8 8 8s8-3.594 8-8V160h16C636.4 160 640 156.4 640 152S636.4 144 632 144zM600 410.5L512 444.3V360h88V410.5zM320 216C297.9 216 280 233.9 280 256v48c0 13.22 10.77 24 24 24h32c13.23 0 24-10.78 24-24V256C360 233.9 342.1 216 320 216zM344 304c0 4.5-3.516 8-8 8h-32c-4.484 0-8-3.5-8-8V256c0-13.22 10.77-24 24-24S344 242.8 344 256V304zM369.6 28.02C367.6 12.04 353.1 0 337.9 0H302.1C286 0 272.4 12.04 270.4 28.02L240 271V448c0 17.64 14.36 32 32 32h96c17.64 0 32-14.36 32-32V271L369.6 28.02zM384 448c0 8.875-7.125 16-16 16h-96C263.1 464 256 456.9 256 448V272l30.25-241.1C287.3 22 293.1 16 302.1 16h35.75c8.125 0 14.88 6 15.88 14L384 272V448z"/></svg>