<svg xmlns="http://www.w3.org/2000/svg" viewBox="0 0 640 512"><!--! Font Awesome Pro 6.0.0-alpha3 by @fontawesome - https://fontawesome.com License - https://fontawesome.com/license (Commercial License) --><path d="M448 64c-106 0-192 85.96-192 192s85.96 192 192 192s192-85.96 192-192S554 64 448 64zM448 432c-97.05 0-176-78.95-176-176s78.95-176 176-176s176 78.95 176 176S545 432 448 432zM448 176c-44.18 0-80 35.82-80 80s35.82 80 80 80c44.18 0 80-35.82 80-80S492.2 176 448 176zM448 320c-35.29 0-64-28.71-64-64s28.71-64 64-64s64 28.71 64 64S483.3 320 448 320zM448 224c-17.67 0-32 14.33-32 32s14.33 32 32 32c17.67 0 32-14.33 32-32S465.7 224 448 224zM448 272c-8.822 0-16-7.178-16-16s7.178-16 16-16s16 7.178 16 16S456.8 272 448 272zM240 128c0-17.62-14.38-32-32-32H24C10.75 96 0 106.8 0 120v16C0 149.3 10.75 160 24 160h92.69l46.88 46.88L129.1 209.9C106.1 212.2 88 232 88 256s18.06 43.81 42.03 46.09l33.53 3.029L116.7 352H24C10.75 352 0 362.8 0 376v16C0 405.3 10.75 416 24 416H208c17.62 0 32-14.38 32-32s-14.38-32-32-32H139.3l45-45l43.97 3.971C228.5 311 228.8 311 229 311c4.094 0 7.594-3.125 7.969-7.281c.4062-4.406-2.844-8.281-7.25-8.688L131.5 286.2C115.8 284.7 104 271.7 104 256s11.81-28.66 27.47-30.16l98.25-8.875c4.406-.4062 7.656-4.281 7.25-8.688C236.6 203.9 233.2 200.2 228.3 201L184.3 205L139.3 160H208C225.6 160 240 145.6 240 128zM208 368C216.8 368 224 375.2 224 384s-7.178 16-16 16H24c-4.41 0-8-3.588-8-8v-16c0-4.412 3.59-8 8-8H208zM24 144C19.59 144 16 140.4 16 136v-16c0-4.412 3.59-8 8-8H208C216.8 112 224 119.2 224 128S216.8 144 208 144H24z"/></svg>