<svg xmlns="http://www.w3.org/2000/svg" viewBox="0 0 576 512"><!--! Font Awesome Pro 6.0.0-alpha3 by @fontawesome - https://fontawesome.com License - https://fontawesome.com/license (Commercial License) --><path d="M552 32C547.6 32 544 35.59 544 40v164.4l-117.1-26.36C399.5 129.3 347.9 96 288 96S176.5 129.3 149.1 178L32 204.4V40C32 35.59 28.42 32 24 32S16 35.59 16 40v432C16 476.4 19.58 480 23.1 480S32 476.4 32 472V307.6l117.1 26.36C176.5 382.7 228.1 416 288 416s111.5-33.31 138.9-82.04L544 307.6V472c0 4.406 3.578 8 8 8s8-3.594 8-8V40C560 35.59 556.4 32 552 32zM139.7 315.4L32 291.2V220.8l107.7-24.24C132.3 214.1 128 234.1 128 256S132.3 297 139.7 315.4zM288 400c-79.4 0-144-64.6-144-144S208.6 112 288 112s144 64.6 144 144S367.4 400 288 400zM544 291.2l-107.7 24.24C443.7 297 448 277 448 256s-4.307-41.02-11.69-59.43L544 220.8V291.2zM288 144C226.1 144 176 194.1 176 256s50.14 112 112 112s112-50.14 112-112S349.9 144 288 144zM296 160.8c20.41 1.721 38.87 9.709 53.65 22.22l-33.92 33.93C309.1 212.9 303.3 210 296 208.8V160.8zM280 160.8v48C272.7 210 266 212.9 260.3 216.1L226.3 183C241.1 170.5 259.6 162.5 280 160.8zM215 194.3L248.1 228.3C244.8 234 242 240.7 240.8 248h-48C194.5 227.6 202.5 209.1 215 194.3zM192.8 264h48c1.229 7.262 4.039 13.95 8.146 19.72L215 317.7C202.5 302.9 194.5 284.4 192.8 264zM280 351.2c-20.41-1.721-38.87-9.711-53.65-22.23l33.92-33.93C266 299.1 272.7 301.1 280 303.2V351.2zM256 256c0-17.67 14.33-32 32-32c17.67 0 32 14.33 32 32s-14.33 32-32 32C270.3 288 256 273.7 256 256zM296 351.2v-48c7.268-1.23 13.96-4.043 19.73-8.156l33.92 33.93C334.9 341.5 316.4 349.5 296 351.2zM360.1 317.7L327 283.7C331.2 277.1 333.1 271.3 335.2 264h48C381.5 284.4 373.5 302.9 360.1 317.7zM335.2 248c-1.229-7.262-4.039-13.95-8.146-19.72l33.92-33.93C373.5 209.1 381.5 227.6 383.2 248H335.2z"/></svg>