<svg xmlns="http://www.w3.org/2000/svg" viewBox="0 0 512 512"><!--! Font Awesome Pro 6.0.0-alpha3 by @fontawesome - https://fontawesome.com License - https://fontawesome.com/license (Commercial License) --><path d="M256 16C123.5 16 16 123.5 16 256s107.5 240 240 240s240-107.5 240-240S388.5 16 256 16zM256 32c120.8 0 219.3 96.21 223.6 216H351.6C351.6 247.3 352 246.7 352 245.1V232C352 209.9 334.1 192 312 192h-112C177.9 192 160 209.9 160 232v13.97C160 246.7 160.4 247.3 160.4 248H32.4C36.66 128.2 135.2 32 256 32zM256 340.3L182.5 262.4C178.3 257.9 176 252.1 176 245.1V232c0-13.22 10.78-24 24-24h112c13.22 0 24 10.78 24 24v13.97c0 6.125-2.312 11.97-6.531 16.44L256 340.3zM32.4 264h132.5c1.703 3.303 3.393 6.637 5.998 9.406L248 355.2v124.4C130.9 475.4 36.57 381.1 32.4 264zM264 479.6v-124.4l77.09-81.77C343.7 270.6 345.4 267.3 347.1 264h132.5C475.4 381.1 381.1 475.4 264 479.6z"/></svg>