<svg xmlns="http://www.w3.org/2000/svg" viewBox="0 0 320 512"><!--! Font Awesome Pro 6.0.0-alpha3 by @fontawesome - https://fontawesome.com License - https://fontawesome.com/license (Commercial License) --><path d="M320 472c0 4.422-3.594 8-8 8h-304c-3.156 0-6.031-1.875-7.312-4.766s-.75-6.266 1.406-8.609C52.31 411.3 80 339.8 80 265.1V256H8C3.594 256 0 252.4 0 248S3.594 240 8 240H80V129.5C80 75.73 123.7 32 177.5 32C188 32 198.4 33.69 208.3 37l82.22 27.41c4.188 1.406 6.469 5.938 5.062 10.12c-1.406 4.203-5.906 6.516-10.12 5.062l-82.22-27.41C194.9 49.41 186.3 48 177.5 48C132.6 48 96 84.55 96 129.5V240h152C252.4 240 256 243.6 256 248S252.4 256 248 256H96v9.078C96 337.9 71.06 407.8 25.41 464H312C316.4 464 320 467.6 320 472z"/></svg>