<svg xmlns="http://www.w3.org/2000/svg" viewBox="0 0 448 512"><!--! Font Awesome Pro 6.0.0-alpha3 by @fontawesome - https://fontawesome.com License - https://fontawesome.com/license (Commercial License) --><path d="M384.1 171.2l37.57-37.57c3.125-3.125 3.125-8.188 0-11.31s-8.188-3.125-11.31 0l-37.03 37.03C337.2 122.1 287.4 98.52 232 96.41V16H288c4.422 0 8-3.594 8-8S292.4 0 288 0H160C155.6 0 152 3.594 152 8S155.6 16 160 16h56v80.41C104.9 100.6 16 191.8 16 304c0 114.9 93.13 208 208 208s208-93.13 208-208C432 253.5 413.1 207.3 384.1 171.2zM224 496c-105.9 0-192-86.13-192-192s86.13-192 192-192s192 86.13 192 192S329.9 496 224 496zM196.6 273.6C203.1 264 208 252.1 208 240C208 213.5 186.5 192 160 192S112 213.5 112 240v8C112 252.4 115.6 256 120 256S128 252.4 128 248V240c0-17.66 14.36-32 32-32s32 14.34 32 32c0 8.562-2.875 17.03-8.094 23.81L142.9 317.1C122.1 343 112 375.3 112 408C112 412.4 115.6 416 120 416h80c4.422 0 8-3.594 8-8S204.4 400 200 400H128.3c1.609-26.41 11.19-52.13 27.36-73.16L196.6 273.6zM288 192c-26.47 0-48 21.53-48 48v128c0 26.47 21.53 48 48 48s48-21.53 48-48v-128C336 213.5 314.5 192 288 192zM320 368c0 17.66-14.36 32-32 32s-32-14.34-32-32v-128c0-17.66 14.36-32 32-32s32 14.34 32 32V368z"/></svg>