<svg xmlns="http://www.w3.org/2000/svg" viewBox="0 0 448 512"><!--! Font Awesome Pro 6.0.0-alpha3 by @fontawesome - https://fontawesome.com License - https://fontawesome.com/license (Commercial License) --><path d="M384.1 171.2l37.57-37.57c3.125-3.125 3.125-8.188 0-11.31s-8.188-3.125-11.31 0l-37.03 37.03C337.2 122.1 287.4 98.52 232 96.41V16H288c4.422 0 8-3.594 8-8S292.4 0 288 0H160C155.6 0 152 3.594 152 8S155.6 16 160 16h56v80.41C104.9 100.6 16 191.8 16 304c0 114.9 93.13 208 208 208s208-93.13 208-208C432 253.5 413.1 207.3 384.1 171.2zM224 496c-105.9 0-192-86.13-192-192s86.13-192 192-192s192 86.13 192 192S329.9 496 224 496zM224 184C219.6 184 216 187.6 216 192v128c0 4.406 3.578 8 8 8s8-3.594 8-8V192C232 187.6 228.4 184 224 184z"/></svg>