<svg xmlns="http://www.w3.org/2000/svg" viewBox="0 0 640 512"><!--! Font Awesome Pro 6.0.0-alpha3 by @fontawesome - https://fontawesome.com License - https://fontawesome.com/license (Commercial License) --><path d="M463.1 256v22.46l15.1 12.71V256c0-4.422-3.594-8-7.998-8C467.6 248 463.1 251.6 463.1 256zM141.6 16h356.7c4.221 0 8.197 2.154 10.4 5.678l57.31 90.68c11.75 18.58 13.15 41.69 3.742 61.81c-8.643 18.49-24.84 30.58-44.39 33.17C522.1 207.8 518.8 208 515.4 208c-20.2 0-39.64-8.65-53.34-23.73l-11.87-13.06l-11.84 13.1C424.8 199.4 405.3 208 385.1 208c-3.797 0-7.51-.5957-11.21-1.189l20.4 16.22c21.37-2.279 41.46-11.89 56.01-27.99c16.73 18.41 40.5 28.97 65.19 28.97c4.139 0 8.116-.2754 12.09-.793c.1602-.0215 .2634-.0999 .4274-.1233v106.2l15.1 12.72V218.9c17.57-6.676 31.88-19.82 40.35-37.95c11.73-25.09 10.01-53.92-4.668-77.14l-57.32-90.68c-5.057-8.076-14.24-13.13-23.93-13.13H141.6c-7.023 0-13.69 2.703-18.81 7.244l12.9 10.26C137.5 16.54 139.5 16 141.6 16zM495.1 496H144c-17.64 0-31.99-14.36-31.99-32L112.2 223.2c.0938 .0117-.0898-.0117 0 0c3.967 .5176 8.072 .8071 12.13 .8071c10.98 0 21.69-2.389 31.74-6.301L141.2 205.8C135.7 207.2 130.1 208 124.4 208c-3.361 0-6.721-.2285-9.953-.6504C94.94 204.7 78.81 192.6 70.19 174.2C65.79 164.7 63.97 154.6 64.25 144.7L49.74 133.2c-2.721 15.93-1.182 32.49 5.945 47.76C64.17 199.1 78.49 212.2 96.05 218.9l-.0409 245.1C96.01 490.5 117.5 512 144 512h352c8.305 0 15.9-2.301 22.71-6.016l-14.64-11.64C501.5 495.1 498.9 496 495.1 496zM168 248c-4.404 0-7.998 3.578-7.998 8v120c0 4.422 3.594 8 7.998 8h197.3l-20.13-16H176V256C176 251.6 172.4 248 168 248zM636.1 497.7L12.99 1.73C11.53 .5664 9.771 0 8.025 0C5.674 0 3.336 1.029 1.738 3.012c-2.75 3.469-2.172 8.5 1.281 11.25l623.1 496C628.5 511.4 630.2 512 631.1 512c2.344 0 4.688-1.031 6.266-3.016C641 505.5 640.4 500.5 636.1 497.7z"/></svg>