<svg xmlns="http://www.w3.org/2000/svg" viewBox="0 0 576 512"><!--! Font Awesome Pro 6.0.0-alpha3 by @fontawesome - https://fontawesome.com License - https://fontawesome.com/license (Commercial License) --><path d="M439.1 248c-4.405 0-7.998 3.578-7.998 8v112H144V256c0-4.422-3.593-8-7.998-8S128 251.6 128 256v120c0 4.422 3.593 8 7.998 8h303.9c4.405 0 7.998-3.578 7.998-8V256C447.1 251.6 444.4 248 439.1 248zM547.6 103.8l-57.32-90.68c-5.057-8.076-14.24-13.13-23.93-13.13H109.6c-9.689 0-18.86 5.03-23.93 13.13L28.33 103.8C13.68 126.1 11.98 155.8 23.69 180.9C32.17 199.1 46.46 212.1 64.03 218.8L64.01 464c0 26.51 21.5 48 47.1 48h352.1c26.5 0 47.1-21.49 47.1-48l-.0355-245.2c17.57-6.676 31.8-19.71 40.28-37.83C564 155.9 562.3 127 547.6 103.8zM495.1 464c0 17.64-14.35 32-31.99 32H112c-17.64 0-31.99-14.36-31.99-32l.1848-240.8c.0937 .0117-.0898-.0117 0 0C84.2 223.7 88.3 224 92.36 224c24.78 0 48.55-10.56 65.19-28.97C174.2 213.4 197.9 224 222.7 224c24.78 0 48.55-10.56 65.19-28.97C304.5 213.4 328.3 224 353.1 224c24.79 0 48.55-10.56 65.19-28.97C434.1 213.4 458.7 224 483.4 224c4.14 0 8.116-.2754 12.09-.793c.1601-.0215 .2604-.0977 .4244-.1211V464zM537.8 174.2c-8.643 18.49-24.83 30.58-44.39 33.17C490.1 207.8 486.8 208 483.4 208c-20.2 0-39.64-8.65-53.34-23.73l-11.87-13.06l-11.84 13.1C392.8 199.4 373.3 208 353.1 208c-20.25 0-39.68-8.639-53.28-23.7L287.9 171.2L276 184.3C262.4 199.4 242.1 208 222.7 208C202.5 208 183.1 199.4 169.4 184.3L157.6 171.2L145.7 184.3C132.1 199.4 112.7 208 92.4 208c-3.363 0-6.721-.2285-9.955-.6504C62.94 204.7 46.81 192.6 38.18 174.2C28.79 154 30.17 130.9 41.9 112.4l57.35-90.73C101.4 18.15 105.4 16 109.6 16h356.7c4.222 0 8.197 2.154 10.4 5.678l57.31 90.68C545.8 130.9 547.2 154 537.8 174.2z"/></svg>