<svg xmlns="http://www.w3.org/2000/svg" viewBox="0 0 512 512"><!--! Font Awesome Pro 6.0.0-alpha3 by @fontawesome - https://fontawesome.com License - https://fontawesome.com/license (Commercial License) --><path d="M192 304l12.5 99.97C206.5 419.1 220.1 432 236.2 432h39.5c16.14 0 29.75-12.02 31.75-28.03L320 304c17.67 0 32-14.33 32-32V224c0-35.35-28.65-64-64-64H224C188.7 160 160 188.7 160 224v48C160 289.7 174.3 304 192 304zM176 224c0-26.47 21.53-48 48-48h64c26.47 0 48 21.53 48 48v48C336 280.8 328.8 288 320 288h-14.12l-14.25 113.1C290.6 409.1 283.8 416 275.8 416h-39.5c-8.053 0-14.88-6.025-15.88-14.02L206.1 288H192C183.2 288 176 280.8 176 272V224zM256 128c35.38 0 64-28.62 64-64s-28.62-64-64-64S192 28.62 192 64S220.6 128 256 128zM256 16c26.47 0 48 21.53 48 48S282.5 112 256 112S208 90.47 208 64S229.5 16 256 16zM365.6 344.3c-4.422-.3438-8.406 2.469-9 6.875c-.5938 4.375 2.469 8.406 6.844 9C447.7 371.6 496 395 496 424.5C496 471.4 375.3 496 256 496s-240-24.56-240-71.47c0-29.59 48.33-53.13 132.6-64.59c4.375-.5938 7.438-4.625 6.844-9.031c-.6094-4.375-4.859-7.219-9-6.844C79.63 353.2 0 374.5 0 424.5C0 509.5 229.8 512 256 512s256-2.469 256-87.47C512 385 461.4 357.3 365.6 344.3z"/></svg>