<svg xmlns="http://www.w3.org/2000/svg" viewBox="0 0 640 512"><!--! Font Awesome Pro 6.0.0-alpha3 by @fontawesome - https://fontawesome.com License - https://fontawesome.com/license (Commercial License) --><path d="M320 351.9c-44.11 0-80 35.91-80 80.04v72.03C240 508.4 243.6 512 248 512S256 508.4 256 503.1v-72.03c0-35.31 28.7-64.03 64-64.03s64 28.72 64 64.03v72.03C384 508.4 387.6 512 392 512s8-3.58 8-8.004v-72.03C400 387.8 364.1 351.9 320 351.9zM345.8 9.42c-14.94-12.56-36.59-12.56-51.53 0l-120 101.1C165.2 118.1 160 129.2 160 141.1V504C160 508.4 163.6 512 167.1 512S176 508.4 176 504V141.1c0-7.092 3.109-13.78 8.547-18.34l120-101.1c8.938-7.531 21.97-7.531 30.91 0l120 101.1C460.9 127.3 464 133.1 464 141.1V504c0 4.422 3.578 8 8 8S480 508.4 480 504V141.1c0-11.83-5.188-22.97-14.23-30.59L345.8 9.42zM90.66 200.4c-4.688-5.451-12.38-8.592-18.62-8.389c-7.172 .125-13.86 3.406-18.34 8.998L5.25 261.6C1.859 265.8 0 271.1 0 276.5V504C0 508.4 3.578 512 8 512s8-3.578 8-8V276.5c0-1.812 .625-3.594 1.75-5l48.44-60.53c2.047-2.562 4.703-2.969 6.109-3c.9687 0 4.062 .3125 6.203 2.797l35.42 41.33c2.906 3.344 7.953 3.734 11.28 .875c3.359-2.875 3.75-7.922 .875-11.28L90.66 200.4zM634.8 261.5l-48.44-60.53c-4.484-5.592-11.17-8.873-18.34-8.998c-6.219-.1719-13.95 2.938-18.62 8.389l-35.42 41.33c-2.875 3.359-2.484 8.406 .875 11.28c3.344 2.891 8.391 2.469 11.28-.875l35.42-41.33c2.062-2.406 4.641-2.797 6.078-2.797c2.375 .2187 4.141 .375 6.234 3l48.44 60.51C623.4 272.1 624 274.7 624 276.5V504c0 4.422 3.578 8 8 8S640 508.4 640 504V276.5C640 271.1 638.1 265.8 634.8 261.5zM249.1 232C250.5 234.5 253.1 236 256 236h36.49l20.55 35.97C314.5 274.5 317.1 276 320 276s5.516-1.531 6.953-4.031l20.55-35.97H384c2.859 0 5.484-1.516 6.922-3.984c1.422-2.467 1.438-5.514 .0313-7.982l-18.17-32.03l18.17-32.03c1.406-2.469 1.391-5.516-.0313-7.984C389.5 149.5 386.9 148 384 148h-36.49L326.1 112.1c-2.875-5-11.03-5-13.91 0L292.5 148H256c-2.859 0-5.484 1.516-6.922 3.984C247.7 154.5 247.6 157.5 249 159.1l18.17 32.03l-18.17 32.03C247.6 226.5 247.7 229.6 249.1 232zM320 251.9L310.9 236h18.14L320 251.9zM370.2 164l-6.785 11.87l-6.783-11.87H370.2zM363.4 208.1l6.785 11.87h-13.57L363.4 208.1zM320 132.1l9.072 15.87H310.9L320 132.1zM301.8 164h36.43l16 27.1l-16 27.1H301.8l-16-27.1L301.8 164zM283.3 164L276.6 175.9L269.8 164H283.3zM276.6 208.1l6.785 11.87H269.8L276.6 208.1z"/></svg>