<svg xmlns="http://www.w3.org/2000/svg" viewBox="0 0 512 512"><!--! Font Awesome Pro 6.0.0-alpha3 by @fontawesome - https://fontawesome.com License - https://fontawesome.com/license (Commercial License) --><path d="M448 32H64C28.64 32 0 60.64 0 96v320c0 35.36 28.64 64 64 64h384c35.36 0 64-28.64 64-64V96C512 60.64 483.4 32 448 32zM496 416c0 26.47-21.53 48-48 48H64c-26.47 0-48-21.53-48-48V176H96v168C96 366.1 113.9 384 136 384h112C252.4 384 256 380.4 256 376S252.4 368 248 368h-112c-13.23 0-24-10.78-24-24V288h72C188.4 288 192 284.4 192 280S188.4 272 184 272H112v-96h384V416zM496 160h-480V96c0-26.47 21.53-48 48-48h384c26.47 0 48 21.53 48 48V160zM408 368h-112c-4.422 0-8 3.594-8 8S291.6 384 296 384h112c4.422 0 8-3.594 8-8S412.4 368 408 368zM232 288h176C412.4 288 416 284.4 416 280S412.4 272 408 272h-176C227.6 272 224 275.6 224 280S227.6 288 232 288z"/></svg>