<svg xmlns="http://www.w3.org/2000/svg" viewBox="0 0 512 512"><!--! Font Awesome Pro 6.0.0-alpha3 by @fontawesome - https://fontawesome.com License - https://fontawesome.com/license (Commercial License) --><path d="M0 80v352C0 458.5 21.49 480 48 480h416c26.51 0 48-21.49 48-48v-352C512 53.49 490.5 32 464 32h-416C21.49 32 0 53.49 0 80zM496 432c0 17.64-14.36 32-32 32h-320V264h352V432zM464 48c17.64 0 32 14.36 32 32v168h-352V48H464zM128 248v216H48c-17.64 0-32-14.36-32-32v-352c0-17.64 14.36-32 32-32H128V248z"/></svg>