<svg xmlns="http://www.w3.org/2000/svg" viewBox="0 0 512 512"><!--! Font Awesome Pro 6.0.0-alpha3 by @fontawesome - https://fontawesome.com License - https://fontawesome.com/license (Commercial License) --><path d="M493.3 50.74C481.7 39.16 465.7 32 448 32H64C46.33 32 30.33 39.16 18.75 50.74C7.164 62.33 0 78.33 0 96v320c0 17.67 7.164 33.67 18.75 45.25C30.33 472.8 46.33 480 64 480h384c17.67 0 33.67-7.164 45.25-18.75C504.8 449.7 512 433.7 512 416V96C512 78.33 504.8 62.33 493.3 50.74zM136 464H64c-12.82 0-24.88-4.992-33.94-14.06C20.99 440.9 16 428.8 16 416V184h120V464zM496 416c0 12.82-4.994 24.88-14.06 33.94C472.9 459 460.8 464 448 464H152V184H496V416zM496 168h-480V96c0-12.82 4.994-24.88 14.06-33.94C39.13 52.99 51.18 48 64 48h384c12.82 0 24.88 4.992 33.94 14.06C491 71.13 496 83.18 496 96V168z"/></svg>