<svg xmlns="http://www.w3.org/2000/svg" viewBox="0 0 512 512"><!--! Font Awesome Pro 6.0.0-alpha3 by @fontawesome - https://fontawesome.com License - https://fontawesome.com/license (Commercial License) --><path d="M448 32H64C28.64 32 0 60.64 0 96v320c0 35.36 28.64 64 64 64h384c35.36 0 64-28.64 64-64V96C512 60.64 483.4 32 448 32zM128 464H64c-26.47 0-48-21.53-48-48V176H128V464zM128 160H16V96c0-26.47 21.53-48 48-48h64V160zM496 416c0 26.47-21.53 48-48 48H144v-288h352V416zM496 160h-352V48H448c26.47 0 48 21.53 48 48V160zM306.4 413.6C307.9 415.2 309.9 416 312 416s4.094-.7813 5.656-2.344c3.125-3.125 3.125-8.188 0-11.31L291.3 376H368c22.06 0 40-17.94 40-40V259.3l26.34 26.34C435.9 287.2 437.9 288 440 288s4.088-.7813 5.65-2.344c3.125-3.125 3.115-8.173-.0098-11.3l-39.1-40.01c-.002-.002 .002 .002 0 0C404.2 232.9 402.2 232 400 232s-4.193 .905-5.643 2.352c-.002 .002 .002-.002 0 0L354.4 274.4c-3.125 3.125-3.142 8.173-.0166 11.3s8.188 3.125 11.31 0L392 259.3V336c0 13.23-10.78 24-24 24h-76.69l26.34-26.34c3.125-3.125 3.125-8.188 0-11.31S309.5 319.2 306.4 322.4l-40 40c-3.125 3.125-3.125 8.156 0 11.28L306.4 413.6z"/></svg>