<svg xmlns="http://www.w3.org/2000/svg" viewBox="0 0 512 512"><!--! Font Awesome Pro 6.0.0-alpha3 by @fontawesome - https://fontawesome.com License - https://fontawesome.com/license (Commercial License) --><path d="M448 32H64.05C28.7 32 .0492 60.65 .0492 96v320c0 35.35 28.65 64 64 64h383.1c35.35 0 64-28.65 64-64V96C512 60.65 483.4 32 448 32zM248 464H64c-26.47 0-48-21.53-48-48V304h232V464zM248 288H16V160h232V288zM496 416c0 26.47-21.53 48-48 48h-184v-160h232V416zM496 288h-232V160h232V288zM496 144h-480V96c0-26.47 21.53-48 48-48h384c26.47 0 48 21.53 48 48V144z"/></svg>