<svg xmlns="http://www.w3.org/2000/svg" viewBox="0 0 576 512"><!--! Font Awesome Pro 6.0.0-alpha3 by @fontawesome - https://fontawesome.com License - https://fontawesome.com/license (Commercial License) --><path d="M559.6 225.6l-177.2-177.2c-9.021-9.021-26.84-16.4-39.6-16.4L283.3 32l16 16h43.55c8.516 0 22.26 5.693 28.28 11.71l177.2 177.2C555.8 244.5 560 254.5 560 265.2c0 10.68-4.16 20.73-11.72 28.28l-158.8 158.8C381.9 459.8 371.9 464 361.2 464s-20.73-4.162-28.28-11.72l-1.773-1.773l-11.31 11.31l1.773 1.773c10.94 10.94 25.39 16.37 39.72 16.37c14.33 0 28.55-5.427 39.48-16.36l158.8-158.8C581.5 282.9 581.5 247.5 559.6 225.6zM431.6 225.6L254.4 48.4C245.4 39.38 227.6 32 214.8 32H28c-15.46 0-28 12.54-28 28v186.8C0 259.6 7.381 277.4 16.4 286.4l177.2 177.2C204.5 474.5 218.9 480 233.2 480c14.33 0 28.66-5.469 39.6-16.4l158.8-158.8C453.5 282.9 453.5 247.5 431.6 225.6zM261.5 452.3C253.9 459.8 243.9 464 233.2 464s-20.73-4.162-28.28-11.72L27.72 275.1C21.69 269.1 16 255.3 16 246.8V60C16 53.38 21.38 48 28 48h186.8c8.516 0 22.26 5.693 28.28 11.71l177.2 177.2C427.8 244.5 432 254.5 432 265.2c0 10.68-4.16 20.73-11.72 28.28L261.5 452.3zM112 104c-22.08 0-40 17.9-40 40c0 22.1 17.92 40 40 40S152 166.1 152 144C152 121.9 134.1 104 112 104zM111.1 168c-13.23 0-24-10.77-24-24c0-13.23 10.77-24 24-24c13.23 0 24 10.77 24 24C135.1 157.2 125.2 168 111.1 168z"/></svg>