<svg xmlns="http://www.w3.org/2000/svg" viewBox="0 0 640 512"><!--! Font Awesome Pro 6.0.0-alpha3 by @fontawesome - https://fontawesome.com License - https://fontawesome.com/license (Commercial License) --><path d="M639.6 149.5c1.391 4.188-.875 8.719-5.062 10.12l-114.5 38.18V472c0 4.422-3.583 8-8.005 8c-4.422 0-7.995-3.578-7.995-8V203.1l-111.1 37.33V472c0 4.422-3.58 8-8.002 8c-4.422 0-7.998-3.578-7.998-8V245.8l-111.1 37.33V472c0 4.422-3.577 8-7.998 8c-4.422 0-8.001-3.578-8.001-8V288.4l-111.1 37.33V472c0 4.422-3.573 8-7.995 8c-4.422 0-8.005-3.578-8.005-8v-140.9l-109.5 36.49C9.691 367.9 8.847 368 8.003 368c-3.344 0-6.469-2.125-7.594-5.469c-1.391-4.188 .875-8.719 5.062-10.12l114.5-38.18V40c0-4.422 3.583-8 8.005-8c4.422 0 7.995 3.578 7.995 8v268.9l111.1-37.33V40c0-4.422 3.58-8 8.002-8c4.422 0 7.998 3.578 7.998 8v226.2l111.1-37.33V40c0-4.422 3.577-8 7.998-8s8.001 3.578 8.001 8v183.6l111.1-37.33V40c0-4.422 3.573-8 7.995-8c4.422 0 8.005 3.578 8.005 8v140.9l109.5-36.49C633.7 143 638.2 145.3 639.6 149.5z"/></svg>