<svg xmlns="http://www.w3.org/2000/svg" viewBox="0 0 448 512"><!--! Font Awesome Pro 6.0.0-alpha3 by @fontawesome - https://fontawesome.com License - https://fontawesome.com/license (Commercial License) --><path d="M32 32C27.58 32 24 35.58 24 40v432c0 4.422 3.578 8 7.1 8S40 476.4 40 472V40C40 35.58 36.42 32 32 32zM288 32c-4.422 0-8 3.578-8 7.1v432c0 4.422 3.578 8 8 8S296 476.4 296 472V40C296 35.58 292.4 32 288 32zM160 32C155.6 32 152 35.58 152 40v432c0 4.422 3.578 8 7.1 8C164.4 480 168 476.4 168 472V40C168 35.58 164.4 32 160 32z"/></svg>