<svg xmlns="http://www.w3.org/2000/svg" viewBox="0 0 512 512"><!--! Font Awesome Pro 6.0.0-alpha3 by @fontawesome - https://fontawesome.com License - https://fontawesome.com/license (Commercial License) --><path d="M454.8 227.7l-35.61-112.2C409.4 84.7 381.9 64 350.8 64l1.109 .0024L352 40C352 17.94 334.1 0 312 0h-112C177.9 0 160 17.94 160 40l.0313 24L161.2 64C130.1 64 102.6 84.7 92.83 115.5l-35.61 112.2C24.21 237.6 0 267.8 0 304v200C0 508.4 3.582 512 8 512s8-3.582 8-8V432h480v72c0 4.418 3.582 8 8 8S512 508.4 512 504V304C512 267.8 487.8 237.6 454.8 227.7zM176 40c0-13.23 10.78-24 24-24h112c13.22 0 24 10.77 24 24V64h-160V40zM108.1 120.4C115.7 96.22 137.1 80 161.2 80h189.7c24.09 0 45.42 16.22 53.08 40.38l33.06 104.1C435.3 224.4 433.7 224 432 224h-352C78.29 224 76.7 224.4 75.02 224.5L108.1 120.4zM496 416h-480V304c0-35.29 28.71-64 64-64h352c35.29 0 64 28.71 64 64V416zM104 288C81.91 288 64 305.9 64 328c0 22.09 17.91 40 40 40s40-17.91 40-40C144 305.9 126.1 288 104 288zM104 352c-13.23 0-23.1-10.77-23.1-24c0-13.23 10.76-24 23.1-24s23.1 10.77 23.1 24C128 341.2 117.2 352 104 352zM408 288c-22.09 0-40 17.91-40 40c0 22.09 17.91 40 40 40S448 350.1 448 328C448 305.9 430.1 288 408 288zM407.1 352c-13.23 0-23.1-10.77-23.1-24c0-13.23 10.76-24 23.1-24s23.1 10.77 23.1 24C431.1 341.2 421.2 352 407.1 352z"/></svg>