<svg xmlns="http://www.w3.org/2000/svg" viewBox="0 0 576 512"><!--! Font Awesome Pro 6.0.0-alpha3 by @fontawesome - https://fontawesome.com License - https://fontawesome.com/license (Commercial License) --><path d="M576 208V112c0-26.5-21.5-48-48-48h-480c-26.5 0-48 21.5-48 48v95.1c26.5 0 48 21.5 48 47.1S26.5 304 0 304v96c0 26.5 21.5 48 48 48h480c26.5 0 48-21.5 48-48v-96c-26.5 0-48-21.5-48-48S549.5 208 576 208zM512 256c0 29.77 20.43 54.85 48 61.97V400c0 17.64-14.36 32-32 32h-480c-17.64 0-32-14.36-32-32V317.1C43.57 310.9 64 285.8 64 256S43.57 201.1 16 194V112c0-17.64 14.36-32 32-32h480c17.64 0 32 14.36 32 32v82.03C532.4 201.1 512 226.2 512 256zM448 144H128C119.2 144 112 151.2 112 160v192c0 8.836 7.164 16 16 16h320c8.838 0 16-7.164 16-16V160C464 151.2 456.8 144 448 144zM448 352H128v-192h320V352z"/></svg>