<svg xmlns="http://www.w3.org/2000/svg" viewBox="0 0 576 512"><!--! Font Awesome Pro 6.0.0-alpha3 by @fontawesome - https://fontawesome.com License - https://fontawesome.com/license (Commercial License) --><path d="M576 208v-96C576 85.5 554.5 64 528 64h-480C21.5 64 0 85.5 0 112v96c26.5 0 48 21.5 48 48S26.5 304 0 304v96C0 426.5 21.5 448 48 448h480c26.5 0 48-21.5 48-48v-96c-26.5 0-48-21.5-48-48S549.5 208 576 208zM512 256c0 29.77 20.43 54.85 48 61.97V400c0 17.64-14.36 32-32 32h-480c-17.64 0-32-14.36-32-32V317.1C43.57 310.9 64 285.8 64 256S43.57 201.1 16 194V112c0-17.64 14.36-32 32-32h480c17.64 0 32 14.36 32 32v82.03C532.4 201.1 512 226.2 512 256z"/></svg>