<svg xmlns="http://www.w3.org/2000/svg" viewBox="0 0 640 512"><!--! Font Awesome Pro 6.0.0-alpha3 by @fontawesome - https://fontawesome.com License - https://fontawesome.com/license (Commercial License) --><path d="M404 176h-51.19L313.5 111.3C311 106.1 305.9 104 300.1 104H274.9c-4.562 0-8.734 2.094-11.48 5.719C260.7 113.3 259.9 117.9 261.2 122.4L277.5 176H246L232.3 157.7C229.6 154.1 225.4 152 221 152H206c-4.344 0-8.375 1.969-11.05 5.406C192.3 160.8 191.4 165.2 192.2 167.4l.2344 79.16C191.4 250.8 192.3 255.2 194.1 258.6C197.6 262 201.7 264 206 264h15c4.438 0 8.641-2.125 11.2-5.594L246 240h31.52L261.1 293.7C259.9 298 260.7 302.6 263.5 306.3C266.2 309.9 270.4 312 274.9 312h26.05c5.172 0 9.953-2.781 12.36-7.062L352.8 240H404C419.5 240 448 227.8 448 208S419.5 176 404 176zM206.3 168.1L206 168l1.594-.0938L206.3 168.1zM404 224h-60.19L300.1 296H277.2L299.1 224H238L221 248H208.2V167.9L219.4 167.2L238 192h61.11L277.1 119.9l22.53-.5625L343.8 192H404C415.5 192 432 201.4 432 208S415.5 224 404 224zM512 224c-8.836 0-16 7.162-16 16C496 248.8 503.2 256 512 256s16-7.164 16-16C528 231.2 520.8 224 512 224zM512 288c-8.836 0-16 7.162-16 16c0 8.836 7.164 16 16 16s16-7.164 16-16C528 295.2 520.8 288 512 288zM512 160c-8.836 0-16 7.162-16 16C496 184.8 503.2 192 512 192s16-7.164 16-16C528 167.2 520.8 160 512 160zM512 96c-8.836 0-16 7.162-16 16C496 120.8 503.2 128 512 128s16-7.164 16-16C528 103.2 520.8 96 512 96zM632 157.6c4.422 0 8-3.469 8-7.875V83.81C640 55.25 616.8 32 588.2 32H147.8C119.3 32 96 55.25 96 83.81v248.4C96 360.8 119.3 384 147.8 384h440.3C616.8 384 640 360.8 640 332.2V266.3c0-4.406-3.578-7.875-8-7.875c-27.81 0-50.31-22.62-50.31-50.44S604.2 157.6 632 157.6zM565.6 208c0 33.94 25.56 62 58.44 65.97v58.22C624 351.9 607.9 368 588.2 368H147.8C128.1 368 112 351.9 112 332.2V83.81C112 64.06 128.1 48 147.8 48h440.3C607.9 48 624 64.06 624 83.81v58.22C591.1 146 565.6 174.1 565.6 208zM536 416c-4.422 0-8 3.594-8 8c0 22.06-17.95 40-40 40h-416c-30.88 0-56-25.12-56-56v-256c0-22.06 17.95-40 40-40C60.42 112 64 108.4 64 104S60.42 96 56 96C25.12 96 0 121.1 0 152v256C0 447.7 32.28 480 72 480h416c30.88 0 56-25.12 56-56C544 419.6 540.4 416 536 416z"/></svg>