<svg xmlns="http://www.w3.org/2000/svg" viewBox="0 0 640 512"><!--! Font Awesome Pro 6.0.0-alpha3 by @fontawesome - https://fontawesome.com License - https://fontawesome.com/license (Commercial License) --><path d="M464 272C455.2 272 448 279.2 448 288c0 8.836 7.164 16 16 16S480 296.8 480 288C480 279.2 472.8 272 464 272zM464 336c-8.836 0-16 7.162-16 16c0 8.836 7.164 16 16 16S480 360.8 480 352C480 343.2 472.8 336 464 336zM464 208C455.2 208 448 215.2 448 224c0 8.836 7.164 16 16 16S480 232.8 480 224C480 215.2 472.8 208 464 208zM464 144C455.2 144 448 151.2 448 160c0 8.836 7.164 16 16 16S480 168.8 480 160C480 151.2 472.8 144 464 144zM632 200C636.4 200 640 196.4 640 192V120C640 89.13 614.9 64 584 64H56C25.12 64 0 89.13 0 120v272C0 422.9 25.12 448 56 448h528c30.88 0 56-25.12 56-56V320c0-4.406-3.594-8-8-8C601.1 312 576 286.9 576 256S601.1 200 632 200zM560 256c0 37 28.06 67.56 64 71.56V392c0 22.06-17.94 40-40 40H56c-22.06 0-40-17.94-40-40v-272c0-22.06 17.94-40 40-40h528c22.06 0 40 17.94 40 40v64.44C588.1 188.4 560 219 560 256zM328 216H286.1l-48.59-80C235.7 131.3 229.9 128 224.5 128H191.1C186.9 128 182.3 130.3 179.2 134.4C176.2 138.4 175.2 143.5 176.7 148.5L197.3 216H156L136.8 190.3C133.7 186.4 128.1 184 124 184H104c-4.969 0-9.594 2.25-12.62 6.156C88.31 194.1 87.28 199.1 88.56 204.2L103.7 256L88.5 308.1c-1.219 4.812-.1875 9.812 2.875 13.72C94.41 325.8 99.03 328 104 328h20c5 0 9.781-2.406 12.81-6.406L156 296h41.25l-20.62 67.63c-1.406 4.844-.4687 9.969 2.594 14C182.3 381.7 186.9 384 191.1 384h32.56c5.719 0 11-3.094 13.72-7.844L286.1 296H328C347.2 296 384 280.4 384 256S347.2 216 328 216zM328 280H282.5c-2.781 0-5.375 1.469-6.844 3.844L224.5 368l-32.56 .1875l23.75-77.84C216.5 287.9 216 285.3 214.5 283.3C212.1 281.2 210.6 280 208.1 280H152c-2.531 0-4.875 1.188-6.406 3.188L124 312L103.9 312.3l15.75-54.06c.4062-1.469 .4062-3.031 0-4.5L104 200h20l21.59 28.81C147.1 230.8 149.5 232 152 232h56.06c2.531 0 4.906-1.188 6.438-3.25C216 226.7 216.5 224.1 215.7 221.7L191.1 144l32.63 .1562l51.03 84C277.1 230.5 279.7 232 282.5 232H328c15.78 0 40 12.88 40 24S343.8 280 328 280z"/></svg>