<svg xmlns="http://www.w3.org/2000/svg" viewBox="0 0 512 512"><!--! Font Awesome Pro 6.0.0-alpha3 by @fontawesome - https://fontawesome.com License - https://fontawesome.com/license (Commercial License) --><path d="M256 16c-4.406 0-8 3.594-8 8V128c0 4.406 3.594 8 8 8S264 132.4 264 128V32.16C383.8 36.38 480 135.2 480 256c0 123.5-100.5 224-224 224s-224-100.5-224-224c0-53.56 19.19-105.4 54.06-145.9c2.875-3.344 2.5-8.406-.8438-11.28c-3.312-2.906-8.375-2.5-11.28 .8438C36.56 143.1 16 198.6 16 256c0 132.3 107.7 240 239.1 240S496 388.3 496 256S388.3 16 256 16zM267.3 278.6c1.562 1.562 3.594 2.344 5.656 2.344s4.094-.7813 5.656-2.344c3.125-3.125 3.125-8.188 0-11.31L165.7 154.3c-3.125-3.125-8.188-3.125-11.31 0s-3.125 8.188 0 11.31L267.3 278.6z"/></svg>