<svg xmlns="http://www.w3.org/2000/svg" viewBox="0 0 640 512"><!--! Font Awesome Pro 6.0.0-alpha3 by @fontawesome - https://fontawesome.com License - https://fontawesome.com/license (Commercial License) --><path d="M636.7 249.5l-112-80c-3.562-2.562-8.594-1.719-11.16 1.859c-2.562 3.594-1.75 8.594 1.844 11.17L607 248H360V127.2C391.5 123.2 416 96.61 416 64c0-35.35-28.65-64-64-64S288 28.65 288 64c0 32.61 24.47 59.22 56 63.19V248h-208V127.2C167.5 123.2 192 96.61 192 64c0-35.35-28.65-64-64-64S64 28.65 64 64c0 32.61 24.47 59.22 56 63.19V248h-112C3.594 248 0 251.6 0 256s3.594 8 8 8h208v120.8C184.5 388.8 160 415.4 160 448c0 35.35 28.65 64 64 64s64-28.65 64-64c0-32.61-24.47-59.22-56-63.19V264h375l-91.7 65.48c-3.594 2.578-4.406 7.578-1.844 11.17C515.1 342.8 517.5 344 520 344c1.625 0 3.25-.4844 4.656-1.484l112-80C638.8 261 640 258.6 640 256S638.8 250.1 636.7 249.5zM304 64c0-26.47 21.53-48 48-48s48 21.53 48 48S378.5 112 352 112S304 90.47 304 64zM80 64c0-26.47 21.53-48 48-48S176 37.53 176 64S154.5 112 128 112S80 90.47 80 64zM272 448c0 26.47-21.53 48-48 48S176 474.5 176 448s21.53-48 48-48S272 421.5 272 448z"/></svg>