<svg xmlns="http://www.w3.org/2000/svg" viewBox="0 0 640 512"><!--! Font Awesome Pro 6.0.0-alpha3 by @fontawesome - https://fontawesome.com License - https://fontawesome.com/license (Commercial License) --><path d="M632 248h-112V127.2C551.5 123.2 576 96.61 576 64c0-35.35-28.65-64-64-64s-64 28.65-64 64c0 32.61 24.47 59.22 56 63.19V248H136V127.2C167.5 123.2 192 96.61 192 64c0-35.35-28.65-64-64-64S64 28.65 64 64c0 32.61 24.47 59.22 56 63.19V248h-112C3.594 248 0 251.6 0 256s3.594 8 8 8h304v120.8C280.5 388.8 256 415.4 256 448c0 35.35 28.65 64 64 64s64-28.65 64-64c0-32.61-24.47-59.22-56-63.19V264h304C636.4 264 640 260.4 640 256S636.4 248 632 248zM464 64c0-26.47 21.53-48 48-48s48 21.53 48 48S538.5 112 512 112S464 90.47 464 64zM80 64c0-26.47 21.53-48 48-48S176 37.53 176 64S154.5 112 128 112S80 90.47 80 64zM368 448c0 26.47-21.53 48-48 48S272 474.5 272 448s21.53-48 48-48S368 421.5 368 448z"/></svg>