<svg xmlns="http://www.w3.org/2000/svg" viewBox="0 0 512 512"><!--! Font Awesome Pro 6.0.0-alpha3 by @fontawesome - https://fontawesome.com License - https://fontawesome.com/license (Commercial License) --><path d="M205.4 298.4c-5.195 7.15-3.609 17.16 3.539 22.35s17.15 3.609 22.35-3.541c5.193-7.148 3.606-17.15-3.543-22.34S210.6 291.2 205.4 298.4zM480 192h-9.375c-4.5-14.88-10.25-29.12-17.5-42.5l6.5-6.625c12.5-12.5 12.5-32.75 0-45.25l-45.25-45.25C408.1 46.13 399.9 43 391.8 43s-16.38 3.125-22.62 9.375l-6.625 6.5C349.1 51.63 334.9 45.88 320 41.38V32c0-17.62-14.38-32-32-32H224C206.4 0 192 14.38 192 32v9.375c-14.88 4.5-29.12 10.25-42.5 17.5l-6.625-6.5C136.6 46.13 128.4 43 120.3 43S103.9 46.13 97.63 52.38L52.38 97.63c-12.5 12.5-12.5 32.75 0 45.25l6.5 6.625C51.63 162.9 45.88 177.1 41.38 192H32C14.38 192 0 206.4 0 224v64c0 17.62 14.38 32 32 32h9.375c4.5 14.88 10.25 29.12 17.5 42.63l-6.5 6.5c-12.5 12.5-12.5 32.75 0 45.25l45.25 45.25C103.9 465.9 112.1 469 120.3 469s16.38-3.125 22.62-9.375l6.625-6.5C162.9 460.4 177.1 466.1 192 470.6V480c0 17.62 14.38 32 32 32h64c17.62 0 32-14.38 32-32v-9.375c14.88-4.5 29.12-10.25 42.5-17.5l6.625 6.5c6.25 6.25 14.44 9.375 22.62 9.375s16.38-3.125 22.62-9.375l45.25-45.25c12.5-12.5 12.5-32.75 0-45.25l-6.5-6.5c7.25-13.5 13-27.75 17.5-42.63H480c17.62 0 32-14.38 32-32V224C512 206.4 497.6 192 480 192zM496 288c0 8.822-7.178 16-16 16h-9.375c-7.053 0-13.27 4.617-15.31 11.37c-4.309 14.24-9.785 27.59-16.28 39.69c-3.34 6.219-2.209 13.89 2.781 18.88l6.5 6.502c3.025 3.023 4.689 7.039 4.689 11.31c0 4.27-1.664 8.287-4.689 11.31l-45.25 45.25c-3.023 3.023-7.039 4.689-11.31 4.689s-8.287-1.666-11.42-4.797l-6.625-6.5c-3.066-3.008-7.115-4.578-11.21-4.578c-2.602 0-5.221 .6328-7.621 1.934c-11.91 6.457-25.2 11.92-39.51 16.25C308.6 457.4 304 463.6 304 470.6V480c0 8.822-7.178 16-16 16H224c-8.822 0-16-7.178-16-16v-9.375c0-7.053-4.617-13.27-11.37-15.31c-14.3-4.328-27.6-9.795-39.51-16.25c-2.4-1.301-5.02-1.934-7.619-1.934c-4.096 0-8.145 1.57-11.21 4.578l-6.734 6.607C128.5 451.3 124.5 453 120.3 453c-4.27 0-8.287-1.666-11.31-4.689l-45.25-45.25C60.66 400 59 396 59 391.8c0-4.271 1.664-8.287 4.689-11.31l6.5-6.5c4.99-4.99 6.121-12.66 2.781-18.88c-6.496-12.1-11.97-25.45-16.28-39.69C54.65 308.6 48.43 304 41.38 304H32C23.18 304 16 296.8 16 288V224c0-8.822 7.178-16 16-16h9.375c7.053 0 13.27-4.617 15.31-11.37c4.328-14.3 9.795-27.6 16.25-39.51c3.348-6.178 2.275-13.82-2.645-18.83L63.69 131.6C60.66 128.5 59 124.5 59 120.3c0-4.271 1.664-8.287 4.689-11.31l45.25-45.25C111.1 60.66 115.1 59 120.3 59s8.287 1.664 11.42 4.797l6.625 6.5c3.066 3.008 7.115 4.578 11.21 4.578c2.6 0 5.221-.6328 7.619-1.934c11.91-6.457 25.2-11.92 39.51-16.25C203.4 54.65 208 48.43 208 41.38V32c0-8.822 7.178-16 16-16h64c8.822 0 16 7.178 16 16v9.375c0 7.053 4.617 13.27 11.37 15.31c14.3 4.328 27.6 9.795 39.51 16.25c2.4 1.301 5.02 1.934 7.621 1.934c4.094 0 8.143-1.57 11.21-4.58l6.734-6.607C383.5 60.66 387.5 59 391.8 59s8.287 1.664 11.31 4.688l45.25 45.25C451.3 111.1 453 115.1 453 120.3c0 4.27-1.664 8.287-4.797 11.42l-6.5 6.625c-4.92 5.014-5.992 12.65-2.645 18.83c6.457 11.91 11.92 25.2 16.25 39.51C457.4 203.4 463.6 208 470.6 208H480c8.822 0 16 7.178 16 16V288zM210.3 241.2c2.73-8.402-1.869-17.43-10.27-20.16S182.6 222.9 179.9 231.3C177.2 239.7 181.8 248.7 190.2 251.4S207.6 249.6 210.3 241.2zM256 176C247.2 176 240 183.2 240 192c0 8.836 7.164 16 16 16s16-7.164 16-16C272 183.2 264.8 176 256 176zM256 128C185.3 128 128 185.3 128 256c0 70.63 57.25 128 128 128s128-57.38 128-128C384 185.3 326.8 128 256 128zM256 368c-61.76 0-112-50.24-112-112S194.2 144 256 144s112 50.24 112 112S317.8 368 256 368zM284.2 294.8c-7.148 5.193-8.75 15.19-3.556 22.34c5.195 7.148 15.2 8.732 22.35 3.539s8.734-15.2 3.539-22.35C301.3 291.2 291.4 289.6 284.2 294.8zM311.9 221c-8.402 2.73-12.98 11.75-10.25 20.15c2.73 8.404 11.74 13.01 20.14 10.28c8.404-2.73 13-11.76 10.27-20.16C329.3 222.9 320.3 218.3 311.9 221z"/></svg>