<svg xmlns="http://www.w3.org/2000/svg" viewBox="0 0 512 512"><!--! Font Awesome Pro 6.0.0-alpha3 by @fontawesome - https://fontawesome.com License - https://fontawesome.com/license (Commercial License) --><path d="M480 448h-24.47C492.1 402.6 512 346.4 512 288c0-141.2-114.8-256-256-256S0 146.8 0 288c0 58.41 19.94 114.6 56.47 160H32c-17.66 0-32 14.36-32 32s14.34 32 32 32h448c17.66 0 32-14.36 32-32S497.7 448 480 448zM480 496H32c-8.812 0-16-7.172-16-16s7.188-16 16-16h72c4.406 0 8-3.578 8-8S108.4 448 104 448H77.64C37.93 403.8 16 347.1 16 288c0-132.3 107.7-240 240-240s240 107.7 240 240c0 59.14-21.93 115.8-61.64 160H408c-4.406 0-8 3.578-8 8s3.594 8 8 8H480c8.812 0 16 7.172 16 16S488.8 496 480 496zM256 128C167.6 128 96 199.6 96 288s71.63 160 160 160s160-71.63 160-160S344.4 128 256 128zM256 143.1c28.46 0 55.14 8.615 77.84 23.25l-47.46 65.3c-9.311-5.098-19.55-8.516-30.41-8.516c-14.71 0-25.15 4.891-30.8 7.99l-46.92-64.55C188.6 160.8 214.9 143.1 256 143.1zM165.2 176.7l47.1 64.8C196.7 256.2 189.2 278 193.4 299.9l-76.09 24.71C102.6 268.9 122.6 211.5 165.2 176.7zM248 431.4c-56.49-3.123-105.4-38.69-125.9-91.5l76.72-24.92c9.484 20.03 28 33.03 49.16 35.76V431.4zM255.1 336c-20.85 0-39.19-13.34-45.64-33.19C206.4 290.6 207.4 277.6 213.2 266.2C219.1 254.8 228.1 246.3 241.2 242.3c4.831-1.57 9.828-2.367 14.85-2.367c20.85 0 39.19 13.34 45.63 33.19c3.963 12.19 2.939 25.2-2.883 36.62c-5.82 11.42-15.74 19.9-27.94 23.86C265.1 335.2 261 336 255.1 336zM264 431.4v-80.66c3.934-.5 7.867-.6055 11.78-1.875c17.49-5.684 30.72-18.25 37.98-33.68l75.82 24.62C356.8 424.2 278.1 430.6 264 431.4zM318.6 299.9c1.969-10.26 1.738-21.07-1.719-31.71c-3.451-10.62-9.918-19.15-17.53-26.29l47.47-65.32c61.63 50.31 55.89 118.9 48.12 148.1L318.6 299.9z"/></svg>