<svg xmlns="http://www.w3.org/2000/svg" viewBox="0 0 512 512"><!--! Font Awesome Pro 6.0.0-alpha3 by @fontawesome - https://fontawesome.com License - https://fontawesome.com/license (Commercial License) --><path d="M256 0C114.6 0 0 114.6 0 256s114.6 256 256 256s256-114.6 256-256S397.4 0 256 0zM256 496c-132.3 0-240-107.7-240-240S123.7 16 256 16s240 107.7 240 240S388.3 496 256 496zM256 96C167.6 96 96 167.6 96 256s71.63 160 160 160s160-71.63 160-160S344.4 96 256 96zM256 111.1c28.46 0 55.14 8.615 77.84 23.25l-47.46 65.3c-9.311-5.098-19.55-8.516-30.41-8.516c-14.71 0-25.15 4.891-30.8 7.99l-46.92-64.55C188.6 128.8 214.9 111.1 256 111.1zM165.2 144.7l47.1 64.8C196.7 224.2 189.2 246 193.4 267.9L117.3 292.6C102.6 236.9 122.6 179.5 165.2 144.7zM248 399.4c-56.49-3.123-105.4-38.69-125.9-91.5l76.72-24.92C208.3 303 226.8 316 248 318.8V399.4zM255.1 304c-20.85 0-39.19-13.34-45.64-33.19C206.4 258.6 207.4 245.6 213.2 234.2C219.1 222.8 228.1 214.3 241.2 210.3c4.831-1.57 9.828-2.367 14.85-2.367c20.85 0 39.19 13.34 45.63 33.19c3.963 12.19 2.939 25.2-2.883 36.62c-5.82 11.42-15.74 19.9-27.94 23.86C265.1 303.2 261 304 255.1 304zM264 399.4v-80.66c3.934-.5 7.867-.6055 11.78-1.875c17.49-5.684 30.72-18.25 37.98-33.68l75.82 24.62C356.8 392.2 278.1 398.6 264 399.4zM394.9 292.7l-76.35-24.79c1.969-10.26 1.738-21.07-1.719-31.71c-3.451-10.62-9.918-19.15-17.53-26.29l47.47-65.32C408.4 194.9 402.7 263.5 394.9 292.7z"/></svg>