<svg xmlns="http://www.w3.org/2000/svg" viewBox="0 0 512 512"><!--! Font Awesome Pro 6.0.0-alpha3 by @fontawesome - https://fontawesome.com License - https://fontawesome.com/license (Commercial License) --><path d="M256 352C264.8 352 272 344.8 272 336S264.8 320 256 320s-16 7.178-16 16S247.2 352 256 352zM255.9 272c4.406 0 8-3.594 8-8v-160c0-4.406-3.562-8-7.969-8S247.9 99.59 247.9 104v160C247.9 268.4 251.5 272 255.9 272zM485.5 213.2c-7.812-27.31-16.12-49.17-24.16-70.31C444.9 99.7 432 65.59 432 8C432 3.578 428.4 0 424 0S416 3.578 416 8c0 60.53 14.09 97.63 30.41 140.6c7.906 20.83 16.09 42.38 23.72 69.03C476.7 240.5 480 264.3 480 288.5c0 63.63-22.91 123.4-64.5 168.3C411.3 461.4 404.9 464 398.2 464H113.8c-6.781 0-13.12-2.609-17.34-7.172C54.91 411.9 32 352.2 32 288.5C32 264.3 35.31 240.5 41.88 217.6C49.5 190.1 57.69 169.4 65.59 148.6C81.91 105.6 96 68.53 96 8C96 3.578 92.41 0 88 0S80 3.578 80 8c0 57.59-12.94 91.7-29.34 134.9C42.63 164 34.31 185.9 26.5 213.2C19.53 237.5 16 262.8 16 288.5c0 67.67 24.41 131.3 68.75 179.2C91.61 475.1 101.5 479.1 112 479.6V504C112 508.4 115.6 512 120 512S128 508.4 128 504V480h80v24C208 508.4 211.6 512 216 512S224 508.4 224 504V480h64v24c0 4.418 3.582 8 8 8s8-3.582 8-8V480H384v24c0 4.418 3.582 8 8 8s8-3.582 8-8v-24.37c10.5-.4824 20.39-4.562 27.25-11.93C471.6 419.8 496 356.2 496 288.5C496 262.8 492.5 237.5 485.5 213.2z"/></svg>