<svg xmlns="http://www.w3.org/2000/svg" viewBox="0 0 512 512"><!--! Font Awesome Pro 6.0.0-alpha3 by @fontawesome - https://fontawesome.com License - https://fontawesome.com/license (Commercial License) --><path d="M472 144C494.1 144 512 126.1 512 104V8.021c0-2.766-1.438-5.344-3.781-6.797c-2.375-1.484-5.312-1.641-7.781-.3594c-40.91 20.37-86.53 31.15-131.9 31.15h-225c-45.41 0-91.03-10.78-131.9-31.15C9.094-.3848 6.125-.2285 3.781 1.225S0 5.256 0 8.021v95.98C0 126.1 17.94 144 40 144H80V224H8C3.594 224 0 227.6 0 232S3.594 240 8 240H80v264C80 508.4 83.61 512 88.02 512S96 508.4 96 504V240h320v264c0 4.422 3.607 7.984 8.014 7.984S432 508.4 432 504V240h72C508.4 240 512 236.4 512 232S508.4 224 504 224H432V144H472zM248 224H96V144h152V224zM416 224h-152V144H416V224zM40 128c-13.22 0-24-10.76-24-23.1V20.64c40.03 17.93 83.88 27.37 127.5 27.37h225c43.63 0 87.47-9.436 127.5-27.37v83.36c0 13.23-10.78 23.1-24 23.1H40z"/></svg>