<svg xmlns="http://www.w3.org/2000/svg" viewBox="0 0 448 512"><!--! Font Awesome Pro 6.0.0-alpha3 by @fontawesome - https://fontawesome.com License - https://fontawesome.com/license (Commercial License) --><path d="M439.1 144C432.3 133.8 420.7 128 407.1 128h-87.97L320 112c0-17.67-14.33-32-32-32h-56v-64h48C284.4 16 288 12.42 288 8S284.4 0 280 0h-112C163.6 0 160 3.582 160 8S163.6 16 168 16h48v64H160c-17.67 0-32 14.33-32 32L128 128H40.03C27.33 128 15.67 133.8 8.045 144C.4043 154.2-1.924 167 1.623 179.2l41.36 141.8C36.64 323.1 32.01 328.9 32.01 336L32 368C32 376.8 39.16 384 48 384h32v120C80 508.4 83.58 512 88 512S96 508.4 96 504V384h256v120c0 4.406 3.578 8 8 8s8-3.594 8-8V384h32c8.838 0 16-7.164 16-16l-.0063-32c0-7.059-4.638-12.86-10.98-14.99l41.37-141.8C449.9 167 447.6 154.2 439.1 144zM144 112C144 103.2 151.2 96 160 96h127.1C296.8 96 304 103.2 304 112V128h-160V112zM144 144h160V320h-160V144zM16.1 174.7C14.86 167.4 16.26 159.7 20.84 153.6C25.4 147.5 32.4 144 40.03 144H128L128 320H59.36L16.1 174.7zM400 368h-352v-32h352V368zM431 174.7L388.6 320h-68.64L320 144h87.97c7.625 0 14.62 3.5 19.19 9.594C431.7 159.7 433.1 167.4 431 174.7z"/></svg>