<svg xmlns="http://www.w3.org/2000/svg" viewBox="0 0 640 512"><!--! Font Awesome Pro 6.0.0-alpha3 by @fontawesome - https://fontawesome.com License - https://fontawesome.com/license (Commercial License) --><path d="M176 255.1c-44.13 0-80 35.88-80 80s35.88 80 80 80s80-35.88 80-80S220.1 255.1 176 255.1zM176 400c-35.29 0-64-28.71-64-64s28.71-64 64-64s64 28.71 64 64S211.3 400 176 400zM320.7 278.1C320.2 276.1 319.8 275.8 319.3 274.7c4.275-6.432 6.518-13.87 6.518-21.65c0-10.5-4.07-20.34-11.46-27.73L286.7 197.7c-7.389-7.387-17.24-11.46-27.73-11.46c-7.852 0-15.34 2.277-21.71 6.52C236.1 192.2 235 191.8 233.9 191.3C230.3 173.5 214.5 160 195.6 160H156.4C137.6 160 121.7 173.5 118.1 191.3C116.1 191.8 115.8 192.2 114.7 192.7C108.3 188.4 100.8 186.2 93.04 186.2c-10.49 0-20.34 4.068-27.73 11.46L37.66 225.3c-7.387 7.387-11.46 17.21-11.46 27.65c0 7.84 2.291 15.33 6.559 21.7C32.27 275.8 31.8 276.1 31.34 278.1C13.48 281.7 0 297.5 0 316.4v39.11c0 18.89 13.47 34.7 31.3 38.33c.4609 1.154 .9355 2.303 1.426 3.445c-10.07 15.32-8.375 35.9 4.93 49.21l27.65 27.65c7.391 7.389 17.24 11.46 27.73 11.46c7.785 0 15.21-2.24 21.55-6.41c1.17 .502 2.348 .9883 3.529 1.461C121.7 498.5 137.6 512 156.4 512h39.11c18.89 0 34.7-13.47 38.33-31.3c1.201-.4805 2.4-.9766 3.592-1.488c6.264 4.154 13.74 6.438 21.56 6.438c10.45 0 20.27-4.07 27.65-11.46l27.65-27.65c13.37-13.37 15.02-34.09 4.941-49.27c.4805-1.115 .9492-2.242 1.406-3.379C338.5 390.3 352 374.4 352 355.6V316.4C352 297.6 338.5 281.7 320.7 278.1zM336 355.6c0 10.95-7.779 20.47-18.5 22.65l-8.441 1.715C304.6 390.9 305.8 388 301.2 398.9l4.789 7.219c6.053 9.123 4.824 21.37-2.924 29.11l-27.65 27.65c-4.369 4.367-10.17 6.773-16.34 6.773c-4.602 0-8.998-1.305-12.72-3.771L239.1 461.1c-11.03 4.728-8.328 3.605-19.19 7.945l-1.721 8.465C216 488.2 206.5 496 195.6 496H156.4c-10.95 0-20.47-7.777-22.65-18.49l-1.721-8.461c-10.89-4.356-8.196-3.238-19.1-7.91l-7.191 4.734c-3.746 2.469-8.154 3.773-12.75 3.773c-6.219 0-12.05-2.406-16.42-6.773L48.97 435.2c-7.693-7.693-8.902-19.93-2.873-29.1l4.727-7.189c-4.544-10.6-3.433-7.908-7.871-19l-8.461-1.721C23.78 376 16 366.5 16 355.6V316.4c0-10.96 7.785-20.48 18.51-22.65l8.506-1.721C47.37 281.1 46.18 283.1 50.89 272.1l-4.834-7.215C43.53 261.1 42.2 257.6 42.2 252.1c0-6.17 2.404-11.97 6.771-16.34l27.65-27.65c4.367-4.365 10.2-6.77 16.42-6.77c4.658 0 8.965 1.291 12.8 3.84l7.203 4.787c10.93-4.679 8.05-3.489 19.03-7.857l1.725-8.48C135.1 183.8 145.5 176 156.4 176h39.11c10.96 0 20.48 7.783 22.65 18.51l1.717 8.482c11.09 4.423 8.305 3.276 18.1 7.838l7.195-4.795c3.766-2.508 8.205-3.834 12.84-3.834c6.221 0 12.05 2.404 16.42 6.77l27.65 27.65c4.367 4.365 6.771 10.2 6.771 16.42c0 4.656-1.293 8.963-3.842 12.79L301.2 273.1c4.729 11.01 3.567 8.201 7.863 19.02l8.484 1.727C328.2 295.1 336 305.5 336 316.4V355.6zM528 352c-44.18 0-80 35.82-80 80c0 44.18 35.82 80 80 80s80-35.82 80-80C608 387.8 572.2 352 528 352zM528 496c-35.29 0-64-28.71-64-64s28.71-64 64-64s64 28.71 64 64S563.3 496 528 496zM600 160H512V141.1c0-17.41 5.125-34.3 14.78-48.81l15.88-23.81c2.438-3.672 1.469-8.641-2.219-11.09c-3.656-2.422-8.656-1.484-11.09 2.219l-15.88 23.81C502 100.5 496 120.5 496 141.1V160h-122.8L311.8 23.58C305.3 9.25 291 0 275.3 0H136C113.9 0 96 17.94 96 40V144c0 4.422 3.594 8 8 8S112 148.4 112 144V40c0-13.23 10.78-24 24-24h139.3c9.406 0 18 5.562 21.91 14.16L355.6 160H320C315.6 160 312 163.6 312 168S315.6 176 320 176h280c13.22 0 24 10.77 24 24v43.97c0 5.828-2.094 11.44-5.938 15.81l-38.5 43.98c-4.562 5.219-11.62 8.453-18.09 8.188l-170-.2969c-4.406 0-8 3.578-8 8s3.594 8 8 8l169.9 .2969c11.53 0 22.62-4.969 30.22-13.66l38.5-43.98C636.5 263 640 253.7 640 243.1V200C640 177.9 622.1 160 600 160z"/></svg>