<svg xmlns="http://www.w3.org/2000/svg" viewBox="0 0 384 512"><!--! Font Awesome Pro 6.0.0-alpha3 by @fontawesome - https://fontawesome.com License - https://fontawesome.com/license (Commercial License) --><path d="M192 224C183.2 224 176 231.2 176 240C176 248.8 183.2 256 192 256s16-7.164 16-16C208 231.2 200.8 224 192 224zM329.5 288.2C363.1 271.4 384 237.6 384 200C384 195.6 380.4 192 376 192H320V164.9l9.484-4.742C363.1 143.4 384 109.6 384 72C384 67.58 380.4 64 376 64H320c0-35.35-28.65-64-64-64H128C92.65 0 64 28.65 64 64H8C3.578 64 0 67.58 0 72c0 37.59 20.89 71.39 54.52 88.2L64 164.9V192H8C3.578 192 0 195.6 0 200c0 37.59 20.89 71.39 54.52 88.2L64 292.9V320H8C3.578 320 0 323.6 0 328c0 37.59 20.89 71.39 54.52 88.2c15.37 7.686 13.58 7.158 16.42 7.545c16.79 51.11 64.35 88.26 121.1 88.26s104.3-37.15 121.1-88.26c2.838-.3867 1.049 .1387 16.42-7.545C363.1 399.4 384 365.6 384 328c0-4.422-3.578-8-8-8H320V292.9L329.5 288.2zM320 80h47.63C365 107.1 349.9 132.1 320 147.1V80zM320 208h47.63C365 235.1 349.9 260.1 320 275.1V208zM16.38 80H64v67.05C34.41 132.3 18.99 107.4 16.38 80zM16.38 208H64v67.05C34.41 260.3 18.99 235.4 16.38 208zM16.38 336H64V384c0 6.873 .9785 13.49 2.021 20.07C34.18 388.1 19.04 363.9 16.38 336zM304 384c0 61.76-50.24 112-112 112S80 445.8 80 384V64c0-26.47 21.53-48 48-48h128c26.47 0 48 21.53 48 48V384zM367.6 336c-2.641 27.74-17.6 52.04-49.65 68.07C319 397.5 320 390.9 320 384v-48H367.6zM192 64c-26.51 0-48 21.49-48 48S165.5 160 192 160s48-21.49 48-48S218.5 64 192 64zM192 144c-17.64 0-32-14.36-32-32s14.35-32.01 31.99-32.01S224 94.36 224 112S209.6 144 192 144zM192 192C165.5 192 144 213.5 144 240S165.5 288 192 288s48-21.49 48-48S218.5 192 192 192zM192 272c-17.64 0-32-14.36-32-32s14.35-32 31.1-32S224 222.4 224 240S209.6 272 192 272zM192 352c-8.836 0-16 7.162-16 16c0 8.836 7.164 16 16 16s16-7.164 16-16C208 359.2 200.8 352 192 352zM192 320c-26.51 0-48 21.49-48 48S165.5 416 192 416s48-21.49 48-48S218.5 320 192 320zM192 400C174.4 400 160 385.6 160 368s14.36-31.1 32.01-31.1S224 350.4 224 368S209.7 400 192 400z"/></svg>