<svg xmlns="http://www.w3.org/2000/svg" viewBox="0 0 512 512"><!--! Font Awesome Pro 6.0.0-alpha3 by @fontawesome - https://fontawesome.com License - https://fontawesome.com/license (Commercial License) --><path d="M504 496H8C3.594 496 0 499.6 0 504S3.594 512 8 512h496c4.406 0 8-3.578 8-8S508.4 496 504 496zM37.06 463.5c4.156 1.609 8.781-.4062 10.38-4.531L98.87 328h314.3l51.44 130.9C465.8 462.1 468.8 464 472 464c.9687 0 1.969-.1719 2.938-.5469c4.094-1.625 6.125-6.266 4.5-10.38L311.4 25.38C305.4 9.953 290.8 0 274.2 0H237.8C221.3 0 206.6 9.953 200.6 25.38L32.56 453.1C30.94 457.2 32.97 461.8 37.06 463.5zM215.5 31.22C219.1 21.97 227.9 16 237.8 16h36.38c9.938 0 18.69 5.969 22.34 15.22L343.1 152H168L215.5 31.22zM161.7 168h188.5l56.57 144H105.2L161.7 168z"/></svg>