<svg xmlns="http://www.w3.org/2000/svg" viewBox="0 0 448 512"><!--! Font Awesome Pro 6.0.0-alpha3 by @fontawesome - https://fontawesome.com License - https://fontawesome.com/license (Commercial License) --><path d="M352 0H96C42.98 0 0 42.98 0 96v256c0 49.5 37.61 89.77 85.73 94.96l-51.38 51.38c-3.125 3.125-3.135 8.189-.0104 11.31C35.91 511.2 37.96 512 40.01 512s4.083-.7813 5.646-2.344L107.3 448h233.4l61.66 61.66C403.9 511.2 405.9 512 407.1 512s4.104-.7813 5.667-2.344c3.125-3.125 3.115-8.189-.0104-11.31l-51.38-51.38C410.4 441.8 448 401.5 448 352V96C448 42.98 405 0 352 0zM432 352c0 44.11-35.89 80-80 80H96c-44.11 0-80-35.89-80-80V96c0-44.11 35.89-80 80-80h256c44.11 0 80 35.89 80 80V352zM352 64H96C78.33 64 64 78.33 64 96v96c0 17.67 14.33 32 32 32h256c17.67 0 32-14.33 32-32V96C384 78.33 369.7 64 352 64zM368 192c0 8.822-7.178 16-16 16H96C87.18 208 80 200.8 80 192V96c0-8.822 7.178-16 16-16h256c8.822 0 16 7.178 16 16V192zM224 272c-26.51 0-48 21.49-48 48s21.49 48 48 48s48-21.49 48-48S250.5 272 224 272zM224 352c-17.64 0-32-14.36-32-32s14.36-32 32-32s32 14.36 32 32S241.6 352 224 352z"/></svg>