<svg xmlns="http://www.w3.org/2000/svg" viewBox="0 0 384 512"><!--! Font Awesome Pro 6.0.0-alpha3 by @fontawesome - https://fontawesome.com License - https://fontawesome.com/license (Commercial License) --><path d="M14.66 60.44l13-19.5C38.06 25.33 55.48 16 74.25 16H184V64c0 4.422 3.578 8 8 8S200 68.42 200 64V16h109.8c18.77 0 36.19 9.328 46.59 24.94l13 19.5C370.9 62.75 373.4 64 376 64c1.531 0 3.078-.4375 4.438-1.344c3.672-2.453 4.672-7.422 2.219-11.09l-13-19.5C356.3 11.98 333.9 0 309.8 0h-235.5C50.13 0 27.73 11.98 14.34 32.06l-13 19.5C-1.109 55.23-.1094 60.2 3.563 62.66C7.219 65.06 12.2 64.11 14.66 60.44zM128 320c-17.64 0-32 14.36-32 32s14.36 32 32 32s32-14.36 32-32S145.6 320 128 320zM128 368c-8.836 0-16-7.164-16-16c0-8.838 7.164-16 16-16c8.838 0 16 7.162 16 16C144 360.8 136.8 368 128 368zM256 320c-17.64 0-32 14.36-32 32s14.36 32 32 32s32-14.36 32-32S273.6 320 256 320zM256 368c-8.836 0-16-7.164-16-16c0-8.838 7.164-16 16-16c8.838 0 16 7.162 16 16C272 360.8 264.8 368 256 368zM256 160H128C110.3 160 96 174.3 96 192v32c0 17.67 14.33 32 32 32h128c17.67 0 32-14.33 32-32V192C288 174.3 273.7 160 256 160zM272 224c0 8.822-7.178 16-16 16H128C119.2 240 112 232.8 112 224V192c0-8.822 7.178-16 16-16h128c8.822 0 16 7.178 16 16V224zM381.6 498.3l-69.1-69.11C336.4 411.8 352 383.8 352 352V192c0-53.02-42.98-96-96-96H128C74.98 96 32 138.1 32 192v160c0 31.8 15.64 59.76 39.45 77.23l-69.1 69.11c-3.125 3.125-3.135 8.189-.0104 11.31C3.906 511.2 5.964 512 8.01 512s4.083-.7813 5.646-2.344l71.94-71.94C98.43 444.1 112.7 448 128 448h128c15.3 0 29.57-3.91 42.41-10.28l71.94 71.94C371.9 511.2 373.9 512 375.1 512s4.104-.7813 5.667-2.344C384.8 506.5 384.8 501.5 381.6 498.3zM256 432H128c-44.11 0-80-35.89-80-80V192c0-44.11 35.89-80 80-80h128c44.11 0 80 35.89 80 80v160C336 396.1 300.1 432 256 432z"/></svg>