<svg xmlns="http://www.w3.org/2000/svg" viewBox="0 0 448 512"><!--! Font Awesome Pro 6.0.0-alpha3 by @fontawesome - https://fontawesome.com License - https://fontawesome.com/license (Commercial License) --><path d="M104 304C81.94 304 64 321.9 64 344S81.94 384 104 384s40-17.94 40-40S126.1 304 104 304zM104 368c-13.23 0-24-10.77-24-24S90.77 320 104 320S128 330.8 128 344S117.2 368 104 368zM352 0H96C42.98 0 0 42.98 0 96v256c0 49.5 37.61 89.77 85.73 94.96l-51.38 51.38c-3.125 3.125-3.135 8.189-.0104 11.31C35.91 511.2 37.96 512 40.01 512s4.083-.7813 5.646-2.344L107.3 448h233.4l61.66 61.66C403.9 511.2 405.9 512 407.1 512s4.104-.7813 5.667-2.344c3.125-3.125 3.115-8.189-.0104-11.31l-51.38-51.38C410.4 441.8 448 401.5 448 352V96C448 42.98 405 0 352 0zM432 352c0 44.11-35.89 80-80 80H96c-44.11 0-80-35.89-80-80V96c0-44.11 35.89-80 80-80h256c44.11 0 80 35.89 80 80V352zM344 304c-22.06 0-40 17.94-40 40S321.9 384 344 384S384 366.1 384 344S366.1 304 344 304zM344 368c-13.23 0-24-10.77-24-24S330.8 320 344 320s24 10.77 24 24S357.2 368 344 368zM352 96H96C78.33 96 64 110.3 64 128v96c0 17.67 14.33 32 32 32h256c17.67 0 32-14.33 32-32V128C384 110.3 369.7 96 352 96zM216 240H96C87.18 240 80 232.8 80 224V128c0-8.822 7.178-16 16-16h120V240zM368 224c0 8.822-7.178 16-16 16h-120v-128H352c8.822 0 16 7.178 16 16V224z"/></svg>