<svg xmlns="http://www.w3.org/2000/svg" viewBox="0 0 512 512"><!--! Font Awesome Pro 6.0.0-alpha3 by @fontawesome - https://fontawesome.com License - https://fontawesome.com/license (Commercial License) --><path d="M320 128H192C147.9 128 112 163.9 112 208v160c0 38.15 26.89 70.05 62.69 77.1l-52.35 52.35c-3.125 3.125-3.125 8.188 0 11.31C123.9 511.2 125.1 512 128 512s4.094-.7813 5.656-2.344L195.3 448h121.4l61.66 61.66C379.9 511.2 381.1 512 384 512s4.094-.7813 5.656-2.344c3.125-3.125 3.125-8.188 0-11.31l-52.35-52.35C373.1 438 400 406.2 400 368v-160C400 163.9 364.1 128 320 128zM384 368c0 35.35-28.65 64-64 64H192c-35.35 0-64-28.65-64-64v-160c0-35.35 28.65-64 64-64h128c35.35 0 64 28.65 64 64V368zM176 352C167.2 352 160 359.2 160 368C160 376.8 167.2 384 176 384S192 376.8 192 368C192 359.2 184.8 352 176 352zM336 352c-8.836 0-16 7.162-16 16c0 8.836 7.164 16 16 16s16-7.164 16-16C352 359.2 344.8 352 336 352zM320 192H192C174.3 192 160 206.3 160 224v64c0 17.67 14.33 32 32 32h128c17.67 0 32-14.33 32-32V224C352 206.3 337.7 192 320 192zM336 288c0 8.822-7.178 16-16 16H192C183.2 304 176 296.8 176 288V224c0-8.822 7.178-16 16-16h128c8.822 0 16 7.178 16 16V288zM256 0C114.8 0 0 114.8 0 256v248C0 508.4 3.578 512 8 512s8-3.578 8-8V256c0-132.3 107.7-240 240-240s240 107.7 240 240v248c0 4.422 3.578 8 8 8S512 508.4 512 504V256C512 114.8 397.2 0 256 0z"/></svg>