<svg xmlns="http://www.w3.org/2000/svg" viewBox="0 0 640 512"><!--! Font Awesome Pro 6.0.0-alpha3 by @fontawesome - https://fontawesome.com License - https://fontawesome.com/license (Commercial License) --><path d="M80 88C75.58 88 72 91.58 72 96v160c0 4.422 3.578 8 8 8S88 260.4 88 256V96C88 91.58 84.42 88 80 88zM184 225.1V96c0-4.422-3.578-8-8-8S168 91.58 168 96v129.1c0 4.422 3.578 8 8 8S184 229.5 184 225.1zM176 320C131.8 320 96 355.8 96 400C96 444.2 131.8 480 176 480C220.2 480 256 444.2 256 400C256 355.8 220.2 320 176 320zM176 464c-35.29 0-64-28.71-64-64c0-35.29 28.71-64 64-64s64 28.71 64 64C240 435.3 211.3 464 176 464zM472 320V96c0-4.422-3.578-8-8-8S456 91.58 456 96v224c0 4.422 3.578 8 8 8S472 324.4 472 320zM376 320V96c0-4.422-3.578-8-8-8S360 91.58 360 96v224c0 4.422 3.578 8 8 8S376 324.4 376 320zM632 368h-96.84C540.4 361.2 544 353.2 544 344v-272C544 49.94 526.1 32 504 32H40C17.94 32 0 49.94 0 72v272C0 366.1 17.94 384 40 384H64c4.422 0 8-3.578 8-8S68.42 368 64 368H40c-13.23 0-24-10.77-24-24v-272c0-13.23 10.77-24 24-24h464c13.23 0 24 10.77 24 24v272c0 13.23-10.77 24-24 24H288c-4.422 0-8 3.578-8 8S283.6 384 288 384h344c4.422 0 8-3.578 8-8S636.4 368 632 368zM280 96c0-4.422-3.578-8-8-8S264 91.58 264 96v160c0 4.422 3.578 8 8 8S280 260.4 280 256V96z"/></svg>