<svg xmlns="http://www.w3.org/2000/svg" viewBox="0 0 640 512"><!--! Font Awesome Pro 6.0.0-alpha3 by @fontawesome - https://fontawesome.com License - https://fontawesome.com/license (Commercial License) --><path d="M629.5 249.4l-60.52-66.03C555.3 168.5 536 160 515.8 160H448c-8.836 0-16 7.162-16 16v176.4C425.1 361.7 419.1 372.3 417.6 384H334.4C326.1 347.5 294.7 320 256 320c-31.86 0-59.13 18.76-72 45.7C171.1 338.8 143.9 320 112 320c-38.7 0-70.97 27.48-78.39 64H8C3.594 384 0 387.6 0 392s3.594 8 8 8H32C32 444.2 67.82 480 112 480c31.86 0 59.13-18.76 72-45.71C196.9 461.2 224.1 480 256 480c44.18 0 80-35.82 80-80H416c0 44.18 35.82 80 80 80s80-35.82 80-80h24c22.06 0 40-17.94 40-40V276.5C640 266.4 636.2 256.8 629.5 249.4zM112 464c-35.29 0-64-28.75-64-64.04C48 364.7 76.71 336 112 336s64 28.67 64 63.96C176 435.2 147.3 464 112 464zM256 464c-35.29 0-64-28.71-64-64c0-35.29 28.71-64 64-64s64 28.71 64 64C320 435.3 291.3 464 256 464zM448 176h67.84c15.66 0 30.72 6.625 41.28 18.16L613.8 256H448V176zM496 464c-35.29 0-64-28.71-64-64c0-35.29 28.71-64 64-64s64 28.67 64 63.96C560 435.2 531.3 464 496 464zM624 360c0 13.23-10.78 24-24 24h-25.61c-7.414-36.52-39.68-64-78.39-64c-18.1 0-34.6 6.232-48 16.36V272h176V360z"/></svg>