<svg xmlns="http://www.w3.org/2000/svg" viewBox="0 0 640 512"><!--! Font Awesome Pro 6.0.0-alpha3 by @fontawesome - https://fontawesome.com License - https://fontawesome.com/license (Commercial License) --><path d="M625.9 224.1l-98.01-98.01C518.9 117.1 506.7 112 493.1 112H416c-17.67 0-32 14.32-32 31.1v84.08L175.7 7.547C171.2 2.75 164.8 0 158.2 0H104C90.78 0 80 10.77 80 24v128c0 13.23-10.78 24-24 24S32 165.2 32 152v-16C32 131.6 28.41 128 24 128S16 131.6 16 136v16C16 174.1 33.94 192 56 192S96 174.1 96 152V33.39L202.9 240L48 239.1c-26.51 0-48 21.49-48 48v80c0 26.51 21.49 48 48 48L72.81 416C72.56 418.7 72 421.3 72 424C72 472.6 111.4 512 160 512s88-39.4 88-88c0-2.74-.5625-5.324-.8066-8h145.6C392.6 418.7 392 421.3 392 424c0 48.6 39.4 88 88 88s88-39.4 88-88c0-2.74-.5625-5.324-.8066-8L592 415.1c26.51 0 48-21.49 48-48V258C640 245.3 634.9 233.1 625.9 224.1zM104.1 16h53.2C160.4 16 162.5 16.91 164 18.52L373.2 240h-152.4L104.1 16zM160 496c-39.76 0-72-32.24-72-72C88 384.2 120.2 352 160 352s72 32.23 72 72C232 463.8 199.8 496 160 496zM384 400H244.3C233.8 363.1 200.2 336 160 336s-73.77 27.15-84.27 64H48c-17.64 0-32-14.36-32-32V288c0-17.64 14.36-32 32-32H384V400zM400 144C400 135.2 407.2 128 416 128h77.99c8.547 0 16.58 3.328 22.63 9.371l98.01 98.01C615.1 236.7 616.7 238.5 617.7 240H400V144zM480 496c-39.76 0-72-32.24-72-72c0-39.77 32.24-72 72-72s72 32.23 72 72C552 463.8 519.8 496 480 496zM624 368c0 17.64-14.36 32-32 32h-27.73c-10.5-36.85-44.04-64-84.27-64c-35.64 0-66.16 21.29-80 51.75V256h223.6C623.6 256.7 624 257.3 624 258V368z"/></svg>