<svg xmlns="http://www.w3.org/2000/svg" viewBox="0 0 640 512"><!--! Font Awesome Pro 6.0.0-alpha3 by @fontawesome - https://fontawesome.com License - https://fontawesome.com/license (Commercial License) --><path d="M632 400H608V237.2c0-10.6-4.213-20.78-11.71-28.27l-101.3-101.3C487.5 100.2 477.4 96 466.8 96H416c-8.837 0-16 7.163-16 16v275.8C398.2 391.7 396.9 395.8 395.7 400H244.3C233.8 363.1 200.2 336 160 336s-73.77 27.15-84.27 64H7.1C3.582 400 0 403.6 0 408S3.582 416 7.1 416h64.8C72.56 418.7 72 421.3 72 424C72 472.6 111.4 512 160 512s88-39.4 88-88c0-2.74-.5625-5.324-.8047-8h145.6C392.6 418.7 392 421.3 392 424c0 48.6 39.4 88 88 88s88-39.4 88-88c0-2.74-.5273-5.33-.8086-8H632c4.406 0 8-3.578 8-8S636.4 400 632 400zM160 496c-39.7 0-72-32.3-72-72S120.3 352 160 352s72 32.3 72 72S199.7 496 160 496zM416 112h50.75c6.312 0 12.5 2.562 16.97 7.031l101.3 101.3C586 221.3 586.6 222.8 587.4 224H416V112zM480 496c-39.7 0-72-32.3-72-72S440.3 352 480 352s72 32.3 72 72S519.7 496 480 496zM592 400h-27.8c-10.5-36.84-43.99-64-84.2-64c-25.3 0-47.95 10.83-64 27.93V240h176V400z"/></svg>