<svg xmlns="http://www.w3.org/2000/svg" viewBox="0 0 640 512"><!--! Font Awesome Pro 6.0.0-alpha3 by @fontawesome - https://fontawesome.com License - https://fontawesome.com/license (Commercial License) --><path d="M579.2 422.4C557.2 405.9 544 379.6 544 352V224c0-27.56 13.16-53.88 35.22-70.39l57.59-43.2c3.531-2.656 4.25-7.672 1.594-11.2c-2.688-3.531-7.688-4.234-11.22-1.609l-57.59 43.2C543.6 160.3 528 191.4 528 224v112h-32V248c0-39.7-32.31-72-72-72h-28.24L287.6 46.36C280 37.23 268.8 32 256.9 32H168C145.9 32 128 49.94 128 72L128 176H40C17.94 176 0 193.9 0 216v96c0 21.36 16.92 38.49 38 39.6C34.34 361.8 32 372.6 32 384c0 53.02 42.98 96 96 96s96-42.98 96-96c0-11.28-2.3-21.95-5.874-32h75.76c-3.574 10.05-5.876 20.72-5.876 32c0 53.02 42.98 96 96 96s96-42.98 96-96c0-11.28-2.301-21.95-5.875-32H528c0 32.58 15.56 63.67 41.59 83.2l57.59 43.2C628.6 479.5 630.3 480 632 480c2.438 0 4.812-1.109 6.406-3.203c2.656-3.531 1.938-8.547-1.594-11.2L579.2 422.4zM144 72c0-13.23 10.78-24 24-24h88.94c7.125 0 13.84 3.141 18.41 8.625L374.9 176H144V72zM128 464c-44.11 0-80-35.89-80-80c0-44.11 35.89-80 80-80s80 35.89 80 80C208 428.1 172.1 464 128 464zM384 464c-44.11 0-80-35.89-80-80c0-44.11 35.89-80 80-80s80 35.89 80 80C464 428.1 428.1 464 384 464zM466.7 336C450.1 307.4 419.5 288 384 288S317.9 307.4 301.3 336H210.7C194.1 307.4 163.4 288 128 288s-66.06 19.43-82.69 48H40c-13.22 0-24-10.77-24-24v-96C16 202.8 26.78 192 40 192h384C454.9 192 480 217.1 480 248v88H466.7z"/></svg>