<svg xmlns="http://www.w3.org/2000/svg" viewBox="0 0 640 512"><!--! Font Awesome Pro 6.0.0-alpha3 by @fontawesome - https://fontawesome.com License - https://fontawesome.com/license (Commercial License) --><path d="M360 352c4.406 0 8-3.578 8-8v-272c0-30.88 25.12-56 56-56h208C636.4 16 640 12.42 640 8S636.4 0 632 0h-208C384.3 0 352 32.3 352 72v272C352 348.4 355.6 352 360 352zM528 288c-61.86 0-111.1 50.21-111.1 112.1c0 .0918 0-.0918 0 0c-40.5 .668-80.79 6.398-119.9 17.06l-290.3 79.16c-4.281 1.156-6.781 5.562-5.625 9.828C1.25 509.7 4.469 512 8 512c.6875 0 1.406-.0938 2.094-.2813l290.3-79.16c38.23-10.43 77.66-15.81 117.3-16.35C425.5 470.3 471.7 512 528 512c61.86 0 112-50.14 112-112S589.9 288 528 288zM528 496c-52.94 0-96-43.07-96-96c0-52.94 43.06-96 96-96s96 43.06 96 96C624 452.9 580.9 496 528 496zM46.13 360.2c4.082 15.24 20.44 27.67 39.21 22.63l185.5-49.77c17.08-4.582 27.2-22.12 22.61-39.21L251.9 139.3C248.2 125.4 235.5 115.6 221 115.6c-2.793 .002-5.582 .3691-8.291 1.096L27.35 166.3C10.31 170.9 .1582 188.5 4.721 205.5L46.13 360.2zM147.4 150.7l18.57 69.59L119.7 232.7L101.1 163.1L147.4 150.7zM31.49 181.8L85.68 167.3l18.54 69.58c2.08 7.646 10.26 13.74 19.59 11.3l46.28-12.36C178.7 233.5 183.7 224.7 181.4 216.2L162.8 146.6l54.09-14.5c1.387-.373 2.738-.543 4.109-.543c7.061 0 13.52 4.707 15.44 11.85l41.5 154.5c2.293 8.535-2.773 17.31-11.31 19.6l-185.5 49.78c-9.234 2.48-17.52-3.491-19.61-11.31L20.18 201.4C17.9 192.9 22.96 184.1 31.49 181.8z"/></svg>