<svg xmlns="http://www.w3.org/2000/svg" viewBox="0 0 640 512"><!--! Font Awesome Pro 6.0.0-alpha3 by @fontawesome - https://fontawesome.com License - https://fontawesome.com/license (Commercial License) --><path d="M360 352c4.406 0 8-3.578 8-8v-272c0-30.88 25.12-56 56-56h208C636.4 16 640 12.42 640 8S636.4 0 632 0h-208C384.3 0 352 32.3 352 72v272C352 348.4 355.6 352 360 352zM528 288c-61.86 0-111.1 50.21-111.1 112.1c0 .0918 0-.0918 0 0c-40.5 .668-80.79 6.398-119.9 17.06l-290.3 79.16c-4.281 1.156-6.781 5.562-5.625 9.828C1.25 509.7 4.469 512 8 512c.6875 0 1.406-.0938 2.094-.2813l290.3-79.16c38.23-10.43 77.66-15.81 117.3-16.35C425.5 470.3 471.7 512 527.1 512C589.9 512 640 461.9 640 400S589.9 288 528 288zM528 496c-52.94 0-96-43.07-96-96c0-52.94 43.06-96 96-96s96 43.06 96 96C624 452.9 580.9 496 528 496z"/></svg>