<svg xmlns="http://www.w3.org/2000/svg" viewBox="0 0 640 512"><!--! Font Awesome Pro 6.0.0-alpha3 by @fontawesome - https://fontawesome.com License - https://fontawesome.com/license (Commercial License) --><path d="M629.5 249.4l-60.52-66.03C555.3 168.5 536 160 515.8 160H448V96c0-35.35-28.65-64-64-64H64C28.65 32 0 60.65 0 96v240c0 23.97 13.34 44.62 32.85 55.58C32.55 394.4 32 397.1 32 400C32 444.2 67.82 480 112 480c31.86 0 59.13-18.76 72-45.71C196.9 461.2 224.1 480 256 480c44.18 0 80-35.82 80-80H416c0 44.18 35.82 80 80 80s80-35.82 80-80h24c22.06 0 40-17.94 40-40V276.5C640 266.4 636.2 256.8 629.5 249.4zM448 176h67.84c15.66 0 30.72 6.625 41.28 18.16L613.8 256H448V176zM112 464c-35.29 0-64-28.71-64-64C47.1 364.7 76.71 336 112 336s64 28.71 64 63.1C176 435.3 147.3 464 112 464zM256 464c-35.29 0-64-28.71-64-64c0-35.29 28.71-64 63.1-64S320 364.7 320 400C320 435.3 291.3 464 256 464zM334.4 384C326.1 347.5 294.7 320 256 320c-31.86 0-59.13 18.76-72 45.7C171.1 338.8 143.9 320 112 320c-35.43 0-65.14 23.19-75.65 55.1C24.08 366.4 16 352.2 16 336V96c0-26.47 21.53-48 48-48h320c26.47 0 48 21.53 48 48v256.4C425.1 361.7 419.1 372.3 417.6 384H334.4zM496 464c-35.29 0-64-28.71-64-64c0-35.29 28.71-64 64-64s64 28.71 64 63.1C560 435.3 531.3 464 496 464zM624 360c0 13.23-10.78 24-24 24h-25.61c-7.414-36.52-39.68-64-78.39-64c-18.1 0-34.6 6.232-48 16.36V272h176V360z"/></svg>