<svg xmlns="http://www.w3.org/2000/svg" viewBox="0 0 640 512"><!--! Font Awesome Pro 6.0.0-alpha3 by @fontawesome - https://fontawesome.com License - https://fontawesome.com/license (Commercial License) --><path d="M632 336H608V248c0-39.7-32.31-72-72-72h-44.24l-108.1-129.6C376 37.23 364.8 32 352.9 32H248C225.9 32 208 49.94 208 72V176H56C33.94 176 16 193.9 16 216v120H8C3.594 336 0 339.6 0 344S3.594 352 8 352h57.62C64.86 357.3 64 362.5 64 368C64 429.9 114.1 480 176 480S288 429.9 288 368c0-5.48-.8594-10.73-1.619-16h67.24C352.9 357.3 352 362.5 352 368c0 61.86 50.14 112 112 112s112-50.14 112-112c0-5.48-.8594-10.73-1.619-16H632c4.406 0 8-3.578 8-8S636.4 336 632 336zM224 72C224 58.77 234.8 48 248 48h104.9c7.125 0 13.84 3.141 18.41 8.625L470.9 176H224V72zM176 464c-52.94 0-96-43.07-96-96c0-52.94 43.06-96 96-96s96 43.06 96 96C272 420.9 228.9 464 176 464zM464 464c-52.94 0-96-43.07-96-96c0-52.94 43.06-96 96-96s96 43.06 96 96C560 420.9 516.9 464 464 464zM570.8 336C556.1 289.8 514.7 256 464 256s-92.96 33.85-106.8 80H282.8C268.1 289.8 226.7 256 176 256s-92.96 33.85-106.8 80H32V216C32 202.8 42.78 192 56 192h480c30.88 0 56 25.12 56 56v88H570.8z"/></svg>