<svg xmlns="http://www.w3.org/2000/svg" viewBox="0 0 640 512"><!--! Font Awesome Pro 6.0.0-alpha3 by @fontawesome - https://fontawesome.com License - https://fontawesome.com/license (Commercial License) --><path d="M360 351.1c4.406 0 8-3.578 8-8V71.1C368 41.12 393.1 16 424 16h208C636.4 16 640 12.42 640 8S636.4 0 632 0h-208C384.3 0 352 32.29 352 71.1v271.1C352 348.4 355.6 351.1 360 351.1zM23.09 246.4c4.281-1.125 6.844-5.5 5.719-9.781C21.16 207.7 37.5 178.9 65.1 171.2l146.9-39.31c25-6.797 56.22 5.828 65.03 38.42c1.156 4.25 5.469 6.844 9.812 5.625C292 174.8 294.5 170.4 293.4 166.2C283.1 128.3 245.9 106.7 208.8 116.5L61.84 155.8C24.72 165.8 3.406 203.1 13.31 240.7C14.59 245.4 19.34 247.4 23.09 246.4zM15.34 365.4c5.502 20.55 26.53 32.64 47 27.19l251.8-67.44c4.281-1.156 6.812-5.531 5.656-9.797C318.6 311.1 314.2 308.6 309.1 309.7l-251.8 67.44c-11.91 3.297-24.22-3.904-27.44-15.84L17.03 309.9C12.81 293.9 22.38 277.4 38.34 273.1c15.91-4.375 32.41 5.203 36.72 21.16l5.812 22.09C82.06 320.7 86.47 323.2 90.69 322.1l176.2-47.27C271.1 273.6 273.7 269.3 272.5 264.1l-5.844-21.1C262.3 227 271.9 210.4 287.8 206.3c6.562-1.75 14.03-.875 20.75 2.422c3.906 1.906 8.75 .2813 10.69-3.719c1.938-3.969 .2813-8.766-3.688-10.69c-10.19-4.922-21.44-6.172-31.81-3.5C258.9 197.4 244.7 222.9 251.2 247.1L255 261.4l-160.7 43.11L90.53 290.1C83.91 265.6 58.56 251.1 34.16 257.7C9.719 264.2-4.906 289.5 1.594 314L15.34 365.4zM528 287.1c-61.86 0-111.1 50.21-111.1 112.1c0 .0918 0-.0918 0 0c-40.5 .668-80.79 6.395-119.9 17.05l-290.3 79.15c-4.281 1.156-6.781 5.562-5.625 9.828c1.066 3.904 5.234 6.859 9.812 5.609l290.3-79.15c38.23-10.43 77.66-15.81 117.3-16.35c7.912 54.11 54.06 95.79 110.4 95.79c61.86 0 112-50.14 112-111.1C640 338.1 589.9 287.1 528 287.1zM528 495.1c-52.94 0-96-43.06-96-95.1s43.06-95.1 96-95.1s96 43.06 96 95.1S580.9 495.1 528 495.1z"/></svg>