<svg xmlns="http://www.w3.org/2000/svg" viewBox="0 0 640 512"><!--! Font Awesome Pro 6.0.0-alpha3 by @fontawesome - https://fontawesome.com License - https://fontawesome.com/license (Commercial License) --><path d="M160 304c-35.35 0-64 28.65-64 64c0 35.35 28.65 64 64 64s64-28.65 64-64C224 332.7 195.3 304 160 304zM160 416c-26.47 0-48-21.53-48-48S133.5 320 160 320s48 21.53 48 48S186.5 416 160 416zM598.4 320.6c-.373-.9375-.7598-1.869-1.158-2.799c3.498-5.262 5.332-11.34 5.332-17.72c0-8.588-3.33-16.64-9.375-22.69l-22.62-22.62c-6.045-6.045-14.1-9.373-22.69-9.373c-6.424 0-12.55 1.863-17.76 5.334c-.9102-.3887-1.824-.7656-2.746-1.133C524.4 235 511.5 224 496 224h-32c-15.46 0-28.39 11.02-31.36 25.61c-.9375 .373-1.869 .7578-2.799 1.156c-5.26-3.496-11.34-5.33-17.72-5.33c-8.586 0-16.64 3.328-22.69 9.373l-22.62 22.62c-6.043 6.045-9.373 14.08-9.373 22.63c0 6.414 1.875 12.54 5.365 17.75c-.3984 .9336-.7871 1.873-1.162 2.82C347 323.6 336 336.5 336 352v32c0 15.46 11.02 28.39 25.61 31.36c.377 .9434 .7656 1.883 1.166 2.818c-8.238 12.53-6.852 29.38 4.033 40.26l22.62 22.62c6.047 6.045 14.1 9.375 22.69 9.375c6.369 0 12.45-1.832 17.63-5.244c.957 .4102 1.92 .8086 2.887 1.195C435.6 500.1 448.5 512 464 512h32c15.46 0 28.39-11.02 31.36-25.61c.9824-.3926 1.963-.7988 2.938-1.217c5.125 3.398 11.24 5.266 17.64 5.266c8.547 0 16.58-3.33 22.63-9.375l22.62-22.62c10.94-10.94 12.29-27.89 4.043-40.31c.3926-.9121 .7754-1.834 1.15-2.764C612.1 412.4 624 399.5 624 384v-32C624 336.5 612.1 323.6 598.4 320.6zM608 384c0 8.875-7.125 16-16 16h-5.125c-2.25 7.25-5.125 14.25-8.75 20.88l3.75 3.625c6.25 6.25 6.25 16.38 0 22.62l-22.62 22.62c-3.125 3.125-7.219 4.688-11.31 4.688s-8.188-1.562-11.31-4.688l-3.75-3.625C526.3 469.8 519.4 472.6 512 474.8V480c0 8.875-7.125 16-16 16h-32c-8.875 0-16-7.125-16-16v-5.25c-7.375-2.125-14.25-5-20.88-8.625l-3.625 3.625c-3.125 3.125-7.25 4.688-11.38 4.688s-8.25-1.562-11.38-4.688l-22.62-22.62c-6.25-6.25-6.25-16.38 0-22.62l3.75-3.625c-3.625-6.625-6.5-13.5-8.625-20.88H368c-8.875 0-16-7.125-16-16v-32c0-8.875 7.125-16 16-16h5.25c2.125-7.25 5-14.25 8.625-20.88l-3.75-3.75c-6.25-6.25-6.25-16.38 0-22.62l22.62-22.62C403.9 263 408 261.4 412.1 261.4S420.4 263 423.5 266.1l3.625 3.75C433.8 266.3 440.6 263.4 448 261.3V256c0-8.875 7.125-16 16-16h32C504.9 240 512 247.1 512 256v5.25c7.25 2.125 14.25 5 20.88 8.625l3.625-3.75c3.125-3.125 7.25-4.688 11.38-4.688s8.25 1.562 11.38 4.688l22.62 22.62c6.25 6.25 6.25 16.5 0 22.75l-3.75 3.625c3.625 6.625 6.5 13.5 8.625 20.88H592c8.875 0 16 7.125 16 16V384zM278.4 320.6C278 319.7 277.6 318.8 277.2 317.8c3.498-5.262 5.332-11.34 5.332-17.72c0-8.588-3.33-16.64-9.375-22.69L250.6 254.8C244.5 248.8 236.5 245.4 227.9 245.4c-6.424 0-12.55 1.863-17.76 5.334c-.9102-.3887-1.824-.7656-2.746-1.133C204.4 235 191.5 224 176 224h-32C128.5 224 115.6 235 112.6 249.6C111.7 249.1 110.8 250.4 109.8 250.8C104.6 247.3 98.5 245.4 92.13 245.4c-8.586 0-16.64 3.328-22.69 9.373L46.81 277.4C40.77 283.5 37.44 291.5 37.44 300.1c0 6.414 1.875 12.54 5.365 17.75c-.3984 .9336-.7871 1.873-1.162 2.82C27.03 323.6 16 336.5 16 352v32c0 15.46 11.02 28.39 25.61 31.36c.377 .9434 .7656 1.883 1.166 2.818c-8.238 12.53-6.852 29.38 4.033 40.26l22.62 22.62c6.047 6.045 14.1 9.375 22.69 9.375c6.369 0 12.45-1.832 17.63-5.244c.957 .4102 1.92 .8086 2.887 1.195C115.6 500.1 128.5 512 144 512h32c15.46 0 28.39-11.02 31.36-25.61c.9824-.3926 1.963-.7988 2.938-1.217c5.125 3.398 11.24 5.266 17.64 5.266c8.547 0 16.58-3.33 22.63-9.375l22.62-22.62c10.94-10.94 12.29-27.89 4.043-40.31c.3926-.9121 .7754-1.834 1.15-2.764C292.1 412.4 304 399.5 304 384v-32C304 336.5 292.1 323.6 278.4 320.6zM288 384c0 8.875-7.125 16-16 16H266.9c-2.25 7.25-5.125 14.25-8.75 20.88l3.75 3.625c6.25 6.25 6.25 16.38 0 22.62l-22.62 22.62c-3.125 3.125-7.219 4.688-11.31 4.688s-8.188-1.562-11.31-4.688l-3.75-3.625C206.3 469.8 199.4 472.6 192 474.8V480c0 8.875-7.125 16-16 16h-32C135.1 496 128 488.9 128 480v-5.25c-7.375-2.125-14.25-5-20.88-8.625L103.5 469.8c-3.125 3.125-7.25 4.688-11.38 4.688s-8.25-1.562-11.38-4.688l-22.62-22.62c-6.25-6.25-6.25-16.38 0-22.62l3.75-3.625C58.25 414.3 55.38 407.4 53.25 400H48C39.13 400 32 392.9 32 384v-32c0-8.875 7.125-16 16-16h5.25c2.125-7.25 5-14.25 8.625-20.88L58.13 311.4c-6.25-6.25-6.25-16.38 0-22.62l22.62-22.62C83.88 263 88 261.4 92.13 261.4S100.4 263 103.5 266.1l3.625 3.75C113.8 266.3 120.6 263.4 128 261.3V256c0-8.875 7.125-16 16-16h32C184.9 240 192 247.1 192 256v5.25c7.25 2.125 14.25 5 20.88 8.625L216.5 266.1C219.6 263 223.8 261.4 227.9 261.4S236.1 263 239.3 266.1l22.62 22.62c6.25 6.25 6.25 16.5 0 22.75L258.1 315.1C261.8 321.8 264.6 328.6 266.8 336H272C280.9 336 288 343.1 288 352V384zM560 128h-57.63l-83.12-104C407.1 8.832 388.7 0 369.3 0H256C238.4 0 224 14.4 224 32v96H80c-35.35 0-64 28.65-64 64v56C16 252.4 19.58 256 24 256S32 252.4 32 248V192c0-26.51 21.49-48 48-48h480C586.5 144 608 165.5 608 192v56C608 252.4 611.6 256 616 256s8-3.582 8-8V192C624 156.8 595.2 128 560 128zM240 128V32c0-8.838 7.164-16 16-16h113.3c14.55 0 28.32 6.619 37.41 17.99L481.9 128H240zM480 304c-35.35 0-64 28.65-64 64c0 35.35 28.65 64 64 64s64-28.65 64-64C544 332.7 515.3 304 480 304zM480 416c-26.47 0-48-21.53-48-48S453.5 320 480 320s48 21.53 48 48S506.5 416 480 416z"/></svg>