<svg xmlns="http://www.w3.org/2000/svg" viewBox="0 0 512 512"><!--! Font Awesome Pro 6.0.0-alpha3 by @fontawesome - https://fontawesome.com License - https://fontawesome.com/license (Commercial License) --><path d="M440 0H72C32.31 0 0 32.3 0 72v144C0 220.4 3.594 224 8 224S16 220.4 16 216v-144c0-30.88 25.12-56 56-56h368c30.88 0 56 25.12 56 56v144C496 220.4 499.6 224 504 224S512 220.4 512 216v-144C512 32.3 479.7 0 440 0zM450.8 240.3l-31.69-95.05C409.3 115.8 381.9 96 350.8 96H161.2C130.1 96 102.7 115.8 92.86 145.2L61.17 240.3C27.17 241.8 0 269.6 0 304v96c0 20.87 13.4 38.45 32 45.06V504C32 508.4 35.58 512 40 512s8-3.582 8-8V448h416v56c0 4.418 3.582 8 8 8S480 508.4 480 504v-58.94c18.6-6.611 32-24.19 32-45.06v-96C512 269.6 484.8 241.8 450.8 240.3zM108 150.3C115.7 127.4 137 112 161.2 112h189.7c24.14 0 45.48 15.39 53.11 38.3L433.9 240H78.14L108 150.3zM496 400c0 17.64-14.36 32-32 32h-416c-17.64 0-32-14.36-32-32v-96C16 277.5 37.53 256 64 256h384c26.47 0 48 21.53 48 48V400zM104 304C81.91 304 64 321.9 64 344C64 366.1 81.91 384 104 384s40-17.91 40-40C144 321.9 126.1 304 104 304zM104 368c-13.23 0-24-10.77-24-24C80 330.8 90.77 320 104 320S128 330.8 128 344C128 357.2 117.2 368 104 368zM408 304c-22.09 0-40 17.91-40 40c0 22.09 17.91 40 40 40S448 366.1 448 344C448 321.9 430.1 304 408 304zM408 368c-13.23 0-24-10.77-24-24c0-13.23 10.77-24 24-24s24 10.77 24 24C432 357.2 421.2 368 408 368z"/></svg>