<svg xmlns="http://www.w3.org/2000/svg" viewBox="0 0 640 512"><!--! Font Awesome Pro 6.0.0-alpha3 by @fontawesome - https://fontawesome.com License - https://fontawesome.com/license (Commercial License) --><path d="M232 232C232 227.6 228.4 224 224 224H8C3.594 224 0 227.6 0 232S3.594 240 8 240H224C228.4 240 232 236.4 232 232zM280 176C284.4 176 288 172.4 288 168S284.4 160 280 160h-240C35.59 160 32 163.6 32 168S35.59 176 40 176H280zM632 400H608V237.3c0-10.69-4.156-20.72-11.72-28.28l-101.3-101.3C487.6 100.3 477.3 96 466.8 96H416V48C416 21.49 394.5 0 368 0h-256C85.49 0 64 21.49 64 48V96H8C3.594 96 0 99.58 0 104S3.594 112 8 112H224c4.406 0 8-3.578 8-8S228.4 96 224 96H80V48c0-17.64 14.36-32 32-32h256c17.64 0 32 14.36 32 32v339.8C398.2 391.7 396.9 395.8 395.7 400H260.3c-10.5-36.85-44.04-64-84.27-64c-41.63 0-76.31 28.99-85.46 67.83C84.11 399.5 80 392.1 80 384V256H64v128c0 16.15 9.938 30 24.38 36.24C88.32 421.5 88 422.7 88 424C88 472.6 127.4 512 176 512s88-39.4 88-88c0-2.74-.5625-5.324-.8047-8h129.6C392.6 418.7 392 421.3 392 424c0 48.6 39.4 88 88 88s88-39.4 88-88c0-2.74-.5273-5.33-.8086-8H632c4.406 0 8-3.578 8-8S636.4 400 632 400zM176 496c-39.7 0-72-32.3-72-72S136.3 352 176 352s72 32.3 72 72S215.7 496 176 496zM416 112h50.75c6.312 0 12.5 2.562 16.97 7.031l101.3 101.3C586 221.3 586.6 222.8 587.4 224H416V112zM480 496c-39.7 0-72-32.3-72-72S440.3 352 480 352s72 32.3 72 72S519.7 496 480 496zM592 400h-27.8c-10.5-36.84-43.99-64-84.2-64c-25.3 0-47.95 10.83-64 27.93V240h176V400z"/></svg>