<svg xmlns="http://www.w3.org/2000/svg" viewBox="0 0 640 512"><!--! Font Awesome Pro 6.0.0-alpha3 by @fontawesome - https://fontawesome.com License - https://fontawesome.com/license (Commercial License) --><path d="M622.2 96l-185.7-96c-20.12 27.75-64.66 47.25-116.5 47.25c-.0117 0 .0117 0 0 0s.0117 0 0 0c-51.88 0-96.41-19.5-116.5-47.25L17.78 96C1.945 103.8-4.537 123.2 3.373 138.1l43.04 85.1C52.02 236.2 63.32 242.7 75.06 242.7c4.729 0 9.529-1.053 14.06-3.271l70.98-38.81L160 480c-.0059 17.67 14.32 32 31.99 32h256C465.7 512 480 497.7 480 480l-.0996-279.4l70.98 38.81c4.529 2.219 9.33 3.271 14.06 3.271c11.74 0 23.03-6.484 28.64-17.68l43.04-85.1C644.5 123.2 638.1 103.8 622.2 96zM622.3 131.8l-43.04 85.1c-2.73 5.457-8.221 8.846-14.33 8.846c-2.438 0-4.799-.5527-6.383-1.311L463.9 173.6L464 480c.002 4.273-1.66 8.289-4.682 11.31C456.3 494.3 452.3 496 448 496H191.1c-4.271 0-8.287-1.664-11.31-4.686C177.7 488.3 175.1 484.3 176 480L176.1 173.6L82.07 225C79.86 226.1 77.49 226.7 75.06 226.7c-6.109 0-11.6-3.389-14.33-8.846L17.68 131.8C15.77 128 15.48 123.7 16.84 119.6c1.367-4.08 4.223-7.369 8.283-9.383l174.4-90.16c26.25 26.92 70.93 43.2 120.5 43.2c49.53 0 94.2-16.28 120.4-43.2l174.6 90.29c3.816 1.891 6.672 5.18 8.039 9.26C624.5 123.7 624.2 128 622.3 131.8z"/></svg>