<svg xmlns="http://www.w3.org/2000/svg" viewBox="0 0 384 512"><!--! Font Awesome Pro 6.0.0-alpha3 by @fontawesome - https://fontawesome.com License - https://fontawesome.com/license (Commercial License) --><path d="M384 264C384 383.1 287.1 480 168 480H136c-22.06 0-39.1-17.94-39.1-40V243.5L9.845 263.8C9.22 263.9 8.595 264 8.002 264c-3.625 0-6.906-2.469-7.781-6.156C-.8107 253.5 1.877 249.2 6.158 248.2l89.84-21.14V147.5L9.845 167.8C9.22 167.9 8.595 168 8.002 168c-3.625 0-6.906-2.469-7.781-6.156C-.8107 157.5 1.877 153.2 6.158 152.2l89.84-21.14V40c0-4.406 3.594-8 7.1-8c4.406 0 7.1 3.594 7.1 8v87.31l166.2-39.09c4.5-1.062 8.625 1.656 9.625 5.938c1.031 4.312-1.656 8.625-5.937 9.625L112 143.7v79.57l166.2-39.09c4.5-1.031 8.625 1.656 9.625 5.938c1.031 4.312-1.656 8.625-5.937 9.625L112 239.7V440c0 13.22 10.78 24 23.1 24h31.1c110.3 0 199.1-89.72 199.1-200c0-4.406 3.594-8 7.1-8C380.4 256 384 259.6 384 264z"/></svg>