<svg xmlns="http://www.w3.org/2000/svg" viewBox="0 0 640 512"><!--! Font Awesome Pro 6.0.0-alpha3 by @fontawesome - https://fontawesome.com License - https://fontawesome.com/license (Commercial License) --><path d="M69.86 231.7c4.297 1.188 8.672-1.312 9.844-5.562C99.28 155.9 165.1 80 240.4 80c73.64 0 140.4 75.88 159.9 146.2C401.3 229.7 404.5 232 408 232c.7031 0 1.422-.0938 2.141-.2813c4.266-1.188 6.75-5.594 5.562-9.875C394.6 145.9 321.5 64 239.6 64c-81.16 0-154.2 81.94-175.3 157.8C63.11 226.1 65.59 230.5 69.86 231.7zM581.5 129.3l-48.38-33.97c-19.73-9.625-42.58-9.688-61.08-.125c-16.7 8.625-28.05 24.31-31.08 42.88C440.3 141.7 440 145.4 440 149.3v69.63c0 11.59-3.922 28.94-11.16 38.28c-10.64 13.5-26.69 21.25-44.06 21.25L58.11 280C43.22 280 32 290.5 32 304.5c0 11.19 7.203 21.03 18.66 24.72l84.11 18.66l-43.59 65.09c-4.234 7.219-4.25 15.91-.0625 23.19C95.36 443.6 103 448 111.6 448h32.83c14.16 0 27.38-7.594 34.52-19.81l31.12-53.13c22.67 7.062 42.23 11.59 78.84 11.59c36.78 0 56.36-4.562 79.17-11.69l35.22 53.22C410.4 440.4 423.6 448 437.8 448h26.62c8.562 0 16.22-4.438 20.47-11.84c4.188-7.281 4.172-15.97-.2344-23.47l-45.25-70.38c19.22-8.969 35.27-21.56 47.83-37.56C500.6 287.5 508.7 261.2 512.3 240h32.63C580.3 240 608 213.6 608 179.1C608 159.8 598.1 140.9 581.5 129.3zM544.1 224h-39.5c-4.016 0-7.406 2.969-7.938 6.969c-2.5 19.06-10 47.25-22.91 63.94c-12.64 16.12-29.44 28.31-49.95 36.28c-2.25 .875-3.969 2.719-4.719 5c-.7344 2.281-.4219 4.781 .875 6.781l50.2 78.06c1.875 3.219 .625 6.094 0 7.156C469.7 430.6 467.2 432 464.4 432h-26.62c-8.484 0-16.42-4.562-20.94-12.25l-38.78-58.66c-1.516-2.281-4.047-3.594-6.672-3.594c-.8125 0-1.641 .125-2.453 .375c-24 7.719-42.55 12.78-80.06 12.78s-56.06-5.062-80.06-12.78c-3.594-1.062-7.453 .3438-9.359 3.594L165.1 420.1C160.8 427.4 152.9 432 144.4 432H111.6c-2.766 0-5.234-1.406-6.594-3.812c-.625-1.062-1.875-3.938-.2656-6.75l49.84-74.41c1.469-2.188 1.766-4.969 .7813-7.406c-.9844-2.469-3.109-4.281-5.688-4.844L54.86 313.8C50.75 312.5 48 308.7 48 304.5C48 298.7 53.23 296 58.14 296l326.7-1.562c22.28 0 42.91-9.969 56.63-27.41C451.4 254.2 456 233.1 456 218.9c0-.2187-.0156-.4375-.0313-.6562C455.1 218 456 217.8 456 217.6V149.3c0-2.844 .2031-5.625 .7344-8.531c2.281-13.84 10.33-25 22.67-31.38c14.03-7.25 31.5-7.125 45.63-.375l47.28 33.34C584.6 150.1 592 165.1 592 179.1C592 205.1 571.8 224 544.1 224zM512 143.1c-8.836 0-16 7.162-16 16c0 8.836 7.164 16 16 16s16-7.164 16-16C528 151.2 520.8 143.1 512 143.1z"/></svg>