<svg xmlns="http://www.w3.org/2000/svg" viewBox="0 0 576 512"><!--! Font Awesome Pro 6.0.0-alpha3 by @fontawesome - https://fontawesome.com License - https://fontawesome.com/license (Commercial License) --><path d="M482.7 124.8c-4.156-1.344-8.75 .75-10.22 4.906c-1.438 4.188 .75 8.75 4.906 10.22C529.9 158.3 560 183.1 560 208c0 46.38-109.3 96-272 96s-272-49.63-272-96c0-24.91 30.12-49.75 82.66-68.13C102.8 138.4 105 133.8 103.6 129.7C102.1 125.5 97.5 123.4 93.34 124.8C33.16 145.8 .0025 175.4 .0025 208c0 62.81 126.5 112 287.1 112s287.1-49.19 287.1-112C575.1 175.4 542.8 145.8 482.7 124.8zM272 256c0 8.834 7.166 16 16 16s16-7.166 16-16S296.8 240 288 240S272 247.2 272 256zM480 224c8.834 0 16-7.166 16-16S488.8 192 480 192s-16 7.166-16 16S471.2 224 480 224zM145.3 162.9C145.1 168.1 149.1 172.5 153.7 174.1C195 196.6 241.5 208 288 208s92.97-11.43 134.3-33.05c4.596-2.404 7.74-6.887 8.438-12.03l.4355-3.08c.6797-4.709 1.451-10.04 1.451-15.82C432.6 64.61 367.7 0 288 0S143.4 64.61 143.4 144c0 5.781 .7715 11.12 1.451 15.82L145.3 162.9zM288 16c70.97 0 128.6 57.26 128.6 128c0 5.752-.9961 11.25-1.742 16.75c-39.78 20.82-83.32 31.23-126.9 31.23S200.9 181.6 161.1 160.8c-.7461-5.502-1.742-11-1.742-16.75C159.4 73.26 217 16 288 16zM80 208C80 216.8 87.17 224 96 224s16-7.166 16-16S104.8 192 96 192S80 199.2 80 208zM104.8 340.4l-80 160c-1.969 3.938-.375 8.75 3.594 10.72C29.56 511.7 30.78 512 32 512c2.938 0 5.75-1.625 7.156-4.438l80-160c1.969-3.938 .375-8.75-3.594-10.72C111.7 334.9 106.8 336.5 104.8 340.4zM471.2 340.4c-1.969-3.969-6.844-5.469-10.72-3.594c-3.969 1.969-5.562 6.781-3.594 10.72l80 160C538.3 510.4 541.1 512 544 512c1.219 0 2.438-.2813 3.562-.8438c3.969-1.969 5.562-6.781 3.594-10.72L471.2 340.4z"/></svg>