<svg xmlns="http://www.w3.org/2000/svg" viewBox="0 0 640 512"><!--! Font Awesome Pro 6.0.0-alpha3 by @fontawesome - https://fontawesome.com License - https://fontawesome.com/license (Commercial License) --><path d="M512 352c8.834 0 16-7.165 16-15.1c0-8.833-7.166-15.1-16-15.1s-16 7.165-16 15.1C496 344.8 503.2 352 512 352zM154.2 253.2C154.9 258.4 158 262.9 162.6 265.3C211.1 290.6 265.5 303.1 320 303.1c54.53 0 108.9-13.39 157.4-38.72c4.594-2.402 7.738-6.884 8.436-12.02l.5176-3.652C487.1 244.1 488 237.9 488 231.3c0-92.24-75.36-167.3-168-167.3c-92.63 0-168 75.04-168 167.3c0 6.628 .8965 12.83 1.688 18.3L154.2 253.2zM320 79.1c83.87 0 152 67.66 152 151.3c0 6.796-1.176 13.3-2.059 19.8C422.9 275.7 371.5 287.1 320 287.1c-51.46 0-102.9-12.31-149.9-36.91C169.2 244.6 168 238.1 168 231.3C168 147.7 236.1 79.1 320 79.1zM304 368c0 8.833 7.166 15.1 16 15.1s16-7.163 16-15.1c0-8.833-7.166-15.1-16-15.1S304 359.2 304 368zM112 336c0 8.833 7.166 15.1 16 15.1s16-7.165 16-15.1c0-8.833-7.166-15.1-16-15.1S112 327.2 112 336zM530.6 223c-4.25-1.562-8.734 .7812-10.17 4.968c-1.438 4.156 .7813 8.718 4.953 10.16C588.1 259.7 624 289.5 624 320c0 60.71-139.2 111.1-304 111.1s-304-51.28-304-111.1c0-30.47 35.94-60.31 98.61-81.87C118.8 236.7 121 232.1 119.6 227.1C118.1 223.8 113.6 221.5 109.4 223C38.84 247.3 0 281.7 0 320C0 391.8 140.6 448 320 448s320-56.22 320-127.1C640 281.7 601.2 247.3 530.6 223z"/></svg>