<svg xmlns="http://www.w3.org/2000/svg" viewBox="0 0 448 512"><!--! Font Awesome Pro 6.0.0-alpha3 by @fontawesome - https://fontawesome.com License - https://fontawesome.com/license (Commercial License) --><path d="M224 256c70.7 0 128-57.31 128-128s-57.3-128-128-128C153.3 0 96 57.31 96 128S153.3 256 224 256zM224 16c61.76 0 112 50.24 112 112S285.8 240 224 240S112 189.8 112 128S162.2 16 224 16zM322.2 310.8c-4.094-1.188-8.344 1.062-9.719 5.094L250.3 496H197.7L135.6 315.9C134.2 311.8 129.1 309.6 125.8 310.8C51.75 331.6 0 397.9 0 472C0 494.1 18.59 512 41.44 512h365.1C429.4 512 448 494.1 448 472C448 397.9 396.3 331.6 322.2 310.8zM41.44 496C27.41 496 16 485.2 16 472c0-64.56 43.63-122.6 106.1-143.6L180.8 496H41.44zM406.6 496h-139.3l57.81-167.6C388.4 349.4 432 407.4 432 472C432 485.2 420.6 496 406.6 496zM271.1 292.3C269.8 289.7 267 288 264 288h-80C181 288 178.3 289.7 176.9 292.3S175.8 298.2 177.5 300.7l37.19 52.06l-29.84 59.72c-1.969 3.938-.375 8.75 3.594 10.72c3.844 1.906 8.719 .375 10.72-3.594L224 369.9l24.84 49.69C250.3 422.4 253.1 424 256 424c1.219 0 2.438-.2813 3.562-.8438c3.969-1.969 5.562-6.781 3.594-10.72l-29.84-59.72l37.19-52.06C272.3 298.2 272.5 295 271.1 292.3zM224 338.3L199.5 304h48.94L224 338.3z"/></svg>