<svg xmlns="http://www.w3.org/2000/svg" viewBox="0 0 640 512"><!--! Font Awesome Pro 6.0.0-alpha3 by @fontawesome - https://fontawesome.com License - https://fontawesome.com/license (Commercial License) --><path d="M272.9 304H175.1C78.56 304 0 379.4 0 472C0 494.1 18.58 512 41.42 512h365.2C429.4 512 448 494.1 448 472C448 379.4 369.4 304 272.9 304zM406.6 496H41.42C27.41 496 16 485.2 16 472c0-70.84 51.22-130 120-146.8v43.6C113.3 372.6 96 392.3 96 416c0 26.47 21.53 48 48 48S192 442.5 192 416c0-23.73-17.35-43.36-40-47.19v-46.57C159.6 321.2 167.2 320 175.1 320h97.72C280.8 320 288.4 321.2 296 322.2v46.57c-27.07 3.922-48 27.05-48 55.19V448c0 3.031 1.719 5.812 4.422 7.156l16 8c4 1.969 8.75 .375 10.73-3.594c1.969-3.938 .375-8.75-3.578-10.72L264 443.1V424C264 401.9 281.9 384 304 384s40 17.94 40 40v19.06l-11.58 5.781c-3.953 1.969-5.547 6.781-3.578 10.72C330.3 462.4 333.1 464 336 464c1.203 0 2.422-.2813 3.578-.8438l16-8C358.3 453.8 360 451 360 448v-24c0-28.14-20.93-51.27-48-55.19v-43.6c68.78 16.78 120 75.95 120 146.8C432 485.2 420.6 496 406.6 496zM144 384c17.64 0 32 14.34 32 32s-14.17 32-31.81 32S112 433.7 112 416S126.4 384 144 384zM224 256c70.7 0 128-57.31 128-128S294.7 0 224 0C153.3 0 96 57.31 96 128S153.3 256 224 256zM224 16c61.76 0 112 50.24 112 112S285.8 240 224 240S112 189.8 112 128S162.2 16 224 16zM592 0h-160C405.5 0 384 21.49 384 48v128C384 202.5 405.5 224 432 224H448v55.97c0 4.715 3.947 8.026 8.119 8.026c1.578 0 3.189-.4736 4.631-1.526L543.1 224H592C618.5 224 640 202.5 640 176v-128C640 21.49 618.5 0 592 0zM624 176c0 17.64-14.36 32-32 32h-53.34L464 264V208h-32c-17.64 0-32-14.36-32-32v-128c0-17.64 14.36-32 32-32h160c17.64 0 32 14.36 32 32V176z"/></svg>