<svg xmlns="http://www.w3.org/2000/svg" viewBox="0 0 512 512"><!--! Font Awesome Pro 6.0.0-alpha3 by @fontawesome - https://fontawesome.com License - https://fontawesome.com/license (Commercial License) --><path d="M225.3 6.199C224.3 1.918 219.9-.707 215.7 .168c-4.313 1-7.004 5.281-6.031 9.594l27.59 121.5C248.2 182.5 226.2 220.1 173.5 240.1C173.4 240.1 171.5 240.8 171.5 240.8C168.3 242.1 166.3 245.2 166.5 248.6l9.594 232.7c.0938 3.844-1.5 7.844-4.281 10.66C169.1 493.8 166.8 495.1 161.9 495.1H126.5c-5.004 0-8.254-2.25-10.13-4.156c-2.781-2.844-4.375-6.781-4.281-10.41l9.563-232.8C121.7 245.2 119.7 242.1 116.6 240.9C116.6 240.8 114.7 240.1 114.7 240.1c-36.72-13.97-77.63-44-64.04-107.9l27.82-122.4C79.43 5.449 76.74 1.168 72.43 .168C68.3-.707 63.83 1.918 62.83 6.199L35.02 128.8C22.92 185.7 47.36 229.6 105.4 253.6l-9.344 227.3c-.1875 8.125 3.031 16.19 8.844 22.13C110.6 508.8 118.2 512 126.5 512h35.41c8.188 0 15.78-3.156 21.38-8.875c5.781-5.939 9.004-14.03 8.813-22.38L182.7 253.6c57.7-23.25 82.61-67.79 70.2-125.8L225.3 6.199zM455.1 .0195c-56.66 0-235.7 147.1-61.98 301.7l-9.997 176.7C383.1 496.7 397.7 512 415.1 512h32C465.7 512 480 497.7 480 480V24.02C480 10.83 469.3 .0195 455.1 .0195zM463.1 480c0 8.822-7.18 16-16 16h-32c-4.422 0-8.531-1.762-11.59-4.959c-3.047-3.197-4.613-7.391-4.41-11.66l10.43-184.4l-5.773-5.139c-61.27-54.53-82.04-113.9-60.05-171.6c24.2-63.56 89.25-102.2 111.4-102.2c4.41 0 8.004 3.588 8.004 8V480zM120 160c4.406 0 8-3.594 8-8v-144c0-4.406-3.594-8-8-8c-4.406 0-8 3.594-8 8v144C112 156.4 115.6 160 120 160zM168 160C172.4 160 176 156.4 176 152v-144c0-4.406-3.594-8-8-8s-8 3.594-8 8v144C160 156.4 163.6 160 168 160z"/></svg>