<svg xmlns="http://www.w3.org/2000/svg" viewBox="0 0 640 512"><!--! Font Awesome Pro 6.0.0-alpha3 by @fontawesome - https://fontawesome.com License - https://fontawesome.com/license (Commercial License) --><path d="M480 304c-48.6 0-88 39.4-88 88c0 48.6 39.4 88 88 88s88-39.4 88-88C568 343.4 528.6 304 480 304zM480 464c-39.7 0-72-32.3-72-72S440.3 320 480 320s72 32.3 72 72S519.7 464 480 464zM160 304c-48.6 0-88 39.4-88 88C72 440.6 111.4 480 160 480s88-39.4 88-88C248 343.4 208.6 304 160 304zM160 464c-39.7 0-72-32.3-72-72S120.3 320 160 320s72 32.3 72 72S199.7 464 160 464zM628.9 210.6L494.4 49.27C485.3 38.33 471.8 32 457.5 32H48C21.6 32 0 53.6 0 80v256c0 23.24 16.74 42.77 38.77 47.1C43.58 384.1 48 380.1 48 375.2c0-3.891-2.832-7.053-6.639-7.859C26.89 364.2 16 351.4 16 336v-128h589.9l10.68 12.81C621.3 226.6 624 233.9 624 241.4V336c0 15.37-10.89 28.24-25.36 31.31C594.8 368.1 592 371.3 592 375.2c0 4.91 4.418 8.885 9.234 7.936C623.3 378.8 640 359.2 640 336V241.4C640 230.1 636 219.3 628.9 210.6zM144 192h-128V80c0-17.67 14.33-32 32-32h96V192zM288 192H160V48h128V192zM432 192h-128V48h128V192zM448 192V48h9.518c9.496 0 18.5 4.217 24.58 11.51L592.5 192H448zM360 368h-80c-4.418 0-8 3.582-8 8S275.6 384 280 384h80c4.418 0 8-3.582 8-8S364.4 368 360 368z"/></svg>