<svg xmlns="http://www.w3.org/2000/svg" viewBox="0 0 576 512"><!--! Font Awesome Pro 6.0.0-alpha3 by @fontawesome - https://fontawesome.com License - https://fontawesome.com/license (Commercial License) --><path d="M224 80c-88.37 0-160 71.63-160 160c0 88.36 71.63 160 160 160s160-71.64 160-160C384 151.6 312.4 80 224 80zM224 384c-79.4 0-144-64.6-144-144S144.6 96 224 96s144 64.6 144 144S303.4 384 224 384zM224 184c-30.88 0-56 25.12-56 56S193.1 296 224 296S280 270.9 280 240S254.9 184 224 184zM224 280c-22.06 0-40-17.94-40-40S201.9 200 224 200S264 217.9 264 240S246.1 280 224 280zM512 0H64C28.65 0 0 28.65 0 64v352c0 35.35 28.65 64 64 64v24C64 508.4 67.58 512 72 512s8-3.582 8-8V480h416v24c0 4.418 3.582 8 8 8S512 508.4 512 504V480c35.35 0 64-28.65 64-64V64C576 28.65 547.3 0 512 0zM560 416c0 26.47-21.53 48-48 48H64c-26.47 0-48-21.53-48-48V64c0-26.47 21.53-48 48-48h448c26.47 0 48 21.53 48 48V416zM464 136c-22.06 0-40 17.94-40 40c0 19.23 13.9 34.56 32 38.38V336c0 4.422 3.594 8 8 8s8-3.578 8-8V214.4c18.11-3.82 32-19.15 32-38.38C504 153.9 486.1 136 464 136zM464 200c-13.22 0-24-10.77-24-24s10.78-24 24-24s24 10.77 24 24S477.2 200 464 200z"/></svg>