<svg xmlns="http://www.w3.org/2000/svg" viewBox="0 0 640 512"><!--! Font Awesome Pro 6.0.0-alpha3 by @fontawesome - https://fontawesome.com License - https://fontawesome.com/license (Commercial License) --><path d="M640 416c0-2.664-1.323-5.167-3.562-6.669l-92.44-61.62V292.1l59.58-29.79c2.703-1.344 4.422-4.125 4.422-7.156s-1.719-5.812-4.422-7.156l-123.6-61.79V131.3l29.66-29.66c1.519-1.519 2.349-3.548 2.349-5.649c0-.9499-.2555-5.163-4.552-7.226l-184-87.1C322.4 .2656 321.2 0 320 0S317.6 .2656 316.5 .7969L132.5 88.79C128.2 90.86 127.1 95.07 127.1 96.02c0 2.101 .8297 4.13 2.349 5.649l29.66 29.66v55.74L36.42 248.9c-2.703 1.344-4.422 4.125-4.422 7.156s1.719 5.812 4.422 7.156L95.1 292.1v54.77l-92.44 61.62C1.322 410.8 0 413.4 0 416c0 3.058 1.743 5.796 4.421 7.143l59.58 29.79v51.05C63.1 508.4 67.58 512 71.1 512c4.422 0 8-3.594 8-7.1v-47.1H311.1v47.1C311.1 508.4 315.6 512 320 512s8-3.594 8-7.1v-47.1h232v47.1C560 508.4 563.6 512 568 512c4.422 0 8-3.594 8-7.1v-51.05l59.58-29.79C638.3 421.8 640 419.1 640 416zM111.1 296h416v47.1H111.1V296zM175.1 136h288v47.1H175.1V136zM320 16.89l170.3 81.47l-21.66 21.66H171.3L149.7 98.36L320 16.89zM169.9 200h300.2l112 55.1L534.1 280H105.9L57.89 256L169.9 200zM566.1 440H73.89l-49.98-24.1l82.52-54.1h427.2l82.52 54.1L566.1 440z"/></svg>