<svg xmlns="http://www.w3.org/2000/svg" viewBox="0 0 640 512"><!--! Font Awesome Pro 6.0.0-alpha3 by @fontawesome - https://fontawesome.com License - https://fontawesome.com/license (Commercial License) --><path d="M560 247.8h-480c-13.22 0-24 10.78-24 24v31.97c0 4.406 3.594 8 8 8s8-3.594 8-8V271.8c0-4.5 3.5-8 8-8h480c4.5 0 8 3.5 8 8v31.97c0 4.406 3.594 8 8 8s8-3.594 8-8V271.8C584 258.6 573.2 247.8 560 247.8zM175.1 288c-61.86 0-111.1 50.14-111.1 112S114.1 512 175.1 512s111.1-50.14 111.1-112S237.9 288 175.1 288zM168 495.2C121.5 491.3 84.72 454.5 80.81 408H168V495.2zM168 392H80.81C84.72 345.5 121.5 308.7 168 304.8V392zM184 495.2V408h87.19C267.3 454.5 230.5 491.3 184 495.2zM184 392V304.8C230.5 308.7 267.3 345.5 271.2 392H184zM463.1 288c-61.86 0-111.1 50.14-111.1 112s50.15 112 112 112s111.1-50.14 111.1-112S525.8 288 463.1 288zM456 495.2C409.5 491.3 372.7 454.5 368.8 408H456V495.2zM456 392h-87.19C372.7 345.5 409.5 308.7 456 304.8V392zM472 495.2V408h87.19C555.3 454.5 518.5 491.3 472 495.2zM472 392V304.8C518.5 308.7 555.3 345.5 559.2 392H472zM560.8 0c-33.22 0-66.13 5.031-97.78 14.94l-71.13 22.22C390.4 16.41 373.1 0 352 0H288C266.9 0 249.6 16.41 248.1 37.16L176.1 14.94C145.3 5.031 112.4 0 79.19 0C35.53 0 0 35.53 0 79.19c0 12.28 2.906 24.53 8.375 35.41l56.47 112.1c2 4 6.906 5.531 10.72 3.594c3.969-1.969 5.562-6.781 3.594-10.72l-56.47-113C18.31 98.75 16 89 16 79.19C16 44.34 44.34 16 79.19 16c31.59 0 62.91 4.781 93.03 14.19L248 53.87V224c0 4.406 3.594 8 8 8S264 228.4 264 224V40C264 26.78 274.8 16 288 16h64c13.22 0 24 10.78 24 24V224c0 4.406 3.594 8 8 8S392 228.4 392 224V53.87l75.78-23.69C497.9 20.78 529.2 16 560.8 16C595.7 16 624 44.34 624 79.19c0 9.812-2.312 19.56-6.688 28.28l-56.47 112.1c-1.969 3.938-.375 8.75 3.594 10.72C565.6 231.7 566.8 232 568 232c2.938 0 5.75-1.625 7.156-4.438l56.47-112.9C637.1 103.7 640 91.47 640 79.19C640 35.53 604.5 0 560.8 0z"/></svg>