<svg xmlns="http://www.w3.org/2000/svg" viewBox="0 0 448 512"><!--! Font Awesome Pro 6.0.0-alpha3 by @fontawesome - https://fontawesome.com License - https://fontawesome.com/license (Commercial License) --><path d="M391.7 416.8C391.7 416.5 392 416.3 392 416V72c0-39.69-32.38-71.1-72.07-71.1L178.4 0C145 0 116.2 22.66 108.4 55.06L.2233 502.1c-1.031 4.281 1.594 8.625 5.906 9.656C6.755 511.9 7.38 512 8.005 512c3.625 0 6.875-2.469 7.781-6.125L89.79 200h286.2V416c0 .3008 .2891 .4805 .3223 .7734C353.5 420.5 336 440.1 336 464c0 26.51 21.45 48 47.96 48s48.04-21.49 48.04-48C432 440.1 414.5 420.5 391.7 416.8zM376 184H93.65l30.29-125.2C130 33.59 152.4 16 178.4 16h141.6c30.88 0 56 25.12 56 56V184zM384 496c-17.64 0-32-14.36-32-32s14.29-32.11 31.94-32.11S416 446.4 416 464S401.6 496 384 496z"/></svg>