<svg xmlns="http://www.w3.org/2000/svg" viewBox="0 0 512 512"><!--! Font Awesome Pro 6.0.0-alpha3 by @fontawesome - https://fontawesome.com License - https://fontawesome.com/license (Commercial License) --><path d="M440 112H72C67.59 112 64 115.6 64 120S67.59 128 72 128h368c30.88 0 56 25.12 56 56v224c0 30.88-25.12 56-56 56H72c-30.88 0-56-25.12-56-56v-304c0-30.88 25.12-56 56-56h400C476.4 48 480 44.41 480 40S476.4 32 472 32H72C32.31 32 0 64.31 0 104v304C0 447.7 32.31 480 72 480h368c39.69 0 72-32.31 72-72v-224C512 144.3 479.7 112 440 112zM440 296C440 273.9 422.1 256 400 256s-40 17.94-40 40s17.94 40 40 40S440 318.1 440 296zM376 296c0-13.22 10.78-24 24-24s24 10.78 24 24S413.2 320 400 320S376 309.2 376 296z"/></svg>