<svg xmlns="http://www.w3.org/2000/svg" viewBox="0 0 640 512"><!--! Font Awesome Pro 6.0.0-alpha3 by @fontawesome - https://fontawesome.com License - https://fontawesome.com/license (Commercial License) --><path d="M614.4 112.6l-291.5-112.1c-1.875-.6875-3.875-.6875-5.75 0l-291.5 112.1C10.31 118.6 0 133.6 0 149.1V504C0 508.4 3.594 512 8 512s8-3.594 8-8V149.1C16 140.1 22.19 131.1 31.38 127.6L320 16.55l288.6 111C617.8 131.1 624 140.1 624 149.1V504c0 4.406 3.594 8 8 8S640 508.4 640 504V149.1C640 133.6 629.7 118.6 614.4 112.6zM520 191.1H120c-13.22 0-24 10.78-24 24V504C96 508.4 99.59 512 104 512s8-3.594 8-8V215.1c0-4.406 3.594-8 8-8h400c4.406 0 8 3.594 8 8V504c0 4.406 3.594 8 8 8S544 508.4 544 504V215.1C544 202.8 533.2 191.1 520 191.1zM280 416h-112c-13.26 0-24 10.75-24 24v48C144 501.3 154.7 512 168 512h112c13.26 0 24-10.75 24-24v-48C304 426.7 293.3 416 280 416zM288 488c0 4.412-3.588 8-8 8h-112C163.6 496 160 492.4 160 488v-48c0-4.412 3.59-8 8-8h112C284.4 432 288 435.6 288 440V488zM280 288h-112C154.7 288 144 298.7 144 312v48C144 373.3 154.7 384 168 384h112c13.26 0 24-10.75 24-24v-48C304 298.7 293.3 288 280 288zM288 360c0 4.412-3.588 8-8 8h-112C163.6 368 160 364.4 160 360v-48C160 307.6 163.6 304 168 304h112C284.4 304 288 307.6 288 312V360zM472 416h-112c-13.26 0-24 10.75-24 24v48c0 13.25 10.74 24 24 24h112c13.26 0 24-10.75 24-24v-48C496 426.7 485.3 416 472 416zM480 488c0 4.412-3.588 8-8 8h-112c-4.41 0-8-3.588-8-8v-48c0-4.412 3.59-8 8-8h112c4.412 0 8 3.588 8 8V488z"/></svg>