<svg xmlns="http://www.w3.org/2000/svg" viewBox="0 0 640 512"><!--! Font Awesome Pro 6.0.0-alpha3 by @fontawesome - https://fontawesome.com License - https://fontawesome.com/license (Commercial License) --><path d="M614.4 112.6l-291.5-112.1c-1.875-.6875-3.875-.6875-5.75 0l-291.5 112.1C10.31 118.6 0 133.6 0 149.1V504C0 508.4 3.594 512 8 512s8-3.594 8-8V149.1C16 140.1 22.19 131.1 31.38 127.6L320 16.55l288.6 111C617.8 131.1 624 140.1 624 149.1V504c0 4.406 3.594 8 8 8S640 508.4 640 504V149.1C640 133.6 629.7 118.6 614.4 112.6zM520 191.1H120c-13.22 0-24 10.78-24 24V504C96 508.4 99.59 512 104 512s8-3.594 8-8V432h416v72c0 4.406 3.594 8 8 8S544 508.4 544 504V215.1C544 202.8 533.2 191.1 520 191.1zM528 416h-416V319.1h416V416zM528 303.1h-416V215.1c0-4.406 3.594-8 8-8h400c4.406 0 8 3.594 8 8V303.1z"/></svg>