<svg xmlns="http://www.w3.org/2000/svg" viewBox="0 0 384 512"><!--! Font Awesome Pro 6.0.0-alpha3 by @fontawesome - https://fontawesome.com License - https://fontawesome.com/license (Commercial License) --><path d="M312 448c-4.422 0-8 3.594-8 8v16c0 13.22-10.77 24-24 24h-176c-13.23 0-24-10.78-24-24v-16C80 451.6 76.42 448 72 448S64 451.6 64 456v16C64 494.1 81.94 512 104 512h176c22.06 0 40-17.94 40-40v-16C320 451.6 316.4 448 312 448zM312 80h-240C32.3 80 0 112.3 0 152v208c0 39.69 32.3 72 72 72h240c39.7 0 72-32.31 72-72v-208C384 112.3 351.7 80 312 80zM368 360c0 30.88-25.12 56-56 56h-240c-30.88 0-56-25.12-56-56v-208C16 121.1 41.13 96 72 96h240c30.88 0 56 25.12 56 56V360zM72 64C76.42 64 80 60.41 80 56v-16c0-13.22 10.77-24 24-24h176c13.23 0 24 10.78 24 24v16C304 60.41 307.6 64 312 64S320 60.41 320 56v-16C320 17.94 302.1 0 280 0h-176C81.94 0 64 17.94 64 40v16C64 60.41 67.58 64 72 64zM288 128H96C78.33 128 64 142.3 64 160s14.33 32 32 32h192c17.67 0 32-14.33 32-32S305.7 128 288 128zM288 176H96C87.18 176 80 168.8 80 160S87.18 144 96 144h192c8.822 0 16 7.178 16 16S296.8 176 288 176zM112 320h-32C71.16 320 64 327.2 64 336v32C64 376.8 71.16 384 80 384h32C120.8 384 128 376.8 128 368v-32C128 327.2 120.8 320 112 320zM112 368h-32v-32h32V368zM208 320h-32C167.2 320 160 327.2 160 336v32C160 376.8 167.2 384 176 384h32c8.838 0 16-7.164 16-16v-32C224 327.2 216.8 320 208 320zM208 368h-32v-32h32V368zM304 320h-32c-8.836 0-16 7.164-16 16v32c0 8.836 7.164 16 16 16h32c8.838 0 16-7.164 16-16v-32C320 327.2 312.8 320 304 320zM304 368h-32v-32h32V368zM112 224h-32C71.16 224 64 231.2 64 240v32C64 280.8 71.16 288 80 288h32C120.8 288 128 280.8 128 272v-32C128 231.2 120.8 224 112 224zM112 272h-32v-32h32V272zM208 224h-32C167.2 224 160 231.2 160 240v32C160 280.8 167.2 288 176 288h32C216.8 288 224 280.8 224 272v-32C224 231.2 216.8 224 208 224zM208 272h-32v-32h32V272zM304 224h-32C263.2 224 256 231.2 256 240v32C256 280.8 263.2 288 272 288h32C312.8 288 320 280.8 320 272v-32C320 231.2 312.8 224 304 224zM304 272h-32v-32h32V272z"/></svg>