<svg xmlns="http://www.w3.org/2000/svg" viewBox="0 0 384 512"><!--! Font Awesome Pro 6.0.0-alpha3 by @fontawesome - https://fontawesome.com License - https://fontawesome.com/license (Commercial License) --><path d="M192 64C85.96 64 0 149.1 0 256s85.96 192 192 192s192-85.96 192-192S298 64 192 64zM192 432c-97.05 0-176-78.95-176-176S94.95 80 192 80s176 78.95 176 176S289 432 192 432zM200 252V160c0-4.406-3.578-8-8-8S184 155.6 184 160v96c0 2.531 1.188 4.875 3.203 6.406l64 48C252.6 311.5 254.3 312 256 312c2.422 0 4.828-1.094 6.406-3.188c2.641-3.562 1.922-8.562-1.609-11.22L200 252zM72 80c4.422 0 8-3.594 8-8v-32c0-13.22 10.77-24 24-24h176c13.23 0 24 10.78 24 24v32c0 4.406 3.578 8 8 8S320 76.41 320 72v-32C320 17.94 302.1 0 280 0h-176C81.94 0 64 17.94 64 40v32C64 76.41 67.58 80 72 80zM312 432c-4.422 0-8 3.594-8 8v32c0 13.22-10.77 24-24 24h-176c-13.23 0-24-10.78-24-24v-32c0-4.406-3.578-8-8-8S64 435.6 64 440v32C64 494.1 81.94 512 104 512h176c22.06 0 40-17.94 40-40v-32C320 435.6 316.4 432 312 432z"/></svg>