<svg xmlns="http://www.w3.org/2000/svg" viewBox="0 0 384 512"><!--! Font Awesome Pro 6.0.0-alpha3 by @fontawesome - https://fontawesome.com License - https://fontawesome.com/license (Commercial License) --><path d="M312 80h-240C32.3 80 0 112.3 0 152v208c0 39.69 32.3 72 72 72h240c39.7 0 72-32.31 72-72v-208C384 112.3 351.7 80 312 80zM368 360c0 30.88-25.12 56-56 56h-240c-30.88 0-56-25.12-56-56v-208C16 121.1 41.13 96 72 96h240c30.88 0 56 25.12 56 56V360zM312 448c-4.422 0-8 3.594-8 8v16c0 13.22-10.77 24-24 24h-176c-13.23 0-24-10.78-24-24v-16C80 451.6 76.42 448 72 448S64 451.6 64 456v16C64 494.1 81.94 512 104 512h176c22.06 0 40-17.94 40-40v-16C320 451.6 316.4 448 312 448zM72 64C76.42 64 80 60.41 80 56v-16c0-13.22 10.77-24 24-24h176c13.23 0 24 10.78 24 24v16C304 60.41 307.6 64 312 64S320 60.41 320 56v-16C320 17.94 302.1 0 280 0h-176C81.94 0 64 17.94 64 40v16C64 60.41 67.58 64 72 64zM232 256c0-22.06-17.94-40-40-40S152 233.9 152 256S169.9 296 192 296S232 278.1 232 256zM192 280C178.8 280 168 269.2 168 256S178.8 232 192 232S216 242.8 216 256S205.2 280 192 280zM280 224c-17.64 0-32 14.34-32 32s14.36 32 32 32s32-14.34 32-32S297.6 224 280 224zM280 272c-8.828 0-16-7.188-16-16s7.172-16 16-16s16 7.188 16 16S288.8 272 280 272zM136 256c0-17.66-14.36-32-32-32s-32 14.34-32 32s14.36 32 32 32S136 273.7 136 256zM104 272c-8.828 0-16-7.188-16-16s7.172-16 16-16s16 7.188 16 16S112.8 272 104 272zM144 200c17.64 0 32-14.34 32-32s-14.36-32-32-32s-32 14.34-32 32S126.4 200 144 200zM144 152c8.828 0 16 7.188 16 16s-7.172 16-16 16S128 176.8 128 168S135.2 152 144 152zM240 200c17.64 0 32-14.34 32-32s-14.36-32-32-32s-32 14.34-32 32S222.4 200 240 200zM240 152c8.828 0 16 7.188 16 16s-7.172 16-16 16S224 176.8 224 168S231.2 152 240 152zM144 312c-17.64 0-32 14.34-32 32s14.36 32 32 32s32-14.34 32-32S161.6 312 144 312zM144 360c-8.828 0-16-7.188-16-16s7.172-16 16-16S160 335.2 160 344S152.8 360 144 360zM240 312c-17.64 0-32 14.34-32 32s14.36 32 32 32s32-14.34 32-32S257.6 312 240 312zM240 360c-8.828 0-16-7.188-16-16s7.172-16 16-16s16 7.188 16 16S248.8 360 240 360z"/></svg>