<svg xmlns="http://www.w3.org/2000/svg" viewBox="0 0 384 512"><!--! Font Awesome Pro 6.0.0-alpha3 by @fontawesome - https://fontawesome.com License - https://fontawesome.com/license (Commercial License) --><path d="M72 64C76.42 64 80 60.41 80 56v-16c0-13.22 10.77-24 24-24h176c13.23 0 24 10.78 24 24v16C304 60.41 307.6 64 312 64S320 60.41 320 56v-16C320 17.94 302.1 0 280 0h-176C81.94 0 64 17.94 64 40v16C64 60.41 67.58 64 72 64zM312 448c-4.422 0-8 3.594-8 8v16c0 13.22-10.77 24-24 24h-176c-13.23 0-24-10.78-24-24v-16C80 451.6 76.42 448 72 448S64 451.6 64 456v16C64 494.1 81.94 512 104 512h176c22.06 0 40-17.94 40-40v-16C320 451.6 316.4 448 312 448zM312 80h-240C32.3 80 0 112.3 0 152v208c0 39.69 32.3 72 72 72h240c39.7 0 72-32.31 72-72v-208C384 112.3 351.7 80 312 80zM368 360c0 30.88-25.12 56-56 56h-240c-30.88 0-56-25.12-56-56v-208C16 121.1 41.13 96 72 96h240c30.88 0 56 25.12 56 56V360zM194.1 173.3L192 176.3L189.1 173.3C163.7 147.7 123.1 144.9 96.63 166.1c-14.89 12.44-23.61 29.97-24.55 49.34C71.16 235.5 78.3 254.3 91.69 267.9l84.78 85.66C180.6 357.7 186.2 360 192 360s11.36-2.312 15.56-6.5l84.75-85.63c13.38-13.59 20.53-32.38 19.61-51.56c-.9375-19.38-9.656-36.91-24.55-49.38C260.9 144.8 220.3 147.7 194.1 173.3zM280.9 256.6l-84.72 85.59c-2.312 2.312-6.156 2.281-8.406 .0313L103.1 256.6C92.83 246.2 87.36 231.8 88.06 217.1c.7187-14.88 7.406-28.31 18.81-37.84c9-7.531 20.2-11.19 31.59-11.19c14.06 0 28.42 5.594 39.25 16.56L192 198.1l14.31-14.36c19.53-19.81 50.64-22.19 70.81-5.375c11.41 9.562 18.09 23 18.81 37.88C296.6 231.8 291.2 246.2 280.9 256.6z"/></svg>