<svg xmlns="http://www.w3.org/2000/svg" viewBox="0 0 384 512"><!--! Font Awesome Pro 6.0.0-alpha3 by @fontawesome - https://fontawesome.com License - https://fontawesome.com/license (Commercial License) --><path d="M200 260V160c0-4.406-3.578-8-8-8S184 155.6 184 160v104c0 2.531 1.188 4.875 3.203 6.406l64 48C252.6 319.5 254.3 320 256 320c2.422 0 4.828-1.094 6.406-3.188c2.641-3.562 1.922-8.562-1.609-11.22L200 260zM312 448c-4.422 0-8 3.594-8 8v16c0 13.22-10.77 24-24 24h-176c-13.23 0-24-10.78-24-24v-16C80 451.6 76.42 448 72 448S64 451.6 64 456v16C64 494.1 81.94 512 104 512h176c22.06 0 40-17.94 40-40v-16C320 451.6 316.4 448 312 448zM72 64C76.42 64 80 60.41 80 56v-16c0-13.22 10.77-24 24-24h176c13.23 0 24 10.78 24 24v16C304 60.41 307.6 64 312 64S320 60.41 320 56v-16C320 17.94 302.1 0 280 0h-176C81.94 0 64 17.94 64 40v16C64 60.41 67.58 64 72 64zM312 80h-240C32.3 80 0 112.3 0 152v208c0 39.69 32.3 72 72 72h240c39.7 0 72-32.31 72-72v-208C384 112.3 351.7 80 312 80zM368 360c0 30.88-25.12 56-56 56h-240c-30.88 0-56-25.12-56-56v-208C16 121.1 41.13 96 72 96h240c30.88 0 56 25.12 56 56V360z"/></svg>