<svg xmlns="http://www.w3.org/2000/svg" viewBox="0 0 512 512"><!--! Font Awesome Pro 6.0.0-alpha3 by @fontawesome - https://fontawesome.com License - https://fontawesome.com/license (Commercial License) --><path d="M448 32H64C28.65 32 0 60.65 0 96v320c0 35.35 28.65 64 64 64h384c35.35 0 64-28.65 64-64V96C512 60.65 483.3 32 448 32zM496 416c0 26.47-21.53 48-48 48H64c-26.47 0-48-21.53-48-48V96c0-26.47 21.53-48 48-48h384c26.47 0 48 21.53 48 48V416zM96 112C87.16 112 80 119.2 80 128S87.16 144 96 144S112 136.8 112 128S104.8 112 96 112zM192 112C183.2 112 176 119.2 176 128S183.2 144 192 144S208 136.8 208 128S200.8 112 192 112zM288 112c-8.836 0-16 7.164-16 16s7.164 16 16 16s16-7.164 16-16S296.8 112 288 112z"/></svg>