<svg xmlns="http://www.w3.org/2000/svg" viewBox="0 0 512 512"><!--! Font Awesome Pro 6.0.0-alpha3 by @fontawesome - https://fontawesome.com License - https://fontawesome.com/license (Commercial License) --><path d="M320 128H64c-35.35 0-64 28.65-64 64v256c0 35.35 28.65 64 64 64h256c35.35 0 64-28.65 64-64v-256C384 156.7 355.3 128 320 128zM368 448c0 26.47-21.53 48-48 48H64c-26.47 0-48-21.53-48-48V272h352V448zM368 256h-352V192c0-26.47 21.53-48 48-48h256c26.47 0 48 21.53 48 48V256zM448 .0001H192c-35.35 0-64 28.65-64 63.1V88C128 92.42 131.6 96 136 96S144 92.42 144 88V64c0-26.51 21.49-48 48-48h256c26.51 0 48 21.49 48 48v256c0 26.51-21.49 48-48 48h-24c-4.418 0-8 3.582-8 8S419.6 384 424 384L448 384c35.35 0 64-28.65 64-64v-256C512 28.65 483.3 .0001 448 .0001z"/></svg>