<svg xmlns="http://www.w3.org/2000/svg" viewBox="0 0 512 512"><!--! Font Awesome Pro 6.0.0-alpha3 by @fontawesome - https://fontawesome.com License - https://fontawesome.com/license (Commercial License) --><path d="M448 32H64C28.65 32 0 60.65 0 96v320c0 35.35 28.65 64 64 64h384c35.35 0 64-28.65 64-64V96C512 60.65 483.3 32 448 32zM496 416c0 26.47-21.53 48-48 48H64c-26.47 0-48-21.53-48-48V96c0-26.47 21.53-48 48-48h384c26.47 0 48 21.53 48 48V416zM224 112C215.2 112 208 119.2 208 128S215.2 144 224 144S240 136.8 240 128S232.8 112 224 112zM320 112c-8.836 0-16 7.164-16 16s7.164 16 16 16s16-7.164 16-16S328.8 112 320 112zM416 112c-8.836 0-16 7.164-16 16s7.164 16 16 16s16-7.164 16-16S424.8 112 416 112z"/></svg>