<svg xmlns="http://www.w3.org/2000/svg" viewBox="0 0 512 512"><!--! Font Awesome Pro 6.0.0-alpha3 by @fontawesome - https://fontawesome.com License - https://fontawesome.com/license (Commercial License) --><path d="M504 280h-77.95l61.7-237.1c1.109-4.266-1.469-8.641-5.75-9.75c-4.297-1.109-8.64 1.484-9.75 5.75l-62.74 241.1h-83.02l-62.74-241.1c-1.844-7.062-13.66-7.062-15.5 0L185.5 280H102.5L39.75 38.01c-1.109-4.266-5.422-6.859-9.75-5.75C25.72 33.37 23.14 37.74 24.25 42.01l61.7 237.1H8c-4.422 0-8 3.58-8 8.002s3.578 7.998 8 7.998h82.1l46.15 177.1c1.844 7.062 13.66 7.062 15.5 0l46.15-177.1h116.2l46.15 177.1c.9219 3.531 4.109 5.1 7.75 5.1s6.828-2.469 7.75-5.1l46.15-177.1H504c4.422 0 8-3.576 8-7.998S508.4 280 504 280zM144 440.1L106.6 296h74.73L144 440.1zM202 280L256 71.88l53.96 208.1H202zM368 440.1l-37.36-144.1h74.73L368 440.1z"/></svg>