<svg xmlns="http://www.w3.org/2000/svg" viewBox="0 0 320 512"><!--! Font Awesome Pro 6.0.0-alpha3 by @fontawesome - https://fontawesome.com License - https://fontawesome.com/license (Commercial License) --><path d="M318.5 44.6l-143.1 203.4H296c4.422 0 8 3.592 8 7.997c0 4.406-3.578 8.001-8 8.001h-128v80h128c4.422 0 8 3.592 8 7.999s-3.578 8.001-8 8.001h-128V472c0 4.406-3.578 8-8 8s-8-3.594-8-8v-111.1h-128c-4.422 0-8-3.595-8-8.001s3.578-7.999 8-7.999h128v-80h-128c-4.422 0-8-3.595-8-8.001c0-4.404 3.578-7.997 8-7.997h120.6L1.453 44.6C-1.078 41.01-.2188 36.01 3.391 33.47C7.016 30.88 12 31.82 14.55 35.41L160 242.1l145.5-206.7C308 31.82 313 30.88 316.6 33.47C320.2 36.01 321.1 41.01 318.5 44.6z"/></svg>