<svg xmlns="http://www.w3.org/2000/svg" viewBox="0 0 512 512"><!--! Font Awesome Pro 6.0.0-alpha3 by @fontawesome - https://fontawesome.com License - https://fontawesome.com/license (Commercial License) --><path d="M272 296V176c0-8.844-7.156-16-15.1-16S240 167.2 240 176v128c0 5.031 2.375 9.781 6.406 12.8l64 48C313.3 366.1 316.6 368 319.1 368c4.875 0 9.672-2.203 12.81-6.406c2.162-2.875 3.207-6.244 3.207-9.584c0-4.863-2.213-9.666-6.41-12.81L272 296zM41.61 156.8C48.67 151.5 50.09 141.5 44.8 134.4C36.42 123.3 32 109.1 32 96c0-35.3 28.7-64 64-64c13.97 0 27.25 4.422 38.39 12.8c7.031 5.297 17.11 3.891 22.41-3.188C162.1 34.55 160.7 24.52 153.6 19.2C136.9 6.641 116.9 0 95.1 0c-52.94 0-96 43.06-96 96c0 20.95 6.644 40.88 19.21 57.61C22.34 157.8 27.16 160 32.02 160C35.36 160 38.73 158.1 41.61 156.8zM256 64C132.3 64 32 164.3 32 288c0 56.09 20.76 107.2 54.84 146.5l-50.15 50.15c-6.25 6.25-6.25 16.38 0 22.62C39.81 510.4 43.91 512 48 512s8.188-1.562 11.31-4.688l50.15-50.15C148.8 491.2 199.9 512 256 512s107.2-20.76 146.5-54.84l50.15 50.15C455.8 510.4 459.9 512 464 512s8.188-1.562 11.31-4.688c6.25-6.25 6.25-16.38 0-22.62l-50.15-50.15c34.07-39.3 54.84-90.45 54.84-146.5C479.1 164.3 379.7 64 256 64zM256 480c-105.9 0-192-86.13-192-192s86.13-192 192-192s192 86.13 192 192S361.9 480 256 480zM415.1 0c-20.95 0-40.87 6.641-57.61 19.2c-7.062 5.312-8.484 15.34-3.188 22.41c5.297 7.078 15.36 8.516 22.41 3.188C388.8 36.42 402 32 416 32c35.3 0 64 28.7 64 64c0 13.97-4.422 27.25-12.8 38.39c-5.297 7.062-3.875 17.09 3.188 22.41C473.3 158.1 476.6 160 479.1 160c4.859 0 9.672-2.203 12.81-6.391C505.4 136.9 511.1 116.1 511.1 96C511.1 43.06 468.9 0 415.1 0z"/></svg>