<svg xmlns="http://www.w3.org/2000/svg" viewBox="0 0 448 512"><!--! Font Awesome Pro 6.0.0-alpha3 by @fontawesome - https://fontawesome.com License - https://fontawesome.com/license (Commercial License) --><path d="M16 208h416c8.801 0 16-7.199 16-15.1S440.8 176 432 176h-416C7.199 176 0 183.2 0 192S7.199 208 16 208zM112 80h224c8.801 0 16-7.199 16-15.1S344.8 48 336 48h-224C103.2 48 96 55.2 96 64S103.2 80 112 80zM432 432h-416c-8.801 0-16 7.199-16 16S7.199 464 16 464h416c8.801 0 16-7.199 16-15.1S440.8 432 432 432zM112 304C103.2 304 96 311.2 96 320S103.2 336 112 336h224c8.801 0 16-7.199 16-15.1S344.8 304 336 304H112z"/></svg>