<svg xmlns="http://www.w3.org/2000/svg" viewBox="0 0 640 512"><!--! Font Awesome Pro 6.0.0-alpha3 by @fontawesome - https://fontawesome.com License - https://fontawesome.com/license (Commercial License) --><path d="M528 304h-43.91l40.53 32h3.381c8.838 0 15.1-7.164 15.1-15.1C544 311.2 536.8 304 528 304zM528 80c8.801 0 15.1-7.201 15.1-15.1C544 55.2 536.8 48 528 48H159.8l40.53 32H528zM528 176h-206l40.53 32h165.5c8.801 0 15.1-7.201 15.1-15.1C544 183.2 536.8 176 528 176zM111.1 336h206l-40.53-32H111.1c-8.801 0-15.1 7.201-15.1 16C95.1 328.8 103.2 336 111.1 336zM111.1 432c-8.801 0-15.1 7.2-15.1 16C95.1 456.8 103.2 464 111.1 464h368.2l-40.53-32H111.1zM633.9 483.4L25.92 3.42C18.98-2.033 8.921-.8301 3.437 6.061c-5.469 6.938-4.281 17 2.641 22.48l608 480C617 510.9 620.5 512 623.1 512c4.734 0 9.422-2.094 12.58-6.078C642 498.1 640.8 488.9 633.9 483.4zM111.1 208h43.91l-40.53-32H111.1c-8.801 0-15.1 7.2-15.1 16C95.1 200.8 103.2 208 111.1 208z"/></svg>