<svg xmlns="http://www.w3.org/2000/svg" viewBox="0 0 448 512"><!--! Font Awesome Pro 6.0.0-alpha3 by @fontawesome - https://fontawesome.com License - https://fontawesome.com/license (Commercial License) --><path d="M176 80h256c8.801 0 16-7.199 16-15.1S440.8 48 432 48h-256C167.2 48 160 55.2 160 64S167.2 80 176 80zM432 432h-416c-8.799 0-16 7.199-16 16S7.201 464 16 464h416c8.801 0 16-7.199 16-15.1S440.8 432 432 432zM432 176h-416C7.201 176 0 183.2 0 192S7.201 208 16 208h416c8.801 0 16-7.199 16-15.1S440.8 176 432 176zM432 304h-256C167.2 304 160 311.2 160 320S167.2 336 176 336h256c8.801 0 16-7.199 16-15.1S440.8 304 432 304z"/></svg>