<svg xmlns="http://www.w3.org/2000/svg" viewBox="0 0 576 512"><!--! Font Awesome Pro 6.0.0-alpha3 by @fontawesome - https://fontawesome.com License - https://fontawesome.com/license (Commercial License) --><path d="M571.3 324.7l-63.1-64c-6.25-6.25-16.37-6.25-22.62 0l-63.1 64c-6.25 6.25-6.25 16.38 0 22.62s16.38 6.25 22.62 0L480 310.6V336c0 79.41-64.59 144-144 144h-32V224h64C376.8 224 384 216.8 384 208S376.8 192 368 192h-64V158.4c36.47-7.434 64-39.75 64-78.38c0-44.11-35.89-80-79.1-80S208 35.89 208 80c0 38.63 27.53 70.95 64 78.38V192h-64C199.2 192 192 199.2 192 208S199.2 224 208 224h64v256h-32C160.6 480 96 415.4 96 336V310.6l36.69 36.69C135.8 350.4 139.9 352 144 352s8.184-1.562 11.31-4.688c6.25-6.25 6.254-16.38 .0037-22.62l-63.1-64c-6.25-6.25-16.37-6.25-22.62 0l-63.1 64c-6.25 6.25-6.256 16.38-.0059 22.62s16.38 6.25 22.62 0L64 310.6V336C64 433 142.1 512 240 512h95.1C433 512 512 433 512 336V310.6l36.69 36.69C551.8 350.4 555.9 352 559.1 352s8.189-1.562 11.31-4.688C577.6 341.1 577.6 330.9 571.3 324.7zM240 80C240 53.53 261.5 32 288 32s48 21.53 48 48S314.5 128 288 128S240 106.5 240 80z"/></svg>