<svg xmlns="http://www.w3.org/2000/svg" viewBox="0 0 576 512"><!--! Font Awesome Pro 6.0.0-alpha3 by @fontawesome - https://fontawesome.com License - https://fontawesome.com/license (Commercial License) --><path d="M560 480H544V32h16C568.8 32 576 24.8 576 16S568.8 0 560 0h-544C7.199 0 0 7.199 0 16S7.199 32 16 32H32v448H16C7.199 480 0 487.2 0 496S7.199 512 16 512h160C184.8 512 192 504.8 192 496l0-172.8c0-52.84 41.32-98.2 94.16-99.19C340 223 384 266.4 384 320v176c0 8.836 7.164 16 16 16h160c8.801 0 16-7.199 16-16S568.8 480 560 480zM512 480h-96v-160c0-70.63-57.38-128-128-128s-128 57.38-128 128v160H64V128h448V480zM512 96H64V32h448V96z"/></svg>