<svg xmlns="http://www.w3.org/2000/svg" viewBox="0 0 576 512"><!--! Font Awesome Pro 6.0.0-alpha3 by @fontawesome - https://fontawesome.com License - https://fontawesome.com/license (Commercial License) --><path d="M576 112V288c0 8.844-7.156 16-16 16S544 296.8 544 288V150.6l-212.7 212.7C328.2 366.4 324.1 368 320 368s-8.188-1.562-11.31-4.688L192 246.6l-164.7 164.7C24.19 414.4 20.09 416 16 416C6.861 416 0 408.5 0 400c0-4.094 1.562-8.188 4.688-11.31l176-176C183.8 209.6 187.9 208 192 208s8.188 1.562 11.31 4.688L320 329.4L521.4 128H384c-8.844 0-16-7.156-16-16S375.2 96 384 96h176C568.8 96 576 103.2 576 112z"/></svg>