<svg xmlns="http://www.w3.org/2000/svg" viewBox="0 0 576 512"><!--! Font Awesome Pro 6.0.0-alpha3 by @fontawesome - https://fontawesome.com License - https://fontawesome.com/license (Commercial License) --><path d="M576 224v176c0 8.844-7.156 16-16 16H384c-8.844 0-16-7.156-16-16S375.2 384 384 384h137.4L320 182.6L203.3 299.3C200.2 302.4 196.1 304 192 304S183.8 302.4 180.7 299.3l-176-176C1.563 120.2 0 116.1 0 112C0 102.9 7.473 96 16 96c4.094 0 8.188 1.562 11.31 4.688L192 265.4l116.7-116.7C311.8 145.6 315.9 144 320 144s8.188 1.562 11.31 4.688L544 361.4V224c0-8.844 7.156-16 16-16S576 215.2 576 224z"/></svg>