<svg xmlns="http://www.w3.org/2000/svg" viewBox="0 0 448 512"><!--! Font Awesome Pro 6.0.0-alpha3 by @fontawesome - https://fontawesome.com License - https://fontawesome.com/license (Commercial License) --><path d="M432 320h-75.55l-27.08-64H432C440.8 256 448 248.8 448 240S440.8 224 432 224h-116.2l-77.1-182.2c-5-11.84-24.47-11.84-29.47 0L132.2 224H16C7.156 224 0 231.2 0 240S7.156 256 16 256h102.6l-27.08 64H16C7.156 320 0 327.2 0 336S7.156 352 16 352h62.01l-44.75 105.8c-3.438 8.141 .3594 17.53 8.5 20.97c8.047 3.406 17.52-.3438 20.97-8.5L112.8 352h222.5l50.02 118.2C387.8 476.3 393.8 480 400 480c2.078 0 4.203-.4062 6.234-1.266c8.141-3.438 11.94-12.83 8.5-20.97L369.1 352H432c8.844 0 16-7.156 16-16S440.8 320 432 320zM224 89.06L281.1 224H166.9L224 89.06zM126.3 320l27.08-64h141.3l27.08 64H126.3z"/></svg>