<svg xmlns="http://www.w3.org/2000/svg" viewBox="0 0 512 512"><!--! Font Awesome Pro 6.0.0-alpha3 by @fontawesome - https://fontawesome.com License - https://fontawesome.com/license (Commercial License) --><path d="M496 95.99l-32 .0196c-26.51 0-48 21.49-48 48v48h-135.3l-106.5-167.5c-8-12.62-21.12-21.25-36.25-23.75c-14.75-2.5-29.75 1.25-41.25 10.38C35.25 60.26 0 132 0 208V224c0 67.25 40.3 126.3 101.3 160.5C99.55 384.4 97.75 384 96 384c-40.18 0-71.91 37.36-62.25 79.11c5.338 23.07 24.08 41.81 47.15 47.15C122.6 519.9 160 488.2 160 448c0-18.12-7.625-34.24-19.62-45.99C166.3 410.9 194.4 415.1 224 415.1s57.74-4.975 83.62-13.98c-15.53 15.04-23.72 37.82-17.55 62.4c5.592 22.27 23.74 40.22 46.05 45.65C378.2 520.3 416 488.4 416 448c0-35.25-28.75-64-64-64c-1.75 0-3.528 .3935-5.278 .5185C407.7 350.3 448 291.2 448 223.1V144c0-8.801 7.199-16 16-16h32c8.801 0 16-7.22 16-16.02C512 103.2 504.8 95.99 496 95.99zM116.8 36.13c6-4.75 12.62-4.375 16-3.875c6.125 1 11.5 4.5 14.5 9.375l95.63 150.4H32.63C37.25 131.8 67.25 75.76 116.8 36.13zM96 480c-17.62 0-32-14.38-32-32s14.38-32 32-32s32 14.38 32 32S113.6 480 96 480zM352 416c17.62 0 32 14.38 32 32s-14.38 32-32 32s-32-14.38-32-32S334.4 416 352 416zM224 384c-105.9 0-192-71.75-192-160h384C416 312.3 329.9 384 224 384z"/></svg>