<svg xmlns="http://www.w3.org/2000/svg" viewBox="0 0 576 512"><!--! Font Awesome Pro 6.0.0-alpha3 by @fontawesome - https://fontawesome.com License - https://fontawesome.com/license (Commercial License) --><path d="M528 256h-288c-26.47 0-48 21.53-48 48v160C192 490.5 213.5 512 240 512h288c26.47 0 48-21.53 48-47.1v-160C576 277.5 554.5 256 528 256zM544 464c0 8.828-7.172 16-16 16h-288C231.2 480 224 472.8 224 464v-160C224 295.2 231.2 288 240 288h288C536.8 288 544 295.2 544 304V464zM144 448h-96C39.17 448 32 440.8 32 432v-224C32 199.2 39.17 192 48 192h352C408.8 192 416 199.2 416 208C416 216.8 423.2 224 432 224S448 216.8 448 208c0-26.47-21.53-48-48-48L320 160V96c0-52.94-43.06-96-96-96S128 43.06 128 96v64L48 160c-26.47 0-48 21.53-48 48v224c0 26.47 21.53 48 48 48L144 480C152.8 480 160 472.8 160 464S152.8 448 144 448zM160 96c0-35.3 28.7-64 64-64s64 28.7 64 64v64H160V96zM464 320c-8.844 0-16 7.155-16 15.1v15.1C448 387.3 419.3 416 384 416s-64-28.7-64-64v-16c0-8.844-7.156-16-16-16S288 327.2 288 336V352c0 52.94 43.06 96 96 96s96-43.07 96-96v-15.1C480 327.2 472.8 320 464 320z"/></svg>