<svg xmlns="http://www.w3.org/2000/svg" viewBox="0 0 320 512"><!--! Font Awesome Pro 6.0.0-alpha3 by @fontawesome - https://fontawesome.com License - https://fontawesome.com/license (Commercial License) --><path d="M252.9 233.6C274.2 215.9 288 189.7 288 160c0-52.94-43.06-96-96-96h-32V16C160 7.156 152.8 0 144 0S128 7.156 128 16V64H16C7.156 64 0 71.16 0 80v352C0 440.8 7.156 448 16 448H128v48C128 504.8 135.2 512 144 512s16-7.156 16-16V448h48c61.75 0 112-50.25 112-112C320 290.2 292.3 250.9 252.9 233.6zM192 96c35.28 0 64 28.72 64 64s-28.72 64-64 64h-32V96H192zM32 96h96v128H32V96zM32 416V256h96v160H32zM208 416H160V256h48c44.13 0 80 35.88 80 80S252.1 416 208 416z"/></svg>