<svg xmlns="http://www.w3.org/2000/svg" viewBox="0 0 512 512"><!--! Font Awesome Pro 6.0.0-alpha3 by @fontawesome - https://fontawesome.com License - https://fontawesome.com/license (Commercial License) --><path d="M192 384c8.844 0 16-7.156 16-16V320h44.13l-32-32H208V275.9l-32-32V368C176 376.8 183.2 384 192 384zM256 0C114.6 0 0 114.6 0 256c0 141.4 114.6 256 256 256s256-114.6 256-256C512 114.6 397.4 0 256 0zM256 480c-123.5 0-224-100.5-224-224c0-56.01 20.81-107.2 54.91-146.5l315.6 315.6C363.2 459.2 312 480 256 480zM208 185.4V160H288c35.28 0 64 28.72 64 64c0 28.51-18.87 52.44-44.68 60.69L208 185.4zM425.1 402.5l-93.49-93.49C362.6 293.2 384 261.2 384 224c0-52.94-43.06-96-96-96H208C192.3 128 179.8 139.6 177.1 154.5L109.5 86.91C148.8 52.81 199.1 32 256 32c123.5 0 224 100.5 224 224C480 312 459.2 363.2 425.1 402.5z"/></svg>