<svg xmlns="http://www.w3.org/2000/svg" viewBox="0 0 384 512"><!--! Font Awesome Pro 6.0.0-alpha3 by @fontawesome - https://fontawesome.com License - https://fontawesome.com/license (Commercial License) --><path d="M384 272c0 114.7-93.31 208-208 208C131.9 480 96 444.1 96 400V224H48C39.16 224 32 216.8 32 208S39.16 192 48 192H96V112C96 85.53 74.47 64 48 64C39.16 64 32 56.84 32 48S39.16 32 48 32C92.13 32 128 67.88 128 112V192h48C184.8 192 192 199.2 192 208S184.8 224 176 224H128v176C128 426.5 149.5 448 176 448c97.03 0 176-78.97 176-176C352 245.5 330.5 224 304 224h-32C263.2 224 256 216.8 256 208S263.2 192 272 192h32C348.1 192 384 227.9 384 272z"/></svg>