<svg xmlns="http://www.w3.org/2000/svg" viewBox="0 0 512 512"><!--! Font Awesome Pro 6.0.0-alpha3 by @fontawesome - https://fontawesome.com License - https://fontawesome.com/license (Commercial License) --><path d="M496 32C487.2 32 480 39.16 480 48v416c0 8.844 7.156 16 16 16s16-7.156 16-16v-416C512 39.16 504.8 32 496 32zM400 32C391.2 32 384 39.16 384 48v416c0 8.844 7.156 16 16 16s16-7.156 16-16v-416C416 39.16 408.8 32 400 32zM304 32C295.2 32 288 39.16 288 48v416c0 8.844 7.156 16 16 16s16-7.156 16-16v-416C320 39.16 312.8 32 304 32zM240 32C231.2 32 224 39.16 224 48v416C224 472.8 231.2 480 240 480s16-7.156 16-16v-416C256 39.16 248.8 32 240 32zM144 32C135.2 32 127.1 39.16 127.1 47.1v416C127.1 472.8 135.2 480 144 480S160 472.8 160 464v-416C160 39.16 152.8 32 144 32zM80 32C71.16 32 64 39.16 64 48v416C64 472.8 71.16 480 80 480s15.1-7.156 15.1-15.1V47.1C95.1 39.16 88.84 32 80 32zM16 32C7.156 32 0 39.16 0 48v416C0 472.8 7.156 480 16 480S32 472.8 32 464v-416C32 39.16 24.84 32 16 32z"/></svg>