<svg xmlns="http://www.w3.org/2000/svg" viewBox="0 0 576 512"><!--! Font Awesome Pro 6.0.0-alpha3 by @fontawesome - https://fontawesome.com License - https://fontawesome.com/license (Commercial License) --><path d="M208 128C199.2 128 192 135.2 192 144v224C192 376.8 199.2 384 208 384S224 376.8 224 368v-224C224 135.2 216.8 128 208 128zM432 384c8.844 0 16-7.155 16-15.1v-224C448 135.2 440.8 128 432 128S416 135.2 416 144v224C416 376.8 423.2 384 432 384zM272 128C263.2 128 256 135.2 256 144v224C256 376.8 263.2 384 272 384s16-7.156 16-16v-224C288 135.2 280.8 128 272 128zM352 128c-8.844 0-16 7.156-16 16v224c0 8.844 7.156 16 16 16s16-7.156 16-16v-224C368 135.2 360.8 128 352 128zM144 128C135.2 128 128 135.2 128 144v224C128 376.8 135.2 384 144 384S160 376.8 160 368v-224C160 135.2 152.8 128 144 128zM144 0h-128C7.156 0 0 7.156 0 16v128C0 152.8 7.156 160 16 160S32 152.8 32 144V32h112C152.8 32 160 24.84 160 16S152.8 0 144 0zM560 0h-128C423.2 0 416 7.156 416 16S423.2 32 432 32H544v112C544 152.8 551.2 160 560 160S576 152.8 576 144v-128C576 7.156 568.8 0 560 0zM560 352c-8.844 0-16 7.156-16 16V480h-112c-8.844 0-16 7.156-16 16s7.156 16 16 16h128c8.844 0 16-7.156 16-16v-128C576 359.2 568.8 352 560 352zM144 480H32v-112C32 359.2 24.84 352 16 352S0 359.2 0 368v128C0 504.8 7.156 512 16 512h128C152.8 512 160 504.8 160 496S152.8 480 144 480z"/></svg>