<svg xmlns="http://www.w3.org/2000/svg" viewBox="0 0 448 512"><!--! Font Awesome Pro 6.0.0-alpha3 by @fontawesome - https://fontawesome.com License - https://fontawesome.com/license (Commercial License) --><path d="M16 112h416c8.844 0 16-7.156 16-15.1S440.8 80 432 80h-416C7.156 80 0 87.16 0 95.1S7.156 112 16 112zM304 240h-288C7.156 240 0 247.2 0 255.1C0 264.8 7.156 272 16 272h288c8.844 0 16-7.156 16-15.1C320 247.2 312.8 240 304 240zM176 400h-160c-8.844 0-16 7.156-16 15.1S7.156 432 16 432h160c8.844 0 16-7.156 16-15.1S184.8 400 176 400z"/></svg>