<svg xmlns="http://www.w3.org/2000/svg" viewBox="0 0 448 512"><!--! Font Awesome Pro 6.0.0-alpha3 by @fontawesome - https://fontawesome.com License - https://fontawesome.com/license (Commercial License) --><path d="M16 112h416c8.844 0 16-7.156 16-15.1S440.8 80 432 80h-416C7.156 80 0 87.16 0 95.1S7.156 112 16 112zM368 240h-288C71.16 240 64 247.2 64 255.1C64 264.8 71.16 272 80 272h288c8.844 0 16-7.156 16-15.1C384 247.2 376.8 240 368 240zM272 400h-96c-8.844 0-16 7.156-16 15.1S167.2 432 176 432h96c8.844 0 16-7.156 16-15.1S280.8 400 272 400z"/></svg>