<svg xmlns="http://www.w3.org/2000/svg" viewBox="0 0 512 512"><!--! Font Awesome Pro 6.0.0-alpha3 by @fontawesome - https://fontawesome.com License - https://fontawesome.com/license (Commercial License) --><path d="M480 32H32C14.33 32 0 46.33 0 64v64c0 17.67 14.33 32 32 32h448c17.67 0 32-14.33 32-32V64C512 46.33 497.7 32 480 32zM352 128H32V64h320V128zM480 128h-96V64h96V128zM480 192H32C14.33 192 0 206.3 0 224v64c0 17.67 14.33 32 32 32h448c17.67 0 32-14.33 32-32V224C512 206.3 497.7 192 480 192zM128 288H32V224h96V288zM480 288H160V224h320V288zM480 352H32c-17.67 0-32 14.33-32 32v64c0 17.67 14.33 32 32 32h448c17.67 0 32-14.33 32-32v-64C512 366.3 497.7 352 480 352zM256 448H32v-64h224V448zM480 448h-192v-64h192V448z"/></svg>