<svg xmlns="http://www.w3.org/2000/svg" viewBox="0 0 512 512"><!--! Font Awesome Pro 6.0.0-alpha3 by @fontawesome - https://fontawesome.com License - https://fontawesome.com/license (Commercial License) --><path d="M256 15.1C123.5 15.1 16 123.5 16 256S123.5 495.1 256 495.1S495.1 388.5 495.1 256S388.5 15.1 256 15.1zM463.1 256.4c-50.64 1.873-96.84 21.14-132.8 52.16L278.6 256l135.2-135.2C445 157.2 464 204.4 464 256C464 256.1 463.1 256.3 463.1 256.4zM391.2 413.8c-28.56 24.51-63.81 41.27-102.6 47.41c2.383-40.74 17.91-77.98 42.63-107.4L391.2 413.8zM391.2 98.22L256 233.4L203.4 180.8C234.5 144.9 253.7 98.67 255.6 48.02C255.7 48.02 255.9 48 256 48C307.6 48 354.8 66.1 391.2 98.22zM120.8 98.22c28.56-24.51 63.81-41.27 102.6-47.41c-2.383 40.74-17.91 77.98-42.63 107.4L120.8 98.22zM98.22 120.8l59.98 59.98c-29.4 24.72-66.64 40.25-107.4 42.63C56.95 184.7 73.71 149.4 98.22 120.8zM48.02 255.6C98.67 253.7 144.9 234.5 180.8 203.4L233.4 256l-135.2 135.2C66.1 354.8 48 307.6 48 256C48 255.9 48.02 255.7 48.02 255.6zM120.8 413.8L256 278.6l52.56 52.56c-31.02 35.95-50.28 82.14-52.16 132.8C256.3 463.1 256.1 464 256 464C204.4 464 157.2 445 120.8 413.8zM413.8 391.2l-59.98-59.98c29.4-24.72 66.64-40.25 107.4-42.63C455.1 327.3 438.3 362.6 413.8 391.2z"/></svg>