<svg xmlns="http://www.w3.org/2000/svg" viewBox="0 0 576 512"><!--! Font Awesome Pro 6.0.0-alpha3 by @fontawesome - https://fontawesome.com License - https://fontawesome.com/license (Commercial License) --><path d="M176 320C167.2 320 160 327.2 160 336v96c0 8.834 7.168 15.1 16 15.1c8.834 0 16-7.166 16-15.1V336C192 327.2 184.8 320 176 320zM288 319.1c-8.832 0-16 7.168-16 16v96c0 8.834 7.168 15.1 16 15.1c8.834 0 16-7.165 16-15.1V336C304 327.2 296.8 319.1 288 319.1zM400 320c-8.832 0-16 7.166-16 16v96c0 8.834 7.168 15.1 16 15.1c8.834 0 16-7.166 16-15.1V336C416 327.2 408.8 320 400 320zM560 192L419.1 192l-68.11-181.6c-3.109-8.297-12.31-12.42-20.61-9.359c-8.266 3.109-12.45 12.33-9.359 20.61L384.9 192H191.1l63.89-170.4c3.094-8.281-1.094-17.5-9.359-20.61C237.3-2.062 228.1 2.078 225 10.38L156.9 192L16 192c-8.836 0-16 7.162-16 15.1C0 216.8 7.164 224 16 224H32l52.86 237.9C91.37 491.2 117.3 512 147.3 512h281.3c29.1 0 55.97-20.83 62.48-50.12L544 224h16C568.8 224 576 216.8 576 208C576 199.2 568.8 192 560 192zM459.9 454.9C456.6 469.7 443.8 480 428.7 480H147.3c-15.11 0-27.96-10.3-31.24-25.06L64.78 224h80.13l-15.89 42.38c-3.094 8.281 1.094 17.5 9.359 20.61C140.2 287.7 142.1 288 144 288c6.469 0 12.58-3.953 14.98-10.38L179.1 224h217.8l20.11 53.63C419.4 284 425.5 288 432 288c1.875 0 3.766-.3281 5.625-1.016c8.266-3.109 12.45-12.33 9.359-20.61L431.1 224h80.13L459.9 454.9z"/></svg>