<svg xmlns="http://www.w3.org/2000/svg" viewBox="0 0 640 512"><!--! Font Awesome Pro 6.0.0-alpha3 by @fontawesome - https://fontawesome.com License - https://fontawesome.com/license (Commercial License) --><path d="M272 32C369 32 448 111 448 208c0 20.8-3.822 40.68-10.49 59.23l26.13 20.63c14.91-35.57 20.53-76.01 12.86-118.6c-14.8-82.13-80.19-148.9-162.1-165.1C252.6-8.018 194.5 7.416 149.8 40.05l26.19 20.68C203.6 42.63 236.6 32 272 32zM262.4 128.1l88.7 70.03c-4.537-39.84-38.05-70.1-79.09-70.1C268.7 128 265.6 128.6 262.4 128.1zM464 480H416v-66.68l-32-25.26V448c0 17.67-14.33 32-32 32H192c-17.67 0-32-14.33-32-32v-64.88c32.38 20.75 70.75 32.87 112 32.87c39.75 0 76.69-11.47 108.3-30.85l-26.93-21.26C329 376.7 301.4 384 272 384C175 384 96 305 96 208c0-14.84 2.051-29.17 5.529-42.95L74.38 143.6c-6.611 20.3-10.38 41.88-10.38 64.39c0 58.88 24.62 111.1 63.1 149.8L128 448c0 35.2 28.8 64 64 64l272-.002c19.98 0 38.19-7.418 52.18-19.59l-26.21-20.69C482.4 476.7 473.7 480 464 480zM633.9 483.4L25.9 3.418C18.1-2.02 8.936-.8477 3.436 6.059c-5.469 6.939-4.281 17 2.656 22.49l608 480C617 510.9 620.5 512 624 512c4.719 0 9.406-2.094 12.56-6.078C642 498.1 640.8 488.9 633.9 483.4z"/></svg>