<svg xmlns="http://www.w3.org/2000/svg" viewBox="0 0 640 512"><!--! Font Awesome Pro 6.0.0-alpha3 by @fontawesome - https://fontawesome.com License - https://fontawesome.com/license (Commercial License) --><path d="M204.6 403.9c-7.391-4.877-17.3-2.812-22.16 4.562c-7.016 10.67-20.36 15.44-32.41 11.55c-12.02-3.906-20.02-15.58-19.47-28.38c.375-8.828-6.469-16.3-15.3-16.67c-8.719-.4844-16.3 6.469-16.67 15.3c-1.156 27.1 15.92 51.85 41.58 60.21c6.031 1.938 12.22 2.875 18.33 2.875c19.95 0 39.25-9.953 50.66-27.28C214 418.6 211.1 408.7 204.6 403.9zM260.1 365.7L37.42 293c-4.062-1.328-5.172-4.328-5.375-6.609c-.125-1.203-.1719-5.312 3.891-7.547l3.594-1.969C59.9 265.8 94.01 247.2 117.9 173.2c.75-2.484 11.47-35.92 12.22-38.16c8.391-26.08 26.45-47.3 50.84-59.77c24.5-12.52 52.44-14.67 78.66-6.156C266.8 71.45 273.6 74.5 279.9 78.19C287.6 82.67 297.4 80.06 301.8 72.44c4.453-7.625 1.891-17.42-5.75-21.88C287.8 45.72 278.8 41.73 269.5 38.7C235.2 27.53 198.6 30.39 166.4 46.8c-32.02 16.36-55.72 44.22-66.69 78.27C99.11 127 87.87 162.1 87.37 163.8C67.5 225.2 41.47 239.4 24.23 248.8L20.45 250.9C6.67 258.4-1.283 273.5 .1699 289.3c1.469 15.99 11.92 29.05 27.31 34.1l223.6 72.72c1.641 .5313 3.312 .7813 4.953 .7813c6.75 0 13.02-4.297 15.22-11.05C273.1 377.5 269.4 368.4 260.1 365.7zM618.5 275.4l-3.781-1.875c-17.69-8.688-44.41-21.81-66.78-83.39c-1.156-2.924-12.95-35.5-13.67-37.47c-25.56-69.8-103.3-105.8-173.3-80.46c-33.97 12.31-61.08 37.1-76.33 69.8C269.4 174.6 267.9 211.1 280.2 244.8C280.8 246.7 293.5 281.1 294.2 282.9c22.14 60.69 10.33 87.86 2.5 105.8l-1.703 3.984c-6.234 14.41-3.219 31.22 7.672 42.8c7.688 8.188 17.97 12.55 28.66 12.55c4.594 0 9.281-.8125 13.86-2.453l268.7-97.41c14.84-5.424 25.09-19.28 26.11-35.33C640.9 297.1 632.7 282.7 618.5 275.4zM602.9 318.1l-268.6 97.38c-4.047 1.5-6.766-.2187-8.312-1.891c-.8438-.8906-3.406-4.078-1.562-8.344l1.625-3.766c9.25-21.28 24.73-56.88-1.906-129.9c-.875-2.25-13.14-35.67-13.86-37.69C300.8 208.2 302 180.4 313.6 155.5c11.62-24.94 32.31-43.85 58.25-53.25c11.62-4.219 23.53-6.219 35.25-6.219c42.13 0 81.78 25.89 97.02 67.46c.6875 1.922 13.34 36.78 13.89 38.06c26.58 73.16 61.61 90.38 82.55 100.7l3.297 1.625c2.938 1.547 4.312 3.891 4.125 6.969C607.8 313.4 606.4 316.8 602.9 318.1zM534.3 400.1c-8.812 .7207-15.38 8.424-14.67 17.24c1.031 12.73-6.578 24.69-18.45 29.03c-11.81 4.344-25.34 .0313-32.81-10.41c-5.125-7.203-15.14-8.844-22.31-3.719c-7.188 5.141-8.859 15.12-3.719 22.31C453.9 470.8 472.6 480 491.7 480c6.812 0 13.7-1.156 20.34-3.562c25.38-9.297 41.56-34.66 39.41-61.67C550.8 405.1 543.4 399.3 534.3 400.1z"/></svg>