<svg xmlns="http://www.w3.org/2000/svg" viewBox="0 0 512 512"><!--! Font Awesome Pro 6.0.0-alpha3 by @fontawesome - https://fontawesome.com License - https://fontawesome.com/license (Commercial License) --><path d="M464 352c-26.5 0-48 21.5-48 48c0 20.12 12.5 37.38 30.12 44.5C440.6 464.9 422.1 480 400 480H352v-122.2c47.82-46 73.89-114.3 60.5-188.6c-14.8-82.13-80.19-148.9-162.1-165.1C116.1-22.18 0 79.25 0 208c0 58.88 24.62 111.1 64 149.8V448c0 35.2 28.8 64 64 64h272c39.5 0 72.25-28.88 78.63-66.5C497.9 439.3 512 421.4 512 400C512 373.5 490.5 352 464 352zM320 448c0 17.67-14.33 32-32 32H128c-17.67 0-32-14.33-32-32v-64.88C128.4 403.9 166.8 416 208 416s79.63-12.12 112-32.88V448zM208 384C111 384 32 305 32 208S111 32 208 32S384 111 384 208S305 384 208 384zM464 416c-8.75 0-16-7.125-16-16s7.25-16 16-16s16 7.125 16 16S472.8 416 464 416zM208 128C163.9 128 128 163.9 128 208S163.9 288 208 288S288 252.1 288 208S252.1 128 208 128zM208 256C181.5 256 160 234.5 160 208S181.5 160 208 160S256 181.5 256 208S234.5 256 208 256z"/></svg>