<svg xmlns="http://www.w3.org/2000/svg" viewBox="0 0 640 512"><!--! Font Awesome Pro 6.0.0-alpha3 by @fontawesome - https://fontawesome.com License - https://fontawesome.com/license (Commercial License) --><path d="M40.88 30.25l64 32C107.1 63.38 109.5 64 112 64c7.375 0 13.88-5.125 15.62-12.38C129.3 44.5 125.8 37 119.1 33.75l-64-32c-7.875-4-17.5-.875-21.38 7.125C29.75 16.75 32.88 26.38 40.88 30.25zM528 64c2.5 0 4.875-.625 7.125-1.75l64-32c8-3.875 11.12-13.5 7.125-21.38c-3.875-8-13.5-11.12-21.38-7.125l-64 32c-6.625 3.25-10.12 10.75-8.5 17.88C514.1 58.88 520.6 64 528 64zM80 160h-64C7.125 160 0 167.1 0 176S7.125 192 16 192h64C88.88 192 96 184.9 96 176S88.88 160 80 160zM624 160h-64C551.1 160 544 167.1 544 176S551.1 192 560 192h64C632.9 192 640 184.9 640 176S632.9 160 624 160zM368.1 448c-7.438 0-14.36 4.146-16.9 10.88C346.6 471.2 334.3 480 319.1 480s-26.61-8.824-31.25-21.12C286.2 452.1 279.3 448 271.8 448c-10.61 0-18.37 9.998-15.08 19.72C265.4 493.4 290.5 512 319.1 512c29.47 0 54.56-18.63 63.22-44.28C386.5 457.1 378.8 448 368.1 448zM480 185.9c0-79.63-63.38-144.5-144-152.4V16C336 7.125 328.9 0 320 0S304 7.125 304 16v17.5C223.4 41.38 159.1 106.3 159.1 185.9c0 94.5-21.38 122.4-49.38 148.9c-14 13.38-18.38 33.5-11.25 51.25C106.6 404.3 124.1 416 143.1 416h352c19.88 0 37.38-11.75 44.63-29.1c7.125-17.75 2.75-37.88-11.25-51.25C501.4 308.3 480 280.4 480 185.9zM496 384H143.1c-14.25 0-21.38-16.5-11.38-25.1c34.88-33.25 59.38-70.38 59.38-172.1C191.1 118.5 249.2 64 320 64s128 54.5 128 121.9c0 101.4 24.25 138.8 59.38 172.1C517.4 367.6 510.1 384 496 384z"/></svg>