<svg xmlns="http://www.w3.org/2000/svg" viewBox="0 0 640 512"><!--! Font Awesome Pro 6.0.0-alpha3 by @fontawesome - https://fontawesome.com License - https://fontawesome.com/license (Commercial License) --><path d="M638 488.3c-1.002-1.824-2.377-3.482-4.111-4.854L25.9 3.236C23.25 1.148 20.09 .3242 16.95 .1348C16.36 .1016 15.78-.0254 15.19 .0039C13.7 .084 12.27 .4883 10.85 .9727C10.17 1.207 9.457 1.295 8.811 1.621C6.801 2.633 4.928 4.004 3.436 5.877C2.068 7.613 1.117 9.545 .5684 11.55C.0195 13.56-.1289 15.63 .1113 17.67c.2402 2.035 .8691 4.027 1.869 5.852c1.002 1.822 2.377 3.48 4.111 4.852l608 480.2C617 510.9 620.5 512 624 512c4.719 0 9.406-2.094 12.56-6.08c2.734-3.471 3.805-7.723 3.324-11.79C639.6 492.1 639 490.1 638 488.3zM320 64c70.75 0 128 54.5 128 121.9c0 43.57 4.691 74.88 12.59 99.57c0 0 72.56 52.9 68.79 49.3c-28-26.5-49.38-54.38-49.38-148.9c0-79.63-63.38-144.5-144-152.4V16c0-8.875-7.125-15.1-15.1-15.1S304 7.125 304 16v17.5C264.2 37.39 228.6 55.28 202.8 81.9l24.1 19.73C251.1 78.52 283.7 64 320 64zM368.1 448c-7.438 0-14.36 4.146-16.9 10.88C346.6 471.2 334.3 480 319.1 480s-26.61-8.824-31.25-21.12C286.2 452.1 279.3 448 271.8 448c-10.61 0-18.37 9.998-15.08 19.72C265.4 493.4 290.5 512 319.1 512c29.47 0 54.56-18.63 63.22-44.28C386.5 457.1 378.8 448 368.1 448zM143.1 384c-14.25 0-21.38-16.5-11.38-25.1c28.57-27.24 49.93-57.7 56.81-123.6L159.3 210.6C155.7 285.2 135.9 310.8 110.6 334.8c-14 13.38-18.38 33.5-11.25 51.25C106.6 404.3 124.1 416 143.1 416h275.4l-40.53-32H143.1z"/></svg>