<svg xmlns="http://www.w3.org/2000/svg" viewBox="0 0 640 512"><!--! Font Awesome Pro 6.0.0-alpha3 by @fontawesome - https://fontawesome.com License - https://fontawesome.com/license (Commercial License) --><path d="M512 224c-15.83 0-30.82 3.25-44.81 8.504l-101-191.1C363.4 35.3 357.9 32 352 32H304C295.2 32 288 39.16 288 48S295.2 64 304 64h38.34l50.53 96H225.9L189.5 103.3C186.5 98.77 181.4 96 176 96H112C103.2 96 96 103.2 96 112S103.2 128 112 128h55.27l34.1 54.44L174.6 233.1C160.2 227.4 144.5 224 128 224c-70.69 0-128 57.31-128 128c0 70.69 57.31 128 128 128c65.21 0 118.4-48.95 126.4-112H320c5.859 0 11.25-3.203 14.05-8.344l83.42-152.9l21.31 40.5C405.7 270.4 384 308.6 384 352c0 70.69 57.31 128 128 128c70.69 0 128-57.31 128-128C640 281.3 582.7 224 512 224zM128 448c-52.94 0-96-43.07-96-96c0-52.94 43.06-96 96-96c10.94 0 21.28 2.229 31.08 5.611l-45.13 82.73C108.1 355 115.9 368 128 368h94.38C214.7 413.3 175.5 448 128 448zM154.1 336l67.03-122.9L300.1 336H154.1zM323.6 312L246.4 192h142.6L323.6 312zM512 448c-52.94 0-96-43.07-96-96c0-31.03 15.04-58.38 37.95-75.94l43.89 83.39c9.699 18.45 38.34 4.129 28.31-14.91l-43.87-83.36C491.7 258.1 501.6 256 512 256c52.94 0 96 43.06 96 96C608 404.9 564.9 448 512 448z"/></svg>