<svg xmlns="http://www.w3.org/2000/svg" viewBox="0 0 320 512"><!--! Font Awesome Pro 6.0.0-alpha3 by @fontawesome - https://fontawesome.com License - https://fontawesome.com/license (Commercial License) --><path d="M252.9 233.6C274.2 215.9 288 189.7 288 160c0-52.94-43.06-96-96-96V16C192 7.156 184.8 0 176 0S160 7.156 160 16V64H96V16C96 7.156 88.84 0 80 0S64 7.156 64 16V64H16C7.156 64 0 71.16 0 80v352C0 440.8 7.156 448 16 448H64v48C64 504.8 71.16 512 80 512S96 504.8 96 496V448h64v48c0 8.844 7.156 16 16 16s16-7.156 16-16V448h16c61.75 0 112-50.25 112-112C320 290.2 292.3 250.9 252.9 233.6zM32 96h160c35.28 0 64 28.72 64 64s-28.72 64-64 64H32V96zM208 416H32V256h176c44.13 0 80 35.88 80 80S252.1 416 208 416z"/></svg>