<svg xmlns="http://www.w3.org/2000/svg" viewBox="0 0 512 512"><!--! Font Awesome Pro 6.0.0-alpha3 by @fontawesome - https://fontawesome.com License - https://fontawesome.com/license (Commercial License) --><path d="M512 96c0-8.801-7.199-16-16-16h-480C7.201 80 0 87.2 0 96c0 8.799 7.201 16 16 16h480C504.8 112 512 104.8 512 96zM16 224C7.201 224 0 231.2 0 240v192C0 440.8 7.201 448 16 448C24.8 448 32 440.8 32 432v-192C32 231.2 24.8 224 16 224zM496 400h-352C135.2 400 128 407.2 128 416c0 8.799 7.201 16 16 16h352c8.801 0 16-7.201 16-16C512 407.2 504.8 400 496 400zM496 240h-352C135.2 240 128 247.2 128 256c0 8.799 7.201 16 16 16h352C504.8 272 512 264.8 512 256C512 247.2 504.8 240 496 240z"/></svg>