<svg xmlns="http://www.w3.org/2000/svg" viewBox="0 0 448 512"><!--! Font Awesome Pro 6.0.0-alpha3 by @fontawesome - https://fontawesome.com License - https://fontawesome.com/license (Commercial License) --><path d="M128 88c13.25 0 24-10.75 24-24c0-13.26-10.75-24-24-24S104 50.74 104 64C104 77.25 114.7 88 128 88zM32 88c13.25 0 24-10.75 24-24c0-13.26-10.75-24-24-24S8 50.74 8 64C8 77.25 18.75 88 32 88zM32 184c13.25 0 24-10.75 24-24c0-13.26-10.75-24-24-24S8 146.7 8 160C8 173.3 18.75 184 32 184zM416 88c13.25 0 24-10.75 24-24c0-13.26-10.75-24-24-24S392 50.74 392 64C392 77.25 402.7 88 416 88zM416 184c13.25 0 24-10.75 24-24c0-13.26-10.75-24-24-24S392 146.7 392 160C392 173.3 402.7 184 416 184zM320 88c13.25 0 24-10.75 24-24c0-13.26-10.75-24-24-24S296 50.74 296 64C296 77.25 306.7 88 320 88zM32 424c-13.25 0-24 10.74-24 24c0 13.25 10.75 24 24 24S56 461.3 56 448C56 434.7 45.25 424 32 424zM416 328c-13.25 0-24 10.74-24 24c0 13.25 10.75 24 24 24s24-10.75 24-24C440 338.7 429.3 328 416 328zM416 424c-13.25 0-24 10.74-24 24c0 13.25 10.75 24 24 24s24-10.75 24-24C440 434.7 429.3 424 416 424zM320 424c-13.25 0-24 10.74-24 24c0 13.25 10.75 24 24 24s24-10.75 24-24C344 434.7 333.3 424 320 424zM128 424c-13.25 0-24 10.74-24 24c0 13.25 10.75 24 24 24S152 461.3 152 448C152 434.7 141.3 424 128 424zM32 328c-13.25 0-24 10.74-24 24c0 13.25 10.75 24 24 24S56 365.3 56 352C56 338.7 45.25 328 32 328zM432 240h-192v-192C240 39.16 232.8 32 224 32S208 39.16 208 48v192h-192C7.156 240 0 247.2 0 256s7.156 16 16 16h192v192c0 8.844 7.156 16 16 16s16-7.156 16-16v-192h192C440.8 272 448 264.8 448 256S440.8 240 432 240z"/></svg>