<svg xmlns="http://www.w3.org/2000/svg" viewBox="0 0 448 512"><!--! Font Awesome Pro 6.0.0-alpha3 by @fontawesome - https://fontawesome.com License - https://fontawesome.com/license (Commercial License) --><path d="M416 424c-13.25 0-24 10.74-24 24c0 13.25 10.75 24 24 24s24-10.75 24-24C440 434.7 429.3 424 416 424zM224 424c-13.25 0-24 10.74-24 24c0 13.25 10.75 24 24 24s24-10.75 24-24C248 434.7 237.3 424 224 424zM128 424c-13.25 0-24 10.74-24 24c0 13.25 10.75 24 24 24S152 461.3 152 448C152 434.7 141.3 424 128 424zM320 424c-13.25 0-24 10.74-24 24c0 13.25 10.75 24 24 24s24-10.75 24-24C344 434.7 333.3 424 320 424zM416 328c-13.25 0-24 10.74-24 24c0 13.25 10.75 24 24 24s24-10.75 24-24C440 338.7 429.3 328 416 328zM416 136c-13.25 0-24 10.74-24 24c0 13.25 10.75 24 24 24S440 173.3 440 160C440 146.7 429.3 136 416 136zM416 232c-13.25 0-24 10.74-24 24c0 13.25 10.75 24 24 24S440 269.3 440 256C440 242.7 429.3 232 416 232zM432 32h-384C21.49 32 0 53.49 0 80v384C0 472.8 7.164 480 16 480S32 472.8 32 464v-384C32 71.16 39.16 64 48 64h384C440.8 64 448 56.84 448 48S440.8 32 432 32z"/></svg>