<svg xmlns="http://www.w3.org/2000/svg" viewBox="0 0 448 512"><!--! Font Awesome Pro 6.0.0-alpha3 by @fontawesome - https://fontawesome.com License - https://fontawesome.com/license (Commercial License) --><path d="M128 88c13.25 0 24-10.75 24-24c0-13.26-10.75-24-24-24S104 50.74 104 64C104 77.25 114.7 88 128 88zM32 88c13.25 0 24-10.75 24-24c0-13.26-10.75-24-24-24S8 50.74 8 64C8 77.25 18.75 88 32 88zM224 88c13.25 0 24-10.75 24-24c0-13.26-10.75-24-24-24S200 50.74 200 64C200 77.25 210.7 88 224 88zM320 88c13.25 0 24-10.75 24-24c0-13.26-10.75-24-24-24S296 50.74 296 64C296 77.25 306.7 88 320 88zM32 184c13.25 0 24-10.75 24-24c0-13.26-10.75-24-24-24S8 146.7 8 160C8 173.3 18.75 184 32 184zM32 376c13.25 0 24-10.75 24-24c0-13.26-10.75-24-24-24S8 338.7 8 352C8 365.3 18.75 376 32 376zM32 280c13.25 0 24-10.75 24-24c0-13.26-10.75-24-24-24S8 242.7 8 256C8 269.3 18.75 280 32 280zM432 32C423.2 32 416 39.16 416 48v384c0 8.836-7.164 16-16 16h-384C7.164 448 0 455.2 0 464S7.164 480 16 480h384c26.51 0 48-21.49 48-48v-384C448 39.16 440.8 32 432 32z"/></svg>