<svg xmlns="http://www.w3.org/2000/svg" viewBox="0 0 448 512"><!--! Font Awesome Pro 6.0.0-alpha3 by @fontawesome - https://fontawesome.com License - https://fontawesome.com/license (Commercial License) --><path d="M128 232C114.7 232 104 242.7 104 256c0 13.25 10.75 24 24 24S152 269.3 152 256C152 242.7 141.3 232 128 232zM32 136C18.75 136 8 146.7 8 160c0 13.25 10.75 24 24 24S56 173.3 56 160C56 146.7 45.25 136 32 136zM32 40C18.75 40 8 50.74 8 64c0 13.25 10.75 24 24 24S56 77.25 56 64C56 50.74 45.25 40 32 40zM128 424c-13.25 0-24 10.74-24 24c0 13.25 10.75 24 24 24S152 461.3 152 448C152 434.7 141.3 424 128 424zM32 232C18.75 232 8 242.7 8 256c0 13.25 10.75 24 24 24S56 269.3 56 256C56 242.7 45.25 232 32 232zM32 328c-13.25 0-24 10.74-24 24c0 13.25 10.75 24 24 24S56 365.3 56 352C56 338.7 45.25 328 32 328zM416 88c13.25 0 24-10.75 24-24c0-13.26-10.75-24-24-24S392 50.74 392 64C392 77.25 402.7 88 416 88zM32 424c-13.25 0-24 10.74-24 24c0 13.25 10.75 24 24 24S56 461.3 56 448C56 434.7 45.25 424 32 424zM416 136c-13.25 0-24 10.74-24 24c0 13.25 10.75 24 24 24S440 173.3 440 160C440 146.7 429.3 136 416 136zM416 328c-13.25 0-24 10.74-24 24c0 13.25 10.75 24 24 24s24-10.75 24-24C440 338.7 429.3 328 416 328zM320 40c-13.25 0-24 10.74-24 24c0 13.25 10.75 24 24 24S344 77.25 344 64C344 50.74 333.3 40 320 40zM416 424c-13.25 0-24 10.74-24 24c0 13.25 10.75 24 24 24s24-10.75 24-24C440 434.7 429.3 424 416 424zM128 40C114.7 40 104 50.74 104 64c0 13.25 10.75 24 24 24S152 77.25 152 64C152 50.74 141.3 40 128 40zM416 232c-13.25 0-24 10.74-24 24c0 13.25 10.75 24 24 24S440 269.3 440 256C440 242.7 429.3 232 416 232zM320 232c-13.25 0-24 10.74-24 24c0 13.25 10.75 24 24 24S344 269.3 344 256C344 242.7 333.3 232 320 232zM320 424c-13.25 0-24 10.74-24 24c0 13.25 10.75 24 24 24s24-10.75 24-24C344 434.7 333.3 424 320 424zM224 32C215.2 32 208 39.16 208 48v416c0 8.844 7.156 16 16 16s16-7.156 16-16v-416C240 39.16 232.8 32 224 32z"/></svg>