<svg xmlns="http://www.w3.org/2000/svg" viewBox="0 0 448 512"><!--! Font Awesome Pro 6.0.0-alpha3 by @fontawesome - https://fontawesome.com License - https://fontawesome.com/license (Commercial License) --><path d="M224 328c-13.25 0-24 10.74-24 24c0 13.25 10.75 24 24 24s24-10.75 24-24C248 338.7 237.3 328 224 328zM128 232C114.7 232 104 242.7 104 256c0 13.25 10.75 24 24 24S152 269.3 152 256C152 242.7 141.3 232 128 232zM224 232C210.7 232 200 242.7 200 256c0 13.25 10.75 24 24 24S248 269.3 248 256C248 242.7 237.3 232 224 232zM320 232c-13.25 0-24 10.74-24 24c0 13.25 10.75 24 24 24S344 269.3 344 256C344 242.7 333.3 232 320 232zM224 136C210.7 136 200 146.7 200 160c0 13.25 10.75 24 24 24S248 173.3 248 160C248 146.7 237.3 136 224 136zM400 32h-352C21.49 32 0 53.49 0 80v352C0 458.5 21.49 480 48 480h352c26.51 0 48-21.49 48-48v-352C448 53.49 426.5 32 400 32zM416 432c0 8.822-7.176 16-16 16h-352C39.18 448 32 440.8 32 432v-352C32 71.18 39.18 64 48 64h352C408.8 64 416 71.18 416 80V432z"/></svg>