<svg xmlns="http://www.w3.org/2000/svg" viewBox="0 0 448 512"><!--! Font Awesome Pro 6.0.0-alpha3 by @fontawesome - https://fontawesome.com License - https://fontawesome.com/license (Commercial License) --><path d="M128 424c-13.26 0-24 10.75-24 24S114.7 472 128 472c13.25 0 24-10.75 24-24S141.3 424 128 424zM224 328c-13.26 0-24 10.75-24 24s10.74 24 24 24c13.25 0 24-10.75 24-24S237.3 328 224 328zM32 136C18.74 136 8 146.7 8 160S18.74 184 32 184c13.25 0 24-10.75 24-24S45.25 136 32 136zM224 424c-13.26 0-24 10.75-24 24s10.74 24 24 24c13.25 0 24-10.75 24-24S237.3 424 224 424zM128 232C114.7 232 104 242.7 104 256S114.7 280 128 280c13.25 0 24-10.75 24-24S141.3 232 128 232zM432 32h-416C7.156 32 0 39.16 0 48S7.156 64 16 64h416C440.8 64 448 56.84 448 48S440.8 32 432 32zM32 328c-13.26 0-24 10.75-24 24S18.74 376 32 376c13.25 0 24-10.75 24-24S45.25 328 32 328zM32 232C18.74 232 8 242.7 8 256S18.74 280 32 280c13.25 0 24-10.75 24-24S45.25 232 32 232zM32 424c-13.26 0-24 10.75-24 24S18.74 472 32 472c13.25 0 24-10.75 24-24S45.25 424 32 424zM416 328c-13.26 0-24 10.75-24 24s10.74 24 24 24c13.25 0 24-10.75 24-24S429.3 328 416 328zM416 232c-13.26 0-24 10.75-24 24S402.7 280 416 280c13.25 0 24-10.75 24-24S429.3 232 416 232zM416 424c-13.26 0-24 10.75-24 24s10.74 24 24 24c13.25 0 24-10.75 24-24S429.3 424 416 424zM416 136c-13.26 0-24 10.75-24 24S402.7 184 416 184c13.25 0 24-10.75 24-24S429.3 136 416 136zM320 424c-13.26 0-24 10.75-24 24s10.74 24 24 24c13.25 0 24-10.75 24-24S333.3 424 320 424zM224 136C210.7 136 200 146.7 200 160S210.7 184 224 184c13.25 0 24-10.75 24-24S237.3 136 224 136zM224 232C210.7 232 200 242.7 200 256S210.7 280 224 280c13.25 0 24-10.75 24-24S237.3 232 224 232zM320 232c-13.26 0-24 10.75-24 24S306.7 280 320 280c13.25 0 24-10.75 24-24S333.3 232 320 232z"/></svg>