<svg xmlns="http://www.w3.org/2000/svg" viewBox="0 0 448 512"><!--! Font Awesome Pro 6.0.0-alpha3 by @fontawesome - https://fontawesome.com License - https://fontawesome.com/license (Commercial License) --><path d="M400 32h-352C21.49 32 0 53.49 0 80v352C0 458.5 21.49 480 48 480h352c26.51 0 48-21.49 48-48v-352C448 53.49 426.5 32 400 32zM32 80C32 71.18 39.18 64 48 64h160v176H32V80zM48 448C39.18 448 32 440.8 32 432v-160h176V448H48zM416 432c0 8.822-7.176 16-16 16h-160V272H416V432zM416 240h-176V64h160C408.8 64 416 71.18 416 80V240z"/></svg>