<svg xmlns="http://www.w3.org/2000/svg" viewBox="0 0 448 512"><!--! Font Awesome Pro 6.0.0-alpha3 by @fontawesome - https://fontawesome.com License - https://fontawesome.com/license (Commercial License) --><path d="M224 88c13.25 0 24-10.75 24-24c0-13.26-10.75-24-24-24S200 50.74 200 64C200 77.25 210.7 88 224 88zM224 184c13.25 0 24-10.75 24-24c0-13.26-10.75-24-24-24S200 146.7 200 160C200 173.3 210.7 184 224 184zM320 88c13.25 0 24-10.75 24-24c0-13.26-10.75-24-24-24S296 50.74 296 64C296 77.25 306.7 88 320 88zM416 376c13.25 0 24-10.75 24-24c0-13.26-10.75-24-24-24s-24 10.74-24 24C392 365.3 402.7 376 416 376zM320 280c13.25 0 24-10.75 24-24c0-13.26-10.75-24-24-24S296 242.7 296 256C296 269.3 306.7 280 320 280zM416 88c13.25 0 24-10.75 24-24c0-13.26-10.75-24-24-24S392 50.74 392 64C392 77.25 402.7 88 416 88zM416 280c13.25 0 24-10.75 24-24c0-13.26-10.75-24-24-24S392 242.7 392 256C392 269.3 402.7 280 416 280zM416 184c13.25 0 24-10.75 24-24c0-13.26-10.75-24-24-24S392 146.7 392 160C392 173.3 402.7 184 416 184zM32 376c13.25 0 24-10.75 24-24c0-13.26-10.75-24-24-24S8 338.7 8 352C8 365.3 18.75 376 32 376zM32 88c13.25 0 24-10.75 24-24c0-13.26-10.75-24-24-24S8 50.74 8 64C8 77.25 18.75 88 32 88zM32 280c13.25 0 24-10.75 24-24c0-13.26-10.75-24-24-24S8 242.7 8 256C8 269.3 18.75 280 32 280zM32 184c13.25 0 24-10.75 24-24c0-13.26-10.75-24-24-24S8 146.7 8 160C8 173.3 18.75 184 32 184zM432 448h-416C7.156 448 0 455.2 0 464S7.156 480 16 480h416c8.844 0 16-7.156 16-16S440.8 448 432 448zM128 280c13.25 0 24-10.75 24-24c0-13.26-10.75-24-24-24S104 242.7 104 256C104 269.3 114.7 280 128 280zM224 376c13.25 0 24-10.75 24-24c0-13.26-10.75-24-24-24S200 338.7 200 352C200 365.3 210.7 376 224 376zM224 280c13.25 0 24-10.75 24-24c0-13.26-10.75-24-24-24S200 242.7 200 256C200 269.3 210.7 280 224 280zM128 88c13.25 0 24-10.75 24-24c0-13.26-10.75-24-24-24S104 50.74 104 64C104 77.25 114.7 88 128 88z"/></svg>