<svg xmlns="http://www.w3.org/2000/svg" viewBox="0 0 448 512"><!--! Font Awesome Pro 6.0.0-alpha3 by @fontawesome - https://fontawesome.com License - https://fontawesome.com/license (Commercial License) --><path d="M128 40C114.7 40 104 50.74 104 64c0 13.25 10.75 24 24 24S152 77.25 152 64C152 50.74 141.3 40 128 40zM224 424c-13.25 0-24 10.74-24 24c0 13.25 10.75 24 24 24s24-10.75 24-24C248 434.7 237.3 424 224 424zM224 328c-13.25 0-24 10.74-24 24c0 13.25 10.75 24 24 24s24-10.75 24-24C248 338.7 237.3 328 224 328zM224 232C210.7 232 200 242.7 200 256c0 13.25 10.75 24 24 24S248 269.3 248 256C248 242.7 237.3 232 224 232zM416 88c13.25 0 24-10.75 24-24c0-13.26-10.75-24-24-24S392 50.74 392 64C392 77.25 402.7 88 416 88zM224 136C210.7 136 200 146.7 200 160c0 13.25 10.75 24 24 24S248 173.3 248 160C248 146.7 237.3 136 224 136zM128 232C114.7 232 104 242.7 104 256c0 13.25 10.75 24 24 24S152 269.3 152 256C152 242.7 141.3 232 128 232zM128 424c-13.25 0-24 10.74-24 24c0 13.25 10.75 24 24 24S152 461.3 152 448C152 434.7 141.3 424 128 424zM416 136c-13.25 0-24 10.74-24 24c0 13.25 10.75 24 24 24S440 173.3 440 160C440 146.7 429.3 136 416 136zM416 424c-13.25 0-24 10.74-24 24c0 13.25 10.75 24 24 24s24-10.75 24-24C440 434.7 429.3 424 416 424zM416 328c-13.25 0-24 10.74-24 24c0 13.25 10.75 24 24 24s24-10.75 24-24C440 338.7 429.3 328 416 328zM416 232c-13.25 0-24 10.74-24 24c0 13.25 10.75 24 24 24S440 269.3 440 256C440 242.7 429.3 232 416 232zM320 232c-13.25 0-24 10.74-24 24c0 13.25 10.75 24 24 24S344 269.3 344 256C344 242.7 333.3 232 320 232zM320 40c-13.25 0-24 10.74-24 24c0 13.25 10.75 24 24 24S344 77.25 344 64C344 50.74 333.3 40 320 40zM320 424c-13.25 0-24 10.74-24 24c0 13.25 10.75 24 24 24s24-10.75 24-24C344 434.7 333.3 424 320 424zM224 40C210.7 40 200 50.74 200 64c0 13.25 10.75 24 24 24S248 77.25 248 64C248 50.74 237.3 40 224 40zM16 32C7.156 32 0 39.16 0 48v416C0 472.8 7.156 480 16 480S32 472.8 32 464v-416C32 39.16 24.84 32 16 32z"/></svg>