<svg xmlns="http://www.w3.org/2000/svg" viewBox="0 0 448 512"><!--! Font Awesome Pro 6.0.0-alpha3 by @fontawesome - https://fontawesome.com License - https://fontawesome.com/license (Commercial License) --><path d="M214.8 367.1c-7.828-1.109-17.45-4.422-25.92-7.328l-4.578-1.562c-8.391-2.859-17.45 1.656-20.28 10.03s1.656 17.45 10.03 20.28l4.422 1.516c9.258 3.18 19.68 6.621 29.84 8.309C208.3 398.9 208 399.4 208 400L208 408c0 8.844 7.156 16 16 16s16-7.156 16-16l.0208-8c0-.5781-.2904-1.066-.349-1.627c23.66-3.641 40.63-16.4 44.31-36.62c7.25-40.03-30.54-50.32-55.63-57.16L222.4 302.9C193.5 294.9 194.4 290.1 195.5 283.1c2.047-11.14 20.95-13.53 37.58-11.05c6.203 .9219 13.03 2.938 19.52 5.078c8.328 2.75 17.44-1.813 20.2-10.2c2.75-8.391-1.812-17.44-10.2-20.2C253.6 244.6 246.4 242.8 240 241.7V232c0-8.844-7.156-16-16-16s-16 7.156-16 16v9.143C184.3 244.8 167.7 258 164 278.3c-7.188 39.56 31.25 50.33 49.72 55.5l5.927 1.63c30.16 8.219 34.4 12.01 32.84 20.65C250.5 367.2 231.6 369.6 214.8 367.1zM442.9 162.1l-51.78-103.5C383 42.28 366.4 32 348.2 32H99.78C81.6 32 64.97 42.27 56.84 58.54L5.066 162.1C1.734 168.8 0 176.1 0 183.5V416c0 35.35 28.65 64 64 64h320c35.35 0 64-28.65 64-64V183.5C448 176.1 446.3 168.8 442.9 162.1zM240 64h108.2c6.125 0 11.59 3.375 14.31 8.844L406.1 160H240V64zM85.47 72.83C88.19 67.38 93.66 64 99.78 64H208v96H41.89L85.47 72.83zM416 416c0 17.67-14.33 32-32 32H64c-17.67 0-32-14.33-32-32V192h384V416z"/></svg>