<svg xmlns="http://www.w3.org/2000/svg" viewBox="0 0 448 512"><!--! Font Awesome Pro 6.0.0-alpha3 by @fontawesome - https://fontawesome.com License - https://fontawesome.com/license (Commercial License) --><path d="M442.9 162.1l-51.78-103.6C383 42.27 366.4 32 348.2 32H99.78C81.6 32 64.97 42.27 56.84 58.54L5.066 162.1C1.734 168.8 0 176.1 0 183.5V416c0 35.35 28.65 64 64 64h320c35.35 0 64-28.65 64-64V183.5C448 176.1 446.3 168.7 442.9 162.1zM240 64h108.2c6.125 0 11.59 3.375 14.31 8.844L406.1 160H240V64zM85.47 72.83C88.19 67.38 93.66 64 99.78 64H208v96H41.89L85.47 72.83zM416 416c0 17.67-14.33 32-32 32H64c-17.67 0-32-14.33-32-32V192h384V416zM186 379.3C189.2 382.4 193.3 384 197.3 384s8.188-1.562 11.31-4.688l106.7-106.7c6.25-6.25 6.25-16.38 0-22.62s-16.38-6.25-22.62 0l-95.34 95.36L155.3 303.4c-6.25-6.25-16.38-6.25-22.62 0s-6.25 16.38 0 22.62L186 379.3z"/></svg>