<svg xmlns="http://www.w3.org/2000/svg" viewBox="0 0 640 512"><!--! Font Awesome Pro 6.0.0-alpha3 by @fontawesome - https://fontawesome.com License - https://fontawesome.com/license (Commercial License) --><path d="M559.1 351.1c-8.844 0-16 7.156-16 16v41.66c0 7.234-4.891 13.59-11.88 15.47l-196.1 52.29v-125.4c0-8.844-7.156-16-16-16s-16 7.156-16 16v125.4l-196.1-52.3c-7-1.875-11.89-8.234-11.89-15.47v-41.66c0-8.844-7.156-16-16-16s-16 7.156-16 16v41.66c0 21.69 14.64 40.77 35.63 46.38l199.8 53.28C306.1 511.1 313 512 319.1 512s13.88-.9062 20.63-2.703l199.8-53.27c20.97-5.609 35.61-24.69 35.61-46.38v-41.66C575.1 359.1 568.8 351.1 559.1 351.1zM638.7 281.7l-48-112c-2.812-6.547-9.531-10.38-16.69-9.58l-254 31.9L65.98 160.1C58.83 159.3 52.11 163.1 49.29 169.7l-48 112c-1.875 4.344-1.703 9.314 .4375 13.53C3.873 299.5 7.779 302.5 12.4 303.6l208 48.01C221.6 351.9 222.8 352 223.1 352c4.969 0 9.734-2.312 12.8-6.406L319.1 234.6l83.2 110.1C406.3 349.7 411 352 415.1 352c1.188 0 2.406-.1406 3.594-.4062l208-48.01c4.625-1.062 8.531-4.125 10.67-8.359C640.4 291 640.6 286 638.7 281.7zM217.5 318.1L38.25 276.7l35.72-83.35l216.7 27.08L217.5 318.1zM422.5 318.1l-73.2-97.62l216.7-27.08l35.72 83.35L422.5 318.1zM144 144C152.8 144 160 136.8 160 128c0-52.94 43.06-96 96-96s96 43.06 96 96c0 8.844 7.156 16 16 16S384 136.8 384 128c0-70.58-57.4-128-127.1-128S128 57.47 128 128C128 136.9 135.2 144 144 144zM442.9 143.2C444.6 143.7 446.3 144 448 144c6.688 0 12.94-4.234 15.19-10.94l32-96c2.781-8.391-1.75-17.45-10.12-20.23c-8.312-2.719-17.41 1.719-20.25 10.11l-32 96C430 131.3 434.6 140.4 442.9 143.2z"/></svg>