<svg xmlns="http://www.w3.org/2000/svg" viewBox="0 0 448 512"><!--! Font Awesome Pro 6.0.0-alpha3 by @fontawesome - https://fontawesome.com License - https://fontawesome.com/license (Commercial License) --><path d="M214.1 411.9c5.5 5.5 14.25 5.5 19.75 0l84.75-85.63c24.62-24.88 23.12-66-4.375-89c-13.88-11.62-47.63-28.5-90.13 14.5c-42.63-43-76.38-26.12-90.25-14.5c-27.5 23-28.88 64.13-4.25 89L214.1 411.9zM154.2 261.7c13.75-11.5 31.25-3.375 38.5 3.75l31.38 31.75l31.38-31.75c7.125-7.25 24.62-15.25 38.38-3.75c14.38 12 12.38 31.62 2.125 42l-72 72.63L152.2 303.7C141.8 293.4 139.8 273.7 154.2 261.7zM442.9 162.1l-51.78-103.6C383 42.27 366.4 32 348.2 32H99.78C81.6 32 64.97 42.27 56.84 58.54L5.066 162.1C1.734 168.8 0 176.1 0 183.5V416c0 35.35 28.65 64 64 64h320c35.35 0 64-28.65 64-64V183.5C448 176.1 446.3 168.7 442.9 162.1zM240 64h108.2c6.125 0 11.59 3.375 14.31 8.844L406.1 160H240V64zM85.47 72.83C88.19 67.38 93.66 64 99.78 64H208v96H41.89L85.47 72.83zM416 416c0 17.67-14.33 32-32 32H64c-17.67 0-32-14.33-32-32V192h384V416z"/></svg>