<svg xmlns="http://www.w3.org/2000/svg" viewBox="0 0 448 512"><!--! Font Awesome Pro 6.0.0-alpha3 by @fontawesome - https://fontawesome.com License - https://fontawesome.com/license (Commercial License) --><path d="M442.9 162.1l-51.78-103.5C383 42.28 366.4 32 348.2 32H99.78C81.6 32 64.97 42.27 56.84 58.54L5.066 162.1C1.734 168.8 0 176.1 0 183.5V416c0 35.35 28.65 64 64 64h320c35.35 0 64-28.65 64-64V183.5C448 176.1 446.3 168.8 442.9 162.1zM348.2 64c6.125 0 11.59 3.375 14.31 8.844L406.1 160h-118.1l-13.52-96H348.2zM192.2 160l13.71-96h36.26L256 160H192.2zM256 192v96H191.1l-.1113-96H256zM85.47 72.83C88.19 67.38 93.66 64 99.78 64h73.79L160 160H41.89L85.47 72.83zM416 416c0 17.67-14.33 32-32 32H64c-17.67 0-32-14.33-32-32V192h128v112C160 312.8 167.2 320 176 320h96c8.844 0 16-7.156 16-16L287.9 192H416V416z"/></svg>