<svg xmlns="http://www.w3.org/2000/svg" viewBox="0 0 640 512"><!--! Font Awesome Pro 6.0.0-alpha3 by @fontawesome - https://fontawesome.com License - https://fontawesome.com/license (Commercial License) --><path d="M560 223.1c-8.844 0-16 7.156-16 16v137.7c0 7.234-4.891 13.59-11.88 15.47L336 445.4V223.1c0-8.844-7.156-16-16-16s-16 7.156-16 16v221.4l-196.1-52.3C100.9 391.2 96 384.9 96 377.7v-137.7c0-8.844-7.156-16-16-16s-16 7.156-16 16v137.7c0 21.69 14.64 40.77 35.63 46.38l199.8 53.28C306.1 479.1 313 480 319.1 480s13.89-.9062 20.64-2.703l199.8-53.27C561.4 418.4 576 399.3 576 377.7v-137.7C576 231.1 568.8 223.1 560 223.1zM638.7 153.7l-48-112c-2.812-6.547-9.531-10.38-16.69-9.58L320 64L65.98 32.1C58.83 31.31 52.11 35.14 49.3 41.68l-48 112c-1.875 4.344-1.703 9.314 .4375 13.53c2.141 4.234 6.047 7.297 10.67 8.359l208 48.01C221.6 223.9 222.8 224 224 224c4.969 0 9.734-2.312 12.8-6.406L320 106.6l83.2 110.1C406.3 221.7 411 224 416 224c1.188 0 2.406-.1406 3.594-.4062l208-48.01c4.625-1.062 8.531-4.125 10.67-8.359C640.4 163 640.6 158 638.7 153.7zM217.5 190.1L38.25 148.7l35.72-83.35l216.7 27.08L217.5 190.1zM422.5 190.1l-73.2-97.62l216.7-27.08l35.72 83.35L422.5 190.1z"/></svg>