<svg xmlns="http://www.w3.org/2000/svg" viewBox="0 0 576 512"><!--! Font Awesome Pro 6.0.0-alpha3 by @fontawesome - https://fontawesome.com License - https://fontawesome.com/license (Commercial License) --><path d="M208 224h160C394.5 224 416 202.5 416 176v-128C416 21.49 394.5 0 368 0h-160C181.5 0 160 21.49 160 48v128C160 202.5 181.5 224 208 224zM272 32h32v54.11l-8.844-4.422c-4.5-2.25-9.812-2.25-14.31 0L272 86.11V32zM192 48C192 39.18 199.2 32 208 32h32v80c0 5.547 2.875 10.69 7.594 13.61s10.59 3.141 15.56 .7031L288 113.9l24.84 12.42C315.1 127.4 317.5 128 320 128c2.922 0 5.844-.7969 8.406-2.391C333.1 122.7 336 117.5 336 112V32h32C376.8 32 384 39.18 384 48v128C384 184.8 376.8 192 368 192h-160C199.2 192 192 184.8 192 176V48zM208 288h-160C21.49 288 0 309.5 0 336v128C0 490.5 21.49 512 48 512h160C234.5 512 256 490.5 256 464v-128C256 309.5 234.5 288 208 288zM112 320h32v54.11l-8.844-4.422c-4.5-2.25-9.812-2.25-14.31 0L112 374.1V320zM224 464C224 472.8 216.8 480 208 480h-160C39.18 480 32 472.8 32 464v-128C32 327.2 39.18 320 48 320h32v80c0 5.547 2.875 10.69 7.594 13.61s10.59 3.141 15.56 .7031L128 401.9l24.84 12.42C155.1 415.4 157.5 416 160 416c2.922 0 5.844-.7969 8.406-2.391C173.1 410.7 176 405.5 176 400V320h32C216.8 320 224 327.2 224 336V464zM528 288h-160C341.5 288 320 309.5 320 336v128c0 26.51 21.49 48 48 48h160c26.51 0 48-21.49 48-48v-128C576 309.5 554.5 288 528 288zM432 320h32v54.11l-8.844-4.422c-4.5-2.25-9.812-2.25-14.31 0L432 374.1V320zM544 464c0 8.822-7.178 16-16 16h-160c-8.822 0-16-7.178-16-16v-128c0-8.822 7.178-16 16-16h32v80c0 5.547 2.875 10.69 7.594 13.61s10.59 3.141 15.56 .7031L448 401.9l24.84 12.42C475.1 415.4 477.5 416 480 416c2.922 0 5.844-.7969 8.406-2.391C493.1 410.7 496 405.5 496 400V320h32c8.822 0 16 7.178 16 16V464z"/></svg>