<svg xmlns="http://www.w3.org/2000/svg" viewBox="0 0 512 512"><!--! Font Awesome Pro 6.0.0-alpha3 by @fontawesome - https://fontawesome.com License - https://fontawesome.com/license (Commercial License) --><path d="M512 288c0-24.14-9.002-46.92-24.84-64.35C487.7 219.8 488 215.9 488 212c0-29.63-15.9-56.33-40.01-71.27C447.1 140.3 448 139.9 448 139.5c0-30.73-16.36-58.07-41.8-72.86C398.2 28.62 364.4 0 324 0C296.1 0 271.3 13.7 256 34.74C240.7 13.7 215.9 0 188 0C147.6 0 113.8 28.62 105.8 66.64c-23.44 13.63-39.17 37.9-41.5 65.66C39.9 147.2 24 174.1 24 204c0 6.295 .7051 12.52 2.086 18.58C9.588 240.1 0 263.5 0 288c0 28.6 12.5 54.88 33.38 72.75C32.47 365.8 32 370.9 32 376c0 48.08 38.76 87.27 86.68 87.98C131 492.2 159.3 512 192 512c26.14 0 49.39-12.6 64-32.05C270.6 499.4 293.9 512 320 512c32.75 0 60.96-19.78 73.32-48.01C441.2 463.3 480 424.1 480 376c0-5.115-.4648-10.23-1.381-15.26C499.5 342.9 512 316.6 512 288zM240 432C240 458.5 218.5 480 192 480s-48-21.49-48-48c0-2.027 .3516-3.959 .5957-5.92C137.1 429.8 128.9 432 120 432C89.07 432 64 406.9 64 376c0-10.54 3.088-20.28 8.148-28.7C48.64 337.8 32 314.9 32 288c0-23.87 13.22-44.45 32.6-55.45C59.19 224.4 56 214.6 56 204c0-25.29 18.06-46.31 41.98-50.99C96.82 148.7 96 144.2 96 139.5c0-24.83 17.29-45.52 40.46-50.98C136.3 87.01 136 85.55 136 84C136 55.28 159.3 32 188 32S240 55.28 240 84V432zM439.9 347.3C444.9 355.7 448 365.5 448 376c0 30.93-25.07 56-56 56c-8.869 0-17.14-2.25-24.6-5.92C367.6 428 368 429.1 368 432c0 26.51-21.49 48-48 48s-48-21.49-48-48V84C272 55.28 295.3 32 324 32s52 23.28 52 52c0 1.549-.3223 3.008-.4551 4.521C398.7 93.98 416 114.7 416 139.5c0 7.58-1.676 14.74-4.566 21.25C436.6 164.4 456 185.8 456 212c0 8.047-1.982 15.57-5.244 22.37C468.3 245.8 480 265.5 480 288C480 314.9 463.4 337.8 439.9 347.3z"/></svg>