<svg xmlns="http://www.w3.org/2000/svg" viewBox="0 0 640 512"><!--! Font Awesome Pro 6.0.0-alpha3 by @fontawesome - https://fontawesome.com License - https://fontawesome.com/license (Commercial License) --><path d="M320 32C196.3 32 96 132.3 96 256s100.3 224 224 224c123.7 0 224-100.3 224-224S443.7 32 320 32zM320 448c-105.9 0-192-86.13-192-192s86.13-192 192-192s192 86.13 192 192S425.9 448 320 448zM320 328c-13.25 0-24 10.75-24 24s10.75 24 24 24c13.26 0 24-10.75 24-24S333.3 328 320 328zM319.1 288C328.8 288 336 280.8 336 272v-128c0-8.844-7.153-16-15.1-16S304 135.2 304 144v128C304 280.8 311.2 288 319.1 288zM90.25 67.7C83.5 62.09 73.41 62.95 67.72 69.75C24.03 122.1 0 188.3 0 256s24.03 133.9 67.72 186.3C70.88 446 75.44 448 80 448c3.625 0 7.25-1.219 10.25-3.703c6.781-5.672 7.688-15.75 2.031-22.55C53.41 375.1 32 316.3 32 256s21.41-119.1 60.28-165.8C97.94 83.45 97.03 73.38 90.25 67.7zM572.3 69.75c-5.656-6.828-15.78-7.656-22.53-2.047c-6.781 5.672-7.688 15.75-2.031 22.55C586.6 136.9 608 195.8 608 256s-21.41 119.1-60.28 165.8c-5.656 6.797-4.75 16.88 2.031 22.55C552.8 446.8 556.4 448 560 448c4.562 0 9.125-1.953 12.28-5.75C615.1 389.9 640 323.7 640 256S615.1 122.1 572.3 69.75z"/></svg>