<svg xmlns="http://www.w3.org/2000/svg" viewBox="0 0 512 512"><!--! Font Awesome Pro 6.0.0-alpha3 by @fontawesome - https://fontawesome.com License - https://fontawesome.com/license (Commercial License) --><path d="M408 80h-48c-13.25 0-24 10.74-24 24v48c0 13.25 10.75 24 24 24h48c13.25 0 24-10.75 24-24v-48C432 90.74 421.3 80 408 80zM400 144h-32v-32h32V144zM152 336h-48c-13.25 0-24 10.74-24 24v48c0 13.25 10.75 24 24 24h48c13.25 0 24-10.75 24-24v-48C176 346.7 165.3 336 152 336zM144 400h-32v-32h32V400zM448 0H192C156.7 0 128 28.65 128 64v16C128 88.84 135.2 96 144 96S160 88.84 160 80V64c0-17.67 14.33-32 32-32h256c17.67 0 32 14.33 32 32v432c0 8.836 7.164 16 16 16s16-7.164 16-16V64C512 28.65 483.3 0 448 0zM408 208h-48c-13.25 0-24 10.74-24 24v48c0 13.25 10.75 24 24 24h48c13.25 0 24-10.75 24-24v-48C432 218.7 421.3 208 408 208zM400 272h-32v-32h32V272zM408 336h-48c-13.25 0-24 10.74-24 24v48c0 13.25 10.75 24 24 24h48c13.25 0 24-10.75 24-24v-48C432 346.7 421.3 336 408 336zM400 400h-32v-32h32V400zM152 208h-48C90.75 208 80 218.7 80 232v48c0 13.25 10.75 24 24 24h48c13.25 0 24-10.75 24-24v-48C176 218.7 165.3 208 152 208zM144 272h-32v-32h32V272zM192 128L64 128C28.65 128 0 156.7 0 192v304C0 504.8 7.164 512 16 512S32 504.8 32 496V192c0-17.67 14.33-32 32-32h128c17.67 0 32 14.33 32 32v304C224 504.8 231.2 512 240 512s16-7.164 16-16V192C256 156.7 227.3 128 192 128z"/></svg>