<svg xmlns="http://www.w3.org/2000/svg" viewBox="0 0 384 512"><!--! Font Awesome Pro 6.0.0-alpha3 by @fontawesome - https://fontawesome.com License - https://fontawesome.com/license (Commercial License) --><path d="M176 296v-48C176 234.7 165.3 224 152 224h-48C90.75 224 80 234.7 80 248v48C80 309.3 90.75 320 104 320h48C165.3 320 176 309.3 176 296zM144 288h-32V256h32V288zM104 192h48C165.3 192 176 181.3 176 168v-48C176 106.7 165.3 96 152 96h-48C90.75 96 80 106.7 80 120v48C80 181.3 90.75 192 104 192zM112 128h32v32h-32V128zM192 384c-35.28 .0508-64 28.47-64 63.85v48.09c0 8.824 7.199 16.05 16 16.05S160 504.8 160 495.1v-48.09c0-17.6 14.45-31.26 32-31.3c17.55 .043 32 13.7 32 31.3v48.09c0 8.824 7.199 16.05 16 16.05s16-7.23 16-16.05v-48.09C256 412.5 227.3 384.1 192 384zM280 96h-48c-13.25 0-24 10.74-24 24v48C208 181.3 218.7 192 232 192h48c13.25 0 24-10.75 24-24v-48C304 106.7 293.3 96 280 96zM272 160h-32v-32h32V160zM320 0H64C28.65 0 0 28.65 0 64v432C0 504.8 7.164 512 16 512S32 504.8 32 496V64c0-17.67 14.33-32 32-32h256c17.67 0 32 14.33 32 32v432c0 8.836 7.164 16 16 16s16-7.164 16-16V64C384 28.65 355.3 0 320 0zM280 224h-48c-13.25 0-24 10.74-24 24v48c0 13.25 10.75 24 24 24h48c13.25 0 24-10.75 24-24v-48C304 234.7 293.3 224 280 224zM272 288h-32V256h32V288z"/></svg>