<svg xmlns="http://www.w3.org/2000/svg" viewBox="0 0 512 512"><!--! Font Awesome Pro 6.0.0-alpha3 by @fontawesome - https://fontawesome.com License - https://fontawesome.com/license (Commercial License) --><path d="M267.3 244.7c-4.375-4.375-10.94-5.828-16.69-3.75l-224 80C20.31 323.2 16.08 329.1 16 335.8c-.0781 6.688 4.016 12.72 10.25 15.12l81.03 31.15l-102.6 102.6c-6.25 6.25-6.25 16.38 0 22.62C7.813 510.4 11.91 512 16 512s8.188-1.562 11.31-4.688l102.6-102.6l31.15 81.03C163.4 491.9 169.4 496 176 496c6.703-.0781 12.81-4.312 15.06-10.62l80-224C273.1 255.6 271.7 249.1 267.3 244.7zM175.4 433.1l-24.5-63.73c-1.625-4.219-4.969-7.562-9.188-9.188l-63.73-24.5l151.6-54.14L175.4 433.1zM256 0C114.8 0 0 114.8 0 256c0 8.844 7.156 16 16 16S32 264.8 32 256c0-123.5 100.5-224 224-224s224 100.5 224 224s-100.5 224-224 224c-8.844 0-16 7.156-16 16S247.2 512 256 512c141.2 0 256-114.8 256-256S397.2 0 256 0zM284.5 380.8c-8.625 1.938-14.03 10.53-12.06 19.12C274.1 407.4 280.7 412.4 288 412.4c1.156 0 2.344-.125 3.531-.4062C364.8 395.4 416 331.2 416 256c0-88.22-71.78-160-160-160C180.8 96 116.6 147.2 99.97 220.5C97.1 229.1 103.4 237.7 112 239.6c8.656 2.031 17.16-3.438 19.12-12.06C144.5 168.9 195.8 128 256 128c70.59 0 128 57.41 128 128C384 316.2 343.1 367.5 284.5 380.8z"/></svg>