<svg xmlns="http://www.w3.org/2000/svg" viewBox="0 0 512 512"><!--! Font Awesome Pro 6.0.0-alpha3 by @fontawesome - https://fontawesome.com License - https://fontawesome.com/license (Commercial License) --><path d="M509.7 221.9c-1.156-8.781-9.5-15.31-17.97-13.72c-8.75 1.156-14.91 9.219-13.72 17.97C479.3 235.9 480 245.1 480 256c0 123.5-100.5 224-224 224s-224-100.5-224-224s100.5-224 224-224c10.03 0 20.06 .6562 29.88 1.969c8.5 1.5 16.81-4.969 17.97-13.72c1.188-8.75-4.969-16.81-13.72-17.97C278.9 .75 267.4 0 256 0C114.8 0 0 114.8 0 256s114.8 256 256 256s256-114.8 256-256C512 244.6 511.3 233.1 509.7 221.9zM256 128c8.844 0 16-7.156 16-16S264.8 96 256 96C167.8 96 96 167.8 96 256s71.78 160 160 160s160-71.78 160-160c0-8.844-7.156-16-16-16S384 247.2 384 256c0 70.59-57.41 128-128 128s-128-57.41-128-128S185.4 128 256 128zM244.7 244.7c-6.25 6.25-6.25 16.38 0 22.62c6.246 6.246 16.37 6.254 22.62 0l89.95-89.95l71.6 14.32c1.047 .2031 2.094 .3119 3.141 .3119c4.203 0 8.281-1.656 11.31-4.687l64-64c4.172-4.172 5.703-10.3 4-15.95c-1.703-5.641-6.391-9.891-12.17-11.05l-69.55-13.91l-13.91-69.55c-1.156-5.781-5.408-10.47-11.05-12.17c-5.672-1.719-11.77-.1719-15.95 4l-64 64c-3.781 3.781-5.422 9.203-4.375 14.45l14.32 71.6L244.7 244.7zM421.3 113.4l42.29 8.461l-36.81 36.8l-42.28-8.451L421.3 113.4zM390.2 48.46l8.461 42.29l-36.81 36.8l-8.451-42.28L390.2 48.46z"/></svg>