<svg xmlns="http://www.w3.org/2000/svg" viewBox="0 0 512 512"><!--! Font Awesome Pro 6.0.0-alpha3 by @fontawesome - https://fontawesome.com License - https://fontawesome.com/license (Commercial License) --><path d="M416 0c-7.125 0-14.19 2.375-19.97 7.031L311 75.06C268.3 109.2 214.7 128 160 128H64C28.66 128 0 156.7 0 192v96c0 35.34 28.66 64 64 64h96c54.66 0 108.3 18.81 150.1 52.94L396 472.1C400.8 476.8 409.8 480 416 480c24.91 0 32-22.78 32-32V32C448 23.25 441 0 416 0zM160 320H64c-17.64 0-32-14.36-32-32V192c0-17.64 14.36-32 32-32h96V320zM415.8 447.8L330.1 379.9C290.1 347.1 242.5 328.1 192 322.1V157.9c50.53-6.006 98.99-25.86 138.1-57.82l84.94-67.93c.0234 .0234-.0176 0 0 0c.0352 0-.0117 .0996 0 0l.1244 414.8C416 447.2 415.9 447.5 415.8 447.8zM191.7 383.5C191.4 374.7 184.3 368.2 175.2 368c-8.828 .2656-15.78 7.656-15.52 16.48c1.156 38 28.36 70.55 28.61 70.83c3.594 4.203 4.688 11.11 2.641 16.86C189.3 476.9 185.8 480 182.3 480H130.8C128.3 480 125.8 478.5 124 475.9c-1.188-1.672-29.05-41.7-27.97-91.58C96.22 375.5 89.22 368.2 80.38 368c-8.406-.25-16.16 6.828-16.34 15.66c-1.281 59.28 30.23 105.6 33.88 110.8C105.9 505.6 117.9 512 130.8 512h51.47c17.34 0 32.59-11.44 38.84-29.09c5.906-16.52 2.578-35.53-8.297-48.2C212.6 434.5 192.5 409.5 191.7 383.5zM496 192C487.2 192 480 199.2 480 208v64C480 280.8 487.2 288 496 288S512 280.8 512 272v-64C512 199.2 504.8 192 496 192z"/></svg>