<svg xmlns="http://www.w3.org/2000/svg" viewBox="0 0 512 512"><!--! Font Awesome Pro 6.0.0-alpha3 by @fontawesome - https://fontawesome.com License - https://fontawesome.com/license (Commercial License) --><path d="M256 0C114.8 0 0 114.8 0 256s114.8 256 256 256s256-114.8 256-256S397.2 0 256 0zM256 480c-123.5 0-224-100.5-224-224s100.5-224 224-224s224 100.5 224 224S379.5 480 256 480zM256 96C167.8 96 96 167.8 96 256s71.78 160 160 160s160-71.78 160-160S344.2 96 256 96zM256 384c-70.59 0-128-57.41-128-128s57.41-128 128-128s128 57.41 128 128S326.6 384 256 384zM256 192C220.7 192 192 220.7 192 256s28.72 64 64 64s64-28.72 64-64S291.3 192 256 192zM256 288C238.3 288 224 273.7 224 256s14.34-32 32-32s32 14.34 32 32S273.7 288 256 288z"/></svg>