<svg xmlns="http://www.w3.org/2000/svg" viewBox="0 0 512 512"><!--! Font Awesome Pro 6.0.0-alpha3 by @fontawesome - https://fontawesome.com License - https://fontawesome.com/license (Commercial License) --><path d="M255.1 144c8.875 0 16-7.125 16-16s-7.125-16-15.1-16S239.1 119.1 239.1 128S247.1 144 255.1 144zM351.1 176c8.875 0 16-7.125 16-16s-7.125-16-16-16s-16 7.125-16 16S343.1 176 351.1 176zM512 304c0-22.83-12.1-42.75-30.13-54.08c1.57-2.082 3.316-3.926 4.676-6.275c12.55-21.7 12.56-49.77 .0313-71.52C443.1 96.84 352.6 48.13 255.1 48C159.5 48.13 68.91 96.84 25.3 172.1C12.78 193.8 12.81 221.9 25.36 243.6c1.371 2.373 3.131 4.236 4.717 6.336C12.07 261.3 0 281.2 0 304c0 18.85 8.342 35.65 21.35 47.37C18.26 356.3 16 361.8 16 368V384c0 44.11 35.89 80 80 80h320c44.11 0 80-35.89 80-80v-16c0-6.227-2.258-11.71-5.348-16.63C503.7 339.6 512 322.9 512 304zM53 188.1C90.41 123.6 172 80.11 256 80c84.06 .1094 165.6 43.56 202.9 108.1c7.859 13.66 5.656 29.69-.0156 39.52C456.2 232.3 450.2 240 440.2 240H71.72c-9.984 0-15.97-7.766-18.64-12.41C47.39 217.8 45.17 201.7 53 188.1zM377.4 272L320 329.4L262.6 272H377.4zM32 304c0-17.64 14.36-32 32-32h153.4l64 64H64C46.36 336 32 321.6 32 304zM464 384c0 26.47-21.53 48-48 48H96c-26.47 0-48-21.53-48-48v-16h416V384zM448 336h-89.38l64-64H448c17.64 0 32 14.36 32 32S465.6 336 448 336zM159.1 176c8.875 0 16-7.125 16-16s-7.125-16-16-16s-16 7.125-16 16S151.1 176 159.1 176z"/></svg>