<svg xmlns="http://www.w3.org/2000/svg" viewBox="0 0 640 512"><!--! Font Awesome Pro 6.0.0-alpha3 by @fontawesome - https://fontawesome.com License - https://fontawesome.com/license (Commercial License) --><path d="M447.9 272c8.875 0 16.09-7.126 16.09-16s-7.114-15.1-15.99-15.1S431.9 247.1 431.9 256S438.1 272 447.9 272zM527.9 288c8.875 0 16.09-7.126 16.09-16s-7.125-16-16-16S511.9 263.1 511.9 272S518.1 288 527.9 288zM224.2 479.9l-128.3-.7773L63.86 160h272.1c8.799 0 16.04-7.202 16.04-16c0-8.801-7.201-16-15.1-16L212.5 128l23.1-96H271.9c8.799 0 16.04-7.2 16.04-16s-7.2-16-15.1-16L236.5 0C221.7 0 208.1 10 205.5 24.25L179.5 128L15.1 127.1C7.202 127.1 0 135.2 0 143.1C0 152.8 7.199 160 15.1 160h15.1l32 322.2c1.125 16.88 15.13 29.88 31.1 29.75L224.1 512c8.834 0 15.1-7.164 15.1-16C240.1 487.2 232.1 479.1 224.2 479.9zM367.9 288c8.875 0 16.09-7.126 16.09-16s-7.125-16-16-16S351.9 263.1 351.9 272S358.1 288 367.9 288zM640 376c0-15.32-6.18-29.18-16.14-39.29C623.9 336.5 624 336.3 624 336V296c0-24.05-10.22-46.97-29.56-66.27c-71.43-71.33-221.2-71.55-292.9 0C282.2 249 272 271.1 272 296v40c0 .2539 .1328 .4648 .1445 .7148C262.2 346.8 256 360.7 256 376s6.18 29.17 16.14 39.29C272.1 415.5 272 415.7 272 416v44C272 488.7 295.3 512 324 512h248c28.69 0 52-23.33 52-52V416c0-.2539-.1328-.4629-.1445-.7129C633.8 405.2 640 391.3 640 376zM304 296c0-15.59 6.781-30.27 20.16-43.63c56.85-56.72 186.3-61.26 247.7 0C585.2 265.7 592 280.4 592 296v24.81C589.4 320.4 586.7 320 584 320h-272c-2.742 0-5.367 .4258-8 .8066V296zM592 460c0 11.03-8.969 20-20 20h-248C312.1 480 304 471 304 460v-28.81C306.6 431.6 309.3 432 312 432h272c2.742 0 5.367-.4258 8-.8066V460zM584 400h-272C298.8 400 288 389.2 288 376C288 362.8 298.8 352 312 352h272c13.23 0 24 10.77 24 24C608 389.2 597.2 400 584 400z"/></svg>