<svg xmlns="http://www.w3.org/2000/svg" viewBox="0 0 640 512"><!--! Font Awesome Pro 6.0.0-alpha3 by @fontawesome - https://fontawesome.com License - https://fontawesome.com/license (Commercial License) --><path d="M224 480H82.65c-6.721 0-12.35-5.359-13.07-12.23L44.96 192h227.1c8.846 0 16-7.156 16-16S280.9 160 272 160H42.1L32.06 47.53C31.26 40.02 36.64 32 45.14 32h261.7C315.3 32 320.7 39.9 319.9 47.53l-9.891 94.81C309.1 151.1 315.5 159 324.3 159.9c8.83 .8125 16.66-5.469 17.57-14.25l9.893-94.81C354.2 27.2 337.1 0 306.8 0H45.14c-34.37 0-46.88 32.01-44.95 50.61l37.54 420.2C40.17 494.3 59.49 512 82.65 512h141.4c8.846 0 16-7.156 16-16S232.8 480 224 480zM527.9 288c8.875 0 16.09-7.126 16.09-16s-7.125-15.1-16-15.1S511.9 263.1 511.9 272S518.1 288 527.9 288zM367.9 288c8.875 0 16.09-7.126 16.09-16s-7.125-15.1-16-15.1S351.9 263.1 351.9 272S358.1 288 367.9 288zM447.9 272c8.875 0 16.09-7.126 16.09-16c0-8.875-7.115-15.1-15.99-15.1S431.9 247.1 431.9 256S438.1 272 447.9 272zM640 376c0-15.32-6.18-29.18-16.14-39.29C623.9 336.5 624 336.3 624 336V296c0-24.05-10.22-46.97-29.56-66.27c-71.43-71.33-221.2-71.55-292.9 0C282.2 249 272 271.1 272 296v40c0 .2539 .1328 .4648 .1445 .7148C262.2 346.8 255.1 360.7 255.1 376s6.181 29.17 16.15 39.29C272.1 415.5 272 415.7 272 416v44C272 488.7 295.3 512 324 512h248c28.69 0 52-23.33 52-52V416c0-.2539-.1328-.4629-.1445-.7129C633.8 405.2 640 391.3 640 376zM304 296c0-15.59 6.781-30.27 20.16-43.63c56.85-56.72 186.3-61.26 247.7 0C585.2 265.7 592 280.4 592 296v24.81C589.4 320.4 586.7 320 584 320h-272c-2.742 0-5.367 .4258-8 .8066V296zM592 460c0 11.03-8.969 20-20 20h-248C312.1 480 304 471 304 460v-28.81C306.6 431.6 309.3 432 312 432h272c2.742 0 5.367-.4258 8-.8066V460zM584 400h-272C298.8 400 288 389.2 288 376C288 362.8 298.8 352 312 352h272c13.23 0 24 10.77 24 24C608 389.2 597.2 400 584 400z"/></svg>