<svg xmlns="http://www.w3.org/2000/svg" viewBox="0 0 640 512"><!--! Font Awesome Pro 6.0.0-alpha3 by @fontawesome - https://fontawesome.com License - https://fontawesome.com/license (Commercial License) --><path d="M160 272c8.842 0 15.1-7.156 15.1-16L175.1 32.05L208 47.99v208c0 8.844 7.156 16 16 16s16-7.156 16-16V47.99c0-12.22-7.062-23.47-17.72-28.56L190.4 3.504C180.5-1.574 168.5-1.09 159.3 4.676C149.9 10.41 144 20.86 144 31.99v224C144 264.9 151.2 272 160 272zM95.99 208c.9219 0 1.859-.0781 2.797-.25c8.703-1.531 14.52-9.828 12.97-18.53L89.72 64.31L119.1 47c7.672-4.391 10.33-14.17 5.938-21.84C121.5 17.52 111.8 14.85 104.1 19.22l-40 22.9C58.19 45.49 55.08 52.16 56.25 58.8l24 135.1C81.61 202.6 88.36 208 95.99 208zM266.9 63.19l33.95 11.33L272.5 188.1C270.3 196.7 275.5 205.4 284.1 207.5c1.297 .3281 2.609 .4844 3.891 .4844c7.172 0 13.69-4.844 15.5-12.12l32-127.1c2.031-8.109-2.531-16.41-10.45-19.05l-48-16c-8.484-2.795-17.44 1.734-20.23 10.11C254 51.35 258.6 60.41 266.9 63.19zM365.3 159.8c.9219 .1562 1.828 .2344 2.719 .2344c7.656 0 14.42-5.5 15.75-13.3l7.75-45.28c1.5-8.719-4.359-16.98-13.06-18.47c-8.781-1.42-16.97 4.359-18.47 13.06l-7.75 45.28C350.7 150 356.6 158.3 365.3 159.8zM32.49 191.1c1.062 0 2.156-.1094 3.25-.3281C44.39 189.9 49.96 181.4 48.18 172.8l-16.5-79.98C29.89 84.14 21.5 78.64 12.77 80.35C4.113 82.13-1.449 90.59 .332 99.25l16.5 79.98C18.39 186.8 25.05 191.1 32.49 191.1zM640 376c0-15.32-6.18-29.17-16.14-39.28C623.9 336.5 624 336.3 624 336v-39.1c0-24.04-10.22-46.97-29.56-66.26c-32.72-32.67-90.03-53.73-146-53.73h-.75c-56.06 0-113.4 21.06-146.1 53.73C282.2 249 272 271.1 272 296v39.1c0 .2539 .1328 .4648 .1445 .7148C262.2 346.8 256 360.7 256 376c0 15.32 6.182 29.17 16.15 39.29c-.0117 .25-.1445 .4609-.1445 .7148v43.1c0 28.67 23.31 51.1 51.1 51.1H572c28.69 0 52-23.33 52-51.1v-43.1c0-.2539-.1328-.4629-.1445-.7129C633.8 405.2 640 391.3 640 376zM304 296c0-15.59 6.781-30.26 20.16-43.62c26.62-26.56 76.2-44.38 123.5-44.38c.1562 0 .3906-.0156 .6406 0c47.28 0 96.87 17.82 123.5 44.38C585.2 265.7 592 280.4 592 296v24.81c-2.633-.3809-5.258-.8066-8-.8066H312c-2.742 0-5.367 .4258-8 .8066V296zM592 460c0 11.03-8.969 20-20 20h-247.1c-11.03 0-20-8.969-20-20v-28.8c2.633 .3809 5.258 .8066 8 .8066H584c2.742 0 5.367-.4258 8-.8066V460zM584 400H312c-13.23 0-24-10.77-24-23.1c0-13.23 10.77-24 24-24H584c13.23 0 24 10.77 24 24C608 389.2 597.2 400 584 400zM367.9 288c8.875 0 16.08-7.131 16.08-16.01s-7.125-16-16-16s-16.08 7.133-16.08 16.01S358.1 288 367.9 288zM447.9 272c8.875 0 16.08-7.133 16.08-16.01s-7.115-16-15.99-16s-16.09 7.133-16.09 16.01S438.1 272 447.9 272zM527.9 288c8.875 0 16.09-7.131 16.09-16.01s-7.125-16-16-16s-16.09 7.133-16.09 16.01S518.1 288 527.9 288zM240 480H92.5l-56-224h4.875L64.1 279.6c25.58 25.58 57.86 42.86 93.91 50.08c30.1 6.002 54.3 3.275 68.19 .4199C234.6 328.6 240 322.1 240 314.5c0-10.07-9.117-17.51-19.01-15.62C208.9 301.2 192 302.6 171.3 299.4C143.2 294.1 104.1 273.4 83.98 253.4L61.9 231.3C56.25 225.6 52.24 224 47.1 224L15.1 223.1c-4.922 0-9.491 2.141-12.52 6.031C.4453 233.9-.7207 239.1 .4824 243.9l64 256C66.26 507 72.67 512 80.01 512H240C248.8 512 256 504.8 256 496C256 487.2 248.8 480 240 480z"/></svg>