<svg xmlns="http://www.w3.org/2000/svg" viewBox="0 0 448 512"><!--! Font Awesome Pro 6.0.0-alpha3 by @fontawesome - https://fontawesome.com License - https://fontawesome.com/license (Commercial License) --><path d="M96 376c13.25 0 24-10.75 24-24S109.3 328 96 328S72 338.7 72 352S82.75 376 96 376zM352 376c13.25 0 24-10.75 24-24s-10.75-24-24-24s-24 10.75-24 24S338.7 376 352 376zM224 0C99.25 0 0 51.25 0 96v288c0 23.51 12.99 43.93 32 55.06V496C32 504.8 39.16 512 48 512C56.84 512 64 504.8 64 496V448h320v48c0 8.836 7.164 16 16 16c8.838 0 16-7.164 16-16v-56.94c19.01-11.13 32-31.55 32-55.06V96C448 51.25 348.8 0 224 0zM416 384c0 17.64-14.36 32-32 32H64c-17.64 0-32-14.36-32-32L31.1 287.1L416 288V384zM416 256H31.1l-.002-128H416V256zM32.05 96C34.05 79.96 104.9 32 224 32c119.4 0 190.2 48.15 192 64H32.05z"/></svg>