<svg xmlns="http://www.w3.org/2000/svg" viewBox="0 0 576 512"><!--! Font Awesome Pro 6.0.0-alpha3 by @fontawesome - https://fontawesome.com License - https://fontawesome.com/license (Commercial License) --><path d="M32 128C23.16 128 16 135.2 16 144v96C16 248.8 23.16 256 32 256s16-7.164 16-16v-96C48 135.2 40.84 128 32 128zM544 128c-8.836 0-16 7.164-16 16v96C528 248.8 535.2 256 544 256s16-7.164 16-16v-96C560 135.2 552.8 128 544 128zM160 328c-13.25 0-24 10.75-24 24S146.7 376 160 376S184 365.3 184 352S173.3 328 160 328zM416 328c-13.25 0-24 10.75-24 24s10.75 24 24 24s24-10.75 24-24S429.3 328 416 328zM336 64h-96C231.2 64 224 71.16 224 80S231.2 96 240 96h96C344.8 96 352 88.84 352 80S344.8 64 336 64zM496 96c0-44.75-92.13-96-208-96S80 51.25 80 96v203.1C69.93 314.2 64 332.4 64 352v32c0 23.63 12.95 44.04 32 55.12V496C96 504.8 103.2 512 112 512S128 504.8 128 496V448h320v48c0 8.836 7.164 16 16 16s16-7.164 16-16v-56.88C499 428 512 407.6 512 384v-32c0-19.59-5.93-37.76-16-52.95V96zM112 96c0-15.43 64.36-64 176-64s176 48.57 176 64v32h-352V96zM464 160v109.3C449.8 261.1 433.6 256 416 256h-112V160H464zM112 160h160v96H160C142.4 256 126.2 261.1 112 269.3V160zM480 384c0 17.64-14.36 32-32 32H128c-17.64 0-32-14.36-32-32v-32c0-35.29 28.71-64 64-64h256c35.29 0 64 28.71 64 64V384z"/></svg>