<svg xmlns="http://www.w3.org/2000/svg" viewBox="0 0 576 512"><!--! Font Awesome Pro 6.0.0-alpha3 by @fontawesome - https://fontawesome.com License - https://fontawesome.com/license (Commercial License) --><path d="M416 376c13.25 0 24-10.75 24-24s-10.75-24-24-24s-24 10.75-24 24S402.7 376 416 376zM16 128C7.164 128 0 135.2 0 144v96C0 248.8 7.164 256 16 256S32 248.8 32 240v-96C32 135.2 24.84 128 16 128zM288 0C163.3 0 64 51.25 64 96v288c0 23.51 12.99 43.93 32 55.06V496C96 504.8 103.2 512 112 512S128 504.8 128 496V448h320v48c0 8.836 7.164 16 16 16s16-7.164 16-16v-56.94c19.01-11.13 32-31.55 32-55.06V96C512 51.25 412.8 0 288 0zM480 384c0 17.64-14.36 32-32 32H128c-17.64 0-32-14.36-32-32L95.1 288H480V384zM95.1 160H272v96H95.1L95.1 160zM480 256h-176V160H480V256zM480 128H95.1V96.11C97.75 80.15 168.7 32 288 32s190.2 48.15 192 64V128zM160 376c13.25 0 24-10.75 24-24S173.3 328 160 328S136 338.7 136 352S146.7 376 160 376zM560 128C551.2 128 544 135.2 544 144v96C544 248.8 551.2 256 560 256S576 248.8 576 240v-96C576 135.2 568.8 128 560 128zM336 64h-96C231.2 64 224 71.16 224 80S231.2 96 240 96h96C344.8 96 352 88.84 352 80S344.8 64 336 64z"/></svg>