<svg xmlns="http://www.w3.org/2000/svg" viewBox="0 0 512 512"><!--! Font Awesome Pro 6.0.0-alpha3 by @fontawesome - https://fontawesome.com License - https://fontawesome.com/license (Commercial License) --><path d="M511.5 51.88c-2.281-8.5-10.99-13.64-19.61-11.28l-479.1 128c-8.531 2.266-13.56 11.06-11.28 19.61c2.483 9.323 11.84 13.37 19.53 11.28l219.9-58.71V224H95.99C60.65 224 31.99 252.7 31.99 288v160c0 35.35 28.66 64 63.1 64h319.1c35.34 0 63.1-28.65 63.1-64V288c0-35.35-28.66-64-63.1-64h-144V132.3l228.1-60.78C508.6 69.22 513.7 60.42 511.5 51.88zM64.01 288c0-17.64 14.35-32 31.1-32h63.1l-.0025 96H64.01V288zM447.1 448c0 17.64-14.35 32-31.1 32H96.01c-17.64 0-31.1-14.36-31.1-32v-64h383.1V448zM351.1 256h63.1c17.64 0 31.1 14.36 31.1 32v64h-95.99L351.1 256zM319.1 256v96H192V256H319.1zM287.1 56c13.25 0 23.1-10.74 23.1-24s-10.75-24-23.1-24S263.1 18.74 263.1 32S274.7 56 287.1 56zM192 88c13.25 0 23.1-10.74 23.1-24S205.3 40 192 40S168 50.74 168 64S178.8 88 192 88z"/></svg>