<svg xmlns="http://www.w3.org/2000/svg" viewBox="0 0 448 512"><!--! Font Awesome Pro 6.0.0-alpha3 by @fontawesome - https://fontawesome.com License - https://fontawesome.com/license (Commercial License) --><path d="M384 64h-32V16C352 7.164 344.8 0 336 0S320 7.164 320 16V64H128V16C128 7.164 120.8 0 112 0S96 7.164 96 16V64H64C28.65 64 0 92.65 0 128v320c0 35.35 28.65 64 64 64h320c35.35 0 64-28.65 64-64V128C448 92.65 419.3 64 384 64zM416 448c0 17.67-14.33 32-32 32H64c-17.67 0-32-14.33-32-32V192h384V448zM416 160H32V128c0-17.67 14.33-32 32-32h320c17.67 0 32 14.33 32 32V160zM131 447.7l60.79-12.15c3.068-.6133 5.891-2.125 8.109-4.344l122.2-122.2c7.559-7.555 12.82-17.37 13.76-28.02c1.158-13.14-3.432-25.7-12.62-34.88l-8.172-8.176c-7.559-7.559-17.37-12.83-28.01-13.78c-13.14-1.172-25.7 3.414-34.89 12.59l-123.3 123.3c-2.217 2.215-3.725 5.039-4.342 8.113l-12.16 60.79C110.1 440.1 119.9 449.9 131 447.7zM274.6 259.2c4.652-4.645 12.19-4.652 16.84 .0039l9.338 9.336c4.641 4.641 4.668 12.18-.0039 16.84l-11.22 11.22l-26.18-26.18L274.6 259.2zM154.7 379.2l86.22-86.23l26.18 26.18l-86.23 86.23l-32.72 6.539L154.7 379.2z"/></svg>