<svg xmlns="http://www.w3.org/2000/svg" viewBox="0 0 576 512"><!--! Font Awesome Pro 6.0.0-alpha3 by @fontawesome - https://fontawesome.com License - https://fontawesome.com/license (Commercial License) --><path d="M432 224C352.4 224 288 288.4 288 368s64.38 144 144 144S576 447.6 576 368S511.6 224 432 224zM432 480c-61.75 0-112-50.25-112-112S370.3 256 432 256S544 306.3 544 368S493.8 480 432 480zM480 352h-32V304C448 295.2 440.8 288 432 288S416 295.2 416 304v64c0 8.836 7.164 16 16 16H480c8.836 0 16-7.164 16-16S488.8 352 480 352zM300.9 485.4C297.9 482 293.6 480 289.1 480H64c-17.67 0-32-14.33-32-32V192h400C440.8 192 448 184.8 448 176V128c0-35.35-28.65-64-64-64h-32V16C352 7.164 344.8 0 336 0S320 7.164 320 16V64H128V16C128 7.164 120.8 0 112 0S96 7.164 96 16V64H64C28.65 64 0 92.65 0 128v320c0 35.35 28.65 64 64 64h225.4c13.64 0 20.92-16.14 11.77-26.26C301.1 485.6 300.1 485.5 300.9 485.4zM32 128c0-17.67 14.33-32 32-32h320c17.67 0 32 14.33 32 32v32H32V128z"/></svg>