<svg xmlns="http://www.w3.org/2000/svg" viewBox="0 0 448 512"><!--! Font Awesome Pro 6.0.0-alpha3 by @fontawesome - https://fontawesome.com License - https://fontawesome.com/license (Commercial License) --><path d="M384 64h-32V16C352 7.164 344.8 0 336 0S320 7.164 320 16L320 64h-192L128 16C128 7.164 120.8 0 112 0S96 7.164 96 16V64H64C28.65 64 0 92.66 0 128v320c0 35.34 28.65 64 64 64h320c35.35 0 64-28.66 64-64V128C448 92.66 419.3 64 384 64zM416 448c0 17.67-14.33 32-32 32H64c-17.67 0-32-14.33-32-32V192h384V448zM416 160H32V128c0-17.67 14.33-32 32-32h320c17.67 0 32 14.33 32 32V160zM96 320H128c17.67 0 32-14.33 32-32L160 256c0-17.67-14.33-32-32-32H96C78.33 224 64 238.3 64 256l.0003 32C64 305.7 78.33 320 96 320zM96 256H128l.0003 32H96L96 256zM352 352h-32c-17.67 0-32 14.33-32 32l.0001 32c0 17.67 14.33 32 31.1 32h32c17.67 0 32-14.33 32-32L384 384C384 366.3 369.7 352 352 352zM352 416h-31.1L320 384h32L352 416zM208 288h160C376.8 288 384 280.8 384 272S376.8 256 368 256h-160C199.2 256 192 263.2 192 272S199.2 288 208 288zM80 416h160c8.836 0 16-7.164 16-16S248.8 384 240 384h-160C71.16 384 64 391.2 64 400S71.16 416 80 416z"/></svg>