<svg xmlns="http://www.w3.org/2000/svg" viewBox="0 0 448 512"><!--! Font Awesome Pro 6.0.0-alpha3 by @fontawesome - https://fontawesome.com License - https://fontawesome.com/license (Commercial License) --><path d="M384 64h-32V16C352 7.164 344.8 0 336 0S320 7.164 320 16V64H128V16C128 7.164 120.8 0 112 0S96 7.164 96 16V64H64C28.65 64 0 92.66 0 128v320c0 35.34 28.65 64 64 64h320c35.35 0 64-28.66 64-64V128C448 92.66 419.3 64 384 64zM416 448c0 17.67-14.33 32-32 32H64c-17.67 0-32-14.33-32-32V192h384V448zM416 160H32V128c0-17.67 14.33-32 32-32h320c17.67 0 32 14.33 32 32V160zM148.7 411.3c6.246 6.246 16.37 6.254 22.62 0L224 358.6l52.69 52.69c6.246 6.246 16.37 6.254 22.62 0c6.25-6.25 6.25-16.38 0-22.62L246.6 336l52.69-52.69c6.25-6.25 6.25-16.38 0-22.62s-16.38-6.25-22.62 0L224 313.4L171.3 260.7c-6.25-6.25-16.38-6.25-22.62 0s-6.25 16.38 0 22.62L201.4 336l-52.69 52.69C142.4 394.9 142.4 405.1 148.7 411.3z"/></svg>