<svg xmlns="http://www.w3.org/2000/svg" viewBox="0 0 448 512"><!--! Font Awesome Pro 6.0.0-alpha3 by @fontawesome - https://fontawesome.com License - https://fontawesome.com/license (Commercial License) --><path d="M384 64h-32V16C352 7.164 344.8 0 336 0S320 7.164 320 16V64H128V16C128 7.164 120.8 0 112 0S96 7.164 96 16V64H64C28.65 64 0 92.65 0 128v320c0 35.35 28.65 64 64 64h320c35.35 0 64-28.65 64-64V128C448 92.65 419.3 64 384 64zM416 448c0 17.67-14.33 32-32 32H64c-17.67 0-32-14.33-32-32V192h384V448zM416 160H32V128c0-17.67 14.33-32 32-32h320c17.67 0 32 14.33 32 32V160zM285.4 324L240 364.4V256c0-8.844-7.156-16-16-16S208 247.2 208 256v108.4l-45.38-40.34C159.6 321.3 155.8 320 152 320c-4.406 0-8.812 1.812-11.97 5.375c-5.875 6.594-5.25 16.72 1.344 22.59l72 63.98c6.062 5.406 15.19 5.406 21.25 0l72-63.98c6.594-5.875 7.219-16 1.344-22.59C302.1 318.8 291.1 318.2 285.4 324z"/></svg>