<svg xmlns="http://www.w3.org/2000/svg" viewBox="0 0 448 512"><!--! Font Awesome Pro 6.0.0-alpha3 by @fontawesome - https://fontawesome.com License - https://fontawesome.com/license (Commercial License) --><path d="M384 64h-32V16C352 7.164 344.8 0 336 0S320 7.164 320 16L320 64h-192L128 16C128 7.164 120.8 0 112 0S96 7.164 96 16V64H64C28.65 64 0 92.65 0 128v320c0 35.35 28.65 64 64 64h320c35.35 0 64-28.65 64-64V128C448 92.65 419.3 64 384 64zM416 448c0 17.67-14.33 32-32 32H64c-17.67 0-32-14.33-32-32V192h384V448zM416 160H32V128c0-17.67 14.33-32 32-32h320c17.67 0 32 14.33 32 32V160zM214.1 427.9c5.5 5.5 14.25 5.5 19.75 0l84.75-85.63c24.62-24.88 23.12-66-4.375-89c-13.88-11.62-47.63-28.5-90.13 14.5c-42.63-43-76.38-26.12-90.25-14.5c-27.5 23-28.88 64.13-4.25 89L214.1 427.9zM154.2 277.7c13.75-11.5 31.25-3.375 38.5 3.75l31.38 31.75l31.38-31.75c7.125-7.25 24.62-15.25 38.38-3.75c14.38 12 12.38 31.62 2.125 42l-72 72.63L152.2 319.7C141.8 309.4 139.8 289.7 154.2 277.7z"/></svg>