<svg xmlns="http://www.w3.org/2000/svg" viewBox="0 0 448 512"><!--! Font Awesome Pro 6.0.0-alpha3 by @fontawesome - https://fontawesome.com License - https://fontawesome.com/license (Commercial License) --><path d="M384 64h-32V16C352 7.164 344.8 0 336 0S320 7.164 320 16L320 64h-192L128 16C128 7.164 120.8 0 112 0S96 7.164 96 16V64H64C28.65 64 0 92.65 0 128v320c0 35.35 28.65 64 64 64h320c35.35 0 64-28.65 64-64V128C448 92.65 419.3 64 384 64zM416 448c0 17.67-14.33 32-32 32H64c-17.67 0-32-14.33-32-32V192h384V448zM416 160H32V128c0-17.67 14.33-32 32-32h320c17.67 0 32 14.33 32 32V160zM149.9 368.1l-7.938 46.22c-1.89 10.53 2.328 21.06 11.03 27.41c8.688 6.375 20.05 7.25 29.58 2.156l41.41-21.91l41.5 21.94c4.156 2.188 8.656 3.281 13.12 3.281c5.781 0 11.55-1.844 16.47-5.438c8.672-6.312 12.89-16.81 11.03-27.34l-7.953-46.31l33.66-32.81c7.609-7.469 10.31-18.44 7.047-28.59c-3.297-10.16-11.89-17.5-22.58-19.16l-46.44-6.781l-20.78-41.95c-4.734-9.609-14.31-15.59-25.02-15.62c-10.67 0-20.34 5.953-25.17 15.61L178.1 281.6L131.8 288.4C121.1 290 112.4 297.4 109.1 307.7c-3.25 10.19-.4687 21.16 7.203 28.56L149.9 368.1zM199.4 310.9L224 261.1l24.64 49.78l55.05 8.031l-39.88 38.88l9.406 54.88l-49.23-26l-49.08 25.97l9.406-54.84L144.4 318.9L199.4 310.9z"/></svg>