<svg xmlns="http://www.w3.org/2000/svg" viewBox="0 0 448 512"><!--! Font Awesome Pro 6.0.0-alpha3 by @fontawesome - https://fontawesome.com License - https://fontawesome.com/license (Commercial License) --><path d="M384 64h-32V16C352 7.164 344.8 0 336 0S320 7.164 320 16V64H128V16C128 7.164 120.8 0 112 0S96 7.164 96 16V64H64C28.65 64 0 92.65 0 128v320c0 35.35 28.65 64 64 64h320c35.35 0 64-28.65 64-64V128C448 92.65 419.3 64 384 64zM416 448c0 17.67-14.33 32-32 32H64c-17.67 0-32-14.33-32-32V192h384V448zM416 160H32V128c0-17.67 14.33-32 32-32h320c17.67 0 32 14.33 32 32V160zM143.1 351.1h160C312.8 351.1 320 344.8 320 336s-7.16-15.1-15.1-15.1H143.1C135.2 320 128 327.2 128 336C128 344.8 135.2 351.1 143.1 351.1z"/></svg>