<svg xmlns="http://www.w3.org/2000/svg" viewBox="0 0 448 512"><!--! Font Awesome Pro 6.0.0-alpha3 by @fontawesome - https://fontawesome.com License - https://fontawesome.com/license (Commercial License) --><path d="M384 64h-32V16C352 7.164 344.8 0 336 0S320 7.164 320 16V64H128V16C128 7.164 120.8 0 112 0S96 7.164 96 16V64H64C28.65 64 0 92.65 0 128v320c0 35.35 28.65 64 64 64h320c35.35 0 64-28.65 64-64V128C448 92.65 419.3 64 384 64zM416 448c0 17.67-14.33 32-32 32H64c-17.67 0-32-14.33-32-32V192h384V448zM416 160H32V128c0-17.67 14.33-32 32-32h320c17.67 0 32 14.33 32 32V160zM96 280c13.25 0 24-10.75 24-24c0-13.26-10.75-24-24-24S72 242.7 72 256C72 269.3 82.75 280 96 280zM94.38 448h259.2c11 0 21.17-5.805 26.54-15.09c0-.0313-.0313 .0313 0 0c5.656-9.883 5.078-21.84-1.578-31.15l-95.96-133.8c-11.28-15.81-38.5-15.94-49.1-.0313l-44.03 61.43l-6.969-8.941c-11.44-14.46-36.97-14.56-48.4 .0313l-63.03 80.35c-7.123 9.131-8.154 21.55-2.623 31.56C72.78 441.1 83.06 448 94.38 448zM156.4 340.3l20.09 25.66c4.348 5.545 17.6 10.65 25.59-.5332l54.44-78.75l92.68 129.2H98.19L156.4 340.3z"/></svg>