<svg xmlns="http://www.w3.org/2000/svg" viewBox="0 0 448 512"><!--! Font Awesome Pro 6.0.0-alpha3 by @fontawesome - https://fontawesome.com License - https://fontawesome.com/license (Commercial License) --><path d="M384 64h-32V16C352 7.164 344.8 0 336 0S320 7.164 320 16L320 64h-192L128 16C128 7.164 120.8 0 112 0S96 7.164 96 16V64H64C28.65 64 0 92.65 0 128v320c0 35.35 28.65 64 64 64h320c35.35 0 64-28.65 64-64V128C448 92.65 419.3 64 384 64zM416 448c0 17.67-14.33 32-32 32H64c-17.67 0-32-14.33-32-32V192h384V448zM416 160H32V128c0-17.67 14.33-32 32-32h320c17.67 0 32 14.33 32 32V160zM112 304h224C344.8 304 352 296.8 352 288s-7.156-16-16-16h-224C103.2 272 96 279.2 96 288S103.2 304 112 304zM112 400h128c8.844 0 16-7.156 16-16s-7.156-16-16-16h-128C103.2 368 96 375.2 96 384S103.2 400 112 400z"/></svg>