<svg xmlns="http://www.w3.org/2000/svg" viewBox="0 0 512 512"><!--! Font Awesome Pro 6.0.0-alpha3 by @fontawesome - https://fontawesome.com License - https://fontawesome.com/license (Commercial License) --><path d="M448 64l-31.1 .0001L416 16C416 7.164 408.8 0 400 0S384 7.164 384 16L384 64h-160L224 16C224 7.164 216.8 0 208 0S192 7.164 192 16l.0001 48L160 64C124.7 64 96 92.65 96 128v224c0 35.35 28.65 64 64 64h288c35.35 0 64-28.65 64-64V128C512 92.65 483.3 64 448 64zM480 352c0 17.67-14.33 32-32 32H160c-17.67 0-32-14.33-32-32V192h352V352zM480 160H128V128c0-17.67 14.33-32 32-32h288c17.67 0 32 14.33 32 32V160zM400 480H96c-35.35 0-64-28.65-64-64V176C32 167.2 24.84 160 16 160S0 167.2 0 176V416c0 53.02 42.98 96 96 96h304c8.836 0 16-7.164 16-16S408.8 480 400 480z"/></svg>