<svg xmlns="http://www.w3.org/2000/svg" viewBox="0 0 448 512"><!--! Font Awesome Pro 6.0.0-alpha3 by @fontawesome - https://fontawesome.com License - https://fontawesome.com/license (Commercial License) --><path d="M384 64h-32V15.1C352 7.163 344.8 0 336 0S320 7.163 320 15.1V64H128V15.1C128 7.163 120.8 0 112 0S96 7.163 96 15.1V64H64C28.65 64 0 92.65 0 128v320c0 35.35 28.65 64 64 64h320c35.35 0 64-28.65 64-64V128C448 92.65 419.3 64 384 64zM64 96h320c17.67 0 32 14.33 32 32v32H32V128C32 110.3 46.33 96 64 96zM384 480H64c-17.67 0-32-14.33-32-32V192h384v256C416 465.7 401.7 480 384 480z"/></svg>