<svg xmlns="http://www.w3.org/2000/svg" viewBox="0 0 512 512"><!--! Font Awesome Pro 6.0.0-alpha3 by @fontawesome - https://fontawesome.com License - https://fontawesome.com/license (Commercial License) --><path d="M448 96h-72l-8.457-22.51C358.2 48.55 334.3 32 307.6 32H204.4C177.7 32 153.9 48.51 144.5 73.45L136 96H64C28.65 96 0 124.7 0 160v256c0 35.35 28.65 64 64 64h384c35.35 0 64-28.65 64-64V160C512 124.7 483.3 96 448 96zM480 416c0 17.6-14.4 32-32 32H64c-17.6 0-32-14.4-32-32V160c0-17.6 14.4-32 32-32h94.25l16.11-43.18C179 72.3 190.1 64 204.3 64h103.3c13.36 0 25.31 8.301 29.98 20.82L353.8 128H448c17.6 0 32 14.4 32 32V416zM256 168C189.8 168 136 221.8 136 288s53.75 120 120 120s120-53.75 120-120S322.3 168 256 168zM256 376c-48.5 0-88-39.5-88-88S207.5 200 256 200S344 239.5 344 288S304.5 376 256 376z"/></svg>