<svg xmlns="http://www.w3.org/2000/svg" viewBox="0 0 512 512"><!--! Font Awesome Pro 6.0.0-alpha3 by @fontawesome - https://fontawesome.com License - https://fontawesome.com/license (Commercial License) --><path d="M496 352c-8.844 0-16 7.156-16 16v96c0 8.812-7.172 16-16 16h-96c-8.844 0-16 7.156-16 16s7.156 16 16 16h96c26.47 0 48-21.53 48-48v-96C512 359.2 504.8 352 496 352zM144 480h-96C39.17 480 32 472.8 32 464v-96C32 359.2 24.84 352 16 352S0 359.2 0 368v96C0 490.5 21.53 512 48 512h96C152.8 512 160 504.8 160 496S152.8 480 144 480zM464 0h-96C359.2 0 352 7.156 352 16S359.2 32 368 32h96C472.8 32 480 39.19 480 48v96C480 152.8 487.2 160 496 160S512 152.8 512 144v-96C512 21.53 490.5 0 464 0zM16 160C24.84 160 32 152.8 32 144v-96C32 39.19 39.17 32 48 32h96C152.8 32 160 24.84 160 16S152.8 0 144 0h-96C21.53 0 0 21.53 0 48v96C0 152.8 7.156 160 16 160zM256 224C238.3 224 224 238.3 224 256s14.33 32 32 32s32-14.33 32-32S273.7 224 256 224zM384 304v-96C384 181.5 362.5 160 336 160h-20l-6.188-16.44C306.3 134.2 297.4 128 287.4 128H224.6c-10 0-19 6.188-22.5 15.56L196 160H176C149.5 160 128 181.5 128 208v96C128 330.5 149.5 352 176 352h160C362.5 352 384 330.5 384 304zM352 304c0 8.822-7.178 16-16 16h-160C167.2 320 160 312.8 160 304v-96C160 199.2 167.2 192 176 192h42.22l11.93-32h51.66l12.04 32H336C344.8 192 352 199.2 352 208V304z"/></svg>