<svg xmlns="http://www.w3.org/2000/svg" viewBox="0 0 640 512"><!--! Font Awesome Pro 6.0.0-alpha3 by @fontawesome - https://fontawesome.com License - https://fontawesome.com/license (Commercial License) --><path d="M320 168c-2.479 0-4.795 .582-7.236 .7305l125.2 98.82C428.2 211.1 379.2 168 320 168zM128 448c-17.6 0-32-14.4-32-32V160.7L67.95 138.6C65.54 145.3 64 152.4 64 160v256c0 35.35 28.65 64 64 64h372.4l-40.53-32H128zM238.4 84.82C243 72.3 254.1 64 268.3 64h103.3c13.36 0 25.31 8.301 29.98 20.82L417.8 128H512c17.6 0 32 14.4 32 32v191.3l32 25.26V160c0-35.35-28.65-64-64-64h-72l-8.457-22.51C422.2 48.55 398.3 32 371.6 32H268.4C241.7 32 217.9 48.51 208.5 73.45L204.7 83.44l26.38 20.82L238.4 84.82zM207.2 248.5C202.8 260.9 200 274.1 200 288c0 66.25 53.75 120 120 120c23.93 0 46.1-7.197 64.83-19.28l-27.23-21.5C346.2 372.7 333.5 376 320 376c-48.5 0-88-39.5-88-88c0-6.301 .7285-12.43 1.994-18.36L207.2 248.5zM633.9 483.4l-608-480c-6.938-5.453-17-4.25-22.48 2.641c-5.469 6.938-4.281 17 2.641 22.48l608 480C617 510.9 620.5 512 623.1 512c4.734 0 9.422-2.094 12.58-6.078C642 498.1 640.8 488.9 633.9 483.4z"/></svg>