<svg xmlns="http://www.w3.org/2000/svg" viewBox="0 0 512 512"><!--! Font Awesome Pro 6.0.0-alpha3 by @fontawesome - https://fontawesome.com License - https://fontawesome.com/license (Commercial License) --><path d="M80 64h64C152.8 64 160 56.84 160 48C160 39.16 152.8 32 144 32h-64C71.16 32 64 39.16 64 48C64 56.84 71.16 64 80 64zM448 32h-144.9c-9.936 0-19.73 2.312-28.62 6.756L192 80H64c-35.35 0-64 28.65-64 64V416c0 35.35 28.65 64 64 64h384c35.35 0 64-28.65 64-64V96C512 60.65 483.3 32 448 32zM480 416c0 17.67-14.33 32-32 32H64c-17.67 0-32-14.33-32-32V288h96c0 70.59 57.42 128 128 128s128-57.41 128-128h96V416zM160 288c0-52.94 43.06-96 96-96s96 43.06 96 96s-43.06 96-96 96S160 340.9 160 288zM480 256h-100.5C365.1 200.9 315.5 160 256 160S146.9 200.9 132.5 256H32V144c0-17.67 14.33-32 32-32h120.4c9.938 0 19.74-2.314 28.62-6.758l75.73-37.86C293.2 65.16 298.1 64 303.1 64H448c17.67 0 32 14.33 32 32V256z"/></svg>