<svg xmlns="http://www.w3.org/2000/svg" viewBox="0 0 576 512"><!--! Font Awesome Pro 6.0.0-alpha3 by @fontawesome - https://fontawesome.com License - https://fontawesome.com/license (Commercial License) --><path d="M548 396.4l-238.7-271.3l86.7-98.53C401.8 19.94 401.2 9.812 394.6 4c-6.594-5.844-16.7-5.219-22.58 1.438L288 100.9L204 5.438C198.1-1.219 188-1.844 181.4 4C174.8 9.812 174.2 19.94 179.1 26.56l86.7 98.53l-238.7 271.3C20.25 405.2 16 416.4 16 428.1V464C16 490.5 37.53 512 64 512h448c26.47 0 48-21.53 48-48v-35.94C560 416.4 555.8 405.2 548 396.4zM175.1 480L288 330.7L400 480H175.1zM528 464c0 8.812-7.172 16-16 16h-72.01l-139.2-185.6c-6.031-8.062-19.56-8.062-25.59 0L136 480H64c-8.828 0-16-7.188-16-16v-35.94c0-3.875 1.422-7.625 4-10.56L288 149.3l236 268.2c2.578 2.938 4 6.688 4 10.56V464z"/></svg>