<svg xmlns="http://www.w3.org/2000/svg" viewBox="0 0 448 512"><!--! Font Awesome Pro 6.0.0-alpha3 by @fontawesome - https://fontawesome.com License - https://fontawesome.com/license (Commercial License) --><path d="M224 127.1c26.5 0 48-21.59 48-48.09c0-20.5-24.38-58.13-34.88-73.38C234.2 2.188 229.1 .0062 224 .0062S213.8 2.188 210.9 6.5C200.4 21.75 176 59.38 176 79.88C176 106.4 197.5 127.1 224 127.1zM224 45.38c9.25 15.63 15.88 29.63 16 34.5c0 8.877-7.25 16-16 16s-16-7.25-16-16C208.1 75 214.8 61 224 45.38zM368 128c26.5 0 48-21.63 48-48.13c0-20.5-24.38-58.13-34.88-73.38C378.2 2.188 373.1 .0313 368 .0313s-10.19 2.156-13.12 6.469C344.4 21.75 320 59.38 320 79.88C320 106.4 341.5 128 368 128zM368 45.38c9.25 15.63 15.88 29.63 16 34.5c0 8.877-7.25 16-16 16S352 88.63 352 79.88C352.1 75 358.8 61 368 45.38zM80 128c26.5 0 48-21.63 48-48.13c0-20.5-24.38-58.13-34.88-73.38C90.19 2.188 85.09 .0313 80 .0313S69.81 2.188 66.88 6.5C56.38 21.75 32 59.38 32 79.88C32 106.4 53.5 128 80 128zM80 45.38C89.25 61 95.88 75 96 79.88c0 8.877-7.25 16-16 16S64 88.63 64 79.88C64.13 75 70.75 61 80 45.38zM336 352c-13.2 0-24 10.8-24 24c0 13.2 10.8 24 24 24s24-10.8 24-24C360 362.8 349.2 352 336 352zM387.4 294.5L371.5 225.6c-6.605-29.04-32.34-49.63-62.1-49.63H135.9c-29.76 0-55.62 20.59-62.1 49.63L57.38 296.1C33 308.5 16 333.5 16 362.6v55.13c.125 20 13 37.63 32 43.75v34.5c0 8.875 7.125 16 16 16s16-7.127 16-16v-32h288v32c0 8.875 7.125 16 16 16s16-7.127 16-16v-34.5c19-6.125 31.88-23.75 32-43.75v-55.13C432 333.1 414.5 306.4 387.4 294.5zM104.9 232.8c3.375-14.5 16.25-24.75 31.25-24.75h173c14.88 0 27.88 10.25 31.25 24.75l12.75 55.25h-261L104.9 232.8zM400 417.8c0 7.877-6.375 14.25-14.25 14.25H62.25C54.38 432 48 425.7 48 417.8v-55.13c0-23.5 19.12-42.63 42.63-42.63h266.8c23.5 0 42.63 19.12 42.63 42.63V417.8zM112 352c-13.2 0-24 10.8-24 24c0 13.2 10.8 24 24 24s24-10.8 24-24C136 362.8 125.2 352 112 352z"/></svg>