<svg xmlns="http://www.w3.org/2000/svg" viewBox="0 0 640 512"><!--! Font Awesome Pro 6.0.0-alpha3 by @fontawesome - https://fontawesome.com License - https://fontawesome.com/license (Commercial License) --><path d="M208 352c-13.2 0-24 10.8-24 24c0 13.2 10.8 23.1 24 23.1s24-10.8 24-23.1C232 362.8 221.2 352 208 352zM483.4 294.5L467.5 225.6c-6.605-29.04-32.34-49.62-62.1-49.62H231.9c-29.76 0-55.62 20.59-62.1 49.62l-16.38 70.5C129 308.5 112 333.5 112 362.6v55.12c.125 20 13 37.63 32 43.75V496C144 504.9 151.1 512 160 512s16-7.125 16-16v-32h288v32c0 8.875 7.125 16 16 16s16-7.125 16-16v-34.5c19-6.125 31.88-23.75 32-43.75v-55.12C528 333.1 510.5 306.4 483.4 294.5zM200.9 232.8c3.375-14.5 16.25-24.75 31.25-24.75h173c14.88 0 27.88 10.25 31.25 24.75l12.75 55.25h-261L200.9 232.8zM496 417.8c0 7.875-6.375 14.25-14.25 14.25H158.3C150.4 432 144 425.6 144 417.8v-55.12c0-23.5 19.12-42.62 42.63-42.62h266.8c23.5 0 42.63 19.12 42.63 42.62V417.8zM432 352c-13.2 0-24 10.8-24 24c0 13.2 10.8 23.1 24 23.1s24-10.8 24-23.1C456 362.8 445.2 352 432 352zM640 208c0-5.31-2.647-10.51-7.469-13.55l-304-191.1c-2.594-1.656-5.562-2.483-8.53-2.483S314.1 .8281 311.5 2.484l-304 191.1c-4.822 3.047-7.469 8.242-7.469 13.55c0 8.628 6.97 15.95 16.02 15.95c2.928 0 5.881-.7949 8.508-2.443L320 34.95l295.5 186.6C618.1 223.2 621.1 224 624 224C632.9 224 640 216.8 640 208z"/></svg>