<svg xmlns="http://www.w3.org/2000/svg" viewBox="0 0 512 512"><!--! Font Awesome Pro 6.0.0-alpha3 by @fontawesome - https://fontawesome.com License - https://fontawesome.com/license (Commercial License) --><path d="M448 128H64C28.65 128 0 156.7 0 191.1v192C0 419.3 28.65 448 63.1 448H448c35.35 0 64-28.65 64-63.1V191.1C512 156.7 483.3 128 448 128zM480 384c0 17.64-14.36 32-32 32H64c-17.64 0-32-14.36-32-32V192c0-17.64 14.36-32 32-32h384c17.64 0 32 14.36 32 32V384zM336 96h96C440.8 96 448 88.84 448 80C448 71.16 440.8 64 432 64h-96C327.2 64 320 71.16 320 80C320 88.84 327.2 96 336 96zM80 96h96C184.8 96 192 88.84 192 80C192 71.16 184.8 64 176 64h-96C71.16 64 64 71.16 64 80C64 88.84 71.16 96 80 96zM416 240h-32v-32C384 199.2 376.8 192 368 192S352 199.2 352 208v32h-32c-8.844 0-16 7.156-16 16s7.156 16 16 16h32v32c0 8.844 7.156 16 16 16S384 312.8 384 304v-32h32c8.844 0 16-7.156 16-16S424.8 240 416 240zM192 240H96C87.16 240 80 247.2 80 256S87.16 272 96 272h96c8.844 0 16-7.156 16-16S200.8 240 192 240z"/></svg>