<svg xmlns="http://www.w3.org/2000/svg" viewBox="0 0 640 512"><!--! Font Awesome Pro 6.0.0-alpha3 by @fontawesome - https://fontawesome.com License - https://fontawesome.com/license (Commercial License) --><path d="M595.4 294.5L579.5 225.6C572.9 196.5 547 175.9 517.1 176h-173C314.3 175.9 288.3 196.5 281.8 225.6l-16.38 70.5C241 308.5 224 333.5 224 362.6v55.13c.125 20 13 37.63 32 43.75V496C256 504.9 263.1 512 272 512S288 504.9 288 496v-32h288v32c0 8.875 7.125 16 16 16s16-7.125 16-16v-34.5c19-6.125 31.88-23.75 32-43.75v-55.13C640 333.1 622.5 306.4 595.4 294.5zM312.9 232.8C316.3 218.3 329.1 208 344.1 208h173C532 208 545 218.3 548.4 232.8L561.1 288h-261L312.9 232.8zM608 417.8C608 425.6 601.6 432 593.8 432H270.3C262.4 432 256 425.6 256 417.8v-55.13C256 339.1 275.1 320 298.6 320h266.8C588.9 320 608 339.1 608 362.6V417.8zM320 352c-13.2 0-24 10.8-24 24c0 13.2 10.8 24 24 24s24-10.8 24-24C344 362.8 333.2 352 320 352zM544 352c-13.2 0-24 10.8-24 24c0 13.2 10.8 24 24 24s24-10.8 24-24C568 362.8 557.2 352 544 352zM80 312c0 13.2 10.8 24 24 24S128 325.2 128 312C128 298.8 117.2 288 104 288S80 298.8 80 312zM176 384L64 384.1c-17.67 0-32-14.46-32-32.13V256h192c8.836 0 16-7.164 16-16C240 231.2 232.8 224 224 224H208V128H352c0 8.836 7.164 16 16 16S384 136.9 384 128V90C384 48.05 298.9 0 192 0S0 48.05 0 90V352c0 23.63 12.95 44.04 32 55.12V464C32 472.8 39.16 480 48 480S64 472.8 64 464v-47.93L176 416C184.8 416 192 408.8 192 400C192 391.2 184.8 384 176 384zM32 90.03C32.89 76.04 92.86 32 192 32s159.1 44.04 160 58V96H32V90.03zM32 128h144v96H32V128z"/></svg>