<svg xmlns="http://www.w3.org/2000/svg" viewBox="0 0 576 512"><!--! Font Awesome Pro 6.0.0-alpha3 by @fontawesome - https://fontawesome.com License - https://fontawesome.com/license (Commercial License) --><path d="M96.65 297.1c-12.08 5.465-17.44 19.69-11.97 31.76c5.467 12.08 19.69 17.44 31.77 11.97c12.07-5.465 17.44-19.69 11.97-31.76C122.1 297.9 108.7 292.5 96.65 297.1zM373.6 172.6c-12.08 5.465-17.44 19.69-11.97 31.76c5.463 12.08 19.69 17.44 31.76 11.97s17.44-19.69 11.97-31.77C399.9 172.5 385.7 167.1 373.6 172.6zM575.6 492.7c-10.63-51.88-57.48-89.51-111.2-89.51c-53.88 0-100.6 37.63-111.4 89.51c-1.75 8.625 3.752 17.13 12.38 18.88c8.502 1.75 17.13-3.75 19-12.38c7.627-37 41.26-64.01 80.01-64.01c38.63 0 72.26 27 80.01 64.01C545.9 506.7 552.6 512 560 512c1.125 0 2.125-.125 3.25-.375C571.9 509.9 577.5 501.4 575.6 492.7zM119.6 445.7l349.9-158.3l19.79 43.73c2.678 5.91 8.496 9.406 14.59 9.406c2.207 0 4.449-.459 6.59-1.428c8.051-3.643 11.62-13.12 7.98-21.18l-23.46-51.82c12.78-17.96 16.17-41.89 6.426-63.42l-26.39-58.31c-16.05-35.46-50.98-56.45-87.53-56.45c-3.508 0-7.027 .7227-10.55 1.113l-51.49-60.73C302.4 1.105 263.8-7.613 231.4 7.076l-174.4 78.94C24.62 100.6 5.613 135.4 10.8 170.6l12.29 83.15c-23.32 27.42-30.43 66.71-14.61 101.7l26.39 58.31c9.711 21.46 29.89 34.37 51.73 36.69l23.61 52.16C112.9 508.5 118.7 512 124.8 512c2.205 0 4.447-.459 6.588-1.428c8.051-3.645 11.62-13.12 7.98-21.18L119.6 445.7zM70.15 115.1l174.4-78.95c19.44-8.781 42.66-3.594 56.45 12.72l42.13 49.66L56.38 228.4c-1.555 .7031-2.832 1.736-4.33 2.51L42.46 165.9C39.34 144.8 50.74 123.1 70.15 115.1zM106.4 416.5c-4.197 1.898-8.625 2.861-13.16 2.861c-12.56 0-24.02-7.387-29.2-18.82l-26.39-58.31c-7.049-15.57-7.609-32.96-1.582-48.96c6.031-15.1 17.93-28.69 33.5-35.74l291.6-131.1c8.381-3.793 17.24-5.717 26.33-5.717c25.11 0 48.02 14.78 58.37 37.64l26.39 58.31c3.525 7.787 3.807 16.48 .7891 24.48c-3.014 8-8.963 14.35-16.75 17.87L106.4 416.5z"/></svg>