<svg xmlns="http://www.w3.org/2000/svg" viewBox="0 0 640 512"><!--! Font Awesome Pro 6.0.0-alpha3 by @fontawesome - https://fontawesome.com License - https://fontawesome.com/license (Commercial License) --><path d="M202.4 172.6C190.3 167.1 176.1 172.5 170.6 184.6C165.1 196.7 170.5 210.9 182.6 216.3s26.3 .1055 31.76-11.97C219.8 192.3 214.4 178.1 202.4 172.6zM491.3 329.7c5.465-12.08 .1055-26.3-11.97-31.76s-26.3-.1055-31.76 11.97c-5.467 12.08-.1055 26.3 11.97 31.76C471.6 347.2 485.9 341.8 491.3 329.7zM624 480h-148l13.38-29.57c21.84-2.314 42.02-15.23 51.73-36.69l26.39-58.31c15.83-34.97 8.717-74.26-14.61-101.7l12.29-83.15c5.189-35.16-13.81-69.95-46.16-84.57l-174.4-78.94C312.2-7.613 273.6 1.105 250.6 28.23L199.1 88.97c-3.52-.3906-7.039-1.113-10.55-1.113c-36.55 0-71.48 20.98-87.53 56.45L74.61 202.6C64.86 224.1 68.25 248.1 81.03 266L57.58 317.9c-3.645 8.051-.0703 17.53 7.98 21.18C67.7 340 69.94 340.5 72.15 340.5c6.092 0 11.91-3.496 14.59-9.406l19.79-43.73l349.9 158.3L440.9 480H16C7.164 480 0 487.2 0 495.1C0 504.8 7.164 512 16 512h608c8.838 0 16-7.164 16-16C640 487.2 632.8 480 624 480zM274.1 48.92c13.78-16.31 37.01-21.5 56.45-12.72l174.4 78.95c19.41 8.812 30.82 29.66 27.69 50.75l-9.582 64.98c-1.498-.7734-2.775-1.807-4.33-2.51L232.8 98.59L274.1 48.92zM119.7 258.2C111.9 254.6 105.1 248.3 102.1 240.3c-3.018-7.998-2.736-16.69 .7891-24.48l26.39-58.31C140.5 134.6 163.4 119.9 188.5 119.9c9.092 0 17.95 1.924 26.33 5.717l291.6 131.1c15.58 7.049 27.47 19.74 33.5 35.74c6.027 15.1 5.467 33.39-1.582 48.96l-26.39 58.31c-5.174 11.44-16.63 18.82-29.2 18.82c-4.533 0-8.961-.9629-13.16-2.861L119.7 258.2z"/></svg>