<svg xmlns="http://www.w3.org/2000/svg" viewBox="0 0 640 512"><!--! Font Awesome Pro 6.0.0-alpha3 by @fontawesome - https://fontawesome.com License - https://fontawesome.com/license (Commercial License) --><path d="M120 88h-16c-8.836 0-16 7.162-16 16v16c0 8.836 7.164 16 16 16h16c8.836 0 16-7.164 16-16v-16C136 95.16 128.8 88 120 88zM320 48v64C320 120.8 327.2 128 336 128S352 120.8 352 112v-64C352 21.49 330.5 0 304 0h-256C21.49 0 0 21.49 0 48v416C0 472.8 7.199 480 16 480S32 472.8 32 464v-416C32 39.16 39.16 32 48 32h256C312.8 32 320 39.16 320 48zM120 216h-16c-8.836 0-16 7.162-16 16v16c0 8.836 7.164 16 16 16h16c8.836 0 16-7.164 16-16v-16C136 223.2 128.8 216 120 216zM120 344h-16c-8.836 0-16 7.162-16 16v16c0 8.836 7.164 16 16 16h16c8.836 0 16-7.164 16-16v-16C136 351.2 128.8 344 120 344zM544 352c-13.2 0-24 10.8-24 24c0 13.2 10.8 24 24 24s24-10.8 24-24C568 362.8 557.2 352 544 352zM248 136c8.836 0 16-7.164 16-16v-16c0-8.838-7.164-16-16-16h-16c-8.836 0-16 7.162-16 16v16c0 8.836 7.164 16 16 16H248zM595.4 294.5L579.5 225.6C572.9 196.5 547 175.9 517.1 176h-173C314.3 175.9 288.3 196.5 281.8 225.6l-16.38 70.5C241 308.5 224 333.5 224 362.6v55.13c.125 20 13 37.63 32 43.75V496C256 504.9 263.1 512 272 512S288 504.9 288 496v-32h288v32c0 8.875 7.125 16 16 16s16-7.125 16-16v-34.5c19-6.125 31.88-23.75 32-43.75v-55.13C640 333.1 622.5 306.4 595.4 294.5zM312.9 232.8C316.3 218.3 329.1 208 344.1 208h173C532 208 545 218.3 548.4 232.8L561.1 288h-261L312.9 232.8zM608 417.8C608 425.6 601.6 432 593.8 432H270.3C262.4 432 256 425.6 256 417.8v-55.13C256 339.1 275.1 320 298.6 320h266.8C588.9 320 608 339.1 608 362.6V417.8zM320 352c-13.2 0-24 10.8-24 24c0 13.2 10.8 24 24 24s24-10.8 24-24C344 362.8 333.2 352 320 352z"/></svg>