<svg xmlns="http://www.w3.org/2000/svg" viewBox="0 0 640 512"><!--! Font Awesome Pro 6.0.0-alpha3 by @fontawesome - https://fontawesome.com License - https://fontawesome.com/license (Commercial License) --><path d="M179.3 94.1c6.393 1 13.41-.875 18.67-5.125l52.26-43c6.893-5.625 7.896-15.62 2.256-22.5S236.7 16.62 229.1 22.25L184.7 59.37L152.3 10.62c-5.764-8.5-15.66-12.37-25.82-9.875C116.6 3.248 109.5 11.37 108.5 21.5L102.9 79.75l-57.53-11.5C35.21 66.12 25.44 70.5 20.18 79.37c-5.264 8.75-4.385 19.5 2.131 27.38l37.22 45.13L10.65 184.2C2.129 189.9-1.756 199.1 .752 209.9C3.258 219.7 11.4 226.7 21.55 227.7l58.4 5.625L68.43 290.7C66.67 299.4 72.31 307.9 80.96 309.6c1.004 .25 2.131 .25 3.135 .25c7.52 0 14.16-5.25 15.79-12.75L113.2 230.9c1.379-6.625-.125-13.5-4.135-18.88C105 206.6 98.88 203.1 92.11 202.5L47.62 198.1l37.22-24.62c5.639-3.75 9.398-9.625 10.4-16.25C96.25 150.5 94.37 143.7 90.11 138.5L61.66 104.1l43.86 8.75c6.393 1.375 13.54-.125 18.92-4.25c5.391-4 8.898-10.12 9.525-16.75L138.2 47.5l24.69 37.13C166.7 90.25 172.7 93.1 179.3 94.1zM283.6 195.2C272 190.3 258.6 195.6 253.7 207.2C248.7 218.7 254.1 232.1 265.7 237.1S290.7 236.6 295.6 225.1C300.6 213.5 295.2 200.1 283.6 195.2zM621.7 272.3l14.55-114.6c4.293-33.78-14.63-66.72-46.06-80.13l-167.4-71.38c-31.3-13.31-68.33-4.281-89.86 22.12L260.2 117.6C227.8 122.1 198.5 142.8 184.8 174.1L164.1 223.1C152.6 249.9 161 279.8 182.4 297.4l-20.72 48.29c-3.479 8.125 .3125 17.5 8.459 21C172.2 367.6 174.4 368 176.5 368c6.234 0 12.16-3.625 14.76-9.719l19.57-45.62l293.9 125.4l-22.18 51.7c-3.477 8.125 .3145 17.5 8.461 21C493 511.6 495.2 512 497.3 512c6.234 0 12.16-3.625 14.76-9.719l22.46-52.37c6.006 1.777 12.07 2.963 18.11 2.963c24.91 0 48.62-14.56 59.03-38.85l20.66-48.19C646.1 333.8 640.7 298.6 621.7 272.3zM357.9 48.5c12.53-15.44 34.03-20.66 52.36-12.88L577.6 107c18.3 7.812 29.33 27 26.82 46.69l-11.71 92.22c-3.602-2.129-7.09-4.398-11.04-6.084L311.1 124.4C307.1 122.7 303.1 121.8 299 120.7L357.9 48.5zM602.8 353.3l-20.66 48.19c-5.061 11.81-16.65 19.43-29.53 19.43c-4.314 0-8.551-.873-12.58-2.594L210.5 277.7c-7.881-3.361-13.98-9.58-17.17-17.51C190.1 252.3 190.2 243.6 193.6 235.7l20.66-48.18c10.12-23.61 33.3-38.86 59.05-38.86c8.652 0 17.12 1.742 25.18 5.18l270.6 115.4C601.6 283.1 616.7 320.8 602.8 353.3zM549.3 308.5c-11.58-4.941-24.1 .4219-29.95 11.98c-4.955 11.56 .4219 24.93 12.01 29.87c11.58 4.941 24.99-.4199 29.95-11.98C566.3 326.9 560.9 313.5 549.3 308.5z"/></svg>