<svg xmlns="http://www.w3.org/2000/svg" viewBox="0 0 512 512"><!--! Font Awesome Pro 6.0.0-alpha3 by @fontawesome - https://fontawesome.com License - https://fontawesome.com/license (Commercial License) --><path d="M461.1 203.8L428.6 90C418.9 55.84 387.3 32 351.7 32H160.3C124.8 32 93.13 55.84 83.38 90L50.86 203.8C20.73 219.1 0 251.4 0 288v64c0 23.63 12.95 44.04 32 55.12V464C32 472.8 39.16 480 48 480C56.84 480 64 472.8 64 464V416h384v48c0 8.836 7.164 16 16 16c8.838 0 16-7.164 16-16v-56.88C499 396 512 375.6 512 352V288C512 251.4 491.3 219.1 461.1 203.8zM114.1 98.81C120 78.31 138.1 64 160.3 64h191.4C373 64 392 78.31 397.9 98.81l26.88 94.07C421.8 192.6 419 192 416 192H96C93 192 90.17 192.6 87.24 192.9L114.1 98.81zM320 384H192v-32h128V384zM432 320H480v32c0 17.64-14.36 32-32 32h-96v-32c0-17.67-14.33-32-32-32H192c-17.67 0-32 14.33-32 32v32H64c-17.64 0-32-14.36-32-32v-32h48C88.84 320 96 312.8 96 304C96 295.2 88.84 288 80 288H32c0-35.29 28.71-64 64-64h320c35.29 0 64 28.71 64 64h-48C423.2 288 416 295.2 416 304C416 312.8 423.2 320 432 320z"/></svg>