<svg xmlns="http://www.w3.org/2000/svg" viewBox="0 0 512 512"><!--! Font Awesome Pro 6.0.0-alpha3 by @fontawesome - https://fontawesome.com License - https://fontawesome.com/license (Commercial License) --><path d="M461.1 203.8L428.6 90C418.8 55.84 387.2 32 351.7 32H160.3C124.8 32 93.15 55.84 83.4 90L50.9 203.8C20.77 219.1 .0408 251.4 .0408 288v176c0 8.836 7.163 16 15.1 16s15.1-7.164 15.1-16V416h447.9v48c0 8.836 7.163 16 15.1 16c8.835 0 15.1-7.164 15.1-16V288C511.1 251.4 491.2 219.1 461.1 203.8zM114.1 98.81C120 78.31 138.1 64 160.3 64h191.4c21.31 0 40.27 14.31 46.15 34.81l26.88 94.07C421.8 192.6 418.1 192 415.1 192H96.03C93.03 192 90.2 192.6 87.27 192.9L114.1 98.81zM479.1 352c0 17.64-14.35 32-31.99 32H64.03c-17.64 0-31.99-14.36-31.99-32V288c0-35.29 28.69-64 63.98-64h319.1c35.29 0 63.98 28.71 63.98 64V352zM104 272c-13.25 0-23.1 10.75-23.1 24S90.76 320 104 320c13.25 0 23.1-10.75 23.1-24S117.3 272 104 272zM407.1 272c-13.25 0-23.1 10.75-23.1 24S394.7 320 407.1 320s23.1-10.75 23.1-24S421.2 272 407.1 272z"/></svg>