<svg xmlns="http://www.w3.org/2000/svg" viewBox="0 0 640 512"><!--! Font Awesome Pro 6.0.0-alpha3 by @fontawesome - https://fontawesome.com License - https://fontawesome.com/license (Commercial License) --><path d="M240 128h-128c-17.62 0-32 14.38-32 32v64c0 17.62 14.38 32 32 32h128c17.62 0 32-14.38 32-32V160C272 142.4 257.6 128 240 128zM240 224h-128V160h128V224zM624 384H576V192c0-88.37-71.63-160-160-160H96C42.98 32 0 74.98 0 128v192c0 53 43 96 96 96c0 53 43 96 96 96s96-43 96-96h336c8.8 0 16-7.2 16-16S632.8 384 624 384zM192 480c-35.38 0-64-28.62-64-64s28.62-64 64-64s64 28.62 64 64S227.4 480 192 480zM448 224h-32c-8.836 0-16 7.162-16 16C400 248.8 407.2 256 416 256h32v128h-96V160h96V224zM544 384h-64V160c0-17.62-14.38-32-32-32h-96c-17.62 0-32 14.38-32 32v224H282.1C268.9 346.8 233.8 320 192 320s-76.88 26.75-90.13 64H96c-35.38 0-64-28.62-64-64V128c0-35.38 28.62-64 64-64h320c70.63 .125 127.9 57.38 128 128V384z"/></svg>