<svg xmlns="http://www.w3.org/2000/svg" viewBox="0 0 640 512"><!--! Font Awesome Pro 6.0.0-alpha3 by @fontawesome - https://fontawesome.com License - https://fontawesome.com/license (Commercial License) --><path d="M72 200C72 213.2 82.8 224 96 224s24-10.8 24-24C120 186.8 109.2 176 96 176S72 186.8 72 200zM241.9 256H46.25C38.38 256 32 249.6 32 241.8V186.6C32 163.1 51.13 144 74.63 144h266.8c.25 0 .5 .125 .75 .125c.625 0 1.25-.125 2-.125h58.13c-7.75-11.12-18.5-20-30.88-25.5L355.5 49.63C348.9 20.5 323-.125 293.1 0h-173C90.25-.125 64.25 20.5 57.75 49.63l-16.38 70.5C17 132.5 0 157.5 0 186.6v55.13c.125 20 13 37.63 32 43.75V320c0 8.875 7.125 16 16 16S64 328.9 64 320V288h159.6C228 283.8 232.3 279.4 237.3 275.8L241.9 256zM88.88 56.75C92.25 42.25 105.1 32 120.1 32h173C308 32 321 42.25 324.4 56.75L337.1 112h-261L88.88 56.75zM544 352c-13.2 0-24 10.8-24 24c0 13.2 10.8 24 24 24s24-10.8 24-24C568 362.8 557.2 352 544 352zM320 352c-13.2 0-24 10.8-24 24c0 13.2 10.8 24 24 24s24-10.8 24-24C344 362.8 333.2 352 320 352zM595.4 294.5L579.5 225.6C572.9 196.5 547 175.9 517.1 176h-173C314.3 175.9 288.3 196.5 281.8 225.6l-16.38 70.5C241 308.5 224 333.5 224 362.6v55.13c.125 20 13 37.63 32 43.75V496C256 504.9 263.1 512 272 512S288 504.9 288 496v-32h288v32c0 8.875 7.125 16 16 16s16-7.125 16-16v-34.5c19-6.125 31.88-23.75 32-43.75v-55.13C640 333.1 622.5 306.4 595.4 294.5zM312.9 232.8C316.3 218.3 329.1 208 344.1 208h173C532 208 545 218.3 548.4 232.8L561.1 288h-261L312.9 232.8zM608 417.8C608 425.6 601.6 432 593.8 432H270.3C262.4 432 256 425.6 256 417.8v-55.13C256 339.1 275.1 320 298.6 320h266.8C588.9 320 608 339.1 608 362.6V417.8z"/></svg>