<svg xmlns="http://www.w3.org/2000/svg" viewBox="0 0 640 512"><!--! Font Awesome Pro 6.0.0-alpha3 by @fontawesome - https://fontawesome.com License - https://fontawesome.com/license (Commercial License) --><path d="M520 400c-30.93 0-56 25.07-56 56s25.07 56 56 56c30.93 0 56-25.07 56-56S550.9 400 520 400zM520 480c-13.23 0-24-10.77-24-24c0-13.23 10.77-24 24-24c13.24 0 24 10.77 24 24C544 469.2 533.2 480 520 480zM633.9 76.72C627.9 68.75 618.2 64 608 64H171.3L159.6 12.47C157.9 5.156 151.5 0 144 0H80C71.16 0 64 7.156 64 16S71.16 32 80 32h51.22l77.19 339.5C210.1 378.8 216.5 384 224 384h336c8.844 0 16-7.156 16-16s-7.156-16-16-16H236.8l-7.275-32h310.7c21.56 0 40.63-13.88 46.31-33.75l52.28-183.1C641.4 94.03 639.6 84.41 633.9 76.72zM555.8 277.4C554 283.7 547.6 288 540.2 288h-316.2c-.5996 0-1.109 .2754-1.691 .3398L178.6 95.93l429.5-1.559L555.8 277.4zM248 400c-30.93 0-56 25.07-56 56S217.1 512 248 512s56-25.07 56-56S278.9 400 248 400zM248 480c-13.23 0-24-10.77-24-24c0-13.23 10.77-24 24-24s24 10.77 24 24C272 469.2 261.2 480 248 480zM16 224H128c8.838 0 16-7.164 16-16C144 199.2 136.8 192 128 192H16C7.164 192 0 199.2 0 208C0 216.8 7.164 224 16 224zM16 160h96C120.8 160 128 152.8 128 144C128 135.2 120.8 128 112 128h-96C7.164 128 0 135.2 0 144C0 152.8 7.164 160 16 160zM144 256h-128C7.164 256 0 263.2 0 272C0 280.8 7.164 288 16 288h128C152.8 288 160 280.8 160 272C160 263.2 152.8 256 144 256z"/></svg>