<svg xmlns="http://www.w3.org/2000/svg" viewBox="0 0 576 512"><!--! Font Awesome Pro 6.0.0-alpha3 by @fontawesome - https://fontawesome.com License - https://fontawesome.com/license (Commercial License) --><path d="M184 400c-15.47 0-29.47 6.268-39.6 16.4C134.3 426.5 128 440.5 128 456c0 15.46 6.268 29.46 16.4 39.6C154.5 505.7 168.5 512 184 512s29.47-6.27 39.6-16.4C233.7 485.5 240 471.5 240 456c0-15.46-6.268-29.46-16.4-39.6C213.5 406.3 199.5 400 184 400zM200.1 472.1C196.4 477.5 190.4 480 184 480s-12.44-2.496-16.97-7.031C162.5 468.4 160 462.4 160 456c0-6.412 2.496-12.44 7.031-16.97C171.6 434.5 177.6 432 184 432s12.44 2.496 16.97 7.029S208 449.6 208 456C208 462.4 205.5 468.4 200.1 472.1zM456 400c-15.47 0-29.47 6.268-39.6 16.4c-10.14 10.13-16.4 24.13-16.4 39.6c0 15.46 6.268 29.46 16.4 39.6C426.5 505.7 440.5 512 456 512s29.47-6.27 39.6-16.4c10.14-10.13 16.4-24.13 16.4-39.6c0-15.46-6.268-29.46-16.4-39.6C485.5 406.3 471.5 400 456 400zM472.1 472.1C468.5 477.5 462.4 480 456 480c-6.41 0-12.44-2.496-16.97-7.031c-4.533-4.531-7.029-10.56-7.029-16.97c0-6.412 2.496-12.44 7.031-16.97C443.6 434.5 449.6 432 456 432c6.41 0 12.44 2.496 16.97 7.029S480 449.6 480 456C480 462.4 477.5 468.4 472.1 472.1zM569 75.69C562.1 68.25 553.8 64 544 64H107.3L95.6 12.47C93.94 5.156 87.47 0 80 0H16C7.156 0-.0001 7.156-.0001 16S7.156 32 16 32H67.22l77.19 339.5C146.1 378.8 152.5 384 160 384h336c8.844 0 16-7.156 16-16S504.9 352 496 352H172.8l-7.276-32h310.7c10.34 0 20.59-3.25 28.81-9.156c8.469-6.062 14.69-14.81 17.5-24.59l52.28-183C577.6 93.72 575.4 83.44 569 75.69zM491.8 277.4c-.8438 2.906-2.688 5.438-5.406 7.375C483.5 286.9 479.9 288 476.2 288H160C159.4 288 158.9 288.3 158.3 288.3L114.6 96l429.5-1.625L491.8 277.4zM342.6 146.7l-22.63 22.63l-22.63-22.63C291.1 140.5 281 140.5 274.8 146.7S268.5 163.1 274.8 169.4L297.4 191.1L274.8 214.6C268.5 220.9 268.5 231 274.8 237.3c6.254 6.254 16.37 6.254 22.63 .0003l22.63-22.63l22.63 22.63c6.254 6.254 16.37 6.254 22.63 .0003c6.253-6.253 6.253-16.37-.0003-22.63L342.6 192l22.63-22.63c6.253-6.253 6.253-16.37-.0003-22.63C359 140.5 348.9 140.5 342.6 146.7z"/></svg>