<svg xmlns="http://www.w3.org/2000/svg" viewBox="0 0 576 512"><!--! Font Awesome Pro 6.0.0-alpha3 by @fontawesome - https://fontawesome.com License - https://fontawesome.com/license (Commercial License) --><path d="M184 400c-30.93 0-56 25.07-56 56S153.1 512 184 512s56-25.07 56-56S214.9 400 184 400zM184 480c-13.23 0-24-10.77-24-24c0-13.23 10.77-24 24-24s24 10.77 24 24C208 469.2 197.2 480 184 480zM569.9 76.72C563.9 68.75 554.2 64 544 64H107.3L95.6 12.47C93.94 5.156 87.47 0 80 0H16C7.156 0 0 7.156 0 16S7.156 32 16 32h51.22l77.19 339.5C146.1 378.8 152.5 384 160 384h336c8.844 0 16-7.156 16-16S504.9 352 496 352h-323.2L165.5 320h310.7c21.56 0 40.63-13.88 46.31-33.75l52.28-183.1C577.4 94.03 575.6 84.41 569.9 76.72zM491.8 277.4C490 283.7 483.6 288 476.2 288H160C159.4 288 158.9 288.3 158.3 288.3L114.6 95.93l429.5-1.559L491.8 277.4zM456 400c-30.93 0-56 25.07-56 56S425.1 512 456 512s56-25.07 56-56S486.9 400 456 400zM456 480c-13.23 0-24-10.77-24-24c0-13.23 10.77-24 24-24c13.23 0 24 10.77 24 24C480 469.2 469.2 480 456 480z"/></svg>