<svg xmlns="http://www.w3.org/2000/svg" viewBox="0 0 512 512"><!--! Font Awesome Pro 6.0.0-alpha3 by @fontawesome - https://fontawesome.com License - https://fontawesome.com/license (Commercial License) --><path d="M511.3 378.8L487.9 215c-4.51-31.51-31.51-54.92-63.34-54.93L192 160V127.9l96.11 .2083c17.6 0 32.01-14.39 32.01-32V32c0-17.6-14.4-32-32-32h-224c-17.6 0-32 14.4-32 32v63.96c0 17.6 14.4 32 32 32L160 127.9V160L87.61 159.1c-31.84 0-58.87 23.41-63.39 54.92c0 0-24.01 170.6-24.22 173.6V448c0 35.35 28.65 64 64 64h384c35.35 0 64-28.65 64-64v-60.15C511.8 385.4 511.5 381.3 511.3 378.8zM64.13 95.88V32h224v64L64.13 95.88zM55.9 219.5C58.15 203.8 71.77 192 87.58 192l336.1 .1113c15.81 .0078 29.42 11.82 31.66 27.46L479.6 384H32.32L55.9 219.5zM480 448c0 17.67-14.33 32-32 32H64c-17.67 0-32-14.33-32-32v-32h448V448zM112 232C98.75 232 88.06 242.7 88.06 256c0 13.25 10.68 24 23.94 24S136.1 269.3 136.1 256C136.1 242.7 125.3 232 112 232zM208 232C194.7 232 184.1 242.7 184.1 256c0 13.25 10.68 24 23.94 24S232.1 269.3 232.1 256C232.1 242.7 221.3 232 208 232zM304 232c-13.25 0-23.94 10.74-23.94 24c0 13.25 10.68 24 23.94 24S328.1 269.3 328.1 256C328.1 242.7 317.3 232 304 232zM400 232c-13.25 0-23.94 10.74-23.94 24c0 13.25 10.68 24 23.94 24S424.1 269.3 424.1 256C424.1 242.7 413.3 232 400 232zM352 312c-13.25 0-23.94 10.74-23.94 24c0 13.25 10.68 24 23.94 24s24.06-10.75 24.06-24C376.1 322.7 365.3 312 352 312zM256 312c-13.25 0-23.94 10.74-23.94 24c0 13.25 10.68 24 23.94 24s24.06-10.75 24.06-24C280.1 322.7 269.3 312 256 312zM160 312c-13.25 0-23.94 10.74-23.94 24c0 13.25 10.68 24 23.94 24s24.06-10.75 24.06-24C184.1 322.7 173.3 312 160 312z"/></svg>