<svg xmlns="http://www.w3.org/2000/svg" viewBox="0 0 640 512"><!--! Font Awesome Pro 6.0.0-alpha3 by @fontawesome - https://fontawesome.com License - https://fontawesome.com/license (Commercial License) --><path d="M608 160l-32 .0072c-17.67 0-32 14.32-32 31.99v32l-32 .0058V32c0-17.67-14.33-32-32-32h-40c-17.67 0-32 14.33-32 32v32h-32V32c0-17.67-14.33-32-32-32h-48c-17.67 0-32 14.33-32 32v32h-32V32c0-17.67-14.33-32-32-32H160C142.3 0 128 14.33 128 32v192L96 224V192c0-17.67-14.33-31.99-32-31.99L32 160C14.33 160 0 174.3 0 192v256c0 35.35 28.65 64 64 64h512c35.35 0 64-28.65 64-64V192C640 174.3 625.7 160 608 160zM160 32h40v64h96V32h48v64h96V32H480v192H160V32zM384 480H256v-95.99c0-35.29 28.71-64 64-64s64 28.71 64 64V480zM608 448c0 17.64-14.36 32-32 32h-160v-96c0-53.02-42.98-96-96-96s-96 42.98-96 96v96H64c-17.64 0-32-14.36-32-32V192h32v64h512V192h32V448z"/></svg>