<svg xmlns="http://www.w3.org/2000/svg" viewBox="0 0 320 512"><!--! Font Awesome Pro 6.0.0-alpha3 by @fontawesome - https://fontawesome.com License - https://fontawesome.com/license (Commercial License) --><path d="M293.8 380.1c-29.71 24.24-65.56 35.65-101.3 35.64V96.31c35.73-.0117 71.58 11.4 101.3 35.63c6.877 5.531 16.98 4.531 22.57-2.281c5.608-6.844 4.59-16.94-2.272-22.53c-35.68-29.03-78.71-42.74-121.6-42.74V16c0-8.844-7.175-16-16.04-16c-8.867 0-16.04 7.156-16.04 16v51.16C122.3 73.63 85.74 90.95 56.38 120.3C20.02 156.5-.0003 204.7-.0003 256s20.02 99.5 56.38 135.8c29.38 29.3 65.91 46.93 104 53.4V496c0 8.844 7.175 16 16.04 16c8.867 0 16.04-7.156 16.04-16l.0157-47.75c.0098 0-.0098 0 0 0c42.88 0 85.91-14.34 121.6-43.37c6.862-5.594 7.88-15.69 2.272-22.53C310.8 375.5 300.7 374.5 293.8 380.1zM79.07 369.1C48.77 338.9 32.08 298.8 32.08 256s16.68-82.91 46.98-113.1c23.1-23.04 51.53-37.37 81.35-43.48v313.2C130.6 406.5 102.2 392.2 79.07 369.1z"/></svg>