<svg xmlns="http://www.w3.org/2000/svg" viewBox="0 0 320 512"><!--! Font Awesome Pro 6.0.0-alpha3 by @fontawesome - https://fontawesome.com License - https://fontawesome.com/license (Commercial License) --><path d="M316.4 382.4c5.594 6.844 4.562 16.92-2.312 22.5c-35.65 29.03-78.69 43.36-121.6 43.36c-.1777 0-.3535-.0508-.5313-.0508V496c0 8.844-7.152 16-15.1 16s-16-7.156-16-16v-50.91c-37.97-6.52-74.33-24.13-103.6-53.31C20.03 355.5 0 307.3 0 256s20.03-99.52 56.37-135.8c29.25-29.16 65.66-46.46 103.6-52.99V16c0-8.844 7.158-16 16-16s15.1 7.156 15.1 16v48.36c43.06-.123 86.3 13.6 122.1 42.76c6.875 5.578 7.906 15.66 2.312 22.5c-5.594 6.891-15.66 7.859-22.5 2.312c-64.09-52.13-156.4-47.38-214.9 10.94C48.69 173.1 32 213.3 32 256s16.69 82.91 46.1 113.1c58.53 58.36 150.9 62.98 214.9 10.94C300.7 374.5 310.8 375.5 316.4 382.4z"/></svg>