<svg xmlns="http://www.w3.org/2000/svg" viewBox="0 0 512 512"><!--! Font Awesome Pro 6.0.0-alpha3 by @fontawesome - https://fontawesome.com License - https://fontawesome.com/license (Commercial License) --><path d="M496 448h-416C53.53 448 32 426.5 32 400v-352C32 39.16 24.84 32 16 32S0 39.16 0 48v352C0 444.1 35.88 480 80 480h416c8.844 0 16-7.156 16-16S504.8 448 496 448zM144 384h288c26.47 0 48-21.53 48-48V253.3c0-12.62-5.125-25-14.06-33.94l-86.63-86.63c-6.25-6.25-16.38-6.25-22.62 0l-51.61 51.63L236.3 101.8C233.3 98.16 228.9 96.06 224.2 96C219.8 94.56 215 97.94 211.1 101.5L107.9 220.4C100.2 229.2 96 240.4 96 252V336C96 362.5 117.5 384 144 384zM128 252c0-3.875 1.406-7.625 3.969-10.56l91.73-104.8l68 81.63c2.891 3.438 7.078 5.531 11.58 5.719c4.5 .4687 8.875-1.5 12.03-4.656L368 166.6l75.31 75.31C446.3 244.9 448 249 448 253.3V336c0 8.812-7.172 16-16 16h-288C135.2 352 128 344.8 128 336V252z"/></svg>