<svg xmlns="http://www.w3.org/2000/svg" viewBox="0 0 576 512"><!--! Font Awesome Pro 6.0.0-alpha3 by @fontawesome - https://fontawesome.com License - https://fontawesome.com/license (Commercial License) --><path d="M560 128H544V80C544 71.13 536.9 64 528 64S512 71.13 512 80V128h-32V80C480 71.13 472.9 64 464 64S448 71.13 448 80V128h-16C423.2 128 416 135.2 416 144V192c0 38.75 27.5 71 64 78.38v111.8c0 15.95-10.83 30.8-26.57 33.41C433.4 418.9 416 403.4 416 384v-48C416 291.8 380.2 256 336 256H320V64c0-35.35-28.65-64-64-64H96C60.65 0 32 28.65 32 64v416H16C7.199 480 0 487.2 0 496C0 504.8 7.199 512 16 512h320c8.801 0 16-7.201 16-16c0-8.801-7.199-16-16-16H320V288h16c26.51 0 48 21.49 48 48v45.08c0 33.39 24.3 63.31 57.53 66.6C479.7 451.5 512 421.4 512 384V270.4C548.5 263 576 230.8 576 192V144C576 135.2 568.8 128 560 128zM288 480H64V64c0-17.62 14.38-32 32-32h160c17.62 0 32 14.38 32 32V480zM544 192c0 26.5-21.5 48-48 48S448 218.5 448 192V160h96V192zM224 191.1L150.2 192l24.97-74.94c2.797-8.375-1.734-17.44-10.11-20.25C156.6 94.03 147.6 98.59 144.8 106.9l-32 96C111.2 207.8 112 213.2 115 217.3C118 221.5 122.9 224 128 224h71.73L161.3 313.7c-3.484 8.125 .2813 17.53 8.406 21.03C171.8 335.6 173.9 336 176 336c6.203 0 12.11-3.625 14.7-9.688l48-112c2.125-4.969 1.609-10.62-1.344-15.12C234.4 194.7 229.4 191.1 224 191.1z"/></svg>