<svg xmlns="http://www.w3.org/2000/svg" viewBox="0 0 512 512"><!--! Font Awesome Pro 6.0.0-alpha3 by @fontawesome - https://fontawesome.com License - https://fontawesome.com/license (Commercial License) --><path d="M144 240h160C312.8 240 320 232.8 320 224s-7.172-16-16-16h-160C135.2 208 128 215.2 128 224S135.2 240 144 240zM144 144h224C376.8 144 384 136.8 384 128s-7.172-16-16-16h-224C135.2 112 128 119.2 128 128S135.2 144 144 144zM496 448h-416C53.53 448 32 426.5 32 400v-352C32 39.17 24.83 32 16 32S0 39.17 0 48v352C0 444.1 35.88 480 80 480h416c8.828 0 16-7.172 16-16S504.8 448 496 448zM144 336h288c8.828 0 16-7.172 16-16s-7.172-16-16-16h-288C135.2 304 128 311.2 128 320S135.2 336 144 336z"/></svg>