<svg xmlns="http://www.w3.org/2000/svg" viewBox="0 0 512 512"><!--! Font Awesome Pro 6.0.0-alpha3 by @fontawesome - https://fontawesome.com License - https://fontawesome.com/license (Commercial License) --><path d="M123.3 315.3L224 214.6l84.67 84.67c6.248 6.248 16.38 6.248 22.62 .002l144-143.1c6.25-6.248 6.25-16.38 .002-22.62s-16.38-6.248-22.62 0L320 265.4L235.3 180.7c-6.223-6.225-16.4-6.225-22.63-.002l-112 112c-6.234 6.234-6.234 16.39 0 22.62C106.9 321.6 117.1 321.6 123.3 315.3zM496 448h-416C53.53 448 32 426.5 32 400v-352C32 39.17 24.83 32 16 32S0 39.17 0 48v352C0 444.1 35.88 480 80 480h416c8.828 0 16-7.172 16-16S504.8 448 496 448z"/></svg>