<svg xmlns="http://www.w3.org/2000/svg" viewBox="0 0 512 512"><!--! Font Awesome Pro 6.0.0-alpha3 by @fontawesome - https://fontawesome.com License - https://fontawesome.com/license (Commercial License) --><path d="M506.3 417l-213.3-364C284.8 39 270.4 32 255.1 32S227.2 39 218.1 53l-213.2 364C-10.59 444.9 9.852 480 42.74 480H469.3C502.1 480 522.6 445 506.3 417zM421.7 336H90.27l74.97-128h181.4L421.7 336zM246.5 69.21C249.2 64.68 253.6 64 255.1 64c2.363 0 6.715 .6641 9.348 5.18L327.9 176H183.1L246.5 69.21zM478.7 442.7C477.5 444.7 474.8 448 469.3 448H42.74c-5.531 0-8.258-3.318-9.393-5.295c-1.258-2.195-2.279-5.633 .0059-9.531L71.53 368h368.9l38.17 65.12C480.9 437.1 479.9 440.5 478.7 442.7z"/></svg>