<svg xmlns="http://www.w3.org/2000/svg" viewBox="0 0 576 512"><!--! Font Awesome Pro 6.0.0-alpha3 by @fontawesome - https://fontawesome.com License - https://fontawesome.com/license (Commercial License) --><path d="M559.7 288l-198.6 .0007c-14.25 0-21.39 17.23-11.31 27.31l130.7 130.7c4.601 4.602 14.48 7.847 22.24 .7343c38.61-36.49 65.24-85.63 73.12-140.9C577.2 296.4 569.3 288 559.7 288zM491.9 412.1L399.7 320h140.9C532.5 354.1 515.6 386 491.9 412.1zM256 288V50.75c0-8.875-7.12-16.25-15.74-16.25c-.6249 0-1.374 .019-2.124 .144c-119.1 16.88-210.2 120.1-205.1 245.7C36.52 407.5 145.1 512 272.1 512c.9999 0 1.876-.0074 2.876-.0074c50.5-.625 97-16.88 135.2-44c7.999-5.625 8.487-17.24 1.612-24.11L256 288zM274.6 480c-115.8 0-206.8-95.17-210.5-200.8C60.77 179.1 128.4 92.25 224 69.88v218.1c0 8.487 3.371 16.63 9.372 22.63l141.9 141.9C344.6 470.1 310.2 479.5 274.6 480zM543.1 223.2c-8.291-119.5-103.8-214.1-223.2-223.2c-10.61 0-16.76 8.179-16.76 16.24l.0023 207.7c0 8.837 7.163 16 16 16l207.7 .0017C536.9 240 544.6 232.4 543.1 223.2zM335.1 208V33.88C425.2 47.75 496.2 118.8 510.1 208H335.1z"/></svg>