<svg xmlns="http://www.w3.org/2000/svg" viewBox="0 0 512 512"><!--! Font Awesome Pro 6.0.0-alpha3 by @fontawesome - https://fontawesome.com License - https://fontawesome.com/license (Commercial License) --><path d="M496 448h-416C53.53 448 32 426.5 32 400v-352C32 39.16 24.84 32 16 32S0 39.16 0 48v352C0 444.1 35.88 480 80 480h416c8.844 0 16-7.156 16-16S504.8 448 496 448zM159.1 368C168.8 368 176 360.8 176 352V256c0-8.844-7.156-16-16-16S143.1 247.2 143.1 256L144 352C144 360.8 151.1 368 159.1 368zM255.1 368C264.8 368 272 360.8 272 352V128c0-8.844-7.156-16-16-16S239.1 119.2 239.1 128L240 352C240 360.8 247.1 368 255.1 368zM351.1 368C360.8 368 368 360.8 368 352V192c0-8.844-7.156-16-16-16S335.1 183.2 335.1 192L336 352C336 360.8 343.1 368 351.1 368zM447.1 368C456.8 368 464 360.8 464 352V96c0-8.844-7.156-16-16-16S431.1 87.16 431.1 96L432 352C432 360.8 439.1 368 447.1 368z"/></svg>