<svg xmlns="http://www.w3.org/2000/svg" viewBox="0 0 640 512"><!--! Font Awesome Pro 6.0.0-alpha3 by @fontawesome - https://fontawesome.com License - https://fontawesome.com/license (Commercial License) --><path d="M64 240c-28.28 0-64 21.84-64 64c0 35.25 28.75 64 64 64s64-28.75 64-64C128 262.1 92.68 240 64 240zM64 336c-17.62 0-32-14.38-32-32s14.38-32 32-32s32 14.38 32 32S81.63 336 64 336zM184 288H167.1C159.2 288 152 295.2 152 303.1S159.2 320 167.1 320h16.05C192.8 320 200 312.8 200 304S192.8 288 184 288zM576 192c28.28 0 64-21.84 64-64c0-42.01-35.62-64-64-64c-28.28 0-64 21.84-64 64C512 163.3 540.8 192 576 192zM576 96c17.62 0 32 14.38 32 32s-14.38 32-32 32s-32-14.38-32-32S558.4 96 576 96zM576 384c-13.25 0-25.62 4-35.75 10.88c-3.375 2.25-6.375 4.75-9.125 7.5l-91.88-55.13C444.9 334 448 319.3 448 304C448 242.1 397.9 192 336 192c-11.25 0-21.88 2.25-32.25 5.25L264.5 113.1C278.8 101.4 288 83.88 288 64c0-41.93-35.32-64-64-64C182.1 0 160 35.31 160 64c0 35.25 28.75 64 64 64c4 0 7.875-.5 11.75-1.25l39 83.63C244.3 230.4 224 264.8 224 304c0 61.88 50.13 112 112 112c35 0 65.75-16.38 86.38-41.5l92.38 55.38C513.1 435.8 512 441.8 512 448c0 35.25 28.62 64 64 64C618.2 512 640 476.4 640 448C640 420.5 618.4 384 576 384zM224 96C206.4 96 192 81.63 192 64s14.38-32 32-32s32 14.38 32 32S241.6 96 224 96zM336 384C291.9 384 256 348.1 256 304S291.9 224 336 224S416 259.9 416 304S380.1 384 336 384zM576 480c-17.62 0-32-14.38-32-32s14.38-32 32-32s32 14.38 32 32S593.6 480 576 480zM478.4 229.2l22.44-16.83c7.074-5.307 8.492-15.35 3.166-22.41c-5.305-7.025-15.29-8.436-22.34-3.154l-22.44 16.83c-7.074 5.305-8.492 15.35-3.166 22.4C461.3 233.1 471.3 234.5 478.4 229.2z"/></svg>