<svg xmlns="http://www.w3.org/2000/svg" viewBox="0 0 512 512"><!--! Font Awesome Pro 6.0.0-alpha3 by @fontawesome - https://fontawesome.com License - https://fontawesome.com/license (Commercial License) --><path d="M352 320c0 8.828 7.172 16 16 16h96c8.828 0 16-7.172 16-16s-7.172-16-16-16h-96C359.2 304 352 311.2 352 320zM192 224c0 8.828 7.172 16 16 16h160C376.8 240 384 232.8 384 224s-7.172-16-16-16h-160C199.2 208 192 215.2 192 224zM496 448h-416C53.53 448 32 426.5 32 400v-352C32 39.17 24.83 32 16 32S0 39.17 0 48v352C0 444.1 35.88 480 80 480h416c8.828 0 16-7.172 16-16S504.8 448 496 448zM144 144h128C280.8 144 288 136.8 288 128s-7.172-16-16-16h-128C135.2 112 128 119.2 128 128S135.2 144 144 144z"/></svg>