<svg xmlns="http://www.w3.org/2000/svg" viewBox="0 0 512 512"><!--! Font Awesome Pro 6.0.0-alpha3 by @fontawesome - https://fontawesome.com License - https://fontawesome.com/license (Commercial License) --><path d="M320 272c-.6523 0-1.258 .168-1.904 .1934l-30.54-76.34C297.6 187 304 174.3 304 160c0-26.44-21.56-48-48-48S208 133.6 208 160c0 9.811 2.992 18.94 8.078 26.55L174.2 242.4C169.7 240.1 164.1 240 160 240C133.6 240 112 261.6 112 288s21.56 48 48 48c17.45 0 32.63-9.492 41.03-23.48l71.67 14.33C276.1 350 295.9 368 320 368c26.44 0 48-21.56 48-48S346.4 272 320 272zM160 304C151.2 304 144 296.8 144 288S151.2 272 160 272S176 279.2 176 288S168.8 304 160 304zM256 144c8.822 0 16 7.178 16 16S264.8 176 256 176S240 168.8 240 160S247.2 144 256 144zM278.1 295.5L207.3 281.2C206.3 273.1 203.8 267.2 199.9 261.4l41.88-55.84C246.3 207 251 208 256 208c.6484 0 1.252-.166 1.895-.1914l30.54 76.34C284.7 287.4 281.5 291.2 278.1 295.5zM320 336c-8.822 0-16-7.178-16-16s7.178-16 16-16s16 7.178 16 16S328.8 336 320 336zM505.8 233.4l-105.4-179.2C392.3 40.52 377.5 32 361.4 32H150.6C134.5 32 119.7 40.52 111.6 54.17l-105.4 179.2c-8.234 14-8.234 31.27 0 45.27l105.4 179.2C119.7 471.5 134.5 480 150.6 480h210.8c16.12 0 30.94-8.518 39.05-22.17l105.4-179.2C514.1 264.6 514.1 247.4 505.8 233.4zM478.2 262.4l-105.3 179.1C370.5 445.5 366.1 448 361.4 448H150.6c-4.729 0-9.152-2.498-11.47-6.391l-105.4-179.2c-2.361-4.016-2.361-8.809 0-12.82l105.3-179.1C141.5 66.5 145.9 64 150.6 64h210.8c4.73 0 9.154 2.498 11.47 6.387l105.4 179.2C480.6 253.6 480.6 258.4 478.2 262.4z"/></svg>