<svg xmlns="http://www.w3.org/2000/svg" viewBox="0 0 512 512"><!--! Font Awesome Pro 6.0.0-alpha3 by @fontawesome - https://fontawesome.com License - https://fontawesome.com/license (Commercial License) --><path d="M384 192c35.35 0 64-28.65 64-64s-28.65-64-64-64s-64 28.65-64 64S348.7 192 384 192zM384 96c17.64 0 32 14.36 32 32s-14.36 32-32 32s-32-14.36-32-32S366.4 96 384 96zM496 448h-416C53.53 448 32 426.5 32 400v-352C32 39.17 24.83 32 16 32S0 39.17 0 48v352C0 444.1 35.88 480 80 480h416c8.828 0 16-7.172 16-16S504.8 448 496 448zM240 224C266.5 224 288 202.5 288 176S266.5 128 240 128S192 149.5 192 176S213.5 224 240 224zM240 160C248.8 160 256 167.2 256 176S248.8 192 240 192S224 184.8 224 176S231.2 160 240 160zM176 352C202.5 352 224 330.5 224 304S202.5 256 176 256S128 277.5 128 304S149.5 352 176 352zM176 288C184.8 288 192 295.2 192 304S184.8 320 176 320S160 312.8 160 304S167.2 288 176 288zM352 352c35.35 0 64-28.65 64-64s-28.65-64-64-64s-64 28.65-64 64S316.7 352 352 352zM352 256c17.64 0 32 14.36 32 32s-14.36 32-32 32s-32-14.36-32-32S334.4 256 352 256z"/></svg>