<svg xmlns="http://www.w3.org/2000/svg" viewBox="0 0 512 512"><!--! Font Awesome Pro 6.0.0-alpha3 by @fontawesome - https://fontawesome.com License - https://fontawesome.com/license (Commercial License) --><path d="M496 448h-416C53.53 448 32 426.5 32 400v-352C32 39.16 24.84 32 16 32S0 39.16 0 48v352C0 444.1 35.88 480 80 480h416c8.844 0 16-7.156 16-16S504.8 448 496 448zM123.3 315.3L224 214.6l84.69 84.69c6.25 6.25 16.38 6.25 22.62 0L448 182.6V272C448 280.8 455.2 288 464 288S480 280.8 480 272v-128C480 135.2 472.8 128 464 128h-127.1C327.2 128 320 135.2 320 144S327.2 160 336 160h89.38L320 265.4L235.3 180.7c-6.25-6.25-16.38-6.25-22.62 0l-112 112c-6.25 6.25-6.25 16.38 0 22.62C106.9 321.6 117.1 321.6 123.3 315.3z"/></svg>