<svg xmlns="http://www.w3.org/2000/svg" viewBox="0 0 512 512"><!--! Font Awesome Pro 6.0.0-alpha3 by @fontawesome - https://fontawesome.com License - https://fontawesome.com/license (Commercial License) --><path d="M496 448h-416C53.53 448 32 426.5 32 400v-352C32 39.16 24.84 32 16 32S0 39.16 0 48v352C0 444.1 35.88 480 80 480h416c8.844 0 16-7.156 16-16S504.8 448 496 448zM212.7 299.3c6.25 6.25 16.38 6.25 22.62 0L320 214.6L425.4 320h-89.37C327.2 320 320 327.2 320 336s7.157 16 16 16H464c8.844 0 16-7.156 16-16v-128C480 199.2 472.8 192 464 192S448 199.2 448 208v89.38l-116.7-116.7c-6.25-6.25-16.38-6.25-22.62 0L224 265.4L123.3 164.7c-6.25-6.25-16.38-6.25-22.62 0s-6.25 16.38 0 22.62L212.7 299.3z"/></svg>