<svg xmlns="http://www.w3.org/2000/svg" viewBox="0 0 512 512"><!--! Font Awesome Pro 6.0.0-alpha3 by @fontawesome - https://fontawesome.com License - https://fontawesome.com/license (Commercial License) --><path d="M272 280.6V48C272 39.16 264.8 32 256 32S240 39.16 240 48v232.6l-202.3 171.2c-6.75 5.719-7.594 15.81-1.891 22.55c5.703 6.75 15.78 7.594 22.55 1.891L256 308.1l197.7 167.3C456.7 478.8 460.3 480 463.1 480c4.547 0 9.062-1.922 12.23-5.672c5.703-6.734 4.859-16.83-1.891-22.55L272 280.6zM32 96c17.67 0 32-14.33 32-32S49.67 32 32 32S0 46.33 0 64S14.33 96 32 96zM64 256c0-17.67-14.33-32-32-32S0 238.3 0 256s14.33 32 32 32S64 273.7 64 256zM128 192c17.67 0 32-14.33 32-32S145.7 128 128 128S96 142.3 96 160S110.3 192 128 192zM256 416c-17.67 0-32 14.33-32 32s14.33 32 32 32s32-14.33 32-32S273.7 416 256 416zM384 288c17.67 0 32-14.33 32-32s-14.33-32-32-32s-32 14.33-32 32S366.3 288 384 288zM480 128c-17.67 0-32 14.33-32 32s14.33 32 32 32s32-14.33 32-32S497.7 128 480 128zM384 96c17.67 0 32-14.33 32-32s-14.33-32-32-32s-32 14.33-32 32S366.3 96 384 96z"/></svg>