<svg xmlns="http://www.w3.org/2000/svg" viewBox="0 0 576 512"><!--! Font Awesome Pro 6.0.0-alpha3 by @fontawesome - https://fontawesome.com License - https://fontawesome.com/license (Commercial License) --><path d="M64 352H32c-17.67 0-32 14.33-32 32v96c0 17.67 14.33 32 32 32h32c17.67 0 32-14.33 32-32v-96C96 366.3 81.67 352 64 352zM64 480H32v-96h32V480zM544 192h-32c-17.67 0-32 14.33-32 32v256c0 17.67 14.33 32 32 32h32c17.67 0 32-14.33 32-32V224C576 206.3 561.7 192 544 192zM544 480h-32V224h32V480zM384 320h-32c-17.67 0-32 14.33-32 32v128c0 17.67 14.33 32 32 32h32c17.67 0 32-14.33 32-32v-128C416 334.3 401.7 320 384 320zM384 480h-32v-128h32V480zM224 192H192C174.3 192 160 206.3 160 224v256c0 17.67 14.33 32 32 32h32c17.67 0 32-14.33 32-32V224C256 206.3 241.7 192 224 192zM224 480H192V224h32V480zM505.1 89.2C511.1 93.12 519.5 96 528 96C554.5 96 576 74.51 576 48S554.5 0 528 0S480 21.49 480 48c0 6.158 1.576 11.82 3.744 17.2L390.9 134.8C384 130.9 376.5 128 368 128s-16.05 2.877-22.94 6.801L252.3 65.2C254.4 59.82 256 54.16 256 48C256 21.49 234.5 0 208 0S160 21.49 160 48c0 7.355 2.154 14.03 5.133 20.24l-96.89 96.89C62.03 162.2 55.36 160 48 160C21.49 160 0 181.5 0 208S21.49 256 48 256S96 234.5 96 208c0-7.355-2.154-14.03-5.133-20.24l96.89-96.89C193.1 93.85 200.6 96 208 96c8.51 0 16.05-2.877 22.94-6.801l92.8 69.6C321.6 164.2 320 169.8 320 176C320 202.5 341.5 224 368 224S416 202.5 416 176c0-6.158-1.576-11.82-3.744-17.2L505.1 89.2zM528 32C536.8 32 544 39.18 544 48S536.8 64 528 64c-4.812 0-8.375-2.277-10.52-4.186l-1.934-1.725l-1.371-2.467C512.7 52.99 512 50.5 512 48C512 39.18 519.2 32 528 32zM48 224C39.18 224 32 216.8 32 208S39.18 192 48 192c3.287 0 6.379 1.014 9.188 3.014l2.219 1.58l1.58 2.219C62.99 201.6 64 204.7 64 208C64 216.8 56.82 224 48 224zM221.8 55.62L220.5 58.09L218.5 59.82C216.4 61.72 212.8 64 208 64C204.7 64 201.6 62.99 198.8 60.99L196.6 59.41L195 57.19C193 54.38 192 51.29 192 48C192 39.18 199.2 32 208 32S224 39.18 224 48C224 50.5 223.3 52.99 221.8 55.62zM368 192C359.2 192 352 184.8 352 176c0-2.496 .7129-4.99 2.178-7.623l1.371-2.467l1.934-1.725C359.6 162.3 363.2 160 368 160s8.375 2.277 10.52 4.186l1.934 1.725l1.371 2.467C383.3 171 384 173.5 384 176C384 184.8 376.8 192 368 192z"/></svg>