<svg xmlns="http://www.w3.org/2000/svg" viewBox="0 0 512 512"><!--! Font Awesome Pro 6.0.0-alpha3 by @fontawesome - https://fontawesome.com License - https://fontawesome.com/license (Commercial License) --><path d="M416 320v48c0 8.828 7.172 16 16 16s16-7.172 16-16V320c17.67 0 32-14.33 32-32V224c0-17.67-14.33-32-32-32V144C448 135.2 440.8 128 432 128S416 135.2 416 144V192c-17.67 0-32 14.33-32 32v64C384 305.7 398.3 320 416 320zM416 224h32v64h-32V224zM496 448h-416C53.53 448 32 426.5 32 400v-352C32 39.17 24.83 32 16 32S0 39.17 0 48v352C0 444.1 35.88 480 80 480h416c8.828 0 16-7.172 16-16S504.8 448 496 448zM160 320v48C160 376.8 167.2 384 176 384S192 376.8 192 368V320c17.67 0 32-14.33 32-32V160c0-17.67-14.33-32-32-32V80C192 71.17 184.8 64 176 64S160 71.17 160 80V128C142.3 128 128 142.3 128 160v128C128 305.7 142.3 320 160 320zM160 160h32v128H160V160zM288 256v48c0 8.828 7.172 16 16 16S320 312.8 320 304V256c17.67 0 32-14.33 32-32V128c0-17.67-14.33-32-32-32V48C320 39.17 312.8 32 304 32S288 39.17 288 48V96c-17.67 0-32 14.33-32 32v96C256 241.7 270.3 256 288 256zM288 128h32v96h-32V128z"/></svg>