<svg xmlns="http://www.w3.org/2000/svg" viewBox="0 0 512 512"><!--! Font Awesome Pro 6.0.0-alpha3 by @fontawesome - https://fontawesome.com License - https://fontawesome.com/license (Commercial License) --><path d="M256 256c8.828 0 16-7.172 16-16v-96C272 135.2 264.8 128 256 128S240 135.2 240 144v96C240 248.8 247.2 256 256 256zM352 192c8.828 0 16-7.172 16-16v-96C368 71.17 360.8 64 352 64s-16 7.172-16 16v96C336 184.8 343.2 192 352 192zM160 352c8.828 0 16-7.172 16-16v-96C176 231.2 168.8 224 160 224S144 231.2 144 240v96C144 344.8 151.2 352 160 352zM496 448h-416C53.53 448 32 426.5 32 400v-352C32 39.17 24.83 32 16 32S0 39.17 0 48v352C0 444.1 35.88 480 80 480h416c8.828 0 16-7.172 16-16S504.8 448 496 448zM448 352c8.828 0 16-7.172 16-16v-256C464 71.17 456.8 64 448 64s-16 7.172-16 16v256C432 344.8 439.2 352 448 352z"/></svg>