<svg xmlns="http://www.w3.org/2000/svg" viewBox="0 0 512 512"><!--! Font Awesome Pro 6.0.0-alpha3 by @fontawesome - https://fontawesome.com License - https://fontawesome.com/license (Commercial License) --><path d="M48 224H128V64H48C21.49 64 0 85.49 0 112v64C0 202.5 21.49 224 48 224zM32 112C32 103.2 39.18 96 48 96H96v96H48C39.18 192 32 184.8 32 176V112zM464 64H288c0-8.844-7.156-16-16-16S256 55.16 256 64H160v32h96v96H160v32h96c0 8.844 7.156 16 16 16S288 232.8 288 224h176C490.5 224 512 202.5 512 176v-64C512 85.49 490.5 64 464 64zM480 176C480 184.8 472.8 192 464 192H288V96h176C472.8 96 480 103.2 480 112V176zM0 336v64C0 426.5 21.49 448 48 448H224V288H48C21.49 288 0 309.5 0 336zM192 416H48C39.18 416 32 408.8 32 400v-64C32 327.2 39.18 320 48 320H192V416zM464 288H384c0-8.844-7.156-16-16-16S352 279.2 352 288h-96v32h96v96h-96v32h96c0 8.844 7.156 16 16 16S384 456.8 384 448h80c26.51 0 48-21.49 48-48v-64C512 309.5 490.5 288 464 288zM480 400c0 8.822-7.178 16-16 16H384v-96h80c8.822 0 16 7.178 16 16V400z"/></svg>