<svg xmlns="http://www.w3.org/2000/svg" viewBox="0 0 512 512"><!--! Font Awesome Pro 6.0.0-alpha3 by @fontawesome - https://fontawesome.com License - https://fontawesome.com/license (Commercial License) --><path d="M464 256H256V48C256 39.16 248.8 32 240 32C107.7 32 0 139.7 0 272S107.6 512 239.1 512S480 404.3 480 272C480 263.2 472.8 256 464 256zM240 480C125.3 480 32 386.7 32 272c0-109.3 84.75-199.2 192-207.4V272C224 280.8 231.2 288 240 288h207.4C439.2 395.3 349.3 480 240 480zM304 0c-8.844 0-15.9 7.17-15.9 16.01L288 208C288 216.8 295.2 224 304 224l191.9 .0061C504.7 224 512 216.8 512 208C512 93.31 418.7 0 304 0zM320 192V32.72C404.3 40.34 471.7 107.7 479.3 192H320z"/></svg>