<svg xmlns="http://www.w3.org/2000/svg" viewBox="0 0 640 512"><!--! Font Awesome Pro 6.0.0-alpha3 by @fontawesome - https://fontawesome.com License - https://fontawesome.com/license (Commercial License) --><path d="M256 80C256 71.16 248.8 64 240 64h-128C103.2 64 96 71.16 96 80S103.1 96 111.1 96h128C248.8 96 256 88.84 256 80zM463.9 192c-61.86 0-112 50.14-112 112s50.14 112 112 112s112-50.08 112-111.9S525.8 192 463.9 192zM464 384c-44.11 0-80-35.89-80-80c0-38.63 27.53-70.95 64-78.38V304c0 8.844 7.156 16 16 16S480 312.8 480 304V225.6C516.5 233.1 544 265.4 544 304C544 348.1 508.1 384 464 384zM0 192l0 224c0 35.35 28.65 64 64 64h512c35.35 0 64-28.65 64-64V192c0-35.35-28.65-64-64-64h-96V64h48c8.844 0 15.96-7.156 15.96-16s-7.156-16-16-16h-127.1c-8.844 0-16 7.156-16 16S391.2 64 400 64H448v64H64C28.65 128 0 156.7 0 192zM32 192c0-17.64 14.36-32 32-32h512c17.64 0 32 14.36 32 32v224c0 17.64-14.36 32-32 32H64c-17.64 0-32-14.36-32-32V192zM176 192C114.1 192 63.94 242.1 63.94 304s50.14 112 112 112s112-50.08 112-111.9S237.9 192 176 192zM232.6 360.6c-31.19 31.19-81.95 31.19-113.1 0s-31.19-81.95 0-113.1C146.7 220.1 189.1 216.7 220.1 237.3L164.7 292.7c-6.252 6.254-6.252 16.38 0 22.63c6.254 6.254 16.38 6.254 22.63 0L242.7 259.9C263.3 290.9 259.9 333.3 232.6 360.6z"/></svg>