<svg xmlns="http://www.w3.org/2000/svg" viewBox="0 0 640 512"><!--! Font Awesome Pro 6.0.0-alpha3 by @fontawesome - https://fontawesome.com License - https://fontawesome.com/license (Commercial License) --><path d="M400 96h128C536.8 96 544 88.84 544 80S536.8 64 528 64h-128C391.2 64 384 71.16 384 80S391.2 96 400 96zM464 192C402.1 192 352 242.1 352 304s50.14 112 112 112S576 365.9 576 304S525.9 192 464 192zM520.6 360.6c-31.19 31.19-81.95 31.19-113.1 0s-31.19-81.95 0-113.1c27.32-27.32 69.63-30.7 100.7-10.17l-55.42 55.42c-6.252 6.254-6.252 16.38 0 22.63c6.254 6.254 16.38 6.254 22.63 0l55.42-55.42C551.3 290.9 547.9 333.3 520.6 360.6zM176 192C114.1 192 64 242.1 64 304S114.1 416 176 416S288 365.9 288 304S237.9 192 176 192zM176 384C131.9 384 96 348.1 96 304c0-38.63 27.53-70.95 64-78.38V304C160 312.8 167.2 320 176 320S192 312.8 192 304V225.6C228.5 233.1 256 265.4 256 304C256 348.1 220.1 384 176 384zM576 128H192V64h48c8.844 0 16.08-7.156 16.08-16S248.9 32 240.1 32H112.1c-8.844 0-16 7.156-16 16S103.2 64 112 64H160v64H64C28.65 128 0 156.7 0 192v224c0 35.35 28.65 64 64 64h512c35.35 0 64-28.65 64-64V192C640 156.7 611.3 128 576 128zM608 416c0 17.64-14.36 32-32 32H64c-17.64 0-32-14.36-32-32V192c0-17.64 14.36-32 32-32h512c17.64 0 32 14.36 32 32V416z"/></svg>