<svg xmlns="http://www.w3.org/2000/svg" viewBox="0 0 512 512"><!--! Font Awesome Pro 6.0.0-alpha3 by @fontawesome - https://fontawesome.com License - https://fontawesome.com/license (Commercial License) --><path d="M288 128H208c-17.66 0-32 14.34-32 32v208C176 376.8 183.2 384 192 384s16-7.156 16-16V320H288c52.94 0 96-43.06 96-96S340.9 128 288 128zM288 288H208V160H288c35.28 0 64 28.72 64 64S323.3 288 288 288zM256 0C114.6 0 0 114.6 0 256c0 141.4 114.6 256 256 256s256-114.6 256-256C512 114.6 397.4 0 256 0zM256 480c-123.5 0-224-100.5-224-224s100.5-224 224-224s224 100.5 224 224S379.5 480 256 480z"/></svg>