<svg xmlns="http://www.w3.org/2000/svg" viewBox="0 0 576 512"><!--! Font Awesome Pro 6.0.0-alpha3 by @fontawesome - https://fontawesome.com License - https://fontawesome.com/license (Commercial License) --><path d="M370.1 152c-2.918 0-5.881 .5723-8.725 1.75l-196 84c-9.562 4.094-14.98 14.47-12.89 24.62C154.5 272.6 163.6 280 173.1 280H264v90c0 10.41 7.391 19.5 17.62 21.59C283.1 391.9 284.6 392 285.1 392c8.797 0 16.73-5.219 20.23-13.31l84-196c3.562-8.344 1.719-17.86-4.656-24.2C381.4 154.3 375.8 152 370.1 152zM296 321.3V248H222.7l128.3-54.97L296 321.3zM289.2 0c-141.4 0-256 114.6-256 256s114.6 256 256 256s256-114.6 256-256S430.6 0 289.2 0zM289.2 480c-123.5 0-224-100.5-224-224s100.5-224 224-224s224 100.5 224 224S412.7 480 289.2 480z"/></svg>