<svg xmlns="http://www.w3.org/2000/svg" viewBox="0 0 512 512"><!--! Font Awesome Pro 6.0.0-alpha3 by @fontawesome - https://fontawesome.com License - https://fontawesome.com/license (Commercial License) --><path d="M260.4 240.6L252 238.2C214.7 227.2 205.3 219.1 208.6 200.4c4.062-23.38 35.58-27 61.27-22.95c7.547 1.172 17 3.766 28.92 7.891c8.344 2.859 17.45-1.562 20.36-9.891c2.891-8.344-1.547-17.47-9.891-20.36c-13.92-4.812-24.86-7.75-34.44-9.266C273.8 145.7 272.1 145.7 272 145.5V112C272 103.2 264.8 96 256 96S240 103.2 240 112v32.71C205.1 148.2 181.1 166.4 177 194.9C168.1 246.8 216.8 261.2 243 268.9l8.562 2.469c42.73 12.22 55.47 19.38 51.86 40.27c-4.062 23.41-35.64 26.97-61.36 22.94c-11.77-1.766-25.78-6.812-38.16-11.28l-6.562-2.344C189 317.9 179.9 322.3 176.9 330.7c-2.953 8.328 1.406 17.47 9.734 20.42l6.406 2.297c13.75 4.953 29.34 10.58 44.14 12.81C238.2 366.3 239 366.3 240 366.4V400c0 8.844 7.156 16 16 16s16-7.156 16-16v-32.74c34.03-3.531 58.02-21.67 62.95-50.2C344 264.5 295.7 250.7 260.4 240.6zM256 0C114.6 0 0 114.6 0 256s114.6 256 256 256s256-114.6 256-256S397.4 0 256 0zM256 480c-123.5 0-224-100.5-224-224s100.5-224 224-224s224 100.5 224 224S379.5 480 256 480z"/></svg>