<svg xmlns="http://www.w3.org/2000/svg" viewBox="0 0 512 512"><!--! Font Awesome Pro 6.0.0-alpha3 by @fontawesome - https://fontawesome.com License - https://fontawesome.com/license (Commercial License) --><path d="M256 232C242.7 232 232 242.7 232 256c0 13.25 10.74 24 24 24S280 269.3 280 256C280 242.7 269.3 232 256 232zM144 232C130.7 232 120 242.7 120 256c0 13.25 10.74 24 24 24S168 269.3 168 256C168 242.7 157.3 232 144 232zM368 232c-13.26 0-24 10.74-24 24c0 13.25 10.74 24 24 24S392 269.3 392 256C392 242.7 381.3 232 368 232zM256 0C114.6 0 0 114.6 0 256s114.6 256 256 256S512 397.4 512 256S397.4 0 256 0zM256 480c-123.5 0-224-100.5-224-224s100.5-224 224-224s224 100.5 224 224S379.5 480 256 480z"/></svg>