<svg xmlns="http://www.w3.org/2000/svg" viewBox="0 0 512 512"><!--! Font Awesome Pro 6.0.0-alpha3 by @fontawesome - https://fontawesome.com License - https://fontawesome.com/license (Commercial License) --><path d="M256 232C242.7 232 232 242.7 232 256S242.7 280 256 280c13.26 0 24-10.74 24-24S269.3 232 256 232zM256 344c-13.25 0-24 10.74-24 24s10.75 24 24 24c13.26 0 24-10.74 24-24S269.3 344 256 344zM256 120c-13.25 0-24 10.74-24 24S242.7 168 256 168c13.26 0 24-10.74 24-24S269.3 120 256 120zM256 0c-141.4 0-255.1 114.6-255.1 256S114.6 511.1 256 511.1s256-114.6 256-255.1S397.4 0 256 0zM256 480c-123.5 0-224-100.5-224-224s100.5-224 224-224s224 100.5 224 224S379.5 480 256 480z"/></svg>