<svg xmlns="http://www.w3.org/2000/svg" viewBox="0 0 512 512"><!--! Font Awesome Pro 6.0.0-alpha3 by @fontawesome - https://fontawesome.com License - https://fontawesome.com/license (Commercial License) --><path d="M336 128H320V111.1C320 103.2 312.8 96 304 96S288 103.2 288 111.1V128H224V111.1C224 103.2 216.8 96 208 96S192 103.2 192 111.1V128H176C149.5 128 128 149.5 128 176v160C128 362.5 149.5 384 176 384h160c26.51 0 48-21.49 48-48v-160C384 149.5 362.5 128 336 128zM352 336c0 8.836-7.164 16-16 16h-160C167.2 352 160 344.8 160 336V224h192V336zM352 192H160V176C160 167.2 167.2 160 176 160h160C344.8 160 352 167.2 352 176V192zM256 0C114.6 0 0 114.6 0 256c0 141.4 114.6 256 256 256s256-114.6 256-256C512 114.6 397.4 0 256 0zM256 480c-123.5 0-224-100.5-224-224s100.5-224 224-224s224 100.5 224 224S379.5 480 256 480z"/></svg>