<svg xmlns="http://www.w3.org/2000/svg" viewBox="0 0 640 512"><!--! Font Awesome Pro 6.0.0-alpha3 by @fontawesome - https://fontawesome.com License - https://fontawesome.com/license (Commercial License) --><path d="M128 416H96c-17.67 0-32 14.33-32 32v32c0 17.67 14.33 32 32 32h32c17.67 0 32-14.33 32-32v-32C160 430.3 145.7 416 128 416zM128 480H96v-32h32V480zM128 160H96C78.33 160 64 174.3 64 192v32c0 17.67 14.33 32 32 32h32c17.67 0 32-14.33 32-32V192C160 174.3 145.7 160 128 160zM128 224H96V192h32V224zM128 288H96c-17.67 0-32 14.33-32 32v32c0 17.67 14.33 32 32 32h32c17.67 0 32-14.33 32-32v-32C160 302.3 145.7 288 128 288zM128 352H96v-32h32V352zM256 416H224c-17.67 0-32 14.33-32 32v32c0 17.67 14.33 32 32 32h32c17.67 0 32-14.33 32-32v-32C288 430.3 273.7 416 256 416zM256 480H224v-32h32V480zM544 288h-32c-17.67 0-32 14.33-32 32v32c0 17.67 14.33 32 32 32h32c17.67 0 32-14.33 32-32v-32C576 302.3 561.7 288 544 288zM544 352h-32v-32h32V352zM592 192L512 192V48C512 21.49 490.5 0 464 0l-128 .0098c-26.51 0-48 21.49-48 48v47.1H224V16C224 7.199 216.8 0 208 0S192 7.199 192 16V96H128V16C128 7.199 120.8 0 112 0S96 7.199 96 16V96L48 96.01c-26.51 0-48 21.49-48 48L0 496C0 504.8 7.199 512 16 512S32 504.8 32 496V152C32 138.7 42.75 128 56 128H320V56C320 42.74 330.7 32 344 32h112C469.3 32 480 42.74 480 56V224h104C597.3 224 608 234.7 608 248v248c0 8.799 7.199 16 16 16s16-7.201 16-16V240C640 213.5 618.5 192 592 192zM544 416h-32c-17.67 0-32 14.33-32 32v32c0 17.67 14.33 32 32 32h32c17.67 0 32-14.33 32-32v-32C576 430.3 561.7 416 544 416zM544 480h-32v-32h32V480zM416 192h-32c-17.67 0-32 14.33-32 32v32c0 17.67 14.33 32 32 32h32c17.67 0 32-14.33 32-32V224C448 206.3 433.7 192 416 192zM416 256h-32V224h32V256zM416 64h-32c-17.67 0-32 14.33-32 32v32c0 17.67 14.33 32 32 32h32c17.67 0 32-14.33 32-32V96C448 78.33 433.7 64 416 64zM416 128h-32V96h32V128zM256 160H224C206.3 160 192 174.3 192 192v32c0 17.67 14.33 32 32 32h32c17.67 0 32-14.33 32-32V192C288 174.3 273.7 160 256 160zM256 224H224V192h32V224zM256 288H224c-17.67 0-32 14.33-32 32v32c0 17.67 14.33 32 32 32h32c17.67 0 32-14.33 32-32v-32C288 302.3 273.7 288 256 288zM256 352H224v-32h32V352z"/></svg>