<svg xmlns="http://www.w3.org/2000/svg" viewBox="0 0 512 512"><!--! Font Awesome Pro 6.0.0-alpha3 by @fontawesome - https://fontawesome.com License - https://fontawesome.com/license (Commercial License) --><path d="M256 32C176.5 32 104.4 73.87 64 141.6V48C64 39.16 56.84 32 48 32S32 39.16 32 48v128C32 184.8 39.16 192 48 192h128C184.8 192 192 184.8 192 176S184.8 160 176 160H90.15C124.5 100.7 187.1 64 256 64c105.9 0 192 86.13 192 192s-86.13 192-192 192c-59.48 0-114.7-26.91-151.3-73.84c-5.438-7-15.48-8.281-22.47-2.75c-6.953 5.438-8.188 15.5-2.75 22.44C122.2 448.6 186.6 480 256 480c123.5 0 224-100.5 224-224S379.5 32 256 32zM256 128C247.2 128 240 135.2 240 144v128c0 5.031 2.375 9.781 6.406 12.81l64 48C313.3 334.1 316.6 336 319.1 336c4.875 0 9.672-2.219 12.81-6.406c5.312-7.062 3.875-17.09-3.203-22.41L272 264V144C272 135.2 264.8 128 256 128z"/></svg>