<svg xmlns="http://www.w3.org/2000/svg" viewBox="0 0 512 512"><!--! Font Awesome Pro 6.0.0-alpha3 by @fontawesome - https://fontawesome.com License - https://fontawesome.com/license (Commercial License) --><path d="M272 249.4V128c0-8.844-7.156-16-16-16s-16 7.156-16 16v128c0 4.25 1.688 8.312 4.688 11.31l80 80C327.8 350.4 331.9 352 336 352s8.188-1.562 11.31-4.688c6.25-6.25 6.25-16.38 0-22.62L272 249.4zM255.1 0c-141.4 0-256 114.6-256 256s114.6 256 256 256s255.1-114.6 255.1-256S397.4 0 255.1 0zM256 480c-123.5 0-224-100.5-224-224s100.5-224 224-224s224 100.5 224 224S379.5 480 256 480z"/></svg>