<svg xmlns="http://www.w3.org/2000/svg" viewBox="0 0 448 512"><!--! Font Awesome Pro 6.0.0-alpha3 by @fontawesome - https://fontawesome.com License - https://fontawesome.com/license (Commercial License) --><path d="M224 0C100.3 0 0 100.3 0 224v208C0 476.1 35.88 512 80 512h288c44.13 0 80-35.88 80-80V224C448 100.3 347.7 0 224 0zM416 432c0 26.47-21.53 48-48 48h-288C53.53 480 32 458.5 32 432v-93.05C71.15 404.2 142.4 448 224 448s152.8-43.81 192-109.1V432zM224 416c-105.9 0-192-86.13-192-192s86.13-192 192-192s192 86.13 192 192S329.9 416 224 416zM240 232V112c0-8.844-7.149-16-15.99-16S208 103.2 208 112v128c0 5.031 2.375 9.781 6.406 12.81l64 48C281.3 302.1 284.6 304 287.1 304c4.875 0 9.672-2.219 12.81-6.406c5.312-7.062 3.875-17.09-3.203-22.41L240 232z"/></svg>