<svg xmlns="http://www.w3.org/2000/svg" viewBox="0 0 512 512"><!--! Font Awesome Pro 6.0.0-alpha3 by @fontawesome - https://fontawesome.com License - https://fontawesome.com/license (Commercial License) --><path d="M432 16C387.8 16 352 51.82 352 96c0 38.7 27.49 70.97 64 78.39V352c0 26.47-21.53 48-48 48h-83.8l62.05-51.72c6.781-5.656 7.703-15.75 2.047-22.53c-5.656-6.75-15.73-7.688-22.55-2.031l-96 80C226.1 406.8 224 411.3 224 416s2.109 9.25 5.75 12.28l96 80C328.8 510.8 332.4 512 335.1 512c4.594 0 9.141-1.969 12.31-5.75c5.656-6.781 4.734-16.88-2.047-22.53L284.2 432H368c44.11 0 80-35.88 80-80V174.4C484.5 166.1 512 134.7 512 96C512 51.82 476.2 16 432 16zM432 144C405.5 144 384 122.5 384 96s21.53-48 48-48S480 69.53 480 96S458.5 144 432 144zM288 96c0-4.75-2.109-9.25-5.75-12.28l-96-80C179.4-1.969 169.4-1 163.7 5.75C158 12.53 158.1 22.62 165.8 28.28L227.8 80H144C99.89 80 64 115.9 64 160v177.6C27.49 345 0 377.3 0 416c0 44.18 35.82 80 80 80C124.2 496 160 460.2 160 416c0-38.7-27.48-70.97-64-78.39V160c0-26.47 21.53-48 48-48h83.8L165.8 163.7C158.1 169.4 158 179.5 163.7 186.3C166.9 190 171.4 192 176 192c3.609 0 7.234-1.219 10.23-3.719l96-80C285.9 105.3 288 100.8 288 96zM128 416c0 26.47-21.53 48-48 48S32 442.5 32 416s21.53-48 48-48S128 389.5 128 416z"/></svg>