<svg xmlns="http://www.w3.org/2000/svg" viewBox="0 0 320 512"><!--! Font Awesome Pro 6.0.0-alpha3 by @fontawesome - https://fontawesome.com License - https://fontawesome.com/license (Commercial License) --><path d="M293.8 380.1c-25.23 20.58-54.88 31.95-85.13 35.01l70.84-292.7c4.798 3.125 9.754 5.885 14.29 9.581c6.877 5.532 16.98 4.532 22.57-2.281c5.608-6.844 4.59-16.94-2.272-22.53c-8.44-6.87-17.43-12.58-26.6-17.81l16.84-69.57c2.084-8.594-3.212-17.22-11.83-19.31c-8.616-1.938-17.26 3.188-19.35 11.81l-15.37 63.5c-14.57-5.285-29.49-8.911-44.67-10.55l10.1-45.45c2.084-8.594-3.212-17.22-11.83-19.31c-8.538-1.938-17.26 3.188-19.35 11.81l-12.61 52.09c-45.22 2.869-89.51 21.51-123.1 55.91C20.02 156.5 0 204.7 0 255.1s20.02 99.49 56.38 135.7c11.53 11.5 24.41 20.65 37.8 28.66l-17.39 71.85c-2.084 8.594 3.212 17.22 11.83 19.31C89.88 511.8 91.15 512 92.4 512c7.238 0 13.8-4.907 15.57-12.25l15.64-64.63c14.45 5.559 29.42 8.838 44.61 10.78l-11.22 46.35c-2.084 8.594 3.212 17.22 11.83 19.31C170.1 511.8 171.4 512 172.6 512c7.238 0 13.8-4.907 15.57-12.25l12.63-52.2c40.1-1.733 79.92-15.52 113.3-42.68c6.862-5.594 7.88-15.69 2.272-22.53C310.8 375.5 300.7 374.5 293.8 380.1zM79.07 369.1C48.77 338.9 32.08 298.7 32.08 255.1s16.68-82.91 46.98-113.1c26.14-26.07 59.11-40.8 93.21-45.17l-70.27 290.4C93.93 382.6 86.23 376.3 79.07 369.1zM131.2 403.7l74.28-306.9C220.7 98.03 235.7 101.5 250.2 107.2l-74.45 307.6C160.5 413.2 145.5 409.7 131.2 403.7z"/></svg>