<svg xmlns="http://www.w3.org/2000/svg" viewBox="0 0 640 512"><!--! Font Awesome Pro 6.0.0-alpha3 by @fontawesome - https://fontawesome.com License - https://fontawesome.com/license (Commercial License) --><path d="M415.1 249.5l31.75-88.07C452.4 146.2 436.8 128 421.1 128c-2.131 0-4.379 .3652-6.51 1.1L310.2 166.7l29.57 23.35l72.1-26.01l-23.27 64.56L415.1 249.5zM321.2 32c123.5 0 224 100.5 224 224c0 29.49-5.871 57.6-16.27 83.41l26.07 20.58C569.2 328.2 577.2 293.1 577.2 256c0-141.4-114.6-256-256-256C262.8 0 209 19.82 165.9 52.82l26.04 20.56C228.5 47.42 273.1 32 321.2 32zM321.2 480c-123.5 0-224-100.5-224-224c0-28.92 5.693-56.49 15.72-81.89L86.76 153.4C72.99 184.9 65.23 219.5 65.23 256c0 141.4 114.6 256 256 256c57.9 0 111.1-19.45 154-51.87l-26.04-20.56C412.9 464.1 368.8 480 321.2 480zM224.9 262.5l-31.73 88.08C187.6 365.8 203.2 384 218.9 384c2.248 0 4.379-.3672 6.508-1.1l104.3-37.61L300.2 321.9l-72.13 26l23.26-64.58L224.9 262.5zM633.9 483.4l-608-480C19-2.033 8.922-.8457 3.438 6.092c-5.469 6.938-4.281 17 2.641 22.47l608 480C617 510.9 620.5 512 623.1 512c4.734 0 9.422-2.094 12.58-6.094C642 498.1 640.8 488.9 633.9 483.4z"/></svg>