<svg xmlns="http://www.w3.org/2000/svg" viewBox="0 0 576 512"><!--! Font Awesome Pro 6.0.0-alpha3 by @fontawesome - https://fontawesome.com License - https://fontawesome.com/license (Commercial License) --><path d="M304.9 272.1c9.43-9.361 9.43-24.59 0-33.96c-9.311-9.363-24.54-9.363-33.85 0c-9.432 9.363-9.432 24.59 0 33.96C280.4 282.3 295.6 282.3 304.9 272.1zM389.1 128c-2.131 0-4.379 .3652-6.51 1.1L231.2 183.7c-7.336 2.688-12.9 8.184-15.5 15.39l-54.55 151.4C155.6 365.8 171.2 384 186.9 384c2.248 0 4.379-.3672 6.508-1.1l151.5-54.6c7.219-2.688 12.78-8.184 15.38-15.51l54.55-151.3C420.4 146.2 404.8 128 389.1 128zM331.2 299.2l-135.1 48.69l48.67-135.1l135.1-48.75L331.2 299.2zM289.2 0c-141.4 0-256 114.6-256 256s114.6 256 256 256s256-114.6 256-256S430.6 0 289.2 0zM289.2 480c-123.5 0-224-100.5-224-224s100.5-224 224-224s224 100.5 224 224S412.7 480 289.2 480z"/></svg>