<svg xmlns="http://www.w3.org/2000/svg" viewBox="0 0 576 512"><!--! Font Awesome Pro 6.0.0-alpha3 by @fontawesome - https://fontawesome.com License - https://fontawesome.com/license (Commercial License) --><path d="M176 352h-64C103.2 352 96 359.2 96 368C96 376.8 103.2 384 112 384h64C184.8 384 192 376.8 192 368C192 359.2 184.8 352 176 352zM512 32h-448c-35.35 0-64 28.65-64 64v320c0 35.35 28.65 64 64 64h448c35.35 0 64-28.65 64-64V96C576 60.65 547.3 32 512 32zM544 416c0 17.64-14.36 32-32 32H64c-17.64 0-32-14.36-32-32V96c0-17.64 14.36-32 32-32h448c17.64 0 32 14.36 32 32V416zM368 352h-128C231.2 352 224 359.2 224 368C224 376.8 231.2 384 240 384h128c8.836 0 16-7.164 16-16C384 359.2 376.8 352 368 352z"/></svg>