<svg xmlns="http://www.w3.org/2000/svg" viewBox="0 0 512 512"><!--! Font Awesome Pro 6.0.0-alpha3 by @fontawesome - https://fontawesome.com License - https://fontawesome.com/license (Commercial License) --><path d="M496 240h-32.81C455.4 137.9 374.1 56.6 272 48.81V16C272 7.156 264.8 0 256 0S240 7.156 240 16v32.81C137.9 56.6 56.6 137.9 48.81 240H16C7.156 240 0 247.2 0 256S7.156 272 16 272h32.81C56.6 374.1 137.9 455.4 240 463.2V496c0 8.844 7.156 16 15.1 16S272 504.8 272 496v-32.81C374.1 455.4 455.4 374.1 463.2 272H496C504.8 272 512 264.8 512 256S504.8 240 496 240zM400 272h31.19C423.5 356.3 356.3 423.5 272 431.2V400c0-8.844-7.156-16-16-16s-16 7.156-16 16v31.19C155.7 423.5 88.45 356.3 80.81 272H112C120.8 272 128 264.8 128 256S120.8 240 112 240H80.81C88.45 155.7 155.7 88.45 240 80.81V112C240 120.8 247.2 128 256 128s16-7.156 16-16V80.81C356.3 88.45 423.5 155.7 431.2 240H400C391.2 240 384 247.2 384 256S391.2 272 400 272zM255.1 232c-13.25 0-24 10.75-24 24s10.75 24 24 24s24-10.75 24-24S269.2 232 255.1 232z"/></svg>