<svg xmlns="http://www.w3.org/2000/svg" viewBox="0 0 640 512"><!--! Font Awesome Pro 6.0.0-alpha3 by @fontawesome - https://fontawesome.com License - https://fontawesome.com/license (Commercial License) --><path d="M416 72c-13.25 0-24 10.75-24 24S402.8 120 416 120S440 109.3 440 96S429.3 72 416 72zM520 64l-13.87 .0137c-13.64-38.34-50.45-65.57-93.8-63.95C360.3 2.016 320 46.89 320 99v36.63l-308.6 258c-7.125 5.625-11.38 14.64-11.38 24.14C0 435.3 13.5 448 28.5 448c4.125 0 8.5-1 12.62-3.25L168 384h109.5l44.18 117.8c2.986 8.084 11.95 12.23 20.04 9.268c8.127-2.975 12.3-11.99 9.303-20.1L310.9 384h20.38c13.88 0 27.38-1.875 40.38-5l46.06 122.8c2.986 8.082 11.95 12.22 20.04 9.264c8.129-2.977 12.29-11.99 9.293-20.11l-45.78-121.9c65.13-29 110.7-97.37 110.7-176.1L512 161.1L640 144C640 99.88 586.3 64 520 64zM480 192c0 88.25-66.75 160-148.8 160h-57l45.38-13c48-13.62 88.38-47.13 110.6-91.88c4-7.875 .75-17.5-7.125-21.38c-7.875-4-17.5-.875-21.5 7.125C383.4 269.5 350.3 297 310.8 308.3C118.6 363.1 195 335.5 44.13 407.9L352 150.5V96c0-35.25 28.75-64 64-64s64 28.75 64 64V192zM512 128.8l0-32.75L520 96c30.88 0 56.88 9.5 72.5 22L512 128.8z"/></svg>