<svg xmlns="http://www.w3.org/2000/svg" viewBox="0 0 384 512"><!--! Font Awesome Pro 6.0.0-alpha3 by @fontawesome - https://fontawesome.com License - https://fontawesome.com/license (Commercial License) --><path d="M379.2 391.7c6.283 6.219 6.346 16.34 .125 22.62C337.4 456.7 281.5 480 222.1 480c0 0 .0313 0 0 0c-59.36 0-115.2-23.33-157.2-65.66c-86.56-87.31-86.56-229.4 0-316.7c41.98-42.33 97.82-65.66 157.2-65.66c59.43-.0156 115.3 23.31 157.3 65.66c6.221 6.281 6.158 16.41-.125 22.62c-6.252 6.25-16.38 6.156-22.63-.0938c-35.92-36.23-83.69-56.2-134.5-56.19c-50.8 0-98.53 19.95-134.5 56.19c-74.28 74.89-74.28 196.7 0 271.6c20.69 20.87 45.38 36.14 72.24 45.5V240c0-8.844 7.159-16 16.01-16S191.9 231.2 191.9 240v16.4C205.3 246.3 221.9 240 239.1 240c32.23 0 61.18 19.17 73.74 48.86c3.439 8.141-.3751 17.53-8.503 20.97c-8.222 3.375-17.54-.3281-21.01-8.5C276.7 283.5 259.3 272 239.1 272C213.5 272 191.9 293.5 191.9 320v125.4C201.8 446.1 211.9 448 222.1 448c50.8 0 98.57-19.95 134.5-56.19C362.8 385.6 372.1 385.5 379.2 391.7z"/></svg>