<svg xmlns="http://www.w3.org/2000/svg" viewBox="0 0 640 512"><!--! Font Awesome Pro 6.0.0-alpha3 by @fontawesome - https://fontawesome.com License - https://fontawesome.com/license (Commercial License) --><path d="M576 32H64C28.65 32 0 60.65 0 96v320c0 35.35 28.65 64 64 64h512c35.35 0 64-28.65 64-64V96C640 60.65 611.3 32 576 32zM576 64c17.64 0 32 14.36 32 32v240h-96V64H576zM400 224H480v112h-80V224zM480 64v128h-80V64H480zM368 64v272h-96V64H368zM240 336H160V224h80V336zM240 64v128H160V64H240zM64 64h64v272H32V96C32 78.36 46.36 64 64 64zM64 448c-17.64 0-32-14.36-32-32v-48h272V448H64zM576 448h-240v-80H608V416C608 433.6 593.6 448 576 448z"/></svg>