<svg xmlns="http://www.w3.org/2000/svg" viewBox="0 0 640 512"><!--! Font Awesome Pro 6.0.0-alpha3 by @fontawesome - https://fontawesome.com License - https://fontawesome.com/license (Commercial License) --><path d="M416 32c-34.38 0-66.86 7.956-96 21.86C290.9 39.96 258.4 32 224 32C100.5 32 0 132.5 0 256s100.5 224 224 224c34.38 0 66.86-7.956 96-21.86C349.1 472 381.6 480 416 480c123.5 0 224-100.5 224-224S539.5 32 416 32zM390.1 160H249.9C266.8 131 290.1 106.8 320 89.98C349 106.8 373.2 131 390.1 160zM404.6 320H235.4C230 304.8 226.5 288.7 225.1 272h189.8C413.5 288.7 409.1 304.8 404.6 320zM414.9 240H225.1C226.5 223.3 230 207.2 235.4 192h169.1C409.1 207.2 413.5 223.3 414.9 240zM224 448c-105.9 0-192-86.13-192-192s86.13-192 192-192c21.54 0 42.18 3.723 61.52 10.29C229 114.1 192 181.2 192 256s37 141 93.52 181.7C266.2 444.3 245.5 448 224 448zM249.9 352h140.1C373.2 380.1 349 405.2 320 422C290.1 405.2 266.8 380.1 249.9 352zM416 448c-21.54 0-42.18-3.723-61.52-10.29C411 397 448 330.8 448 256s-37-141-93.52-181.7C373.8 67.72 394.5 64 416 64c105.9 0 192 86.13 192 192S521.9 448 416 448z"/></svg>