<svg xmlns="http://www.w3.org/2000/svg" viewBox="0 0 512 512"><!--! Font Awesome Pro 6.0.0-alpha3 by @fontawesome - https://fontawesome.com License - https://fontawesome.com/license (Commercial License) --><path d="M464 288h-128C309.5 288 288 309.5 288 336v128c0 26.51 21.49 48 48 48h128c26.51 0 48-21.49 48-48v-128C512 309.5 490.5 288 464 288zM480 464c0 8.822-7.178 16-16 16h-128c-8.822 0-16-7.178-16-16v-128c0-8.822 7.178-16 16-16h128c8.822 0 16 7.178 16 16V464zM240 384h-64C149.5 384 128 362.5 128 336V224h48C202.5 224 224 202.5 224 176v-128C224 21.49 202.5 0 176 0h-128C21.49 0 0 21.49 0 48v128C0 202.5 21.49 224 48 224H96v112C96 380.1 131.9 416 176 416h64c8.844 0 16-7.156 16-16S248.8 384 240 384zM48 192C39.18 192 32 184.8 32 176v-128C32 39.18 39.18 32 48 32h128C184.8 32 192 39.18 192 48v128C192 184.8 184.8 192 176 192H48z"/></svg>