<svg xmlns="http://www.w3.org/2000/svg" viewBox="0 0 640 512"><!--! Font Awesome Pro 6.0.0-alpha3 by @fontawesome - https://fontawesome.com License - https://fontawesome.com/license (Commercial License) --><path d="M591.1 0h-96c-26.51 0-48 21.49-48 48v96c0 26.51 21.49 48 48 48h96c26.51 0 48-21.49 48-48v-96C639.1 21.49 618.5 0 591.1 0zM608 144C608 152.8 600.8 160 592 160h-96C487.2 160 480 152.8 480 144v-96C480 39.18 487.2 32 496 32h96C600.8 32 608 39.18 608 48V144zM368 320h-96C245.5 320 224 341.5 224 368v96C224 490.5 245.5 512 272 512h96c26.51 0 48-21.49 48-48v-96C416 341.5 394.5 320 368 320zM384 464c0 8.822-7.178 16-16 16h-96C263.2 480 256 472.8 256 464v-96C256 359.2 263.2 352 272 352h96c8.822 0 16 7.178 16 16V464zM400 80H192v-32C192 21.49 170.5 0 144 0h-96C21.49 0 0 21.49 0 48v96C0 170.5 21.49 192 48 192h96c2.17 0 4.242-.3594 6.336-.6387l59.76 104.6C213.1 301.1 218.5 304 224 304c2.719 0 5.438-.6719 7.938-2.109c7.688-4.375 10.34-14.16 5.969-21.83L178.9 176.8C186.1 168.2 192 156.7 192 144v-32h208C408.8 112 416 104.8 416 96S408.8 80 400 80zM160 144C160 152.8 152.8 160 144 160h-96C39.18 160 32 152.8 32 144v-96C32 39.18 39.18 32 48 32h96C152.8 32 160 39.18 160 48V144z"/></svg>