<svg xmlns="http://www.w3.org/2000/svg" viewBox="0 0 640 512"><!--! Font Awesome Pro 6.0.0-alpha3 by @fontawesome - https://fontawesome.com License - https://fontawesome.com/license (Commercial License) --><path d="M48 224H288c5.625 0 10.81-2.953 13.72-7.766l86.69-144.5C391.3 66.97 396.5 64 402.1 64H592C600.8 64 608 56.84 608 48S600.8 32 592 32h-189.9c-16.78 0-32.53 8.922-41.16 23.3L278.9 192H48C39.16 192 32 199.2 32 208S39.16 224 48 224zM608 304C608 295.2 600.8 288 592 288h-544C39.16 288 32 295.2 32 304S39.16 320 48 320h150.9l82.03 136.7C289.6 471.1 305.3 480 322.1 480H592c8.844 0 16-7.156 16-16S600.8 448 592 448h-269.9c-5.594 0-10.84-2.969-13.72-7.766L236.3 320H592C600.8 320 608 312.8 608 304z"/></svg>