<svg xmlns="http://www.w3.org/2000/svg" viewBox="0 0 576 512"><!--! Font Awesome Pro 6.0.0-alpha3 by @fontawesome - https://fontawesome.com License - https://fontawesome.com/license (Commercial License) --><path d="M400 111.1c-8.875 0-15.1 7.15-15.1 16.02s7.125 15.1 15.1 15.1s15.1-7.146 15.1-16.02S408.9 111.1 400 111.1zM512 96.01l-48-.0207l-7.125-14.25c-4.875-9.875-17.75-17.75-28.62-17.75l-92.25 .0256l-.0506-15.97c0-8.838-7.113-16.03-15.95-16.03s-15.1 7.162-15.1 15.1v158.1L58.17 3.67C51.33-1.986 41.24-.9865 35.66 5.857C30.03 12.67 31 22.73 37.83 28.36L275.4 224H192c-18.87 0-37.25 5.625-52.1 15.1H112c-26.5 0-47.1-21.5-47.1-47.1c0-8.875-7.125-15.1-15.1-15.1S32 183.1 32 192c.125 43.12 34.38 78.38 77.5 79.75c-8.75 14.62-13.37 31.25-13.5 48.25v143.1C96 490.4 117.6 512 144 512h31.1c26.4 0 48-21.6 48-47.1v-79.1l95.1-.0285l.0006 80.03c0 26.4 21.6 47.98 47.1 47.98L400 512c26.4 0 48-21.6 48-47.1v-223.1l31.1-.0026C515.3 240 544 211.4 544 176V128C544 110.3 529.7 96.01 512 96.01zM288 352H208c-8.836 0-15.1 7.162-15.1 15.1v95.1c0 8.836-7.165 15.1-16 15.1l-31.1 .0003c-8.836 0-16-7.165-16-16l.0007-143.1c0-35.35 28.65-63.1 63.1-63.1h95.1V352zM416 464c0 8.836-7.164 16-15.1 16l-32-.0003c-8.836 0-15.1-7.164-15.1-15.1v-95.1c0-8.838-7.164-15.1-15.1-15.1h-15.1v-95.12l95.1 32.01L416 464zM512 176c0 17.6-14.4 31.98-32 31.98l-63.1 .0229v47.13l-79.1-26.67V96.01h92.25l15.1 31.1h67.75V176z"/></svg>