<svg xmlns="http://www.w3.org/2000/svg" viewBox="0 0 576 512"><!--! Font Awesome Pro 6.0.0-alpha3 by @fontawesome - https://fontawesome.com License - https://fontawesome.com/license (Commercial License) --><path d="M512 96L464 96l-7.125-14.25C452 71.88 439.1 64 428.3 64L336 64l-.0501-15.96C335.9 39.2 328.8 32 320 32s-16 7.162-16 16V224H192C173.1 224 154.8 229.6 139 240H112C85.5 240 64 218.5 64 192c0-8.875-7.125-16-16-16S32 183.1 32 192c.125 43.13 34.38 78.37 77.5 79.75C100.8 286.4 96.13 303 96 320v144C96 490.4 117.6 512 144 512h32C202.4 512 224 490.4 224 464V384h96v80c0 26.4 21.6 48 48 48h32c26.4 0 48-21.6 48-48v-224l32 .001c35.35 0 64-28.66 64-64V128C544 110.3 529.7 96 512 96zM416 464c0 8.836-7.164 16-16 16l-32 .0001c-8.836 0-16-7.164-16-16v-96c0-8.838-7.164-16-16-16h-128C199.2 352 192 359.2 192 368v96c0 8.836-7.164 16-16 16L144 480C135.2 480 128 472.8 128 464V320c0-35.35 28.65-64 64-64h125.4L416 288.9V464zM512 176c0 17.6-14.4 32-32 32L416 208v47.13l-80-26.67V96h92.25l16 32H512V176zM400 112C391.1 112 384 119.1 384 128s7.125 16 16 16S416 136.9 416 128S408.9 112 400 112z"/></svg>