<svg xmlns="http://www.w3.org/2000/svg" viewBox="0 0 320 512"><!--! Font Awesome Pro 6.0.0-alpha3 by @fontawesome - https://fontawesome.com License - https://fontawesome.com/license (Commercial License) --><path d="M302 365.9c-9.438 50.08-57.21 79.63-126.1 81.73V496c0 8.844-7.104 16-15.95 16c-8.842 0-16.05-7.156-16.05-16v-49.73c-6.345-.5234-12.3-.4609-18.9-1.406c-27.98-3.875-58.29-13.88-85.02-22.7L27.07 417.9c-8.405-2.719-13.01-11.75-10.28-20.16c2.718-8.375 11.75-13 20.15-10.28l13.15 4.312c25.43 8.406 54.27 17.92 79.44 21.41c63.6 9.062 131.7-3.812 141.1-53.17c9.811-51.98-36.81-68.16-114.7-88.59l-17.04-4.5C87.68 253.1 2.06 230.1 17.93 146.1c9.43-50.05 57.26-79.34 126.1-81.5V16c0-8.844 7.188-16 16.03-16c8.842 0 15.96 7.156 15.96 16v49.47c6.282 .5195 12.36 .7383 18.9 1.668c18.07 2.609 39.02 7.781 65.91 16.31c8.436 2.672 13.09 11.66 10.42 20.08c-2.656 8.438-11.58 13.14-20.07 10.42c-25.18-7.984-44.51-12.8-60.8-15.12C126.9 89.73 58.69 102.6 49.36 152C40.62 198.4 75.42 216.7 147.1 236l16.84 4.453C232.6 258.5 318.1 280.9 302 365.9z"/></svg>