<svg xmlns="http://www.w3.org/2000/svg" viewBox="0 0 448 512"><!--! Font Awesome Pro 6.0.0-alpha3 by @fontawesome - https://fontawesome.com License - https://fontawesome.com/license (Commercial License) --><path d="M400 448h-352C39.16 448 32 455.2 32 464S39.16 480 48 480h352c8.844 0 16-7.156 16-16S408.8 448 400 448zM224 400c38.41 0 72.52-17.35 96-44.23V384c0 8.844 7.156 16 16 16S352 392.8 352 384V112h16C376.8 112 384 104.8 384 96s-7.156-16-16-16H352v-32C352 39.16 344.8 32 336 32S320 39.16 320 48v32h-80C231.2 80 224 87.16 224 96s7.156 16 16 16H320v76.23C296.5 161.4 262.4 144 224 144c-70.58 0-128 57.41-128 128S153.4 400 224 400zM224 176c52.94 0 96 43.06 96 96s-43.06 96-96 96s-96-43.06-96-96S171.1 176 224 176z"/></svg>