<svg xmlns="http://www.w3.org/2000/svg" viewBox="0 0 640 512"><!--! Font Awesome Pro 6.0.0-alpha3 by @fontawesome - https://fontawesome.com License - https://fontawesome.com/license (Commercial License) --><path d="M624 128H512V112C512 103.2 504.8 96 496 96S480 103.2 480 112V128h-112C359.2 128 352 135.2 352 144C352 152.8 359.2 160 368 160H480v78.67C446.5 220.5 383.9 192 320 192S193.5 220.5 160 238.7V160h112C280.8 160 288 152.8 288 144C288 135.2 280.8 128 272 128H160V112c0-8.844-7.156-15.94-16-15.94S128 103.2 128 112V128H16C7.164 128 0 135.2 0 144C0 152.8 7.164 160 16 160H128v112c0 17.64 14.34 32 32 32h9.402C152.1 333.2 144 366.3 144 400c0 8.844 7.231 16 16.07 16S176 408.8 176 400c0-34.49 11.46-68.14 31.73-96h18.36l51.5 44.14C280.5 350.6 284.2 352 288 352h64c3.812 0 7.5-1.359 10.41-3.859L413.9 304h18.36C452.5 331.9 464 365.5 464 400c0 8.844 7.056 16 15.9 16S496 408.8 496 400c0-33.68-8.963-66.82-25.4-96H480c17.66 0 32-14.36 32-32V160h112C632.8 160 640 152.8 640 144C640 135.2 632.8 128 624 128zM408 272c-3.812 0-7.5 1.359-10.41 3.859L346.1 320H293.9l-51.5-44.14C239.5 273.4 235.8 272 232 272H166.1C192.1 256.6 257.1 224 320 224s127 32.56 153.9 48H408z"/></svg>