<svg xmlns="http://www.w3.org/2000/svg" viewBox="0 0 512 512"><!--! Font Awesome Pro 6.0.0-alpha3 by @fontawesome - https://fontawesome.com License - https://fontawesome.com/license (Commercial License) --><path d="M370.8 163.9l21.5-21.5C394.8 143.1 397.3 144 400 144c17.62 0 32-14.38 32-32s-14.38-32-32-32s-32 14.38-32 32c0 2.75 .875 5.25 1.625 7.75l-21.5 21.5C336.1 153.3 319.9 160 302.9 160H209.1c-17 0-33.25-6.75-45.25-18.75l-21.5-21.5C143.1 117.3 144 114.8 144 112c0-17.62-14.38-32-32-32s-32 14.38-32 32s14.38 32 32 32c2.75 0 5.25-.875 7.75-1.625l21.5 21.5C153.3 175.9 160 192.1 160 209.1v93.75c0 17-6.75 33.25-18.75 45.25l-21.5 21.5C117.3 368.9 114.8 368 112 368c-17.62 0-32 14.38-32 32s14.38 32 32 32s32-14.38 32-32c0-2.75-.875-5.25-1.625-7.75l21.5-21.5C175.9 358.8 192.1 352 209.1 352h93.75c17 0 33.25 6.75 45.25 18.75l21.5 21.5C368.9 394.8 368 397.3 368 400c0 17.62 14.38 32 32 32s32-14.38 32-32s-14.38-32-32-32c-2.75 0-5.25 .875-7.75 1.625l-21.5-21.5C358.8 336.1 352 319.9 352 302.9V209.1C352 192.1 358.8 175.9 370.8 163.9zM320 320H192V192h128V320zM93.34 222.5C94.25 222.6 95.16 222.7 96.03 222.7c7.656 0 14.44-5.531 15.75-13.36C113.3 200.6 107.4 192.4 98.66 190.9C60.03 184.4 32 151.2 32 112C32 67.89 67.88 32 112 32c39.25 0 72.44 28.03 78.91 66.66c1.469 8.75 9.875 14.42 18.44 13.12c8.719-1.469 14.59-9.719 13.12-18.44C213.4 39.27 166.9 0 112 0C50.25 0 0 50.25 0 112C0 166.9 39.25 213.4 93.34 222.5zM302.7 111.8c8.594 1.328 16.97-4.375 18.44-13.12C327.6 60.03 360.8 32 400 32C444.1 32 480 67.89 480 112c0 39.23-28.03 72.41-66.66 78.89c-8.719 1.469-14.59 9.719-13.12 18.44c1.312 7.812 8.094 13.34 15.75 13.34c.9062 0 1.781-.0781 2.688-.2187C472.8 213.4 512 166.9 512 112C512 50.25 461.8 0 400 0c-54.94 0-101.4 39.27-110.5 93.34C288.1 102.1 293.9 110.3 302.7 111.8zM418.7 289.5c-8.812-1.562-16.97 4.406-18.44 13.14c-1.469 8.719 4.406 16.95 13.12 18.42C451.1 327.6 480 360.8 480 400c0 44.11-35.88 80-80 80c-39.25 0-72.44-28.03-78.91-66.66c-1.469-8.734-9.875-14.45-18.44-13.12c-8.719 1.469-14.59 9.719-13.12 18.44C298.6 472.7 345.1 512 400 512c61.75 0 112-50.25 112-112C512 345.1 472.8 298.6 418.7 289.5zM209.3 400.2c-8.5-1.297-16.97 4.391-18.44 13.12C184.4 451.1 151.3 480 112 480C67.88 480 32 444.1 32 400c0-39.23 28.03-72.41 66.66-78.89C107.4 319.6 113.3 311.4 111.8 302.7C110.3 293.9 101.9 288.3 93.34 289.5C39.25 298.6 0 345.1 0 400C0 461.8 50.25 512 112 512c54.94 0 101.4-39.27 110.5-93.34C223.9 409.9 218.1 401.7 209.3 400.2z"/></svg>