<svg xmlns="http://www.w3.org/2000/svg" viewBox="0 0 512 512"><!--! Font Awesome Pro 6.0.0-alpha3 by @fontawesome - https://fontawesome.com License - https://fontawesome.com/license (Commercial License) --><path d="M512 296c0-9.125-3-17.5-8.125-24.25c5.375-7.25 8.188-16.31 7.938-25.44c-1.375-35.25-9.813-69.25-25.06-101c-4.5-9.375-12.5-16.31-22-19.94c.875-10.12-2.125-20.31-8.5-28.31c-21.25-26.88-47.31-48.81-77.31-65.31c-5.875-3.25-12.44-4.875-19.19-4.875c-3.5 0-6.875 .375-10.12 1.25C344.5 19.38 336.1 12.75 326.3 10C303.3 3.375 279.6 0 256 0S208.8 3.375 185.8 10C175.9 12.75 167.5 19.38 162.4 28.12C159.1 27.25 155.8 26.88 152.3 26.88c-6.625 0-13.31 1.625-19.19 4.875c-30 16.5-56.06 38.5-77.31 65.37c-6.375 8-9.375 18.12-8.5 28.25C37.75 129 29.75 135.9 25.25 145.3c-15.25 31.75-23.75 65.81-25.12 101.1c-.25 9.125 2.625 18.12 8 25.38C2.875 278.8 0 287.3 0 296v64c0 9 3 17.25 8 24C3 390.8 0 399 0 408v64C0 494 17.1 512 40 512h64c21.1 0 40-18 40-40v-64c0-9-3-17.25-8-24c5-6.75 8-15 8-24v-64c0-8.875-2.875-17.12-7.875-23.88c4.75-6.25 7.625-14 8-21.88c.75-12.62 3.75-25.12 9-37.38c2.75-6.25 3.75-12.75 3.25-19c6-2.375 11.5-6.125 15.75-11.12C179.5 174.5 188 167.3 197.4 161.4c5.75-3.5 10.25-8.25 13.38-13.75c3.25 .75 6.5 1.125 9.875 1.125s6.75-.375 10-1.25C240 145.1 248.1 144 256 144s16 1.125 25.38 3.5C284.6 148.4 288 148.8 291.4 148.8s6.625-.375 9.875-1.125c3.125 5.5 7.625 10.25 13.38 13.75c9.5 5.875 17.88 13.12 25.25 21.38c4.375 5 9.75 8.75 15.75 11.12c-.5 6.25 .5 12.75 3.25 18.88c5.25 12.38 8.25 24.88 9 37.5c.5 8.25 3.375 15.75 8 21.88C370.8 279 368 287.4 368 296v64c0 9 3 17.25 8 24c-5 6.625-8 15-8 24v64c0 22 17.1 40 40 40h64c22.12 0 40-18 40-40v-64c0-9-3-17.38-8-24c5-6.75 8-15 8-24V296zM112 472C112 476.4 108.4 480 104 480h-64C35.63 480 32 476.4 32 472v-64c0-4.375 3.625-8 8-8h64c4.375 0 8 3.625 8 8V472zM112 360c0 4.375-3.625 8-8 8h-64C35.63 368 32 364.4 32 360V295.1C32 291.6 35.63 288 40 288h64C108.4 288 112 291.6 112 296V360zM123.8 200.1c-6.375 15-10.62 31.25-11.5 48.25C112 252.6 108.8 256 104.5 256H40.38C35.88 256 32 252.1 32.13 247.5c1.25-31.5 9-61.38 22-88.25c1.375-2.875 4.25-4.5 7.25-4.5c1.5 0 3 .375 4.375 1.25l55.13 34.38C124.1 192.5 125.4 196.6 123.8 200.1zM180.5 134.3c-12.12 7.5-23 16.75-32.38 27.5C146.5 163.5 144.3 164.5 141.1 164.5c-1.375 0-2.75-.375-4-1.125L83 129c-4.125-2.625-5.25-8.25-2.25-12C99.38 93.63 122.4 74.13 148.5 59.75C149.8 59.13 151 58.88 152.3 58.88C155.5 58.88 158.8 60.75 160 64l23.75 60.63C185.3 128.3 183.8 132.1 180.5 134.3zM298.9 111.9c-1.25 3.125-4.25 4.875-7.5 4.875c-.625 0-1.375 0-2-.25C277.5 113.5 266.8 112 256 112S234.5 113.5 222.8 116.5c-.7505 .25-1.5 .25-2.125 .25c-3.25 0-6.25-1.75-7.5-4.875L189.4 51.5C187.8 47.13 190.1 42 194.6 40.75C214.1 35.13 234.8 32 256 32s41.88 3.125 61.38 8.75c4.625 1.25 7 6.375 5.25 10.75L298.9 111.9zM373.1 163.4c-1.25 .75-2.625 1.125-4 1.125c-2.25 0-4.5-1-6.125-2.75c-9.375-10.75-20.25-20-32.38-27.5c-3.25-2.125-4.75-6-3.25-9.625L352 64.13c1.25-3.25 4.5-5.25 7.75-5.25c1.25 0 2.5 .25 3.75 .875c26.12 14.5 49.13 33.88 67.75 57.25c3 3.75 1.875 9.5-2.25 12L373.1 163.4zM388.3 200.1c-1.625-3.5-.375-7.625 2.875-9.75L446.3 156c1.25-.875 2.75-1.25 4.375-1.25c3 0 5.875 1.625 7.25 4.5c13 26.88 20.75 56.75 22 88.25C480 252.1 476.1 256 471.6 256H407.5C403.3 256 400 252.6 399.8 248.4C398.9 231.4 394.6 215.1 388.3 200.1zM480 472c0 4.375-3.625 8-8 8h-64c-4.375 0-8-3.625-8-8v-64c0-4.375 3.625-8 8-8h64c4.375 0 8 3.625 8 8V472zM480 360c0 4.375-3.625 8-8 8h-64c-4.375 0-8-3.625-8-8v-64C400 291.6 403.6 288 408 288h64C476.4 288 480 291.6 480 295.1V360zM256 192C247.2 192 240 199.2 240 208v256c0 8.844 7.156 15.1 16 15.1S272 472.8 272 464v-256C272 199.2 264.8 192 256 192zM320 224c-8.844 0-16 7.156-16 16v224c0 8.844 7.156 15.1 16 15.1S336 472.8 336 464v-224C336 231.2 328.8 224 320 224zM192 224C183.2 224 176 231.2 176 240v224c0 8.844 7.156 15.1 16 15.1S208 472.8 208 464v-224C208 231.2 200.8 224 192 224z"/></svg>