<svg xmlns="http://www.w3.org/2000/svg" viewBox="0 0 576 512"><!--! Font Awesome Pro 6.0.0-alpha3 by @fontawesome - https://fontawesome.com License - https://fontawesome.com/license (Commercial License) --><path d="M288 0C146.6 0 32 114.6 32 256s114.6 256 256 256s256-114.6 256-256S429.4 0 288 0zM490.1 160h-27.85c-17.32 0-30.85 14.62-30.85 32v8l-12.99 4.625c-2.664 .5-8.355 .75-15.02 1c-32.33 1.5-46.86 2.625-52.92 14.62c-2.504 6.342-1.742 13.51 2.039 19.18L364.9 258C370.7 266.8 380.5 272 391 272h8.355v8l-19.38 27.62c-2.785 3.875-4.723 8.25-5.57 13l-4.238 22.5c-10.41 9.5-19.62 20.38-27.49 32.13l-12.96 19.5c-4.721 7-16.59 6.377-20.34-1.25c-4.359-8.75-6.66-18.38-6.66-28.12V335.5c0-17.4-14.1-31.5-31.5-31.5H245.4c-10.29 0-19.98-4-27.25-11.25C210.8 285.4 206.7 275.8 206.7 265.4V251.3c0-12.18 5.744-23.64 15.5-30.93l27.61-20.62c5.051-3.824 22.48-13.16 41.29-3.625l14.77 7.375c12.07 5.826 22.17 2.248 23.98 1.625l47.35-15.75c12.84-4.25 21.55-16.38 21.55-29.88C398.8 142.1 384.6 128 367.3 128l-9.809 .125l-6.902-6.875C344.6 115.3 335.9 112 327.4 112h-88C238.1 101.1 258.3 111.4 271.4 91.88L279 80h40.37V34.46C394.9 45.13 458.4 93.5 490.1 160zM288 480c-123.5 0-224-100.5-224-224c0-123.3 100.2-223.6 223.4-223.1V48C271.9 47.39 256.7 55.61 252.1 62.7L244.5 74.58l-13.88 2.998C215.8 81.28 204.3 94.3 207.1 116.5C209.1 132.5 223.3 144 239.4 144h89.1l6.422 6.797c6.002 5.979 14.12 9.328 22.58 9.328c.1367 0 10.22-.127 10.22-.127L319.8 174.8l-14.36-7.266C295.9 162.7 284.8 160.1 273.7 160.1c-15.74 0-31.06 5.037-43.14 14.18l-27.45 20.5C185.3 208 174.7 229.2 174.7 251.4v14c0 18.66 7.311 36.36 20.59 49.83C208.8 328.7 226.5 336 245.4 336h25.91l-.5156 29.38c0 14.58 3.465 29.24 10.02 42.39C287.1 422.4 302.4 432 319.4 432c14.7 0 28.88-7.465 36.9-19.35l13.08-19.69c6.559-9.789 14.12-18.64 22.4-26.19c5.129-4.678 8.596-10.9 9.881-17.72l4.238-22.5l18.59-24.82c4.24-5.641 6.498-12.53 6.42-19.58l-.1211-11c-.0977-8.783-3.799-17.14-10.24-23.11c-5.934-5.502-21.71-8.535-29.76-8.535c-4.768 0 33.05-3.336 33.52-3.424c3.137-.5879 6.17-1.645 8.996-3.131L445.9 226.3c10.9-5.732 18.13-17.21 17.68-29.51L463.4 192l39.19 .0371C508.6 212.3 512 233.8 512 256C512 379.5 411.5 480 288 480z"/></svg>