<svg xmlns="http://www.w3.org/2000/svg" viewBox="0 0 576 512"><!--! Font Awesome Pro 6.0.0-alpha3 by @fontawesome - https://fontawesome.com License - https://fontawesome.com/license (Commercial License) --><path d="M289.2 0c-141.4 0-256 114.6-256 256s114.6 256 256 256s256-114.6 256-256S430.6 0 289.2 0zM289.2 32c22.47 0 44.15 3.41 64.63 9.596L290.7 91C283.5 95.75 279.4 104 279.9 112.5c.6055 8.5 5.691 16.12 13.32 20l10.78 5.375v64.25c-1.695-.625-3.512-.875-5.449-1c-7.145 0-14.41 3.625-18.29 9.875L262.6 240c-8.477 0-16.59 3.375-22.52 9.375L234.4 255C229.8 259.6 227.3 265.6 227.3 272s2.422 12.5 7.023 17l5.691 5.625V304H217.9L195.2 258.8C191.9 251.9 185.3 247 177.7 245.9C176.4 245.7 175.2 245.6 173.9 245.6c-6.227 0-12.5 2.48-17.02 6.941L137.4 272H66.04C65.67 266.7 65.23 261.4 65.23 256C65.23 132.5 165.7 32 289.2 32zM70.54 304h66.82c8.488 0 16.63-3.373 22.63-9.375l11.61-11.61l17.67 35.31C194.7 329.2 205.8 336 217.9 336h22.16c17.67 0 32-14.33 32-32V294.6c0-8.426-3.322-16.51-9.238-22.49c11.06-.0938 21.32-6.023 27.09-15.47l13.74-22.54c.1172 .002 .2344 .002 .3516 .002c6.459 0 12.86-1.955 18.3-5.75c8.584-5.982 13.7-15.79 13.7-26.25V137.9c0-11.9-6.6-22.8-17.1-28.32l69.33-54.2C462.2 91.99 513.2 168 513.2 256c0 26.31-4.797 51.47-13.17 74.94c-2.016-4.812-5.033-9.844-9.74-14.7l-5.275-5.229V308c0-19.85-16.15-36-35.1-36H443c-5.518 0-10.84 1.287-15.62 3.605C422.3 273.3 416.7 272 410.9 272h-12.11c-8.686 0-17 2.78-23.89 7.954l-22.36 15.9l-38.9 15.56c-15.43 6.369-25.2 20.92-25.2 37.21v10.12c0 10.9 4.502 21.44 12.35 28.92l11.31 11.33c9.154 9.072 21.15 14.01 33.9 14.01h10.41c6.611 0 9.584-.7617 22.1-3.967l7.92-2.021l11 10.93c8.311 8.236 19 12.88 30.36 13.71C389.6 461.8 341.6 480 289.2 480C182.2 480 92.59 404.5 70.54 304zM431.3 400c-4.238 0-8.234-1.75-11.26-4.75l-13.08-13c-5.09-5.062-11.88-7.789-18.9-7.789c-2.168-.002-4.357 .2578-6.527 .7891c-21.92 5.561-21.83 5.75-25.07 5.75h-10.41c-4.238 0-8.234-1.625-11.26-4.625l-11.87-11.88c-1.574-1.5-2.422-3.625-2.422-5.75v-10.12c0-3.25 2.059-6.25 5.086-7.5l39.36-15.75c1.938-.75 3.875-1.75 5.57-3l23.73-16.88C395.5 304.5 397.1 304 398.8 304h12.11c3.148 0 6.176 2 7.387 5l5.328 12.75c.6055 1.5 2.059 2.5 3.633 2.5h3.875c1.816 0 3.27-1.125 3.875-2.875l4.117-14.5C439.6 305.3 441.2 304 443 304h6.055c2.18 0 3.996 1.75 3.996 4v13c0 2.125 .8477 4.125 2.301 5.625l11.99 11.88c4.668 4.818 4.602 9.816 4.602 14.32c1.518 5.873 6.01 10.43 11.4 14.5C476.7 378.9 469.1 389.8 460.6 400H431.3z"/></svg>