<svg xmlns="http://www.w3.org/2000/svg" viewBox="0 0 576 512"><!--! Font Awesome Pro 6.0.0-alpha3 by @fontawesome - https://fontawesome.com License - https://fontawesome.com/license (Commercial License) --><path d="M288 0C146.6 0 32 114.6 32 256s114.6 256 256 256s256-114.6 256-256S429.4 0 288 0zM511.6 263.9l-51.91-13.15c-1.938-.5-3.633-1.625-4.723-3.375L436.9 220.5c-1.816-2.75-1.816-6.25 0-9l19.62-29.38c.7266-1.125 1.816-2 3.027-2.625l30.74-19.03C504.1 189.5 512 221.8 512 256C512 258.7 511.7 261.3 511.6 263.9zM64 256c0-12.45 1.279-24.58 3.242-36.48c12.02 13.67 23.89 27.29 26.5 30.94C99.67 259.2 106.7 267.3 114.6 274.2C125.7 284.3 137.4 292.4 150.2 298.9c13.65 6.863 33.87 17.84 48.29 25.85c5.205 2.857 8.355 8.201 8.355 14.02v32c0 12.74 5.139 25.14 14.1 34c12.56 12.53 18.83 31.66 18.02 37.87c-.1777 1.369-.2676 2.748-.2676 4.127v27.6C138.8 451.8 64 362.5 64 256zM270.7 479.1v-32.37c2.422-18.62-9.445-47-27.25-64.75c-2.906-2.875-4.602-7-4.602-11.25v-32c0-17.5-9.566-33.63-24.82-42c-14.41-8-35.12-19.25-49.29-26.38C154.7 265.3 145.2 258.8 135.8 250.3C129.8 245 124.6 239 120.1 232.4C116.2 226.6 96.72 204.5 76.83 181.1c24.75-70.38 83.58-124.6 156.7-143L296.1 96L281.1 111C272.1 120 271.8 134.5 280.2 144H274.4c-6.176 0-12.11 2.375-16.71 6.75L247.8 160.5c-7.508 7.25-9.445 18.5-4.723 27.88l3.996 8c-3.777-1.506-7.848-2.299-11.95-2.299c-3.391 0-6.803 .543-10.09 1.674L193.9 206.1c-11.38 3.75-19.13 14.5-19.13 26.5c0 10.62 5.934 20.25 15.5 25l11.02 5.5C212.1 268.5 223.9 271.5 235.9 272c2.422 2.25 6.297 7.5 8.719 10.88C256.1 298.4 258.5 299.6 267 304h70.48c4.238 0 8.355 1.75 11.26 4.75l13.8 13.62c2.664 2.75 4.238 6.375 4.238 10.25c0 8.125-3.27 16-9.082 21.62l-11.38 11.38c-11.1 11.46-9.967 20.83-14.53 33.25l-24.88 80.17C300.7 479.6 294.4 480 288 480C282.1 480 276.4 479.6 270.7 479.1zM342.3 473.1l19.87-64.01c1.611-4.527 2.709-8.74 3.727-12.81c1.615-6.473 1.754-6.615 3.443-8.361l11.02-11c11.6-11.22 18.46-27.48 18.46-44.26c0-12.14-4.707-23.69-13.25-32.52l-14.31-14.13C362.8 277.3 350.3 272 337.5 272h-60.83C275.5 270.6 273.5 268.1 270.3 263.8C265.1 256.6 261.3 251.9 257.7 248.6c-5.582-5.186-12.83-8.209-20.45-8.527C229.7 239.7 222.2 237.8 215.6 234.5l-2.23-1.113l21.8-7.268c3.842 1.531 7.861 2.273 11.84 2.273c8.795 0 17.41-3.619 23.6-10.35c8.984-9.773 11.04-24.08 5.105-35.96L274.3 179.3L277.7 176h2.564c12.61 0 24.05-7.408 29.21-18.92c4.105-9.168 3.617-19.58-.9922-28.19l10.27-10.26c6.189-6.182 9.576-14.63 9.377-23.37c-.2012-8.744-3.971-17.03-10.44-22.92l-43.5-39.65C278.8 32.42 283.3 32 288 32c77.89 0 146.5 40.01 186.7 100.5l-31.29 19.37c-5.615 3.195-10.35 7.627-13.75 12.9l-19.35 28.96c-8.973 13.58-8.971 30.96-.0898 44.41l18.18 27.07c4.797 7.744 13.28 13.94 23.29 16.52l56.52 14.31C492.5 382.7 426.9 451.9 342.3 473.1z"/></svg>