<svg xmlns="http://www.w3.org/2000/svg" viewBox="0 0 576 512"><!--! Font Awesome Pro 6.0.0-alpha3 by @fontawesome - https://fontawesome.com License - https://fontawesome.com/license (Commercial License) --><path d="M289.2 0c-141.4 0-256 114.6-256 256s114.6 256 256 256s256-114.6 256-256S430.6 0 289.2 0zM335.1 475V432c0-26.5-21.43-48-47.95-48H267.8c-3.875 0-13.08-3.125-16.23-5.375L229.4 361.9c-3.391-2.5-5.449-6.625-5.449-10.75v-23.88c0-4.75 2.543-9.125 6.539-11.62l42.87-25.75C275.5 288.6 277.9 288 280.3 288h31.24c3.148 0 6.297 1.25 8.84 3.25L372.5 336h30.15l17.32 17.25C429.6 362.8 442.2 368 455.5 368h27.45C451.6 421.9 398.7 461.7 335.1 475zM498.2 336h-42.62c-4.844 0-9.445-1.875-12.84-5.25l-17.32-17.38C419.4 307.4 411.3 304 402.8 304h-18.29l-43.23-37.13C333 259.8 322.6 256 311.7 256H280.5C272.3 256 264.1 258.3 257.1 262.5L214.3 288.3c-13.8 8.125-22.16 23-22.16 39v23.88c0 14.25 6.66 27.75 18.16 36.38l22.28 16.75C241.1 410.8 257.1 416 267.9 416h20.22c8.719 0 15.98 7.25 15.98 16v47.25C299.2 479.6 294.3 480 289.2 480c-123.5 0-224-100.5-224-224s100.5-224 224-224c1.59 0 3.129 .2051 4.711 .2383l-21.93 18.89C261.8 58.75 256 70.25 256 82.5v23.25c0 6.375 3.027 17 5.812 22.25C261.1 130.1 240.8 143 237.3 146.5c-8.598 8.625-13.32 20-13.32 32.13V195c0 25 20.46 45.38 45.41 45.38h25.31c11.02 0 21.19-3.875 29.18-10.62c3.996 1.5 8.234 2.125 12.71 2.125h13.32c25.67 0 32.21-20.12 36.09-21.5c5.086 9.125 13.56 16.25 23.49 19.5c-4.238 14.25-.8477 30.38 10.17 41.63l18.16 19.12c8.719 8.875 20.59 13.88 32.7 13.88h37.31C505.4 315.3 502.1 325.8 498.2 336zM470.7 272.4c-3.633 0-7.145-1.5-9.688-4L442.6 249c-3.875-3.875-3.754-10.12 .1211-14c12.59-12.62 10.41-8.625 10.41-17.75c0-2.5-.9687-5-2.785-6.75l-7.871-7.875c-1.816-1.875-4.238-2.875-6.66-2.875h-13.44c-8.477 0-12.59-10.25-6.66-16.12l7.871-7.375c1.816-1.75 4.117-2.75 6.66-2.75h8.355c5.207 0 9.445-4.25 9.445-9.5V153.8c0-5.125-4.238-9.5-9.445-9.5h-28.21c-7.387 0-13.44 6-13.44 13.5v5.5c0 5.875-3.633 11-9.203 12.75l-26.52 8.75c-4.238 1.5-4.602 5-4.602 8.25c0 3.75-2.906 6.75-6.66 6.75h-13.44c-3.633 0-6.66-3-6.66-6.75c0-4.678-3.893-6.82-7.812-6.82c-3.1-.002-6.215 1.338-7.445 3.82c-9.082 12.38-11.5 18.25-19.98 18.25H269.4c-7.387 0-13.32-6-13.32-13.5V178.4c0-3.625 1.332-7 3.875-9.5c19.5-14 29.55-17.62 29.55-31.5c0-2.875 1.816-5.5 4.602-6.375l33.66-11.25c1.332-.5 2.664-1.125 3.633-2.25l22.52-22.5c4.965-5 3.512-14.88-6.66-14.88H329.8L316.5 99v6.75c0 3.625-3.027 6.625-6.781 6.625h-15.02C291 112.4 288 109.4 288 105.8V82.5c0-2.125 .9687-4.125 2.664-5.375l45.92-39.98C437.4 58.95 513.2 148.7 513.2 256c0 5.527-.4336 10.95-.8301 16.38H470.7zM223.9 119.3c0-7-5.691-12.75-12.59-12.75c-3.391 0-6.781 1.25-9.082 3.75l-28.46 28.5C171.4 141.1 170.1 144.3 170.1 147.6c0 7 5.643 12.75 12.67 12.75h18.09c3.391 0 6.539-1.25 8.84-3.625l10.54-10.5c2.422-2.5 3.754-5.625 3.754-9V119.3z"/></svg>