<svg xmlns="http://www.w3.org/2000/svg" viewBox="0 0 512 512"><!--! Font Awesome Pro 6.0.0-alpha3 by @fontawesome - https://fontawesome.com License - https://fontawesome.com/license (Commercial License) --><path d="M256 192C220.7 192 192 220.7 192 256s28.65 64 64 64s64-28.65 64-64S291.3 192 256 192zM256 288C238.4 288 224 273.6 224 256s14.36-32 32-32s32 14.36 32 32S273.6 288 256 288zM448 192c-35.35 0-64 28.65-64 64s28.65 64 64 64s64-28.65 64-64S483.3 192 448 192zM448 288c-17.64 0-32-14.36-32-32s14.36-32 32-32s32 14.36 32 32S465.6 288 448 288zM64 192C28.65 192 0 220.7 0 256s28.65 64 64 64s64-28.65 64-64S99.35 192 64 192zM64 288C46.36 288 32 273.6 32 256s14.36-32 32-32s32 14.36 32 32S81.64 288 64 288z"/></svg>