<svg xmlns="http://www.w3.org/2000/svg" viewBox="0 0 640 512"><!--! Font Awesome Pro 6.0.0-alpha3 by @fontawesome - https://fontawesome.com License - https://fontawesome.com/license (Commercial License) --><path d="M287.1 304C296.8 304 304 296.8 304 288V192c0-8.844-7.188-16-16.03-16S272 183.2 272 192v96C272 296.8 279.1 304 287.1 304zM288 328c-13.25 0-24 10.75-24 24S274.7 376 288 376c13.26 0 24-10.75 24-24S301.3 328 288 328zM608 192h-32c-17.66 0-32 14.36-32 32v32h-32V208c0-4.859-2.219-9.453-6.001-12.5l-71.22-56.95C426.3 131.8 415.7 128 404.8 128H304V96H384c8.836 0 16-7.164 16-16C400 71.16 392.8 64 384 64H192C183.2 64 176 71.16 176 80C176 88.84 183.2 96 192 96h80v32h-160C85.53 128 64 149.5 64 176v64H32v-96C32 135.2 24.84 128 16 128S0 135.2 0 144v224C0 376.8 7.164 384 16 384S32 376.8 32 368v-96h32v64C64 362.5 85.53 384 112 384h41.38l49.94 49.94C212.3 442.9 224.6 448 237.3 448H464c26.47 0 48-21.53 48-48V384h32v32c0 17.64 14.34 32 32 32h32c17.66 0 32-14.36 32-32V224C640 206.4 625.7 192 608 192zM480 400c0 8.828-7.188 16-16 16H237.3c-4.219 0-8.344-1.703-11.31-4.688l-54.63-54.63C168.3 353.7 164.3 352 160 352H112C103.2 352 96 344.8 96 336v-160C96 167.2 103.2 160 112 160h292.8c3.625 0 7.156 1.234 9.969 3.516L480 215.7V400zM608 416h-32v-48c0-8.844-7.156-16-16-16H512V288h48C568.8 288 576 280.8 576 272V224h32V416z"/></svg>