<svg xmlns="http://www.w3.org/2000/svg" viewBox="0 0 384 512"><!--! Font Awesome Pro 6.0.0-alpha3 by @fontawesome - https://fontawesome.com License - https://fontawesome.com/license (Commercial License) --><path d="M335.6 455.6c1.891 8.653-3.562 17.18-12.2 19.06C306.1 478.3 290.4 480 273.9 480c-59.28 0-116.5-23.02-159.6-65.57c-27.06-26.76-46.27-59.13-56.85-94.44L32 319.1C23.16 319.1 16 312.8 16 303.1c0-8.84 7.156-15.99 16-15.99h18.55C49.03 277.5 47.1 266.8 47.1 256c0-10.82 1.033-21.46 2.549-31.98H32C23.16 224 16 216.8 16 208c0-8.84 7.156-15.96 16-15.96l25.49-.009c10.58-35.31 29.79-67.67 56.85-94.42c54.97-54.35 133.1-76.94 209.1-60.2c8.641 1.874 14.09 10.4 12.2 19.06c-1.906 8.622-10.45 13.96-19.05 12.18c-65.38-14.24-132.5 4.998-179.7 51.7C116 140.9 100.8 165.4 91.25 192h180.8c8.844 0 15.1 7.129 15.1 15.97c0 8.84-7.155 16.02-15.1 16.02H82.87c-1.773 10.49-2.871 21.14-2.871 31.99c0 10.84 1.098 21.5 2.871 31.99h189.1c8.844 0 15.1 7.143 15.1 15.98s-7.155 16-15.1 16H91.25c9.514 26.62 24.79 51.11 45.59 71.69c47.22 46.67 114.4 65.94 179.7 51.7C325.2 441.5 333.7 446.1 335.6 455.6z"/></svg>