<svg xmlns="http://www.w3.org/2000/svg" viewBox="0 0 512 512"><!--! Font Awesome Pro 6.0.0-alpha3 by @fontawesome - https://fontawesome.com License - https://fontawesome.com/license (Commercial License) --><path d="M276.9 344.4C298.6 335.3 311.9 321 311.9 308c0-19.25-28.7-41.5-71.45-44C236.7 263.6 233.1 266.4 232.3 270.3C231.4 274 233.4 277.9 236.1 279.4l16.95 7.25c12.96 5.5 20.71 13.5 20.71 21.5s-7.75 16-20.71 21.5l-16.95 7.125c-5.691 2.5-5.934 12.25 0 14.88l16.95 7.125c12.96 5.5 20.71 13.5 20.71 21.5s-7.75 16-20.71 21.5L236.1 409c-3.633 1.5-5.57 5.375-4.723 9.25c.8477 3.5 4.117 6.125 7.871 6.125h.4844c42.75-2.5 71.45-24.75 71.45-44C312.1 367.4 298.7 353.1 276.9 344.4zM335.1 184C322.7 184 312 194.7 312 208s10.71 24 23.96 24C349.3 232 360 221.3 360 208S349.3 184 335.1 184zM175.1 184C162.7 184 152 194.7 152 208s10.71 24 23.96 24C189.3 232 200 221.3 200 208S189.3 184 175.1 184zM256 0C114.6 0 0 114.6 0 256s114.6 256 256 256s256-114.6 256-256S397.4 0 256 0zM256 480c-123.5 0-224-100.5-224-224s100.5-224 224-224s224 100.5 224 224S379.5 480 256 480z"/></svg>