<svg xmlns="http://www.w3.org/2000/svg" viewBox="0 0 512 512"><!--! Font Awesome Pro 6.0.0-alpha3 by @fontawesome - https://fontawesome.com License - https://fontawesome.com/license (Commercial License) --><path d="M335.1 232C349.3 232 360 221.3 360 208s-10.71-24-24.04-24C322.7 184 312 194.7 312 208S322.7 232 335.1 232zM175.1 232C189.3 232 200 221.3 200 208S189.3 184 175.1 184C162.7 184 152 194.7 152 208S162.7 232 175.1 232zM346.2 325.7C323.8 352.6 290.9 367.9 256 367.9s-67.79-15.34-90.2-42.22c-5.691-6.75-15.76-7.594-22.54-1.969c-6.781 5.75-7.72 15.72-2.029 22.47C169.6 380.3 211.6 399.1 256 399.1s86.35-19.63 114.8-53.76c5.691-6.875 4.833-16.97-1.948-22.47C361.1 318.1 351.9 318.1 346.2 325.7zM256 0C114.6 0 0 114.6 0 256s114.6 256 256 256s256-114.6 256-256S397.4 0 256 0zM256 480c-123.5 0-224-100.5-224-224s100.5-224 224-224s224 100.5 224 224S379.5 480 256 480z"/></svg>