<svg xmlns="http://www.w3.org/2000/svg" viewBox="0 0 512 512"><!--! Font Awesome Pro 6.0.0-alpha3 by @fontawesome - https://fontawesome.com License - https://fontawesome.com/license (Commercial License) --><path d="M175.1 232C189.3 232 200 221.3 200 208S189.3 184 175.1 184C162.7 184 152 194.7 152 208S162.7 232 175.1 232zM335.1 232C349.3 232 360 221.3 360 208s-10.71-24-24.04-24C322.7 184 312 194.7 312 208S322.7 232 335.1 232zM256 288c-39.72 0-102.6 23.75-111.5 74.5C142.7 373.4 146.5 384.8 154.8 392s19.98 9.875 30.64 6.625C214.7 389.6 241.8 384 256 384s41.29 5.625 70.6 14.62C334.3 401 346.7 401.3 357.2 392c8.113-7.25 12.11-18.62 10.29-29.5C358.6 311.8 295.7 288 256 288zM256 352c-17.68 0-46.86 5.75-80.04 16C181.2 338.3 226.1 320 256 320s74.84 18.25 80.04 48C302.9 357.8 273.7 352 256 352zM256 0C114.6 0 0 114.6 0 256s114.6 256 256 256s256-114.6 256-256S397.4 0 256 0zM256 480c-123.5 0-224-100.5-224-224s100.5-224 224-224s224 100.5 224 224S379.5 480 256 480z"/></svg>