<svg xmlns="http://www.w3.org/2000/svg" viewBox="0 0 512 512"><!--! Font Awesome Pro 6.0.0-alpha3 by @fontawesome - https://fontawesome.com License - https://fontawesome.com/license (Commercial License) --><path d="M285.4 207.1c8.406 2.953 17.47-1.375 20.44-9.75C310.3 184.6 322.4 175.1 336 175.1s25.69 8.578 30.19 21.33c2.344 6.578 8.5 10.67 15.09 10.67c1.781 0 3.562-.2969 5.344-.9219c8.312-2.938 12.69-12.08 9.75-20.41C387.3 161.1 363.1 143.1 336 143.1s-51.34 17.14-60.38 42.67C272.7 194.1 277.1 204.1 285.4 207.1zM391 272H120.1c-9.566 0-17.07 8.375-15.86 18C113.1 361 174.5 416 247.1 416h16.04c73.38 0 134-55 142.9-126C408.1 280.4 400.6 272 391 272zM263.1 384H248c-50.25 0-93.48-33.25-107.4-80h230.8C357.5 350.8 314.2 384 263.1 384zM175.1 200C189.3 200 200 189.3 200 176S189.3 152 175.1 152C162.7 152 152 162.7 152 176S162.7 200 175.1 200zM256 0C114.6 0 0 114.6 0 256s114.6 256 256 256s256-114.6 256-256S397.4 0 256 0zM256 480c-123.5 0-224-100.5-224-224s100.5-224 224-224s224 100.5 224 224S379.5 480 256 480z"/></svg>