<svg xmlns="http://www.w3.org/2000/svg" viewBox="0 0 512 512"><!--! Font Awesome Pro 6.0.0-alpha3 by @fontawesome - https://fontawesome.com License - https://fontawesome.com/license (Commercial License) --><path d="M418.1 148l-35.36-5.125l-15.74-32.13c-9.566-18.75-36.33-18.88-45.89 0l-15.86 32.13L269.8 148C264.4 148.8 259.8 151.6 256 155.4C252.2 151.6 247.6 148.8 242.1 148L206.8 142.9L190.1 110.8c-9.445-18.75-36.33-18.88-45.89 0L129.3 142.9L93.86 148c-20.22 3-29.67 28.25-14.17 43.75l25.67 24.88l-6.055 35.63c-3.391 21.38 19.25 36.25 36.93 26.5l31.73-16.5L199.4 278.5c18.53 10.25 40.69-5.25 37.3-26.62L230.6 216.5L256 192l25.43 24.62l-6.176 35.63c-3.391 21.38 19.25 36.25 36.93 26.5l31.85-16.5l31.48 16.25c18.53 10.25 40.57-5.25 37.18-26.62l-6.055-35.38l25.91-25.12C447.4 176.5 438.9 151.1 418.1 148zM196.2 205.5l6.66 38.88L167.1 226.3l-34.88 18l6.66-38.88L111.3 177.8l39.23-5.625l17.44-35.5l17.56 35.5l39.23 5.625L196.2 205.5zM372.3 205.5l6.66 38.88l-34.88-18.12l-34.88 18l6.66-38.88l-28.58-27.62l39.23-5.625l17.56-35.5l17.44 35.5l39.23 5.625L372.3 205.5zM379.1 320.8C348.9 330.5 303.1 336 256 336s-92.86-5.499-123.1-15.25c-11.5-3.625-22.52 6.374-20.7 17.1C121.4 393.8 195.5 432 256 432s134.5-38.25 143.8-93.25C401.7 327.1 390.8 317.1 379.1 320.8zM256 399.9c-34.1 0-77.02-16.19-98.45-40.19c57.4 10.75 139.5 10.75 197 0C333 383.8 290.1 399.9 256 399.9zM256 0C114.6 0 0 114.6 0 256s114.6 256 256 256s256-114.6 256-256S397.4 0 256 0zM256 480c-123.5 0-224-100.5-224-224s100.5-224 224-224s224 100.5 224 224S379.5 480 256 480z"/></svg>