<svg xmlns="http://www.w3.org/2000/svg" viewBox="0 0 512 512"><!--! Font Awesome Pro 6.0.0-alpha3 by @fontawesome - https://fontawesome.com License - https://fontawesome.com/license (Commercial License) --><path d="M175.1 232C189.3 232 200 221.3 200 208S189.3 184 175.1 184C162.7 184 152 194.7 152 208S162.7 232 175.1 232zM335.1 232C349.3 232 360 221.3 360 208s-10.71-24-24.04-24C322.7 184 312 194.7 312 208S322.7 232 335.1 232zM379.2 304.8C348.9 314.5 303.1 320 256 320s-92.88-5.5-123.2-15.25c-5.207-1.625-11.02-.5-15.26 3.125c-4.238 3.75-6.176 9.25-5.328 14.88c9.203 55 83.13 93.23 143.8 93.23c60.55 0 134.6-38.23 143.8-93.23c.9687-5.5-1.09-11.12-5.207-14.88C390.3 304.3 384.4 303 379.2 304.8zM256 384c-34.1 0-77.02-16.25-98.45-40.25c57.4 10.75 139.5 10.75 197 0C333 367.8 290.1 384 256 384zM256 0C114.6 0 0 114.6 0 256s114.6 256 256 256s256-114.6 256-256S397.4 0 256 0zM256 480c-123.5 0-224-100.5-224-224s100.5-224 224-224s224 100.5 224 224S379.5 480 256 480z"/></svg>