<svg xmlns="http://www.w3.org/2000/svg" viewBox="0 0 512 512"><!--! Font Awesome Pro 6.0.0-alpha3 by @fontawesome - https://fontawesome.com License - https://fontawesome.com/license (Commercial License) --><path d="M368 288h-224c-17.67 0-32 14.33-32 32v32c0 17.67 14.33 32 32 32h224c17.67 0 32-14.33 32-32v-32C400 302.3 385.7 288 368 288zM176 352H144v-32h32L176 352zM240 352h-32v-32h32V352zM304 352h-32v-32h32V352zM368 352h-32.02L336 320h32V352zM335.1 232C349.3 232 360 221.3 360 208s-10.71-24-24.04-24C322.7 184 312 194.7 312 208S322.7 232 335.1 232zM175.1 232C189.3 232 200 221.3 200 208S189.3 184 175.1 184C162.7 184 152 194.7 152 208S162.7 232 175.1 232zM256 0C114.6 0 0 114.6 0 256s114.6 256 256 256s256-114.6 256-256S397.4 0 256 0zM256 480c-123.5 0-224-100.5-224-224s100.5-224 224-224s224 100.5 224 224S379.5 480 256 480z"/></svg>