<svg xmlns="http://www.w3.org/2000/svg" viewBox="0 0 512 512"><!--! Font Awesome Pro 6.0.0-alpha3 by @fontawesome - https://fontawesome.com License - https://fontawesome.com/license (Commercial License) --><path d="M135.1 211.9l9.445-17c7.75-13.62 19.25-21.62 31.48-21.62c12.35 0 23.86 8 31.48 21.62l9.566 17c4.117 7.375 15.62 4 14.89-4.5C228.7 165.3 199.7 136 175.1 136c-23.86 0-52.71 29.25-55.98 71.38C119.4 215.9 130.9 219.3 135.1 211.9zM295.1 211.9l9.476-17c7.629-13.62 19.13-21.62 31.48-21.62c12.23 0 23.83 8 31.58 21.62l9.445 17c4.117 7.375 15.62 4 14.89-4.5C388.7 165.3 359.7 136 336 136c-23.86 0-52.67 29.25-56.06 71.38C279.3 216 290.1 219.3 295.1 211.9zM391 272H120.1c-9.566 0-17.07 8.375-15.86 18C113.1 361 174.5 416 247.1 416h16.04c73.38 0 134-55 142.9-126C408.1 280.4 400.6 272 391 272zM263.1 384H248c-50.25 0-93.48-33.25-107.4-80h230.8C357.5 350.8 314.2 384 263.1 384zM256 0C114.6 0 0 114.6 0 256s114.6 256 256 256s256-114.6 256-256S397.4 0 256 0zM256 480c-123.5 0-224-100.5-224-224s100.5-224 224-224s224 100.5 224 224S379.5 480 256 480z"/></svg>