<svg xmlns="http://www.w3.org/2000/svg" viewBox="0 0 512 512"><!--! Font Awesome Pro 6.0.0-alpha3 by @fontawesome - https://fontawesome.com License - https://fontawesome.com/license (Commercial License) --><path d="M320.1 368H191.9c-8.719 0-15.99 7.25-15.99 16s7.266 16 15.98 16h128.1c8.719 0 15.98-7.25 15.98-16S328.8 368 320.1 368zM159.1 200C146.7 200 136 210.8 136 224s10.66 24 23.98 24S183.1 237.3 183.1 224S173.3 200 159.1 200zM240 224c0-44.25-35.86-80-80.05-80S80.03 179.8 80.03 224s35.73 80 79.93 80S240 268.3 240 224zM159.1 272C133.5 272 112 250.5 112 224s21.43-48 47.95-48S208 197.5 208 224S186.5 272 159.1 272zM352 144c-44.2 0-80.06 35.75-80.06 80s35.86 80 80.06 80s79.93-35.75 79.93-80S396.2 144 352 144zM352 272c-26.52 0-48.07-21.5-48.07-48s21.55-48 48.07-48s47.95 21.5 47.95 48S378.5 272 352 272zM352 200c-13.32 0-23.98 10.75-23.98 24s10.66 24 23.98 24S375.1 237.3 375.1 224S365.3 200 352 200zM256 0C114.6 0 0 114.6 0 256s114.6 256 256 256s256-114.6 256-256S397.4 0 256 0zM256 480c-123.5 0-224-100.5-224-224s100.5-224 224-224s224 100.5 224 224S379.5 480 256 480z"/></svg>