<svg xmlns="http://www.w3.org/2000/svg" viewBox="0 0 512 512"><!--! Font Awesome Pro 6.0.0-alpha3 by @fontawesome - https://fontawesome.com License - https://fontawesome.com/license (Commercial License) --><path d="M175.1 232C189.3 232 200 221.3 200 208S189.3 184 175.1 184C162.7 184 152 194.7 152 208S162.7 232 175.1 232zM256 320c-44.44 0-86.23 19.59-114.8 53.72c-5.691 6.875-4.833 17.03 1.948 22.53C150 402 160.2 401.1 165.8 394.2C188.2 367.5 221.1 352 255.1 352s67.78 15.47 90.19 42.22c5.328 6.5 15.32 8.031 22.46 2.031c6.781-5.625 7.717-15.72 2.026-22.47C342.3 339.7 300.4 320 256 320zM335.1 232C349.3 232 360 221.3 360 208s-10.71-24-24.04-24C322.7 184 312 194.7 312 208S322.7 232 335.1 232zM256 0C114.6 0 0 114.6 0 256s114.6 256 256 256s256-114.6 256-256S397.4 0 256 0zM256 480c-123.5 0-224-100.5-224-224s100.5-224 224-224s224 100.5 224 224S379.5 480 256 480z"/></svg>