<svg xmlns="http://www.w3.org/2000/svg" viewBox="0 0 512 512"><!--! Font Awesome Pro 6.0.0-alpha3 by @fontawesome - https://fontawesome.com License - https://fontawesome.com/license (Commercial License) --><path d="M456 160C486.9 160 512 132.8 512 99.38c0-22.89-26.67-67.52-42.56-92.08C466.5 2.75 461.4 0 456 0s-10.48 2.734-13.44 7.281C426.7 31.75 400 76.27 400 99.38C400 132.8 425.1 160 456 160zM455.1 46.38C473.3 75.78 480 94.06 480 99.38C480 114.9 469 128 456 128c-13.23 0-24-12.84-24-28.62C432 94 438.7 75.67 455.1 46.38zM336 152c-23.86 0-52.64 29.25-55.91 71.38c-.2422 3.75 2.034 7.25 5.546 8.375c3.391 1 7.459-.575 9.397-3.825l9.494-17c7.629-13.75 19.13-21.62 31.48-21.62c12.23 0 23.81 7.875 31.56 21.62l9.446 17c2.18 3.75 6.103 4.825 9.252 3.825c3.633-1.125 6.055-4.5 5.691-8.375C388.7 181.3 359.8 152 336 152zM135.1 227.9l9.445-17c7.75-13.75 19.25-21.62 31.48-21.62c12.35 0 23.86 7.875 31.48 21.62l9.566 17C219.1 231.7 223.2 232.8 226.3 231.8c3.512-1.125 5.934-4.5 5.691-8.375C228.8 181.3 199.8 152 175.1 152c-23.73 0-52.54 29.25-55.81 71.38C119.8 227.1 122.1 230.6 125.7 231.8C129.1 232.8 133.2 231.2 135.1 227.9zM379.2 304.8C348.9 314.5 303.1 320 256 320S163.1 314.5 132.8 304.8c-5.207-1.625-11.02-.5-15.26 3.125c-4.238 3.75-6.176 9.25-5.328 14.88c9.203 55 83.13 93.26 143.8 93.26c60.55 0 134.6-38.26 143.8-93.26c.9687-5.5-1.09-11.12-5.207-14.88C390.3 304.3 384.4 303 379.2 304.8zM256 384c-34.1 0-77.02-16.25-98.45-40.25c57.4 10.75 139.5 10.75 197 0C333 367.8 290.1 384 256 384zM483.1 176.6c-8.516 2.344-13.52 11.16-11.16 19.69C477.3 215.6 480 235.7 480 256c0 123.5-100.5 224-224 224s-224-100.5-224-224s100.5-224 224-224c36.44 0 72.58 8.938 104.5 25.83c7.859 4.172 17.5 1.156 21.62-6.656c4.141-7.812 1.156-17.5-6.656-21.62C338.9 10.22 297.6 0 256 0C114.8 0 0 114.8 0 256s114.8 256 256 256s256-114.8 256-256c0-23.17-3.094-46.14-9.203-68.27C500.5 179.2 491.7 174.3 483.1 176.6z"/></svg>