<svg xmlns="http://www.w3.org/2000/svg" viewBox="0 0 512 512"><!--! Font Awesome Pro 6.0.0-alpha3 by @fontawesome - https://fontawesome.com License - https://fontawesome.com/license (Commercial License) --><path d="M160.4 339.1c5.955 1.979 12.23 .2754 16.38-3.879c1.701-1.701 3.039-3.811 3.857-6.242l22.62-67.88c1.91-5.758 .3906-12.1-3.896-16.39S188.8 238.9 183.1 240.8L115.2 263.4C106.8 266.2 102.3 275.3 105.1 283.7c2.795 8.385 11.85 12.92 20.24 10.12l37.52-12.51L150.3 318.8C147.5 327.2 152.1 336.3 160.4 339.1zM383.1 144c.8125 0 1.656-.0625 2.469-.1875c32.56-5.109 89.78-16.27 107.3-33.75c24.75-24.73 24.28-65.45-1.031-90.75C480.5 7.047 464.2 .1875 446.4 0c-16.87 0-32.65 6.492-44.44 18.29c0 0 0-.0156 0 0c-17.44 17.47-28.62 74.68-33.75 107.2c-.7813 5.047 .875 10.19 4.5 13.8C375.7 142.3 379.8 144 383.1 144zM424.6 40.89C430.3 35.16 438.1 32 446.6 32c8.812 .0938 17.16 3.625 23.47 9.938c12.81 12.83 13.28 33.23 1.062 45.47c-3.312 3.125-21.59 12.22-67.53 20.97C412.4 62.5 421.5 44.2 424.6 40.89zM125.5 368.2c-32.56 5.109-89.78 16.27-107.3 33.75c-24.75 24.73-24.28 65.45 1.031 90.75C31.54 504.1 47.79 511.8 65.63 512c16.87 0 32.65-6.492 44.44-18.29c0 0 0 .0156 0 0c17.44-17.47 28.62-74.68 33.75-107.2c.7813-5.047-.875-10.19-4.5-13.8S130.6 367.4 125.5 368.2zM87.41 471.1C81.66 476.8 73.95 480 65.38 480c-8.812-.0938-17.16-3.625-23.47-9.938c-12.81-12.83-13.28-33.23-1.062-45.47c3.312-3.125 21.59-12.22 67.53-20.97C99.6 449.5 90.54 467.8 87.41 471.1zM369.2 369.1c42.81-42.81 68.08-122.3 35.7-167.7c-3.205-4.574-8.637-7.096-14.2-6.836c-5.645 .5195-10.72 3.832-13.17 8.75c-14.51 28.3-42.39 63.96-76.29 97.87c-33.9 33.91-69.56 61.79-97.86 76.3c-4.83 2.533-8.23 7.523-8.578 12.1c-.3457 5.648 2.174 10.91 6.75 14.29C246.1 437.2 326.3 412 369.2 369.1zM387.7 248.3c1.729 32.21-16.49 73.42-41.24 98.16c-24.75 24.75-65.95 42.97-98.07 41.15C296.6 354.7 354.7 296.6 387.7 248.3zM283.7 105.1c-8.395-2.785-17.42 1.756-20.24 10.12L240.8 183.1C238.9 188.8 240.4 195.1 244.7 199.4c4.287 4.287 10.63 5.802 16.39 3.892l67.88-22.63c2.43-.8164 4.541-2.154 6.242-3.855c4.154-4.154 5.855-10.43 3.877-16.38c-2.795-8.387-11.86-12.92-20.24-10.12l-37.52 12.51l12.51-37.52C296.6 116.9 292.1 107.8 283.7 105.1zM35.97 368c2.156 0 4.312-.4219 6.406-1.344c8.094-3.531 11.78-12.97 8.25-21.06C38.28 317.3 32 287.2 32 256c0-123.5 100.5-224 224-224c31.16 0 61.28 6.266 89.59 18.62c8.094 3.594 17.53-.1094 21.06-8.25c3.531-8.094-.1562-17.53-8.25-21.06C326 7.172 291.6 0 256 0C114.8 0 0 114.8 0 256c0 35.59 7.156 70.05 21.31 102.4C23.94 364.4 29.81 368 35.97 368zM490.7 153.6c-3.531-8.094-12.97-11.78-21.06-8.25s-11.78 12.97-8.25 21.06C473.7 194.7 480 224.8 480 256c0 123.5-100.5 224-224 224c-31.16 0-61.28-6.266-89.59-18.62c-8.062-3.516-17.5 .125-21.06 8.25c-3.531 8.094 .1562 17.53 8.25 21.06C185.1 504.8 220.4 512 256 512c141.2 0 256-114.8 256-256C512 220.4 504.8 185.1 490.7 153.6z"/></svg>