<svg xmlns="http://www.w3.org/2000/svg" viewBox="0 0 640 512"><!--! Font Awesome Pro 6.0.0-alpha3 by @fontawesome - https://fontawesome.com License - https://fontawesome.com/license (Commercial License) --><path d="M624 80h-64v-64C560 7.156 552.8 0 544 0s-16 7.156-16 16v64h-64c-8.844 0-16 7.156-16 15.1S455.2 112 464 112h64v64C528 184.8 535.2 192 544 192s16-7.156 16-16v-64h64c8.844 0 16-7.156 16-15.1S632.8 80 624 80zM224 64C100.3 64 0 164.3 0 288c0 123.7 100.3 224 224 224s224-100.3 224-224C448 164.3 347.7 64 224 64zM224 480c-105.9 0-192-86.13-192-192s86.13-192 192-192s192 86.13 192 192S329.9 480 224 480zM144 264c13.25 0 24-10.75 24-24c0-13.26-10.75-24-24-24S120 226.7 120 240C120 253.3 130.7 264 144 264zM304 264c13.25 0 24-10.75 24-24c0-13.26-10.75-24-24-24S280 226.7 280 240C280 253.3 290.7 264 304 264zM341.7 321c-8.188-3.156-17.5 .9844-20.66 9.25C304.9 372.6 266.8 400 224 400s-80.88-27.36-97.06-69.7c-3.156-8.266-12.41-12.42-20.66-9.25c-8.25 3.156-12.38 12.41-9.219 20.66C117.1 396.6 167.8 432 224 432s105.1-35.44 126.9-90.3C354.1 333.5 349.1 324.2 341.7 321z"/></svg>