<svg xmlns="http://www.w3.org/2000/svg" viewBox="0 0 512 512"><!--! Font Awesome Pro 6.0.0-alpha3 by @fontawesome - https://fontawesome.com License - https://fontawesome.com/license (Commercial License) --><path d="M379.2 304.8C348.9 314.5 303.1 320 256 320S163.1 314.5 132.8 304.8c-5.207-1.625-11.14-.5-15.26 3.125c-4.238 3.75-6.176 9.25-5.328 14.88C121.5 377.8 195.4 416 256.1 416c60.55 0 134.6-38.25 143.8-93.25c.9687-5.5-1.09-11.12-5.207-14.88C390.3 304.3 384.4 303 379.2 304.8zM256 384c-34.1 0-77.02-16.25-98.45-40.25c57.4 10.75 139.5 10.75 197 0C333 367.8 290.1 384 256 384zM129.7 247.2C132.5 252.8 138.1 256 144 256c2.406 0 4.844-.5469 7.141-1.688l64-32C220.6 219.6 223.1 214.1 223.1 207.1S220.6 196.4 215.2 193.7l-64-32C143.3 157.8 133.6 160.9 129.7 168.8S128.9 186.4 136.8 190.3L172.2 208L136.8 225.7C128.9 229.6 125.7 239.3 129.7 247.2zM296.8 222.3l64 32C363.1 255.5 365.6 256 367.1 256c5.875 0 11.52-3.234 14.33-8.844c3.953-7.906 .75-17.52-7.156-21.47L339.8 208l35.38-17.69c7.906-3.953 11.11-13.56 7.156-21.47c-3.969-7.906-13.56-11.08-21.47-7.156l-64 32c-5.422 2.719-8.846 8.238-8.846 14.3S291.4 219.6 296.8 222.3zM256 0C114.6 0 0 114.6 0 256s114.6 256 256 256s256-114.6 256-256S397.4 0 256 0zM256 480c-123.5 0-224-100.5-224-224s100.5-224 224-224s224 100.5 224 224S379.5 480 256 480z"/></svg>