<svg xmlns="http://www.w3.org/2000/svg" viewBox="0 0 512 512"><!--! Font Awesome Pro 6.0.0-alpha3 by @fontawesome - https://fontawesome.com License - https://fontawesome.com/license (Commercial License) --><path d="M311.9 308c0-19.25-28.7-41.5-71.45-44C236.7 263.6 233.1 266.4 232.3 270.3C231.4 274 233.4 277.9 236.1 279.4l16.95 7.25c12.96 5.5 20.71 13.5 20.71 21.5s-7.75 16-20.71 21.5l-16.95 7.125c-5.691 2.5-5.934 12.25 0 14.88l16.95 7.125c12.96 5.5 20.71 13.5 20.71 21.5s-7.75 16-20.71 21.5L236.1 409c-3.633 1.5-5.57 5.375-4.723 9.25c.8477 3.5 4.117 6.125 7.871 6.125h.4844c42.75-2.5 71.45-24.75 71.45-44c0-13-13.32-27.25-35.12-36C298.6 335.3 311.9 321 311.9 308zM152 208c0 13.31 10.71 24 23.96 24C189.3 232 200 221.3 200 208S189.3 184 175.1 184C162.7 184 152 194.7 152 208zM448.9 370.7c-9.875-23.58-34.17-37.89-59.42-34.06c-15.25 2.375-28.73 11.06-36.98 23.84c-8.234 12.73-10.64 28.47-6.594 43.2l20.7 74.52c3.484 10.91 13.42 17.88 24.02 17.88c2.125 0 4.297-.2813 6.438-.875l74.58-19.14c14.94-3.891 27.53-13.92 34.48-27.5c6.906-13.45 7.688-29.39 2.203-43.59C498.6 379.2 471.9 368.1 448.9 370.7zM477.7 433.1c-2.844 5.531-7.828 9.469-14.03 11.09l-68.16 17.5l-18.72-67.42c-1.641-5.984-.7187-12.14 2.625-17.3c3.359-5.203 8.703-8.609 15.02-9.594C395.5 368.1 396.7 368 397.8 368c11.16 0 20.16 8.781 22.78 18.28l6.344 22.58l22.84-5.859c8.969-2.344 23.83 .3438 28.75 13.38C480.8 422.3 480.5 428.5 477.7 433.1zM366.2 229.3c2.344 6.578 8.5 10.67 15.09 10.67c1.781 0 3.562-.2969 5.344-.9219c8.312-2.938 12.69-12.08 9.75-20.41C387.3 193.1 363.1 175.1 336 175.1s-51.34 17.14-60.38 42.67c-2.938 8.328 1.438 17.47 9.75 20.41c8.406 2.953 17.47-1.375 20.44-9.75C310.3 216.6 322.4 207.1 336 207.1S361.7 216.6 366.2 229.3zM315.7 471.1C296.4 477.3 276.3 480 256 480c-123.5 0-224-100.5-224-224s100.5-224 224-224s224 100.5 224 224c0 24.77-4 49.08-11.91 72.27c-2.859 8.359 1.609 17.45 9.984 20.3c8.359 2.922 17.48-1.625 20.3-9.984C507.4 312.1 512 284.3 512 256c0-141.2-114.8-256-256-256S0 114.8 0 256s114.8 256 256 256c23.17 0 46.14-3.094 68.27-9.203c8.516-2.344 13.52-11.16 11.16-19.69C333.1 474.6 324.3 469.7 315.7 471.1z"/></svg>