<svg xmlns="http://www.w3.org/2000/svg" viewBox="0 0 512 512"><!--! Font Awesome Pro 6.0.0-alpha3 by @fontawesome - https://fontawesome.com License - https://fontawesome.com/license (Commercial License) --><path d="M346.2 325.8C323.8 352.6 290.9 367.9 256 367.9s-67.81-15.29-90.21-42.17c-5.691-6.75-15.74-7.625-22.52-2c-6.781 5.75-7.71 15.75-2.018 22.5C169.6 380.4 211.6 399.1 256 399.1s86.34-19.6 114.8-53.73c5.691-6.875 4.844-17-1.938-22.5C361.1 318.1 351.9 319 346.2 325.8zM176 189.3c12.35 0 23.86 7.875 31.48 21.62l9.566 17C219.1 231.7 223.2 232.8 226.3 231.8c3.512-1.125 5.934-4.5 5.691-8.375C228.8 181.3 199.8 152 175.1 152c-23.73 0-52.68 29.25-55.95 71.38C119.6 227.1 122.1 230.6 125.7 231.8c3.391 1 7.459-.575 9.397-3.825l9.445-17C152.3 197.2 163.8 189.3 176 189.3zM336 152c-23.86 0-52.72 29.25-55.99 71.38c-.2422 3.75 2.107 7.25 5.619 8.375c3.391 1 7.387-.575 9.324-3.825l9.566-17c7.629-13.75 19.13-21.62 31.48-21.62c12.23 0 23.73 7.875 31.48 21.62l9.445 17c2.18 3.75 6.176 4.825 9.324 3.825c3.633-1.125 6.127-4.5 5.764-8.375C388.8 181.3 359.8 152 336 152zM256 0C114.6 0 0 114.6 0 256s114.6 256 256 256s256-114.6 256-256S397.4 0 256 0zM256 480c-123.5 0-224-100.5-224-224s100.5-224 224-224s224 100.5 224 224S379.5 480 256 480z"/></svg>