<svg xmlns="http://www.w3.org/2000/svg" viewBox="0 0 512 512"><!--! Font Awesome Pro 6.0.0-alpha3 by @fontawesome - https://fontawesome.com License - https://fontawesome.com/license (Commercial License) --><path d="M255.1 288c-26.89 0-47.97 28.11-47.97 64s21.08 64 47.97 64s47.97-28.11 47.97-64S282.9 288 255.1 288zM255.9 384c-6.359 0-15.97-12.77-15.97-32s9.609-32 15.97-32s15.97 12.77 15.97 32S262.3 384 255.9 384zM213.3 223.1C221.6 220.1 226 211 223.1 202.7C214.1 177.1 189.8 160 162.7 160S111.4 177.1 102.3 202.7C99.4 211 103.8 220.1 112.1 223.1C120.5 226 129.6 221.7 132.5 213.3C137 200.6 149.1 192 162.7 192s25.69 8.578 30.19 21.33C195.2 219.9 201.4 224 207.1 224C209.8 224 211.6 223.7 213.3 223.1zM415.1 202.7C406.1 177.1 381.8 160 354.7 160s-51.34 17.14-60.38 42.67c-2.938 8.328 1.438 17.47 9.75 20.41c8.406 2.953 17.47-1.375 20.44-9.75c4.5-12.75 16.62-21.33 30.19-21.33s25.69 8.578 30.19 21.33c2.344 6.578 8.5 10.67 15.09 10.67c1.781 0 3.562-.2969 5.344-.9219C413.6 220.1 418 211 415.1 202.7zM256 0C114.8 0 0 114.8 0 256s114.8 256 256 256s256-114.8 256-256S397.2 0 256 0zM368 449.7V256c0-8.844-7.156-16-16-16S336 247.2 336 256v208.1C311.1 474.5 284.2 480 256 480s-55.11-5.465-80-15.03V256c0-8.844-7.156-16-16-16S144 247.2 144 256v193.7C77.16 410.9 32 338.7 32 256c0-123.5 100.5-224 224-224s224 100.5 224 224C480 338.7 434.8 410.9 368 449.7z"/></svg>