<svg xmlns="http://www.w3.org/2000/svg" viewBox="0 0 512 512"><!--! Font Awesome Pro 6.0.0-alpha3 by @fontawesome - https://fontawesome.com License - https://fontawesome.com/license (Commercial License) --><path d="M227.3 243.3c6.176-6.125 6.176-16.38 0-22.5L198.6 192l28.7-28.75c6.176-6.125 6.176-16.38 0-22.5c-6.176-6.25-16.35-6.25-22.64 0L175.1 169.4L147.3 140.8c-6.176-6.25-16.35-6.25-22.52 0c-6.176 6.125-6.176 16.38 0 22.5L153.4 192L124.7 220.8c-6.176 6.125-6.176 16.38 0 22.5c6.176 6.25 16.35 6.375 22.52 0l28.7-28.62l28.7 28.62C210.1 249.6 221.1 249.6 227.3 243.3zM256 288c-35.36 0-64.04 28.75-64.04 64S220.6 416 256 416s64.04-28.75 64.04-64S291.4 288 256 288zM256 384c-17.56 0-31.97-14.38-31.97-32S238.4 320 256 320s31.97 14.38 31.97 32S273.6 384 256 384zM387.3 140.8c-6.176-6.25-16.35-6.25-22.52 0l-28.7 28.62l-28.7-28.62c-6.297-6.25-16.47-6.25-22.64 0c-6.176 6.125-6.176 16.38 0 22.5L313.4 192l-28.7 28.75c-6.176 6.125-6.176 16.38 0 22.5c6.176 6.25 16.35 6.375 22.64 0l28.7-28.62l28.7 28.62c6.176 6.25 16.35 6.375 22.52 0c6.176-6.125 6.176-16.38 0-22.5L358.6 192l28.7-28.75C393.6 157.1 393.6 146.9 387.3 140.8zM256 0C114.6 0 0 114.6 0 256s114.6 256 256 256s256-114.6 256-256S397.4 0 256 0zM256 480c-123.5 0-224-100.5-224-224s100.5-224 224-224s224 100.5 224 224S379.5 480 256 480z"/></svg>