<svg xmlns="http://www.w3.org/2000/svg" viewBox="0 0 512 512"><!--! Font Awesome Pro 6.0.0-alpha3 by @fontawesome - https://fontawesome.com License - https://fontawesome.com/license (Commercial License) --><path d="M200 335.2c0-13.28-10.71-23.94-24.04-23.94c-13.25 0-23.96 10.66-23.96 23.94s10.71 23.94 23.96 23.94C189.3 359.1 200 348.5 200 335.2zM128 175.9h31.62C159.8 175.9 159.9 176 160 176h15.69C184.2 176.2 192 182.8 192 191.5c0 5.203-2.34 6.475-2.34 12.04c0 9.498 7.977 14.63 15.67 14.63C222.4 218.2 224 198.6 224 191.5C224 185.7 222.8 180.7 221.2 176H240C248.8 176 256 168.8 256 160S248.8 144 240 144H129.4C116.1 144 95.1 134.3 95.1 111.7c0-17.6 14.36-31.93 32-31.93c18.68 0 19.43 11.79 30.18 11.79c2.16 0 17.88-1.064 17.88-18.31c0-.4941-.0195-.9824-.0605-1.463c0-22.01 17.94-39.91 40-39.91c24.38 0 26.21 16.66 40 16.66c13.74 0 15.63-16.66 40-16.66c15.42 0 39.94 11.17 39.94 41.37c0 17.24 15.72 18.31 17.88 18.31c10.75 0 11.51-11.79 30.18-11.79c17.64 0 32 14.33 32 31.93C416 134.4 395.1 144 382.6 144H338.3C319.4 144 288 157.4 288 191.5c0 7.031 1.643 26.67 18.67 26.67c7.707 0 15.67-5.146 15.67-14.63C322.3 198 320 196.8 320 191.5c0-8.842 8.02-15.62 16.71-15.62H384c35.3 0 64-28.98 64-64.19c0-44.94-39.12-63.85-64-63.85c-6.547 0-13 1.014-19.14 2.963C355.8 21.45 328.4 0 296 0C281.5 0 267.8 4.24 256 12.13C244.3 4.24 230.5 0 216 0C183.6 0 156.2 21.45 147.1 50.85C141 48.9 134.5 47.88 128 47.88c-9.766 0-19.74 2.254-29.19 7.021C92.26 58.21 64 74.8 64 111.7C64 146.9 92.7 175.9 128 175.9zM256 351.2c-35.3 0-64 28.63-64 63.85c0 17.6 14.36 31.93 32 31.93h64c17.64 0 32-14.33 32-31.93C320 379.8 291.3 351.2 256 351.2zM288 430.1l.0104-15.96H224c0-17.6 14.36-31.92 32-31.92s32.01 14.31 32.01 31.92c0 0-.0156 0 0 0L288 430.1zM511.9 254.4C511.9 254.4 511.1 254.5 511.9 254.4l-16.06 9.098C490.1 266.3 485.5 267.7 480 267.7s-10.96-1.4-15.88-4.205L431.9 245.2C429.5 243.8 426.7 243.1 424 243.1c-2.738 0-5.479 .6992-7.938 2.102l-32.19 18.35C378.1 266.3 373.5 267.7 368 267.7s-10.96-1.402-15.88-4.207L319.9 245.2C317.5 243.8 314.7 243.1 312 243.1c-2.738 0-5.479 .6992-7.938 2.102l-32.19 18.35C266.1 266.3 261.5 267.7 256 267.7S245 266.3 240.1 263.5L207.9 245.2C205.5 243.8 202.7 243.1 200 243.1c-2.738 0-5.479 .6992-7.938 2.102L159.9 263.5C154.1 266.3 149.5 267.7 144 267.7S133 266.3 128.1 263.5L95.94 245.2C93.48 243.8 90.74 243.1 88 243.1c-2.738 0-5.479 .6992-7.938 2.102L47.88 263.5C42.96 266.3 37.48 267.7 32 267.7S21.04 266.3 16.13 263.5L.0605 254.4c-.0547 .0313 .0547-.0332 0 0C.0547 255.1 0 255.9 0 256.6C0 397.7 114.6 512 256 512c141.4 0 256-114.3 256-255.4C512 255.9 511.9 255.1 511.9 254.4zM256 480.1c-110.1 0-200.2-78.75-219.9-180.6c9.703-.623 19.19-3.453 27.66-8.279L88 277.4l24.25 13.82C121.9 296.7 132.9 299.6 144 299.6s22.1-2.908 31.75-8.41L200 277.4l24.25 13.82C233.9 296.7 244.9 299.6 256 299.6s22.1-2.908 31.75-8.41L312 277.4l24.25 13.82C345.9 296.7 356.9 299.6 368 299.6s22.1-2.908 31.75-8.41L424 277.4l24.25 13.83c8.465 4.824 17.95 7.654 27.65 8.277C456.2 401.2 366.2 480.1 256 480.1zM336 311.3c-13.34 0-24.04 10.66-24.04 23.94s10.71 23.94 24.04 23.94c13.25 0 23.96-10.66 23.96-23.94S349.3 311.3 336 311.3z"/></svg>