<svg xmlns="http://www.w3.org/2000/svg" viewBox="0 0 512 512"><!--! Font Awesome Pro 6.0.0-alpha3 by @fontawesome - https://fontawesome.com License - https://fontawesome.com/license (Commercial License) --><path d="M391 272H120.1c-9.566 0-17.07 8.375-15.86 18C113.1 361 174.5 416 247.1 416h16.04c73.38 0 134-55 142.9-126C408.1 280.4 400.6 272 391 272zM263.1 384H248c-50.25 0-93.48-33.25-107.4-80h230.8C357.5 350.8 314.2 384 263.1 384zM296.8 190.3l64 32C363.1 223.5 365.6 224 367.1 224c5.875 0 11.52-3.234 14.33-8.844c3.953-7.906 .75-17.52-7.156-21.47L339.8 176l35.38-17.69c7.906-3.953 11.11-13.56 7.156-21.47c-3.969-7.906-13.56-11.08-21.47-7.156l-64 32c-5.422 2.719-8.842 8.242-8.842 14.3S291.4 187.6 296.8 190.3zM129.7 215.2C132.5 220.8 138.1 224 144 224c2.406 0 4.844-.5469 7.141-1.688l64-32C220.6 187.6 224 182.1 224 175.1S220.6 164.4 215.2 161.7l-64-32C143.3 125.8 133.6 128.9 129.7 136.8S128.9 154.4 136.8 158.3L172.2 176L136.8 193.7C128.9 197.6 125.7 207.3 129.7 215.2zM256 0C114.6 0 0 114.6 0 256s114.6 256 256 256s256-114.6 256-256S397.4 0 256 0zM256 480c-123.5 0-224-100.5-224-224s100.5-224 224-224s224 100.5 224 224S379.5 480 256 480z"/></svg>