<svg xmlns="http://www.w3.org/2000/svg" viewBox="0 0 512 512"><!--! Font Awesome Pro 6.0.0-alpha3 by @fontawesome - https://fontawesome.com License - https://fontawesome.com/license (Commercial License) --><path d="M175.1 232C189.3 232 200 221.3 200 208S189.3 184 175.1 184C162.7 184 152 194.7 152 208S162.7 232 175.1 232zM290.3 320H272c-8.844 0-16 7.156-16 16s7.156 16 16 16h18.33c27.75 0 53.22 10.05 64.88 25.59C358.3 381.8 363.1 384 368 384c3.344 0 6.703-1.047 9.578-3.203c7.078-5.297 8.516-15.33 3.203-22.39C363 334.7 328.4 320 290.3 320zM184 256C178.6 256 173.5 258.7 170.6 263.3C154.7 287.8 128 332.3 128 355.4C128 388.8 153.1 416 184 416s56-27.2 56-60.63c0-22.89-26.67-67.52-42.56-92.08C194.5 258.8 189.4 256 184 256zM184 384C170.8 384 160 371.2 160 355.4c0-5.375 6.734-23.7 23.98-53C201.3 331.8 208 350.1 208 355.4C208 370.9 197 384 184 384zM335.1 232C349.3 232 360 221.3 360 208s-10.71-24-24.04-24C322.7 184 312 194.7 312 208S322.7 232 335.1 232zM256 0C114.6 0 0 114.6 0 256s114.6 256 256 256s256-114.6 256-256S397.4 0 256 0zM256 480c-123.5 0-224-100.5-224-224s100.5-224 224-224s224 100.5 224 224S379.5 480 256 480z"/></svg>