<svg xmlns="http://www.w3.org/2000/svg" viewBox="0 0 512 512"><!--! Font Awesome Pro 6.0.0-alpha3 by @fontawesome - https://fontawesome.com License - https://fontawesome.com/license (Commercial License) --><path d="M306.2 369.9c-2.418 0-4.883 .293-7.361 .9102l-42.86 10.68l-42.3-10.61c-2.49-.625-4.975-.9219-7.406-.9219C190.1 369.1 176.2 383 176.2 400v32.26C176.2 476.3 211.9 512 256.1 512c44.18 0 80.14-35.7 80.14-79.74v-32.32C336.2 382.1 322.3 369.9 306.2 369.9zM304.2 432.3C304.2 458.6 282.7 480 256.2 480s-48-21.42-48-47.74v-29.73L240 410.5V424c0 8.844 7.156 16 16 16s16-7.156 16-16v-13.51l32.21-8.025V432.3zM362.9 383.2C364.6 383.7 366.3 384 368 384c6.688 0 12.94-4.234 15.19-10.94l16-48c1.844-5.547 .5313-11.66-3.438-15.94c-3.938-4.266-9.906-6.094-15.62-4.641c-81.19 20.28-167.1 20.28-248.3 0C126.2 303 120.2 304.9 116.3 309.1c-3.969 4.281-5.281 10.39-3.438 15.94l16 48c2.844 8.406 11.91 12.91 20.25 10.11c8.375-2.781 12.91-11.84 10.12-20.23l-7.062-21.2c68.44 13.28 139.3 13.28 207.8 0l-7.062 21.2C350 371.3 354.6 380.4 362.9 383.2zM360 208c0-13.31-10.71-24-24.04-24C322.7 184 312 194.7 312 208s10.71 24 23.96 24C349.3 232 360 221.3 360 208zM200 208c0-13.31-10.71-24-24.04-24C162.7 184 152 194.7 152 208s10.71 24 23.96 24C189.3 232 200 221.3 200 208zM256 0C114.8 0 0 114.8 0 256c0 95.17 52.31 181.1 136.5 226.5c7.75 4.141 17.47 1.156 21.62-6.672c4.125-7.812 1.125-17.48-6.688-21.61C77.78 415.2 32 339.3 32 256c0-123.5 100.5-224 224-224s224 100.5 224 224c0 83.28-45.78 159.2-119.5 198.2c-7.812 4.125-10.81 13.8-6.688 21.61c2.875 5.438 8.438 8.531 14.16 8.531c2.531 0 5.094-.5938 7.469-1.859C459.7 437.1 512 351.2 512 256C512 114.8 397.2 0 256 0z"/></svg>