<svg xmlns="http://www.w3.org/2000/svg" viewBox="0 0 512 512"><!--! Font Awesome Pro 6.0.0-alpha3 by @fontawesome - https://fontawesome.com License - https://fontawesome.com/license (Commercial License) --><path d="M175.1 232C189.3 232 200 221.3 200 208S189.3 184 175.1 184C162.7 184 152 194.7 152 208S162.7 232 175.1 232zM346.2 325.8C323.8 352.6 290.9 368 256 368s-67.81-15.38-90.21-42.25C152.3 309.6 127.6 330 141.2 346.3C169.7 380.4 211.6 400 256 400s86.34-19.62 114.8-53.75C384.4 330 359.7 309.5 346.2 325.8zM336 176c-27.09 0-51.34 17.14-60.38 42.67c-2.938 8.328 1.438 17.47 9.75 20.41c8.406 2.953 17.47-1.375 20.44-9.75C310.3 216.6 322.4 208 336 208s25.69 8.578 30.19 21.33C368.5 235.9 374.7 240 381.3 240c1.781 0 3.562-.2969 5.344-.9219c8.312-2.938 12.69-12.08 9.75-20.41C387.3 193.1 363.1 176 336 176zM256 0C114.6 0 0 114.6 0 256s114.6 256 256 256s256-114.6 256-256S397.4 0 256 0zM256 480c-123.5 0-224-100.5-224-224s100.5-224 224-224s224 100.5 224 224S379.5 480 256 480z"/></svg>