<svg xmlns="http://www.w3.org/2000/svg" viewBox="0 0 512 512"><!--! Font Awesome Pro 6.0.0-alpha3 by @fontawesome - https://fontawesome.com License - https://fontawesome.com/license (Commercial License) --><path d="M306.2 369.9c-2.418 0-4.883 .293-7.361 .9102l-42.86 10.68l-42.3-10.61c-2.49-.625-4.975-.9219-7.406-.9219C190.1 369.1 176.2 383 176.2 400v32.26C176.2 476.3 211.9 512 256.1 512c44.18 0 80.14-35.7 80.14-79.74v-32.32C336.2 382.1 322.3 369.9 306.2 369.9zM304.2 432.3C304.2 458.6 282.7 480 256.2 480s-48-21.42-48-47.74v-29.73L240 410.5V424c0 8.844 7.156 16 16 16s16-7.156 16-16v-13.51l32.21-8.025V432.3zM362.9 383.2C364.6 383.7 366.3 384 368 384c6.688 0 12.94-4.234 15.19-10.94l16-48c1.844-5.547 .5313-11.66-3.438-15.94c-3.969-4.266-9.938-6.094-15.62-4.641c-81.19 20.28-167.1 20.28-248.3 0C126.2 303 120.2 304.9 116.3 309.1c-3.969 4.281-5.281 10.39-3.438 15.94l16 48c2.812 8.406 11.88 12.91 20.25 10.11c8.375-2.781 12.91-11.84 10.12-20.23l-7.062-21.2c68.44 13.28 139.3 13.28 207.8 0l-7.062 21.2C350 371.3 354.6 380.4 362.9 383.2zM129.7 247.2C132.5 252.8 138.1 256 144 256c2.406 0 4.844-.5469 7.141-1.688l64-32C220.6 219.6 224 214.1 224 207.1S220.6 196.4 215.2 193.7l-64-32C143.3 157.8 133.6 160.9 129.7 168.8S128.9 186.4 136.8 190.3L172.2 207.1L136.8 225.7C128.9 229.6 125.7 239.3 129.7 247.2zM382.3 168.8c-3.969-7.906-13.56-11.08-21.47-7.156l-64 32C291.4 196.4 288 201.9 288 207.1s3.422 11.6 8.844 14.31l64 32C363.1 255.5 365.6 256 367.1 256c5.875 0 11.52-3.234 14.33-8.844c3.953-7.906 .75-17.52-7.156-21.47L339.8 207.1l35.38-17.69C383.1 186.4 386.3 176.7 382.3 168.8zM256 0C114.8 0 0 114.8 0 256c0 95.17 52.31 181.1 136.5 226.5c7.719 4.141 17.47 1.156 21.62-6.672c4.125-7.812 1.125-17.48-6.688-21.61C77.78 415.2 32 339.3 32 256c0-123.5 100.5-224 224-224s224 100.5 224 224c0 83.28-45.78 159.2-119.5 198.2c-7.812 4.125-10.81 13.8-6.688 21.61c2.875 5.438 8.438 8.531 14.16 8.531c2.531 0 5.094-.5938 7.469-1.859C459.7 437.1 512 351.2 512 256C512 114.8 397.2 0 256 0z"/></svg>