<svg xmlns="http://www.w3.org/2000/svg" viewBox="0 0 512 512"><!--! Font Awesome Pro 6.0.0-alpha3 by @fontawesome - https://fontawesome.com License - https://fontawesome.com/license (Commercial License) --><path d="M232 224c0-39.75-32.21-72-72.05-72C120.3 152 88.04 184.3 88.04 224s32.21 72 71.93 72C199.8 296 232 263.8 232 224zM159.1 264C137.9 264 120 246.1 120 224c0-13.62 7.266-25.12 17.68-32.25C136.7 194.3 135.1 197 135.1 200c0 13.25 10.67 24 23.99 24s23.96-10.75 23.96-24c0-2.875-.6055-5.75-1.695-8.25C192.7 198.9 200.1 210.4 200.1 224C200.1 246.1 182.1 264 159.1 264zM352 152c-39.84 0-72.05 32.25-72.05 72s32.21 72 72.05 72c39.72 0 71.93-32.25 71.93-72S391.7 152 352 152zM352 264c-22.16 0-40.08-17.88-40.08-40c0-13.62 7.387-25.12 17.8-32.25C328.7 194.3 328.1 197 328.1 200c0 13.25 10.64 24 23.96 24s23.99-10.75 23.99-24c0-2.875-.7266-5.75-1.695-8.25C384.7 198.9 391.1 210.4 391.1 224C391.1 246.1 374.1 264 352 264zM320.1 368H191.9c-8.719 0-15.98 7.25-15.98 16s7.266 16 15.98 16h128.1c8.719 0 15.98-7.25 15.98-16S328.8 368 320.1 368zM256 0C114.6 0 0 114.6 0 256s114.6 256 256 256s256-114.6 256-256S397.4 0 256 0zM256 480c-123.5 0-224-100.5-224-224s100.5-224 224-224s224 100.5 224 224S379.5 480 256 480z"/></svg>