<svg xmlns="http://www.w3.org/2000/svg" viewBox="0 0 512 512"><!--! Font Awesome Pro 6.0.0-alpha3 by @fontawesome - https://fontawesome.com License - https://fontawesome.com/license (Commercial License) --><path d="M285.4 239.1c8.406 2.953 17.47-1.375 20.44-9.75C310.3 216.6 322.4 207.1 336 207.1s25.69 8.578 30.19 21.33c2.344 6.578 8.5 10.67 15.09 10.67c1.781 0 3.562-.2969 5.344-.9219c8.312-2.938 12.69-12.08 9.75-20.41C387.3 193.1 363.1 175.1 336 175.1s-51.34 17.14-60.38 42.67C272.7 226.1 277.1 236.1 285.4 239.1zM175.1 232C189.3 232 200 221.3 200 208S189.3 184 175.1 184C162.7 184 152 194.7 152 208S162.7 232 175.1 232zM384.1 304c-1.574 0-3.27 .25-4.965 .75C348.9 314.5 303.1 320 256 320S163.1 314.5 132.8 304.8C131.2 304.3 129.6 304 128 304c-9.445 0-17.44 8.625-15.74 18.75C121.5 377.8 195.4 416 256.1 416c60.55 0 134.6-38.25 143.8-93.25C401.6 312.5 393.4 304 384.1 304zM330.6 362.6C308.4 376 280.5 384 256 384s-52.43-8-74.59-21.38c-9.445-5.75-17.32-12.12-23.49-18.88C186.5 349.1 220.7 352 255.9 352c35.48 0 69.33-2.875 97.9-8.25C347.9 350.5 340 356.9 330.6 362.6zM256 0C114.6 0 0 114.6 0 256s114.6 256 256 256s256-114.6 256-256S397.4 0 256 0zM256 480c-123.5 0-224-100.5-224-224s100.5-224 224-224s224 100.5 224 224S379.5 480 256 480z"/></svg>