<svg xmlns="http://www.w3.org/2000/svg" viewBox="0 0 512 512"><!--! Font Awesome Pro 6.0.0-alpha3 by @fontawesome - https://fontawesome.com License - https://fontawesome.com/license (Commercial License) --><path d="M379.2 304.8C348.9 314.5 303.1 320 256 320S163.1 314.5 132.8 304.8c-5.207-1.625-11.14-.5-15.26 3.125c-4.238 3.75-6.176 9.25-5.328 14.88c9.203 55 83.2 93.26 143.9 93.26c60.55 0 134.5-38.26 143.7-93.26c.9687-5.5-1.09-11.12-5.207-14.88C390.3 304.3 384.4 303 379.2 304.8zM256 384c-34.1 0-77.02-16.25-98.45-40.25c57.4 10.75 139.5 10.75 197 0C333 367.8 290.1 384 256 384zM176 256C184.8 256 192 248.8 192 240v-96C192 135.2 184.8 128 176 128S160 135.2 160 144v96C160 248.8 167.2 256 176 256zM336 256C344.8 256 352 248.8 352 240v-96C352 135.2 344.8 128 336 128S320 135.2 320 144v96C320 248.8 327.2 256 336 256zM256 0C114.6 0 0 114.6 0 256s114.6 256 256 256s256-114.6 256-256S397.4 0 256 0zM256 480c-123.5 0-224-100.5-224-224s100.5-224 224-224s224 100.5 224 224S379.5 480 256 480z"/></svg>