<svg xmlns="http://www.w3.org/2000/svg" viewBox="0 0 512 512"><!--! Font Awesome Pro 6.0.0-alpha3 by @fontawesome - https://fontawesome.com License - https://fontawesome.com/license (Commercial License) --><path d="M255.9 335.9c-31.24 0-60.47 13.83-80.57 37.83c-5.691 6.875-4.723 17 2.059 22.5c6.781 5.625 16.83 4.875 22.52-2c27.85-33.38 84.16-33.38 112 0c5.328 6.5 15.5 8 22.52 2c6.781-5.625 7.75-15.75 2.059-22.5C316.5 349.8 287.2 335.9 255.9 335.9zM200 240c0-3.812-1.08-7.289-2.662-10.49C202.9 231.2 204.8 232 208 232c6.875 0 13.3-4.445 15.36-11.38c2.562-8.453-2.294-17.34-10.76-19.89l-79.94-24C124.3 174.3 115.3 178.9 112.7 187.4C110.2 195.8 115 204.7 123.5 207.3l40.68 12.29C157 223.7 152 231.1 152 240c0 13.25 10.75 24 24 24S200 253.3 200 240zM379.5 176.7l-80.03 24c-8.469 2.547-13.23 11.43-10.67 19.89C290.8 227.6 297.2 232 304.1 232c3.23 0 5.2-.8711 10.61-2.492C313.1 232.7 312 236.2 312 240c0 13.25 10.75 24 24 24s24-10.75 24-24c0-8.863-5.029-16.29-12.18-20.44l40.77-12.29c8.469-2.547 13.33-11.43 10.76-19.89C396.8 178.9 387.9 174.3 379.5 176.7zM256 0C114.6 0 0 114.6 0 256s114.6 256 256 256s256-114.6 256-256S397.4 0 256 0zM256 480c-123.5 0-224-100.5-224-224s100.5-224 224-224s224 100.5 224 224S379.5 480 256 480z"/></svg>