<svg xmlns="http://www.w3.org/2000/svg" viewBox="0 0 640 512"><!--! Font Awesome Pro 6.0.0-alpha3 by @fontawesome - https://fontawesome.com License - https://fontawesome.com/license (Commercial License) --><path d="M176.2 322.8c9.207 55 83.16 93.26 143.8 93.26c60.56 0 134.6-38.26 143.8-93.26c.9687-5.5-1.09-11.12-5.209-14.88C454.3 304.3 448.4 303 443.2 304.8C412.9 314.5 367.1 320 320 320c-47.96 0-92.9-5.5-123.2-15.25C191.6 303.1 185.8 304.3 181.6 307.9C177.3 311.6 175.4 317.1 176.2 322.8zM418.6 343.8C397 367.8 355 384 320 384s-77.04-16.25-98.47-40.25C278.9 354.5 361.1 354.5 418.6 343.8zM199.1 227.9l9.457-17C216.3 197.2 227.8 189.3 240 189.3c12.36 0 23.86 7.875 31.49 21.62l9.554 17C283.1 231.7 287 232.8 290.2 231.8c3.514-1.125 6.091-4.5 5.848-8.375C292.7 181.3 263.8 152 239.1 152c-23.74 0-52.55 29.25-55.82 71.38C183.8 227.1 186.1 230.6 189.7 231.8C193.1 232.8 197.1 231.2 199.1 227.9zM359.1 227.9l9.481-17c7.631-13.75 19.13-21.62 31.49-21.62c12.23 0 23.81 7.875 31.56 21.62l9.457 17c2.18 3.75 6.089 4.825 9.237 3.825c3.635-1.125 6.067-4.5 5.704-8.375C452.7 181.3 423.8 152 400 152c-23.86 0-52.63 29.25-55.91 71.38c-.2422 3.75 2.19 7.25 5.702 8.375C353.2 232.8 357.1 231.2 359.1 227.9zM127.8 242.5c.7813-5.062-.875-10.19-4.502-13.8c-3.625-3.609-8.783-5.312-13.79-4.5C81.25 228.6 31.58 238.3 16.17 253.8c-21.82 22.14-21.47 58.56 .9082 81.08C28.14 345.9 42.74 352 58.25 352c15.16-.0313 29.38-5.875 39.82-16.39C113.6 320.1 123.4 270.6 127.8 242.5zM75.41 313C70.94 317.5 64.84 319.1 58.28 320c-6.939 0-13.54-2.766-18.54-7.766C29.77 302.2 29.33 286.2 38.77 276.4C41.74 273.9 56.62 266.8 92.22 259.7C85.13 295.3 77.91 310.2 75.41 313zM623.8 253.8c-15.41-15.42-65.08-25.14-93.31-29.56c-5.033-.8125-10.16 .8906-13.79 4.5c-3.625 3.609-5.283 8.734-4.5 13.8c4.406 28.11 14.13 77.59 29.66 93.06C552.4 346.1 566.5 351.1 581.7 352c15.5 0 30.21-6.109 41.28-17.19c.0313-.0156 0 0 0 0C645.3 312.3 645.7 275.1 623.8 253.8zM600.3 312.2C595.2 317.3 588.7 320 581.8 320c-6.564-.0156-12.69-2.5-17.13-6.953c-2.533-2.875-9.754-17.69-16.85-53.33c35.82 7.062 50.61 14.2 53.33 16.56C610.7 286 610.3 302.1 600.3 312.2zM536 361.1c-7.625-4.359-17.44-1.781-21.84 5.859C474.2 437 399.8 480 320 480s-154.2-42.98-194.2-112.2C121.4 360.2 111.6 357.5 104 361.1c-7.656 4.422-10.28 14.2-5.844 21.86C143.8 462.9 228.8 512 320 512s176.2-49.13 221.8-128.2C546.3 376.2 543.7 366.4 536 361.1zM88.31 191.1c8.375 2.875 17.47-1.406 20.44-9.766C140.3 92.02 225.2 32 320 32s179.7 60.02 211.3 149.3C533.6 187.9 539.8 192 546.3 192c1.781 0 3.562-.2969 5.344-.9062C560 188.1 564.4 179 561.4 170.7C525.4 68.59 428.3 0 320 0S114.6 68.59 78.56 170.7C75.63 179 80 188.1 88.31 191.1z"/></svg>