<svg xmlns="http://www.w3.org/2000/svg" viewBox="0 0 512 512"><!--! Font Awesome Pro 6.0.0-alpha3 by @fontawesome - https://fontawesome.com License - https://fontawesome.com/license (Commercial License) --><path d="M296.8 222.3l64 32C363.1 255.5 365.6 256 367.1 256c5.875 0 11.52-3.234 14.33-8.844c3.953-7.906 .75-17.52-7.156-21.47L339.8 208l35.38-17.69c7.906-3.953 11.11-13.56 7.156-21.47c-3.969-7.906-13.56-11.08-21.47-7.156l-64 32C291.4 196.4 288 201.9 288 208S291.4 219.6 296.8 222.3zM129.7 247.2C132.5 252.8 138.1 256 144 256c2.406 0 4.844-.5469 7.141-1.688l64-32C220.6 219.6 224 214.1 224 208S220.6 196.4 215.2 193.7l-64-32C143.3 157.8 133.6 160.9 129.7 168.8S128.9 186.4 136.8 190.3L172.2 208L136.8 225.7C128.9 229.6 125.7 239.3 129.7 247.2zM256 288C209.8 288 159.2 317.3 132.9 359.2c-6.984 11.15-6.438 25.43 1.379 36.01c6.129 8.293 15.75 12.99 25.74 12.99c2.752 0 5.533-.3574 8.277-1.092c24.49-6.559 55.66-10.17 87.77-10.17c32.1 0 63.23 3.611 87.66 10.17c2.748 .7363 5.537 1.096 8.295 1.096c9.975 0 19.58-4.676 25.71-12.95c7.826-10.56 8.402-24.83 1.453-35.98C353 317.3 302.3 288 256 288zM256 364.1c-34 0-68.02 3.754-96.04 11.26C181 342.7 221.1 320 256.1 320c34.11 0 75.05 22.7 95.94 56.22C324 368.7 290 364.1 256 364.1zM256 0C114.6 0 0 114.6 0 256s114.6 256 256 256s256-114.6 256-256S397.4 0 256 0zM256 480c-123.5 0-224-100.5-224-224s100.5-224 224-224s224 100.5 224 224S379.5 480 256 480z"/></svg>