<svg xmlns="http://www.w3.org/2000/svg" viewBox="0 0 576 512"><!--! Font Awesome Pro 6.0.0-alpha3 by @fontawesome - https://fontawesome.com License - https://fontawesome.com/license (Commercial License) --><path d="M32 160V116.8c0-41.88 29.1-80 71.63-84.38C138.9 28.85 174.1 48.62 187.7 85.91C190.8 94.24 192 103.2 192 112V118.5c6.5-11.75 16.5-21.12 28.75-26.88c-11-49-51.25-88.75-102.8-91.5C87.38-1.5 57.25 9.5 35 30.75C12.63 51.88 0 81.25 0 112v384C0 504.8 7.164 512 16 512S32 504.8 32 496V192h122.8l16-32H32zM416 384h-96c-17.67 0-32 14.33-32 32V496c0 8.836 7.164 16 16 16s16-7.164 16-16V416h96v80c0 8.836 7.164 16 16 16s16-7.164 16-16v-79.1C448 398.3 433.7 384 416 384zM400 304c17.6 0 32-14.4 32-32v-64c0-17.6-14.4-32-32-32h-64c-17.6 0-32 14.4-32 32v64c0 17.6 14.4 32 32 32H400zM336 208h64v64h-64V208zM572.6 246.3l-55.52-111C513.7 128.6 508.3 123.3 501.5 120.3L381 66.76c-8.25-3.625-17.76-3.622-26.01 .0029L234.5 120.4C227.8 123.4 221 131 218.9 135.3L163.4 246.3C161.2 250.7 160 255.6 160 260.5V496C160 504.8 167.2 512 176 512S192 504.8 192 496V260.5l55.5-111L368 96l120.5 53.5L544 260.5V496c0 8.836 7.164 16 16 16s16-7.164 16-16V260.5C576 255.6 574.9 250.6 572.6 246.3z"/></svg>