<svg xmlns="http://www.w3.org/2000/svg" viewBox="0 0 512 512"><!--! Font Awesome Pro 6.0.0-alpha3 by @fontawesome - https://fontawesome.com License - https://fontawesome.com/license (Commercial License) --><path d="M475.1 209.4c-5.893-27.71-16.96-53.52-32.09-76.43c.4512-.9219 .9902-1.785 1.383-2.738c.0977-.2383 .1309-.4824 .2246-.7227C446.7 124.1 448 118.2 448 112s-1.271-12.08-3.41-17.52c-.0938-.2402-.127-.4844-.2246-.7227c-4.867-11.82-14.3-21.26-26.12-26.12c-.2466-.1016-.498-.1328-.7441-.2305C412.1 65.27 406.2 64 400 64c-.0137-.0019 .0137-.0019 0 0c-6.184 .002-12.07 1.271-17.5 3.404c-.2461 .0977-.4986 .1289-.7441 .2305c-.9512 .3926-1.812 .9336-2.732 1.383c-22.91-15.12-48.72-26.2-76.43-32.09C297.6 15.77 278.7 0 256 0S214.4 15.77 209.4 36.93C181.7 42.82 155.9 53.89 132.1 69.02C132.1 68.57 131.2 68.03 130.2 67.63C129.1 67.53 129.7 67.5 129.5 67.4C124.1 65.27 118.2 64 112 64c-.0137-.0019 .0137-.0019 0 0c-6.184 .002-12.07 1.271-17.5 3.404C94.25 67.5 93.1 67.53 93.75 67.63C81.93 72.5 72.5 81.94 67.63 93.76c-.0977 .2383-.1309 .4824-.2246 .7227C65.27 99.92 64 105.8 64 112s1.271 12.08 3.41 17.52c.0938 .2402 .127 .4844 .2246 .7227c.3945 .9551 .9316 1.818 1.383 2.74C53.89 155.9 42.82 181.7 36.93 209.4C15.77 214.4 0 233.3 0 256c0 22.9 16.07 41.99 37.53 46.78c5.791 26.99 16.65 52.51 31.81 75.65c-.5664 1.115-1.225 2.168-1.705 3.332c-.0977 .2383-.1309 .4824-.2246 .7227C65.27 387.9 64 393.8 64 400s1.271 12.08 3.41 17.52c.0938 .2402 .127 .4844 .2246 .7227c4.869 11.82 14.3 21.26 26.12 26.12c.2383 .0977 .4824 .1309 .7227 .2246C99.92 446.7 105.8 448 112 448s12.08-1.271 17.52-3.41c.2402-.0938 .4844-.127 .7227-.2246c11.82-4.869 21.26-14.3 26.12-26.12c.0977-.2383 .1309-.4824 .2246-.7227C158.7 412.1 160 406.2 160 400s-1.271-12.08-3.41-17.52c-.0938-.2402-.127-.4844-.2246-.7227c-4.867-11.82-14.3-21.26-26.12-26.12c-.2466-.1016-.498-.1328-.7441-.2305C124.1 353.3 118.2 352 112 352c-.0137-.002 .0137-.002 0 0c-6.184 .002-12.07 1.27-17.5 3.403c-.2461 .0977-.4986 .1289-.7441 .2305c-.3691 .1523-.7227 .3281-1.088 .4902c-10.88-17.76-18.58-37.13-23.23-57.39C80.41 293.2 88.91 283.7 93.06 272h101.2c3.742 14.4 12.29 26.79 23.94 35.38L149.5 479.1c-2.938 7.406-2.031 15.78 2.438 22.38S163.8 512 171.8 512h168.4c7.969 0 15.41-3.938 19.88-10.53s5.375-14.97 2.406-22.38L293.8 307.4C305.4 298.8 313.1 286.4 317.7 272h101.2c4.156 11.7 12.65 21.21 23.62 26.73c-4.648 20.26-12.35 39.63-23.23 57.39c-.3652-.1621-.7187-.3379-1.088-.4902c-.2466-.1016-.498-.1328-.7441-.2305C412.1 353.3 406.2 352 400 352c-.0137-.002 .0137-.002 0 0c-6.184 .002-12.07 1.27-17.5 3.403c-.2461 .0977-.4986 .1289-.7441 .2305c-11.82 4.867-21.25 14.3-26.12 26.12c-.0977 .2383-.1309 .4824-.2246 .7227C353.3 387.9 352 393.8 352 400s1.271 12.08 3.41 17.52c.0938 .2402 .127 .4844 .2246 .7227c4.869 11.82 14.3 21.26 26.12 26.12c.2383 .0977 .4824 .1309 .7227 .2246C387.9 446.7 393.8 448 400 448s12.08-1.271 17.52-3.41c.2402-.0938 .4844-.127 .7227-.2246c11.82-4.869 21.26-14.3 26.12-26.12c.0977-.2383 .1309-.4824 .2246-.7227C446.7 412.1 448 406.2 448 400s-1.271-12.08-3.41-17.52c-.0938-.2402-.127-.4844-.2246-.7227c-.4805-1.164-1.139-2.217-1.705-3.332c15.16-23.14 26.02-48.66 31.81-75.65C495.9 297.1 512 278.9 512 256C512 233.3 496.2 214.4 475.1 209.4zM48 272C39.16 272 32 264.8 32 256c0-8.838 7.164-16 16-16S64 247.2 64 256C64 264.8 56.84 272 48 272zM112 384C120.8 384 128 391.2 128 400C128 408.8 120.8 416 112 416S96 408.8 96 400C96 391.2 103.2 384 112 384zM400 416c-8.836 0-16-7.164-16-16c0-8.838 7.164-16 16-16s16 7.162 16 16C416 408.8 408.8 416 400 416zM400 96C408.8 96 416 103.2 416 112C416 120.8 408.8 128 400 128S384 120.8 384 112C384 103.2 391.2 96 400 96zM256 32c8.836 0 16 7.162 16 16C272 56.84 264.8 64 256 64S240 56.84 240 48C240 39.16 247.2 32 256 32zM288 256c0 17.67-14.33 32-32 32S224 273.7 224 256c0-17.67 14.33-32 32-32S288 238.3 288 256zM112 96C120.8 96 128 103.2 128 112C128 120.8 120.8 128 112 128S96 120.8 96 112C96 103.2 103.2 96 112 96zM194.3 240H93.06C88.85 228.2 80.2 218.5 69.02 213c4.721-20.54 12.77-39.78 23.51-57.24C92.94 155.1 93.34 156.2 93.76 156.4c.2383 .0977 .4824 .1309 .7227 .2246C99.92 158.7 105.8 160 112 160s12.08-1.271 17.52-3.41c.2402-.0938 .4844-.127 .7227-.2246c.8105-.334 1.547-.7871 2.336-1.164l68.49 68.49C198.1 228.7 195.8 234.2 194.3 240zM155.2 132.6c.377-.7891 .8301-1.525 1.164-2.336c.0977-.2383 .1309-.4824 .2246-.7227C158.7 124.1 160 118.2 160 112S158.7 99.92 156.6 94.48c-.0938-.2402-.127-.4844-.2246-.7227C156.2 93.34 155.1 92.94 155.8 92.53c17.46-10.74 36.69-18.79 57.24-23.51C218.5 80.2 228.2 88.85 240 93.06v101.2C234.2 195.8 228.7 198.1 223.7 201.1L155.2 132.6zM328.4 480H183.6l64.33-160.8C250.6 319.5 253.2 320 256 320s5.383-.4746 8.049-.8145L328.4 480zM288.3 201.1C283.3 198.1 277.8 195.8 272 194.3V93.06c11.85-4.211 21.48-12.87 26.96-24.04c20.54 4.721 39.78 12.77 57.24 23.51c-.1836 .4141-.3906 .8105-.5645 1.23c-.0977 .2383-.1309 .4824-.2246 .7227C353.3 99.92 352 105.8 352 112s1.271 12.08 3.41 17.52c.0938 .2402 .127 .4844 .2246 .7227c.334 .8105 .7871 1.547 1.164 2.336L288.3 201.1zM418.9 240h-101.2c-1.51-5.809-3.814-11.26-6.795-16.31l68.49-68.49c.7891 .377 1.525 .8301 2.336 1.164c.2383 .0977 .4824 .1309 .7227 .2246C387.9 158.7 393.8 160 400 160s12.08-1.271 17.52-3.41c.2402-.0938 .4844-.127 .7227-.2246c.4199-.1738 .8164-.3809 1.23-.5645c10.74 17.46 18.79 36.69 23.51 57.24C431.8 218.5 423.1 228.2 418.9 240zM464 272C455.2 272 448 264.8 448 256c0-8.838 7.164-16 16-16S480 247.2 480 256C480 264.8 472.8 272 464 272z"/></svg>