<svg xmlns="http://www.w3.org/2000/svg" viewBox="0 0 576 512"><!--! Font Awesome Pro 6.0.0-alpha3 by @fontawesome - https://fontawesome.com License - https://fontawesome.com/license (Commercial License) --><path d="M324.1 64C228.7 64 154.8 132.1 123 168.8L52.66 104C42.44 94.97 28.28 93.47 16.53 100.1C4.406 106.1-2.031 120.1 .6875 135.4L26.81 256l-26.22 120.1c-2.625 14.03 3.812 28.06 16 34.94c11.69 6.625 25.81 5.094 36.19-4.062l70.16-64.63C154.8 379 228.7 448 324.1 448C460.2 448 576 301.7 576 256S460.2 64 324.1 64zM324.1 416c-76.13 0-147.1-54.69-188.1-105.8C134.1 306.7 129.1 304.5 125.6 304.2C125.2 304.2 124.8 304.2 124.4 304.2c-4 0-7.875 1.5-10.84 4.219l-81.59 74.94l26.88-123.9c.5-2.25 .5-4.562 0-6.781L31.19 127.8l82.44 75.84c3.281 3 7.812 4.625 12.06 4.188c4.406-.3438 8.5-2.5 11.28-5.969C177.9 150.7 248.8 96 324.1 96C447.8 96 544 231.2 544 256S447.8 416 324.1 416zM415.1 232c-13.25 0-24 10.75-24 24c0 13.25 10.75 24 24 24S439.1 269.2 439.1 256C439.1 242.7 429.2 232 415.1 232z"/></svg>