<svg xmlns="http://www.w3.org/2000/svg" viewBox="0 0 384 512"><!--! Font Awesome Pro 6.0.0-alpha3 by @fontawesome - https://fontawesome.com License - https://fontawesome.com/license (Commercial License) --><path d="M384 48C384 56.84 376.8 64 368 64h-52.05c-19.7 0-37.72 12.38-44.8 30.78L215.3 240H336C344.8 240 352 247.2 352 256s-7.156 16-16 16h-133l-60.28 156.7C130.9 459.4 100.9 480 68.05 480H16C7.156 480 0 472.8 0 464S7.156 448 16 448h52.05c19.7 0 37.72-12.38 44.8-30.78L168.7 272H48C39.16 272 32 264.8 32 256s7.156-16 16-16h133l60.28-156.7C253.1 52.59 283.1 32 315.1 32H368C376.8 32 384 39.16 384 48z"/></svg>