<svg xmlns="http://www.w3.org/2000/svg" viewBox="0 0 576 512"><!--! Font Awesome Pro 6.0.0-alpha3 by @fontawesome - https://fontawesome.com License - https://fontawesome.com/license (Commercial License) --><path d="M480 96h-176L258.7 50.75C246.7 38.74 230.5 32 213.5 32H96C60.65 32 32 60.66 32 96v320c0 35.34 28.65 64 64 64h384c35.35 0 64-28.66 64-64V160C544 124.7 515.3 96 480 96zM512 416c0 17.64-14.36 32-32 32H96c-17.64 0-32-14.36-32-32V96c0-17.64 14.36-32 32-32h117.5c8.549 0 16.58 3.328 22.63 9.375L290.7 128H480c17.64 0 32 14.36 32 32V416zM350.1 327.5C361.3 311.8 368 292.7 368 272c0-52.94-43.06-96-96-96s-96 43.06-96 96s43.06 96 96 96c20.7 0 39.76-6.734 55.46-17.92l61.23 61.23C391.8 414.4 395.9 416 400 416s8.188-1.562 11.31-4.688c6.25-6.25 6.25-16.38 0-22.62L350.1 327.5zM272 336c-35.28 0-64-28.72-64-64s28.72-64 64-64s64 28.72 64 64S307.3 336 272 336z"/></svg>