<svg xmlns="http://www.w3.org/2000/svg" viewBox="0 0 448 512"><!--! Font Awesome Pro 6.0.0-alpha3 by @fontawesome - https://fontawesome.com License - https://fontawesome.com/license (Commercial License) --><path d="M434.8 79.26c-4.375-16.37-17.12-29.15-33.63-33.55C391.5 43.12 351.8 32 299.7 32c-63.66 0-145.8 16.51-214.4 85.12c-110.8 111.1-87.53 257.1-72.11 315.6c4.375 16.37 17.17 29.29 33.69 33.69C56.52 469 96.25 480 148.3 480c63.66 0 145.8-16.5 214.4-85.12C473.5 283.8 450.2 137.7 434.8 79.26zM55.15 435.4c-5.365-1.432-9.588-5.641-10.99-10.89c-4.93-18.69-10.73-47.66-11.82-81.58l104.2 104.2C109.6 446.3 82.42 442.8 55.15 435.4zM340.1 372.3c-42.93 42.99-96.42 67.69-159.2 73.98l-147.1-147.1c5.369-52.06 24.8-109.9 74.18-159.4c42.93-42.99 96.41-67.69 159.2-73.98l147.1 147.1C408.9 264.9 389.4 322.8 340.1 372.3zM311.4 64.79c27.03 .9199 54.16 4.424 81.44 11.78c5.367 1.432 9.588 5.641 10.99 10.89c4.928 18.69 10.73 47.66 11.82 81.58L311.4 64.79zM203.3 212.7c-6.25-6.25-16.38-6.25-22.63 0s-6.25 16.38 0 22.63l64.01 64.01c3.125 3.125 7.22 4.688 11.31 4.688s8.189-1.563 11.31-4.688c6.25-6.25 6.25-16.38 0-22.63L203.3 212.7zM228.7 164.7c-6.25 6.25-6.25 16.38 0 22.63l64.01 64.01c3.125 3.125 7.22 4.688 11.31 4.688s8.189-1.563 11.31-4.688c6.25-6.25 6.25-16.38 0-22.63l-64.01-64.01C245.1 158.4 234.9 158.4 228.7 164.7zM155.3 260.7c-6.25-6.25-16.38-6.25-22.63 0c-6.25 6.25-6.25 16.38 0 22.63l64.01 64.01c3.125 3.125 7.22 4.688 11.31 4.688s8.189-1.563 11.31-4.688c6.25-6.25 6.25-16.38 0-22.63L155.3 260.7z"/></svg>