<svg xmlns="http://www.w3.org/2000/svg" viewBox="0 0 576 512"><!--! Font Awesome Pro 6.0.0-alpha3 by @fontawesome - https://fontawesome.com License - https://fontawesome.com/license (Commercial License) --><path d="M568.8 101.1c-7.408-4.828-17.35-2.828-22.16 4.547L481.9 203.8c-27.16 40.17-64.36 52.64-108.1 35.94L363.8 235.9l-227.6 239.2c-2.719 2.828-6.314 4.578-9.815 4.812c-2.657 .1562-4.939-.6562-6.626-2.344l-21.47-21.47c-1.75-1.75-2.563-4.031-2.375-6.844c.2188-3.453 1.907-7.047 4.532-9.547l239.5-227.6l-3.688-9.906c-16.53-44.42-4.72-80.64 34.94-107.5l99.11-65.39c7.377-4.875 9.408-14.8 4.532-22.17c-4.876-7.391-14.78-9.406-22.16-4.547L353.4 68.15c-49.07 33.25-66.8 80.94-50.57 135.1l-224.5 213.4c-8.439 8.109-13.69 19.34-14.35 30.7c-.7502 11.97 3.376 23.14 11.69 31.44l21.5 21.48C104.8 507.9 114.8 512 125.7 512c.8752 0 1.829-.0313 2.735-.0781c11.41-.7344 22.66-6.031 30.94-14.61l213.3-224.2c53.29 16.16 102.4-2.172 135.8-51.56l64.89-98.31C578.2 115.9 576.2 105.1 568.8 101.1zM143.9 304.4c6.533 0 12.69-4.031 15.03-10.53c3.032-8.312-1.25-17.48-9.564-20.5C70.37 244.6 45.02 179.4 36.95 143.1c-12.06-54.39-.125-99.72 9.971-109.8c1.25-1.25 3.094-1.312 4.532-1.281C54.3 32.27 57.27 33.76 59.93 36.38l175.2 167.2c6.408 6.109 16.53 5.875 22.6-.5312C263.9 196.7 263.6 186.5 257.2 180.4L82.28 13.49c-7.752-7.766-17.78-12.5-28.22-13.36C42.86-.7442 31.92 3.053 24.29 10.69C1.571 33.43-6.587 94.65 5.728 150.1c9.471 42.7 39.35 119.4 132.7 153.3C140.3 304 142.1 304.4 143.9 304.4zM391.4 308.4c-6.376-6.078-16.5-5.859-22.6 .5313c-6.126 6.391-5.876 16.52 .5314 22.62l103.6 98.89c7.627 7.656 9.346 18.87 3.72 24.52l-21.72 21.7c-2.813 2.828-6.439 3.422-9.158 3.312c-5.689-.1094-11.69-3.031-16.69-8.437l-97.99-95.17c-6.345-6.141-16.44-6.016-22.63 .3125c-6.158 6.344-6.033 16.47 .3126 22.62l97.36 94.55c10.35 11.22 24.57 17.83 38.98 18.11C445.5 512 445.8 512 446.1 512c12.13 0 23.25-4.484 31.44-12.69l21.72-21.7c18.19-18.22 16.53-49.5-4.001-70.03L391.4 308.4zM375.6 156.3c3.188 3.531 7.564 5.328 11.94 5.328c3.813 0 7.627-1.344 10.66-4.078l107.5-96.17c6.595-5.891 7.158-15.1 1.281-22.59c-5.97-6.641-16.13-7.125-22.6-1.25L376.8 133.7C370.2 139.6 369.7 149.7 375.6 156.3zM422.1 202.8c3.032 2.734 6.845 4.078 10.66 4.078c4.376 0 8.752-1.797 11.94-5.328l96.18-107.5c5.876-6.594 5.314-16.7-1.281-22.59c-6.501-5.844-16.63-5.344-22.6 1.25l-96.18 107.5C414.9 186.8 415.5 196.9 422.1 202.8z"/></svg>