<svg xmlns="http://www.w3.org/2000/svg" viewBox="0 0 512 512"><!--! Font Awesome Pro 6.0.0-alpha3 by @fontawesome - https://fontawesome.com License - https://fontawesome.com/license (Commercial License) --><path d="M504.1 126.1c-7.609-4.484-17.42-1.953-21.91 5.688L424.6 229.8c-17.19 26.56-45.02 43.73-76.17 47.08c-17 1.672-38.91-1.031-54.48-6.672l-9.766-3.531l-201.8 209.5C80.14 478.5 76.86 479.1 73.45 480c-3.188 0-6.328-1.297-8.609-3.594l-29.3-29.33C33.28 444.8 31.95 441.5 32 438.3c.0469-3.266 1.469-6.547 3.875-8.828l209.8-201.4L242.1 218.3C236.4 202.4 233.7 180.5 235.5 163.9c3.312-31.33 20.64-59.3 46.97-76.33l98.63-57.75c7.625-4.469 10.19-14.27 5.734-21.89c-4.484-7.656-14.3-10.19-21.89-5.734l-99.23 58.13C230.6 83.02 207.1 119.5 203.7 160.5c-1.891 17.97 .125 39.89 5.203 58.52l-195.1 187.3C5.188 414.5 .1719 426 0 437.9c-.1406 11.91 4.594 23.52 12.95 31.83l29.25 29.28C50.42 507.3 61.81 512 74.14 512c11.8-.2031 23.22-5.188 31.33-13.66l187.7-194.9c18.34 4.969 40.3 7.031 58.5 5.234c40.97-4.391 77.33-26.81 100.2-62.11l57.95-98.56C514.3 140.4 511.7 130.6 504.1 126.1zM308.7 155.3C311.8 158.4 315.9 160 320 160s8.188-1.562 11.31-4.688l96-96c6.25-6.25 6.25-16.38 0-22.62s-16.38-6.25-22.62 0l-96 96C302.4 138.9 302.4 149.1 308.7 155.3zM356.7 203.3C359.8 206.4 363.9 208 368 208s8.188-1.562 11.31-4.688l96-96c6.25-6.25 6.25-16.38 0-22.62s-16.38-6.25-22.62 0l-96 96C350.4 186.9 350.4 197.1 356.7 203.3z"/></svg>