<svg xmlns="http://www.w3.org/2000/svg" viewBox="0 0 640 512"><!--! Font Awesome Pro 6.0.0-alpha3 by @fontawesome - https://fontawesome.com License - https://fontawesome.com/license (Commercial License) --><path d="M416 263.2c0-6.938-1.547-14.05-4.5-20.39l-100.4-215.1C303.3 10.88 286.3 0 267.8 0H176C149.5 0 128 21.53 128 48L128 160H48c-26.47 0-48 21.53-48 48L0 416c0 53.02 42.98 96 96 96s96-42.98 96-96h64c0 53.02 42.98 96 95.1 96S448 469 448 416c0-28.32-12.49-53.53-31.1-71.11L416 263.2zM160 48C160 39.17 167.2 32 176 32h91.63c6.188 0 11.88 3.625 14.5 9.234L382.3 256H262.6L180.7 174.1C174.9 168.2 167.7 164.3 160 162.1V48zM96 480c-35.29 0-64-28.71-64-64s28.71-64 64-64S160 380.7 160 416S131.3 480 96 480zM261.9 384H186.1c-13.22-37.2-48.38-64-90.12-64C71.3 320 49.01 329.6 32 344.9V208C32 199.2 39.17 192 48 192h98.75c4.203 0 8.328 1.703 11.31 4.688L249.4 288H384v37.88C373.9 322.3 363.3 320 352 320C310.3 320 275.1 346.8 261.9 384zM352 480c-35.29 0-64-28.71-64-64s28.71-64 64-64S416 380.7 416 416S387.3 480 352 480zM624 416H512V16C512 7.156 504.8 0 496 0S480 7.156 480 16l.0001 416c0 8.844 7.156 16 16 16H624c8.844 0 16-7.156 16-16S632.8 416 624 416z"/></svg>