<svg xmlns="http://www.w3.org/2000/svg" viewBox="0 0 320 512"><!--! Font Awesome Pro 6.0.0-alpha3 by @fontawesome - https://fontawesome.com License - https://fontawesome.com/license (Commercial License) --><path d="M320 48C320 56.84 312.8 64 304 64H96C87.19 64 80 71.17 80 80V192h192C280.8 192 288 199.2 288 208S280.8 224 272 224h-192v96h128c8.844 0 16 7.156 16 16S216.8 352 208 352h-128v110.4c0 8.844-7.156 16-16 16s-16-7.156-16-16V352h-32C7.156 352 0 344.8 0 336S7.156 320 16 320h32V80C48 53.53 69.53 32 96 32h208C312.8 32 320 39.16 320 48z"/></svg>