<svg xmlns="http://www.w3.org/2000/svg" viewBox="0 0 640 512"><!--! Font Awesome Pro 6.0.0-alpha3 by @fontawesome - https://fontawesome.com License - https://fontawesome.com/license (Commercial License) --><path d="M368 416h-96c-8.875 0-16 7.125-16 16s7.125 16 16 16h96c8.875 0 16-7.125 16-16S376.9 416 368 416zM610.6 118.4l-272.2-114.7c-11.88-5-25.12-5-37 0L29.38 118.4C11.62 125.8 0 143.3 0 162.5L.0001 496c0 8.801 7.201 16 16 16C24.8 512 32 504.8 32 496V162.5c0-6.375 3.875-12.25 9.75-14.75l272-114.6c4-1.625 8.5-1.625 12.5 0l272 114.6C604.1 150.3 608 156.1 608 162.5V496c0 8.801 7.201 16 16 16c8.801 0 16-7.199 16-16L640 162.5C640 143.3 628.4 125.8 610.6 118.4zM512 192H128C110.4 192 96 206.4 96 224v272c0 8.801 7.201 16 15.1 16C120.8 512 128 504.8 128 496L128.1 352h383.9L512 496c0 8.801 7.201 16 16 16c8.801 0 16-7.199 16-16V224C544 206.4 529.6 192 512 192zM512 320H128V224h384L512 320z"/></svg>