<svg xmlns="http://www.w3.org/2000/svg" viewBox="0 0 640 512"><!--! Font Awesome Pro 6.0.0-alpha3 by @fontawesome - https://fontawesome.com License - https://fontawesome.com/license (Commercial License) --><path d="M610.6 118.4l-272.2-114.7c-11.88-5-25.12-5-37 0L29.38 118.4C11.62 125.8 0 143.3 0 162.5L.0001 496c0 8.801 7.201 16 16 16C24.8 512 32 504.8 32 496V162.5c0-6.375 3.875-12.25 9.75-14.75l272-114.6c4-1.625 8.5-1.625 12.5 0l272 114.6C604.1 150.3 608 156.1 608 162.5V496c0 8.801 7.201 16 16 16c8.801 0 16-7.199 16-16L640 162.5C640 143.3 628.4 125.8 610.6 118.4zM416 400c-8.836 0-16 7.164-16 16s7.164 16 16 16c8.838 0 16-7.164 16-16S424.8 400 416 400zM224 400c-8.836 0-16 7.164-16 16s7.164 16 16 16c8.838 0 16-7.164 16-16S232.8 400 224 400zM512 192H128C110.4 192 96 206.4 96 224v272c0 8.801 7.201 16 15.1 16C120.8 512 128 504.8 128 496L128 288H512v208c0 8.801 7.201 16 16 16c8.801 0 16-7.199 16-16V224C544 206.4 529.6 192 512 192zM512 256H128l.0001-32h384L512 256zM447.1 354.7L433.2 320h-34.47l12.8 32H226.3l9.604-32H202.5l-10.48 34.95C173.4 361.6 160 379.2 160 400v32c0 20.83 13.42 38.43 32 45.05V496C192 504.8 199.2 512 208 512C216.8 512 224 504.8 224 496V480h192v16c0 8.836 7.164 16 16 16c8.838 0 16-7.164 16-16v-18.95c18.58-6.627 32-24.22 32-45.05v-32C480 378.8 466.2 361 447.1 354.7zM448 432c0 8.828-7.172 16-16 16h-224C199.2 448 192 440.8 192 432v-32C192 391.2 199.2 384 208 384h224c8.828 0 16 7.172 16 16V432z"/></svg>