<svg xmlns="http://www.w3.org/2000/svg" viewBox="0 0 512 512"><!--! Font Awesome Pro 6.0.0-alpha3 by @fontawesome - https://fontawesome.com License - https://fontawesome.com/license (Commercial License) --><path d="M502.6 120l-90.33-90.44c-6.25-6.26-16.39-6.264-22.65-.0078c-6.242 6.242-6.254 16.36-.0234 22.62L416 78.63L416 160c0 26.51 21.49 48 47.1 48H480v174.3c0 15.97-10.87 30.82-26.63 33.38C433.4 418.9 416 403.5 416 384v-48C416 291.8 380.2 256 336 256h-15.1l0-192c0-35.2-28.8-64-64-64H96C60.8 0 32 28.8 32 64L32 480H16c-8.799 0-15.1 7.199-15.1 16s7.201 16 16 16h320c8.801 0 16-7.199 16-16S344.8 480 336 480H320V288h16c26.51 0 48 21.49 48 48v44.99c0 30.95 20.57 59.59 50.91 65.7C475.9 454.1 512 423.5 512 384V142.6C512 134.1 508.6 126 502.6 120zM288 480H64V224h224V480zM288 192H64V64c0-17.62 14.38-32 32-32h160c17.62 0 32 14.38 32 32V192zM480 176h-16C455.3 176 448 168.8 448 160V110.6l32 32V176z"/></svg>