<svg xmlns="http://www.w3.org/2000/svg" viewBox="0 0 640 512"><!--! Font Awesome Pro 6.0.0-alpha3 by @fontawesome - https://fontawesome.com License - https://fontawesome.com/license (Commercial License) --><path d="M400 480H384v-91.94l-32-25.26V480H128V185.9L96 160.7V480H80c-8.799 0-15.1 7.195-15.1 15.1s7.201 15.1 15.1 15.1h319.1c8.801 0 15.1-7.199 15.1-15.1S408.8 480 400 480zM480 78.63L479.1 159.1C479.1 186.5 501.5 208 528 208H544v143.3l32 25.26V142.6c0-8.477-3.363-16.61-9.354-22.6l-90.33-90.44c-6.25-6.26-16.39-6.264-22.65-.0078c-6.242 6.242-6.254 16.36-.0234 22.62L480 78.63zM512 110.6l32 32V176h-16C519.3 176 512 168.8 512 160V110.6zM160 32h160c17.62 0 32 14.38 32 32v135.7l32 25.26v-160.1C384 28.8 355.2 0 320 0H160c-15.77 0-30.08 6.001-41.27 15.55l26.24 20.72C149.5 33.79 154.5 32 160 32zM633.9 483.4L25.9 3.42C18.1-2.033 8.936-.8301 3.436 6.061c-5.469 6.938-4.281 17 2.656 22.49l608 480C617 510.9 620.5 512 624 512c4.719 0 9.406-2.094 12.56-6.078C642 498.1 640.8 488.9 633.9 483.4z"/></svg>