<svg xmlns="http://www.w3.org/2000/svg" viewBox="0 0 576 512"><!--! Font Awesome Pro 6.0.0-alpha3 by @fontawesome - https://fontawesome.com License - https://fontawesome.com/license (Commercial License) --><path d="M304 290.2V128c0-8.875-7.125-16-16-16S272 119.1 272 128v162.2C244.5 297.4 224 322.2 224 352c0 35.38 28.62 64 64 64s64-28.62 64-64C352 322.2 331.5 297.4 304 290.2zM288 384c-17.62 0-32-14.38-32-32c0-17.62 14.38-32 32-32s32 14.38 32 32C320 369.6 305.6 384 288 384zM120 320c0 13.25-10.75 24-24 24S72 333.2 72 320S82.75 296 96 296S120 306.8 120 320zM176 184c0 13.25-10.75 24-24 24S128 197.2 128 184S138.8 160 152 160S176 170.8 176 184zM448 184c0 13.25-10.75 24-24 24S400 197.2 400 184S410.8 160 424 160S448 170.8 448 184zM288 32c-159 0-288 129-288 288c0 52.75 14.25 102.3 39 144.8c5.625 9.625 16.38 15.25 27.5 15.25h443c11.12 0 21.88-5.625 27.5-15.25C561.8 422.3 576 372.8 576 320C576 161 447 32 288 32zM509.5 448H66.75C44 409.1 32 365.2 32 320c0-141.1 114.9-256 256-256s256 114.9 256 256C544 365.2 532 409.8 509.5 448zM504 320c0 13.25-10.75 24-24 24c-13.25 0-24-10.75-24-24S466.8 296 480 296C493.3 296 504 306.8 504 320z"/></svg>