<svg xmlns="http://www.w3.org/2000/svg" viewBox="0 0 576 512"><!--! Font Awesome Pro 6.0.0-alpha3 by @fontawesome - https://fontawesome.com License - https://fontawesome.com/license (Commercial License) --><path d="M304 290.2V128c0-8.875-7.125-16-16-16S272 119.1 272 128v162.2C244.5 297.4 224 322.2 224 352c0 35.38 28.62 64 64 64s64-28.62 64-64C352 322.2 331.5 297.4 304 290.2zM288 384c-17.62 0-32-14.38-32-32s14.38-32 32-32s32 14.38 32 32S305.6 384 288 384zM288 32c-159 0-288 129-288 288c0 52.75 14.25 102.3 39 144.8c5.625 9.625 16.38 15.25 27.5 15.25h443c11.12 0 21.88-5.625 27.5-15.25C561.8 422.3 576 372.8 576 320C576 161 447 32 288 32zM509.5 448H66.75C44 409.1 32 365.2 32 320c0-141.1 114.9-256 256-256s256 114.9 256 256C544 365.2 532 409.8 509.5 448z"/></svg>