<svg xmlns="http://www.w3.org/2000/svg" viewBox="0 0 576 512"><!--! Font Awesome Pro 6.0.0-alpha3 by @fontawesome - https://fontawesome.com License - https://fontawesome.com/license (Commercial License) --><path d="M411.5 174l-97 119.9C306.4 290.2 297.5 288 288 288c-35.38 0-64 28.62-64 64s28.62 64 64 64s64-28.62 64-64c0-14.25-4.875-27.25-12.75-38l97.13-120c5.625-6.75 4.5-16.88-2.375-22.5C427.1 166 417.1 167 411.5 174zM288 384c-17.62 0-32-14.38-32-32s14.38-31.1 32-31.1S320 334.4 320 352S305.6 384 288 384zM288 32c-159 0-288 129-288 288c0 52.75 14.25 102.3 39 144.8c5.625 9.625 16.38 15.25 27.5 15.25h443c11.12 0 21.88-5.625 27.5-15.25C561.8 422.3 576 372.8 576 320C576 161 447 32 288 32zM509.5 448H66.75C44 409.1 32 365.2 32 320c0-141.1 114.9-256 256-256s256 114.9 256 256C544 365.2 532 409.8 509.5 448z"/></svg>