<svg xmlns="http://www.w3.org/2000/svg" viewBox="0 0 576 512"><!--! Font Awesome Pro 6.0.0-alpha3 by @fontawesome - https://fontawesome.com License - https://fontawesome.com/license (Commercial License) --><path d="M120 320c0 13.25-10.75 24-24 24S72 333.2 72 320S82.75 296 96 296S120 306.8 120 320zM288 152c13.25 0 24-10.75 24-24S301.2 104 288 104S264 114.8 264 128S274.8 152 288 152zM352 352c0 35.38-28.62 64-64 64s-64-28.62-64-64c0-14.25 4.875-27.25 12.75-38l-97.13-120c-5.626-6.75-4.5-16.88 2.374-22.5C148.9 166 158.9 167 164.5 174L261.5 293.9C269.6 290.2 278.5 288 288 288C323.4 288 352 316.6 352 352zM320 352c0-17.62-14.38-31.1-32-31.1S256 334.4 256 352c0 17.62 14.38 32 32 32S320 369.6 320 352zM576 320c0 52.75-14.25 102.3-39 144.8c-5.625 9.625-16.38 15.25-27.5 15.25H66.5c-11.12 0-21.88-5.625-27.5-15.25C14.25 422.3 0 372.8 0 320c0-159 129-288 288-288S576 161 576 320zM544 320c0-141.1-114.9-256-256-256s-256 114.9-256 256c0 45.25 12 89.13 34.75 128H509.5C532 409.8 544 365.2 544 320zM424 160c-13.25 0-24 10.75-24 24s10.75 24 24 24S448 197.2 448 184S437.2 160 424 160zM480 296c-13.25 0-24 10.75-24 24s10.75 24 24 24c13.25 0 24-10.75 24-24S493.3 296 480 296z"/></svg>