<svg xmlns="http://www.w3.org/2000/svg" viewBox="0 0 576 512"><!--! Font Awesome Pro 6.0.0-alpha3 by @fontawesome - https://fontawesome.com License - https://fontawesome.com/license (Commercial License) --><path d="M288 32c-159 0-288 129-288 288c0 52.75 14.25 102.3 39 144.8c5.625 9.625 16.38 15.25 27.5 15.25h443c11.12 0 21.88-5.625 27.5-15.25C561.8 422.3 576 372.8 576 320C576 161 447 32 288 32zM509.5 448H66.75C44 409.1 32 365.2 32 320c0-141.1 114.9-256 256-256s256 114.9 256 256C544 365.2 532 409.8 509.5 448zM288 288c-26.12 0-48.5 15.62-58.38 38L98.62 304.2C90.12 302.8 81.62 308.6 80.25 317.4c-1.5 8.75 4.375 17 13.13 18.38l131.2 21.87C227.5 390.2 254.6 416 288 416c35.38 0 64-28.62 64-64S323.4 288 288 288zM288 384c-17.62 0-32-14.38-32-32s14.38-31.1 32-31.1S320 334.4 320 352S305.6 384 288 384z"/></svg>