<svg xmlns="http://www.w3.org/2000/svg" viewBox="0 0 576 512"><!--! Font Awesome Pro 6.0.0-alpha3 by @fontawesome - https://fontawesome.com License - https://fontawesome.com/license (Commercial License) --><path d="M128 184C128 170.8 138.8 160 152 160S176 170.8 176 184S165.2 208 152 208S128 197.2 128 184zM288 152c13.25 0 24-10.75 24-24S301.2 104 288 104S264 114.8 264 128S274.8 152 288 152zM576 320c0 52.75-14.25 102.3-39 144.8c-5.625 9.625-16.38 15.25-27.5 15.25H66.5c-11.12 0-21.88-5.625-27.5-15.25C14.25 422.3 0 372.8 0 320c0-159 129-288 288-288S576 161 576 320zM544 320c0-141.1-114.9-256-256-256s-256 114.9-256 256c0 45.25 12 89.13 34.75 128H509.5C532 409.8 544 365.2 544 320zM352 352c0 35.38-28.62 64-64 64c-33.38 0-60.5-25.75-63.38-58.38L93.38 335.8c-8.75-1.375-14.62-9.625-13.13-18.38c1.375-8.75 9.875-14.62 18.38-13.13L229.6 326C239.5 303.6 261.9 288 288 288C323.4 288 352 316.6 352 352zM320 352c0-17.62-14.38-31.1-32-31.1S256 334.4 256 352c0 17.62 14.38 32 32 32S320 369.6 320 352zM480 296c-13.25 0-24 10.75-24 24s10.75 24 24 24c13.25 0 24-10.75 24-24S493.3 296 480 296zM424 160c-13.25 0-24 10.75-24 24s10.75 24 24 24S448 197.2 448 184S437.2 160 424 160z"/></svg>