<svg xmlns="http://www.w3.org/2000/svg" viewBox="0 0 576 512"><!--! Font Awesome Pro 6.0.0-alpha3 by @fontawesome - https://fontawesome.com License - https://fontawesome.com/license (Commercial License) --><path d="M120 320c0 13.25-10.75 24-24 24S72 333.2 72 320S82.75 296 96 296S120 306.8 120 320zM288 152c13.25 0 24-10.75 24-24S301.2 104 288 104S264 114.8 264 128S274.8 152 288 152zM424 208C437.2 208 448 197.2 448 184S437.2 160 424 160S400 170.8 400 184S410.8 208 424 208zM495.8 317.4c1.5 8.75-4.375 17-13.12 18.38l-131.3 21.87C348.5 390.2 321.4 416 288 416c-35.38 0-64-28.62-64-64s28.62-64 64-64c26.12 0 48.5 15.62 58.38 38l131-21.75C485.9 302.8 494.3 308.6 495.8 317.4zM320 352c0-17.62-14.38-31.1-32-31.1S256 334.4 256 352c0 17.62 14.38 32 32 32S320 369.6 320 352zM152 160C138.8 160 128 170.8 128 184S138.8 208 152 208S176 197.2 176 184S165.2 160 152 160zM576 320c0 52.75-14.25 102.3-39 144.8c-5.625 9.625-16.38 15.25-27.5 15.25H66.5c-11.12 0-21.88-5.625-27.5-15.25C14.25 422.3 0 372.8 0 320c0-159 129-288 288-288S576 161 576 320zM544 320c0-141.1-114.9-256-256-256s-256 114.9-256 256c0 45.25 12 89.13 34.75 128H509.5C532 409.8 544 365.2 544 320z"/></svg>