<svg xmlns="http://www.w3.org/2000/svg" viewBox="0 0 640 512"><!--! Font Awesome Pro 6.0.0-alpha3 by @fontawesome - https://fontawesome.com License - https://fontawesome.com/license (Commercial License) --><path d="M582.7 224.7C588.5 215.1 592 203.1 592 192c0-35.3-28.72-64-64-64c-39.4 0-74.22 42.03-96 76.07C410.2 170 375.4 128 336 128c-35.28 0-64 28.7-64 64c0 11.98 3.516 23.08 9.271 32.68C249.1 228.1 224 254.1 224 287.1v160C224 483.3 252.7 512 288 512h288c35.35 0 64-28.66 64-64V287.1C640 254.1 614.9 228.1 582.7 224.7zM336 160c19.23 0 46.17 25.02 70.66 64l-70.67 .0052C318.3 224 304 209.6 304 192S318.3 160 336 160zM416 480H288c-17.64 0-32-14.36-32-32v-64l160 .0039V480zM416 352L256 352V288c0-17.64 14.36-32 32-32h128V352zM528 160c17.66 0 32 14.36 32 32s-14.33 32.01-31.99 32.01L457.3 224C481.8 185 508.8 160 528 160zM608 448c0 17.64-14.36 32-32 32h-128v-95.1L608 384V448zM608 352l-160 .0039V256h128c17.64 0 32 14.36 32 32V352zM176 480H64c-17.67 0-32-14.33-32-32V160c0-17.67 14.33-32 32-32h176C248.8 128 256 120.8 256 112S248.8 96 240 96H215.8l48.7-30.44c7.5-4.672 9.781-14.55 5.094-22.05C264.9 36 254.1 33.77 247.5 38.44L199.7 68.29l22.57-45.14c3.938-7.906 .75-17.52-7.156-21.47c-7.875-3.906-17.5-.7344-21.47 7.156L160 76.22L126.3 8.844C122.3 .9219 112.8-2.25 104.8 1.688C96.94 5.641 93.75 15.25 97.69 23.16l22.57 45.14L72.47 38.44C65.06 33.77 55.13 36 50.44 43.52C45.75 51.02 48.03 60.89 55.53 65.56L104.2 96H64C28.65 96 0 124.7 0 160v288c0 35.35 28.65 64 64 64h112C184.8 512 192 504.8 192 496S184.8 480 176 480z"/></svg>