<svg xmlns="http://www.w3.org/2000/svg" viewBox="0 0 576 512"><!--! Font Awesome Pro 6.0.0-alpha3 by @fontawesome - https://fontawesome.com License - https://fontawesome.com/license (Commercial License) --><path d="M512 128h-32.4C489.7 114.6 496 98.08 496 80C496 35.89 460.1 0 416 0c-52.93 0-100.1 60.63-128 106C260.1 60.63 212.9 0 160 0C115.9 0 80 35.89 80 80c0 18.08 6.254 34.59 16.4 48H64C28.65 128 .0001 156.7 .0001 192v256c0 35.35 28.65 64 63.1 64h448c35.35 0 64-28.65 64-64V192C576 156.7 547.3 128 512 128zM416 32c26.47 0 48 21.53 48 48S442.5 128 416 128h-103.9C347.3 69.01 386.8 32 416 32zM160 32c29.22 0 68.67 37.01 103.9 96H160C133.5 128 112 106.5 112 80S133.5 32 160 32zM544 448c0 17.64-14.36 32-32 32H64c-17.64 0-32-14.36-32-32v-80h512V448zM544 336H32V192c0-17.64 14.36-32 32-32h180.8L165.6 227.9C158.9 233.6 158.1 243.7 163.8 250.4C172.5 260.5 183.9 254.3 186.4 252.1L288 165.1l101.6 87.08c2.539 2.195 13.88 8.348 22.56-1.734c5.75-6.703 4.969-16.8-1.75-22.55L331.2 160H512c17.64 0 32 14.36 32 32V336z"/></svg>