<svg xmlns="http://www.w3.org/2000/svg" viewBox="0 0 512 512"><!--! Font Awesome Pro 6.0.0-alpha3 by @fontawesome - https://fontawesome.com License - https://fontawesome.com/license (Commercial License) --><path d="M448 128h-.4043c11.83-15.64 18.37-35.48 15.88-57.12c-2.67-23.17-17.02-43.45-36.28-56.6C357.5-33.31 291.3 48.56 256 106C220.7 48.56 154.5-33.31 84.81 14.28c-19.26 13.15-33.61 33.43-36.28 56.6C46.03 92.52 52.57 112.4 64.4 128H64C28.65 128 0 156.7 0 192v64c0 17.67 14.33 32 32 32L32 448c0 35.35 28.65 64 64 64h320c35.35 0 64-28.65 64-64l.0001-160C497.7 288 512 273.7 512 256V192C512 156.7 483.3 128 448 128zM384 32c26.47 0 48 21.53 48 48S410.5 128 384 128h-103.9C315.3 69.01 354.8 32 384 32zM128 32c29.22 0 68.67 37.01 103.9 96H128C101.5 128 80 106.5 80 80S101.5 32 128 32zM32 255.1L32 192c0-17.64 14.36-32 32.4-32H240v95.87L32 255.1zM96 480c-17.67 0-32-14.33-32-32V288h176v192H96zM448 448c0 17.67-14.33 32-32 32h-144V288H448V448zM480 255.1L272 255.9V160H448c17.64 0 32 14.36 32 32L480 255.1z"/></svg>