<svg xmlns="http://www.w3.org/2000/svg" viewBox="0 0 448 512"><!--! Font Awesome Pro 6.0.0-alpha3 by @fontawesome - https://fontawesome.com License - https://fontawesome.com/license (Commercial License) --><path d="M368.1 480h-128v-50.51c146.1-19.6 207.9-147.5 207.9-237.3c0-52.9-17.39-105.9-52.04-149.4l15.47-15.46C414.5 24.19 416.1 20.09 416.1 16c0-8.555-6.9-16-16-16c-4.095 0-8.189 1.562-11.31 4.688l-71.25 71.23c-28.67-27.04-67.09-43.92-109.5-43.92c-88.24 0-160 71.78-160 159.1c0 42.42 16.89 80.79 43.94 109.5l-87.26 87.23C1.563 391.8 .0005 395.9 .0005 400c0 8.574 6.916 16 16 16c4.096 0 8.189-1.562 11.31-4.688l31.47-31.46c43.54 34.62 96.37 52.03 149.3 52.03V480H80.02c-8.846 0-16 7.156-16 16S71.17 512 80.02 512h288.1c8.846 0 16-7.156 16-16S376.9 480 368.1 480zM80 192c0-70.59 57.41-128 128-128s128 57.41 128 128s-57.41 128-128 128S80 262.6 80 192zM208.3 399.8c-44.7 0-89.42-14.28-126.7-42.8l34.44-34.43c26.07 18.41 57.64 29.45 91.9 29.45c88.24 0 160-71.78 160-159.1c0-34.26-10.98-65.86-29.39-91.92l34.45-34.44c28.53 37.22 42.87 81.79 42.87 126.5C415.9 309.9 320.3 399.8 208.3 399.8z"/></svg>