<svg xmlns="http://www.w3.org/2000/svg" viewBox="0 0 512 512"><!--! Font Awesome Pro 6.0.0-alpha3 by @fontawesome - https://fontawesome.com License - https://fontawesome.com/license (Commercial License) --><path d="M256 16C123.5 16 16 123.5 16 256s107.5 240 240 240s239.1-107.5 239.1-240S388.5 16 256 16zM464 256c0 22.34-3.633 43.82-10.18 64h-74.56c3.008-20.4 4.744-41.8 4.744-64s-1.736-43.6-4.744-64h74.56C460.4 212.2 464 233.7 464 256zM256 464c-32.23 0-66.98-43.18-84.49-112h168.1C322.1 420.8 288.2 464 256 464zM164.9 320C161.8 300.1 160 278.7 160 256s1.754-44.14 4.875-64h182.3c3.121 19.86 4.875 41.28 4.875 64s-1.754 44.14-4.875 64H164.9zM48 256c0-22.34 3.633-43.82 10.18-64h74.56c-3.008 20.4-4.744 41.8-4.744 64s1.736 43.6 4.744 64H58.18C51.63 299.8 48 278.3 48 256zM256 48c32.23 0 66.98 43.18 84.49 112H171.5C189 91.18 223.8 48 256 48zM440.3 160H373.3c-9.131-39.15-23.7-72.71-41.88-97.64C378.4 80.73 417.1 115.6 440.3 160zM180.6 62.36C162.4 87.29 147.9 120.8 138.7 160H71.66C94.87 115.6 133.6 80.73 180.6 62.36zM71.66 352H138.7c9.131 39.15 23.7 72.71 41.88 97.64C133.6 431.3 94.87 396.4 71.66 352zM331.4 449.6C349.6 424.7 364.1 391.2 373.3 352h67.06C417.1 396.4 378.4 431.3 331.4 449.6z"/></svg>