<svg xmlns="http://www.w3.org/2000/svg" viewBox="0 0 512 512"><!--! Font Awesome Pro 6.0.0-alpha3 by @fontawesome - https://fontawesome.com License - https://fontawesome.com/license (Commercial License) --><path d="M503.2 1.695c-7.922-3.969-17.5-.7187-21.47 7.156L295.3 381.7l-236.9-52.63c-14.25-3.188-29.03 .25-40.45 9.406C6.547 347.6 0 361.3 0 375.9V464C0 490.5 21.53 512 48 512h207.1c6.062 0 11.59-3.438 14.31-8.844l239.1-479.1C514.3 15.26 511.1 5.664 503.2 1.695zM246.1 480H48C39.17 480 32 472.8 32 464h48c8.842 0 15.1-7.156 15.1-16S88.84 431.1 80 431.1L32 432V416h48c8.842 0 15.1-7.156 15.1-16S88.84 384 80 384H32v-8.094c0-4.875 2.188-9.438 5.984-12.5c2.875-2.312 6.391-3.531 9.984-3.531c1.156 0 2.328 .1562 3.5 .4062l229.1 50.91L246.1 480z"/></svg>