<svg xmlns="http://www.w3.org/2000/svg" viewBox="0 0 512 512"><!--! Font Awesome Pro 6.0.0-alpha3 by @fontawesome - https://fontawesome.com License - https://fontawesome.com/license (Commercial License) --><path d="M277.3 416H234.6c-23.61 0-42.75 19.14-42.75 42.75V496c0 8.799 7.283 16 16.08 16s15.92-7.201 15.92-16v-37.25C223.9 452.8 228.7 448 234.6 448h42.63C283.2 448 288 452.8 288 458.8V496c0 8.799 7.199 16 16 16S320 504.8 320 496v-37.25C320 435.1 300.9 416 277.3 416zM496 352h-15.1l-.0001-112c0-8.801-7.199-16-16-16h-15.1V144c0-8.801-7.199-16-16-16h-15.1l0-112c0-8.75-7.25-16-16-16s-16 7.25-16 16L384 32h-64l0-16c0-8.75-7.25-16-16-16s-16 7.25-16 16V32h-64V16c0-8.75-7.25-16-16-16s-16 7.25-16 16L192 32H128L128 16c0-8.75-7.25-16-16-16s-16 7.25-16 16L96 128H80C71.2 128 64 135.2 64 144V224H48c-8.801 0-16 7.199-16 16L32 352H16c-8.801 0-16 7.199-16 16l0 128c0 8.799 7.199 16 16 16S32 504.8 32 496V384h64v112C96 504.8 103.2 512 111.1 512S128 504.8 128 496V384h256v112c0 8.799 7.199 16 16 16s16-7.201 16-16V384h64v112c0 8.799 7.199 16 16 16s16-7.201 16-16v-128C512 359.2 504.8 352 496 352zM128 64h256v64H128V64zM256 192C247.2 192 240 199.2 240 208L240 224H191.1L191.9 160h128l.1001 64h-47.97L272 208C272 199.2 264.8 192 256 192zM128 352H64V256h64L128 352zM160 224H96V160h64L160 224zM271.9 352H240v-26.75C240 322.3 242.4 320 245.3 320h21.38c3 0 5.25 2.375 5.25 5.25V352zM352 352h-48.02L304 325.3C304 304.8 287.3 288 266.8 288H245.4c-20.62 0-37.25 16.75-37.25 37.25L208.1 352h-48.04l.0999-96h192L352 352zM352 224L352 160h64v64H352zM448 352h-63.1L384 256h64V352z"/></svg>