<svg xmlns="http://www.w3.org/2000/svg" viewBox="0 0 512 512"><!--! Font Awesome Pro 6.0.0-alpha3 by @fontawesome - https://fontawesome.com License - https://fontawesome.com/license (Commercial License) --><path d="M464 0h-128C309.5 0 288 21.49 288 48v128C288 202.5 309.5 224 336 224h128C490.5 224 512 202.5 512 176v-128C512 21.49 490.5 0 464 0zM480 176C480 184.8 472.8 192 464 192h-128C327.2 192 320 184.8 320 176v-128C320 39.18 327.2 32 336 32h128C472.8 32 480 39.18 480 48V176zM176 288h-128C21.49 288 0 309.5 0 336v128C0 490.5 21.49 512 48 512h128C202.5 512 224 490.5 224 464v-128C224 309.5 202.5 288 176 288zM192 464C192 472.8 184.8 480 176 480h-128C39.18 480 32 472.8 32 464v-128C32 327.2 39.18 320 48 320h128C184.8 320 192 327.2 192 336V464zM176 0h-128C21.49 0 0 21.49 0 48v128C0 202.5 21.49 224 48 224h128C202.5 224 224 202.5 224 176v-128C224 21.49 202.5 0 176 0zM192 176C192 184.8 184.8 192 176 192h-128C39.18 192 32 184.8 32 176v-128C32 39.18 39.18 32 48 32h128C184.8 32 192 39.18 192 48V176zM496 384H416V304C416 295.2 408.8 288 400 288S384 295.2 384 304V384h-80c-8.844 0-16 7.156-16 16s7.156 16 16 16H384v80c0 8.844 7.156 16 16 16s16-7.156 16-16V416h80c8.844 0 16-7.156 16-16S504.8 384 496 384z"/></svg>