<svg xmlns="http://www.w3.org/2000/svg" viewBox="0 0 512 512"><!--! Font Awesome Pro 6.0.0-alpha3 by @fontawesome - https://fontawesome.com License - https://fontawesome.com/license (Commercial License) --><path d="M160 0H128C119.2 0 112 7.164 112 16v32C112 56.84 119.2 64 128 64h32c8.838 0 16-7.164 16-16v-32C176 7.164 168.8 0 160 0zM272 0h-32C231.2 0 224 7.164 224 16v32C224 56.84 231.2 64 240 64h32C280.8 64 288 56.84 288 48v-32C288 7.164 280.8 0 272 0zM384 0h-32c-8.836 0-16 7.164-16 16v32C336 56.84 343.2 64 352 64h32c8.838 0 16-7.164 16-16v-32C400 7.164 392.8 0 384 0zM496 0h-32C455.2 0 448 7.164 448 16v32C448 56.84 455.2 64 464 64h32C504.8 64 512 56.84 512 48v-32C512 7.164 504.8 0 496 0zM48 0h-32C7.164 0 0 7.164 0 16v32C0 56.84 7.164 64 16 64h32C56.84 64 64 56.84 64 48v-32C64 7.164 56.84 0 48 0zM496 448h-32c-8.836 0-16 7.164-16 16v32c0 8.836 7.164 16 16 16h32c8.838 0 16-7.164 16-16v-32C512 455.2 504.8 448 496 448zM384 448h-32c-8.836 0-16 7.164-16 16v32c0 8.836 7.164 16 16 16h32c8.838 0 16-7.164 16-16v-32C400 455.2 392.8 448 384 448zM272 448h-32C231.2 448 224 455.2 224 464v32C224 504.8 231.2 512 240 512h32c8.838 0 16-7.164 16-16v-32C288 455.2 280.8 448 272 448zM48 448h-32C7.164 448 0 455.2 0 464v32C0 504.8 7.164 512 16 512h32C56.84 512 64 504.8 64 496v-32C64 455.2 56.84 448 48 448zM160 448H128c-8.836 0-16 7.164-16 16v32C112 504.8 119.2 512 128 512h32c8.838 0 16-7.164 16-16v-32C176 455.2 168.8 448 160 448zM48 336h-32C7.164 336 0 343.2 0 352v32c0 8.836 7.164 16 16 16h32C56.84 400 64 392.8 64 384v-32C64 343.2 56.84 336 48 336zM272 336h-32C231.2 336 224 343.2 224 352v32c0 8.836 7.164 16 16 16h32c8.838 0 16-7.164 16-16v-32C288 343.2 280.8 336 272 336zM160 336H128c-8.836 0-16 7.164-16 16v32c0 8.836 7.164 16 16 16h32c8.838 0 16-7.164 16-16v-32C176 343.2 168.8 336 160 336zM384 336h-32c-8.836 0-16 7.164-16 16v32c0 8.836 7.164 16 16 16h32c8.838 0 16-7.164 16-16v-32C400 343.2 392.8 336 384 336zM496 336h-32c-8.836 0-16 7.164-16 16v32c0 8.836 7.164 16 16 16h32c8.838 0 16-7.164 16-16v-32C512 343.2 504.8 336 496 336zM272 224h-32C231.2 224 224 231.2 224 240v32C224 280.8 231.2 288 240 288h32C280.8 288 288 280.8 288 272v-32C288 231.2 280.8 224 272 224zM384 224h-32c-8.836 0-16 7.164-16 16v32C336 280.8 343.2 288 352 288h32c8.838 0 16-7.164 16-16v-32C400 231.2 392.8 224 384 224zM496 224h-32C455.2 224 448 231.2 448 240v32C448 280.8 455.2 288 464 288h32C504.8 288 512 280.8 512 272v-32C512 231.2 504.8 224 496 224zM48 224h-32C7.164 224 0 231.2 0 240v32C0 280.8 7.164 288 16 288h32C56.84 288 64 280.8 64 272v-32C64 231.2 56.84 224 48 224zM160 224H128C119.2 224 112 231.2 112 240v32C112 280.8 119.2 288 128 288h32c8.838 0 16-7.164 16-16v-32C176 231.2 168.8 224 160 224zM496 112h-32C455.2 112 448 119.2 448 128v32c0 8.836 7.164 16 16 16h32C504.8 176 512 168.8 512 160V128C512 119.2 504.8 112 496 112zM384 112h-32c-8.836 0-16 7.164-16 16v32c0 8.836 7.164 16 16 16h32c8.838 0 16-7.164 16-16V128C400 119.2 392.8 112 384 112zM160 112H128C119.2 112 112 119.2 112 128v32c0 8.836 7.164 16 16 16h32c8.838 0 16-7.164 16-16V128C176 119.2 168.8 112 160 112zM272 112h-32C231.2 112 224 119.2 224 128v32c0 8.836 7.164 16 16 16h32C280.8 176 288 168.8 288 160V128C288 119.2 280.8 112 272 112zM48 112h-32C7.164 112 0 119.2 0 128v32c0 8.836 7.164 16 16 16h32C56.84 176 64 168.8 64 160V128C64 119.2 56.84 112 48 112z"/></svg>