<svg xmlns="http://www.w3.org/2000/svg" viewBox="0 0 640 512"><!--! Font Awesome Pro 6.0.0-alpha3 by @fontawesome - https://fontawesome.com License - https://fontawesome.com/license (Commercial License) --><path d="M128 288H64c-26.51 0-48 21.49-48 48v64C16 426.5 37.49 448 64 448h64c26.51 0 48-21.49 48-48v-64C176 309.5 154.5 288 128 288zM144 400C144 408.8 136.8 416 128 416H64c-8.822 0-16-7.178-16-16v-64C48 327.2 55.18 320 64 320h64c8.822 0 16 7.178 16 16V400zM352 288H288c-26.51 0-48 21.49-48 48v64C240 426.5 261.5 448 288 448h64c26.51 0 48-21.49 48-48v-64C400 309.5 378.5 288 352 288zM368 400c0 8.822-7.178 16-16 16H288c-8.822 0-16-7.178-16-16v-64C272 327.2 279.2 320 288 320h64c8.822 0 16 7.178 16 16V400zM576 288h-64c-26.51 0-48 21.49-48 48v64c0 26.51 21.49 48 48 48h64c26.51 0 48-21.49 48-48v-64C624 309.5 602.5 288 576 288zM592 400c0 8.822-7.178 16-16 16h-64c-8.822 0-16-7.178-16-16v-64c0-8.822 7.178-16 16-16h64c8.822 0 16 7.178 16 16V400zM128 64H64C37.49 64 16 85.49 16 112v64C16 202.5 37.49 224 64 224h64c26.51 0 48-21.49 48-48v-64C176 85.49 154.5 64 128 64zM144 176C144 184.8 136.8 192 128 192H64C55.18 192 48 184.8 48 176v-64C48 103.2 55.18 96 64 96h64c8.822 0 16 7.178 16 16V176zM352 64H288C261.5 64 240 85.49 240 112v64C240 202.5 261.5 224 288 224h64c26.51 0 48-21.49 48-48v-64C400 85.49 378.5 64 352 64zM368 176C368 184.8 360.8 192 352 192H288C279.2 192 272 184.8 272 176v-64C272 103.2 279.2 96 288 96h64c8.822 0 16 7.178 16 16V176zM576 64h-64c-26.51 0-48 21.49-48 48v64C464 202.5 485.5 224 512 224h64c26.51 0 48-21.49 48-48v-64C624 85.49 602.5 64 576 64zM592 176C592 184.8 584.8 192 576 192h-64c-8.822 0-16-7.178-16-16v-64C496 103.2 503.2 96 512 96h64c8.822 0 16 7.178 16 16V176z"/></svg>