<svg xmlns="http://www.w3.org/2000/svg" viewBox="0 0 320 512"><!--! Font Awesome Pro 6.0.0-alpha3 by @fontawesome - https://fontawesome.com License - https://fontawesome.com/license (Commercial License) --><path d="M128 112v-32C128 53.49 106.5 32 80 32h-32C21.49 32 0 53.49 0 80v32C0 138.5 21.49 160 48 160h32C106.5 160 128 138.5 128 112zM48 128C39.18 128 32 120.8 32 112v-32C32 71.18 39.18 64 48 64h32C88.82 64 96 71.18 96 80v32C96 120.8 88.82 128 80 128H48zM320 112v-32C320 53.49 298.5 32 272 32h-32C213.5 32 192 53.49 192 80v32C192 138.5 213.5 160 240 160h32C298.5 160 320 138.5 320 112zM240 128C231.2 128 224 120.8 224 112v-32C224 71.18 231.2 64 240 64h32C280.8 64 288 71.18 288 80v32C288 120.8 280.8 128 272 128H240zM320 272v-32C320 213.5 298.5 192 272 192h-32C213.5 192 192 213.5 192 240v32c0 26.51 21.49 48 48 48h32C298.5 320 320 298.5 320 272zM240 288C231.2 288 224 280.8 224 272v-32C224 231.2 231.2 224 240 224h32C280.8 224 288 231.2 288 240v32C288 280.8 280.8 288 272 288H240zM320 432v-32c0-26.51-21.49-48-48-48h-32c-26.51 0-48 21.49-48 48v32c0 26.51 21.49 48 48 48h32C298.5 480 320 458.5 320 432zM240 448c-8.822 0-16-7.178-16-16v-32c0-8.822 7.178-16 16-16h32c8.822 0 16 7.178 16 16v32c0 8.822-7.178 16-16 16H240zM128 432v-32C128 373.5 106.5 352 80 352h-32C21.49 352 0 373.5 0 400v32C0 458.5 21.49 480 48 480h32C106.5 480 128 458.5 128 432zM48 448C39.18 448 32 440.8 32 432v-32C32 391.2 39.18 384 48 384h32C88.82 384 96 391.2 96 400v32C96 440.8 88.82 448 80 448H48zM128 272v-32C128 213.5 106.5 192 80 192h-32C21.49 192 0 213.5 0 240v32C0 298.5 21.49 320 48 320h32C106.5 320 128 298.5 128 272zM48 288C39.18 288 32 280.8 32 272v-32C32 231.2 39.18 224 48 224h32C88.82 224 96 231.2 96 240v32C96 280.8 88.82 288 80 288H48z"/></svg>