<svg xmlns="http://www.w3.org/2000/svg" viewBox="0 0 448 512"><!--! Font Awesome Pro 6.0.0-alpha3 by @fontawesome - https://fontawesome.com License - https://fontawesome.com/license (Commercial License) --><path d="M80 288h-32C21.49 288 0 309.5 0 336v32C0 394.5 21.49 416 48 416h32C106.5 416 128 394.5 128 368v-32C128 309.5 106.5 288 80 288zM96 368C96 376.8 88.82 384 80 384h-32C39.18 384 32 376.8 32 368v-32C32 327.2 39.18 320 48 320h32C88.82 320 96 327.2 96 336V368zM80 96h-32C21.49 96 0 117.5 0 144v32C0 202.5 21.49 224 48 224h32C106.5 224 128 202.5 128 176v-32C128 117.5 106.5 96 80 96zM96 176C96 184.8 88.82 192 80 192h-32C39.18 192 32 184.8 32 176v-32C32 135.2 39.18 128 48 128h32C88.82 128 96 135.2 96 144V176zM240 96h-32C181.5 96 160 117.5 160 144v32C160 202.5 181.5 224 208 224h32C266.5 224 288 202.5 288 176v-32C288 117.5 266.5 96 240 96zM256 176C256 184.8 248.8 192 240 192h-32C199.2 192 192 184.8 192 176v-32C192 135.2 199.2 128 208 128h32C248.8 128 256 135.2 256 144V176zM400 96h-32C341.5 96 320 117.5 320 144v32C320 202.5 341.5 224 368 224h32C426.5 224 448 202.5 448 176v-32C448 117.5 426.5 96 400 96zM416 176C416 184.8 408.8 192 400 192h-32C359.2 192 352 184.8 352 176v-32C352 135.2 359.2 128 368 128h32C408.8 128 416 135.2 416 144V176zM400 288h-32C341.5 288 320 309.5 320 336v32c0 26.51 21.49 48 48 48h32c26.51 0 48-21.49 48-48v-32C448 309.5 426.5 288 400 288zM416 368c0 8.822-7.178 16-16 16h-32c-8.822 0-16-7.178-16-16v-32c0-8.822 7.178-16 16-16h32c8.822 0 16 7.178 16 16V368zM240 288h-32C181.5 288 160 309.5 160 336v32C160 394.5 181.5 416 208 416h32c26.51 0 48-21.49 48-48v-32C288 309.5 266.5 288 240 288zM256 368c0 8.822-7.178 16-16 16h-32C199.2 384 192 376.8 192 368v-32C192 327.2 199.2 320 208 320h32c8.822 0 16 7.178 16 16V368z"/></svg>