<svg xmlns="http://www.w3.org/2000/svg" viewBox="0 0 384 512"><!--! Font Awesome Pro 6.0.0-alpha3 by @fontawesome - https://fontawesome.com License - https://fontawesome.com/license (Commercial License) --><path d="M352 224h-143.1V96.41c35.49 .0273 71.16 11.22 100.1 35.53c6.81 5.547 16.93 4.578 22.52-2.297c5.561-6.844 4.586-16.92-2.256-22.52c-35.79-29.19-78.64-42.62-121.2-42.64V16c0-8.844-7.144-16-15.98-16C183.2 0 176.1 7.156 176.1 16v51.16C133.5 74.4 93.09 95.25 62.37 130.9c-61.51 71.3-61.51 178.1 0 250.3c29.75 34.48 70.4 55.57 113.7 63.08V496c0 8.844 7.164 16 16 16c8.841 0 15.98-7.156 15.98-16v-48.68c1.064 .0156 2.122 .1621 3.186 .1621c43.99-.0156 88.09-13.98 123.7-43.04C355.9 385.3 368 357.1 368 329.6V240C368 231.2 360.8 224 352 224zM86.38 360.2c-51.26-59.38-51.26-148.9 0-208.3C110.7 123.6 142.5 106.5 176.1 99.62v311.9C141.1 404.4 109.1 387.5 86.38 360.2zM336 329.6c0 19.39-8.216 38.02-21.93 50.5c-30.32 24.75-68.3 35.75-106 35.04V256h127.1V329.6z"/></svg>