<svg xmlns="http://www.w3.org/2000/svg" viewBox="0 0 640 512"><!--! Font Awesome Pro 6.0.0-alpha3 by @fontawesome - https://fontawesome.com License - https://fontawesome.com/license (Commercial License) --><path d="M624 416c-8.822 0-16 7.178-16 16c0 26.47-21.53 48-48 48h-320c-8.822 0-16.02 7.178-16.02 16S231.2 512 239.1 512H560c44.11 0 80-35.89 80-80C640 423.2 632.8 416 624 416zM304 400h264c22.06 0 40-17.94 40-40C608 232.1 503.9 128 376 128H368V32h192C568.8 32 576 24.82 576 16S568.8 0 560 0h-416C135.2 0 128 7.178 128 16S135.2 32 144 32h192v96H119.5L78.72 73.6C74.21 67.59 67.03 64 59.52 64H24.01C16.57 64 9.672 67.36 5.094 73.23C.5137 79.09-1.078 86.6 .7266 93.82l23.06 92.25c3.107 12.43 12.06 22.68 23.95 27.44l139.2 57.13L271.1 384C279.5 394 291.5 400 304 400zM416 164C507.2 182.6 576 263.4 576 360c0 4.41-3.588 8-8 8H416V164zM207.3 244.4L59.63 183.8C57.28 182.9 55.45 180.8 54.83 178.3L34.26 96h21.26l47.1 64H376c2.701 0 5.326 .2988 8 .4062V368H304c-2.469 0-4.922-1.227-6.4-3.199L207.3 244.4z"/></svg>