<svg xmlns="http://www.w3.org/2000/svg" viewBox="0 0 640 512"><!--! Font Awesome Pro 6.0.0-alpha3 by @fontawesome - https://fontawesome.com License - https://fontawesome.com/license (Commercial License) --><path d="M226.6 215.2C229.4 220.8 234.1 224 240.8 224c2.375 0 4.779-.5313 7.047-1.688c7.803-3.969 10.96-13.56 7.062-21.47l-93.22-139.8c-4.904-9.906-.9102-22.03 8.852-27c9.578-4.781 21.48-1 26.48 8.688L269.4 136.5c4.041 7.812 13.63 10.78 21.31 6.75c7.727-4.125 10.72-13.78 6.662-21.62L224.1 27.92c-12.89-25-43.66-35.13-68.58-22.47C131.1 18.33 120.7 49.7 133.4 75.39L226.6 215.2zM592 336h-192c-8.844 0-16 7.156-16 16s7.156 16 16 16h128V480h-104.5c-18.3 0-34.73-10.16-42.92-26.53l-10.59-21.19c-3.953-7.875-13.56-11.12-21.47-7.156s-11.11 13.56-7.156 21.47L352 467.8C365.6 495.1 393 512 423.5 512H592c26.47 0 48-21.66 48-48.13v-79.88C640 357.5 618.5 336 592 336zM608 464c0 8.812-7.172 16-16 16h-32v-112L592 368c8.828 0 16 7.188 16 16V464zM483.2 5.457c-25.23-12.66-56.39-2.531-69.45 22.44L230.3 336H48c-26.47 0-48 21.52-48 47.99v79.88C0 490.3 21.53 512 48 512h168.5C246.1 512 274.4 495.1 288 467.8l218.5-392.4C519.4 49.71 508.9 18.33 483.2 5.457zM80 480h-32C39.17 480 32 472.8 32 464V384c0-8.812 7.172-16 16-16l32-.0156V480zM477.9 61.08l-218.5 392.4C251.2 469.8 234.8 480 216.5 480H112v-112h128c5.953 0 11.41-3.312 14.17-8.562l187.9-316.7c5.078-9.594 17.12-13.53 26.8-8.656C478.8 39.05 482.9 51.18 477.9 61.08z"/></svg>