<svg xmlns="http://www.w3.org/2000/svg" viewBox="0 0 576 512"><!--! Font Awesome Pro 6.0.0-alpha3 by @fontawesome - https://fontawesome.com License - https://fontawesome.com/license (Commercial License) --><path d="M575.1 256c0-4.435-1.83-8.841-5.422-12l-271.1-240c-3.016-2.656-6.797-3.997-10.58-3.997S280.4 1.344 277.4 4l-271.1 240C1.831 247.2 .0011 251.6 .0011 256c0 8.92 7.238 15.99 16.04 15.99c3.757 0 7.52-1.313 10.54-3.993l37.42-33.02V432c0 44.13 35.89 80 79.1 80h287.1c44.11 0 79.1-35.88 79.1-80V234.1L549.4 268C552.5 270.7 556.2 272 559.1 272C568.7 272 575.1 264.9 575.1 256zM479.1 208v224c0 26.47-21.53 48-47.1 48H144c-26.47 0-47.1-21.53-47.1-48v-224c0-.377-.1895-.6914-.2148-1.062L288 37.34l192.2 169.6C480.2 207.3 479.1 207.6 479.1 208z"/></svg>