<svg xmlns="http://www.w3.org/2000/svg" viewBox="0 0 576 512"><!--! Font Awesome Pro 6.0.0-alpha3 by @fontawesome - https://fontawesome.com License - https://fontawesome.com/license (Commercial License) --><path d="M298.6 4c-3.016-2.656-6.797-3.997-10.58-3.997c-3.781 0-7.563 1.34-10.58 3.997l-271.1 240C1.831 247.2 .0005 251.6 .0005 256c0 8.874 7.196 15.99 16.05 15.99c3.755 0 7.514-1.313 10.53-3.993l37.42-33.02V432c0 44.13 35.89 80 79.1 80h287.1c44.11 0 79.1-35.88 79.1-80V234.1L549.4 268C552.5 270.7 556.2 272 559.1 272c8.727 0 16-7.061 16-15.1c0-4.435-1.831-8.841-5.423-12L298.6 4zM479.1 208v224c0 26.47-21.53 48-47.1 48H144c-26.47 0-47.1-21.53-47.1-48v-224c0-.377-.1895-.6914-.2148-1.062L288 37.34l192.2 169.6C480.2 207.3 479.1 207.6 479.1 208zM233.1 224c-29.2 0-57.1 25.53-57.1 59.68c0 15.4 5.833 30.8 17.49 42.57l84.67 85.6c2.751 2.75 6.236 4.152 9.8 4.152c3.564 0 7.049-1.402 9.8-4.152l84.81-85.6c11.62-11.74 17.43-27.09 17.43-42.45c0-34.16-27.9-59.79-57.15-59.79c-15.31 0-34.08 6.599-54.88 27.64C267.1 230.6 248.4 224 233.1 224zM233.9 255.1c9.342 0 18.15 4.955 22.78 9.504l31.39 31.75l31.39-31.75c4.538-4.616 13.28-9.535 22.58-9.535c13.33 0 26.11 11.72 26.11 27.45c0 7.683-3.061 15.16-8.176 20.33l-72.03 72.63L216.1 303.7c-5.19-5.188-8.286-12.69-8.286-20.39C207.8 269.4 218.9 255.1 233.9 255.1z"/></svg>