<svg xmlns="http://www.w3.org/2000/svg" viewBox="0 0 576 512"><!--! Font Awesome Pro 6.0.0-alpha3 by @fontawesome - https://fontawesome.com License - https://fontawesome.com/license (Commercial License) --><path d="M255.1 352c-44.18 0-79.1 35.82-79.1 79.1c0 8.835 7.164 15.1 15.1 15.1c8.836 0 16-7.162 16-15.1c0-26.51 21.49-47.1 47.1-47.1h63.1c26.51 0 47.1 21.49 47.1 47.1c0 8.835 7.164 15.1 15.1 15.1s15.1-7.164 15.1-15.1c0-44.18-35.82-79.1-79.1-79.1H255.1zM223.1 256c0 35.34 28.65 63.1 63.1 63.1s63.1-28.65 63.1-63.1s-28.65-63.1-63.1-63.1S223.1 220.7 223.1 256zM319.1 256c0 17.64-14.36 31.99-31.1 31.99c-17.64 0-31.1-14.35-31.1-31.99s14.36-31.1 31.1-31.1C305.6 224 319.1 238.4 319.1 256zM298.6 4.029C295.6 1.373 291.8 .0205 287.1 .0205S280.4 1.373 277.4 4.029L5.41 244c-3.582 3.159-5.41 7.563-5.41 11.1c0 8.828 7.137 15.1 16.01 15.1c3.757 0 7.533-1.313 10.59-3.993l37.41-33v196.1C64 476.1 99.88 512 144 512h287.1c44.12 0 79.1-35.87 79.1-79.1V235l37.41 33c3.062 2.687 6.812 3.1 10.59 3.1c8.84 0 16-7.159 16-16c0-4.432-1.828-8.836-5.41-11.1L298.6 4.029zM479.1 208v223.1c0 26.47-21.53 47.1-47.1 47.1H144c-26.47 0-47.1-21.53-47.1-47.1V208c0-.375-.1875-.6875-.2129-1.055l192.2-169.6l192.2 169.6C480.2 207.3 479.1 207.6 479.1 208z"/></svg>