<svg xmlns="http://www.w3.org/2000/svg" viewBox="0 0 576 512"><!--! Font Awesome Pro 6.0.0-alpha3 by @fontawesome - https://fontawesome.com License - https://fontawesome.com/license (Commercial License) --><path d="M512 96l-64 .0073V64c0-35.35-28.65-64-64-64H192C156.7 0 128 28.65 128 64v32.01L64 96C28.65 96 0 124.7 0 160v336C0 504.8 7.164 512 16 512S32 504.8 32 496V160c0-17.67 14.33-32 32-32h64v368C128 504.8 135.2 512 144 512S160 504.8 160 496V416h256v80c0 8.836 7.164 16 16 16s16-7.164 16-16V128h64c17.67 0 32 14.33 32 32v336c0 8.836 7.164 16 16 16s16-7.164 16-16V160C576 124.7 547.3 96 512 96zM416 384H160V288h256V384zM416 256H160V64c0-17.67 14.33-32 32-32h192c17.67 0 32 14.33 32 32V256zM341.3 106.7h-32v-32C309.3 68.77 304.6 64 298.7 64H277.3C271.4 64 266.7 68.77 266.7 74.67v32h-32C228.8 106.7 224 111.4 224 117.3v21.33c0 5.891 4.775 10.67 10.67 10.67h32v32C266.7 187.2 271.4 192 277.3 192h21.33c5.891 0 10.67-4.777 10.67-10.67v-32h32C347.2 149.3 352 144.6 352 138.7V117.3C352 111.4 347.2 106.7 341.3 106.7z"/></svg>