<svg xmlns="http://www.w3.org/2000/svg" viewBox="0 0 384 512"><!--! Font Awesome Pro 6.0.0-alpha3 by @fontawesome - https://fontawesome.com License - https://fontawesome.com/license (Commercial License) --><path d="M192 384c-35.28 .0508-64 28.47-64 63.85v48.09c0 8.824 7.199 16.05 16 16.05S160 504.8 160 495.1v-48.09c0-17.6 14.45-31.26 32-31.3c17.55 .043 32 13.7 32 31.3v48.09c0 8.824 7.199 16.05 16 16.05s16-7.23 16-16.05v-48.09C256 412.5 227.3 384.1 192 384zM245.3 106.7h-32v-32C213.3 68.77 208.6 64 202.7 64H181.3C175.4 64 170.7 68.77 170.7 74.67v32h-32C132.8 106.7 128 111.4 128 117.3v21.33c0 5.891 4.775 10.67 10.67 10.67h32v32C170.7 187.2 175.4 192 181.3 192h21.33c5.891 0 10.67-4.777 10.67-10.67v-32h32C251.2 149.3 256 144.6 256 138.7V117.3C256 111.4 251.2 106.7 245.3 106.7zM320 0H64C28.65 0 0 28.65 0 64v432C0 504.8 7.164 512 16 512S32 504.8 32 496V352h320v144c0 8.836 7.164 16 16 16s16-7.164 16-16V64C384 28.65 355.3 0 320 0zM352 320H32V256h320V320zM352 224H32V64c0-17.67 14.33-32 32-32h256c17.67 0 32 14.33 32 32V224z"/></svg>