<svg xmlns="http://www.w3.org/2000/svg" viewBox="0 0 640 512"><!--! Font Awesome Pro 6.0.0-alpha3 by @fontawesome - https://fontawesome.com License - https://fontawesome.com/license (Commercial License) --><path d="M480 320c53.02 0 96-42.98 96-96c0-53.02-42.98-96-96-96c-53.02 0-96 42.98-96 96C384 277 426.1 320 480 320zM480 160c35.29 0 64 28.71 64 64s-28.71 64-64 64s-64-28.71-64-64S444.7 160 480 160zM272 384H32V288h288v48c0 8.836 7.164 16 16 16s16-7.164 16-16V64c0-35.35-28.65-64-64-64H64C28.65 0 0 28.65 0 64v432C0 504.8 7.164 512 16 512S32 504.8 32 496V416h240C280.8 416 288 408.8 288 400C288 391.2 280.8 384 272 384zM32 64c0-17.67 14.33-32 32-32h224c17.67 0 32 14.33 32 32v192H32V64zM229.3 106.7h-32v-32C197.3 68.77 192.6 64 186.7 64H165.3C159.4 64 154.7 68.77 154.7 74.67v32h-32C116.8 106.7 112 111.4 112 117.3v21.33c0 5.891 4.775 10.67 10.67 10.67h32v32C154.7 187.2 159.4 192 165.3 192h21.33c5.891 0 10.67-4.777 10.67-10.67v-32h32C235.2 149.3 240 144.6 240 138.7V117.3C240 111.4 235.2 106.7 229.3 106.7zM512 352h-64c-70.69 0-128 57.31-128 128c0 17.67 14.33 32 32 32h256c17.67 0 32-14.33 32-32C640 409.3 582.7 352 512 352zM352 480c0-52.94 43.07-96 96-96h64c52.94 0 96 43.06 96 96H352z"/></svg>