<svg xmlns="http://www.w3.org/2000/svg" viewBox="0 0 576 512"><!--! Font Awesome Pro 6.0.0-alpha3 by @fontawesome - https://fontawesome.com License - https://fontawesome.com/license (Commercial License) --><path d="M213.3 202.7h-32v-32C181.3 164.8 176.6 160 170.7 160H149.3C143.4 160 138.7 164.8 138.7 170.7v32h-32C100.8 202.7 96 207.4 96 213.3v21.33c0 5.891 4.775 10.67 10.67 10.67h32v32C138.7 283.2 143.4 288 149.3 288h21.33c5.891 0 10.67-4.777 10.67-10.67v-32h32C219.2 245.3 224 240.6 224 234.7V213.3C224 207.4 219.2 202.7 213.3 202.7zM256 96H64C28.65 96 0 124.7 0 160v336C0 504.8 7.164 512 16 512S32 504.8 32 496V448h256v48.01C288 504.8 295.2 512 304 512s16-7.164 16-16V160C320 124.7 291.3 96 256 96zM288 416H32v-64h256V416zM288 320H32V160c0-17.67 14.33-32 32-32h192c17.67 0 32 14.33 32 32V320zM511.6 0h-193.7c-28.48 0-52.64 18.36-61.15 43.81C253.4 53.77 261.4 64 271.1 64h2.361c6.158 0 11.05-4.311 12.99-10.12C291.6 41.17 303.7 32 317.9 32h193.7c17.79 0 32.21 14.33 32.21 32v160H368C359.2 224 352 231.2 352 240c0 8.836 7.164 16.01 16 16.01L543.8 256v64L368 320c-8.836 0-16 7.152-16 15.99c0 8.836 7.164 16.01 16 16.01L543.8 352v64L368 416c-8.836 0-16 7.152-16 15.99c0 8.836 7.164 16 16 16h175.8v48c0 8.836 7.211 16 16.11 16C568.8 512 576 504.8 576 496V64C576 28.65 547.2 0 511.6 0zM426.7 64h-21.33c-5.891 0-10.67 4.773-10.67 10.67v32h-32C356.8 106.7 352 111.4 352 117.3v21.33c0 5.891 4.775 10.67 10.67 10.67h32v32C394.7 187.2 399.4 192 405.3 192h21.33c5.891 0 10.67-4.777 10.67-10.67v-32h32C475.2 149.3 480 144.6 480 138.7V117.3c0-5.891-4.775-10.67-10.67-10.67h-32v-32C437.3 68.77 432.6 64 426.7 64z"/></svg>