<svg xmlns="http://www.w3.org/2000/svg" viewBox="0 0 384 512"><!--! Font Awesome Pro 6.0.0-alpha3 by @fontawesome - https://fontawesome.com License - https://fontawesome.com/license (Commercial License) --><path d="M352 80C352 71.16 344.8 64 336 64S320 71.16 320 80c0 27.5-9.094 54.78-25.59 76.81l-67.2 89.59c-4.266 5.688-4.266 13.5 0 19.19l67.2 89.59C310.9 377.2 320 404.5 320 432c0 8.844 7.156 16 16 16s16-7.156 16-16c0-34.38-11.36-68.47-32-96L260 256L320 176C340.6 148.5 352 114.4 352 80zM32 432C32 440.8 39.16 448 48 448S64 440.8 64 432c0-27.5 9.094-54.78 25.59-76.81l67.2-89.59c4.266-5.688 4.266-13.5 0-19.19L89.59 156.8C73.09 134.8 64 107.5 64 80C64 71.16 56.84 64 48 64S32 71.16 32 80c0 34.38 11.36 68.47 32 96L124 256L64 336C43.36 363.5 32 397.6 32 432zM368 480h-352C7.156 480 0 487.2 0 496S7.156 512 16 512h352c8.844 0 16-7.156 16-16S376.8 480 368 480zM16 32h352C376.8 32 384 24.84 384 16S376.8 0 368 0h-352C7.156 0 0 7.156 0 16S7.156 32 16 32zM112 448h160c8.844 0 16-7.156 16-16c0-24.81-6.453-49.59-18.64-71.72C266.5 355.2 261.2 352 255.3 352H128.7c-5.828 0-11.2 3.156-14.02 8.281C102.5 382.4 96 407.2 96 432C96 440.8 103.2 448 112 448zM138.5 384h106.1c4.656 10.25 7.812 21.03 9.375 32H129.1C130.7 405 133.9 394.3 138.5 384zM179.7 234.3C182.8 237.9 187.3 240 192 240s9.25-2.125 12.3-5.75l49.25-59.13c5.719-6.844 10.88-14.5 15.8-23.38C272.1 146.8 272 140.8 269.1 135.9S261 128 255.3 128H128.7C122.1 128 117.8 131 114.9 135.9S111.9 146.8 114.7 151.8c4.922 8.875 10.08 16.53 15.78 23.38L179.7 234.3zM224.5 160L192 199L159.5 160H224.5z"/></svg>