<svg xmlns="http://www.w3.org/2000/svg" viewBox="0 0 384 512"><!--! Font Awesome Pro 6.0.0-alpha3 by @fontawesome - https://fontawesome.com License - https://fontawesome.com/license (Commercial License) --><path d="M32 432C32 440.8 39.16 448 48 448S64 440.8 64 432c0-27.5 9.094-54.78 25.59-76.81l67.2-89.59c4.266-5.688 4.266-13.5 0-19.19L89.59 156.8C73.09 134.8 64 107.5 64 80C64 71.16 56.84 64 48 64S32 71.16 32 80c0 34.38 11.36 68.47 32 96L124 256L64 336C43.36 363.5 32 397.6 32 432zM16 32h352C376.8 32 384 24.84 384 16S376.8 0 368 0h-352C7.156 0 0 7.156 0 16S7.156 32 16 32zM352 80C352 71.16 344.8 64 336 64S320 71.16 320 80c0 27.5-9.094 54.78-25.59 76.81l-67.2 89.59c-4.266 5.688-4.266 13.5 0 19.19l67.2 89.59C310.9 377.2 320 404.5 320 432c0 8.844 7.156 16 16 16s16-7.156 16-16c0-34.38-11.36-68.47-32-96L260 256L320 176C340.6 148.5 352 114.4 352 80zM368 480h-352C7.156 480 0 487.2 0 496S7.156 512 16 512h352c8.844 0 16-7.156 16-16S376.8 480 368 480zM112 448h160c8.844 0 16-7.156 16-16c0-34.72-12.23-68.5-34.44-95.13l-49.27-59.13c-6.094-7.25-18.5-7.25-24.59 0l-49.25 59.13C108.2 363.5 96 397.3 96 432C96 440.8 103.2 448 112 448zM155 357.4L192 313l36.98 44.38C242.1 374.2 251.9 394.5 254.9 416H129.1C132.1 394.5 141 374.2 155 357.4z"/></svg>