<svg xmlns="http://www.w3.org/2000/svg" viewBox="0 0 576 512"><!--! Font Awesome Pro 6.0.0-alpha3 by @fontawesome - https://fontawesome.com License - https://fontawesome.com/license (Commercial License) --><path d="M575.1 494.1c0-7.944-5.886-14.84-13.96-15.87c-58.08-7.481-63.4-46.7-82.05-46.7c-5.011 0-10.02 2.109-13.02 6.328c-18.44 25.84-49.45 41.28-82.97 41.28c-33.52 0-64.53-15.44-82.97-41.28c-3.016-4.219-8.023-6.328-13.03-6.328s-10.02 2.109-13.03 6.328c-18.44 25.84-49.45 41.28-82.97 41.28c-67.72 0-76.76-47.1-95.1-47.1c-5.172 0-10.01 2.5-13.01 6.719c-37.11 51.95-82.99 28.12-82.99 56.25c0 13.76 13.03 16.03 15.81 16.03c10.29 0 49.89-7.707 80.18-38.25c24.62 24.84 59.56 39.12 96.34 39.12c36.77 0 71.04-14.28 95.67-39.12c24.62 24.84 59.34 39.25 96.11 39.25c36.78 0 71.28-14.41 95.9-39.25c30.41 30.67 70.21 38.28 80.34 38.28C573.8 511 575.1 497.7 575.1 494.1zM235 191.1c-14.62 0-26.62 11.1-26.62 26.62v106.7c0 14.62 11.1 26.62 26.62 26.62h106.6c14.75 0 26.75-11.1 26.75-26.62v-106.7c0-14.62-11.1-26.62-26.75-26.62H235zM336.4 319.1H240.4V223.1h95.1V319.1zM16.02 271.1c3.753 0 7.522-1.313 10.57-3.993l37.41-33.01v133c0 8.844 7.156 15.1 15.1 15.1s15.1-7.156 15.1-15.1V207.1c0-.375-.1875-.6875-.2129-1.055L288 37.34l192.2 169.6c-.0254 .3672-.2129 .6797-.2129 1.055v159.1c0 8.844 7.156 15.1 15.1 15.1c8.844 0 15.1-7.156 15.1-15.1V234.1l37.41 33.01c3.062 2.688 6.812 4 10.59 4c8.84 0 16-7.158 16-16c0-4.433-1.826-8.839-5.408-11.1l-58.62-51.87c.002-.0898 0 .0898 0 0l.024-144.1c0-8.844-7.156-15.1-15.1-15.1l-95.1 .0076c-8.844 0-15.1 7.156-15.1 15.1l-.0014 31.36L298.6 4c-3.031-2.656-6.812-3.997-10.59-3.997c-3.781 0-7.563 1.34-10.59 3.997L5.409 243.1C1.828 247.2 .0014 251.6 .0014 255.1C.0014 264.9 7.227 271.1 16.02 271.1zM415.1 63.1h63.1v100.1l-63.1-56.47V63.1z"/></svg>