<svg xmlns="http://www.w3.org/2000/svg" viewBox="0 0 640 512"><!--! Font Awesome Pro 6.0.0-alpha3 by @fontawesome - https://fontawesome.com License - https://fontawesome.com/license (Commercial License) --><path d="M320 128c0 8.844 7.156 16 16 16S352 136.7 352 127.8V16.01c0-8.844-7.156-16-16-16h-320c-8.844 0-16 7.156-16 16V208c0 4.25 1.688 8.312 4.688 11.31L64 278.6V496C64 504.8 71.16 512 80 512S96 504.8 96 496v-224c0-4.25-1.688-8.312-4.688-11.31L32 201.4V32h80v64c0 8.844 7.156 16 16 16S144 104.8 144 96V32h64v64c0 8.844 7.156 16 16 16S240 104.8 240 96V32H320V128zM176 144C149.5 144 128 165.5 128 192v32c0 17.67 14.33 32 32 32h32c17.67 0 32-14.33 32-32V192C224 165.5 202.5 144 176 144zM192 224H160V192c0-8.822 7.178-16 16-16S192 183.2 192 192V224zM490.7 255.1h-85.32C393.6 255.1 384 265.5 384 277.3v85.26c0 11.88 9.633 21.38 21.39 21.38h85.32c11.76 0 21.39-9.625 21.39-21.38V277.3C512.1 265.6 502.6 255.1 490.7 255.1zM480.1 351.1h-64.05l-.0205-63.98h64.01L480.1 351.1zM622.9 242.8l-151.4-137.7C464.8 99.03 456.4 96 447.1 96s-16.83 3.031-23.48 9.084L273.1 242.7C262.2 252.6 256 266.7 256 281.4V448c0 35.35 28.65 64 64 64h255.1c35.35 0 63.1-28.56 64-63.9L640 281.2C640 266.6 633.8 252.6 622.9 242.8zM607.1 448c-.002 17.6-14.4 32-32 32H320c-17.67 0-32-14.33-32-32V281.4c0-5.738 2.42-11.21 6.666-15.07l153.3-138.4l153.4 138.4C605.6 270.2 608 275.7 608 281.4L607.1 448z"/></svg>