<svg xmlns="http://www.w3.org/2000/svg" viewBox="0 0 576 512"><!--! Font Awesome Pro 6.0.0-alpha3 by @fontawesome - https://fontawesome.com License - https://fontawesome.com/license (Commercial License) --><path d="M575.1 256c0-4.435-1.831-8.84-5.423-12l-58.6-51.87c.002-.0938 0 .0938 0 0l.0247-144.1c0-8.844-7.156-15.1-15.1-15.1l-95.1 .0074c-8.844 0-15.1 7.156-15.1 15.1L383.1 79.37l-85.42-75.37c-3.016-2.656-6.797-3.997-10.58-3.997c-3.781 0-7.563 1.341-10.58 3.997L5.423 244C1.831 247.2 .0005 251.6 .0005 256c0 8.924 7.241 15.99 16.05 15.99c3.758 0 7.521-1.313 10.53-3.993l37.42-33.02v197c0 44.12 35.89 79.1 79.1 79.1h287.1c44.11 0 79.1-35.87 79.1-79.1V234.1L549.4 268c3.031 2.688 6.812 3.1 10.58 3.1C568.7 271.1 575.1 264.9 575.1 256zM415.1 64h63.1v100.1l-63.1-56.47V64zM479.1 208v223.1c0 26.47-21.53 47.1-47.1 47.1H144c-26.47 0-47.1-21.53-47.1-47.1V208c0-.377-.1895-.6914-.2148-1.062L288 37.34l192.2 169.6C480.2 207.3 479.1 207.6 479.1 208zM208.4 218.6v106.7c0 14.62 11.1 26.62 26.62 26.62h106.6c14.75 0 26.75-12 26.75-26.62V218.6c0-14.62-11.1-26.62-26.75-26.62H235C220.4 192 208.4 204 208.4 218.6zM240.4 224h95.1v95.1H240.4V224z"/></svg>