<svg xmlns="http://www.w3.org/2000/svg" viewBox="0 0 640 512"><!--! Font Awesome Pro 6.0.0-alpha3 by @fontawesome - https://fontawesome.com License - https://fontawesome.com/license (Commercial License) --><path d="M112.4 224c57.25 0 91.18-41.53 91.18-54.48c0-14.26-12.61-20.39-20.48-20.39c-4.194 0-6.712 1.445-15.1 1.445c-32.41 0-59.16-26.29-59.16-59.18c0-49.33 40.34-44.56 40.34-69.22c0-3.058-1.625-17.61-16.69-20.31C125.6 .7495 118.9 .1245 111.1-.0005C50.12-.0005 0 50.13 0 112C0 173.1 49.23 224 112.4 224zM32.09 111.9c0-42.51 31.61-72.4 65.66-78.65C84.06 49.84 76.87 70.45 76.87 91.36c0 69.46 63.53 87.68 75.38 89.77C139.8 188.4 125.9 191.9 112 191.9C62.07 191.9 32.09 150.1 32.09 111.9zM336.2 277.3v85.26c0 11.88 9.633 21.38 21.39 21.38h85.32c11.76 0 21.39-9.625 21.39-21.38V277.3c0-11.75-9.508-21.38-21.39-21.38h-85.32C345.8 255.1 336.2 265.5 336.2 277.3zM368 287.1h64.01l.1885 63.99h-64.05L368 287.1zM640 307.6c0-4.274-1.695-8.525-5.085-11.65l-58.55-51.26V143.1c0-8.875-7.131-16-16.01-16s-16.01 7.127-16.01 16v72.76L410.7 99.94c-3.008-2.629-6.946-3.943-10.7-3.943c-3.75 0-7.31 1.314-10.32 3.945L165.5 295.1C161.9 299.2 160 303.6 160 307.1c0 8.522 6.869 16.04 16 16.04c3.742 0 7.505-1.296 10.54-3.925L224.1 287.2v160.8C224.1 483.3 252.8 512 288.1 512h224.2c35.38 0 64.05-28.66 64.05-64.01V287.2l37.53 32.75c2.971 2.464 6.594 3.674 10.2 3.674C633.2 323.6 640 316.2 640 307.6zM544.3 447.1c0 17.68-14.34 32-32.03 32H288.1c-17.69 0-32.03-14.33-32.03-32V263.1c-.125-1.375-.377-2.75-.752-4l144.9-126.8l144.1 126V447.1zM208 80h32v32c0 8.844 7.155 16 15.1 16C264.8 128 272 120.8 272 112v-32h32c8.844 0 15.1-7.156 15.1-16S312.8 48 304 48h-32v-32c0-8.844-7.157-16-16-16C247.2-.0004 240 7.156 240 16v32h-32C199.2 48 191.1 55.16 191.1 64S199.2 80 208 80zM144 368h-32v-32c0-8.844-7.157-15.1-16-15.1S80 327.2 80 336v32h-32c-8.844 0-16 7.158-16 16S39.16 400 48 400h32v32c0 8.844 7.155 16 15.1 16S112 440.8 112 432v-32h32c8.844 0 15.1-7.154 15.1-15.1S152.8 368 144 368z"/></svg>