<svg xmlns="http://www.w3.org/2000/svg" viewBox="0 0 576 512"><!--! Font Awesome Pro 6.0.0-alpha3 by @fontawesome - https://fontawesome.com License - https://fontawesome.com/license (Commercial License) --><path d="M575.1 255.1c0-4.433-1.826-8.84-5.408-11.1l-58.62-51.87c.002-.0898 0 .0898 0 0l.0236-144.1c0-8.844-7.156-15.1-15.1-15.1l-95.1 .0074c-8.844 0-15.1 7.156-15.1 15.1l-.001 31.36l-85.41-75.36c-3.031-2.656-6.813-3.997-10.59-3.997c-3.781 0-7.562 1.341-10.59 3.997L5.409 244c-3.582 3.16-5.408 7.567-5.408 11.1c0 8.761 7.062 15.99 15.1 15.99c3.761 0 7.543-1.313 10.6-3.993l37.41-33.01v197c0 44.12 35.87 79.1 79.1 79.1h287.1c44.12 0 79.1-35.87 79.1-79.1V234.1L549.4 268c3.062 2.688 6.812 3.1 10.59 3.1C568.8 271.1 575.1 264.8 575.1 255.1zM415.1 64h63.1V164.1l-63.1-56.47V64zM479.1 208v223.1c0 26.47-21.53 47.1-47.1 47.1H144c-26.47 0-47.1-21.53-47.1-47.1V208c0-.375-.1875-.6875-.2129-1.055L288 37.34l192.2 169.6C480.2 207.3 479.1 207.6 479.1 208zM233.1 224c-29.2 0-57.1 25.52-57.1 59.68c0 15.4 5.833 30.8 17.49 42.57l84.67 85.6c2.751 2.75 6.236 4.152 9.8 4.152c3.564 0 7.049-1.402 9.8-4.152l84.81-85.6c11.62-11.74 17.43-27.09 17.43-42.45c0-34.26-27.99-59.79-57.15-59.79c-15.31 0-34.08 6.599-54.88 27.64C267.1 230.6 248.4 224 233.1 224zM233.9 255.1c9.342 0 18.15 4.955 22.78 9.504l31.39 31.75l31.39-31.75C323.1 260.9 332.7 255.1 342 255.1c13.33 0 26.11 11.72 26.11 27.45c0 7.683-3.061 15.16-8.176 20.33l-72.03 72.63L216.1 303.7c-5.19-5.188-8.286-12.69-8.286-20.39C207.8 269.4 218.9 255.1 233.9 255.1z"/></svg>