<svg xmlns="http://www.w3.org/2000/svg" viewBox="0 0 640 512"><!--! Font Awesome Pro 6.0.0-alpha3 by @fontawesome - https://fontawesome.com License - https://fontawesome.com/license (Commercial License) --><path d="M536 80h-48c-13.25 0-24 10.74-24 24v48c0 13.25 10.75 24 24 24h48c13.25 0 24-10.75 24-24v-48C560 90.74 549.3 80 536 80zM528 144h-32v-32h32V144zM234.7 255.1H149.4C137.6 255.1 128 265.5 128 277.3v85.26c0 11.88 9.633 21.38 21.39 21.38h85.32c11.76 0 21.39-9.625 21.39-21.38V277.3C256.1 265.6 246.6 255.1 234.7 255.1zM224.1 351.1H160L160 288h64.01L224.1 351.1zM576 0h-256C284.7 0 256 28.65 256 64v16C256 88.84 263.2 96 272 96S288 88.84 288 80V64c0-17.67 14.33-32 32-32h256c17.67 0 32 14.33 32 32v432c0 8.836 7.164 16 16 16s16-7.164 16-16V64C640 28.65 611.3 0 576 0zM536 208h-48c-13.25 0-24 10.74-24 24v48c0 13.25 10.75 24 24 24h48c13.25 0 24-10.75 24-24v-48C560 218.7 549.3 208 536 208zM528 272h-32v-32h32V272zM215.5 105.1C208.8 99.03 200.4 96 191.1 96S175.2 99.03 168.5 105.1L17.14 242.7C6.223 252.6 0 266.7 0 281.4V448c0 35.35 28.65 64 64 64h255.1c35.35 0 63.1-28.56 64-63.9L384 281.2c0-14.65-6.238-28.61-17.08-38.46L215.5 105.1zM351.1 448c-.002 17.6-14.4 32-32 32H64c-17.67 0-32-14.33-32-32V281.4c0-5.738 2.42-11.21 6.666-15.07L191.1 127.1l153.4 138.4C349.6 270.2 352 275.7 352 281.4L351.1 448zM536 336h-48c-13.25 0-24 10.74-24 24v48c0 13.25 10.75 24 24 24h48c13.25 0 24-10.75 24-24v-48C560 346.7 549.3 336 536 336zM528 400h-32v-32h32V400zM408 80h-48c-13.25 0-24 10.74-24 24v48c0 13.25 10.75 24 24 24h48c13.25 0 24-10.75 24-24v-48C432 90.74 421.3 80 408 80zM400 144h-32v-32h32V144z"/></svg>