<svg xmlns="http://www.w3.org/2000/svg" viewBox="0 0 640 512"><!--! Font Awesome Pro 6.0.0-alpha3 by @fontawesome - https://fontawesome.com License - https://fontawesome.com/license (Commercial License) --><path d="M288 304v127.1c0 8.843 7.156 15.1 16 15.1s16-7.154 16-15.1V304c0-8.812 7.172-15.1 16-15.1h224c8.828 0 16 7.187 16 15.1v127.1c0 8.843 7.156 15.1 16 15.1s16-7.154 16-15.1V304c0-26.47-21.53-47.1-48-47.1h-224C309.5 256 288 277.5 288 304zM624 480h-352c-8.844 0-16 7.156-16 15.1s7.156 15.1 16 15.1h352c8.844 0 16-7.156 16-15.1S632.8 480 624 480zM208 383.9H111.1c-8.836 0-15.1-7.164-15.1-15.1L96 170.7l144-132.9l197.1 181.1C440.2 222.6 444.1 224 448 224c8.972 0 15.1-7.308 15.1-16c0-4.302-1.729-8.59-5.14-11.75L416 156.7V64.02c0-8.843-7.156-15.1-16-15.1S384 55.18 384 64.02v63.14L250.9 4.278c-3.078-2.844-6.971-4.268-10.86-4.268S232.2 1.435 229.1 4.278l-208 191.1C17.73 199.4 16 203.7 16 208c0 8.745 7.106 16.02 15.98 16.02c3.892 0 7.795-1.419 10.88-4.269l21.12-19.49l.0146 167.7c0 26.51 21.49 47.1 48 47.1l96.05-.0446C216.9 415.9 224 408.8 224 399.1S216.9 383.9 208 383.9zM240 272h-32V208h64c0 8.843 7.156 15.1 16 15.1s16-7.156 16-15.1V192c0-8.843-7.156-15.1-16-15.1H192c-8.844 0-16 7.156-16 15.1v95.99c0 8.843 7.156 15.1 16 15.1h48c8.844 0 16-7.156 16-15.1C256 279.2 248.8 272 240 272z"/></svg>