<svg xmlns="http://www.w3.org/2000/svg" viewBox="0 0 640 512"><!--! Font Awesome Pro 6.0.0-alpha3 by @fontawesome - https://fontawesome.com License - https://fontawesome.com/license (Commercial License) --><path d="M336.2 277.3v85.26c0 11.88 9.633 21.38 21.39 21.38h85.32c11.76 0 21.39-9.625 21.39-21.38V277.3c0-11.75-9.508-21.38-21.39-21.38h-85.32C345.8 255.1 336.2 265.5 336.2 277.3zM368 287.1h64.01l.1885 63.99h-64.05L368 287.1zM640 307.6c0-4.274-1.695-8.525-5.085-11.65l-58.55-51.26V143.1c0-8.875-7.131-16-16.01-16s-16.01 7.127-16.01 16v72.76L410.7 99.94c-3.008-2.629-6.942-3.943-10.69-3.943c-3.75 0-7.315 1.315-10.32 3.945L165.5 295.1C161.9 299.2 160 303.6 160 307.1c0 8.522 6.869 16.04 16 16.04c3.742 0 7.505-1.296 10.54-3.925L224.1 287.2v160.8C224.1 483.3 252.8 512 288.1 512h224.2c35.38 0 64.05-28.66 64.05-64.01V287.2l37.53 32.75c2.971 2.464 6.594 3.674 10.2 3.674C633.2 323.6 640 316.2 640 307.6zM544.3 447.1c0 17.68-14.34 32-32.03 32H288.1c-17.69 0-32.03-14.33-32.03-32V263.1c-.125-1.375-.377-2.75-.752-4l144.9-126.8l144.1 126V447.1zM176 221.3C176 200.3 144 208.8 144 176c0-17.66 14.36-32 32-32c13.55 0 25.67 8.562 30.19 21.34C208.5 171.9 214.7 176 221.3 176c8.878 0 16.01-7.206 16.01-16.01C237.3 150.8 219.4 112 176 112c-35.3 0-64 28.72-64 64c0 43.6 38.65 61.28 48 61.28C168.9 237.3 176 230.1 176 221.3zM176 80C184.8 80 192 72.84 192 64V16c0-8.844-7.156-16-16-16S160 7.156 160 16V64C160 72.84 167.2 80 176 80zM80 176C80 167.2 72.84 160 64 160H16C7.156 160 0 167.2 0 175.1S7.156 192 16 192H64C72.84 192 80 184.8 80 176zM85.48 108.1C88.61 111.3 92.7 112.8 96.8 112.8c9.139 0 16-7.473 16-16c0-4.094-1.562-8.188-4.688-11.31L74.17 51.56C71.05 48.44 66.95 46.88 62.86 46.88c-9.139 0-16 7.473-16 16c0 4.094 1.562 8.188 4.688 11.31L85.48 108.1zM96.8 239.2c-4.094 0-8.188 1.562-11.31 4.688L51.55 277.8C48.42 280.9 46.86 285 46.86 289.1c0 8.527 6.865 16 16 16c4.094 0 8.188-1.562 11.31-4.688L108.1 266.5c3.125-3.125 4.688-7.219 4.688-11.31C112.8 246.7 105.9 239.2 96.8 239.2zM255.2 112.8c4.094 0 8.188-1.562 11.31-4.688l33.94-33.94c3.125-3.125 4.688-7.219 4.688-11.31c0-8.527-6.865-16-16-16c-4.094 0-8.188 1.562-11.31 4.688L243.9 85.5C240.8 88.63 239.2 92.72 239.2 96.81C239.2 105.3 246.1 112.8 255.2 112.8z"/></svg>