<svg xmlns="http://www.w3.org/2000/svg" viewBox="0 0 640 512"><!--! Font Awesome Pro 6.0.0-alpha3 by @fontawesome - https://fontawesome.com License - https://fontawesome.com/license (Commercial License) --><path d="M16 416c-8.844 0-16 7.156-16 15.1s7.156 15.1 16 15.1c26.47 0 48 21.53 48 47.1C64 504.8 71.16 512 80 512S96 504.8 96 496C96 451.9 60.11 416 16 416zM16 224c-8.844 0-16 7.156-16 15.1s7.156 15.1 16 15.1c132.3 0 240 107.7 240 239.1C256 504.8 263.2 512 272 512S288 504.8 288 496C288 346 165.1 224 16 224zM16 320c-8.844 0-16 7.156-16 15.1s7.156 15.1 16 15.1c79.41 0 144 64.59 144 143.1C160 504.8 167.2 512 176 512S192 504.8 192 496C192 398.1 113 320 16 320zM640 211.7c0-4.316-1.73-8.618-5.15-11.77l-58.53-51.26V48.69c0-2.773-2.4-16.72-16.22-16.72c-8.881 0-15.8 7.1-15.8 15.98v72.76l-133.6-116.8c-3.008-2.63-6.946-3.945-10.69-3.945c-3.749 0-7.309 1.316-10.32 3.946L165.6 199.1c-3.599 3.085-5.676 7.52-5.676 12.2c0 4.375 3.477 15.96 15.94 15.96c3.926 0 7.766-1.4 10.75-4.028l37.52-32.88c0 0-.0923 48.78-.0923 48.79c0 8.833 7.161 15.1 15.1 15.1c8.825 0 15.98-7.147 15.1-15.97l.1147-72.07c-.125-1.375-.375-2.75-.75-3.1l144.8-126.8l144.1 126v204.8c0 8.837-7.164 16-16 16h-192.3C327.2 383.1 320 391.1 320 399.1s7.163 16.01 15.1 16.01l192.1 .0073c26.52 0 48.01-21.48 48.01-48.01l.2393-176.8l37.52 32.88c2.956 2.453 6.559 3.663 10.15 3.663C628.9 227.8 640 223.9 640 211.7zM442.9 287.1c11.76 0 21.39-9.627 21.39-21.38V181.3c0-11.75-9.506-21.38-21.39-21.38h-85.3c-11.76 0-21.39 9.502-21.39 21.38v85.26c0 11.87 9.629 21.38 21.39 21.38H442.9zM368 191.1h64.01l.1807 63.99h-64.04L368 191.1z"/></svg>