<svg xmlns="http://www.w3.org/2000/svg" viewBox="0 0 640 512"><!--! Font Awesome Pro 6.0.0-alpha3 by @fontawesome - https://fontawesome.com License - https://fontawesome.com/license (Commercial License) --><path d="M234.7 255.1H149.4C137.6 255.1 128 265.5 128 277.3v85.26c0 11.88 9.633 21.38 21.39 21.38h85.32c11.76 0 21.39-9.625 21.39-21.38V277.3C256.1 265.6 246.6 255.1 234.7 255.1zM224.1 351.1H160L160 288h64.01L224.1 351.1zM215.5 105.1C208.8 99.03 200.4 96 191.1 96S175.2 99.03 168.5 105.1L17.14 242.7C6.223 252.6 0 266.7 0 281.4L0 448c0 35.35 28.65 64 64 64h255.1c35.35 0 63.1-28.56 64-63.9L384 281.2c0-14.65-6.238-28.61-17.08-38.46L215.5 105.1zM351.1 448c-.002 17.6-14.4 32-32 32H64c-17.67 0-32-14.33-32-32V281.4c0-5.738 2.42-11.21 6.666-15.07L191.1 127.1l153.4 138.4C349.6 270.2 352 275.7 352 281.4L351.1 448zM628.2 432.6l-61.3-70.83c16.1-.4375 31.87-10.14 38.96-25.5c7.188-15.52 4.812-33.29-6.279-46.4l-66.49-78.26h7.342c16.03 0 30.37-9.043 36.53-23.03c5.781-13.14 3.281-28-6.625-38.83L443.9 12.37c-14.97-16.49-44.81-16.46-59.71-.0938L308.2 94.91C302.3 101.4 302.7 111.6 309.2 117.6c6.529 5.977 16.65 5.57 22.62-.9395l76.02-82.73c2.875-3.16 9.436-3.191 12.5 .0938l126.5 137.4c1.312 1.439 1.562 2.754 .9062 4.256c-.8438 1.908-3.156 3.91-7.25 3.91h-41.96c-6.25 0-11.91 3.631-14.53 9.293c-2.623 5.664-1.686 12.36 2.344 17.12l88.9 104.6c4.25 5.037 2.594 10.17 1.688 12.17c-.7813 1.627-3.844 6.979-11.25 6.979h-33.75c-6.25 0-11.97 3.66-14.56 9.355c-2.594 5.725-1.625 12.42 2.467 17.15l84.24 97.31c6.281 7.229 3.406 15.11 2.375 17.37c-1.219 2.723-4.998 9.012-13.59 9.012h-160.8c-8.844 0-16 7.166-16 16.02c0 8.855 7.156 16.02 16 16.02h160.8c18.56 0 34.93-10.64 42.71-27.75C643.5 466.8 640.7 447 628.2 432.6z"/></svg>