<svg xmlns="http://www.w3.org/2000/svg" viewBox="0 0 384 512"><!--! Font Awesome Pro 6.0.0-alpha3 by @fontawesome - https://fontawesome.com License - https://fontawesome.com/license (Commercial License) --><path d="M384 304c0 8.844-7.156 16-16 16H112.6C92.31 333.4 80 354.1 80 376.1C80 416.1 115.3 448 158.8 448h46.47c31.44 0 62.16-11.64 84.27-31.95c6.484-6 16.59-5.578 22.61 .9531c5.984 6.516 5.547 16.64-.9531 22.61C282.8 465.7 245.2 480 205.2 480H158.8C97.69 480 48 433.8 48 376.1C48 356.4 54.9 336.7 66.83 320H16C7.156 320 0 312.8 0 304S7.156 288 16 288h86.88l113.2-64H16C7.156 224 0 216.8 0 208S7.156 192 16 192h255.4C291.7 178.6 304 157.9 304 135C304 95.86 268.7 64 225.3 64H178.8C147.3 64 116.6 75.64 94.52 95.95C87.98 101.9 77.88 101.5 71.91 95C65.92 88.48 66.36 78.36 72.86 72.39C101.2 46.34 138.8 32 178.8 32h46.47C286.3 32 336 78.22 336 135C336 155.6 329.1 175.3 317.2 192H368C376.8 192 384 199.2 384 208S376.8 224 368 224h-86.88L167.9 288H368C376.8 288 384 295.2 384 304z"/></svg>