<svg xmlns="http://www.w3.org/2000/svg" viewBox="0 0 448 512"><!--! Font Awesome Pro 6.0.0-alpha3 by @fontawesome - https://fontawesome.com License - https://fontawesome.com/license (Commercial License) --><path d="M447.1 208.1c0-38.79-28.09-72.42-67.05-78.82C366.7 55.62 301.9-.0004 224-.0004S81.31 55.62 67.05 129.2C28.09 135.6 .0003 169.3 .0003 208.1C.0003 264.4 48.94 288 79.93 288h288.1C398.6 288 447.1 264.5 447.1 208.1zM368.2 256H79.82c-18.29 0-47.86-14.12-47.86-47.92c0-23.27 16.76-43.42 40.22-47.21l22.01-3.625l4.252-21.88C110.2 75.38 162.8 32 224 32s113.8 43.38 125.6 103.4l4.252 21.88l22.01 3.625c23.46 3.79 40.22 23.94 40.22 47.21C416 241.8 386.8 256 368.2 256zM335.1 336c0 2.377-.5316 4.791-1.653 7.07l-69.38 140.7c-8.688 17.64-24 28.19-40.97 28.19s-32.28-10.55-40.97-28.19l-69.38-140.7c-1.122-2.279-1.653-4.694-1.653-7.07c0-9.079 7.385-15.98 15.94-15.98c5.895 0 11.61 3.255 14.4 8.896l69.38 140.7C214.9 476.1 219.5 479.4 224 479.4s9.094-3.242 12.28-9.727l69.38-140.7c2.787-5.641 8.533-8.896 14.42-8.896C328.5 320 335.1 326.8 335.1 336z"/></svg>