<svg xmlns="http://www.w3.org/2000/svg" viewBox="0 0 576 512"><!--! Font Awesome Pro 6.0.0-alpha3 by @fontawesome - https://fontawesome.com License - https://fontawesome.com/license (Commercial License) --><path d="M288 32C128.9 32 .0003 160.9 .0003 319.1L0 416c0 35.35 28.65 64 64 64h448c35.35 0 64-28.65 64-64l-.0003-96.01C575.1 160.9 447.1 32 288 32zM352 72.43C406.2 86.45 453.5 117.6 487.5 160L352 159.1V72.43zM288 64c10.86 0 21.49 .9043 32 2.223v93.76L88.48 160C135.4 101.6 207.4 64 288 64zM66.64 192L96 191.1v127.1L32 320C32 273.3 44.75 229.7 66.64 192zM176 448H64c-17.64 0-32-14.36-32-32v-64l144-.0073V448zM368 448h-160v-96c0-44.13 35.88-80 80-80s80 35.88 80 80V448zM288 240c-50.56 0-92.9 33.9-106.8 80L128 319.1V191.1h320v127.1L394.8 320C380.9 273.9 338.6 240 288 240zM544 416c0 17.64-14.36 32-32 32h-112v-96.01L544 352V416zM480 319.1V191.1L509.4 192C531.3 229.7 544 273.3 544 320L480 319.1z"/></svg>