<svg xmlns="http://www.w3.org/2000/svg" viewBox="0 0 448 512"><!--! Font Awesome Pro 6.0.0-alpha3 by @fontawesome - https://fontawesome.com License - https://fontawesome.com/license (Commercial License) --><path d="M9.219 350.5C11.38 351.5 13.69 352 16 352c3.688 0 7.312-1.25 10.25-3.719l96-80C125.9 265.3 128 260.7 128 255.1S125.9 246.8 122.3 243.7l-96-80C23.31 161.3 19.68 160 16.02 160c-2.305 0-4.625 .4922-6.797 1.48C3.594 164.2 0 169.8 0 176v160C0 342.2 3.594 347.8 9.219 350.5zM32 210.2L87 256L32 301.8V210.2zM16 80h416c8.844 0 16-7.156 16-16S440.8 48 432 48h-416C7.156 48 0 55.16 0 63.1S7.156 80 16 80zM432 176h-224C199.2 176 192 183.2 192 191.1S199.2 208 208 208h224c8.844 0 16-7.156 16-16S440.8 176 432 176zM432 304h-224C199.2 304 192 311.2 192 319.1S199.2 336 208 336h224c8.844 0 16-7.156 16-16S440.8 304 432 304zM432 432h-416c-8.844 0-16 7.156-16 15.1S7.156 464 16 464h416c8.844 0 16-7.156 16-16S440.8 432 432 432z"/></svg>