<svg xmlns="http://www.w3.org/2000/svg" viewBox="0 0 320 512"><!--! Font Awesome Pro 6.0.0-alpha3 by @fontawesome - https://fontawesome.com License - https://fontawesome.com/license (Commercial License) --><path d="M320 160c0 8.844-7.156 16-16 16h-48.81c-4.234 71.2-62.95 128-135.2 128H64.88l200.6 147.1c7.125 5.234 8.656 15.25 3.438 22.38C265.8 477.7 260.9 480 255.1 480c-3.281 0-6.583-1-9.443-3.094l-240-176c-5.578-4.094-7.891-11.31-5.734-17.89C2.953 276.5 9.078 272 16 272h104c54.6 0 99.03-42.45 103.2-96H16C7.156 176 0 168.8 0 160s7.156-16 16-16h204.9C210 98.24 169 64 120 64H16C7.156 64 0 56.84 0 48S7.156 32 16 32h288C312.8 32 320 39.16 320 48S312.8 64 304 64h-97.43c24.07 20.08 41.24 47.91 47 80H304C312.8 144 320 151.2 320 160z"/></svg>