<svg xmlns="http://www.w3.org/2000/svg" viewBox="0 0 512 512"><!--! Font Awesome Pro 6.0.0-alpha3 by @fontawesome - https://fontawesome.com License - https://fontawesome.com/license (Commercial License) --><path d="M487.9 127.1c-4.299 0-8.705 1.173-12.8 3.761L336 223.1V152c0-14.05-11.57-24.01-24.08-24.01c-4.299 0-8.705 1.173-12.8 3.76L160 223.1v-160c0-17.67-14.33-32-32-32H32c-17.67 0-32 14.33-32 32v384c0 17.67 14.33 32 32 32h448c17.67 0 32-14.33 32-32V152C512 137.1 500.4 127.1 487.9 127.1zM480 448H32V64h96v219.6l176-116.7V283.6L480 166.9V448zM160 320H96c-8.844 0-16 7.156-16 16v64C80 408.8 87.16 416 96 416h64c8.844 0 16-7.156 16-16v-64C176 327.2 168.8 320 160 320zM144 384h-32v-32h32V384zM288 320H224c-8.844 0-16 7.156-16 16v64C208 408.8 215.2 416 224 416h64c8.844 0 16-7.156 16-16v-64C304 327.2 296.8 320 288 320zM272 384h-32v-32h32V384zM336 336v64c0 8.844 7.156 16 16 16h64c8.844 0 16-7.156 16-16v-64c0-8.844-7.156-16-16-16h-64C343.2 320 336 327.2 336 336zM368 352h32v32h-32V352z"/></svg>