<svg xmlns="http://www.w3.org/2000/svg" viewBox="0 0 512 512"><!--! Font Awesome Pro 6.0.0-alpha3 by @fontawesome - https://fontawesome.com License - https://fontawesome.com/license (Commercial License) --><path d="M128 64v219.6l176-116.7V283.6L480 166.9V448H32V64H128zM128 31.1H32c-17.67 0-32 14.33-32 32v384c0 17.67 14.33 32 32 32h448c17.67 0 32-14.33 32-32V152c0-14.05-11.57-24.01-24.08-24.01c-4.297 0-8.707 1.173-12.8 3.761L336 223.1V152c0-14.05-11.57-24.01-24.08-24.01c-4.297 0-8.707 1.173-12.8 3.761L160 223.1v-160C160 46.33 145.7 31.1 128 31.1z"/></svg>