<svg xmlns="http://www.w3.org/2000/svg" viewBox="0 0 640 512"><!--! Font Awesome Pro 6.0.0-alpha3 by @fontawesome - https://fontawesome.com License - https://fontawesome.com/license (Commercial License) --><path d="M576 64H63.1C28.65 64 0 92.65 0 128v256c0 35.35 28.65 64 63.1 64H576C611.3 448 640 419.3 640 384V128C640 92.65 611.3 64 576 64zM608 384c0 17.64-14.35 32-31.1 32H63.1C46.35 416 32 401.6 32 384V128c0-17.64 14.35-32 31.1-32H576C593.6 96 608 110.4 608 128V384zM176 320H160V176C160 167.2 152.8 160 144 160h-32C103.2 160 96 167.2 96 176S103.2 192 112 192H128v128H112C103.2 320 96 327.2 96 336S103.2 352 112 352h64C184.8 352 192 344.8 192 336S184.8 320 176 320zM336 320H276.7l50.66-54.64c17.28-18.62 21.67-44.73 11.47-68.14C328.8 174.3 307.1 160 282.4 160C261.4 160 241.8 172.9 231.1 193.8C227.1 201.6 230.2 211.3 238.1 215.3c7.937 4.078 17.5 .9375 21.53-6.938c12.28-23.89 41.27-18.08 49.86 1.656c3.953 9.062 4.547 22.64-5.609 33.59l-75.58 81.52c-4.328 4.656-5.469 11.44-2.922 17.28C227.9 348.2 233.6 352 240 352h96c8.844 0 16-7.156 16-16S344.8 320 336 320z"/></svg>