<svg xmlns="http://www.w3.org/2000/svg" viewBox="0 0 640 512"><!--! Font Awesome Pro 6.0.0-alpha3 by @fontawesome - https://fontawesome.com License - https://fontawesome.com/license (Commercial License) --><path d="M112 160C103.2 160 96 167.2 96 176v160C96 344.8 103.2 352 112 352S128 344.8 128 336v-160C128 167.2 120.8 160 112 160zM576 64H63.1C28.65 64 0 92.65 0 128v256c0 35.35 28.65 64 63.1 64H576C611.3 448 640 419.3 640 384V128C640 92.65 611.3 64 576 64zM608 384c0 17.64-14.35 32-31.1 32H63.1C46.36 416 32 401.6 32 384V128c0-17.64 14.36-32 31.1-32H576C593.6 96 608 110.4 608 128V384z"/></svg>