<svg xmlns="http://www.w3.org/2000/svg" viewBox="0 0 640 512"><!--! Font Awesome Pro 6.0.0-alpha3 by @fontawesome - https://fontawesome.com License - https://fontawesome.com/license (Commercial License) --><path d="M629.5 240.1L471.1 183.7C457.1 178.6 443.2 176 428.3 176h-21.17L276.2 32H304C312.8 32 320 24.84 320 16S312.8 0 304 0H208c-8.836 0-15.1 7.164-15.1 16L192 176H167.5L132.3 133.8C129.3 130.1 124.8 128 120 128H48c-8.836 0-15.1 7.164-15.1 16L32 208H16C7.156 208 0 215.2 0 224v64c0 8.844 7.156 16 16 16H32l.0009 64c0 8.836 7.164 16 15.1 16h72.02c4.742 0 9.24-2.107 12.28-5.75L167.5 336H192l.0004 160c0 8.836 7.164 16 15.1 16H304c8.844 0 16-7.156 16-16S312.8 480 304 480H276.2l130.9-144h21.17c14.92 0 29.72-2.607 43.74-7.707l157.5-57.26C635.8 268.7 640 262.7 640 256S635.8 243.3 629.5 240.1zM224 32h8.922l130.9 144H224V32zM232.9 480H224v-144h139.8L232.9 480zM455.8 300.1C448.8 302.7 441.4 304 433.9 304H160c-4.756 0-9.266 2.113-12.31 5.766L112.5 352H64V288c0-8.844-7.156-16-16-16H32v-32h16C56.84 240 64 232.8 64 224V160h48.5l35.2 42.25C150.7 205.9 155.2 208 159.1 208h273.9c7.461 0 14.86 1.305 21.87 3.854L577.2 256L455.8 300.1zM160 240H96C87.16 240 80 247.2 80 256S87.16 272 96 272h64c8.844 0 16-7.156 16-16S168.8 240 160 240z"/></svg>