<svg xmlns="http://www.w3.org/2000/svg" viewBox="0 0 576 512"><!--! Font Awesome Pro 6.0.0-alpha3 by @fontawesome - https://fontawesome.com License - https://fontawesome.com/license (Commercial License) --><path d="M251.7 169.6l-80 22.5C163.2 194.5 158.2 203.3 160.6 211.8C162.6 218.9 169 223.5 175.1 223.5c1.438 0 2.906-.1875 4.344-.5938l80-22.5C268.8 198 273.8 189.2 271.4 180.7C269 172.2 260.2 167.3 251.7 169.6zM315.7 200.4l80 22.5c1.438 .4062 2.906 .5938 4.344 .5938c6.984 0 13.41-4.625 15.39-11.66c2.391-8.531-2.562-17.34-11.08-19.75l-80-22.5c-8.484-2.312-17.34 2.594-19.73 11.06C302.2 189.2 307.2 198 315.7 200.4zM554.1 83.5L318.4 4.875C308.5 1.625 298.3 0 288 0S267.5 1.625 257.6 4.875L21.88 83.5C8.875 87.87 0 100.1 0 113.9v310.8c0 15 10.38 28 25 31.25l242.1 53.88C273.1 511.2 281 511.1 288 511.1s13.1-.75 20.88-2.25l242.1-53.88C565.6 452.6 576 439.6 576 424.6V113.9C576 100.1 567.1 87.87 554.1 83.5zM544 231.4l-75.67-21.28c-8.484-2.375-17.34 2.594-19.73 11.06c-2.391 8.531 2.562 17.34 11.08 19.75L544 264.4v160.3l-242.1 53.88C297.3 479.5 292.7 480 288 480s-9.312-.5-13.88-1.5L32 424.6V264.4l84.33-23.46C124.8 238.5 129.8 229.7 127.4 221.2c-2.391-8.469-11.25-13.44-19.73-11.06L32 231.4V186.8l242.3-72.75C278.8 112.7 283.4 112 288 112s9.25 .6563 13.75 1.969L544 186.8V231.4zM544 153.3l-233-69.88C303.5 81.12 295.8 80 288 80.01c-7.75-.0039-15.48 1.113-23 3.367L32 153.3V113.9l235.8-78.63C272.2 33.79 279.4 32.25 288 32.21c8.598 .041 15.8 1.578 20.25 3.037L544 113.9V153.3z"/></svg>