<svg xmlns="http://www.w3.org/2000/svg" viewBox="0 0 512 512"><!--! Font Awesome Pro 6.0.0-alpha3 by @fontawesome - https://fontawesome.com License - https://fontawesome.com/license (Commercial License) --><path d="M416 0h-96c-53.02 0-96 42.98-96 96v96c0 20.73 6.719 39.79 17.89 55.49l-237.2 237.2c-6.25 6.25-6.25 16.38 0 22.62C7.813 510.4 11.91 512 16 512s8.188-1.562 11.31-4.688l48.41-48.41l43.72 43.72c6.25 6.25 14.44 9.344 22.62 9.344s16.38-3.094 22.62-9.344l49.44-49.44c12.47-12.47 12.47-32.78 0-45.25l-43.72-43.72l94.11-94.11C280.2 281.3 299.3 288 320 288h96c53.02 0 96-42.98 96-96V96C512 42.98 469 0 416 0zM191.5 430.6L142.1 480l-43.72-43.72l49.44-49.44L191.5 430.6zM480 192c0 35.29-28.71 64-64 64h-96c-35.29 0-64-28.71-64-64V96c0-35.29 28.71-64 64-64h96c35.29 0 64 28.71 64 64V192zM384 96h-32c-17.67 0-32 14.33-32 32v32c0 17.67 14.33 32 32 32h32c17.67 0 32-14.33 32-32V128C416 110.3 401.7 96 384 96zM384 160h-32V128h32V160z"/></svg>