<svg xmlns="http://www.w3.org/2000/svg" viewBox="0 0 384 512"><!--! Font Awesome Pro 6.0.0-alpha3 by @fontawesome - https://fontawesome.com License - https://fontawesome.com/license (Commercial License) --><path d="M384 256C384 264.8 376.8 272 368 272H125.1l221 179.6c6.844 5.562 7.906 15.62 2.312 22.5C345.3 477.1 340.7 480 336 480c-3.562 0-7.125-1.156-10.09-3.594L96 289.6V464C96 472.8 88.84 480 80 480S64 472.8 64 464v-192H16C7.156 272 0 264.8 0 256C0 247.2 7.156 240 16 240H64v-192C64 39.16 71.16 32 80 32S96 39.16 96 48v174.4l229.9-186.8c6.812-5.594 16.91-4.531 22.5 2.312c5.593 6.875 4.531 16.94-2.312 22.5L125.1 240H368C376.8 240 384 247.2 384 256z"/></svg>