<svg xmlns="http://www.w3.org/2000/svg" viewBox="0 0 640 512"><!--! Font Awesome Pro 6.0.0-alpha3 by @fontawesome - https://fontawesome.com License - https://fontawesome.com/license (Commercial License) --><path d="M592 0h-231c-22.06 0-41.22 14.97-46.59 36.38l-89.28 357.1l-86.16 81.76c-7.031 6.938-15.12 4.312-17.41 3.406c-2.312-.9687-9.844-4.875-9.844-14.75l.1621-147.7l55.9 33.54C170.3 351.3 173.2 352 176 352c5.406 0 10.72-2.781 13.72-7.781c4.562-7.562 2.094-17.41-5.5-21.94L127.1 288l57.13-34.28c7.594-4.531 10.06-14.38 5.5-21.94c-4.531-7.594-14.44-10.06-21.94-5.5L111.9 259.8L112 208C112 163.9 76.13 128 32 128H16C7.156 128 0 135.2 0 144S7.156 160 16 160H32c26.47 0 48 21.53 48 48L79.94 259.7l-55.72-33.44c-7.469-4.562-17.38-2.094-21.94 5.5c-4.562 7.562-2.094 17.41 5.5 21.94L64.92 288l-57.13 34.28c-7.594 4.531-10.06 14.38-5.5 21.94C5.281 349.2 10.59 352 16 352c2.812 0 5.656-.7187 8.219-2.281l55.66-33.4l-.1621 147.6c0 19.72 11.31 36.69 29.53 44.28C115.4 510.8 121.8 512 128 512c12.28 0 24.19-4.812 33.47-14l88.52-83.1l353.6-88.41C625 320.2 640 301.1 640 279V48C640 21.53 618.5 0 592 0zM585.4 32L480 137.4L374.6 32H585.4zM344.7 47.3l112.7 112.7l-187.8 187.8L344.7 47.3zM292.2 370.5L480 182.6l112.7 112.7L292.2 370.5zM608 265.4l-105.4-105.4L608 54.63V265.4z"/></svg>