<svg xmlns="http://www.w3.org/2000/svg" viewBox="0 0 576 512"><!--! Font Awesome Pro 6.0.0-alpha3 by @fontawesome - https://fontawesome.com License - https://fontawesome.com/license (Commercial License) --><path d="M463.1 200c-13.25 0-23.1 10.75-23.1 23.1s10.75 23.1 23.1 23.1s23.1-10.75 23.1-23.1S477.2 200 463.1 200zM562.6 276c9.125-17.25 14.35-36.87 13.23-57.99C572.6 157.4 518.2 112 457.6 112l-9.372 .0001c-52.75 0-104.2-16.25-147.7-46.25C269.8 44.52 232.4 31.1 191.1 31.1c-14.62 0-29.56 1.647-44.69 5.022C76.3 53.15 19.51 110.9 4.391 182.1c-18.5 87.88 23.24 168.3 91.61 207.1l.0004 73.92C96 472.8 103.2 480 112 480s16-7.199 16-15.1l-.002-58.92c19.1 7 41.48 10.92 63.98 10.92c10.88 0 21.52-1.115 32.02-2.865l-.002 50.87C223.1 472.8 231.2 480 239.1 480c8.801 0 15.1-7.2 15.1-15.1l.0001-59.46c14.91-5.23 29.13-12.01 42.1-20.68c44.79-29.95 96.37-47.87 150.2-47.87l15.65 .0041c2.625 0 4.995-.6215 7.495-.7465l74.45 136.4C548.7 476.9 554.2 480 559.1 480c1.498 0 2.978-.25 4.478-.625c7.25-2.125 12-9 11.5-16.5L562.6 276zM504.1 328.1c10.62-4 20.24-9.631 28.87-16.51l5.75 80.13L504.1 328.1zM521.1 279C506.7 295.1 486.1 304 463.1 304h-15.5c-57.37 0-114.4 18.25-169.6 54.25C252.1 375.1 222.1 384 191.1 384c-48.49 0-93.87-21.62-124.4-59.38C37.01 287 25.51 237.4 35.76 188.8c12.37-58.88 60.12-107.3 118.6-120.5C166.9 65.5 179.5 64 191.1 64c32.5 0 63.75 9.75 90.37 28.12C331.6 126 388.1 144 448.2 144h9.373c45.37 0 84.12 34 86.24 75.63C544.1 241.9 537.2 263 521.1 279z"/></svg>