<svg xmlns="http://www.w3.org/2000/svg" viewBox="0 0 512 512"><!--! Font Awesome Pro 6.0.0-alpha3 by @fontawesome - https://fontawesome.com License - https://fontawesome.com/license (Commercial License) --><path d="M73.1 512c-12.23 0-23.59-4.703-31.81-12.91l-29.25-29.25C4.578 461.5-.1406 449.1 0 438.1c.1719-11.84 5.188-23.3 13.75-31.45L408.1 14.41c18.59-18.58 51.13-18.55 69.72 .0938c0 0-.0156 0 0 0c29.38 29.41 50.32 118.8 17.61 197.8C472.8 266.9 418.1 332 286.1 332h-20.08l-160.7 166.4C97.17 506.8 85.75 511.8 73.1 512zM442.1 32c-4.641 0-9.016 1.797-12.28 5.078L36.06 429.6C33.44 432.1 32.05 435.3 32 438.5c-.0469 3.172 1.281 6.438 3.531 8.672l29.27 29.27C67.05 478.7 70.17 480 73.33 480C76.75 479.1 80 478.5 82.25 476.2L247.7 304.9C250.7 301.8 254.9 300 259.2 300h26.88c114.3 0 160.9-54.33 179.8-99.91c28.88-69.73 8.117-144.3-10.63-163c0 0 .0156 0 0 0C451.1 33.8 447.6 32 442.1 32z"/></svg>