<svg xmlns="http://www.w3.org/2000/svg" viewBox="0 0 512 512"><!--! Font Awesome Pro 6.0.0-alpha3 by @fontawesome - https://fontawesome.com License - https://fontawesome.com/license (Commercial License) --><path d="M496 480h-480C7.164 480 0 487.2 0 496C0 504.8 7.164 512 16 512h480c8.836 0 16-7.164 16-16C512 487.2 504.8 480 496 480zM497.2 97.81l-232-96C262.2 .5938 259.1-.0039 256-.0039S249.8 .5938 246.8 1.812l-232 96C5.844 101.5 0 110.3 0 120v48C0 181.3 10.75 192 24 192H64v160c-8.836 0-16 7.162-16 16C48 376.8 55.16 384 64 384h384c8.836 0 16-7.164 16-16c0-8.838-7.164-16-16-16V192h40C501.3 192 512 181.3 512 168v-48C512 110.3 506.2 101.5 497.2 97.81zM176 352H96V192h80V352zM304 352h-96V192h96V352zM416 352h-80V192H416V352zM480 160H32V125.3l224-92.69l224 92.69V160zM472 448c8.836 0 16-7.164 16-16c0-8.838-7.164-16-16-16H40c-8.836 0-16 7.162-16 16c0 8.836 7.164 16 16 16H472z"/></svg>