<svg xmlns="http://www.w3.org/2000/svg" viewBox="0 0 512 512"><!--! Font Awesome Pro 6.0.0-alpha3 by @fontawesome - https://fontawesome.com License - https://fontawesome.com/license (Commercial License) --><path d="M496 480h-480C7.164 480 0 487.2 0 496C0 504.8 7.164 512 16 512h480c8.836 0 16-7.164 16-16C512 487.2 504.8 480 496 480zM40 448h432c8.836 0 16-7.164 16-16c0-8.838-7.164-16-16-16H40c-8.836 0-16 7.162-16 16C24 440.8 31.16 448 40 448zM48 256h32v96H64c-8.836 0-16 7.162-16 16C48 376.8 55.16 384 64 384h384c8.836 0 16-7.164 16-16c0-8.838-7.164-16-16-16h-16V256h32C472.8 256 480 248.8 480 240C480 231.2 472.8 224 464 224H448c0-100.5-77.6-183-176-191.2V16C272 7.156 264.8 0 256 0S240 7.156 240 16v16.81C141.6 40.98 64 123.5 64 224H48C39.16 224 32 231.2 32 240C32 248.8 39.16 256 48 256zM240 352h-128V256h128V352zM400 352h-128V256h128V352zM256 64c88.22 0 160 71.78 160 160H96C96 135.8 167.8 64 256 64z"/></svg>