<svg xmlns="http://www.w3.org/2000/svg" viewBox="0 0 640 512"><!--! Font Awesome Pro 6.0.0-alpha3 by @fontawesome - https://fontawesome.com License - https://fontawesome.com/license (Commercial License) --><path d="M560 192l-64 .002V176c0-8.838-7.164-16-16-16s-16 7.164-16 16v16l-64-.002c-8.836 0-16 7.163-16 16s7.164 16.01 16 16.01h114.5C507.6 241.1 496 259.1 480.9 276c-7.875-9.002-15.25-18.38-21.62-27.88c-3.5-5.375-10.62-6.877-16.12-3.625l-6.875 4.125c-5.875 3.5-7.625 11.25-3.75 17c7 10.5 15.62 21.75 25.62 33.01c-10 8.752-20.75 17-32.25 24.25c-5.375 3.5-7.25 10.5-4 16.13l4 6.877c3.375 6 11 7.877 16.75 4.25c13.5-8.5 26.25-18.25 38-28.63c11.12 10.25 23.38 20 36.63 28.5c5.75 3.752 13.5 1.875 16.88-4.125l4-7.002c3.25-5.5 1.5-12.5-3.75-16c-10.5-6.752-21-15-31-24c21.5-23.88 37.38-50.13 44.88-74.89H560c8.836 0 16-7.169 16-16.01S568.8 192 560 192zM576 63.1H64c-35.35 0-64 28.65-64 64v256c0 35.35 28.65 64 64 64h512c35.35 0 64-28.65 64-64v-256C640 92.65 611.3 63.1 576 63.1zM304 416H64c-17.64 0-32-14.36-32-32V128c0-17.64 14.36-32 32-32h240V416zM608 384c0 17.64-14.36 32-32 32h-240V96H576c17.64 0 32 14.36 32 32V384zM72.84 350.3c7.938 3.922 17.53 .7813 21.47-7.156L113.9 304H206.1l19.58 39.16C228.5 348.8 234.2 352 240 352c2.406 0 4.844-.5469 7.156-1.688c7.906-3.953 11.09-13.56 7.156-21.47l-80-160c-5.438-10.84-23.19-10.84-28.62 0l-80 160C61.75 336.8 64.94 346.4 72.84 350.3zM160 211.8L190.1 272H129.9L160 211.8z"/></svg>