<svg xmlns="http://www.w3.org/2000/svg" viewBox="0 0 384 512"><!--! Font Awesome Pro 6.0.0-alpha3 by @fontawesome - https://fontawesome.com License - https://fontawesome.com/license (Commercial License) --><path d="M384 464c0 8.844-7.156 16-16 16h-352C7.156 480 0 472.8 0 464S7.156 448 16 448h70.09C34.27 413.6 0 354.7 0 288c0-83.41 53.55-154.4 128-180.8V48C128 39.16 135.2 32 144 32S160 39.16 160 48v50.89C170.4 97.13 181.1 96 192 96s21.57 1.129 32 2.891V48C224 39.16 231.2 32 240 32S256 39.16 256 48v59.2C330.5 133.6 384 204.6 384 288c0 8.844-7.156 16-16 16S352 296.8 352 288c0-65.44-39.59-121.7-96-146.4V272C256 280.8 248.8 288 240 288S224 280.8 224 272V131.2C213.7 129.1 202.1 128 192 128S170.3 129.1 160 131.2V272C160 280.8 152.8 288 144 288S128 280.8 128 272V141.6C71.59 166.3 32 222.6 32 288c0 88.22 71.78 160 160 160h176C376.8 448 384 455.2 384 464z"/></svg>