<svg xmlns="http://www.w3.org/2000/svg" viewBox="0 0 512 512"><!--! Font Awesome Pro 6.0.0-alpha3 by @fontawesome - https://fontawesome.com License - https://fontawesome.com/license (Commercial License) --><path d="M447.8 425.2C487.6 380 512 320.9 512 256s-24.37-124-64.21-169.2l11.52-11.52c6.25-6.25 6.25-16.38 0-22.62s-16.38-6.25-22.62 0L425.2 64.21C380 24.37 320.9 0 256 0S131.1 24.37 86.83 64.21L75.31 52.69c-6.25-6.25-16.38-6.25-22.62 0s-6.25 16.38 0 22.62L64.21 86.83C24.37 131.1 0 191.1 0 256s24.37 124 64.21 169.2l-11.52 11.52c-6.25 6.25-6.25 16.38 0 22.62C55.81 462.4 59.91 464 64 464s8.188-1.562 11.31-4.688l11.52-11.52C131.1 487.6 191.1 512 256 512s124-24.37 169.2-64.21l11.52 11.52C439.8 462.4 443.9 464 448 464s8.188-1.562 11.31-4.688c6.25-6.25 6.25-16.38 0-22.62L447.8 425.2zM480 256c0 56.01-20.81 107.2-54.91 146.5L334.1 311.5C345.3 295.8 352 276.7 352 256s-6.719-39.79-17.89-55.49l90.98-90.98C459.2 148.8 480 199.1 480 256zM192 256c0-35.29 28.71-64 64-64c35.29 0 64 28.71 64 64s-28.71 64-64 64C220.7 320 192 291.3 192 256zM256 32c56.01 0 107.2 20.81 146.5 54.91L311.5 177.9C295.8 166.7 276.7 160 256 160S216.2 166.7 200.5 177.9L109.5 86.91C148.8 52.81 199.1 32 256 32zM32 256c0-56.01 20.81-107.2 54.91-146.5L177.9 200.5C166.7 216.2 160 235.3 160 256s6.719 39.79 17.89 55.49l-90.98 90.98C52.81 363.2 32 312 32 256zM256 480c-56.01 0-107.2-20.81-146.5-54.91l90.98-90.98C216.2 345.3 235.3 352 256 352s39.79-6.719 55.49-17.89l90.98 90.98C363.2 459.2 312 480 256 480z"/></svg>