<svg xmlns="http://www.w3.org/2000/svg" viewBox="0 0 576 512"><!--! Font Awesome Pro 6.0.0-alpha3 by @fontawesome - https://fontawesome.com License - https://fontawesome.com/license (Commercial License) --><path d="M164.7 139.3C167.8 142.4 171.9 144 176 144s8.188-1.562 11.31-4.688c6.25-6.25 6.25-16.38 0-22.62l-80-80c-6.25-6.25-16.38-6.25-22.62 0l-80 80c-6.25 6.25-6.25 16.38 0 22.62s16.38 6.25 22.62 0L80 86.63v338.8l-52.69-52.69c-6.25-6.25-16.38-6.25-22.62 0s-6.25 16.38 0 22.62l80 80C87.81 478.4 91.91 480 96 480s8.188-1.562 11.31-4.688l80-80c6.25-6.25 6.25-16.38 0-22.62s-16.38-6.25-22.62 0L112 425.4V86.63L164.7 139.3zM272 112h288C568.8 112 576 104.8 576 96s-7.156-16-16-16h-288C263.2 80 256 87.16 256 96S263.2 112 272 112zM560 240h-288C263.2 240 256 247.2 256 256s7.156 16 16 16h288C568.8 272 576 264.8 576 256S568.8 240 560 240zM560 400h-288C263.2 400 256 407.2 256 416s7.156 16 16 16h288c8.844 0 16-7.156 16-16S568.8 400 560 400z"/></svg>