<svg xmlns="http://www.w3.org/2000/svg" viewBox="0 0 512 512"><!--! Font Awesome Pro 6.0.0-alpha3 by @fontawesome - https://fontawesome.com License - https://fontawesome.com/license (Commercial License) --><path d="M208 432h-192C7.156 432 0 439.2 0 448s7.156 16 16 16h192C216.8 464 224 456.8 224 448S216.8 432 208 432zM496 432h-192c-8.844 0-16 7.156-16 16s7.156 16 16 16h192c8.844 0 16-7.156 16-16S504.8 432 496 432zM208 304h-192C7.156 304 0 311.2 0 320s7.156 16 16 16h192C216.8 336 224 328.8 224 320S216.8 304 208 304zM496 304h-192C295.2 304 288 311.2 288 320s7.156 16 16 16h192c8.844 0 16-7.156 16-16S504.8 304 496 304zM208 176h-192C7.156 176 0 183.2 0 191.1S7.156 208 16 208h192C216.8 208 224 200.8 224 192S216.8 176 208 176zM496 176h-192c-8.844 0-16 7.156-16 15.1S295.2 208 304 208h192c8.844 0 16-7.156 16-15.1S504.8 176 496 176zM208 48h-192C7.156 48 0 55.16 0 63.1S7.156 80 16 80h192C216.8 80 224 72.84 224 64S216.8 48 208 48zM304 80h192c8.844 0 16-7.156 16-15.1S504.8 48 496 48h-192c-8.844 0-16 7.156-16 15.1S295.2 80 304 80z"/></svg>