<svg xmlns="http://www.w3.org/2000/svg" viewBox="0 0 320 512"><!--! Font Awesome Pro 6.0.0-alpha3 by @fontawesome - https://fontawesome.com License - https://fontawesome.com/license (Commercial License) --><path d="M320 464c0 8.844-7.156 16-16 16h-288c-5.531 0-10.69-2.875-13.62-7.594c-2.906-4.719-3.156-10.59-.6875-15.56C18.27 423.7 30.13 388.3 37.87 352H16C7.156 352 0 344.8 0 336S7.156 320 16 320h27.51C46.21 300.3 48 280.5 48 260.7V256h-32C7.156 256 0 248.8 0 240S7.156 224 16 224h32V160.3C48 89.56 105.6 32 176.3 32c23.69 0 46.91 6.438 67.16 18.59l52.78 31.69c7.594 4.531 10.06 14.38 5.5 21.94c-4.531 7.594-14.44 10.12-21.94 5.5l-52.81-31.69C211.7 68.84 194.2 64 176.3 64C123.2 64 80 107.2 80 160.3V224h160C248.8 224 256 231.2 256 240S248.8 256 240 256h-160v4.656C80 280.5 78.28 300.3 75.75 320H240c8.844 0 16 7.156 16 16S248.8 352 240 352H70.78c-6.533 32.93-16.36 65.21-29.69 96H304C312.8 448 320 455.2 320 464z"/></svg>