<svg xmlns="http://www.w3.org/2000/svg" viewBox="0 0 512 512"><!--! Font Awesome Pro 6.0.0-alpha3 by @fontawesome - https://fontawesome.com License - https://fontawesome.com/license (Commercial License) --><path d="M48 224c-17.67 0-32 14.33-32 32c0 17.67 14.33 32 32 32s32-14.33 32-32C80 238.3 65.67 224 48 224zM48 384c-17.67 0-32 14.33-32 32c0 17.67 14.33 32 32 32s32-14.33 32-32C80 398.3 65.67 384 48 384zM48 64c-17.67 0-32 14.33-32 32c0 17.67 14.33 32 32 32s32-14.33 32-32C80 78.33 65.67 64 48 64zM480 192H198.6C190.1 192 182 195.4 176 201.4L132.7 244.7c-6.248 6.25-6.248 16.38 0 22.63L176 310.6C182 316.6 190.1 320 198.6 320H480c17.67 0 32-14.33 32-32V224C512 206.3 497.7 192 480 192zM480 288H198.6l-32-32l32-32H480V288zM416 352H198.6C190.1 352 182 355.4 176 361.4l-43.31 43.31c-6.248 6.25-6.248 16.38 0 22.63L176 470.6C182 476.6 190.1 480 198.6 480H416c17.67 0 32-14.33 32-32v-64C448 366.3 433.7 352 416 352zM416 448H198.6l-32-32l32-32H416V448zM176 150.6C182 156.6 190.1 160 198.6 160H416c17.67 0 32-14.33 32-32V64c0-17.67-14.33-32-32-32H198.6C190.1 32 182 35.37 176 41.37L132.7 84.69c-6.248 6.25-6.248 16.38 0 22.63L176 150.6zM198.6 64H416v64H198.6l-32-32L198.6 64z"/></svg>