<svg xmlns="http://www.w3.org/2000/svg" viewBox="0 0 512 512"><!--! Font Awesome Pro 6.0.0-alpha3 by @fontawesome - https://fontawesome.com License - https://fontawesome.com/license (Commercial License) --><path d="M208 112h288C504.8 112 512 104.8 512 96c0-8.801-7.199-16-16-16h-288C199.2 80 192 87.2 192 96C192 104.8 199.2 112 208 112zM32 224h96c8.844 0 16-7.156 16-16c0-8.842-7.156-15.1-16-15.1H96V48.01c0-5.734-3.062-11.02-8.031-13.88S76.91 31.29 71.94 34.18L36.38 54.91c-7.625 4.451-10.22 14.25-5.75 21.89C35.06 84.43 44.88 86.94 52.5 82.57L64 75.85V192H32c-8.844 0-16 7.156-16 15.1C16 216.8 23.16 224 32 224zM496 400h-288C199.2 400 192 407.2 192 416c0 8.799 7.201 16 16 16h288c8.801 0 16-7.201 16-16C512 407.2 504.8 400 496 400zM144 448H58.44l61.44-54.02c28.66-24.7 32.1-68.23 7.721-97.05C115.3 282.5 98.15 273.7 79.15 272.2c-19.31-1.625-37.5 4.484-51.91 16.91L13.46 301C6.777 306.8 6.027 316.9 11.78 323.6c5.781 6.719 15.94 7.438 22.56 1.688l13.78-11.88c7.875-6.781 17.81-10.17 28.5-9.25c10.44 .8125 19.88 5.609 26.53 13.5c13.31 15.72 11.5 38.61-4.281 52.22l-93.44 82.14c-5 4.391-6.75 11.44-4.406 17.66C3.371 475.9 9.342 480 15.1 480H144C152.8 480 160 472.8 160 464S152.8 448 144 448zM496 240h-288C199.2 240 192 247.2 192 256c0 8.799 7.201 16 16 16h288C504.8 272 512 264.8 512 256C512 247.2 504.8 240 496 240z"/></svg>