<svg xmlns="http://www.w3.org/2000/svg" viewBox="0 0 512 512"><!--! Font Awesome Pro 6.0.0-alpha3 by @fontawesome - https://fontawesome.com License - https://fontawesome.com/license (Commercial License) --><path d="M176 112h320C504.8 112 512 104.8 512 96s-7.203-16-16-16h-320C167.2 80 160 87.2 160 96S167.2 112 176 112zM496 240h-192C295.2 240 288 247.2 288 256s7.203 16 16 16h192C504.8 272 512 264.8 512 256S504.8 240 496 240zM192 208H160c-17.66 0-32 14.34-32 32H64v-96c17.66 0 32-14.34 32-32v-32c0-17.66-14.34-32-32-32H32c-17.66 0-32 14.34-32 32v32c0 17.66 14.34 32 32 32V384c0 26.47 21.53 48 48 48H128c0 17.66 14.34 32 32 32h32c17.66 0 32-14.34 32-32v-32c0-17.66-14.34-32-32-32H160c-17.66 0-32 14.34-32 32H80C71.17 400 64 392.8 64 384V272h64c0 17.66 14.34 32 32 32h32c17.66 0 32-14.34 32-32v-32C224 222.3 209.7 208 192 208zM160 400h32v32H160V400zM32 112v-32h32v32H32zM192 272H160v-32h32V272zM496 400h-192c-8.797 0-16 7.203-16 16s7.203 16 16 16h192c8.797 0 16-7.203 16-16S504.8 400 496 400z"/></svg>