<svg xmlns="http://www.w3.org/2000/svg" viewBox="0 0 512 512"><!--! Font Awesome Pro 6.0.0-alpha3 by @fontawesome - https://fontawesome.com License - https://fontawesome.com/license (Commercial License) --><path d="M64 48H32c-17.67 0-32 14.33-32 32v32c0 17.67 14.33 32 32 32h32c17.67 0 32-14.33 32-32v-32C96 62.33 81.67 48 64 48zM64 112H32v-32h32V112zM64 368H32c-17.67 0-32 14.33-32 32v32c0 17.67 14.33 32 32 32h32c17.67 0 32-14.33 32-32v-32C96 382.3 81.67 368 64 368zM64 432H32v-32h32V432zM176 112h320c8.801 0 16-7.201 16-15.1C512 87.2 504.8 80 496 80h-320C167.2 80 160 87.2 160 95.1C160 104.8 167.2 112 176 112zM496 240h-320C167.2 240 160 247.2 160 256c0 8.799 7.201 16 16 16h320C504.8 272 512 264.8 512 256C512 247.2 504.8 240 496 240zM496 400h-320C167.2 400 160 407.2 160 416c0 8.799 7.201 16 16 16h320c8.801 0 16-7.201 16-16C512 407.2 504.8 400 496 400zM64 208H32c-17.67 0-32 14.33-32 32v32c0 17.67 14.33 32 32 32h32c17.67 0 32-14.33 32-32v-32C96 222.3 81.67 208 64 208zM64 272H32v-32h32V272z"/></svg>