<svg xmlns="http://www.w3.org/2000/svg" viewBox="0 0 512 512"><!--! Font Awesome Pro 6.0.0-alpha3 by @fontawesome - https://fontawesome.com License - https://fontawesome.com/license (Commercial License) --><path d="M176 112h320C504.8 112 512 104.8 512 96s-7.203-16-16-16h-320C167.2 80 160 87.2 160 96S167.2 112 176 112zM496 240h-320C167.2 240 160 247.2 160 256s7.203 16 16 16h320C504.8 272 512 264.8 512 256S504.8 240 496 240zM496 400h-320C167.2 400 160 407.2 160 416s7.203 16 16 16h320c8.797 0 16-7.203 16-16S504.8 400 496 400zM64 352c-35.35 0-64 28.65-64 64s28.65 64 64 64c35.35 0 64-28.65 64-64S99.35 352 64 352zM64 448c-17.64 0-32-14.36-32-32s14.36-32 32-32s32 14.36 32 32S81.64 448 64 448zM64 192C28.65 192 0 220.7 0 256s28.65 64 64 64c35.35 0 64-28.65 64-64S99.35 192 64 192zM64 288C46.36 288 32 273.6 32 256s14.36-32 32-32s32 14.36 32 32S81.64 288 64 288zM64 32C28.65 32 0 60.65 0 96c0 35.35 28.65 64 64 64c35.35 0 64-28.65 64-64C128 60.65 99.35 32 64 32zM64 128C46.36 128 32 113.6 32 96s14.36-32 32-32s32 14.36 32 32S81.64 128 64 128zM64 80C55.16 80 48 87.16 48 96c0 8.836 7.164 16 16 16c8.838 0 16-7.164 16-16C80 87.16 72.84 80 64 80z"/></svg>