<svg xmlns="http://www.w3.org/2000/svg" viewBox="0 0 512 512"><!--! Font Awesome Pro 6.0.0-alpha3 by @fontawesome - https://fontawesome.com License - https://fontawesome.com/license (Commercial License) --><path d="M48.06 384C30.54 384 16 398.4 16 416s14.54 32 32.06 32C65.71 448 80 433.6 80 416S65.71 384 48.06 384zM176 112h320c8.801 0 16-7.201 16-15.1C512 87.2 504.8 80 496 80h-320C167.2 80 160 87.2 160 95.1C160 104.8 167.2 112 176 112zM48.06 224C30.54 224 16 238.4 16 256s14.54 32 32.06 32C65.71 288 80 273.6 80 256S65.71 224 48.06 224zM496 240h-320C167.2 240 160 247.2 160 256c0 8.799 7.201 16 16 16h320C504.8 272 512 264.8 512 256C512 247.2 504.8 240 496 240zM496 400h-320C167.2 400 160 407.2 160 416c0 8.799 7.201 16 16 16h320c8.801 0 16-7.201 16-16C512 407.2 504.8 400 496 400zM48.06 64C30.54 64 16 78.38 16 96s14.54 32 32.06 32C65.71 128 80 113.6 80 96S65.71 64 48.06 64z"/></svg>