<svg xmlns="http://www.w3.org/2000/svg" viewBox="0 0 512 512"><!--! Font Awesome Pro 6.0.0-alpha3 by @fontawesome - https://fontawesome.com License - https://fontawesome.com/license (Commercial License) --><path d="M48.06 384C30.54 384 16 398.4 16 416s14.54 32 32.06 32C65.71 448 80 433.6 80 416S65.71 384 48.06 384zM208 112h288C504.8 112 512 104.8 512 96c0-8.801-7.199-16-16-16h-288C199.2 80 192 87.2 192 96C192 104.8 199.2 112 208 112zM496 240h-288C199.2 240 192 247.2 192 256c0 8.799 7.201 16 16 16h288C504.8 272 512 264.8 512 256C512 247.2 504.8 240 496 240zM496 400h-320C167.2 400 160 407.2 160 416c0 8.799 7.201 16 16 16h320c8.801 0 16-7.201 16-16C512 407.2 504.8 400 496 400zM131.7 197.7L61.94 281.5l-35.69-29.77c-6.75-5.594-16.84-4.75-22.53 2.047C-1.943 260.5-1.037 270.6 5.745 276.3l48 40C56.75 318.8 60.37 320 63.1 320c4.563 0 9.125-1.953 12.28-5.751l80.01-96.01C161.9 211.4 161 201.3 154.3 195.7C147.5 190.1 137.4 190.9 131.7 197.7zM131.7 37.73L61.94 121.5l-35.69-29.77c-6.75-5.594-16.84-4.751-22.53 2.047C-1.943 100.5-1.037 110.6 5.745 116.3l48 40.01C56.75 158.8 60.37 160 63.1 160c4.563 0 9.125-1.953 12.28-5.751l80.01-96.01C161.9 51.44 161 41.34 154.3 35.69C147.5 30.09 137.4 30.94 131.7 37.73z"/></svg>