<svg xmlns="http://www.w3.org/2000/svg" viewBox="0 0 512 512"><!--! Font Awesome Pro 6.0.0-alpha3 by @fontawesome - https://fontawesome.com License - https://fontawesome.com/license (Commercial License) --><path d="M447.1 32h-384c-35.36 0-64 28.64-64 64v320c0 35.36 28.64 64 64 64h384c35.36 0 64-28.64 64-64V96C511.1 60.64 483.4 32 447.1 32zM480 416c0 17.62-14.38 32-32 32H64c-17.62 0-32-14.38-32-32V192h448V416zM480 160H32V96c0-17.62 14.38-32 32-32h384c17.62 0 32 14.38 32 32V160zM128 288h256c8.844 0 16-7.156 16-16S392.8 256 384 256H128C119.2 256 112 263.2 112 272S119.2 288 128 288zM128 384h256c8.844 0 16-7.156 16-16S392.8 352 384 352H128c-8.844 0-16 7.156-16 16S119.2 384 128 384zM405.1 86.7L384 104.3l-22-17.61c-6.89-5.516-16.94-4.359-22.5 2.5c-5.516 6.906-4.391 16.97 2.499 22.5l32 25.59C376.9 139.6 380.5 140.8 384 140.8s7.078-1.172 9.999-3.5l31.1-25.59c6.891-5.531 8.016-15.59 2.501-22.5C422.1 82.33 412.9 81.17 405.1 86.7z"/></svg>