<svg xmlns="http://www.w3.org/2000/svg" viewBox="0 0 384 512"><!--! Font Awesome Pro 6.0.0-alpha3 by @fontawesome - https://fontawesome.com License - https://fontawesome.com/license (Commercial License) --><path d="M384 464c0 8.836-7.164 16-16 16h-288C71.16 480 64 472.8 64 464V260.5L19.88 271.5C18.58 271.8 17.27 272 15.99 272c-7.172 0-13.69-4.844-15.5-12.12c-2.156-8.562 3.062-17.25 11.64-19.39L64 227.5V48C64 39.16 71.16 32 80 32S96 39.16 96 48v171.5l172.1-43.03c8.562-2.219 17.25 3.047 19.39 11.64c2.156 8.562-3.062 17.25-11.64 19.39L96 252.5V448h272C376.8 448 384 455.2 384 464z"/></svg>