<svg xmlns="http://www.w3.org/2000/svg" viewBox="0 0 384 512"><!--! Font Awesome Pro 6.0.0-alpha3 by @fontawesome - https://fontawesome.com License - https://fontawesome.com/license (Commercial License) --><path d="M192 0c-106 0-192 85.96-192 191.1c0 77.41 26.97 99.04 172.3 309.7C177 508.6 184.5 512 192 512s14.95-3.441 19.72-10.32C357 291 384 269.4 384 191.1C384 85.96 298 0 192 0zM192 473.9C51.93 271.4 32 255.1 32 192c0-88.22 71.78-160 160-160s160 71.78 160 160C352 255.9 332.6 270.7 192 473.9zM192 304c-13.23 0-24 10.77-24 24c0 13.23 10.77 23.98 24 23.98s24-10.75 24-23.98C216 314.8 205.2 304 192 304zM192 88c-44.11 0-80 31.97-80 71.27c0 8.822 7.178 16 16 16s16-7.178 16-16C144 137.6 165.5 120 192 120s48 17.62 48 39.27c0 13.59-8.467 26.04-22.65 33.32C191.8 205.7 176 231.9 176 261.1c0 8.822 7.178 16 16 16s16-7.178 16-16c0-17.1 9.184-32.43 23.97-40.02C256.7 208.4 272 184.7 272 159.3C272 119.1 236.1 88 192 88z"/></svg>