<svg xmlns="http://www.w3.org/2000/svg" viewBox="0 0 384 512"><!--! Font Awesome Pro 6.0.0-alpha3 by @fontawesome - https://fontawesome.com License - https://fontawesome.com/license (Commercial License) --><path d="M256 184c13.25 0 24-10.75 24-24S269.3 136 256 136S232 146.8 232 160S242.8 184 256 184zM128 184c13.25 0 24-10.75 24-24S141.3 136 128 136S104 146.8 104 160S114.8 184 128 184zM267.8 253.2C249 275.4 221.3 287.1 191.9 287.1S134.9 275.4 116.2 253.4c-5.75-6.625-15.88-7.375-22.5-1.75C86.78 257.4 86.16 267.3 91.78 274.1C116.7 303.1 153.3 319.1 192 319.1s75.25-16.75 100.3-45.88c5.75-6.75 4.781-16.87-1.969-22.62C283.7 245.7 273.6 246.6 267.8 253.2zM192 0C85.97 0 0 85.96 0 191.1c0 77.41 26.97 99.04 172.3 309.7C177 508.6 184.5 512 192 512s14.95-3.441 19.72-10.32C357 291 384 269.4 384 191.1C384 85.96 298 0 192 0zM192 473.9C51.93 271.4 32 255.1 32 192c0-88.22 71.78-160 160-160s160 71.78 160 160C352 255.9 332.6 270.7 192 473.9z"/></svg>