<svg xmlns="http://www.w3.org/2000/svg" viewBox="0 0 384 512"><!--! Font Awesome Pro 6.0.0-alpha3 by @fontawesome - https://fontawesome.com License - https://fontawesome.com/license (Commercial License) --><path d="M192 0C85.97 0 0 85.97 0 192c0 77.41 26.97 99.03 172.3 309.7C177 508.6 184.5 512 192 512s14.95-3.441 19.72-10.32C357 291 384 269.4 384 192C384 85.97 298 0 192 0zM192 473.9C51.93 271.4 32 255.1 32 192c0-88.22 71.78-160 160-160s160 71.78 160 160C352 255.9 332.6 270.7 192 473.9zM192 111.1c-44.18 0-80 35.82-80 80S147.8 271.1 192 271.1c44.18 0 80-35.82 80-80S236.2 111.1 192 111.1zM192 239.1c-26.47 0-48-21.53-48-48S165.5 143.1 192 143.1s48 21.53 48 48S218.5 239.1 192 239.1z"/></svg>