<svg xmlns="http://www.w3.org/2000/svg" viewBox="0 0 640 512"><!--! Font Awesome Pro 6.0.0-alpha3 by @fontawesome - https://fontawesome.com License - https://fontawesome.com/license (Commercial License) --><path d="M320 32c88.22 0 160 71.78 160 160c0 31.63-4.822 51.28-26.7 87.68L478.6 299.7c26.23-43.04 33.39-68.14 33.39-107.7c0-106-85.97-191.1-191.1-191.1c-56.14 0-106.5 24.24-141.6 62.66l25.39 20.04C232.1 51.67 274.1 32 320 32zM633.9 483.4L25.92 3.436C18.1-2.033 8.921-.8457 3.437 6.092c-5.469 6.938-4.281 17 2.641 22.47l608 480C617 510.9 620.5 512 623.1 512c4.734 0 9.422-2.094 12.58-6.094C642 498.1 640.8 488.9 633.9 483.4zM320 473.9C195.7 294.1 166 261.7 160.1 211.1L128.3 186.2C128.2 188.1 128 190 128 192c0 77.41 26.97 99.03 172.3 309.7c4.766 6.883 12.24 10.33 19.72 10.33s14.95-3.442 19.72-10.33c25.91-37.56 47.91-68.88 66.81-95.81l-25.21-19.9C363.9 410.7 343.8 439.4 320 473.9z"/></svg>