<svg xmlns="http://www.w3.org/2000/svg" viewBox="0 0 384 512"><!--! Font Awesome Pro 6.0.0-alpha3 by @fontawesome - https://fontawesome.com License - https://fontawesome.com/license (Commercial License) --><path d="M192 0C85.97 0 0 85.97 0 192c0 77.41 26.97 99.03 172.3 309.7C177 508.6 184.5 512 192 512s14.95-3.441 19.72-10.32C357 291 384 269.4 384 192C384 85.97 298 0 192 0zM192 473.9C51.93 271.4 32 255.1 32 192c0-88.22 71.78-160 160-160s160 71.78 160 160C352 255.9 332.6 270.7 192 473.9zM281.5 109.1c-7.617-7.559-17.5-12.83-28.23-13.78c-13.24-1.172-25.9 3.414-35.16 12.59L117.9 208.1c-2.234 2.215-3.754 5.039-4.375 8.113L101.3 276.1C99.02 288.1 108.9 297.9 120.1 295.7L181.3 283.5c3.094-.6133 5.938-2.125 8.172-4.344l99.1-98.15c7.617-7.555 12.92-17.37 13.87-28.02c1.168-13.14-3.457-25.7-12.71-34.88L281.5 109.1zM170.3 253.3L137.3 259.9l6.594-32.71l62.88-62.23l26.38 26.18L170.3 253.3zM267.1 157.4l-11.3 11.22l-26.38-26.18l11.31-11.22c4.688-4.645 12.28-4.652 16.97 .0039l9.41 9.336C271.8 145.2 271.8 152.8 267.1 157.4z"/></svg>