<svg xmlns="http://www.w3.org/2000/svg" viewBox="0 0 384 512"><!--! Font Awesome Pro 6.0.0-alpha3 by @fontawesome - https://fontawesome.com License - https://fontawesome.com/license (Commercial License) --><path d="M192 0C85.97 0 0 85.97 0 192c0 77.41 26.97 99.03 172.3 309.7C177 508.6 184.5 512 192 512s14.95-3.441 19.72-10.32C357 291 384 269.4 384 192C384 85.97 298 0 192 0zM192 473.9C51.93 271.4 32 255.1 32 192c0-88.22 71.78-160 160-160s160 71.78 160 160C352 255.9 332.6 270.7 192 473.9zM260.7 143.3L165.3 238.7L123.3 196.7c-6.25-6.25-16.38-6.25-22.62 0s-6.25 16.38 0 22.62l53.33 53.34c3 3 7.062 4.688 11.31 4.688s8.312-1.688 11.31-4.688l106.7-106.7c6.25-6.25 6.25-16.38 0-22.62S266.9 137.1 260.7 143.3z"/></svg>