<svg xmlns="http://www.w3.org/2000/svg" viewBox="0 0 384 512"><!--! Font Awesome Pro 6.0.0-alpha3 by @fontawesome - https://fontawesome.com License - https://fontawesome.com/license (Commercial License) --><path d="M271.9 192h-64V128c0-8.844-7.156-16-16-16s-16 7.156-16 16v64h-64c-8.844 0-16 7.156-16 16s7.156 16 16 16h64v64c0 8.844 7.156 16 16 16s16-7.156 16-16V224h64c8.844 0 16-7.156 16-16S280.8 192 271.9 192zM192 0C85.97 0 0 85.97 0 192c0 77.41 26.97 99.03 172.3 309.7C177 508.6 184.5 512 192 512s14.95-3.441 19.72-10.32C357 291 384 269.4 384 192C384 85.97 298 0 192 0zM192 473.9C51.93 271.4 32 255.1 32 192c0-88.22 71.78-160 160-160s160 71.78 160 160C352 255.9 332.6 270.7 192 473.9z"/></svg>