<svg xmlns="http://www.w3.org/2000/svg" viewBox="0 0 640 512"><!--! Font Awesome Pro 6.0.0-alpha3 by @fontawesome - https://fontawesome.com License - https://fontawesome.com/license (Commercial License) --><path d="M303.8 161.6l111.6 88.11C412.1 199.7 370.9 160 320 160C314.4 160 309.1 160.7 303.8 161.6zM320 96c88.25 0 160 71.75 160 160c0 13.98-2.369 27.3-5.75 40.23l26.87 21.21C506.1 302.9 509.9 287.9 511.3 272H560c8.801 0 15.99-7.201 15.99-15.1C575.1 247.2 568.8 240 560 240h-48.75C503.5 146.8 429.3 72.5 336 64.75V16c0-8.801-7.209-15.1-16.01-15.1C311.2 .0016 304 7.199 304 16v48.75C272.5 67.37 243.5 78.08 218.2 94.05l27.06 21.36C267.6 103.4 292.8 96 320 96zM320 416c-88.25 0-160-71.75-160-160c0-13.98 2.371-27.31 5.754-40.25L138.9 194.5C133.9 209.1 130.1 224.1 128.8 240H80c-8.799 0-16.01 7.2-16.01 16C63.99 264.8 71.2 272 80 272h48.75C136.5 365.3 210.8 439.5 304 447.3V496c0 8.799 7.191 15.1 15.99 15.1C328.8 511.1 336 504.8 336 496v-48.75c31.51-2.619 60.52-13.33 85.86-29.3l-27.06-21.36C372.4 408.6 347.2 416 320 416zM336.3 350.4L224.6 262.2C227.9 312.3 269.1 352 320 352C325.6 352 330.9 351.3 336.3 350.4zM633.9 483.4L25.9 3.42C18.1-2.033 8.936-.8301 3.436 6.061c-5.469 6.938-4.281 17 2.656 22.49l608 480C617 510.9 620.5 512 624 512c4.719 0 9.406-2.094 12.56-6.078C642 498.1 640.8 488.9 633.9 483.4z"/></svg>