<svg xmlns="http://www.w3.org/2000/svg" viewBox="0 0 448 512"><!--! Font Awesome Pro 6.0.0-alpha3 by @fontawesome - https://fontawesome.com License - https://fontawesome.com/license (Commercial License) --><path d="M433.9 46.08C424.8 36.89 412.5 31.1 399.1 32c-6.113 0-12.28 1.172-18.14 3.584L29.83 179.6c-21.23 8.688-33.36 31.19-28.92 53.69c4.422 22.53 24.16 38.75 47.09 38.75h159.1v159.1c0 24 19.18 47.1 48.02 47.1c19.17 0 36.92-11.53 44.41-29.81L444.4 98.21C451.8 80.3 447.6 59.74 433.9 46.08zM414.8 86.09l-143.1 351.1C268.3 444.1 262.5 448 256 448c-10.93 0-16.02-9.547-16.02-15.1V240h-191.1c-7.625 0-14.22-5.43-15.7-12.94C30.83 219.6 34.89 212.1 41.95 209.2l352.1-144C395.9 64.4 397.9 64 399.1 64c4.217 0 8.338 1.707 11.35 4.723C415.9 73.28 417.3 80.1 414.8 86.09z"/></svg>