<svg xmlns="http://www.w3.org/2000/svg" viewBox="0 0 512 512"><!--! Font Awesome Pro 6.0.0-alpha3 by @fontawesome - https://fontawesome.com License - https://fontawesome.com/license (Commercial License) --><path d="M256 159.1c-53 0-96 43-96 96s43 96 96 96s96-43 96-96S309 159.1 256 159.1zM256 320c-35.25 0-64-28.75-64-64s28.75-64 64-64s64 28.75 64 64S291.3 320 256 320zM496 240h-48.75C439.5 146.8 365.3 72.5 272 64.75V16c0-8.801-7.199-16-15.1-16C247.2 0 240 7.199 240 16v48.75C146.8 72.5 72.5 146.8 64.75 240H16C7.201 240 0 247.2 0 255.1C0 264.8 7.201 272 16 272h48.75C72.5 365.3 146.8 439.5 240 447.3V496c0 8.799 7.201 15.1 15.1 15.1C264.8 511.1 272 504.8 272 496v-48.75c93.25-7.75 167.5-82 175.3-175.3H496c8.801 0 16-7.201 16-15.1C512 247.2 504.8 240 496 240zM256 416c-88.25 0-160-71.75-160-160s71.75-160 160-160s160 71.75 160 160S344.3 416 256 416z"/></svg>