<svg xmlns="http://www.w3.org/2000/svg" viewBox="0 0 384 512"><!--! Font Awesome Pro 6.0.0-alpha3 by @fontawesome - https://fontawesome.com License - https://fontawesome.com/license (Commercial License) --><path d="M191.1 256C200.8 256 208 248.8 208 240v-128c0-8.844-7.177-16-16.02-16S176 103.2 176 112v128C176 248.8 183.1 256 191.1 256zM192 280c-13.25 0-24 10.74-24 24c0 13.25 10.75 24 24 24s24-10.75 24-24C216 290.7 205.3 280 192 280zM192 0C85.97 0 0 85.96 0 191.1c0 77.41 26.97 99.04 172.3 309.7C177 508.6 184.5 512 192 512s14.95-3.441 19.72-10.32C357 291 384 269.4 384 191.1C384 85.96 298 0 192 0zM192 473.9C51.93 271.4 32 255.1 32 192c0-88.22 71.78-160 160-160s160 71.78 160 160C352 255.9 332.6 270.7 192 473.9z"/></svg>