<svg xmlns="http://www.w3.org/2000/svg" viewBox="0 0 384 512"><!--! Font Awesome Pro 6.0.0-alpha3 by @fontawesome - https://fontawesome.com License - https://fontawesome.com/license (Commercial License) --><path d="M368 272v192c0 8.844-7.156 16-16 16s-16-7.156-16-16v-192c0-73.93-56.2-134.3-128-142.4V464c0 8.844-7.156 16-16 16s-16-7.156-16-16V129.6C104.2 137.7 48 198.1 48 272v192C48 472.8 40.84 480 32 480s-16-7.156-16-16v-192c0-91.63 70.43-167.1 160-175.2V48C176 39.16 183.2 32 192 32s16 7.156 16 16v48.81C297.6 104.9 368 180.4 368 272z"/></svg>