<svg xmlns="http://www.w3.org/2000/svg" viewBox="0 0 320 512"><!--! Font Awesome Pro 6.0.0-alpha3 by @fontawesome - https://fontawesome.com License - https://fontawesome.com/license (Commercial License) --><path d="M160-.0002c-79.53 0-144 64.47-144 144c0 74.05 56.1 134.3 128 142.4V496c0 8.844 7.156 16 16 16s16-7.156 16-16V286.4c71.9-8.055 128-68.34 128-142.4C304 64.47 239.5-.0002 160-.0002zM160 256C98.24 256 48 205.8 48 144S98.24 32 160 32s112 50.24 112 112S221.8 256 160 256zM160 64C115.9 64 80 99.88 80 144C80 152.8 87.16 160 96 160s16-7.156 16-16C112 117.5 133.5 96 160 96c8.844 0 16-7.156 16-16S168.8 64 160 64z"/></svg>