<svg xmlns="http://www.w3.org/2000/svg" viewBox="0 0 576 512"><!--! Font Awesome Pro 6.0.0-alpha3 by @fontawesome - https://fontawesome.com License - https://fontawesome.com/license (Commercial License) --><path d="M568.1 34.76c-4.406-2.969-9.982-3.554-14.94-1.616L409.6 90.67L179 32.51C175.9 31.67 172.5 31.89 169.5 33.01l-159.1 59.44C4.141 94.79 0 100.8 0 107.4v356.5c0 5.344 2.672 10.35 7.109 13.32s9.972 3.553 14.89 1.521l152.3-63.08l222.1 63.62C397.9 479.8 399.4 480 400.9 480c1.906 0 3.797-.3438 5.594-1l159.1-59.44C571.9 417.2 576 411.3 576 404.6V48.01C576 42.69 573.4 37.76 568.1 34.76zM192 68.79l192 48.42v325.3L192 387.6V68.79zM32 118.5l128-47.79v316.3l-128 53.02V118.5zM544 393.5l-128 47.8V122.4c.1914-.0684 .4043 .0391 .5938-.0371L544 71.61V393.5z"/></svg>