<svg xmlns="http://www.w3.org/2000/svg" viewBox="0 0 576 512"><!--! Font Awesome Pro 6.0.0-alpha3 by @fontawesome - https://fontawesome.com License - https://fontawesome.com/license (Commercial License) --><path d="M512 32H64C28.65 32 0 60.65 0 96v288c0 35.35 28.65 64 64 64v16C64 472.8 71.16 480 80 480C88.84 480 96 472.8 96 464V448h384v16c0 8.836 7.164 16 16 16c8.838 0 16-7.164 16-16V448c35.35 0 64-28.65 64-64V96C576 60.65 547.3 32 512 32zM544 384c0 17.64-14.36 32-32 32H64c-17.64 0-32-14.36-32-32V96c0-17.64 14.36-32 32-32h448c17.64 0 32 14.36 32 32V384zM416 96H96C78.33 96 64 110.3 64 128v224c0 17.67 14.33 32 32 32h320c17.67 0 32-14.33 32-32V128C448 110.3 433.7 96 416 96zM416 352H96v-224h320V352zM496 128C487.2 128 480 135.2 480 144C480 152.8 487.2 160 496 160C504.8 160 512 152.8 512 144C512 135.2 504.8 128 496 128zM496 224C487.2 224 480 231.2 480 240C480 248.8 487.2 256 496 256C504.8 256 512 248.8 512 240C512 231.2 504.8 224 496 224z"/></svg>