<svg xmlns="http://www.w3.org/2000/svg" viewBox="0 0 384 512"><!--! Font Awesome Pro 6.0.0-alpha3 by @fontawesome - https://fontawesome.com License - https://fontawesome.com/license (Commercial License) --><path d="M384 200v232c0 8.844-7.156 16-16 16S352 440.8 352 432V200C352 160.3 319.7 128 280 128c-11.09 0-21.48 2.73-30.87 7.232L208 258.6V432c0 8.844-7.156 16.06-16 16.06S176 440.8 176 432v-77.38l-48.81 146.4c-2.25 6.688-8.436 10.94-15.12 10.94c-1.688 0-3.439-.2499-5.126-.8124c-8.375-2.812-12.91-11.88-10.12-20.25L176 253.4V200C176 160.3 143.7 128 104 128S32 160.3 32 200v232C32 440.8 24.84 448 16 448S0 440.8 0 432v-320C0 103.2 7.156 96 16 96S32 103.2 32 112v13.25C50.71 107.2 76.03 96 104 96C141.2 96 173.6 115.8 192 145.2c7.908-12.65 18.26-23.57 30.67-31.82l34.14-102.4c2.812-8.344 11.94-12.91 20.25-10.12c8.375 2.812 12.91 11.88 10.12 20.25l-25.6 76.8C267.6 96.78 273.7 96 280 96C337.3 96 384 142.7 384 200z"/></svg>