<svg xmlns="http://www.w3.org/2000/svg" viewBox="0 0 640 512"><!--! Font Awesome Pro 6.0.0-alpha3 by @fontawesome - https://fontawesome.com License - https://fontawesome.com/license (Commercial License) --><path d="M560 0h-480C35.88 0 0 35.88 0 80v96C0 184.8 7.156 192 16 192S32 184.8 32 176v-96C32 53.53 53.53 32 80 32h480C586.5 32 608 53.53 608 80v96C608 184.8 615.2 192 624 192S640 184.8 640 176v-96C640 35.88 604.1 0 560 0zM320 384c61.75 0 112-43.06 112-96S381.8 192 320 192S208 235.1 208 288S258.3 384 320 384zM320 224c44.11 0 80 28.7 80 64s-35.89 64-80 64s-80-28.7-80-64S275.9 224 320 224zM496 96C487.2 96 480 103.2 480 112V384c-53.02 0-96 42.98-96 96H256c0-53.02-42.98-96-96-96V112C160 103.2 152.8 96 144 96H128v352c0 35.35 28.65 64 64 64h256c35.35 0 64-28.65 64-64V112C512 103.2 504.8 96 496 96zM192 480c-17.64 0-32-14.36-32-32v-32c35.3 0 64 28.7 64 64H192zM480 448c0 17.64-14.36 32-32 32h-32c0-35.3 28.7-64 64-64V448z"/></svg>