<svg xmlns="http://www.w3.org/2000/svg" viewBox="0 0 640 512"><!--! Font Awesome Pro 6.0.0-alpha3 by @fontawesome - https://fontawesome.com License - https://fontawesome.com/license (Commercial License) --><path d="M528 448H96c-35.35 0-64-28.65-64-64V112C32 103.2 24.84 96 16 96S0 103.2 0 112V384c0 53.02 42.98 96 96 96h432c8.836 0 16-7.164 16-16S536.8 448 528 448zM576 32H160c-35.35 0-64 28.65-64 64v224c0 35.35 28.65 64 64 64H576c35.35 0 64-28.65 64-64V96C640 60.65 611.3 32 576 32zM608 320c0 17.64-14.36 32-32 32H160c-17.64 0-32-14.36-32-32V96c0-17.64 14.36-32 32-32h416c17.64 0 32 14.36 32 32V320zM367.1 112c-44.18 0-80 42.98-80 96s35.82 96 80 96c44.18 0 80-42.98 80-96S412.2 112 367.1 112zM368 272c-26.02 0-48-29.31-48-64s21.98-64 48-64c26.02 0 48 29.31 48 64S394 272 368 272z"/></svg>