<svg xmlns="http://www.w3.org/2000/svg" viewBox="0 0 576 512"><!--! Font Awesome Pro 6.0.0-alpha3 by @fontawesome - https://fontawesome.com License - https://fontawesome.com/license (Commercial License) --><path d="M272 224h-192C71.16 224 64 231.2 64 240C64 248.8 71.16 256 79.1 256h192C280.8 256 288 248.8 288 240C288 231.2 280.8 224 272 224zM240 319.1h-160c-8.836 0-15.1 7.162-15.1 16c0 8.836 7.164 16 15.1 16h160c8.836 0 16-7.164 16-16C256 327.2 248.8 319.1 240 319.1zM480 160h-96c-17.67 0-32 14.33-32 32v64c0 17.67 14.33 32 32 32h96c17.67 0 32-14.33 32-32V192C512 174.3 497.7 160 480 160zM480 256h-96V192h96V256zM496 319.1h-96c-8.836 0-16 7.162-16 16c0 8.836 7.164 16 16 16h96c8.836 0 16-7.164 16-16C512 327.2 504.8 319.1 496 319.1zM512 64H64C28.65 64 0 92.65 0 128v256c0 35.35 28.65 64 64 64h448c35.35 0 64-28.65 64-64V128C576 92.65 547.3 64 512 64zM544 384c0 17.64-14.36 32-32 32H64c-17.64 0-32-14.36-32-32V128c0-17.64 14.36-32 32-32h448c17.64 0 32 14.36 32 32V384z"/></svg>