<svg xmlns="http://www.w3.org/2000/svg" viewBox="0 0 640 512"><!--! Font Awesome Pro 6.0.0-alpha3 by @fontawesome - https://fontawesome.com License - https://fontawesome.com/license (Commercial License) --><path d="M560 0h-480C35.88 0 0 35.88 0 80v96C0 184.8 7.156 192 16 192S32 184.8 32 176v-96C32 53.53 53.53 32 80 32h480C586.5 32 608 53.53 608 80v96C608 184.8 615.2 192 624 192S640 184.8 640 176v-96C640 35.88 604.1 0 560 0zM496 96C487.2 96 480 103.2 480 112V448c0 17.67-14.33 32-32 32H192c-17.67 0-32-14.33-32-32V112C160 103.2 152.8 96 144 96C135.2 96 128 103.2 128 112V448c0 35.35 28.65 64 64 64h256c35.35 0 64-28.65 64-64V112C512 103.2 504.8 96 496 96zM432 288c0-52.94-50.25-96-112-96S208 235.1 208 288s50.25 96 112 96S432 340.9 432 288zM240 288c0-35.3 35.89-64 80-64s80 28.7 80 64s-35.89 64-80 64S240 323.3 240 288z"/></svg>