<svg xmlns="http://www.w3.org/2000/svg" viewBox="0 0 576 512"><!--! Font Awesome Pro 6.0.0-alpha3 by @fontawesome - https://fontawesome.com License - https://fontawesome.com/license (Commercial License) --><path d="M496 287.1h-224c-8.836 0-16 7.162-16 16c0 8.836 7.164 15.1 16 15.1h224c8.836 0 16-7.164 16-16C512 295.2 504.8 287.1 496 287.1zM147.9 240.5L141.6 238.9C110.2 230.7 111.2 225.6 112.2 220.2C114 210.7 131.1 205.9 153.9 208.9C160.7 209.9 168.1 211.9 175.2 214.1c8.5 2.641 17.41-2.156 19.98-10.61c2.594-8.438-2.156-17.39-10.61-19.98C174.6 180.4 166.6 178.6 159.6 177.5C159.7 176.1 159.9 176.5 159.9 176V160c0-8.844-7.052-16-15.9-16S127.9 151.2 127.9 160v16c0 .3008 .1543 .5488 .1699 .8457C102.5 180.1 84.84 193.3 80.81 214.1C73.05 254 113.9 264.7 133.5 269.8l6.5 1.656c32.25 8.219 37.17 12.28 35.61 20.34C173.8 301.3 155.8 306.2 133.8 303c-8.578-1.141-18.95-4.469-28.09-7.391L100.7 294.1C92.3 291.5 83.31 296.1 80.64 304.5c-2.656 8.438 2.031 17.42 10.45 20.08l4.812 1.531c10.05 3.221 21.38 6.756 32.3 8.359C128.2 335 127.9 335.5 127.9 336V352c0 8.844 7.26 16 16.1 16s15.9-7.156 15.9-16v-16c0-.5078-.2422-.9375-.2891-1.434c25.42-3.33 43.36-15.98 47.38-36.63C214.9 257.5 174.5 247.3 147.9 240.5zM496 192h-224C263.2 192 256 199.2 256 208C256 216.8 263.2 224 272 224h224C504.8 224 512 216.8 512 208C512 199.2 504.8 192 496 192zM512 64H64C28.65 64 0 92.65 0 128v256c0 35.35 28.65 64 64 64h448c35.35 0 64-28.65 64-64V128C576 92.65 547.3 64 512 64zM544 384c0 17.64-14.36 32-32 32H64c-17.64 0-32-14.36-32-32V128c0-17.64 14.36-32 32-32h448c17.64 0 32 14.36 32 32V384z"/></svg>