<svg xmlns="http://www.w3.org/2000/svg" viewBox="0 0 576 512"><!--! Font Awesome Pro 6.0.0-alpha3 by @fontawesome - https://fontawesome.com License - https://fontawesome.com/license (Commercial License) --><path d="M559 54.5C524.1 38.25 489.2 32 454.3 32C343.5 32 232.5 94.38 121.7 94.38c-27.79 0-55.57-4-83.36-13.75C35.21 79.5 32.06 79 29.03 79C13.5 79 0 92.38 0 110.8v317.4c0 12.62 6.525 24.5 16.99 29.38C51.86 473.8 86.85 480 121.7 480c110.8 0 221.7-62.38 332.6-62.38c27.79 0 55.57 4 83.36 13.75c3.15 1.125 6.301 1.625 9.338 1.625C562.5 433 576 419.6 576 401.1V83.88C576 71.25 569.5 59.38 559 54.5zM32.15 112.3C52.56 119.1 73.47 123.3 95.36 125.2C92.15 157.4 65.18 182.8 32.11 182.8L32.15 112.3zM32.14 429.2C32.06 428.1 32 428.6 32 428.1l.0176-37.26c32.38 .0078 58.95 24.29 63.13 55.56C72.91 443.9 52.07 438.3 32.14 429.2zM543.8 399.7c-20.48-6.801-41.46-10.1-63.42-12.87c2.133-33.34 29.63-59.87 63.46-59.94L543.8 399.7zM543.9 294.9c-51.22 .0605-92.8 40.52-95.4 91.12c-57.8 1.016-114.4 16.61-169.2 32.02c-52.85 14.87-102.9 28.63-152.1 29.63c-3.766-49.5-44.79-88.75-95.24-88.77l.0684-144C82.54 214.8 123.5 175.5 127.3 126c57.88-.9766 114.6-16.61 169.4-32.03c52.65-14.81 102.5-28.5 151.5-29.59c.8477 52.2 43.41 94.43 95.8 94.46L543.9 294.9zM543.1 126.9c-34.37-.0117-62.3-27.32-63.71-61.37c22.46 2.457 43.48 8.104 63.6 17.27C543.9 83.05 544 83.43 544 83.88L543.1 126.9zM288 144C235.1 144 192 194.3 192 256s43.06 112 96 112s96-50.25 96-112S340.9 144 288 144zM288 336c-35.3 0-63.1-35.89-63.1-80S252.7 176 288 176s63.1 35.89 63.1 80S323.3 336 288 336z"/></svg>