<svg xmlns="http://www.w3.org/2000/svg" viewBox="0 0 640 512"><!--! Font Awesome Pro 6.0.0-alpha3 by @fontawesome - https://fontawesome.com License - https://fontawesome.com/license (Commercial License) --><path d="M625.9 42.2l-28.13-28.14c-9.373-9.373-21.66-14.06-33.94-14.06s-24.57 4.688-33.94 14.06l-175.5 175.5c-8.936 8.936-15.03 20.32-17.5 32.71l-16.66 83.35C318.7 313.2 324.6 320 331.1 320c.7852 0 1.586-.0781 2.398-.2402l83.35-16.67c12.39-2.479 23.77-8.566 32.7-17.5l175.5-175.5C644.7 91.34 644.7 60.95 625.9 42.2zM427.8 262.1c-4.48 4.48-10.13 7.506-16.35 8.748L357.5 282.5l10.78-53.93c1.244-6.219 4.27-11.88 8.754-16.36l114.3-114.3l50.76 50.76L427.8 262.1zM603.3 87.45l-38.62 38.62l-50.76-50.76l38.62-38.62c4.076-4.076 8.838-4.686 11.31-4.686s7.236 .6094 11.31 4.686l28.13 28.14C607.4 68.9 608 73.66 608 76.14C608 78.62 607.4 83.38 603.3 87.45zM592 208C583.2 208 576 215.2 576 224v224c0 17.67-14.33 32-32 32H96c-17.67 0-32-14.33-32-32V192c0-17.67 14.33-32 32-32h224c8.836 0 16-7.164 16-16C336 135.2 328.8 128 320 128H96C60.65 128 32 156.7 32 192v256c0 35.35 28.65 64 64 64h448c35.35 0 64-28.65 64-64V224C608 215.2 600.8 208 592 208zM112 288h160C280.8 288 288 280.8 288 272C288 263.2 280.8 256 272 256h-160C103.2 256 96 263.2 96 272C96 280.8 103.2 288 112 288zM112 384h416c8.836 0 16-7.164 16-16c0-8.838-7.164-16-16-16h-416C103.2 352 96 359.2 96 368C96 376.8 103.2 384 112 384z"/></svg>