<svg xmlns="http://www.w3.org/2000/svg" viewBox="0 0 576 512"><!--! Font Awesome Pro 6.0.0-alpha3 by @fontawesome - https://fontawesome.com License - https://fontawesome.com/license (Commercial License) --><path d="M288 144C235.1 144 192 194.3 192 256s43.06 112 96 112s96-50.25 96-112S340.9 144 288 144zM288 336c-35.3 0-64-35.89-64-80s28.7-80 64-80s64 35.89 64 80S323.3 336 288 336zM512 64H64C28.65 64 0 92.65 0 128v256c0 35.35 28.65 64 64 64h448c35.35 0 64-28.65 64-64V128C576 92.65 547.3 64 512 64zM32 128c0-17.64 14.36-32 32-32h32c0 35.3-28.7 64-64 64V128zM64 416c-17.64 0-32-14.36-32-32v-32c35.3 0 64 28.7 64 64H64zM544 384c0 17.64-14.36 32-32 32h-32c0-35.3 28.7-64 64-64V384zM544 320c-52.94 0-96 43.06-96 96H128c0-52.94-43.06-96-96-96V192c52.94 0 96-43.06 96-96h320c0 52.94 43.06 96 96 96V320zM544 160c-35.3 0-64-28.7-64-64h32c17.64 0 32 14.36 32 32V160z"/></svg>