<svg xmlns="http://www.w3.org/2000/svg" viewBox="0 0 576 512"><!--! Font Awesome Pro 6.0.0-alpha3 by @fontawesome - https://fontawesome.com License - https://fontawesome.com/license (Commercial License) --><path d="M559 54.5C524.1 38.25 489.2 32 454.3 32C343.5 32 232.5 94.38 121.7 94.38c-27.79 0-55.57-4-83.36-13.75C35.21 79.5 32.06 79 29.03 79C13.5 79 0 92.38 0 110.8v317.4c0 12.62 6.525 24.5 16.99 29.38C51.86 473.8 86.85 480 121.7 480c110.8 0 221.7-62.38 332.6-62.38c27.79 0 55.57 4 83.36 13.75c3.15 1.125 6.301 1.625 9.338 1.625C562.5 433 576 419.6 576 401.1V83.88C576 71.25 569.5 59.38 559 54.5zM543.8 399.7c-28.46-9.451-57.8-14.05-89.56-14.05c-59.82 0-118.3 16.46-174.9 32.38C224.5 433.4 172.7 448 121.7 448c-32.57 0-61.9-6.137-89.59-18.75C32.06 428.1 32 428.6 32 428.1l.1465-315.8C60.61 121.8 89.96 126.4 121.7 126.4c59.82 0 118.3-16.46 174.9-32.38C351.5 78.57 403.3 64 454.3 64c32.57 0 61.9 6.137 89.59 18.75C543.9 83.05 544 83.43 544 83.88L543.8 399.7zM288 144C235.1 144 192 194.3 192 256s43.06 112 96 112s96-50.25 96-112S340.9 144 288 144zM288 336c-35.3 0-63.1-35.89-63.1-80S252.7 176 288 176s63.1 35.89 63.1 80S323.3 336 288 336z"/></svg>