<svg xmlns="http://www.w3.org/2000/svg" viewBox="0 0 640 512"><!--! Font Awesome Pro 6.0.0-alpha3 by @fontawesome - https://fontawesome.com License - https://fontawesome.com/license (Commercial License) --><path d="M592 207.1c-8.836 0-16 7.162-16 16V448c0 17.67-14.33 32-32 32H96c-17.67 0-32-14.33-32-32V191.1c0-17.67 14.33-32 32-32h224c8.836 0 16-7.164 16-16c0-8.838-7.164-16-16-16L96 127.1c-35.35 0-64 28.65-64 64V448c0 35.35 28.65 64 64 64h448c35.35 0 64-28.65 64-64V223.1C608 215.2 600.8 207.1 592 207.1zM625.9 42.2l-28.13-28.14C588.4 4.688 576.2 0 563.9 0s-24.57 4.688-33.94 14.06l-175.5 175.5c-8.936 8.936-15.03 20.32-17.5 32.71l-16.66 83.35C318.7 313.2 324.6 319.1 331.1 319.1c.7852 0 1.586-.0781 2.398-.2402l83.35-16.67c12.39-2.479 23.77-8.566 32.7-17.5l175.5-175.5C644.7 91.34 644.7 60.94 625.9 42.2zM427.8 262.1c-4.48 4.48-10.13 7.506-16.35 8.748L357.5 282.5l10.78-53.93c1.244-6.219 4.27-11.88 8.754-16.36l114.3-114.3l50.76 50.76L427.8 262.1zM603.3 87.45l-38.62 38.62l-50.76-50.76l38.62-38.62C556.6 32.61 561.4 32 563.9 32s7.236 .6094 11.31 4.686l28.13 28.14C607.4 68.9 608 73.66 608 76.14C608 78.61 607.4 83.38 603.3 87.45zM288 367.1c0 8.836 7.164 16 16 16l224 .0015c8.836 0 16-7.164 16-16c0-8.838-7.164-16-16-16l-224-.0015C295.2 351.1 288 359.2 288 367.1zM239 361.9c7.859-40.41-32.45-50.67-59.13-57.45L173.6 302.9C142.2 294.7 143.2 289.6 144.2 284.2C146 274.7 163.1 269.9 185.9 272.9C192.7 273.9 200.1 275.9 207.2 278.1c8.5 2.641 17.41-2.156 19.98-10.61c2.594-8.438-2.156-17.39-10.61-19.98C206.6 244.4 198.6 242.6 191.6 241.5C191.7 240.1 191.9 240.5 191.9 240V224c0-8.844-7.052-16-15.9-16S159.9 215.2 159.9 224v16c0 .3008 .1543 .5488 .1699 .8457C134.5 244.1 116.8 257.3 112.8 278.1c-7.766 39.97 33.06 50.64 52.67 55.77l6.5 1.656c32.25 8.219 37.17 12.28 35.61 20.34c-1.844 9.453-19.78 14.34-41.81 11.22c-8.578-1.141-18.95-4.469-28.09-7.391L132.7 358.1c-8.422-2.578-17.41 2.016-20.08 10.45c-2.656 8.438 2.031 17.42 10.45 20.08l4.812 1.531c10.05 3.221 21.38 6.756 32.3 8.359C160.2 399 159.9 399.5 159.9 400V416c0 8.844 7.26 16 16.1 16s15.9-7.156 15.9-16v-16c0-.5078-.2422-.9375-.2891-1.434C217 395.2 234.1 382.6 239 361.9z"/></svg>