<svg xmlns="http://www.w3.org/2000/svg" viewBox="0 0 640 512"><!--! Font Awesome Pro 6.0.0-alpha3 by @fontawesome - https://fontawesome.com License - https://fontawesome.com/license (Commercial License) --><path d="M367.1 112c-44.18 0-80 42.98-80 96s35.82 96 80 96c44.18 0 80-42.98 80-96S412.2 112 367.1 112zM368 272c-26.02 0-48-29.31-48-64s21.98-64 48-64c26.02 0 48 29.31 48 64S394 272 368 272zM528 448H96c-35.35 0-64-28.65-64-64V112C32 103.2 24.84 96 16 96S0 103.2 0 112V384c0 53.02 42.98 96 96 96h432c8.836 0 16-7.164 16-16S536.8 448 528 448zM576 32H160c-35.35 0-64 28.65-64 64v224c0 35.35 28.65 64 64 64H576c35.35 0 64-28.65 64-64V96C640 60.65 611.3 32 576 32zM128 96c0-17.64 14.36-32 32-32h32c0 35.3-28.72 64-64 64V96zM160 352c-17.64 0-32-14.36-32-32V288c35.28 0 64 28.7 64 64H160zM608 320c0 17.64-14.36 32-32 32h-32c0-35.3 28.72-64 64-64V320zM608 256c-52.94 0-96 43.06-96 96H224c0-52.94-43.06-96-96-96V160c52.94 0 96-43.06 96-96h288c0 52.94 43.06 96 96 96V256zM608 128c-35.28 0-64-28.7-64-64h32c17.64 0 32 14.36 32 32V128z"/></svg>