<svg xmlns="http://www.w3.org/2000/svg" viewBox="0 0 640 512"><!--! Font Awesome Pro 6.0.0-alpha3 by @fontawesome - https://fontawesome.com License - https://fontawesome.com/license (Commercial License) --><path d="M470.7 338.1l-112 80c-7.188 5.156-8.859 15.12-3.719 22.34C358.1 445.7 363 448 368 448c3.219 0 6.469-.9687 9.281-2.969l112-80c7.188-5.156 8.859-15.12 3.719-22.34S477.9 333.8 470.7 338.1zM570.3 191.4C572.2 191.6 574 192 576 192c35.35 0 64-28.65 64-64c0-35.35-28.65-64-64-64c-1.953 0-3.793 .4023-5.701 .5742C557.2 27.08 521.9 0 480 0s-77.23 27.08-90.3 64.57C387.8 64.4 385.1 64 384 64c-35.35 0-64 28.65-64 64c0 35.35 28.65 64 64 64c1.953 0 3.793-.4023 5.701-.5742C402.8 228.9 438.1 256 480 256c10.51 0 20.59-1.701 30.02-4.836L573.5 438C575.1 442.9 576 448 576 453.3V496c0 8.836 7.164 16 16 16s16-7.164 16-16v-43.18c0-8.484-1.395-16.91-4.125-24.94L538.5 235.6C552.9 224.3 564.1 209.1 570.3 191.4zM576 96c17.64 0 32 14.36 32 32c0 17.62-14.32 31.97-31.27 31.97L576 159.1V96zM384 160c-17.64 0-32-14.36-32-32c0-17.62 14.32-31.97 31.27-31.97L384 96.11V160zM544 160c0 35.29-28.71 64-64 64s-64-28.71-64-64V96c0-35.29 28.71-64 64-64s64 28.71 64 64V160zM448 80c-8.836 0-16 7.162-16 16c0 8.836 7.164 16 16 16s16-7.164 16-16C464 87.16 456.8 80 448 80zM512 80c-8.836 0-16 7.162-16 16c0 8.836 7.164 16 16 16s16-7.164 16-16C528 87.16 520.8 80 512 80zM432 480H256c-17.6 0-32-14.4-32-32v-32c0-71.84 39.63-137.1 103.4-170.4c7.844-4.094 10.88-13.75 6.797-21.59c-4.062-7.812-13.73-10.84-21.58-6.781C238.2 256 192 332.2 192 416v64H176C149.5 480 128 458.5 128 432V162.9c0-33.39-24.3-63.31-57.53-66.6C32.34 92.54 0 122.6 0 160v48C0 216.9 7.125 224 16 224S32 216.9 32 208V161.9c0-15.95 10.83-30.79 26.57-33.41C78.57 125.1 96 140.6 96 160v272C96 476.2 131.8 512 176 512h256c8.836 0 16-7.164 16-16C448 487.2 440.8 480 432 480z"/></svg>