<svg xmlns="http://www.w3.org/2000/svg" viewBox="0 0 384 512"><!--! Font Awesome Pro 6.0.0-alpha3 by @fontawesome - https://fontawesome.com License - https://fontawesome.com/license (Commercial License) --><path d="M160 256C151.2 256 144 263.2 144 272S151.2 288 160 288h64c8.844 0 16-7.156 16-16S232.8 256 224 256H160zM78.13 383.8c8.875 1.25 16.73-5.252 17.77-14.01l31.34-266.6l64.72-64.78l64.81 64.78l31.34 266.6c.9531 8.129 7.875 14.13 15.88 14.13c.625 0 1.25-.0313 1.891-.125c8.766-1.031 15.05-8.973 14.02-17.76l-32-272.1c-.4219-3.564-2.031-6.91-4.578-9.441l-80.06-79.88c-6.016-6.035-16.61-5.973-22.59 0L100.7 84.54C98.14 87.07 96.53 90.41 96.11 93.98l-32 272.1C63.08 374.9 69.36 382.8 78.13 383.8zM352 416H32c-17.67 0-32 14.33-32 32v32c0 17.67 14.33 32 32 32h320c17.67 0 32-14.33 32-32v-32C384 430.3 369.7 416 352 416zM352 480H32v-32h320V480z"/></svg>