<svg xmlns="http://www.w3.org/2000/svg" viewBox="0 0 640 512"><!--! Font Awesome Pro 6.0.0-alpha3 by @fontawesome - https://fontawesome.com License - https://fontawesome.com/license (Commercial License) --><path d="M384 352c-61 30.5-64 76.25-64 89.88V496c0 8.799 7.199 16 16 16s16-7.201 16-16v-54.13c0-27.12 20.75-45.38 32-53.25c11.25 7.875 32 26.12 32 53.25V496c0 8.799 7.199 16 16 16s16-7.201 16-16v-54.13C448 428.1 445 382.5 384 352zM243.9 384.1C212.2 381.8 192 407.9 192 433.9V496C192 504.8 199.2 512 208 512S224 504.8 224 496v-64C224 423.1 231.3 416 240 416S256 423.1 256 432v64C256 504.8 263.2 512 272 512S288 504.8 288 496v-62.69C288 408.1 269.1 385.1 243.9 384.1zM531.9 384.1C500.2 381.8 480 407.9 480 433.9V496c0 8.799 7.199 16 16 16s16-7.201 16-16v-64c0-8.875 7.25-16 16-16s16 7.125 16 16v64c0 8.799 7.199 16 16 16s16-7.201 16-16v-62.69C576 408.1 557.1 385.1 531.9 384.1zM592 256h-6.125C589.6 247.4 592 238.4 592 229.1c0-54-43.5-95.5-90.75-124.8c-37.63-23.21-68.25-32.5-104.9-75.06c-6.445-7.475-18.16-7.465-24.6 .0137c-36.47 42.36-66.55 51.29-104.1 75.05C219.5 133.6 176 175.1 176 229.1C176 238.4 178.4 247.4 182.1 256H176C170.4 256 165 257.1 160 259V120C160 40 80 0 80 0S0 40 0 120v384C0 508.4 3.582 512 8 512h16C28.42 512 32 508.4 32 504V192h96v304C128 504.8 135.2 512 144 512S160 504.8 160 496v-192C160 295.2 167.2 288 176 288h416C600.8 288 608 295.2 608 304v192c0 8.799 7.199 16 16 16s16-7.201 16-16v-192C640 277.5 618.5 256 592 256zM128 160H32V120c0-40.63 29.5-68.63 48-82.13C98.5 51.38 128 79.38 128 120V160zM549.1 256H218.9C211.6 246.8 208 237.8 208 229.1C208 196 232.5 163.9 281 133.3C321.1 107.4 355.9 94.38 384 64c28.12 30.38 61.1 43.38 103 69.25C535.5 163.8 560 196 560 229.1C560 237.8 556.4 246.8 549.1 256z"/></svg>