<svg xmlns="http://www.w3.org/2000/svg" viewBox="0 0 640 512"><!--! Font Awesome Pro 6.0.0-alpha3 by @fontawesome - https://fontawesome.com License - https://fontawesome.com/license (Commercial License) --><path d="M128 224c-70.69 0-128 57.31-128 128c0 70.69 57.31 128 128 128c70.69 0 128-57.31 128-128C256 281.3 198.7 224 128 224zM128 376c7.049 0 13.23-3.16 17.62-8h76.76C214.7 413.3 175.5 448 128 448c-52.93 0-96-43.07-96-96c0-52.94 43.07-96 96-96c47.46 0 86.71 34.69 94.38 80H145.6C141.2 331.2 135 328 128 328c-13.25 0-24 10.74-24 24C104 365.3 114.7 376 128 376zM512 224c-15.83 0-30.82 3.25-44.81 8.504L412.2 128h58.27C493.4 128 512 109.4 512 86.45V73.55C512 50.64 493.3 32 470.4 32c-18.09 0-35.76 6.234-49.9 17.53L385.6 77.44l-19.42-36.9C363.4 35.3 357.9 32 352 32H272C263.2 32 256 39.16 256 48S263.2 64 272 64h70.34l17.79 33.8L238.4 195.2C207.1 173.1 169.1 160 128 160H48C39.16 160 32 167.2 32 176S39.16 192 48 192H128c88.22 0 160 71.78 160 160c0 8.844 7.156 16 16 16h32c8.844 0 16-7.156 16-16c0-53.86 27.38-103.6 71.86-133.1l14.92 28.35C405.7 270.4 384 308.6 384 352c0 70.69 57.31 128 128 128c70.69 0 128-57.31 128-128C640 281.3 582.7 224 512 224zM440.5 74.53C448.1 67.73 459.6 64 470.5 64C475.7 64 480 68.28 480 73.55v12.91C480 91.72 475.7 96 470.5 96h-56.83L440.5 74.53zM320.7 336H319.3C315.5 289.3 294.7 247.5 263.4 216.2l111.1-89.58l33.58 63.8C358.4 222.7 325.6 276.5 320.7 336zM512 448c-52.93 0-96-43.07-96-96c0-31.03 15.04-58.38 37.95-75.94l43.89 83.39C500.7 364.9 506.3 368 512 368c2.516 0 5.062-.5938 7.438-1.844c7.812-4.109 10.83-13.78 6.703-21.61l-43.87-83.36C491.7 258.1 501.6 256 512 256c52.94 0 96 43.06 96 96C608 404.9 564.9 448 512 448z"/></svg>