<svg xmlns="http://www.w3.org/2000/svg" viewBox="0 0 640 512"><!--! Font Awesome Pro 6.0.0-alpha3 by @fontawesome - https://fontawesome.com License - https://fontawesome.com/license (Commercial License) --><path d="M629.8 381.6l-126.1-197.5c-6.29-9.855-16.64-14.79-26.98-14.79c-10.34 0-20.67 4.932-26.96 14.79L409.6 247.1c0 0-129.6-203-129.6-203C274.7 36.08 265.3 32 255.9 32C246.5 32 237.1 36.07 231.9 44.22L8.928 393.6C-14.95 431 11.95 480 56.33 480h519.6C626.4 480 657 424.2 629.8 381.6zM56.29 448c-12.94 0-19.15-8.789-21.22-12.57c-2.071-3.779-6.138-13.74 .8224-24.65L255.9 66.05l220 344.7c6.96 10.9 2.893 20.87 .8224 24.65C474.7 439.2 468.5 448 455.6 448H56.29zM603.1 431.4C601.2 436.4 592.1 448 575.9 448h-69.9c7.941-16.49 8.308-36.7-3.008-54.43l-74.13-116.1l7.694-13.13l40.19-63.05c.0098-.002-.0527 0 0 0l126.1 197.5C612.1 413.2 606.7 426.4 603.1 431.4z"/></svg>