<svg xmlns="http://www.w3.org/2000/svg" viewBox="0 0 576 512"><!--! Font Awesome Pro 6.0.0-alpha3 by @fontawesome - https://fontawesome.com License - https://fontawesome.com/license (Commercial License) --><path d="M562 479.1c-28.14-3.625-53.3-18.34-69.03-40.38c-5.998-8.438-20.04-8.438-26.04 0C448.5 464.6 417.6 480 384.1 480c-33.52 0-64.64-15.44-83.08-41.28c-6.031-8.438-20.03-8.438-26.06 0C256.5 464.6 225.6 480 192.1 480c-33.51 0-64.64-15.44-83.07-41.28C106 434.5 101.2 432 96 432s-10.01 2.5-13.01 6.719c-15.73 22.03-40.89 36.75-69.03 40.38c-8.764 1.125-14.95 9.156-13.83 17.94c1.125 8.75 9.029 15.06 17.92 13.81c29.98-3.875 57.48-17.47 77.94-38.09c24.62 24.84 59.23 39.25 96.01 39.25c36.77 0 71.37-14.41 95.1-39.25C312.6 497.6 347.2 512 383.1 512c36.78 0 71.39-14.41 96.01-39.25c20.45 20.62 47.95 34.22 77.94 38.09c8.953 1.375 16.79-5.062 17.92-13.81C576.1 488.3 570.8 480.2 562 479.1zM288 384c44.18 0 80-35.82 80-80c0-38.7-27.48-70.97-64-78.39V128h64C376.8 128 384 120.8 384 112S376.8 96 368 96h-64V48C304 39.17 311.2 32 320 32h48C376.8 32 384 24.84 384 16S376.8 0 368 0H320c-26.47 0-48 21.53-48 48v177.6C235.5 233 208 265.3 208 304C208 348.2 243.8 384 288 384zM288 256c26.47 0 48 21.53 48 48S314.5 352 288 352s-48-21.53-48-48S261.5 256 288 256zM383.1 384c36.78 0 71.39-14.41 96.01-39.25c20.45 20.62 47.95 34.22 77.94 38.09c8.953 1.375 16.79-5.062 17.92-13.81c1.125-8.781-5.062-16.81-13.83-17.94c-28.14-3.625-53.3-18.34-69.03-40.38c-5.998-8.438-20.04-8.438-26.04 0c-17.47 24.49-46.35 39.17-77.84 40.69c-5.408 11.5-12.49 22.05-21.3 31.01C373.2 383.1 378.5 384 383.1 384zM18.05 382.8c29.98-3.875 57.48-17.47 77.94-38.09C120.6 369.6 155.2 384 192 384c5.494 0 10.79-.9453 16.17-1.576c-8.803-8.961-15.89-19.51-21.3-31.01c-31.49-1.518-60.36-16.2-77.84-40.69C106 306.5 101.2 304 96 304S85.99 306.5 82.99 310.7c-15.73 22.03-40.89 36.75-69.03 40.38c-8.764 1.125-14.95 9.156-13.83 17.94C1.258 377.8 9.162 384.1 18.05 382.8z"/></svg>