<svg xmlns="http://www.w3.org/2000/svg" viewBox="0 0 640 512"><!--! Font Awesome Pro 6.0.0-alpha3 by @fontawesome - https://fontawesome.com License - https://fontawesome.com/license (Commercial License) --><path d="M637.9 168c-3.531-6.094-10.73-9.181-17.36-7.65l-169.6 38.56L408.1 172.2C395.3 164.2 380.7 160 365.7 160H271.1V96h63.1c8.838 0 16-7.164 16-16c0-8.838-7.162-16-16-16H175.1C167.2 64 159.1 71.16 159.1 80c0 8.836 7.163 16 15.1 16h63.1v64H47.1C21.53 160 0 181.5 0 208v60.22c0 18.3 10.16 34.75 26.53 42.94l69.47 34.58L95.1 368c0 26.47 21.53 48 48 48h258c13.31 0 26.12-5.578 35.19-15.33l198.5-213.8C640.5 181.7 641.4 174.1 637.9 168zM95.1 208l-.0007 102.1L40.84 282.5C35.37 279.8 31.1 274.3 31.1 268.2V208c0-8.828 7.187-16 15.1-16h50.95C97.15 197 95.1 202.4 95.1 208zM413.8 378.9C410.7 382.1 406.5 384 402 384H143.1c-8.812 0-15.1-7.172-15.1-16v-160c0-8.828 7.187-16 15.1-16h221.7c8.1 0 17.78 2.516 25.44 7.297l48.44 30.27c3.594 2.25 7.937 3 11.1 2.047l125.5-28.52L413.8 378.9zM598.8 299.4c-1.541-2.627-4.192-3.941-6.843-3.941c-2.648 0-5.298 1.314-6.839 3.941c-13.26 22.59-41.16 72.81-41.16 95.32C543.1 424.1 565.4 448 591.1 448c26.61 0 47.1-23.91 47.1-53.28C639.1 372.2 612.1 321.1 598.8 299.4zM591.1 416c-8.672 0-15.1-9.746-16-21.18c.209-4.861 4.861-18.78 16-41.18c11.14 22.39 15.79 36.29 15.1 41.07C607.1 406.3 600.7 416 591.1 416z"/></svg>