<svg xmlns="http://www.w3.org/2000/svg" viewBox="0 0 640 512"><!--! Font Awesome Pro 6.0.0-alpha3 by @fontawesome - https://fontawesome.com License - https://fontawesome.com/license (Commercial License) --><path d="M512 56c-8.875 0-16 7.125-16 16s7.125 16 16 16s16-7.125 16-16S520.9 56 512 56zM592 32h-17.12l-13.25-13.25C549.5 6.625 533.5 0 516.4 0h-20.5c-11.12 0-22.12 2.875-31.75 8.375L310.9 96H288C182.1 96 96 182.1 96 288v1.125C41.75 296.9 0 343.6 0 400C0 461.8 50.25 512 112 512H256c26.5 0 48-21.5 48-48S282.5 416 256 416H112C103.1 416 96 408.9 96 400S103.1 384 112 384H320c17.62 0 32-14.38 32-32c0-23-12.25-43.25-30.5-54.5l48.63-25.88l47.38 94.62C422.9 377.1 433.1 384 446.1 384H544c17.62 0 32-14.38 32-32c0-35.25-28.75-64-64-64h-26.38L455 226.6l44.75-23.87C513 195.8 528.1 192 543.1 192c52.88 0 96-43 96-96L640 80C640 53.5 618.5 32 592 32zM544 160c-20.25 0-41.38 5-59.25 14.5L480.5 176.8l17-22C506.5 143 520.8 136 535.5 136h58.13C581.9 150.5 564.1 160 544 160zM607.3 104H535.5c-24.62 0-48.38 11.62-63.38 31.25L412.4 213L465.9 320H512c17.62 0 32 14.38 32 32h-97.88l-62-124L211.1 320H288c17.62 0 32 14.38 32 32H112C85.5 352 64 373.5 64 400S85.5 448 112 448H256c8.875 0 16 7.125 16 16S264.9 480 256 480H112C67.88 480 32 444.1 32 400S67.88 320 112 320H128V288c0-88.38 71.62-160 160-160h31.38L480 36.25C484.9 33.5 490.2 32 495.9 32h20.5c8.5 0 16.5 3.375 22.62 9.375L561.6 64H592C600.9 64 608 71.12 608 80C608 80 607.5 101.4 607.3 104z"/></svg>