<svg xmlns="http://www.w3.org/2000/svg" viewBox="0 0 448 512"><!--! Font Awesome Pro 6.0.0-alpha3 by @fontawesome - https://fontawesome.com License - https://fontawesome.com/license (Commercial License) --><path d="M118.8 161.5C116.6 160.5 114.3 160 112 160c-3.688 0-7.312 1.25-10.25 3.719l-96 80C2.094 246.8 0 251.3 0 256s2.094 9.245 5.75 12.28l96 80c2.936 2.457 6.566 3.699 10.23 3.699c2.305 0 4.625-.4922 6.797-1.481C124.4 347.9 128 342.2 128 336V176C128 169.8 124.4 164.2 118.8 161.5zM96 301.9l-55-45.84L96 210.2V301.9zM16 80h416C440.8 80 448 72.84 448 64s-7.156-16-16-16h-416C7.156 48 0 55.16 0 64S7.156 80 16 80zM432 176h-224C199.2 176 192 183.2 192 192s7.156 16 16 16h224C440.8 208 448 200.8 448 192S440.8 176 432 176zM432 304h-224C199.2 304 192 311.2 192 320s7.156 16 16 16h224c8.844 0 16-7.156 16-16S440.8 304 432 304zM432 432h-416C7.156 432 0 439.2 0 448s7.156 16 16 16h416c8.844 0 16-7.156 16-16S440.8 432 432 432z"/></svg>