<svg xmlns="http://www.w3.org/2000/svg" viewBox="0 0 384 512"><!--! Font Awesome Pro 6.0.0-alpha3 by @fontawesome - https://fontawesome.com License - https://fontawesome.com/license (Commercial License) --><path d="M352 112V352c0 88.22-71.78 160-160 160s-160-71.78-160-160V208C32 199.2 39.16 192 48 192S64 199.2 64 208V352c0 70.58 57.42 128 128 128s128-57.42 128-128V112C320 67.89 284.1 32 240 32S160 67.89 160 112V320c0 17.64 14.36 32 32 32s32-14.36 32-32V144C224 135.2 231.2 128 240 128S256 135.2 256 144V320c0 35.3-28.7 64-64 64s-64-28.7-64-64V112C128 50.25 178.3 0 240 0S352 50.25 352 112z"/></svg>