<svg xmlns="http://www.w3.org/2000/svg" viewBox="0 0 512 512"><!--! Font Awesome Pro 6.0.0-alpha3 by @fontawesome - https://fontawesome.com License - https://fontawesome.com/license (Commercial License) --><path d="M511.9 204.2C499.3 80.88 368.8 0 255.1 0S12.73 80.88 .1074 204.2C-1.018 214.9 6.858 224 16.11 224h32.5l111.4 121.4L159.1 480c0 17.75 14.25 32 32 32h128c17.75 0 32-14.25 32-32l.0277-134.6L463.3 224h32.5C505.1 224 513 214.9 511.9 204.2zM256 32c51.75 0 112 64 112 160H143.1C143.1 96 204.2 32 256 32zM34.23 192c13.5-65.12 66.75-115.2 129.1-140.9C133.2 83.75 111.1 132.1 111.1 191.2V192H34.23zM180.1 320L91.99 224h148l.0004 96H180.1zM320 472c0 4.375-3.625 8-8.001 8H199.1c-4.375 0-8.001-3.625-8.001-8v-112c0-4.375 3.625-8 8.001-8h112c4.375 0 8.001 3.625 8.001 8V472zM331.9 320h-59.88l.0004-96h147.9L331.9 320zM400 192V191.2c0-59.13-21.25-107.4-51.38-140.1C410.9 76.75 464.3 126.9 477.8 192H400z"/></svg>