<svg xmlns="http://www.w3.org/2000/svg" viewBox="0 0 640 512"><!--! Font Awesome Pro 6.0.0-alpha3 by @fontawesome - https://fontawesome.com License - https://fontawesome.com/license (Commercial License) --><path d="M256 384H64c-35.35 0-64 28.65-64 64s28.65 64 64 64h192c35.35 0 64-28.65 64-64S291.3 384 256 384zM256 480H64c-17.64 0-32-14.36-32-32s14.35-32 31.1-32H256c17.64 0 31.1 14.36 31.1 32S273.6 480 256 480zM636.8 438.4c-5.297-7.094-15.34-8.547-22.39-3.203l-46.95 35.2c-1.926 1.447-4.246 2.193-6.365 3.328l-56.07-70.09l63.21-37.93C573 362.8 576 357.6 576 352V256c0-5.859-3.203-11.25-8.344-14.05l-171.6-93.59l-29.71-59.49c-3.969-7.906-13.57-11.08-21.49-7.161c-7.906 3.953-11.11 13.58-7.161 21.49l27.83 55.65L332.8 208H294.6L248.2 161.6C236.9 150.3 221.8 144 205.8 144c-24.66 0-46.53 14.8-55.7 37.72L129.1 234.1C125.9 242.3 129.9 251.6 138.1 254.9C140 255.6 142 256 144 256c6.344 0 12.36-3.797 14.86-10.06L179.8 193.6c7.062-17.66 32.34-22.84 45.78-9.406l51.11 51.11C279.7 238.3 283.8 240 288 240h23.44l-32 48L95.1 288.1c-6.062 0-11.59 3.347-14.31 8.769l-16 32c-3.953 7.906-.75 17.52 7.156 21.47c7.875 3.906 17.5 .7344 21.47-7.156L105.9 320H288c5.344 0 10.34-2.672 13.31-7.125l87.88-131.8L544 265.5v77.44L475.6 384H352c-8.844 0-16 7.156-16 16S343.2 416 352 416h122.5c.3848 .6543 .5391 1.389 1.027 2L525.1 480H432c-8.844 0-16.01 7.156-16.01 16s7.156 16 15.1 16h106.7c17.2 0 34.25-5.688 47.98-16l46.94-35.2C640.7 455.5 642.1 445.5 636.8 438.4zM224 128c35.35 0 64-28.65 64-64c0-35.35-28.65-64-64-64S160 28.65 160 64C160 99.35 188.7 128 224 128zM224 32c17.64 0 32 14.36 32 32S241.6 96 224 96S192 81.64 192 64S206.4 32 224 32z"/></svg>