<svg xmlns="http://www.w3.org/2000/svg" viewBox="0 0 640 512"><!--! Font Awesome Pro 6.0.0-alpha3 by @fontawesome - https://fontawesome.com License - https://fontawesome.com/license (Commercial License) --><path d="M156.7 202.1c3.051 3.729 12.1 9.982 21.75 2.25l104.3-88.88c6.375-5.5 7-15.5 1.375-22.38C268.2 73.93 245.6 63.97 223.3 63.97c-17.12 0-34.12 5.85-47.95 17.89L117.2 130.6c-6.375 5.625-7 15.5-1.375 22.38L156.7 202.1zM196.4 105.1c9.52-8.287 19.9-10.03 26.94-10.03c8.678 0 17.14 2.564 24.5 7.234L170.7 168.9L150.4 144.5L196.4 105.1zM384 128c35.35 0 64-28.65 64-64c0-35.35-28.65-64-64-64s-64 28.65-64 64C320 99.35 348.7 128 384 128zM384 32c17.64 0 32 14.36 32 32s-14.36 32-32 32s-32-14.36-32-32S366.4 32 384 32zM250.7 222.6L311.9 171.6c5.375-4.547 13.27-4.938 19.11-1.031l76.13 50.75C409.8 223.1 412.8 224 416 224h64c8.844 0 16-7.156 16-16S488.8 192 480 192h-59.16l-72.09-48.06C331.2 132.2 307.6 133.5 291.4 147L230.2 197.1C222.4 204.5 218.2 214.1 218.8 224.3c.5469 10.19 5.719 19.27 14.2 24.94L304 296.6V416c0 8.844 7.156 16 16 16s16-7.156 16-16V288c0-5.344-2.672-10.34-7.125-13.31L250.7 222.6zM624 352h-5.25c-2.125-7.25-5-14.25-8.625-20.88l3.75-3.625c6.25-6.25 6.25-16.5 0-22.75l-22.62-22.62C588.1 279 584 277.4 579.9 277.4S571.6 279 568.5 282.1l-3.625 3.75C558.3 282.3 551.3 279.4 544 277.3V272C544 263.1 536.9 256 528 256h-32C487.1 256 480 263.1 480 272v5.25c-7.25 2.125-14.25 5-20.88 8.625L455.5 282.1c-3.125-3.125-7.219-4.688-11.31-4.688S435.1 279 432.9 282.1l-22.6 22.62c-6.25 6.25-6.25 16.5 0 22.75l3.625 3.625C410.3 337.8 407.4 344.8 405.3 352H400c-8.875 0-16 7.125-16 16v32c0 8.875 7.125 16 16 16h5.25c2.125 7.25 5 14.25 8.625 20.88l-3.75 3.625c-6.25 6.25-6.25 16.5 0 22.75l22.62 22.62C435.9 489 440 490.6 444.1 490.6s8.225-1.562 11.35-4.688l3.65-3.75C465.8 485.8 472.8 488.6 480 490.8V496c0 8.875 7.125 16 16 16h32c8.875 0 16-7.125 16-16v-5.25c7.25-2.125 14.25-5 20.88-8.625l3.75 3.75c3.125 3.125 7.219 4.688 11.31 4.688s8.188-1.562 11.31-4.688l22.62-22.62c6.25-6.25 6.25-16.5 0-22.75l-3.75-3.625C613.8 430.3 616.6 423.3 618.8 416H624c8.875 0 16-7.125 16-16v-32C640 359.1 632.9 352 624 352zM512 472c-48.6 0-88-39.4-88-88S463.4 296 512 296s88 39.4 88 88S560.6 472 512 472zM240 352H234.8c-2.125-7.25-5-14.25-8.625-20.88l3.75-3.625c6.25-6.25 6.25-16.5 0-22.75L207.3 282.1C204.1 279 200 277.4 195.9 277.4S187.6 279 184.5 282.1L180.9 285.9C174.3 282.3 167.3 279.4 160 277.3V272C160 263.1 152.9 256 144 256h-32C103.1 256 96 263.1 96 272v5.25c-7.25 2.125-14.25 5-20.88 8.625L71.5 282.1C68.38 279 64.25 277.4 60.16 277.4S51.9 279 48.78 282.1L26.15 304.8c-6.25 6.25-6.25 16.5 0 22.75l3.725 3.625C26.25 337.8 23.37 344.8 21.25 352H16C7.125 352 0 359.1 0 368v32C0 408.9 7.125 416 16 416h5.25c2.125 7.25 5 14.25 8.625 20.88L26.12 440.5c-6.25 6.25-6.25 16.5 0 22.75l22.63 22.62C51.88 489 56 490.6 60.13 490.6s8.225-1.562 11.35-4.688l3.65-3.75C81.75 485.8 88.75 488.6 96 490.8V496C96 504.9 103.1 512 112 512h32C152.9 512 160 504.9 160 496v-5.25c7.25-2.125 14.25-5 20.88-8.625l3.675 3.75c3.125 3.125 7.262 4.688 11.36 4.688s8.219-1.562 11.34-4.688l22.62-22.62c6.25-6.25 6.25-16.5 0-22.75l-3.75-3.625C229.8 430.3 232.6 423.3 234.8 416H240C248.9 416 256 408.9 256 400v-32C256 359.1 248.9 352 240 352zM128 472c-48.6 0-88-39.4-88-88S79.4 296 128 296S216 335.4 216 384S176.6 472 128 472zM512 360c-13.25 0-24 10.74-24 24c0 13.25 10.75 24 24 24c13.26 0 24-10.75 24-24C536 370.7 525.3 360 512 360zM128 360c-13.25 0-24 10.74-24 24c0 13.25 10.75 24 24 24c13.26 0 24-10.75 24-24C152 370.7 141.3 360 128 360z"/></svg>