<svg xmlns="http://www.w3.org/2000/svg" viewBox="0 0 640 512"><!--! Font Awesome Pro 6.0.0-alpha3 by @fontawesome - https://fontawesome.com License - https://fontawesome.com/license (Commercial License) --><path d="M250.7 222.6L311.9 171.6c5.375-4.547 13.27-4.938 19.11-1.031l76.13 50.75C409.8 223.1 412.8 224 416 224h64c8.844 0 16-7.156 16-16S488.8 192 480 192h-59.16l-72.09-48.06C331.2 132.2 307.6 133.5 291.4 147L230.2 197.1C222.4 204.5 218.2 214.1 218.8 224.3c.5469 10.19 5.719 19.27 14.2 24.94L304 296.6V416c0 8.844 7.156 16 16 16s16-7.156 16-16V288c0-5.344-2.672-10.34-7.125-13.31L250.7 222.6zM384 128c35.35 0 64-28.65 64-64c0-35.35-28.65-64-64-64s-64 28.65-64 64C320 99.35 348.7 128 384 128zM384 32c17.64 0 32 14.36 32 32s-14.36 32-32 32s-32-14.36-32-32S366.4 32 384 32zM128 256c-70.69 0-128 57.31-128 128c0 70.69 57.31 128 128 128c70.69 0 128-57.31 128-128C256 313.3 198.7 256 128 256zM128 480c-52.94 0-96-43.07-96-96c0-52.94 43.06-96 96-96s96 43.06 96 96C224 436.9 180.9 480 128 480zM512 256c-70.69 0-128 57.31-128 128c0 70.69 57.31 128 128 128c70.69 0 128-57.31 128-128C640 313.3 582.7 256 512 256zM512 480c-52.94 0-96-43.07-96-96c0-52.94 43.06-96 96-96s96 43.06 96 96C608 436.9 564.9 480 512 480z"/></svg>