<svg xmlns="http://www.w3.org/2000/svg" viewBox="0 0 384 512"><!--! Font Awesome Pro 6.0.0-alpha3 by @fontawesome - https://fontawesome.com License - https://fontawesome.com/license (Commercial License) --><path d="M368 176h-17.62C342.2 95.38 274.7 32 192 32H80C53.59 32 32.06 53.41 32.02 79.75L32.06 176H16C7.156 176 0 183.2 0 192s7.156 16 16 16h16.1l.1621 125.1C32.19 334.6 32.14 335.3 32.14 336c0 .7187 .0469 1.406 .1406 2.062c.0469 57.19 .0469 105.6-.1406 125.8C32.06 472.7 39.16 479.9 47.98 480c8.766 0 16.08-7.062 16.16-15.84C64.31 445.6 64.33 403.2 64.28 352h127.7c82.71 0 150.2-63.38 158.4-144H368C376.8 208 384 200.8 384 192S376.8 176 368 176zM64.02 79.81C64.03 71.09 71.2 64 80 64h112.1c65.07 0 118.3 49.02 126.3 112H64.06L64.02 79.81zM192.1 320H64.13L64.1 208h254.3C310.4 270.1 257.1 320 192.1 320z"/></svg>