<svg xmlns="http://www.w3.org/2000/svg" viewBox="0 0 448 512"><!--! Font Awesome Pro 6.0.0-alpha3 by @fontawesome - https://fontawesome.com License - https://fontawesome.com/license (Commercial License) --><path d="M400 240h-19.06C382.9 229.6 384 218.9 384 208c0-5.4-.332-10.72-.8105-16H400C408.8 192 416 184.8 416 176S408.8 160 400 160h-22.82c-20.96-73.75-88.81-128-169.2-128H104c-22.1 0-40.01 17.91-40 40.01L64.03 160H48C39.16 160 32 167.2 32 176S39.16 192 48 192h16.02l.1218 48H48C39.16 240 32 247.2 32 256s7.156 16 16 16h16.2l.1016 93.72C64.19 366.5 64.14 367.2 64.14 368s.0625 1.531 .1562 2.281c.0313 42.72 0 77.28-.1562 93.56C64.06 472.7 71.16 479.9 79.98 480c8.766 0 16.08-7.062 16.16-15.84C96.28 449.6 96.31 420.5 96.31 384h111.7c74.41 0 138.1-46.55 163.8-112H400C408.8 272 416 264.8 416 256S408.8 240 400 240zM96.02 79.79C96.03 70.96 103.2 64 112 64h96.06c62.46 0 115.2 40.25 135.1 96H96.02L96.02 79.79zM96.08 192h254.3C350.1 197.3 352 202.5 352 208c0 11.03-1.508 21.67-3.867 32H96.07L96.08 192zM208 352H96.14c-.0117-25.12 .0898-52.45 .0508-80h240.1C312.7 319.2 264.3 352 208 352z"/></svg>