<svg xmlns="http://www.w3.org/2000/svg" viewBox="0 0 576 512"><!--! Font Awesome Pro 6.0.0-alpha3 by @fontawesome - https://fontawesome.com License - https://fontawesome.com/license (Commercial License) --><path d="M432 248c-13.12 0-24 10.88-24 24s10.88 24 24 24s24-10.88 24-24S445.1 248 432 248zM544 224l-13.53-.0053c-11.12-25.25-28.72-46.87-50.47-63.37l.0008-64.63L463.1 96.01c-46.63 0-83.13 27.25-89.38 31.1H223.1c-41.38 0-82.63 17.37-111.8 45.87c-22.37 21.88-38.5 50.25-45.13 82.12L55.98 256c-14.88 0-26.5-13.51-23.5-28.76c1.615-8.744 8.51-16.4 19.13-18.6c7.26-1.508 12.36-8.087 12.36-15.5c0-10.14-9.436-17.89-19.33-15.63C21.93 182.7 3.52 200.9 .4728 224.6c-4.375 34.13 22.13 63.38 55.51 63.38l7.994 .0034c0 52.25 25.38 98.12 64 127.2v48.75C127.1 490.4 149.6 512 175.1 512H223.1c26.4 0 47.1-21.6 47.1-47.1V448h64v15.1C335.1 490.4 357.6 512 383.1 512h48.01c26.4 0 48-21.6 48-47.1l.0014-48.74c11.63-9 22.45-19.51 31.32-31.26l32.68 .0023c17.6 0 32-14.4 32-32V256C576 238.4 561.6 224 544 224zM543.1 352h-48.75c-17 22.38-17 24.12-47.25 47.25V464c0 8.837-7.163 16-16 16h-48c-8.837 0-16-7.163-16-16V416H239.1v48c0 8.837-7.163 16-16 16H175.1c-8.837 0-16-7.163-16-16v-64.75C95.1 350.3 95.99 305.8 95.99 288c0-70.63 57.37-128 127.1-128h161.8c16.88-13.5 33.13-26.5 62.25-30.75V176.5C487.7 206.6 491.1 215.8 509.6 256h34.38V352zM173.9 111.8C174.8 111.9 175.6 112 176.5 112c7.945 0 14.96-5.57 16.24-13.39C199.1 59.89 233.3 31.77 274.1 31.77c35.19 0 66.48 21.55 77.9 53.6c2.959 8.285 12.25 12.66 20.91 9.883c8.619-2.855 13.19-11.88 10.23-20.19C367.1 30.18 323.3 0 274.1 0C217 0 169.1 39.38 160.2 93.62C158.8 102.3 164.9 110.4 173.9 111.8z"/></svg>