<svg xmlns="http://www.w3.org/2000/svg" viewBox="0 0 640 512"><!--! Font Awesome Pro 6.0.0-alpha3 by @fontawesome - https://fontawesome.com License - https://fontawesome.com/license (Commercial License) --><path d="M105.1 314.2L17.38 356C7 361 0 373.9 0 388.4v106.7c0 7.979 5.4 15.42 13.27 16.74C23.26 513.4 32 505.7 32 496v-107.6c0-2 .5-3.5 .75-4.25l86.12-41.03C124.4 340.4 128 334.8 128 328.6C128 316.9 115.7 309.1 105.1 314.2zM313.8 320.3C280.4 323.5 256 353.4 256 386.8V496C256 504.8 263.2 512 272 512S288 504.8 288 496v-110.3c0-15.88 10.88-30.75 26.62-33.25C334.6 349.1 352 364.6 352 384v112c0 8.799 7.199 16 16 16s16-7.201 16-16V384C384 346.6 351.9 316.6 313.8 320.3zM464.5 246.6L416 217.6V102.6c0-8.494-3.37-16.62-9.382-22.62L331.3 4.721C328.3 1.471 324.1 0 320 0S311.7 1.471 308.7 4.721L233.4 79.93C227.4 85.93 224 94.07 224 102.6v115l-48.5 29C165.9 252.5 160 262.8 160 274V496C160 504.8 167.2 512 176 512S192 504.8 192 496V274.1l64-38.38V102.6l64-64l64 64v133.1l64 38.38V496c0 8.799 7.199 16 16 16s16-7.201 16-16V274C480 262.8 474.1 252.5 464.5 246.6zM622.6 356l-87.71-41.82C524.3 309.1 512 316.9 512 328.6c0 6.178 3.553 11.8 9.131 14.46l86.12 41.03C607.5 384.9 608 386.4 608 388.4v106.7c0 7.979 5.4 15.42 13.27 16.74C631.3 513.4 640 505.7 640 496v-107.6C640 373.9 633 361 622.6 356z"/></svg>