<svg xmlns="http://www.w3.org/2000/svg" viewBox="0 0 576 512"><!--! Font Awesome Pro 6.0.0-alpha3 by @fontawesome - https://fontawesome.com License - https://fontawesome.com/license (Commercial License) --><path d="M464 176h-89.42L274.5 16.08C269 6.609 257.6 0 246.7 0H181.2C171.1 0 161.7 4.642 155.6 12.75c-6.094 8.094-7.989 18.33-5.083 28.45L193.1 176H135.1L97.58 124.8C91.56 116.8 82 112 71.98 112H31.99c-9.922 0-19.11 4.481-25.22 12.31C.6797 132.1-1.453 142.1 1.125 152.3L20 217.2C7.93 225.9 .0001 239.1 .0001 256s7.934 30.13 20 38.85l-19.04 65.39c-2.422 9.625-.2891 19.64 5.805 27.46C12.88 395.5 22.07 400 31.99 400h39.99c10.02 0 19.58-4.781 25.61-12.81L135.1 336h57.07l-42.61 135.2c-2.797 9.75-.8994 19.97 5.194 28.08C161.8 507.4 171.1 512 181.2 512h65.5c11.45 0 22.1-6.188 27.44-15.58L374.6 336H464c38.45 0 112-31.16 112-80S502.5 176 464 176zM464 304h-107.1L246.7 480l-65.75 .793L236.7 304H119.1l-48 64l-40.29 1.178l25.34-87.05L38.74 268.9C36.71 267.4 32 263.3 32 256c0-7.256 4.711-11.44 6.734-12.9l18.3-13.21L31.98 144l39.99-.002L119.1 208h116.7L181.2 32h64.96l1.211 1.053L356.9 208H464C491.1 208 544 232.7 544 256C544 279.3 491.1 304 464 304zM369.7 135.2C372.5 140.8 378.1 144 384 144c2.406 0 4.844-.5469 7.141-1.688c7.906-3.953 11.11-13.56 7.156-21.47l-32-64c-3.969-7.891-13.58-11.06-21.47-7.156c-7.906 3.953-11.11 13.56-7.156 21.47L369.7 135.2zM391.2 369.7c-7.875-3.938-17.5-.7656-21.47 7.156l-32 64c-3.953 7.906-.75 17.52 7.156 21.47C347.1 463.5 349.6 464 351.1 464c5.875 0 11.52-3.234 14.33-8.844l32-64C402.3 383.3 399.1 373.6 391.2 369.7z"/></svg>