<svg xmlns="http://www.w3.org/2000/svg" viewBox="0 0 640 512"><!--! Font Awesome Pro 6.0.0-alpha3 by @fontawesome - https://fontawesome.com License - https://fontawesome.com/license (Commercial License) --><path d="M633.9 483.4L25.9 3.42C18.1-2.033 8.936-.8301 3.436 6.061c-5.469 6.938-4.281 17 2.656 22.49l608 480C617 510.9 620.5 512 624 512c4.719 0 9.406-2.094 12.56-6.078C642 498.1 640.8 488.9 633.9 483.4zM272 111.1c0-31.59 25.75-80 48-80s48 48.41 48 80v59.14L544 281.3l.3027 70.25l21.9 17.29C572.1 362.9 576 355.3 576 346.8V281.3c0-11.45-6.188-22.1-15.58-27.44L400 153.4V111.1C400 73.55 368.8 0 320 0C271.4 0 240.4 72.72 240.1 111.3L272 136.6V111.1zM432.6 480.1L320 447.3l-112 32.67v-40.02l64-47.98V299.6L264.5 293.7L96 346.8V281.3l85.21-53.32l-26.67-21.05L80.08 253.5C70.61 258.9 64 270.4 64 281.3v65.51c0 10.14 4.642 19.47 12.75 25.56c8.094 6.094 18.33 7.986 28.45 5.08L240 334.9v41.07l-51.2 38.41C180.8 420.4 176 429.1 176 440v39.1c0 9.922 4.481 19.11 12.31 25.22c7.812 6.094 17.83 8.222 28.03 5.644l103.7-30.19l104.2 30.35c9.625 2.422 19.64 .2939 27.46-5.8C459.5 499.1 464 489.9 464 480v-28.8l-31.91-25.19L432.6 480.1z"/></svg>