<svg xmlns="http://www.w3.org/2000/svg" viewBox="0 0 576 512"><!--! Font Awesome Pro 6.0.0-alpha3 by @fontawesome - https://fontawesome.com License - https://fontawesome.com/license (Commercial License) --><path d="M463.1 176h-104.1l-9.143-64h18.11l.0063 32c0 8.836 7.164 16 16 16s16-7.164 16-16v-32c8.836 0 16-7.164 16-16c0-8.838-7.164-16-16-16v-32c0-8.838-7.164-16-16-16s-16 7.162-16 16l-.0063 32H345.3l-7.504-52.53C335.6 11.81 321.9 0 306.1 0H269.9C254.1 0 240.4 11.81 238.2 27.47L235.2 48H223.1c-26.47 0-48 21.53-48 48c0 25.65 20.26 46.48 45.6 47.76L216.3 180.6L147.9 186.3L142.7 149.5C140.9 137.3 130.2 128 117.8 128H74.2c-12.41 0-23.09 9.266-24.84 21.16L39.95 204.4C25.01 208.3 12.51 218.4 5.602 232.2c-7.469 14.92-7.469 32.73 0 47.67c6.688 13.31 18.56 23.19 34.31 27.59l9.375 55.03C51.1 374.8 61.79 384 74.2 384h43.56c12.41 0 23.09-9.25 24.91-21.59l5.25-36.69l68.41 5.688l5.256 36.84C196.3 369.5 175.1 390.4 175.1 416c0 26.47 21.53 48 48 48h11.26l2.926 20.5C240.4 500.2 254 512 269.9 512h36.25c15.84 0 29.46-11.81 31.68-27.5L345.3 432h22.69l.0063 32c0 8.836 7.164 16 16 16s16-7.164 16-16v-32c8.836 0 16-7.164 16-16c0-8.838-7.164-16-16-16v-32c0-8.838-7.164-16-16-16s-16 7.162-16 16l-.0063 32h-18.11l9.145-64h104.1C502.5 336 576 304.8 576 256S502.5 176 463.1 176zM223.1 112c-8.813 0-16-7.172-16-16s7.188-16 16-16h6.694l-4.567 32H223.1zM223.1 432c-8.813 0-16-7.188-16-16s7.188-16 16-16H226.1l4.567 32H223.1zM463.1 304h-132.7L306.1 480H269.9L244.4 301.7L120.5 291.3L111.8 352H79.98L67.54 279.1L48.07 276.6c-6-1.484-11.06-5.547-13.84-11.11c-2.969-5.953-2.969-13.08 0-19.02c2.781-5.562 7.844-9.625 12.09-10.8l21.22-2.844L79.98 160h31.85l8.657 60.69l123.9-10.33L269.9 32h36.25l25.16 176h132.7c31.6 0 80 25.75 80 48S495.6 304 463.1 304z"/></svg>