<svg xmlns="http://www.w3.org/2000/svg" viewBox="0 0 512 512"><!--! Font Awesome Pro 6.0.0-alpha3 by @fontawesome - https://fontawesome.com License - https://fontawesome.com/license (Commercial License) --><path d="M496 480h-204.4c-21.62 0-42.84-3.938-63.03-11.66L32 392.1v-44.63l203.8-54.41C250.6 290 265.9 288 281.2 288h214.6c8.844 0 16-7.156 16-16s-7.156-16-16-16h-105.3c-28.04-27.38-185.1-183.3-244.3-242.2C137.2 4.906 125.2 0 112.4 0H48C33.44 0 19.81 6.5 10.66 17.84C1.5 29.2-1.969 43.89 1.125 58.14l54.21 250.9L23.81 317.4C9.781 321.1 0 333.8 0 348.3v44.66c0 13.16 8.25 25.16 20.56 29.88l196.5 75.38C240.9 507.4 265.1 512 291.6 512H496c8.844 0 16-7.156 16-16S504.8 480 496 480zM32.38 51.39c-1-4.766 .1562-9.656 3.188-13.45C38.63 34.17 43.16 32 48 32h64.44c4.312 0 8.156 1.562 11.12 4.5C249.4 161.6 312.6 224.4 345.3 256h-64.16c-18.06 0-36.09 2.359-53.59 7.031L86.26 300.7L32.38 51.39zM208 352C199.2 352 192 359.2 192 368C192 376.8 199.2 384 208 384h160c8.836 0 16-7.164 16-16c0-8.838-7.164-16-16-16H208z"/></svg>