<svg xmlns="http://www.w3.org/2000/svg" viewBox="0 0 576 512"><!--! Font Awesome Pro 6.0.0-alpha3 by @fontawesome - https://fontawesome.com License - https://fontawesome.com/license (Commercial License) --><path d="M463.1 176h-89.42L274.5 16.08C269 6.609 257.6 0 246.7 0H181.2C171.1 0 161.7 4.642 155.6 12.75C149.6 20.84 147.7 31.08 150.6 41.2L193.1 176H135.1L97.58 124.8C91.56 116.8 82 112 71.98 112H31.99C22.07 112 12.88 116.5 6.774 124.3C.6799 132.1-1.453 142.1 1.125 152.3l30.2 103.7l-30.35 104.2c-2.422 9.625-.2888 19.64 5.805 27.46C12.88 395.5 22.07 400 31.99 400h39.99c10.02 0 19.58-4.781 25.61-12.81L135.1 336h57.07l-42.61 135.2c-2.797 9.75-.899 19.97 5.195 28.08C161.8 507.4 171.1 512 181.2 512h65.5c11.45 0 22.1-6.188 27.44-15.58L374.6 336h89.42C502.5 336 576 304.8 576 256S502.5 176 463.1 176zM464 304h-107.1L246.7 480l-65.63 .4062L236.7 304H119.1l-48 64l-40.14 .5938L64.66 256L31.98 144H72l47.98 64h116.7L181.2 32h65.52l110.1 176H464C495.6 208 544 233.8 544 256S495.6 304 464 304z"/></svg>