<svg xmlns="http://www.w3.org/2000/svg" viewBox="0 0 640 512"><!--! Font Awesome Pro 6.0.0-alpha3 by @fontawesome - https://fontawesome.com License - https://fontawesome.com/license (Commercial License) --><path d="M624 480H17.11c-8.836 0-16 7.162-16 16c0 8.836 7.164 16 16 16H624c8.801 0 16-7.201 16-16C640 487.2 632.8 480 624 480zM80.49 371.3C88.24 379.4 98.86 384 109.1 384l127.1-.125c11.25-.125 22.38-2.625 32.5-7.625l283-140.4c29.25-14.38 52.88-34.5 68.38-58.13c18-27.25 22.38-50.25 13.25-68.38c-11.62-22.88-42-30.75-72.75-30.75c-26 0-52.5 6.5-78.75 19.62l-92.75 46L181.2 67.63C177.2 65.25 172.7 64 167.1 64c-4 0-7.875 .875-11.5 2.625l-64 31.75c-7.5 3.75-12.62 11-13.75 19.38C77.61 127 82.11 136.1 90.24 141l136.5 84.13l-84 41.63L75.99 233.9c-7.25-3.625-15.63-3.625-22.88 0l-39 19.38c-7 3.375-12.12 9.875-13.62 17.5s.5 15.62 5.625 21.5L80.49 371.3zM64.61 263.9l78.25 38.5l149.9-74.25L118.5 121.3l49.38-24.5l224 82.13l105-52c21.88-10.75 43.63-16.25 64.63-16.25c16.25 0 39.38 3.625 44.25 13.25c3.375 6.75-.875 20.25-11.38 36.25C581.1 179 562.6 195.4 538.5 207.3L255.4 347.5c-5.625 2.875-11.88 4.375-18.25 4.375L110.1 352c-2.375 0-4.625-1-6.375-2.625L36.49 277.8L64.61 263.9z"/></svg>