<svg xmlns="http://www.w3.org/2000/svg" viewBox="0 0 512 512"><!--! Font Awesome Pro 6.0.0-alpha3 by @fontawesome - https://fontawesome.com License - https://fontawesome.com/license (Commercial License) --><path d="M176 111.1v41.42L16.08 253.5C6.609 258.9 0 270.4 0 281.3v65.51c0 10.14 4.642 19.47 12.75 25.56c8.094 6.094 18.33 7.986 28.45 5.08L176 334.9v41.07l-51.2 38.41C116.8 420.4 112 429.1 112 440v39.1c0 9.922 4.481 19.11 12.31 25.22c7.812 6.094 17.83 8.222 28.03 5.644l103.7-30.19l104.2 30.35c9.625 2.422 19.64 .2937 27.46-5.8C395.5 499.1 400 489.9 400 480v-39.1c0-10.02-4.781-19.58-12.81-25.61L336 376v-41.07l135.2 42.6c9.75 2.797 19.97 .9026 28.08-5.191C507.4 366.2 512 356.9 512 346.8V281.3c0-11.45-6.188-22.1-15.58-27.44L336 153.4v-41.42C336 73.55 304.8 0 256 0S176 73.55 176 111.1zM304 111.1v59.14L480 281.3l.4062 65.62L304 291.3v100.7l64 47.1l.5938 40.14L256 447.3l-112 32.67v-40.01l64-47.98V291.3L32 346.8V281.3l176-110.1v-59.14c0-31.59 25.75-79.1 48-79.1S304 80.4 304 111.1z"/></svg>