<svg xmlns="http://www.w3.org/2000/svg" viewBox="0 0 640 512"><!--! Font Awesome Pro 6.0.0-alpha3 by @fontawesome - https://fontawesome.com License - https://fontawesome.com/license (Commercial License) --><path d="M624 480h-608C7.199 480 0 487.2 0 496C0 504.8 7.199 512 16 512h608c8.801 0 16-7.201 16-16C640 487.2 632.8 480 624 480zM45.88 228.4L139.3 311.5c8.375 7.75 18.62 13.38 29.5 16.38l295.9 81.37C480.9 413.8 497 416 512.5 416c13.88 0 27.25-1.75 39.75-5.375c30.88-8.625 49.13-23.12 54.38-43c5.125-19.75-3.625-41.75-26.12-65.12c-19.5-20.12-46-35.25-76.63-43.75L407 232.1c0 0-100.6-193.9-102.6-198.1c-3.25-6.75-9-11.75-16.12-13.62c-19.12-5.375-71.5-20.38-71.5-20.38c-.25 0-10.75-.5-18.62 8.625C192.6 14.88 190.8 25 193 33l42.38 151.9l-87.38-24L121.1 93C118.3 85.63 112 79.88 104.4 77.75c-44.5-12.25-43-12.12-47.38-12.12c-13.5 0-24.75 11.38-25 25.25l.25 107.2C32.5 209.8 37.5 220.8 45.88 228.4zM92.5 107.8l31.62 79.62l157.8 43.5l-54.5-194.6l48.88 14l108.8 208.1l110.4 30.38c25.12 6.875 46.5 19 62 35.13c13.62 14.12 20.25 26.88 18.25 34.87c-2 7.75-13.75 15.12-32 20.25c-30.88 8.625-60.13 1.375-70.5-1.5L177.3 297C171.1 295.3 165.5 292.1 160.8 287.9L67.5 204.8c-2-1.75-3.125-4.5-3.25-7.25L64.13 99.88L92.5 107.8z"/></svg>