<svg xmlns="http://www.w3.org/2000/svg" viewBox="0 0 640 512"><!--! Font Awesome Pro 6.0.0-alpha3 by @fontawesome - https://fontawesome.com License - https://fontawesome.com/license (Commercial License) --><path d="M278.7 480l-65.63 .4062L268.7 304H151.1l-48 64l-40.14 .5938L96.66 256L60.46 132.6L44.27 119.8c-1.84 1.504-3.998 2.547-5.5 4.473C32.67 132.1 30.55 142.1 33.13 152.3l30.2 103.7l-30.35 104.2c-2.422 9.625-.2891 19.64 5.805 27.46C44.88 395.5 54.07 400 63.99 400h39.99c10.02 0 19.58-4.781 25.61-12.81L167.1 336h57.07l-42.61 135.2c-2.797 9.75-.8994 19.97 5.194 28.08c6.109 8.109 15.42 12.75 25.57 12.75h65.5c11.45 0 22.1-6.186 27.44-15.58l71.14-113.7l-25.26-19.94L278.7 480zM192.9 74.14l44.65 35.25L213.2 32h65.52l110.1 176H496C527.6 208 576 233.8 576 256s-48.35 48-79.95 48h-11.96l36.2 28.58C559.2 323.6 607.1 295.9 607.1 256c0-48.84-73.55-80-111.1-80h-89.42L306.5 16.08C301 6.609 289.6 .0016 278.7 .0016H213.2c-10.14 0-19.47 4.64-25.57 12.75c-6.094 8.094-7.989 18.33-5.083 28.45L192.9 74.14zM633.9 483.4L25.9 3.42C18.1-2.033 8.936-.8301 3.436 6.061c-5.469 6.938-4.281 17 2.656 22.49l608 480C617 510.9 620.5 512 624 512c4.719 0 9.406-2.094 12.56-6.078C642 498.1 640.8 488.9 633.9 483.4z"/></svg>