<svg xmlns="http://www.w3.org/2000/svg" viewBox="0 0 448 512"><!--! Font Awesome Pro 6.0.0-alpha3 by @fontawesome - https://fontawesome.com License - https://fontawesome.com/license (Commercial License) --><path d="M200 248h-64c-8.836 0-16 7.162-16 16v64c0 8.836 7.164 16 16 16h64c8.838 0 16-7.164 16-16v-64C216 255.2 208.8 248 200 248zM192 320H144V272H192V320zM248 128c-8.836 0-16 7.162-16 16v64c0 8.836 7.164 16 16 16h64c8.838 0 16-7.164 16-16v-64c0-8.838-7.162-16-16-16H248zM276 200H256V180h20V200zM276 172H256V152h20V172zM304 200h-20V180H304V200zM304 172h-20V152H304V172zM200 128h-64c-8.836 0-16 7.162-16 16v64c0 8.836 7.164 16 16 16h64c8.838 0 16-7.164 16-16v-64C216 135.2 208.8 128 200 128zM164 200H144V180h20V200zM164 172H144V152h20V172zM192 200H172V180H192V200zM192 172H172V152H192V172zM400 480H384V96c0-17.67-14.33-32-32.01-32V48c0-8.838-7.164-16-16-16H240V16C240 7.162 232.8 0 224 0S208 7.162 208 16V32h-96C103.2 32 96 39.16 96 48V64C78.33 64 64 78.33 64 96v384H48C39.16 480 32 487.2 32 496C32 504.8 39.16 512 48 512h352c8.836 0 16-7.164 16-16C416 487.2 408.8 480 400 480zM352 480H96V96h32V64h192v32h32V480z"/></svg>