<svg xmlns="http://www.w3.org/2000/svg" viewBox="0 0 640 512"><!--! Font Awesome Pro 6.0.0-alpha3 by @fontawesome - https://fontawesome.com License - https://fontawesome.com/license (Commercial License) --><path d="M96 96c26.51 0 48-21.49 48-48S122.5 0 96 0S48 21.49 48 48S69.49 96 96 96zM96 32c8.822 0 16 7.178 16 16S104.8 64 96 64S80 56.82 80 48S87.18 32 96 32zM112 416h-32C35.89 416 0 451.9 0 496C0 504.8 7.156 512 16 512S32 504.8 32 496C32 469.5 53.53 448 80 448h32C138.5 448 160 469.5 160 496C160 504.8 167.2 512 176 512S192 504.8 192 496C192 451.9 156.1 416 112 416zM608 32H256C238.3 32 224 46.33 224 64v96c0 17.67 14.33 32 32 32h352c17.67 0 32-14.33 32-32V64C640 46.33 625.7 32 608 32zM480 160H256V64h224V160zM608 160h-96V64h96V160zM112 128h-32C35.89 128 0 163.9 0 208C0 216.8 7.156 224 16 224S32 216.8 32 208C32 181.5 53.53 160 80 160h32C138.5 160 160 181.5 160 208C160 216.8 167.2 224 176 224S192 216.8 192 208C192 163.9 156.1 128 112 128zM608 320H256c-17.67 0-32 14.33-32 32v96c0 17.67 14.33 32 32 32h352c17.67 0 32-14.33 32-32v-96C640 334.3 625.7 320 608 320zM352 448H256v-96h96V448zM608 448h-224v-96h224V448zM144 336C144 309.5 122.5 288 96 288s-48 21.49-48 48S69.49 384 96 384S144 362.5 144 336zM80 336C80 327.2 87.18 320 96 320s16 7.178 16 16S104.8 352 96 352S80 344.8 80 336z"/></svg>