<svg xmlns="http://www.w3.org/2000/svg" viewBox="0 0 448 512"><!--! Font Awesome Pro 6.0.0-alpha3 by @fontawesome - https://fontawesome.com License - https://fontawesome.com/license (Commercial License) --><path d="M108 360h-24c-6.627 0-12 5.373-12 12v24c0 6.627 5.373 12 12 12h24c6.627 0 12-5.373 12-12v-24C120 365.4 114.6 360 108 360zM108 104h-24c-6.627 0-12 5.373-12 12v24c0 6.627 5.373 12 12 12h24c6.627 0 12-5.373 12-12v-24C120 109.4 114.6 104 108 104zM144 288h-96C21.49 288 0 309.5 0 336v96C0 458.5 21.49 480 48 480h96C170.5 480 192 458.5 192 432v-96C192 309.5 170.5 288 144 288zM160 432C160 440.8 152.8 448 144 448h-96C39.16 448 32 440.8 32 432v-96C32 327.2 39.16 320 48 320h96C152.8 320 160 327.2 160 336V432zM144 32h-96C21.49 32 0 53.49 0 80v96C0 202.5 21.49 224 48 224h96C170.5 224 192 202.5 192 176v-96C192 53.49 170.5 32 144 32zM160 176C160 184.8 152.8 192 144 192h-96C39.16 192 32 184.8 32 176v-96C32 71.16 39.16 64 48 64h96C152.8 64 160 71.16 160 80V176zM364 104h-24c-6.627 0-12 5.373-12 12v24c0 6.627 5.373 12 12 12h24c6.627 0 12-5.373 12-12v-24C376 109.4 370.6 104 364 104zM400 32h-96C277.5 32 256 53.49 256 80v96C256 202.5 277.5 224 304 224h96C426.5 224 448 202.5 448 176v-96C448 53.49 426.5 32 400 32zM416 176C416 184.8 408.8 192 400 192h-96C295.2 192 288 184.8 288 176v-96C288 71.16 295.2 64 304 64h96C408.8 64 416 71.16 416 80V176zM432 288C423.2 288 416 295.2 416 304v64h-64v-64C352 295.2 344.8 288 336 288h-64C263.2 288 256 295.2 256 304v160c0 8.844 7.156 16 16 16s16-7.156 16-16V320h32v64c0 8.844 7.156 16 16 16h96c8.844 0 16-7.156 16-16V304C448 295.2 440.8 288 432 288zM436 432h-24c-6.627 0-12 5.373-12 12v24c0 6.627 5.373 12 12 12h24C442.6 480 448 474.6 448 468v-24C448 437.4 442.6 432 436 432zM372 432h-24c-6.627 0-12 5.373-12 12v24c0 6.627 5.373 12 12 12h24C378.6 480 384 474.6 384 468v-24C384 437.4 378.6 432 372 432z"/></svg>