<svg xmlns="http://www.w3.org/2000/svg" viewBox="0 0 640 512"><!--! Font Awesome Pro 6.0.0-alpha3 by @fontawesome - https://fontawesome.com License - https://fontawesome.com/license (Commercial License) --><path d="M615.5 59.71c-54.87-77.49-182.3-78.94-282.8-7.701C275.5 92.51 238.2 148 226.2 202.6c-10.75 48.12-34.62 91.61-66.12 129.1c-17.87-9.999-32.25 .2499-33.87 1.5l-112.6 78.74c-14.37 10.12-17.1 29.1-7.875 44.49l29.5 41.87c9.875 14.12 29.62 18.25 44.5 7.874l112.5-78.87c9.5-6.624 13.75-17.62 12.1-28.37c35.1-13.75 73.87-21.75 112.4-21.75c31.62 0 112.2 21.87 211.5-48.37C630.9 256.7 669.7 136.2 615.5 59.71zM61.25 479.1l-29.37-41.74l112.6-78.87l29.37 41.87L61.25 479.1zM191.2 370.3l-9.625-13.87c18.62-21.75 34.75-44.87 47.37-69.62c10.1 33.12 29.12 49.87 44.37 61.49C245.7 352.2 218.2 359.9 191.2 370.3zM510.5 302.7c-85.62 60.62-193.1 62.49-238.2 0C228.2 240.7 263.7 140 351.2 78.01c84.62-59.99 193.5-63.12 238.2 0C631.5 137.4 600.6 239.1 510.5 302.7z"/></svg>