<svg xmlns="http://www.w3.org/2000/svg" viewBox="0 0 512 512"><!--! Font Awesome Pro 6.0.0-alpha3 by @fontawesome - https://fontawesome.com License - https://fontawesome.com/license (Commercial License) --><path d="M400 256c0 57.28-33.92 109.1-86.41 132c-8.094 3.531-11.8 12.97-8.25 21.06c2.625 6 8.5 9.594 14.67 9.594c2.125 0 4.297-.4375 6.391-1.344C390.5 389.3 432 326 432 256c0-8.844-7.156-16-16-16S400 247.2 400 256zM232 416c0 13.25 10.75 24 24 24s24-10.75 24-24c0-13.26-10.75-24-24-24S232 402.7 232 416zM496 240C487.2 240 480 247.2 480 256c0 123.5-100.5 224-224 224s-224-100.5-224-224s100.5-224 224-224c54.36 0 105.8 19.52 146.5 54.88l-34.44 34.44C336.5 95.03 297.5 80 256 80c-69.98 0-133.3 41.44-161.3 105.6C91.11 193.7 94.81 203.1 102.9 206.7C104.1 207.6 107.2 208 109.3 208c6.172 0 12.05-3.594 14.67-9.594C146.9 145.9 198.7 112 256 112c32.97 0 63.97 11.64 89.39 31.98l-33.96 33.96C295.3 166.5 276.2 160 256 160C203.1 160 160 203.1 160 256s43.06 96 96 96s96-43.06 96-96c0-8.844-7.156-16-16-16S320 247.2 320 256c0 35.28-28.7 64-64 64S192 291.3 192 256s28.7-64 64-64c11.58 0 22.62 3.271 32.36 9.02l-43.67 43.67c-6.25 6.25-6.25 16.38 0 22.62C247.8 270.4 251.9 272 256 272s8.188-1.562 11.31-4.688l240-240c6.25-6.25 6.25-16.38 0-22.62s-16.38-6.25-22.62 0L425.2 64.22C378.3 22.87 318.9 0 256 0C114.8 0 0 114.8 0 256s114.8 256 256 256s256-114.8 256-256C512 247.2 504.8 240 496 240zM185.6 417.3c2.094 .9062 4.266 1.344 6.391 1.344c6.172 0 12.05-3.594 14.67-9.594c3.547-8.094-.1562-17.53-8.25-21.06C165 373.4 138.6 347 123.1 313.6C120.5 305.5 111 301.8 102.9 305.3C94.81 308.9 91.11 318.3 94.66 326.4C112.5 367.2 144.8 399.5 185.6 417.3zM120 256c0-13.26-10.75-24-24-24S72 242.7 72 256c0 13.25 10.75 24 24 24S120 269.3 120 256z"/></svg>