<svg xmlns="http://www.w3.org/2000/svg" viewBox="0 0 640 512"><!--! Font Awesome Pro 6.0.0-alpha3 by @fontawesome - https://fontawesome.com License - https://fontawesome.com/license (Commercial License) --><path d="M511.1 111.1c8.836 0 15.1-7.164 15.1-16c0-8.838-7.164-16-15.1-16c-8.836 0-16 7.162-16 16C495.1 104.8 503.2 111.1 511.1 111.1zM527.1 240c-8.844 0-16 7.156-16 16c0 19.75-14.69 37.06-34.92 41.19c-4.375 .9062-8.188 3.594-10.5 7.406c-2.312 3.844-2.906 8.469-1.656 12.75c1.312 4.531 1.906 8.031 1.906 11.38c0 30.12-35.28 52.56-65.4 36.75c-6.703-3.562-14.91-1.938-19.73 3.906c-13.12 15.69-35.83 20.97-55.58 10.62c-6.625-3.469-14.86-1.875-19.69 3.906c-17.12 20.44-51.72 20.44-68.84 0C232.7 378.1 224.5 376.5 217.9 380c-19.8 10.38-42.44 5.094-55.58-10.62c-4.844-5.812-13.05-7.469-19.73-3.906c-30.11 15.81-65.4-6.625-65.4-36.75c0-3.344 .5938-6.844 1.906-11.38c1.25-4.281 .6562-8.906-1.656-12.75c-2.312-3.812-6.125-6.5-10.5-7.406C46.69 293.1 32 275.8 32 256s14.69-37.06 34.92-41.19c4.375-.9062 8.188-3.594 10.5-7.406c2.312-3.844 2.906-8.469 1.656-12.75C77.76 190.1 77.17 186.6 77.17 183.3c0-30.09 35.3-52.5 65.4-36.75c6.688 3.531 14.89 1.906 19.73-3.906C175.4 126.9 198.1 121.6 217.9 132c7.844 4.031 17.48 1.062 21.59-6.75c4.094-7.844 1.078-17.5-6.75-21.62C203.8 88.47 169.4 93.28 146.3 113.3C138.2 110.5 129.9 109.1 121.4 109.1c-42.03 0-76.23 33.28-76.23 74.19c0 1.625 .0625 3.281 .2031 4.938C18.36 199.9 0 226.4 0 256s18.36 56.09 45.37 67.78c-.1406 1.656-.2031 3.312-.2031 4.938c0 35.33 25.56 64.86 59.6 72.29l34.34 85.84C145.2 502.1 159.8 512 176.2 512h23.75c22.06 0 39.1-17.94 39.1-40v-47.29C249.9 429.3 260.8 432 271.1 432c11.25 0 22.05-2.713 31.99-7.291V472c0 22.06 17.94 40 40.01 40h23.75c16.47 0 31.04-9.875 37.13-25.16l34.34-85.84c34.04-7.424 59.6-36.96 59.6-72.29c0-1.625-.0625-3.281-.2031-4.938C525.6 312.1 543.1 285.6 543.1 256C543.1 247.2 536.8 240 527.1 240zM207.1 472c0 4.406-3.594 8-8 8H176.2c-3.297 0-6.203-1.969-7.422-5.031l-29.78-74.43c2.434-.5879 4.885-1.047 7.277-1.879c16.69 14.54 39.47 20.65 61.67 17.3V472zM375.2 474.1C373.9 478 371 480 367.7 480h-23.75c-4.404 0-7.998-3.594-7.998-8v-56.04c22.18 3.348 44.97-2.77 61.67-17.3c2.393 .832 4.844 1.291 7.277 1.879L375.2 474.1zM622.8 91.69l-42.47-42.47C569.2 38.13 554.5 32 538.7 32h-92.86c-20.94-20.41-48.94-32-77.89-32C306.2 0 255.1 50.25 255.1 112S306.2 224 367.1 224c31.38 0 61.61-13.59 82.98-37.28C469.7 165.9 479.1 139.4 479.1 112c0-8.844-7.156-16-16-16s-16 7.156-16 16c0 19.47-7.391 38.41-20.8 53.28C411.7 182.5 390.6 192 367.1 192c-44.11 0-79.1-35.88-79.1-80s35.89-80 79.1-80c22.66 0 43.69 9.5 59.2 26.72C430.2 62.09 434.6 64 439.1 64h99.65c7.156 0 13.88 2.781 18.92 7.844l42.47 42.47c8.172 8.156 10.19 20.59 5.031 30.91C600.6 154.3 591.4 160 581.2 160h-69.25c-8.844 0-16 7.156-16 16s7.156 16 16 16h69.25c22.39 0 42.53-12.44 52.55-32.47C645.1 136.9 640.7 109.6 622.8 91.69z"/></svg>