<svg xmlns="http://www.w3.org/2000/svg" viewBox="0 0 384 512"><!--! Font Awesome Pro 6.0.0-alpha3 by @fontawesome - https://fontawesome.com License - https://fontawesome.com/license (Commercial License) --><path d="M292.4 328.8C289.7 323.4 284.2 320 278.1 320H105.9c-6.061 0-11.6 3.424-14.31 8.844l-80 160C6.254 499.5 13.99 512 25.88 512h332.2c11.89 0 19.63-12.51 14.31-23.15L292.4 328.8zM51.78 480l64-128h152.4l64 128H51.78zM336 0h-288C21.53 0 0 21.53 0 48v288c0 17.08 9.188 33.02 24 41.56c7.594 4.438 17.41 1.859 21.84-5.828C50.28 364.1 47.66 354.3 40 349.9C35.06 347 32 341.7 32 336v-288C32 39.17 39.19 32 48 32h288C344.8 32 352 39.17 352 48v288c0 5.703-3.062 11.02-8 13.88c-7.656 4.422-10.28 14.2-5.844 21.86C341.1 376.9 346.5 379.7 352 379.7c2.719 0 5.5-.6875 8-2.156C374.8 369 384 353.1 384 336v-288C384 21.53 362.5 0 336 0z"/></svg>