<svg xmlns="http://www.w3.org/2000/svg" viewBox="0 0 448 512"><!--! Font Awesome Pro 6.0.0-alpha3 by @fontawesome - https://fontawesome.com License - https://fontawesome.com/license (Commercial License) --><path d="M336 239.1H112c-8.802 0-16 7.204-16 16c0 8.8 7.2 15.99 16 15.99h224c8.802 0 15.1-7.192 15.1-15.99C352 247.2 344.8 239.1 336 239.1zM336 335.1H112c-8.802 0-16 7.206-16 16.01s7.2 15.99 16 15.99h224c8.802 0 15.1-7.19 15.1-15.99S344.8 335.1 336 335.1zM418.2 0c-5.877 0-11.88 1.75-17.38 5.75L357.3 37l-38.51-27.75c-8.502-6-18.26-9.125-28.13-9.125s-19.63 2.1-28.01 9.125l-38.64 27.75l-38.64-27.75c-8.377-6-18.26-9.125-28.13-9.125c-9.753 0-19.51 2.1-28.01 9.125L90.78 37L47.26 5.75C41.76 1.75 35.76 0 29.88 0C14.38 .125 0 12.25 0 29.88v452.4C0 499.5 14.25 512 29.88 512c5.877 0 11.88-1.75 17.38-5.75L90.78 475l38.51 27.75c8.502 6 18.26 9.125 28.13 9.125c9.878 0 19.63-3 28.01-9.125l38.64-27.75l38.64 27.75c8.377 6 18.26 9.125 28.13 9.125c9.753 0 19.51-3 28.01-9.125l38.51-27.75l43.51 31.25C406.4 510.2 412.4 512 418.2 512c15.5 0 29.76-12.25 29.76-29.75V29.88C448.1 12.5 433.9 0 418.2 0zM416.1 477.8l-58.77-42.25l-57.27 41.25c-2.751 2-6.002 3-9.253 3c-3.501 0-6.627-1-9.503-3l-57.27-41.25l-57.27 41.25c-2.876 2-6.002 3-9.503 3c-3.376 0-6.502-1-9.378-3L90.65 435.5L32.01 478.4V34.25l58.77 42.25l57.27-41.25c2.751-2 6.001-3 9.253-3c3.501 0 6.627 1 9.503 3l57.27 41.25l57.27-41.25c2.876-2 6.002-3 9.503-3c3.376 0 6.502 1 9.378 3l57.27 41.25l58.64-42.25V477.8zM336 143.1H112c-8.802 0-16 7.202-16 16c0 8.8 7.2 15.99 16 15.99h224c8.802 0 15.1-7.195 15.1-15.99S344.8 143.1 336 143.1z"/></svg>