<svg xmlns="http://www.w3.org/2000/svg" viewBox="0 0 576 512"><!--! Font Awesome Pro 6.0.0-alpha3 by @fontawesome - https://fontawesome.com License - https://fontawesome.com/license (Commercial License) --><path d="M464 144h-256C199.2 144 192 151.2 192 160C192 168.8 199.2 176 208 176h256c8.801 0 16-7.201 16-16C480 151.2 472.8 144 464 144zM128.1 136C114.1 136 104 146.8 104 160s10.1 24 24.14 24C141.4 184 152 173.2 152 160S141.4 136 128.1 136zM128.1 232C114.1 232 104 242.8 104 256s10.1 24 24.14 24C141.4 280 152 269.2 152 256S141.4 232 128.1 232zM464 240h-256C199.2 240 192 247.2 192 256c0 8.799 7.201 16 16 16h256c8.801 0 16-7.201 16-16C480 247.2 472.8 240 464 240zM128.1 328C114.1 328 104 338.8 104 352s10.1 24 24.14 24C141.4 376 152 365.2 152 352S141.4 328 128.1 328zM464 336h-256C199.2 336 192 343.2 192 352c0 8.799 7.201 16 16 16h256c8.801 0 16-7.201 16-16C480 343.2 472.8 336 464 336zM512 32H64C28.65 32 0 60.65 0 96v320c0 35.35 28.65 64 64 64h448c35.35 0 64-28.65 64-64V96C576 60.65 547.3 32 512 32zM544 416c0 17.64-14.36 32-32 32H64c-17.64 0-32-14.36-32-32V96c0-17.64 14.36-32 32-32h448c17.64 0 32 14.36 32 32V416z"/></svg>