<svg xmlns="http://www.w3.org/2000/svg" viewBox="0 0 576 512"><!--! Font Awesome Pro 6.0.0-alpha3 by @fontawesome - https://fontawesome.com License - https://fontawesome.com/license (Commercial License) --><path d="M512 0H256C220.7 0 192 28.65 192 64v384c0 35.35 28.65 64 64 64h256c35.35 0 64-28.65 64-64V64C576 28.65 547.3 0 512 0zM544 448c0 17.64-14.36 32-32 32H256c-17.64 0-32-14.36-32-32V64c0-17.64 14.36-32 32-32h256c17.64 0 32 14.36 32 32V448zM16 96C7.164 96 0 103.2 0 112v288C0 408.8 7.164 416 16 416S32 408.8 32 400v-288C32 103.2 24.84 96 16 96zM112 48C103.2 48 96 55.16 96 64v384c0 8.836 7.164 16 16 16S128 456.8 128 448V64C128 55.16 120.8 48 112 48z"/></svg>