<svg xmlns="http://www.w3.org/2000/svg" viewBox="0 0 576 512"><!--! Font Awesome Pro 6.0.0-alpha3 by @fontawesome - https://fontawesome.com License - https://fontawesome.com/license (Commercial License) --><path d="M463.1 128C455.2 128 448 135.2 448 143.1v224C448 376.8 455.2 384 463.1 384s15.1-7.155 15.1-15.1v-224C479.1 135.2 472.8 128 463.1 128zM320 128c-8.844 0-16 7.156-16 16v224c0 8.844 7.156 16 16 16s16-7.156 16-16v-224C336 135.2 328.8 128 320 128zM400 128C391.2 128 384 135.2 384 144v224c0 8.844 7.156 16 16 16s16-7.156 16-16v-224C416 135.2 408.8 128 400 128zM240 128C231.2 128 224 135.2 224 143.1V368C224 376.8 231.2 384 240 384S256 376.8 256 368V143.1C256 135.2 248.8 128 240 128zM176 128C167.2 128 160 135.2 160 143.1V368C160 376.8 167.2 384 176 384S192 376.8 192 368V143.1C192 135.2 184.8 128 176 128zM112 128C103.2 128 96 135.2 96 144v224C96 376.8 103.2 384 112 384S128 376.8 128 368v-224C128 135.2 120.8 128 112 128zM512 32H64C28.65 32 0 60.65 0 96v320c0 35.35 28.65 64 64 64h448c35.35 0 64-28.65 64-64V96C576 60.65 547.3 32 512 32zM544 416c0 17.64-14.36 32-32 32H64c-17.64 0-32-14.36-32-32V96c0-17.64 14.36-32 32-32h448c17.64 0 32 14.36 32 32V416z"/></svg>