<svg xmlns="http://www.w3.org/2000/svg" viewBox="0 0 576 512"><!--! Font Awesome Pro 6.0.0-alpha3 by @fontawesome - https://fontawesome.com License - https://fontawesome.com/license (Commercial License) --><path d="M222.3 168.8c-5.438-10.84-23.19-10.84-28.62 0l-80 160c-3.953 7.906-.75 17.52 7.156 21.47c7.922 3.906 17.5 .7344 21.47-7.156L161.9 304H254.1l19.58 39.16C276.5 348.8 282.1 352 288 352c2.406 0 4.844-.5469 7.141-1.688c7.906-3.953 11.11-13.56 7.156-21.47L222.3 168.8zM177.9 272L208 211.8L238.1 272H177.9zM448 160c-8.844 0-16 7.156-16 16v44.19C420.6 212.5 406.8 208 392 208C352.3 208 320 240.3 320 280S352.3 352 392 352c15.09 0 29.08-4.709 40.67-12.68C434.2 346.5 440.3 352 448 352c8.844 0 16-7.156 16-16v-160C464 167.2 456.8 160 448 160zM392 320C369.9 320 352 302.1 352 280s17.94-40 40-40s40 17.94 40 40S414.1 320 392 320zM512 32H64c-35.35 0-64 28.65-64 64v320c0 35.35 28.65 64 64 64h448c35.35 0 64-28.65 64-64v-320C576 60.65 547.3 32 512 32zM544 416c0 17.64-14.36 32-32 32H64c-17.64 0-32-14.36-32-32V96c0-17.64 14.36-32 32-32h448c17.64 0 32 14.36 32 32V416z"/></svg>