<svg xmlns="http://www.w3.org/2000/svg" viewBox="0 0 576 512"><!--! Font Awesome Pro 6.0.0-alpha3 by @fontawesome - https://fontawesome.com License - https://fontawesome.com/license (Commercial License) --><path d="M573.2 415.9l-125.7-352c-6.822-19.1-24.92-31.86-45.2-31.86H173.8c-20.29 0-38.38 12.75-45.2 31.86l-125.7 352C-8.326 447.1 14.85 480 48.04 480h479.9C561.2 480 584.3 447.1 573.2 415.9zM541 441.2C539.3 443.8 535.2 448 527.1 448H304v-48c0-8.844-7.156-16-16-16s-16 7.156-16 16V448H48.04c-7.219 0-11.29-4.25-13.08-6.783s-4.418-7.799-1.988-14.6l125.7-352C160.1 68.27 167 64 173.8 64H272v48C272 120.8 279.2 128 288 128s16-7.156 16-16V64h98.25c6.744 0 12.8 4.268 15.07 10.62l125.7 351.1C545.5 433.4 542.8 438.7 541 441.2zM288 192C279.2 192 272 199.2 272 208v96C272 312.8 279.2 320 288 320s16-7.156 16-16v-96C304 199.2 296.8 192 288 192z"/></svg>