<svg xmlns="http://www.w3.org/2000/svg" viewBox="0 0 512 512"><!--! Font Awesome Pro 6.0.0-alpha3 by @fontawesome - https://fontawesome.com License - https://fontawesome.com/license (Commercial License) --><path d="M505.1 19.33C503.9 13.71 498.4 8.208 492.8 6.958C460.1-.0417 434.6 0 409.1 0c-103.7 0-166.1 55.12-212.9 128h-101.4C78.49 128 59.24 139.9 51.99 154.5L2.493 253.2C.993 256.6 .1181 260.2-.0069 264c0 13.25 10.75 24 23.1 24h92.62L105.1 309.4c-9.249 19 4.376 34.87 6.25 36.63l53.75 53.75c1.751 1.875 17.75 15.5 36.62 6.125l21.37-10.5L223.1 488c0 13.25 10.75 23.88 23.1 24c3.625-.125 7.312-1 10.69-2.5l98.71-49.38c14.62-7.375 26.53-26.5 26.53-42.88l-.0642-101.5c72.75-46.88 128.1-109.5 128.1-212.8C512.1 77.5 512.1 51.96 505.1 19.33zM36.1 256l43.5-87.25C82.1 164 89.37 160 94.87 160h85.12C166.1 188 148.2 224 132.5 256H36.1zM351.9 417.2c-.1249 5.375-3.1 11.75-8.875 14.25L255.1 475v-95.5L351.9 332V417.2zM366.5 288.9c-39.5 19.88-135.9 67.5-177.1 88.25L134.7 323.6C155.6 281.4 203.2 185 222.1 145.4C273.1 67 330.6 32 409.1 32c21.62 0 41.1 0 66.62 4.25c4.375 24.88 4.25 45.25 4.25 66.75C479.1 181 444.1 238.5 366.5 288.9zM367.1 88c-30.87 0-55.1 25.12-55.1 56c0 31 25 56 55.1 56c30.87 0 55.1-25 55.1-56C423.1 113.1 398.9 88 367.1 88zM367.1 168c-13.25 0-23.1-10.75-23.1-24s10.75-24 23.1-24c13.25 0 23.1 10.75 23.1 24S381.2 168 367.1 168z"/></svg>