<svg xmlns="http://www.w3.org/2000/svg" viewBox="0 0 512 512"><!--! Font Awesome Pro 6.0.0-alpha3 by @fontawesome - https://fontawesome.com License - https://fontawesome.com/license (Commercial License) --><path d="M367.1 88c-30.87 0-55.1 25.12-55.1 56c0 31 25.12 56 55.1 56c30.1 0 55.1-25 55.1-56C423.1 113.1 398.1 88 367.1 88zM367.1 168c-13.25 0-23.1-10.75-23.1-24s10.75-24 23.1-24c13.25 0 23.1 10.75 23.1 24S381.2 168 367.1 168zM505.1 19.25c-1.125-5.375-6.1-11.25-12.37-12.37C460.6 0 435.4 0 410.4 0c-103.2 0-165 55.25-211.3 128H94.92C78.67 128 59.3 139.9 52.05 154.5L2.65 253.2C1.15 256.6 .225 260.2 .1 264c0 13.25 10.8 24 24.05 24h103.9c52.1 0 95.99 43 95.99 96l-.0125 104c0 13.25 10.75 24 23.1 24c3.75-.125 7.375-.925 10.75-2.55l98.69-49.38c14.62-7.25 26.5-26.58 26.5-42.83V312.8c72.62-46.25 127.1-108.4 127.1-211C512.1 76.5 512.1 51.38 505.1 19.25zM37.12 256l43.62-87.25C82.62 165.1 90.87 160 94.99 160h85.12C166.1 188 148.4 224 132.5 256l.125 .375C131.1 256.4 60.1 256 37.12 256zM351.1 417.2c0 4.125-5.125 12.38-8.75 14.13L256.1 475c0-23.88-.3749-94-.5-95.63L255.1 379.5c31.1-15.88 67.87-33.63 95.87-47.63L351.1 417.2zM249.9 346.6C237.5 306.2 205.7 274.5 165.2 262.1C217.4 158.1 264.1 32 410.5 32c21.12 0 41.25 0 65.37 4.125c4.25 24.38 4.125 44.5 4.125 65.63C479.1 246.6 352.1 295.1 249.9 346.6zM102.4 320c-47.1 0-100.4 39.38-102.2 160L0 512h31.1c171.6-3.375 184.9-115.2 133.7-166.6C150.9 330.4 127.2 320 102.4 320zM155.4 429.4c-12.87 31.12-57.62 49.38-123.4 50.5C31.1 476.4 30.87 352 102.4 352c15.12 0 31.12 6.375 40.87 16.12C155.1 381 164.6 406.8 155.4 429.4z"/></svg>