<svg xmlns="http://www.w3.org/2000/svg" viewBox="0 0 640 512"><!--! Font Awesome Pro 6.0.0-alpha3 by @fontawesome - https://fontawesome.com License - https://fontawesome.com/license (Commercial License) --><path d="M640 224v240c0 8.844-7.156 16-16 16S608 472.8 608 464V305.1c-23.37 26.46-57.42 43.71-96 45.43V464c0 8.844-7.156 16-16 16S480 472.8 480 464v-114c-22.87-3.256-44.52-10.85-64-22.07V464c0 8.844-7.156 16-16 16S384 472.8 384 464V304.2c-8.271-7.768-15.98-16.17-22.59-25.55L320 219.8V464c0 8.844-7.156 16-16 16S288 472.8 288 464v-288c0-.4531 .2207-.834 .2578-1.277L244.8 112.9C238.9 104.6 231.8 97.37 224 90.98V464C224 472.8 216.8 480 208 480S192 472.8 192 464V72.97C178.2 67.6 163.5 64 148 64C141.2 64 134.5 64.83 128 65.9V464C128 472.8 120.8 480 112 480S96 472.8 96 464V76.11C58.21 94.11 32 130.6 32 173.1V464C32 472.8 24.84 480 16 480S0 472.8 0 464V173.1C0 95.28 66.41 32 148 32c49.44 0 95.41 23.34 122.9 62.47l116.7 165.8C413.9 297.7 458.1 320 505.8 320C562.2 320 608 276.9 608 224c0-40.23-26.54-74.64-64-88.89V256c0 8.844-7.156 16-16 16S512 264.8 512 256V128.6C509.9 128.5 507.9 128 505.8 128C485.9 128 466.6 131.5 448 137.2V240C448 248.8 440.8 256 432 256S416 248.8 416 240V150.1c-12.19 6.277-23.92 13.4-34.5 22.2c-6.719 5.625-16.81 4.75-22.53-2.094c-5.625-6.781-4.719-16.88 2.094-22.53C401.2 114.4 452.5 96 505.8 96C579.8 96 640 153.4 640 224z"/></svg>