<svg xmlns="http://www.w3.org/2000/svg" viewBox="0 0 512 512"><!--! Font Awesome Pro 6.0.0-alpha3 by @fontawesome - https://fontawesome.com License - https://fontawesome.com/license (Commercial License) --><path d="M416 72c-32.09 0-31.91 48 0 48C448.1 120 447.9 72 416 72zM432 352H320c-26.5 0-48-21.5-48-48S293.5 256 320 256h96c0 0 96-107 96-160s-43-96-96-96s-96 43-96 96c0 34.63 40.88 92.25 69.25 128H320c-44.13 0-80 35.88-80 80S275.9 384 320 384h112c26.5 0 48 21.5 48 48S458.5 480 432 480H122.8C151.1 444.3 192 386.6 192 352c0-53-43-96-96-96s-96 43-96 96s96 160 96 160h336c44.13 0 80-35.88 80-80S476.1 352 432 352zM352 96c0-35.25 28.75-64 64-64s64 28.75 64 64c0 20.38-30.12 68-64 110.4C381.1 163.8 352 115.8 352 96zM32 352c0-35.25 28.75-64 64-64s64 28.75 64 64c0 20.38-30.12 68-64 110.4C61.1 419.8 32 371.8 32 352zM96 328c-32.09 0-31.91 48 0 48C128.1 376 127.9 328 96 328z"/></svg>