<svg xmlns="http://www.w3.org/2000/svg" viewBox="0 0 448 512"><!--! Font Awesome Pro 6.0.0-alpha3 by @fontawesome - https://fontawesome.com License - https://fontawesome.com/license (Commercial License) --><path d="M428.4 269.3c-30.5-45.5-11.75-104.5 12.1-155.5c3.1-8.125 3.375-17.75-1.875-25.13l-41.12-58.25c-3.584-5.037-14.53-14.18-27.5-8.625c-15.37 5.875-32.62 8.875-50.24 8.875c-29.5 0-59.87-8.5-83.12-26.12C233.5 1.5 228.7 0 224 0S214.5 1.5 210.5 4.5C187.3 22.12 156.9 30.62 127.4 30.62c-17.62 0-34.87-3-50.25-8.875c-2.681-1.022-17.52-5.402-27.5 8.625L8.521 88.75c-5.25 7.375-5.875 16.87-1.875 25.12c24.75 50.88 43.5 109.9 12.1 155.4c-37.1 56.5-18.62 139.4 38.75 166L224 512l165.6-76.75C446.1 408.6 466.4 325.8 428.4 269.3zM72.14 53.88C89.39 59.62 108.3 62.62 127.4 62.62c35.62 0 69.62-10.12 96.62-28.38c26.1 18.38 60.99 28.38 96.62 28.38c19.12 0 37.1-3 55.24-8.75l34.1 49.62C402.7 120.2 394.9 139.6 388.1 160H59.02C53.14 139.6 45.27 120.2 37.14 103.5L72.14 53.88zM412.6 360c-5.999 21.38-19.25 38.25-36.5 46.25L224 476.8l-152.1-70.5c-17.12-8-30.5-24.87-36.5-46.25c-6.999-25.12-2.1-52.38 10.75-73C66.39 256.9 70.26 223.9 66.01 192h315.1c-4.25 31.88-.375 64.88 19.87 95C415.6 307.6 419.6 334.9 412.6 360z"/></svg>