<svg xmlns="http://www.w3.org/2000/svg" viewBox="0 0 512 512"><!--! Font Awesome Pro 6.0.0-alpha3 by @fontawesome - https://fontawesome.com License - https://fontawesome.com/license (Commercial License) --><path d="M480.9 55.12c-1.137-3.592-9.353-20.7-26.25-15.88c-18.25 5-37.75 7.875-58.12 7.875c-49.12 0-93.49-16-126.1-42.12C266.1 1.625 261.1 0 256 0S245.9 1.625 241.6 5C209 31.12 164.6 47.12 115.5 47.12c-20.37 0-39.87-2.875-58.12-8c-18.08-3.874-25.13 12.46-26.25 16C-5.854 175.1 9.406 410.4 256 512C502.6 410.4 517.9 175.1 480.9 55.12zM59.4 72.75C77.65 77 96.52 79.12 115.5 79.12c51.99 0 101.6-15.88 140.5-44.75c38.87 28.87 88.49 44.75 140.5 44.75c18.1 0 37.87-2.125 56.12-6.375C457.2 89.88 463.5 121 463.8 160H48.15C48.28 128.5 52.28 98.62 59.4 72.75zM256 477.1C113.1 413.2 58.02 296.5 49.4 192h413.2c-2.125 27.12-7.249 56.88-17.1 88C413.7 368.9 350.4 435.1 256 477.1z"/></svg>