<svg xmlns="http://www.w3.org/2000/svg" viewBox="0 0 384 512"><!--! Font Awesome Pro 6.0.0-alpha3 by @fontawesome - https://fontawesome.com License - https://fontawesome.com/license (Commercial License) --><path d="M240 320c79.41 0 144-64.59 144-144S319.4 32 240 32H111.8C85.44 32.11 64 53.59 64 79.86V288H16C7.156 288 0 295.2 0 304S7.156 320 16 320H64v64H16C7.156 384 0 391.2 0 400S7.156 416 16 416H64v48C64 472.8 71.16 480 80 480S96 472.8 96 464V416h208c8.844 0 16-7.156 16-16S312.8 384 304 384H96v-64H240zM96 79.86C96 71.16 103.1 64.03 111.9 64H240C301.8 64 352 114.3 352 176S301.8 288 240 288H96V79.86z"/></svg>