<svg xmlns="http://www.w3.org/2000/svg" viewBox="0 0 512 512"><!--! Font Awesome Pro 6.0.0-alpha3 by @fontawesome - https://fontawesome.com License - https://fontawesome.com/license (Commercial License) --><path d="M144 32H80C67.06 32 54.94 37.03 45.88 46.19s-14 21.28-13.88 34.16C32.41 129 31.91 445.9 32.19 464.3C32.31 473 39.47 480 48.19 480c8.844-.1562 16.12-7.406 16-16.25C63.91 446.3 64 387.9 64.1 320H144c1.705 0 3.289-.4453 4.98-.5039l60.18 150.4C211.7 476.2 217.7 480 224 480c1.969 0 4-.375 5.938-1.156c8.219-3.281 12.19-12.59 8.906-20.78l-57.44-143.6C242.6 297.9 288 242.4 288 176C288 96.59 223.4 32 144 32zM144 288H64.16C64.28 210.1 64.38 126.5 64 80.06C63.97 75.78 65.6 71.75 68.6 68.72C71.63 65.69 75.69 64 80 64H144C205.8 64 256 114.3 256 176S205.8 288 144 288zM397 320.8l-9.373-3.187c-38.99-13.59-55.61-25.06-50.92-57.09c1.687-11.69 6.936-20.72 15.56-26.91c12.84-9.187 32.3-11.94 55.14-7.718c11.09 2.062 23.84 6.1 32.46 10.53c8.185 3.312 17.53-.5625 20.87-8.75c3.343-8.187-.5624-17.53-8.748-20.87c-9.935-4.062-24.78-9.781-38.77-12.34c-31.34-5.906-59.61-1.156-79.57 13.12c-15.75 11.28-25.65 27.1-28.62 48.31c-9.248 63.56 43.68 81.1 72.11 91.93l9.591 3.281c42.15 14.28 65.73 24.12 60.45 60.37c-1.687 11.69-6.936 20.72-15.56 26.91c-12.87 9.218-32.43 11.94-55.24 7.687c-13.22-2.375-29.02-9.125-42.99-15.06l-7.248-3.094c-8.185-3.437-17.53 .4062-20.93 8.562c-3.437 8.125 .4062 17.53 8.56 20.94l7.061 2.1c15.53 6.625 33.12 14.16 49.83 17.12C379.5 479.2 388.1 480 396.2 480c21.03 0 39.68-5.281 54.05-15.56c15.75-11.28 25.65-27.1 28.62-48.31C488.3 351.7 435.5 333.8 397 320.8z"/></svg>