<svg xmlns="http://www.w3.org/2000/svg" viewBox="0 0 512 512"><!--! Font Awesome Pro 6.0.0-alpha3 by @fontawesome - https://fontawesome.com License - https://fontawesome.com/license (Commercial License) --><path d="M112 32H47.98c-12.93 0-25.05 5.031-34.11 14.19C4.813 55.34-.123 67.47 .002 80.34C.4082 129-.0918 445.9 .1895 464.3C.3145 473 7.469 480 16.18 480c8.84-.1562 16.12-7.406 15.99-16.25C31.9 446.3 31.99 387.9 32.08 320H112.1c1.703 0 3.287-.4453 4.979-.5039l60.15 150.4C179.7 476.2 185.7 480 192 480c1.969 0 4.01-.375 5.945-1.156c8.217-3.281 12.18-12.59 8.902-20.78l-57.42-143.6C210.6 297.9 256 242.4 256 176C256 96.59 191.4 32 112 32zM112.1 288H32.15c.125-77.88 .2187-161.5-.1562-207.9C31.96 75.78 33.58 71.75 36.58 68.72C39.61 65.69 43.67 64 47.98 64H112.1c61.73 0 111.1 50.25 111.1 112S173.8 288 112.1 288zM400 160h-96C295.2 160 288 167.2 288 176v320c0 8.844 7.156 16 16 16s16-7.156 16-16V384h80c61.75 0 112-50.25 112-112S461.8 160 400 160zM400 352H320V192h80C444.1 192 480 227.9 480 272S444.1 352 400 352z"/></svg>