<svg xmlns="http://www.w3.org/2000/svg" viewBox="0 0 640 512"><!--! Font Awesome Pro 6.0.0-alpha3 by @fontawesome - https://fontawesome.com License - https://fontawesome.com/license (Commercial License) --><path d="M621.3 237.3L576.1 192H600c21.74 0 39.87-17.51 39.1-39.25C640.4 86.15 586.5 32 520 32l-136 .0008C383.1 14.4 369.6 0 352 0H256C238.4 0 223.1 14.4 223.1 32l-159.1-.0005C28.74 32 0 60.75 0 95.1v197.5c0 16.97 6.747 33.25 18.75 45.25l69.63 69.62c2.875 2.875 6.125 4.625 9.75 5.875c-2.148 8.986-2.771 18.28-1.391 28.35c4.758 34.69 33.06 63.79 67.74 68.6c49.4 6.855 91.5-31.2 91.5-79.23c0-5.5-.6083-10.71-1.608-15.96h163.3c-.625 2.92-1.059 5.842-1.318 8.805c-3.555 40.43 25.52 79.17 65.53 85.98c50.53 8.609 94.16-29.9 94.16-78.78c0-5.5-.6291-10.75-1.629-16l33.63 .0069C625.6 416 640 401.6 640 384V282.5C640 265.5 633.3 249.3 621.3 237.3zM594.8 256H416l-.0271-63.1l101.5 .1667c8.625 0 16.73 3.206 22.73 9.206L594.8 256zM176 480C149.5 480 128 458.5 128 432S149.5 384 176 384S224 405.5 224 432S202.5 480 176 480zM384 384H239.6C225 364.8 202 352 176 352s-49 12.75-63.63 32H109.3L41.38 316.1C35.38 310.1 32 302 32 293.5V96c0-17.75 14.25-32 32-32h192V32h96v32h168C568.5 64 608 103.5 608 152C608 156.4 604.4 160 600 160l-216 .0037L384 384zM496 480c-26.5 0-48-21.5-48-48s21.5-48 48-48s48 21.5 48 48S522.5 480 496 480zM608 384h-48.38C545 364.8 522 352 496 352s-49 12.75-63.63 32H416V288h192V384zM288 128H128C110.4 128 96 142.4 96 160v64c0 17.6 14.4 32 32 32h160c17.6 0 32-14.4 32-32V160C320 142.4 305.6 128 288 128zM288 224H128V160h160V224z"/></svg>