<svg xmlns="http://www.w3.org/2000/svg" viewBox="0 0 512 512"><!--! Font Awesome Pro 6.0.0-alpha3 by @fontawesome - https://fontawesome.com License - https://fontawesome.com/license (Commercial License) --><path d="M325.9 115.9l55.37-81.13c3.75-7.5 3.375-16.25-.1-23.38C375.9 4.375 368.2 0 359.9 0H151.1C143.6 0 135.1 4.25 131.6 11.38C127.2 18.5 126.7 27.25 130.5 34.75L185.1 115.9C-9.914 235.6 .0833 392 .0833 412c0 55.25 49.14 100 109.6 100h292.5c60.62 0 109.7-44.75 109.7-100C511.9 392.4 520.7 235 325.9 115.9zM167.3 32h177.1l-54.61 80H222.1L167.3 32zM479.9 412c0 37.49-34.88 68-77.75 68H109.7c-42.8 0-77.62-30.51-77.62-68C31.28 331.9 64.51 228.2 201.4 144h109.1C446.9 227.1 480.6 332.1 479.9 412z"/></svg>