<svg xmlns="http://www.w3.org/2000/svg" viewBox="0 0 512 512"><!--! Font Awesome Pro 6.0.0-alpha3 by @fontawesome - https://fontawesome.com License - https://fontawesome.com/license (Commercial License) --><path d="M325.1 115.9l55.37-81.13c3.75-7.5 3.375-16.25-1-23.38C375.1 4.375 368.2 0 359.1 0H151.1c-8.375 0-16 4.25-20.38 11.38C127.2 18.5 126.7 27.25 130.5 34.75l55.5 81.13C-9.91 235.6 .0833 392 .0833 412c0 55.25 49.14 100 109.6 100h292.5c60.62 0 109.7-44.75 109.7-100C511.9 392.4 520.7 235 325.1 115.9zM167.3 32h177.1l-54.61 80H222.1L167.3 32zM479.9 412c0 37.49-34.88 68-77.75 68H109.7c-42.8 0-77.62-30.51-77.62-68l-.0332-3.281C31.17 349.2 52.09 235.9 201.4 144h109.1c149 91.76 170.2 205.4 169.5 265.2L479.9 412zM260.3 304.6L253.4 302.6C219.8 292.7 217.1 286 219.1 274.1C221.1 257.7 245.2 253.7 267.1 257.2c8.094 1.266 17.38 4.281 23.66 6.453c8.375 2.891 17.47-1.547 20.34-9.906c2.875-8.344-1.562-17.45-9.906-20.34c-11.81-4.078-21.09-6.565-29.19-7.831c-.0215-.0039 .0215 .002 0 0L271.1 208c0-8.844-7.099-16-15.94-16S239.1 199.2 239.1 208v16.89c-28.26 3.664-48.19 19.41-52.44 43.77c-7.844 45.61 35.84 58.45 56.84 64.64l7.125 2.047c36.56 10.45 43.91 15.88 41.38 30.55c-2.875 16.44-26.19 20.38-48.13 16.92c-9.562-1.438-21.09-5.594-31.31-9.266l-5.469-1.953c-8.312-2.906-17.44 1.406-20.44 9.75c-2.938 8.328 1.438 17.47 9.75 20.41l5.344 1.906c11.56 4.172 24.72 8.894 37.31 10.8c.0215 .0039-.0215-.002 0 0L239.1 432c0 8.844 7.213 16 16.06 16s15.94-7.156 15.94-16v-16.84c28.33-3.637 48.18-19.44 52.44-43.82C332.4 325.2 289 312.8 260.3 304.6z"/></svg>