<svg xmlns="http://www.w3.org/2000/svg" viewBox="0 0 512 512"><!--! Font Awesome Pro 6.0.0-alpha3 by @fontawesome - https://fontawesome.com License - https://fontawesome.com/license (Commercial License) --><path d="M512 16v224C512 248.8 504.8 256 496 256S480 248.8 480 240v-224C480 7.156 487.2 0 496 0S512 7.156 512 16zM416 0c-8.844 0-16 7.156-16 16v224C400 248.8 407.2 256 416 256s16-7.156 16-16v-224C432 7.156 424.8 0 416 0zM336 0C327.2 0 320 7.156 320 16v32C320 56.84 327.2 64 336 64S352 56.84 352 48v-32C352 7.156 344.8 0 336 0zM208 64C216.8 64 224 56.84 224 48v-32C224 7.156 216.8 0 208 0S192 7.156 192 16v32C192 56.84 199.2 64 208 64zM144 64C152.8 64 160 56.84 160 48v-32C160 7.156 152.8 0 144 0S128 7.156 128 16v32C128 56.84 135.2 64 144 64zM352 160v288c0 35.35-28.65 64-64 64H64c-35.35 0-64-28.65-64-64V160c0-35.35 28.65-64 64-64h224C323.3 96 352 124.7 352 160zM320 160c0-17.64-14.36-32-32-32H64C46.36 128 32 142.4 32 160v288c0 17.64 14.36 32 32 32h224c17.64 0 32-14.36 32-32V160z"/></svg>