<svg xmlns="http://www.w3.org/2000/svg" viewBox="0 0 512 512"><!--! Font Awesome Pro 6.0.0-alpha3 by @fontawesome - https://fontawesome.com License - https://fontawesome.com/license (Commercial License) --><path d="M192 48v-32C192 7.156 199.2 0 208 0S224 7.156 224 16v32C224 56.84 216.8 64 208 64S192 56.84 192 48zM352 160v288c0 35.35-28.65 64-64 64H64c-35.35 0-64-28.65-64-64V160c0-35.35 28.65-64 64-64h224C323.3 96 352 124.7 352 160zM320 256H32v192c0 17.64 14.36 32 32 32h224c17.64 0 32-14.36 32-32V256zM320 160c0-17.64-14.36-32-32-32H64C46.36 128 32 142.4 32 160v64h288V160zM416 0c-8.844 0-16 7.156-16 16v224C400 248.8 407.2 256 416 256s16-7.156 16-16v-224C432 7.156 424.8 0 416 0zM496 0C487.2 0 480 7.156 480 16v224C480 248.8 487.2 256 496 256S512 248.8 512 240v-224C512 7.156 504.8 0 496 0zM144 64C152.8 64 160 56.84 160 48v-32C160 7.156 152.8 0 144 0S128 7.156 128 16v32C128 56.84 135.2 64 144 64zM336 0C327.2 0 320 7.156 320 16v32C320 56.84 327.2 64 336 64S352 56.84 352 48v-32C352 7.156 344.8 0 336 0zM80 352h64C152.8 352 160 344.8 160 336C160 327.2 152.8 320 144 320h-64C71.16 320 64 327.2 64 336C64 344.8 71.16 352 80 352zM208 352h64c8.836 0 16-7.164 16-16c0-8.838-7.164-16-16-16h-64C199.2 320 192 327.2 192 336C192 344.8 199.2 352 208 352zM208 416h64c8.836 0 16-7.164 16-16c0-8.838-7.164-16-16-16h-64C199.2 384 192 391.2 192 400C192 408.8 199.2 416 208 416zM80 416h64C152.8 416 160 408.8 160 400C160 391.2 152.8 384 144 384h-64C71.16 384 64 391.2 64 400C64 408.8 71.16 416 80 416z"/></svg>