<svg xmlns="http://www.w3.org/2000/svg" viewBox="0 0 576 512"><!--! Font Awesome Pro 6.0.0-alpha3 by @fontawesome - https://fontawesome.com License - https://fontawesome.com/license (Commercial License) --><path d="M560 95.1h-127.1C423.2 95.1 416 103.2 416 112s7.163 15.99 16.01 15.99h127.1C568.8 127.1 576 120.8 576 112S568.8 95.1 560 95.1zM432 64h128C568.8 64 576 56.84 576 48S568.8 32 560 32h-127.1c-8.844 0-16 7.156-16 16S423.2 64 432 64zM560 191.1h-127.1c-8.844 0-16 7.156-16 16S423.2 224 432 224h128C568.8 224 576 216.8 576 207.1S568.8 191.1 560 191.1zM304 32H114.1C51.07 32 0 82.61 0 145c0 50.94 34.23 93.5 80.97 107.6l-74.54 124.3C-6.816 399.7 1.057 428.7 24.05 441.9l55.37 31.66C86.99 477.9 95.25 480 103.4 480c16.61 0 32.76-8.709 41.65-23.1L262.6 258.1H304c26.51 0 48-21.29 48-47.56V79.56C352 53.29 330.5 32 304 32zM117.3 440.3c-2.895 4.98-8.1 7.953-13.92 7.953c-2.816 0-5.504-.7187-7.955-2.119l-55.29-31.66c-7.83-4.514-10.46-14.08-5.994-21.76L114.7 258.1h110.9L117.3 440.3zM320 210.5c0 8.74-7.178 15.85-16 15.85H114.1C68.82 226.3 32 189.9 32 145c0-44.84 36.82-81.32 82.08-81.32H304c8.822 0 16 7.113 16 15.85V210.5zM560 255.1h-127.1C423.2 255.1 416 263.2 416 272s7.163 15.98 16.01 15.98h127.1C568.8 287.1 576 280.8 576 272S568.8 255.1 560 255.1zM560 319.1h-127.1C423.2 319.1 416 327.2 416 336s7.163 15.98 16.01 15.98h127.1C568.8 351.1 576 344.8 576 336S568.8 319.1 560 319.1zM560 448h-128c-8.844 0-15.99 7.128-15.99 15.97s7.156 16 16 16H560c8.844 0 16-7.156 16-16S568.8 448 560 448z"/></svg>