<svg xmlns="http://www.w3.org/2000/svg" viewBox="0 0 640 512"><!--! Font Awesome Pro 6.0.0-alpha3 by @fontawesome - https://fontawesome.com License - https://fontawesome.com/license (Commercial License) --><path d="M368 320h-96C245.5 320 224 341.5 224 368v128C224 504.8 231.2 512 240 512S256 504.8 256 496v-128C256 359.2 263.2 352 272 352h96c8.836 0 16 7.162 16 16v128c0 8.799 7.199 16 16 16s16-7.201 16-16v-128C416 341.5 394.5 320 368 320zM73.89 193.2L29.69 211.4C11.66 218.8 0 236.3 0 255.8v239.4c0 7.969 5.455 15.35 13.32 16.62C23.35 513.4 32 505.7 32 496V255.8c0-6.508 3.932-12.37 9.951-14.84l44.12-18.12c8.182-3.359 12.09-12.72 8.725-20.9C91.43 193.7 82.07 189.8 73.89 193.2zM344 176L336 175.1V168c0-8.801-7.199-16-16-16s-16 7.199-16 16v32c0 4.4 3.6 8 8 8h32c8.801 0 16-7.201 16-16C360 183.2 352.8 176 344 176zM320 95.99C267 95.99 224 139 224 192s43 96 96 96s96-43 96-96S373 95.99 320 95.99zM320 255.1C284.8 255.1 256 227.3 256 192s28.75-64 64-64S384 156.8 384 192S355.3 255.1 320 255.1zM497.8 111.1l-160-106.6C332.4 1.734 326.3-.0146 320-.0146S307.6 1.734 302.3 5.359l-160 106.6C133.4 117.1 128 127.1 128 138.6V496C128 504.8 135.2 512 144 512S160 504.8 160 496V138.6L320 32l160 106.6V496c0 8.799 7.199 16 16 16s16-7.201 16-16V138.6C512 127.1 506.6 117.1 497.8 111.1zM610.3 211.4L566.1 193.2c-8.178-3.369-17.54 .5313-20.9 8.711c-3.363 8.18 .543 17.54 8.725 20.9l44.19 18.15C604.1 243.4 608 249.2 608 255.7v239.5c0 7.969 5.455 15.35 13.32 16.62C631.4 513.4 640 505.7 640 496V255.8C640 236.3 628.3 218.8 610.3 211.4z"/></svg>