<svg xmlns="http://www.w3.org/2000/svg" viewBox="0 0 448 512"><!--! Font Awesome Pro 6.0.0-alpha3 by @fontawesome - https://fontawesome.com License - https://fontawesome.com/license (Commercial License) --><path d="M439.9 287.9C432.3 277.8 420.6 272 407.1 272H84.38L63.38 224H336C344.8 224 352 216.8 352 208C352 199.2 344.8 192 336 192H49.38L36.53 162.6C33.52 155.8 32 148.5 32 141V16C32 7.156 24.84 0 16 0S0 7.156 0 16v125C0 152.9 2.422 164.5 7.203 175.4l82.75 189.1C103.6 395.8 134.5 416 168.6 416H224v64H112C103.2 480 96 487.2 96 496C96 504.8 103.2 512 112 512h256c8.836 0 16-7.164 16-16c0-8.838-7.164-16-16-16H256v-64h127.7c21.33 0 40.29-14.31 46.15-34.81l16.62-58.22C449.9 310.8 447.5 298 439.9 287.9zM415.7 314.2l-16.62 58.22C397.1 379.2 390.8 384 383.7 384H168.6c-21.39 0-40.75-12.66-49.31-32.25L98.38 304h309.6C413.2 304 417.1 308.1 415.7 314.2z"/></svg>