<svg xmlns="http://www.w3.org/2000/svg" viewBox="0 0 640 512"><!--! Font Awesome Pro 6.0.0-alpha3 by @fontawesome - https://fontawesome.com License - https://fontawesome.com/license (Commercial License) --><path d="M493.9 186.4c-11.61-30.5-41.81-50.97-77.08-47.97c-15.47-33.47-57.22-52.66-94.47-39.63c-27.78-24.12-72.97-24.12-100.7 0c-26.11-9.125-55.14-3-75.29 14.53c-8.094-2.812-16.44-4.25-24.92-4.25c-42.03 0-76.23 33.28-76.23 74.19c0 1.625 .0625 3.281 .2031 4.938C18.36 199.9 0 226.4 0 256s18.36 56.09 45.37 67.78c-.1406 1.656-.2031 3.312-.2031 4.938c0 32.88 22.24 60.5 52.73 70.21l35.16 87.92C139.2 502.1 153.8 512 170.2 512h23.75c22.06 0 39.1-17.94 39.1-40v-50.19C245.4 428.4 258.5 432 271.1 432c8.982 0 17.73-1.641 25.96-4.602V472c0 22.06 17.94 40 39.1 40h23.74c16.47 0 31.06-9.875 37.15-25.16l33.98-84.95c37.15-4.93 65.98-35.69 65.98-73.18c0-1.625-.0625-3.281-.2031-4.938C525.6 312.1 543.1 285.6 543.1 256C543.1 224.4 523.8 196.9 493.9 186.4zM201.1 472c0 4.406-3.594 8-7.1 8H170.2c-3.297 0-6.219-1.969-7.437-5.031l-29.23-73.09C137.9 401.2 142.1 400.1 146.3 398.7c15.19 13.21 35.42 19.92 55.64 18.53V472zM369.1 474.1C367.9 478 365 480 361.7 480h-23.75c-4.406 0-7.1-3.594-7.1-8v-57.27c24.02 5.68 49.48-.2148 67.7-16.08c.5957 .207 1.213 .2754 1.81 .4668L369.1 474.1zM477.1 297.2c-4.375 .9062-8.187 3.594-10.5 7.406c-2.312 3.844-2.906 8.469-1.656 12.75c1.312 4.531 1.906 8.031 1.906 11.38c0 30.12-35.28 52.56-65.4 36.75c-6.672-3.562-14.92-1.938-19.73 3.906c-13.12 15.69-35.84 20.97-55.58 10.62c-6.64-3.469-14.86-1.875-19.69 3.906c-17.12 20.44-51.72 20.44-68.84 0c-3.125-3.719-7.656-5.719-12.27-5.719c-2.531 0-5.078 .5938-7.422 1.812c-19.8 10.38-42.44 5.094-55.58-10.62c-4.812-5.812-13.06-7.469-19.73-3.906c-7.082 3.719-14.44 5.166-21.57 5.051l-.1816-.457l-1.35 .5391c-22.55-1.141-42.31-19.35-42.31-41.88c0-3.344 .5937-6.844 1.906-11.38c1.25-4.281 .6562-8.906-1.656-12.75c-2.312-3.812-6.125-6.5-10.5-7.406C46.69 293.1 31.1 275.8 31.1 256s14.69-37.06 34.92-41.19c4.375-.9062 8.187-3.594 10.5-7.406c2.312-3.844 2.906-8.469 1.656-12.75C77.76 190.1 77.17 186.6 77.17 183.3c0-30.09 35.3-52.5 65.4-36.75c6.609 3.5 14.89 1.906 19.73-3.906C175.4 126.9 198.1 121.6 217.9 132c6.594 3.438 14.84 1.844 19.69-3.906c17.12-20.44 51.72-20.44 68.84 0C311.2 133.8 319.5 135.4 326.1 132c27.05-14.16 58.72 1.969 64.45 28.06c.9375 4.312 3.609 8.031 7.375 10.31c3.781 2.25 8.281 2.906 12.56 1.688c4.578-1.281 8.422-1.875 12.09-1.875c20.75 0 38.45 13.53 43.05 32.88C467 209 471.7 213.7 477.7 215C497.9 219.5 511.1 236.3 511.1 256C511.1 275.8 497.3 293.1 477.1 297.2zM622.8 91.69l-42.47-42.47C569.2 38.13 554.5 32 538.7 32H431.1V16c0-8.844-7.156-16-15.1-16c-8.844 0-15.1 7.156-15.1 16v64c0 8.844 7.156 16 15.1 16c8.844 0 15.1-7.156 15.1-16V64h106.7c7.156 0 13.87 2.781 18.92 7.844l42.47 42.47c8.172 8.156 10.19 20.59 5.031 30.91C600.6 154.3 591.4 160 581.2 160h-31.22c-8.844 0-15.1 7.156-15.1 16S541.2 192 550 192h31.22c22.39 0 42.53-12.44 52.55-32.47C645.1 136.9 640.7 109.6 622.8 91.69zM511.1 96c0-8.838-7.164-16-15.1-16c-8.836 0-15.1 7.162-15.1 16c0 8.836 7.164 16 15.1 16C504.8 112 511.1 104.8 511.1 96z"/></svg>