<svg xmlns="http://www.w3.org/2000/svg" viewBox="0 0 448 512"><!--! Font Awesome Pro 6.0.0-alpha3 by @fontawesome - https://fontawesome.com License - https://fontawesome.com/license (Commercial License) --><path d="M272 144v192c0 8.844 7.156 16 16 16s16-7.156 16-16v-192C304 82.25 253.8 32 192 32H80C53.53 32 32 53.53 32 80v384C32 472.8 39.16 480 48 480S64 472.8 64 464v-384C64 71.17 71.19 64 80 64H192C236.1 64 272 99.89 272 144zM400 32C391.2 32 384 39.16 384 48v320c0 44.18-35.82 80-80 80H192c-8.837 0-16-7.163-16-16v-256C176 167.2 168.8 160 160 160S144 167.2 144 176v256C144 458.5 165.5 480 192 480h112c61.86 0 112-50.14 112-112v-320C416 39.16 408.8 32 400 32z"/></svg>