<svg xmlns="http://www.w3.org/2000/svg" viewBox="0 0 640 512"><!--! Font Awesome Pro 6.0.0-alpha3 by @fontawesome - https://fontawesome.com License - https://fontawesome.com/license (Commercial License) --><path d="M594.2 478c-28.14-3.625-53.29-18.34-69.03-40.38c-6-8.438-20.04-8.438-26.04 0c-18.44 25.84-49.45 41.28-82.97 41.28c-33.52 0-64.53-15.44-82.97-41.28c-6.031-8.438-20.03-8.438-26.06 0c-18.44 25.84-49.45 41.28-82.97 41.28c-33.51 0-64.53-15.44-82.97-41.28c-3-4.219-7.859-6.719-13.03-6.719s-10.02 2.5-13.02 6.719c-15.73 22.03-40.89 36.75-69.03 40.38c-8.766 1.125-15.13 9.209-14.01 17.99c1.125 8.75 9.212 15.01 18.1 13.76c29.98-3.875 57.48-17.47 77.94-38.09c24.62 24.84 59.23 39.25 96.01 39.25c36.77 0 71.37-14.41 95.1-39.25c24.62 24.84 59.23 39.25 95.1 39.25c36.78 0 71.39-14.41 96.01-39.25c20.45 20.62 47.95 34.22 77.94 38.09c8.951 1.375 16.79-5.009 17.91-13.76C609.1 487.2 602.9 479.2 594.2 478zM180.9 427.5c6.344 6.156 16.48 6.016 22.62-.3438c6.156-6.344 6-16.48-.3438-22.62L99.38 304.2C96.16 300 95.17 294.8 96.7 289.7c1.516-5.031 5.266-8.875 10.2-10.53L304 214.1V384c0 8.844 7.156 16 16 16s16-7.156 16-16V214.1l197 65.05c4.984 1.672 8.734 5.516 10.25 10.55c1.531 5.047 .5469 10.31-1.188 12.8l-105.3 102c-6.344 6.141-6.5 16.28-.3438 22.62C439.7 430.4 443.8 432 448 432c4.016 0 8.031-1.5 11.14-4.516l106.7-103.7c9.547-12.28 12.56-28.48 8.047-43.38c-4.5-14.89-16-26.7-30.8-31.64L512 238.5V112C512 85.53 490.5 64 464 64l-47.1 .0241L416 48C416 21.53 394.5 0 368 0h-96C245.5 0 224 21.53 224 48L223.1 64.02L176 64C149.5 64 128 85.53 128 112v126.5L96.83 248.8C82.08 253.8 70.58 265.6 66.08 280.5c-4.516 14.89-1.5 31.09 9.531 45.03L180.9 427.5zM256 48C256 39.17 263.2 32 272 32h96C376.8 32 384 39.17 384 48V64H256V48zM160 112C160 103.2 167.2 96 176 96h288C472.8 96 480 103.2 480 112v115.1l-154.1-51.16c-3.25-1.094-6.781-1.094-10.03 0L160 227.1V112z"/></svg>