<svg xmlns="http://www.w3.org/2000/svg" viewBox="0 0 640 512"><!--! Font Awesome Pro 6.0.0-alpha3 by @fontawesome - https://fontawesome.com License - https://fontawesome.com/license (Commercial License) --><path d="M25.92 3.42c-6.938-5.453-17-4.25-22.48 2.641c-5.469 6.938-4.281 17 2.641 22.48l608 480C617 510.9 620.5 512 623.1 512c4.734 0 9.422-2.094 12.58-6.078c5.469-6.938 4.281-17-2.641-22.49L25.92 3.42zM526.2 32c3.578 0 6.891 1.781 8.875 4.75l71.14 106.7C610.9 150.5 605.8 160 597.3 160H301.7l40.53 32h255.1c15.73 0 30.14-8.625 37.58-22.53c7.453-13.89 6.656-30.67-2.078-43.78L561.7 19C553.8 7.109 540.5 0 526.2 0H113.8c-4.221 0-8.281 .793-12.21 1.973L139.6 32H526.2zM544 240v111.3l32 25.26V240C576 231.2 568.8 224 560 224S544 231.2 544 240zM95.91 352V240c0-8.811-7.143-15.95-15.95-15.95S64 231.2 64 240v224C64 490.5 85.49 512 112 512h224C362.5 512 384 490.5 384 464v-75.93L338.3 352H95.91zM352 464c0 8.822-7.178 16-16 16h-224C103.2 480 96 472.8 96 464V384h256V464zM95.11 160H42.71C34.18 160 29.04 150.6 33.83 143.4l13.88-20.84l-25.19-19.89L7.24 125.6C-1.541 138.7-2.4 155.5 5.021 169.4C12.46 183.3 26.9 192 42.71 192h92.94L95.11 160z"/></svg>