<svg xmlns="http://www.w3.org/2000/svg" viewBox="0 0 640 512"><!--! Font Awesome Pro 6.0.0-alpha3 by @fontawesome - https://fontawesome.com License - https://fontawesome.com/license (Commercial License) --><path d="M368 224c-8.811 0-16.14 7.143-16.14 15.95V352h-256V240c0-8.811-7.143-15.95-15.95-15.95S64 231.2 64 240l-.0001 224c0 26.51 21.49 47.1 48 47.1h224c26.51 0 47.1-21.49 47.1-47.1L384 240C384 231.2 376.9 224 368 224zM352 464c0 8.822-7.178 16-16 16h-224C103.2 480 96 472.8 96 464V384h256V464zM560 224C551.2 224 544 231.2 544 240v256c0 8.836 7.149 16 15.98 16s16-7.164 16-16L576 240C576 231.2 568.8 224 560 224zM632.8 125.7L561.7 19C553.8 7.109 540.5 0 526.2 0H113.8c-14.3 0-27.56 7.109-35.5 19L7.24 125.6C-1.541 138.7-2.4 155.5 5.021 169.4C12.46 183.3 26.9 192 42.71 192h554.6c15.73 0 30.14-8.625 37.58-22.53C642.4 155.6 641.6 138.8 632.8 125.7zM597.3 160H42.71C34.18 160 29.04 150.6 33.83 143.4l71.05-106.7C106.9 33.78 110.2 32 113.8 32h412.4c3.578 0 6.891 1.781 8.875 4.75l71.14 106.7C610.9 150.5 605.8 160 597.3 160z"/></svg>