<svg xmlns="http://www.w3.org/2000/svg" viewBox="0 0 640 512"><!--! Font Awesome Pro 6.0.0-alpha3 by @fontawesome - https://fontawesome.com License - https://fontawesome.com/license (Commercial License) --><path d="M576.8 192.3C533 171.8 474.3 160 416 160h-9.109C291.4 109.5 231.1 32 112 32h-32C53.49 32 32 53.49 32 80V128C14.33 128 0 142.3 0 160v192c0 17.67 14.33 32 32 32v48C32 458.5 53.49 480 80 480h32c119.1 0 179.4-77.45 294.9-128H416c58.33 0 117-11.83 160.8-32.33C616.3 301.2 640 277.3 640 256C640 234.7 616.3 210.8 576.8 192.3zM160 69.15c44.26 9.785 80.85 32.56 124.3 59.61C300.3 138.8 317.5 149.5 336.1 160H176C171.8 152.8 166.2 147.1 160 142.2V69.15zM64 80C64 71.18 71.18 64 80 64h32C117.5 64 122.7 64.48 128 64.84v64.09C125.6 128.7 123.3 128 120.9 128H64V80zM128 447.2C122.7 447.5 117.5 448 112 448h-32C71.18 448 64 440.8 64 432V384h56.88C123.3 384 125.6 383.3 128 383.1V447.2zM284.3 383.2C240.9 410.3 204.3 433.1 160 442.9v-73.01C166.2 364.9 171.8 359.2 176 352h160.1C317.5 362.5 300.3 373.2 284.3 383.2zM563.3 290.7C523.4 309.3 469.8 320 416 320H157.6l-9.219 15.89C142.5 345.1 132.2 352 120.9 352H32V272h176C216.8 272 224 264.8 224 256c0-8.838-7.164-16-16-16H32V160h88.88C132.2 160 142.5 166 148.3 176.1L157.6 192H416c53.76 0 107.4 10.69 147.3 29.31c34.85 16.32 44.29 31.96 44.75 34.42C607.5 258.7 598.1 274.4 563.3 290.7zM496 224C487.2 224 480 231.2 480 240v32C480 280.8 487.2 288 496 288S512 280.8 512 272v-32C512 231.2 504.8 224 496 224z"/></svg>