<svg xmlns="http://www.w3.org/2000/svg" viewBox="0 0 512 512"><!--! Font Awesome Pro 6.0.0-alpha3 by @fontawesome - https://fontawesome.com License - https://fontawesome.com/license (Commercial License) --><path d="M352 272C352 280.8 359.2 288 368 288h64C440.8 288 448 280.8 448 272C448 263.2 440.8 256 432 256h-64C359.2 256 352 263.2 352 272zM352 208C352 216.8 359.2 224 368 224h64C440.8 224 448 216.8 448 208C448 199.2 440.8 192 432 192h-64C359.2 192 352 199.2 352 208zM448 144C448 135.2 440.8 128 432 128h-64C359.2 128 352 135.2 352 144C352 152.8 359.2 160 368 160h64C440.8 160 448 152.8 448 144zM0 96v320c0 35.35 28.65 64 64 64h384c35.35 0 64-28.65 64-64V96c0-35.35-28.65-64-64-64H64C28.65 32 0 60.65 0 96zM320 64h128c17.64 0 32 14.36 32 32v320c0 17.64-14.36 32-32 32h-128V64zM32 96c0-17.64 14.36-32 32-32h224v384H64c-17.64 0-32-14.36-32-32V96z"/></svg>