<svg xmlns="http://www.w3.org/2000/svg" viewBox="0 0 512 512"><!--! Font Awesome Pro 6.0.0-alpha3 by @fontawesome - https://fontawesome.com License - https://fontawesome.com/license (Commercial License) --><path d="M144 256h-64C71.16 256 64 263.2 64 272C64 280.8 71.16 288 80 288h64C152.8 288 160 280.8 160 272C160 263.2 152.8 256 144 256zM144 192h-64C71.16 192 64 199.2 64 208C64 216.8 71.16 224 80 224h64C152.8 224 160 216.8 160 208C160 199.2 152.8 192 144 192zM80 160h64C152.8 160 160 152.8 160 144C160 135.2 152.8 128 144 128h-64C71.16 128 64 135.2 64 144C64 152.8 71.16 160 80 160zM448 32H64C28.65 32 0 60.65 0 96v320c0 35.35 28.65 64 64 64h384c35.35 0 64-28.65 64-64V96C512 60.65 483.3 32 448 32zM192 448H64c-17.64 0-32-14.36-32-32V96c0-17.64 14.36-32 32-32h128V448zM480 416c0 17.64-14.36 32-32 32H224V64h224c17.64 0 32 14.36 32 32V416z"/></svg>