<svg xmlns="http://www.w3.org/2000/svg" viewBox="0 0 512 512"><!--! Font Awesome Pro 6.0.0-alpha3 by @fontawesome - https://fontawesome.com License - https://fontawesome.com/license (Commercial License) --><path d="M496 63.1L96 64V16c0-8.844-7.156-16-16-16s-16 7.156-16 16v48L16 63.1c-8.844 0-16 7.156-16 16S7.156 96 16 96H64v400C64 504.8 71.16 512 80 512S96 504.8 96 496V96h96v48C165.5 144 144 165.5 144 192v160c0 26.47 21.53 48 48 48h256c26.47 0 48-21.53 48-48V192c0-26.47-21.53-48-48-48V96h48C504.8 96 512 88.84 512 79.1S504.8 63.1 496 63.1zM464 192v160c0 8.812-7.172 16-16 16H192c-8.828 0-16-7.188-16-16V192c0-8.812 7.172-16 16-16h256C456.8 176 464 183.2 464 192zM416 144H224V96h192V144z"/></svg>