<svg xmlns="http://www.w3.org/2000/svg" viewBox="0 0 512 512"><!--! Font Awesome Pro 6.0.0-alpha3 by @fontawesome - https://fontawesome.com License - https://fontawesome.com/license (Commercial License) --><path d="M160 192C124.7 192 96 220.7 96 256c0 35.33 28.67 64 64 64s64-28.67 64-64C224 220.7 195.3 192 160 192zM160 288C142.3 288 128 273.7 128 256c0-17.7 14.3-32 32-32s32 14.3 32 32C192 273.7 177.7 288 160 288zM256 0C114.6 0 0 100.3 0 224c0 70.13 36.88 132.6 94.5 173.7c9.75 6.875 15.25 18.02 13.5 29.89l-7.125 21.27C90.63 480 113.8 512 146.5 512h219c32.75 0 55.88-32 45.63-63.13l-7.094-21.27c-1.75-11.75 3.75-23.02 13.5-29.89C475.2 356.6 512 294.1 512 224C512 100.3 397.4 0 256 0zM398.9 371.6c-19.62 14-29.88 37.13-26.62 60.38c.7441 4.096-.4238 .2578 8.5 26.88c2.25 7.277-1.291 21-15.25 21H320v-48c0-8.801-7.199-16-16-16s-16 7.199-16 16v48H224v-48c0-8.801-7.199-16-16-16s-16 7.199-16 16v48H146.5c-11.34 0-18.57-11.04-15.25-21C140.2 432.3 139 436.1 139.8 432c3.25-23.25-7-46.38-26.62-60.38C61.5 334.9 32 281.1 32 224c0-105.9 100.5-192 224-192s224 86.13 224 192C480 281.1 450.5 334.9 398.9 371.6zM352 192c-35.33 0-64 28.67-64 64c0 35.33 28.67 64 64 64s64-28.67 64-64C416 220.7 387.3 192 352 192zM352 288c-17.7 0-32-14.3-32-32c0-17.7 14.3-32 32-32s32 14.3 32 32C384 273.7 369.7 288 352 288z"/></svg>