<svg xmlns="http://www.w3.org/2000/svg" viewBox="0 0 448 512"><!--! Font Awesome Pro 6.0.0-alpha3 by @fontawesome - https://fontawesome.com License - https://fontawesome.com/license (Commercial License) --><path d="M184 159.1c13.25 0 23.1-10.75 23.1-23.1c0-13.25-10.75-24-23.1-24s-23.1 10.75-23.1 24C160 149.2 170.8 159.1 184 159.1zM263.1 159.1c13.25 0 23.1-10.75 23.1-23.1c0-13.25-10.75-24-23.1-24s-23.1 10.75-23.1 24C239.1 149.2 250.7 159.1 263.1 159.1zM135 227.9L128.6 258.1C125.4 273.4 135.1 287.1 148.4 287.1h151.2c13.25 0 22.1-14.62 19.75-29.87l-6.375-30.25c33.25-23.37 55.02-59.24 55.02-99.86C368 57.25 303.5 0 224 0S79.99 57.25 79.99 127.1C79.99 168.6 101.8 204.5 135 227.9zM224 31.1c61.74 0 111.1 42.1 111.1 95.99c0 28.37-15.12 55.25-41.49 73.75l-17.25 12.12l9 42.12H161.8l9-42.12L153.5 201.7c-26.37-18.5-41.49-45.37-41.49-73.75C112 74.1 162.3 31.1 224 31.1zM430.9 481.6L261 400l169.9-81.56c7.969-3.844 11.33-13.41 7.5-21.38c-3.828-7.938-13.39-11.31-21.34-7.5L224 382.2L30.92 289.6c-8-3.781-17.53-.4375-21.34 7.5C5.75 305 9.109 314.6 17.08 318.4L187 400l-169.9 81.56c-7.969 3.844-11.33 13.41-7.5 21.38C12.33 508.7 18.05 512 24.02 512c2.312 0 4.67-.5 6.904-1.562L224 417.8l193.1 92.68C419.3 511.5 421.7 512 423.1 512c5.969 0 11.69-3.344 14.44-9.062C442.3 494.1 438.9 485.4 430.9 481.6z"/></svg>