<svg xmlns="http://www.w3.org/2000/svg" viewBox="0 0 640 512"><!--! Font Awesome Pro 6.0.0-alpha3 by @fontawesome - https://fontawesome.com License - https://fontawesome.com/license (Commercial License) --><path d="M615.8 364.9l-9.747-8.378c-6.838-5.877-17.18-4.925-22.83 2.102c-5.392 6.706-4.495 16.48 2.028 22.09l9.803 8.435c6.25 5.125 11.13 12.12 12.5 20c3.75 20.63-12.13 38.63-32.13 38.63h-127.4v-64h9.999c65.17 0 118-52.83 118-118V128.5h16c8.8 0 16-7.2 16-15.1S600.8 96.5 592 96.5h-112c-17.67 0-32 14.33-32 32V177c0 28.12-29.38 39.25-42.13 42.75C357.8 233 268.9 215.9 221.8 136.6C169.5 48.75 122 32 52.75 32H16C7.2 32 0 39.2 0 47.1C0 56.8 7.2 64 16 64h16L32 232c0 64 39.88 118.6 96 141V448H48c-8.8 0-16 7.2-16 16S39.2 480 48 480h524c35.5 0 66-27.25 67.88-60.75C641.1 398 632.3 378.2 615.8 364.9zM64 232V64.38C117.4 66.25 152.3 82.25 194.3 152.9C236.5 224.1 309.8 256 372 256c15 0 29.25-1.75 42.38-5.5c41.13-11.25 65.63-38.75 65.63-73.5V128.5h64v137.5C544 313.4 505.4 352 458 352H184C117.8 352 64 298.2 64 232zM160 448v-66.38C167.9 382.9 175.8 384 184 384h232v64H160z"/></svg>