<svg xmlns="http://www.w3.org/2000/svg" viewBox="0 0 640 512"><!--! Font Awesome Pro 6.0.0-alpha3 by @fontawesome - https://fontawesome.com License - https://fontawesome.com/license (Commercial License) --><path d="M120 376c-13.25 0-24 10.75-24 24s10.75 23.97 24 23.97s23.97-10.75 23.97-24S133.3 376 120 376zM200 376c-13.25 0-24 10.75-24 23.1s10.75 23.97 24 23.97s23.97-10.75 23.97-24S213.3 376 200 376zM360 376c-13.25 0-24 10.75-24 24s10.75 23.97 24 23.97s23.97-10.75 23.97-24S373.3 376 360 376zM280 376c-13.25 0-24 10.75-24 24s10.75 23.97 24 23.97s23.97-10.75 23.97-23.1S293.3 376 280 376zM583.4 432.8C568.3 417.7 560 397.6 560 376.2V263.8c0-21.36 8.312-41.45 23.44-56.58l51.89-51.89c6.25-6.25 6.237-16.36-.0129-22.61s-16.31-6.22-22.56 .0295l-51.94 51.85C539.7 205.7 528 233.9 528 263.8V304h-97.75V237.1c0-8.75-1.875-17.25-5.25-25.25l-78.25-182.8C339.1 11.38 321.8 0 302.5 0H158.3c-26.5 0-48 21.5-48 48V128h-16c-26.5 0-48 21.5-48 48v133.8C18.25 330.1 0 362.8 0 400C0 461.9 50.13 512 112 512h256c61.88 0 112-50.13 112-112c0-23.75-7.634-45.75-20.26-64H528v40.23c0 29.91 11.66 58.03 32.81 79.2l51.94 51.87C615.9 510.4 619.9 512 624 512s8.188-1.562 11.31-4.688c6.25-6.25 6.263-16.33 .0129-22.58L583.4 432.8zM142.3 48c0-8.75 7.125-16 16-16H302.5C309 32 314.8 35.75 317.3 41.75L395.4 224H214.3l-72-95.75V48zM78.25 176c0-8.75 7.125-16 16-16h31.75l67.38 89.63C196.4 253.6 201.3 256 206.3 256h192v36.63c-9.75-2.75-19.74-4.619-30.24-4.619h-256c-11.88 0-23.13 2.244-33.75 5.744V176zM368 480h-256C67.88 480 32 444.1 32 400S67.88 320 112 320h256c44.13 0 80 35.88 80 80S412.1 480 368 480z"/></svg>