<svg xmlns="http://www.w3.org/2000/svg" viewBox="0 0 512 512"><!--! Font Awesome Pro 6.0.0-alpha3 by @fontawesome - https://fontawesome.com License - https://fontawesome.com/license (Commercial License) --><path d="M192 136C178.7 136 168 146.7 168 160c0 13.25 10.75 24 24 24c13.26 0 24-10.75 24-24C216 146.7 205.3 136 192 136zM192 72C143.4 72 104 111.4 104 160c0 48.6 39.4 88 88 88S280 208.6 280 160C280 111.4 240.6 72 192 72zM192 216C161.1 216 136 190.9 136 160c0-30.88 25.12-56 56-56S248 129.1 248 160C248 190.9 222.9 216 192 216zM256 0C114.8 0 0 114.8 0 256s114.8 256 256 256s256-114.8 256-256S397.2 0 256 0zM256 480c-92.34 0-171.8-56.19-206-136.2C112.1 359.4 183.4 368 256 368s143-8.592 206-24.15C427.8 423.8 348.3 480 256 480zM38.38 308.2C34.36 291.4 32 273.1 32 256c0-123.5 100.5-224 224-224s224 100.5 224 224c0 17.99-2.361 35.4-6.385 52.17C343.6 344.5 168.4 344.5 38.38 308.2z"/></svg>