<svg xmlns="http://www.w3.org/2000/svg" viewBox="0 0 512 512"><!--! Font Awesome Pro 6.0.0-alpha3 by @fontawesome - https://fontawesome.com License - https://fontawesome.com/license (Commercial License) --><path d="M191.1 136c-13.25 0-24 10.74-24 24c0 13.25 10.75 24 24 24C205.3 184 215.1 173.3 215.1 160C215.1 146.7 205.3 136 191.1 136zM191.1 72c-48.6 0-88 39.4-88 88c0 48.6 39.4 88 88 88S279.1 208.6 279.1 160C279.1 111.4 240.6 72 191.1 72zM191.1 216c-30.88 0-56-25.12-56-56c0-30.88 25.12-56 56-56S247.1 129.1 247.1 160C247.1 190.9 222.9 216 191.1 216zM448 160h-80c-8.844 0-16 7.156-16 16s7.156 16 16 16h80c8.844 0 15.1-7.156 15.1-16S456.8 160 448 160zM511.4 238.9C510.9 230.5 503.9 224 495.5 224H431.1c-8.844 0-16 7.156-16 16s7.156 16 16 16h47.75c.1094 11.83 .1719 27.92 .2187 38.88C417.3 311.3 345.7 320 271.1 320c-84.98 0-166.3-11.39-235.2-32.95C35.97 286.8 35.18 286.9 34.37 286.8C32.97 276.7 31.1 266.5 31.1 256c0-123.5 100.5-224 224-224c59.66 0 115.2 22.98 156.9 64H368c-8.844 0-16 7.156-16 16s7.156 16 16 16l80.02-.0156c6.062 0 11.61-3.438 14.31-8.859s2.125-11.91-1.516-16.75C411.9 37.31 337.3 0 256 0c-141.2 0-256 114.8-256 256s114.8 256 256 256c88.36 0 169.3-44.66 216.6-119.5c3.109-4.938 3.297-11.16 .4844-16.27S464.9 368 459 368H415.1c-8.844 0-16 7.156-16 16s7.156 16 16 16h11.62C385.3 450.6 323.1 480 255.1 480c-100.8 0-186.1-66.88-214.2-158.6C110.6 341.2 189.5 352 271.1 352c81.19 0 160.2-10.2 228.4-29.53c6.906-1.953 11.66-8.266 11.64-15.44C511.1 292.4 511.8 244.3 511.4 238.9z"/></svg>