<svg xmlns="http://www.w3.org/2000/svg" viewBox="0 0 512 512"><!--! Font Awesome Pro 6.0.0-alpha3 by @fontawesome - https://fontawesome.com License - https://fontawesome.com/license (Commercial License) --><path d="M481.7 30.27C461.1 10.5 434.2 .0313 401.3 0c-49.58 0-106.7 25.05-145.4 63.81C255.6 64.05 255.4 64.28 255.2 64.52C254.1 64.77 254.7 65.03 254.4 65.33C219.3 101.2 208.9 155.7 226.7 206.6l-212.9 199.1C5.188 414.8 .1719 426.2 0 438.1c-.1406 11.84 4.578 23.44 12.94 31.77l29.23 29.25C50.39 507.3 61.75 512 74.02 512c11.77-.2031 23.19-5.203 31.47-13.86l199.9-212.8c51.03 17.73 105.4 7.375 141.3-27.72c.2031-.2031 .4062-.4062 .5938-.6094c.2813-.2656 .5781-.5469 .8906-.875C486.1 217.3 512 160.2 512 110.6C511.1 77.8 501.5 50.02 481.7 30.27zM425.6 233.5c-.1562 .1562-.3125 .3281-.4687 .4844c-.2344 .2344-.5156 .4687-.7656 .75c-29.53 28.84-74.28 35.34-116.9 17.06c-6.172-2.703-13.39-1.188-17.98 3.734l-207.2 220.6C79.97 478.5 76.77 479.1 73.33 480c-3.172 0-6.297-1.297-8.547-3.547l-29.23-29.25C33.28 444.1 31.95 441.7 32 438.5c.0469-3.266 1.438-6.453 3.734-8.641l220.7-207.3c4.906-4.609 6.406-11.8 3.734-17.98c-18.34-42.56-11.81-87.36 17.06-116.9c.1875-.1875 .3594-.375 .5313-.5781c.2031-.2031 .4531-.4219 .6875-.6875C311.5 53.36 359.8 32 401.3 32c24.17 .0313 44.16 7.266 57.75 20.89c.0156 .0156-.0156-.0156 0 0C472.8 66.52 479.1 86.48 480 110.6C480 152.2 458.7 200.4 425.6 233.5z"/></svg>