<svg xmlns="http://www.w3.org/2000/svg" viewBox="0 0 512 512"><!--! Font Awesome Pro 6.0.0-alpha3 by @fontawesome - https://fontawesome.com License - https://fontawesome.com/license (Commercial License) --><path d="M160 240c-44.13 0-80 35.88-80 80s35.88 80 80 80s80-35.88 80-80S204.1 240 160 240zM160 368c-26.5 0-48-21.5-48-48S133.5 272 160 272S208 293.5 208 320S186.5 368 160 368zM224 128V32c0-17.59-14.41-32-32-32H128C110.4 0 96 14.41 96 32v96C43 128 0 171 0 224v224c0 35.2 28.81 64 64 64h192c35.19 0 64-28.8 64-64V224C320 171 277 128 224 128zM128 32h64v96H128V32zM288 448c0 17.67-14.31 32-32 32H64c-17.69 0-32-14.33-32-32V224c0-35.2 28.81-64 64-64h128c35.19 0 64 28.8 64 64V448zM496 224H480V208C480 199.2 472.8 192 464 192S448 199.2 448 208V224h-16C423.2 224 416 231.2 416 240S423.2 256 432 256H448v16C448 280.8 455.2 288 464 288S480 280.8 480 272V256h16C504.8 256 512 248.8 512 240S504.8 224 496 224zM432 64H448v16C448 88.84 455.2 96 464 96S480 88.84 480 80V64h16C504.8 64 512 56.84 512 48S504.8 32 496 32H480V16C480 7.156 472.8 0 464 0S448 7.156 448 16V32h-16C423.2 32 416 39.16 416 48S423.2 64 432 64zM416 160h16C440.8 160 448 152.8 448 144S440.8 128 432 128H416V112C416 103.2 408.8 96 400 96S384 103.2 384 112V128h-16C359.2 128 352 135.2 352 144S359.2 160 368 160H384v16C384 184.8 391.2 192 400 192S416 184.8 416 176V160zM352 64h16C376.8 64 384 56.84 384 48S376.8 32 368 32H352V16C352 7.156 344.8 0 336 0S320 7.156 320 16V32h-16C295.2 32 288 39.16 288 48S295.2 64 304 64H320v16C320 88.84 327.2 96 336 96S352 88.84 352 80V64z"/></svg>