<svg xmlns="http://www.w3.org/2000/svg" viewBox="0 0 448 512"><!--! Font Awesome Pro 6.0.0-alpha3 by @fontawesome - https://fontawesome.com License - https://fontawesome.com/license (Commercial License) --><path d="M304 96h-160c-17.67 0-32 14.33-32 32v80c0 56.38 41.75 102.6 96 110.4V384h-32C167.2 384 160 391.2 160 400C160 408.8 167.2 416 176 416h96c8.801 0 16-7.201 16-16c0-8.801-7.199-16-16-16h-32V318.4c54.25-7.75 96-54.01 96-110.4V128C336 110.3 321.7 96 304 96zM304 208C304 252.1 268.1 288 224 288S144 252.1 144 208V128h68.75l7.375 19.88L183.8 186.3c0 0 47.63 34.88 67.25 43.88c2.625 1.125 5.75 1 8.25-.75c3.625-2.625 4.5-7.625 2-11.37c-9-12.5-29.88-33.75-29.88-33.75L260 156c0 0-9.125-22.12-11.62-28H304V208zM384 32H64C28.65 32 0 60.65 0 96v320c0 35.35 28.65 64 64 64h320c35.35 0 64-28.65 64-64V96C448 60.65 419.3 32 384 32zM416 416c0 17.64-14.36 32-32 32H64c-17.64 0-32-14.36-32-32V96c0-17.64 14.36-32 32-32h320c17.64 0 32 14.36 32 32V416z"/></svg>