<svg xmlns="http://www.w3.org/2000/svg" viewBox="0 0 448 512"><!--! Font Awesome Pro 6.0.0-alpha3 by @fontawesome - https://fontawesome.com License - https://fontawesome.com/license (Commercial License) --><path d="M224 232C210.7 232 200 242.7 200 256S210.7 280 224 280c13.26 0 24-10.74 24-24S237.3 232 224 232zM224 120c-13.25 0-24 10.74-24 24S210.7 168 224 168c13.26 0 24-10.74 24-24S237.3 120 224 120zM224 344c-13.25 0-24 10.74-24 24s10.75 24 24 24c13.26 0 24-10.74 24-24S237.3 344 224 344zM384 32H64C28.65 32 0 60.65 0 96v320c0 35.35 28.65 64 64 64h320c35.35 0 64-28.65 64-64V96C448 60.65 419.3 32 384 32zM416 416c0 17.64-14.36 32-32 32H64c-17.64 0-32-14.36-32-32V96c0-17.64 14.36-32 32-32h320c17.64 0 32 14.36 32 32V416z"/></svg>