<svg xmlns="http://www.w3.org/2000/svg" viewBox="0 0 448 512"><!--! Font Awesome Pro 6.0.0-alpha3 by @fontawesome - https://fontawesome.com License - https://fontawesome.com/license (Commercial License) --><path d="M0 95.1v320c0 35.35 28.65 64 64 64h320c35.35 0 64-28.65 64-64v-320c0-35.35-28.65-63.1-64-63.1H64C28.65 31.1 0 60.65 0 95.1zM384 64c17.64 0 32 14.36 32 32v320c0 17.64-14.36 32-32 32H64c-17.64 0-32-14.36-32-32V96c0-17.64 14.36-32 32-32H384zM144 368v-128C144 231.2 136.8 224 128 224S112 231.2 112 240v128C112 376.8 119.2 384 128 384S144 376.8 144 368zM208 144v224c0 8.844 7.156 16 16 16s16-7.156 16-16v-224C240 135.2 232.8 128 224 128S208 135.2 208 144zM304 304v64c0 8.844 7.156 16 16 16s16-7.156 16-16v-64C336 295.2 328.8 288 320 288S304 295.2 304 304z"/></svg>