<svg xmlns="http://www.w3.org/2000/svg" viewBox="0 0 448 512"><!--! Font Awesome Pro 6.0.0-alpha3 by @fontawesome - https://fontawesome.com License - https://fontawesome.com/license (Commercial License) --><path d="M112 232C98.74 232 88 242.7 88 256c0 13.25 10.74 24 24 24S136 269.3 136 256C136 242.7 125.3 232 112 232zM224 232C210.7 232 200 242.7 200 256c0 13.25 10.74 24 24 24S248 269.3 248 256C248 242.7 237.3 232 224 232zM336 232c-13.26 0-24 10.74-24 24c0 13.25 10.74 24 24 24S360 269.3 360 256C360 242.7 349.3 232 336 232zM384 32H64C28.65 32 0 60.65 0 96v320c0 35.35 28.65 64 64 64h320c35.35 0 64-28.65 64-64V96C448 60.65 419.3 32 384 32zM416 416c0 17.64-14.36 32-32 32H64c-17.64 0-32-14.36-32-32V96c0-17.64 14.36-32 32-32h320c17.64 0 32 14.36 32 32V416z"/></svg>