<svg xmlns="http://www.w3.org/2000/svg" viewBox="0 0 448 512"><!--! Font Awesome Pro 6.0.0-alpha3 by @fontawesome - https://fontawesome.com License - https://fontawesome.com/license (Commercial License) --><path d="M384 32H64C28.65 32 0 60.65 0 96v320c0 35.35 28.65 64 64 64h320c35.35 0 64-28.65 64-64V96C448 60.65 419.3 32 384 32zM416 416c0 17.64-14.36 32-32 32H64c-17.64 0-32-14.36-32-32V96c0-17.64 14.36-32 32-32h320c17.64 0 32 14.36 32 32V416zM352 368H96c-8.844 0-16 7.156-16 16s7.156 16 16 16h256c8.844 0 16-7.156 16-16S360.8 368 352 368zM100 202.5L128 170.6V320c0 8.844 7.156 16 16 16S160 328.8 160 320V170.6l27.97 31.96C191.1 206.2 195.6 208 200 208c3.75 0 7.5-1.297 10.53-3.953c6.656-5.828 7.344-15.94 1.5-22.58l-56-64c-6.062-6.969-18-6.969-24.06 0l-56 64C70.13 188.1 70.81 198.2 77.47 204C84.06 209.8 94.19 209.2 100 202.5zM316 117.5c-6.062-6.969-18-6.969-24.06 0l-56 64c-5.844 6.641-5.156 16.75 1.5 22.58c6.594 5.797 16.75 5.156 22.56-1.516L288 170.6V320c0 8.844 7.156 16 16 16S320 328.8 320 320V170.6l27.97 31.96C351.1 206.2 355.6 208 360 208c3.75 0 7.5-1.297 10.53-3.953c6.656-5.828 7.344-15.94 1.5-22.58L316 117.5z"/></svg>