<svg xmlns="http://www.w3.org/2000/svg" viewBox="0 0 448 512"><!--! Font Awesome Pro 6.0.0-alpha3 by @fontawesome - https://fontawesome.com License - https://fontawesome.com/license (Commercial License) --><path d="M384 31.1H64c-35.35 0-64 28.65-64 63.1v320c0 35.35 28.65 64 64 64h320c35.35 0 64-28.65 64-64v-320C448 60.65 419.3 31.1 384 31.1zM416 416c0 17.64-14.36 32-32 32H64c-17.64 0-32-14.36-32-32V96c0-17.64 14.36-32 32-32h320c17.64 0 32 14.36 32 32V416zM112 176h128C248.8 176 256 168.8 256 160s-7.156-16-16-16h-128C103.2 144 96 151.2 96 160S103.2 176 112 176zM336 240h-224C103.2 240 96 247.2 96 256s7.156 16 16 16h224C344.8 272 352 264.8 352 256S344.8 240 336 240zM176 336h-64C103.2 336 96 343.2 96 352s7.156 16 16 16h64C184.8 368 192 360.8 192 352S184.8 336 176 336z"/></svg>