<svg xmlns="http://www.w3.org/2000/svg" viewBox="0 0 448 512"><!--! Font Awesome Pro 6.0.0-alpha3 by @fontawesome - https://fontawesome.com License - https://fontawesome.com/license (Commercial License) --><path d="M228.4 240.6L220 238.2C182.7 227.2 173.3 219.1 176.6 200.4c3.75-21.88 33.44-27.31 61.25-22.94c7.625 1.188 16.81 3.703 28.94 7.891c8.375 2.891 17.47-1.547 20.34-9.891c2.875-8.359-1.531-17.47-9.906-20.36c-13.94-4.812-24.88-7.766-34.44-9.266C241.8 145.7 240.9 145.7 240 145.6V112C240 103.2 232.8 96 224 96S208 103.2 208 112v32.71C173.1 148.2 149.1 166.4 145 194.9C136.1 246.9 184.8 261.2 211 268.9l8.562 2.469c42.75 12.22 55.47 19.38 51.84 40.28c-3.75 21.91-33.44 27.27-61.34 22.92C198.3 332.8 184.3 327.8 172 323.3l-6.656-2.375C157 318 147.9 322.3 144.9 330.7c-2.938 8.344 1.438 17.48 9.75 20.42l6.5 2.328c13.72 4.953 29.28 10.55 44.06 12.78C206.2 366.3 207 366.3 208 366.4V400c0 8.844 7.156 16 16 16s16-7.156 16-16v-32.74c34.04-3.52 58.02-21.65 62.94-50.18C312.1 264.5 263.7 250.7 228.4 240.6zM384 32H64C28.65 32 0 60.66 0 96v320c0 35.34 28.65 64 64 64h320c35.35 0 64-28.66 64-64V96C448 60.66 419.3 32 384 32zM416 416c0 17.64-14.36 32-32 32H64c-17.64 0-32-14.36-32-32V96c0-17.64 14.36-32 32-32h320c17.64 0 32 14.36 32 32V416z"/></svg>