<svg xmlns="http://www.w3.org/2000/svg" viewBox="0 0 640 512"><!--! Font Awesome Pro 6.0.0-alpha3 by @fontawesome - https://fontawesome.com License - https://fontawesome.com/license (Commercial License) --><path d="M425.6 257.8C429.5 247.2 432 235.9 432 224c0-52.94-43.06-95.1-96-95.1L261.2 128l40.53 32H336c35.28 0 64 28.72 64 64c0 4.314-.457 8.521-1.275 12.6L425.6 257.8zM480 64c17.64 0 32 14.36 32 32v230l32 25.26l-.0004-255.3c0-35.35-28.65-63.1-63.1-63.1H159.1c-5.973 0-11.64 1.081-17.12 2.612L180.1 64H480zM224 261.8V368C224 376.8 231.2 384 240 384S256 376.8 256 368V320h41.77L257.2 288H256V287L224 261.8zM160 448c-17.64 0-32-14.36-32-32V185.1L96 160.7l-.0001 255.3c0 35.35 28.65 63.1 63.1 63.1L480 480c5.973 0 11.64-1.082 17.13-2.613L459.9 448H160zM633.9 483.4L25.92 3.436C18.1-2.033 8.921-.8457 3.437 6.092c-5.469 6.938-4.281 17 2.641 22.47l608 480C617 510.9 620.5 512 623.1 512c4.734 0 9.422-2.094 12.58-6.094C642 498.1 640.8 488.9 633.9 483.4z"/></svg>