<svg xmlns="http://www.w3.org/2000/svg" viewBox="0 0 640 512"><!--! Font Awesome Pro 6.0.0-alpha3 by @fontawesome - https://fontawesome.com License - https://fontawesome.com/license (Commercial License) --><path d="M634.5 115.9l-128-111.1C503.5 1.297 499.8 0 496 0c-4.453 0-8.875 1.844-12.05 5.469c-5.812 6.641-5.141 16.75 1.516 22.58L608 135.3v62.92l-154.1-29.42c-28.55-43.77-77.73-72.76-133.9-72.76c-56.17 0-105.3 28.99-133.9 72.78L32 198.2V135.3l122.5-107.2c6.656-5.826 7.328-15.94 1.516-22.58C150.2-1.195 140.1-1.867 133.5 3.977l-128 111.1C1.984 119 0 123.4 0 128v255.1c0 4.609 1.984 9 5.469 12.05l128 111.1C136.5 510.7 140.3 512 144 512c4.453 0 8.875-1.844 12.05-5.469c5.812-6.641 5.141-16.75-1.516-22.58L32 376.7V313.8l154.1 29.41c28.55 43.77 77.72 72.76 133.9 72.76c56.17 0 105.3-28.99 133.9-72.77L608 313.8v62.92l-122.5 107.2c-6.656 5.828-7.328 15.94-1.516 22.58c5.859 6.688 15.97 7.359 22.58 1.516l128-111.1C638 392.1 640 388.6 640 383.1V127.1C640 123.4 638 118.1 634.5 115.9zM32 281.2V230.8l137.2-26.13C163.7 220.9 160 237.9 160 256c0 18.08 3.662 35.17 9.189 51.38L32 281.2zM320 384c-70.58 0-128-57.42-128-128c0-70.58 57.42-128 128-128s128 57.42 128 128C448 326.6 390.6 384 320 384zM608 281.2l-137.2 26.13C476.3 291.1 480 274.1 480 256c0-18.08-3.662-35.17-9.189-51.38L608 230.8V281.2zM374.9 223.7l24.25-24.25c6.25-6.25 6.25-16.38 0-22.62s-16.38-6.25-22.62 0l-24.25 24.25C347.3 198.1 341.8 195.8 336 194.3V160c0-8.844-7.156-16-16-16S304 151.2 304 160v34.27C298.2 195.8 292.7 198.1 287.7 201.1L263.4 176.8c-6.25-6.25-16.38-6.25-22.62 0s-6.25 16.38 0 22.62l24.25 24.25C262.1 228.7 259.8 234.2 258.3 240H224C215.2 240 208 247.2 208 256S215.2 272 224 272h34.27c1.51 5.811 3.814 11.26 6.795 16.31L240.8 312.6c-6.25 6.25-6.25 16.38 0 22.62c3.125 3.125 7.219 4.688 11.31 4.688s8.188-1.562 11.31-4.688l24.25-24.25C292.7 313.9 298.2 316.2 304 317.7V352c0 8.844 7.156 16 16 16s16-7.156 16-16V317.7c5.811-1.51 11.26-3.814 16.31-6.795l24.25 24.25c3.125 3.125 7.219 4.688 11.31 4.688s8.188-1.562 11.31-4.688c6.25-6.25 6.25-16.38 0-22.62l-24.25-24.25C377.9 283.3 380.2 277.8 381.7 272H416c8.844 0 16-7.156 16-16S424.8 240 416 240h-34.27C380.2 234.2 377.9 228.7 374.9 223.7zM319.1 288c-17.64 0-32-14.36-32-31.1s14.36-32 32-32s31.1 14.36 31.1 32S337.6 288 319.1 288z"/></svg>