<svg xmlns="http://www.w3.org/2000/svg" viewBox="0 0 576 512"><!--! Font Awesome Pro 6.0.0-alpha3 by @fontawesome - https://fontawesome.com License - https://fontawesome.com/license (Commercial License) --><path d="M80.01 239.1c-8.875 0-16 7.125-16 15.1c0 8.875 7.125 16 15.1 16s15.1-7.125 15.1-15.1S88.89 239.1 80.01 239.1zM112 175.1c8.875 0 15.1-7.124 15.1-15.1S120.9 143.1 112 143.1S96.01 151.1 96.01 159.1S103.1 175.1 112 175.1zM112 335.1c-8.875 0-15.1 7.125-15.1 15.1s7.125 16 15.1 16c8.875 0 15.1-7.125 15.1-15.1C128 343.1 120.9 335.1 112 335.1zM560 239.1C568.9 239.1 576 232.9 576 223.1V166.4c0-13.38-8.374-25.5-20.1-29.1l-243.6-88.77C283.5 37.36 254 32.13 224.3 32c-29.12 0-57.88 5.374-85 17.12c-143.4 62.12-139.2 206.9-139.2 206.9s-4.393 144.6 139.2 206.9c27.12 11.75 55.93 17.13 85.05 17.13c27.62 0 55.46-4.996 81.95-13.1l16.25 22.75c10.62 14.62 27.5 23.25 45.5 23.25l55.1-.0004c24.12 .125 45.62-15.37 53.12-38.25c7.625-22.1-.375-48.12-19.75-62.5l97.62-35.62C567.6 371.1 576 358.1 576 345.6V287.1c0-8.875-7.124-15.1-15.1-15.1h-111.1V239.1H560zM224.4 447.1c-25.75 0-50.25-4.875-72.37-14.5c-121.1-52.5-120.1-171.6-119.1-176.5V255.2C31.89 250.2 31.14 130.9 152 78.5c22.12-9.625 46.37-14.5 72.25-14.5h.75c10.12 .25 20.25 1.125 30.37 2.75c90.87 14.1 160.5 93.87 160.6 188.1v.375c0 43.5-15.25 83.12-39.87 115.4l-61.5-85.37c3.5-9.75 5.256-19.87 5.381-30.12c0-52.1-42.1-95.1-95.1-95.1S128 202.1 128 255.1s42.1 95.1 95.1 95.1l62.11 86.12C265.6 444.1 244.9 447.1 224.4 447.1zM288 255.1c0 35.37-28.62 63.1-63.1 63.1S160 291.4 160 255.1S188.6 191.1 224 191.1S288 220.6 288 255.1zM424 479.1l-56 .0002c-7.75 0-14.1-3.75-19.49-10L258.8 345.3c15.12-5.1 28.38-15.61 38.76-28.24l82.73 114.1h43.75c13.25 0 23.1 10.75 23.1 23.1S437.3 479.1 424 479.1zM544 303.1v41.62l-147.7 53.75c22.87-27.62 38.75-60.37 46.5-95.37H544zM442.3 207.1c-7.625-35.25-23.62-67.1-46.62-95.62l148.4 53.1v41.62H442.3z"/></svg>