<svg xmlns="http://www.w3.org/2000/svg" viewBox="0 0 640 512"><!--! Font Awesome Pro 6.0.0-alpha3 by @fontawesome - https://fontawesome.com License - https://fontawesome.com/license (Commercial License) --><path d="M176 304h32C216.9 304 224 296.8 224 288c0-8.867-7.195-16-16-16h-32c-12.8 0-24.84 4.984-33.94 14.06C132.1 295.2 128 307.2 128 320H64V160h16C88.87 160 96 152.8 96 144C96 135.1 88.8 128 80 128H64L64 112C64 103.1 56.81 96 48 96C39.13 96 32 103.2 32 112V128H16C7.133 128 0 135.2 0 143.1C0 152.9 7.195 160 15.1 160H32v272C32 440.9 39.2 448 48 448C56.87 448 64 440.8 64 432l66.78 27.94C135.5 471.6 146.5 480 160 480h32v16C192 504.9 199.2 512 208 512C216.9 512 224 504.8 224 496v-32C224 455.1 216.8 448 208 448H160v-128C160 311.3 167.1 304 176 304zM128 424.3l-64-27.06V352h64V424.3zM369.6 35.02c-1.203-9.641-5.906-18.53-13.22-25C348.1 3.547 339.6 0 329.9 0H310.1c-9.719 0-19.11 3.547-26.47 10.02c-7.312 6.469-12.02 15.36-13.22 25L240.1 271.1C240.3 276.4 240 281.7 240 286.1V440c0 10.66 4.156 20.7 11.72 28.3C259.3 475.8 269.3 480 280 480h80c10.66 0 20.7-4.156 28.28-11.7C395.8 460.7 400 450.7 400 440V286.1c0-5.297-.3281-10.59-.9844-15.85L369.6 35.02zM368 440c0 2.156-.8281 4.172-2.328 5.672S362.2 448 360 448h-80c-2.156 0-4.172-.8281-5.672-2.328S272 442.2 272 440L271.9 281l30.25-242C302.7 34.93 306.1 32 310.1 32h19.75c4.037 0 7.416 2.934 7.938 7l30.25 242L368 440zM624 128H608V112C608 103.2 600.9 96 592 96C583.2 96 576 103.1 576 112V128h-16C551.2 128 544 135.1 544 144C544 152.8 551.1 160 560 160H576v160h-64c0-12.8-4.984-24.84-14.06-33.94C488.8 276.1 476.8 272 464 272h-32C423.2 272 416 279.1 416 288c0 8.805 7.133 16 16 16h32c8.92 0 16 7.289 16 16v128h-48c-8.805 0-16 7.133-16 16v32c0 8.805 7.133 16 16 16c8.805 0 16-7.133 16-16V480h32c13.5 0 24.49-8.441 29.22-20.06L576 431.7C576 440.5 583.1 448 592 448c8.805 0 16-7.133 16-16V160h16C632.8 160 640 152.9 640 144C640 135.2 632.9 128 624 128zM576 397.2l-64 27.06V352h64V397.2zM320 224C311.2 224 304 231.2 304 240v64C304 312.8 311.2 320 320 320s16-7.164 16-16v-64C336 231.2 328.8 224 320 224z"/></svg>