<svg xmlns="http://www.w3.org/2000/svg" viewBox="0 0 640 512"><!--! Font Awesome Pro 6.0.0-alpha3 by @fontawesome - https://fontawesome.com License - https://fontawesome.com/license (Commercial License) --><path d="M448 64c-83.88 0-155.1 53.88-181.2 129L214.9 197.8L159 160h47.38c26.5 0 48-21.5 48-48s-21.5-48-48-48H32C14.38 64 0 78.38 0 96v32c0 17.62 14.38 32 32 32h69.75l62.87 42.38L142.4 204.5C116 207 96 229.1 96 256s20 49 46.38 51.5l22.25 2.125L101.8 352H32c-17.62 0-32 14.38-32 32v32c0 17.62 14.38 32 32 32h174.4c26.5 0 48-21.5 48-48s-21.5-48-48-48H159l55.88-37.75L266.8 319C292.9 394.1 364.1 448 448 448c105.1 0 192-85.1 192-192C640 150 553.1 64 448 64zM32 128V96h174.4c8.875 0 16 7.125 16 16s-7.125 16-16 16H32zM206.4 384c8.875 0 16 7.125 16 16s-7.125 16-16 16H32v-32H206.4zM258.6 286.1l-113.2-10.5C135.5 274.8 128 266.2 128 256c0-10.25 7.5-18.75 17.38-19.62l113.2-10.5C257 235.9 256.1 245.9 256 256C256.1 266.1 257 276.1 258.6 286.1zM448 416c-88.38 0-160-71.63-160-160s71.63-160 160-160s160 71.62 160 160S536.4 416 448 416zM448 192c-35.38 0-64 28.62-64 64s28.62 64 64 64s64-28.62 64-64S483.4 192 448 192zM448 288c-17.62 0-32-14.38-32-32s14.38-32 32-32s32 14.38 32 32S465.6 288 448 288z"/></svg>