<svg xmlns="http://www.w3.org/2000/svg" viewBox="0 0 576 512"><!--! Font Awesome Pro 6.0.0-alpha3 by @fontawesome - https://fontawesome.com License - https://fontawesome.com/license (Commercial License) --><path d="M560 32C551.2 32 544 39.16 544 48v150.2l-117-21.95c-.3379-.0625-.6484 .0547-.9844 .0156C398.3 128.5 347.2 96 288 96c-59.19 0-110.3 32.51-137.1 80.3c-.3359 .041-.6484-.0781-.9863-.0156L32 198.2V48C32 39.16 24.84 32 16 32S0 39.16 0 47.1V464C0 472.8 7.164 480 16 480S32 472.8 32 464V313.8l117 21.95c.3535 .0664 .6953 .0566 1.047 .0996C177.8 383.5 228.9 416 288 416s110.2-32.46 137.9-80.18c.3516-.043 .6934-.0332 1.047-.0996L544 313.8V464c0 8.836 7.164 16 16 16s16-7.164 16-16v-416C576 39.16 568.8 32 560 32zM135.1 300.6L32 281.2V230.8l103.1-19.32C130.9 225.7 128 240.4 128 256S130.9 286.3 135.1 300.6zM288 384c-70.58 0-128-57.42-128-128c0-70.58 57.42-128 128-128s128 57.42 128 128C416 326.6 358.6 384 288 384zM544 281.2l-103.1 19.33C445.1 286.3 448 271.6 448 256s-2.922-30.32-7.07-44.55L544 230.8V281.2zM342.9 223.7l24.25-24.25c6.25-6.25 6.25-16.38 0-22.62s-16.38-6.25-22.62 0l-24.25 24.25C315.3 198.1 309.8 195.8 304 194.3V160c0-8.844-7.156-16-16-16S272 151.2 272 160v34.27C266.2 195.8 260.7 198.1 255.7 201.1L231.4 176.8c-6.25-6.25-16.38-6.25-22.62 0s-6.25 16.38 0 22.62l24.25 24.25C230.1 228.7 227.8 234.2 226.3 240H192C183.2 240 176 247.2 176 256S183.2 272 192 272h34.27c1.51 5.811 3.814 11.26 6.795 16.31L208.8 312.6c-6.25 6.25-6.25 16.38 0 22.62c3.125 3.125 7.219 4.688 11.31 4.688s8.188-1.562 11.31-4.688l24.25-24.25C260.7 313.9 266.2 316.2 272 317.7V352c0 8.844 7.156 16 16 16s16-7.156 16-16V317.7c5.811-1.51 11.26-3.814 16.31-6.795l24.25 24.25c3.125 3.125 7.219 4.688 11.31 4.688s8.188-1.562 11.31-4.688c6.25-6.25 6.25-16.38 0-22.62l-24.25-24.25C345.9 283.3 348.2 277.8 349.7 272H384c8.844 0 16-7.156 16-16S392.8 240 384 240h-34.27C348.2 234.2 345.9 228.7 342.9 223.7zM288 288C270.4 288 256 273.6 256 256s14.36-32 32-32s32 14.36 32 32S305.6 288 288 288z"/></svg>