<svg xmlns="http://www.w3.org/2000/svg" viewBox="0 0 512 512"><!--! Font Awesome Pro 6.0.0-alpha3 by @fontawesome - https://fontawesome.com License - https://fontawesome.com/license (Commercial License) --><path d="M256 16C123.5 16 16 123.5 16 256s107.5 240 240 240s240-107.5 240-240S388.5 16 256 16zM256 48c114.7 0 208 93.31 208 208h-97.56c-7.508-36.5-39.83-64-78.46-64H224C185.4 192 153.1 219.5 145.6 256H48C48 141.3 141.3 48 256 48zM256 342c-2.18 0-4.117-.75-5.691-2.25l-67.45-67.5C178.3 267.6 176.9 260.6 179.3 254.5C186.3 236.6 203.7 224 224 224h63.94c20.34 0 37.78 12.62 44.68 30.5c2.422 6.125 1.09 13.12-3.512 17.75l-67.45 67.5C260.1 341.3 258.2 342 256 342zM50.72 288h102.6l86.7 86.63v88.56C143.5 455.8 65.39 382.3 50.72 288zM271.1 463.2v-88.56L358.7 288h102.6C446.6 382.3 368.5 455.8 271.1 463.2z"/></svg>