<svg xmlns="http://www.w3.org/2000/svg" viewBox="0 0 320 512"><!--! Font Awesome Pro 6.0.0-alpha3 by @fontawesome - https://fontawesome.com License - https://fontawesome.com/license (Commercial License) --><path d="M320 464c0 8.844-7.156 16-16 16h-288c-5.531 0-10.69-2.875-13.62-7.594c-2.906-4.719-3.156-10.61-.6875-15.56C27.92 404.4 42.69 346.5 46.4 288H16C7.156 288 0 280.8 0 272S7.156 256 16 256h32V160.3C48 89.55 105.6 32 176.3 32c23.66 0 46.88 6.422 67.13 18.59l52.81 31.69c7.594 4.547 10.06 14.38 5.5 21.95c-4.562 7.625-14.41 10.02-21.94 5.484l-52.81-31.69C211.7 68.86 194.1 64 176.3 64C123.2 64 80 107.2 80 160.3V256h160C248.8 256 256 263.2 256 272S248.8 288 240 288H78.58c-3.246 54.97-15.61 109.5-37.49 160H304C312.8 448 320 455.2 320 464z"/></svg>