<svg xmlns="http://www.w3.org/2000/svg" viewBox="0 0 448 512"><!--! Font Awesome Pro 6.0.0-alpha3 by @fontawesome - https://fontawesome.com License - https://fontawesome.com/license (Commercial License) --><path d="M427.3 139.3c6.25-6.25 6.25-16.38 0-22.62s-16.38-6.25-22.62 0l-37.08 37.08C333.9 121.5 289.4 100.6 240 96.81V32l64.01-.0003C312.8 31.1 320 24.84 320 16S312.8 0 304 0h-160C135.2 0 128 7.164 128 16s7.173 16 16.01 16L208 32v64.81C100.6 105 16 194.5 16 304c0 114.9 93.13 208 208 208s208-93.13 208-208c0-47.58-16.15-91.29-43.04-126.3L427.3 139.3zM400 304c0 97.05-78.95 176-176 176s-176-78.95-176-176S126.1 128 224 128S400 206.1 400 304zM288 192c-26.47 0-48 21.53-48 48v128c0 26.47 21.53 48 48 48s48-21.53 48-48v-128C336 213.5 314.5 192 288 192zM304 368c0 8.812-7.172 16-16 16s-16-7.188-16-16v-128C272 231.2 279.2 224 288 224s16 7.188 16 16V368zM160 192C133.5 192 112 213.5 112 240C112 248.8 119.2 256 128 256s16-7.156 16-16C144 231.2 151.2 224 160 224s16 7.188 16 16v8.125c0 22.12-9.625 43.06-26.41 57.44C125.7 326 112 355.8 112 387.3V400C112 408.8 119.2 416 128 416h64c8.844 0 16-7.156 16-16S200.8 384 192 384H144.1c.8906-20.88 10.38-40.47 26.33-54.13C194.3 309.4 208 279.6 208 248.1V240C208 213.5 186.5 192 160 192z"/></svg>