<svg xmlns="http://www.w3.org/2000/svg" viewBox="0 0 448 512"><!--! Font Awesome Pro 6.0.0-alpha3 by @fontawesome - https://fontawesome.com License - https://fontawesome.com/license (Commercial License) --><path d="M224 176C215.2 176 208 183.2 208 192v144c0 8.844 7.156 16 16 16s16-7.156 16-16V192C240 183.2 232.8 176 224 176zM427.3 139.3c6.25-6.25 6.25-16.38 0-22.62s-16.38-6.25-22.62 0l-37.08 37.08C333.9 121.5 289.4 100.6 240 96.81V32l64.01 .0007C312.8 32 320 24.84 320 16S312.8 0 304 0h-160C135.2 0 128 7.164 128 16s7.168 16 16 16L208 32v64.81C100.6 105 16 194.5 16 304c0 114.9 93.13 208 208 208s208-93.13 208-208c0-47.58-16.15-91.29-43.04-126.3L427.3 139.3zM400 304c0 97.05-78.95 176-176 176s-176-78.95-176-176S126.1 128 224 128S400 206.1 400 304z"/></svg>