<svg xmlns="http://www.w3.org/2000/svg" viewBox="0 0 640 512"><!--! Font Awesome Pro 6.0.0-alpha3 by @fontawesome - https://fontawesome.com License - https://fontawesome.com/license (Commercial License) --><path d="M124.4 224c14.37 0 27.67-3.69 39.52-9.711L134.3 190.1C131.1 191.6 127.8 192 124.3 192c-2.664 0-5.328-.1816-7.82-.5078C97.36 188.9 88.31 175.3 84.63 167.4C81.77 161.3 80.59 154.8 80.34 148.3L51.17 125.3C39.35 168.5 64.1 216.8 112.2 223.2C116.2 223.7 120.3 224 124.4 224zM528.1 256C519.3 256 512 263.1 512 271.1v54.07l32.09 25.34V271.1C544.1 263.1 536.1 256 528.1 256zM496.4 32l56.21 88.91c8.822 13.95 9.857 31.32 2.77 46.48c-3.695 7.9-12.77 21.54-31.98 24.09C520.8 191.8 518.2 192 515.5 192c-15.94 0-30.68-6.566-41.51-18.49l-23.75-26.14l-23.68 26.2C415.8 185.5 401.1 192 385.1 192c-15.74 0-30.84-6.717-41.43-18.43L319.9 147.3L305.6 163.1l76.78 60.62c.9062 .0273 1.742 .29 2.654 .29c26.17 0 49.29-11.38 65.19-28.97c15.98 17.59 39.13 28.97 65.19 28.97c4.141 0 8.112-.2734 12.09-.793c55.48-7.359 81.78-72.49 52.11-119.4l-57.32-90.68c-5.105-8.15-14.21-13.13-23.93-13.13H141.6c-9.717 0-18.83 4.98-23.94 13.13L143.6 32H496.4zM496.1 480H144C135.2 480 128 472.8 128 464V384h250.8l-40.53-32H127.9V271.1C127.9 263.1 120.8 256 111.1 256S96 263.1 96 271.1l.0138 192C96.01 490.5 117.5 512 144 512h352c11.69 0 22.29-4.344 30.62-11.29l-27.12-21.41C498.4 479.6 497.3 480 496.1 480zM633.9 483.4L25.92 3.42c-6.938-5.453-17-4.25-22.48 2.641c-5.469 6.938-4.281 17 2.641 22.48l608 480C617 510.9 620.5 512 623.1 512c4.734 0 9.422-2.094 12.58-6.078C642 498.1 640.8 488.9 633.9 483.4z"/></svg>