<svg xmlns="http://www.w3.org/2000/svg" viewBox="0 0 576 512"><!--! Font Awesome Pro 6.0.0-alpha3 by @fontawesome - https://fontawesome.com License - https://fontawesome.com/license (Commercial License) --><path d="M496.1 256C487.3 256 480 263.1 480 271.1V352H95.91V271.1C95.91 263.1 88.76 256 79.95 256S64 263.1 64 271.1L64.01 464c0 26.51 21.49 48 47.1 48h352.1c26.51 0 47.1-21.49 47.1-48l.0355-192C512.1 263.1 504.1 256 496.1 256zM480.1 464c0 8.822-7.178 16-16 16H112C103.2 480 96 472.8 96 464V384h384.1V464zM547.6 103.8l-57.32-90.68c-5.105-8.15-14.21-13.13-23.93-13.13H109.6c-9.717 0-18.82 4.979-23.93 13.13L28.33 103.8c-29.59 46.83-3.41 111.9 51.9 119.4C84.21 223.7 88.3 224 92.36 224c26.14 0 49.29-11.38 65.19-28.97C173.4 212.6 196.7 224 222.7 224c26.14 0 49.29-11.38 65.19-28.97C303.8 212.6 327 224 353.1 224c26.17 0 49.29-11.38 65.19-28.97C434.2 212.6 457.4 224 483.4 224c4.141 0 8.113-.2734 12.09-.793C551 215.8 577.3 150.7 547.6 103.8zM523.4 167.4c-3.695 7.9-12.77 21.54-31.98 24.09C488.8 191.8 486.2 192 483.5 192c-15.94 0-30.68-6.566-41.51-18.49l-23.75-26.14l-23.68 26.2C383.8 185.5 369.1 192 353.1 192c-15.74 0-30.84-6.717-41.43-18.43L287.9 147.3L264.2 173.6C253.4 185.5 238.7 192 222.7 192C206.1 192 191.9 185.3 181.3 173.6L157.5 147.3L133.8 173.6C123.1 185.5 108.3 192 92.35 192c-2.664 0-5.328-.1816-7.82-.5078C65.36 188.9 56.31 175.3 52.63 167.4C45.54 152.2 46.57 134.8 55.36 120.9L111.6 32h352.8l56.21 88.91C529.4 134.9 530.5 152.2 523.4 167.4z"/></svg>