<svg xmlns="http://www.w3.org/2000/svg" viewBox="0 0 640 512"><!--! Font Awesome Pro 6.0.0-alpha3 by @fontawesome - https://fontawesome.com License - https://fontawesome.com/license (Commercial License) --><path d="M313.8 320.3C280.4 323.5 256 353.4 256 386.8V496C256 504.8 263.2 512 272 512S288 504.8 288 496v-110.3c0-15.88 10.88-30.75 26.62-33.25C334.6 349.1 352 364.6 352 384v112c0 8.799 7.199 16 16 16s16-7.201 16-16V384C384 346.6 351.9 316.6 313.8 320.3zM390.9 152C389.5 149.5 386.9 148 384 148h-36.49L326.1 112.1c-2.875-5-11.03-5-13.91 0L292.5 148H256c-2.859 0-5.484 1.516-6.922 3.984C247.7 154.5 247.6 157.5 249 159.1l18.17 32.03l-18.17 32.03c-1.406 2.469-1.391 5.516 .0313 7.982C250.5 234.5 253.1 236 256 236h36.49l20.55 35.97C314.5 274.5 317.1 276 320 276s5.516-1.531 6.953-4.031l20.55-35.97H384c2.859 0 5.484-1.516 6.922-3.984c1.422-2.467 1.438-5.514 .0313-7.982l-18.17-32.03l18.17-32.03C392.4 157.5 392.3 154.5 390.9 152zM320 132.1l9.072 15.87H310.9L320 132.1zM283.3 164L276.6 175.9L269.8 164H283.3zM269.8 220l6.785-11.87l6.785 11.87H269.8zM320 251.9L310.9 236h18.14L320 251.9zM338.2 220H301.8l-16-27.1l16-27.1h36.43l16 27.1L338.2 220zM356.6 220l6.785-11.87l6.785 11.87H356.6zM363.4 175.9l-6.783-11.87h13.57L363.4 175.9zM108 196.5C101.4 190.3 90.6 190.3 84 196.5L8 268.3C2.875 273.1 0 279.3 0 285.8v209.2c0 7.979 5.4 15.42 13.27 16.74C23.26 513.4 32 505.7 32 496V289.6l64-60.38l4.984 4.703C111.2 243.6 128 236.3 128 222.3C128 217.9 126.2 213.7 122.1 210.7L108 196.5zM632 268.3L556 196.5c-6.602-6.234-17.4-6.234-24 .002l-14.98 14.15C513.8 213.7 512 217.9 512 222.3c0 14.05 16.79 21.29 27.02 11.65L544 229.3l64 60.38v205.4c0 7.979 5.4 15.42 13.27 16.74C631.3 513.4 640 505.7 640 496V285.9C640 279.4 637.1 273.1 632 268.3zM340 7.031C334.1 2.406 327.1 0 320 0S305.9 2.406 300 7.031l-128 102.4C164.4 115.5 160 124.7 160 134.4V496C160 504.8 167.2 512 176 512S192 504.8 192 496V134.4L320 32l128 102.4V496c0 8.799 7.199 16 16 16s16-7.201 16-16V134.4c0-9.75-4.375-18.88-12-25L340 7.031z"/></svg>