<svg xmlns="http://www.w3.org/2000/svg" viewBox="0 0 512 512"><!--! Font Awesome Pro 6.0.0-alpha3 by @fontawesome - https://fontawesome.com License - https://fontawesome.com/license (Commercial License) --><path d="M416 320c-52.99 0-95.99 42.1-95.99 95.1c0 52.1 43 95.1 95.99 95.1C469 511.1 512 468.1 512 416C512 363 469 320 416 320zM416 480c-35.28 0-63.98-28.71-63.98-63.1s28.7-64 63.98-64S480 380.7 480 416S451.3 480 416 480zM99.63 140.9l49.65-49.63c36.5-36.47 83.34-57.5 131.9-59.19c53.53-2.031 104.6 18.06 142.7 56.09c51.09 51.13 69.03 125.8 46.78 194.9c-2.719 8.406 1.906 17.44 10.31 20.12c8.406 2.75 17.41-1.906 20.12-10.31c25.97-80.53 5.052-167.6-54.6-227.3c-44.44-44.41-102.9-67.85-166.4-65.47C223.4 2.094 168.9 26.47 126.7 68.69L50.5 144.8C32.37 162.9 22.41 187 22.41 212.7c0 25.66 9.967 49.75 28.09 67.88l54.95 54.96l-94.18 83.13c-6.75 5.875-10.92 14.75-11.23 23.75c-.3125 8.531 2.857 16.6 9.045 22.85l37.75 37.74C52.7 508.8 60.52 512 68.8 512h1.078c9.031-.3125 17.59-4.436 23.49-11.15l83.2-94.25l54.95 54.94c10.06 10.06 21.86 17.59 35.05 22.37c8.344 3 17.5-1.25 20.5-9.562c3.031-8.312-1.25-17.5-9.562-20.5c-8.75-3.188-16.62-8.219-23.34-14.94l-54.94-54.94c-6.344-6.312-14.5-10.66-23.16-9.375c-8.812 .2813-17.81 4.406-23.47 10.81l-83.16 94.91l-37-37.66l94.25-83.19C133.1 353.8 137.2 344.8 137.5 336c.25-8.594-3.094-16.81-9.406-23.12L73.16 257.9C61.06 245.8 54.41 229.8 54.41 212.7S61.06 179.5 73.16 167.4L77 163.6l199.7 199.8C279.8 366.4 283.9 368 288 368s8.188-1.562 11.31-4.688c6.25-6.25 6.25-16.38 0-22.62L99.63 140.9z"/></svg>