<svg xmlns="http://www.w3.org/2000/svg" viewBox="0 0 512 512"><!--! Font Awesome Pro 6.0.0-alpha3 by @fontawesome - https://fontawesome.com License - https://fontawesome.com/license (Commercial License) --><path d="M448 32H64C28.65 32 0 60.65 0 96v320c0 35.35 28.65 64 64 64h384c35.35 0 64-28.65 64-64V96C512 60.65 483.3 32 448 32zM192 64h128v106.6H192V64zM192 202.6h128v106.8H192V202.6zM160 448H64c-17.67 0-32-14.33-32-32v-74.63h128V448zM160 309.4H32V202.6h128V309.4zM160 170.6H32V96c0-17.67 14.33-32 32-32h96V170.6zM192 448v-106.6h128V448H192zM480 416c0 17.67-14.33 32-32 32h-96v-106.6h128V416zM480 309.4h-128V202.6h128V309.4zM480 170.6h-128V64h96c17.67 0 32 14.33 32 32V170.6z"/></svg>