<svg xmlns="http://www.w3.org/2000/svg" viewBox="0 0 512 512"><!--! Font Awesome Pro 6.0.0-alpha3 by @fontawesome - https://fontawesome.com License - https://fontawesome.com/license (Commercial License) --><path d="M448 32H64C28.64 32 0 60.64 0 96v320c0 35.36 28.64 64 64 64h384c35.36 0 64-28.64 64-64V96C512 60.64 483.4 32 448 32zM480 416c0 17.62-14.38 32-32 32H64c-17.62 0-32-14.38-32-32V192h64v152C96 366.1 113.9 384 136 384H240c8.844 0 16-7.156 16-16S248.8 352 240 352H136C131.6 352 128 348.4 128 344V286.4C130.7 286.9 133.2 288 136 288H176C184.8 288 192 280.8 192 272S184.8 256 176 256H136C131.6 256 128 252.4 128 248V192h352V416zM480 160H32V96c0-17.62 14.38-32 32-32h384c17.62 0 32 14.38 32 32V160zM240 288h160C408.8 288 416 280.8 416 272S408.8 256 400 256h-160C231.2 256 224 263.2 224 272S231.2 288 240 288zM400 352h-96c-8.844 0-16 7.156-16 16s7.156 16 16 16h96c8.844 0 16-7.156 16-16S408.8 352 400 352z"/></svg>