<svg xmlns="http://www.w3.org/2000/svg" viewBox="0 0 512 512"><!--! Font Awesome Pro 6.0.0-alpha3 by @fontawesome - https://fontawesome.com License - https://fontawesome.com/license (Commercial License) --><path d="M448 32H64.05C28.7 32 .0492 60.65 .0492 96v320c0 35.35 28.65 64 64 64h383.1c35.35 0 64-28.65 64-64V96C512 60.65 483.4 32 448 32zM32 192h208v112H32V192zM64 448c-17.64 0-32-14.36-32-32v-80h208V448H64zM480 416c0 17.64-14.36 32-32 32h-176v-112H480V416zM480 304h-208V192H480V304zM480 160H32V96c0-17.64 14.36-32 32-32h384c17.64 0 32 14.36 32 32V160z"/></svg>