<svg xmlns="http://www.w3.org/2000/svg" viewBox="0 0 512 512"><!--! Font Awesome Pro 6.0.0-alpha3 by @fontawesome - https://fontawesome.com License - https://fontawesome.com/license (Commercial License) --><path d="M448.1 32h-384c-35.35 0-64 28.65-64 64v320c0 35.35 28.65 64 64 64h384c35.35 0 64-28.65 64-64V96C512.1 60.65 483.4 32 448.1 32zM240 448H64c-17.64 0-32-14.36-32-32V192h208V448zM480 416c0 17.64-14.36 32-32 32h-176V192H480V416zM480 160H32V96c0-17.64 14.36-32 32-32h384c17.64 0 32 14.36 32 32V160z"/></svg>