<svg xmlns="http://www.w3.org/2000/svg" viewBox="0 0 512 512"><!--! Font Awesome Pro 6.0.0-alpha3 by @fontawesome - https://fontawesome.com License - https://fontawesome.com/license (Commercial License) --><path d="M448 32H64C28.64 32 0 60.64 0 96v320c0 35.36 28.64 64 64 64h384c35.36 0 64-28.64 64-64V96C512 60.64 483.4 32 448 32zM128 448H64c-17.62 0-32-14.38-32-32V192h96V448zM128 160H32V96c0-17.62 14.38-32 32-32h64V160zM480 416c0 17.62-14.38 32-32 32H160V192h320V416zM480 160H160V64h288c17.62 0 32 14.38 32 32V160zM306.4 413.6C311.4 418.7 320 415.1 320 407.1V384h56c22.06 0 40-17.94 40-40V288h24.01c7.812 0 10.33-9.017 5.641-13.64l-39.1-40.01c-3.125-3.127-8.163-3.127-11.29 0L354.4 274.4C349.3 279.4 352.9 288 360 288H384v56c0 4.406-3.594 8-8 8H320v-24.01c0-7.814-9.017-10.32-13.64-5.636l-40 40c-3.125 3.125-3.125 8.156 0 11.28L306.4 413.6z"/></svg>