<svg xmlns="http://www.w3.org/2000/svg" viewBox="0 0 448 512"><!--! Font Awesome Pro 6.0.0-alpha3 by @fontawesome - https://fontawesome.com License - https://fontawesome.com/license (Commercial License) --><path d="M431.6 225.6l-177.2-177.2c-9.021-9.021-26.84-16.4-39.6-16.4H28c-15.46 0-28 12.54-28 28v186.8c0 12.76 7.381 30.58 16.4 39.6l177.2 177.2C204.5 474.5 218.9 480 233.2 480c14.33 0 28.66-5.469 39.6-16.4l158.8-158.8C453.5 282.9 453.5 247.5 431.6 225.6zM408.1 282.2l-158.8 158.8C245.6 445.5 239.6 448 233.2 448c-6.412 0-12.44-2.496-16.97-7.029L39.03 263.8C36.01 260.8 32 251.1 32 246.8V64h182.8c4.273 0 13.95 4.006 16.97 7.029l177.2 177.2C413.5 252.8 416 258.8 416 265.2C416 271.6 413.5 277.6 408.1 282.2zM111.1 120c-13.25 0-24 10.74-24 24s10.75 24 24 24s24-10.74 24-24S125.2 120 111.1 120z"/></svg>