<svg xmlns="http://www.w3.org/2000/svg" viewBox="0 0 576 512"><!--! Font Awesome Pro 6.0.0-alpha3 by @fontawesome - https://fontawesome.com License - https://fontawesome.com/license (Commercial License) --><path d="M508.8 180.4l-159.7-159.7c-6.25-6.25-16.38-6.25-22.62 0s-6.25 16.38 0 22.62l159.7 159.7C502.8 219.6 512 241.7 512 265.2s-9.156 45.61-25.8 62.23l-109.3 109.3c-6.25 6.25-6.25 16.38 0 22.62C380.1 462.4 384.2 464 388.3 464s8.188-1.562 11.31-4.688l109.3-109.3C531.5 327.4 544 297.3 544 265.2S531.5 203 508.8 180.4zM143.1 120c-13.25 0-24 10.74-24 24c0 13.26 10.75 24 24 24s24-10.74 24-24C167.1 130.7 157.2 120 143.1 120zM463.6 225.6L286.4 48.4C277.4 39.38 259.6 32 246.8 32H60C44.54 32 32 44.54 32 60v186.8c0 12.76 7.381 30.58 16.4 39.6l177.2 177.2C236.5 474.5 250.9 480 265.2 480c14.33 0 28.66-5.467 39.6-16.4l158.8-158.8C485.5 282.9 485.5 247.5 463.6 225.6zM440.1 282.2l-158.8 158.8C277.6 445.5 271.6 448 265.2 448c-6.41 0-12.44-2.498-16.97-7.029L71.03 263.8C68.01 260.8 64 251.1 64 246.8V64h182.8C251.1 64 260.8 68.01 263.8 71.03l177.2 177.2C445.5 252.8 448 258.8 448 265.2S445.5 277.6 440.1 282.2z"/></svg>