<svg xmlns="http://www.w3.org/2000/svg" viewBox="0 0 640 512"><!--! Font Awesome Pro 6.0.0-alpha3 by @fontawesome - https://fontawesome.com License - https://fontawesome.com/license (Commercial License) --><path d="M628.8 175.3L528 207.1V464c0 8.844-7.163 16-16.01 16S496 472.8 496 464V217.2l-96 30.31V464c0 8.844-7.159 16-16 16S368 472.8 368 464V257.6l-96 30.32V464c0 8.844-7.154 16-15.1 16S240 472.8 240 464V298l-96 30.32V464c0 8.844-7.15 16-15.99 16S112 472.8 112 464v-125.5l-91.19 28.8C19.22 367.8 17.59 368 16 368c-6.812 0-13.09-4.359-15.25-11.19c-2.656-8.422 2-17.41 10.44-20.06L112 304.9V48C112 39.16 119.2 32 128 32S144 39.16 144 48v246.8l96-30.31V48C240 39.16 247.2 32 256 32S272 39.16 272 48v206.4l96-30.32V48c0-8.844 7.154-16 15.1-16S400 39.16 400 48v165.1l96-30.32V48c0-8.844 7.15-16 15.99-16S528 39.16 528 48v125.5l91.19-28.8c8.438-2.672 17.41 2.016 20.06 10.44S637.3 172.6 628.8 175.3z"/></svg>