<svg xmlns="http://www.w3.org/2000/svg" viewBox="0 0 448 512"><!--! Font Awesome Pro 6.0.0-alpha3 by @fontawesome - https://fontawesome.com License - https://fontawesome.com/license (Commercial License) --><path d="M32 32C23.16 32 16 39.16 16 48v416c0 8.844 7.156 16 15.1 16S48 472.8 48 464v-416C48 39.16 40.84 32 32 32zM160 32C151.2 32 144 39.16 144 48v416c0 8.844 7.156 16 15.1 16C168.8 480 176 472.8 176 464v-416C176 39.16 168.8 32 160 32zM288 32c-8.844 0-16 7.156-16 15.1v416c0 8.844 7.156 16 16 16S304 472.8 304 464v-416C304 39.16 296.8 32 288 32z"/></svg>