<svg xmlns="http://www.w3.org/2000/svg" viewBox="0 0 640 512"><!--! Font Awesome Pro 6.0.0-alpha3 by @fontawesome - https://fontawesome.com License - https://fontawesome.com/license (Commercial License) --><path d="M595.4 294.5L579.5 225.6C572.9 196.5 547 175.9 517.1 176H512V160c0-17.64-14.34-32-32-32h-96c-17.66 0-32 14.36-32 32v16h-7.875C314.3 175.9 288.3 196.5 281.8 225.6l-16.38 70.5C241 308.5 224 333.5 224 362.6v55.13c.125 20 13 37.63 32 43.75V496C256 504.9 263.1 512 272 512S288 504.9 288 496v-32h288v32c0 8.875 7.125 16 16 16s16-7.125 16-16v-34.5c19-6.125 31.88-23.75 32-43.75v-55.13C640 333.1 622.5 306.4 595.4 294.5zM384 160h96v16h-96V160zM312.9 232.8C316.3 218.3 329.1 208 344.1 208h173C532 208 545 218.3 548.4 232.8L561.1 288h-261L312.9 232.8zM608 417.8C608 425.6 601.6 432 593.8 432H270.3C262.4 432 256 425.6 256 417.8v-55.13C256 339.1 275.1 320 298.6 320h266.8C588.9 320 608 339.1 608 362.6V417.8zM320 352c-13.2 0-24 10.8-24 24c0 13.2 10.8 24 24 24s24-10.8 24-24C344 362.8 333.2 352 320 352zM544 352c-13.2 0-24 10.8-24 24c0 13.2 10.8 24 24 24s24-10.8 24-24C568 362.8 557.2 352 544 352zM176 352H61.72C45.34 352 32 338.7 32 322.3V240h208C248.8 240 256 232.8 256 224S248.8 208 240 208H192v-96h128C320 120.8 327.2 128 336 128S352 120.8 352 112V84.58C352 39.52 269.8 0 176 0S0 39.52 0 84.58v237.7C0 356.3 27.69 384 61.72 384L64 384.1V432C64 440.8 71.16 448 80 448S96 440.8 96 432V384h80C184.8 384 192 376.8 192 368S184.8 352 176 352zM176 32c82.13 0 134.1 30.52 142.3 48H33.68C41.86 62.52 93.87 32 176 32zM32 112h128v96H32V112zM64 296C64 309.2 74.8 320 88 320S112 309.2 112 296c0-13.2-10.8-24-24-24S64 282.8 64 296z"/></svg>