<svg xmlns="http://www.w3.org/2000/svg" viewBox="0 0 512 512"><!--! Font Awesome Pro 6.0.0-alpha3 by @fontawesome - https://fontawesome.com License - https://fontawesome.com/license (Commercial License) --><path d="M461.1 235.8L428.6 122c-9.738-34.12-41.16-57.95-76.64-57.1l-.0781-15.81C351.1 21.48 330.4 0 303.9 0H208c-12.83 0-24.89 5-33.97 14.09C165 23.17 160 35.27 160 48.11c.0117 6.096-.0566 11.23 0 15.89C124.6 64.08 93.13 87.9 83.4 122L50.9 235.8C20.77 251.1 .041 283.4 .041 320v176c0 8.836 7.162 16 15.1 16c8.834 0 15.1-7.164 15.1-16V448h447.9v48c0 8.836 7.162 16 15.1 16c8.836 0 15.1-7.164 15.1-16V320C511.1 283.4 491.2 251.1 461.1 235.8zM208 32h95.84c8.831 0 16.03 7.169 16 16.06L319.8 64H192.1L192 48.05C192 39.19 199.2 32 208 32zM114.1 130.8C120 110.3 138.1 96 160.3 96h191.4c21.31 0 40.28 14.31 46.15 34.81l26.88 94.07C421.8 224.6 418.1 224 415.1 224H96.03c-3 0-5.828 .6133-8.758 .8828L114.1 130.8zM479.1 384c0 17.64-14.35 32-31.1 32H64.03c-17.64 0-31.1-14.36-31.1-32v-64c0-35.29 28.69-64 63.98-64h319.1c35.29 0 63.98 28.71 63.98 64V384zM407.1 304c-13.25 0-23.1 10.75-23.1 24S394.7 352 407.1 352s23.1-10.75 23.1-24S421.2 304 407.1 304zM104 304c-13.25 0-23.1 10.75-23.1 24S90.76 352 104 352s23.1-10.75 23.1-24S117.3 304 104 304z"/></svg>