<svg xmlns="http://www.w3.org/2000/svg" viewBox="0 0 512 512"><!--! Font Awesome Pro 6.0.0-alpha3 by @fontawesome - https://fontawesome.com License - https://fontawesome.com/license (Commercial License) --><path d="M255.1-.0078c-141.4 0-256 114.6-256 256s114.6 256 256 256s256-114.6 256-256S397.4-.0078 255.1-.0078zM214.8 35.96c1.348 56.83-23.86 113.2-73.82 148.2c-31.95 22.33-68.7 31.39-104.9 30.36C52.99 124.2 124.3 52.88 214.8 35.96zM31.99 255.1c0-2.875 .3242-5.668 .4316-8.516c2.623 .1055 5.229 .4609 7.857 .4609c41.19 0 82.81-12.19 119-37.56c59.84-41.92 90.4-109.9 88.03-177.9c2.893-.1094 5.729-.4375 8.648-.4375c123.5 0 224 100.5 224 224c0 3.109-.3398 6.137-.4668 9.219c-43.75-1.691-88.29 9.406-126.8 36.41c-59.83 41.92-90.4 109.9-88.03 177.9c-2.898 .1094-5.74 .4375-8.664 .4375C132.5 479.1 31.99 379.5 31.99 255.1zM297.2 476c-1.338-56.82 23.87-113.2 73.82-148.2c30.66-21.44 65.84-31.75 100.7-31.75c1.477 0 2.938 .2187 4.412 .2578C459.5 387.2 388 459 297.2 476z"/></svg>