<svg xmlns="http://www.w3.org/2000/svg" viewBox="0 0 640 512"><!--! Font Awesome Pro 6.0.0-alpha3 by @fontawesome - https://fontawesome.com License - https://fontawesome.com/license (Commercial License) --><path d="M464 336c-8.836 0-16 7.162-16 16c0 8.836 7.164 16 16 16S480 360.8 480 352C480 343.2 472.8 336 464 336zM376.1 234.9c-13.72-15.68-33.52-24.64-54.31-24.64H288L245.8 140.9C241.4 133.2 232.5 128 223.6 128H193.8C185.9 128 178.2 131.8 173.4 138.2C168.6 144.6 167.1 152.8 169.4 160.9l15.09 49.43H167.6L145.5 188.2C142.1 184.8 137.4 182.9 132.6 182.9H114.3C104.2 182.9 96 191 96 201.1v109.7c0 10.11 8.18 18.29 18.29 18.29h18.29c4.857 0 9.502-1.93 12.93-5.357l22.07-22.07h16.87l-15.16 49.64c-2.215 7.678-.6621 16.07 4.143 22.46C178.2 380.2 185.9 384 193.8 384H223.6c9.162 0 17.66-4.93 21.95-12.46L287.1 301.7h33.82c20.79 0 40.58-8.963 54.33-24.64C386.6 265 386.6 246.1 376.1 234.9C376.1 234.9 376.2 234.9 376.1 234.9zM321.8 269.7H269.1L220 352H202.5l25.13-82.29H154.3L128 296V215.1l26.33 26.33h73.36L202.6 160h17.43L270 242.3h51.82c11.57 0 22.56 4.1 30.18 13.71C344.3 264.7 333.4 269.7 321.8 269.7zM464 144C455.2 144 448 151.2 448 160c0 8.836 7.164 16 16 16S480 168.8 480 160C480 151.2 472.8 144 464 144zM464 272C455.2 272 448 279.2 448 288c0 8.836 7.164 16 16 16S480 296.8 480 288C480 279.2 472.8 272 464 272zM624 208C632.8 208 640 200.8 640 192V128c0-35.28-28.72-64-64-64H64C28.72 64 0 92.72 0 128v256c0 35.28 28.72 64 64 64h512c35.28 0 64-28.72 64-64v-64c0-8.844-7.156-16-16-16C597.5 304 576 282.5 576 256S597.5 208 624 208zM608 334.4V384c0 17.66-14.34 32-32 32H64c-17.66 0-32-14.34-32-32V128c0-17.66 14.34-32 32-32h512c17.66 0 32 14.34 32 32v49.59C571.5 185 544 217.4 544 256S571.5 326.1 608 334.4zM464 208C455.2 208 448 215.2 448 224c0 8.836 7.164 16 16 16S480 232.8 480 224C480 215.2 472.8 208 464 208z"/></svg>