<svg xmlns="http://www.w3.org/2000/svg" viewBox="0 0 576 512"><!--! Font Awesome Pro 6.0.0-alpha3 by @fontawesome - https://fontawesome.com License - https://fontawesome.com/license (Commercial License) --><path d="M576 208V128c0-35.35-28.65-64-64-64H64C28.65 64 0 92.65 0 128v80c26.51 0 48 21.49 48 48S26.51 304 0 304V384c0 35.35 28.65 64 64 64h448c35.35 0 64-28.65 64-64V304c-26.51 0-48-21.49-48-48S549.5 208 576 208zM544 329.3V384c0 17.64-14.36 32-32 32H64c-17.64 0-32-14.36-32-32v-54.68C60.23 316.1 80 288.7 80 256S60.23 195 32 182.7V128c0-17.64 14.36-32 32-32h448c17.64 0 32 14.36 32 32v54.68C515.8 195 496 223.3 496 256S515.8 316.1 544 329.3z"/></svg>