<svg xmlns="http://www.w3.org/2000/svg" viewBox="0 0 640 512"><!--! Font Awesome Pro 6.0.0-alpha3 by @fontawesome - https://fontawesome.com License - https://fontawesome.com/license (Commercial License) --><path d="M512 224c-8.836 0-16 7.162-16 16C496 248.8 503.2 256 512 256s16-7.164 16-16C528 231.2 520.8 224 512 224zM512 288c-8.836 0-16 7.162-16 16c0 8.836 7.164 16 16 16s16-7.164 16-16C528 295.2 520.8 288 512 288zM512 160c-8.836 0-16 7.162-16 16C496 184.8 503.2 192 512 192s16-7.164 16-16C528 167.2 520.8 160 512 160zM512 96c-8.836 0-16 7.162-16 16C496 120.8 503.2 128 512 128s16-7.164 16-16C528 103.2 520.8 96 512 96zM624 165.8c8.844 0 16-7.281 16-16.12V96c0-35.28-28.7-64-64-64H160C124.7 32 96 60.72 96 96v224c0 35.28 28.7 64 64 64h416c35.3 0 64-28.72 64-64V266.3c0-8.844-7.156-16.12-16-16.12c-23.27 0-42.31-18.94-42.31-42.19S600.7 165.8 624 165.8zM608 280.4V320c0 17.66-14.36 32-32 32H160c-17.64 0-32-14.34-32-32V96c0-17.66 14.36-32 32-32h416c17.64 0 32 14.34 32 32v39.56C574.8 142.9 549.8 172.6 549.8 208S574.8 273.1 608 280.4zM528 448H96c-35.36 0-64-28.62-64-64V112C32 103.2 24.83 96 16 96S0 103.2 0 112V384c0 53.03 42.97 96 96 96h432c8.828 0 16-7.156 16-16S536.8 448 528 448zM441.1 189.6C429.1 175.8 411.8 168 393.6 168h-32.85l-36.9-60.72C319.1 100.5 312.2 96 304.4 96H278.4C271.4 96 264.7 99.34 260.5 104.9C256.2 110.6 254.9 117.7 256.9 124.8L270.1 168H254.6L235.3 148.7C232.3 145.7 228.3 144 224 144H208C199.2 144 192 151.2 192 160v96c0 8.844 7.158 16 16 16h16c4.25 0 8.312-1.688 11.31-4.688L254.6 248h15.5L256.9 291.4C254.9 298.2 256.3 305.5 260.5 311.1C264.7 316.7 271.4 320 278.4 320h26.02c8.018 0 15.46-4.312 19.21-10.91L360.7 248h32.85c18.19 0 35.51-7.844 47.54-21.56C450.3 215.9 450.3 200.1 441.1 189.6C441.1 189.6 441.1 189.6 441.1 189.6zM393.6 216h-50.85L298.1 288H291.4l21.99-72H241.4L224 233.4V182.6L241.4 200h71.99L291.4 128h7.6l43.75 72h50.85c7.758 0 15.2 2.9 20.86 7.992C408.7 213.1 401.3 216 393.6 216z"/></svg>