<svg xmlns="http://www.w3.org/2000/svg" viewBox="0 0 640 512"><!--! Font Awesome Pro 6.0.0-alpha3 by @fontawesome - https://fontawesome.com License - https://fontawesome.com/license (Commercial License) --><path d="M633.6 243.2l-96-72c-7.031-5.281-17.06-3.891-22.41 3.203c-5.281 7.062-3.844 17.09 3.219 22.39L576 240H368V125.7C395.6 118.6 416 93.79 416 64c0-35.34-28.65-64-64-64C316.7 0 288 28.66 288 64c0 29.79 20.44 54.6 48 61.74V240h-192V125.7C171.6 118.6 192 93.79 192 64c0-35.34-28.65-64-64-64C92.65 0 64 28.66 64 64c0 29.79 20.44 54.6 48 61.74V240h-96C7.156 240 0 247.2 0 256s7.156 16 16 16h192v114.3C180.4 393.4 160 418.2 160 448c0 35.34 28.65 64 64 64c35.35 0 64-28.66 64-64c0-29.79-20.45-54.6-48-61.74V272h336l-57.6 43.2c-7.062 5.297-8.5 15.33-3.219 22.39C518.3 341.8 523.2 344 528 344c3.344 0 6.719-1.047 9.594-3.203l96-72C637.6 265.8 640 261 640 256S637.6 246.2 633.6 243.2zM320 64c0-17.64 14.36-32 32-32s32 14.36 32 32s-14.36 32-32 32S320 81.64 320 64zM96 64c0-17.64 14.36-32 32-32s32 14.36 32 32S145.6 96 128 96S96 81.64 96 64zM256 448c0 17.64-14.36 32-32 32s-32-14.36-32-32s14.36-32 32-32S256 430.4 256 448z"/></svg>