<svg xmlns="http://www.w3.org/2000/svg" viewBox="0 0 512 512"><!--! Font Awesome Pro 6.0.0-alpha3 by @fontawesome - https://fontawesome.com License - https://fontawesome.com/license (Commercial License) --><path d="M256 16C247.2 16 240 23.16 240 32v80C240 120.8 247.2 128 256 128s16-7.156 16-16V48.59C379.3 56.81 464 146.7 464 256c0 114.7-93.31 208-208 208S48 370.7 48 256c0-48.84 17.28-96.34 48.66-133.7c5.688-6.75 4.812-16.84-1.969-22.53S77.84 94.94 72.16 101.7C35.94 144.8 16 199.6 16 256c0 132.3 107.7 240 239.1 240S496 388.3 496 256S388.3 16 256 16zM244.7 267.3C247.8 270.4 251.9 272 256 272s8.188-1.562 11.31-4.688c6.25-6.25 6.25-16.38 0-22.62l-80-80c-6.25-6.25-16.38-6.25-22.62 0s-6.25 16.38 0 22.62L244.7 267.3z"/></svg>