<svg xmlns="http://www.w3.org/2000/svg" viewBox="0 0 640 512"><!--! Font Awesome Pro 6.0.0-alpha3 by @fontawesome - https://fontawesome.com License - https://fontawesome.com/license (Commercial License) --><path d="M624 240h-96V125.7C555.6 118.6 576 93.79 576 64c0-35.34-28.65-64-64-64c-35.35 0-64 28.66-64 64c0 29.79 20.44 54.6 48 61.74V240h-352V125.7C171.6 118.6 192 93.79 192 64c0-35.34-28.65-64-64-64C92.65 0 64 28.66 64 64c0 29.79 20.44 54.6 48 61.74V240h-96C7.156 240 0 247.2 0 256s7.156 16 16 16h288v114.3C276.4 393.4 256 418.2 256 448c0 35.34 28.65 64 64 64c35.35 0 64-28.66 64-64c0-29.79-20.45-54.6-48-61.74V272h288C632.8 272 640 264.8 640 256S632.8 240 624 240zM480 64c0-17.64 14.36-32 32-32s32 14.36 32 32s-14.36 32-32 32S480 81.64 480 64zM96 64c0-17.64 14.36-32 32-32s32 14.36 32 32S145.6 96 128 96S96 81.64 96 64zM352 448c0 17.64-14.36 32-32 32s-32-14.36-32-32s14.36-32 32-32S352 430.4 352 448z"/></svg>