<svg xmlns="http://www.w3.org/2000/svg" viewBox="0 0 512 512"><!--! Font Awesome Pro 6.0.0-alpha3 by @fontawesome - https://fontawesome.com License - https://fontawesome.com/license (Commercial License) --><path d="M256 344c13.26 0 24-10.75 24-24S269.3 296 256 296c-13.25 0-24 10.75-24 24S242.7 344 256 344zM256 256c8.844 0 16-7.156 16-16v-128c0-8.844-7.188-16-16.03-16S240 103.2 240 112v128C240 248.8 247.2 256 256 256zM496 271.1c0-47.69-11.24-85.88-37.94-145.8C443.5 92.53 432 66.69 432 16C432 7.156 424.8 0 416 0s-16 7.156-16 16c0 57.48 13.34 87.5 28.81 122.3C453.2 193.1 464 227.8 464 271.1c0 60.98-24.19 119.3-66.59 160.9H114.6C72.19 390.4 48 332.1 48 271.1c0-43.11 10.65-77.7 35.19-132.8C98.66 103.5 112 73.48 112 16C112 7.156 104.8 0 96 0S80 7.156 80 16c0 50.69-11.5 76.53-26.06 109.3C27.33 185 16 223.3 16 271.1c0 71.79 29.49 140.3 80.94 188.3C96.48 460.8 96 462.3 96 464v32C96 504.8 103.2 512 112 512S128 504.8 128 496v-32h64v32C192 504.8 199.2 512 208 512S224 504.8 224 496v-32h64v32c0 8.836 7.164 16 16 16s16-7.164 16-16v-32h64v32c0 8.836 7.164 16 16 16s16-7.164 16-16v-32c0-1.65-.4766-3.152-.9395-4.65C466.5 411.4 496 342.9 496 271.1z"/></svg>