<svg xmlns="http://www.w3.org/2000/svg" viewBox="0 0 512 512"><!--! Font Awesome Pro 6.0.0-alpha3 by @fontawesome - https://fontawesome.com License - https://fontawesome.com/license (Commercial License) --><path d="M475.5 417.5C498.2 379.5 512 335.6 512 288c0-141.4-114.6-256-256-256S0 146.6 0 288c0 47.56 13.77 91.5 36.49 129.5C15.57 422.7 0 441.5 0 464C0 490.5 21.49 512 48 512h416c26.51 0 48-21.49 48-48C512 441.5 496.4 422.7 475.5 417.5zM464 480h-416C39.18 480 32 472.8 32 464S39.18 448 48 448H96c8.836 0 16-7.164 16-16C112 423.2 104.8 416 96 416H72.76C47.16 379.7 32 335.7 32 288c0-123.5 100.5-224 224-224s224 100.5 224 224c0 47.69-15.16 91.74-40.76 128H416c-8.836 0-16 7.162-16 16c0 8.836 7.164 16 16 16h48c8.822 0 16 7.178 16 16S472.8 480 464 480zM256 128C167.6 128 96 199.6 96 288s71.63 160 160 160s160-71.63 160-160S344.4 128 256 128zM256 160c22.38 0 42.99 6.245 61.36 16.37l-37.61 51.76C272.4 225.1 264.4 223.4 256 223.4S239.6 225.1 232.3 228.1l-37.61-51.76C213 166.2 233.6 160 256 160zM128 288c0-36.75 15.75-69.64 40.63-93.01L206.5 247C197.3 258.3 191.4 272.4 191.4 288c0 1.375 .375 2.625 .5 4L130.4 311.1C129 304.2 128 296.3 128 288zM240 414.4c-43.25-5.375-80.72-32.66-99.47-72.04l61.09-19.84C210.3 336.1 223.9 346.3 240 350.4V414.4zM224 288c0-17.75 14.38-32 32-32s32 14.25 32 32c0 17.62-14.38 32-32 32S224 305.6 224 288zM272 414.4v-64.01c16.12-4.125 29.75-14.25 38.38-27.88l61.09 19.84C352.7 381.7 315.3 409 272 414.4zM320.1 292c.125-1.375 .5-2.625 .5-4c0-15.62-5.875-29.75-15.12-41l37.87-52.01C368.2 218.4 384 251.3 384 288c0 8.25-1.033 16.23-2.408 23.98L320.1 292z"/></svg>