<svg xmlns="http://www.w3.org/2000/svg" viewBox="0 0 512 512"><!--! Font Awesome Pro 6.0.0-alpha3 by @fontawesome - https://fontawesome.com License - https://fontawesome.com/license (Commercial License) --><path d="M468.8 180.1c-2.578-7.25-5.453-14.25-8.609-20.95c15.91-18.05 15.23-45.67-2-62.91l-42.44-42.44c-17.27-17.25-44.95-17.92-62.91-2c-6.703-3.156-13.7-6.031-20.95-8.609C330.5 19.12 310.4 0 285.1 0h-60C201.6 0 181.5 19.12 180.1 43.17c-7.25 2.578-14.25 5.453-20.95 8.609c-18.06-15.89-45.69-15.23-62.91 2L53.78 96.22c-17.27 17.27-17.91 44.97-2 62.91c-3.156 6.703-6.031 13.7-8.609 20.95C19.13 181.5 0 201.6 0 226v60c0 24.42 19.12 44.45 43.17 45.92c2.562 7.219 5.438 14.23 8.594 20.98c-15.89 18.03-15.22 45.64 2.016 62.88l42.44 42.44c17.3 17.31 44.98 17.94 62.91 2c6.703 3.156 13.7 6.031 20.95 8.609C181.5 492.9 201.6 512 225.1 512h60c24.42 0 44.45-19.12 45.92-43.17c7.25-2.578 14.25-5.453 20.95-8.609c18.05 15.91 45.67 15.25 62.91-2l42.44-42.44c17.23-17.23 17.91-44.84 2.016-62.88c3.156-6.75 6.031-13.77 8.594-20.98C492.9 330.5 512 310.4 512 286v-60C512 201.6 492.9 181.5 468.8 180.1zM480 286c0 7.719-6.281 14-14 14h-20.66c-9.359 30.93-11.44 34.94-24.25 58.89l14.5 14.48c5.453 5.453 5.453 14.33 0 19.78l-42.44 42.44c-5.469 5.469-14.34 5.453-19.89-.1094l-14.66-14.36c-23.76 12.85-27.85 14.91-58.61 24.22V466c0 7.719-6.281 14-14 14h-60C218.3 480 212 473.7 212 466v-20.66c-31.11-9.414-35.12-11.52-58.61-24.22l-14.77 14.47c-5.469 5.438-14.31 5.438-19.78 0l-42.44-42.44c-5.453-5.453-5.453-14.33 0-19.78l14.5-14.48C77.98 334.7 75.94 330.7 66.66 300h-20.66C38.28 300 32 293.7 32 286v-60C32 218.3 38.28 212 45.1 212h20.66c9.412-31.11 11.52-35.12 24.22-58.61L76.41 138.6c-5.453-5.453-5.453-14.33 0-19.78l42.44-42.44c5.484-5.469 14.34-5.453 19.89 .1094L153.4 90.88C177.2 78.03 181.2 75.96 212 66.66V46C212 38.28 218.3 32 225.1 32h60C293.7 32 300 38.28 300 46v20.66c31.11 9.412 35.12 11.52 58.61 24.22l14.77-14.47c5.469-5.438 14.31-5.438 19.78 0l42.44 42.44c5.453 5.453 5.453 14.33-.1094 19.89L421.1 153.4c12.85 23.76 14.91 27.85 24.22 58.61h20.66C473.7 212 480 218.3 480 226V286zM256 96C167.8 96 96 167.8 96 256s71.78 160 160 160s160-71.78 160-160S344.2 96 256 96zM256 384c-70.75 0-128-57.38-128-128c0-70.75 57.25-128 128-128s128 57.25 128 128C384 326.6 326.8 384 256 384zM256 160C242.7 160 232 170.7 232 184C232 197.3 242.7 208 256 208s24-10.75 24-24C280 170.7 269.3 160 256 160zM210.3 241.2C214.4 228.6 207.5 215 194.9 210.9C182.3 206.8 168.8 213.7 164.7 226.3S167.5 252.5 180.1 256.6S206.3 253.8 210.3 241.2zM194.3 300.1c-7.791 10.72-5.414 25.73 5.309 33.52c10.72 7.791 25.73 5.412 33.52-5.311s5.414-25.73-5.308-33.53C217.1 287 202.1 289.4 194.3 300.1zM284.2 294.8c-10.72 7.791-13.1 22.8-5.304 33.53s22.8 13.1 33.52 5.311c10.72-7.791 13.1-22.8 5.309-33.52C309.9 289.4 294.9 287 284.2 294.8zM317.1 210.9c-12.61 4.096-19.51 17.64-15.41 30.24c4.096 12.61 17.64 19.5 30.25 15.41s19.5-17.64 15.41-30.24S329.7 206.8 317.1 210.9z"/></svg>