<svg xmlns="http://www.w3.org/2000/svg" viewBox="0 0 512 512"><!--! Font Awesome Pro 6.0.0-alpha3 by @fontawesome - https://fontawesome.com License - https://fontawesome.com/license (Commercial License) --><path d="M480 160c17.6 0 32-14.4 32-32V0c-42.13 21-88.5 32.02-135.5 32.02L135.5 32.02C88.53 32.02 42.12 21 0 0v128c0 17.6 14.4 32 32 32h32v96H15.1C7.2 256 0 263.2 0 271.1C0 280.8 7.2 288 15.1 288l48.01 .0237L64 496C64 504.8 71.2 512 80 512C88.8 512 96 504.8 96 496V288h320v208C416 504.8 423.2 512 432 512s16-7.2 16-16l.0025-207.1L496 288C504.8 288 512 280.8 512 272C512 263.2 504.8 256 496 256H448V160H480zM32 128V47.5C65.38 58.38 100.5 64 135.5 64h241C411.5 64 446.6 58.38 480 47.5V128H32zM96 160h144v96H96V160zM416 256h-144V160H416V256z"/></svg>