<svg xmlns="http://www.w3.org/2000/svg" viewBox="0 0 448 512"><!--! Font Awesome Pro 6.0.0-alpha3 by @fontawesome - https://fontawesome.com License - https://fontawesome.com/license (Commercial License) --><path d="M438.4 147.2C429.2 135 415.2 128 399.1 128h-79.97l-.005-32c0-17.67-14.33-32-31.1-32h-47.1V32h31.1c8.837 0 15.1-7.164 15.1-16c0-8.838-7.162-16-15.1-16H176C167.2 0 160 7.162 160 16c0 8.836 7.164 16 15.1 16h31.1v32H160C142.3 64 128 78.33 128 96L128 128H48.03C32.78 128 18.79 135 9.639 147.2S-2.313 174.8 1.952 189.4l38.68 132.6C35.57 324.7 32.01 329.9 32.01 336c0 8.836 7.17 16 16.01 16h47.99l.0056 144c0 8.836 7.164 16 15.1 16c8.837 0 15.1-7.164 15.1-16L128 352h191.1l-.0031 144c0 8.836 7.164 16 15.1 16c8.837 0 15.1-7.164 15.1-16l.0056-144h47.99c8.837 0 16.01-7.164 16.01-16c0-6.127-3.567-11.28-8.625-13.96l38.68-132.6C450.3 174.8 447.5 159.4 438.4 147.2zM160 96h127.1l-.0034 32H160L160 96zM73.37 320L32.67 180.5c-1.422-4.906-.4843-10.03 2.562-14.09S42.95 160 48.03 160h79.98l-.0031 160H73.37zM160 320V160h127.1v160H160zM415.3 180.5L374.6 320h-54.63l-.0031-160h79.98c5.078 0 9.749 2.344 12.8 6.406C415.8 170.5 416.8 175.6 415.3 180.5z"/></svg>