<svg xmlns="http://www.w3.org/2000/svg" viewBox="0 0 640 512"><!--! Font Awesome Pro 6.0.0-alpha3 by @fontawesome - https://fontawesome.com License - https://fontawesome.com/license (Commercial License) --><path d="M176 255.1c-44.13 0-80 35.88-80 80s35.88 80 80 80s80-35.88 80-80S220.1 255.1 176 255.1zM176 384C149.5 384 128 362.5 128 336S149.5 288 176 288S224 309.5 224 336S202.5 384 176 384zM320.7 278.1C320.2 276.1 319.8 275.8 319.3 274.7c4.275-6.432 6.518-13.87 6.518-21.65c0-10.5-4.07-20.34-11.46-27.73L286.7 197.7c-7.389-7.387-17.24-11.46-27.73-11.46c-7.852 0-15.34 2.277-21.71 6.52C236.1 192.2 235 191.8 233.9 191.3C230.3 173.5 214.5 160 195.6 160H156.4C137.6 160 121.7 173.5 118.1 191.3C116.1 191.8 115.8 192.2 114.7 192.7C108.3 188.4 100.8 186.2 93.04 186.2c-10.49 0-20.34 4.068-27.73 11.46L37.66 225.3c-7.387 7.387-11.46 17.21-11.46 27.65c0 7.84 2.291 15.33 6.559 21.7C32.27 275.8 31.8 276.1 31.34 278.1C13.48 281.7 0 297.5 0 316.4v39.11c0 18.89 13.47 34.7 31.3 38.33c.4609 1.154 .9355 2.303 1.426 3.445c-10.07 15.32-8.375 35.9 4.93 49.21l27.65 27.65c7.391 7.389 17.24 11.46 27.73 11.46c7.785 0 15.21-2.24 21.55-6.41c1.17 .502 2.348 .9883 3.529 1.461C121.7 498.5 137.6 512 156.4 512h39.11c18.89 0 34.7-13.47 38.33-31.3c1.201-.4805 2.4-.9766 3.592-1.488c6.264 4.154 13.74 6.438 21.56 6.438c10.45 0 20.27-4.07 27.65-11.46l27.65-27.65c13.37-13.37 15.02-34.09 4.941-49.27c.4805-1.115 .9492-2.242 1.406-3.379C338.5 390.3 352 374.4 352 355.6V316.4C352 297.6 338.5 281.7 320.7 278.1zM320 355.6c0 3.777-2.926 6.408-5.68 6.969l-16.89 3.43c-8.591 21.35-5.244 13.32-14.39 34.56l9.58 14.44c1.557 2.344 1.768 6.279-.9043 8.953l-27.65 27.65c-3.459 3.454-7.733 1.755-8.9 .9805l-14.42-9.562c-21.18 9.099-13.25 5.809-34.78 14.42l-3.439 16.92C201.1 477.1 199.3 480 195.6 480H156.4c-3.777 0-6.41-2.926-6.971-5.68l-3.439-16.92c-21.44-8.576-13.53-5.3-34.66-14.36l-14.38 9.475c-1.179 .7746-5.558 2.537-9.051-.9512l-27.65-27.65c-2.668-2.666-2.432-6.545-.8184-8.998l9.457-14.38c-9.045-21.07-5.727-13.06-14.31-34.56l-16.94-3.443C34.93 361.1 32 359.3 32 355.6V316.4c0-3.779 2.93-6.412 5.684-6.971l17.01-3.441c8.466-21.38 5.108-13.23 14.32-34.75l-9.668-14.43C58.56 255.7 56.8 251.4 60.29 247.9l27.65-27.65C90.49 217.7 94.36 217.6 96.98 219.4L111.4 228.9c21.46-9.183 13.35-5.835 34.64-14.28l3.451-16.98C150 194.9 152.7 192 156.4 192h39.11C199.3 192 201.1 194.9 202.5 197.7l3.434 16.97c21.32 8.5 13.24 5.165 34.64 14.29l14.39-9.586c2.528-1.684 6.47-1.671 9.07 .9297l27.65 27.66c2.546 2.542 2.674 6.396 .918 9.039L283 271.4c9.242 21.52 5.876 13.39 14.31 34.61l16.96 3.451C317.1 310 320 312.7 320 316.4V355.6zM528 352c-44.18 0-80 35.82-80 80c0 44.18 35.82 80 80 80s80-35.82 80-80C608 387.8 572.2 352 528 352zM528 480c-26.47 0-48-21.53-48-48s21.53-48 48-48s48 21.53 48 48S554.5 480 528 480zM592 128h-72V117.1c0-15.81 4.648-31.16 13.44-44.38l15.87-23.8c4.889-7.363 2.891-17.31-4.443-22.19c-2.65-1.754-5.715-2.678-8.877-2.678c-5.396 0-10.38 2.676-13.33 7.16l-15.85 23.77C494.5 73.4 488 94.88 488 117.1V128h-124.1L319.1 28.29C311.3 11.1 294.1 0 275.3 0H144C117.5 0 96 21.53 96 48v96C96 152.8 103.2 160 112 160S128 152.8 128 144v-96C128 39.18 135.2 32 144 32h131.3c6.27 0 12.01 3.715 14.62 9.467L328.9 128H304C295.2 128 288 135.2 288 144S295.2 160 304 160h288C600.8 160 608 167.2 608 176v51.97c0 3.895-1.402 7.635-3.947 10.53l-38.51 43.1c-2.863 3.273-7.414 5.473-11.33 5.473l-162.7-.3125c-8.836 0-16.01 7.178-16.01 16s7.178 16 16 16l161.9 .2969c13.99 0 27.15-5.975 36.26-16.39l38.5-43.98C635.8 250.8 640 239.6 640 227.1V176C640 149.5 618.5 128 592 128z"/></svg>