<svg xmlns="http://www.w3.org/2000/svg" viewBox="0 0 384 512"><!--! Font Awesome Pro 6.0.0-alpha3 by @fontawesome - https://fontawesome.com License - https://fontawesome.com/license (Commercial License) --><path d="M192 64c-26.51 0-48 21.49-48 48S165.5 160 192 160s48-21.49 48-48S218.5 64 192 64zM192 192C165.5 192 144 213.5 144 240S165.5 288 192 288s48-21.49 48-48S218.5 192 192 192zM192 256C183.2 256 176 248.8 176 240S183.2 224 192 224s16 7.178 16 16S200.8 256 192 256zM192 320c-26.51 0-48 21.49-48 48S165.5 416 192 416s48-21.49 48-48S218.5 320 192 320zM192 384c-8.822 0-16-7.178-16-16S183.2 352 192 352s16 7.178 16 16S200.8 384 192 384zM384 96V80C384 71.16 376.8 64 368 64H320c0-35.35-28.65-64-64-64H128C92.65 0 64 28.65 64 64H16C7.156 64 0 71.16 0 80V96c0 38.64 27.52 70.95 64 78.38V192H16C7.156 192 0 199.2 0 208V224c0 38.64 27.52 70.95 64 78.38V320H16C7.156 320 0 327.2 0 336V352c0 41.82 32.34 75.85 73.28 79.32c18.84 47.22 64.78 80.68 118.7 80.68s99.87-33.46 118.7-80.68C351.7 427.8 384 393.8 384 352v-16c0-8.844-7.156-16-16-16H320V302.4C356.5 294.1 384 262.6 384 224V208C384 199.2 376.8 192 368 192H320V174.4C356.5 166.1 384 134.6 384 96zM320 96h32c0 20.83-13.42 38.43-32 45.05V96zM32 96h32v45.05C45.42 134.4 32 116.8 32 96zM32 224h32v45.05C45.42 262.4 32 244.8 32 224zM32 352h32v32c0 4.615 .8809 8.984 1.357 13.47C46.08 391.2 32 373.3 32 352zM288 384c0 52.94-43.06 96-96 96s-96-43.06-96-96L95.1 63.1C95.1 46.35 110.4 32 128 32h128c17.64 0 31.98 14.34 31.98 31.99L288 384zM352 352c0 21.33-14.08 39.24-33.36 45.47C319.1 392.1 320 388.6 320 384v-32H352zM352 224c0 20.83-13.42 38.43-32 45.05V224H352z"/></svg>