<svg xmlns="http://www.w3.org/2000/svg" viewBox="0 0 512 512"><!--! Font Awesome Pro 6.0.0-alpha3 by @fontawesome - https://fontawesome.com License - https://fontawesome.com/license (Commercial License) --><path d="M320 128H192C147.8 128 112 163.8 112 208v160c0 32.82 19.81 60.96 48.08 73.29l-43.4 43.4c-6.25 6.25-6.25 16.38 0 22.62C119.8 510.4 123.9 512 128 512s8.188-1.562 11.31-4.688L198.6 448h114.8l59.31 59.31C375.8 510.4 379.9 512 384 512s8.188-1.562 11.31-4.688c6.25-6.25 6.25-16.38 0-22.62l-43.4-43.4C380.2 428.1 400 400.8 400 368v-160C400 163.8 364.2 128 320 128zM368 368c0 26.47-21.53 48-48 48H192c-26.47 0-48-21.53-48-48V288h224V368zM368 256h-224V208C144 181.5 165.5 160 192 160h128c26.47 0 48 21.53 48 48V256zM200 384C213.3 384 224 373.3 224 360c0-13.26-10.74-24-24-24c-13.25 0-24 10.74-24 24C176 373.3 186.7 384 200 384zM312 384c13.26 0 24-10.75 24-24c0-13.26-10.74-24-24-24c-13.25 0-24 10.74-24 24C288 373.3 298.7 384 312 384zM256 0C114.8 0 0 114.8 0 256v240C0 504.8 7.156 512 16 512S32 504.8 32 496V256c0-123.5 100.5-224 224-224s224 100.5 224 224v240c0 8.844 7.156 16 16 16s16-7.156 16-16V256C512 114.8 397.2 0 256 0z"/></svg>