<svg xmlns="http://www.w3.org/2000/svg" viewBox="0 0 640 512"><!--! Font Awesome Pro 6.0.0-alpha3 by @fontawesome - https://fontawesome.com License - https://fontawesome.com/license (Commercial License) --><path d="M624 352H544V112C544 68.85 510.1 32 461.4 32H80C36.85 32 0 65.91 0 114.6v203.1c0 47.35 38.52 61.28 44.09 63.1C53.93 384.1 64 376.4 64 366.1c0-6.932-4.037-13.55-10.58-15.83C48.27 348.4 32 340.6 32 318.8V112C32 96.69 43.22 64 81.99 64H464C479.2 64 512 75.22 512 113.1V352h-176.6C326.9 352 320 358.9 320 367.4v1.145C320 377.1 326.9 384 335.4 384H624c8.795 0 16-7.195 16-16C640 359.2 632.8 352 624 352zM192 288c-53.02 0-96 42.98-96 96s42.98 96 96 96s96-42.98 96-96S245 288 192 288zM192 448c-35.35 0-64-28.65-64-64c0-35.35 28.65-64 64-64s64 28.65 64 64C256 419.3 227.3 448 192 448zM416 304v-192C416 103.2 408.8 96 400 96S384 103.2 384 112v192c0 8.844 7.156 16 16 16S416 312.8 416 304zM320 112C320 103.2 312.8 96 304 96S288 103.2 288 112v160C288 280.8 295.2 288 304 288S320 280.8 320 272V112zM224 240v-128C224 103.2 216.8 96 208 96S192 103.2 192 112v128C192 248.8 199.2 256 208 256S224 248.8 224 240zM128 272v-160C128 103.2 120.8 96 112 96S96 103.2 96 112v160C96 280.8 103.2 288 112 288S128 280.8 128 272z"/></svg>