<svg xmlns="http://www.w3.org/2000/svg" viewBox="0 0 448 512"><!--! Font Awesome Pro 6.0.0-alpha3 by @fontawesome - https://fontawesome.com License - https://fontawesome.com/license (Commercial License) --><path d="M448 352V96c0-53.02-42.98-96-96-96H96C42.98 0 0 42.98 0 96v256c0 46.02 32.42 84.38 75.64 93.73l-38.95 38.95c-6.25 6.25-6.25 16.38 0 22.62C39.81 510.4 43.91 512 48 512s8.188-1.562 11.31-4.688L118.6 448h210.8l59.31 59.31C391.8 510.4 395.9 512 400 512s8.188-1.562 11.31-4.688c6.25-6.25 6.25-16.38 0-22.62l-38.95-38.95C415.6 436.4 448 398 448 352zM32 96c0-35.29 28.71-64 64-64h256c35.29 0 64 28.71 64 64v128H32V96zM352 416H96c-35.29 0-64-28.71-64-64V256h384v96C416 387.3 387.3 416 352 416zM224 288c-26.51 0-48 21.49-48 48S197.5 384 224 384s48-21.49 48-48S250.5 288 224 288zM224 352c-8.822 0-16-7.178-16-16S215.2 320 224 320s16 7.178 16 16S232.8 352 224 352z"/></svg>