<svg xmlns="http://www.w3.org/2000/svg" viewBox="0 0 384 512"><!--! Font Awesome Pro 6.0.0-alpha3 by @fontawesome - https://fontawesome.com License - https://fontawesome.com/license (Commercial License) --><path d="M379.3 484.7l-60.57-60.57C338.1 406.5 352 380.9 352 352V192c0-53.02-42.98-96-96-96h-48V32h82.94c15.84 0 31.19 4.641 44.38 13.44l23.81 15.88C361.8 63.13 364.9 64 368 64c5.156 0 10.22-2.5 13.31-7.125c4.906-7.359 2.906-17.28-4.438-22.19l-23.81-15.88C334.6 6.5 313.1 0 290.9 0H93.06C70.88 0 49.41 6.5 30.94 18.81L7.125 34.69C-.2188 39.59-2.219 49.52 2.688 56.88c4.906 7.375 14.84 9.281 22.19 4.438l23.81-15.88C61.88 36.64 77.22 32 93.06 32H176v64H128C74.98 96 32 138.1 32 192v160c0 28.91 13.04 54.52 33.25 72.12l-60.57 60.57c-6.25 6.25-6.25 16.38 0 22.62C7.813 510.4 11.91 512 16 512s8.188-1.562 11.31-4.688l64-64c.6484-.6484 .9434-1.471 1.457-2.193C103.7 445.4 115.5 448 128 448h128c12.47 0 24.3-2.555 35.23-6.881c.5137 .7227 .8086 1.545 1.457 2.193l64 64C359.8 510.4 363.9 512 368 512s8.188-1.562 11.31-4.688C385.6 501.1 385.6 490.9 379.3 484.7zM64 192c0-35.29 28.71-64 64-64h128c35.29 0 64 28.71 64 64v64H64V192zM256 416H128c-35.29 0-64-28.71-64-64V288h256v64C320 387.3 291.3 416 256 416zM128 328c-13.25 0-24 10.74-24 24c0 13.25 10.75 24 24 24c13.26 0 24-10.75 24-24C152 338.7 141.3 328 128 328zM256 328c-13.25 0-24 10.74-24 24c0 13.25 10.75 24 24 24c13.26 0 24-10.75 24-24C280 338.7 269.3 328 256 328z"/></svg>