<svg xmlns="http://www.w3.org/2000/svg" viewBox="0 0 640 512"><!--! Font Awesome Pro 6.0.0-alpha3 by @fontawesome - https://fontawesome.com License - https://fontawesome.com/license (Commercial License) --><path d="M528 288c-50.62 0-92.74 33.88-106.7 80h-37.25V64c0-17.6 14.4-32 32-32H624C632.8 32 640 24.84 640 16C640 7.162 632.8 0 624 0h-207.1c-35.2 0-63.1 28.8-63.1 63.1l.0067 308.3L11.17 480.8c-8.438 2.688-13.09 11.69-10.41 20.09C2.918 507.7 9.23 512 16.01 512c1.594 0 3.248-.2344 4.842-.75L370.5 400l45.52 .0664c0 62.4 50.98 112.8 113.6 111.9c59.49-.8203 109.6-50.92 110.4-110.4C640.9 338.1 590.4 288 528 288zM528 480c-44.13 0-79.1-35.88-79.1-80s35.87-80 79.1-80C572.1 320 608 355.9 608 400S572.1 480 528 480z"/></svg>