<svg xmlns="http://www.w3.org/2000/svg" viewBox="0 0 512 512"><!--! Font Awesome Pro 6.0.0-alpha3 by @fontawesome - https://fontawesome.com License - https://fontawesome.com/license (Commercial License) --><path d="M104 304c-13.25 0-24 10.75-24 24S90.75 352 104 352S128 341.3 128 328S117.3 304 104 304zM408 304C394.7 304 384 314.7 384 328S394.7 352 408 352s24-10.75 24-24S421.3 304 408 304zM448 0H64C28.65 0 0 28.65 0 64v320c0 23.58 12.96 43.1 32 55.1V496C32 504.8 39.16 512 48 512S64 504.8 64 496V448h384v48c0 8.836 7.164 16 16 16s16-7.164 16-16v-56.9C499 427.1 512 407.6 512 384V64C512 28.65 483.3 0 448 0zM480 384c0 17.64-14.36 32-32 32H64c-17.64 0-32-14.36-32-32v-64c0-35.29 28.71-64 64-64h320c35.29 0 64 28.71 64 64V384zM96.64 224l17.49-61.19C120 142.3 138.1 128 160.3 128h191.4C373 128 392 142.3 397.9 162.8L415.4 224H96.64zM480 248.1c-8.6-7.756-18.48-14.02-29.46-18.28L428.6 154C418.9 119.8 387.3 96 351.7 96H160.3C124.8 96 93.13 119.8 83.38 154L61.46 230.7C50.48 234.9 40.6 241.2 32 248.1V64c0-17.67 14.33-32 32-32h384c17.67 0 32 14.33 32 32V248.1z"/></svg>