<svg xmlns="http://www.w3.org/2000/svg" viewBox="0 0 640 512"><!--! Font Awesome Pro 6.0.0-alpha3 by @fontawesome - https://fontawesome.com License - https://fontawesome.com/license (Commercial License) --><path d="M624 384H608V247.7c0-19.08-6.844-37.56-19.25-52.05l-71.02-82.86C508.6 102.1 495.3 96 481.3 96H416V64c0-35.35-28.65-64-64-64H64C28.65 0 0 28.65 0 64v288c0 35.35 28.65 64 64 64c0 52.94 43.06 96 96 96s96-43.06 96-96h128c0 52.94 43.06 96 96 96s96-43.06 96-96h48c8.844 0 16-7.156 16-16S632.8 384 624 384zM416 128h65.28c4.688 0 9.109 2.031 12.14 5.578l71.03 82.86C566.5 218.8 568.2 221.3 569.7 224H416V128zM160 480c-35.3 0-64-28.7-64-64s28.7-64 64-64s64 28.7 64 64S195.3 480 160 480zM480 480c-35.3 0-64-28.7-64-64s28.7-64 64-64s64 28.7 64 64S515.3 480 480 480zM576 384h-5.6C557.2 346.8 521.7 320 480 320s-77.18 26.77-90.4 64H250.4C237.2 346.8 201.7 320 160 320s-77.18 26.77-90.4 64H64c-17.67 0-32-14.33-32-32V64c0-17.67 14.33-32 32-32h288c17.67 0 32 14.33 32 32v224c0 8.836 7.164 16 16 16C408.8 304 416 296.8 416 288V256h160V384z"/></svg>