<svg xmlns="http://www.w3.org/2000/svg" viewBox="0 0 640 512"><!--! Font Awesome Pro 6.0.0-alpha3 by @fontawesome - https://fontawesome.com License - https://fontawesome.com/license (Commercial License) --><path d="M528 288c-50.62 0-92.74 33.88-106.7 80h-37.25V64c0-17.6 14.4-32 32-32H624C632.8 32 640 24.84 640 16C640 7.162 632.8 0 624 0h-207.1c-35.2 0-63.1 28.8-63.1 64l.0059 308.3L11.17 480.8c-8.438 2.688-13.09 11.69-10.41 20.09C2.918 507.7 9.23 512 16.01 512c1.594 0 3.248-.2344 4.842-.75L370.5 400l45.52 .0664c0 62.4 50.98 112.8 113.6 111.9c59.49-.8203 109.6-50.92 110.4-110.4C640.9 338.1 590.4 288 528 288zM528 480c-44.13 0-79.1-35.88-79.1-80s35.87-80 79.1-80C572.1 320 608 355.9 608 400S572.1 480 528 480zM46.13 360.2c3.453 12.89 15.69 23.77 30.73 23.77c2.744 0 5.58-.3613 8.477-1.139l185.5-49.77c17.08-4.582 27.2-22.12 22.61-39.21L251.9 139.3C248.2 125.4 235.5 115.6 221 115.6c-2.793 .002-5.582 .3691-8.291 1.096L27.35 166.3C10.31 170.9 .1582 188.5 4.721 205.5L46.13 360.2zM140 169.3L151.9 213.9L128.6 220.1l-11.89-44.61L140 169.3zM85.81 183.8l16.01 60.04c1.094 4.094 3.781 7.594 7.469 9.719c2.438 1.422 5.219 2.156 8 2.156c1.375 0 2.781-.1719 4.125-.5469l54.25-14.5C184.2 238.4 189.3 229.6 187 221.1l-16.04-60.11l50.06-13.42l41.49 154.5l-185.5 49.77l-41.41-154.6L85.81 183.8z"/></svg>