<svg xmlns="http://www.w3.org/2000/svg" viewBox="0 0 640 512"><!--! Font Awesome Pro 6.0.0-alpha3 by @fontawesome - https://fontawesome.com License - https://fontawesome.com/license (Commercial License) --><path d="M625.9 203.3l-61.25-61.25c-9.062-9.062-21.12-14.06-33.94-14.06H480V80C480 53.53 458.5 32 432 32h-384C21.53 32 0 53.53 0 80v320C0 444.2 35.82 480 80 480c26.29 0 49.42-12.83 64-32.42C158.6 467.2 181.7 480 208 480C252.2 480 288 444.2 288 400c0-5.48-.5664-10.83-1.617-16h163.2C448.6 389.2 448 394.5 448 400c0 44.18 35.82 80 80 80c44.18 0 80-35.82 80-80c0-6.301-.9043-12.36-2.281-18.24C625.5 375.8 640 357.7 640 336V237.3C640 224.4 635 212.4 625.9 203.3zM530.8 160c4.203 0 8.328 1.703 11.31 4.688L601.4 224L480 223.1V160.1L530.8 160zM80 448C53.53 448 32 426.5 32 400S53.53 352 80 352S128 373.5 128 400S106.5 448 80 448zM208 448C181.5 448 160 426.5 160 400S181.5 352 208 352S256 373.5 256 400S234.5 448 208 448zM448 352H271.6c-14.6-19.32-37.55-32-63.64-32c-26.29 0-49.42 12.85-64 32.44C129.4 332.9 106.3 319.1 79.1 319.1c-18.09 0-34.6 6.232-47.1 16.36V80C32 71.17 39.17 64 48 64h384C440.8 64 448 71.17 448 80V352zM528 448c-26.47 0-48-21.53-48-48s21.53-48 48-48s48 21.53 48 48S554.5 448 528 448zM608 336c0 8.828-7.172 16-16 16v.4375c-14.58-19.58-37.71-32.44-64-32.44c-18.09 0-34.6 6.232-48 16.36V256h128V336z"/></svg>