<svg xmlns="http://www.w3.org/2000/svg" viewBox="0 0 640 512"><!--! Font Awesome Pro 6.0.0-alpha3 by @fontawesome - https://fontawesome.com License - https://fontawesome.com/license (Commercial License) --><path d="M583.4 400.8C568.3 385.7 560 365.6 560 344.2V231.8c0-21.36 8.312-41.45 23.44-56.58l51.87-51.92c6.25-6.25 6.25-16.33 .0002-22.58s-16.29-6.208-22.54 .0417l-51.96 51.83C539.7 173.7 528 201.9 528 231.8V272h-47.98v-32c0-26.5-21.5-48-48-48h-38.88L306.4 47.63C300.8 38 290.1 32 278.9 32H152c-13.25 0-24 10.75-24 24L128 192H48C21.5 192 0 213.5 0 240v96c0 21 13.5 38.63 32.25 45.25c0 1-.2507 1.875-.2507 2.75c0 53 42.1 96 96 96c53 0 96-43 96-96h64.01c0 53 43 96 96 96s96-43 96-96l-.0039-80H528v40.23c0 29.91 11.66 58.03 32.81 79.2l51.96 51.83C615.9 478.4 619.9 480 624 480s8.188-1.562 11.31-4.688c6.25-6.25 6.25-16.33-.0002-22.58L583.4 400.8zM160 64h118.9l76.88 128H160V64zM128 448c-35.25 0-64-28.75-64-64s28.75-64 64-64c35.25 0 64 28.75 64 64S163.3 448 128 448zM384 448c-35.25 0-64.01-28.75-64.01-64s28.76-64 64.01-64c35.25 0 64 28.75 64 64S419.3 448 384 448zM448 312.9C431 297.6 408.8 288 384 288c-41.75 0-76.87 26.75-90.12 64H218.1C204.9 314.8 169.8 288 128 288c-40.63 0-75.13 25.25-89.13 60.75C34.75 345.9 32 341.4 32 336v-96c0-8.75 7.25-16 16-16h384c8.75 0 16 7.25 16 16V312.9z"/></svg>