<svg xmlns="http://www.w3.org/2000/svg" viewBox="0 0 640 512"><!--! Font Awesome Pro 6.0.0-alpha3 by @fontawesome - https://fontawesome.com License - https://fontawesome.com/license (Commercial License) --><path d="M618.1 201.1L535 117.1c-13.53-13.53-31.87-21.13-51-21.13H432c-26.51 0-48 21.49-48 48v88.27l-197.6-216.6C177.3 5.703 164.4 0 150.1 0H96C93.79 0 91.68 .4512 89.76 1.264C75.19 4.26 64 16.57 64 32v143.1c0 8.828-7.188 16-16 16S32 184.8 32 176V156.8c0-8.844-7.156-16-16-16S0 147.1 0 156.8V176c0 26.47 21.53 47.1 48 47.1S96 202.5 96 176V52.74L194.4 256H48C21.49 256 0 277.5 0 304v63.1c0 26.51 21.49 48 48 48H64C64 469 106.1 512 160 512s96-42.98 96-96h128C384 469 426.1 512 480 512s96-42.98 96-96h16c26.51 0 48-21.49 48-48V251.9C640 232.8 632.4 214.6 618.1 201.1zM121.5 32h29.45c4.469 0 8.781 1.906 11.81 5.219L362.4 256h-132.4L121.5 32zM160 480c-35.35 0-64-28.65-64-64c0-35.35 28.65-64 64-64s64 28.65 64 64C224 451.3 195.3 480 160 480zM384 384H250.1C236.9 346.8 201.7 319.1 160 319.1S83.1 346.8 69.88 384H48C39.18 384 32 376.8 32 368v-64c0-8.822 7.178-16 16-16L384 287.1V384zM416 144C416 135.2 423.2 128 432 128h52c10.72 0 20.79 4.172 28.37 11.75l83.96 83.96C596.4 223.8 596.4 223.9 596.5 224H416V144zM480 480c-35.35 0-64-28.65-64-64c0-35.35 28.65-64 64-64s64 28.65 64 64C544 451.3 515.3 480 480 480zM608 368c0 8.822-7.178 16-16 16h-21.88C556.9 346.8 521.7 319.1 480 319.1c-24.7 0-46.99 9.591-64 24.92V256h192V368z"/></svg>