<svg xmlns="http://www.w3.org/2000/svg" viewBox="0 0 640 512"><!--! Font Awesome Pro 6.0.0-alpha3 by @fontawesome - https://fontawesome.com License - https://fontawesome.com/license (Commercial License) --><path d="M3.031 325.8l21.37 68.75c5.373 16.75 23.25 26.25 39.1 21l255.6-79.38v-33.5L55.03 385L33.65 316.3c-4-12.88 3.125-26.12 15.75-30c12.62-4 26.12 3.125 30 15.75l11.87 38.25l213.1-66.5l-12-38.25C289.4 222.9 296.4 209.4 309.1 205.4C312.8 204.3 316.4 204.1 319.9 204.8V159.4l-2.125-7c-13.12-42.13-57.1-65.63-99.99-52.63l-152.9 47.5c-42.12 13.12-65.75 58-52.62 100.1L18.78 268C1.656 283.8-3.094 306.1 3.031 325.8zM74.4 177.9l152.9-47.5C252.5 122.6 279.4 136.8 287.3 162l5 16.12c-24.62 11.75-37.75 40.13-29.5 67l2.5 7.625l-152.9 47.5L110 292.6C101.8 265.8 74.78 249.9 47.78 254.1L42.78 238C34.9 212.6 49.15 185.8 74.4 177.9zM528 287.1c-50.62 0-92.74 33.88-106.7 80h-37.25V64c0-17.6 14.4-32 32-32H624C632.8 32 640 24.84 640 16C640 7.162 632.8 0 624 0h-207.1c-35.2 0-63.1 28.8-63.1 63.1l.0068 308.3L11.17 480.8c-8.438 2.688-13.09 11.69-10.41 20.09C2.918 507.7 9.23 512 16.01 512c1.594 0 3.248-.2344 4.842-.75L370.5 400l45.52 .0625c0 62.4 50.98 112.8 113.6 111.9c59.49-.8203 109.6-50.92 110.4-110.4C640.9 338.1 590.4 287.1 528 287.1zM528 480c-44.13 0-79.1-35.88-79.1-80s35.87-80 79.1-80C572.1 320 608 355.9 608 400S572.1 480 528 480z"/></svg>