<svg xmlns="http://www.w3.org/2000/svg" viewBox="0 0 640 512"><!--! Font Awesome Pro 6.0.0-alpha3 by @fontawesome - https://fontawesome.com License - https://fontawesome.com/license (Commercial License) --><path d="M625.9 203.3l-61.25-61.25C555.6 133 543.6 128 530.8 128H496C469.5 128 448 149.5 448 176V352H271.6C257 332.7 234.1 320 208 320c-26.29 0-49.42 12.85-64 32.44C129.4 332.9 106.3 320 80 320C35.82 320 0 355.8 0 400C0 444.2 35.82 480 80 480c26.29 0 49.42-12.84 64-32.42C158.6 467.2 181.7 480 208 480C252.2 480 288 444.2 288 400c0-5.48-.5247-10.79-1.576-15.96h163.2C448.6 389.2 448 394.5 448 400c0 44.18 35.82 80 80 80c44.18 0 80.04-35.82 80.04-80c0-6.301-.946-12.36-2.323-18.24C625.5 375.8 640 357.7 640 336V237.3C640 224.4 635 212.4 625.9 203.3zM80 448C53.53 448 32 426.5 32 400S53.53 352 80 352S128 373.5 128 400S106.5 448 80 448zM208 448C181.5 448 160 426.5 160 400S181.5 352 208 352S256 373.5 256 400S234.5 448 208 448zM480 176C480 167.2 487.2 160 496 160h34.75c4.203 0 8.328 1.703 11.31 4.688L601.4 224H480V176zM528 448c-26.47 0-48-21.53-48-48s21.53-48 48-48s48 21.53 48 48S554.5 448 528 448zM608 336c0 8.828-7.172 16-16 16v.4375C577.4 332.9 554.3 320 528 320c-18.09 0-34.6 6.232-48 16.36v-80.39L608 256V336zM96 112v160C96 280.8 103.2 288 112 288S128 280.8 128 272v-160C128 103.2 120.8 96 112 96S96 103.2 96 112zM192 112v160C192 280.8 199.2 288 208 288S224 280.8 224 272v-160C224 103.2 216.8 96 208 96S192 103.2 192 112zM288 112v160C288 280.8 295.2 288 304 288S320 280.8 320 272v-160C320 103.2 312.8 96 304 96S288 103.2 288 112zM16 320C24.84 320 32 312.8 32 304v-224C32 71.17 39.17 64 48 64h320C376.8 64 384 71.17 384 80v224c0 8.844 7.156 16 16 16S416 312.8 416 304v-224C416 53.53 394.5 32 368 32h-320C21.53 32 0 53.53 0 79.99L0 304C0 312.8 7.156 320 16 320z"/></svg>