<svg xmlns="http://www.w3.org/2000/svg" viewBox="0 0 640 512"><!--! Font Awesome Pro 6.0.0-alpha3 by @fontawesome - https://fontawesome.com License - https://fontawesome.com/license (Commercial License) --><path d="M624 352H608V224c0-26.51-21.49-48-48-48h-44.75l-96-120C407.1 40.88 388.6 32 369.2 32H256C238.4 32 224 46.4 224 64v112H80C53.49 176 32 197.5 32 224v128H15.1C7.2 352 0 359.2 0 367.1C0 376.8 7.2 384 15.1 384H80c0 53 43 96 96 96s96-43 96-96h96c0 53 43 96 96 96s96-43 96-96h64c8.8 0 16-7.2 16-15.1C640 359.2 632.8 352 624 352zM256 64h113.2c9.75 0 18.88 4.375 25 12l80 100H256V64zM176 448c-35.38 0-64-28.62-64-64s28.62-64 64-64s64 28.62 64 64S211.4 448 176 448zM464 448c-35.38 0-64-28.62-64-64s28.62-64 64-64s64 28.62 64 64S499.4 448 464 448zM576 352h-21.88C540.9 314.8 505.8 288 464 288s-76.88 26.75-90.13 64H266.1C252.9 314.8 217.8 288 176 288s-76.88 26.75-90.12 64H64V224c0-8.875 7.125-16 16-16h480C568.9 208 576 215.1 576 224V352z"/></svg>