<svg xmlns="http://www.w3.org/2000/svg" viewBox="0 0 640 512"><!--! Font Awesome Pro 6.0.0-alpha3 by @fontawesome - https://fontawesome.com License - https://fontawesome.com/license (Commercial License) --><path d="M160 304c-35.35 0-64 28.65-64 64c0 35.35 28.65 64 64 64s64-28.65 64-64C224 332.7 195.3 304 160 304zM160 400c-17.64 0-32-14.36-32-32s14.36-32 32-32s32 14.36 32 32S177.6 400 160 400zM480 304c-35.35 0-64 28.65-64 64c0 35.35 28.65 64 64 64s64-28.65 64-64C544 332.7 515.3 304 480 304zM480 400c-17.64 0-32-14.36-32-32s14.36-32 32-32s32 14.36 32 32S497.6 400 480 400zM624 288H608V192c0-35.2-28.8-64-64-64h-41.63l-83.12-104C407.1 8.83 388.7 0 369.3 0H256C238.4 0 224 14.4 224 32v96H96C60.65 128 32 156.7 32 192v96H16C7.164 288 0 295.2 0 304C0 312.8 7.164 320 16 320h15.51C22.12 328.4 16 340.4 16 354v28c0 15.47 7.676 29.18 19.42 37.52c-.4375 2.559-.6602 5.17-.6602 7.814c0 12.29 4.785 23.84 13.47 32.53l19.8 19.8c8.689 8.689 20.26 13.47 32.58 13.47c2.641 0 5.246-.2207 7.797-.6504C116.7 504.3 130.5 512 145.1 512h28c15.52 0 29.26-7.723 37.6-19.53c2.564 .4355 5.188 .6602 7.846 .6602c12.29 0 23.84-4.785 32.53-13.47l19.8-19.8c8.689-8.688 13.47-20.24 13.47-32.53c0-2.646-.2227-5.26-.6582-7.816C296.3 411.2 304 397.5 304 382v-28C304 340.4 297.9 328.4 288.5 320h63.03C342.1 328.4 336 340.4 336 354v28c0 15.5 7.707 29.24 19.49 37.58c-2.488 14.31 1.789 29.44 12.74 40.39l19.8 19.8c8.688 8.689 20.26 13.47 32.58 13.47c2.664 0 5.293-.2246 7.867-.6641C436.8 504.3 450.5 512 465.1 512h28c15.48 0 29.19-7.682 37.53-19.43c2.588 .4453 5.232 .6738 7.912 .6738c12.29 0 23.84-4.785 32.53-13.47l19.8-19.8c10.98-10.98 15.25-26.18 12.8-40.44C616.3 411.2 624 397.5 624 382v-28c0-13.58-6.127-25.57-15.52-34H624c8.836 0 16-7.164 16-16C640 295.2 632.8 288 624 288zM256 32h113.3c9.746 0 18.83 4.365 24.91 11.98L461.4 128H256V32zM272 382C272 389.8 265.8 396 257.1 396H253.5c-1.969 6.344-4.484 12.47-7.656 18.27l3.281 3.172c5.469 5.469 5.469 14.33 0 19.8l-19.8 19.8c-2.734 2.734-6.316 4.102-9.898 4.102s-7.164-1.367-9.898-4.102l-3.281-3.172C200.5 457 194.5 459.5 188 461.4v4.594C188 473.8 181.8 480 173.1 480h-28C138.2 480 132 473.8 132 466v-4.594c-6.453-1.859-12.47-4.375-18.27-7.547l-3.172 3.172c-2.734 2.734-6.344 4.102-9.953 4.102s-7.219-1.367-9.953-4.102l-19.8-19.8c-5.469-5.469-5.469-14.33 0-19.8l3.281-3.172C70.97 408.5 68.45 402.5 66.59 396H61.1C54.23 396 48 389.8 48 382v-28C48 346.2 54.23 340 61.1 340h4.594c1.859-6.344 4.375-12.47 7.547-18.27L70.86 318.5c-5.469-5.469-5.469-14.33 0-19.8l19.8-19.8C93.39 276.1 97 274.8 100.6 274.8s7.219 1.367 9.953 4.102l3.172 3.281C119.5 278.1 125.5 276.5 132 274.6V270C132 262.2 138.2 256 145.1 256h28C181.8 256 188 262.2 188 270v4.594c6.344 1.859 12.47 4.375 18.27 7.547l3.172-3.281C212.2 276.1 215.8 274.8 219.4 274.8S226.6 276.1 229.3 278.9l19.8 19.8c5.469 5.469 5.469 14.44 0 19.91l-3.281 3.172C249 327.5 251.5 333.5 253.4 340h4.593C265.8 340 272 346.2 272 354V382zM280.4 288.6C278.2 284.1 275.5 279.8 271.8 276L251.1 256.2C243.3 247.5 231.7 242.8 219.4 242.8c-2.664 0-5.293 .2227-7.867 .6621C203.2 231.7 189.5 224 173.1 224h-28C130.5 224 116.8 231.7 108.5 243.4c-2.574-.4414-5.203-.6641-7.865-.6641c-12.32 0-23.89 4.785-32.58 13.47L64 260.3V192c0-17.64 14.36-32 32-32h448c17.64 0 32 14.36 32 32v68.26l-4.029-4.029c-8.689-8.689-20.26-13.47-32.58-13.47c-2.664 0-5.293 .2227-7.867 .6621C523.2 231.7 509.5 224 493.1 224h-28c-15.47 0-29.18 7.676-37.52 19.42c-2.574-.4414-5.203-.6641-7.865-.6641c-12.32 0-23.89 4.785-32.58 13.47l-19.8 19.79c-3.605 3.607-6.217 7.762-8.375 12.09L280.4 288.6zM592 382c0 7.765-6.234 13.1-14 13.1h-4.484c-1.969 6.344-4.484 12.47-7.656 18.27l3.281 3.172c5.469 5.469 5.469 14.44 0 19.91l-19.8 19.8c-2.734 2.734-6.316 4.102-9.898 4.102s-7.164-1.367-9.898-4.102l-3.281-3.281c-5.797 3.172-11.81 5.688-18.27 7.547v4.594C508 473.8 501.8 480 493.1 480h-28C458.2 480 452 473.8 452 466v-4.594c-6.453-1.859-12.47-4.375-18.27-7.547l-3.172 3.281c-2.734 2.734-6.344 4.102-9.953 4.102s-7.219-1.367-9.953-4.102l-19.8-19.8c-5.469-5.469-5.469-14.44 0-19.91l3.281-3.172c-3.172-5.797-5.688-11.81-7.547-18.27h-4.594C374.2 396 368 389.8 368 382v-28c0-7.766 6.234-14 13.1-14h4.594c1.859-6.344 4.375-12.47 7.547-18.27l-3.281-3.172c-5.469-5.469-5.469-14.44 0-19.91l19.8-19.8C413.4 276.1 417 274.8 420.6 274.8s7.219 1.367 9.953 4.102l3.172 3.281C439.5 278.1 445.5 276.5 452 274.6V270C452 262.2 458.2 256 465.1 256h28C501.8 256 508 262.2 508 270v4.594c6.344 1.859 12.47 4.375 18.27 7.547l3.172-3.281c2.734-2.734 6.344-4.102 9.953-4.102s7.219 1.367 9.953 4.102l19.8 19.8c5.469 5.469 5.469 14.44 0 19.91l-3.281 3.172c3.172 5.797 5.688 11.81 7.547 18.27h4.593C585.8 340 592 346.2 592 354V382z"/></svg>