<svg xmlns="http://www.w3.org/2000/svg" viewBox="0 0 640 512"><!--! Font Awesome Pro 6.0.0-alpha3 by @fontawesome - https://fontawesome.com License - https://fontawesome.com/license (Commercial License) --><path d="M637.6 118.4c-3.938-11.75-12.23-21.22-23.36-26.69l-176.3-89.94c-7.031-3.625-15.55-1.531-20.16 4.781c-16.61 22.59-55.91 37.78-97.84 37.78c-41.88 0-81.17-15.19-97.78-37.78C217.6 .2187 209-1.875 202 1.75L25.88 91.63c-11.2 5.469-19.55 14.97-23.5 26.75c-3.922 11.69-3.016 24.19 2.422 34.88l48.63 100.9c11.38 22.44 39.13 31.75 61.11 21.03l45.55-19.38L160 466C160 491.4 180.8 512 206.4 512h227.2C459.2 512 480 491.4 480 466l-.0781-210.3l44.84 19.09c22.72 10.91 50.45 1.719 61.94-21l48.36-100.3C640.6 142.6 641.5 130.1 637.6 118.4zM606.4 139.4l-48.38 100.3C554.5 246.6 545.8 249.4 538 245.7l-67.83-28.88c-4.953-2.062-10.62-1.594-15.09 1.375c-4.484 2.969-7.172 7.969-7.172 13.34L448 466C448 473.7 441.5 480 433.6 480H206.4C198.5 480 192 473.7 192 466l.0938-234.4c0-5.375-2.688-10.38-7.172-13.34C182.3 216.5 179.2 215.6 176.1 215.6c-2.125 0-4.25 .4375-6.266 1.281L101.3 246C94.23 249.5 85.5 246.6 82.11 239.1L33.47 139.1c-1.656-3.281-1.922-7-.75-10.53c1.203-3.562 3.766-6.469 7.438-8.281l165.3-84.31c25.14 25.16 67.58 40.38 114.6 40.38c46.97 0 89.41-15.22 114.5-40.38l165.4 84.38c.0781 .0313-.0938-.0313 0 0c3.422 1.688 6.109 4.656 7.312 8.219C608.5 132.1 608.2 135.8 606.4 139.4z"/></svg>