<svg xmlns="http://www.w3.org/2000/svg" viewBox="0 0 384 512"><!--! Font Awesome Pro 6.0.0-alpha3 by @fontawesome - https://fontawesome.com License - https://fontawesome.com/license (Commercial License) --><path d="M384 48C384 56.84 376.8 64 368 64h-160v139.5l108.1-27.03c8.406-2.156 17.25 3.062 19.41 11.66c2.125 8.562-3.062 17.25-11.66 19.41L208 236.5v63l108.1-27.03c8.406-2.094 17.25 3.062 19.41 11.66c2.125 8.562-3.062 17.25-11.66 19.41L208 332.5V464c0 8.844-7.156 16-16 16s-16-7.156-16-16v-123.5l-108.1 27.03C66.59 367.8 65.28 368 64 368c-7.188 0-13.72-4.844-15.53-12.12c-2.125-8.562 3.062-17.25 11.66-19.41L176 307.5v-63L67.88 271.5C66.59 271.8 65.28 272 64 272c-7.188 0-13.72-4.844-15.53-12.12C46.34 251.3 51.53 242.6 60.13 240.5L176 211.5V64h-160C7.156 64 0 56.84 0 48S7.156 32 16 32h352C376.8 32 384 39.16 384 48z"/></svg>