<svg xmlns="http://www.w3.org/2000/svg" viewBox="0 0 384 512"><!--! Font Awesome Pro 6.0.0-alpha3 by @fontawesome - https://fontawesome.com License - https://fontawesome.com/license (Commercial License) --><path d="M383.1 272c0 114.7-93.4 208-208.1 208H80c-8.844 0-15.1-7.156-15.1-16V260.5L19.88 271.5C18.58 271.8 17.27 272 15.99 272c-7.172 0-13.69-4.844-15.5-12.12C-1.67 251.3 3.548 242.6 12.13 240.5l51.87-12.97V164.5L19.88 175.5C18.58 175.8 17.27 176 15.99 176c-7.172 0-13.69-4.844-15.5-12.12C-1.67 155.3 3.548 146.6 12.13 144.5l51.87-12.97V48c0-8.844 7.156-16 15.1-16s15.1 7.156 15.1 16v75.52l172.1-43.03c8.562-2.188 17.25 3.062 19.39 11.64c2.156 8.562-3.062 17.25-11.64 19.39l-179.9 44.97v63.03l172.1-43.03c8.562-2.219 17.25 3.047 19.39 11.64c2.156 8.562-3.062 17.25-11.64 19.39l-179.9 44.97V448h79.1c97.05 0 175.1-78.95 175.1-176c0-8.844 7.156-16 15.1-16S383.1 263.2 383.1 272z"/></svg>