<svg xmlns="http://www.w3.org/2000/svg" viewBox="0 0 640 512"><!--! Font Awesome Pro 6.0.0-alpha3 by @fontawesome - https://fontawesome.com License - https://fontawesome.com/license (Commercial License) --><path d="M512 143.1c-8.836 0-16 7.161-16 16c0 8.836 7.164 16 16 16s16-7.164 16-16C528 151.2 520.8 143.1 512 143.1zM576.2 117.9L528.3 88.45c-25.31-12.31-54.31-11.12-77.44 3.312C429 105.4 416 128.6 416 153.8v54.47c0 26.19-21.34 47.6-47.53 47.69H72.66C50.25 255.1 32 274.1 32 296.5c0 17.56 11.56 33.06 30.16 38.97l56.59 12.56l-28.69 42.81c-6.938 11.81-6.969 26-.125 38C96.88 440.8 109.3 448 123.2 448h30.97c19.03 0 36.81-10.22 46.44-26.63l23.09-39.38c19.34 5.25 37.91 8.062 66.97 8.062c29.47 0 48.25-2.906 67.97-8.344l26.25 39.66C394.5 437.8 412.3 448 431.3 448h25.16c13.91 0 26.31-7.188 33.16-19.19c6.906-11.94 6.812-26.25-.5938-38.81l-33.44-52c13.53-8.469 25.28-19.03 35.06-31.5c12.91-16.69 20.03-35.13 24-50.5h17.88C573.4 255.1 608 220.7 608 178.9C608 154.6 596.1 131.8 576.2 117.9zM532.5 223.1h-44.31l-2.281 13.31c-3.219 19-10.56 36.63-20.53 49.54c-10.25 13.09-23.5 23.47-39.31 30.85l-16.62 7.75l52.31 81.35c.8438 1.406 1.531 3.627 .0938 6.096c-1.125 2-3.062 3.125-5.406 3.125h-25.16c-7.688 0-14.88-4.125-19.25-11.56l-39.88-60.25l-11.47 3.564c-18.75 5.844-35.81 10.31-70.03 10.31c-34.16 0-51.09-4.438-69.72-10.22L208.8 344.1l-35.84 61.13c-3.906 6.689-11.09 10.81-18.81 10.81H123.2c-2.344 0-4.312-1.125-5.469-3.125c-1.094-1.938-1.094-4.031-.5313-5.064l54.22-80.94L70.5 304.6C66.5 303.3 64 300.2 64 296.5c0-4.156 3.25-8.469 8.656-8.469h295.9C412.3 287.8 448 252.1 448 208.3V153.8c0-14.12 7.406-27.16 19.84-34.94c13.91-8.719 30.81-9.312 45.09-2.438l45.25 27.85C569.3 152.3 576 165.2 576 178.9C576 202.9 555.7 223.1 532.5 223.1zM73.22 238.5C75.41 239.5 77.72 240 80 240c5.1 0 11.75-3.406 14.5-9.219C95.13 229.4 158.8 96 248.4 96c61.91 0 103.8 64.66 123.2 103.2c3.969 7.875 13.59 10.94 21.5 7.062c7.875-3.969 11.03-13.59 7.062-21.5C377.4 139.7 327.5 64 248.4 64C138.5 64 68.44 210.1 65.5 217.2C61.75 225.2 65.22 234.7 73.22 238.5z"/></svg>