<svg xmlns="http://www.w3.org/2000/svg" viewBox="0 0 576 512"><!--! Font Awesome Pro 6.0.0-alpha3 by @fontawesome - https://fontawesome.com License - https://fontawesome.com/license (Commercial License) --><path d="M288 216c-13.25 0-23.1 10.75-23.1 24S274.8 264 288 264s23.1-10.75 23.1-24S301.2 216 288 216zM120 184c-13.25 0-23.1 10.75-23.1 24S106.8 232 120 232c13.25 0 23.1-10.75 23.1-24S133.3 184 120 184zM455.1 184c-13.25 0-23.1 10.75-23.1 24s10.75 24 23.1 24s23.1-10.75 23.1-24S469.2 184 455.1 184zM575.1 208c0-40.88-56.88-76.5-141.3-96C417.1 47.38 357.4 0 288 0S158.9 47.38 141.3 112c-84.37 19.5-141.3 55.13-141.3 96c0 61.88 129 112 287.1 112S575.1 269.9 575.1 208zM288 32c62.87-.125 115.1 48.25 119.7 111C371.1 153.8 331.2 160 288 160S204 153.8 168.3 143C172.9 80.25 225.1 31.88 288 32zM288 288c-165.6 0-255.1-52.88-255.1-80c0-17.13 36.62-44.38 104.7-62.13C138 158.6 146.3 169.8 158.9 173.6c40.37 12.13 83.75 18.37 129.1 18.37s88.75-6.248 129.1-18.37c12.62-3.875 20.87-15 22.12-27.75c68.12 17.75 104.7 45 104.7 62.13C543.1 235.1 453.6 288 288 288zM16.01 512c-2.656 0-5.312-.6407-7.781-2.016c-7.718-4.297-10.5-14.03-6.219-21.75l79.1-144c4.312-7.797 14.06-10.5 21.78-6.219c7.718 4.297 10.5 14.03 6.219 21.75l-79.1 144C27.07 509 21.6 512 16.01 512zM559.1 512c-5.594 0-11.06-2.969-13.1-8.235l-79.1-144c-4.281-7.719-1.5-17.45 6.219-21.75c7.656-4.25 17.47-1.547 21.78 6.219l79.1 144c4.281 7.719 1.5 17.45-6.219 21.75C565.3 511.4 562.6 512 559.1 512z"/></svg>