<svg xmlns="http://www.w3.org/2000/svg" viewBox="0 0 640 512"><!--! Font Awesome Pro 6.0.0-alpha3 by @fontawesome - https://fontawesome.com License - https://fontawesome.com/license (Commercial License) --><path d="M320 344c-13.25 0-24 10.75-24 24s10.75 24 24 24s24-10.75 24-24S333.2 344 320 344zM128 296c-13.25 0-24 10.75-24 24S114.8 344 128 344S152 333.2 152 320S141.2 296 128 296zM512 296c-13.25 0-24 10.75-24 24s10.75 24 24 24c13.25 0 24-10.75 24-24S525.3 296 512 296zM491 212.2C479.4 128.6 407.2 64 320 64S160.6 128.6 149 212.2C59.75 234.9 0 274.5 0 320C0 390.8 143.2 448 320 448s320-57.25 320-127.1C640 274.5 580.3 234.9 491 212.2zM320 96c77.75 0 140.8 62.5 140.8 139.6c0 6.25-1 12.25-1.75 18.38C416 276.4 368.4 287.1 320 287.1S224 276.4 181 254C180.2 247.9 179.2 241.9 179.2 235.6C179.2 158.5 242.2 96 320 96zM320 416c-175.8 0-288-56.88-288-96c0-24 42.88-54.5 116-74.62c.625 5.375 .125 4.5 1.375 12.75C150.8 268.5 157 277.5 166.2 282.4C213.8 307 266.5 320 320 320s106.2-13 153.8-37.63C483 277.5 489.2 268.5 490.6 258.1c1.25-8.25 .75-7.375 1.375-12.75C565.1 265.5 608 296 608 320C608 359.1 495.8 416 320 416z"/></svg>