<svg xmlns="http://www.w3.org/2000/svg" viewBox="0 0 448 512"><!--! Font Awesome Pro 6.0.0-alpha3 by @fontawesome - https://fontawesome.com License - https://fontawesome.com/license (Commercial License) --><path d="M328.2 312.6c-1.496-.4863-3.018-.7168-4.521-.7168c-6.17 0-12.04 3.869-14.62 9.787l-35.34 80.94L246.2 320H256c8.844 0 16-7.156 16-16S264.8 288 256 288H192C183.2 288 176 295.2 176 304S183.2 320 192 320h9.791l-27.54 82.64l-35.34-80.94C136.3 315.8 130.5 311.9 124.3 311.9c-1.504 0-3.023 .2285-4.521 .7148c-69.96 22.72-120.5 88.59-119.8 166.3C.1758 497.4 16.16 512 34.66 512H413.3c18.5 0 34.49-14.57 34.65-33.08C448.7 401.2 398.2 335.3 328.2 312.6zM34.66 480c-1.512 0-2.545-1.064-2.656-1.365c-.5117-56.9 32.56-107.5 83.65-130.2L173.1 480H34.66zM240 479.1h-32l-14.62-33.48L224 354.6l30.62 91.88L240 479.1zM413.3 480h-138.4l57.44-131.6c51.1 22.7 84.17 73.3 83.66 130.2C415.9 478.9 414.8 480 413.3 480zM224 256c70.75 0 128-57.25 128-128s-57.25-128-128-128S96 57.25 96 128S153.3 256 224 256zM224 32c52.94 0 96 43.06 96 96c0 52.93-43.06 96-96 96S128 180.9 128 128C128 75.06 171.1 32 224 32z"/></svg>