<svg xmlns="http://www.w3.org/2000/svg" viewBox="0 0 640 512"><!--! Font Awesome Pro 6.0.0-alpha3 by @fontawesome - https://fontawesome.com License - https://fontawesome.com/license (Commercial License) --><path d="M592 0h-160C405.5 0 384 21.49 384 48v128C384 202.5 405.5 224 432 224H448v55.97c0 4.715 3.947 8.026 8.119 8.026c1.578 0 3.189-.4736 4.631-1.526L543.1 224H592C618.5 224 640 202.5 640 176v-128C640 21.49 618.5 0 592 0zM608 176C608 184.8 600.8 192 592 192h-58.68L480 232V192h-48C423.2 192 416 184.8 416 176v-128C416 39.18 423.2 32 432 32h160C600.8 32 608 39.18 608 48V176zM274.7 304H173.3C77.61 304 0 381.6 0 477.3C0 496.5 15.52 512 34.66 512H413.3C432.5 512 448 496.5 448 477.3C448 381.6 370.4 304 274.7 304zM160 400c8.822 0 16 7.178 16 16S168.8 432 160 432S144 424.8 144 416S151.2 400 160 400zM413.3 480H34.66C33.2 480 32 478.8 32 477.3c0-67.87 48.11-124.6 112-138.2v31.79C125.4 377.5 112 395.1 112 416c0 26.51 21.49 48 48 48s48-21.49 48-48c0-20.87-13.4-38.45-32-45.06V336h98.66C279.2 336 283.5 336.9 288 337.3v33.6C269.4 377.6 256 395.2 256 416v32c0 8.844 7.156 16 16 16S288 456.8 288 448v-32c0-8.828 7.172-16 16-16S320 407.2 320 416v32c0 8.844 7.156 16 16 16S352 456.8 352 448v-32c0-20.83-13.42-38.43-32-45.05v-26.82c55.63 19.01 96 71.22 96 133.2C416 478.8 414.8 480 413.3 480zM224 256c70.7 0 128-57.31 128-128S294.7 0 224 0C153.3 0 96 57.31 96 128S153.3 256 224 256zM224 32c52.94 0 96 43.06 96 96c0 52.93-43.06 96-96 96S128 180.9 128 128C128 75.06 171.1 32 224 32z"/></svg>