<svg xmlns="http://www.w3.org/2000/svg" viewBox="0 0 512 512"><!--! Font Awesome Pro 6.0.0-alpha3 by @fontawesome - https://fontawesome.com License - https://fontawesome.com/license (Commercial License) --><path d="M245.4 12.78c-1.781-8.672-10.34-14.11-18.91-12.45c-8.656 1.766-14.22 10.23-12.47 18.89l23.63 115.2c9.188 47.61-8.438 82.81-50.97 101.8L176.8 240.6l8.438 226c.0938 3.906-1.219 7.688-3.563 10.34C180.5 478.4 178.4 480 175.4 480H145c-2.5 0-4.688-1.047-6.5-3.109c-2.344-2.625-3.656-6.391-3.594-9.812l8.407-226.4l-9.719-4.453C90.53 216.5 73.25 182.6 82.32 135.5l23.84-116.3C107.9 10.56 102.3 2.094 93.69 .3281c-8.563-1.688-17.13 3.781-18.91 12.45L50.91 129.3C39.75 187.4 60.91 233.7 110.6 260.5l-7.656 205.6c-.2187 11.67 4 23.31 11.59 31.92C122.5 507.1 133.3 512 145 512h30.34c11.69 0 22.44-4.922 30.31-13.84c7.594-8.609 11.78-20.31 11.56-32.41L209.6 260.6c49.13-26.28 70.75-73.92 59.47-132.4L245.4 12.78zM428.8 0c-31.81 0-85.81 43.2-110.5 101c-17.03 39.89-33.38 118.8 44.59 203.8l-7.688 159c-.5313 13.45 4.219 26.44 13.03 35.61C376 507.6 386.1 512 396.8 512h25.62C445.3 512 464 491.4 464 466V38.5C464 17.27 448.2 0 428.8 0zM432 466C432 474.3 426.9 480 422.4 480h-25.62c-2.406 0-4.281-1.438-5.438-2.641c-2.781-2.891-4.312-7.438-4.156-12.03l8.344-172.6l-4.75-4.969c-67.13-70-60.47-133.4-43.03-174.2C370.3 60.59 415.4 32 428.8 32C429.6 32 432 34.23 432 38.5V466zM127.1 175.1C127.4 175.1 127.7 176 128 176c8.438 0 15.5-6.594 15.97-15.11l8-144c.5-8.828-6.25-16.38-15.09-16.86C128.6-.4062 120.5 6.312 120 15.11l-8 144C111.5 167.9 118.3 175.5 127.1 175.1zM192 176c.2813 0 .5938-.0156 .875-.0313C201.7 175.5 208.5 167.9 207.1 159.1l-8-144C199.5 6.312 192.1-.3906 183.1 .0313C174.3 .5156 167.5 8.062 168 16.89l8 144C176.5 169.4 183.6 176 192 176z"/></svg>