<svg xmlns="http://www.w3.org/2000/svg" viewBox="0 0 640 512"><!--! Font Awesome Pro 6.0.0-alpha3 by @fontawesome - https://fontawesome.com License - https://fontawesome.com/license (Commercial License) --><path d="M629 203.5l-127.1-154C492.8 38.37 479.3 32 464.9 32H48C21.54 32 0 53.54 0 80v256C0 362.5 21.54 384 48 384H64c0 53.02 42.98 96 96 96s96-42.98 96-96h128c0 53.02 42.98 96 96 96s96-42.98 96-96h16c26.46 0 48-21.54 48-48V234C640 222.9 636.1 212.1 629 203.5zM384 64h80.93c4.768 0 9.281 2.111 12.32 5.824L578 192H384V64zM192 64h160v128H192V64zM32 80C32 71.17 39.17 64 48 64H160v128H32V80zM160 448c-35.3 0-64-28.71-64-64c0-35.3 28.7-64 64-64s64 28.7 64 64C224 419.3 195.3 448 160 448zM480 448c-35.3 0-64-28.71-64-64c0-35.3 28.7-64 64-64s64 28.7 64 64C544 419.3 515.3 448 480 448zM608 336c0 8.832-7.168 16-16 16h-21.89C556.9 314.8 521.7 288 480 288s-76.9 26.78-90.11 64H250.1C236.9 314.8 201.7 288 160 288s-76.9 26.78-90.11 64H48C39.17 352 32 344.8 32 336V224h572.4C606.7 226.8 608 230.4 608 234V336z"/></svg>