<svg xmlns="http://www.w3.org/2000/svg" viewBox="0 0 576 512"><!--! Font Awesome Pro 6.0.0-alpha3 by @fontawesome - https://fontawesome.com License - https://fontawesome.com/license (Commercial License) --><path d="M224 80c-88.37 0-160 71.63-160 160c0 88.36 71.63 160 160 160s160-71.64 160-160C384 151.6 312.4 80 224 80zM224 368c-70.58 0-128-57.42-128-128s57.42-128 128-128s128 57.42 128 128S294.6 368 224 368zM224 176c-35.28 0-64 28.7-64 64s28.72 64 64 64s64-28.7 64-64S259.3 176 224 176zM224 272c-17.66 0-32-14.36-32-32s14.34-32 32-32s32 14.36 32 32S241.7 272 224 272zM512 0H64C28.65 0 0 28.65 0 64v352c0 35.35 28.65 64 64 64v16C64 504.8 71.16 512 80 512S96 504.8 96 496V480h384v16c0 8.836 7.164 16 16 16s16-7.164 16-16V480c35.35 0 64-28.65 64-64V64C576 28.65 547.3 0 512 0zM544 416c0 17.64-14.36 32-32 32H64c-17.64 0-32-14.36-32-32V64c0-17.64 14.36-32 32-32h448c17.64 0 32 14.36 32 32V416zM464 128C437.5 128 416 149.5 416 176c0 20.83 13.42 38.43 32 45.06V336c0 8.844 7.156 16 16 16s16-7.156 16-16V221.1C498.6 214.4 512 196.8 512 176C512 149.5 490.5 128 464 128zM464 192C455.2 192 448 184.8 448 176S455.2 160 464 160S480 167.2 480 176S472.8 192 464 192z"/></svg>