<svg xmlns="http://www.w3.org/2000/svg" viewBox="0 0 640 512"><!--! Font Awesome Pro 6.0.0-alpha3 by @fontawesome - https://fontawesome.com License - https://fontawesome.com/license (Commercial License) --><path d="M632.9 400.8L543.1 352l.0007-64l55.12-17.75c11.87-5.875 11.87-22.63 0-28.5L479.1 192l.0005-64l27.25-16.25c7.75-7.75 5.625-20.75-4.125-25.63L320 0L136.9 86.13C127.1 91 125 103.1 132.8 111.8L160 128l.0005 64L40.88 241.8c-11.87 5.875-11.87 22.63 0 28.5L96 288l.0007 64l-88.87 48.75c-10.25 6.75-9.25 22.12 1.75 27.62L64 448l-.0007 48c0 8.8 7.2 16 15.1 16s15.1-7.2 15.1-15.1V448h207.1v48C304 504.8 311.2 512 320 512c8.8 0 15.1-7.2 15.1-15.1V448h207.1v48c0 8.8 7.197 16 15.1 16s15.1-7.2 15.1-16L575.1 448l55.12-19.62C642.1 422.9 643.1 407.5 632.9 400.8zM320 35.38L448.1 96H191L320 35.38zM192 128h255.1v64H192V128zM94.63 254L166.4 224h307.2l71.75 30L538.1 256H101L94.63 254zM128 288h383.1v64H128V288zM570.5 416H69.5l-14.37-5.125L104.3 384h431.5l49.12 26.88L570.5 416z"/></svg>