<svg xmlns="http://www.w3.org/2000/svg" viewBox="0 0 640 512"><!--! Font Awesome Pro 6.0.0-alpha3 by @fontawesome - https://fontawesome.com License - https://fontawesome.com/license (Commercial License) --><path d="M629.6 27.75C617.1 10.38 598.5 0 577.6 0c-16.88 0-151.5 32-167.6 32c-11.5-10.25-26.5-16-42-16H271.1c-15.5 0-30.38 5.75-42 16C213.8 32 79.44 0 62.31 0C41.56 0 22.18 10.25 10.56 27.5c-11.63 17.25-13.75 39.13-5.877 58.38L95.94 256v16.06C95.94 280.9 103.1 288 111.9 288s15.94-7.137 15.94-15.94V256h384.3v16.06C512.1 280.9 519.2 288 528 288s15.94-7.137 15.94-15.94V256L635.1 86.38C643.2 67.13 641.1 45.13 629.6 27.75zM207.1 79.63V224H115.1L33.69 72.25c-3.5-9.875-1.625-20.88 5-29c6.875-8.5 17.75-12.62 28.5-10.88L210.7 62C208.1 67.63 208.1 73.63 207.1 79.63zM399.1 224H239.1V79.63C239.1 73.88 242.6 67.5 244.7 64c5.502-9.5 15.38-16.25 27.25-16.25h96.01c11.88 0 21.75 6.75 27.25 16.25c2.125 3.5 4.75 9.875 4.75 15.62V224zM605.1 72.75L524.1 224h-93.01V79.63c-.125-6-1-11.88-2.75-17.62l142.8-29.5c3.375-.625 18.5-2.625 29.25 10.75C607.1 51.5 609.7 62.75 605.1 72.75zM463.1 288c-61.86 0-111.1 50.14-111.1 112s50.15 112 112 112s111.1-50.14 111.1-112S525.8 288 463.1 288zM448 478.4C416.7 472 391.1 447.3 385.6 416h62.38L448 478.4zM447.1 384h-62.38C391.1 352.7 416.7 327.1 448 321.6L447.1 384zM480 478.4L479.1 416h62.39C536 447.3 511.3 472 480 478.4zM479.1 384L480 321.6C511.3 327.1 536 352.7 542.4 384H479.1zM175.1 288c-61.86 0-111.1 50.14-111.1 112S114.1 512 175.1 512s111.1-50.14 111.1-112S237.9 288 175.1 288zM160 478.4C128.7 472 103.1 447.3 97.62 416h62.38L160 478.4zM159.1 384H97.62C103.1 352.7 128.7 327.1 160 321.6L159.1 384zM192 478.4L191.1 416h62.38C248 447.3 223.3 472 192 478.4zM191.1 384L192 321.6C223.3 327.1 248 352.7 254.4 384H191.1z"/></svg>