<svg xmlns="http://www.w3.org/2000/svg" viewBox="0 0 448 512"><!--! Font Awesome Pro 6.0.0-alpha3 by @fontawesome - https://fontawesome.com License - https://fontawesome.com/license (Commercial License) --><path d="M399.6 386.1C399.7 385.4 400 384.8 400 384V80c0-44.11-35.94-79.1-80.06-79.1L178.8 0C141.4 0 109.4 25.42 100.9 61.81L.4063 492.4c-2 8.609 3.344 17.22 11.97 19.22C13.59 511.9 14.81 512 16 512c7.281 0 13.84-4.984 15.59-12.36L103.4 192H368v192c0 .7559 .3281 1.402 .4297 2.131C340.7 393.1 320 418.1 320 448c0 35.35 28.61 64 63.96 64C419.3 512 448 483.3 448 448C448 418.1 427.3 393.1 399.6 386.1zM110.8 160l21.22-90.92C137.1 47.25 156.3 32 178.8 32H320c26.47 0 48 21.53 48 48V160H110.8zM384 480c-17.64 0-32-14.36-32-32s14.36-32 32-32s32 14.36 32 32S401.6 480 384 480z"/></svg>