<svg xmlns="http://www.w3.org/2000/svg" viewBox="0 0 640 512"><!--! Font Awesome Pro 6.0.0-alpha3 by @fontawesome - https://fontawesome.com License - https://fontawesome.com/license (Commercial License) --><path d="M610.6 118.4l-272.2-114.7c-11.88-5-25.12-5-37 0L29.38 118.4C11.62 125.8 0 143.3 0 162.5v333.5c0 8.801 7.201 16 16 16c8.801 0 16-7.199 16-16V162.5c0-6.375 3.875-12.25 9.75-14.75l272-114.6c4-1.625 8.5-1.625 12.5 0l272 114.6C604.1 150.3 608 156.1 608 162.5V496c0 8.801 7.201 16 16 16c8.801 0 16-7.199 16-16V162.5C640 143.3 628.4 125.8 610.6 118.4zM512 352h-160V256c0-17.67-14.33-32-32-32H128C110.3 224 96 238.3 96 256V480c0 17.67 14.33 32 32 32h384c17.67 0 32-14.33 32-32v-96C544 366.3 529.7 352 512 352zM320 480H128v-96h192V480zM320 352H128V256h192V352zM512 480h-160v-96h160V480z"/></svg>