<svg xmlns="http://www.w3.org/2000/svg" viewBox="0 0 384 512"><!--! Font Awesome Pro 6.0.0-alpha3 by @fontawesome - https://fontawesome.com License - https://fontawesome.com/license (Commercial License) --><path d="M208 247.4V176C208 167.2 200.8 160 192 160S176 167.2 176 176V256c0 5.344 2.688 10.34 7.125 13.31l48 32C233.8 303.1 236.9 304 240 304c5.156 0 10.22-2.5 13.31-7.125c4.906-7.344 2.906-17.28-4.438-22.19L208 247.4zM320 80V64c0-35.28-28.72-64-64-64H128C92.72 0 64 28.72 64 64v16c-35.35 0-64 28.65-64 64v224c0 35.35 28.65 64 64 64V448c0 35.28 28.72 64 64 64h128c35.28 0 64-28.72 64-64v-16c35.35 0 64-28.65 64-64v-224C384 108.7 355.3 80 320 80zM96 64c0-17.66 14.34-32 32-32h128c17.66 0 32 14.34 32 32v16H96V64zM288 448c0 17.66-14.34 32-32 32H128c-17.66 0-32-14.34-32-32v-16h192V448zM352 368c0 17.64-14.36 32-32 32H64c-17.64 0-32-14.36-32-32v-224c0-17.64 14.36-32 32-32h256c17.64 0 32 14.36 32 32V368z"/></svg>