<svg xmlns="http://www.w3.org/2000/svg" viewBox="0 0 384 512"><!--! Font Awesome Pro 6.0.0-alpha3 by @fontawesome - https://fontawesome.com License - https://fontawesome.com/license (Commercial License) --><path d="M320 80V64c0-35.28-28.72-64-64-64H128C92.72 0 64 28.72 64 64v16c-35.35 0-64 28.65-64 64v223.1c0 35.35 28.65 63.1 64 63.1V448c0 35.28 28.72 64 64 64h128c35.28 0 64-28.72 64-64v-15.1c35.35 0 64-28.65 64-63.1V144C384 108.7 355.3 80 320 80zM96 64c0-17.66 14.34-32 32-32h128c17.66 0 32 14.34 32 32v16H96V64zM288 448c0 17.66-14.34 32-32 32H128c-17.66 0-32-14.34-32-32v-16h192V448zM352 368c0 17.64-14.36 32-32 32H64c-17.64 0-32-14.36-32-32v-160h320V368zM352 176H32v-32c0-17.64 14.36-32 32-32h256c17.64 0 32 14.36 32 32V176zM96 368h16C120.8 368 128 360.8 128 352v-16C128 327.2 120.8 320 112 320H96c-8.836 0-16 7.164-16 16V352C80 360.8 87.16 368 96 368zM184 368h16c8.836 0 16-7.164 16-16v-15.1C216 327.2 208.8 320 200 320h-16c-8.836 0-16 7.164-16 16V352C168 360.8 175.2 368 184 368zM272 368H288c8.836 0 16-7.164 16-16v-16c0-8.836-7.164-16-16-16h-16c-8.836 0-16 7.164-16 16V352C256 360.8 263.2 368 272 368zM96 288h16C120.8 288 128 280.8 128 272V256c0-8.836-7.164-16-16-16H96C87.16 240 80 247.2 80 256v16C80 280.8 87.16 288 96 288zM184 288h16c8.836 0 16-7.164 16-15.1V256c0-8.836-7.164-16-16-16h-16c-8.836 0-16 7.164-16 16v16C168 280.8 175.2 288 184 288zM272 288H288c8.836 0 16-7.164 16-16V256c0-8.836-7.164-16-16-16h-16C263.2 240 256 247.2 256 256v16C256 280.8 263.2 288 272 288z"/></svg>