<svg xmlns="http://www.w3.org/2000/svg" viewBox="0 0 384 512"><!--! Font Awesome Pro 6.0.0-alpha3 by @fontawesome - https://fontawesome.com License - https://fontawesome.com/license (Commercial License) --><path d="M320 113.2V64c0-35.28-28.72-64-64-64H128C92.72 0 64 28.72 64 64v49.18C24.8 148.3 0 199.2 0 256s24.8 107.7 64 142.8V448c0 35.28 28.72 64 64 64h128c35.28 0 64-28.72 64-64v-49.18C359.2 363.7 384 312.8 384 256S359.2 148.3 320 113.2zM96 64c0-17.66 14.34-32 32-32h128c17.66 0 32 14.34 32 32v25.9C259.7 73.52 227 64 192 64S124.3 73.52 96 89.9V64zM288 448c0 17.66-14.34 32-32 32H128c-17.66 0-32-14.34-32-32v-25.9C124.3 438.5 156.1 448 192 448s67.74-9.523 96-25.9V448zM192 416c-88.22 0-160-71.78-160-160s71.78-160 160-160s160 71.78 160 160S280.2 416 192 416zM208 247.4V176C208 167.2 200.8 160 192 160S176 167.2 176 176V256c0 5.344 2.688 10.34 7.125 13.31l48 32C233.8 303.1 236.9 304 240 304c5.156 0 10.22-2.5 13.31-7.125c4.906-7.344 2.906-17.28-4.438-22.19L208 247.4z"/></svg>