<svg xmlns="http://www.w3.org/2000/svg" viewBox="0 0 384 512"><!--! Font Awesome Pro 6.0.0-alpha3 by @fontawesome - https://fontawesome.com License - https://fontawesome.com/license (Commercial License) --><path d="M320 80V64c0-35.28-28.72-64-64-64H128C92.72 0 64 28.72 64 64v16c-35.35 0-64 28.65-64 63.1v224c0 35.35 28.65 64 64 64V448c0 35.28 28.72 64 64 64h128c35.28 0 64-28.72 64-64v-15.1c35.35 0 64-28.65 64-64v-224C384 108.7 355.3 80 320 80zM96 64c0-17.66 14.34-32 32-32h128c17.66 0 32 14.34 32 32v16H96V64zM288 448c0 17.66-14.34 32-32 32H128c-17.66 0-32-14.34-32-32v-16h192V448zM352 368c0 17.64-14.36 32-32 32H64c-17.64 0-32-14.36-32-32v-224c0-17.64 14.36-32 32-32h256c17.64 0 32 14.36 32 32V368zM192 187.7c-42.64-42.1-76.38-26.12-90.26-14.5c-27.51 23-28.98 64.22-4.344 89.1l84.7 85.63c5.502 5.5 14.25 5.5 19.75 0l84.76-85.63c24.64-24.88 23.14-66.1-4.375-89.1C268.4 161.5 234.5 144.7 192 187.7zM263.9 239.8L191.9 312.4L120.1 239.8c-10.38-10.38-12.38-30 2-42C135.9 186.2 153.4 194.4 160.6 201.5l31.39 31.75l31.39-31.75c7.129-7.258 24.64-15.26 38.39-3.75C276.2 209.8 274.2 229.4 263.9 239.8z"/></svg>