<svg xmlns="http://www.w3.org/2000/svg" viewBox="0 0 384 512"><!--! Font Awesome Pro 6.0.0-alpha3 by @fontawesome - https://fontawesome.com License - https://fontawesome.com/license (Commercial License) --><path d="M320 80V64c0-35.28-28.72-64-64-64H128C92.72 0 64 28.72 64 64v16c-35.35 0-64 28.65-64 64v223.1c0 35.35 28.65 63.1 64 63.1V448c0 35.28 28.72 64 64 64h128c35.28 0 64-28.72 64-64v-15.1c35.35 0 64-28.65 64-63.1V144C384 108.7 355.3 80 320 80zM96 64c0-17.66 14.34-32 32-32h128c17.66 0 32 14.34 32 32v16H96V64zM288 448c0 17.66-14.34 32-32 32H128c-17.66 0-32-14.34-32-32v-16h192V448zM352 368c0 17.64-14.36 32-32 32H64c-17.64 0-32-14.36-32-32v-224c0-17.64 14.36-32 32-32h256c17.64 0 32 14.36 32 32V368zM216 256c0-13.26-10.75-24-24-24S168 242.7 168 256c0 13.25 10.75 24 24 24S216 269.3 216 256zM144 256c0-13.26-10.75-24-24-24S96 242.7 96 256c0 13.25 10.75 24 24 24S144 269.3 144 256zM264 232c-13.25 0-24 10.74-24 24c0 13.25 10.75 24 24 24s24-10.75 24-24C288 242.7 277.3 232 264 232zM232 208c13.25 0 24-10.75 24-24c0-13.26-10.75-24-24-24s-24 10.74-24 24C208 197.3 218.7 208 232 208zM152 208c13.25 0 24-10.75 24-24c0-13.26-10.75-24-24-24S128 170.7 128 184C128 197.3 138.7 208 152 208zM232 304c-13.25 0-24 10.74-24 24c0 13.25 10.75 24 24 24s24-10.75 24-24C256 314.7 245.3 304 232 304zM152 304c-13.25 0-24 10.74-24 24c0 13.25 10.75 24 24 24s24-10.75 24-24C176 314.7 165.3 304 152 304z"/></svg>