<svg xmlns="http://www.w3.org/2000/svg" viewBox="0 0 512 512"><!--! Font Awesome Pro 6.0.0-alpha3 by @fontawesome - https://fontawesome.com License - https://fontawesome.com/license (Commercial License) --><path d="M448 32H64C28.65 32 0 60.65 0 96v320c0 35.35 28.65 64 64 64h384c35.35 0 64-28.65 64-64V96C512 60.65 483.3 32 448 32zM480 416c0 17.64-14.36 32-32 32H64c-17.64 0-32-14.36-32-32V96c0-17.64 14.36-32 32-32h384c17.64 0 32 14.36 32 32V416zM96 104C82.75 104 72 114.7 72 128c0 13.25 10.75 24 24 24S120 141.3 120 128C120 114.7 109.3 104 96 104zM192 104C178.7 104 168 114.7 168 128c0 13.25 10.75 24 24 24S216 141.3 216 128C216 114.7 205.3 104 192 104zM288 104c-13.25 0-24 10.74-24 24c0 13.25 10.75 24 24 24S312 141.3 312 128C312 114.7 301.3 104 288 104z"/></svg>