<svg xmlns="http://www.w3.org/2000/svg" viewBox="0 0 512 512"><!--! Font Awesome Pro 6.0.0-alpha3 by @fontawesome - https://fontawesome.com License - https://fontawesome.com/license (Commercial License) --><path d="M448 32H64C28.65 32 0 60.65 0 96v320c0 35.35 28.65 64 64 64h384c35.35 0 64-28.65 64-64V96C512 60.65 483.3 32 448 32zM480 416c0 17.64-14.36 32-32 32H64c-17.64 0-32-14.36-32-32V96c0-17.64 14.36-32 32-32h384c17.64 0 32 14.36 32 32V416zM224 104C210.7 104 200 114.7 200 128c0 13.25 10.75 24 24 24S248 141.3 248 128C248 114.7 237.3 104 224 104zM320 104c-13.25 0-24 10.74-24 24c0 13.25 10.75 24 24 24S344 141.3 344 128C344 114.7 333.3 104 320 104zM416 104c-13.25 0-24 10.74-24 24c0 13.25 10.75 24 24 24S440 141.3 440 128C440 114.7 429.3 104 416 104z"/></svg>