<svg xmlns="http://www.w3.org/2000/svg" viewBox="0 0 512 512"><!--! Font Awesome Pro 6.0.0-alpha3 by @fontawesome - https://fontawesome.com License - https://fontawesome.com/license (Commercial License) --><path d="M320 128H64c-35.35 0-64 28.65-64 64v256c0 35.35 28.65 64 64 64h256c35.35 0 64-28.65 64-64v-256C384 156.7 355.3 128 320 128zM352 448c0 17.64-14.36 32-32 32H64c-17.64 0-32-14.36-32-32V288h320V448zM352 256H32V192c0-17.64 14.36-32 32-32h256c17.64 0 32 14.36 32 32V256zM448 .0001H192c-35.35 0-64 28.65-64 63.1V80h32V64c0-17.64 14.36-32 32-32h256c17.64 0 32 14.36 32 32v256c0 17.64-14.36 32-32 32h-16v32l16 .0001c35.35 0 64-28.65 64-64v-256C512 28.65 483.3 .0001 448 .0001z"/></svg>