<svg xmlns="http://www.w3.org/2000/svg" viewBox="0 0 512 512"><!--! Font Awesome Pro 6.0.0-alpha3 by @fontawesome - https://fontawesome.com License - https://fontawesome.com/license (Commercial License) --><path d="M496 272h-52.49l67.78-219.3c2.609-8.437-2.109-17.39-10.56-19.1c-8.469-2.656-17.41 2.109-20 10.56l-70.7 228.7H332.6l-61.1-228.1c-3.75-13.1-27.16-13.1-30.91 0L179.4 272H101.1L31.28 43.3c-2.609-8.422-11.58-13.16-20-10.56C2.828 35.35-1.891 44.3 .7188 52.74l67.78 219.3H16c-8.844 0-16 7.154-16 15.1s7.156 16 16 16l62.31-.0045l50.99 164.7C131.4 475.5 137.2 479.9 144.9 480c7.141-.1406 13.31-4.969 15.16-11.86l43.96-164.1h104l43.96 164.1C353.8 475 359.1 479.9 367.1 480c7 0 13.52-4.562 15.58-11.28l50.99-164.7L496 304c8.844 0 16-7.158 16-16S504.8 272 496 272zM143.5 406.3l-31.61-102.3h59L143.5 406.3zM212.6 272L256 109.9l43.43 162.2H212.6zM368.5 406.3l-27.39-102.3h59L368.5 406.3z"/></svg>