<svg xmlns="http://www.w3.org/2000/svg" viewBox="0 0 320 512"><!--! Font Awesome Pro 6.0.0-alpha3 by @fontawesome - https://fontawesome.com License - https://fontawesome.com/license (Commercial License) --><path d="M320 336c0 8.844-7.156 16-16 16L176 352v112c0 8.844-7.156 16-16 16s-16-7.156-16-16V352l-128 .0005c-8.844 0-16-7.157-16-16S7.156 320 16 320h128V256l-128 .0005C7.156 256 0 248.8 0 240S7.156 224 16 224h114.1L18.69 56.88C13.78 49.52 15.77 39.59 23.13 34.69C30.45 29.77 40.39 31.77 45.31 39.13l115.5 173.2l130.4-173.9c5.297-7.062 15.33-8.5 22.39-3.203c7.078 5.297 8.516 15.33 3.203 22.39L191.1 224H304C312.8 224 320 231.2 320 240s-7.156 16-16 16L176 256v64h128C312.8 320 320 327.2 320 336z"/></svg>