<svg xmlns="http://www.w3.org/2000/svg" viewBox="0 0 512 512"><!--! Font Awesome Pro 6.0.0-alpha3 by @fontawesome - https://fontawesome.com License - https://fontawesome.com/license (Commercial License) --><path d="M95.1 0c-53.02 0-96 42.97-96 95.99c0 18.95 5.738 36.41 15.22 51.29l145.1-121.6C144.1 9.805 121.2 0 95.1 0zM255.1 63.1C132.3 63.1 32 164.3 32 287.1c0 53.21 18.63 102 49.62 140.5l-42.59 42.59C34.34 475.7 32 481.9 32 488C32 501.7 43.21 512 56 512c6.141 0 12.28-2.344 16.97-7.031l42.59-42.59C153.1 493.4 202.8 512 256 512s102-18.63 140.4-49.62l42.59 42.59C443.7 509.7 449.9 512 456 512c12.79 0 24-10.3 24-24c0-6.141-2.344-12.28-7.031-16.97l-42.59-42.59c30.99-38.43 49.62-87.25 49.62-140.5C480 164.3 379.7 63.1 255.1 63.1zM256 464c-97.05 0-176-78.95-176-176S158.1 112 256 112s176 78.95 176 176S353 464 256 464zM415.1 0c-25.19 0-47.98 9.805-65.1 25.68l145.9 121.6c9.477-14.88 15.22-32.34 15.22-51.29C511.1 42.97 469 0 415.1 0zM256 352c-17.67 0-32 14.33-32 32s14.33 32 32 32s32-14.33 32-32S273.7 352 256 352zM255.1 320C269.2 320 280 309.3 280 296v-112C280 170.8 269.2 160 255.1 160S232 170.8 232 184v112C232 309.3 242.7 320 255.1 320z"/></svg>