<svg xmlns="http://www.w3.org/2000/svg" viewBox="0 0 512 512"><!--! Font Awesome Pro 6.0.0-alpha3 by @fontawesome - https://fontawesome.com License - https://fontawesome.com/license (Commercial License) --><path d="M95.1 0c-53.02 0-96 42.98-96 96c0 18.95 5.671 36.5 15.15 51.38l145.9-121.6C143.9 9.914 121.2 0 95.1 0zM415.1 0c-25.19 0-47.93 9.914-65.06 25.79l145.9 121.6C506.3 132.5 511.1 114.9 511.1 96C511.1 42.98 469 0 415.1 0zM256 64C132.3 64 32 164.3 32 288c0 53.21 18.63 102 49.62 140.4l-42.59 42.59C34.34 475.7 32 481.9 32 488C32 500.8 42.3 512 56 512c6.141 0 12.28-2.344 16.97-7.031l42.59-42.59C153.1 493.4 202.8 512 256 512s102-18.63 140.4-49.62l42.59 42.59C443.7 509.7 449.9 512 456 512c13.71 0 24-11.21 24-24c0-6.141-2.344-12.28-7.031-16.97l-42.59-42.59c30.99-38.43 49.62-87.23 49.62-140.4C479.1 164.3 379.7 64 256 64zM256 464c-97.05 0-176-78.95-176-176S158.1 112 256 112s176 78.95 176 176S353 464 256 464zM280 292V184c0-13.25-10.75-24-24-24S232 170.8 232 184V304c0 7.562 3.563 14.66 9.594 19.19l64 48C309.9 374.4 314.1 376 319.1 376c13.2 0 24.02-10.66 24.02-23.98c0-7.297-3.315-14.5-9.597-19.2L280 292z"/></svg>