<svg xmlns="http://www.w3.org/2000/svg" viewBox="0 0 512 512"><!--! Font Awesome Pro 6.0.0-alpha3 by @fontawesome - https://fontawesome.com License - https://fontawesome.com/license (Commercial License) --><path d="M95.1 0c-53.02 0-96 42.97-96 95.99c0 18.95 5.738 36.41 15.22 51.29l145.1-121.6C144.1 9.805 121.2 0 95.1 0zM256 63.1c-123.7 0-224 100.3-224 223.1c0 53.21 18.63 102 49.62 140.5l-42.59 42.59C34.34 475.7 32 481.9 32 488C32 500.8 42.3 512 56 512c6.141 0 12.28-2.344 16.97-7.031l42.59-42.59C153.1 493.4 202.8 512 256 512s102-18.63 140.4-49.62l42.59 42.59C443.7 509.7 449.9 512 456 512c13.71 0 24-11.21 24-24c0-6.141-2.344-12.28-7.031-16.97l-42.59-42.59C461.4 390 480 341.2 480 287.1C480 164.3 379.7 63.1 256 63.1zM256 464c-97.05 0-176-78.95-176-176S158.1 112 256 112s176 78.95 176 176S353 464 256 464zM415.1 0c-25.19 0-47.98 9.805-65.1 25.68l145.9 121.6c9.477-14.88 15.22-32.34 15.22-51.29C511.1 42.97 469 0 415.1 0zM313.6 336H248.3l83.98-105c3.473-4.348 5.262-9.659 5.262-15.01C337.6 197.3 320.5 192 313.6 192H198.4c-13.25 0-24 10.75-24 24s10.75 24 24 24h65.25l-83.98 105c-3.473 4.348-5.262 9.659-5.262 15.01C174.4 378.7 191.5 384 198.4 384h115.2c13.25 0 24-10.75 24-24S326.8 336 313.6 336z"/></svg>