<svg xmlns="http://www.w3.org/2000/svg" viewBox="0 0 448 512"><!--! Font Awesome Pro 6.0.0-alpha3 by @fontawesome - https://fontawesome.com License - https://fontawesome.com/license (Commercial License) --><path d="M20.87 88h246.3C278.7 88 288 78.65 288 67.13V60.87C288 49.35 278.7 40 267.1 40H20.87C9.346 40 0 49.35 0 60.87V67.13C0 78.65 9.346 88 20.87 88zM20.87 344h246.3C278.7 344 288 334.7 288 323.1V316.9C288 305.3 278.7 296 267.1 296H20.87C9.346 296 0 305.3 0 316.9v6.25C0 334.7 9.346 344 20.87 344zM424 168H23.1C10.75 168 0 178.7 0 192S10.75 216 23.1 216H424c13.25 0 24-10.75 24-23.1S437.3 168 424 168zM424 424H23.1C10.75 424 0 434.7 0 448S10.75 472 23.1 472H424c13.25 0 24-10.75 24-23.1S437.3 424 424 424z"/></svg>