<svg xmlns="http://www.w3.org/2000/svg" viewBox="0 0 448 512"><!--! Font Awesome Pro 6.0.0-alpha3 by @fontawesome - https://fontawesome.com License - https://fontawesome.com/license (Commercial License) --><path d="M424 424H23.1C10.75 424 0 434.7 0 448S10.75 472 23.1 472H424c13.25 0 24-10.75 24-23.1S437.3 424 424 424zM427.1 296H180.9C169.3 296 160 305.3 160 316.9v6.25C160 334.7 169.3 344 180.9 344h246.3C438.7 344 448 334.7 448 323.1V316.9C448 305.3 438.7 296 427.1 296zM427.1 40H180.9C169.3 40 160 49.35 160 60.87V67.13C160 78.65 169.3 88 180.9 88h246.3C438.7 88 448 78.65 448 67.13V60.87C448 49.35 438.7 40 427.1 40zM424 168H23.1C10.75 168 0 178.7 0 192S10.75 216 23.1 216H424c13.25 0 24-10.75 24-23.1S437.3 168 424 168z"/></svg>