<svg xmlns="http://www.w3.org/2000/svg" viewBox="0 0 640 512"><!--! Font Awesome Pro 6.0.0-alpha3 by @fontawesome - https://fontawesome.com License - https://fontawesome.com/license (Commercial License) --><path d="M120 344h195.5l-61.24-48H120c-13.25 0-24 10.75-24 24C95.1 333.3 106.7 344 120 344zM120 424c-13.25 0-24 10.75-24 24C95.1 461.3 106.7 472 120 472h358.9l-61.24-48H120zM630.8 469.1L471.2 344H520c13.25 0 24-10.75 24-23.1C544 306.7 533.3 296 520 296h-110l-102.1-80H520c13.25 0 24-10.75 24-23.1C544 178.7 533.3 168 520 168H246.6l-102.1-80H520c13.25 0 24-10.75 24-23.1C544 50.74 533.3 40 520 40H120c-9.018 0-16.58 5.178-20.68 12.53L38.81 5.116C34.41 1.679 29.19 0 24.03 0C16.91 0 9.84 3.158 5.121 9.189C-3.066 19.63-1.248 34.71 9.189 42.89l591.1 463.1c10.5 8.203 25.57 6.333 33.69-4.073C643.1 492.4 641.2 477.3 630.8 469.1z"/></svg>