<svg xmlns="http://www.w3.org/2000/svg" viewBox="0 0 448 512"><!--! Font Awesome Pro 6.0.0-alpha3 by @fontawesome - https://fontawesome.com License - https://fontawesome.com/license (Commercial License) --><path d="M119.1 88h208C341.3 88 352 77.25 352 64S341.3 40 328 40H119.1C106.7 40 96 50.75 96 64S106.7 88 119.1 88zM424 424H23.1C10.75 424 0 434.7 0 448S10.75 472 23.1 472H424c13.25 0 24-10.75 24-23.1S437.3 424 424 424zM328 344C341.3 344 352 333.3 352 320S341.3 296 328 296H119.1C106.7 296 96 306.7 96 320S106.7 344 119.1 344H328zM424 168H23.1C10.75 168 0 178.7 0 192S10.75 216 23.1 216H424c13.25 0 24-10.75 24-23.1S437.3 168 424 168z"/></svg>