<svg xmlns="http://www.w3.org/2000/svg" viewBox="0 0 448 512"><!--! Font Awesome Pro 6.0.0-alpha3 by @fontawesome - https://fontawesome.com License - https://fontawesome.com/license (Commercial License) --><path d="M424 296H23.1C10.75 296 0 306.7 0 320S10.75 344 23.1 344H424c13.25 0 24-10.75 24-23.1S437.3 296 424 296zM424 424H23.1C10.75 424 0 434.7 0 448S10.75 472 23.1 472H424c13.25 0 24-10.75 24-23.1S437.3 424 424 424zM424 168H23.1C10.75 168 0 178.7 0 192S10.75 216 23.1 216H424c13.25 0 24-10.75 24-23.1S437.3 168 424 168zM424 40H23.1C10.75 40 0 50.75 0 64S10.75 88 23.1 88H424c13.25 0 24-10.75 24-23.1S437.3 40 424 40z"/></svg>