<svg xmlns="http://www.w3.org/2000/svg" viewBox="0 0 576 512"><!--! Font Awesome Pro 6.0.0-alpha3 by @fontawesome - https://fontawesome.com License - https://fontawesome.com/license (Commercial License) --><path d="M567.6 309.8l-56-48c-9-7.719-22.25-7.719-31.25 0l-56 48c-10.06 8.625-11.22 23.78-2.594 33.84c8.625 10.03 23.75 11.22 33.84 2.594l15.91-13.64C469.1 405.4 409.4 464 336 464h-24V256h48C373.3 256 384 245.3 384 232S373.3 208 360 208h-48V155.9C344.4 145.7 368 115.8 368 80c0-44.18-35.82-80-79.1-80C243.8 0 208 35.82 208 80c0 35.76 23.62 65.69 56 75.93V208h-48C202.8 208 192 218.8 192 232S202.8 256 216 256h48v208H240c-73.42 0-133.1-58.6-135.5-131.4l15.91 13.64C124.9 350.1 130.5 352 135.1 352c6.766 0 13.48-2.844 18.23-8.375c8.625-10.06 7.469-25.22-2.594-33.84l-56-48c-9-7.719-22.25-7.719-31.25 0l-56 48c-10.06 8.625-11.22 23.78-2.594 33.84c8.609 10.03 23.75 11.22 33.84 2.594l16.58-14.21C58.36 431.6 139.9 512 240 512h95.1c100.1 0 181.6-80.4 183.8-179.1l16.58 14.21C540.9 350.1 546.5 352 551.1 352c6.766 0 13.48-2.844 18.23-8.375C578.8 333.6 577.7 318.4 567.6 309.8zM288 48c17.64 0 32 14.36 32 32s-14.36 32-32 32s-32-14.36-32-32S270.4 48 288 48zM495.5 312L496 311.6L496.5 312H495.5z"/></svg>