<svg xmlns="http://www.w3.org/2000/svg" viewBox="0 0 576 512"><!--! Font Awesome Pro 6.0.0-alpha3 by @fontawesome - https://fontawesome.com License - https://fontawesome.com/license (Commercial License) --><path d="M552 48C565.3 48 576 37.25 576 24S565.3 0 552 0h-528C10.75 0 0 10.75 0 23.1S10.75 48 23.1 48H32v416H23.1C10.75 464 0 474.7 0 487.1S10.75 512 23.1 512H176C184.8 512 192 504.8 192 496l0-172.8C191.1 274.4 227.1 230.9 275.5 224.8C334.1 217.4 384 262.9 384 320v176c0 8.837 7.163 16 16 16h152c13.25 0 24-10.75 24-23.1S565.3 464 552 464H544v-416H552zM496 48v40h-416V48H496zM432 464V320c0-79.38-64.63-144-144-144S144 240.6 144 320v144h-64V136h416V464H432z"/></svg>