<svg xmlns="http://www.w3.org/2000/svg" viewBox="0 0 576 512"><!--! Font Awesome Pro 6.0.0-alpha3 by @fontawesome - https://fontawesome.com License - https://fontawesome.com/license (Commercial License) --><path d="M576 120v176C576 309.3 565.3 320 552 320S528 309.3 528 296V177.9l-191 191C332.3 373.7 326.1 376 320 376s-12.28-2.344-16.97-7.031L192 257.9l-151 151C36.28 413.7 30.16 416 24 416C5.205 416 0 398.8 0 392c0-6.141 2.344-12.28 7.031-16.97l168-168C179.7 202.3 185.9 200 192 200s12.28 2.344 16.97 7.031L320 318.1L494.1 144H376C362.8 144 352 133.3 352 120S362.8 96 376 96h176C565.3 96 576 106.8 576 120z"/></svg>