<svg xmlns="http://www.w3.org/2000/svg" viewBox="0 0 448 512"><!--! Font Awesome Pro 6.0.0-alpha3 by @fontawesome - https://fontawesome.com License - https://fontawesome.com/license (Commercial License) --><path d="M424 319.5h-63.09l-20.16-48.14H424c13.25 0 24-10.78 24-24.07c0-13.29-10.75-24.07-24-24.07h-103.4l-74.46-177.8c-7.469-17.87-36.78-17.87-44.25 0L127.4 223.2H24c-13.25 0-24 10.78-24 24.07c0 13.29 10.75 24.07 24 24.07h83.25L87.09 319.5H24c-13.25 0-24 10.92-24 24.21s10.75 23.93 24 23.93h42.93l-33.05 78.94c-5.141 12.25 .6094 26.37 12.83 31.51c12.23 5.187 26.3-.6112 31.42-12.87l40.87-97.59h210l40.87 97.59c3.859 9.215 12.77 14.75 22.14 14.75c3.094 0 6.25-.5955 9.281-1.881c12.22-5.14 17.97-19.26 12.83-31.51l-33.05-78.94H424c13.25 0 24-10.64 24-23.93S437.3 319.5 424 319.5zM224 116.9l44.53 106.3h-89.05L224 116.9zM139.2 319.5l20.16-48.14h129.4l20.16 48.14H139.2z"/></svg>