<svg xmlns="http://www.w3.org/2000/svg" viewBox="0 0 512 512"><!--! Font Awesome Pro 6.0.0-alpha3 by @fontawesome - https://fontawesome.com License - https://fontawesome.com/license (Commercial License) --><path d="M488 95.94h-32c-30.93 0-56 25.08-56 56.01v40.01h-106.8L189.1 28.18C179.9 13.68 164.8 3.68 147.2 .8044C130.1-1.946 112.9 2.43 99.75 12.81C41.12 59.69-.25 138.7 0 215.1c.25 50.13 17.62 99.52 60.25 138.8c-39.24 10.1-67.16 48.98-58.75 92.92c5.961 31.12 30.86 56.49 61.93 62.69C114.1 520.6 160 481.7 160 431.1c0-8.876-1.75-17.25-4.375-25.25C177.2 412.7 200.3 415.1 224 415.1s46.88-3.256 68.38-9.257c-5.806 17.7-7.332 37.23 4.895 59.95c14.37 26.71 41.59 45.74 71.91 45.3C412.9 511.4 448 475.9 448 431.1c0-37.26-25.75-68.38-60.25-77.26C425 320.4 448 274.6 448 223.1V151.1c0-4.401 3.6-8.023 8-8.023h32c13.2 0 24-10.78 24-23.98S501.2 95.94 488 95.94zM80 463.1c-17.62 0-32-14.38-32-32s14.38-32 32-32s32 14.38 32 32S97.62 463.1 80 463.1zM400 431.1c0 17.63-14.38 32-32 32s-32-14.38-32-32s14.38-32 32-32S400 414.4 400 431.1zM224 367.1c-90.38 0-165.2-56.13-174.9-128h349.8C389.2 311.8 314.4 367.1 224 367.1z"/></svg>