<svg xmlns="http://www.w3.org/2000/svg" viewBox="0 0 448 512"><!--! Font Awesome Pro 6.0.0-alpha3 by @fontawesome - https://fontawesome.com License - https://fontawesome.com/license (Commercial License) --><path d="M416 160h-72V120C344 53.83 290.2 0 224 0S104 53.83 104 120V160H32C14.33 160 0 174.3 0 192v240C0 476.2 35.82 512 80 512h288c44.18 0 80-35.82 80-80V192C448 174.3 433.7 160 416 160zM152 120C152 80.3 184.3 48 224 48s72 32.3 72 72V160h-144V120zM400 432c0 17.64-14.36 32-32 32h-288c-17.64 0-32-14.36-32-32v-224h56v56C104 277.3 114.8 288 128 288s24-10.75 24-24V208h144v56C296 277.3 306.8 288 320 288s24-10.75 24-24V208h56V432z"/></svg>