<svg xmlns="http://www.w3.org/2000/svg" viewBox="0 0 320 512"><!--! Font Awesome Pro 6.0.0-alpha3 by @fontawesome - https://fontawesome.com License - https://fontawesome.com/license (Commercial License) --><path d="M261.4 237.3C277.9 218.9 288 194.6 288 168C288 110.7 241.3 64 184 64h-16V24C168 10.75 157.3 0 144 0S120 10.75 120 24V64h-96C10.75 64 0 74.75 0 88v336c0 12.53 9.625 22.94 22.12 23.94c7.874 .5938 20.62 .8438 36.78 .8438c17.1 0 38.08-.3496 61.09-.7031V488C120 501.3 130.8 512 144 512s24-10.75 24-24v-40.6c14.14-.2148 28.2-.418 41.63-.5605C270.5 446.2 320 396.2 320 335.4C320 293.1 296.3 256.2 261.4 237.3zM184 112c30.88 0 56 25.12 56 56S214.9 224 184 224h-16V112H184zM48 112h72V224H48V112zM48 400.8V272h72v128.1C92.66 400.5 66.61 400.8 48 400.8zM209.1 398.8c-13.27 .1406-27.16 .3398-41.13 .5508V272h40.56C243.5 272 272 300.5 272 335.4C272 370 243.8 398.5 209.1 398.8z"/></svg>