<svg xmlns="http://www.w3.org/2000/svg" viewBox="0 0 512 512"><!--! Font Awesome Pro 6.0.0-alpha3 by @fontawesome - https://fontawesome.com License - https://fontawesome.com/license (Commercial License) --><path d="M184 384c13.25 0 24-10.75 24-24V320h10.19L160 261.8V360C160 373.3 170.8 384 184 384zM256 0C114.6 0 0 114.6 0 256s114.6 256 256 256s256-114.6 256-256S397.4 0 256 0zM256 464c-114.7 0-208-93.31-208-208c0-48.71 16.95-93.47 45.11-128.1l291.9 291.9C349.5 447 304.7 464 256 464zM209.9 176H272C298.5 176 320 197.5 320 224c0 16.83-8.742 31.6-21.89 40.18L209.9 176zM418.9 384.1L332.2 298.3C353.1 280.8 368 254.1 368 224c0-52.94-43.06-96-96-96H184C177.9 128 172.4 130.5 168.2 134.3L127 93.11C162.5 64.95 207.3 48 256 48c114.7 0 208 93.31 208 208C464 304.7 447 349.5 418.9 384.1z"/></svg>