<svg xmlns="http://www.w3.org/2000/svg" viewBox="0 0 384 512"><!--! Font Awesome Pro 6.0.0-alpha3 by @fontawesome - https://fontawesome.com License - https://fontawesome.com/license (Commercial License) --><path d="M384 264v32c0 101.5-82.53 184-184 184h-32c-48.53 0-88-39.47-88-88V224H24C10.75 224 0 213.3 0 200S10.75 176 24 176H80V120c0-22.06-17.94-40-40-40h-16C10.75 80 0 69.25 0 56S10.75 32 24 32h16C88.53 32 128 71.47 128 120V176h40C181.3 176 192 186.8 192 200S181.3 224 168 224H128v168c0 22.06 17.94 40 40 40h32c75 0 136-61 136-136v-32C336 241.9 318.1 224 296 224h-16C266.8 224 256 213.3 256 200s10.75-24 24-24h16C344.5 176 384 215.5 384 264z"/></svg>