<svg xmlns="http://www.w3.org/2000/svg" viewBox="0 0 576 512"><!--! Font Awesome Pro 6.0.0-alpha3 by @fontawesome - https://fontawesome.com License - https://fontawesome.com/license (Commercial License) --><path d="M136 0H32C14.33 0 0 14.33 0 32v104C0 149.3 10.75 160 24 160S48 149.3 48 136V48h88C149.3 48 160 37.25 160 24S149.3 0 136 0zM136 464H48v-88C48 362.8 37.25 352 24 352S0 362.8 0 376V480c0 17.67 14.33 32 32 32h104C149.3 512 160 501.3 160 488S149.3 464 136 464zM552 352c-13.25 0-24 10.75-24 24v88h-88c-13.25 0-24 10.75-24 24S426.8 512 440 512H544c17.67 0 32-14.33 32-32v-104C576 362.8 565.3 352 552 352zM544 0h-104C426.8 0 416 10.75 416 24s10.75 24 24 24h88v88C528 149.3 538.8 160 552 160S576 149.3 576 136V32C576 14.33 561.7 0 544 0zM120 384c13.2 0 24-10.8 24-23.1V151.1C144 138.8 133.2 128 120 128c-13.2 0-24 10.8-24 23.1v208C96.01 373.2 106.8 384 120 384zM480 368V143.1C480 135.2 472.8 128 464 128c-8.799 0-15.1 7.2-15.1 15.1v224C448 376.8 455.2 384 464 384C472.8 384 480 376.8 480 368zM416 151.1C416 138.8 405.2 128 392 128s-24 10.8-24 23.1v208c0 13.2 10.8 23.1 23.1 23.1s24-10.8 24-23.1V151.1zM192 128C183.2 128 176 135.2 176 143.1v224C176 376.8 183.2 384 192 384c8.799 0 15.1-7.199 15.1-15.1V143.1C208 135.2 200.8 128 192 128zM264 128c-13.2 0-24 10.8-24 23.1v208C240 373.2 250.8 384 264 384s23.98-10.8 23.98-24V151.1C288 138.8 277.2 128 264 128z"/></svg>