<svg xmlns="http://www.w3.org/2000/svg" viewBox="0 0 640 512"><!--! Font Awesome Pro 6.0.0-alpha3 by @fontawesome - https://fontawesome.com License - https://fontawesome.com/license (Commercial License) --><path d="M616 232h-592C10.75 232 0 242.7 0 255.1C0 269.3 10.75 280 23.1 280h592C629.3 280 640 269.3 640 256C640 242.8 629.3 232 616 232zM272 55.1C272 42.8 261.2 32 248 32C234.8 32 224 42.8 224 55.1V192h48V55.1zM384 55.1C384 42.8 373.2 32 360 32S336 42.8 336 55.1V192H384V55.1zM191.1 47.1C191.1 39.2 184.8 32 175.1 32c-8.799 0-15.1 7.201-15.1 15.1V192h31.1L191.1 47.1zM495.1 47.1C495.1 39.2 488.8 32 479.1 32S464 39.2 464 47.1V192h31.1V47.1zM112 55.1C112 42.8 101.2 32 88 32S64 42.8 64 55.1V192h48V55.1zM576 55.1C576 42.8 565.2 32 552 32c-13.2 0-24 10.8-24 23.1V192H576V55.1zM464 464C464 472.8 471.2 480 479.1 480s15.1-7.199 15.1-15.1V320H464V464zM528 456C528 469.2 538.8 480 552 480c13.2 0 24-10.8 24-24V320h-48V456zM64 456C64 469.2 74.8 480 87.1 480S112 469.2 112 456V320H64V456zM336 456C336 469.2 346.8 480 360 480S384 469.2 384 456V320h-48V456zM224 456C224 469.2 234.8 480 247.1 480C261.2 480 272 469.2 272 456V320H224V456zM159.1 464C159.1 472.8 167.2 480 175.1 480c8.799 0 16-7.201 16-15.1L191.1 320H159.1V464z"/></svg>