<svg xmlns="http://www.w3.org/2000/svg" viewBox="0 0 512 512"><!--! Font Awesome Pro 6.0.0-alpha3 by @fontawesome - https://fontawesome.com License - https://fontawesome.com/license (Commercial License) --><path d="M111.1 32c-8.799 0-15.1 7.201-15.1 15.1v416C95.1 472.8 103.2 480 111.1 480c8.799 0 16-7.201 16-15.1V47.1C127.1 39.2 120.8 32 111.1 32zM24 32C10.8 32 0 42.8 0 55.1v400C0 469.2 10.8 480 23.1 480S48 469.2 48 456V55.1C48 42.8 37.2 32 24 32zM415.1 32C407.2 32 400 39.2 400 47.1V464C400 472.8 407.2 480 415.1 480s15.1-7.199 15.1-15.1V47.1C431.1 39.2 424.8 32 415.1 32zM296 32c-13.2 0-24 10.8-24 23.1V456C272 469.2 282.8 480 296 480S320 469.2 320 456v-400C320 42.8 309.2 32 296 32zM488 32c-13.2 0-24 10.8-24 23.1V456C464 469.2 474.8 480 488 480c13.2 0 24-10.8 24-24v-400C512 42.8 501.2 32 488 32zM184 32C170.8 32 160 42.8 160 55.1v400C160 469.2 170.8 480 183.1 480C197.2 480 208 469.2 208 456V55.1C208 42.8 197.2 32 184 32z"/></svg>