<svg xmlns="http://www.w3.org/2000/svg" viewBox="0 0 448 512"><!--! Font Awesome Pro 6.0.0-alpha3 by @fontawesome - https://fontawesome.com License - https://fontawesome.com/license (Commercial License) --><path d="M264 392H183.1C170.8 392 160 402.8 160 415.1C160 429.2 170.8 440 183.1 440h80C277.2 440 288 429.2 288 416C288 402.8 277.2 392 264 392zM424 72H23.1C10.8 72 0 82.8 0 95.1S10.8 120 23.1 120H424c13.2 0 24-10.8 24-23.1S437.2 72 424 72zM360 232H87.1C74.8 232 64 242.8 64 255.1C64 269.2 74.8 280 87.1 280h272C373.2 280 384 269.2 384 256C384 242.8 373.2 232 360 232z"/></svg>