<svg xmlns="http://www.w3.org/2000/svg" viewBox="0 0 512 512"><!--! Font Awesome Pro 6.0.0-alpha3 by @fontawesome - https://fontawesome.com License - https://fontawesome.com/license (Commercial License) --><path d="M424 392H23.1C10.8 392 0 402.8 0 415.1C0 429.2 10.8 440 23.1 440H424C437.2 440 448 429.2 448 416C448 402.8 437.2 392 424 392zM424 72H23.1C10.8 72 0 82.8 0 95.1S10.8 120 23.1 120H424C437.2 120 448 109.2 448 96S437.2 72 424 72zM488 232H87.1C74.8 232 64 242.8 64 256c0 13.2 10.8 24 23.1 24H488C501.2 280 512 269.2 512 256S501.2 232 488 232z"/></svg>