<svg xmlns="http://www.w3.org/2000/svg" viewBox="0 0 512 512"><!--! Font Awesome Pro 6.0.0-alpha3 by @fontawesome - https://fontawesome.com License - https://fontawesome.com/license (Commercial License) --><path d="M488 32H24C10.75 32 0 44 0 59v74C0 148 10.75 160 24 160h464C501.3 160 512 148 512 133v-74C512 44 501.3 32 488 32zM464 112H352v-32h112V112zM488 352H24C10.75 352 0 364 0 379v74C0 468 10.75 480 24 480h464c13.25 0 24-12 24-27v-74C512 364 501.3 352 488 352zM464 432H288v-32h176V432zM488 192H24C10.75 192 0 204 0 219v74C0 308 10.75 320 24 320h464C501.3 320 512 308 512 293v-74C512 204 501.3 192 488 192zM464 272H160v-32h304V272z"/></svg>