<svg xmlns="http://www.w3.org/2000/svg" viewBox="0 0 512 512"><!--! Font Awesome Pro 6.0.0-alpha3 by @fontawesome - https://fontawesome.com License - https://fontawesome.com/license (Commercial License) --><path d="M256 0C114.6 0 0 114.6 0 256s114.6 256 256 256s256-114.6 256-256S397.4 0 256 0zM296.2 460c.0781-3.176 .1289-6.352 .3906-9.527c1.125-13.22-8.688-24.81-21.91-25.91c-12.97-1.062-24.81 8.688-25.91 21.91c-.4824 5.68-.709 11.39-.7246 17.09c-108.3-4.133-195.5-91.28-199.6-199.6c6.445-.0078 12.83-.2773 19.25-.8633c13.19-1.219 22.91-12.91 21.69-26.12S76.22 214.1 63.22 215.3C59.47 215.7 55.76 215.5 52.02 215.5c16.33-82.37 81.41-147.3 163.8-163.5c-.0879 3.508-.1582 7.023-.4492 10.5C214.3 75.69 224.1 87.28 237.3 88.41C237.1 88.47 238.7 88.5 239.3 88.5c12.34 0 22.81-9.469 23.88-21.97c.5156-6.031 .7715-12.06 .7871-18.12C372.5 52.56 459.7 140 463.6 248.5c-6.771-.1211-13.55-.2227-20.37 .457c-13.19 1.281-22.84 13.03-21.53 26.22s12.94 23.16 26.22 21.53c4.023-.3828 8.02-.1523 12.03-.1797C443.6 378.9 378.6 443.8 296.2 460zM232.3 107.1c-11.94-5.5-26.25-.3125-31.84 11.72C188.1 145.5 168.7 168.6 144.4 185.6C136.5 191.1 128.1 196 119.4 200.1c-12 5.656-17.12 19.97-11.44 31.94c4.094 8.688 12.72 13.75 21.72 13.75c3.438 0 6.906-.75 10.22-2.312C151 238.3 161.8 232 171.9 224.9C203.1 203.1 228.1 173.3 244 138.9C249.6 126.9 244.3 112.6 232.3 107.1zM371.1 268.1c-10.72 5.094-21.16 11.22-31.03 18.12c-31.5 22.09-56.59 52.16-72.5 87c-5.531 12.03-.2187 26.28 11.84 31.78c3.219 1.5 6.625 2.188 9.969 2.188c9.094 0 17.78-5.188 21.81-14.03c12.38-27.06 31.91-50.44 56.44-67.63c7.688-5.406 15.81-10.16 24.16-14.12c11.94-5.688 17.03-20.03 11.31-32C397.4 268.3 383.2 263.2 371.1 268.1z"/></svg>