<svg xmlns="http://www.w3.org/2000/svg" viewBox="0 0 640 512"><!--! Font Awesome Pro 6.0.0-alpha3 by @fontawesome - https://fontawesome.com License - https://fontawesome.com/license (Commercial License) --><path d="M512 320c-52.88 0-96 43.13-96 96s43.13 96 96 96s96-43.13 96-96S564.9 320 512 320zM511.1 464c-26.51 0-48.02-21.51-48.02-48.02s21.51-48.03 48.02-48.03c26.51 0 48.02 21.52 48.02 48.03S538.5 464 511.1 464zM625.6 54.41L608.8 32.41c-27.12-37.01-77.63-41.88-112.3-16.88L308.7 152.2c-48 34.63-92 73.27-130.1 117.8c-54.75 62.64-106 101.3-135.5 122.5c-8.5-9.75-23-11.25-33.25-3.25c-10.25 8.25-12 23.38-3.75 33.63l64 80.02c7.875 9.875 23 12.38 33.88 3.75c9.25-7.5 11.12-20.38 5.375-30.38c29.12-21 81.88-56.63 155.1-88.02c54.75-23 106.5-52.13 154.6-86.89l185.9-135.4C640.8 140.1 651.7 90.05 625.6 54.41zM575.1 128.3l-185.1 135.6c-75 52.76-136.4 76.02-161.6 87.64L202.1 314.5c18.88-20.25 59.75-69.26 134.8-123.4l187.9-136.3c13.5-9.75 34.25-8.875 45.5 6.375l13 21.51C593.5 96.92 590.3 116.7 575.1 128.3z"/></svg>