<svg xmlns="http://www.w3.org/2000/svg" viewBox="0 0 512 512"><!--! Font Awesome Pro 6.0.0-alpha3 by @fontawesome - https://fontawesome.com License - https://fontawesome.com/license (Commercial License) --><path d="M256 15.1C123.5 15.1 16 123.5 16 256S123.5 495.1 256 495.1S495.1 388.5 495.1 256S388.5 15.1 256 15.1zM271.2 64.77c38.42 3.021 73.63 17.38 102.4 39.75L256 222.1L222.3 188.4C250 154 267.7 111.4 271.2 64.77zM188.1 154.1l-49.61-49.61C162.7 85.68 191.5 72.55 222.9 67.05C219.4 99.57 206.9 129.4 188.1 154.1zM222.1 256l-117.5 117.5C82.14 344.8 67.79 309.6 64.77 271.2c46.59-3.477 89.25-21.13 123.6-48.85L222.1 256zM256 289.9l33.7 33.7c-27.71 34.35-45.37 77.01-48.85 123.6c-38.42-3.021-73.63-17.38-102.4-39.75L256 289.9zM323.9 357.9l49.61 49.61c-24.23 18.84-53.02 31.97-84.47 37.46C292.6 412.4 305.1 382.6 323.9 357.9zM289.9 256l117.5-117.5c22.38 28.77 36.73 63.97 39.75 102.4c-46.59 3.477-89.25 21.13-123.6 48.85L289.9 256zM104.5 138.5l49.61 49.61C129.4 206.9 99.57 219.4 67.05 222.9C72.55 191.5 85.68 162.7 104.5 138.5zM407.5 373.5l-49.61-49.61c24.78-18.82 54.56-31.34 87.07-34.86C439.5 320.5 426.3 349.3 407.5 373.5z"/></svg>