<svg xmlns="http://www.w3.org/2000/svg" viewBox="0 0 640 512"><!--! Font Awesome Pro 6.0.0-alpha3 by @fontawesome - https://fontawesome.com License - https://fontawesome.com/license (Commercial License) --><path d="M632.5 177.7C574 72.24 456.2 0 320 0S65.96 72.24 7.455 177.7C2.328 186.1 0 197.5 0 208.1v118c0 25.43 15.05 48.44 38.35 58.63l84.6 37.01l-6.441-55.21l-58.92-25.78C51.76 338.3 48 332.5 48 326.1V208.1c0-2.871 .5215-5.457 1.43-7.096C101.8 106.6 205.5 48 320 48s218.2 58.63 270.6 153C591.5 202.6 592 205.2 592 208.1v118c0 6.357-3.764 12.11-9.586 14.66l-58.92 25.78l-6.441 55.21l84.6-37.01C624.9 374.6 640 351.6 640 326.1V208.1C640 197.5 637.7 186.1 632.5 177.7zM528 272V256c0-8.836-7.164-16-16-16H128C119.2 240 112 247.2 112 256v16C112 280.8 119.2 288 128 288h15.67l24.46 206.6c.9062 7.605 6.188 13.1 13.56 16.41c2.062 .6914 4.183 1.012 6.308 1.012c5.375 0 10.66-2.152 14.5-6.125l51.5-53.42l51.5 53.42C309.3 509.8 314.5 512 320 512s10.72-2.217 14.5-6.129l51.5-53.42l51.5 53.42C441.3 509.8 446.6 512 452 512c2.125 0 4.25-.3242 6.312-1.016c7.375-2.418 12.66-8.809 13.56-16.41L496.3 288H512C520.8 288 528 280.8 528 272zM357.3 288L320 326.7L282.7 288H357.3zM187.1 314.1L183.1 288h35.15L187.1 314.1zM202.9 448.2L196.3 392.6l30.08 31.2L202.9 448.2zM253.1 395.2L208.1 348.5l42.34-35.76l41.09 42.63L253.1 395.2zM320 463.7L281.6 423.8L320 383.1l38.41 39.85L320 463.7zM347.6 355.4l41.09-42.63l42.34 35.76l-45.02 46.71L347.6 355.4zM437.1 448.2l-23.5-24.38l30.08-31.2L437.1 448.2zM452.9 314.1L420.9 288h35.15L452.9 314.1zM480 208V168C480 145.9 462.1 128 440 128h-240C177.9 128 160 145.9 160 168V208h48v-32h224v32H480z"/></svg>