<svg xmlns="http://www.w3.org/2000/svg" viewBox="0 0 576 512"><!--! Font Awesome Pro 6.0.0-alpha3 by @fontawesome - https://fontawesome.com License - https://fontawesome.com/license (Commercial License) --><path d="M552 192l-136.5-.0046l-56.65-175.4c-4.062-12.59-17.58-19.53-30.22-15.47c-12.61 4.078-19.53 17.59-15.47 30.22l51.81 160.6H211L262.8 31.38c4.062-12.62-2.859-26.14-15.47-30.22C234.8-2.885 221.2 4.036 217.2 16.63L160.5 191.1L24 192c-13.25 0-24 10.75-24 23.1c0 13.25 10.75 23.1 24 23.1h18.85l45.6 214.9C95.47 488 125.1 512 158.9 512h258.2c33.8 0 63.42-23.1 70.44-57.06l45.6-214.9H552c13.25 0 24-10.75 24-23.1C576 202.8 565.3 192 552 192zM440.6 444.1c-2.328 11.03-12.2 19.03-23.47 19.03H158.9c-11.27 0-21.14-7.1-23.47-19.03L91.94 240h53.16l-7.943 24.62C133.1 277.3 140 290.8 152.6 294.8C155.1 295.6 157.6 296 160 296c10.14 0 19.56-6.469 22.84-16.62l12.7-39.37h184.9l12.7 39.37C396.4 289.5 405.9 296 416 296c2.438 0 4.922-.375 7.375-1.156c12.61-4.078 19.53-17.59 15.47-30.22l-7.943-24.62h53.16L440.6 444.1zM224 319.1v87.1c0 8.844-7.156 15.1-16 15.1S192 416.8 192 407.1V319.1c0-8.844 7.156-15.1 16-15.1S224 311.2 224 319.1zM304 319.1v87.1c0 8.844-7.156 15.1-16 15.1s-16-7.156-16-15.1V319.1c0-8.844 7.156-15.1 16-15.1S304 311.2 304 319.1zM384 319.1v87.1c0 8.844-7.156 15.1-16 15.1S352 416.8 352 407.1V319.1c0-8.844 7.156-15.1 16-15.1S384 311.2 384 319.1z"/></svg>