<svg xmlns="http://www.w3.org/2000/svg" viewBox="0 0 640 512"><!--! Font Awesome Pro 6.0.0-alpha3 by @fontawesome - https://fontawesome.com License - https://fontawesome.com/license (Commercial License) --><path d="M630.8 469.1l-60.48-47.41c3.414-6.543 5.672-13.79 5.672-21.71c0-26.51-21.49-47.1-47.1-47.1c-12.06 0-22.95 4.609-31.38 11.95l-51.97-40.74c29.1-43.36 42.56-98.02 31.43-155.9c-15.71-81.77-81.52-147.8-163.3-163.4C236.1-10.71 165.6 17.45 119.3 68.17L38.81 5.117C28.34-3.054 13.32-1.247 5.115 9.19C-3.057 19.63-1.234 34.72 9.188 42.89l591.1 463.1C605.6 510.3 610.8 512 615.1 512c7.125 0 14.17-3.159 18.9-9.19C643.1 492.4 641.2 477.3 630.8 469.1zM317.2 223.3l-70.99-55.64c7.467-4.789 16.24-7.691 25.76-7.691c26.5 0 47.1 21.5 47.1 47.1C320 213.4 318.9 218.5 317.2 223.3zM426.2 251.5c-4.027 15.2-10.5 29.49-18.85 42.54L356 253.7c10.25-18.64 14.69-40.92 10.21-64.52c-7.133-37.56-37.86-68.28-75.42-75.41c-32.19-6.113-62.07 4.055-83.3 23.54l-51.28-40.19c19.55-20.58 44.45-36 72.32-43.38C350.2 21.52 458.5 129.8 426.2 251.5zM464 463.1L413.7 464C415.1 458.9 416 453.6 416 448v-25.71l-83.84-65.71c-5.455 2.156-10.98 4.164-16.7 5.676c-114.6 30.38-217.3-64.11-201.8-176.9L71.82 152.5C66.91 170.2 64 188.7 64 207.1c0 58.75 24.62 111.1 63.1 149.8L128 448c0 35.2 28.8 64 64 64l272-.002c17.73 0 34.07-5.498 47.89-14.56l-43.51-34.1C466.9 463.5 465.5 463.1 464 463.1zM368 448c0 8.836-7.164 16-16 16H192c-8.836 0-16-7.164-16-16v-55.63c28.75 15 61.38 23.62 96 23.62S339.3 407.4 368 392.4V448z"/></svg>