<svg xmlns="http://www.w3.org/2000/svg" viewBox="0 0 640 512"><!--! Font Awesome Pro 6.0.0-alpha3 by @fontawesome - https://fontawesome.com License - https://fontawesome.com/license (Commercial License) --><path d="M521 100.8c4.125 0 8.25-1.123 12-3.244l55.38-31.94c11.25-6.737 14.88-21.21 8.375-32.44c-6.5-11.35-21-15.35-32.38-8.982L509 56.14c-9.5 5.365-14 16.47-11.25 26.95C500.6 93.57 510.1 100.8 521 100.8zM112 192.6c0-13.22-10.75-23.95-24-23.95h-64c-13.25 0-24 10.73-24 23.95s10.75 23.95 24 23.95h64C101.2 216.6 112 205.8 112 192.6zM51.62 65.62l55.5 31.94c7.375 4.491 16.63 4.616 24.25 .3742C138.9 93.57 143.5 85.58 143.5 76.97C143.4 68.24 138.6 60.26 131.1 56.14L75.62 24.2C68.25 19.71 59 19.59 51.38 23.83C43.88 28.19 39.25 36.18 39.25 44.79C39.38 53.52 44.12 61.5 51.62 65.62zM616 168.7h-64c-13.25 0-24 10.73-24 23.95s10.75 23.95 24 23.95h64c13.25 0 24-10.73 24-23.95S629.3 168.7 616 168.7zM479.9 208.6c0-77.6-54.38-139.6-127.9-154.8V32.94c.375-11.6-5.75-22.58-15.75-28.44c-10-5.988-22.5-5.988-32.5 0C293.6 10.35 287.6 21.33 288 32.94v20.83C214.5 68.99 160.1 130.1 160.1 208.6c0 102.1-36.12 133-55.5 153.7C99 368.2 96 375.1 96 384.1c.125 16.34 13 31.98 32.13 31.98h383.8c19.12 0 32-15.64 32.13-31.98c0-8.109-3-15.88-8.625-21.74C516 341.6 479.9 310.6 479.9 208.6zM163.5 368.3C184.8 340.3 208 294.1 208 209.2V208.6C208 146.8 258.1 96.81 320 96.81s112 50.03 112 111.8v.6238c0 84.96 23.25 131.1 44.5 159.1H163.5zM319.1 512C355.4 512 384 483.3 384 448H256C256 483.3 284.6 512 319.1 512z"/></svg>