<svg xmlns="http://www.w3.org/2000/svg" viewBox="0 0 448 512"><!--! Font Awesome Pro 6.0.0-alpha3 by @fontawesome - https://fontawesome.com License - https://fontawesome.com/license (Commercial License) --><path d="M223.1 512C259.4 512 288 483.3 288 448H160C160 483.3 188.6 512 223.1 512zM439.4 362.3c-19.38-20.71-55.5-51.68-55.5-153.7c0-77.6-54.38-139.6-127.9-154.8V32.94c.375-11.6-5.75-22.58-15.75-28.44c-10-5.988-22.5-5.988-32.5 0C197.6 10.35 191.6 21.33 192 32.94v20.83C118.5 68.99 64.13 130.1 64.13 208.6c0 102.1-36.13 133-55.5 153.7C3 368.2 0 375.1 0 384.1c.125 16.34 13 31.98 32.13 31.98h383.8c19.12 0 32-15.64 32.13-31.98C448 375.1 445 368.2 439.4 362.3zM67.5 368.3C88.75 340.3 112 294.1 112 209.2V208.6C112 146.8 162.1 96.81 224 96.81s112 50.03 112 111.8v.6238c0 84.96 23.25 131.1 44.5 159.1H67.5zM224 255.5c13.25 0 24-10.73 24-23.95V151.7c0-13.22-10.78-23.85-24.03-23.85S200 138.5 200 151.7v79.84C200 244.8 210.8 255.5 224 255.5zM224 287.5c-17.67 0-32 14.3-32 31.94s14.33 31.94 32 31.94s32-14.3 32-31.94S241.7 287.5 224 287.5z"/></svg>