<svg xmlns="http://www.w3.org/2000/svg" viewBox="0 0 448 512"><!--! Font Awesome Pro 6.0.0-alpha3 by @fontawesome - https://fontawesome.com License - https://fontawesome.com/license (Commercial License) --><path d="M439.4 362.3C420.1 341.5 383.9 310.2 383.9 208c0-77.75-54.38-139.9-127.9-155.1V32c0-17.62-14.38-32-32-32S192 14.38 192 32v20.88C118.5 68.12 64.13 130.2 64.13 208c0 102.2-36.25 133.5-55.5 154.3C2.625 368.8 0 376.5 0 384c.125 16.38 13 32 32.13 32h383.8c19.12 0 32-15.62 32.13-32C448 376.5 445.4 368.8 439.4 362.3zM67.5 368C88.75 340 112 293.6 112 208.6V208C112 146.1 162.1 96 224 96s112 50.12 112 112v.625C336 293.6 359.2 340 380.5 368H67.5zM223.1 512C259.4 512 288 483.4 288 448H160C160 483.4 188.6 512 223.1 512z"/></svg>