<svg xmlns="http://www.w3.org/2000/svg" viewBox="0 0 640 512"><!--! Font Awesome Pro 6.0.0-alpha3 by @fontawesome - https://fontawesome.com License - https://fontawesome.com/license (Commercial License) --><path d="M630.8 469.1l-90.65-71.05c2.205-4.418 3.805-9.09 3.842-14.06c0-7.5-2.625-15.25-8.625-21.75c-19.25-20.75-55.5-51.1-55.5-154.2c0-77.75-54.37-139.9-127.9-155.1V32c0-17.62-14.38-32-32-32s-31.1 14.38-31.1 32V52.88c-42.7 8.859-78.5 33.78-101.2 68.22L38.81 5.117C28.34-3.054 13.32-1.247 5.115 9.19c-8.172 10.44-6.349 25.53 4.073 33.7L601.2 506.9C605.6 510.3 610.8 512 615.1 512c7.125 0 14.17-3.159 18.9-9.19C643.1 492.4 641.2 477.3 630.8 469.1zM224.7 150.8C244.1 118.1 279.2 96 320 96c61.88 0 112 50.13 112 112v.625c0 55.46 9.949 94.28 22.73 122.5L224.7 150.8zM319.1 512c35.38 0 64-28.62 64-63.1H256C256 483.4 284.6 512 319.1 512zM163.5 368c16.79-22.12 34.64-56.07 41.47-111.1L159.5 221.3c-3.148 91.16-36.56 121.2-54.9 140.1c-6 6.5-8.625 14.25-8.625 21.75c.125 16.38 12.1 31.1 32.12 31.1L407.1 416l-61.24-48H163.5z"/></svg>