<svg xmlns="http://www.w3.org/2000/svg" viewBox="0 0 640 512"><!--! Font Awesome Pro 6.0.0-alpha3 by @fontawesome - https://fontawesome.com License - https://fontawesome.com/license (Commercial License) --><path d="M512 224c-13.91 0-27.06 2.779-39.6 6.885l-98.44-182.1C368.4 38.44 357.6 32 345.8 32H310.6c-13.25 0-24 10.74-24 24c0 13.25 10.75 24 24 24h25.69l34.59 64H221L194.2 106.1C189.7 99.78 182.4 96 174.6 96h-56c-13.25 0-24 10.74-24 24c0 13.25 10.75 24 24 24h43.59l22.02 31.1L157.7 228.1C148.1 225.7 138.3 224 128 224c-70.69 0-128 57.31-128 128c0 70.69 57.31 128 128 128c65.21 0 118.4-48.95 126.4-112h48.19c8.482 0 16.33-4.48 20.65-11.78l84.79-143.5l22.38 41.41C402.3 277.6 384 312.5 384 352c0 70.69 57.31 128 128 128s128-57.31 128-128C640 281.3 582.7 224 512 224zM128 432c-44.11 0-80-35.89-80-80S83.89 272 128 272c2.523 0 4.891 .5508 7.35 .7871L105.1 333.3c-3.719 7.438-3.312 16.28 1.062 23.36C110.5 363.7 118.3 368 126.6 368h79.8C198.9 404.5 166.6 432 128 432zM165.4 320l50.24-100.5L286.8 320H165.4zM314.7 276.3L255 192h109.5L314.7 276.3zM512 432c-44.11 0-80-35.89-80-80c0-21.12 8.385-40.22 21.81-54.54l24.24 44.84c6.301 11.66 20.86 16 32.52 9.707c11.67-6.301 16.03-20.88 9.725-32.54l-24.72-45.73C500.9 272.6 506.4 272 512 272c44.11 0 80 35.89 80 80S556.1 432 512 432z"/></svg>