<svg xmlns="http://www.w3.org/2000/svg" viewBox="0 0 320 512"><!--! Font Awesome Pro 6.0.0-alpha3 by @fontawesome - https://fontawesome.com License - https://fontawesome.com/license (Commercial License) --><path d="M261.4 237.3C277.9 218.9 288 194.6 288 168c0-51.87-38.28-94.62-88-102.4V24C200 10.75 189.3 0 176 0S152 10.75 152 24V64h-48V24C104 10.75 93.25 0 80 0S56 10.75 56 24V64h-32C10.75 64 0 74.75 0 88v336c0 12.53 9.625 22.94 22.12 23.94C29.5 448.5 41.28 448.7 56 448.8V488C56 501.3 66.75 512 80 512s24-10.75 24-24v-39.61l48-.7344V488c0 13.25 10.75 24 24 24s24-10.75 24-24v-41.03c3.182-.0391 6.504-.0898 9.625-.123C270.5 446.2 320 396.2 320 335.4C320 293.1 296.3 256.2 261.4 237.3zM48 112h136c30.88 0 56 25.12 56 56S214.9 224 184 224H48V112zM209.1 398.8C188.5 399.1 72.25 400.8 48 400.8V272h160.6C243.5 272 272 300.5 272 335.4C272 370 243.8 398.5 209.1 398.8z"/></svg>