<svg xmlns="http://www.w3.org/2000/svg" viewBox="0 0 512 512"><!--! Font Awesome Pro 6.0.0-alpha3 by @fontawesome - https://fontawesome.com License - https://fontawesome.com/license (Commercial License) --><path d="M488 120C501.3 120 512 109.3 512 96s-10.75-24-24-24H24C10.75 72 0 82.75 0 96s10.75 24 24 24H488zM24 224C10.75 224 0 234.7 0 248v176C0 437.3 10.75 448 24 448s24-10.75 24-24v-176C48 234.7 37.25 224 24 224zM488 232H152C138.7 232 128 242.7 128 256s10.75 24 24 24h336C501.3 280 512 269.3 512 256S501.3 232 488 232zM488 392H152C138.7 392 128 402.7 128 416s10.75 24 24 24h336c13.25 0 24-10.75 24-24S501.3 392 488 392z"/></svg>