<svg xmlns="http://www.w3.org/2000/svg" viewBox="0 0 448 512"><!--! Font Awesome Pro 6.0.0-alpha3 by @fontawesome - https://fontawesome.com License - https://fontawesome.com/license (Commercial License) --><path d="M424 464H416v-64h8c13.25 0 24-10.75 24-24v-352C448 10.75 437.3 0 424 0H80C35.89 0 0 35.88 0 80v352C0 476.1 35.89 512 80 512h344c13.25 0 24-10.75 24-24S437.3 464 424 464zM48 80c0-17.66 14.36-32 32-32h320V352h-320c-11.38 0-22.2 2.375-32 6.688V80zM48 432c0-17.66 14.36-32 32-32h288v64h-288C62.36 464 48 449.7 48 432z"/></svg>