<svg xmlns="http://www.w3.org/2000/svg" viewBox="0 0 448 512"><!--! Font Awesome Pro 6.0.0-alpha3 by @fontawesome - https://fontawesome.com License - https://fontawesome.com/license (Commercial License) --><path d="M424 400c13.25 0 24-10.75 24-24v-352C448 10.75 437.3 0 424 0H80C35.89 0 0 35.88 0 80v352C0 476.1 35.89 512 80 512h344c13.25 0 24-10.75 24-24s-10.75-24-24-24H416v-64H424zM368 464h-288c-17.64 0-32-14.34-32-32s14.36-32 32-32h288V464zM400 352h-320c-11.38 0-22.2 2.375-32 6.688V80c0-17.66 14.36-32 32-32h320V352zM141.3 301.5c11.89 5.938 26.27 1.156 32.2-10.75L190.8 256h98.34l17.36 34.72C310.7 299.2 319.2 304 328 304c3.609 0 7.266-.8125 10.72-2.531c11.86-5.938 16.66-20.34 10.73-32.19l-88-176c-8.125-16.31-34.81-16.31-42.94 0l-88 176C124.6 281.1 129.4 295.5 141.3 301.5zM240 157.7L265.2 208H214.8L240 157.7z"/></svg>