<svg xmlns="http://www.w3.org/2000/svg" viewBox="0 0 448 512"><!--! Font Awesome Pro 6.0.0-alpha3 by @fontawesome - https://fontawesome.com License - https://fontawesome.com/license (Commercial License) --><path d="M424 400c13.25 0 24-10.75 24-24v-352C448 10.75 437.3 0 424 0H80C35.89 0 0 35.88 0 80v352C0 476.1 35.89 512 80 512h344c13.25 0 24-10.75 24-24s-10.75-24-24-24H416v-64H424zM368 464h-288c-17.64 0-32-14.34-32-32s14.36-32 32-32h288V464zM400 352H352v-16C352 291.8 316.2 256 272 256h-64C163.8 256 128 291.8 128 336V352H80c-11.38 0-22.2 2.375-32 6.688V80c0-17.66 14.36-32 32-32h320V352zM240 224c35.35 0 64-28.66 64-64s-28.65-64-64-64s-64 28.66-64 64S204.7 224 240 224z"/></svg>