<svg xmlns="http://www.w3.org/2000/svg" viewBox="0 0 576 512"><!--! Font Awesome Pro 6.0.0-alpha3 by @fontawesome - https://fontawesome.com License - https://fontawesome.com/license (Commercial License) --><path d="M360 464H352V448h-48v16h-224c-17.64 0-32-14.34-32-32s14.36-32 32-32h100.3c-9.805-13.99-16.16-30.36-18.72-48H80c-11.38 0-22.2 2.375-32 6.688V176c0-17.66 14.36-32 32-32H160V96H80C35.89 96 0 131.9 0 176v256C0 476.1 35.89 512 80 512h280c13.25 0 24-10.75 24-24S373.3 464 360 464zM552 304C565.3 304 576 293.3 576 280v-256C576 10.75 565.3 0 552 0H272C227.9 0 192 35.88 192 80v256C192 380.1 227.9 416 272 416h280c13.25 0 24-10.75 24-24s-10.75-24-24-24H544v-64H552zM496 368h-224c-17.64 0-32-14.34-32-32s14.36-32 32-32h224V368zM528 256h-256c-11.38 0-22.2 2.375-32 6.688V80c0-17.66 14.36-32 32-32h256V256z"/></svg>