<svg xmlns="http://www.w3.org/2000/svg" viewBox="0 0 448 512"><!--! Font Awesome Pro 6.0.0-alpha3 by @fontawesome - https://fontawesome.com License - https://fontawesome.com/license (Commercial License) --><path d="M232 320C298.3 320 352 266.3 352 200S298.3 80 232 80S112 133.8 112 200S165.8 320 232 320zM318.4 184h-34.63c-1.375-23.62-5.75-45-12.25-62.25C295.6 134 313.4 156.6 318.4 184zM283.8 216h34.63c-5 27.38-22.88 50-46.88 62.25C277.1 261 282.4 239.6 283.8 216zM232 114.3C238.9 122.6 249.5 146.6 252 184h-40C214.5 146.6 225.1 122.6 232 114.3zM252 216c-2.5 37.38-13.12 61.38-20 69.75C225.1 277.4 214.5 253.4 212 216H252zM192.5 121.8C185.1 139 181.6 160.4 180.3 184H145.6C150.6 156.6 168.4 134 192.5 121.8zM180.3 216C181.6 239.6 185.1 261 192.5 278.3C168.5 266 150.6 243.4 145.6 216H180.3zM424 400c13.25 0 24-10.75 24-24v-352C448 10.75 437.3 0 424 0H80C35.89 0 0 35.88 0 80v352C0 476.1 35.89 512 80 512h344c13.25 0 24-10.75 24-24s-10.75-24-24-24H416v-64H424zM368 464h-288c-17.64 0-32-14.34-32-32s14.36-32 32-32h288V464zM400 352h-320c-11.38 0-22.2 2.375-32 6.688V80c0-17.66 14.36-32 32-32h320V352z"/></svg>