<svg xmlns="http://www.w3.org/2000/svg" viewBox="0 0 448 512"><!--! Font Awesome Pro 6.0.0-alpha3 by @fontawesome - https://fontawesome.com License - https://fontawesome.com/license (Commercial License) --><path d="M306.6 200l27.62-46.38c3.749-6.125 3.749-13.88 .25-20.12c-3.5-6.25-10.25-10.12-17.38-10.12h-56.38L233 77.13C229.5 71.13 223 67.5 216 67.5S202.4 71.13 198.8 77.25L171.1 123.5H114.9C107.6 123.4 101 127.3 97.38 133.6c-3.625 6.125-3.5 13.88 .25 20L125.4 200L97.75 246.4C93.1 252.5 93.1 260.3 97.5 266.5C101 272.8 107.8 276.6 114.9 276.6h56.38L199 322.9c3.5 6 10 9.625 17 9.625c7.125 0 13.62-3.75 17.25-9.75l27.62-46.25h56.25c7.25 .125 13.88-3.75 17.5-10.12c3.625-6.125 3.5-13.88-.25-20L306.6 200zM309.1 147.4l-17.37 29.25l-17.5-29.12L309.1 147.4zM216 95.38l16.75 28.12H199.1L216 95.38zM121.1 147.5h34.88l-17.5 29.12L121.1 147.5zM121.1 252.5L139.5 223.4L157 252.5H121.1zM216 304.6L199.3 276.5h33.5L216 304.6zM247.1 252.5H184.9L153.4 200l31.5-52.5h62.25L278.6 200L247.1 252.5zM275.1 252.5l17.5-29.12l17.37 29.12H275.1zM368 0H24C10.75 0 0 10.75 0 24v352c0 13.25 10.75 24 24 24H32v64H24C10.75 464 0 474.8 0 488S10.75 512 24 512H368c44.11 0 80-35.88 80-80v-352C448 35.88 412.1 0 368 0zM368 464h-288v-64h288c17.64 0 32 14.34 32 32S385.6 464 368 464zM400 358.7C390.2 354.4 379.4 352 368 352h-320V48h320c17.64 0 32 14.34 32 32V358.7z"/></svg>