<svg xmlns="http://www.w3.org/2000/svg" viewBox="0 0 448 512"><!--! Font Awesome Pro 6.0.0-alpha3 by @fontawesome - https://fontawesome.com License - https://fontawesome.com/license (Commercial License) --><path d="M248.4 270.9L244.9 271c-39.13 0-71-31.88-71-71s31.88-71 71-71l3.5 .125c6.375 0 12-4.625 13.38-10.88c1.25-6.625-2.25-13.12-8.625-15.62C241.3 98.25 229 96 216.6 96c-57.25 0-104 46.63-104 104s46.63 104 104 104c12.38 0 24.62-2.25 36.13-6.5c5.5-1.875 9.25-7.125 9.25-13C261.1 277 255.9 270.9 248.4 270.9zM304.1 172l-12.75-25.88c-1.375-2.75-5.375-2.75-6.75 0L271.9 172l-28.62 4.25c-3.125 .375-4.375 4.125-2.125 6.375l20.75 20.12L257 231.3c-.5 3 2.625 5.375 5.375 4L288 221.8l25.62 13.5c2.75 1.375 5.875-.875 5.375-4l-4.875-28.5l20.75-20.12c2.25-2.25 1-6-2.125-6.375L304.1 172zM368 0H24C10.75 0 0 10.75 0 24v352c0 13.25 10.75 24 24 24H32v64H24C10.75 464 0 474.8 0 488S10.75 512 24 512H368c44.11 0 80-35.88 80-80v-352C448 35.88 412.1 0 368 0zM368 464h-288v-64h288c17.64 0 32 14.34 32 32S385.6 464 368 464zM400 358.7C390.2 354.4 379.4 352 368 352h-320V48h320c17.64 0 32 14.34 32 32V358.7z"/></svg>