<svg xmlns="http://www.w3.org/2000/svg" viewBox="0 0 448 512"><!--! Font Awesome Pro 6.0.0-alpha3 by @fontawesome - https://fontawesome.com License - https://fontawesome.com/license (Commercial License) --><path d="M160 208L208 208v96c0 8.875 7.125 16 16 16l32 .0004c8.875 0 16-7.127 16-16v-96L320 208c8.875 0 16-7.129 16-16V160c0-8.875-7.125-15.1-16-15.1L272 144V96c0-8.875-7.125-15.99-16-15.99h-32C215.1 80.01 208 87.13 208 96v48L160 144C151.1 144 144 151.1 144 160v32C144 200.9 151.1 208 160 208zM424 400c13.25 0 24-10.75 24-24v-352C448 10.75 437.3 0 424 0H80C35.89 0 0 35.88 0 80v352C0 476.1 35.89 512 80 512h344c13.25 0 24-10.75 24-24s-10.75-24-24-24H416v-64H424zM368 464h-288c-17.64 0-32-14.34-32-32s14.36-32 32-32h288V464zM400 352h-320c-11.38 0-22.2 2.375-32 6.688V80c0-17.66 14.36-32 32-32h320V352z"/></svg>