<svg xmlns="http://www.w3.org/2000/svg" viewBox="0 0 448 512"><!--! Font Awesome Pro 6.0.0-alpha3 by @fontawesome - https://fontawesome.com License - https://fontawesome.com/license (Commercial License) --><path d="M216 184h16c8.836 0 16-7.164 16-16v-16c0-8.838-7.164-16-16-16h-16c-8.836 0-16 7.162-16 16v16C200 176.8 207.2 184 216 184zM216 280h16c8.836 0 16-7.164 16-16v-16c0-8.838-7.164-16-16-16h-16c-8.836 0-16 7.162-16 16v16C200 272.8 207.2 280 216 280zM216 376h16c8.836 0 16-7.164 16-16v-16c0-8.838-7.164-16-16-16h-16c-8.836 0-16 7.162-16 16v16C200 368.8 207.2 376 216 376zM312 88h16c8.836 0 16-7.164 16-16v-16c0-8.838-7.164-16-16-16h-16c-8.836 0-16 7.162-16 16v16C296 80.84 303.2 88 312 88zM216 88h16c8.836 0 16-7.164 16-16v-16c0-8.838-7.164-16-16-16h-16c-8.836 0-16 7.162-16 16v16C200 80.84 207.2 88 216 88zM312 280h16c8.836 0 16-7.164 16-16v-16c0-8.838-7.164-16-16-16h-16c-8.836 0-16 7.162-16 16v16C296 272.8 303.2 280 312 280zM24 184h16c8.836 0 16-7.164 16-16v-16c0-8.838-7.164-16-16-16h-16c-8.836 0-16 7.162-16 16v16C8 176.8 15.16 184 24 184zM24 280h16c8.836 0 16-7.164 16-16v-16c0-8.838-7.164-16-16-16h-16c-8.836 0-16 7.162-16 16v16C8 272.8 15.16 280 24 280zM120 88h16c8.836 0 16-7.164 16-16v-16c0-8.838-7.164-16-16-16h-16c-8.836 0-16 7.162-16 16v16C104 80.84 111.2 88 120 88zM24 376h16c8.836 0 16-7.164 16-16v-16c0-8.838-7.164-16-16-16h-16c-8.836 0-16 7.162-16 16v16C8 368.8 15.16 376 24 376zM24 88h16c8.836 0 16-7.164 16-16v-16c0-8.838-7.164-16-16-16h-16c-8.836 0-16 7.162-16 16v16C8 80.84 15.16 88 24 88zM120 280h16c8.836 0 16-7.164 16-16v-16c0-8.838-7.164-16-16-16h-16c-8.836 0-16 7.162-16 16v16C104 272.8 111.2 280 120 280zM432 32H416c-8.875 0-16 7.125-16 16V416c0 8.836-7.164 16-16 16H16C7.125 432 0 439.1 0 448v16C0 472.9 7.125 480 16 480H384c35.35 0 64-28.65 64-64V48C448 39.13 440.9 32 432 32z"/></svg>