<svg xmlns="http://www.w3.org/2000/svg" viewBox="0 0 448 512"><!--! Font Awesome Pro 6.0.0-alpha3 by @fontawesome - https://fontawesome.com License - https://fontawesome.com/license (Commercial License) --><path d="M232 232h-16c-8.836 0-16 7.162-16 16v16c0 8.836 7.164 16 16 16h16c8.836 0 16-7.164 16-16v-16C248 239.2 240.8 232 232 232zM328 424h-16c-8.836 0-16 7.162-16 16v16c0 8.836 7.164 16 16 16h16c8.836 0 16-7.164 16-16v-16C344 431.2 336.8 424 328 424zM232 136h-16c-8.836 0-16 7.162-16 16v16c0 8.836 7.164 16 16 16h16c8.836 0 16-7.164 16-16v-16C248 143.2 240.8 136 232 136zM136 424h-16c-8.836 0-16 7.162-16 16v16c0 8.836 7.164 16 16 16h16c8.836 0 16-7.164 16-16v-16C152 431.2 144.8 424 136 424zM232 424h-16c-8.836 0-16 7.162-16 16v16c0 8.836 7.164 16 16 16h16c8.836 0 16-7.164 16-16v-16C248 431.2 240.8 424 232 424zM136 232h-16c-8.836 0-16 7.162-16 16v16c0 8.836 7.164 16 16 16h16c8.836 0 16-7.164 16-16v-16C152 239.2 144.8 232 136 232zM232 328h-16c-8.836 0-16 7.162-16 16v16c0 8.836 7.164 16 16 16h16c8.836 0 16-7.164 16-16v-16C248 335.2 240.8 328 232 328zM424 136h-16c-8.836 0-16 7.162-16 16v16c0 8.836 7.164 16 16 16h16c8.836 0 16-7.164 16-16v-16C440 143.2 432.8 136 424 136zM328 232h-16c-8.836 0-16 7.162-16 16v16c0 8.836 7.164 16 16 16h16c8.836 0 16-7.164 16-16v-16C344 239.2 336.8 232 328 232zM424 232h-16c-8.836 0-16 7.162-16 16v16c0 8.836 7.164 16 16 16h16c8.836 0 16-7.164 16-16v-16C440 239.2 432.8 232 424 232zM424 328h-16c-8.836 0-16 7.162-16 16v16c0 8.836 7.164 16 16 16h16c8.836 0 16-7.164 16-16v-16C440 335.2 432.8 328 424 328zM424 424h-16c-8.836 0-16 7.162-16 16v16c0 8.836 7.164 16 16 16h16c8.836 0 16-7.164 16-16v-16C440 431.2 432.8 424 424 424zM432 32H64C28.65 32 0 60.65 0 96v368C0 472.9 7.125 480 16 480H32c8.875 0 16-7.125 16-16V96c0-8.838 7.164-16 16-16h368C440.9 80 448 72.88 448 64V48C448 39.13 440.9 32 432 32z"/></svg>