<svg xmlns="http://www.w3.org/2000/svg" viewBox="0 0 448 512"><!--! Font Awesome Pro 6.0.0-alpha3 by @fontawesome - https://fontawesome.com License - https://fontawesome.com/license (Commercial License) --><path d="M384 32H64C28.8 32 0 60.8 0 96v320c0 35.2 28.8 64 64 64h320c35.2 0 64-28.8 64-64V96C448 60.8 419.2 32 384 32zM200 432H64c-8.836 0-16-7.164-16-16V280h152V432zM200 232H48V96c0-8.838 7.164-16 16-16h136V232zM400 416c0 8.836-7.164 16-16 16h-136V280h152V416zM400 232h-152V80H384c8.836 0 16 7.162 16 16V232z"/></svg>