<svg xmlns="http://www.w3.org/2000/svg" viewBox="0 0 448 512"><!--! Font Awesome Pro 6.0.0-alpha3 by @fontawesome - https://fontawesome.com License - https://fontawesome.com/license (Commercial License) --><path d="M24 88h16c8.836 0 16-7.164 16-16v-16c0-8.838-7.164-16-16-16h-16c-8.836 0-16 7.162-16 16v16C8 80.84 15.16 88 24 88zM40 424h-16c-8.836 0-16 7.162-16 16v16c0 8.836 7.164 16 16 16h16c8.836 0 16-7.164 16-16v-16C56 431.2 48.84 424 40 424zM24 184h16c8.836 0 16-7.164 16-16v-16c0-8.838-7.164-16-16-16h-16c-8.836 0-16 7.162-16 16v16C8 176.8 15.16 184 24 184zM120 88h16c8.836 0 16-7.164 16-16v-16c0-8.838-7.164-16-16-16h-16c-8.836 0-16 7.162-16 16v16C104 80.84 111.2 88 120 88zM216 88h16c8.836 0 16-7.164 16-16v-16c0-8.838-7.164-16-16-16h-16c-8.836 0-16 7.162-16 16v16C200 80.84 207.2 88 216 88zM408 88h16c8.836 0 16-7.164 16-16v-16c0-8.838-7.164-16-16-16h-16c-8.836 0-16 7.162-16 16v16C392 80.84 399.2 88 408 88zM408 184h16c8.836 0 16-7.164 16-16v-16c0-8.838-7.164-16-16-16h-16c-8.836 0-16 7.162-16 16v16C392 176.8 399.2 184 408 184zM312 88h16c8.836 0 16-7.164 16-16v-16c0-8.838-7.164-16-16-16h-16c-8.836 0-16 7.162-16 16v16C296 80.84 303.2 88 312 88zM216 184h16c8.836 0 16-7.164 16-16v-16c0-8.838-7.164-16-16-16h-16c-8.836 0-16 7.162-16 16v16C200 176.8 207.2 184 216 184zM424 424h-16c-8.836 0-16 7.162-16 16v16c0 8.836 7.164 16 16 16h16c8.836 0 16-7.164 16-16v-16C440 431.2 432.8 424 424 424zM424 328h-16c-8.836 0-16 7.162-16 16v16c0 8.836 7.164 16 16 16h16c8.836 0 16-7.164 16-16v-16C440 335.2 432.8 328 424 328zM328 424h-16c-8.836 0-16 7.162-16 16v16c0 8.836 7.164 16 16 16h16c8.836 0 16-7.164 16-16v-16C344 431.2 336.8 424 328 424zM136 424h-16c-8.836 0-16 7.162-16 16v16c0 8.836 7.164 16 16 16h16c8.836 0 16-7.164 16-16v-16C152 431.2 144.8 424 136 424zM232 328h-16c-8.836 0-16 7.162-16 16v16c0 8.836 7.164 16 16 16h16c8.836 0 16-7.164 16-16v-16C248 335.2 240.8 328 232 328zM40 328h-16c-8.836 0-16 7.162-16 16v16c0 8.836 7.164 16 16 16h16c8.836 0 16-7.164 16-16v-16C56 335.2 48.84 328 40 328zM232 424h-16c-8.836 0-16 7.162-16 16v16c0 8.836 7.164 16 16 16h16c8.836 0 16-7.164 16-16v-16C248 431.2 240.8 424 232 424zM432 232h-416C7.125 232 0 239.1 0 248v16c0 8.875 7.125 16 16 16h416c8.875 0 16-7.125 16-16v-16C448 239.1 440.9 232 432 232z"/></svg>