<svg xmlns="http://www.w3.org/2000/svg" viewBox="0 0 512 512"><!--! Font Awesome Pro 6.0.0-alpha3 by @fontawesome - https://fontawesome.com License - https://fontawesome.com/license (Commercial License) --><path d="M145.7 286.9l34.02-34.08L80.11 153.4c33.88-24.5 74.38-37.88 116.9-37.88c34 0 66.76 8.5 95.76 24.38l35-34.88c-38.88-24.25-83.76-37.5-130.8-37.5c-55.38 0-107.9 18.25-151.1 51.63L38.61 111.9c-6.251-6.25-16.38-6.25-22.63 0L4.717 123.3C-1.533 129.5-1.524 139.7 4.727 145.9L145.7 286.9zM493.2 .2817L364.6 26.03c-12.25 2.375-16.88 17.72-8 26.47l34.5 34.49l-250.6 250.2L90.73 320.9c-2-.625-12.37-3.626-20.1 4.1l-63.75 63.4c-10.75 10.75-6.376 29.13 8.126 33.88l55.63 18.63l18.5 55.5c3 9 11.25 14.13 19.63 14.13c5.126 0 10.38-2 14.38-6l63.76-63.63c5.501-5.5 7.376-13.63 5.001-21l-16.65-49.44l250.6-250.5l34.5 34.47c8.876 9 23.1 4.251 26.5-7.1l25.72-128.6C514.1 7.029 503.5-1.718 493.2 .2817zM116.2 454.9l-14.88-44.75l-44.88-14.88l33-32.88l44.76 14.88l15 44.75L116.2 454.9zM455.7 94.92l-38.63-38.63l48.26-9.625L455.7 94.92zM407.1 183.9l-35 34.88c16.13 29.25 24.88 62.13 24.88 96.51c0 42.5-13.38 82.88-37.88 116.6l-100.3-100l-33.88 33.88l141.7 141.5c6.251 6.25 16.37 6.25 22.62 0l11.29-11.25c6.251-6.25 6.251-16.38 0-22.63l-7.251-7.25c33.38-43.13 51.63-95.51 51.63-150.9C445 268 431.7 222.9 407.1 183.9z"/></svg>