<svg xmlns="http://www.w3.org/2000/svg" viewBox="0 0 512 512"><!--! Font Awesome Pro 6.0.0-alpha3 by @fontawesome - https://fontawesome.com License - https://fontawesome.com/license (Commercial License) --><path d="M470.2 257.7c-10.73-25.76-20.87-50.09-20.87-71.68c0-6.975 2.904-15 6.582-25.17c5.979-16.53 13.42-37.09 13.42-65.82c0-62.29-42.96-94.96-85.34-95.05c-42.36 0-85.33 32.65-85.33 95.05c0 28.73 7.439 49.29 13.42 65.82c3.678 10.16 6.582 18.19 6.582 25.17c0 21.6-10.14 45.92-20.87 71.68C285.1 288.1 272 319.6 272 354c0 53.6 20.95 95.1 34.81 124.1C317.3 499.4 337.4 512 359.7 512h48.76c22.32 0 42.39-12.65 52.39-33C475.2 449.7 496 407.4 496 354C496 319.6 482.9 288.1 470.2 257.7zM383.9 48c18.6 .0371 37.43 14.6 37.43 47.05c0 20.31-5.367 35.15-10.56 49.49c-1.816 5.023-3.49 10.23-5.059 15.49h-43.44c-1.568-5.258-3.242-10.47-5.059-15.49c-5.189-14.35-10.56-29.18-10.56-49.49C346.7 62.55 365.4 48 383.9 48zM417.7 457.8C415.8 461.7 412.3 464 408.4 464h-48.76c-3.922 0-7.395-2.293-9.814-7.195C336.5 429.9 320 396.4 320 354c0-24.8 10.74-50.56 22.1-77.84c9.211-22.1 18.57-44.79 22.53-68.15h38.73c3.967 23.36 13.32 46.04 22.53 68.15C437.3 303.5 448 329.2 448 354C448 396.2 431.6 429.6 417.7 457.8zM193.3 186c0-6.975 2.904-15 6.582-25.17C205.9 144.3 213.3 123.8 213.3 95.05c0-62.29-42.96-94.96-85.34-95.05c-42.36 0-85.33 32.65-85.33 95.05c0 28.73 7.439 49.29 13.42 65.82c3.678 10.16 6.582 18.19 6.582 25.17c0 21.6-10.14 45.92-20.87 71.68C29.11 288.1 16 319.6 16 354c0 53.6 20.95 95.1 34.81 124.1C61.34 499.4 81.39 512 103.7 512h48.76c22.32 0 42.39-12.65 52.39-33C219.2 449.7 240 407.4 240 354c0-34.4-13.11-65.87-25.79-96.3C203.5 231.1 193.3 207.6 193.3 186zM127.9 48C146.5 48.04 165.3 62.6 165.3 95.05c0 20.31-5.367 35.15-10.56 49.49C152.1 149.6 151.3 154.8 149.7 160H106.3C104.7 154.8 103 149.6 101.2 144.5C96.03 130.2 90.67 115.4 90.67 95.05C90.67 62.55 109.4 48 127.9 48zM161.7 457.8C159.8 461.7 156.3 464 152.4 464H103.7c-3.922 0-7.395-2.293-9.814-7.195C80.55 429.9 64 396.4 64 354c0-24.8 10.74-50.56 22.1-77.84C95.31 254.1 104.7 231.4 108.6 208h38.73C151.3 231.4 160.7 254.1 169.9 276.2C181.3 303.5 192 329.2 192 354C192 396.2 175.6 429.6 161.7 457.8z"/></svg>