<svg xmlns="http://www.w3.org/2000/svg" viewBox="0 0 576 512"><!--! Font Awesome Pro 6.0.0-alpha3 by @fontawesome - https://fontawesome.com License - https://fontawesome.com/license (Commercial License) --><path d="M122.7 224C107.9 224 96 235.9 96 250.7C96 265.5 107.9 277.3 122.7 277.3c14.75 0 26.67-11.88 26.67-26.67C149.3 235.9 137.4 224 122.7 224zM197.3 266.7c-14.75 0-26.67 11.88-26.67 26.67S182.6 320 197.3 320C212.1 320 224 308.1 224 293.3S212.1 266.7 197.3 266.7zM197.3 178.7c-14.75 0-26.67 11.88-26.67 26.67S182.6 232 197.3 232C212.1 232 224 220.1 224 205.3S212.1 178.7 197.3 178.7zM550.2 257.7c-10.73-25.76-20.87-50.09-20.87-71.68c0-6.973 2.904-15 6.582-25.17c5.979-16.52 13.42-37.09 13.42-65.82c0-62.29-42.89-94.96-85.26-95.05c-42.36 0-85.4 32.65-85.4 95.05c0 28.73 7.439 49.3 13.42 65.82c3.678 10.16 6.582 18.2 6.582 25.17c0 8.293-1.801 17.1-4.25 26.12C360.5 143.4 289.9 96 208 96C93.13 96 0 189.1 0 304S93.13 512 208 512c64.5 0 122.1-29.36 160.3-75.45c6.074 16.09 12.86 30.04 18.53 41.51C397.3 499.4 417.4 512 439.7 512h48.76c22.32 0 42.39-12.65 52.39-33C555.2 449.7 576 407.4 576 354C576 319.6 562.9 288.1 550.2 257.7zM208 464c-88.22 0-160-71.78-160-160s71.78-160 160-160s160 71.78 160 160S296.2 464 208 464zM463.9 48c18.6 .0391 37.43 14.6 37.43 47.05c0 20.31-5.367 35.15-10.56 49.49c-1.816 5.023-3.49 10.23-5.059 15.49h-43.44c-1.568-5.258-3.242-10.47-5.059-15.49c-5.189-14.34-10.56-29.18-10.56-49.49C426.7 62.55 445.4 48 463.9 48zM497.7 457.8C495.8 461.7 492.3 464 488.4 464h-48.76c-3.922 0-7.395-2.293-9.814-7.195c-10.66-21.57-22.98-47.63-27.62-78.84C410.1 354.1 416 330.1 416 304c0-3.875-.3711-7.652-.5801-11.47c2.166-5.402 4.381-10.82 6.682-16.35c9.211-22.1 18.57-44.79 22.53-68.15h38.73c3.967 23.36 13.32 46.05 22.53 68.15C517.3 303.5 528 329.2 528 354C528 396.2 511.6 429.6 497.7 457.8z"/></svg>