<svg xmlns="http://www.w3.org/2000/svg" viewBox="0 0 640 512"><!--! Font Awesome Pro 6.0.0-alpha3 by @fontawesome - https://fontawesome.com License - https://fontawesome.com/license (Commercial License) --><path d="M228.3 216.1L320 64L69.77 32.13C62.9 31.26 56.24 34.77 53.24 41.02L1.755 143.8C-2.87 153.1 2.039 164.1 11.79 166.8l197.1 56.53C216.8 225.4 224.4 222.4 228.3 216.1zM638.3 143.8l-51.49-102.8c-3-6.25-9.757-9.758-16.63-8.883L320 64l91.74 152.1c3.752 6.25 11.38 9.261 18.51 7.261l197.9-56.51C638 164 642.8 153 638.3 143.8zM528 380.8l-184 45.77V192c0-13.25-10.75-24-24-24S296 178.8 296 192v234.6L112 380.8V230.2L64 216.5v176.1c0 14.67 9.1 27.35 24.25 30.83l216.1 53.82C309.5 479.4 314.8 480 319.1 480s10.34-.6224 15.4-1.865l216.4-53.82C565.1 420.7 576 408 576 393.5V216.5l-48 13.63V380.8z"/></svg>