<svg xmlns="http://www.w3.org/2000/svg" viewBox="0 0 448 512"><!--! Font Awesome Pro 6.0.0-alpha3 by @fontawesome - https://fontawesome.com License - https://fontawesome.com/license (Commercial License) --><path d="M142.9 325.3c-21-20.75-19.88-55.13 3.75-74.25c23.75-19.25 54.75-10.25 70 4.75l7.375 7.375l7.375-7.375c15.75-15.38 46.5-23.88 70-4.75c23.62 19.12 24.88 53.5 3.75 74.25l-72.63 71.25c-4.625 4.625-12.25 4.625-17 0L142.9 325.3zM448 176.8V416c0 35.35-28.65 64-64 64H64c-35.35 0-64-28.65-64-64V176.8C0 165.8 2.83 154.1 8.219 145.4l45.43-80.76C64.98 44.47 86.31 32 109.4 32h229.1c23.12 0 44.45 12.47 55.78 32.62l45.43 80.76C445.2 154.1 448 165.8 448 176.8zM247 158.7h145.2l-39.67-70.52C349.7 83.13 344.3 80 338.6 80h-91.55V158.7zM55.82 158.7h143.2V80H109.4c-5.771 0-11.12 3.125-13.95 8.154L55.82 158.7zM400 206.7h-352V416c0 8.822 7.178 16 16 16h320c8.822 0 16-7.178 16-16V206.7z"/></svg>