<svg xmlns="http://www.w3.org/2000/svg" viewBox="0 0 448 512"><!--! Font Awesome Pro 6.0.0-alpha3 by @fontawesome - https://fontawesome.com License - https://fontawesome.com/license (Commercial License) --><path d="M439.8 145.4l-45.43-80.76C383 44.47 361.7 32 338.6 32H109.4c-23.12 0-44.45 12.47-55.78 32.62L8.219 145.4C2.83 154.1 0 165.8 0 176.8V416c0 35.35 28.65 64 64 64h320c35.35 0 64-28.65 64-64V176.8C448 165.8 445.2 154.1 439.8 145.4zM247 80h91.55c5.771 0 11.12 3.125 13.95 8.154l39.67 70.52h-145.2V80zM95.48 88.15C98.31 83.13 103.7 80 109.4 80h89.59v78.67H55.82L95.48 88.15zM400 416c0 8.822-7.178 16-16 16H64c-8.822 0-16-7.178-16-16V206.7h352V416zM216.1 358.6C210.8 357.7 203 354.9 196.1 352.4l-3.703-1.328C184.1 348.1 174.1 352.5 172 360.8c-2.953 8.328 1.406 17.47 9.734 20.42l3.547 1.266c7.045 2.543 14.91 5.148 22.75 6.783L208 400c0 8.844 7.167 16 16.01 16s15.99-7.156 15.99-16l.0104-10.39c19.35-3.846 33.11-15.41 36.19-33.22c6.281-36.3-27.65-46.02-47.86-51.8L223.6 303.2C201.1 296.9 202.5 293.6 203.3 289.1c1.328-7.703 14.8-9.766 27.64-7.703c4.922 .7656 10.36 2.469 15.52 4.25c8.281 2.828 17.47-1.547 20.34-9.906c2.891-8.344-1.547-17.45-9.906-20.34c-5.6-1.934-11.33-3.35-16.88-4.52V240c0-8.844-7.156-16-16-16s-16 7.156-16 16v10.07C188.5 253.9 174.9 265.7 171.8 283.6c-6.203 35.89 28.14 45.98 42.8 50.28l5.083 1.474c25.41 7.281 25.98 10.01 25.03 15.54C243.3 358.6 229.7 360.7 216.1 358.6z"/></svg>