<svg xmlns="http://www.w3.org/2000/svg" viewBox="0 0 576 512"><!--! Font Awesome Pro 6.0.0-alpha3 by @fontawesome - https://fontawesome.com License - https://fontawesome.com/license (Commercial License) --><path d="M432 224C352.5 224 288 288.5 288 368s64.46 144 144 144C511.5 512 576 447.5 576 368S511.5 224 432 224zM499.3 341.1l-74.66 74.66c-3.125 3.125-7.219 4.688-11.31 4.688s-8.188-1.562-11.31-4.688l-37.34-37.33c-6.25-6.25-6.25-16.38 0-22.62s16.38-6.25 22.62 0l26.03 26.02l63.34-63.34c6.25-6.25 16.38-6.25 22.62 0S505.6 335.7 499.3 341.1zM64 432c-8.822 0-16-7.178-16-16V206.7h313.7C383.3 197.3 407 192 432 192c5.402 0 10.72 .3301 16 .8066V176.8c0-10.99-2.83-21.8-8.219-31.38l-45.43-80.76C383 44.47 361.7 32 338.6 32H109.4c-23.12 0-44.45 12.47-55.78 32.62L8.219 145.4C2.83 154.1 0 165.8 0 176.8V416c0 35.35 28.65 64 64 64h232.2c-11.78-14.26-21.2-30.48-28.05-48H64zM247 80h91.55c5.771 0 11.12 3.125 13.95 8.154l39.67 70.52h-145.2V80zM95.48 88.15C98.31 83.13 103.7 80 109.4 80h89.59v78.67H55.82L95.48 88.15z"/></svg>