<svg xmlns="http://www.w3.org/2000/svg" viewBox="0 0 640 512"><!--! Font Awesome Pro 6.0.0-alpha3 by @fontawesome - https://fontawesome.com License - https://fontawesome.com/license (Commercial License) --><path d="M228.3 344.1l91.73-152.1l-250.2-31.87C62.9 159.3 56.24 162.8 53.24 169L1.755 271.8C-2.87 281.1 2.038 292.1 11.79 294.8l197.1 56.53C216.8 353.4 224.4 350.4 228.3 344.1zM528 412.8l-184 45.77V320c0-13.25-10.75-24-24-24S296 306.8 296 320v138.6L112 412.8v-54.6L64 344.5v80.99c0 14.67 9.1 27.35 24.25 30.83l216.1 53.82C309.5 511.4 314.8 512 319.1 512s10.34-.6224 15.4-1.865l216.4-53.82C565.1 452.7 576 440 576 425.5v-80.99l-48 13.63V412.8zM638.3 271.8L586.8 169c-3-6.25-9.757-9.758-16.63-8.883l-250.2 31.87l91.74 152.1c3.752 6.25 11.38 9.261 18.51 7.261l197.9-56.51C638 292 642.8 281 638.3 271.8zM194.3 143.8C192.9 138.7 192 133.5 192 128.1c0-35.3 28.75-64.03 64-64.03s64 28.73 64 64.03c0 11.27-3.125 21.5-8.25 30.77l8.25 1.001l155.3-19.76l35.75-98.3c2.1-8.389-1.25-17.51-9.625-20.51l-55.5-20.26c-8.252-3.006-17.5 1.243-20.5 9.63l-41.63 114.4C382 55.71 325.8 0 256 0C185.3 0 128 57.19 128 128c0 2.504 .627 4.892 .752 7.396L194.3 143.8z"/></svg>