<svg xmlns="http://www.w3.org/2000/svg" viewBox="0 0 448 512"><!--! Font Awesome Pro 6.0.0-alpha3 by @fontawesome - https://fontawesome.com License - https://fontawesome.com/license (Commercial License) --><path d="M439.8 145.4l-45.43-80.76C383 44.47 361.7 32 338.6 32H109.4c-23.12 0-44.45 12.47-55.78 32.62L8.219 145.4C2.83 154.1 0 165.8 0 176.8V416c0 35.35 28.65 64 64 64h320c35.35 0 64-28.65 64-64V176.8C448 165.8 445.2 154.1 439.8 145.4zM352.5 88.15l39.67 70.52h-145.2V80h91.55C344.3 80 349.7 83.13 352.5 88.15zM95.48 88.15C98.31 83.13 103.7 80 109.4 80h89.59v78.67H55.82L95.48 88.15zM384 432H64c-8.822 0-16-7.178-16-16V206.7h352V416C400 424.8 392.8 432 384 432z"/></svg>