<svg xmlns="http://www.w3.org/2000/svg" viewBox="0 0 576 512"><!--! Font Awesome Pro 6.0.0-alpha3 by @fontawesome - https://fontawesome.com License - https://fontawesome.com/license (Commercial License) --><path d="M208 224h160C394.5 224 416 202.5 416 176v-128C416 21.49 394.5 0 368 0h-160C181.5 0 160 21.49 160 48v128C160 202.5 181.5 224 208 224zM208 48H256v64L288 96l32 16v-64h48v128h-160V48zM208 288h-160C21.49 288 0 309.5 0 336v128C0 490.5 21.49 512 48 512h160C234.5 512 256 490.5 256 464v-128C256 309.5 234.5 288 208 288zM208 464h-160v-128H96v64L128 384l32 16v-64h48V464zM528 288h-160C341.5 288 320 309.5 320 336v128c0 26.51 21.49 48 48 48h160c26.51 0 48-21.49 48-48v-128C576 309.5 554.5 288 528 288zM528 464h-160v-128H416v64l32-16l32 16v-64h48V464z"/></svg>