<svg xmlns="http://www.w3.org/2000/svg" viewBox="0 0 512 512"><!--! Font Awesome Pro 6.0.0-alpha3 by @fontawesome - https://fontawesome.com License - https://fontawesome.com/license (Commercial License) --><path d="M417.6 130.1c-.4668-.207-1.075-.2839-1.555-.4635c-.0469-.0078 .0469 .0078 0 0L415.1 96c0-52.94-43.06-96-96-96H127.1C75.06 0 32.01 43.06 32.01 96L32 288c0 27.41 11.56 52.87 32 71.14V448c0 35.3 28.7 64 64 64h192c35.3 0 64-28.7 64-64v-57.38l63.19-63.19C468.3 306.3 480 278.2 480 248.2V208C480 169.9 453.2 138.1 417.6 130.1zM432 248.2c0 16.98-6.746 33.27-18.75 45.28L336 370.7V448c0 8.837-7.163 16-16 16H128c-8.837 0-16-7.163-16-16v-110.3l-16.01-14.31C85.81 314.3 80 301.3 80 287.7V96c0-26.51 21.49-48 48-48h192c26.51 0 48 21.49 48 48v32h-24c-37.22 0-68.92 23.29-81.77 56L227.1 183.1C195.8 183.1 167.2 170.1 140.1 155.3c-10.88-6.313-24.97-3.168-32.04 7.425C100.7 173.7 103.7 188.6 114.7 195.1C150 219.5 191.2 232 233.7 232h23.93C265.2 272.9 300.9 304 344 304c13.25 0 24-10.75 24-24S357.3 256 344 256c-22.06 0-40-17.94-40-40s17.94-40 40-40h56c17.67 0 32 14.33 32 32V248.2zM285.3 351.1c-4.969-7.406-14.91-9.312-22.19-4.438L224 372.8l-39.13-26.09c-7.281-4.875-17.25-2.938-22.19 4.438c-4.906 7.344-2.906 17.28 4.438 22.19L195.2 392l-28.03 18.69c-7.344 4.906-9.344 14.84-4.438 22.19C165.8 437.5 170.8 440 176 440c3.062 0 6.156-.875 8.875-2.688L224 411.2l39.13 26.09C265.8 439.1 268.9 440 272 440c5.156 0 10.22-2.5 13.31-7.125c4.906-7.344 2.906-17.28-4.438-22.19L252.8 392l28.03-18.69C288.2 368.4 290.2 358.5 285.3 351.1z"/></svg>