<svg xmlns="http://www.w3.org/2000/svg" viewBox="0 0 512 512"><!--! Font Awesome Pro 6.0.0-alpha3 by @fontawesome - https://fontawesome.com License - https://fontawesome.com/license (Commercial License) --><path d="M512 296c0-27.52-9.83-53.08-26.87-72.85C487 215.7 488 207.9 488 200c0-32.44-16.08-61.29-41.1-78.64c-4.381-28.76-21.49-53.51-45.96-67.91C387.5 22.06 356.3 0 320 0c-25.19 0-47.94 10.64-64 27.66C239.9 10.64 217.2 0 192 0C155.7 0 124.5 22.06 111.1 53.46C86.6 67.86 69.48 92.61 65.1 121.4C40.08 138.7 24 167.6 24 200c0 7.879 .9805 15.65 2.867 23.15C9.832 242.9 0 268.5 0 296c0 29.66 11.89 57.62 32.02 78.19C32.01 374.8 32 375.4 32 376c0 47.12 34.13 86.43 78.96 94.5C127.3 495.6 155.6 512 188 512c26.91 0 51.16-11.62 68-30.1C272.8 500.4 297.1 512 324 512c32.42 0 60.7-16.38 77.04-41.49C445.9 462.4 480 423.1 480 376c0-.6035-.0059-1.197-.0176-1.801C500.1 353.6 512 325.7 512 296zM232 144H212.6C206.4 129.9 192.4 120 176 120C153.9 120 136 137.9 136 160S153.9 200 176 200c16.38 0 30.38-9.9 36.57-24H232v64H176C149.5 240 128 261.5 128 288v19.43C113.9 313.6 104 327.6 104 344C104 366.1 121.9 384 144 384s40-17.91 40-40c0-16.38-9.9-30.38-24-36.57V288c0-8.828 7.172-16 16-16h56v147.1C232 444.3 212.3 464 188 464c-23.94 0-43.32-19.14-43.89-42.95C139 422.9 133.7 424 128 424c-26.51 0-48-21.49-48-48c0-7.93 2.105-15.3 5.51-21.89C63.42 344 48 321.9 48 296c0-27.24 17.08-50.34 41.06-59.59C78.71 227.6 72 214.7 72 200c0-24.83 18.92-45.02 43.09-47.51C113.2 147.3 112 141.8 112 136c0-23.83 17.4-43.45 40.16-47.21C152.2 88.51 152 88.28 152 88C152 65.91 169.9 48 192 48s40 17.91 40 40V144zM192 160c0 8.822-7.178 16-16 16S160 168.8 160 160s7.178-16 16-16S192 151.2 192 160zM160 344c0 8.822-7.178 16-16 16S128 352.8 128 344s7.178-16 16-16S160 335.2 160 344zM426.5 354.1C429.9 360.7 432 368.1 432 376c0 26.51-21.49 48-48 48c-5.68 0-11.05-1.16-16.11-2.971C367.3 444.9 347.9 464 324 464c-24.3 0-44-19.7-44-44V360h35.43C321.6 374.1 335.6 384 352 384c22.09 0 40-17.91 40-40S374.1 304 352 304c-16.38 0-30.38 9.9-36.57 24H280V272h24C330.5 272 352 250.5 352 224V196.6C366.1 190.4 376 176.4 376 160c0-22.09-17.91-40-40-40S296 137.9 296 160c0 16.38 9.9 30.38 24 36.57V224c0 8.828-7.172 16-16 16h-24V88C280 65.91 297.9 48 320 48s40 17.91 40 40c0 .2793-.1543 .5098-.1602 .7891C382.6 92.55 400 112.2 400 136c0 5.822-1.193 11.33-3.092 16.49C421.1 154.1 440 175.2 440 200c0 14.65-6.707 27.61-17.06 36.42C446.9 245.7 464 268.8 464 296C464 321.9 448.6 344 426.5 354.1zM336 344c0-8.822 7.178-16 16-16s16 7.178 16 16s-7.178 16-16 16S336 352.8 336 344zM320 160c0-8.822 7.178-16 16-16S352 151.2 352 160s-7.178 16-16 16S320 168.8 320 160z"/></svg>