<svg xmlns="http://www.w3.org/2000/svg" viewBox="0 0 640 512"><!--! Font Awesome Pro 6.0.0-alpha3 by @fontawesome - https://fontawesome.com License - https://fontawesome.com/license (Commercial License) --><path d="M319.1 288c13.25 0 23.1-10.75 23.1-24v-112c0-13.25-10.75-24-23.1-24S295.1 138.8 295.1 152v112C295.1 277.3 306.7 288 319.1 288zM320 320C302.4 320 288 334.4 288 352c0 17.75 14.39 32 32.02 32S352 369.8 352 352C352 334.4 337.6 320 320 320zM320 32C196.3 32 96 132.3 96 256c0 123.7 100.3 224 224 224c123.7 0 224-100.3 224-224C544 132.3 443.7 32 320 32zM320 432c-97.05 0-176-78.95-176-176S222.1 80 320 80s176 78.95 176 176S417 432 320 432zM83.94 75.83C72.72 68.61 57.91 71.88 50.75 83C17.56 134.5 0 194.4 0 256s17.56 121.5 50.75 173C55.34 436.1 63.06 440 70.97 440c4.438 0 8.938-1.234 12.97-3.828C95.09 429 98.28 414.1 91.13 403C62.91 359.2 48 308.4 48 256s14.91-103.2 43.13-147C98.28 97.86 95.09 83 83.94 75.83zM589.3 83c-7.156-11.12-22-14.39-33.19-7.172C544.9 83 541.7 97.86 548.9 109C577.1 152.8 592 203.6 592 256s-14.91 103.2-43.13 147c-7.156 11.14-3.969 26 7.188 33.17C560.1 438.8 564.6 440 569 440c7.906 0 15.62-3.875 20.22-11C622.4 377.5 640 317.6 640 256S622.4 134.5 589.3 83z"/></svg>