<svg xmlns="http://www.w3.org/2000/svg" viewBox="0 0 384 512"><!--! Font Awesome Pro 6.0.0-alpha3 by @fontawesome - https://fontawesome.com License - https://fontawesome.com/license (Commercial License) --><path d="M96 244C96 250.6 101.4 256 108 256h40C154.6 256 160 250.6 160 244v-40C160 197.4 154.6 192 148 192h-40C101.4 192 96 197.4 96 204V244zM160 340v-40C160 293.4 154.6 288 148 288h-40C101.4 288 96 293.4 96 300v40C96 346.6 101.4 352 108 352h40C154.6 352 160 346.6 160 340zM108 160h40C154.6 160 160 154.6 160 148v-40C160 101.4 154.6 96 148 96h-40C101.4 96 96 101.4 96 108v40C96 154.6 101.4 160 108 160zM320 0H64C28.65 0 0 28.65 0 64v424C0 501.3 10.75 512 24 512s24-10.75 24-24V64c0-8.838 7.164-16 16-16h256c8.836 0 16 7.162 16 16v424c0 13.25 10.75 24 24 24S384 501.3 384 488V64C384 28.65 355.3 0 320 0zM276 96h-40C229.4 96 224 101.4 224 108v40C224 154.6 229.4 160 236 160h40C282.6 160 288 154.6 288 148v-40C288 101.4 282.6 96 276 96zM276 192h-40C229.4 192 224 197.4 224 204v40C224 250.6 229.4 256 236 256h40C282.6 256 288 250.6 288 244v-40C288 197.4 282.6 192 276 192zM276 288h-40C229.4 288 224 293.4 224 300v40C224 346.6 229.4 352 236 352h40C282.6 352 288 346.6 288 340v-40C288 293.4 282.6 288 276 288zM191.2 384C157.6 384.5 144 415.4 144 434.1V488C144 501.3 154.7 512 168 512h48c13.26 0 24-10.75 24-24v-54.57C240 406.6 218 383.6 191.2 384z"/></svg>