<svg xmlns="http://www.w3.org/2000/svg" viewBox="0 0 512 512"><!--! Font Awesome Pro 6.0.0-alpha3 by @fontawesome - https://fontawesome.com License - https://fontawesome.com/license (Commercial License) --><path d="M308 192h-40C261.4 192 256 197.4 256 204v40C256 250.6 261.4 256 268 256h40C314.6 256 320 250.6 320 244v-40C320 197.4 314.6 192 308 192zM308 288h-40C261.4 288 256 293.4 256 300v40C256 346.6 261.4 352 268 352h40C314.6 352 320 346.6 320 340v-40C320 293.4 314.6 288 308 288zM148 224h-40C101.4 224 96 229.4 96 236v40C96 282.6 101.4 288 108 288h40C154.6 288 160 282.6 160 276v-40C160 229.4 154.6 224 148 224zM308 96h-40C261.4 96 256 101.4 256 108v40C256 154.6 261.4 160 268 160h40C314.6 160 320 154.6 320 148v-40C320 101.4 314.6 96 308 96zM148 320h-40C101.4 320 96 325.4 96 332v40C96 378.6 101.4 384 108 384h40C154.6 384 160 378.6 160 372v-40C160 325.4 154.6 320 148 320zM404 96h-40C357.4 96 352 101.4 352 108v40C352 154.6 357.4 160 364 160h40C410.6 160 416 154.6 416 148v-40C416 101.4 410.6 96 404 96zM448 0H224C188.7 0 160 28.65 160 64v64H64C28.65 128 0 156.7 0 192v296C0 501.3 10.75 512 24 512s24-10.75 24-24V192c0-8.838 7.164-16 16-16h144V64c0-8.838 7.164-16 16-16h224c8.836 0 16 7.162 16 16v424c0 13.25 10.75 24 24 24S512 501.3 512 488V64C512 28.65 483.3 0 448 0zM404 192h-40C357.4 192 352 197.4 352 204v40C352 250.6 357.4 256 364 256h40C410.6 256 416 250.6 416 244v-40C416 197.4 410.6 192 404 192zM404 288h-40C357.4 288 352 293.4 352 300v40C352 346.6 357.4 352 364 352h40C410.6 352 416 346.6 416 340v-40C416 293.4 410.6 288 404 288z"/></svg>