<svg xmlns="http://www.w3.org/2000/svg" viewBox="0 0 512 512"><!--! Font Awesome Pro 6.0.0-alpha3 by @fontawesome - https://fontawesome.com License - https://fontawesome.com/license (Commercial License) --><path d="M480 184.9V32c0-8.75-6.969-32-32-32c-7.125 0-14.19 2.375-19.97 7.031L343 75.06C300.3 109.2 246.7 128 192 128H64C28.66 128 0 156.7 0 192v96c0 35.34 28.66 64 64 64h17.65c-10.76 77.8 34.54 143.3 36.81 146.5C124.6 507 133.6 512 143.1 512H192c12.94 0 24.62-9.078 29.56-23.04c4.969-13.96 2.219-30-6.938-40.69C214.2 447.8 174.3 398.6 185.1 352H192c54.66 0 108.3 18.81 150.1 52.94L428 472.1C432.8 476.8 441.8 480 448 480c24.91 0 32-22.78 32-32V295.1C499.1 284 512 263.6 512 240S499.1 195.1 480 184.9zM64 304C55.18 304 48 296.8 48 288V192c0-8.822 7.178-16 16-16h128v128H64zM432 414.7l-59.06-47.25C334.4 336.6 288.4 316.2 240 308.1V171.9c48.36-8.178 94.38-28.54 132.1-59.39L432 65.33V414.7z"/></svg>