<svg xmlns="http://www.w3.org/2000/svg" viewBox="0 0 512 512"><!--! Font Awesome Pro 6.0.0-alpha3 by @fontawesome - https://fontawesome.com License - https://fontawesome.com/license (Commercial License) --><path d="M509.6 220.8c-1.812-13.16-14.03-22.31-27.03-20.53c-13.16 1.812-22.34 13.91-20.53 27.03C463.3 236.8 464 246.4 464 256c0 114.7-93.31 208-208 208S48 370.7 48 256S141.3 48 256 48c9.562 0 19.25 .6562 28.75 1.969c12.94 1.844 25.22-7.406 27.03-20.53s-7.375-25.22-20.53-27.03C279.6 .8125 267.8 0 256 0C114.8 0 0 114.8 0 256s114.8 256 256 256s256-114.8 256-256C512 244.3 511.2 232.4 509.6 220.8zM256 144c13.25 0 24-10.75 24-24S269.3 96 256 96C167.8 96 96 167.8 96 256s71.78 160 160 160s160-71.78 160-160c0-13.25-10.75-24-24-24S368 242.8 368 256c0 61.75-50.25 112-112 112S144 317.8 144 256S194.3 144 256 144zM247 231c-9.375 9.375-9.375 24.56 0 33.94C251.7 269.7 257.9 272 264 272s12.28-2.344 16.97-7.031l85.72-85.71l62.17 12.43c1.047 .2031 2.094 .3119 3.141 .3119c4.203 0 8.281-1.656 11.31-4.687l64-64c4.172-4.172 5.703-10.3 4-15.95c-1.703-5.641-6.391-9.891-12.17-11.05l-67.14-16.31l-16.31-67.14c-1.158-5.781-5.408-10.47-11.05-12.17c-5.688-1.719-11.78-.1719-15.95 4l-64 64c-3.781 3.781-5.422 9.203-4.375 14.45l12.44 62.18L247 231z"/></svg>