<svg xmlns="http://www.w3.org/2000/svg" viewBox="0 0 512 512"><!--! Font Awesome Pro 6.0.0-alpha3 by @fontawesome - https://fontawesome.com License - https://fontawesome.com/license (Commercial License) --><path d="M256 96C167.8 96 96 167.8 96 256s71.78 160 160 160s160-71.78 160-160S344.2 96 256 96zM256 368c-61.75 0-112-50.25-112-112S194.3 144 256 144s112 50.25 112 112S317.8 368 256 368zM256 192C220.7 192 192 220.7 192 256s28.72 64 64 64s64-28.72 64-64S291.3 192 256 192zM256 272C247.2 272 240 264.8 240 256S247.2 240 256 240s16 7.188 16 16S264.8 272 256 272zM256 0C114.8 0 0 114.8 0 256s114.8 256 256 256s256-114.8 256-256S397.2 0 256 0zM256 464c-114.7 0-208-93.31-208-208S141.3 48 256 48s208 93.31 208 208S370.7 464 256 464z"/></svg>