<svg xmlns="http://www.w3.org/2000/svg" viewBox="0 0 512 512"><!--! Font Awesome Pro 6.0.0-alpha3 by @fontawesome - https://fontawesome.com License - https://fontawesome.com/license (Commercial License) --><path d="M256 0C128.8 0 19.78 94.88 2.406 220.7c-1.812 13.12 7.375 25.25 20.5 27.06c13.16 1.875 25.25-7.375 27.06-20.5C64.06 125.1 152.7 48 256 48c114.7 0 208 93.31 208 208c0 103.3-77.06 191.9-179.3 206c-13.12 1.812-22.31 13.94-20.5 27.06c1.656 12.03 11.94 20.72 23.75 20.72c1.094 0 2.188-.0625 3.312-.2187C417.1 492.2 512 383.2 512 256C512 114.8 397.2 0 256 0zM308.7 354.9c-11.69 6.25-16.09 20.78-9.844 32.47c4.312 8.094 12.59 12.69 21.19 12.69c3.812 0 7.688-.9062 11.28-2.844C383.6 369.3 416 315.2 416 256c0-88.22-71.78-160-160-160C196.8 96 142.7 128.4 114.8 180.7C108.6 192.4 112.1 206.9 124.7 213.2C136.4 219.5 150.9 215 157.1 203.3C176.7 166.7 214.6 144 256 144c61.75 0 112 50.25 112 112C368 297.4 345.3 335.3 308.7 354.9zM267.3 244.7C263.2 240.6 257.2 239.1 251.6 240.6l-224 64C21.09 306.5 16.45 312.2 16.03 318.1c-.4219 6.766 3.438 13.06 9.672 15.72l74.44 31.91l-90.77 90.77c-12.49 12.5-12.5 32.75-.002 45.25c12.49 12.5 32.76 12.5 45.25 0l90.77-90.76l31.91 74.44C179.8 492.2 185.6 496 192 496c.3281 0 .6719-.0156 1.016-.0313c6.75-.4219 12.52-5.062 14.38-11.58l64-224C272.1 254.8 271.4 248.8 267.3 244.7z"/></svg>