<svg xmlns="http://www.w3.org/2000/svg" viewBox="0 0 640 512"><!--! Font Awesome Pro 6.0.0-alpha3 by @fontawesome - https://fontawesome.com License - https://fontawesome.com/license (Commercial License) --><path d="M98.5 463.1L65.25 314.1C97.13 337.9 141.8 351.1 192 351.1c13.18 0 25.91-1.084 38.19-2.947c1.598-3.754 2.896-7.633 5.139-11.09c-3.297-12.63-3.686-25.63-2.146-38.42C220.2 302.3 206.5 303.1 192 303.1c-64.62 0-118.1-30-126.8-69c-1.5-6.75-8.25-10.1-15.25-10.1L15.1 223.1c-4.875 0-9.522 2.281-12.52 6.031s-4.104 8.716-3.104 13.47l54.13 243.5C57.75 501.6 70.73 512 85.73 512h182.7c-13.8-13.08-24.07-29.54-30.15-48H98.5zM128 258.5v-225.4l-3.75-20c-1-5.5-4.75-10-10-12c-5.125-1.998-11-1.248-15.38 2.125l-28.5 21.63C65.5 28.47 63.13 34.6 64.25 40.6l36.88 197.1C106.5 245.4 115.6 252.6 128 258.5zM50 191.1c3.625 0 7.001 1 10.37 1.75L40.38 86.6L20.63 80.73C15.25 79.1 9.504 80.35 5.379 83.98C1.254 87.73-.7461 93.23 .2539 98.73l16.25 93.26H50zM224 268.7V31.97c0-6-3.375-11.62-8.875-14.25l-32-16C178.3-.7773 172.3-.5273 167.6 2.346C162.9 5.223 160 10.47 160 15.97v252.8C181.1 273.1 202.9 273.1 224 268.7zM383.8 98.73c1-5.5-1-11-5.125-14.62c-4.125-3.75-9.875-5-15.25-3.375l-17.25 5.125L328.2 188.2c13.52-6.766 27.87-12.31 42.84-16.73L383.8 98.73zM291.8 210.7L319.8 50.72c1-5.5-1-11-5.125-14.63C310.5 32.35 304.8 31.1 299.4 32.72L265.1 42.97C260.9 44.22 258 47.47 256 51.22L255.1 245.9C266.1 232.1 278.1 221.2 291.8 210.7zM447.1 296c8.875 0 16-7.125 16-16s-7.125-16-16-16s-16 7.125-16 16S439.1 296 447.1 296zM528 312c8.875 0 16-7.125 16-16s-7.125-16-16-16S512 287.1 512 296S519.1 312 528 312zM367.1 312c8.875 0 16-7.125 16-16s-7.125-16-16-16s-16 7.125-16 16S359.1 312 367.1 312zM640 376c0-12.88-6.5-23.88-16-31.25c12.25-23.75 10.25-52.38-5.125-74.25C585.5 222.9 518.4 192 447.1 192c-70.38 0-137.4 30.88-170.9 78.5C261.7 292.4 259.7 321 271.1 344.8C262.5 352.1 256 363.1 256 376c0 11 4.623 21.5 12.62 28.87C265.6 412.3 263.1 420.1 263.1 428c0 46.38 37.63 84 84 84H548c46.38 0 84-37.63 84-84c0-7.875-1.625-15.75-4.625-23.12C635.4 397.5 640 387 640 376zM316.5 298c22.75-32.38 72.84-57.1 131.5-57.1c58.63 0 108.8 25.62 131.7 57.1c5.125 7.375 5.75 17 1.625 25S568.9 336 559.9 336h-223.8c-9 0-17.25-5-21.38-13S311.2 305.4 316.5 298zM548 464h-200c-19.88 0-36-16.12-36-36c0-6.625 5.375-12 12-12H572c6.625 0 12 5.375 12 12C584 447.9 567.9 464 548 464z"/></svg>