<svg xmlns="http://www.w3.org/2000/svg" viewBox="0 0 512 512"><!--! Font Awesome Pro 6.0.0-alpha3 by @fontawesome - https://fontawesome.com License - https://fontawesome.com/license (Commercial License) --><path d="M351.1 176c8.875 0 16-7.125 16-16s-7.125-16-16-16s-16 7.125-16 16S343.1 176 351.1 176zM255.1 144c8.875 0 16-7.125 16-16s-7.125-16-15.1-16S239.1 119.1 239.1 128S247.1 144 255.1 144zM512 288c0-23.25-10.38-45.38-28.12-60.38c.5-.5 .875-1 1.25-1.5C499.4 203 499.6 174 485.8 150.8C442.3 78.75 352.2 32.13 255.1 32C159.9 32.13 69.75 78.75 26.25 150.8C12.37 174 12.62 203 26.87 226.1c.375 .5 .75 1 1.25 1.5C-5.381 255.9-9.506 306 18.75 339.4c4.375 5.25 9.5 9.875 15 13.75c-.625 2.75-1.625 5.5-1.625 8.5v34.63C32.12 442.5 69.62 480 115.7 480h280.6C442.6 480 480 442.5 480.1 396.3v-34.63c0-3-1.125-5.75-1.75-8.5C499.5 338.1 512 313.9 512 288zM67.37 175.5C102.2 117.6 176.4 80.13 256 80c79.75 .125 153.7 37.63 188.7 95.5c4.5 7.75 4.5 17.5-.25 25.25c-2.875 4.625-7.375 7.375-12.25 7.375H79.62c-4.75 0-9.25-2.75-12.12-7.375C62.87 193 62.75 183.3 67.37 175.5zM432 396.3C432 416 416 432 396.2 432H115.6c-19.62 0-35.63-16-35.63-35.75v-25.5H432V396.3zM432 320H79.1c-17.62 0-32-14.38-32-32s14.38-32 32-32h144l95.1 48L416 256h16c17.62 0 32 14.38 32 32S449.6 320 432 320zM159.1 176c8.875 0 16-7.125 16-16s-7.125-16-16-16s-16 7.125-16 16S151.1 176 159.1 176z"/></svg>