<svg xmlns="http://www.w3.org/2000/svg" viewBox="0 0 640 512"><!--! Font Awesome Pro 6.0.0-alpha3 by @fontawesome - https://fontawesome.com License - https://fontawesome.com/license (Commercial License) --><path d="M110.5 464l-28.75-288H328C341.3 176 352 165.3 352 152C352 138.7 341.3 128 328 128L206.8 127.1l20-80L264 48C277.3 48 288 37.25 288 24C288 10.74 277.3 0 264 0L220.5-.001c-18.32 0-34.29 12.47-38.75 30.24l-24.5 97.76L24 128C10.75 128 0 138.7 0 152C0 165.3 10.75 176 24 176h9.5l30.5 306.2c1.25 16.88 15.12 29.88 31.1 29.75L268.4 512c-13.8-13.08-24.07-29.54-30.15-48H110.5zM528 312c8.875 0 16-7.125 16-16s-7.125-16-16-16S512 287.1 512 296S519.1 312 528 312zM448 296c8.875 0 16-7.125 16-16s-7.125-16-16-16s-16 7.125-16 16S439.1 296 448 296zM368 312c8.875 0 16-7.125 16-16s-7.125-16-16-16S352 287.1 352 296S359.1 312 368 312zM640 376c0-12.88-6.5-23.88-16-31.25c12.25-23.75 10.25-52.38-5.125-74.25C585.5 222.9 518.4 192 448 192S310.6 222.9 277.1 270.5C261.8 292.4 259.8 321 272 344.8C262.5 352.1 256 363.1 256 376c0 11 4.625 21.5 12.62 28.88C265.6 412.3 264 420.1 264 428C264 474.4 301.6 512 348 512h200c46.38 0 84-37.63 84-84c0-7.875-1.625-15.75-4.625-23.12C635.4 397.5 640 387 640 376zM316.5 298c22.75-32.38 72.84-58 131.5-58S556.8 265.6 579.6 298c5.125 7.375 5.75 17 1.625 25S568.9 336 559.9 336h-223.8c-9 0-17.25-5-21.38-13S311.3 305.4 316.5 298zM548 464h-200c-19.88 0-36-16.12-36-36C312 421.4 317.4 416 324 416h248c6.625 0 12 5.375 12 12C584 447.9 567.9 464 548 464z"/></svg>