<svg xmlns="http://www.w3.org/2000/svg" viewBox="0 0 640 512"><!--! Font Awesome Pro 6.0.0-alpha3 by @fontawesome - https://fontawesome.com License - https://fontawesome.com/license (Commercial License) --><path d="M96.76 464c-8.463 0-15.6-6.494-16.24-14.78L61.75 208h231.2L292.8 210c14.97-11.22 31.76-20.74 49.88-28.42l9.27-147.6C353.1 15.57 338.4 0 319.9 0H32.11C13.38 0-1.348 15.88 .0977 34.47l32.56 418.5C35.25 486.3 63.18 512 96.76 512h164.8c2.117 0 4.129-.3965 6.195-.5957C254.3 498.4 244.3 482.2 238.3 464H96.76zM49.3 48h253.7L295.9 160H58.01L49.3 48zM528 312c8.875 0 16-7.125 16-16s-7.125-16-16-16S512 287.1 512 296S519.1 312 528 312zM640 376c0-12.88-6.5-23.88-16-31.25c12.25-23.75 10.25-52.38-5.125-74.25C585.5 222.9 518.4 192 447.1 192c-70.38 0-137.4 30.88-170.9 78.5C261.7 292.4 259.7 321 271.1 344.8C262.5 352.1 255.1 363.1 255.1 376c0 11 4.624 21.5 12.62 28.88C265.6 412.3 263.1 420.1 263.1 428c0 46.38 37.63 84 84 84H548c46.38 0 84-37.63 84-84c0-7.875-1.625-15.75-4.625-23.12C635.4 397.5 640 387 640 376zM316.5 298c22.75-32.38 72.84-58 131.5-58c58.63 0 108.8 25.63 131.7 58c5.125 7.375 5.75 17 1.625 25S568.9 336 559.9 336h-223.8c-9 0-17.25-5-21.38-13S311.2 305.4 316.5 298zM548 464h-200c-19.88 0-36-16.12-36-36c0-6.625 5.375-12 12-12H572c6.625 0 12 5.375 12 12C584 447.9 567.9 464 548 464zM447.1 296c8.875 0 16-7.125 16-16s-7.125-16-16-16s-16 7.125-16 16S439.1 296 447.1 296zM367.1 312c8.875 0 16-7.125 16-16s-7.125-16-16-16s-16 7.125-16 16S359.1 312 367.1 312z"/></svg>