<svg xmlns="http://www.w3.org/2000/svg" viewBox="0 0 448 512"><!--! Font Awesome Pro 6.0.0-alpha3 by @fontawesome - https://fontawesome.com License - https://fontawesome.com/license (Commercial License) --><path d="M336 368c17.62 0 32-14.38 32-32s-14.38-32-32-32s-32 14.38-32 32S318.4 368 336 368zM112 368c17.62 0 32-14.38 32-32s-14.38-32-32-32s-32 14.38-32 32S94.38 368 112 368zM448 80C448 35.25 348.8 0 224 0S0 35.25 0 80V416c0 17.62 14.38 32 32 32v32c0 17.62 14.38 32 32 32s32-14.38 32-32v-32h256v32c0 17.62 14.38 32 32 32s32-14.38 32-32v-32c17.62 0 32-14.38 32-32V80zM400 400h-352v-128h352V400zM400 224h-352V160h352V224zM400 112h-352V85.38C62.13 71.63 124.8 48 224 48s161.9 23.62 176 37.38V112z"/></svg>