<svg xmlns="http://www.w3.org/2000/svg" viewBox="0 0 576 512"><!--! Font Awesome Pro 6.0.0-alpha3 by @fontawesome - https://fontawesome.com License - https://fontawesome.com/license (Commercial License) --><path d="M176 304c-17.62 0-32 14.38-32 32s14.38 32 32 32s32-14.38 32-32S193.6 304 176 304zM528 232v-80C528 138.8 517.3 128 504 128H496V80C496 35.25 403.9 0 288 0S80 35.25 80 80V128H72C58.75 128 48 138.8 48 152v80C48 245.3 58.75 256 72 256C76.77 256 48 275.2 48 320v64c0 29.86 20.45 54.62 48 61.75V480c0 17.62 14.38 32 32 32s32-14.38 32-32v-32h256v32c0 17.62 14.38 32 32 32s32-14.38 32-32v-34.25c27.55-7.131 48-31.89 48-61.75v-64c0-47.32-29.68-64-24-64C517.3 256 528 245.3 528 232zM128 84.38C140.3 71.13 197 48 288 48s147.8 23.12 160 36.38V112h-80c0-17.62-14.38-32-32-32h-96c-17.62 0-32 14.38-32 32H128V84.38zM448 160v64h-144V160H448zM128 160h144v64H128V160zM480 384c0 8.875-7.125 16-16 16h-352C103.1 400 96 392.9 96 384v-64c0-26.5 21.5-48 48-48h288c26.5 0 48 21.5 48 48V384zM400 304c-17.62 0-32 14.38-32 32s14.38 32 32 32s32-14.38 32-32S417.6 304 400 304z"/></svg>