<svg xmlns="http://www.w3.org/2000/svg" viewBox="0 0 576 512"><!--! Font Awesome Pro 6.0.0-alpha3 by @fontawesome - https://fontawesome.com License - https://fontawesome.com/license (Commercial License) --><path d="M520 128H512V80C512 35.25 412.8 0 288 0S64 35.25 64 80V128H56C42.75 128 32 138.8 32 152v80C32 245.3 42.75 256 56 256H64v160c0 17.62 14.38 32 32 32v32c0 17.62 14.38 32 32 32s32-14.38 32-32v-32h256v32c0 17.62 14.38 32 32 32s32-14.38 32-32v-32c17.62 0 32-14.38 32-32V256h8C533.3 256 544 245.3 544 232v-80C544 138.8 533.3 128 520 128zM112 160h152v64H112V160zM464 400h-352v-128h352V400zM464 224h-152V160h152V224zM464 112h-96c0-17.62-14.38-32-32-32h-96c-17.62 0-32 14.38-32 32h-96V85.38C126.1 71.63 188.8 48 288 48s161.9 23.62 176 37.38V112zM176 368c17.62 0 32-14.38 32-32s-14.38-32-32-32s-32 14.38-32 32S158.4 368 176 368zM400 368c17.62 0 32-14.38 32-32s-14.38-32-32-32s-32 14.38-32 32S382.4 368 400 368z"/></svg>