<svg xmlns="http://www.w3.org/2000/svg" viewBox="0 0 512 512"><!--! Font Awesome Pro 6.0.0-alpha3 by @fontawesome - https://fontawesome.com License - https://fontawesome.com/license (Commercial License) --><path d="M511.1 57.63c-3.5-12.77-16.72-20.27-29.5-16.77l-464 128C4.842 172.4-2.658 185.6 .8734 198.4C3.811 209 13.47 216 23.1 216c2.094 0 4.25-.2813 6.375-.8594l201.6-55.62V224H95.99C60.65 224 31.99 252.7 31.99 288v160c0 35.35 28.65 64 63.1 64h319.1c35.35 0 63.1-28.65 63.1-64V288c0-35.35-28.65-64-63.1-64h-135.1V146.3l214.4-59.14C507.2 83.61 514.7 70.39 511.1 57.63zM79.99 288c0-8.822 7.187-16 16.01-16h72V352h-88L79.99 288zM432 448c0 8.822-7.178 16-16 16H95.1c-8.822 0-16-7.178-16-16v-48h352V448zM344 272h72c8.822 0 15.99 7.178 15.99 16l.008 64h-88V272zM296 272V352H215.1V272H296zM191.1 96c17.67 0 32-14.33 32-32c0-17.67-14.33-32-32-32S159.1 46.33 159.1 64C159.1 81.67 174.3 96 191.1 96zM287.1 64c17.67 0 32-14.33 32-32c0-17.67-14.33-32-32-32c-17.67 0-32 14.33-32 32C255.1 49.67 270.3 64 287.1 64z"/></svg>