<svg xmlns="http://www.w3.org/2000/svg" viewBox="0 0 448 512"><!--! Font Awesome Pro 6.0.0-alpha3 by @fontawesome - https://fontawesome.com License - https://fontawesome.com/license (Commercial License) --><path d="M215.9 412.6c4.486 4.59 11.62 4.59 16.12 0l69.16-71.3c20.09-20.84 18.87-55.14-3.676-74.32c-19.48-16.68-48.65-13.65-66.61 4.789L223.9 279L216.9 271.7C199 253.3 169.9 250.3 150.4 266.9c-22.44 19.18-23.66 53.48-3.572 74.32L215.9 412.6zM384 64h-40V24c0-13.25-10.75-24-23.1-24S296 10.75 296 24V64h-144V24C152 10.75 141.3 0 128 0S104 10.75 104 24V64H64C28.65 64 0 92.65 0 128v320c0 35.35 28.65 64 64 64h320c35.35 0 64-28.65 64-64V128C448 92.65 419.3 64 384 64zM400 448c0 8.824-7.178 16-16 16H64c-8.822 0-16-7.176-16-16V192h352V448z"/></svg>