<svg xmlns="http://www.w3.org/2000/svg" viewBox="0 0 576 512"><!--! Font Awesome Pro 6.0.0-alpha3 by @fontawesome - https://fontawesome.com License - https://fontawesome.com/license (Commercial License) --><path d="M432 224C352.4 224 288 288.4 288 368s64.38 144 144 144S576 447.6 576 368S511.6 224 432 224zM480 384h-54.25C420.4 384 416 379.6 416 374.3V304C416 295.2 423.2 288 432 288C440.8 288 448 295.2 448 304V352h32c8.838 0 16 7.164 16 16S488.8 384 480 384zM284.6 464H64c-8.822 0-16-7.176-16-16V192H448V128c0-35.35-28.65-64-64-64h-40V24c0-13.25-10.75-24-23.1-24S296 10.75 296 24V64h-144V24C152 10.75 141.3 0 128 0S104 10.75 104 24V64H64C28.65 64 0 92.65 0 128v320c0 35.35 28.65 64 64 64h267C312.6 499.1 296.9 482.8 284.6 464z"/></svg>