<svg xmlns="http://www.w3.org/2000/svg" viewBox="0 0 448 512"><!--! Font Awesome Pro 6.0.0-alpha3 by @fontawesome - https://fontawesome.com License - https://fontawesome.com/license (Commercial License) --><path d="M171.8 353.1l-8.592 50.06c-1.604 9.051 7.904 15.81 15.92 11.57l44.79-23.71l44.79 23.71c8.018 4.238 17.53-2.633 16.04-11.57l-8.707-50.06l36.32-35.4c6.529-6.297 2.979-17.41-6.072-18.79l-50.06-7.332L233.7 246.2c-4.01-8.133-15.69-8.246-19.7 0L191.6 291.6L141.4 298.9C132.5 300.3 128.9 311.3 135.3 317.7L171.8 353.1zM384 64h-40V24c0-13.25-10.75-24-23.1-24S296 10.75 296 24V64h-144V24C152 10.75 141.3 0 128 0S104 10.75 104 24V64H64C28.65 64 0 92.65 0 128v320c0 35.35 28.65 64 64 64h320c35.35 0 64-28.65 64-64V128C448 92.65 419.3 64 384 64zM400 448c0 8.824-7.178 16-16 16H64c-8.822 0-16-7.176-16-16V192h352V448z"/></svg>