<svg xmlns="http://www.w3.org/2000/svg" viewBox="0 0 448 512"><!--! Font Awesome Pro 6.0.0-alpha3 by @fontawesome - https://fontawesome.com License - https://fontawesome.com/license (Commercial License) --><path d="M296.5 295.5l-48.01-48.01l18.23-18.23c7.029-7.031 18.44-7.031 25.47 0l22.54 22.53c7.029 7.031 7.029 18.44 0 25.47L296.5 295.5zM135.2 415.9l47.61-9.52c2.322-.4687 4.455-1.609 6.131-3.281l90.58-90.57L231.5 264.5l-90.58 90.57c-1.676 1.68-2.818 3.812-3.281 6.133l-9.521 47.61C127.3 413 130.1 416.7 135.2 415.9zM448 128v320c0 35.35-28.65 64-64 64H64c-35.35 0-64-28.65-64-64V128c0-35.35 28.65-64 64-64h40V24C104 10.75 114.8 0 128 0S152 10.75 152 24V64h144V24c0-13.25 10.75-24 24-24S344 10.75 344 24V64H384C419.3 64 448 92.65 448 128zM400 192h-352v256c0 8.824 7.178 16 16 16h320c8.822 0 16-7.176 16-16V192z"/></svg>