<svg xmlns="http://www.w3.org/2000/svg" viewBox="0 0 448 512"><!--! Font Awesome Pro 6.0.0-alpha3 by @fontawesome - https://fontawesome.com License - https://fontawesome.com/license (Commercial License) --><path d="M384 64h-40V24c0-13.25-10.75-24-23.1-24S296 10.75 296 24V64h-144V24C152 10.75 141.3 0 128 0S104 10.75 104 24V64H64C28.65 64 0 92.65 0 128v320c0 35.35 28.65 64 64 64h320c35.35 0 64-28.65 64-64V128C448 92.65 419.3 64 384 64zM400 448c0 8.824-7.178 16-16 16H64c-8.822 0-16-7.176-16-16V192h352V448zM143 408.1c9.374 9.374 24.56 9.38 33.94 0L224 361.9l47.03 47.03c9.374 9.374 24.56 9.38 33.94 0c9.375-9.375 9.375-24.56 0-33.94L257.9 328l47.03-47.03c9.375-9.375 9.375-24.56 0-33.94s-24.56-9.375-33.94 0L224 294.1L176.1 247c-9.375-9.375-24.56-9.375-33.94 0s-9.375 24.56 0 33.94L190.1 328l-47.03 47.03C133.7 384.4 133.7 399.6 143 408.1z"/></svg>