<svg xmlns="http://www.w3.org/2000/svg" viewBox="0 0 512 512"><!--! Font Awesome Pro 6.0.0-alpha3 by @fontawesome - https://fontawesome.com License - https://fontawesome.com/license (Commercial License) --><path d="M448 64h-40V24c0-13.25-10.75-23.1-23.1-23.1S360 10.75 360 24V64h-112V24c0-13.25-10.75-23.1-23.1-23.1S200 10.75 200 24V64H160C124.7 64 96 92.65 96 128v224c0 35.35 28.65 64 64 64h288c35.35 0 64-28.65 64-64V128C512 92.65 483.3 64 448 64zM464 352c0 8.824-7.178 16-16 16H160c-8.822 0-16-7.176-16-16V192h320V352zM392 512h-272C53.83 512 0 458.2 0 392v-208C0 170.8 10.75 160 24 160S48 170.8 48 184v208c0 39.7 32.3 72 72 72h272c13.25 0 24 10.75 24 24S405.3 512 392 512z"/></svg>