<svg xmlns="http://www.w3.org/2000/svg" viewBox="0 0 448 512"><!--! Font Awesome Pro 6.0.0-alpha3 by @fontawesome - https://fontawesome.com License - https://fontawesome.com/license (Commercial License) --><path d="M207 424.1C211.7 429.7 217.9 432 224 432s12.28-2.344 16.97-7.031l80-80c9.375-9.375 9.375-24.56 0-33.94s-24.56-9.375-33.94 0L248 350.1V248C248 234.8 237.3 224 224 224S200 234.8 200 248v102.1L160.1 311c-9.375-9.375-24.56-9.375-33.94 0s-9.375 24.56 0 33.94L207 424.1zM384 64h-40V24C344 10.75 333.3 0 320 0s-24 10.75-24 24V64h-144V24C152 10.75 141.3 0 128 0S104 10.75 104 24V64H64C28.65 64 0 92.65 0 128v320c0 35.35 28.65 64 64 64h320c35.35 0 64-28.65 64-64V128C448 92.65 419.3 64 384 64zM400 448c0 8.824-7.178 16-16 16H64c-8.822 0-16-7.176-16-16V192h352V448z"/></svg>