<svg xmlns="http://www.w3.org/2000/svg" viewBox="0 0 448 512"><!--! Font Awesome Pro 6.0.0-alpha3 by @fontawesome - https://fontawesome.com License - https://fontawesome.com/license (Commercial License) --><path d="M384 64h-40V24c0-13.25-10.75-24-23.1-24S296 10.75 296 24V64h-144V24C152 10.75 141.3 0 128 0S104 10.75 104 24V64H64C28.65 64 0 92.65 0 128v320c0 35.35 28.65 64 64 64h320c35.35 0 64-28.65 64-64V128C448 92.65 419.3 64 384 64zM400 448c0 8.824-7.178 16-16 16H64c-8.822 0-16-7.176-16-16V192h352V448zM145.7 326.6l-46.67 64c-3.549 4.863-4.064 11.31-1.334 16.68C100.5 412.6 105.1 416 112 416h224c5.9 0 11.32-3.246 14.11-8.449c2.783-5.203 2.479-11.52-.7949-16.43l-85.33-128C261 258.7 256 256 250.7 256s-10.35 2.672-13.31 7.125l-53.5 80.26l-12.26-16.81C168.6 322.4 163.8 320 158.7 320S148.8 322.4 145.7 326.6zM128 288c17.62 0 32-14.38 32-32S145.6 224 128 224S96 238.4 96 256S110.4 288 128 288z"/></svg>