<svg xmlns="http://www.w3.org/2000/svg" viewBox="0 0 448 512"><!--! Font Awesome Pro 6.0.0-alpha3 by @fontawesome - https://fontawesome.com License - https://fontawesome.com/license (Commercial License) --><path d="M216 312h112C341.3 312 352 301.3 352 288s-10.74-24-23.1-24H215.1C202.7 264 192 274.7 192 288C192 301.3 202.7 312 216 312zM341.3 352h-42.67C292.8 352 288 356.8 288 362.7v42.67C288 411.2 292.8 416 298.7 416h42.67C347.2 416 352 411.2 352 405.3v-42.67C352 356.8 347.2 352 341.3 352zM106.7 320h42.67C155.2 320 160 315.2 160 309.3V266.7C160 260.8 155.2 256 149.3 256H106.7C100.8 256 96 260.8 96 266.7v42.67C96 315.2 100.8 320 106.7 320zM384 64h-40V24c0-13.25-10.75-24-23.1-24S296 10.75 296 24V64h-144V24C152 10.75 141.3 0 128 0S104 10.75 104 24V64H64C28.65 64 0 92.65 0 128v320c0 35.35 28.65 64 64 64h320c35.35 0 64-28.65 64-64V128C448 92.65 419.3 64 384 64zM400 448c0 8.824-7.178 16-16 16H64c-8.822 0-16-7.176-16-16V192h352V448zM120 408h112C245.3 408 256 397.3 256 384s-10.74-24-23.1-24H119.1C106.7 360 96 370.7 96 384C96 397.3 106.7 408 120 408z"/></svg>