<svg xmlns="http://www.w3.org/2000/svg" viewBox="0 0 448 512"><!--! Font Awesome Pro 6.0.0-alpha3 by @fontawesome - https://fontawesome.com License - https://fontawesome.com/license (Commercial License) --><path d="M384 64h-40V24C344 10.75 333.3 0 320 0s-24 10.75-24 24V64h-144V24C152 10.75 141.3 0 128 0S104 10.75 104 24V64H64C28.65 64 0 92.65 0 128v320c0 35.35 28.65 64 64 64h320c35.35 0 64-28.65 64-64V128C448 92.65 419.3 64 384 64zM400 448c0 8.824-7.178 16-16 16H64c-8.822 0-16-7.176-16-16V192h352V448zM120 304h208C341.3 304 352 293.3 352 280S341.3 256 328 256h-208C106.8 256 96 266.8 96 280S106.8 304 120 304zM120 400h112c13.25 0 24-10.75 24-24S245.3 352 232 352h-112C106.8 352 96 362.8 96 376S106.8 400 120 400z"/></svg>