<svg xmlns="http://www.w3.org/2000/svg" viewBox="0 0 448 512"><!--! Font Awesome Pro 6.0.0-alpha3 by @fontawesome - https://fontawesome.com License - https://fontawesome.com/license (Commercial License) --><path d="M160.1 344.1L200 305.9V408c0 13.25 10.75 24 24 24s24-10.75 24-24V305.9l39.03 39.03c9.375 9.375 24.56 9.375 33.94 0s9.375-24.56 0-33.94l-80-80C236.3 226.3 230.1 224 224 224S211.7 226.3 207 231l-80 80c-9.375 9.375-9.375 24.56 0 33.94S151.6 354.3 160.1 344.1zM384 64h-40V24C344 10.75 333.3 0 320 0s-24 10.75-24 24V64h-144V24C152 10.75 141.3 0 128 0S104 10.75 104 24V64H64C28.65 64 0 92.65 0 128v320c0 35.35 28.65 64 64 64h320c35.35 0 64-28.65 64-64V128C448 92.65 419.3 64 384 64zM400 448c0 8.824-7.178 16-16 16H64c-8.822 0-16-7.176-16-16V192h352V448z"/></svg>