<svg xmlns="http://www.w3.org/2000/svg" viewBox="0 0 512 512"><!--! Font Awesome Pro 6.0.0-alpha3 by @fontawesome - https://fontawesome.com License - https://fontawesome.com/license (Commercial License) --><path d="M448 32h-176.9c-9.938 0-19.73 2.311-28.62 6.757L192 64H160V48C160 39.16 152.8 32 144 32h-64C71.16 32 64 39.16 64 48V64C28.65 64 0 92.65 0 128v288c0 35.35 28.65 64 64 64h384c35.35 0 64-28.65 64-64V96C512 60.65 483.3 32 448 32zM464 416c0 8.836-7.164 16-16 16H64c-8.836 0-16-7.164-16-16V240h84.53C129.9 250.3 128 260.9 128 272c0 70.69 57.31 128 128 128c70.69 0 128-57.31 128-128c0-11.12-1.861-21.71-4.525-32H464V416zM176 272C176 227.9 211.9 192 256 192s80 35.89 80 80c0 44.11-35.89 80-80 80S176 316.1 176 272zM464 192h-108.8C331.7 162.1 296.3 144 256 144C215.8 144 180.3 162.1 156.8 192H48V128c0-8.838 7.164-16 16-16h139.3L272 80H448c8.836 0 16 7.162 16 16V192z"/></svg>