<svg xmlns="http://www.w3.org/2000/svg" viewBox="0 0 640 512"><!--! Font Awesome Pro 6.0.0-alpha3 by @fontawesome - https://fontawesome.com License - https://fontawesome.com/license (Commercial License) --><path d="M128 432c-8.822 0-16-7.178-16-16V184.5L65.23 147.8C64.46 151.8 64 155.8 64 160v256c0 35.35 28.65 64 64 64h361.1l-61.24-48H128zM630.8 469.1l-55.93-43.84C575.3 422.2 576 419.2 576 416V160c0-35.35-28.65-64-64-64h-72l-8.457-22.51C422.2 48.51 398.3 32 371.6 32H268.4C241.7 32 217.9 48.51 208.5 73.45L200 96H154.8L38.81 5.109C34.41 1.672 29.19 0 24.03 0c-7.125 0-14.19 3.156-18.91 9.187c-8.188 10.44-6.375 25.53 4.062 33.7l591.1 463.1c10.5 8.203 25.56 6.328 33.69-4.078C643.1 492.4 641.2 477.3 630.8 469.1zM318.3 224.2C318.9 224.2 319.4 224 320 224c30.64 0 56.27 21.67 62.5 50.48L318.3 224.2zM528 388.5l-98.77-77.41C430.9 303.6 432 295.1 432 288c0-61.86-50.14-112-112-112c-17.51 0-33.96 4.145-48.62 11.39L216 144H233.2l20.19-53.64C255.7 84.16 261.8 80 268.4 80h103.3c6.631 0 12.65 4.172 14.98 10.38L406.7 144H512c8.822 0 16 7.178 16 16V388.5zM370.8 387.3l-45.69-35.81C323.4 351.6 321.7 352 320 352c-31.82 0-58.07-23.41-62.97-53.86L211.3 262.3C209.3 270.6 208 279.1 208 288c0 61.86 50.14 112 112 112C338.4 400 355.5 395.1 370.8 387.3z"/></svg>