<svg xmlns="http://www.w3.org/2000/svg" viewBox="0 0 512 512"><!--! Font Awesome Pro 6.0.0-alpha3 by @fontawesome - https://fontawesome.com License - https://fontawesome.com/license (Commercial License) --><path d="M112 176V352c0 17.67 14.33 32 32 32h224c17.67 0 32-14.33 32-32V176c0-17.67-14.33-32-32-32h-36l-6.188-16.44C322.3 118.2 313.4 112 303.4 112H208.6c-10 0-19 6.188-22.5 15.56L180 144H144C126.3 144 112 158.3 112 176zM160 192h53.34l11.92-32h61.47l12.05 32H352v144H160V192zM136 464H48v-88C48 362.7 37.25 352 24 352S0 362.7 0 375.1V480c0 17.67 14.33 32 32 32h104C149.3 512 160 501.3 160 488S149.3 464 136 464zM23.1 160C37.25 160 48 149.3 48 136V48h88C149.3 48 160 37.25 160 24S149.3 0 136 0H32C14.33 0 0 14.33 0 32v104C0 149.3 10.75 160 23.1 160zM480 0h-104C362.7 0 352 10.75 352 23.1S362.7 48 375.1 48H464v88C464 149.3 474.7 160 488 160S512 149.3 512 136V32C512 14.33 497.7 0 480 0zM488 352c-13.25 0-24 10.75-24 23.1V464h-88C362.7 464 352 474.7 352 487.1S362.7 512 375.1 512H480c17.67 0 32-14.33 32-32v-104C512 362.7 501.3 352 488 352zM256 224C233.9 224 216 241.9 216 264C216 286.1 233.9 304 256 304c22.08 0 40-17.92 40-40C296 241.9 278.1 224 256 224z"/></svg>