<svg xmlns="http://www.w3.org/2000/svg" viewBox="0 0 512 512"><!--! Font Awesome Pro 6.0.0-alpha3 by @fontawesome - https://fontawesome.com License - https://fontawesome.com/license (Commercial License) --><path d="M448 96h-72l-8.457-22.51C358.2 48.51 334.3 32 307.6 32H204.4C177.7 32 153.9 48.51 144.5 73.45L136 96H64C28.65 96 0 124.7 0 160v256c0 35.35 28.65 64 64 64h384c35.35 0 64-28.65 64-64V160C512 124.7 483.3 96 448 96zM464 416c0 8.822-7.178 16-16 16H64c-8.822 0-16-7.178-16-16V160c0-8.822 7.178-16 16-16h105.2l20.19-53.64C191.7 84.16 197.8 80 204.4 80h103.3c6.631 0 12.65 4.172 14.98 10.38L342.7 144H448c8.822 0 16 7.178 16 16V416zM256 176C194.1 176 144 226.1 144 288c0 61.86 50.14 112 112 112s112-50.14 112-112C368 226.1 317.9 176 256 176zM256 352c-35.29 0-64-28.71-64-64c0-35.29 28.71-64 64-64s64 28.71 64 64C320 323.3 291.3 352 256 352z"/></svg>