<svg xmlns="http://www.w3.org/2000/svg" viewBox="0 0 576 512"><!--! Font Awesome Pro 6.0.0-alpha3 by @fontawesome - https://fontawesome.com License - https://fontawesome.com/license (Commercial License) --><path d="M562.8 415.2l-243.9-302l59.81-74.06c8.344-10.31 6.75-25.44-3.562-33.75c-10.38-8.344-25.44-6.688-33.75 3.563L288 74.93L234.7 8.901C226.4-1.381 211.3-3.006 200.9 5.338C190.6 13.65 189 28.78 197.3 39.09l59.81 74.06L13.19 415.2C4.688 425.7 0 438.1 0 452.5C0 485.3 26.69 512 59.47 512h457.1C549.3 512 576 485.3 576 452.5C576 438.1 571.3 425.7 562.8 415.2zM185.1 463.1L288 327.1l102 136H185.1zM516.5 463.1h-66.54l-142.8-190.4c-9.062-12.06-29.31-12.06-38.38 0l-142.8 190.4H59.47C53.16 463.1 48 458.8 48 452.5c0-2.594 .9062-5.156 2.531-7.188L288 151.3l237.4 293.1C527.1 447.4 528 449.9 528 452.5C528 458.8 522.8 463.1 516.5 463.1z"/></svg>