<svg xmlns="http://www.w3.org/2000/svg" viewBox="0 0 640 512"><!--! Font Awesome Pro 6.0.0-alpha3 by @fontawesome - https://fontawesome.com License - https://fontawesome.com/license (Commercial License) --><path d="M616 464h-96.37l49.46-119.8c13.15-31.83 6.807-66.55-13.02-91.85l1.174-104.8c.3945-34.74-20.11-65.77-52.21-79.03l-150.2-62.06C322.7-6.799 286.3 .7168 262 25.61L188.9 100.7C156.1 104.7 127.1 124.8 114.8 156.6L50.33 312.8C43.86 328.4 51.32 346.4 67 352.9c15.68 6.477 33.64-.9863 40.12-16.66l17.59-42.59l340.7 140.7L453.2 464H24C10.75 464 0 474.7 0 488C0 501.3 10.75 512 24 512h592c13.25 0 24-10.75 24-24C640 474.7 629.3 464 616 464zM295 57.75c11.02-11.31 27.57-14.72 42.17-8.695l150.2 62.06c14.6 6.029 23.91 20.13 23.74 35.92l-.8184 73.26L243.9 110.2L295 57.75zM128.1 245.2l29.32-70.98C167.1 150.7 194.1 139.5 217.6 149.2l283.9 117.3c23.48 9.699 34.7 36.7 24.1 60.18l-29.32 70.98L128.1 245.2zM475.6 289c-15.68-6.477-33.64 .9824-40.12 16.66c-6.475 15.68 .9863 33.64 16.67 40.12c15.68 6.475 33.64-.9863 40.12-16.67C498.7 313.4 491.3 295.5 475.6 289zM220.1 183.5C204.4 176.1 186.4 184.4 179.9 200.1s.9863 33.64 16.66 40.12c15.68 6.477 33.64-.9863 40.12-16.67S235.7 189.9 220.1 183.5z"/></svg>