<svg xmlns="http://www.w3.org/2000/svg" viewBox="0 0 576 512"><!--! Font Awesome Pro 6.0.0-alpha3 by @fontawesome - https://fontawesome.com License - https://fontawesome.com/license (Commercial License) --><path d="M355.9 183.5c-15.68 6.479-23.14 24.44-16.66 40.13c6.477 15.68 24.44 23.15 40.12 16.67c15.68-6.477 23.14-24.45 16.66-40.13C389.6 184.5 371.6 177 355.9 183.5zM100.4 289.1c-15.68 6.479-23.14 24.44-16.66 40.13c6.475 15.68 24.44 23.15 40.12 16.67c15.68-6.477 23.14-24.45 16.67-40.13C134.1 290.1 116.1 282.6 100.4 289.1zM110.6 434.5l340.7-140.8l17.59 42.6c6.477 15.68 24.44 23.15 40.12 16.67c15.68-6.479 23.14-24.45 16.67-40.13l-64.5-156.2c-13.15-31.84-42.14-51.97-74.04-55.91l-73.15-75.13c-24.24-24.9-60.66-32.42-92.77-19.15L70.96 68.54C38.85 81.8 18.35 112.8 18.75 147.6l1.174 104.9c-19.82 25.31-26.16 60.04-13.02 91.87l62.32 148.7c6.475 15.68 24.44 23.15 40.12 16.67c15.68-6.479 23.14-24.45 16.67-40.13L110.6 434.5zM88.55 111.1l150.2-62.07c14.6-6.031 31.15-2.611 42.17 8.697l51.12 52.49L65.63 220.3L64.81 147.1C64.64 131.3 73.95 117.2 88.55 111.1zM78.81 397.7l-29.32-70.1c-9.699-23.49 1.516-50.49 24.1-60.19l283.9-117.3c23.48-9.701 50.48 1.516 60.18 25l29.32 70.1L78.81 397.7zM568.3 470.4l-44.83-41.38c-40.5-37.38-110.4-37.38-150.9 0l-44.83 41.38c-9.734 9-10.34 24.17-1.359 33.92c9.016 9.766 24.19 10.31 33.92 1.359l44.83-41.38c22.38-20.69 63.41-20.69 85.78 0l44.83 41.38C540.3 509.9 546.2 512 552 512c6.453 0 12.91-2.594 17.64-7.719C578.6 494.5 578 479.4 568.3 470.4z"/></svg>