<svg xmlns="http://www.w3.org/2000/svg" viewBox="0 0 640 512"><!--! Font Awesome Pro 6.0.0-alpha3 by @fontawesome - https://fontawesome.com License - https://fontawesome.com/license (Commercial License) --><path d="M224 336c-13.25 0-24 10.74-24 24C200 373.3 210.7 384 224 384s24-10.75 24-24C248 346.7 237.3 336 224 336zM416 336c-13.25 0-24 10.74-24 24c0 13.25 10.75 24 24 24s24-10.75 24-24C440 346.7 429.3 336 416 336zM490.4 284.4l-31.82-79.54C447.7 177.6 421.7 160 392.4 160H247.6C218.3 160 192.3 177.6 181.4 204.8l-31.82 79.56C126.9 301.1 112 329.2 112 360V480c0 17.67 14.33 32 32 32s32-14.33 32-32v-32h288v32c0 17.67 14.33 32 32 32s32-14.33 32-32v-120C528 329.2 513.1 301.1 490.4 284.4zM225.9 222.7C229.5 213.8 238 208 247.6 208h144.8c9.598 0 18.1 5.76 21.66 14.66L430.6 264H209.4L225.9 222.7zM480 400H160v-40c0-26.47 21.53-48 48-48h224c26.47 0 48 21.53 48 48V400zM640 184c0-8.528-4.559-16.78-12.6-21.12l-295.9-159.9c-3.547-1.922-7.623-2.962-11.55-2.962S311.1 1.042 308.4 2.964L12.59 162.9C4.556 167.2-.0032 175.5-.0032 184c0 12.48 10.06 23.1 24.04 23.1c3.85 0 7.754-.931 11.37-2.894l284.6-153.7l284.6 153.7C608.2 207.1 612.1 208 615.1 208C630.1 208 640 196.4 640 184z"/></svg>