<svg xmlns="http://www.w3.org/2000/svg" viewBox="0 0 512 512"><!--! Font Awesome Pro 6.0.0-alpha3 by @fontawesome - https://fontawesome.com License - https://fontawesome.com/license (Commercial License) --><path d="M426.4 284.4l-31.82-79.54C383.7 177.6 357.7 160 328.4 160H183.6C154.3 160 128.3 177.6 117.4 204.8l-31.82 79.56C62.88 301.1 48 329.2 48 360V480c0 17.67 14.33 32 32 32s32-14.33 32-32v-32h288v32c0 17.67 14.33 32 32 32s32-14.33 32-32v-120C464 329.2 449.1 301.1 426.4 284.4zM161.9 222.7C165.5 213.8 174 208 183.6 208h144.8c9.598 0 18.1 5.76 21.66 14.66L366.6 264H145.4L161.9 222.7zM416 400H96v-40c0-26.47 21.53-48 48-48h224c26.47 0 48 21.53 48 48V400zM505.9 111.1H447.8l-21.37-31.1l21.37-31.1h58.14c4.619 0 7.619-5.048 5.246-9.001C497.2 15.66 471.7 0 442.4 0c-32.79 0-60.59 19.86-73.01 48H142.8C131.9 23.19 108.6 4.574 80.9 .7793c-33.87-4.641-64.28 11.89-80.05 38.19c-2.381 3.965 .6094 9.034 5.24 9.034H64.22l21.37 31.1L64.22 112H6.078c-4.619 0-7.619 5.047-5.246 9.002C14.82 144.3 40.33 160 69.57 160c32.79 0 60.59-19.86 73.01-47.1h226.6c10.97 24.81 34.23 43.43 61.94 47.22c33.87 4.641 64.28-11.89 80.05-38.19C513.5 117.1 510.5 111.1 505.9 111.1zM160 336c-13.25 0-24 10.74-24 24C136 373.3 146.7 384 160 384s24-10.75 24-24C184 346.7 173.3 336 160 336zM352 336c-13.25 0-24 10.74-24 24c0 13.25 10.75 24 24 24s24-10.75 24-24C376 346.7 365.3 336 352 336z"/></svg>