<svg xmlns="http://www.w3.org/2000/svg" viewBox="0 0 640 512"><!--! Font Awesome Pro 6.0.0-alpha3 by @fontawesome - https://fontawesome.com License - https://fontawesome.com/license (Commercial License) --><path d="M102.4 200.9L71.39 192.3l26.22-18.11c12.83-8.875 16.81-26.44 9.094-39.95L94.28 112.5l23.55 7.281c15.09 4.688 31.34-3.266 37.02-17.92l12.52-31.98l4.266 6.844c7 11.27 21.8 14.7 33.05 7.703c11.27-7 14.7-21.8 7.703-33.05L190.8 16.55C185.6 6.406 175.3 0 163.8 0c-12.55 0-23.61 7.562-28.16 19.25L116.2 68.97l-50.5-15.59C53.75 49.75 40.97 53.59 33.14 63.31C25.28 73.08 24.22 86.44 30.42 97.34l26.55 46.59L13.16 174.2c-10.3 7.062-15.17 19.52-12.39 31.7c2.766 12.19 12.52 21.31 22.11 22.64l66.69 18.56C91.72 247.7 93.88 248 96.02 248c10.5 0 20.16-6.953 23.11-17.56C122.7 217.7 115.2 204.4 102.4 200.9zM539.6 289.1c-15.68-6.477-33.64 .9844-40.12 16.67c-6.475 15.68 .9863 33.65 16.67 40.13c15.68 6.479 33.64-.9844 40.12-16.67C562.7 313.5 555.3 295.6 539.6 289.1zM620.1 252.5l1.174-104.9c.3926-34.75-20.11-65.79-52.21-79.05l-150.2-62.07c-32.11-13.27-68.53-5.748-92.77 19.15L252.9 100.7C220.1 104.7 191.1 124.8 178.8 156.7L114.3 312.8c-6.477 15.68 .9844 33.65 16.67 40.13c15.68 6.477 33.64-.9863 40.12-16.67l17.59-42.6l340.7 140.8l-15.41 35.07c-6.475 15.68 .9844 33.65 16.67 40.13c15.68 6.479 33.64-.9863 40.12-16.67l62.32-148.7C646.2 312.5 639.9 277.8 620.1 252.5zM359 57.76c11.02-11.31 27.57-14.73 42.17-8.697l150.2 62.07c14.6 6.031 23.91 20.14 23.74 35.93L574.4 220.3L307.9 110.3L359 57.76zM590.5 326.7l-29.32 70.1L192.1 245.2l29.32-70.1C231.1 150.8 258.1 139.5 281.6 149.2l283.9 117.3C588.1 276.2 600.2 303.2 590.5 326.7zM284.1 183.5C268.4 177 250.4 184.5 243.9 200.2C237.5 215.9 244.9 233.8 260.6 240.3c15.68 6.479 33.64-.9863 40.12-16.67C307.2 207.1 299.7 189.1 284.1 183.5z"/></svg>