<svg xmlns="http://www.w3.org/2000/svg" viewBox="0 0 640 512"><!--! Font Awesome Pro 6.0.0-alpha3 by @fontawesome - https://fontawesome.com License - https://fontawesome.com/license (Commercial License) --><path d="M144 192h-32C103.2 192 96 199.2 96 208v32C96 248.8 103.2 256 112 256h32C152.8 256 160 248.8 160 240v-32C160 199.2 152.8 192 144 192zM144 288h-32C103.2 288 96 295.2 96 304v32C96 344.8 103.2 352 112 352h32C152.8 352 160 344.8 160 336v-32C160 295.2 152.8 288 144 288zM208 96C199.2 96 192 103.2 192 112v32C192 152.8 199.2 160 208 160h32C248.8 160 256 152.8 256 144v-32C256 103.2 248.8 96 240 96H208zM144 96h-32C103.2 96 96 103.2 96 112v32C96 152.8 103.2 160 112 160h32C152.8 160 160 152.8 160 144v-32C160 103.2 152.8 96 144 96zM304 56v48C304 117.3 314.8 128 328 128S352 117.3 352 104v-48C352 25.12 326.9 0 296 0h-240C25.12 0 0 25.12 0 56v400C0 469.3 10.75 480 24 480s24-10.75 24-24V56c0-4.406 3.594-8 8-8h240C300.4 48 304 51.59 304 56zM256 212.1V208C256 199.2 248.8 192 240 192h-32C199.2 192 192 199.2 192 208v32C192 248.8 199.2 256 208 256h30.44L256 212.1zM602.4 284.4l-31.82-79.54C559.7 177.6 533.7 160 504.4 160H359.6c-29.33 0-55.33 17.6-66.23 44.83l-31.82 79.55C238.9 301.1 224 329.2 224 360V480c0 17.67 14.33 32 32 32s32-14.33 32-32v-32h288v32c0 17.67 14.33 32 32 32s32-14.33 32-32v-120C640 329.2 625.1 301.1 602.4 284.4zM337.9 222.7C341.5 213.8 350 208 359.6 208h144.8c9.598 0 18.1 5.76 21.67 14.66L542.6 264h-221.2L337.9 222.7zM592 400h-320v-40c0-26.47 21.53-48 48-48h224c26.47 0 48 21.53 48 48V400zM528 336c-13.25 0-24 10.74-24 24c0 13.25 10.75 24 24 24s24-10.75 24-24C552 346.7 541.3 336 528 336zM336 336c-13.25 0-24 10.74-24 24c0 13.25 10.75 24 24 24s24-10.75 24-24C360 346.7 349.3 336 336 336z"/></svg>