<svg xmlns="http://www.w3.org/2000/svg" viewBox="0 0 512 512"><!--! Font Awesome Pro 6.0.0-alpha3 by @fontawesome - https://fontawesome.com License - https://fontawesome.com/license (Commercial License) --><path d="M448 96h-16V80C432 71.13 424.9 64 416 64h-96c-8.875 0-16 7.125-16 16V96h-96V80C208 71.13 200.9 64 192 64H96C87.13 64 80 71.13 80 80V96H64C28.8 96 0 124.8 0 160v224C0 419.2 28.8 448 63.1 448H448c35.2 0 64-28.8 64-63.1V160C512 124.8 483.2 96 448 96zM464 384c0 8.836-7.164 16-16 16H64c-8.836 0-16-7.164-16-16V160c0-8.838 7.164-16 16-16h384c8.836 0 16 7.162 16 16V384zM416 224h-32V192c0-8.836-7.164-16-16-16S352 183.2 352 192v32h-32c-8.836 0-16 7.164-16 16S311.2 256 320 256h32v32c0 8.836 7.164 16 16 16S384 296.8 384 288V256h32c8.836 0 16-7.164 16-16S424.8 224 416 224zM192 224H96C87.16 224 80 231.2 80 240S87.16 256 96 256h96c8.836 0 16-7.164 16-16S200.8 224 192 224z"/></svg>