<svg xmlns="http://www.w3.org/2000/svg" viewBox="0 0 512 512"><!--! Font Awesome Pro 6.0.0-alpha3 by @fontawesome - https://fontawesome.com License - https://fontawesome.com/license (Commercial License) --><path d="M462.9 188.7l-40.56-101.4C408.9 53.72 376.9 32 340.7 32H171.3C135.1 32 103.1 53.72 89.63 87.33L49.06 188.7C19.91 205.2 0 236.1 0 272l.0247 64c0 23.63 12.95 44.04 31.1 55.12V448c0 17.67 14.32 32 31.1 32S96 465.7 96 448v-48h320V448c0 17.67 14.33 32 32 32c17.67 0 31.1-14.33 31.1-32v-56.88C499.1 380 512 359.6 512 336v-64C512 236.1 492.1 205.2 462.9 188.7zM134.2 105.1C140.3 89.88 154.9 80 171.3 80h169.3c16.45 0 31.03 9.875 37.14 25.14L406.2 176H105.8L134.2 105.1zM448 352h-128v-32c0-17.67-14.33-32-32-32H224c-17.67 0-32 14.33-32 32v32H64c-8.822 0-16-7.178-16-16v-32h40c13.25 0 24-10.75 24-24S101.3 256 88 256H50.95C57.57 237.4 75.17 224 96 224h320c20.83 0 38.43 13.42 45.05 32H424c-13.26 0-24 10.75-24 24s10.74 24 24 24h40v32C464 344.8 456.8 352 448 352z"/></svg>