<svg xmlns="http://www.w3.org/2000/svg" viewBox="0 0 448 512"><!--! Font Awesome Pro 6.0.0-alpha3 by @fontawesome - https://fontawesome.com License - https://fontawesome.com/license (Commercial License) --><path d="M384 127.1c23.5 0 42.63-19.09 42.63-42.59C426.6 61.75 384 0 384 0s-42.63 61.75-42.63 85.38C341.4 108.9 360.5 127.1 384 127.1zM64 127.1c23.5 0 42.63-19.09 42.63-42.59C106.6 61.75 64 0 64 0S21.38 61.75 21.38 85.38C21.38 108.9 40.5 127.1 64 127.1zM224 127.1c23.5 0 42.63-19.1 42.63-42.6C266.6 61.75 224 .0062 224 .0062S181.4 61.75 181.4 85.38C181.4 108.9 200.5 127.1 224 127.1zM394.4 284.4l-31.82-79.54C351.7 177.6 325.7 160 296.4 160H151.6C122.3 160 96.28 177.6 85.38 204.8l-31.82 79.56C30.88 301.1 16 329.2 16 360V480c0 17.67 14.33 32 32 32s32-14.33 32-32v-32h288v32c0 17.67 14.33 32 32 32s32-14.33 32-32v-120C432 329.2 417.1 301.1 394.4 284.4zM129.9 222.7C133.5 213.8 142 208 151.6 208h144.8c9.598 0 18.1 5.76 21.66 14.66L334.6 264H113.4L129.9 222.7zM384 400H64v-40c0-26.47 21.53-48 48-48h224c26.47 0 48 21.53 48 48V400zM128 336c-13.25 0-24 10.74-24 24C104 373.3 114.7 384 128 384s24-10.75 24-24C152 346.7 141.3 336 128 336zM320 336c-13.25 0-24 10.74-24 24c0 13.25 10.75 24 24 24s24-10.75 24-24C344 346.7 333.3 336 320 336z"/></svg>