<svg xmlns="http://www.w3.org/2000/svg" viewBox="0 0 512 512"><!--! Font Awesome Pro 6.0.0-alpha3 by @fontawesome - https://fontawesome.com License - https://fontawesome.com/license (Commercial License) --><path d="M112 256c-17.67 0-32 14.33-32 32c0 17.67 14.33 32 32 32s32-14.33 32-32C144 270.3 129.7 256 112 256zM400 256c-17.67 0-32 14.33-32 32c0 17.67 14.33 32 32 32s32-14.33 32-32C432 270.3 417.7 256 400 256zM462.9 188.7l-40.56-101.4C408.9 53.72 376.9 32 340.7 32H171.3C135.1 32 103.1 53.72 89.63 87.33L49.06 188.7C19.91 205.2 0 236.1 0 272V448c0 17.67 14.33 32 32 32s32-14.33 32-32v-48h384V448c0 17.67 14.33 32 32 32s32-14.33 32-32V272C512 236.1 492.1 205.2 462.9 188.7zM134.2 105.1C140.3 89.88 154.9 80 171.3 80h169.3c16.45 0 31.03 9.875 37.14 25.14L406.2 176H105.8L134.2 105.1zM464 352h-416V272C48 245.5 69.55 224 96.01 224h319.1C442.5 224 464 245.5 464 272V352z"/></svg>