<svg xmlns="http://www.w3.org/2000/svg" viewBox="0 0 640 512"><!--! Font Awesome Pro 6.0.0-alpha3 by @fontawesome - https://fontawesome.com License - https://fontawesome.com/license (Commercial License) --><path d="M616 368H576V192c0-88.37-71.63-160-160-160H96C42.98 32 0 74.98 0 128v192c0 53 43 96 96 96c0 53 43 96 96 96s96-43 96-96h328c13.25 0 24-10.75 24-23.1S629.3 368 616 368zM192 464c-26.5 0-48-21.5-48-48s21.5-48 48-48s48 21.5 48 48S218.5 464 192 464zM432 240C423.1 240 416 247.1 416 256c0 8.875 7.125 16 16 16v96h-64v-192h64V240zM528 368H480V168C480 145.9 462.1 128 440 128h-80C337.9 128 320 145.9 320 168v200H274.8C257.1 339.4 227.5 320 192 320s-66 19.38-82.75 48H96c-26.5 0-48-21.5-48-48V128c0-26.5 21.5-48 48-48h320c61.88 .125 111.9 50.13 112 112V368zM256 128H128C110.4 128 96 142.4 96 160v64c0 17.62 14.38 32 32 32h128c17.62 0 32-14.38 32-32V160C288 142.4 273.6 128 256 128z"/></svg>