<svg xmlns="http://www.w3.org/2000/svg" viewBox="0 0 640 512"><!--! Font Awesome Pro 6.0.0-alpha3 by @fontawesome - https://fontawesome.com License - https://fontawesome.com/license (Commercial License) --><path d="M88 200C88 213.3 98.75 224 112 224s24-10.75 24-24c0-13.26-10.75-24-24-24S88 186.7 88 200zM244.8 240H48V200c0-26.47 21.53-48 48-48h197.6C311.8 136.9 334.8 128 359.6 128h22.58c-1.318-1.137-2.373-2.551-3.75-3.617l-31.82-79.54C335.7 17.6 309.7 0 280.4 0H135.6C106.3 0 80.28 17.6 69.38 44.83l-31.82 79.55C14.88 141.1 0 169.2 0 200V320c0 17.67 14.33 32 32 32s32-14.33 32-32V288h150.9C220.6 279.7 227.1 271.9 234.8 265L244.8 240zM113.9 62.66C117.5 53.76 126 48 135.6 48h144.8c9.598 0 18.1 5.76 21.67 14.66L318.6 104H97.41L113.9 62.66zM336 336c-13.25 0-24 10.74-24 24c0 13.25 10.75 24 24 24s24-10.75 24-24C360 346.7 349.3 336 336 336zM528 336c-13.25 0-24 10.74-24 24c0 13.25 10.75 24 24 24s24-10.75 24-24C552 346.7 541.3 336 528 336zM602.4 284.4l-31.82-79.54C559.7 177.6 533.7 160 504.4 160H359.6c-29.33 0-55.33 17.6-66.23 44.83l-31.82 79.55C238.9 301.1 224 329.2 224 360V480c0 17.67 14.33 32 32 32s32-14.33 32-32v-32h288v32c0 17.67 14.33 32 32 32s32-14.33 32-32v-120C640 329.2 625.1 301.1 602.4 284.4zM337.9 222.7C341.5 213.8 350 208 359.6 208h144.8c9.598 0 18.1 5.76 21.67 14.66L542.6 264h-221.2L337.9 222.7zM592 400h-320v-40c0-26.47 21.53-48 48-48h224c26.47 0 48 21.53 48 48V400z"/></svg>