<svg xmlns="http://www.w3.org/2000/svg" viewBox="0 0 576 512"><!--! Font Awesome Pro 6.0.0-alpha3 by @fontawesome - https://fontawesome.com License - https://fontawesome.com/license (Commercial License) --><path d="M303 200.1C307.7 205.7 313.9 208 320 208s12.28-2.344 16.97-7.031l64-64c9.375-9.375 9.375-24.56 0-33.94s-24.56-9.375-33.94 0L344 126.1V24C344 10.75 333.3 0 320 0s-24 10.75-24 24v102.1L272.1 103c-9.375-9.375-24.56-9.375-33.94 0s-9.375 24.56 0 33.94L303 200.1zM569.5 44.73C563.4 36.64 554.1 32 543.1 32H472C458.7 32 448 42.74 448 56c0 13.25 10.75 24 24 24h50.77l-45.72 160H161.6L119.6 19.51C117.4 8.189 107.5 0 96 0H23.1C10.74 0 0 10.74 0 23.1C0 37.25 10.74 48 23.1 48h52.14l60.28 316.5C138.6 375.8 148.5 384 160 384H488c13.25 0 24-10.75 24-23.1C512 346.7 501.3 336 488 336H179.9L170.7 288h318.4c14.28 0 26.85-9.479 30.77-23.21l54.86-191.1C577.5 63.05 575.6 52.83 569.5 44.73zM176 416c-26.51 0-47.1 21.49-47.1 48S149.5 512 176 512s47.1-21.49 47.1-48S202.5 416 176 416zM463.1 416c-26.51 0-47.1 21.49-47.1 48s21.49 48 47.1 48s47.1-21.49 47.1-48S490.5 416 463.1 416z"/></svg>