<svg xmlns="http://www.w3.org/2000/svg" viewBox="0 0 512 512"><!--! Font Awesome Pro 6.0.0-alpha3 by @fontawesome - https://fontawesome.com License - https://fontawesome.com/license (Commercial License) --><path d="M232.1 256c0-8.75-7.188-16-15.94-16h-16C191.4 240 184.1 247.3 184.1 256l.0625 16c0 8.75 7.25 16 16 16h16c8.75 0 16-7.25 16-16L232.1 256zM168.1 304h-16c-8.75 0-16 7.25-16 16l-.0625 16c0 8.75 7.312 16 16.06 16h16c8.75 0 15.94-7.25 15.94-16L184.1 320C184.1 311.3 176.9 304 168.1 304zM264.1 304h-16c-8.75 0-16 7.25-16 16l-.0625 16c0 8.75 7.312 16 16.06 16h16c8.75 0 15.94-7.25 15.94-16l.0625-16C280.1 311.3 272.9 304 264.1 304zM136.1 256c0-8.75-7.188-16-15.94-16h-16C95.38 240 88.06 247.3 88.06 256l.0625 16c0 8.75 7.25 16 16 16h16c8.75 0 16-7.25 16-16L136.1 256zM511.3 378.8L487.9 215c-4.512-31.52-31.5-54.93-63.34-54.93l-224.4 .0566v-32L288.1 128.1c17.6 0 32.01-14.4 32.01-32V32c0-17.6-14.4-32-32-32h-224c-17.6 0-32 14.4-32 32v63.96c0 17.6 14.4 32 32 32L152.1 128v32L87.61 159.1C55.77 159.1 28.74 183.4 24.22 214.9l-23.58 164.6C.2168 382.5 0 385.5 0 388.5V480c0 17.67 14.33 32 31.1 32H479.1c17.67 0 31.1-14.33 31.1-32L512 387.9C512 384.8 511.7 381.8 511.3 378.8zM80.12 80v-32h191.1v32H80.12zM71.74 221.7C72.86 213.8 79.67 207.9 87.59 207.9l336.1 .0918c7.908 0 14.71 5.904 15.84 13.73L463.6 384H48.49L71.74 221.7zM464 464h-416v-32h416V464zM328.1 256c0-8.75-7.188-16-15.94-16h-16c-8.75 0-16.06 7.25-16.06 16l.0625 16c0 8.75 7.25 16 16 16h16c8.75 0 16-7.25 16-16L328.1 256zM408.1 240h-16c-8.75 0-16.06 7.25-16.06 16l.0625 16c0 8.75 7.25 16 16 16h16c8.75 0 16-7.25 16-16L424.1 256C424.1 247.3 416.9 240 408.1 240zM360.1 304h-16c-8.75 0-16 7.25-16 16l-.0625 16c0 8.75 7.312 16 16.06 16h16c8.75 0 15.94-7.25 15.94-16l.0625-16C376.1 311.3 368.9 304 360.1 304z"/></svg>