<svg xmlns="http://www.w3.org/2000/svg" viewBox="0 0 448 512"><!--! Font Awesome Pro 6.0.0-alpha3 by @fontawesome - https://fontawesome.com License - https://fontawesome.com/license (Commercial License) --><path d="M160 64c17.62 0 32-14.38 32-32S177.6 0 160 0S128 14.38 128 32S142.4 64 160 64zM424 208C437.3 208 448 197.3 448 184C448 170.7 437.3 160 424 160H24C10.75 160 0 170.7 0 184C0 197.3 10.75 208 24 208h20.96C16.94 252.1 0 300.7 0 340c0 32.24 11.82 62.32 32 88.13V488C32 501.3 42.75 512 56 512s24-10.75 24-24v-16.44C118.1 496.8 169.2 512 224 512s105-15.25 144-40.44V488c0 13.25 10.75 24 24 24S416 501.3 416 488v-59.87c20.18-25.81 32-55.9 32-88.13c0-39.31-16.94-87.92-44.96-132H424zM224 464c-97.03 0-176-55.63-176-124c0-35.65 21.46-88.83 55.39-132h241.2C378.5 251.2 400 304.3 400 340C400 408.4 321 464 224 464zM272 128C298.5 128 320 106.5 320 80S298.5 32 272 32S224 53.5 224 80S245.5 128 272 128z"/></svg>