<svg xmlns="http://www.w3.org/2000/svg" viewBox="0 0 320 512"><!--! Font Awesome Pro 6.0.0-alpha3 by @fontawesome - https://fontawesome.com License - https://fontawesome.com/license (Commercial License) --><path d="M278.1 352.2c-21.55 21.66-49.22 34.5-79 38.18V121.6c29.78 3.68 57.45 16.52 79 38.18c9.393 9.406 24.57 9.406 33.96 .0625c9.393-9.344 9.424-24.53 .0781-33.94c-30.64-30.76-70.4-48.43-113-52.3V24c0-13.25-10.75-24-24.01-24S151.1 10.75 151.1 24v51.07c-37.04 6.385-71.24 23.64-98.35 50.86C-17.87 197.7-17.87 314.3 53.59 386.1c27.12 27.23 61.33 44.48 98.37 50.86V488c0 13.25 10.75 24 24.01 24s24.01-10.75 24.01-24v-49.63c42.65-3.875 82.4-21.54 113-52.3c9.346-9.406 9.315-24.59-.0781-33.94C303.5 342.8 288.4 342.8 278.1 352.2zM87.61 352.2C34.77 299.2 34.77 212.8 87.63 159.8c17.96-18.06 40.21-30.02 64.33-35.76v263.9C127.8 382.2 105.6 370.2 87.61 352.2z"/></svg>