<svg xmlns="http://www.w3.org/2000/svg" viewBox="0 0 320 512"><!--! Font Awesome Pro 6.0.0-alpha3 by @fontawesome - https://fontawesome.com License - https://fontawesome.com/license (Commercial License) --><path d="M313.4 346.9c9.125 9.594 8.781 24.78-.8125 33.92c-31.46 30.01-71.7 45.99-112.9 49.49c.041 .5781 .3359 1.072 .3359 1.662v56c0 13.25-10.75 24-24.01 24c-13.25 0-23.1-10.75-23.1-24V432c0-1.055 .4687-1.955 .6016-2.975c-36.09-5.83-70.72-21.66-98.51-48.17C19.22 347.6 0 303.2 0 256s19.22-91.56 54.09-124.8C81.89 104.6 116.5 88.81 152.6 82.97C152.5 81.96 152 81.05 152 80V24c0-13.25 10.75-24 23.1-24c13.25 0 24.01 10.75 24.01 24V80c0 .5879-.293 1.08-.334 1.656c41.2 3.506 81.44 19.47 112.9 49.5c9.594 9.141 9.938 24.33 .8125 33.92c-9.189 9.625-24.38 9.906-33.94 .7969c-53-50.53-139.2-50.55-192.2 .0156C61.94 190 48 222 48 256s13.94 65.98 39.22 90.13c53 50.53 139.2 50.53 192.2 0C289 336.1 304.2 337.3 313.4 346.9z"/></svg>