<svg xmlns="http://www.w3.org/2000/svg" viewBox="0 0 512 512"><!--! Font Awesome Pro 6.0.0-alpha3 by @fontawesome - https://fontawesome.com License - https://fontawesome.com/license (Commercial License) --><path d="M128 192c17.62 0 32-14.38 32-32S145.6 128 128 128S96 142.4 96 160S110.4 192 128 192zM384 96c17.62 0 32-14.38 32-32s-14.38-32-32-32s-32 14.38-32 32S366.4 96 384 96zM32 96c17.62 0 32-14.38 32-32S49.63 32 32 32S0 46.38 0 64S14.38 96 32 96zM384 288c17.62 0 32-14.38 32-32s-14.38-32-32-32s-32 14.38-32 32S366.4 288 384 288zM64 256c0-17.62-14.38-32-32-32S0 238.4 0 256s14.38 32 32 32S64 273.6 64 256zM480 128c-17.62 0-32 14.38-32 32s14.38 32 32 32s32-14.38 32-32S497.6 128 480 128zM256 416c-17.62 0-32 14.38-32 32s14.38 32 32 32s32-14.38 32-32S273.6 416 256 416zM280 276.8V56C280 42.75 269.3 32 256 32S232 42.75 232 56v220.8l-191.4 160.8c-10.14 8.531-11.47 23.66-2.938 33.81c8.516 10.16 23.64 11.45 33.81 2.938L256 319.3l184.6 155C445.1 478.2 450.5 480 455.1 480c6.844 0 13.64-2.906 18.39-8.562c8.531-10.16 7.203-25.28-2.938-33.81L280 276.8z"/></svg>