<svg xmlns="http://www.w3.org/2000/svg" viewBox="0 0 512 512"><!--! Font Awesome Pro 6.0.0-alpha3 by @fontawesome - https://fontawesome.com License - https://fontawesome.com/license (Commercial License) --><path d="M461.2 288H223.1V50.77c0-8.875-7.184-16.26-15.81-16.26c-.75 0-1.315 .0134-2.065 .1384c-119 16.88-210.1 120.7-205.1 245.5c4.125 124 107.7 227.6 231.7 231.7C234.6 511.1 237.4 512 239.1 512c121 0 220.9-89.62 237.4-206.1C478.6 296.4 470.8 288 461.2 288zM239.1 464c-2.125 0-4.375 0-6.5-.125C134.5 460.6 51.34 377.5 48.09 278.5C45.21 193.2 98.34 118.4 175.1 91.12V336h244.8C394.1 411 321.1 464 239.1 464zM288.8 .027C288.5 .027 288.1 0 287.8 0c-8.625 0-15.77 7.524-15.77 16.27l-.0026 223.7l223.7 .0004c9.125 0 16.87-7.776 16.25-16.78C503.7 103.7 408.3 8.277 288.8 .027z"/></svg>