<svg xmlns="http://www.w3.org/2000/svg" viewBox="0 0 512 512"><!--! Font Awesome Pro 6.0.0-alpha3 by @fontawesome - https://fontawesome.com License - https://fontawesome.com/license (Commercial License) --><path d="M344 192c13.25 0 24-10.75 24-24v-80C368 74.75 357.3 64 344 64S320 74.75 320 88v80C320 181.3 330.8 192 344 192zM440 352c13.25 0 24-10.75 24-24v-240C464 74.75 453.3 64 440 64S416 74.75 416 88v240C416 341.3 426.8 352 440 352zM248 256c13.25 0 24-10.75 24-24v-80C272 138.8 261.3 128 248 128S224 138.8 224 152v80C224 245.3 234.8 256 248 256zM152 352c13.25 0 24-10.75 24-24v-80C176 234.8 165.3 224 152 224S128 234.8 128 248v80C128 341.3 138.8 352 152 352zM488 432H48V56C48 42.75 37.25 32 24 32S0 42.75 0 56V448c0 17.59 14.41 32 32 32h456c13.25 0 24-10.75 24-24S501.3 432 488 432z"/></svg>