<svg xmlns="http://www.w3.org/2000/svg" viewBox="0 0 512 512"><!--! Font Awesome Pro 6.0.0-alpha3 by @fontawesome - https://fontawesome.com License - https://fontawesome.com/license (Commercial License) --><path d="M48 224H160V64H48C21.6 64 0 85.6 0 112v64C0 202.4 21.6 224 48 224zM48 112h64v64h-64V112zM464 288H384c0-8.838-7.164-16-16-16S352 279.2 352 288h-96v48h96v64h-96V448h96c0 8.836 7.164 16 16 16S384 456.8 384 448h80c26.4 0 48-21.6 48-48v-64C512 309.6 490.4 288 464 288zM464 400H384v-64h80V400zM0 336v64C0 426.4 21.6 448 48 448H224V288H48C21.6 288 0 309.6 0 336zM176 400h-128v-64h128V400zM464 64H288c0-8.838-7.164-16-16-16S256 55.16 256 64H192v48h64v64H192V224h64c0 8.836 7.164 16 16 16S288 232.8 288 224h176C490.4 224 512 202.4 512 176v-64C512 85.6 490.4 64 464 64zM464 176H288v-64h176V176z"/></svg>