<svg xmlns="http://www.w3.org/2000/svg" viewBox="0 0 640 512"><!--! Font Awesome Pro 6.0.0-alpha3 by @fontawesome - https://fontawesome.com License - https://fontawesome.com/license (Commercial License) --><path d="M576 192c35.35 0 64-28.65 64-64c0-35.35-28.65-64-64-64s-64 28.65-64 64C512 163.3 540.7 192 576 192zM576 384c-14.43 0-27.61 4.953-38.31 13.01l-81.9-49.14C460.8 334.1 464 319.5 464 304c0-19.68-4.805-38.11-12.74-54.77l42.93-31.48c10.69-7.812 13-22.84 5.156-33.53c-7.812-10.66-22.81-13.09-33.53-5.156l-42.9 31.46C400.1 189.3 369.7 176 336 176c-10.84 0-21.19 1.752-31.24 4.289l-34-72.86C281.4 96.01 288 80.82 288 64c0-35.35-28.65-64-64-64S160 28.65 160 64c0 35.35 28.65 64 64 64c1.105 0 2.133-.2715 3.225-.3262l33.99 72.84C229.1 223.8 208 261.3 208 304c0 70.69 57.31 128 128 128c37.91 0 71.6-16.79 95.04-42.98l81.95 49.17C512.5 441.4 512 444.6 512 448c0 35.35 28.65 64 64 64S640 483.3 640 448C640 412.7 611.3 384 576 384zM336 384C291.9 384 256 348.1 256 304S291.9 224 336 224C380.1 224 416 259.9 416 304S380.1 384 336 384zM152 280H123.3C113.8 256.6 90.84 240 64 240c-35.35 0-64 28.65-64 64c0 35.35 28.65 64 64 64c26.84 0 49.75-16.56 59.25-40H152c13.25 0 24-10.75 24-24S165.3 280 152 280z"/></svg>