<svg xmlns="http://www.w3.org/2000/svg" viewBox="0 0 576 512"><!--! Font Awesome Pro 6.0.0-alpha3 by @fontawesome - https://fontawesome.com License - https://fontawesome.com/license (Commercial License) --><path d="M208 192C194.8 192 184 202.8 184 216v266c0 13.25 10.75 24 24 24s24-10.75 24-24V216C232 202.8 221.3 192 208 192zM48 352c-13.25 0-24 10.75-24 24v112C24 501.3 34.75 512 48 512s24-10.75 24-24v-112C72 362.8 61.25 352 48 352zM528 0C501.5 0 480 21.5 480 48c0 2.375 .375 4.75 .75 7.125l-95.38 76.25C380 129.3 374.1 128 368 128s-12 1.25-17.38 3.375L255.3 55.12C255.6 52.75 256 50.38 256 48C256 21.5 234.5 0 208 0S160 21.5 160 48c0 4.25 .75 8.375 1.75 12.25l-101.5 101.5C56.37 160.8 52.25 160 48 160C21.5 160 0 181.5 0 208S21.5 256 48 256S96 234.5 96 208c0-4.25-.75-8.375-1.75-12.25l101.5-101.5C199.6 95.25 203.8 96 208 96c6.125 0 12-1.25 17.38-3.375l95.38 76.25C320.4 171.3 320 173.6 320 176C320 202.5 341.5 224 368 224S416 202.5 416 176c0-2.375-.375-4.75-.75-7.125l95.38-76.25C516 94.75 521.9 96 528 96C554.5 96 576 74.5 576 48S554.5 0 528 0zM368 320c-13.25 0-24 10.75-24 24v139.3c0 13.25 10.75 24 24 24s24-10.75 24-24V344C392 330.8 381.3 320 368 320zM528 192c-13.25 0-24 10.75-24 24v271.9c0 13.25 10.75 24 24 24s24-10.75 24-24V216C552 202.8 541.3 192 528 192z"/></svg>