<svg xmlns="http://www.w3.org/2000/svg" viewBox="0 0 512 512"><!--! Font Awesome Pro 6.0.0-alpha3 by @fontawesome - https://fontawesome.com License - https://fontawesome.com/license (Commercial License) --><path d="M488 432H48V56C48 42.75 37.25 32 24 32S0 42.75 0 56V448c0 17.59 14.41 32 32 32h456c13.25 0 24-10.75 24-24S501.3 432 488 432zM384 192c35.35 0 64-28.65 64-64s-28.65-64-64-64s-64 28.65-64 64S348.7 192 384 192zM384 112c8.822 0 16 7.178 16 16S392.8 144 384 144S368 136.8 368 128S375.2 112 384 112zM352 352c35.35 0 64-28.65 64-64s-28.65-64-64-64s-64 28.65-64 64S316.7 352 352 352zM352 272c8.822 0 16 7.178 16 16S360.8 304 352 304S336 296.8 336 288S343.2 272 352 272zM176 352C202.5 352 224 330.5 224 304S202.5 256 176 256S128 277.5 128 304S149.5 352 176 352zM240 224C266.5 224 288 202.5 288 176S266.5 128 240 128S192 149.5 192 176S213.5 224 240 224z"/></svg>