<svg xmlns="http://www.w3.org/2000/svg" viewBox="0 0 512 512"><!--! Font Awesome Pro 6.0.0-alpha3 by @fontawesome - https://fontawesome.com License - https://fontawesome.com/license (Commercial License) --><path d="M288 288c17.67 0 32-14.33 32-32c0-17.67-14.33-32-32-32s-32 14.33-32 32C256 273.7 270.3 288 288 288zM384 352c17.67 0 32-14.33 32-32c0-17.67-14.33-32-32-32s-32 14.33-32 32C352 337.7 366.3 352 384 352zM416 160c17.67 0 32-14.33 32-32c0-17.67-14.33-32-32-32s-32 14.33-32 32C384 145.7 398.3 160 416 160zM488 432H48V56C48 42.74 37.25 32 24 32S0 42.74 0 56V448c0 17.6 14.4 32 32 32h456c13.25 0 24-10.75 24-24C512 442.7 501.3 432 488 432zM192 192c17.67 0 32-14.33 32-32c0-17.67-14.33-32-32-32S160 142.3 160 160C160 177.7 174.3 192 192 192zM160 352c17.67 0 32-14.33 32-32c0-17.67-14.33-32-32-32s-32 14.33-32 32C128 337.7 142.3 352 160 352z"/></svg>