<svg xmlns="http://www.w3.org/2000/svg" viewBox="0 0 576 512"><!--! Font Awesome Pro 6.0.0-alpha3 by @fontawesome - https://fontawesome.com License - https://fontawesome.com/license (Commercial License) --><path d="M543.1 223.2c-8.25-119.5-103.7-214.1-223.2-223.2C320.5 .0235 320.1 0 319.8 0c-8.625 0-15.76 7.51-15.76 16.26L304 240l223.7-.0012C536.9 240 544.6 232.4 543.1 223.2zM352 192V53.5C419.5 71 473 124.5 490.5 192H352zM256 288V50.75c0-8.875-7.119-16.25-15.74-16.25c-.75 0-1.374 .019-2.124 .144c-119.1 16.88-210.2 120.1-205.1 245.7C36.52 407.5 145.1 512 272.1 512c1 0 1.876-.0074 2.876-.0074c50.38-.625 96.1-16.88 135.2-44c8-5.625 8.487-17.24 1.612-24.11L256 288zM274.5 464H272.1c-100.6 0-188.6-84.88-191.1-185.2C77.27 193.4 130.3 118.4 208 91.12v216.8l140.2 140.3C325.1 458.2 300.1 463.6 274.5 464zM559.7 288l-237.2-.0006l157.1 158c3.25 3.25 7.529 4.862 11.65 4.862c3.875 0 7.582-1.378 10.58-4.128c38.63-36.5 65.24-85.61 73.12-140.9C577.2 296.4 569.4 288 559.7 288z"/></svg>