<svg xmlns="http://www.w3.org/2000/svg" viewBox="0 0 512 512"><!--! Font Awesome Pro 6.0.0-alpha3 by @fontawesome - https://fontawesome.com License - https://fontawesome.com/license (Commercial License) --><path d="M216 256h144C373.3 256 384 245.3 384 232S373.3 208 360 208h-144C202.8 208 192 218.8 192 232S202.8 256 216 256zM152 160h112C277.3 160 288 149.3 288 136S277.3 112 264 112h-112C138.8 112 128 122.8 128 136S138.8 160 152 160zM376 352h80c13.25 0 24-10.75 24-24S469.3 304 456 304h-80C362.8 304 352 314.8 352 328S362.8 352 376 352zM488 432H48V56C48 42.75 37.25 32 24 32S0 42.75 0 56V448c0 17.59 14.41 32 32 32h456c13.25 0 24-10.75 24-24S501.3 432 488 432z"/></svg>