<svg xmlns="http://www.w3.org/2000/svg" viewBox="0 0 512 512"><!--! Font Awesome Pro 6.0.0-alpha3 by @fontawesome - https://fontawesome.com License - https://fontawesome.com/license (Commercial License) --><path d="M120 384h336c13.25 0 24-10.75 24-24V240c0-5.531-1.906-10.91-5.438-15.19l-72-88c-4.281-5.25-10.59-8.438-17.38-8.781c-6.656-.5-13.38 2.219-18.16 7l-46.28 46.28L249.7 103.8C245.2 98.84 238.8 96.03 232.1 96C225.4 96 219 98.75 214.5 103.6l-112 120C98.31 228.1 96 233.9 96 240v120C96 373.3 106.8 384 120 384zM144 249.5l87.84-94.13l70.47 76.88C306.7 237 312.9 239.8 319.5 240c7.156 .0625 12.84-2.375 17.5-7.031l45.25-45.25L432 248.6V336h-288V249.5zM488 432H48V56C48 42.74 37.25 32 24 32S0 42.74 0 56V448c0 17.6 14.4 32 32 32h456c13.25 0 24-10.75 24-24C512 442.7 501.3 432 488 432z"/></svg>