<svg xmlns="http://www.w3.org/2000/svg" viewBox="0 0 576 512"><!--! Font Awesome Pro 6.0.0-alpha3 by @fontawesome - https://fontawesome.com License - https://fontawesome.com/license (Commercial License) --><path d="M560 128H544V80C544 71.13 536.9 64 528 64S512 71.13 512 80V128h-32V80C480 71.13 472.9 64 464 64S448 71.13 448 80V128h-16C423.2 128 416 135.2 416 144V192c0 35.75 23.62 65.75 56 75.88v102.6c0 13.94-9.513 26.97-23.28 29.17C431.1 402.4 416 389 416 372V344C416 295.6 376.4 256 328 256H320V64c0-35.35-28.65-64-64-64H96C60.65 0 32 28.65 32 64v400H24C10.8 464 0 474.8 0 488C0 501.2 10.8 512 24 512h304c13.2 0 24-10.8 24-24c0-13.2-10.8-24-24-24H320v-160h8c21.1 0 40 18 40 40v23.97c0 39.1 29.09 76.07 68.92 79.71C481.1 451.8 520 416.2 520 372V267.9C552.4 257.8 576 227.8 576 192V144C576 135.2 568.8 128 560 128zM272 464h-192V64c0-8.838 7.164-16 16-16h160c8.836 0 16 7.162 16 16V464zM528 192c0 17.62-14.38 32-32 32s-32-14.38-32-32V176h64V192zM213.7 176H170.1l15.33-48.81c3.984-12.64-3.047-26.11-15.69-30.08C157.8 93.06 144.5 100.1 140.5 112.8l-25.14 80c-2.297 7.281-.9844 15.23 3.547 21.39C123.5 220.4 130.6 224 138.3 224h35.77l-31.89 60.86C136 296.6 140.5 311.1 152.3 317.3C155.8 319.1 159.6 320 163.4 320c8.641 0 16.98-4.672 21.28-12.86l50.3-96c3.891-7.438 3.609-16.38-.7344-23.56S222.1 176 213.7 176z"/></svg>