<svg xmlns="http://www.w3.org/2000/svg" viewBox="0 0 256 512"><!--! Font Awesome Pro 6.0.0-alpha3 by @fontawesome - https://fontawesome.com License - https://fontawesome.com/license (Commercial License) --><path d="M223.6 416v-24c0-11.25-7.874-20.25-18.25-22.88c-3.125-22.25-5.25-44.63-5.25-67.12V256h23.1c8.749 0 15.1-7.125 15.1-16V224c0-8.875-7.249-16-15.1-16h-7.499l38.5-105c1.875-3.625 .7499-8.125-2.75-10.38l-12.12-8.125c-3.75-2.5-8.624-1.25-11.37 2.375c-13.1 18.62-43.75 9-43.75-16.12c0-1.75-.6249-3.5-1.1-4.75C181.9 64.75 180.1 64 178.4 64h-19.75c-3.125-.125-5.749 2-6.499 5c-2.375 11.25-12.37 19.38-23.87 19.38c-11.62 0-21.62-8.125-23.1-19.38C103.6 66 100.9 63.88 97.74 64H77.99c-3.749 0-6.749 3-6.749 6.875c0 25.25-29.1 34.5-43.87 16C24.1 83.5 20.25 81.88 16.12 84.5l-12.12 8.125C.6249 94.88-.6249 99.38 1.25 103L39.87 208H32.37c-8.874 0-15.1 7.125-15.1 16v16c0 8.875 7.124 16 15.1 16h23.1v46c0 22.5-2.25 44.75-5.375 66.1C40.25 371.4 31.1 380.5 31.1 392V416l-25.62 19.25C2.375 438.2 0 443 0 448v48C0 504.9 7.125 512 15.1 512h223.6c8.874 0 15.1-7.125 15.1-16V448c0-5-2.375-9.75-6.374-12.75L223.6 416zM93.24 127.4c21.62 12.12 47.1 12.12 69.74 .125c7.749 6.625 16.87 11.5 26.75 14.38L166.9 208H89.49l-22.87-66.25C76.37 139 85.49 134 93.24 127.4zM156.9 368H99.49c2.75-21.88 4.75-43.88 4.75-65.1V256h47.87v46C152.1 324.1 154.1 346.1 156.9 368zM47.87 464l31.1-24V416h95.87v24l31.87 24H47.87zM128.2 56c15.37 0 27.1-12.5 27.1-28S143.4 0 128 0c-15.5 0-27.81 12.5-27.81 28S112.7 56 128.2 56z"/></svg>