<svg xmlns="http://www.w3.org/2000/svg" viewBox="0 0 640 512"><!--! Font Awesome Pro 6.0.0-alpha3 by @fontawesome - https://fontawesome.com License - https://fontawesome.com/license (Commercial License) --><path d="M576 112h-32V104c0-13.25-10.74-24-24-24h-112C394.7 80 384 90.75 384 104V112H200l.1667-32H232C245.3 80 256 69.25 256 56S245.3 32 232 32h-112C106.7 32 96 42.75 96 56S106.7 80 120 80h32.17L152 112H64c-35.35 0-64 28.65-64 64V416c0 35.35 28.65 64 64 64h512c35.35 0 64-28.65 64-64V176C640 140.7 611.3 112 576 112zM592 416c0 8.822-7.178 16-16 16H64c-8.822 0-16-7.178-16-16V176C48 167.2 55.18 160 64 160h512c8.822 0 16 7.178 16 16V416zM200 192C142.6 192 96 238.6 96 296s46.56 104 104 104S304 353.4 304 296S257.4 192 200 192zM216 288c0 8.844-7.156 16-16 16S184 296.8 184 288V240c0-8.844 7.156-16 16-16s16 7.156 16 16V288zM366.5 222.5c-40.62 40.61-40.62 106.5 0 147.1c40.62 40.61 106.5 40.61 147.1 0c40.62-40.62 40.62-106.5 0-147.1C472.9 181.8 407.1 181.8 366.5 222.5zM490.9 267.7l-33.94 33.94c-6.254 6.254-16.37 6.254-22.63 0s-6.254-16.37 0-22.63l33.94-33.94c6.252-6.254 16.37-6.254 22.63 0S497.2 261.5 490.9 267.7z"/></svg>