<svg xmlns="http://www.w3.org/2000/svg" viewBox="0 0 320 512"><!--! Font Awesome Pro 6.0.0-alpha3 by @fontawesome - https://fontawesome.com License - https://fontawesome.com/license (Commercial License) --><path d="M89.75 195.2c5.5 0 10.62-3.375 12.75-8.625C104.8 181.5 103.5 175.5 99.63 171.5C95.62 167.6 89.62 166.4 84.5 168.5C79.25 170.6 75.88 175.8 75.88 181.4C75.88 189 81.1 195.1 89.75 195.2zM313.6 435.2L288 416v-30.12c10.25-13.63 15.88-30.12 16-47.12V232.6C304 139.6 228.4 64 135.4 64H55.38c-18 0-34.88 8.875-45.25 23.62C-.25 102.2-2.875 121.1 3.125 138.1C1 144.5 0 151.1 0 157.8v84.75C0 268 14.38 291.4 37 303c-10.5 14.75-17.25 31.88-20.12 51.5C13.1 374.8 19.38 395.4 32 411.6V416l-25.62 19.25C2.375 438.2 0 443 0 448v48C0 504.9 7.125 512 16 512h288c8.875 0 16-7.125 16-16V448C320 443 317.6 438.2 313.6 435.2zM55.38 112h80C201.8 112 256 166.2 256 232.6v106.1c0 8.5-3.375 16.62-9.375 22.62L240 368H64.75C64.62 365.9 64 363.8 64.38 361.6c4.375-29 21.5-45.87 46.12-57l34.88-10.87C154.3 289.8 160 280.9 160 271.2V222.9L132.9 227.6c-3.875 2-6.625 5.5-7.75 9.625L119.5 256.2C117.8 262 113.5 266.6 108 268.9S97.75 273.5 92.5 273.5c-2.625 0-5.25-.625-7.75-1.75l-25-11.13C52.62 257.5 48 250.4 48 242.5V157.8c0-7.375 4.375-10.63 9.875-16L49.12 124.1C45.88 117.5 50.25 112 55.38 112zM48 464l32-24V416h160v24l32 24H48z"/></svg>