<svg xmlns="http://www.w3.org/2000/svg" viewBox="0 0 448 512"><!--! Font Awesome Pro 6.0.0-alpha3 by @fontawesome - https://fontawesome.com License - https://fontawesome.com/license (Commercial License) --><path d="M391.9 464H55.95c-13.25 0-23.1 10.75-23.1 23.1S42.7 512 55.95 512h335.1c13.25 0 23.1-10.75 23.1-23.1S405.2 464 391.9 464zM436.9 182.9C426.5 168.4 409.7 159.9 391.8 160h-143.9V104h31.1c13.2 0 24.03-10.8 24.03-23.1S293.1 56 279.9 56h-31.1V23.1C247.9 10.8 237.2 0 223.1 0C210.8 0 199.9 10.8 199.9 23.1V56H167.9c-13.2 0-23.97 10.8-23.97 23.1S154.7 104 167.9 104h31.1V160H55.95C38.08 160 21.2 168.5 10.7 183C.204 197.4-2.796 216 2.704 233L68.45 432h50.5L48.33 218.4C47.58 216 48.08 213.4 49.58 211.2C51.08 209.2 53.45 208 55.95 208h335.9c2.5 0 4.875 1.125 6.375 3.125c1.5 1.875 2.125 4.5 1.5 6.875L328.8 432h50.62l65.1-199.2C450.8 215.8 447.7 197.1 436.9 182.9z"/></svg>