<svg xmlns="http://www.w3.org/2000/svg" viewBox="0 0 320 512"><!--! Font Awesome Pro 6.0.0-alpha3 by @fontawesome - https://fontawesome.com License - https://fontawesome.com/license (Commercial License) --><path d="M296 463.1H23.1c-13.25 0-23.1 10.75-23.1 24s10.75 24 23.1 24h272c13.25 0 23.1-10.75 23.1-23.1S309.3 463.1 296 463.1zM55.1 287.1L80 287.1v29.5c0 40.25-3.5 81.25-23.38 114.5h53.5C125.1 394.1 128 354.6 128 317.5v-29.5h64v29.5c0 37.13 2.875 77.5 17.88 114.5h53.5C243.5 398.7 240 357.7 240 317.5V287.1l24-.0001C277.3 287.1 288 277.3 288 263.1c0-13.25-10.75-24-23.1-24H241c30.15-27.77 46.6-70.64 35.55-116.9c-10.78-45.09-48.14-80.63-93.74-89.04C106.5 20.05 40 78.29 40 151.1c0 34.88 15.12 66.12 39 88H55.1C42.75 239.1 32 250.7 32 263.1C32 277.3 42.75 287.1 55.1 287.1zM160 79.1c39.75 0 72 32.25 72 72S199.8 223.1 160 223.1S88 191.7 88 151.1S120.2 79.1 160 79.1z"/></svg>