<svg xmlns="http://www.w3.org/2000/svg" viewBox="0 0 640 512"><!--! Font Awesome Pro 6.0.0-alpha3 by @fontawesome - https://fontawesome.com License - https://fontawesome.com/license (Commercial License) --><path d="M440 192c-57.44 0-104 46.56-104 104s46.56 104 104 104S544 353.4 544 296S497.4 192 440 192zM456 288c0 8.844-7.156 16-16 16s-16-7.156-16-16V240c0-8.844 7.156-16 16-16s16 7.156 16 16V288zM0 176L0 416c0 35.35 28.65 64 64 64h512c35.35 0 64-28.65 64-64V176c0-35.35-28.65-64-64-64h-88l-.1667-32H520C533.3 80 544 69.25 544 56S533.3 32 520 32h-112C394.7 32 384 42.75 384 56s10.74 24 24 24h31.83L440 112H255.1L256 104C256 90.75 245.3 80 232 80h-112C106.7 80 96 90.75 96 104L95.96 112H64C28.65 112 0 140.7 0 176zM48 176C48 167.2 55.18 160 64 160h512c8.822 0 16 7.178 16 16V416c0 8.822-7.178 16-16 16H64c-8.822 0-16-7.178-16-16V176zM126.5 222.5c-40.62 40.61-40.62 106.5 0 147.1c40.62 40.61 106.5 40.61 147.1 0c40.62-40.62 40.62-106.5 0-147.1C232.9 181.8 167.1 181.8 126.5 222.5zM250.9 267.7L216.1 301.7c-6.254 6.254-16.38 6.254-22.63 0c-6.254-6.254-6.254-16.37 0-22.63l33.94-33.94c6.252-6.254 16.37-6.254 22.63 0S257.2 261.5 250.9 267.7z"/></svg>