<svg xmlns="http://www.w3.org/2000/svg" viewBox="0 0 384 512"><!--! Font Awesome Pro 6.0.0-alpha3 by @fontawesome - https://fontawesome.com License - https://fontawesome.com/license (Commercial License) --><path d="M360 464H23.1C10.75 464 0 474.7 0 487.1S10.75 512 23.1 512H360C373.3 512 384 501.3 384 488S373.3 464 360 464zM345.1 32h-308C17 32 0 49 0 70v139.4C0 218.8 4 227.5 11 233.6L48 265.8c0 48.5 1.5 93-11.88 166.2h49C97.1 356.4 96 309.5 96 238.2L48 196.5V80h64V128H160V80h64V128h48V80h64v116.5L288 238.2C288 309 285.1 356.6 298.9 432h49C334.5 358.8 336 314 336 265.8l37-32.13C380 227.5 384 218.8 384 209.4V70C384 49 367 32 345.1 32zM192 224C174.4 224 160 238.4 160 256v64h64V256C224 238.4 209.6 224 192 224z"/></svg>