<svg xmlns="http://www.w3.org/2000/svg" viewBox="0 0 512 512"><!--! Font Awesome Pro 6.0.0-alpha3 by @fontawesome - https://fontawesome.com License - https://fontawesome.com/license (Commercial License) --><path d="M256 112c30.88 0 56-25.12 56-56S286.9 0 256 0S199.1 25.12 199.1 56S225.1 112 256 112zM504.9 184.1L476.4 168.2c-2.5-1.75-5.482-2.625-8.483-2.625C462.4 165.8 457.3 168.5 454.1 172.9C445.1 184.9 431 192 416 192c-3.125 0-6.141-.25-9.142-.875c-23.13-4.25-38.88-26.25-38.88-49.75C367.1 134 361.1 128 354.6 128h-38.75c-6.001 0-11.63 4-12.88 9.875C298.2 160.1 278.7 176 255.1 176c-22.75 0-42.25-15.88-47-38.12C207.7 132 202.2 128 196.1 128h-38.75C149.1 128 143.1 134 143.1 141.4c0 25.75-19 48.75-44.63 50.5C98.23 192 97.11 192 95.98 192C80.85 192 66.73 184.9 57.72 172.8c-3.125-4.375-8.124-7-13.62-7.125c-3 0-5.877 .875-8.377 2.625l-28.63 16c-6.751 4.375-9.001 13.25-5.375 20.38L109.9 432h53.13L69.85 236.4C78.35 238.8 87.11 240 95.98 240c2.125 0 4.376-.125 6.626-.25c34-2.25 63.01-23 78.13-52.25C198.1 210.5 226.6 224 255.9 224c29.38 0 57.01-13.38 75.26-36.25c13.25 26 37.5 45.13 67.01 50.63C404 239.5 410 240 416 240c8.751 0 17.5-1.125 26-3.5L349 432h53.13l108.1-227.4C513.9 197.4 511.6 188.6 504.9 184.1zM424 464H87.98c-13.26 0-24 10.75-24 23.1S74.72 512 87.98 512h336c13.26 0 24-10.75 24-23.1S437.3 464 424 464z"/></svg>