<svg xmlns="http://www.w3.org/2000/svg" viewBox="0 0 640 512"><!--! Font Awesome Pro 6.0.0-alpha3 by @fontawesome - https://fontawesome.com License - https://fontawesome.com/license (Commercial License) --><path d="M464.5 230.6L344 158.4V112h48C405.3 112 416 101.3 416 88C416 74.74 405.3 64 392 64h-48V24C344 10.74 333.3 0 320 0S296 10.74 296 24V64h-48C234.7 64 224 74.74 224 88C224 101.3 234.7 112 248 112h48v46.38L175.5 230.6C165.9 236.5 160 246.9 160 258.1V488C160 501.3 170.7 512 184 512s24-10.75 24-24V267.1L320 200l112 67.13V488c0 13.25 10.75 24 24 24S480 501.3 480 488V258.1C480 246.9 474.1 236.5 464.5 230.6zM93.27 322.5l-80 40C5.141 366.6 0 374.9 0 384v104C0 501.3 10.75 512 24 512s24-10.75 24-24v-89.16l66.73-33.38c11.86-5.938 16.66-20.34 10.73-32.19C119.6 321.4 105.2 316.7 93.27 322.5zM626.7 362.5l-80-40c-11.81-5.875-26.28-1.125-32.2 10.75c-5.922 11.84-1.125 26.25 10.73 32.19L592 398.8V488c0 13.25 10.75 24 24 24S640 501.3 640 488V384C640 374.9 634.9 366.6 626.7 362.5zM320 320c-35.35 0-64 28.65-64 64v96c0 17.67 14.33 32 32 32h64c17.67 0 32-14.33 32-32v-96C384 348.7 355.3 320 320 320z"/></svg>