<svg xmlns="http://www.w3.org/2000/svg" viewBox="0 0 512 512"><!--! Font Awesome Pro 6.0.0-alpha3 by @fontawesome - https://fontawesome.com License - https://fontawesome.com/license (Commercial License) --><path d="M336 160H320V144C320 135.2 312.8 128 304 128S288 135.2 288 144V160H224V144C224 135.2 216.8 128 208 128S192 135.2 192 144V160H176c-17.67 0-32 14.33-32 32v144c0 17.67 14.33 32 32 32h160c17.67 0 32-14.33 32-32V192C368 174.3 353.7 160 336 160zM320 320H192V240h128V320zM256 0C114.6 0 0 114.6 0 256c0 141.4 114.6 256 256 256s256-114.6 256-256C512 114.6 397.4 0 256 0zM256 464c-114.7 0-208-93.31-208-208S141.3 48 256 48s208 93.31 208 208S370.7 464 256 464z"/></svg>