<svg xmlns="http://www.w3.org/2000/svg" viewBox="0 0 512 512"><!--! Font Awesome Pro 6.0.0-alpha3 by @fontawesome - https://fontawesome.com License - https://fontawesome.com/license (Commercial License) --><path d="M256 336c-17.67 0-32 14.33-32 32s14.33 32 32 32c17.67 0 32-14.33 32-32S273.7 336 256 336zM256 224C238.3 224 224 238.3 224 256s14.33 32 32 32c17.67 0 32-14.33 32-32S273.7 224 256 224zM256 112c-17.67 0-32 14.33-32 32s14.33 32 32 32c17.67 0 32-14.33 32-32S273.7 112 256 112zM256 0c-141.4 0-255.1 114.6-255.1 256S114.6 511.1 256 511.1s256-114.6 256-255.1S397.4 0 256 0zM256 464c-114.7 0-208-93.31-208-208S141.3 48 256 48s208 93.31 208 208S370.7 464 256 464z"/></svg>