<svg xmlns="http://www.w3.org/2000/svg" viewBox="0 0 512 512"><!--! Font Awesome Pro 6.0.0-alpha3 by @fontawesome - https://fontawesome.com License - https://fontawesome.com/license (Commercial License) --><path d="M262 232.8L253.8 230.5C213.9 219.7 215.1 213.6 216.4 206.6c2.234-11.92 24.88-17.83 52.48-13.92c7.188 1.047 16.28 3.344 27.81 7.016c12.66 4.109 26.16-2.922 30.16-15.56c4.031-12.62-2.938-26.12-15.56-30.16c-12.37-3.955-22.26-6.373-31.23-7.939V128c0-13.25-10.75-24-24-24s-24 10.75-24 24v17.22C198.3 150.6 174.6 169.3 169.2 197.7c-10.62 56.73 47.28 72.44 72 79.16l8.594 2.281c43.95 11.61 47.58 16.67 45.78 26.28c-2.25 11.92-24.86 17.86-52.63 13.91C231.8 317.8 217.1 313.2 205.9 309.2L199.5 307c-12.67-4.109-26.17 2.734-30.28 15.34c-4.125 12.59 2.75 26.14 15.34 30.28l6.188 2.047c12.84 4.281 27.23 8.797 41.34 11.24V384c0 13.25 10.75 24 24 24s24-10.75 24-24v-17.19c33.68-5.404 57.38-24.12 62.72-52.53C353.5 256.9 296.3 241.8 262 232.8zM256 0C114.6 0 0 114.6 0 256s114.6 256 256 256s256-114.6 256-256S397.4 0 256 0zM256 464c-114.7 0-208-93.31-208-208S141.3 48 256 48s208 93.31 208 208S370.7 464 256 464z"/></svg>