<svg xmlns="http://www.w3.org/2000/svg" viewBox="0 0 512 512"><!--! Font Awesome Pro 6.0.0-alpha3 by @fontawesome - https://fontawesome.com License - https://fontawesome.com/license (Commercial License) --><path d="M279.7 247.7c.8125-4.75 1.312-7.578-30.34-16.64l-6.5-1.875C224.7 223.8 176.4 209.6 184.1 160.1c4.105-23.88 21.79-39.91 47.06-45.62V104c0-13.25 10.74-24 23.99-24s24.01 10.75 24.01 24v11.25c5.9 1.363 12.21 3.092 19.81 5.719c12.53 4.344 19.16 18 14.84 30.53C310.4 164 296.7 170.6 284.2 166.3c-8.281-2.875-14.72-4.641-19.66-5.422c-16.88-2.641-31.06 .6094-32.22 7.391C231.6 172.4 231 175.6 256.4 183.1l6.188 1.797c25.53 7.297 73.13 20.91 64.44 70.95c-4.115 23.86-21.73 39.99-47 45.71V312c0 13.25-10.76 24-24.01 24s-23.99-10.75-23.99-24V300.6C222.5 298.4 213.1 295.3 204.6 292.3L199.1 290.6C187.5 286.2 180.9 272.5 185.4 259.1s18.12-19.02 30.66-14.61l4.875 1.75C229.7 250.3 239.7 253.9 247.3 255C264.5 257.8 278.6 254.5 279.7 247.7zM48 208C48 93.13 141.1 0 256 0s208 93.13 208 208S370.9 416 256 416S48 322.9 48 208zM96 208c0 88.22 71.78 160 160 160s160-71.78 160-160s-71.78-160-160-160S96 119.8 96 208zM460.6 352c-13.25 0-24 10.75-24 24s10.75 24 24 24C462.5 400 464 401.5 464 403.4V456c0 4.406-3.594 8-8 8H56c-4.406 0-8-3.594-8-8v-52.58C48 401.5 49.53 400 51.41 400c13.25 0 24-10.75 24-24s-10.75-24-24-24C23.06 352 0 375.1 0 403.4V456C0 486.9 25.13 512 56 512h400c30.88 0 56-25.12 56-56v-52.58C512 375.1 488.9 352 460.6 352z"/></svg>