<svg xmlns="http://www.w3.org/2000/svg" viewBox="0 0 576 512"><!--! Font Awesome Pro 6.0.0-alpha3 by @fontawesome - https://fontawesome.com License - https://fontawesome.com/license (Commercial License) --><path d="M361.3 153.8l-196 84c-9.562 4.094-14.98 14.47-12.89 24.62C154.5 272.6 163.6 280 173.1 280H264v90c0 10.41 7.391 19.5 17.62 21.59C283.1 391.9 284.6 392 285.1 392c8.797 0 16.73-5.219 20.23-13.31l84-196c3.562-8.344 1.719-17.86-4.656-24.2C379.3 152.1 369.8 150.3 361.3 153.8zM288 0C146.6 0 32 114.6 32 256s114.6 256 256 256s256-114.6 256-256S429.4 0 288 0zM288 464c-114.7 0-208-93.31-208-208S173.3 48 288 48s208 93.31 208 208S402.7 464 288 464z"/></svg>