<svg xmlns="http://www.w3.org/2000/svg" viewBox="0 0 640 512"><!--! Font Awesome Pro 6.0.0-alpha3 by @fontawesome - https://fontawesome.com License - https://fontawesome.com/license (Commercial License) --><path d="M244 384h-40C197.4 384 192 389.4 192 396v40C192 442.6 197.4 448 204 448h40C250.6 448 256 442.6 256 436v-40C256 389.4 250.6 384 244 384zM244 192h-40C197.4 192 192 197.4 192 204v40c0 6.625 5.375 12.01 12 12.01h40C250.6 256 256 250.6 256 244v-40C256 197.4 250.6 192 244 192zM148 192h-40C101.4 192 96 197.4 96 204v40C96 250.6 101.4 256 108 256h40C154.6 256 160 250.6 160 244v-40C160 197.4 154.6 192 148 192zM148 384h-40C101.4 384 96 389.4 96 396v40C96 442.6 101.4 448 108 448h40C154.6 448 160 442.6 160 436v-40C160 389.4 154.6 384 148 384zM148 288h-40C101.4 288 96 293.4 96 300v40C96 346.6 101.4 352 108 352h40C154.6 352 160 346.6 160 340v-40C160 293.4 154.6 288 148 288zM244 288h-40C197.4 288 192 293.4 192 300v40c0 6.625 5.375 12.01 12 12.01h40C250.6 352 256 346.6 256 340v-40C256 293.4 250.6 288 244 288zM532 384h-40C485.4 384 480 389.4 480 396v40C480 442.6 485.4 448 492 448h40C538.6 448 544 442.6 544 436v-40C544 389.4 538.6 384 532 384zM532 288h-40C485.4 288 480 293.4 480 300v40C480 346.6 485.4 352 492 352h40C538.6 352 544 346.6 544 340v-40C544 293.4 538.6 288 532 288zM576 192H512V63.1C512 28.65 483.3 0 448 0H319.1C284.7 0 256 28.65 256 63.1V96L224 96.01V24.01c0-13.25-10.75-23.1-24-23.1S176 10.75 176 24.01v72h-64V24.01c0-13.25-10.75-23.1-24-23.1S64 10.75 64 24.01v72c-35.35 0-64 28.64-64 63.99V488C0 501.3 10.75 512 23.1 512S48 501.3 48 488V160c0-8.837 7.163-16 16-16h240V64c0-8.837 7.163-16 16-16h128c8.837 0 16 7.163 16 16v176H576c8.837 0 16 7.163 16 16v232C592 501.3 602.7 512 616 512S640 501.3 640 488V255.1C640 220.7 611.3 192 576 192zM404 96h-40C357.4 96 352 101.4 352 108v40c0 6.625 5.375 12.01 12 12.01h40C410.6 160 416 154.6 416 148v-40C416 101.4 410.6 96 404 96zM404 288h-40C357.4 288 352 293.4 352 300v40C352 346.6 357.4 352 364 352h40C410.6 352 416 346.6 416 340v-40C416 293.4 410.6 288 404 288zM404 192h-40C357.4 192 352 197.4 352 204v40c0 6.625 5.375 12.01 12 12.01h40C410.6 256 416 250.6 416 244v-40C416 197.4 410.6 192 404 192z"/></svg>