<svg xmlns="http://www.w3.org/2000/svg" viewBox="0 0 448 512"><!--! Font Awesome Pro 6.0.0-alpha3 by @fontawesome - https://fontawesome.com License - https://fontawesome.com/license (Commercial License) --><path d="M248 228V120c0-13.25-10.75-24-24-24S200 106.8 200 120V240c0 7.562 3.562 14.66 9.594 19.19l64 48C277.9 310.4 282.1 312 287.1 312c7.312 0 14.53-3.312 19.22-9.594c7.969-10.62 5.801-25.66-4.793-33.59L248 228zM224 0C100.3 0 0 100.3 0 224v236.2C0 488.8 23.21 512 51.85 512h344.3C424.8 512 448 488.8 448 460.2V224C448 100.3 347.7 0 224 0zM224 400c-97.05 0-176-78.95-176-176S126.1 48 224 48s176 78.95 176 176S321 400 224 400z"/></svg>