<svg xmlns="http://www.w3.org/2000/svg" viewBox="0 0 512 512"><!--! Font Awesome Pro 6.0.0-alpha3 by @fontawesome - https://fontawesome.com License - https://fontawesome.com/license (Commercial License) --><path d="M256 32C176.2 32 103.7 75.57 64 142.1V56C64 42.75 53.25 32 40 32S16 42.75 16 56v144C16 213.3 26.75 224 40 224h128C181.3 224 192 213.3 192 200S181.3 176 168 176H99.54C129.2 118.3 189.5 79.96 256 79.96c97.03 0 176 79.01 176 176s-78.97 175.1-176 175.1c-41.09 0-81.09-14.44-112.6-40.72c-10.16-8.5-25.31-7.156-33.81 3.062c-8.5 10.19-7.125 25.31 3.062 33.81C152.8 461.6 203.7 480 256 480c123.5 0 224-100.5 224-224S379.5 32 256 32zM256 128C242.8 128 232 138.8 232 152V272c0 7.75 3.741 15.03 10.04 19.53l56 40C302.3 334.6 307.2 336 311.1 336c7.484 0 14.86-3.5 19.55-10.06c7.703-10.78 5.203-25.75-5.578-33.47L280 259.7L280 152C280 138.8 269.3 128 256 128z"/></svg>