<svg xmlns="http://www.w3.org/2000/svg" viewBox="0 0 512 512"><!--! Font Awesome Pro 6.0.0-alpha3 by @fontawesome - https://fontawesome.com License - https://fontawesome.com/license (Commercial License) --><path d="M278.8 94.44c-.2703-4.742-2.632-9.115-6.44-11.93L172 8.099C167 4.346 160.3 3.945 154.9 6.853c-5.465 2.972-8.733 8.792-8.379 15l3.187 55.91L133.7 78.67C85.26 81.43 48.1 123.1 50.86 171.5l10.25 179.8c-31.74 12.07-53.62 43.29-51.59 78.99c2.514 44.11 40.31 77.83 84.42 75.32c44.11-2.514 77.83-40.31 75.32-84.42C167.2 385.5 141.9 356.1 109 348.6L98.78 168.8c-1.255-22.03 15.63-40.96 37.66-42.21L152.4 125.7l3.187 55.91c.3539 6.209 4.262 11.62 10.03 13.95C167.8 196.4 170.2 196.8 172.5 196.7c3.666-.2089 7.23-1.664 10.02-4.296l91.29-85.33C277.3 103.8 279.1 99.18 278.8 94.44zM121.3 423.9c1.004 17.62-12.51 32.76-30.13 33.77c-17.62 1.004-32.77-12.51-33.77-30.13c-1.004-17.62 12.51-32.76 30.13-33.77C105.2 392.8 120.3 406.3 121.3 423.9zM418.1 6.377c-44.11 2.514-77.83 40.31-75.32 84.42c2.035 35.71 27.32 64.24 60.23 72.62l10.25 179.8c1.255 22.03-15.63 40.96-37.66 42.21l-15.97 .9105l-3.186-55.91c-.3539-6.209-4.262-11.62-10.03-13.95c-5.715-2.241-12.32-1.113-16.88 3.184l-91.29 85.33c-3.462 3.233-5.312 7.846-5.042 12.59c.2703 4.742 2.632 9.115 6.44 11.93l100.4 74.41c3.073 2.298 6.779 3.338 10.44 3.129c2.293-.1307 4.589-.7624 6.685-1.883c5.465-2.972 8.733-8.792 8.379-15l-3.187-55.91l15.97-.9104c48.45-2.762 85.61-44.41 82.85-92.86l-10.25-179.8c31.74-12.07 53.62-43.29 51.59-78.99C499.1 37.58 462.2 3.862 418.1 6.377zM424.4 118.2c-17.62 1.004-32.77-12.51-33.77-30.13c-1.004-17.62 12.51-32.76 30.13-33.77c17.62-1.004 32.76 12.51 33.77 30.13S442 117.2 424.4 118.2z"/></svg>