<svg xmlns="http://www.w3.org/2000/svg" viewBox="0 0 512 512"><!--! Font Awesome Pro 6.0.0-alpha3 by @fontawesome - https://fontawesome.com License - https://fontawesome.com/license (Commercial License) --><path d="M256 64C114.6 64 0 128.5 0 208V320c0 70.75 114.6 128 256 128s256-57.25 256-128V208C512 128.5 397.4 64 256 64zM88 363.4C62.38 349.1 48 333.2 48 320V291.8C60.38 301.4 73.88 309.6 88 316.5V363.4zM184 394.2c-21.75-3.375-43.25-8.875-64-16.37v-48c20.75 7.25 42.25 12.74 64 16.24V394.2zM296 398.2C283.2 399.4 269.9 400 256 400c-13.88 0-27.25-.625-40-1.75v-48.12C229.1 351.2 242.4 352 256 352s26.88-.75 40-1.875V398.2zM392 378c-20.75 7.375-42.25 12.87-64 16.25V346.1c21.75-3.5 43.25-8.988 64-16.24V378zM464 320c0 13.25-14.38 29.12-40 43.38V316.5c14.12-6.875 27.62-15.12 40-24.75V320zM256 304c-119 0-208-50.62-208-96s89-96 208-96s208 50.62 208 96S375 304 256 304z"/></svg>