<svg xmlns="http://www.w3.org/2000/svg" viewBox="0 0 320 512"><!--! Font Awesome Pro 6.0.0-alpha3 by @fontawesome - https://fontawesome.com License - https://fontawesome.com/license (Commercial License) --><path d="M278.1 352.2c-17.43 17.52-38.94 29.17-62.23 35.12l56.27-232.4c1.932 1.734 4.118 3.074 5.964 4.93c9.377 9.406 24.57 9.406 33.96 .0625c9.393-9.344 9.424-24.53 .0781-33.94c-8.51-8.543-17.74-16.09-27.5-22.7l17.81-73.58c3.11-12.91-4.798-25.87-17.69-28.97c-12.89-3.156-25.85 4.812-28.98 17.66l-15.45 63.83c-9.409-3.146-18.95-5.748-28.84-7.326l10.94-45.19c3.11-12.91-4.798-25.87-17.69-28.97c-12.86-3.156-25.87 4.812-28.98 17.66l-13.47 55.63C121.9 78.52 83.41 96.01 53.6 125.9C-17.87 197.7-17.87 314.3 53.59 386.1c8.77 8.803 18.29 16.57 28.39 23.31L64.31 482.3c-3.11 12.91 4.798 25.87 17.69 28.97c1.891 .4687 3.798 .6875 5.658 .6875c10.83 0 20.66-7.375 23.32-18.34l15.38-63.54c9.424 3.094 18.99 5.609 28.89 7.133L144.3 482.3c-3.11 12.91 4.798 25.87 17.69 28.97c1.891 .4687 3.798 .6875 5.658 .6875c10.83 0 20.66-7.375 23.32-18.34l13.49-55.73c40.91-4.736 78.96-22.19 108.5-51.86c9.346-9.406 9.315-24.59-.0781-33.94C303.5 342.8 288.3 342.8 278.1 352.2zM87.61 352.2C34.77 299.2 34.77 212.8 87.63 159.8c17.72-17.81 39.62-29.62 63.35-35.46l-56.52 233.5C92.22 355.9 89.73 354.3 87.61 352.2zM137.6 383.6l63.39-261.9c9.95 1.307 19.63 3.533 28.93 6.965l-63.34 261.7C156.6 389.1 146.9 386.1 137.6 383.6z"/></svg>