<svg xmlns="http://www.w3.org/2000/svg" viewBox="0 0 640 512"><!--! Font Awesome Pro 6.0.0-alpha3 by @fontawesome - https://fontawesome.com License - https://fontawesome.com/license (Commercial License) --><path d="M249.9 368.5L311.1 340.5L229.1 276.9l-22.47 49.15C195.2 353 222.1 380.8 249.9 368.5zM630.8 469.1l-95.55-74.9C560.1 354.4 576 306.1 576 256c0-141.4-114.6-256-256-256C246.9 0 181.3 31.08 134.7 80.29L38.81 5.116C34.41 1.679 29.19 0 24.03 0C16.91 0 9.84 3.158 5.121 9.189C-3.067 19.63-1.249 34.71 9.189 42.89l591.1 463.1c10.5 8.203 25.57 6.333 33.69-4.073C643.1 492.4 641.2 477.3 630.8 469.1zM497.2 364.4l-107.7-84.39l42.99-94.06c12.32-26.95-15.46-54.72-42.41-42.4L279.7 193.9L172.6 109.1C210.3 71.85 262.3 48 320 48c114.7 0 208 93.31 208 208C528 295.7 516.6 332.8 497.2 364.4zM320 464c-114.7 0-208-93.31-208-208c0-22.21 3.578-43.57 10.05-63.65L82.34 161.2C70.62 190.6 64 222.5 64 256c0 141.4 114.6 256 256 256c55.54 0 106.8-17.87 148.7-47.92l-39.83-31.22C397.2 452.5 359.1 464 320 464z"/></svg>