<svg xmlns="http://www.w3.org/2000/svg" viewBox="0 0 576 512"><!--! Font Awesome Pro 6.0.0-alpha3 by @fontawesome - https://fontawesome.com License - https://fontawesome.com/license (Commercial License) --><path d="M512 32h-448c-35.35 0-64 28.65-64 64v320c0 35.35 28.65 64 64 64h448c35.35 0 64-28.65 64-64V96C576 60.65 547.3 32 512 32zM527.9 416c0 8.836-7.164 16-16 16H64.13c-8.836 0-16-7.164-16-16V96c0-8.838 7.164-16 16-16h447.8c8.836 0 16 7.162 16 16V416zM464 128h-96C359.2 128 352 135.2 352 144v64C352 216.8 359.2 224 368 224h96C472.8 224 480 216.8 480 208v-64C480 135.2 472.8 128 464 128zM168 336h-48C106.7 336 96 346.7 96 360C96 373.3 106.7 384 120 384h48C181.3 384 192 373.3 192 360C192 346.7 181.3 336 168 336zM168 256h-48C106.7 256 96 266.7 96 280C96 293.3 106.7 304 120 304h48C181.3 304 192 293.3 192 280C192 266.7 181.3 256 168 256zM328 336h-80C234.7 336 224 346.7 224 360C224 373.3 234.7 384 248 384h80c13.25 0 24-10.75 24-24C352 346.7 341.3 336 328 336zM328 256h-80C234.7 256 224 266.7 224 280C224 293.3 234.7 304 248 304h80C341.3 304 352 293.3 352 280C352 266.7 341.3 256 328 256zM456 256h-48C394.7 256 384 266.7 384 280c0 13.25 10.75 24 24 24h48C469.3 304 480 293.3 480 280C480 266.7 469.3 256 456 256z"/></svg>