<svg xmlns="http://www.w3.org/2000/svg" viewBox="0 0 576 512"><!--! Font Awesome Pro 6.0.0-alpha3 by @fontawesome - https://fontawesome.com License - https://fontawesome.com/license (Commercial License) --><path d="M512 32h-448c-35.35 0-64 28.65-64 64v320c0 35.35 28.65 64 64 64h448c35.35 0 64-28.65 64-64V96C576 60.65 547.3 32 512 32zM527.9 416c0 8.836-7.164 16-16 16H64.13c-8.836 0-16-7.164-16-16V96c0-8.838 7.164-16 16-16h447.8c8.836 0 16 7.162 16 16V416zM168 336h-48C106.8 336 96 346.8 96 360S106.8 384 120 384h48c13.25 0 23.1-10.75 23.1-24S181.3 336 168 336zM360 336h-112C234.7 336 224 346.7 224 360C224 373.3 234.7 384 248 384h112c13.25 0 24-10.75 24-24C384 346.7 373.3 336 360 336z"/></svg>