<svg xmlns="http://www.w3.org/2000/svg" viewBox="0 0 512 512"><!--! Font Awesome Pro 6.0.0-alpha3 by @fontawesome - https://fontawesome.com License - https://fontawesome.com/license (Commercial License) --><path d="M488 232h-17.38C459.6 131.9 380.1 52.38 280 41.38V23.1C280 10.75 269.3 0 256 0S232 10.75 232 23.1V41.38C131.9 52.38 52.38 131.9 41.38 232H23.1C10.75 232 0 242.7 0 256s10.75 24 23.1 24H41.38C52.38 380.1 131.9 459.6 232 470.6v17.38C232 501.3 242.7 512 255.1 512S280 501.3 280 488v-17.38c100.1-11 179.6-90.5 190.6-190.6H488C501.3 280 512 269.3 512 256S501.3 232 488 232zM280 422.2V391.1C280 378.7 269.3 368 256 368S232 378.7 232 391.1v30.25C158.4 411.9 100.1 353.5 89.75 280h30.25C133.3 280 144 269.3 144 256S133.3 232 120 232H89.75C100.1 158.4 158.5 100.1 232 89.75v30.25C232 133.3 242.7 144 255.1 144S280 133.3 280 120V89.75C353.6 100.1 411.9 158.5 422.2 232H391.1C378.7 232 368 242.7 368 255.1S378.7 280 391.1 280h30.25C411.9 353.6 353.5 411.9 280 422.2zM288 256c0 17.62-14.38 32-32 32C238.4 288 224 273.6 224 256s14.38-32 32-32C273.6 224 288 238.4 288 256z"/></svg>