<svg xmlns="http://www.w3.org/2000/svg" viewBox="0 0 640 512"><!--! Font Awesome Pro 6.0.0-alpha3 by @fontawesome - https://fontawesome.com License - https://fontawesome.com/license (Commercial License) --><path d="M544 32L519.1 32C501.5 12.5 476.4 0 448 0c-53 0-96 43-96 96v30.12L12.12 393.6c-7.625 5.625-12.12 14.62-12.12 24.12c0 17.5 14.36 30.24 30.24 30.24c4.5 0 9.015-.9819 13.51-3.232l121.5-60.76L263.4 384l42.15 112.4c3.609 9.625 12.75 15.56 22.47 15.56c2.797 0 5.656-.5 8.422-1.531c12.42-4.656 18.7-18.5 14.05-30.91L314.7 384L352 384c1.875 0 3.75-.2513 5.625-.2513l1.574-.2588l42.34 112.9c3.609 9.625 12.75 15.56 22.47 15.56c2.797 0 5.656-.5 8.422-1.531c12.42-4.656 18.7-18.5 14.05-30.91l-38.99-103.1C486.4 351.7 544 278.7 544 192V112l96-16C640 60.63 597 32 544 32zM495.1 192C495.1 271.4 431.4 336 352 336H274.3l45.38-13c48-13.62 88.38-47.13 110.6-91.88c4-7.875 .75-17.5-7.125-21.38c-7.875-4-17.5-.75-21.5 7.125C383.4 253.5 350.3 281 310.8 292.3l-144.9 41.38L400 149.5l0-53.51C399.1 69.49 421.5 48 448 48s47.1 21.5 47.1 48V192zM448 72c-13.25 0-24 10.75-24 24S434.8 120 448 120S472 109.3 472 96S461.3 72 448 72z"/></svg>