<svg xmlns="http://www.w3.org/2000/svg" viewBox="0 0 384 512"><!--! Font Awesome Pro 6.0.0-alpha3 by @fontawesome - https://fontawesome.com License - https://fontawesome.com/license (Commercial License) --><path d="M378.8 396.2c8.219 10.38 6.5 25.47-3.906 33.7c-42.5 33.72-93.78 50.36-144.9 50.36c-58.91 0-117.6-22.08-162.4-65.59C24 372.3 0 315.1 0 256s24-116.3 67.59-158.6c83.75-81.25 215.9-87.81 307.3-15.23c10.41 8.234 12.12 23.33 3.906 33.7c-8.25 10.39-23.31 12.16-33.72 3.891c-72.72-57.64-177.7-52.45-244.1 12.08C66.84 165 48 209.1 48 256s18.84 90.98 53.03 124.2C118.4 397.1 138.6 409.7 160 418.4V248C160 234.8 170.8 224 184 224c11.35 0 20.43 8.055 22.92 18.65C219.2 236.1 233.1 232 248 232c31.31 0 60.53 16.84 76.22 43.97c6.625 11.47 2.719 26.16-8.75 32.8C303.9 315.4 289.3 311.4 282.7 300C275.5 287.7 262.3 280 248 280c-22.06 0-40 17.94-40 40v110.3c47.64 5.654 97.19-6.363 137.1-38.02C355.5 384 370.6 385.8 378.8 396.2z"/></svg>