<svg xmlns="http://www.w3.org/2000/svg" viewBox="0 0 512 512"><!--! Font Awesome Pro 6.0.0-alpha3 by @fontawesome - https://fontawesome.com License - https://fontawesome.com/license (Commercial License) --><path d="M491.2 85.31l-212.8-81.17C271.2 1.383 263.6 0 256 0S240.8 1.383 233.5 4.145l-212.8 81.17C8.273 90.08 0 102.2 0 115.8v280.4c0 13.57 8.273 25.72 20.76 30.48l212.8 81.17C240.8 510.6 248.4 512 256 512s15.23-1.383 22.47-4.145l212.8-81.17C503.7 421.9 512 409.8 512 396.2V115.8C512 102.2 503.7 90.08 491.2 85.31zM250.6 48.99C252.4 48.34 254.2 48 256 48s3.641 .3359 5.363 .9922l194.8 74.32L256 198.4L55.83 123.3L250.6 48.99zM48 171.6l184 69v215.3L48 385.7V171.6zM280 455.9V240.6l184-69v214.1L280 455.9z"/></svg>