<svg xmlns="http://www.w3.org/2000/svg" viewBox="0 0 640 512"><!--! Font Awesome Pro 6.0.0-alpha3 by @fontawesome - https://fontawesome.com License - https://fontawesome.com/license (Commercial License) --><path d="M608 296c0-13.25-10.75-24-24-24H56C42.75 272 32 282.8 32 296S42.75 320 56 320h122.4l89.01 148.3C271.8 475.6 279.6 480 288 480h296c13.25 0 24-10.75 24-24s-10.75-24-24-24H301.6L234.4 320H584C597.3 320 608 309.3 608 296zM56 240h192c8.438 0 16.25-4.422 20.59-11.66L357.6 80H584C597.3 80 608 69.25 608 56S597.3 32 584 32h-240c-8.438 0-16.25 4.422-20.59 11.66L234.4 192H56C42.75 192 32 202.8 32 216S42.75 240 56 240z"/></svg>