<svg xmlns="http://www.w3.org/2000/svg" viewBox="0 0 512 512"><!--! Font Awesome Pro 6.0.0-alpha3 by @fontawesome - https://fontawesome.com License - https://fontawesome.com/license (Commercial License) --><path d="M232 376H176c-22.06 0-40-17.94-40-40V224H176C202.5 224 224 202.5 224 176v-128C224 21.49 202.5 0 176 0h-128C21.49 0 0 21.49 0 48v128C0 202.5 21.49 224 48 224h40v112c0 48.53 39.47 88 88 88h56c13.25 0 24-10.75 24-24S245.3 376 232 376zM48 176v-128h128v128H48zM464 288h-128C309.5 288 288 309.5 288 336v128c0 26.51 21.49 48 48 48h128c26.51 0 48-21.49 48-48v-128C512 309.5 490.5 288 464 288zM464 464h-128v-128h128V464z"/></svg>