<svg xmlns="http://www.w3.org/2000/svg" viewBox="0 0 640 512"><!--! Font Awesome Pro 6.0.0-alpha3 by @fontawesome - https://fontawesome.com License - https://fontawesome.com/license (Commercial License) --><path d="M576 32H64C28.65 32 0 60.65 0 96v320c0 35.35 28.65 64 64 64h512c35.35 0 64-28.65 64-64V96C640 60.65 611.3 32 576 32zM576 80c8.824 0 16 7.178 16 16v208H512v-224H576zM464 80v96h-64v-96H464zM400 224h64v80h-64V224zM352 80v224H288v-224H352zM240 80v96h-64v-96H240zM176 224h64v80h-64V224zM64 80h64v224H48V96C48 87.18 55.18 80 64 80zM48 416v-64h248v80H64C55.18 432 48 424.8 48 416zM592 416c0 8.822-7.176 16-16 16h-232V352h248V416z"/></svg>