<svg xmlns="http://www.w3.org/2000/svg" viewBox="0 0 640 512"><!--! Font Awesome Pro 6.0.0-alpha3 by @fontawesome - https://fontawesome.com License - https://fontawesome.com/license (Commercial License) --><path d="M416 32c-34.41 0-66.87 7.999-96 21.86C290.9 39.1 258.4 32 224 32C100.3 32 0 132.3 0 256s100.3 224 224 224c34.41 0 66.87-7.999 96-21.86C349.1 472 381.6 480 416 480c123.7 0 224-100.3 224-224S539.7 32 416 32zM320 108.7C340.4 122 357.7 139.6 370.1 160H269C282.3 139.6 299.6 122 320 108.7zM224 432c-97.05 0-176-78.95-176-176S126.1 80 224 80c15.95 0 31.33 2.322 46.03 6.316C222.3 127.4 192 188.1 192 256s30.33 128.6 78.03 169.7C255.3 429.7 239.9 432 224 432zM320 403.3C299.6 389.1 282.4 372.4 268.1 352h102C357.6 372.4 340.4 389.1 320 403.3zM387.8 320H252.2C246.2 304.9 242.6 288.8 241 272h157.9C397.4 288.8 393.8 304.9 387.8 320zM241 240C242.6 223.2 246.7 207.1 252.6 192h134.7c5.922 15.14 10.06 31.17 11.6 48H241z"/></svg>