<svg xmlns="http://www.w3.org/2000/svg" viewBox="0 0 640 512"><!--! Font Awesome Pro 6.0.0-alpha3 by @fontawesome - https://fontawesome.com License - https://fontawesome.com/license (Commercial License) --><path d="M576 192h-102.2c3.551 10.11 5.748 20.73 5.748 31.77c0 25.64-9.984 49.75-28.12 67.89L320 423.2V448c0 35.35 28.65 64 64 64h192c35.35 0 64-28.65 64-64V256C640 220.7 611.3 192 576 192zM480 376c-13.25 0-24-10.75-24-24c0-13.26 10.75-24 24-24s24 10.74 24 24C504 365.3 493.3 376 480 376zM447.5 223.8c0-16.38-6.249-32.76-18.75-45.26l-159.8-159.8c-12.5-12.5-28.69-18.73-45.06-18.73s-32.95 6.238-45.44 18.73l-159.8 159.8C6.233 191-.0027 207.6-.0027 223.1s6.236 32.57 18.73 45.06l159.8 159.8c12.5 12.5 28.88 18.74 45.26 18.74s32.76-6.248 45.25-18.74l159.8-159.8C441.3 256.5 447.5 240.1 447.5 223.8zM394.9 235.1l-159.8 159.8c-4.076 4.076-8.838 4.686-11.31 4.686c-2.477 0-7.238-.6094-11.31-4.686l-159.8-159.8C48.59 231 47.99 226.2 47.99 223.8s.6074-7.236 4.686-11.31l159.8-159.8c4.082-4.08 8.844-4.689 11.32-4.689s7.234 .6094 11.31 4.688l159.8 159.8c4.078 4.078 4.688 8.84 4.688 11.31S398.9 231 394.9 235.1zM223.8 301.6c-12.79 0-23.1 10.29-23.1 24c0 13.76 11.25 24 23.1 24c13.73 0 24-11.22 24-24C247.8 312.8 237.5 301.6 223.8 301.6zM223.8 199.8c-13.76 0-23.1 11.25-23.1 23.1c0 12.84 10.34 23.1 23.1 23.1c13.71 0 24-11.21 24-23.1C247.8 210.1 237.5 199.8 223.8 199.8zM121.9 199.8c-13.76 0-24 11.25-24 23.1c0 12.79 10.29 23.1 24 23.1c13.71 0 23.1-11.2 23.1-23.1C145.9 210.1 135.7 199.8 121.9 199.8zM325.6 199.8c-13.76 0-24 11.25-24 23.1c0 12.79 10.29 23.1 24 23.1c13.71 0 24-11.21 24-23.1C349.6 210.1 339.3 199.8 325.6 199.8zM223.8 97.94c-12.79 0-23.1 10.29-23.1 24c0 13.76 11.25 24 23.1 24c13.73 0 24-11.22 24-24C247.8 109.1 237.5 97.94 223.8 97.94z"/></svg>