<svg xmlns="http://www.w3.org/2000/svg" viewBox="0 0 576 512"><!--! Font Awesome Pro 6.0.0-alpha3 by @fontawesome - https://fontawesome.com License - https://fontawesome.com/license (Commercial License) --><path d="M536 64h-49.13l-.625-1c-10.66-17.05-35.83-31-55.93-31H360c-.5 0-1 .125-1.5 .125l-27.25-27.38C321.3-5.373 304 1.752 304 16v162.1L70.3 4.719c-10.61-7.875-25.66-5.656-33.58 4.969c-7.891 10.66-5.656 25.69 4.984 33.59l200.4 148.7H184c-31.38 0-59.63 12.38-81 32H90.98c-22.35 0-43.61-16.98-42.99-39.32C48.37 171.1 37.47 160 24 160c-13.25 0-24 10.75-24 24c.125 42.38 30.25 78.63 71.88 86.38C66.75 283.6 64.13 297.8 64 312V448c0 35.2 28.8 64 64 64h16C179.2 512 208 483.2 208 448v-64h128v64c0 35.2 28.8 64 64 64H416c35.2 0 64-28.8 64-64l.0001-207.1L488 240c48.6 0 88-39.4 88-88v-48C576 81.91 558.1 64 536 64zM280 336H160V448c0 8.836-7.164 16-16 16l-15.1 .0006C119.2 464 112 456.8 112 448V312c0-39.76 32.24-71.1 72-71.1h96V336zM432 448c0 8.836-7.164 16-15.1 16L400 464c-8.836 0-16-7.164-16-16v-112h-56V242.8l104 26V448zM528 152c0 22.12-17.88 40-40 40H432v27.25l-80-20V88c0-4.375 3.625-8 8-8h76.25c3 0 5.75 1.75 7.125 4.375l13.75 27.62H528V152zM416 95.98c-8.875 0-15.1 7.133-15.1 16.01s7.125 16 15.1 16S432 120.9 432 111.1S424.9 95.98 416 95.98z"/></svg>