<svg xmlns="http://www.w3.org/2000/svg" viewBox="0 0 576 512"><!--! Font Awesome Pro 6.0.0-alpha3 by @fontawesome - https://fontawesome.com License - https://fontawesome.com/license (Commercial License) --><path d="M416 96c-8.875 0-16 7.124-16 15.1s7.125 15.1 16 15.1s16-7.124 16-15.1S424.9 96 416 96zM536 64h-49.13l-.625-1c-10.66-17.05-35.83-31-55.93-31H360c-.5 0-1 .125-1.5 .125l-27.25-27.38C321.3-5.373 304 1.752 304 16v176H184c-31.38 0-59.63 12.38-81 32H90.98c-22.35 0-43.61-16.98-42.99-39.32C48.37 171.1 37.47 160 24 160c-13.25 0-24 10.75-24 24c.125 42.38 30.25 78.63 71.88 86.38C66.75 283.6 64.13 297.8 64 312V448c0 35.2 28.8 64 64 64h16c35.2 0 64-28.8 64-64v-64h128v64c0 35.2 28.8 64 64 64H416c35.2 0 64-28.8 64-64V240l8 .001c48.6 0 88-39.4 88-88v-48C576 81.91 558.1 64 536 64zM432 448c0 8.836-7.164 16-16 16h-16c-8.836 0-16-7.164-16-16v-112H160V448c0 8.836-7.164 16-16 16H128c-8.836 0-16-7.164-16-16V312c0-39.76 32.24-71.1 72-71.1H320l112 28.75V448zM528 152c0 22.12-17.88 40-40 40H432v27.25l-80-20V88c0-4.375 3.625-8 8-8h76.25c3 0 5.75 1.75 7.125 4.375l13.75 27.62H528V152z"/></svg>