<svg xmlns="http://www.w3.org/2000/svg" viewBox="0 0 448 512"><!--! Font Awesome Pro 6.0.0-alpha3 by @fontawesome - https://fontawesome.com License - https://fontawesome.com/license (Commercial License) --><path d="M224 400c30.42 0 58.01-11.1 80-28.89V376c0 13.25 10.75 24 24 24S352 389.3 352 376V112h8C373.3 112 384 101.3 384 88S373.3 64 360 64H352V56C352 42.75 341.3 32 328 32S304 42.75 304 56V64h-56C234.8 64 224 74.75 224 88s10.75 24 24 24h56v60.89C282 155.1 254.4 144 224 144c-70.58 0-128 57.41-128 128S153.4 400 224 400zM224 192c44.11 0 80 35.88 80 80S268.1 352 224 352S144 316.1 144 272S179.9 192 224 192zM392 432H56C42.75 432 32 442.8 32 456S42.75 480 56 480h336c13.25 0 24-10.75 24-24S405.3 432 392 432z"/></svg>