<svg xmlns="http://www.w3.org/2000/svg" viewBox="0 0 448 512"><!--! Font Awesome Pro 6.0.0-alpha3 by @fontawesome - https://fontawesome.com License - https://fontawesome.com/license (Commercial License) --><path d="M440.1 39.03c-9.375-9.375-24.56-9.375-33.94 0l-112.3 112.3L217.2 73.71C210.7 67.21 201.1 64 193.5 64C184.9 64 176.4 67.21 169.9 73.71L19.62 223.1C6.999 236.5 0 253.5 0 271.3v141.9C0 450.1 29.87 480 66.87 480h141.9c17.62 0 34.63-7.002 47.26-19.63l150.2-150.1c13-13.12 13-34.25 0-47.38l-77.57-77.57l112.3-112.3C450.3 63.59 450.3 48.41 440.1 39.03zM222.1 426.5C218.5 430.1 213.8 432 208.8 432H66.88C56.5 432 48 423.5 48 413.1V271.3c0-5 1.1-9.75 5.5-13.25l53.25-53.25l168.5 168.5L222.1 426.5zM309.3 339.3l-168.5-168.5l52.63-52.63l168.6 168.5L309.3 339.3z"/></svg>