<svg xmlns="http://www.w3.org/2000/svg" viewBox="0 0 512 512"><!--! Font Awesome Pro 6.0.0-alpha3 by @fontawesome - https://fontawesome.com License - https://fontawesome.com/license (Commercial License) --><path d="M339.4 92.38c9.25-28.75 37.38-47.13 67.38-44c30 3.125 53.75 26.87 56.87 56.87s-15.25 58.13-44 67.38l-35.87 49.75C389.1 223.2 394.5 223.9 400 224C461.9 224 512 173.9 512 112S461.9 0 400 0S288 50.12 288 112c.125 5.5 .75 10.88 1.625 16.25L339.4 92.38zM111 368.2C93.62 368.8 79.88 383 80 400.4C80.12 417.8 94.25 431.9 111.6 432s31.62-13.62 32.13-31L211.6 352h88.75l67.87 49c.5001 17.38 14.75 31.12 32.13 31c17.38-.125 31.5-14.25 31.62-31.62c.125-17.38-13.62-31.62-31-32.13L352 300.4v-88.75l49-67.87C418.4 143.2 432.1 129 432 111.6S417.8 80.12 400.4 80c-17.38-.125-31.62 13.62-32.13 31L300.4 160H211.6L143.8 111C143.2 93.62 129 79.88 111.6 80S80.12 94.25 80 111.6s13.62 31.62 31 32.13L160 211.6v88.75L111 368.2zM208 208h96v96h-96V208zM400 288c-5.5 .125-10.88 .75-16.25 1.625l35.87 49.75c28.75 9.25 47.13 37.38 44 67.38s-26.87 53.75-56.87 56.87c-30 3.125-58.13-15.25-67.38-44l-49.75-35.87C288.8 389.1 288.1 394.5 288 400c0 61.88 50.13 112 112 112s112-50.13 112-112S461.9 288 400 288zM112 224c5.5-.125 10.88-.75 16.25-1.625L92.38 172.6C63.62 163.4 45.25 135.2 48.38 105.2c3.125-30 26.87-53.75 56.87-56.87c30-3.125 58.13 15.25 67.38 44l49.75 35.87C223.2 122.9 223.9 117.5 224 112C224 50.12 173.9 0 112 0S0 50.12 0 112S50.12 224 112 224zM172.6 419.6c-9.25 28.75-37.38 47.13-67.38 44c-30-3.125-53.75-26.87-56.87-56.87c-3.125-30 15.25-58.13 44-67.38L128.2 289.6C122.9 288.8 117.5 288.1 112 288C50.12 288 0 338.1 0 400S50.12 512 112 512S224 461.9 224 400c-.125-5.5-.75-10.88-1.625-16.25L172.6 419.6z"/></svg>