<svg xmlns="http://www.w3.org/2000/svg" viewBox="0 0 640 512"><!--! Font Awesome Pro 6.0.0-alpha3 by @fontawesome - https://fontawesome.com License - https://fontawesome.com/license (Commercial License) --><path d="M288 136.1c0-13.25-10.75-23.99-24-23.99L166.4 112.1C163.1 102.5 154.1 96.06 144 96.06S124.9 102.5 121.6 112.1L24 112.1c-13.25 0-24 10.73-24 23.98s10.75 24.01 24 24.01h240C277.2 160.1 288 149.3 288 136.1zM472 237.7l-96.88-28.99c-36-10.87-74.29-10.87-110.3 0L168 237.7V192h-48v63.1c0 17.75 14.38 31.99 32 31.99h45.42c-30.25 29.38-49.17 68.35-53.29 110.2c-.5 4.5 1 8.997 4 12.37C151.2 414 155.5 416 160.1 416h16.3C184.6 416 191.1 409.4 192 401.1c3.5-31.5 18.38-60.63 41.88-81.88L251 336.4C261 346.4 274.5 352 288.8 352h62.37c14.12 0 27.75-5.625 37.75-15.62l17.12-17.13c23.5 21.25 38.46 50.38 41.96 81.88C448.8 409.4 455.3 416 463.6 416h16.32c4.625 0 8.808-1.998 11.93-5.374c3-3.375 4.5-7.872 4-12.37c-4.125-41.87-23.12-80.85-53.25-110.2h45.38c17.75 0 31.1-14.24 31.1-31.99l-.0208-63.1h-48L472 237.7zM355 302.5C353.9 303.4 352.6 304 351.1 304H288.8c-1.5 0-2.875-.625-3.875-1.5l-38.25-38.38L278.5 254.6c27-8.125 55.88-8.125 82.75 0l32 9.5L355 302.5zM616.4 112.2l-97.79 .2495C515.5 102.7 506.2 96 496 96s-19.29 6.829-22.42 16.58l-98 .3754c-12.75 .25-23 10.74-23 23.62c.125 12.75 10.29 23.24 23.17 23.37l240.7-.7498c12.88-.25 23.12-10.82 23-23.69C639.5 122.8 629.3 112.3 616.4 112.2z"/></svg>