<svg xmlns="http://www.w3.org/2000/svg" viewBox="0 0 576 512"><!--! Font Awesome Pro 6.0.0-alpha3 by @fontawesome - https://fontawesome.com License - https://fontawesome.com/license (Commercial License) --><path d="M289.2 0c-141.4 0-256 114.6-256 256s114.6 256 256 256s256-114.6 256-256S430.6 0 289.2 0zM289.2 464c-114.7 0-208-93.31-208-208s93.31-208 208-208c10.91 0 21.54 1.098 31.1 2.723v29.78C321.2 89 314.3 96 305.7 96H281.5c-5.086 0-9.93 2.625-12.84 6.875L260.6 115C258.5 118.3 255.2 120.5 251.5 121.5L236.9 125c-6.902 1.75-11.75 8-11.75 15.12V144.5C225.2 153 232.2 160 240.7 160h90.09c4.117 0 8.113 1.625 11.02 4.5l6.902 7C351.6 174.4 355.5 176 359.6 176h10.17c8.477 0 15.5 6.875 15.5 15.5c0 6.625-4.359 12.62-10.66 14.75L327.3 222c-3.875 1.25-8.113 1-11.75-.875l-14.77-7.375C293.3 210 284.8 208 276.3 208H275.5c-11.87 0-23.37 3.875-32.82 10.88L215.2 239.6c-13.8 10.25-21.92 26.5-21.92 43.63v14.12c0 14.5 5.812 28.38 15.98 38.63C219.5 346.3 233.4 352 247.8 352h25.91c8.598 0 15.5 7 15.5 15.5v29.88c0 12.25 2.906 24.38 8.355 35.25c3.305 6.641 9.047 11.36 15.76 13.69c8.902-1.125 17.59-2.895 26.06-5.199c2.109-1.73 4.477-3.152 6.012-5.488l13.08-19.5c7.145-10.75 15.5-20.5 24.95-29.12c2.543-2.375 4.238-5.375 4.844-8.625l4.238-22.88c.4844-2.25 1.453-4.5 2.906-6.375l18.65-25c2.059-2.625 3.148-5.875 3.148-9.25V303.5C417.3 295 410.4 288 401.8 288h-8.234c-5.207 0-10.05-2.625-12.84-6.875l-13.32-19.88c-5.57-8.5-1.695-20.12 7.992-23.25l2.664-.875c4.602-1.625 9.566-.875 13.56 1.75l18.16 12.12c4.602 3.125 10.54 3.5 15.5 1l15.5-7.75c5.207-2.625 8.477-8 8.477-13.88V223.5c0-8.5 7.023-15.5 15.5-15.5h26.7c3.666 15.44 5.812 31.46 5.812 48C497.2 370.7 403.9 464 289.2 464z"/></svg>