<svg xmlns="http://www.w3.org/2000/svg" viewBox="0 0 576 512"><!--! Font Awesome Pro 6.0.0-alpha3 by @fontawesome - https://fontawesome.com License - https://fontawesome.com/license (Commercial License) --><path d="M444.5 322.5L432.6 310.6c-1.453-1.5-2.301-3.5-2.301-5.625V292c0-2.25-1.816-4-3.996-4h-6.055c-1.816 0-3.391 1.25-3.875 2.875l-4.238 14.5c-.4844 1.75-2.059 2.875-3.754 2.875h-3.875c-1.574 0-3.027-1-3.633-2.5L395.6 293C394.2 290 391.3 288 388.2 288h-12.11c-1.695 0-3.27 .5-4.723 1.5l-23.61 16.88c-1.816 1.25-3.633 2.25-5.691 3l-39.23 15.75c-3.148 1.25-5.086 4.25-5.086 7.5v10.12c0 2.125 .8477 4.25 2.301 5.75L312 360.4c2.906 3 7.023 4.625 11.26 4.625h10.29c1.332 0 2.664-.125 3.996-.375l21.19-5.375c9.203-2.25 18.77 .375 25.43 7l13.08 13C400.2 382.3 404.3 384 408.5 384h15.14c4.238 0 8.355-1.75 11.38-4.75l5.5-5.461c2.615-3.352 5.252-6.695 7.646-10.22c.5684-1.676 1.021-3.402 1.021-5.195v-24.5C449.2 329.6 447.5 325.5 444.5 322.5zM289.2 0c-141.4 0-256 114.6-256 256s114.6 256 256 256s256-114.6 256-256S430.6 0 289.2 0zM289.2 464c-103.8 0-189.8-76.48-205.3-176h70.62c4.238 0 8.355-1.75 11.38-4.75L185.3 263.9C189.2 260 195.8 261 198.2 265.9l22.64 45.25C223.5 316.6 229.1 320 235.1 320h6.176c8.84 0 15.98-7.125 15.98-16V294.6c0-4.25-1.695-8.25-4.723-11.25L246.9 277.6c-3.027-3.125-3.027-8.125 0-11.25l5.691-5.625C255.6 257.8 259.6 256 263.8 256H264.2c5.57 0 10.78-3 13.68-7.75l17.44-29c1.816-3 6.176-2.75 7.75 .375C304.4 222.3 307.2 224 310.2 224h3.027c4.48 0 7.992-3.625 7.992-8V137.9c0-6-3.391-11.62-8.84-14.25l-10.78-5.5c-5.57-2.75-5.934-10.38-.8477-13.75l29.86-22.93c7.887-6.059 12.51-15.43 12.51-25.38V55.33C431.7 79.16 497.2 159.1 497.2 256C497.2 370.7 403.9 464 289.2 464z"/></svg>