<svg xmlns="http://www.w3.org/2000/svg" viewBox="0 0 576 512"><!--! Font Awesome Pro 6.0.0-alpha3 by @fontawesome - https://fontawesome.com License - https://fontawesome.com/license (Commercial License) --><path d="M207.1 112.4c-2.906 0-5.812 1.25-7.992 3.375L174.7 141.1c-2.18 2.125-3.391 5-3.391 8c0 6.125 5.135 11.25 11.43 11.25h15.94c3.027 0 5.934-1.125 7.992-3.25l9.445-9.375c2.059-2.125 3.27-5 3.27-8v-16C219.4 117.5 214.3 112.4 207.1 112.4zM289.2 0c-141.4 0-256 114.6-256 256s114.6 256 256 256s256-114.6 256-256S430.6 0 289.2 0zM454.8 352c-4.127-.4375-8.096-1.965-11.02-4.875l-17.32-17.38c-5.934-6-14.05-9.375-22.64-9.375h-18.29l-43.11-37.13c-8.234-7-18.77-10.88-29.67-10.88H281.6c-8.234 0-16.35 2.375-23.49 6.5L215.3 304.6c-13.68 8.125-22.04 23-22.04 39v23.88c0 14.25 6.66 27.75 18.16 36.38l22.16 16.75c8.719 6.5 24.58 11.75 35.36 11.75h20.22c8.527 0 15.47 6.777 15.95 15.11c.0977-.0078-.0977 .0039 0 0l.1436 15.71C299.9 463.6 294.6 464 289.2 464c-114.7 0-208-93.31-208-208s93.31-208 208-208c2.902 0 5.725 .3164 8.598 .4355L260.3 77.98c-2.059 1.5-3.27 3.871-3.27 6.367v19.97c0 4.367 3.633 7.988 7.992 7.988h15.98c4.48 0 7.992-3.621 7.992-7.988V96.33l16.11-15.98h20.71c6.176 0 11.26 5.117 11.26 11.36c0 2.992-1.211 5.867-3.27 7.984l-26.88 26.71c-1.211 1.25-2.664 2.125-4.359 2.75L262.6 142.4C259.2 143.5 257.1 146.6 257.1 150c0 6.613-2.543 12.86-7.145 17.47L229.8 187.6c-3.027 2.992-4.723 6.988-4.723 11.23v25.21c0 8.859 7.145 15.98 15.98 15.98h22.16c6.055 0 11.5-3.371 14.29-8.738l9.324-18.72c1.453-2.621 4.238-4.367 7.266-4.367h3.027c4.48 0 7.992 3.617 7.992 7.988c0 4.367 3.633 7.988 7.992 7.988h16.11c4.359 0 7.992-3.621 7.992-7.988V214c0-3.496 2.18-6.492 5.449-7.617l31.61-10.48c6.539-2.246 10.9-8.359 10.9-15.23V176.2c0-8.738 7.266-15.98 15.98-15.98h36.69c6.176 0 11.38 5.117 11.38 11.36v9.359c0 6.117-5.207 11.23-11.38 11.23h-31.97c-3.027 0-5.934 1.25-7.992 3.367l-9.445 9.363c-2.059 2.121-3.27 4.992-3.27 7.988c0 6.117 5.086 11.23 11.26 11.23h15.98c3.027 0 5.934 1.25 8.113 3.367l9.324 9.363c2.18 2.121 3.27 4.992 3.27 7.988v8.613l-12.47 12.48c-4.602 4.617-4.602 12.11-.1211 16.73l32.09 32.58C455.5 318.4 459.6 320 464 320h23.05c-3.604 11.11-8.145 21.79-13.48 32H454.8z"/></svg>