<svg xmlns="http://www.w3.org/2000/svg" viewBox="0 0 576 512"><!--! Font Awesome Pro 6.0.0-alpha3 by @fontawesome - https://fontawesome.com License - https://fontawesome.com/license (Commercial License) --><path d="M289.2 0c-141.4 0-256 114.6-256 256s114.6 256 256 256s256-114.6 256-256S430.6 0 289.2 0zM81.23 256c0-32.52 7.713-63.19 21.07-90.63c1.127 2.451 1.955 5.033 3.479 7.291c11.72 17.39 28.38 42.07 35.67 52.77c5.166 7.611 11.23 14.58 18.06 20.74L160.3 246.9c9.533 8.629 20.18 15.94 31.65 21.75c14 7.051 34.44 18.16 48.81 26.11c10.18 5.633 16.49 16.36 16.46 28v32c-.002 8.486 3.369 16.63 9.369 22.63c15 15 24.32 38.63 22.63 51.25v13.07c.002 11.6 9.404 21 21 20.1c.832 0 1.662-.0488 2.488-.1484c.5234-.0625 1.041-.1426 1.562-.209C306.1 463.3 297.7 464 289.2 464C174.5 464 81.23 370.7 81.23 256zM318.4 461.7c8.17-1.441 14.76-7.523 16.72-15.62l14.11-41.63c2-5.49 3.26-11.21 4.77-16.87c1.1-4.057 3.248-7.75 6.23-10.71c3.32-3.33 7.41-7.398 11.31-11.28c8.789-8.73 13.73-20.61 13.72-33C385.3 324.5 382.1 316.7 376.3 311l-13.71-13.64C356.6 291.4 348.5 287.1 339.1 288H273.2c-9.41-4.711-21.48-32-32-32C230.7 256 220.3 253.5 210.9 248.8L199.8 243.3c-5.889-3.037-8.201-10.27-5.164-16.16c1.41-2.736 3.818-4.824 6.725-5.836l31.17-10.39C237.9 209.1 243.9 210.3 248.1 214l9.279 8.061c1.449 1.275 3.309 1.986 5.24 2h5.641C272.7 224.1 276.3 220.5 276.3 216.1C276.3 214.8 276 213.6 275.4 212.5L259.9 181.3C258.3 178.2 258.9 174.4 261.4 172l9.92-9.65C272.8 160.9 274.8 160 276.9 160h9c2.123 .002 4.16-.8398 5.66-2.34l8-8c3.123-3.125 3.123-8.188 0-11.31l-4.689-4.689c-3.121-3.125-3.121-8.188 0-11.31l15.02-15.03c6.25-6.248 6.248-16.38 .002-22.63c-.002 0 .002 .002 0 0L285.5 60.29c-2.516-2.52-5.994-3.836-9.549-3.609C273.4 56.85 270.9 57.06 268.4 57.33c-6.332 .6406-11.15 5.967-11.16 12.33c.084 7.266-4.639 13.71-11.59 15.83c-3.855 1.105-7.984 .7227-11.57-1.07c-5.861-2.934-11.25-6.721-16-11.24L208.7 64.25C233.5 53.79 260.7 48 289.2 48c82.61 0 153.9 48.53 187.5 118.5c-7.537 1.236-14.92 3.277-21.77 6.699c-3.734 1.867-6.92 4.676-9.24 8.15l-19.59 29.38c-5.371 8.061-5.371 18.56 0 26.62l18 27c2.584 3.889 6.248 6.939 10.54 8.779l20.52 10.1l18.61 9.771C477.9 380.6 407.1 449.2 318.4 461.7z"/></svg>