<svg xmlns="http://www.w3.org/2000/svg" viewBox="0 0 512 512"><!--! Font Awesome Pro 6.0.0-alpha3 by @fontawesome - https://fontawesome.com License - https://fontawesome.com/license (Commercial License) --><path d="M256 176C211.8 176 176 211.8 176 256s35.82 80 80 80c44.18 0 80-35.82 80-80S300.2 176 256 176zM256 288C238.4 288 224 273.6 224 256s14.36-32 32-32s32 14.36 32 32S273.6 288 256 288zM432 176C387.8 176 352 211.8 352 256s35.82 80 80 80c44.18 0 80-35.82 80-80S476.2 176 432 176zM432 288c-17.64 0-32-14.36-32-32s14.36-32 32-32s32 14.36 32 32S449.6 288 432 288zM80 176C35.82 176 0 211.8 0 256s35.82 80 80 80C124.2 336 160 300.2 160 256S124.2 176 80 176zM80 288c-17.64 0-32-14.36-32-32s14.36-32 32-32s32 14.36 32 32S97.64 288 80 288z"/></svg>