<svg xmlns="http://www.w3.org/2000/svg" viewBox="0 0 640 512"><!--! Font Awesome Pro 6.0.0-alpha3 by @fontawesome - https://fontawesome.com License - https://fontawesome.com/license (Commercial License) --><path d="M288 384c-17.62 0-32 14.38-32 32c0 17.75 14.38 32 32 32s32-14.25 32-32C320 398.4 305.6 384 288 384zM287.1 352c13.25 0 24-10.75 24-24v-112c0-13.25-10.75-24-24-24s-24 10.75-24 24v112C263.1 341.3 274.7 352 287.1 352zM592 192h-32C533.5 192 512 213.5 512 240V256h-16V207.1c0-4.855-2.207-9.459-6.001-12.49L418.7 138.5C410.2 131.7 399.7 128 388.8 128H312V112h64c13.25 0 24-10.75 24-24C400 74.74 389.3 64 376 64h-176C186.7 64 176 74.74 176 88c0 13.25 10.75 24 24 24h64V128H128C101.5 128 80 149.5 80 176v56h-32v-80C48 138.7 37.25 128 24 128S0 138.7 0 152v208C0 373.3 10.75 384 24 384s24-10.75 24-24v-80h32v56C80 362.5 101.5 384 128 384h41.38l49.95 49.95c2.969 2.967 6.375 5.328 9.943 7.398C225.9 433.6 224 425 224 416c0-12.87 3.879-24.8 10.42-34.84L189.3 336H128v-160h260.8L448 223.4V400l-98.26 .0039C351.1 405.1 352 410.4 352 416c0 11.72-3.379 22.55-8.877 32H448c26.51 0 48-21.49 48-48V384H512v16c0 26.51 21.49 48 48 48h32c26.51 0 48-21.49 48-48v-160C640 213.5 618.5 192 592 192zM592 400h-32v-64h-64v-32h64v-64h32V400z"/></svg>