<svg xmlns="http://www.w3.org/2000/svg" viewBox="0 0 640 512"><!--! Font Awesome Pro 6.0.0-alpha3 by @fontawesome - https://fontawesome.com License - https://fontawesome.com/license (Commercial License) --><path d="M192 232C178.7 232 168 242.7 168 256c0 13.25 10.75 24 24 24S216 269.3 216 256C216 242.7 205.3 232 192 232zM592 192h-32C533.5 192 512 213.5 512 240V256h-16V207.1c0-4.855-2.207-9.459-6.001-12.49L418.7 138.5C410.2 131.7 415.7 128 404.8 128H312V112h64c13.25 0 24-10.75 24-24C400 74.74 389.3 64 376 64h-176C186.7 64 176 74.74 176 88c0 13.25 10.75 24 24 24h64V128H128C101.5 128 80 149.5 80 176v56h-32v-80C48 138.7 37.25 128 24 128S0 138.7 0 152v208C0 373.3 10.75 384 24 384s24-10.75 24-24v-80h32v56C80 362.5 101.5 384 128 384h41.38l49.95 49.95C228.3 442.9 240.5 448 253.3 448H448c26.51 0 48-21.49 48-48V384H512v16c0 26.51 21.49 48 48 48h32c26.51 0 48-21.49 48-48v-160C640 213.5 618.5 192 592 192zM448 400l-194.7 .0059L189.3 336H128v-160h260.8L448 223.4V400zM592 400h-32v-64h-64v-32h64v-64h32V400zM288 232C274.7 232 264 242.7 264 256c0 13.25 10.75 24 24 24S312 269.3 312 256C312 242.7 301.3 232 288 232zM360 256c0 13.25 10.75 24 24 24S408 269.3 408 256c0-13.26-10.75-24-24-24S360 242.7 360 256z"/></svg>