<svg xmlns="http://www.w3.org/2000/svg" viewBox="0 0 384 512"><!--! Font Awesome Pro 6.0.0-alpha3 by @fontawesome - https://fontawesome.com License - https://fontawesome.com/license (Commercial License) --><path d="M335.5 447c2.688 12.97-5.672 25.65-18.64 28.34C301.7 478.5 286.5 480 271.4 480c-58.7 0-115.5-23.12-157.9-65.68c-25.05-25.1-42.65-54.79-53.29-86.34H40c-13.25 0-24-10.74-24-23.98s10.75-24.01 24-24.01h9.494c-1.701-15.96-1.701-32.04 0-47.1H40c-13.25 0-24-10.73-24-23.98c0-13.25 10.75-24.01 24-24.01h20.16c10.65-31.56 28.25-61.26 53.31-86.37c53.34-53.46 129.4-76.21 203.4-60.99c12.97 2.688 21.33 15.37 18.64 28.34c-2.672 13-15.39 21.34-28.36 18.66c-58.16-11.94-117.8 5.904-159.7 47.9C131.9 147.1 120.4 165 111.9 183.1h152.1c13.25 0 24 10.77 24 24.02c0 13.25-10.75 23.97-24 23.97H98.37c-2.18 15.96-2.18 32.04-.002 47.1h165.6c13.25 0 24 10.76 24 24.01s-10.75 23.99-24 23.99H111.9c8.484 18.96 19.99 36.89 35.51 52.43c41.89 42.03 101.6 59.1 159.7 47.93C320.1 425.6 332.8 434 335.5 447z"/></svg>