<svg xmlns="http://www.w3.org/2000/svg" viewBox="0 0 640 512"><!--! Font Awesome Pro 6.0.0-alpha3 by @fontawesome - https://fontawesome.com License - https://fontawesome.com/license (Commercial License) --><path d="M224 64C100.3 64 0 164.3 0 288c0 123.7 100.3 224 224 224s224-100.3 224-224C448 164.3 347.7 64 224 64zM224 464c-97.05 0-176-78.95-176-176S126.1 112 224 112s176 78.95 176 176S321 464 224 464zM143.1 272c17.8 0 32.02-14.25 32.02-32s-14.22-32-32.02-32C126.3 208 112 222.3 112 240S126.3 272 143.1 272zM304 272C321.7 272 336 257.8 336 240s-14.31-32-31.99-32c-17.8 0-32.02 14.25-32.02 32S286.2 272 304 272zM306.5 328.8c-20.83 25-51.59 39.38-84.04 39.38s-63.21-14.25-84.04-39.38c-8.477-10.25-23.61-11.5-33.79-3.125c-10.17 8.5-11.5 23.62-3.027 33.75C131.5 395.4 175.7 416 222.4 416s90.94-20.62 120.9-56.63c8.598-10.12 7.145-25.25-3.027-33.75C330.1 317.3 314.9 318.5 306.5 328.8zM616 72h-48V23.1C568 10.75 557.3 0 544 0s-24 10.75-24 23.1V72h-48C458.7 72 448 82.75 448 95.1S458.7 120 471.1 120H520v48C520 181.3 530.8 192 544 192s24-10.75 24-23.1V120h48c13.25 0 24-10.75 24-23.1S629.3 72 616 72z"/></svg>