<svg xmlns="http://www.w3.org/2000/svg" viewBox="0 0 512 512"><!--! Font Awesome Pro 6.0.0-alpha3 by @fontawesome - https://fontawesome.com License - https://fontawesome.com/license (Commercial License) --><path d="M511.5 246.2c-3.521 1.896-9.491 4.147-16.59 4.147c-5.104 0-10.79-1.165-16.57-4.464l-34.38-19.65c-.1299-.0743-3.662-2.267-8.601-2.267c-2.511 0-5.386 .5668-8.362 2.267l-34.38 19.65c-5.39 3.078-11.12 4.458-16.91 4.458C348.5 250.4 320 219.8 320 192c0-17.67 14.33-32 32-32h37.33C390.2 160 391.1 160 392 160C422.9 160 448 134.9 448 104S422.9 48 392 48c-9.031 0-17.44 2.34-24.99 6.137C362.2 23.51 335.1 0 304 0c-19.22 0-36.27 8.652-48 22.07C244.3 8.652 227.2 0 208 0C176 0 149.8 23.51 144.1 54.14C137.4 50.34 129 48 120 48C89.07 48 64 73.07 64 104S89.07 160 120 160c.9141 0 1.764-.2266 2.666-.2695L160 160c17.67 0 32 14.33 32 32c0 28.12-29.04 58.23-56.06 58.23c-5.708 0-11.33-1.344-16.56-4.334l-34.39-19.65C84.87 226.2 81.33 223.1 76.4 223.1c-2.511 0-5.385 .5668-8.361 2.267l-34.39 19.65C27.87 249.2 22.18 250.4 17.08 250.4c-7.096 0-13.06-2.254-16.59-4.151C.3711 249.5 0 252.7 0 256c0 132.5 100.7 241.5 229.8 254.7C238.4 511.5 247.1 512 256 512s17.59-.5078 26.23-1.33C411.3 497.5 512 388.5 512 256C512 252.7 511.6 249.5 511.5 246.2zM256 464c-131.8 0-193.8-105.6-205.1-173.1c2.236-1.021 4.43-2.146 6.57-3.369l19.05-10.89l19.05 10.89c12.4 7.084 26.5 10.83 40.78 10.83c14.28 0 28.38-3.744 40.78-10.83l19.05-10.89l19.05 10.89C227.6 294.7 241.7 298.4 256 298.4c14.28 0 28.38-3.744 40.78-10.83l19.05-10.89l19.05 10.89c12.4 7.084 26.5 10.83 40.78 10.83c14.28 0 28.38-3.744 40.78-10.83l19.05-10.89l19.06 10.89c2.139 1.223 4.328 2.344 6.562 3.365C449.9 357.9 387.5 464 256 464zM175.1 305.2c-17.68 0-31.97 14.25-31.97 32s14.29 32 31.97 32c17.8 0 32.09-14.25 32.09-32S193.8 305.2 175.1 305.2zM256 368c-26.51 0-48 21.49-48 48c0 8.836 7.164 16 16 16h64c8.836 0 16-7.164 16-16C304 389.5 282.5 368 256 368zM336 305.2c-17.8 0-32.09 14.25-32.09 32s14.29 32 32.09 32c17.68 0 31.97-14.25 31.97-32S353.7 305.2 336 305.2z"/></svg>