<svg xmlns="http://www.w3.org/2000/svg" viewBox="0 0 576 512"><!--! Font Awesome Pro 6.0.0-alpha3 by @fontawesome - https://fontawesome.com License - https://fontawesome.com/license (Commercial License) --><path d="M400 224h-64C327.1 224 320 231.1 320 240v64c0 8.875 7.125 16 16 16h64c8.875 0 16-7.125 16-16v-64C416 231.1 408.9 224 400 224zM572.6 246.3l-55.52-111c-3.303-6.605-8.855-11.97-15.61-14.96L381 66.76c-8.285-3.68-17.72-3.685-26.01 .0029L234.5 120.4C229.4 122.6 223.5 128.4 224 128.4c-2 2-3.75 4.38-5.125 6.88L163.4 246.3C161.2 250.7 160 255.6 160 260.5V480c0 17.67 14.33 32 32 32h352c17.67 0 32-14.33 32-32V260.5C576 255.6 574.8 250.7 572.6 246.3zM528 464H416V416c0-17.67-14.33-32-32-32h-32c-17.67 0-32 14.33-32 32v48H208V264.3l51.25-102.4L368 113.5l108.8 48.38L528 264.3V464zM136 144H48v-32c0-35.28 28.72-64 64-64c26.56 0 49.97 16 59.66 40.75c4.812 12.34 18.78 18.44 31.09 13.59c12.34-4.812 18.44-18.75 13.59-31.09C199.4 27.97 158.5 0 112 0C50.25 0 0 50.25 0 112v376C0 501.3 10.75 512 24 512s24-10.75 24-24V192h88C149.3 192 160 181.3 160 168S149.3 144 136 144z"/></svg>