<svg xmlns="http://www.w3.org/2000/svg" viewBox="0 0 576 512"><!--! Font Awesome Pro 6.0.0-alpha3 by @fontawesome - https://fontawesome.com License - https://fontawesome.com/license (Commercial License) --><path d="M569.6 66.14l-44.8-59.73C521.6 2.14 516.8 0 512 0c-4.801 0-9.6 2.14-12.8 6.407l-44.8 59.73C450.2 71.68 448 78.42 448 85.34v394.7c0 17.67 14.33 32 32 32h64c17.67 0 32-14.33 32-32V85.34C576 78.42 573.8 71.68 569.6 66.14zM528 464h-32V90.67L512 69.33l16 21.33V464zM128 85.34C128 78.42 125.8 71.68 121.6 66.14L76.8 6.407C73.6 2.14 68.8 0 64 0C59.2 0 54.4 2.14 51.2 6.407L6.4 66.14C2.246 71.68 0 78.42 0 85.34v394.7c0 17.67 14.33 32 32 32h64c17.67 0 32-14.33 32-32V416h64v-64H128V224h64V160H128V85.34zM80 464h-32V90.67l16-21.33L80 90.67V464zM352 85.34c0-6.924-2.246-13.66-6.4-19.2l-44.8-59.73C297.6 2.14 292.8 0 288 0C283.2 0 278.4 2.14 275.2 6.407L230.4 66.14C226.2 71.68 224 78.42 224 85.34v394.7c0 17.67 14.33 32 32 32h64c17.67 0 32-14.33 32-32V416h64v-64h-64V224h64V160h-64V85.34zM304 464h-32V90.67L288 69.33l16 21.33V464z"/></svg>