<svg xmlns="http://www.w3.org/2000/svg" viewBox="0 0 512 512"><!--! Font Awesome Pro 6.0.0-alpha3 by @fontawesome - https://fontawesome.com License - https://fontawesome.com/license (Commercial License) --><path d="M512 256c0 22.68-15.78 41.57-36.92 46.59c-5.904 27.9-17.01 53.85-32.25 76.86c8.557 17.85 5.902 39.7-8.891 54.49c-8.646 8.645-19.83 12.84-31.14 13.51l-37.66-80.22c.3477-.3711 .5625-.8145 .9238-1.176c9.373-9.371 21.66-14.06 33.94-14.06c1.01 0 1.961 .5143 2.969 .5768c12.6-19.1 21.53-40.79 25.9-64.08C426.5 285.9 424.4 283.1 422.7 280h-90.91c2.508-7.773 4.248-15.78 4.248-24c0-8.416-1.666-16.38-4.086-24h90.75c1.779-3.059 3.822-5.914 6.211-8.496c-4.373-23.29-13.3-44.98-25.9-64.08C401.1 159.5 401 160 400 160c-4.002 0-7.869-1.295-11.77-2.291l-61.58 61.58c-7.592-14.54-19.4-26.35-33.94-33.94l61.58-61.58c-1.248-4.887-2.027-9.736-1.713-14.74c-19.1-12.6-40.79-21.53-64.08-25.9C285.9 85.52 283.1 87.56 280 89.34v90.74C272.4 177.7 264.4 176 255.1 176C247.6 176 239.6 177.7 232 180.1V89.34c-3.059-1.779-5.914-3.822-8.496-6.211C200.2 87.51 178.5 96.44 159.4 109c.3145 5.004-.4648 9.854-1.713 14.74L219.3 185.3C204.7 192.9 192.9 204.7 185.3 219.3L123.8 157.7C119.9 158.7 116 160 112 160C110.1 160 110 159.5 109 159.4C96.44 178.5 87.51 200.2 83.13 223.5C85.52 226.1 87.56 228.9 89.34 232h90.73C177.7 239.6 175.1 247.6 175.1 256c0 8.225 1.74 16.23 4.248 24H89.34c-1.779 3.059-3.822 5.914-6.211 8.496c4.373 23.29 13.3 44.98 25.9 64.08C110 352.5 110.1 352 112 352c12.28 0 24.57 4.686 33.94 14.06c.3555 .3555 .5684 .791 .9102 1.156l-37.68 80.23c-11.31-.6758-22.47-4.869-31.12-13.51c-14.79-14.79-17.45-36.64-8.891-54.49c-15.23-23.01-26.34-48.96-32.25-76.86C15.78 297.6 0 278.7 0 256s15.78-41.57 36.93-46.59C42.83 181.5 53.94 155.6 69.17 132.6c-8.557-17.85-5.902-39.7 8.891-54.49C87.43 68.69 99.72 64 112 64c7.104 0 14.01 2.032 20.55 5.167C155.6 53.94 181.5 42.83 209.4 36.93C214.4 15.78 233.3 0 256 0s41.57 15.78 46.59 36.93c27.9 5.904 53.85 17.01 76.86 32.24C385.1 66.03 392.9 64 400 64c12.28 0 24.57 4.687 33.94 14.06c14.79 14.79 17.45 36.64 8.891 54.49c15.23 23.01 26.33 48.96 32.24 76.86C496.2 214.4 512 233.3 512 256zM382 478.5c3.219 7.406 2.469 15.94-1.969 22.69C375.6 507.9 368.1 512 359.1 512H151.1c-8.094 0-15.62-4.062-20.06-10.84c-4.438-6.75-5.188-15.28-1.969-22.69l89.82-191.3C212.5 278.8 207.1 267.1 207.1 256c0-26.51 21.49-48 48-48s48 21.49 48 48c0 11.97-4.541 22.78-11.79 31.19L382 478.5zM255.1 323L189.8 464h132.4L255.1 323zM255.1 208c26.51 0 48 21.49 48 48c0 11.97-4.541 22.78-11.79 31.19l89.82 191.3c3.219 7.406 2.469 15.94-1.969 22.69C375.6 507.9 368.1 512 359.1 512H151.1c-8.094 0-15.62-4.062-20.06-10.84c-4.438-6.75-5.188-15.28-1.969-22.69l89.82-191.3C212.5 278.8 207.1 267.1 207.1 256C207.1 229.5 229.5 208 255.1 208z"/></svg>