<svg xmlns="http://www.w3.org/2000/svg" viewBox="0 0 512 512"><!--! Font Awesome Pro 6.0.0-alpha3 by @fontawesome - https://fontawesome.com License - https://fontawesome.com/license (Commercial License) --><path d="M424.1 336C375.4 336 336 375.4 336 424c0 48.58 39.45 88 88.06 88S512 472.6 512 424C512 375.4 472.7 336 424.1 336zM424.1 464C401.1 464 384 446.1 384 424S401.1 384 424.1 384C446.1 384 464 401.9 464 424S446.1 464 424.1 464zM511 58.88c-2.734-14-10.78-26.06-22.64-33.94l-24.14-16.09c-24.03-15.97-56.81-9.531-73.11 14.34L155.3 370.4c-4.391 6.25-11.89 7.844-15.12 6c-5.234-2.969-5.453-7.938-5.312-9.938c.125-1.75 .75-3.5 1.797-5l8.906-12.78C166.9 318.2 159.4 276 128.1 254.7C114.2 244.4 96.33 240.3 78.52 243.5c-17.77 3.156-33.22 13.06-43.5 27.88L26.14 284.1c-15.02 21.56-23.92 46.72-25.75 72.72C-3.688 413.5 24.5 466 73.95 494C94.88 505.8 118.6 512 142.1 512c2.734 0 5.5-.0625 8.266-.2187c45.58-2.625 88.59-26.78 115.2-64.88l236.3-348C510.8 87.09 513.8 72.91 511 58.88zM226.9 419.7c-18.09 25.91-47.42 42.41-78.44 44.19c-17.91 1.281-35.66-2.969-50.92-11.59c-33.16-18.75-52.05-54-49.31-92.03c1.234-17.41 7.188-34.25 17.25-48.69l8.906-12.75c2.953-4.25 7.391-7.125 12.48-8.031c1.141-.1875 2.281-.2813 3.406-.2813c3.938 0 7.781 1.188 11.11 3.531c8.797 6.156 10.95 18.38 4.797 27.22L97.31 334c-5.984 8.562-9.547 18.59-10.3 28.97c-1.297 17.91 5.812 41.81 29.53 55.16c25.59 14.62 59.92 5.719 78.3-20.47l173.5-255.4l31.16 23.37L226.9 419.7z"/></svg>