<svg xmlns="http://www.w3.org/2000/svg" viewBox="0 0 384 512"><!--! Font Awesome Pro 6.0.0-alpha3 by @fontawesome - https://fontawesome.com License - https://fontawesome.com/license (Commercial License) --><path d="M384 56c0 13.25-10.75 24-24 24h-51.02c-16.81 0-31.94 10.62-37.64 26.44L226.1 232H328C341.3 232 352 242.8 352 256s-10.75 24-24 24h-119.1l-51.05 141.8C145.3 456.6 112 480 75.02 480H24C10.75 480 0 469.3 0 456s10.75-24 24-24h51.02c16.81 0 31.94-10.62 37.64-26.44L157.9 280H56C42.75 280 32 269.3 32 256s10.75-24 24-24h119.1l51.05-141.8C238.7 55.38 272 32 308.1 32H360C373.3 32 384 42.75 384 56z"/></svg>