<svg xmlns="http://www.w3.org/2000/svg" viewBox="0 0 448 512"><!--! Font Awesome Pro 6.0.0-alpha3 by @fontawesome - https://fontawesome.com License - https://fontawesome.com/license (Commercial License) --><path d="M448 120v272c-.125 48.63-39.38 87.88-88 88h-272C39.38 479.9 .125 440.6 0 392v-272C.125 71.38 39.38 32.12 88 32h272C408.6 32.12 447.9 71.38 448 120zM400 120c0-22.12-17.88-40-40-40h-272C65.88 80 48 97.88 48 120v272c0 22.12 17.88 40 40 40h272c22.12 0 40-17.88 40-40V120zM384 176C384 220.1 348.1 256 304 256c-6.875-.25-13.75-1.25-20.5-3l48.75-48.75C339 197.8 344.5 184.9 344.5 175.5c0-22.12-17.88-40-40-40c-9.375 0-22.25 5.5-28.75 12.25L224 199.5L172.2 147.8C165.8 141 152.9 135.5 143.5 135.5c-22.12 0-40 17.88-40 40c0 9.375 5.5 22.25 12.25 28.75L164.5 253C157.8 254.8 150.9 255.8 144 256C99.88 256 64 220.1 64 176S99.88 96 144 96S224 131.9 224 176C224 131.9 259.9 96 304 96S384 131.9 384 176zM208 336V262.6L132.8 187.2c-2.75-3-4.25-6.875-4.5-11C128.2 172 129.1 168 133 165C136 162 140.1 160.2 144.4 160.2c4 .25 7.875 1.751 10.87 4.5L224 233.4l68.63-68.63c3.125-2.749 7-4.25 11-4.5c4.25 0 8.375 1.751 11.38 4.75C317.1 168 319.8 172 319.6 176.2c-.125 4.125-1.625 8-4.375 11L240 262.6V336c0 8.875-7.125 16-16 16S208 344.9 208 336zM304 336.1c0 44.12-35.88 80.06-80 80.06s-80-35.88-80-80c0-24 16.25-54.12 36.38-67.13L184 272.5V336c0 22.12 17.88 40 40 40s40-17.88 40-40V272.5l3.5-3.5C287.6 282 304 312.1 304 336.1z"/></svg>