<svg xmlns="http://www.w3.org/2000/svg" viewBox="0 0 576 512"><!--! Font Awesome Pro 6.0.0-alpha3 by @fontawesome - https://fontawesome.com License - https://fontawesome.com/license (Commercial License) --><path d="M480 96h-172.1L258.7 50.75C246.7 38.74 230.5 32 213.5 32H96C60.65 32 32 60.66 32 96v320c0 35.34 28.65 64 64 64h384c35.35 0 64-28.66 64-64V160C544 124.7 515.3 96 480 96zM496 416c0 8.824-7.178 16-16 16H96c-8.822 0-16-7.176-16-16V96c0-8.824 7.178-16 16-16h117.5c4.273 0 8.293 1.664 11.31 4.688L288 144h192c8.822 0 16 7.176 16 16V416zM354.4 320.5C362.8 306.2 368 289.8 368 272c0-53.02-42.98-96-96-96s-96 42.98-96 96s42.98 96 96 96c17.77 0 34.21-5.16 48.48-13.58l46.55 46.55C371.7 405.7 377.8 408 384 408s12.28-2.344 16.97-7.031c9.375-9.375 9.375-24.56 0-33.94L354.4 320.5zM272 320C245.5 320 224 298.5 224 272S245.5 224 272 224S320 245.5 320 272S298.5 320 272 320z"/></svg>