<svg xmlns="http://www.w3.org/2000/svg" viewBox="0 0 448 512"><!--! Font Awesome Pro 6.0.0-alpha3 by @fontawesome - https://fontawesome.com License - https://fontawesome.com/license (Commercial License) --><path d="M434.8 79.26c-4.375-16.37-17.12-29.15-33.63-33.55C391.5 43.12 351.8 32 299.7 32c-63.66 0-145.8 16.51-214.4 85.12c-110.8 111.1-87.53 257.1-72.11 315.6c4.375 16.37 17.17 29.29 33.69 33.69C56.52 469 96.25 480 148.3 480c63.66 0 145.8-16.5 214.4-85.12C473.5 283.8 450.2 137.7 434.8 79.26zM399.1 157.2l-75.63-75.64C345.1 83.12 366.8 86 388.4 91.53C392.5 107.1 397.3 130.1 399.1 157.2zM48.86 354.8l75.63 75.63C102.9 428.9 81.24 426 59.63 420.5C55.53 404.9 50.71 381.9 48.86 354.8zM328.7 360.1c-37.56 37.61-83.93 60.17-137.1 67.85L51.24 289.3C57.89 243.3 76.61 193.8 119.3 151c37.56-37.61 83.93-60.17 137.1-67.85l139.5 139.5C390.1 268.7 371.4 318.2 328.7 360.1zM267.3 276.7c6.25 6.25 6.25 16.38 0 22.63c-3.125 3.125-7.22 4.688-11.31 4.688s-8.189-1.563-11.31-4.688L180.7 235.3c-6.25-6.25-6.25-16.38 0-22.63s16.38-6.25 22.63 0L267.3 276.7zM315.3 228.7c6.25 6.25 6.25 16.38 0 22.63c-3.125 3.125-7.22 4.688-11.31 4.688s-8.189-1.563-11.31-4.688l-64.01-64.01c-6.25-6.25-6.25-16.38 0-22.63s16.38-6.25 22.63 0L315.3 228.7zM219.3 324.7c6.25 6.25 6.25 16.38 0 22.63c-3.125 3.125-7.22 4.688-11.31 4.688s-8.189-1.563-11.31-4.688L132.7 283.3c-6.25-6.25-6.25-16.38 0-22.63c6.25-6.25 16.38-6.25 22.63 0L219.3 324.7z"/></svg>