<svg xmlns="http://www.w3.org/2000/svg" viewBox="0 0 576 512"><!--! Font Awesome Pro 6.0.0-alpha3 by @fontawesome - https://fontawesome.com License - https://fontawesome.com/license (Commercial License) --><path d="M351.8 179.5c4.672 4.641 10.8 6.969 16.91 6.969c6.172 0 12.34-2.359 17.03-7.094l91.64-92.3c9.344-9.406 9.281-24.59-.125-33.94c-9.391-9.328-24.61-9.297-33.94 .125l-91.64 92.3C342.3 154.1 342.4 170.1 351.8 179.5zM397.6 225.6c4.672 4.641 10.8 6.969 16.91 6.969c6.172 0 12.34-2.359 17.03-7.094l91.64-92.3c9.344-9.406 9.281-24.59-.125-33.94c-9.391-9.328-24.61-9.297-33.94 .125L397.5 191.7C388.2 201.1 388.2 216.3 397.6 225.6zM568.9 145.4c-9.391-9.328-24.61-9.297-33.94 .125l-133.2 134.2c-18.63 18.69-41.9 17.69-66.4-6.814l-188.9 191l-34.36-35.17l194.8-183.9c-25.61-25.61-26.82-51.41-8.641-69.69l133.4-134.3c9.344-9.406 9.281-24.59-.125-33.94c-9.391-9.328-24.61-9.297-33.94 .125L264.1 141.4C238.1 166.7 232.1 203.1 246.9 235.1l-167.1 158.1c-9.311 8.938-14.75 21.48-14.94 34.39c-.1875 12.94 4.953 25.64 14.08 34.83l34.25 34.5C121.3 506.8 133.8 512 146.5 512h.6719c12.92-.1875 25.45-5.703 34.08-14.8l162.5-165.4c30.34 13.53 66.84 7.125 92.05-18.28l133.2-134.2C578.4 169.1 578.3 154.8 568.9 145.4zM153.1 278.1C110.7 267.7 79.91 242.8 62.58 204.3C34.15 140.9 52.78 64.05 68.26 48.56L208.9 182.2c2.805-17.35 9.742-33.97 20.29-48.71L104.6 14.25C95.54 5.219 83.02 .0313 69.7 0C56.35 0 43.74 5.188 34.3 14.62C.0625 48.83-14.49 149.8 18.76 223.9c12.85 28.64 39.94 69.28 95.77 92.38L153.1 278.1zM449.1 343.9c-13.57 11.15-28.98 19.11-45.61 23.2l60.29 57.29l-37.08 39.05l-.4375-.5l-3.346-.5781l-82.37-81.62l-33.64 34.25l82.21 81.46c8.207 9.141 21.23 15.17 34.82 15.55C424.3 512 424.7 512 425.1 512c13.43 0 26.31-5.312 35.64-14.67l36.68-36.64c19.48-19.47 19.48-51.16 0-70.63L449.1 343.9z"/></svg>