<svg xmlns="http://www.w3.org/2000/svg" viewBox="0 0 512 512"><!--! Font Awesome Pro 6.0.0-alpha3 by @fontawesome - https://fontawesome.com License - https://fontawesome.com/license (Commercial License) --><path d="M504.9 145.4c-9.391-9.328-24.61-9.297-33.94 .125l-133.2 134.2c-18.63 18.69-41.9 17.69-66.4-6.814l-188.9 191l-34.36-35.17l194.8-183.9c-25.61-25.61-26.82-51.41-8.641-69.69l133.4-134.3c9.344-9.406 9.281-24.59-.125-33.94c-9.391-9.328-24.61-9.297-33.94 .125L200.1 141.4C174.1 166.7 168.1 203.1 182.9 235.1l-167.1 158.1c-9.311 8.938-14.75 21.48-14.94 34.39c-.1875 12.94 4.953 25.64 14.08 34.83l34.25 34.5C57.35 506.8 69.77 512 82.52 512h.6719c12.92-.1875 25.45-5.703 34.08-14.8l162.5-165.4c30.34 13.53 66.84 7.125 92.05-18.28l133.2-134.2C514.4 169.1 514.3 154.8 504.9 145.4zM333.6 225.6c4.672 4.641 10.8 6.969 16.91 6.969c6.172 0 12.34-2.359 17.03-7.094l91.64-92.3c9.344-9.406 9.281-24.59-.125-33.94c-9.391-9.328-24.61-9.297-33.94 .125L333.5 191.7C324.2 201.1 324.2 216.3 333.6 225.6zM287.8 179.5c4.672 4.641 10.8 6.969 16.91 6.969c6.172 0 12.34-2.359 17.03-7.094l91.64-92.3c9.344-9.406 9.281-24.59-.125-33.94c-9.391-9.328-24.61-9.297-33.94 .125l-91.64 92.3C278.3 154.1 278.4 170.1 287.8 179.5z"/></svg>