<svg xmlns="http://www.w3.org/2000/svg" viewBox="0 0 640 512"><!--! Font Awesome Pro 6.0.0-alpha3 by @fontawesome - https://fontawesome.com License - https://fontawesome.com/license (Commercial License) --><path d="M416 344.9l0-107.8c0-8.75-1.75-17.25-5.25-25.25l-78.25-182.8C324.9 11.38 307.6 0 288.3 0H144C117.5 0 96 21.5 96 48V160H48c-26.5 0-48 21.5-48 48L0 416c0 53 43 96 96 96s96-43 96-96h64c0 53 42.1 96 95.1 96S448 469 448 416C448 387.8 435.5 362.5 416 344.9zM144 48h144.2l78.5 182.8C367.6 232.8 368 234.9 368 237.1V240H246.1c-8.875 0-17.75-3-24.75-8.5L144 170.6V48zM96 464c-26.5 0-48-21.5-48-48s21.5-48 48-48s48 21.5 48 48S122.5 464 96 464zM269.2 368H178.8C162.1 339.4 131.5 320 96 320C78.38 320 62.25 325.1 48 333.2V208h65.88l77.88 61.25C207.2 281.2 226.6 288 246.2 288H368v33.63C362.8 320.8 357.5 320 352 320C316.6 320 285.9 339.4 269.2 368zM352 464c-26.5 0-48-21.5-48-48s21.5-48 48-48s48 21.5 48 48S378.5 464 352 464zM616 400H528V23.1C528 10.8 517.2 0 504 0S480 10.8 480 23.1L480 432c0 8.8 7.2 16 16 16H616c13.2 0 24-10.8 24-23.1S629.2 400 616 400z"/></svg>