<svg xmlns="http://www.w3.org/2000/svg" viewBox="0 0 320 512"><!--! Font Awesome Pro 6.0.0-alpha3 by @fontawesome - https://fontawesome.com License - https://fontawesome.com/license (Commercial License) --><path d="M320 56c0 13.25-10.75 24-24 24H96V192h168C277.3 192 288 202.8 288 216S277.3 240 264 240H96V320h104c13.25 0 24 10.75 24 24s-10.75 24-24 24H96v88C96 469.3 85.25 480 72 480S48 469.3 48 456V368H24C10.75 368 0 357.3 0 344S10.75 320 24 320H48V56C48 42.75 58.75 32 72 32h224C309.3 32 320 42.75 320 56z"/></svg>