<svg xmlns="http://www.w3.org/2000/svg" viewBox="0 0 640 512"><!--! Font Awesome Pro 6.0.0-alpha3 by @fontawesome - https://fontawesome.com License - https://fontawesome.com/license (Commercial License) --><path d="M638.6 338.4l-27.5-181.3C603.3 106 565.4 65 515.6 53.75c-128.7-29-262.5-29-391.2 0C74.45 65 36.58 106 28.83 157.1l-27.37 181.3C-9.922 412.9 46.95 480 121.2 480c46.12-.125 88.37-26.5 108.6-68L243.6 384h152.7l13.75 28c20.25 41.5 62.25 67.88 108.4 68C592.8 480 649.8 412.9 638.6 338.4zM573.7 406.6c-13.75 16.25-33.1 25.5-55.25 25.38c-27.75 0-52.75-15.75-65.25-41.13l-18.32-37.05C429.5 342.9 418.4 336 406.2 336H233.7c-12.17 0-23.29 6.907-28.69 17.82l-18.32 37.05C174.2 416.3 149.2 432 121.2 432c-21.25 .125-41.37-9.25-54.1-25.38c-14.37-16.88-20.75-39.13-17.37-61l27.5-181.3C81.2 132.5 104.1 107.5 134.8 100.6c121.9-27.5 248.4-27.5 370.2 0c30.75 6.875 53.62 31.88 58.5 63.75l27.5 181.3C594.4 367.5 588.1 389.8 573.7 406.6zM399.1 240c-17.62 0-31.1 14.38-31.1 32s14.37 32 31.1 32s31.1-14.38 31.1-32S417.6 240 399.1 240zM247.1 200L215.1 199.1L215.1 168c0-13.2-10.78-24-23.98-24c-13.2 0-24.02 10.8-24.02 24l.0362 31.99L135.1 200c-13.2 0-23.98 10.8-23.98 24c0 13.2 10.77 24 23.98 24l32.04-.0098L167.1 280c0 13.2 10.82 24 24.02 24c13.2 0 23.98-10.8 23.98-24l.0364-32.01L247.1 248C261.2 248 271.1 237.2 271.1 224C271.1 210.8 261.2 200 247.1 200zM463.1 144c-17.62 0-31.1 14.38-31.1 32s14.37 32 31.1 32c17.62 0 31.1-14.38 31.1-32S481.6 144 463.1 144z"/></svg>