<svg xmlns="http://www.w3.org/2000/svg" viewBox="0 0 640 512"><!--! Font Awesome Pro 6.0.0-alpha3 by @fontawesome - https://fontawesome.com License - https://fontawesome.com/license (Commercial License) --><path d="M597.9 110.1l-251.6-104.9c-16.75-7-35.75-7-52.5 0L42.13 110.1C16.5 120.6-.123 145.6 .002 173.3V488c0 13.25 10.74 24 24 24c13.25 0 24-10.75 24-24V173.3c0-8.25 4.875-15.75 12.5-18.88l251.7-104.8c5-2.125 10.62-2.125 15.62 0l251.6 104.8C587.1 157.6 592 165 592 173.3V488c0 13.25 10.75 24 24 24c13.26 0 24-10.75 24-24V173.3C640.1 145.6 623.5 120.6 597.9 110.1zM504 192H136C113.9 192 96 209.9 96 232v256C96 501.3 106.7 512 120 512c13.26 0 24-10.75 24-24V368h352v120c0 13.25 10.75 24 24 24c13.26 0 24-10.75 24-24v-256C544 209.9 526.1 192 504 192zM496 320h-352V240h352V320zM360 416h-80C266.7 416 256 426.7 256 440c0 13.25 10.75 24 24 24h80c13.25 0 24-10.75 24-24C384 426.7 373.3 416 360 416z"/></svg>