<svg xmlns="http://www.w3.org/2000/svg" viewBox="0 0 640 512"><!--! Font Awesome Pro 6.0.0-alpha3 by @fontawesome - https://fontawesome.com License - https://fontawesome.com/license (Commercial License) --><path d="M504 192H136C113.9 192 96 209.9 96 232v256C96 501.3 106.7 512 120 512c13.26 0 24-10.75 24-24V240h352v248c0 13.25 10.75 24 24 24c13.26 0 24-10.75 24-24v-256C544 209.9 526.1 192 504 192zM430.4 351.4l-16.37-49.12C406.4 279.4 385.1 264 360.9 264H279.1c-24.14 0-45.48 15.38-53.13 38.28l-16.37 49.12C189.7 361.9 176 382.5 176 406.4v16c0 14.35 6.223 27.19 16 36.25V488C192 501.3 202.7 512 216 512s24-10.75 24-24v-16h160v16c0 13.25 10.75 24 24 24S448 501.3 448 488v-29.34c9.777-9.064 16-21.9 16-36.25v-16C464 382.5 450.3 361.9 430.4 351.4zM271.5 317.5C272.6 314.2 275.6 312 279.1 312h81.88c3.453 0 6.5 2.203 7.594 5.469L377.4 344H262.6L271.5 317.5zM416 422.4C416 423.3 415.3 424 414.4 424L224 422.4v-16C224 398.5 230.5 392 238.4 392h163.2C409.5 392 416 398.5 416 406.4V422.4zM597.9 110.1l-251.6-104.9c-16.75-7-35.75-7-52.5 0L42.13 110.1C16.5 120.6-.123 145.6 .002 173.3V488c0 13.25 10.74 24 24 24c13.25 0 24-10.75 24-24V173.3c0-8.25 4.875-15.75 12.5-18.88l251.7-104.8c5-2.125 10.62-2.125 15.62 0l251.6 104.8C587.1 157.6 592 165 592 173.3V488c0 13.25 10.75 24 24 24c13.26 0 24-10.75 24-24V173.3C640.1 145.6 623.5 120.6 597.9 110.1z"/></svg>