<svg xmlns="http://www.w3.org/2000/svg" viewBox="0 0 640 512"><!--! Font Awesome Pro 6.0.0-alpha3 by @fontawesome - https://fontawesome.com License - https://fontawesome.com/license (Commercial License) --><path d="M392 464H384v-66.35l-48-37.61V464h-192V209.6L96 171.9L96 464H88C74.8 464 64 474.8 64 488C64 501.2 74.8 512 88 512h304c13.2 0 24-10.8 24-24C416 474.8 405.2 464 392 464zM630.8 469.1l-67.45-52.87c7.885-11.46 12.64-25.25 12.64-40.25V152.6c0-17.05-6.721-33.35-18.78-45.4l-75.33-75.18C472.5 22.68 457.4 22.66 448 32c-9.408 9.365-9.426 24.59-.0391 33.98l32.04 31.9l0 62.12c0 28.12 20.87 51.25 47.1 55.25v160.7c0 3.797-1.102 7.246-2.673 10.44L384 275.7V63.1C384 28.65 355.3 0 320 0H160C129.1 0 103.4 21.89 97.34 50.99l-58.53-45.87C34.41 1.679 29.19 0 24.03 0C16.91 0 9.839 3.158 5.121 9.189c-8.188 10.44-6.37 25.53 4.068 33.7l591.1 463.1c10.5 8.203 25.57 6.333 33.69-4.073C643.1 492.4 641.2 477.3 630.8 469.1zM336 238l-192-150.5V64c0-8.838 7.164-16 16-16h160c8.836 0 16 7.162 16 16V238z"/></svg>