<svg xmlns="http://www.w3.org/2000/svg" viewBox="0 0 512 512"><!--! Font Awesome Pro 6.0.0-alpha3 by @fontawesome - https://fontawesome.com License - https://fontawesome.com/license (Commercial License) --><path d="M493.2 107.2l-75.33-75.19C408.5 22.68 393.4 22.67 384 32c-9.408 9.365-9.426 24.59-.0392 33.98l32.04 31.9V160c0 28.12 20.88 51.25 48 55.25V376c0 13.25-10.75 24-24 24c-13.25 0-24-10.75-24-24v-32c0-48.6-39.4-88-88-88h-7.1l0-192c0-35.35-28.65-64-64-64H96C60.65 0 32 28.65 32 64L32 464H23.1C10.8 464 0 474.8 0 487.1S10.8 512 23.1 512h304C341.2 512 352 501.2 352 488S341.2 464 328 464H320l.0001-160h8c22.09 0 40 17.91 40 40v27.75c0 37.75 27 72 64.5 76c43 4.25 79.5-29.5 79.5-71.75V152.6C512 135.6 505.3 119.3 493.2 107.2zM272 464h-192v-224h192V464zM272 192h-192V64c0-8.837 7.163-16 16-16h160c8.837 0 16 7.163 16 16V192z"/></svg>