<svg xmlns="http://www.w3.org/2000/svg" viewBox="0 0 576 512"><!--! Font Awesome Pro 6.0.0-alpha3 by @fontawesome - https://fontawesome.com License - https://fontawesome.com/license (Commercial License) --><path d="M288 128C270.4 128 256 142.4 256 160s14.38 32 32 32s32-14.38 32-32S305.6 128 288 128zM176 176c-17.62 0-32 14.38-32 32s14.38 32 32 32s32-14.38 32-32S193.6 176 176 176zM288 32c-159 0-288 129-288 288c0 52.75 14.25 102.3 39 144.8c5.625 9.625 16.38 15.25 27.5 15.25h443c11.12 0 21.88-5.625 27.5-15.25C561.8 422.3 576 372.8 576 320C576 161 447 32 288 32zM288 432c-22.05 0-40-17.94-40-40S265.9 352 288 352c22.06 0 40 17.94 40 40S310.1 432 288 432zM500.3 432h-134.3C372.2 419.9 376 406.5 376 392c0-48.6-39.4-88-88-88c-24.8 0-47.11 10.34-63.1 26.84L129.5 289.9c-12.25-5.234-26.31 .4219-31.53 12.61s.4375 26.3 12.59 31.52l91.55 39.24C200.8 379.3 200 385.6 200 392c0 14.49 3.834 27.95 10.04 40H75.75C57.5 397.6 48 359.1 48 320c0-132.4 107.6-240 240-240s240 107.6 240 240C528 359.1 518.5 397.6 500.3 432zM416.2 320c0 17.62 14.21 32 31.84 32s32-14.38 32-32S465.9 288 448.2 288S416.2 302.4 416.2 320zM432 208c0-17.62-14.38-32-32-32s-32 14.38-32 32s14.38 32 32 32S432 225.6 432 208z"/></svg>