<svg xmlns="http://www.w3.org/2000/svg" viewBox="0 0 512 512"><!--! Font Awesome Pro 6.0.0-alpha3 by @fontawesome - https://fontawesome.com License - https://fontawesome.com/license (Commercial License) --><path d="M448 128h-10.14c12.51-24.02 15.51-54.04-3.03-86.07c-15.71-27.14-44.49-42.19-75.84-41.93C317.9 .3477 291.2 21.76 257 68.38C222.8 21.74 195.9 .334 154.8 .0039C123.5-.25 94.75 14.8 79.04 41.93C60.5 73.96 63.49 103.1 76 128H64C28.65 128 0 156.7 0 192v64c0 17.67 14.33 32 32 32L32 448c0 35.35 28.65 64 64 64h320c35.35 0 64-28.65 64-64l.0001-160C497.7 288 512 273.7 512 256V192C512 156.7 483.3 128 448 128zM360 48c21.1 0 40 18 40 40S381.1 128 360 128h-86.13C325.3 51.5 339.6 48 360 48zM153.9 48C173.9 48 188.5 51.25 240 128H153.9c-22 0-40-18-40-40S131.9 48 153.9 48zM224 464H96c-8.822 0-16-7.178-16-16V288h144L224 464zM432 448c0 8.822-7.178 16-16 16h-128L288 288H432V448zM464 240h-416V192c0-8.822 7.178-16 16-16h384c8.822 0 16 7.178 16 16V240z"/></svg>