<svg xmlns="http://www.w3.org/2000/svg" viewBox="0 0 640 512"><!--! Font Awesome Pro 6.0.0-alpha3 by @fontawesome - https://fontawesome.com License - https://fontawesome.com/license (Commercial License) --><path d="M586.6 225.1c5.002-10.16 5.395-19.21 5.395-24.81c0-35.5-27-72.25-72.13-72.25c-48.13 0-75.87 47.8-87.87 75.3c-12-27.5-39.75-75.3-87.88-75.3c-45.13 0-72.13 36.75-72.13 72.25c0 5.592 .3925 14.64 5.394 24.81c-30.27 5.076-53.39 31.21-53.39 62.93v160C224 483.3 252.7 512 288 512h288c35.35 0 64-28.66 64-64V287.1C640 256.3 616.9 230.1 586.6 225.1zM344.1 176c18.62 0 35.62 27.74 44.5 47.99h-52.63c-2.73-1.371-5.123-2.988-7.236-4.728c-7.25-6.5-8.75-14.01-8.75-19.01C320 190.5 326.4 176 344.1 176zM408 464H288c-8.822 0-16-7.178-16-16v-56h136L408 464zM408 344H272V288c0-8.822 7.178-16 16-16h120V344zM519.9 176c17.75 0 24.12 14.5 24.12 24.25c0 5-1.5 12.51-8.75 19.01c-2.113 1.74-4.506 3.357-7.236 4.728h-52.63C484.3 203.8 501.3 176 519.9 176zM592 448c0 8.822-7.178 16-16 16h-120l.0001-72H592V448zM592 344h-135.1V272H576c8.822 0 16 7.178 16 16V344zM168 464H64c-8.812 0-16-7.172-16-16V160c0-8.828 7.188-16 16-16h168C245.3 144 256 133.3 256 120S245.3 96 232 96H223.4L243.5 85.06C255.1 78.72 259.4 64.14 253.1 52.5C246.8 40.88 232.2 36.59 220.5 42.94L195.6 56.54l10.27-22.6c5.5-12.08 .1558-26.3-11.91-31.78C181.1-3.312 167.7 1.969 162.2 14.06L144 54.01l-18.16-39.94c-5.5-12.08-19.75-17.34-31.78-11.91C81.1 7.641 76.66 21.86 82.16 33.94l10.27 22.6L67.5 42.94C55.84 36.56 41.25 40.88 34.94 52.5C28.59 64.14 32.88 78.72 44.5 85.06L64.55 96H64C28.72 96 0 124.7 0 160v288c0 35.3 28.72 64 64 64h104C181.3 512 192 501.3 192 488S181.3 464 168 464z"/></svg>