<svg xmlns="http://www.w3.org/2000/svg" viewBox="0 0 576 512"><!--! Font Awesome Pro 6.0.0-alpha3 by @fontawesome - https://fontawesome.com License - https://fontawesome.com/license (Commercial License) --><path d="M512 128h-42.14c12.51-24.02 15.52-54.04-3.029-86.07c-15.71-27.14-44.49-42.19-75.85-41.93C349.9 .3486 323.2 21.76 289 68.38C254.8 21.74 227.9 .3354 186.8 .0039c-31.35-.253-60.1 14.8-75.81 41.93C92.5 73.96 95.49 103.1 108 128H64C28.65 128 .0001 156.7 .0001 192v256c0 35.35 28.65 64 63.1 64h448c35.35 0 64-28.65 64-64V192C576 156.7 547.3 128 512 128zM392 48c21.1 0 40 18 40 40C432 110 413.1 128 392 128h-86.13C357.2 51.5 371.6 48 392 48zM145.9 88c0-21.1 18-40 40-40C205.9 48 220.5 51.25 272 128H185.9C163.9 128 145.9 110 145.9 88zM221.1 176L175.1 222.1C166.6 231.5 166.6 246.6 175.1 255.1c9.353 9.353 24.52 9.364 33.88 .0179L288 177.1l78.13 78.06c9.356 9.342 24.51 9.336 33.86-.0127c9.353-9.353 9.362-24.51 .0204-33.88L353.1 176H512c8.837 0 16 7.163 16 16v128h-480V192c0-8.837 7.163-16 16-16H221.1zM48 448v-64h480v64c0 8.837-7.163 16-16 16H64C55.16 464 48 456.8 48 448z"/></svg>