<svg xmlns="http://www.w3.org/2000/svg" viewBox="0 0 512 512"><!--! Font Awesome Pro 6.0.0-alpha3 by @fontawesome - https://fontawesome.com License - https://fontawesome.com/license (Commercial License) --><path d="M256 16C123.5 16 16 123.5 16 256s107.5 240 240 240s239.1-107.5 239.1-240S388.5 16 256 16zM422 160H373.3c-6.391-27.41-15.39-52.18-26.48-73.1C378.2 103.8 404.2 129.2 422 160zM336 256c0 16.98-1.295 32.82-3.176 48H179.2C177.3 288.8 176 272.1 176 256s1.295-32.82 3.176-48h153.6C334.7 223.2 336 239 336 256zM256 448c-21.79 0-50.87-36.42-67.28-96h134.6C306.9 411.6 277.8 448 256 448zM188.7 160C205.1 100.4 234.2 64 256 64s50.87 36.42 67.28 96H188.7zM165.2 86.9C154.1 107.8 145.1 132.6 138.7 160H89.98C107.8 129.2 133.8 103.8 165.2 86.9zM70.32 208h60.25C128.9 223.5 128 239.6 128 256S128.9 288.5 130.6 304H70.32C66.34 288.6 64 272.6 64 256S66.34 223.4 70.32 208zM89.98 352H138.7c6.391 27.41 15.39 52.18 26.48 73.1C133.8 408.2 107.8 382.8 89.98 352zM346.8 425.1C357.9 404.2 366.9 379.4 373.3 352h48.74C404.2 382.8 378.2 408.2 346.8 425.1zM441.7 304h-60.25c1.68-15.51 2.57-31.56 2.57-48s-.8907-32.49-2.57-48h60.25C445.7 223.4 448 239.4 448 256S445.7 288.6 441.7 304z"/></svg>