<svg xmlns="http://www.w3.org/2000/svg" viewBox="0 0 448 512"><!--! Font Awesome Pro 6.0.0-alpha3 by @fontawesome - https://fontawesome.com License - https://fontawesome.com/license (Commercial License) --><path d="M208 351.1c88.37 0 160-71.63 160-159.1S296.4 32 208 32S48 103.6 48 192S119.6 351.1 208 351.1zM208 80C269.8 80 320 130.2 320 192s-50.24 112-112 112C146.2 304 96 253.8 96 192S146.2 80 208 80zM360 464h-112v-35.61c113.3-19.13 199.1-117.5 199.1-236.2c0-51.91-16.64-102.1-47.3-143.3l7.875-7.531c4.945-4.719 7.432-11.04 7.432-17.37c0-14.93-12.44-23.1-24.05-23.1c-5.956 0-11.9 2.198-16.5 6.62l-24 22.91c-4.946 4.716-7.446 11.05-7.446 17.39c0 22.89 55.1 50.83 55.1 145.1c0 105.9-86.07 192-191.9 192c-95.7 0-120.7-56-145.2-56c-6.247 0-12.48 2.434-17.19 7.292l-38.91 40c-4.525 4.663-6.784 10.7-6.784 16.72c0 9.187 7.159 24.01 23.99 24.01c6.259 0 12.51-2.439 17.23-7.296l23.5-24.16C103.8 413.7 150.9 429.7 200 431.4V464h-112C74.75 464 64 474.7 64 488S74.75 512 88 512h272c13.26 0 24-10.75 24-24S373.3 464 360 464z"/></svg>