<svg xmlns="http://www.w3.org/2000/svg" viewBox="0 0 384 512"><!--! Font Awesome Pro 6.0.0-alpha3 by @fontawesome - https://fontawesome.com License - https://fontawesome.com/license (Commercial License) --><path d="M160 201.9c4.625 12.88 16.5 22.12 30.88 22.12C209.3 224 224 209.3 224 190.9c0-14.38-9.25-26.25-22.12-30.88C211.5 186.8 186.3 211.3 160 201.9zM176 281.9c4.625 12.88 16.5 22.12 30.88 22.12C225.3 304 240 289.3 240 270.9c0-14.38-9.25-26.25-22.12-30.88C227.5 266.8 202.3 291.3 176 281.9zM240 217.9c4.625 12.88 16.5 22.12 30.88 22.12C289.3 240 304 225.3 304 206.9c0-14.38-9.25-26.25-22.12-30.88C291.5 202.8 266.3 227.3 240 217.9zM96 399.1c0 17.67 14.33 31.1 32 31.1s32 14.33 32 31.1v48h64v-48c0-17.67 14.33-31.1 32-31.1s32-14.33 32-31.1v-16H96V399.1zM192 .0001C86.13 .0001 0 86.13 0 192c0 62.75 30.75 121.7 82.25 157.6c10.84 7.5 25.81 4.875 33.42-5.969c7.578-10.88 4.906-25.81-5.953-33.41C71.06 283.3 48 239.1 48 192c0-79.41 64.59-144 144-144s144 64.59 144 144c0 47.06-23.06 91.25-61.72 118.2c-10.86 7.594-13.53 22.53-5.953 33.41c4.672 6.688 12.12 10.28 19.7 10.28c4.75 0 9.531-1.406 13.72-4.312C353.3 313.7 384 254.8 384 192C384 86.13 297.9 .0001 192 .0001z"/></svg>