<svg xmlns="http://www.w3.org/2000/svg" viewBox="0 0 512 512"><!--! Font Awesome Pro 6.0.0-alpha3 by @fontawesome - https://fontawesome.com License - https://fontawesome.com/license (Commercial License) --><path d="M509.9 33.67l-197.3 447.4C302.9 500.5 284.3 512 263.7 512H54.17C24.3 512 0 487.7 0 457.8v-147.7C0 292.9 7.953 277.1 21.81 266.7s31.3-13.38 47.89-8.469l176.7 49.25c12.78 3.562 20.23 16.81 16.69 29.56c-3.578 12.78-16.83 20.19-29.56 16.69L56.39 304.4c-2.984-.875-4.781 0-5.906 .8438C49.34 306.1 48 307.6 48 310.2v25.81h32c8.836 0 15.1 7.164 15.1 16s-7.162 16-15.1 16h-32v32h32c8.836 0 15.1 7.164 15.1 16S88.84 431.1 80 431.1l-32-.002v25.85C48 461.3 50.77 464 54.17 464h209.5c2.344 0 4.453-1.312 5.498-3.375l196.8-446.3c5.344-12.09 19.48-17.56 31.64-12.28C509.8 7.387 515.3 21.54 509.9 33.67z"/></svg>