<svg xmlns="http://www.w3.org/2000/svg" viewBox="0 0 512 512"><!--! Font Awesome Pro 6.0.0-alpha3 by @fontawesome - https://fontawesome.com License - https://fontawesome.com/license (Commercial License) --><path d="M496 352h-15.1l-.0001-112c0-8.837-7.163-16-16-16h-15.1V144c0-8.837-7.164-16-16-16h-15.1L416 24C416 10.75 405.2 0 392 0S368 10.75 368 24V32h-47.1L320 24C320 10.75 309.2 0 296 0S272 10.75 272 24V32h-32V24C240 10.75 229.2 0 216 0S192 10.75 192 24L192 32H144V24C144 10.75 133.2 0 120 0S96 10.75 96 24L96 128H80C71.16 128 64 135.2 64 144V224H48c-8.837 0-16 7.163-16 16L32 352H16c-8.837 0-16 7.163-16 16L0 488C0 501.3 10.75 512 23.1 512S48 501.3 48 488V400H96v96C96 504.8 103.2 512 111.1 512S128 504.8 128 496v-96h256v96c0 8.8 7.2 16 16 16s16-7.2 16-16v-96h48v88C464 501.3 474.7 512 488 512S512 501.3 512 488L512 368C512 359.2 504.8 352 496 352zM144 80h224V128h-224V80zM264 200h-16c-8.875 0-16 7.125-16 16L232 224H191.1L192 176h128L319.1 224h-39.98L280 216C280 207.1 272.9 200 264 200zM112 176H160L160 224H112V176zM128 352H80V272H128L128 352zM352 352h-64.02L288 320c0-8.875-7.125-16-16-16h-32C231.1 304 224 311.1 224 320l.0001 32H160L160 272h192L352 352zM352 224L352 176h48V224H352zM432 352h-47.1L384 272h48V352zM288 432H224c-8.837 0-16 7.163-16 16v48C208 504.8 215.2 512 224 512h64c8.837 0 16-7.163 16-16V448C304 439.2 296.8 432 288 432z"/></svg>