<svg xmlns="http://www.w3.org/2000/svg" viewBox="0 0 512 512"><!--! Font Awesome Pro 6.0.0-alpha3 by @fontawesome - https://fontawesome.com License - https://fontawesome.com/license (Commercial License) --><path d="M96 192H32C14.33 192 0 206.3 0 224v64c0 17.67 14.33 32 32 32h64c17.67 0 32-14.33 32-32V224C128 206.3 113.7 192 96 192zM80 272h-32v-32h32V272zM480 0h-64c-17.67 0-32 14.33-32 32v64c0 17.67 14.33 32 32 32h64c17.67 0 32-14.33 32-32V32C512 14.33 497.7 0 480 0zM464 80h-32v-32h32V80zM288 0H224C206.3 0 192 14.33 192 32v64c0 17.67 14.33 32 32 32h64c17.67 0 32-14.33 32-32V32C320 14.33 305.7 0 288 0zM272 80h-32v-32h32V80zM96 384H32c-17.67 0-32 14.33-32 32v64c0 17.67 14.33 32 32 32h64c17.67 0 32-14.33 32-32v-64C128 398.3 113.7 384 96 384zM80 464h-32v-32h32V464zM96 0H32C14.33 0 0 14.33 0 32v64c0 17.67 14.33 32 32 32h64c17.67 0 32-14.33 32-32V32C128 14.33 113.7 0 96 0zM80 80h-32v-32h32V80zM288 192H224C206.3 192 192 206.3 192 224v64c0 17.67 14.33 32 32 32h64c17.67 0 32-14.33 32-32V224C320 206.3 305.7 192 288 192zM272 272h-32v-32h32V272zM480 384h-64c-17.67 0-32 14.33-32 32v64c0 17.67 14.33 32 32 32h64c17.67 0 32-14.33 32-32v-64C512 398.3 497.7 384 480 384zM464 464h-32v-32h32V464zM288 384H224c-17.67 0-32 14.33-32 32v64c0 17.67 14.33 32 32 32h64c17.67 0 32-14.33 32-32v-64C320 398.3 305.7 384 288 384zM272 464h-32v-32h32V464zM480 192h-64c-17.67 0-32 14.33-32 32v64c0 17.67 14.33 32 32 32h64c17.67 0 32-14.33 32-32V224C512 206.3 497.7 192 480 192zM464 272h-32v-32h32V272z"/></svg>