<svg xmlns="http://www.w3.org/2000/svg" viewBox="0 0 512 512"><!--! Font Awesome Pro 6.0.0-alpha3 by @fontawesome - https://fontawesome.com License - https://fontawesome.com/license (Commercial License) --><path d="M168 112h-48C115.6 112 112 115.6 112 120v48c0 4.418 3.582 8 8 8h48c4.418 0 8-3.582 8-8v-48C176 115.6 172.4 112 168 112zM168 224h-48C115.6 224 112 227.6 112 232v48C112 284.4 115.6 288 120 288h48C172.4 288 176 284.4 176 280v-48C176 227.6 172.4 224 168 224zM168 336h-48c-4.418 0-8 3.582-8 8v48c0 4.418 3.582 8 8 8h48c4.418 0 8-3.582 8-8v-48C176 339.6 172.4 336 168 336zM280 224h-48C227.6 224 224 227.6 224 232v48C224 284.4 227.6 288 232 288h48C284.4 288 288 284.4 288 280v-48C288 227.6 284.4 224 280 224zM280 448h-48C227.6 448 224 451.6 224 456v48C224 508.4 227.6 512 232 512h48c4.418 0 8-3.582 8-8v-48C288 451.6 284.4 448 280 448zM280 336h-48C227.6 336 224 339.6 224 344v48c0 4.418 3.582 8 8 8h48c4.418 0 8-3.582 8-8v-48C288 339.6 284.4 336 280 336zM168 0h-48C115.6 0 112 3.582 112 8v48C112 60.42 115.6 64 120 64h48C172.4 64 176 60.42 176 56v-48C176 3.582 172.4 0 168 0zM168 448h-48c-4.418 0-8 3.582-8 8v48C112 508.4 115.6 512 120 512h48c4.418 0 8-3.582 8-8v-48C176 451.6 172.4 448 168 448zM56 448h-48C3.582 448 0 451.6 0 456v48C0 508.4 3.582 512 8 512h48C60.42 512 64 508.4 64 504v-48C64 451.6 60.42 448 56 448zM56 336h-48C3.582 336 0 339.6 0 344v48c0 4.418 3.582 8 8 8h48C60.42 400 64 396.4 64 392v-48C64 339.6 60.42 336 56 336zM56 112h-48C3.582 112 0 115.6 0 120v48C0 172.4 3.582 176 8 176h48C60.42 176 64 172.4 64 168v-48C64 115.6 60.42 112 56 112zM56 0h-48C3.582 0 0 3.582 0 8v48C0 60.42 3.582 64 8 64h48C60.42 64 64 60.42 64 56v-48C64 3.582 60.42 0 56 0zM56 224h-48C3.582 224 0 227.6 0 232v48C0 284.4 3.582 288 8 288h48C60.42 288 64 284.4 64 280v-48C64 227.6 60.42 224 56 224zM392 0h-48c-4.418 0-8 3.582-8 8v48C336 60.42 339.6 64 344 64h48c4.418 0 8-3.582 8-8v-48C400 3.582 396.4 0 392 0zM504 448h-48C451.6 448 448 451.6 448 456v48c0 4.418 3.582 8 8 8h48c4.418 0 8-3.582 8-8v-48C512 451.6 508.4 448 504 448zM504 224h-48C451.6 224 448 227.6 448 232v48C448 284.4 451.6 288 456 288h48C508.4 288 512 284.4 512 280v-48C512 227.6 508.4 224 504 224zM504 336h-48c-4.418 0-8 3.582-8 8v48c0 4.418 3.582 8 8 8h48c4.418 0 8-3.582 8-8v-48C512 339.6 508.4 336 504 336zM504 0h-48C451.6 0 448 3.582 448 8v48C448 60.42 451.6 64 456 64h48C508.4 64 512 60.42 512 56v-48C512 3.582 508.4 0 504 0zM504 112h-48C451.6 112 448 115.6 448 120v48c0 4.418 3.582 8 8 8h48C508.4 176 512 172.4 512 168v-48C512 115.6 508.4 112 504 112zM392 448h-48c-4.418 0-8 3.582-8 8v48c0 4.418 3.582 8 8 8h48c4.418 0 8-3.582 8-8v-48C400 451.6 396.4 448 392 448zM280 0h-48C227.6 0 224 3.582 224 8v48C224 60.42 227.6 64 232 64h48C284.4 64 288 60.42 288 56v-48C288 3.582 284.4 0 280 0zM392 112h-48c-4.418 0-8 3.582-8 8v48c0 4.418 3.582 8 8 8h48c4.418 0 8-3.582 8-8v-48C400 115.6 396.4 112 392 112zM280 112h-48C227.6 112 224 115.6 224 120v48C224 172.4 227.6 176 232 176h48C284.4 176 288 172.4 288 168v-48C288 115.6 284.4 112 280 112zM392 336h-48c-4.418 0-8 3.582-8 8v48c0 4.418 3.582 8 8 8h48c4.418 0 8-3.582 8-8v-48C400 339.6 396.4 336 392 336zM392 224h-48c-4.418 0-8 3.582-8 8v48C336 284.4 339.6 288 344 288h48c4.418 0 8-3.582 8-8v-48C400 227.6 396.4 224 392 224z"/></svg>