<svg xmlns="http://www.w3.org/2000/svg" viewBox="0 0 512 512"><!--! Font Awesome Pro 6.0.0-alpha3 by @fontawesome - https://fontawesome.com License - https://fontawesome.com/license (Commercial License) --><path d="M176 288h-128C21.49 288 0 309.5 0 336v128C0 490.5 21.49 512 48 512h128C202.5 512 224 490.5 224 464v-128C224 309.5 202.5 288 176 288zM176 464h-128v-128h128V464zM464 0h-128C309.5 0 288 21.49 288 48v128C288 202.5 309.5 224 336 224h128C490.5 224 512 202.5 512 176v-128C512 21.49 490.5 0 464 0zM464 176h-128v-128h128V176zM176 0h-128C21.49 0 0 21.49 0 48v128C0 202.5 21.49 224 48 224h128C202.5 224 224 202.5 224 176v-128C224 21.49 202.5 0 176 0zM176 176h-128v-128h128V176zM488 376h-64v-64C424 298.8 413.3 288 400 288s-24 10.75-24 24v64h-64c-13.25 0-24 10.75-24 24s10.75 24 24 24h64v64c0 13.25 10.75 24 24 24s24-10.75 24-24v-64h64c13.25 0 24-10.75 24-24S501.3 376 488 376z"/></svg>