<svg xmlns="http://www.w3.org/2000/svg" viewBox="0 0 320 512"><!--! Font Awesome Pro 6.0.0-alpha3 by @fontawesome - https://fontawesome.com License - https://fontawesome.com/license (Commercial License) --><path d="M96 352H32c-17.62 0-32 14.38-32 32v64c0 17.62 14.38 32 32 32h64c17.62 0 32-14.38 32-32v-64C128 366.4 113.6 352 96 352zM80 432h-32v-32h32V432zM288 352h-64c-17.62 0-32 14.38-32 32v64c0 17.62 14.38 32 32 32h64c17.62 0 32-14.38 32-32v-64C320 366.4 305.6 352 288 352zM272 432h-32v-32h32V432zM288 32h-64c-17.62 0-32 14.38-32 32v64c0 17.62 14.38 32 32 32h64c17.62 0 32-14.38 32-32V64C320 46.38 305.6 32 288 32zM272 112h-32v-32h32V112zM288 192h-64c-17.62 0-32 14.38-32 32v64c0 17.62 14.38 32 32 32h64c17.62 0 32-14.38 32-32V224C320 206.4 305.6 192 288 192zM272 272h-32v-32h32V272zM96 192H32c-17.62 0-32 14.38-32 32v64c0 17.62 14.38 32 32 32h64c17.62 0 32-14.38 32-32V224C128 206.4 113.6 192 96 192zM80 272h-32v-32h32V272zM96 32H32c-17.62 0-32 14.38-32 32v64c0 17.62 14.38 32 32 32h64c17.62 0 32-14.38 32-32V64C128 46.38 113.6 32 96 32zM80 112h-32v-32h32V112z"/></svg>