<svg xmlns="http://www.w3.org/2000/svg" viewBox="0 0 384 512"><!--! Font Awesome Pro 6.0.0-alpha3 by @fontawesome - https://fontawesome.com License - https://fontawesome.com/license (Commercial License) --><path d="M344 240H216V112.4c30.37 1.289 60.58 11.47 86.09 32.05c10.28 8.328 25.41 6.734 33.75-3.609c8.312-10.31 6.688-25.42-3.625-33.73C297.8 79.31 256.1 65.85 216 64.54V24c0-13.25-10.68-24-23.93-24S168 10.75 168 24v44.94C128.5 77.63 91.08 97.1 62.37 130.9c-62.25 71.38-62.25 178.9 0 250.3C91.08 414 128.5 435.1 168 443.7V488c0 13.25 10.82 24 24.07 24S216 501.3 216 488v-40.33c41.14-1.389 82.33-15.4 117.2-43.57C355.3 384.2 368 355.8 368 326.2V264C368 250.8 357.3 240 344 240zM98.78 349.6c-46.59-53.38-46.59-133.9 0-187.3C117.9 140.4 142.1 125.6 168 117.9v276.2C142.1 386.4 117.9 371.6 98.78 349.6zM320 326.2c0 16.02-6.875 31.39-17.91 41.38c-25.5 20.58-55.72 30.76-86.09 32.05V288H320V326.2z"/></svg>