<svg xmlns="http://www.w3.org/2000/svg" viewBox="0 0 640 512"><!--! Font Awesome Pro 6.0.0-alpha3 by @fontawesome - https://fontawesome.com License - https://fontawesome.com/license (Commercial License) --><path d="M316.5 416h235.2c15.62 0 30.75-6.625 41.5-18.12c10.5-11.38 15.88-26.75 14.62-42.13c-9.875-122.5-110.4-219.4-231.9-227V48h175.1c13.25 0 23.1-10.75 23.1-24c0-13.26-10.74-24-23.1-24H151.9c-13.2 0-23.1 10.8-23.1 24c0 13.2 10.8 24 23.1 24h176.1V128H148.2L112.1 80.05C104.5 69.94 92.63 64 79.99 64H39.99c-12.5 0-23.1 5.625-31.62 15.38s-10.25 22.25-7 35.25l30.5 104.4C34.63 228.5 41.58 236.1 50.73 239.8l150.4 59.97l70.44 93.8C282.2 407.7 298.8 416 316.5 416zM407.1 182c81.62 20.12 144.9 90.88 151.1 177.5c.125 2.75-1 4.625-2.125 5.75C556.1 366.3 554.8 368 551.7 368h-143.7V182zM75.86 198.1L50.74 112h25.25l48.12 64h235.9v192H316.5c-2.5 0-4.875-1.125-6.375-3.25l-78.62-104.5L75.86 198.1zM632.1 439c-9.375-9.375-24.56-9.375-33.94 0C583.2 454.9 561.2 464 538.8 464H248C234.8 464 224 474.8 224 488S234.8 512 248 512h290.8c35.59 0 69.05-13.86 94.22-39.03C642.3 463.6 642.3 448.4 632.1 439z"/></svg>