<svg xmlns="http://www.w3.org/2000/svg" viewBox="0 0 640 512"><!--! Font Awesome Pro 6.0.0-alpha3 by @fontawesome - https://fontawesome.com License - https://fontawesome.com/license (Commercial License) --><path d="M592.9 302.9H435.8l-24.51 48.39L528 352v112l-110.3-.2656c-20.04 0-38.55-8.512-51.71-22.94l-9.631 19.02c-4.17 8.539-9.281 16.33-14.79 23.76c20.85 18.05 47.67 28.41 76.26 28.41L592.9 512C618.9 512 640 490.5 640 463.9v-112.7C640 324.5 618.9 302.9 592.9 302.9zM592.9 463.7H560v-112.6h32.86V463.7zM221.9 267l26.65-52.22L175.1 69.89l42.23-21.62l58.09 113.8l26.59-52.11L259.1 25.92C250.7 9.457 234.3 0 217.3 0c-7.088 0-14.28 1.645-21.04 5.105l-42.23 21.61c-11.29 5.777-19.85 15.95-23.75 28.24C126.4 67.25 127.5 80.63 133.3 92.11L221.9 267zM509.7 54.96c-3.902-12.29-12.46-22.46-23.75-28.24l-42.23-21.61C436.1 1.645 429.8 0 422.7 0c-17.01 0-33.41 9.457-41.81 25.92l-141.3 276.9h-192.4C21.1 302.9 0 324.5 0 351.1v112.7C0 490.5 21.1 512 47.14 512h175c45 0 85.56-25.54 105.6-66.65L506.7 92.11C512.5 80.63 513.6 67.25 509.7 54.96zM80 463.7H47.14v-112.6H80V463.7zM285.6 423.8c-12.03 24.63-36.33 39.96-63.34 39.96L112 464V352l136.9-.8672c12.03 0 22.83-6.785 27.99-17.34l145.7-285.5l42.23 21.62L285.6 423.8z"/></svg>