<svg xmlns="http://www.w3.org/2000/svg" viewBox="0 0 576 512"><!--! Font Awesome Pro 6.0.0-alpha3 by @fontawesome - https://fontawesome.com License - https://fontawesome.com/license (Commercial License) --><path d="M576 247.1c0-6.802-2.877-13.56-8.471-18.31l-263.1-224c-4.484-3.781-10.01-5.669-15.53-5.669S276.1 1.891 272.5 5.672L8.471 229.7C2.877 234.4 0 241.2 0 247.1C0 264.1 13.83 271.1 24.02 271.1c5.479 0 10.99-1.867 15.51-5.687l24.47-20.76v226.5C64 494.1 81.94 512 104 512h95.1c22.06 0 39.1-17.94 39.1-40l.0056-120h95.1l-.0032 120C335.1 494.1 353.9 512 375.1 512h95.1c22.06 0 39.1-17.94 39.1-40V245.5L536.5 266.3c4.516 3.813 10.03 5.688 15.52 5.688C562.1 271.1 576 263.1 576 247.1zM463.1 463.1H383.1v-120c0-22.06-17.94-40-39.1-40H232c-22.06 0-39.1 17.94-39.1 40v120H112V207.1c0-.9629-.4375-1.783-.5488-2.717L288 55.45l175.1 149.4V463.1z"/></svg>