<svg xmlns="http://www.w3.org/2000/svg" viewBox="0 0 576 512"><!--! Font Awesome Pro 6.0.0-alpha3 by @fontawesome - https://fontawesome.com License - https://fontawesome.com/license (Commercial License) --><path d="M575.1 248c0-6.808-2.878-13.57-8.468-18.33l-264-223.1c-4.479-3.801-10.01-5.681-15.53-5.681c-5.526 0-11.05 1.88-15.53 5.68l-264 223.1C2.878 234.5 0 241.2 0 248c0 16.13 13.86 23.98 23.1 23.98c5.489 0 11.01-1.872 15.53-5.684L63.1 245.6l.0116 202.4c0 35.34 28.65 63.1 63.1 63.1h319.1c35.35 0 63.1-28.65 63.1-63.1l.0026-202.4l24.47 20.76c4.531 3.812 10.03 5.687 15.53 5.687C562.1 272 575.1 264.1 575.1 248zM463.1 448c0 8.8-7.2 15.1-15.1 15.1H127.1c-8.8 0-15.1-7.2-15.1-15.1V208c0-.9629-.4375-1.783-.5488-2.717l176.5-149.8l176 149.3V448zM223.1 224c0 35.34 28.65 64 64 64s64-28.66 64-64c0-35.35-28.65-63.1-64-63.1S223.1 188.7 223.1 224zM255.1 320c-44.18 0-79.1 35.81-79.1 79.1c0 8.835 7.164 15.1 15.1 15.1h191.1c8.836 0 15.1-7.164 15.1-15.1c0-44.18-35.82-79.1-79.1-79.1H255.1z"/></svg>