<svg xmlns="http://www.w3.org/2000/svg" viewBox="0 0 576 512"><!--! Font Awesome Pro 6.0.0-alpha3 by @fontawesome - https://fontawesome.com License - https://fontawesome.com/license (Commercial License) --><path d="M575.1 247.1c0-6.802-2.877-13.56-8.471-18.31l-263.1-224c-4.484-3.781-10.01-5.669-15.53-5.669s-11.05 1.887-15.53 5.669L8.472 229.7c-5.594 4.756-8.471 11.51-8.471 18.31c0 16.06 13.73 24 24.03 24c5.483 0 10.99-1.867 15.5-5.687l24.47-20.76L64.01 448c0 35.35 28.65 64 63.1 64h319.1c35.35 0 63.1-28.65 63.1-64l.0013-202.5l24.47 20.76c4.516 3.813 10.03 5.688 15.52 5.688C562.1 271.1 575.1 263.1 575.1 247.1zM463.1 207.1v240c0 8.837-7.163 16-15.1 16H128c-8.837 0-15.1-7.163-15.1-16V207.1c0-.9629-.4375-1.783-.5488-2.717L288 55.45l176.5 149.8C464.4 206.2 463.1 207 463.1 207.1z"/></svg>