<svg xmlns="http://www.w3.org/2000/svg" viewBox="0 0 576 512"><!--! Font Awesome Pro 6.0.0-alpha3 by @fontawesome - https://fontawesome.com License - https://fontawesome.com/license (Commercial License) --><path d="M181.3 261.3v-32h32c5.891 0 10.67-4.775 10.67-10.67V197.3c0-5.891-4.775-10.67-10.67-10.67h-32v-32C181.3 148.8 176.6 144 170.7 144H149.3c-5.891 0-10.67 4.773-10.67 10.67v32h-32c-5.891 0-10.67 4.775-10.67 10.67v21.33c0 5.891 4.775 10.67 10.67 10.67h32v32C138.7 267.2 143.4 272 149.3 272h21.33C176.6 272 181.3 267.2 181.3 261.3zM228 400h-40c-6.625 0-12 5.375-12 12v40c0 6.625 5.375 12 12 12h40c6.625 0 12-5.375 12-12v-40C240 405.4 234.6 400 228 400zM256 64H64C28.65 64 0 92.65 0 128l.4727 360C.4883 501.3 11.23 512 24.47 512c13.27 0 24.02-10.76 24-24.03L48 128C47.99 119.2 55.15 112 63.98 112h192C264.8 112 272 119.2 272 128L271.5 488c0 13.25 10.75 24 24 24s24-10.75 24-24L320 128C320 92.65 291.3 64 256 64zM228 304h-40C181.4 304 176 309.4 176 316v40c0 6.625 5.375 12 12 12h40c6.625 0 12-5.375 12-12v-40C240 309.4 234.6 304 228 304zM132 304h-40C85.38 304 80 309.4 80 316v40c0 6.625 5.375 12 12 12h40c6.625 0 12-5.375 12-12v-40C144 309.4 138.6 304 132 304zM132 400h-40c-6.625 0-12 5.375-12 12v40c0 6.625 5.375 12 12 12h40c6.625 0 12-5.375 12-12v-40C144 405.4 138.6 400 132 400zM512 0h-168C330.7 0 320 10.74 320 24c0 13.25 10.75 24 24 24h168C520.8 48 528 55.2 528 63.1L527.5 488c0 13.25 10.75 24 24 24s24-10.75 24-24L576 64C576 28.65 547.3 0 512 0zM483.1 272h-40c-6.625 0-12 5.375-12 12v40c0 6.625 5.375 12 12 12h40c6.625 0 12-5.375 12-12v-40C495.1 277.4 490.6 272 483.1 272zM483.1 368h-40c-6.625 0-12 5.375-12 12v40c0 6.625 5.375 12 12 12h40c6.625 0 12-5.375 12-12v-40C495.1 373.4 490.6 368 483.1 368zM387.1 368L352 368V432h35.1c6.627 0 12-5.373 12-12v-40C399.1 373.4 394.6 368 387.1 368zM387.1 272L352 272V336h35.1c6.627 0 12-5.373 12-12v-40C399.1 277.4 394.6 272 387.1 272zM437.3 197.3v-32h32c5.891 0 10.67-4.775 10.67-10.67V133.3c0-5.891-4.775-10.67-10.67-10.67h-32v-32c0-5.893-4.775-10.67-10.67-10.67h-21.33c-5.891 0-10.67 4.773-10.67 10.67v32h-32C356.8 122.7 352 127.4 352 133.3v21.33c0 5.891 4.775 10.67 10.67 10.67h32v32c0 5.891 4.775 10.67 10.67 10.67h21.33C432.6 208 437.3 203.2 437.3 197.3z"/></svg>