<svg xmlns="http://www.w3.org/2000/svg" viewBox="0 0 576 512"><!--! Font Awesome Pro 6.0.0-alpha3 by @fontawesome - https://fontawesome.com License - https://fontawesome.com/license (Commercial License) --><path d="M180 416h-40C133.4 416 128 421.4 128 428v40C128 474.6 133.4 480 140 480h40C186.6 480 192 474.6 192 468v-40C192 421.4 186.6 416 180 416zM308 416h-40C261.4 416 256 421.4 256 428v40C256 474.6 261.4 480 268 480h40C314.6 480 320 474.6 320 468v-40C320 421.4 314.6 416 308 416zM180 320h-40C133.4 320 128 325.4 128 332v40C128 378.6 133.4 384 140 384h40C186.6 384 192 378.6 192 372v-40C192 325.4 186.6 320 180 320zM308 320h-40C261.4 320 256 325.4 256 332v40C256 378.6 261.4 384 268 384h40C314.6 384 320 378.6 320 372v-40C320 325.4 314.6 320 308 320zM436 320h-40C389.4 320 384 325.4 384 332v40C384 378.6 389.4 384 396 384h40C442.6 384 448 378.6 448 372v-40C448 325.4 442.6 320 436 320zM512 96h-31.57l.0332-31.93C480.5 28.69 451.8 0 416.5 0H159.5c-35.37 0-64.04 28.69-64 64.07L95.57 96H64C28.65 96 0 124.7 0 160v328C0 501.3 10.75 512 24 512s24-10.75 24-24V160c0-8.838 7.164-16 16-16h79.62L143.5 64.02C143.5 55.17 150.7 48 159.5 48h256.9c8.844 0 16.01 7.174 16 16.02L432.4 144H512c8.836 0 16 7.162 16 16v328c0 13.25 10.75 24 24 24S576 501.3 576 488V160C576 124.7 547.3 96 512 96zM436 416h-40C389.4 416 384 421.4 384 428v40C384 474.6 389.4 480 396 480h40C442.6 480 448 474.6 448 468v-40C448 421.4 442.6 416 436 416zM357.6 144H320V106.4C320 100.7 315.3 96 309.6 96H266.4C260.7 96 256 100.7 256 106.4V144H218.4C212.7 144 208 148.7 208 154.4v43.2C208 203.3 212.7 208 218.4 208H256v37.6C256 251.3 260.7 256 266.4 256h43.2C315.3 256 320 251.3 320 245.6V208h37.6C363.3 208 368 203.3 368 197.6V154.4C368 148.7 363.3 144 357.6 144z"/></svg>