<svg xmlns="http://www.w3.org/2000/svg" viewBox="0 0 512 512"><!--! Font Awesome Pro 6.0.0-alpha3 by @fontawesome - https://fontawesome.com License - https://fontawesome.com/license (Commercial License) --><path d="M236.8 256h38.5C281.6 256 288 249.6 288 243.3v-38.5c0-6.375-6.375-12.75-12.75-12.75h-38.5C230.4 192 224 198.4 224 204.8v38.5C224 249.6 230.4 256 236.8 256zM332.8 160h38.5C377.6 160 384 153.6 384 147.3v-38.5C384 102.4 377.6 96 371.3 96h-38.5C326.4 96 320 102.4 320 108.8v38.5C320 153.6 326.4 160 332.8 160zM332.8 256h38.5C377.6 256 384 249.6 384 243.3v-38.5C384 198.4 377.6 192 371.3 192h-38.5C326.4 192 320 198.4 320 204.8v38.5C320 249.6 326.4 256 332.8 256zM236.8 160h38.5C281.6 160 288 153.6 288 147.3V108.8c0-6.375-6.375-12.75-12.75-12.75h-38.5C230.4 96.01 224 102.4 224 108.8v38.5C224 153.6 230.4 160 236.8 160zM488 464H480v-416h8C501.3 48 512 37.25 512 24C512 10.74 501.3 0 488 0H24C10.75 0 0 10.74 0 24C0 37.25 10.75 48 24 48H32v416H24C10.75 464 0 474.7 0 488C0 501.3 10.75 512 24 512h464c13.25 0 24-10.75 24-24C512 474.7 501.3 464 488 464zM432 464h-128V384h30.37c9.799 0 17.73-8.811 15.86-18.43C341.6 321.4 302.7 288 256 288s-85.63 33.37-94.23 77.56C159.9 375.2 167.8 384 177.6 384H208v80h-128v-416h352V464zM140.8 256h38.5C185.6 256 192 249.6 192 243.3v-38.5C192 198.4 185.6 192 179.3 192h-38.5C134.4 192 128 198.4 128 204.8v38.5C128 249.6 134.4 256 140.8 256zM140.8 160h38.5C185.6 160 192 153.6 192 147.3v-38.5C192 102.4 185.6 96 179.3 96h-38.5C134.4 96 128 102.4 128 108.8v38.5C128 153.6 134.4 160 140.8 160z"/></svg>