<svg xmlns="http://www.w3.org/2000/svg" viewBox="0 0 384 512"><!--! Font Awesome Pro 6.0.0-alpha3 by @fontawesome - https://fontawesome.com License - https://fontawesome.com/license (Commercial License) --><path d="M360 464H352v-18.97c0-40.63-15.81-78.78-44.52-107.5L225.9 256l81.55-81.53C336.2 145.8 352 107.6 352 66.97V48h8C373.3 48 384 37.25 384 24S373.3 0 360 0H24C10.75 0 0 10.75 0 24S10.75 48 24 48H32v21.25c0 38.88 14.67 75.88 41.31 104.2L151 256l-77.72 82.59C46.67 366.9 32 403.9 32 442.8V464H24C10.75 464 0 474.8 0 488S10.75 512 24 512h336c13.25 0 24-10.75 24-24S373.3 464 360 464zM98.53 128C86.66 110.8 80 90.49 80 69.25V48h224v18.97C304 89.29 296.8 110.3 283.8 128H98.53zM98.54 384c2.99-4.34 6.078-8.633 9.746-12.53L188.4 286.3l85.14 85.13C277.4 375.3 280.7 379.7 283.8 384H98.54z"/></svg>