<svg xmlns="http://www.w3.org/2000/svg" viewBox="0 0 640 512"><!--! Font Awesome Pro 6.0.0-alpha3 by @fontawesome - https://fontawesome.com License - https://fontawesome.com/license (Commercial License) --><path d="M176 160c-19.88 0-36 16.12-36 36v28c0 8.836 7.164 16 16 16h40c8.836 0 16-7.164 16-16v-28C212 176.1 195.9 160 176 160zM622.9 242.8l-151.4-137.7C464.8 99.03 456.4 96 447.1 96s-16.82 3.031-23.48 9.084L273.1 242.7C262.2 252.6 256 266.7 256 281.4V464C256 490.5 277.5 512 304 512h287.1c26.51 0 48-21.31 48-47.82L640 281.2C640 266.6 633.8 252.6 622.9 242.8zM591.1 464H304V281.4c0-1.229 .5215-2.406 1.43-3.23l142.6-129.6l142.7 129.7C591.6 279.1 592 280 592 281.1L591.1 464zM256 48h48v123.4L352 127.8V32c0-17.67-14.33-32-32-32H32C14.33 0 0 14.33 0 32v165.5c0 16.97 6.745 33.25 18.74 45.25L64 288V488C64 501.3 74.75 512 88 512s24-10.75 24-24V268.1L52.69 208.8C49.69 205.8 48 201.7 48 197.5V48H96v40C96 101.3 106.7 112 120 112S144 101.3 144 88V48h64v40c0 13.25 10.75 24 24 24S256 101.3 256 88V48zM480 288h-64.01c-8.875 0-16.01 7.134-16.01 16.01v64c0 8.875 7.125 16 16 16h64c8.875 0 16-7.125 16-16v-64C496 295.1 488.9 288 480 288z"/></svg>