<svg xmlns="http://www.w3.org/2000/svg" viewBox="0 0 640 512"><!--! Font Awesome Pro 6.0.0-alpha3 by @fontawesome - https://fontawesome.com License - https://fontawesome.com/license (Commercial License) --><path d="M24 224C10.75 224 0 234.8 0 248S10.75 272 24 272c119.1 0 216 96.91 216 216C240 501.3 250.8 512 264 512S288 501.3 288 488C288 342.4 169.6 224 24 224zM24 320C10.75 320 0 330.8 0 344s10.75 24 24 24c66.16 0 120 53.84 120 120C144 501.3 154.8 512 168 512S192 501.3 192 488C192 395.4 116.6 320 24 320zM24 416C10.75 416 0 426.8 0 440s10.75 24 24 24c13.22 0 24 10.78 24 24C48 501.3 58.75 512 72 512S96 501.3 96 488C96 448.3 63.69 416 24 416zM431.1 287.1c8.838 0 16-7.165 16-16V207.1c0-8.836-7.102-16.01-15.94-16.01h-64.01c-8.836 0-16.05 7.172-16.05 16.01v64c0 8.836 7.164 16 16 16H431.1zM640 216c0-6.617-2.725-13.2-8.062-17.95L576 148.3V55.1c0-13.25-10.75-24-24-24s-24 10.75-24 24v49.68l-112.1-99.61c-4.545-4.04-10.21-6.059-15.91-6.059c-5.696 0-11.42 2.02-15.97 6.059l-216 192C162.7 202.8 160 209.4 160 216c0 13.19 10.7 23.98 23.99 23.98c5.687 0 11.39-2.008 15.94-6.057L224 212.5v35.46c0 13.26 10.74 24 24 24c13.25 0 24-10.74 24-24V169.9l128-113.8l128 113.8V368h-184c-13.26 0-24 10.74-24 23.1S330.7 416 344 416l184.1-.0031c26.51 0 48.01-21.5 48.01-48.01L576 212.5l24.06 21.39C604.6 237.1 610.3 239.1 616 239.1C629.2 239.1 640 229.3 640 216z"/></svg>