<svg xmlns="http://www.w3.org/2000/svg" viewBox="0 0 576 512"><!--! Font Awesome Pro 6.0.0-alpha3 by @fontawesome - https://fontawesome.com License - https://fontawesome.com/license (Commercial License) --><path d="M280.5 239.7C270.1 229.5 256 223.1 242.1 223.1c-33.58 0-50.11 28.46-50.11 49.77c0 12.82 4.971 25.66 14.93 35.49l72.62 71.3c2.356 2.293 5.409 3.44 8.462 3.44s6.105-1.147 8.46-3.44l72.62-71.3c9.944-9.825 14.92-22.64 14.92-35.45c0-21.13-16.81-49.82-50.17-49.82c-13.97 0-28.07 5.489-38.54 15.73L287.9 247L280.5 239.7zM575.1 247.1c0-6.802-2.877-13.56-8.471-18.31l-55.53-47.12V55.99c0-13.25-10.75-24-23.1-24s-23.1 10.75-23.1 24v85.85L303.5 5.672c-4.484-3.781-10.01-5.669-15.53-5.669c-5.523 0-11.05 1.888-15.53 5.669L8.474 229.7C2.88 234.4 .0032 241.2 .0032 247.1c0 16.03 13.69 24 24.02 24c5.484 0 10.1-1.867 15.52-5.687l24.47-20.76l.0094 202.5c0 35.35 28.65 63.1 63.1 63.1h319.1c35.35 0 63.1-28.65 63.1-63.1l.0007-202.5l24.47 20.76c4.516 3.813 10.03 5.688 15.52 5.688C562.1 271.1 575.1 263.1 575.1 247.1zM463.1 447.1c0 8.8-7.2 15.1-15.1 15.1H128c-8.8 0-15.1-7.2-15.1-15.1v-240c0-.9629-.4375-1.783-.5488-2.717L288 55.46l175.1 149.4V447.1z"/></svg>