<svg xmlns="http://www.w3.org/2000/svg" viewBox="0 0 576 512"><!--! Font Awesome Pro 6.0.0-alpha3 by @fontawesome - https://fontawesome.com License - https://fontawesome.com/license (Commercial License) --><path d="M256 207.1v48H208c-8.836 0-15.1 7.162-15.1 16v31.1c0 8.838 7.164 16 15.1 16h47.1v47.1c0 8.838 7.164 16 15.1 16h31.1c8.836 0 15.1-7.163 15.1-16v-47.1h47.1c8.836 0 15.1-7.163 15.1-16v-31.1c0-8.838-7.164-16-15.1-16h-47.1V207.1c0-8.838-7.164-15.1-15.1-15.1H272C263.2 191.1 256 199.2 256 207.1zM575.1 247.1c0-6.802-2.877-13.56-8.471-18.31l-55.53-47.12V55.99c0-13.25-10.75-24-23.1-24s-23.1 10.75-23.1 24v85.85l-160.5-136.2c-4.484-3.781-10.01-5.669-15.53-5.669S276.1 1.891 272.5 5.672L8.472 229.7C2.878 234.4 .0016 241.2 .0016 247.1c0 16.09 13.83 24 24.02 24c5.479 0 10.99-1.867 15.51-5.687l24.47-20.76l.0095 202.5c0 35.35 28.65 63.1 63.1 63.1h319.1c35.35 0 63.1-28.65 63.1-63.1l.0007-202.5l24.47 20.76c4.516 3.812 10.03 5.688 15.52 5.688C562.1 271.1 575.1 263.1 575.1 247.1zM463.1 447.1c0 8.801-7.199 16-15.1 16H128c-8.801 0-15.1-7.199-15.1-16v-240c0-.9629-.4375-1.783-.5488-2.717L288 55.46L463.1 204.8V447.1z"/></svg>