<svg xmlns="http://www.w3.org/2000/svg" viewBox="0 0 576 512"><!--! Font Awesome Pro 6.0.0-alpha3 by @fontawesome - https://fontawesome.com License - https://fontawesome.com/license (Commercial License) --><path d="M575.1 487.9c0-11.45-8.176-21.6-19.8-23.67c-47.49-8.485-53.88-40.21-76.2-40.21c-22.92 0-33.77 39.83-95.1 39.83c-62.23 0-73.08-39.83-95.1-39.83c-22.92 0-33.77 39.83-95.1 39.83c-69.59 0-81.1-39.83-103.1-39.83c-21.95 0-30.18 33.43-68.2 40.21C8.179 466.3 .0032 476.4 .0032 487.9c0 12.26 9.657 24.12 23.94 24.12c7.637 0 35.43-4.889 65.27-31.81c27.1 19.74 66.33 31.69 103.1 31.69c34.89 0 68.48-11.41 95.67-32.06c27.19 20.65 61.6 30.98 96.01 30.98c34.32 0 68.63-10.27 95.78-30.82c30.59 24.3 63.21 32.03 72.23 32.03C563.1 511.1 575.1 502.4 575.1 487.9zM24.01 271.1c5.492 0 11.01-1.872 15.52-5.685l24.47-20.76v106.5c0 13.25 10.75 24 23.1 24s23.1-10.75 23.1-24V207.1c0-.9629-.4375-1.783-.5488-2.717L288 55.45l175.1 149.4v147.2c0 13.25 10.75 24 23.1 24c13.25 0 23.1-10.75 23.1-24V245.5l24.47 20.76c4.531 3.813 10.03 5.688 15.53 5.688c10.14 0 23.1-7.987 23.1-23.98c0-6.808-2.878-13.57-8.468-18.33l-55.53-47.12V55.99c0-13.25-10.75-24-23.1-24c-13.25 0-23.1 10.75-23.1 24v85.85l-160.5-136.2c-4.469-3.781-9.999-5.669-15.53-5.669s-11.06 1.887-15.53 5.669L8.472 229.7C2.881 234.4 .0035 241.2 .0035 248C.0035 264.1 13.87 271.1 24.01 271.1zM248 175.1c-22.06 0-39.1 17.94-39.1 40v80c0 22.06 17.94 40 39.1 40h79.1c22.06 0 39.1-17.94 39.1-40V215.1c0-22.06-17.94-40-39.1-40H248zM319.1 287.1h-63.1V223.1h63.1V287.1z"/></svg>