<svg xmlns="http://www.w3.org/2000/svg" viewBox="0 0 640 512"><!--! Font Awesome Pro 6.0.0-alpha3 by @fontawesome - https://fontawesome.com License - https://fontawesome.com/license (Commercial License) --><path d="M616 464H592V312c0-22.06-17.94-39.1-40-39.1h-208c-22.06 0-40 17.94-40 39.1v151.1H280c-13.25 0-24 10.75-24 23.1s10.75 23.1 24 23.1h336c13.25 0 24-10.75 24-23.1S629.3 464 616 464zM544 464h-192v-143.1h192V464zM207.1 192c-8.836 0-16 7.164-16 15.1V272c0 8.836 7.164 15.1 16 15.1l64-.0003C280.8 288 288 280.8 288 272L287.1 208c0-8.836-7.162-15.1-16-15.1H207.1zM272 368h-160V169.9l128-113.8l128 113.8v70.12H416V212.6l24.06 21.39C444.6 237.1 450.3 239.1 456 239.1c13.19 0 23.1-10.71 23.1-23.98c0-6.617-2.725-13.21-8.062-17.95L416 148.3V55.1c0-13.25-10.75-24-24-24S368 42.75 368 55.1v49.67L255.9 6.059C251.4 2.02 245.7 .0106 239.1 .0106S228.6 2.02 224.1 6.059l-216 192C2.725 202.8 .001 209.4 .001 216c0 13.16 10.68 23.98 23.99 23.98c5.687 0 11.39-2.008 15.95-6.058L64 212.6l-.0088 155.4c0 26.51 21.49 47.1 48 47.1l160 .0149L272 368z"/></svg>