<svg xmlns="http://www.w3.org/2000/svg" viewBox="0 0 640 512"><!--! Font Awesome Pro 6.0.0-alpha3 by @fontawesome - https://fontawesome.com License - https://fontawesome.com/license (Commercial License) --><path d="M351.1 303.1v64c0 8.836 7.164 16 16 16h64c8.838 0 16-7.164 16-16v-64c0-8.836-7.099-16.01-15.94-16.01h-64.01C359.2 287.1 351.1 295.2 351.1 303.1zM639.1 311.9c0-6.617-2.725-13.05-8.062-17.8L576 244.3V152C576 138.8 565.3 128 552 128S528 138.8 528 152v49.67l-112.1-99.61c-4.545-4.04-10.21-6.062-15.9-6.062c-5.696 0-11.43 2.022-15.97 6.062l-216 192C162.7 298.8 159.1 305.2 159.1 311.9c0 13.16 10.68 24.14 23.99 24.14c5.687 0 11.39-2.008 15.95-6.058L224 308.6l-.0039 155.4c0 26.51 21.49 48 48 48h255.1c26.51 0 48-21.49 48-48L576 308.6l24.06 21.39C604.6 334 610.3 336 616 336C629.2 336 639.1 325.1 639.1 311.9zM528 464h-256V265.9l128-113.8l128 113.8V464zM128 176C128 202.5 149.5 224 176 224S224 202.5 224 176S202.5 128 176 128S128 149.5 128 176zM122.2 223.4C111.7 211.7 104 194.4 104 176c0-39.77 32.24-72 71.1-72S248 136.2 248 175.1c0 1.615-.4395 3.102-.5508 4.688l25.07-22.28l30.73-94.62c.4409-1.286 .6572-2.574 .6572-3.862c0-5.5-4.529-11.82-11.9-11.82c-1.291 0-2.499 .1587-3.758 .6029l-69 22.1l-32.63-65.08C184.6 2.499 180.5-.0005 176-.0005S167.4 2.499 165.4 6.624l-32.5 65.13L63.75 48.75C62.5 48.31 61.19 48.09 59.91 48.09c-3.079 0-6.076 1.238-8.282 3.533C49.29 53.87 48.05 56.92 48.05 60.06c0 1.226 .189 2.497 .5752 3.691l23 69l-65 32.63C2.5 167.4 0 171.5 0 175.1s2.5 8.626 6.625 10.63l65.13 32.5l-23 69.12C48.31 289.5 48.09 290.8 48.09 292.1c0 4.488 3.499 11.86 11.96 11.86c1.235 0 2.497-.187 3.7-.5762l75.37-24.85c2.25-3.004 4.795-5.82 7.66-8.373l25.41-22.58C152.3 246.5 134.6 237.4 122.2 223.4z"/></svg>