<svg xmlns="http://www.w3.org/2000/svg" viewBox="0 0 640 512"><!--! Font Awesome Pro 6.0.0-alpha3 by @fontawesome - https://fontawesome.com License - https://fontawesome.com/license (Commercial License) --><path d="M628.2 432.6l-46.5-53.73c9.123-4.625 16.75-12.12 21.5-21.75c7.998-16.5 5.873-36.25-5.5-50.63l-56.11-71.5c9.873-5 17.87-13.25 22.49-23.88c7.625-17.62 4-38-9.248-52l-135.1-144C409.7 5.375 397.2 0 384 0s-25.75 5.375-34.87 15L263.6 105.6l35.53 32.3L384 48L519.1 192h-73.11l113.1 144h-78.86l110.9 128H416c0 18-6.229 34.63-16.34 48h192.3c18.75 0 35.87-11 43.74-28.12C643.5 466.8 640.6 446.7 628.2 432.6zM224 288h-64.01C151.1 288 144 295.1 144 304v64c0 8.875 7.125 16 16 16h64c8.875 0 16-7.125 16-16v-64C240 295.1 232.9 288 224 288zM215.5 105.1C208.8 99.03 200.4 96 191.1 96S175.2 99.03 168.5 105.1L17.14 242.7C6.223 252.6 0 266.7 0 281.4L0 464C0 490.5 21.49 512 48 512h287.1c26.51 0 48-21.31 48-47.82L384 281.2c0-14.65-6.238-28.61-17.08-38.46L215.5 105.1zM335.1 464H48V281.4c0-1.229 .5215-2.406 1.43-3.23l142.6-129.6l142.7 129.7C335.6 279.1 336 280 336 281.1L335.1 464z"/></svg>