<svg xmlns="http://www.w3.org/2000/svg" viewBox="0 0 576 512"><!--! Font Awesome Pro 6.0.0-alpha3 by @fontawesome - https://fontawesome.com License - https://fontawesome.com/license (Commercial License) --><path d="M575.1 247.1c0-6.802-2.877-13.56-8.471-18.31L511.1 182.6V55.99c0-13.25-10.75-24-23.1-24S463.1 42.74 463.1 55.99v85.85l-160.5-136.2c-4.484-3.781-10.01-5.669-15.53-5.669c-5.523 0-11.05 1.887-15.53 5.669L8.472 229.7c-5.594 4.756-8.471 11.51-8.471 18.31c0 16.06 13.73 24 24.03 24c5.483 0 10.99-1.867 15.5-5.687l24.47-20.76L64.01 448c0 35.35 28.65 64 63.1 64h71.99c13.25 0 23.1-10.75 23.1-24s-10.75-24-23.1-24H128c-8.8 0-15.1-7.2-15.1-16V207.1c0-.9629-.4375-1.783-.5488-2.717L288 55.45l175.1 149.4v243.2c0 8.8-7.2 16-15.1 16h-71.1c-13.25 0-23.1 10.75-23.1 24S362.7 512 375.1 512h71.1c35.35 0 63.1-28.65 63.1-64l.001-202.5l24.47 20.76c4.516 3.813 10.03 5.688 15.52 5.688C562.1 271.1 575.1 263.1 575.1 247.1zM264.1 262.1C259.5 258 253.7 255.1 248 255.1c-13.26 0-24.02 10.7-24.02 23.99c0 6.566 2.677 13.1 7.938 17.85l58.98 53.1l-57.92 46.31c-5.891 4.717-9.003 11.69-9.003 18.76c0 4.594 1.314 9.225 4.034 13.3l47.1 72C280.7 508.2 288.3 512 296 512c13.08 0 23.99-10.59 23.99-24.02c0-4.576-1.307-9.202-4.037-13.3l-35.8-53.69l62.83-50.25c8.482-6.796 8.998-16.03 8.998-18.75c0-6.782-2.873-13.28-7.935-17.85L264.1 262.1z"/></svg>