<svg xmlns="http://www.w3.org/2000/svg" viewBox="0 0 640 512"><!--! Font Awesome Pro 6.0.0-alpha3 by @fontawesome - https://fontawesome.com License - https://fontawesome.com/license (Commercial License) --><path d="M111.1 223.1c58.29 0 88.19-42.45 88.19-44.78c0-2.526-2.152-5.294-5.297-5.294c-1.724 0-7.091 1.671-17.55 1.671c-48.52 0-87.65-39.5-87.65-87.73c0-56.94 47.02-74.23 47.02-80.8c0-.7654-.4346-4.52-4.203-5.185C125.7 .7495 118.9 .1245 111.1-.0005C50.12-.0005 0 50.13 0 112S50.12 223.1 111.1 223.1zM117.4 362.6L100.7 322.1c-.875-1.875-2.75-2.998-4.749-2.998c-2 0-3.874 1.123-4.749 2.998l-16.62 39.63L35 379.2C33.25 380.1 32 382 32 384s1.25 3.872 3 4.747l39.75 16.62l16.5 39.63c.875 1.875 2.749 3.003 4.749 3.003c2.125 0 3.874-1.128 4.874-3.003l16.5-39.63l39.75-16.62c1.75-.875 2.876-2.747 2.876-4.747s-1.126-3.878-2.876-4.753L117.4 362.6zM194.1 68.75L234.7 85.37l16.5 39.63c.875 1.875 2.75 3.001 4.751 3.001c2.125 0 3.874-1.126 4.874-3.001l16.5-39.63l39.75-16.62C318.9 67.87 319.1 66 319.1 64S318.9 60.12 317.1 59.25L277.4 42.62L260.7 2.999C259.9 1.124 257.1-.0004 255.1-.0004c-2 0-3.876 1.125-4.751 2.1L234.6 42.62L194.1 59.25C193.2 60.12 191.1 62 191.1 64S193.2 67.87 194.1 68.75zM640 312c0-6.617-2.725-13.2-8.062-17.95L576 244.3V152C576 138.8 565.3 128 552 128S528 138.8 528 152v49.67l-112.1-99.61c-4.545-4.04-10.21-6.062-15.91-6.062s-11.42 2.022-15.97 6.062l-216 192C162.7 298.8 160 305.4 160 312c0 13.16 10.68 23.98 23.99 23.98c5.687 0 11.39-2.008 15.95-6.058L224 308.6l-.0039 155.4c0 26.51 21.49 48 48 48h255.1c26.51 0 48-21.49 48-48L576 308.6l24.06 21.39C604.6 334 610.3 336 616 336C629.2 336 640 325.3 640 312zM528 464h-256V265.9l128-113.8l128 113.8V464zM351.1 303.1v64c0 8.836 7.164 16 16 16h64c8.838 0 16-7.164 16-16v-64c0-8.836-7.099-16.01-15.94-16.01h-64.01C359.2 287.1 351.1 295.2 351.1 303.1z"/></svg>