<svg xmlns="http://www.w3.org/2000/svg" viewBox="0 0 640 512"><!--! Font Awesome Pro 6.0.0-alpha3 by @fontawesome - https://fontawesome.com License - https://fontawesome.com/license (Commercial License) --><path d="M215.5 105.1C208.8 99.03 200.4 96 191.1 96S175.2 99.03 168.5 105.1L17.14 242.7C6.223 252.6 0 266.7 0 281.4V464C0 490.5 21.49 512 48 512h287.1c26.51 0 48-21.31 48-47.82L384 281.2c0-14.65-6.238-28.61-17.08-38.46L215.5 105.1zM335.1 464H48V281.4c0-1.229 .5215-2.406 1.43-3.23l142.6-129.6l142.7 129.7C335.6 279.1 336 280 336 281.1L335.1 464zM452 288L416 288l-.0013 64L452 352c6.625 0 12-5.375 12-12v-40C464 293.4 458.6 288 452 288zM452 192h-40C405.4 192 400 197.4 400 204v40C400 250.6 405.4 256 412 256h40C458.6 256 464 250.6 464 244v-40C464 197.4 458.6 192 452 192zM224 288h-64.01C151.1 288 144 295.1 144 304v64c0 8.875 7.125 16 16 16h64c8.875 0 16-7.125 16-16v-64C240 295.1 232.9 288 224 288zM548 192h-40C501.4 192 496 197.4 496 204v40C496 250.6 501.4 256 508 256h40C554.6 256 560 250.6 560 244v-40C560 197.4 554.6 192 548 192zM576 0h-192c-35.35 0-64 28.65-64 64v72C320 149.3 330.7 160 344 160s24-10.75 24-24V64c0-8.838 7.164-16 16-16h192c8.836 0 16 7.162 16 16v424c0 13.25 10.75 24 24 24S640 501.3 640 488V64C640 28.65 611.3 0 576 0zM452 96h-40C405.4 96 400 101.4 400 108v40C400 154.6 405.4 160 412 160h40C458.6 160 464 154.6 464 148v-40C464 101.4 458.6 96 452 96zM548 96h-40C501.4 96 496 101.4 496 108v40C496 154.6 501.4 160 508 160h40C554.6 160 560 154.6 560 148v-40C560 101.4 554.6 96 548 96zM548 288h-40C501.4 288 496 293.4 496 300v40c0 6.625 5.375 12 12 12h40c6.625 0 12-5.375 12-12v-40C560 293.4 554.6 288 548 288z"/></svg>