<svg xmlns="http://www.w3.org/2000/svg" viewBox="0 0 576 512"><!--! Font Awesome Pro 6.0.0-alpha3 by @fontawesome - https://fontawesome.com License - https://fontawesome.com/license (Commercial License) --><path d="M575.1 248c0-6.808-2.878-13.57-8.468-18.33l-55.53-47.12V56.01c0-13.25-10.75-23.1-23.1-23.1c-13.25 0-23.1 10.75-23.1 23.1v85.84l-160.5-136.2c-4.479-3.801-10.01-5.691-15.53-5.691S276.9 1.9 272.5 5.701L8.472 229.7C2.881 234.5 .0036 241.2 .0036 248c0 16.13 13.86 23.98 23.1 23.98c5.489 0 11.01-1.872 15.53-5.684l24.47-20.76l.0106 202.4c0 35.34 28.65 63.1 63.1 63.1h319.1c35.35 0 63.1-28.65 63.1-63.1l.0022-202.4l24.47 20.76c4.531 3.812 10.03 5.687 15.53 5.687C562.1 272 575.1 264 575.1 248zM463.1 448c0 8.8-7.2 15.1-15.1 15.1H128c-8.8 0-15.1-7.2-15.1-15.1V208c0-.9629-.4375-1.783-.5488-2.717L288 55.48l175.1 149.3V448zM224 224c0 35.34 28.65 63.99 63.1 63.99s63.1-28.65 63.1-63.99c0-35.35-28.65-63.1-63.1-63.1S224 188.7 224 224zM256 320c-44.18 0-79.1 35.81-79.1 79.1c0 8.835 7.164 15.1 15.1 15.1h191.1c8.836 0 15.1-7.164 15.1-15.1c0-44.18-35.82-79.1-79.1-79.1H256z"/></svg>