<svg xmlns="http://www.w3.org/2000/svg" viewBox="0 0 384 512"><!--! Font Awesome Pro 6.0.0-alpha3 by @fontawesome - https://fontawesome.com License - https://fontawesome.com/license (Commercial License) --><path d="M384 304c0 13.25-10.75 24-24 24H118.1C104.3 339.2 96 355 96 372.3C96 405.2 125.1 432 160.8 432h43.56c27.12 0 53.63-10.3 72.69-28.25c9.656-9.078 24.83-8.656 33.92 1.016c9.094 9.641 8.641 24.84-1.016 33.92C281.7 465.3 244.2 480 204.4 480H160.8C98.61 480 48 431.7 48 372.3C48 356.8 51.74 341.8 58.3 328H24C10.75 328 0 317.3 0 304s10.75-24 24-24h78.75l82.8-48H24C10.75 232 0 221.3 0 208s10.75-24 24-24h241.9C279.7 172.8 288 156.1 288 139.7C288 106.8 258.9 80 223.2 80H179.6c-27.12 0-53.63 10.3-72.69 28.25C97.28 117.4 82.11 116.9 73 107.2C63.91 97.59 64.36 82.39 74.02 73.31C102.3 46.67 139.8 32 179.6 32h43.56C285.4 32 336 80.3 336 139.7C336 155.2 332.3 170.2 325.7 184H360C373.3 184 384 194.8 384 208s-10.75 24-24 24h-78.75l-82.8 48H360C373.3 280 384 290.8 384 304z"/></svg>