<svg xmlns="http://www.w3.org/2000/svg" viewBox="0 0 448 512"><!--! Font Awesome Pro 6.0.0-alpha3 by @fontawesome - https://fontawesome.com License - https://fontawesome.com/license (Commercial License) --><path d="M447.1 208.1c0-38.79-28.08-72.42-67.05-78.82C366.7 55.63 301.9-.0004 224-.0004S81.31 55.63 67.05 129.2C28.08 135.6 .0003 169.3 .0003 208.1C.0003 264.4 48.94 288 79.93 288h1.001l92.79 192.1C182.9 499.6 202.5 511.1 224 511.1s40.77-12.25 50.27-31.87L367.1 288h1.001C398.6 288 447.1 264.5 447.1 208.1zM231 459.2C229.1 463.2 226.6 465.2 224 465.2s-5.127-1.969-7.003-5.906L134.2 288h179.6L231 459.2zM368.1 240H79.93c-17.63 0-32.02-14.38-32.02-32c0-15.62 11.38-28.88 26.89-31.38L107.8 171.2l6.378-32.75C124.5 85.88 170.5 48 224 48s99.67 37.88 109.8 90.5l6.503 32.75l33.02 5.375C388.7 179.1 400.1 192.4 400.1 208C400.1 225.6 385.7 240 368.1 240z"/></svg>