<svg xmlns="http://www.w3.org/2000/svg" viewBox="0 0 576 512"><!--! Font Awesome Pro 6.0.0-alpha3 by @fontawesome - https://fontawesome.com License - https://fontawesome.com/license (Commercial License) --><path d="M288 32C128.9 32 .0003 160.9 .0003 319.1L0 416c0 35.35 28.65 64 64 64h448c35.35 0 64-28.65 64-64l-.0003-96.01C575.1 160.9 447.1 32 288 32zM397.3 320C386.2 269.8 341.5 232 288 232S189.8 269.8 178.7 320H144V192h288v128H397.3zM352 144V88.93C389.3 99.29 422.9 118.4 450.6 144H352zM480 191.1L490.7 192C514.2 229.1 528 272.9 528 320L480 319.1V191.1zM304 80.81V144H125.4C168.2 104.4 225.2 80 288 80C293.4 80 298.7 80.46 304 80.81zM85.34 192L96 191.1v127.1L48 320C48 272.9 61.82 229.1 85.34 192zM64 432c-8.822 0-16-7.178-16-16v-48h128v64H64zM224 432v-88c0-35.28 28.72-64 64-64s64 28.72 64 64v88H224zM512 432h-112v-64h128V416C528 424.8 520.8 432 512 432z"/></svg>