<svg xmlns="http://www.w3.org/2000/svg" viewBox="0 0 448 512"><!--! Font Awesome Pro 6.0.0-alpha3 by @fontawesome - https://fontawesome.com License - https://fontawesome.com/license (Commercial License) --><path d="M9.219 350.5C11.38 351.5 13.69 352 16 352c3.688 0 7.312-1.25 10.25-3.719l96-80C125.9 265.3 128 260.7 128 255.1S125.9 246.8 122.3 243.7l-96-80c-4.781-4-11.41-4.781-17.03-2.219C3.594 164.2 0 169.8 0 176v160C0 342.2 3.594 347.8 9.219 350.5zM424 424H24C10.75 424 0 434.7 0 447.1C0 461.3 10.75 472 24 472h400c13.25 0 24-10.75 24-24C448 434.7 437.3 424 424 424zM24 88h400c13.25 0 24-10.75 24-24C448 50.74 437.3 40 424 40H24C10.75 40 0 50.74 0 63.1C0 77.25 10.75 88 24 88zM424 168h-208C202.7 168 192 178.7 192 191.1C192 205.3 202.7 216 216 216h208c13.25 0 24-10.75 24-24C448 178.7 437.3 168 424 168zM424 296h-208C202.7 296 192 306.7 192 319.1C192 333.3 202.7 344 216 344h208c13.25 0 24-10.75 24-24C448 306.7 437.3 296 424 296z"/></svg>