<svg xmlns="http://www.w3.org/2000/svg" viewBox="0 0 320 512"><!--! Font Awesome Pro 6.0.0-alpha3 by @fontawesome - https://fontawesome.com License - https://fontawesome.com/license (Commercial License) --><path d="M320 176c0 13.25-10.75 24-24 24h-50.43C234.1 267.1 175.2 320 104 320H98.89l163.1 116.5c10.78 7.703 13.28 22.69 5.578 33.48C262.8 476.5 255.5 480 247.1 480c-4.828 0-9.703-1.453-13.94-4.469l-224-160C1.563 309.5-2.031 298.6 1.141 288.7C4.328 278.7 13.56 272 24 272h80c44.6 0 81.86-30.71 92.59-72H24C10.75 200 0 189.3 0 176s10.75-24 24-24h172.6C185.9 110.7 148.6 80 104 80h-80C10.75 80 0 69.25 0 56S10.75 32 24 32h272C309.3 32 320 42.75 320 56S309.3 80 296 80h-85.45c17.91 19.87 30.37 44.51 35.03 72H296C309.3 152 320 162.8 320 176z"/></svg>