<svg xmlns="http://www.w3.org/2000/svg" viewBox="0 0 512 512"><!--! Font Awesome Pro 6.0.0-alpha3 by @fontawesome - https://fontawesome.com License - https://fontawesome.com/license (Commercial License) --><path d="M475.1 131.8L336 220.3V152c0-18.93-20.9-30.41-36.88-20.25L160 220.3V80C160 53.49 138.5 32 112 32h-64C21.49 32 0 53.49 0 80v352C0 458.5 21.49 480 48 480h416c26.51 0 48-21.49 48-48V152C512 133.1 491.1 121.6 475.1 131.8zM464 432h-416v-352h64v184c0 18.88 20.88 30.38 36.88 20.25L288 195.8V264c0 18.88 20.88 30.38 36.88 20.25L464 195.8V432z"/></svg>