<svg xmlns="http://www.w3.org/2000/svg" viewBox="0 0 512 512"><!--! Font Awesome Pro 6.0.0-alpha3 by @fontawesome - https://fontawesome.com License - https://fontawesome.com/license (Commercial License) --><path d="M475.1 131.8L336 220.3V152c0-18.93-20.9-30.41-36.88-20.25L160 220.3V80C160 53.49 138.5 32 112 32h-64C21.49 32 0 53.49 0 80v352C0 458.5 21.49 480 48 480h416c26.51 0 48-21.49 48-48V152C512 133.1 491.1 121.6 475.1 131.8zM464 432h-416v-352h64v184c0 18.88 20.88 30.38 36.88 20.25L288 195.8V264c0 18.88 20.88 30.38 36.88 20.25L464 195.8V432zM160 320H112C103.2 320 96 327.2 96 336V384c0 8.836 7.164 16 16 16H160c8.836 0 16-7.164 16-16v-48C176 327.2 168.8 320 160 320zM280 320h-48c-8.836 0-16 7.162-16 16V384c0 8.836 7.164 16 16 16h48c8.836 0 16-7.164 16-16v-48C296 327.2 288.8 320 280 320zM352 400h48c8.836 0 16-7.164 16-16v-48c0-8.838-7.164-16-16-16H352c-8.836 0-16 7.162-16 16V384C336 392.8 343.2 400 352 400z"/></svg>