<svg xmlns="http://www.w3.org/2000/svg" viewBox="0 0 640 512"><!--! Font Awesome Pro 6.0.0-alpha3 by @fontawesome - https://fontawesome.com License - https://fontawesome.com/license (Commercial License) --><path d="M213.5 172.2c-8.123-16.31-34.81-16.31-42.94 0l-71.1 144c-5.938 11.84-1.125 26.25 10.75 32.19c11.9 5.938 26.25 1.156 32.19-10.75l5.359-10.72h90.34l5.359 10.72c4.219 8.438 12.69 13.28 21.5 13.28c3.594 0 7.25-.8125 10.69-2.531c11.88-5.938 16.69-20.34 10.75-32.19L213.5 172.2zM170.8 278.1L192 236.6l21.17 42.34H170.8zM456 220C456 186.9 429.1 160 396 160H344C330.8 160 320 170.8 320 184v144c0 13.25 10.75 24 24 24h68c33.09 0 60-26.91 60-60c0-18.59-8.5-35.23-21.81-46.25C453.9 237.1 456 229.2 456 220zM368 208h28c6.625 0 12 5.391 12 12S402.6 232 396 232H368V208zM412 304H368V280h44c6.625 0 12 5.391 12 12C424 298.6 418.6 304 412 304zM576 64H63.1C28.65 64 0 92.65 0 128v256c0 35.35 28.65 64 63.1 64H576C611.3 448 640 419.3 640 384V128C640 92.65 611.3 64 576 64zM592 384c0 8.836-7.164 16-16 16H63.1c-8.836 0-16-7.164-16-16V128c0-8.838 7.164-16 16-16H576c8.836 0 16 7.162 16 16V384z"/></svg>