<svg xmlns="http://www.w3.org/2000/svg" viewBox="0 0 640 512"><!--! Font Awesome Pro 6.0.0-alpha3 by @fontawesome - https://fontawesome.com License - https://fontawesome.com/license (Commercial License) --><path d="M128 160C114.7 160 104 170.7 104 184v144C104 341.3 114.7 352 128 352s24-10.75 24-24v-144C152 170.7 141.3 160 128 160zM576 64H63.1C28.65 64 0 92.65 0 128v256c0 35.35 28.65 64 63.1 64H576C611.3 448 640 419.3 640 384V128C640 92.65 611.3 64 576 64zM592 384c0 8.836-7.164 16-16 16H63.1c-8.836 0-16-7.164-16-16V128c0-8.838 7.164-16 16-16H576c8.836 0 16 7.162 16 16V384z"/></svg>