<svg xmlns="http://www.w3.org/2000/svg" viewBox="0 0 640 512"><!--! Font Awesome Pro 6.0.0-alpha3 by @fontawesome - https://fontawesome.com License - https://fontawesome.com/license (Commercial License) --><path d="M608.5 210.9l-121.2-44.15C474.1 162.3 462.1 160 449.1 160h-68.48L298.2 48h30.35c13.23 0 23.96-10.75 23.96-24S341.8 0 328.6 0H216.8c-13.23 0-23.96 10.75-23.96 24V160h-2.205L165.1 129.3C155.1 118.3 142.5 112 128.3 112H79.85C53.39 112 31.94 133.5 31.94 160v34.73C13.33 201.3 0 219.1 0 240v32c0 20.9 13.33 38.68 31.94 45.27V352c0 26.51 21.45 48 47.91 48h48.41c14.22 0 27.71-6.328 36.81-17.28L190.6 352h2.205v136c0 13.25 10.73 24 23.96 24h111.8c13.23 0 23.96-10.75 23.96-24s-10.73-24-23.96-24H298.2l82.37-112h68.48c13.07 0 25.92-2.268 38.2-6.742l121.2-44.15C627.4 294.2 640 276.2 640 256S627.4 217.8 608.5 210.9zM240.7 50.73L321.1 160H240.7V50.73zM240.7 461.3V352h80.37L240.7 461.3zM470.9 300.1C463.9 302.7 456.5 304 449.1 304H175.7c-4.747 0-9.248 2.113-12.29 5.766L128.3 352H79.85V280h81.04c13.23 0 23.96-10.75 23.96-24s-10.73-24-23.96-24H79.85V160h48.41l35.14 42.25C166.4 205.9 170.9 208 175.7 208h273.4c7.447 0 14.83 1.305 21.83 3.854L592.1 256L470.9 300.1z"/></svg>