<svg xmlns="http://www.w3.org/2000/svg" viewBox="0 0 448 512"><!--! Font Awesome Pro 6.0.0-alpha3 by @fontawesome - https://fontawesome.com License - https://fontawesome.com/license (Commercial License) --><path d="M384 352h-136V221.3c66.45-14.56 107.1-85.86 79.03-153.1c-12.13-29.46-37.45-52.47-67.88-61.91c-71.38-22.14-139 26.33-146.5 94.43C106.5 156.7 144.1 209.1 200 221.3v130.7L128 352c0-17.67-14.33-31.97-32-31.97s-32 14.3-32 31.97c-35.2 0-64 28.82-64 64.01v31.99C0 483.2 28.8 512 64 512h320c35.2 0 64-28.79 64-63.98v-31.99C448 380.8 419.2 352 384 352zM160 112.1C160 76.73 188.6 48.11 224 48.11s64 28.62 64 63.98c0 35.37-28.62 63.98-64 63.98S160 147.5 160 112.1zM400 448c0 8.834-7.164 15.1-16 15.1H64c-8.836 0-16-7.162-16-15.1v-31.99c0-8.834 7.164-15.1 16-15.1h320c8.836 0 16 7.162 16 15.1V448z"/></svg>