<svg xmlns="http://www.w3.org/2000/svg" viewBox="0 0 576 512"><!--! Font Awesome Pro 6.0.0-alpha3 by @fontawesome - https://fontawesome.com License - https://fontawesome.com/license (Commercial License) --><path d="M554.1 83.5L318.4 4.875C308.5 1.625 298.3 0 288 0S267.5 1.625 257.6 4.875L21.88 83.5C8.875 87.87 0 100.1 0 113.9v310.8c0 15 10.38 28 25 31.25l242.1 53.88C273.1 511.2 281 511.1 288 511.1s13.1-.75 20.88-2.25l242.1-53.88C565.6 452.6 576 439.6 576 424.6V113.9C576 100.1 567.3 87.87 554.1 83.5zM528 251.6l-60.13-15.17c-8.641-2.156-17.27 3.062-19.39 11.66c-2.156 8.562 3.062 17.25 11.64 19.41L528 284.5v127.4l-229.6 51c-4.125 .875-11.62 2-20.75 0L48 411.9V284.5l67.88-16.97c8.578-2.156 13.8-10.84 11.64-19.41c-2.141-8.594-10.83-13.78-19.39-11.66L48 251.6V214.3l228.5-68.5c7.5-2.375 15.5-2.25 23 0L528 214.3V251.6zM528 164.1l-214.8-64.38c-16.5-5-34-5-50.5 0L48 164.1V125.4L272.9 50.5c5.625-2 17-4.5 30.25 0L528 125.4V164.1zM316.1 231.5l80 20C397.4 251.8 398.7 252 400 252c7.172 0 13.69-4.844 15.5-12.12c2.156-8.562-3.062-17.25-11.64-19.41l-80-20c-8.562-2.125-17.27 3.062-19.39 11.66C302.3 220.7 307.5 229.4 316.1 231.5zM252.1 200.5l-80 20C163.5 222.6 158.3 231.3 160.5 239.9C162.3 247.2 168.8 252 175.1 252c1.281 0 2.594-.1562 3.891-.4687l80-20c8.578-2.156 13.8-10.84 11.64-19.41C269.4 203.6 260.6 198.4 252.1 200.5z"/></svg>