<svg xmlns="http://www.w3.org/2000/svg" viewBox="0 0 512 512"><!--! Font Awesome Pro 6.0.0-alpha3 by @fontawesome - https://fontawesome.com License - https://fontawesome.com/license (Commercial License) --><path d="M416 0h-96c-53.02 0-96 42.98-96 96v96c0 17.77 5.16 34.21 13.58 48.48l-230.5 230.5c-9.375 9.375-9.375 24.56 0 33.94C11.72 509.7 17.84 512 24 512s12.28-2.344 16.97-7.031l42.75-42.75l38.06 38.06c7.781 7.812 18.03 11.69 28.28 11.69s20.5-3.875 28.28-11.69l49.44-49.44c15.59-15.59 15.59-40.97 0-56.56l-38.06-38.06l81.8-81.8C285.8 282.8 302.2 288 320 288h96c53.02 0 96-42.98 96-96V96C512 42.98 469 0 416 0zM150.1 460.7l-32.41-32.41l38.13-38.13l32.41 32.41L150.1 460.7zM464 192c0 26.47-21.53 48-48 48h-96c-26.47 0-48-21.53-48-48V96c0-26.47 21.53-48 48-48h96c26.47 0 48 21.53 48 48V192z"/></svg>