<svg xmlns="http://www.w3.org/2000/svg" viewBox="0 0 384 512"><!--! Font Awesome Pro 6.0.0-alpha3 by @fontawesome - https://fontawesome.com License - https://fontawesome.com/license (Commercial License) --><path d="M384 256c0 13.25-10.75 24-24 24H160.6l183.1 157.8c10.06 8.656 11.19 23.81 2.531 33.84C341.4 477.2 334.7 480 328 480c-5.562 0-11.12-1.906-15.66-5.812L112 301.5v154.5C112 469.3 101.3 480 88 480S64 469.3 64 456V280H24c-13.25 0-24-10.75-24-24C0 242.8 10.75 232 24 232H64V56.01c0-13.25 10.75-23.1 24-23.1S112 42.76 112 56.01v154.5l200.3-172.7c10-8.625 25.16-7.562 33.84 2.531c8.656 10.03 7.531 25.19-2.531 33.84L160.6 232H360C373.3 232 384 242.8 384 256z"/></svg>