<svg xmlns="http://www.w3.org/2000/svg" viewBox="0 0 640 512"><!--! Font Awesome Pro 6.0.0-alpha3 by @fontawesome - https://fontawesome.com License - https://fontawesome.com/license (Commercial License) --><path d="M608 0h-262.5c-14.88 0-27.72 10.28-31.22 24.79c0 0-79.14 344.6-79.27 346.4L146.7 459.4c-9.818 9.819-26.61 2.87-26.61-11.02L120.1 319.3l47.12 30.13c10.5 6.876 24.88-.5001 24.88-12.75V271.3c0-12.13-14.25-19.5-24.88-12.75L120 288.8V224c0-48.61-39.4-88.01-88-88.01L23.1 136C10.8 136 0 146.8 0 160s10.8 24 23.1 24L32 184c22.09 0 40 17.91 40 40v64.77L24.88 258.7C14.25 251.8 0 259.3 0 271.4v65.16c0 12.13 14.25 19.6 24.88 12.85L72 319.3v124c0 16.5 4.983 32.99 15.73 45.74c26.5 31.5 68.1 28.32 92.87 4.322l88.27-88.32c1.75-.125 346.3-79.3 346.3-79.3C629.7 322.4 640 309.4 640 294.5v-262.5C640 14.33 625.7 0 608 0zM592 281.8L288 352l187.1-187.1l-116.8-116.9H592l-116.9 116.9L592 281.8z"/></svg>