<svg xmlns="http://www.w3.org/2000/svg" viewBox="0 0 576 512"><!--! Font Awesome Pro 6.0.0-alpha3 by @fontawesome - https://fontawesome.com License - https://fontawesome.com/license (Commercial License) --><path d="M575.8 218c-3.25-60.63-57.58-105.1-118.2-105.1l-6.566-.0137c-52.76-.0002-105.4-14.1-148.3-44.7C271.5 45.11 233.3 31.1 191.1 31.1c-111.6 0-191.1 89.88-191.1 192c0 71 38.63 132.8 96 166.1L96 456C96 469.3 106.7 480 119.1 480S144 469.3 144 456l-.0017-46.16c15.38 4 31.36 6.167 47.98 6.167c5.375 0 10.64-.7494 16.02-1.124L208 456C208 469.3 218.7 480 232 480C245.3 480 256 469.3 256 456l-.0056-51.46c15.35-5.386 29.98-12.41 43.26-21.46c44.13-30.08 95.68-47.09 149.1-47.09l15.65 .0041c2.625 0 4.995-.6214 7.495-.7465l74.45 136.4C548.7 476.9 554.2 480 559.1 480c8.375 0 16.01-6.75 16.01-15.1C575.1 208 575.9 222.3 575.8 218zM464 288h-15.5C388 288 328 307.1 270.1 344.9C246.9 360 219.9 368 192 368c-77.75 0-144.2-62.88-144-144C48.12 140.2 114.6 80 192 80c29.25 0 57.25 8.75 81.25 25.25C325.2 141.1 385.8 160 448.2 160h9.375c37 0 68.5 27.12 70.25 60.5C529.9 257.8 500.3 288 464 288zM463.1 200c-13.25 0-23.1 10.75-23.1 23.1s10.75 23.1 23.1 23.1s23.1-10.75 23.1-23.1S477.2 200 463.1 200z"/></svg>