<svg xmlns="http://www.w3.org/2000/svg" viewBox="0 0 512 512"><!--! Font Awesome Pro 6.0.0-alpha3 by @fontawesome - https://fontawesome.com License - https://fontawesome.com/license (Commercial License) --><path d="M477.8 14.5C468.4 5.062 455.7 0 442.4 0c-13.32 .0313-25.92 5.219-34.96 14.25L14.61 390.1c-19.48 19.47-19.48 51.16 0 70.63l36.68 36.64C60.62 506.7 73.5 512 86.93 512c.3613 0 .7363 0 1.111-.0156c13.59-.375 26.61-6.406 34.82-15.55l163.1-162.5c135.3 4.344 186.1-66.73 206.4-110.1C526.5 149.8 512 48.7 477.8 14.5zM449.4 204.3c-26.5 59.02-83.83 86.45-170.6 81.34l-10.69-.625l-179 177.4l-3.346 .5781l-.4375 .5l-37.08-39.05L443.7 48.56C459.2 64.05 477.9 140.9 449.4 204.3z"/></svg>