<svg xmlns="http://www.w3.org/2000/svg" viewBox="0 0 512 512"><!--! Font Awesome Pro 6.0.0-alpha3 by @fontawesome - https://fontawesome.com License - https://fontawesome.com/license (Commercial License) --><path d="M488 464H24C10.8 464 0 474.8 0 488C0 501.2 10.8 512 24 512h464c13.2 0 24-10.8 24-24C512 474.8 501.2 464 488 464zM497.2 97.81l-232-96c-5.875-2.438-12.47-2.438-18.34 0l-232 96C5.844 101.5 0 110.3 0 120v64C0 197.3 10.75 208 24 208H64V352h48V208h64V352H224V208h64V352h48V208h64V352H448V208h40C501.3 208 512 197.3 512 184v-64C512 110.3 506.2 101.5 497.2 97.81zM464 160h-416V136L256 49.97l208 86.06V160zM456 432c13.2 0 24-10.8 24-24c0-13.2-10.8-24-24-24H56C42.8 384 32 394.8 32 408c0 13.2 10.8 24 24 24H456z"/></svg>