<svg xmlns="http://www.w3.org/2000/svg" viewBox="0 0 512 512"><!--! Font Awesome Pro 6.0.0-alpha3 by @fontawesome - https://fontawesome.com License - https://fontawesome.com/license (Commercial License) --><path d="M488 464H24C10.8 464 0 474.8 0 488C0 501.2 10.8 512 24 512h464c13.2 0 24-10.8 24-24C512 474.8 501.2 464 488 464zM56 256H64v96h48V256h64v96H224V256h64v96h48V256h64v96H448V256h8C469.2 256 480 245.2 480 232c0-13.2-10.8-24-24-24h-8.75c-7.5-90.38-78-163.1-167.3-174.3V24C280 10.8 269.2 0 256 0S232 10.8 232 24v9.75C142.8 44.88 72.25 117.6 64.75 208H56C42.8 208 32 218.8 32 232C32 245.2 42.8 256 56 256zM256 80c73.88 0 134.3 56.25 142.4 128H113.6C121.8 136.3 182.1 80 256 80zM56 432h400c13.2 0 24-10.8 24-24c0-13.2-10.8-24-24-24H56C42.8 384 32 394.8 32 408C32 421.2 42.8 432 56 432z"/></svg>