<svg xmlns="http://www.w3.org/2000/svg" viewBox="0 0 640 512"><!--! Font Awesome Pro 6.0.0-alpha3 by @fontawesome - https://fontawesome.com License - https://fontawesome.com/license (Commercial License) --><path d="M147.2 272h25.69L160 243.1L147.2 272zM576 63.1H64c-35.35 0-64 28.65-64 64v256c0 35.35 28.65 64 64 64h512c35.35 0 64-28.65 64-64v-256C640 92.65 611.3 63.1 576 63.1zM233.8 349.9C230.6 351.3 227.3 352 224 352c-9.188 0-17.97-5.312-21.94-14.25L193.1 319.6C193.3 319.7 192.7 320 192 320H128c-.707 0-1.305-.3418-1.996-.4023l-8.066 18.15c-5.406 12.14-19.69 17.55-31.69 12.19c-12.12-5.391-17.56-19.58-12.19-31.69l64-144c7.688-17.34 36.19-17.34 43.88 0l64 144C251.3 330.4 245.9 344.5 233.8 349.9zM592 384c0 8.822-7.178 16-16 16h-256v-288h256c8.822 0 16 7.178 16 16V384zM528 184H480C480 170.8 469.3 160 456 160S432 170.8 432 184H384c-13.25 0-24 10.75-24 24S370.8 232 384 232h91.51c-5.439 13.51-12.17 24.84-19.56 34.21c-1.973-2.496-3.971-4.912-5.854-7.682c-7.406-10.97-22.31-13.83-33.34-6.375c-10.94 7.453-13.81 22.38-6.344 33.34c3.195 4.705 6.562 8.906 9.938 13.03c-7.213 4.467-12.5 6.885-13.25 7.189c-12.25 4.891-18.28 18.78-13.44 31.08C397.4 346.2 406.4 352 416 352c2.938 0 5.906-.5313 8.781-1.672c1.283-.502 14.49-6.148 31.18-18.19c16.93 12.23 30.26 17.79 31.26 18.19C490.1 351.5 493.1 352 495.1 352c9.5 0 18.47-5.719 22.25-15.09c4.906-12.25-1.062-26.19-13.28-31.19c-.127-.0508-5.607-2.432-13.46-7.375C505.5 281.3 518.5 259.8 526.5 232H528c13.25 0 24-10.75 24-24S541.3 184 528 184z"/></svg>