<svg xmlns="http://www.w3.org/2000/svg" viewBox="0 0 384 512"><!--! Font Awesome Pro 6.0.0-alpha3 by @fontawesome - https://fontawesome.com License - https://fontawesome.com/license (Commercial License) --><path d="M384 456c0 13.25-10.75 24-24 24H24C10.75 480 0 469.3 0 456s10.75-24 24-24h41.42C25.41 396.8 0 345.4 0 288c0-80.41 49.73-149.3 120-177.9V56C120 42.75 130.8 32 144 32s24 10.75 24 24v41.67C175.9 96.68 183.9 96 192 96c8.162 0 16.07 1.117 24 2.121V56C216 42.75 226.8 32 240 32s24 10.75 24 24v54.53c58.73 23.9 103.1 75.74 116.5 140.9c2.516 13-6 25.59-19.02 28.09c-12.89 2.656-25.62-5.969-28.11-19.03C325.3 218.5 299.2 183.7 264 163.4V264C264 277.3 253.3 288 240 288s-24-10.75-24-24V146.1C208.2 144.8 200.2 144 192 144c-8.219 0-16.15 1.098-24 2.426V264C168 277.3 157.3 288 144 288S120 277.3 120 264V164C77.17 189 48 234.9 48 288c0 79.41 64.59 144 144 144h168C373.3 432 384 442.8 384 456z"/></svg>