<svg xmlns="http://www.w3.org/2000/svg" viewBox="0 0 576 512"><!--! Font Awesome Pro 6.0.0-alpha3 by @fontawesome - https://fontawesome.com License - https://fontawesome.com/license (Commercial License) --><path d="M248 120h304C565.3 120 576 109.3 576 96c0-13.26-10.75-24-24-24h-304C234.7 72 224 82.74 224 96C224 109.3 234.7 120 248 120zM552 392h-304C234.7 392 224 402.7 224 416c0 13.25 10.75 24 24 24h304c13.25 0 24-10.75 24-24C576 402.7 565.3 392 552 392zM552 232h-304C234.7 232 224 242.7 224 256c0 13.25 10.75 24 24 24h304C565.3 280 576 269.3 576 256C576 242.7 565.3 232 552 232zM151 144.1C155.7 149.7 161.8 152 168 152s12.28-2.344 16.97-7.031c9.375-9.375 9.375-24.56 0-33.94l-72-72c-9.375-9.375-24.56-9.375-33.94 0l-72 72c-9.375 9.375-9.375 24.56 0 33.94s24.56 9.375 33.94 0L72 113.9v284.1l-31.03-31.03c-9.375-9.375-24.56-9.375-33.94 0s-9.375 24.56 0 33.94l72 72C83.72 477.7 89.84 480 96 480s12.28-2.344 16.97-7.031l72-72c9.375-9.375 9.375-24.56 0-33.94s-24.56-9.375-33.94 0L120 398.1V113.9L151 144.1z"/></svg>