<svg xmlns="http://www.w3.org/2000/svg" viewBox="0 0 512 512"><!--! Font Awesome Pro 6.0.0-alpha3 by @fontawesome - https://fontawesome.com License - https://fontawesome.com/license (Commercial License) --><path d="M200 168H23.1C10.75 168 0 178.7 0 191.1S10.75 216 23.1 216H200C213.3 216 224 205.3 224 192S213.3 168 200 168zM200 296H23.1C10.75 296 0 306.7 0 320s10.75 24 23.1 24H200C213.3 344 224 333.3 224 320S213.3 296 200 296zM200 40H23.1C10.75 40 0 50.75 0 63.1S10.75 88 23.1 88H200C213.3 88 224 77.25 224 64S213.3 40 200 40zM200 424H23.1C10.75 424 0 434.7 0 448s10.75 24 23.1 24H200C213.3 472 224 461.3 224 448S213.3 424 200 424zM488 40h-176C298.7 40 288 50.75 288 63.1S298.7 88 311.1 88H488c13.25 0 24-10.75 24-23.1S501.3 40 488 40zM488 168h-176C298.7 168 288 178.7 288 191.1S298.7 216 311.1 216H488c13.25 0 24-10.75 24-23.1S501.3 168 488 168zM488 424h-176C298.7 424 288 434.7 288 448s10.75 24 23.1 24H488c13.25 0 24-10.75 24-24S501.3 424 488 424zM488 296h-176C298.7 296 288 306.7 288 320s10.75 24 23.1 24H488c13.25 0 24-10.75 24-24S501.3 296 488 296z"/></svg>