<svg xmlns="http://www.w3.org/2000/svg" viewBox="0 0 320 512"><!--! Font Awesome Pro 6.0.0-alpha3 by @fontawesome - https://fontawesome.com License - https://fontawesome.com/license (Commercial License) --><path d="M320 456c0 13.25-10.75 24-24 24h-272c-9.094 0-17.41-5.125-21.47-13.28c-4.062-8.125-3.188-17.84 2.281-25.12C26.22 413 40.05 379.2 45.38 344H24C10.75 344 0 333.3 0 320s10.75-24 24-24H48v-48H24C10.75 248 0 237.3 0 224s10.75-24 24-24H48V159.3C48 89.09 105.1 32 175.3 32c13.75 0 27.31 2.219 40.28 6.562l80.06 26.66c12.56 4.188 19.38 17.78 15.19 30.38c-4.219 12.56-17.72 19.22-30.38 15.19l-80.09-26.69C192.2 81.38 183.8 80 175.3 80C131.6 80 96 115.6 96 159.3V200h136C245.3 200 256 210.8 256 224s-10.75 24-24 24H96v48h136C245.3 296 256 306.8 256 320s-10.75 24-24 24H93.97c-3.791 30.62-12.9 60.52-26.88 88H296C309.3 432 320 442.8 320 456z"/></svg>