<svg xmlns="http://www.w3.org/2000/svg" viewBox="0 0 512 512"><!--! Font Awesome Pro 6.0.0-alpha3 by @fontawesome - https://fontawesome.com License - https://fontawesome.com/license (Commercial License) --><path d="M184 120h304C501.3 120 512 109.3 512 96s-10.75-24-24-24h-304C170.8 72 160 82.75 160 96S170.8 120 184 120zM488 392h-304C170.8 392 160 402.8 160 416s10.75 24 24 24h304c13.25 0 24-10.75 24-24S501.3 392 488 392zM488 232h-304C170.8 232 160 242.8 160 256s10.75 24 24 24h304C501.3 280 512 269.3 512 256S501.3 232 488 232zM99.78 42.93C89.57 36.03 77.25 32 64 32C28.65 32 0 60.66 0 96s28.65 64 64 64c13.25 0 25.57-4.029 35.78-10.93c6.811-4.6 12.69-10.48 17.29-17.29C123.1 121.6 128 109.3 128 96S123.1 70.43 117.1 60.22C112.5 53.41 106.6 47.53 99.78 42.93zM64 192C28.65 192 0 220.7 0 256s28.65 64 64 64c35.35 0 64-28.66 64-64S99.35 192 64 192zM64 280C50.77 280 40 269.2 40 256c0-13.23 10.77-24 24-24c13.23 0 24 10.77 24 24C88 269.2 77.23 280 64 280zM64 352c-35.35 0-64 28.66-64 64s28.65 64 64 64c35.35 0 64-28.66 64-64S99.35 352 64 352zM64 440c-13.23 0-24-10.77-24-24c0-13.23 10.77-24 24-24c13.23 0 24 10.77 24 24C88 429.2 77.23 440 64 440z"/></svg>