<svg xmlns="http://www.w3.org/2000/svg" viewBox="0 0 512 512"><!--! Font Awesome Pro 6.0.0-alpha3 by @fontawesome - https://fontawesome.com License - https://fontawesome.com/license (Commercial License) --><path d="M216 120h272C501.3 120 512 109.3 512 96c0-13.26-10.75-24-24-24h-272C202.7 72 192 82.74 192 96C192 109.3 202.7 120 216 120zM48.06 384C30.4 384 16 398.3 16 416c0 17.67 14.4 32 32.06 32S80 433.7 80 416C80 398.3 65.73 384 48.06 384zM488 232h-272C202.7 232 192 242.7 192 256c0 13.25 10.75 24 24 24h272C501.3 280 512 269.3 512 256C512 242.7 501.3 232 488 232zM488 392h-304C170.7 392 160 402.7 160 416c0 13.25 10.75 24 24 24h304c13.25 0 24-10.75 24-24C512 402.7 501.3 392 488 392zM118.2 39.94L63.09 101.1l-22.12-22.11c-9.375-9.375-24.56-9.375-33.94 0s-9.375 24.56 0 33.94l40 40C51.53 157.5 57.66 160 63.1 160c.2187 0 .4065 0 .6253-.0156c6.594-.1719 12.81-3.031 17.22-7.922l72-80c8.875-9.859 8.062-25.03-1.781-33.91C142.2 29.31 127.1 30.09 118.2 39.94zM118.2 199.9L63.09 261.1l-22.12-22.11c-9.375-9.375-24.56-9.375-33.94 0s-9.375 24.56 0 33.94l40 40C51.53 317.5 57.66 320 63.1 320c.2187 0 .4065 0 .6253-.0156c6.594-.1719 12.81-3.031 17.22-7.922l72-80c8.875-9.859 8.062-25.03-1.781-33.91C142.2 189.3 127.1 190.1 118.2 199.9z"/></svg>