<svg xmlns="http://www.w3.org/2000/svg" viewBox="0 0 512 512"><!--! Font Awesome Pro 6.0.0-alpha3 by @fontawesome - https://fontawesome.com License - https://fontawesome.com/license (Commercial License) --><path d="M48.06 224C30.4 224 16 238.3 16 256c0 17.67 14.4 32 32.06 32S80 273.7 80 256C80 238.3 65.73 224 48.06 224zM48.06 64C30.4 64 16 78.33 16 96c0 17.67 14.4 32 32.06 32S80 113.7 80 96C80 78.33 65.73 64 48.06 64zM48.06 384C30.4 384 16 398.3 16 416c0 17.67 14.4 32 32.06 32S80 433.7 80 416C80 398.3 65.73 384 48.06 384zM488 72H183.1C170.7 72 160 82.75 160 95.1S170.7 120 183.1 120H488c13.25 0 24-10.75 24-23.1S501.3 72 488 72zM488 392H183.1C170.7 392 160 402.7 160 416s10.75 24 23.1 24H488c13.25 0 24-10.75 24-24S501.3 392 488 392zM488 232H183.1C170.7 232 160 242.7 160 256s10.75 24 23.1 24H488C501.3 280 512 269.3 512 256S501.3 232 488 232z"/></svg>