<svg xmlns="http://www.w3.org/2000/svg" viewBox="0 0 512 512"><!--! Font Awesome Pro 6.0.0-alpha3 by @fontawesome - https://fontawesome.com License - https://fontawesome.com/license (Commercial License) --><path d="M216 120h272C501.3 120 512 109.3 512 96s-10.75-24-24-24h-272C202.7 72 192 82.75 192 96S202.7 120 216 120zM488 392h-272C202.7 392 192 402.7 192 416s10.75 24 24 24h272c13.25 0 24-10.75 24-24S501.3 392 488 392zM488 232h-272C202.7 232 192 242.7 192 256s10.75 24 24 24h272C501.3 280 512 269.3 512 256S501.3 232 488 232zM40 224h80C133.3 224 144 213.3 144 199.1s-10.75-24-24-24h-16V55.99c0-8.594-4.594-16.53-12.06-20.81C84.5 30.91 75.28 30.95 67.91 35.25l-32 18.67C24.47 60.61 20.59 75.3 27.28 86.75C33.13 96.85 45.31 101.1 56 97.29v78.71h-16c-13.25 0-24 10.75-24 24S26.75 224 40 224zM136.3 432h-49.44l36.4-32.48c29.92-25.83 33.54-71.36 8.049-101.5C118.6 282.1 100.7 273.8 80.89 272.2C61.27 270.7 41.93 276.9 26.92 289.9L14.42 300.7c-10.04 8.656-11.17 23.81-2.527 33.86c8.672 10.06 23.8 11.14 33.78 2.516l12.51-10.79c5.24-4.531 12.1-6.672 18.96-6.156c6.926 .5469 13.2 3.734 17.62 8.969c8.703 10.28 7.486 25.26-3.057 34.36l-83.7 74.67c-7.424 6.625-9.982 17.16-6.457 26.47C5.119 473.8 14.01 480 23.96 480h112.4c13.23 0 23.96-10.75 23.96-23.1C160.3 442.8 149.5 432 136.3 432z"/></svg>