<svg xmlns="http://www.w3.org/2000/svg" viewBox="0 0 512 512"><!--! Font Awesome Pro 6.0.0-alpha3 by @fontawesome - https://fontawesome.com License - https://fontawesome.com/license (Commercial License) --><path d="M184 120h304C501.3 120 512 109.3 512 96s-10.75-24-24-24h-304C170.8 72 160 82.75 160 96S170.8 120 184 120zM208 208h-64C135.1 208 128 215.1 128 224v8H72V144H80C88.86 144 96 136.9 96 128V64c0-8.859-7.141-16-16-16h-64C7.141 48 0 55.14 0 64v64c0 8.859 7.141 16 16 16h8V384c0 30.88 25.12 56 56 56H128V448c0 8.875 7.141 16 16 16h64C216.9 464 224 456.9 224 448v-64c0-8.875-7.141-16-16-16h-64C135.1 368 128 375.1 128 384v8H80c-4.406 0-8-3.594-8-8V280H128V288c0 8.875 7.141 16 16 16h64C216.9 304 224 296.9 224 288V224C224 215.1 216.9 208 208 208zM488 392h-176C298.8 392 288 402.8 288 416s10.75 24 24 24h176c13.25 0 24-10.75 24-24S501.3 392 488 392zM488 232h-176C298.8 232 288 242.8 288 256s10.75 24 24 24h176C501.3 280 512 269.3 512 256S501.3 232 488 232z"/></svg>