<svg xmlns="http://www.w3.org/2000/svg" viewBox="0 0 384 512"><!--! Font Awesome Pro 6.0.0-alpha3 by @fontawesome - https://fontawesome.com License - https://fontawesome.com/license (Commercial License) --><path d="M384 456c0 13.25-10.75 24-24 24H88.01c-13.26 0-24-10.75-24-24V270.2L30.19 279.2C28.12 279.7 26.04 280 23.99 280c-10.61 0-20.31-7.078-23.17-17.81c-3.422-12.81 4.203-25.97 17-29.38l46.19-12.32V56c0-13.25 10.75-24 24-24s24 10.75 24 24v151.7l145.8-38.88c12.84-3.406 25.97 4.188 29.38 17c3.422 12.81-4.203 25.97-17 29.38L112 257.4V432H360C373.3 432 384 442.7 384 456z"/></svg>