<svg xmlns="http://www.w3.org/2000/svg" viewBox="0 0 512 512"><!--! Font Awesome Pro 6.0.0-alpha3 by @fontawesome - https://fontawesome.com License - https://fontawesome.com/license (Commercial License) --><path d="M256 168C207.4 168 168 207.4 168 256s39.38 88 88 88S344 304.6 344 256S304.6 168 256 168zM256 296C233.1 296 216 278 216 256c0-21.1 17.1-40 40-40c21.1 0 40 18 40 40C296 278 277.1 296 256 296zM488 232h-41.63C435.5 145.2 366.8 76.5 280 65.62V23.1c0-13.25-10.75-24-23.1-24S232 10.75 232 23.1V65.62C145.2 76.5 76.5 145.2 65.62 232H23.1C10.75 232 0 242.7 0 255.1S10.75 280 23.1 280h41.63C76.5 366.8 145.2 435.5 232 446.4v41.63c0 13.25 10.75 23.1 23.1 23.1S280 501.3 280 488v-41.63C366.8 435.5 435.5 366.8 446.4 280H488c13.25 0 24-10.75 24-23.1S501.3 232 488 232zM256 400c-79.38 0-144-64.63-144-144S176.6 112 256 112s144 64.62 144 144S335.4 400 256 400z"/></svg>