<svg xmlns="http://www.w3.org/2000/svg" viewBox="0 0 640 512"><!--! Font Awesome Pro 6.0.0-alpha3 by @fontawesome - https://fontawesome.com License - https://fontawesome.com/license (Commercial License) --><path d="M320 445.8c-17.69-25.46-33.42-47.87-47.38-67.75C220 303.1 195.8 267.1 184.8 241.5L128.1 197.1c1.256 73.26 30.18 98.77 172.2 304.6c4.766 6.883 12.24 10.33 19.72 10.33s14.95-3.442 19.72-10.33c24.04-34.84 44.56-64.11 62.53-89.72l-37.83-29.65C351.2 401.2 336.5 422.1 320 445.8zM630.8 469.1l-173.8-136.2c43.85-65.18 54.94-92.34 54.94-140.9c0-106-85.97-191.1-191.1-191.1c-70.86 0-132.1 38.77-165.3 95.91L38.81 5.109C34.41 1.672 29.19 0 24.03 0C16.91 0 9.846 3.156 5.127 9.187c-8.188 10.44-6.375 25.53 4.062 33.7l591.1 463.1c10.5 8.203 25.56 6.328 33.69-4.078C643.1 492.4 641.2 477.3 630.8 469.1zM192.9 125.9C216.7 79.7 264.5 48 320 48c79.4 0 144 64.6 144 144c0 34.97-5.947 53.08-44.86 111.2L192.9 125.9z"/></svg>