<svg xmlns="http://www.w3.org/2000/svg" viewBox="0 0 640 512"><!--! Font Awesome Pro 6.0.0-alpha3 by @fontawesome - https://fontawesome.com License - https://fontawesome.com/license (Commercial License) --><path d="M630.8 469.1l-173.8-136.2c43.85-65.18 54.94-92.34 54.94-140.9c0-106-85.97-191.1-191.1-191.1c-70.86 0-132.1 38.77-165.3 95.91l-115.8-90.8C34.41 1.672 29.19 0 24.03 0C16.91 0 9.846 3.156 5.127 9.187C-3.061 19.62-1.248 34.72 9.189 42.89l591.1 463.1c10.5 8.203 25.56 6.328 33.69-4.078C643.1 492.4 641.2 477.3 630.8 469.1zM320 224C319.1 224 318.3 223.6 317.4 223.5L290 202C288.1 198.8 288 195.5 288 192c0-17.64 14.36-32 32-32s32 14.36 32 32S337.6 224 320 224zM363 259.2c22.16-14.22 36.97-38.93 36.97-67.23c0-44.18-35.82-79.1-79.1-79.1c-35.17 0-64.69 22.84-75.42 54.38L192.9 125.9C216.7 79.7 264.5 48 320 48c79.4 0 144 64.6 144 144c0 34.97-5.947 53.08-44.86 111.2L363 259.2zM320 445.8c-17.69-25.46-33.42-47.87-47.38-67.75C220 303.1 195.8 267.1 184.8 241.5L128.1 197.1c1.256 73.26 30.18 98.77 172.2 304.6C305 508.6 312.5 511.1 320 511.1s14.95-3.444 19.72-10.33c24.04-34.84 44.56-64.11 62.53-89.72l-37.83-29.64C351.2 401.2 336.5 422.1 320 445.8z"/></svg>