<svg xmlns="http://www.w3.org/2000/svg" viewBox="0 0 384 512"><!--! Font Awesome Pro 6.0.0-alpha3 by @fontawesome - https://fontawesome.com License - https://fontawesome.com/license (Commercial License) --><path d="M192 0C85.97 0 0 85.97 0 192c0 77.41 26.97 99.03 172.3 309.7C177 508.6 184.5 512 192 512s14.95-3.441 19.72-10.32C357 291 384 269.4 384 192C384 85.97 298 0 192 0zM192 445.8c-17.69-25.46-33.42-47.87-47.38-67.75C57.56 254.1 48 238.9 48 192c0-79.4 64.6-144 144-144s144 64.6 144 144c0 46.88-9.562 62.07-96.62 186.1C225.4 397.1 209.7 420.4 192 445.8zM264 168H215.1V119.1C215.1 106.7 205.3 96 192 96S168 106.7 168 119.1V168H119.1C106.7 168 96 178.7 96 192c0 13.26 10.73 23.1 23.1 23.1H168V264C168 277.3 178.7 288 192 288c13.26 0 23.1-10.74 23.1-23.1V215.1h48C277.3 215.1 288 205.3 288 192S277.3 168 264 168z"/></svg>