<svg xmlns="http://www.w3.org/2000/svg" viewBox="0 0 640 512"><!--! Font Awesome Pro 6.0.0-alpha3 by @fontawesome - https://fontawesome.com License - https://fontawesome.com/license (Commercial License) --><path d="M630.8 469.1l-146.6-114.9c13.38-22.28 22.81-47.21 26.19-74.18H552c13.25 0 23.99-10.75 23.99-23.1C575.1 242.7 565.3 232 552 232h-41.63C499.5 145.3 430.8 76.5 344 65.63V24c0-13.26-10.76-23.1-24.01-23.1S296 10.74 296 24v41.63c-43.05 5.396-81.25 25.39-110.4 54.53L38.81 5.116C34.41 1.679 29.19 0 24.03 0C16.91 0 9.84 3.158 5.121 9.189C-3.066 19.63-1.249 34.71 9.189 42.89l591.1 463.1c10.5 8.203 25.57 6.333 33.69-4.073C643.1 492.4 641.2 477.3 630.8 469.1zM359.9 256.7L310.4 217.9C313.5 217.1 316.6 216 320 216c22 0 40 18 40 40C360 256.3 359.9 256.5 359.9 256.7zM445.8 324.1l-44.74-35.07c4.217-10.22 6.99-21.22 6.99-32.99c0-48.63-39.37-87.1-87.1-87.1c-19.38 0-37.12 6.411-51.63 17.02L223.8 150.1C249.2 126.6 282.7 112 320 112c79.38 0 144 64.63 144 144C464 280.8 456.1 303.7 445.8 324.1zM320 400c-79.38 0-144-64.63-144-144c0-6.779 1.092-13.27 2.004-19.8L135.8 203.1C133.1 212.5 130.9 222.1 129.6 232H88c-13.25 0-24.01 10.74-24.01 24C63.99 269.3 74.75 280 88 280h41.63C140.5 366.8 209.3 435.5 296 446.4V488c0 13.25 10.74 23.1 23.99 23.1S344 501.3 344 488v-41.63c25.72-3.225 49.61-11.98 71.12-24.33l-41.62-32.61C356.9 396.1 338.9 400 320 400z"/></svg>