<svg xmlns="http://www.w3.org/2000/svg" viewBox="0 0 384 512"><!--! Font Awesome Pro 6.0.0-alpha3 by @fontawesome - https://fontawesome.com License - https://fontawesome.com/license (Commercial License) --><path d="M192 0c-106 0-192 85.96-192 191.1c0 77.41 26.97 99.04 172.3 309.7C177 508.6 184.5 512 192 512s14.95-3.441 19.72-10.32C357 291 384 269.4 384 191.1C384 85.96 298 0 192 0zM192 445.8c-17.69-25.46-33.42-47.87-47.38-67.75C57.56 254.1 48 238.9 48 192c0-79.4 64.6-144 144-144s144 64.6 144 144c0 46.88-9.562 62.07-96.62 186.1C225.4 397.1 209.7 420.4 192 445.8zM192 287.1c-17.62 0-32 14.37-32 31.1c0 17.62 14.38 32 32 32s32-14.38 32-32C224 302.4 209.6 287.1 192 287.1zM194.6 79.1c-41.75 0-76.88 29.25-85.75 68.49c-2.25 10 5.125 19.5 15.38 19.5h16.88c7.25 0 13.25-5 15.38-11.88c5-16.25 20.25-28.12 38.13-28.12c26 0 40 20.62 40 39.1c0 15.1-20 27.25-50.63 42.5C175.9 214.6 170.6 222.9 170.6 231.1V248.1c0 8.75 7.125 15.88 15.88 15.88h16.38c8.75 0 15.75-7.125 15.75-15.88V246.7c31.25-16.25 64-37.75 64-78.74C282.6 124.7 249.8 79.1 194.6 79.1z"/></svg>