<svg xmlns="http://www.w3.org/2000/svg" viewBox="0 0 384 512"><!--! Font Awesome Pro 6.0.0-alpha3 by @fontawesome - https://fontawesome.com License - https://fontawesome.com/license (Commercial License) --><path d="M192 0C86.38 0 0 86.37 0 191.1c0 76.75 25.62 99.23 172.8 310.4C177.6 508.7 184.8 512 192 512s14.38-3.273 19.25-9.648C358.4 291.2 384 268.7 384 191.1C384 86.37 297.6 0 192 0zM192 446.1c-14.38-20.62-27.5-39.13-39.38-56C58.38 256.5 48 240.2 48 192c0-79.38 64.62-144 144-144s144 64.62 144 144c0 48.25-10.38 64.5-104.6 198.1C219.5 407 206.4 425.5 192 446.1zM136 176C149.2 176 160 165.2 160 152S149.2 128 136 128C122.8 128 112 138.8 112 152S122.8 176 136 176zM248 176c13.25 0 24-10.75 24-24S261.2 128 248 128S224 138.8 224 152S234.8 176 248 176zM237.1 227.2c-23.25 26.38-68.75 26.38-92 0c-8.749-10-24-10.87-33.87-2.125C102.1 233.9 101.2 249 109.1 259C130.8 282.5 160.8 296 192 296c31.38 0 61.25-13.5 81.1-37c8.751-10 7.751-25.12-2.124-33.88C261.1 216.4 246.8 217.2 237.1 227.2z"/></svg>