<svg xmlns="http://www.w3.org/2000/svg" viewBox="0 0 384 512"><!--! Font Awesome Pro 6.0.0-alpha3 by @fontawesome - https://fontawesome.com License - https://fontawesome.com/license (Commercial License) --><path d="M192 0C85.97 0 0 85.97 0 192c0 77.41 26.97 99.03 172.3 309.7C177 508.6 184.5 512 192 512s14.95-3.441 19.72-10.32C357 291 384 269.4 384 192C384 85.97 298 0 192 0zM192 445.8c-17.69-25.46-33.42-47.87-47.38-67.75C57.56 254.1 48 238.9 48 192c0-79.4 64.6-144 144-144s144 64.6 144 144c0 46.88-9.562 62.07-96.62 186.1C225.4 397.1 209.7 420.4 192 445.8zM255.4 112.2C249.9 106.7 242.7 104 235.6 104s-14.33 2.734-19.8 8.203L131.7 196.4C127.1 200.2 125.4 204.9 124.2 210.1L112.1 263.8c-.8848 4.424 2.555 8.377 6.836 8.377c.459 0 .9258-.0449 1.398-.1406c0 0 37.02-7.854 53.7-11.78c5.049-1.188 9.566-3.729 13.23-7.395l84.51-84.68c10.93-10.93 10.89-28.62-.0391-39.56L255.4 112.2z"/></svg>