<svg xmlns="http://www.w3.org/2000/svg" viewBox="0 0 384 512"><!--! Font Awesome Pro 6.0.0-alpha3 by @fontawesome - https://fontawesome.com License - https://fontawesome.com/license (Commercial License) --><path d="M368 272v184c0 13.25-10.75 24-24 24S320 469.3 320 456V272c0-34.81-13.73-67.38-38.69-91.69C263 162.5 240.5 150.1 216 146.4V456c0 13.25-10.75 24-24 24s-24-10.75-24-24V146.6C108.3 157.8 64 209.2 64 272v184C64 469.3 53.25 480 40 480S16 469.3 16 456V272c0-89.46 65.49-161.8 152-173.5V56C168 42.75 178.8 32 192 32s24 10.75 24 24v42.15c37.17 5.02 71.43 21.12 98.8 47.77C349.1 179.3 368 224.1 368 272z"/></svg>