<svg xmlns="http://www.w3.org/2000/svg" viewBox="0 0 576 512"><!--! Font Awesome Pro 6.0.0-alpha3 by @fontawesome - https://fontawesome.com License - https://fontawesome.com/license (Commercial License) --><path d="M300.3 313.5C391.1 181.9 408 168.4 408 120C408 53.73 354.3 0 288 0C221.7 0 168 53.73 168 120c0 48.38 16.86 61.9 107.7 193.5C281.6 322.2 294.4 322.2 300.3 313.5zM248 112c0-22.09 17.91-40 40-40s40 17.91 40 40S310.1 152 288 152S248 134.1 248 112zM553.1 97.13l-115.1 42.57c-2.232 20.16-8.59 37.14-21.47 59.11L528 158v256.9l-128 44.63V226.2c-8.781 13.07-42.24 60.81-48 69.05v158.3l-128-45.25V295.3C218.2 287 184.8 239.3 176 226.2v176.5l-128 47.25V193.1l93.35-32.55C137.7 148 136 135.4 136 120c0-2.961 .707-5.727 .875-8.646L20.13 152C8 156.8 0 168.6 0 181.6v314.4c0 10.89 10.85 19.03 22 14.84L192 447.1l172 60.75c13 4.25 27 4.375 40 .125l151.9-52.88C568 451.2 576 439.4 576 426.4V112C576 101.1 565.2 92.94 553.1 97.13z"/></svg>