<svg xmlns="http://www.w3.org/2000/svg" viewBox="0 0 640 512"><!--! Font Awesome Pro 6.0.0-alpha3 by @fontawesome - https://fontawesome.com License - https://fontawesome.com/license (Commercial License) --><path d="M212.7 143.5L207.1 142.1c-20.32-5.973-19.83-8.732-19.18-12.56c1.178-6.695 14.22-8.33 25.94-6.535c4.795 .7227 10.06 2.41 15.08 4.152c8.906 3.08 18.71-1.662 21.82-10.58C254.7 107.7 250 97.88 241.1 94.78C234.9 92.65 229.8 91.28 225.1 90.26v-9.113C225.1 71.69 217.5 64 208 64S190.9 71.69 190.9 81.14v8.564C171.6 93.79 158.1 105.8 155 123.7c-6.348 36.72 28.45 46.93 43.3 51.29l4.982 1.447C228.4 183.7 227.1 186.1 227.2 190.4c-1.18 6.697-14.22 8.357-25.98 6.535c-5.947-.8828-13.55-3.615-20.28-6.025L177.1 189.5C168.2 186.5 158.4 191.1 155.3 200C152.1 208.9 156.8 218.7 165.7 221.9l3.656 1.287c6.648 2.391 14.04 4.791 21.48 6.438v9.232C190.9 248.3 198.5 256 208 256s17.14-7.688 17.14-17.14V230.1c19.17-4.109 32.75-15.88 35.85-33.8C267.4 159.2 231.8 148.1 212.7 143.5zM576 128H448v128c0 52.94-43.06 95.99-96 95.99l-96 .0013v31.98c0 35.25 28.75 63.1 63.1 63.1l125.8-.0073l82.75 62.12C534.9 514.8 544 510.2 544 502.2v-54.24h32c35.25 0 64-28.75 64-63.1V191.1C640 156.7 611.3 128 576 128zM416 256V63.1C416 28.75 387.3 0 352 0H64C28.75 0 0 28.75 0 63.1v192C0 291.3 28.75 320 64 320l32 .0106V372C96 379.1 101.8 384 108 384c2.375 0 4.875-.75 7.125-2.375L224 320l128-.075C387.3 319.9 416 291.3 416 256zM211.4 272L144 310.1V272H64C55.25 272 48 264.8 48 256V64c0-8.75 7.25-16 16-16h288c8.75 0 16 7.25 16 16v192c0 8.75-7.25 16-16 16H211.4z"/></svg>