<svg xmlns="http://www.w3.org/2000/svg" viewBox="0 0 640 512"><!--! Font Awesome Pro 6.0.0-alpha3 by @fontawesome - https://fontawesome.com License - https://fontawesome.com/license (Commercial License) --><path d="M221.8 76.52H191.1c-24.39 0-44.23 19.84-44.23 44.23c0 8.844 7.156 16 16 16s16-7.156 16-16c0-6.75 5.484-12.23 12.23-12.23h30.7c8.5 0 15.41 6.906 15.41 15.41c0 5.875-3.266 11.16-8.516 13.78L200.8 151.6C195.4 154.3 192 159.9 192 165.9v14.59c0 8.844 7.156 16 16 16s16-7.156 16-16v-4.613L242.1 166.3c16.17-8.062 26.22-24.31 26.22-42.41C269.2 97.79 247.9 76.52 221.8 76.52zM208 208.5c-11.04 0-20 8.953-20 20c0 11.04 8.955 20 20 20s20-8.955 20-20C228 217.5 219 208.5 208 208.5zM416 256V63.1C416 28.75 387.3 0 352 0H64C28.75 0 0 28.75 0 63.1v192C0 291.3 28.75 320 64 320l32 .0106V372C96 379.1 101.8 384 108 384c2.375 0 4.875-.75 7.125-2.375L224 320l128-.075C387.3 319.9 416 291.3 416 256zM211.4 272L144 310.1V272H64C55.25 272 48 264.8 48 256V64c0-8.75 7.25-16 16-16h288c8.75 0 16 7.25 16 16v192c0 8.75-7.25 16-16 16H211.4zM576 128H448v128c0 52.94-43.06 95.99-96 95.99l-96 .0013v31.98c0 35.25 28.75 63.1 63.1 63.1l125.8-.0073l82.75 62.12C534.9 514.8 544 510.2 544 502.2v-54.24h32c35.25 0 64-28.75 64-63.1V191.1C640 156.7 611.3 128 576 128z"/></svg>