<svg xmlns="http://www.w3.org/2000/svg" viewBox="0 0 576 512"><!--! Font Awesome Pro 6.0.0-alpha3 by @fontawesome - https://fontawesome.com License - https://fontawesome.com/license (Commercial License) --><path d="M384 128H128C110.3 128 96 142.3 96 160v160c0 17.67 14.33 32 32 32h256c17.67 0 32-14.33 32-32V160C416 142.3 401.7 128 384 128zM472 224C458.7 224 448 234.7 448 248c0 13.25 10.75 24 24 24s24-10.75 24-24C496 234.7 485.3 224 472 224zM512 32H64C28.65 32 0 60.65 0 96v288c0 35.35 28.65 64 64 64v8C64 469.3 74.75 480 88 480s24-10.75 24-24V448h352v8c0 13.25 10.75 24 24 24S512 469.3 512 456V448c35.35 0 64-28.65 64-64V96C576 60.65 547.3 32 512 32zM528 384c0 8.822-7.178 16-16 16H64c-8.822 0-16-7.178-16-16V96c0-8.822 7.178-16 16-16h448c8.822 0 16 7.178 16 16V384zM472 144C458.7 144 448 154.7 448 168C448 181.3 458.7 192 472 192s24-10.75 24-24C496 154.7 485.3 144 472 144z"/></svg>