<svg xmlns="http://www.w3.org/2000/svg" viewBox="0 0 384 512"><!--! Font Awesome Pro 6.0.0-alpha3 by @fontawesome - https://fontawesome.com License - https://fontawesome.com/license (Commercial License) --><path d="M384 203.1v220c0 13.25-10.74 24.14-23.99 24.14S336 437.2 336 423.1V203.1c0-33.1-26.91-60-60-60c-6.248 0-12.16 1.227-17.82 3.006L216 258.9v165.1c0 13.25-10.75 24.06-24 24.06s-24-10.81-24-24.06v-37.73l-41.53 110.2C122.8 506.1 113.7 512 104 512c-2.812 0-5.688-.5-8.469-1.531c-12.41-4.688-18.66-18.53-14-30.94L168 250.1V203.1c0-33.1-26.91-60-60-60S48 170.9 48 203.1v220c0 13.25-10.76 24.14-24.01 24.14S0 437.2 0 423.1V119.1c0-13.25 10.75-24 24-24c11.48 0 20.63 8.237 22.99 19.01C64.37 103 85.36 95.98 108 95.98c34.11 0 64.2 16.19 84 40.95c7.861-9.827 17.23-18.26 28.01-24.85l36.39-96.57c4.688-12.44 18.62-18.56 30.94-14c12.41 4.688 18.66 18.53 14 30.94l-23.1 63.67C336.3 96.86 384 144.9 384 203.1z"/></svg>