<svg xmlns="http://www.w3.org/2000/svg" viewBox="0 0 640 512"><!--! Font Awesome Pro 6.0.0-alpha3 by @fontawesome - https://fontawesome.com License - https://fontawesome.com/license (Commercial License) --><path d="M581.1 140l-35.96 36.21C553.4 176.9 560 183.6 560 192v256c0 8.822-7.178 16-16 16H96c-8.822 0-16-7.178-16-16V192c0-8.822 7.178-16 16-16h227.5c2.422-6.1 6.013-11.74 10.72-16.42L366.1 128H96C60.65 128 32 156.7 32 192v256c0 35.35 28.65 64 64 64h448c35.35 0 64-28.65 64-64V192C608 170.5 597.3 151.6 581.1 140zM352 193.7V256h62.34c4.264 0 8.35-1.703 11.35-4.727l124.9-126l-67.88-67.88l-126 124.9C353.7 185.3 352 189.4 352 193.7zM600.5 75.38c10-10 10-26.12 0-36L568.6 7.5C563.7 2.5 557.2 0 550.7 0s-13.05 2.5-18.05 7.5l-27.25 27.25l67.88 67.88L600.5 75.38zM152 400h336c13.25 0 24-10.75 24-24S501.3 352 488 352H152C138.8 352 128 362.8 128 376S138.8 400 152 400zM152 288h144C309.3 288 320 277.3 320 264S309.3 240 296 240h-144C138.8 240 128 250.8 128 264S138.8 288 152 288z"/></svg>