<svg xmlns="http://www.w3.org/2000/svg" viewBox="0 0 576 512"><!--! Font Awesome Pro 6.0.0-alpha3 by @fontawesome - https://fontawesome.com License - https://fontawesome.com/license (Commercial License) --><path d="M336 300.4v23.11C336 330.4 330.4 336 323.6 336H252.4C245.6 336 240 330.4 240 323.6V300.4C240 293.6 245.6 288 252.4 288H264V224H252.4c-4.273 0-8.359-2.332-10.5-5.832C239.6 214.5 239.4 209.8 241.3 205.9l12.44-23.11C255.9 178.7 259.3 176 264 176h35.55C306.4 176 312 181.6 312 188.4V288h11.55C330.4 288 336 293.6 336 300.4zM576 102.3v283.3c0 28.92-22.7 52.45-50.61 52.45c-5.656 0-11.22-.9531-16.52-2.812c-21.42-7.312-43.88-10.91-68.45-10.91c-47.56 0-95.42 13.11-146.1 26.98C242.8 465.4 189.6 480 135.6 480c-38.31 0-72.97-7.281-105.9-22.23C11.66 449.6 0 430.7 0 409.7V126.3c0-28.86 22.7-52.34 50.61-52.34c5.656 0 11.22 .9531 16.52 2.812C88.55 84.09 111 87.69 135.6 87.69c47.56 0 95.42-13.11 146.1-26.98C333.2 46.59 386.4 32 440.4 32c38.31 0 72.97 7.281 105.9 22.23C564.4 62.41 576 81.28 576 102.3zM528 151.2C496.5 147.2 472 120.6 472 88c0-1.893 .3848-3.664 .6348-5.479C462.2 81.02 451.6 80 440.4 80c-47.56 0-95.42 13.11-146.1 26.98c-51.5 14.11-104.8 28.7-158.8 28.7c-9.277 0-17.97-1.223-26.83-2.082C100.6 159.5 76.62 178.4 48 178.4v182.4C79.53 364.8 104 391.4 104 424c0 1.891-.3848 3.664-.6348 5.479C113.8 430.1 124.4 432 135.6 432c47.56 0 95.42-13.11 146.1-26.98c51.5-14.11 104.8-28.7 158.8-28.7c11.71 0 22.79 1.256 33.86 2.627c8.043-22.98 28.67-39.84 53.72-42.38V151.2z"/></svg>