<svg xmlns="http://www.w3.org/2000/svg" viewBox="0 0 576 512"><!--! Font Awesome Pro 6.0.0-alpha3 by @fontawesome - https://fontawesome.com License - https://fontawesome.com/license (Commercial License) --><path d="M149.5 236.8L144 235.2C120.5 228.3 121 225.1 121.8 220.7c1.359-7.75 16.42-9.703 29.95-7.562c5.578 .875 11.72 2.797 17.56 4.812C179.7 221.6 191.1 216 194.7 205.6C198.4 195.2 192.8 183.8 182.4 180.2C175.3 177.7 169.5 176.2 164 174.9V164c0-11.05-8.988-20-20.03-20S124 152.1 124 164v10.31c-22.37 4.76-38.06 18.68-41.67 39.58c-7.391 42.67 33.06 54.58 50.34 59.66l5.75 1.656c29.09 8.328 28.61 11.08 27.75 16.08C164.9 299 149.8 300.1 136.1 298.8C129.2 297.8 120.3 294.6 112.5 291.8L108.2 290.2C97.89 286.6 86.41 291.1 82.7 302.4s1.734 21.84 12.16 25.53l4.031 1.453c7.787 2.816 16.45 5.635 25.16 7.568V348c0 11.05 8.918 20 19.97 20s20.03-8.953 20.03-20v-10.56c22.24-4.807 37.97-18.51 41.58-39.33C213.1 254.9 171.7 243.1 149.5 236.8zM512 64H64C28.65 64 0 92.65 0 128v256c0 35.35 28.65 64 64 64h448c35.35 0 64-28.65 64-64V128C576 92.65 547.3 64 512 64zM528 384c0 8.822-7.178 16-16 16H64c-8.822 0-16-7.178-16-16V128c0-8.822 7.178-16 16-16h448c8.822 0 16 7.178 16 16V384zM456 184h-176C266.8 184 256 194.8 256 208s10.75 24 24 24h176C469.3 232 480 221.3 480 208S469.3 184 456 184zM328 280h-48C266.8 280 256 290.7 256 303.1S266.8 328 280 328h48c13.25 0 24-10.75 24-24S341.3 280 328 280zM456 280h-48C394.8 280 384 290.8 384 304s10.75 24 24 24h48c13.25 0 24-10.75 24-24S469.3 280 456 280z"/></svg>