<svg xmlns="http://www.w3.org/2000/svg" viewBox="0 0 640 512"><!--! Font Awesome Pro 6.0.0-alpha3 by @fontawesome - https://fontawesome.com License - https://fontawesome.com/license (Commercial License) --><path d="M280 400h208c13.25 0 24-10.75 24-24S501.3 352 488 352h-208C266.8 352 256 362.8 256 376S266.8 400 280 400zM352 193.7V256h62.34c4.264 0 8.35-1.703 11.35-4.727l124.9-126l-67.88-67.88l-126 124.9C353.7 185.3 352 189.4 352 193.7zM600.5 75.38c10-10 10-26.12 0-36L568.6 7.5C563.7 2.5 557.2 0 550.7 0s-13.05 2.5-18.05 7.5l-27.25 27.25l67.88 67.88L600.5 75.38zM280 288h16C309.3 288 320 277.3 320 264S309.3 240 296 240h-16C266.8 240 256 250.8 256 264S266.8 288 280 288zM176 432c11.05 0 20.03-8.953 20.03-20v-10.56c22.24-4.807 37.97-18.51 41.58-39.33c7.484-43.17-33.92-55-56.16-61.36L176 299.2C152.5 292.3 153 289.1 153.8 284.7c1.359-7.75 16.45-9.672 29.95-7.562c5.578 .875 11.72 2.797 17.56 4.812c10.45 3.625 21.83-1.906 25.44-12.34C230.4 259.2 224.8 247.8 214.4 244.2C207.3 241.7 201.5 240.2 196 238.9V228c0-11.05-8.988-20-20.03-20S156 216.1 156 228v10.35C133.7 243.1 117.1 257 114.4 277.9c-7.391 42.67 33.06 54.58 50.34 59.66l5.75 1.656c29.09 8.328 28.61 11.08 27.75 16.08c-1.359 7.766-16.47 9.703-30.08 7.547c-6.938-1.031-15.83-4.25-23.67-7.078l-4.234-1.516c-10.33-3.656-21.84 1.734-25.53 12.16c-3.703 10.41 1.734 21.84 12.16 25.53l4.031 1.453c7.787 2.816 16.45 5.635 25.16 7.568V412C156 423 164.1 432 176 432zM581.1 140l-35.96 36.21C553.4 176.9 560 183.6 560 192v256c0 8.822-7.178 16-16 16H96c-8.822 0-16-7.178-16-16V192c0-8.822 7.178-16 16-16h227.5c2.422-6.1 6.013-11.74 10.72-16.42L366.1 128L96 127.1c-35.35 0-64 28.65-64 64V448c0 35.35 28.65 64 64 64h448c35.35 0 64-28.65 64-64V192C608 170.5 597.3 151.6 581.1 140z"/></svg>