<svg xmlns="http://www.w3.org/2000/svg" viewBox="0 0 576 512"><!--! Font Awesome Pro 6.0.0-alpha3 by @fontawesome - https://fontawesome.com License - https://fontawesome.com/license (Commercial License) --><path d="M546.3 54.23C513.4 39.28 478.7 32 440.4 32c-54.02 0-107.3 14.59-158.8 28.7C231 74.58 183.1 87.69 135.6 87.69c-24.58 0-47.03-3.594-68.45-10.91C61.83 74.92 56.27 73.97 50.61 73.97C22.7 73.97 0 97.45 0 126.3v283.4c0 21.05 11.66 39.92 29.66 48.08C62.61 472.7 97.27 480 135.6 480c54.02 0 107.3-14.59 158.8-28.7c50.66-13.88 98.52-26.98 146.1-26.98c24.58 0 47.03 3.594 68.45 10.91c5.297 1.859 10.86 2.812 16.52 2.812C553.3 438 576 414.5 576 385.6V102.3C576 81.28 564.4 62.41 546.3 54.23zM528 385.6c.0156 3.031-1.672 4.438-3.406 4.297c-26.7-9.125-54.23-13.56-84.17-13.56c-54.02 0-107.3 14.59-158.8 28.7C231 418.9 183.1 432 135.6 432c-31.33 0-59.48-5.875-86.03-17.92C49.16 413.8 48 412.2 48 409.7V126.3c0-2.812 1.531-4.188 3.266-4.188c.0938 0-.0938 0 0 0c26.7 9.125 54.38 13.56 84.31 13.56c54.02 0 107.3-14.59 158.8-28.7C345 93.11 392.9 80 440.4 80c31.31 0 59.45 5.859 86.05 17.94C526.9 98.23 528 99.83 528 102.3V385.6zM367.1 256c0 53.02-35.82 96-79.1 96S208 309 208 256c0-53.02 35.82-96 79.1-96S367.1 202.1 367.1 256z"/></svg>