<svg xmlns="http://www.w3.org/2000/svg" viewBox="0 0 640 512"><!--! Font Awesome Pro 6.0.0-alpha3 by @fontawesome - https://fontawesome.com License - https://fontawesome.com/license (Commercial License) --><path d="M416 288c0-44.18-42.98-80-96-80C266.1 208 224 243.8 224 288s42.98 80 96 80C373 368 416 332.2 416 288zM464 448c0 8.822-7.178 16-16 16H192c-8.822 0-16-7.178-16-16V96H128v352c0 35.35 28.65 64 64 64h256c35.35 0 64-28.65 64-64V96h-48V448zM544 0H96C42.98 0 0 42.98 0 96v72C0 181.3 10.75 192 24 192C37.26 192 48 181.3 48 168V96c0-26.4 21.6-48 48-48h448c26.4 0 48 21.6 48 48v72C592 181.3 602.7 192 616 192C629.3 192 640 181.3 640 168V96C640 42.98 597 0 544 0z"/></svg>