<svg xmlns="http://www.w3.org/2000/svg" viewBox="0 0 640 512"><!--! Font Awesome Pro 6.0.0-alpha3 by @fontawesome - https://fontawesome.com License - https://fontawesome.com/license (Commercial License) --><path d="M367.1 112c-44.19 0-80 42.98-80 96s35.81 96 80 96c44.18 0 80-42.98 80-96S412.2 112 367.1 112zM640 96v224c0 35.35-28.65 64-64 64H160c-35.35 0-64-28.65-64-64V96c0-35.35 28.65-64 64-64H576C611.3 32 640 60.65 640 96zM592 272.8V143.2C589.4 143.6 586.7 144 584 144c-30.93 0-56-25.07-56-56c0-2.762 .5469-5.359 .9551-8H207C207.5 82.64 208 85.24 208 88c0 30.93-25.07 56-56 56c-2.742 0-5.363-.4414-7.998-.8242v129.6C146.6 272.4 149.3 272 152 272c30.93 0 56 25.07 56 56c0 2.762-.5449 5.359-.9531 8h321.9C528.5 333.4 528 330.8 528 328c0-30.93 25.07-56 56-56C586.7 272 589.4 272.4 592 272.8zM512 480H120C53.83 480 0 426.2 0 360v-240C0 106.8 10.75 96 24 96S48 106.8 48 120v240c0 39.7 32.3 72 72 72H512c13.25 0 24 10.75 24 24S525.3 480 512 480z"/></svg>