<svg xmlns="http://www.w3.org/2000/svg" viewBox="0 0 640 512"><!--! Font Awesome Pro 6.0.0-alpha3 by @fontawesome - https://fontawesome.com License - https://fontawesome.com/license (Commercial License) --><path d="M464 400c-35.38 0-64 28.62-64 64h-160c0-35.38-28.62-64-64-64V96H128v352c0 35.35 28.65 64 64 64h256c35.35 0 64-28.65 64-64V96h-48V400zM544 0H96C42.98 0 0 42.98 0 96v72C0 181.3 10.75 192 24 192C37.26 192 48 181.3 48 168V96c0-26.4 21.6-48 48-48h448c26.4 0 48 21.6 48 48v72C592 181.3 602.7 192 616 192C629.3 192 640 181.3 640 168V96C640 42.98 597 0 544 0zM320 368c53.02 0 96-35.82 96-80s-42.98-80-96-80C266.1 208 224 243.8 224 288S266.1 368 320 368z"/></svg>