<svg xmlns="http://www.w3.org/2000/svg" viewBox="0 0 576 512"><!--! Font Awesome Pro 6.0.0-alpha3 by @fontawesome - https://fontawesome.com License - https://fontawesome.com/license (Commercial License) --><path d="M512 64H64C28.65 64 0 92.65 0 128v256c0 35.35 28.65 64 64 64h448c35.35 0 64-28.65 64-64V128C576 92.65 547.3 64 512 64zM528 384c0 8.822-7.178 16-16 16H64c-8.822 0-16-7.178-16-16V128c0-8.822 7.178-16 16-16h448c8.822 0 16 7.178 16 16V384zM264 208h-144C106.8 208 96 218.8 96 232S106.8 256 120 256h144C277.3 256 288 245.3 288 232S277.3 208 264 208zM232 304h-112C106.8 304 96 314.8 96 328S106.8 352 120 352h112C245.3 352 256 341.3 256 328S245.3 304 232 304zM456 304h-48C394.8 304 384 314.8 384 328S394.8 352 408 352h48c13.25 0 24-10.75 24-24S469.3 304 456 304zM448 160h-64c-17.67 0-32 14.33-32 32v32c0 17.67 14.33 32 32 32h64c17.67 0 32-14.33 32-32V192C480 174.3 465.7 160 448 160z"/></svg>