<svg xmlns="http://www.w3.org/2000/svg" viewBox="0 0 640 512"><!--! Font Awesome Pro 6.0.0-alpha3 by @fontawesome - https://fontawesome.com License - https://fontawesome.com/license (Commercial License) --><path d="M640 120c0-39.75-32.25-72-72-72h-12.25C535.5 19 501.1 0 464 0c-38 0-71.5 19-91.75 48H360C320.2 48 288 80.25 288 120c0 38.75 30.75 70.12 69.13 71.75c.75 2.625 1.5 5.25 2.375 7.75C263.2 224.6 192 311.9 192 416v48H184c-22 0-40-17.1-40-40v-256C144 128.2 111.8 96 72 96S0 128.2 0 168v64C0 245.2 10.75 256 24 256S48 245.2 48 232v-64c0-13.25 10.75-24 24-24S96 154.8 96 168v256C96 472.5 135.5 512 184 512h248c8.875 0 16-7.125 16-16c0-17.62-14.38-32-32-32h-32l83.38-62.5L480 451.4V480c0 17.62 14.38 32 32 32h64c17.62 0 32-14.38 32-32v-16.25c0-10.5-1.25-20.88-3.875-31L552.9 227.5c8.125-10.62 14.12-22.75 18-35.75C609.3 190.1 640 158.8 640 120zM592 120c0 10.38-6.75 19-16 22.38V112c0-5-.875-9.875-1.5-14.62C584.5 100.2 592 109.1 592 120zM352 112v30.38C342.8 139 336 130.4 336 120c0-10.88 7.5-19.75 17.5-22.62C352.9 102.1 352 107 352 112zM400 112c0-35.25 28.75-64 64-64s64 28.75 64 64V160c0 35.25-28.75 64-64 64s-64-28.75-64-64V112zM557.6 444.4C559.3 450.8 560 457.2 560 463.8L528 464v-18.62l-31.75-125.6L304 464h-64V416c0-87.75 64.63-160.4 148.8-173.6C408.6 260.6 434.9 272 464 272c17.12 0 33.25-4.125 47.75-11L557.6 444.4zM496 136c8.875 0 16-7.125 16-16s-7.125-16-16-16S480 111.1 480 120S487.1 136 496 136zM432 136c8.875 0 16-7.125 16-16s-7.125-16-16-16S416 111.1 416 120S423.1 136 432 136z"/></svg>