<svg xmlns="http://www.w3.org/2000/svg" viewBox="0 0 384 512"><!--! Font Awesome Pro 6.0.0-alpha3 by @fontawesome - https://fontawesome.com License - https://fontawesome.com/license (Commercial License) --><path d="M360 464h-26L289.1 100.7c-.75-7.375-4-14.25-9.25-19.5l-76.63-76.56C200.4 1.532 196.3 0 192 0C187.9 0 183.7 1.407 180.7 4.657L104.1 81.21c-5.25 5.25-8.5 12.13-9.25 19.5L49.1 464H23.1C10.75 464 0 474.7 0 487.1S10.75 512 23.1 512h336c13.25 0 24-10.75 24-24S373.3 464 360 464zM98.38 464L141.9 111.4L192 61.25l50.13 50.13L285.6 464H98.38zM216 272H167.1C154.8 272 144 282.7 144 295.9C144 309.1 154.8 320 167.1 320h48C229.2 320 240 309.1 240 295.9C240 282.7 229.2 272 216 272z"/></svg>