<svg xmlns="http://www.w3.org/2000/svg" viewBox="0 0 640 512"><!--! Font Awesome Pro 6.0.0-alpha3 by @fontawesome - https://fontawesome.com License - https://fontawesome.com/license (Commercial License) --><path d="M622.3 275.8C633.4 260.8 640 243.1 640 224c0-52.88-48.25-88.75-101.5-117.8c-63.82-34.95-100.3-77.83-121.6-99.25c-9.295-9.336-24.48-9.334-33.78 .0059c-21.31 21.42-57.82 64.3-121.6 99.24C242.3 116.6 223.9 128.1 208 140.8V120c0-64.5-67.61-105.2-93.8-117.7c-6.443-3.074-13.95-3.074-20.39 0C67.61 14.8 0 55.5 0 120v368C0 501.3 10.75 512 24 512s24-10.75 24-24V192H160v296C160 501.3 170.7 512 184 512s24-10.75 24-24V320h384v168c0 13.25 10.75 24 24 24S640 501.3 640 488V304C640 291.5 632.6 281 622.3 275.8zM160 144H48V120c0-29.25 32.5-53.75 56-66.88C126.8 65.88 160 90.38 160 120V144zM529.3 272h-258.5C236.8 272 208 250 208 224c0-23.12 24.25-47.13 76.5-75.75C329.9 123.5 368 97 400 68c32 29 70.13 55.5 115.5 80.25C567.8 176.9 592 200.9 592 224C592 250 563.3 272 529.3 272zM284.8 384.2C268.2 385.8 256 400.8 256 417.5V488C256 501.3 266.7 512 280 512h16C309.3 512 320 501.3 320 488V416C320 397.3 303.8 382.3 284.8 384.2zM400 352c0 0-48 24-48 72v64c0 13.25 10.75 24 24 24h48c13.25 0 24-10.75 24-24v-64C448 376 400 352 400 352zM508.8 384.2C492.2 385.8 480 400.8 480 417.5V488c0 13.25 10.75 24 24 24h16c13.25 0 24-10.75 24-24V416C544 397.3 527.8 382.3 508.8 384.2z"/></svg>