<svg xmlns="http://www.w3.org/2000/svg" viewBox="0 0 640 512"><!--! Font Awesome Pro 6.0.0-alpha3 by @fontawesome - https://fontawesome.com License - https://fontawesome.com/license (Commercial License) --><path d="M512 224c-13.46 0-26.19 2.648-38.38 6.503L418.2 128H480c17.67 0 32-14.33 32-32V64c0-17.67-14.33-32-32-32h-20.41c-7.486 0-14.74 2.625-20.49 7.416l-47.42 39.51l-18.56-34.34C368.9 36.83 360.8 32 352 32H280C266.7 32 256 42.74 256 56C256 69.25 266.7 80 280 80h57.69L354.1 110.3L256 192H233.9L211.7 169.8C195.2 153.3 172.8 144 149.5 144H56C42.75 144 32 154.7 32 168C32 181.3 42.75 192 56 192H128c88.37 0 160 71.63 160 160c0 10.96-1.125 21.66-3.225 32h70.45C353.1 373.7 352 362.1 352 352c0-52.16 25.34-97.93 64.06-127l15.31 28.33C402.7 276.8 384 312 384 352c0 70.69 57.31 128 128 128c70.69 0 128-57.31 128-128C640 281.3 582.7 224 512 224zM387.2 186.6c-30.27 22.73-53.15 52.2-67.19 85.49c-7.182-17.2-16.61-33.24-27.91-47.74l85.21-71.01l15.64 28.93L387.2 186.6zM512 432c-44.11 0-80-35.89-80-80c0-21.61 8.693-41.17 22.67-55.58l24.8 45.88c4.342 8.031 12.6 12.59 21.13 12.59c3.852 0 7.756-.9277 11.38-2.887c11.67-6.299 16.03-20.87 9.723-32.54l-24.83-45.94C501.8 272.6 506.8 272 512 272c44.11 0 80 35.89 80 80S556.1 432 512 432zM128 224c-70.69 0-128 57.31-128 128c0 70.69 57.31 128 128 128c70.69 0 128-57.31 128-128C256 281.3 198.7 224 128 224zM128 384c7.953 0 14.99-3.199 20.59-8h55.32C193.6 408.3 163.7 432 128 432c-44.11 0-80-35.89-80-80S83.89 272 128 272c35.7 0 65.65 23.66 75.91 56H148.6C142.1 323.2 135.1 320 128 320c-17.67 0-32 14.33-32 32S110.3 384 128 384z"/></svg>