<svg xmlns="http://www.w3.org/2000/svg" viewBox="0 0 640 512"><!--! Font Awesome Pro 6.0.0-alpha3 by @fontawesome - https://fontawesome.com License - https://fontawesome.com/license (Commercial License) --><path d="M629.8 381.6l-126.1-197.5c-12.58-19.71-41.36-19.71-53.95 0L409.6 247.1c0 0-129.6-203-129.6-203C274.7 36.08 265.3 32 255.9 32C246.5 32 237.1 36.07 231.9 44.22L8.928 393.6C-14.95 431 11.95 480 56.33 480h519.6C626.4 480 657 424.2 629.8 381.6zM462.8 427.7C461.2 430.6 458.8 432 455.6 432H56.29c-3.223 0-5.641-1.432-7.188-4.258c-1.549-2.824-1.455-5.631 .2793-8.348L255.9 95.79l206.6 323.6C464.2 422.1 464.3 424.9 462.8 427.7z"/></svg>