<svg xmlns="http://www.w3.org/2000/svg" viewBox="0 0 448 512"><!--! Font Awesome Pro 6.0.0-alpha3 by @fontawesome - https://fontawesome.com License - https://fontawesome.com/license (Commercial License) --><path d="M424 264H384v-208C384 42.75 373.3 32 360 32S336 42.75 336 56v208h-77.54L107.8 42.5C101.9 33.78 91.06 29.97 80.94 33.06C70.88 36.16 64 45.47 64 56v208H24C10.75 264 0 274.8 0 288s10.75 24 24 24H64v144C64 469.3 74.75 480 88 480s24-10.75 24-24v-144h121.1l107.1 157.5C344.7 476.2 352.2 480 360 480c2.344 0 4.719-.3438 7.062-1.062C377.1 475.8 384 466.5 384 456v-144h40C437.3 312 448 301.3 448 288S437.3 264 424 264zM112 264V133.1L200.4 264H112zM336 378L291.1 312H336V378z"/></svg>