<svg xmlns="http://www.w3.org/2000/svg" viewBox="0 0 576 512"><!--! Font Awesome Pro 6.0.0-alpha3 by @fontawesome - https://fontawesome.com License - https://fontawesome.com/license (Commercial License) --><path d="M556.2 464.2c-20.89-3.732-41.84-15.52-59-33.22c-9.031-9.312-25.38-9.312-34.41 0c-20.23 20.87-48.84 32.9-78.68 32.9s-58.67-12.03-78.91-32.9c-9.031-9.312-25.38-9.312-34.41 0C250.6 451.9 221.1 463.9 192.1 463.9c-32.36 0-68.15-13.57-86.9-32.9c-9.031-9.312-25.38-9.312-34.41 0c-19.14 19.76-31.66 29.78-51 33.22c-13.05 2.32-21.75 14.83-19.42 27.92c2.312 13.08 14.66 21.83 27.83 19.49c26.19-4.672 44.73-16.76 61-31.44c28 19.74 65.1 31.81 102.8 31.81c34.89 0 68.81-11.54 95.1-32.19c54.31 41.25 137.4 41.31 191.8 .1582c20.61 16.37 44.16 27.41 68 31.65c1.422 .252 2.844 .377 4.234 .377c11.41 0 21.53-8.199 23.59-19.87C577.1 479 569.2 466.5 556.2 464.2zM288 384c44.18 0 80-35.82 80-80c0-35.76-23.62-65.69-56-75.93V152h48C373.3 152 384 141.3 384 128s-10.75-24-24-24h-48V48h48C373.3 48 384 37.25 384 24S373.3 0 360 0H288C274.8 0 264 10.75 264 24v204.1C231.6 238.3 208 268.2 208 304C208 348.2 243.8 384 288 384zM288 272c17.64 0 32 14.36 32 32s-14.36 32-32 32s-32-14.36-32-32S270.4 272 288 272zM28.21 367.6c26.19-4.672 44.73-16.76 61-31.44C117.2 355.9 155.2 367.1 192 367.1c1.346 0 2.612-.3424 3.956-.3776c-9.934-14.32-16.15-31.11-18.5-49.22C149.4 315.1 121.2 303.5 105.2 286.1c-9.031-9.312-25.38-9.312-34.41 0c-19.14 19.76-31.66 29.78-51 33.22c-13.05 2.32-21.75 14.83-19.42 27.92C2.689 361.2 15.03 369.1 28.21 367.6zM479.8 335.1c20.61 16.37 44.16 27.41 68 31.65c1.422 .252 2.844 .377 4.234 .377c11.41 0 21.53-8.199 23.59-19.87c2.328-13.09-6.375-25.6-19.42-27.92c-20.89-3.732-41.84-15.52-59-33.22c-9.031-9.312-25.38-9.312-34.41 0c-16.9 17.43-39.8 28.17-64.24 31.4c-2.283 17.63-8.158 34.12-17.65 48.18C416.3 367.2 451.8 357.1 479.8 335.1z"/></svg>