<svg xmlns="http://www.w3.org/2000/svg" viewBox="0 0 640 512"><!--! Font Awesome Pro 6.0.0-alpha3 by @fontawesome - https://fontawesome.com License - https://fontawesome.com/license (Commercial License) --><path d="M637.9 168c-2.906-5.057-8.255-8.012-13.93-8.012c-1.131 0-2.287 .1203-3.426 .3625l-169.7 37.61l-49.97-30.44C392.8 162.6 383.3 160 373.3 160H288V112h40C341.3 112 352 101.3 352 88C352 74.74 341.3 64 328 64h-144C170.7 64 160 74.74 160 88C160 101.3 170.7 112 184 112H224V160H47.1C21.49 160 0 181.5 0 208v64.3c0 19.06 11.29 36.34 28.75 43.98l67.25 29.46L96 374C96 397.2 117.5 416 143.1 416h256.8c13.89 0 27.08-5.203 36.59-14.75l198.4-214.4C640.5 181.7 641.4 174.1 637.9 168zM96 293.3L48 272.3V208h47.1L96 293.3zM403.2 367.5C402.9 367.7 402.1 368 400.8 368H144v-160h229.3c1.238 0 2.119 .2695 2.561 .5391l66.47 40.49l88.65-19.65L403.2 367.5zM598.8 299.4c-1.541-2.627-4.192-3.941-6.843-3.941c-2.648 0-5.298 1.314-6.839 3.941c-13.26 22.59-41.16 72.81-41.16 95.32C543.1 424.1 565.4 448 591.1 448c26.61 0 47.1-23.91 47.1-53.28C639.1 372.2 612.1 321.1 598.8 299.4z"/></svg>