<svg xmlns="http://www.w3.org/2000/svg" viewBox="0 0 640 512"><!--! Font Awesome Pro 6.0.0-alpha3 by @fontawesome - https://fontawesome.com License - https://fontawesome.com/license (Commercial License) --><path d="M496 72c-8.875 0-16 7.125-16 16s7.125 16 16 16S512 96.88 512 88S504.9 72 496 72zM575.1 32H566.5l-8.625-8.625C542.8 8.25 522.6 0 501.2 0h-20.5c-13.88 0-27.63 3.625-39.75 10.5L291.1 96H272.4C157.5 96 64 189.2 64 304l.125 64.75C28.12 372.8 0 403 0 440C0 479.8 32.25 512 72 512h160C245.2 512 256 501.2 256 488S245.2 464 232 464h-160c-13.25 0-24-10.75-24-24S58.75 416 72 416h232.5c26.5 0 48-21.5 48-48c0-19.5-7-37.25-18.62-51.13l14-7.375l40.13 80C396.1 405.8 412.8 416 430.9 416H529c26.5 0 48-21.5 48-48c0-44.13-35.88-80-80.13-80h-16.5L461 249.4l31.12-16.5C503 227.1 515.4 224 527.9 224C589.8 224 640 173.8 640 112L640 96C640 60.75 611.2 32 575.1 32zM527.9 176c-20.38 0-40.38 5-58.25 14.5l-3.75 2l16.75-21.75C491.6 159 505.9 152 520.6 152h56.88C565.8 166.5 548 176 527.9 176zM592 112c0 2.75-.5 5.375-.75 8h-70.63C496 120 472.2 131.6 457.2 151.2L397.9 227L399 228l-2 1L450.8 336h46.12c17.75 0 32.13 14.38 32.13 32h-98.13l-62.12-124L195.4 336h76.1c17.75 0 32.13 14.38 32.13 32H112v-64c0-88.38 71.75-160 160.4-160h31.38l161.1-91.75C469.6 49.5 475.1 48 480.8 48h20.5c8.625 0 16.63 3.375 22.75 9.375L546.6 80H576c8.875 0 16 7.125 16 16V112z"/></svg>