<svg xmlns="http://www.w3.org/2000/svg" viewBox="0 0 448 512"><!--! Font Awesome Pro 6.0.0-alpha3 by @fontawesome - https://fontawesome.com License - https://fontawesome.com/license (Commercial License) --><path d="M424 424H24C10.75 424 0 434.7 0 448c0 13.25 10.75 24 24 24h400c13.25 0 24-10.75 24-24C448 434.7 437.3 424 424 424zM24 88h400C437.3 88 448 77.25 448 64c0-13.26-10.75-24-24-24H24C10.75 40 0 50.74 0 64C0 77.25 10.75 88 24 88zM101.8 348.3c4.781 4 11.41 4.781 17.03 2.219C124.4 347.9 128 342.2 128 336V176C128 169.8 124.4 164.2 118.8 161.5C116.6 160.5 114.3 160 112 160c-3.688 0-7.312 1.25-10.25 3.719l-96 80C2.094 246.8 0 251.3 0 256c0 4.75 2.094 9.245 5.75 12.28L101.8 348.3zM424 296h-208C202.7 296 192 306.7 192 320c0 13.25 10.75 24 24 24h208c13.25 0 24-10.75 24-24C448 306.7 437.3 296 424 296zM424 168h-208C202.7 168 192 178.7 192 192c0 13.25 10.75 24 24 24h208C437.3 216 448 205.3 448 192C448 178.7 437.3 168 424 168z"/></svg>