<svg xmlns="http://www.w3.org/2000/svg" viewBox="0 0 384 512"><!--! Font Awesome Pro 6.0.0-alpha3 by @fontawesome - https://fontawesome.com License - https://fontawesome.com/license (Commercial License) --><path d="M352 127.1v208c0 102.4-87.89 184.6-192.2 175.3c-91.68-8.234-159.8-89.18-159.8-181.2l0-114c0-13.25 10.75-23.1 23.1-23.1s24 10.75 24 23.1l0 114.9c0 66.23 53.68 128.7 119.8 132.8C242.1 468.4 304 409.3 304 335.1V132.2c0-42.13-30.68-80.11-72.64-83.88C183.1 44.07 144 81.46 144 127.1v208c0 19.42 17.4 34.86 37.41 31.55c15.73-2.597 26.59-17.42 26.59-33.37L208 151.1c0-13.25 10.75-23.1 23.1-23.1S256 138.7 256 151.1v179.8c0 42.13-30.68 80.11-72.64 83.88c-47.41 4.263-87.36-33.13-87.36-79.67L95.1 133.1c0-66.23 53.68-128.7 119.8-132.8C290.1-4.411 352 54.7 352 127.1z"/></svg>