<svg xmlns="http://www.w3.org/2000/svg" viewBox="0 0 512 512"><!--! Font Awesome Pro 6.0.0-alpha3 by @fontawesome - https://fontawesome.com License - https://fontawesome.com/license (Commercial License) --><path d="M511.9 175c-9.126-75.62-78.38-132.4-158.3-158.8c36.25 39.25 62.13 100.1 62.38 174.9L314.6 320h-34.63V192h104c0-115.2-68.88-192-128-192S127.1 76.75 127.1 192h104v128H197.4L95.99 191.1c.25-74.75 26.13-135.6 62.38-174.9C78.49 42.75 9.233 99.5 .1074 175C-1.018 184.1 6.858 192 16.11 192h19.5l124.6 158.5c0 .5-.278 1-.278 1.5l.0056 128c0 17.75 14.25 32 32 32h128c17.75 0 32-14.25 32-32l-.0069-128c0-.5-.2153-1-.2153-1.5L476.4 192h19.42C505.1 192 513 184.2 511.9 175zM304 456c0 4.375-3.625 8-8.001 8H215.1c-4.375 0-8.001-3.625-8.001-8v-80c0-4.375 3.625-8 8.001-8h80.01c4.375 0 8.001 3.625 8.001 8V456z"/></svg>