<svg xmlns="http://www.w3.org/2000/svg" viewBox="0 0 512 512"><!--! Font Awesome Pro 6.0.0-alpha3 by @fontawesome - https://fontawesome.com License - https://fontawesome.com/license (Commercial License) --><path d="M505 420.1c-9.377-9.378-24.6-9.286-33.85-.0332c-12.13 12.13-30.78 15.23-45.16 8.725l-51-26.45c5.376-4.376 9.114-10.82 9.114-18.32l.0128-79.96c0-22.13-17.88-40.01-40.01-40.01h-71.51l67.64-67.77c11.5-11.5 15-28.51 8.752-43.51c-6.251-15-20.75-24.76-37.01-24.76H151.1c-13.25 0-24 10.75-24 24.01S138.7 176 151.1 176h107L158.1 261.8C152.7 267.2 149.7 275.3 150.7 283.3c.25 1.5 1.25 2.626 1.75 4.001L34.98 226.7C23.11 220.5 8.697 225.2 2.696 236.1C-3.43 248.7 1.229 263.3 12.98 269.3l391.9 202.6C416.8 477.4 429.4 480 442 480c23.25 0 46.14-8.998 63.02-26C514.3 444.7 514.3 429.5 505 420.1zM336 382.3L200.1 312.1l135.9-.0108L336 382.3zM400 128c26.51 0 48.01-21.5 48.01-48S426.5 32 400 32c-26.51 0-48.01 21.5-48.01 48S373.5 128 400 128z"/></svg>