<svg xmlns="http://www.w3.org/2000/svg" viewBox="0 0 512 512"><!--! Font Awesome Pro 6.0.0-alpha3 by @fontawesome - https://fontawesome.com License - https://fontawesome.com/license (Commercial License) --><path d="M432.1 96.02c26.51 0 47.98-21.5 47.98-48.01S458.6 0 432.1 0c-26.51 0-47.98 21.5-47.98 48.01S405.6 96.02 432.1 96.02zM119.1 91.65L108.5 114.2c14.38 7.252 31.13 4.876 42.76-4.876l132.8 66.27l61.14-24.38l14.13 42.26c3.376 10.13 10.5 18.38 20 23.13l58.14 29.01c11.88 6.001 26.38 1.125 32.26-10.75c5.876-11.88 1.125-26.26-10.88-32.13L403.7 175l-18.13-54.39c-4.876-14.63-15.63-26.63-29.63-33.13c-14-6.502-30.13-6.877-44.26-1.25L237.1 116.2L164.9 80.33C165.2 65.83 157.7 51.76 143.1 44.76L132.9 66.45L98.23 59.45C96.35 59.08 94.48 59.7 93.23 61.2c-2 2.126-1.75 5.501 .5001 7.377L119.1 91.65zM505.1 452.2c-9.377-9.377-24.58-9.285-33.83-.0332c-12.13 12.13-30.75 15.23-45.13 8.727l-143.1-74.03l49.76-74.52c10.5-15.88 8.502-37.13-5.001-50.51L270.5 204.5L193.6 166.4C191.1 183 197.4 199.4 209.3 211.3l79.89 79.89l-49.14 73.64L34.97 258.8c-11.88-6.127-26.26-1.5-32.26 10.25C-3.418 280.8 1.208 295.3 12.96 301.3l392 202.6C416.9 509.4 429.5 512 442.1 512c23.25 0 46.09-9.002 62.97-26.01C514.3 476.7 514.3 461.6 505.1 452.2z"/></svg>