<svg xmlns="http://www.w3.org/2000/svg" viewBox="0 0 448 512"><!--! Font Awesome Pro 6.0.0-alpha3 by @fontawesome - https://fontawesome.com License - https://fontawesome.com/license (Commercial License) --><path d="M142.1 316.9L122.2 363.1C121 366.1 118.1 368 115 368H40c-13.25 0-24 10.75-24 24S26.75 416 40 416h75c22.38 0 42.62-13.25 51.5-33.1L180 350.5l-9.5-5.75C158.6 337.5 149.2 327.9 142.1 316.9zM288 96c26.5 0 48-21.5 48-48s-21.5-48-48-48s-48 21.5-48 48S261.5 96 288 96zM408 240.5l-48.38-.125c-3.5 0-6.625-2.25-7.625-5.625l-13.88-46c-9.25-30.13-34-53.25-64.88-60.13L195 110.9C169.3 105 142.6 111 121.8 127.1L73.38 164.5c-10.5 8-12.38 23.12-4.25 33.62c8 10.5 23.25 12.38 33.63 4.25l48.37-37.25c9.5-7.375 21.75-10 33.38-7.375L199.4 161L164 248.4C153.8 274 163.4 303 187 317.4l83.75 50.5c3.125 1.875 4.625 5.625 3.625 9.125L241 481.4c-3.625 12.75 3.75 26.12 16.5 29.75C259.8 511.8 261.1 512 264.1 512c10.5 0 20.12-6.875 23.12-17.38l33.25-104.5c7-24.25-3.25-50.25-24.88-63.37L243.8 295.5l42-104.7c2.75 3.625 5 7.5 6.375 12l14 46c7.125 23.62 28.63 39.62 53.38 39.62l48.38 .25c13.25 0 24.12-10.75 24.12-24C432 251.4 421.4 240.6 408 240.5z"/></svg>