<svg xmlns="http://www.w3.org/2000/svg" viewBox="0 0 640 512"><!--! Font Awesome Pro 6.0.0-alpha3 by @fontawesome - https://fontawesome.com License - https://fontawesome.com/license (Commercial License) --><path d="M239.1 96c26.5 0 47.1-21.5 47.1-48S266.5 0 239.1 0S191.1 21.5 191.1 48S213.5 96 239.1 96zM634.7 441c-8.266-10.33-23.34-12.03-33.73-3.734c-16.32 13.05-35.81 21.62-56.3 25.03L491.1 392l69.75-46.5c8.902-5.936 14.25-15.93 14.25-26.63V259.8c0-12.12-6.848-23.2-17.69-28.62l-143.8-71.9l-41-82C367.6 65.38 353.2 60.5 341.2 66.5c-11.88 5.875-16.62 20.25-10.75 32.25l35 69.88l-17.5 23.37H289.9L245.9 147.9C233 135.1 215.9 127.1 197.8 127.1c-27.96 0-52.74 16.78-63.13 42.75L121.7 207.1c-4.914 12.29 1.088 26.28 13.38 31.2C137.9 239.4 140.9 239.1 144 239.1c9.881 0 18.63-5.926 22.29-15.1l12.93-36.32C182.5 180.3 191.3 176.6 198.5 176.6c5.277 0 10.05 1.863 13.43 5.246l48.77 48.77C266.7 236.6 274.8 239.1 283.3 239.1h28.71l-24.06 32.13H111.1c-11.76 .334-22.49 6.904-27.72 17.62l-32 64c-.625 1.375-1 2.875-1.5 4.25c-32.44 13.23-54.49 47.23-49.05 85.61C6.486 483.7 43.57 512 84.07 512h151.4c31.93 0 62.73-16.83 76.54-45.62C323.2 443.1 321.7 419.3 313.2 400h124.7l48.01 64H440c-13.25 0-24 10.75-24 24S426.8 512 440 512h84.78c38.47 0 76.19-13.23 106.2-37.27C641.3 466.5 643 451.4 634.7 441zM239.1 464h-160c-17.75 0-32-14.25-32-32s14.25-32 32-32h160c17.75 0 32 14.25 32 32S257.7 464 239.1 464zM465.5 352H105.8l16-32h190.1l86.38-115.3l129.6 65v40.5L465.5 352z"/></svg>