<svg xmlns="http://www.w3.org/2000/svg" viewBox="0 0 512 512"><!--! Font Awesome Pro 6.0.0-alpha3 by @fontawesome - https://fontawesome.com License - https://fontawesome.com/license (Commercial License) --><path d="M431.9 95.99c26.5 0 48-21.5 48-47.1C479.9 21.5 458.4 0 431.9 0c-26.5 0-48 21.5-48 47.1C383.9 74.49 405.4 95.99 431.9 95.99zM473.3 250.9c4.375 3.25 9.498 5 14.62 5c7.248 0 14.25-3.25 19.12-9.373c8.125-10.5 6.125-25.62-4.373-33.74L382.9 121.2c-13.12-9.748-27.62-17.37-43.24-22.5l-66.99-22.49L236.8 12.25c-6.498-11.5-21.12-15.62-32.62-9.123c-11.62 6.498-15.75 21.12-9.25 32.62l36.49 65.11c4.75 9.498 12.1 16.62 23.12 19.1l34.74 11.62L230.9 161.7C211.8 171.2 199.9 190.3 199.9 211.7v54.99c0 3.125-1.875 6-4.875 7.373L118.7 305.8c-12.12 5.123-17.1 19.24-12.87 31.37c1.248 2.998 3.123 5.498 5.373 7.498l-43.59-15.81c-9.75-3.5-17.35-10.63-21.85-19.1c-5.498-11.1-19.89-17.24-31.89-11.62c-11.1 5.623-17.12 19.97-11.62 31.96c9.873 20.99 27.14 36.77 48.89 44.76l364.6 132.7C425.5 510.1 435.7 512 445.7 512c12.5 0 24.88-2.734 36.5-8.232c11.1-5.623 17.1-19.88 11.6-31.88c-5.623-11.1-20.15-17.25-32.15-11.62c-9.248 4.375-19.53 4.859-29.28 1.359l-103.9-37.85c10.75-.25 20.5-7.748 22.87-18.87l21.87-101.1c3.125-15.25-2.75-31.12-15.12-40.37L295.3 215.6l82.24-37.87L473.3 250.9zM325.2 297.9l-20.75 96.97c-1.875 8.998 1.748 17.75 8.248 23.24l-182.7-66.44c2.498-.25 4.764-.543 7.264-1.543l76.24-31.87c20.87-8.623 34.37-28.99 34.37-51.61V239.9L325.2 297.9z"/></svg>