<svg xmlns="http://www.w3.org/2000/svg" viewBox="0 0 512 512"><!--! Font Awesome Pro 6.0.0-alpha3 by @fontawesome - https://fontawesome.com License - https://fontawesome.com/license (Commercial License) --><path d="M111.1 127.1c26.51 0 48.01-21.49 48.01-47.99S138.5 31.99 111.1 31.99S63.96 53.48 63.96 79.98S85.46 127.1 111.1 127.1zM255.1 0H223.1l.0231 215.9l31.1-7.973L255.1 0zM191.6 381.3c12.63-4.124 19.42-17.75 15.17-30.37c-4.127-12.62-17.63-19.48-30.39-15.23l-18.39 6.231c-19.01 6.373-39.99-2.482-48.74-20.73L45.69 188.2C39.94 176.3 25.69 171.2 13.68 176.9C1.677 182.7-3.306 196.9 2.321 208.9l63.64 132.1c15.01 31.24 46.38 49.99 79.51 49.99C158.1 391.9 162.5 391 191.6 381.3zM488 287.9c-13.26 0-24 10.75-24 23.99c0 13.87-8.766 26.51-21.77 31.26l-130.2 48.24V255.9c0-15.75-15.01-26.99-29.76-23.24L188.8 256.1L148.1 170.6c-7.378-15.1-26.26-23.12-42.52-15.62c-12.63 5.749-24.13 24.24-15.76 42.49l47.39 100.6C142.9 308.5 154.6 314.2 165.7 311.2l98.16-24.49v122.5l-152.3 56.25c-12.38 4.624-18.88 18.48-14.25 30.85C101 505.1 110.3 512 119.9 512c2.876 0 5.564-.5001 8.315-1.5l330.6-122.2c31.76-11.75 53.22-42.49 53.22-76.36C512.1 298.6 501.3 287.9 488 287.9z"/></svg>