<svg xmlns="http://www.w3.org/2000/svg" viewBox="0 0 640 512"><!--! Font Awesome Pro 6.0.0-alpha3 by @fontawesome - https://fontawesome.com License - https://fontawesome.com/license (Commercial License) --><path d="M512 256c-70.75 0-128 57.25-128 128s57.25 128 128 128s128-57.25 128-128S582.8 256 512 256zM512 464c-44.13 0-80-35.88-80-80s35.88-80 80-80s80 35.88 80 80S556.1 464 512 464zM400 96C426.5 96 448 74.5 448 48S426.5 0 400 0S352 21.5 352 48S373.5 96 400 96zM128 256c-70.75 0-128 57.25-128 128s57.25 128 128 128s128-57.25 128-128S198.8 256 128 256zM128 464c-44.13 0-80-35.88-80-80S83.88 304 128 304s80 35.88 80 80S172.1 464 128 464zM416 216h64c13.25 0 24-10.75 24-24S493.3 168 480 168h-52.47l-36.91-46.14c-19.17-23.97-54.39-27.98-78.48-8.922L230.9 177.3C216.1 188.9 208.3 207 209.8 225.7C211.3 244.4 222 261 238.4 270.2L296 302.1V416c0 13.25 10.75 24 24 24s24-10.75 24-24V288c0-8.719-4.734-16.75-12.34-20.98L261.7 228.2C258.5 226.4 257.8 223.4 257.6 221.8C257.5 220.3 257.7 217.2 260.6 214.9l81.28-64.33c3.5-2.703 8.5-2.141 11.23 1.266l44.11 55.14C401.8 212.7 408.7 216 416 216z"/></svg>