<svg xmlns="http://www.w3.org/2000/svg" viewBox="0 0 576 512"><!--! Font Awesome Pro 6.0.0-alpha3 by @fontawesome - https://fontawesome.com License - https://fontawesome.com/license (Commercial License) --><path d="M556.2 384.2c-20.89-3.732-41.84-15.52-59-33.22c-9.031-9.312-25.38-9.312-34.41 0c-20.23 20.87-48.95 32.93-78.8 32.93s-58.56-12.06-78.8-32.93c-9.031-9.312-25.38-9.312-34.41 0c-20.23 20.87-48.95 32.93-78.8 32.93c-32.36 0-68.05-13.6-86.8-32.93c-9.031-9.312-25.38-9.312-34.41 0c-19.14 19.76-31.66 29.78-51 33.22c-13.05 2.32-21.75 14.83-19.42 27.92c2.312 13.08 14.66 21.83 27.83 19.49c26.19-4.672 44.73-16.76 61-31.44C117.2 419.9 155.2 431.1 192 431.1c34.89 0 68.81-11.54 96-32.19c54.31 41.25 137.4 41.31 191.8 .1582c20.61 16.37 44.16 27.41 68 31.65c1.422 .252 2.844 .377 4.234 .377c11.41 0 21.53-8.199 23.59-19.87C577.1 399 569.2 386.5 556.2 384.2zM95.1 224c35.35 0 64-28.65 64-64c0-35.35-28.65-64-64-64s-64 28.65-64 64C31.1 195.3 60.65 224 95.1 224zM168 336C181.3 336 192 325.3 192 312c0-30.09 11.2-58.89 31.53-81.06L241 211.9c5.49-5.99 11.36-11.5 17.45-16.72l133.6 118.8C396.6 318 402.3 320 407.1 320c6.625 0 13.22-2.719 17.95-8.062c8.812-9.906 7.906-25.06-2-33.88L299.1 167.9c3.307-1.635 6.516-3.424 9.932-4.887c39.52-16.92 82.5-20.78 124.3-11.09l32.41 7.484c13.02 2.891 25.83-5.062 28.8-17.98s-5.078-25.81-17.98-28.8l-32.42-7.484c-51.78-11.95-105-7.188-153.1 13.75c-32.66 14-61.39 34.38-85.39 60.58L188.2 198.5C159.7 229.5 144 269.9 144 312C144 325.3 154.8 336 168 336z"/></svg>