<svg xmlns="http://www.w3.org/2000/svg" viewBox="0 0 384 512"><!--! Font Awesome Pro 6.0.0-alpha3 by @fontawesome - https://fontawesome.com License - https://fontawesome.com/license (Commercial License) --><path d="M240 96c26.5 0 48-21.5 48-48S266.5 0 240 0s-47.1 21.5-47.1 48S213.5 96 240 96zM121.9 317.6l-41.13 164.5C77.5 495 85.38 508 98.25 511.3C100.1 511.8 102.1 512 104 512c10.75 0 20.62-7.25 23.25-18.12L160.8 360l-27.5-27.62C128.8 328 125.3 322.8 121.9 317.6zM360 160C346.7 160 336 170.7 336 183.1V200h-37.13l-50.12-57.13C239.3 133.3 226.5 128 212.9 128C189.5 128 169.3 143.9 163.6 166.5l-22.5 90C136.4 275.6 141.9 295.8 155.8 309.7l73.87 73.99C231.2 385.2 232 387.2 232 389.3V488c0 13.25 10.75 24 24 24C269.3 512 280 501.3 280 488v-98.84c0-14.83-5.89-29.05-16.38-39.53l-50.38-50.38l24.5-96.13l32.25 36.75C274.5 245 281.1 248 287.9 248H336v240C336 501.3 346.7 512 359.1 512S384 501.3 384 488V183.1C384 170.7 373.3 160 360 160zM95.88 276.1L137 117c2.25-8.375-3.125-16.1-11.87-18.1C81.26 87.38 36.76 113 25.76 155.1L.5109 253.3C-1.739 261.6 3.603 270.3 12.35 272.3L76.01 287.5C84.76 289.6 93.63 284.5 95.88 276.1z"/></svg>