<svg xmlns="http://www.w3.org/2000/svg" viewBox="0 0 512 512"><!--! Font Awesome Pro 6.0.0-alpha3 by @fontawesome - https://fontawesome.com License - https://fontawesome.com/license (Commercial License) --><path d="M399.1 96c26.5 0 48-21.5 48-48S426.5 0 399.1 0s-48 21.5-48 48S373.5 96 399.1 96zM510.7 190.2c-2.25-13.12-14.86-21.98-27.73-19.73c-13.13 2.25-21.86 14.61-19.73 27.73c3.375 19.25-6.034 38.83-22.03 48.08L168.1 386.4l50.5-122.6c.375-1 1.25-2 2-2.875l121.3-110.3c9.125-9.25 11.88-22.87 6.875-34.87S332.1 96 319.1 96H135.1C122.7 96 111.1 106.8 111.1 120S122.7 144 135.1 144h113.8L180.1 233.4c-1.25 1.625-1.75 2-5.875 12.12l-53.38 129.4c-4.75 11.5 .5 24.37 11.25 30.12l-120 61.73c-11.75 6-16.37 20.54-10.25 32.29C6.957 507.3 15.32 512 24.07 512c3.625 0 7.459-.8581 10.96-2.733l429.2-220.9C498.6 268.8 517.2 229.3 510.7 190.2z"/></svg>