<svg xmlns="http://www.w3.org/2000/svg" viewBox="0 0 320 512"><!--! Font Awesome Pro 6.0.0-alpha3 by @fontawesome - https://fontawesome.com License - https://fontawesome.com/license (Commercial License) --><path d="M94.78 347.5C94.78 347.5 94.78 347.7 94.78 347.5l-20.5 50.92c-1.1 4.998-4.1 9.621-8.875 13.37l-58.37 58.47c-9.375 9.371-9.375 24.61 0 33.86C11.78 508.9 17.78 511.2 23.91 511.2s12.37-2.249 16.87-6.997l58.5-58.47c8.5-8.496 14.1-18.49 19.37-29.49l13.5-33.61l-36.25-33.49L94.78 347.5zM207.9 95.99c26.5 0 47.1-21.5 47.1-47.99S234.4 0 207.9 0C181.4 0 159.1 21.5 159.1 47.99S181.4 95.99 207.9 95.99zM312.5 270.8L283.3 241.9c-1-.8746-1.625-1.999-1.1-3.249l-12.1-38.73c-14.37-43.11-54.37-71.97-99.75-71.97c-34.75 0-52.1 8.746-95.75 25.99C51.91 162.3 34.91 178 24.66 198.7L10.28 229.8c-13.37 28.74 29.1 49.1 43.5 20.24L67.78 219.7C72.53 210 80.65 202.7 90.53 198.7C112.3 189.9 123.7 185.2 134.8 181.5l-19.75 79.09C110.3 279.6 115.3 299.5 129.9 315.2l78.1 72.97c5.875 5.498 9.1 12.49 11.87 20.37l19.5 84.84c2.5 11.5 14.37 21.12 28.62 17.99c12.87-2.999 20.87-15.87 17.87-28.86l-19.5-84.59c-3.1-17.37-12.1-32.86-25.1-44.86l-53.75-49.6l26.25-104.8c7.375 9.746 7.5 12.62 21.75 55.48c2.75 8.246 7.5 15.87 13.75 22.12l29.37 28.99C300.9 326.7 335.3 293.4 312.5 270.8z"/></svg>