<svg xmlns="http://www.w3.org/2000/svg" viewBox="0 0 448 512"><!--! Font Awesome Pro 6.0.0-alpha3 by @fontawesome - https://fontawesome.com License - https://fontawesome.com/license (Commercial License) --><path d="M399.1 0c-26.5 0-48.01 21.5-48.01 48S373.5 96 399.1 96C426.5 96 448 74.5 448 48S426.5 0 399.1 0zM151.1 144h103.1L218.6 175.2C206.7 185.4 199.7 200.1 199.1 215.8C198.5 231.2 204.5 246.5 216.2 258.2l87.76 80V424c0 13.25 10.75 24 24 24c13.25 0 24-10.75 24-24v-89.38c0-10.5-4.251-20.87-12.5-29L266.7 239.2l88.51-88.5c9.251-9.25 12-23 7.001-35s-16.63-19.72-29.63-19.72L151.1 96.12c-13.25 0-24 10.75-24 24C127.1 133.2 138.7 144 151.1 144zM187.5 273.4L85.82 375c-9.376 9.375-9.376 24.62 0 33.88c4.751 4.75 10.88 7 17 7c6.251 0 12.38-2.25 17-7l102.1-102.1l-28.38-26C191.2 278.5 189.6 275.9 187.5 273.4zM399.1 448c-8.751 0-16 7.25-16 16S376.7 480 367.1 480h-96.01c-8.751 0-16 7.25-16 16s7.251 16 16 16h96.01c26.5 0 48.01-21.5 48.01-48C415.1 455.2 408.7 448 399.1 448zM117.7 456.6c-6.126 6.125-16.38 6.125-22.5 0l-67.98-67.89c-6.126-6.25-16.41-6.25-22.53 0c-6.251 6.125-6.251 16.41 0 22.53l67.88 67.98c9.251 9.375 21.71 14 33.96 14s24.63-4.75 33.88-14c6.251-6.25 6.251-16.5 0-22.62C134.3 450.4 124.1 450.2 117.7 456.6z"/></svg>