<svg xmlns="http://www.w3.org/2000/svg" viewBox="0 0 384 512"><!--! Font Awesome Pro 6.0.0-alpha3 by @fontawesome - https://fontawesome.com License - https://fontawesome.com/license (Commercial License) --><path d="M360 168h-18.43C329.9 91.21 264 32 184 32h-96C65.91 32 48 49.91 48 72v96H24C10.75 168 0 178.8 0 192s10.75 24 24 24H48v240C48 469.3 58.75 480 72 480S96 469.3 96 456V352h88c80 0 145.9-59.21 157.6-136H360C373.3 216 384 205.3 384 192S373.3 168 360 168zM96 80h88c53.5 0 98.23 37.77 109.3 88H96V80zM184 304H96V216h197.3C282.2 266.2 237.5 304 184 304z"/></svg>