<svg xmlns="http://www.w3.org/2000/svg" viewBox="0 0 448 512"><!--! Font Awesome Pro 6.0.0-alpha3 by @fontawesome - https://fontawesome.com License - https://fontawesome.com/license (Commercial License) --><path d="M392 224h-18.02C374.8 217.4 376 210.8 376 204c0-4.109-.9277-7.963-1.213-12H392C405.3 192 416 181.3 416 168S405.3 144 392 144h-27.39C340.1 78.78 277.7 32 204 32H120C97.91 32 80 49.91 80 72V144H56C42.75 144 32 154.8 32 168S42.75 192 56 192H80v32H56C42.75 224 32 234.8 32 248S42.75 272 56 272H80v184C80 469.3 90.75 480 104 480S128 469.3 128 456v-80h76c70.68 0 131.4-42.91 157.9-104H392C405.3 272 416 261.3 416 248S405.3 224 392 224zM128 80h76c46.5 0 86.62 26.03 107.8 64H128V80zM128 192h198.8C327.2 196 328 199.9 328 204c0 6.85-.9492 13.45-2.021 20H128V192zM204 328H128V272h179.5C285.3 305.7 247.3 328 204 328z"/></svg>