<svg xmlns="http://www.w3.org/2000/svg" viewBox="0 0 576 512"><!--! Font Awesome Pro 6.0.0-alpha3 by @fontawesome - https://fontawesome.com License - https://fontawesome.com/license (Commercial License) --><path d="M544 224l-13.53-.0053C519.3 198.8 501.7 177.1 479.1 160.6l.0008-64.63L463.1 96.01c-46.63 0-83.13 27.25-89.38 31.1H223.1c-41.38 0-82.63 17.38-111.8 45.87c-22.38 21.87-38.5 50.25-45.13 82.12L55.98 256c-14.88 0-26.5-13.51-23.5-28.76C34.1 218.5 40.1 210.8 51.62 208.6c7.26-1.508 12.36-8.088 12.36-15.5c0-8.945-7.334-16.01-15.85-16.01c-1.145 0-2.308 .1187-3.478 .3863C21.93 182.7 3.52 200.9 .4728 224.6C-3.902 258.8 22.6 288 55.98 288l7.994 .0034c0 52.25 25.38 98.12 64 127.2v48.75C127.1 490.4 149.6 512 175.1 512H223.1c26.4 0 47.1-21.6 47.1-47.1V448h64v15.1C335.1 490.4 357.6 512 383.1 512h48.01c26.4 0 48-21.6 48-47.1l.0014-48.74c11.63-8.999 22.45-19.52 31.32-31.26l32.68 .0023C561.6 384 576 369.6 576 352V256C576 238.4 561.6 224 544 224zM527.1 336h-40.65l-14.4 19.07c-5.807 7.687-13.32 15.12-22.33 22.1l-18.62 14.41v72.41h-48.01v-63.1H223.1v63.1h-48.01v-72.67l-19.1-14.4c-28.54-21.52-44.89-53.93-44.89-88.93L111.1 275.1L114.1 265.8C118.6 243.9 129.6 224 145.8 208.2C166.4 188.1 195.6 176 223.1 176h166.8l12.88-9.785c7.395-5.621 17.29-11.44 28.34-15.71v33.96l18.99 14.41c15.71 11.92 28.01 27.3 35.59 44.49l12.62 28.64h28.8V336zM423.1 240c-13.25 0-24 10.74-24 23.1c0 13.25 10.75 23.1 24 23.1c13.25 0 24-10.75 24-23.1C447.1 250.8 437.3 240 423.1 240zM190.7 101.8c3.25 1.484 6.625 2.187 10 2.187c9.094 0 17.78-5.187 21.81-13.1c11.72-25.53 37.41-42.03 65.5-42.03c24.16 0 46.59 12.03 59.97 32.19c7.344 11.01 22.22 14.06 33.28 6.703c11.03-7.328 14.03-22.23 6.719-33.26C365.7 20.05 328.3 0 288 0c-46.78 0-89.63 27.48-109.1 70.03C173.4 82.07 178.7 96.32 190.7 101.8z"/></svg>