<svg xmlns="http://www.w3.org/2000/svg" viewBox="0 0 448 512"><!--! Font Awesome Pro 6.0.0-alpha3 by @fontawesome - https://fontawesome.com License - https://fontawesome.com/license (Commercial License) --><path d="M395.1 385.6L167.1 213.2C157.7 206.1 146.8 200.5 135.8 196.1C81.61 179.7 23.05 208.8 5.242 261.8C-3.336 287.4-1.336 314.7 10.87 338.8c12.5 24.63 34.11 42.92 60.82 51.42l274.5 87.33C351.5 479.2 357 480 362.5 480c16.12 0 31.84-7.189 42.09-20.04c8.875-11.13 12.81-24.97 11.03-39.01C413.8 406.9 406.6 394.3 395.1 385.6zM367.1 430c-1.688 2.062-4.531 2.312-6.344 1.719l-274.5-87.33c-14.37-4.564-25.94-14.29-32.57-27.38C47.33 304.5 46.3 290.3 50.74 277.1c7.625-22.69 29.47-37.1 52.96-37.1c5.812 0 11.72 .875 17.55 2.719C127.2 244.6 133 247.6 138.2 251.5l227.1 172.4c1.312 1.031 1.719 2.188 1.812 3C368.1 428.1 367.8 429.1 367.1 430zM104 272C90.74 272 80 282.7 80 295.1C80 309.3 90.74 320 104 320S128 309.3 128 295.1C128 282.7 117.3 272 104 272zM352 32c-53.02 0-96 42.98-96 96s42.98 96 96 96s96-42.98 96-96S405 32 352 32zM352 176c-26.47 0-48-21.53-48-48s21.53-48 48-48s48 21.53 48 48S378.5 176 352 176z"/></svg>