<svg xmlns="http://www.w3.org/2000/svg" viewBox="0 0 640 512"><!--! Font Awesome Pro 6.0.0-alpha3 by @fontawesome - https://fontawesome.com License - https://fontawesome.com/license (Commercial License) --><path d="M464.5 246.6L416 217.6V102.6c0-8.494-3.37-16.62-9.382-22.62L331.3 4.721C328.3 1.471 324.1 0 320 0S311.7 1.471 308.7 4.721L233.4 79.93C227.4 85.93 224 94.07 224 102.6v115l-48.5 29C165.9 252.5 160 262.8 160 274V488C160 501.3 170.7 512 184 512s24-10.75 24-24V283.1l64-38.38v-135.5l48-48l48 48v135.5l64 38.38V488c0 13.25 10.75 24 24 24S480 501.3 480 488V274C480 262.8 474.1 252.5 464.5 246.6zM93.27 322.5l-80 40C5.141 366.6 0 374.9 0 384v104C0 501.3 10.75 512 24 512s24-10.75 24-24v-89.16l66.73-33.38c11.86-5.938 16.66-20.34 10.73-32.19C119.5 321.4 105.2 316.7 93.27 322.5zM626.7 362.5l-80-40c-11.86-5.875-26.27-1.125-32.2 10.75c-5.922 11.84-1.125 26.25 10.73 32.19L592 398.8V488c0 13.25 10.75 24 24 24S640 501.3 640 488V384C640 374.9 634.9 366.6 626.7 362.5zM320 320c-35.35 0-64 28.65-64 64v96c0 17.67 14.33 32 32 32h64c17.67 0 32-14.33 32-32v-96C384 348.7 355.3 320 320 320z"/></svg>