<svg xmlns="http://www.w3.org/2000/svg" viewBox="0 0 576 512"><!--! Font Awesome Pro 6.0.0-alpha3 by @fontawesome - https://fontawesome.com License - https://fontawesome.com/license (Commercial License) --><path d="M468 176h-105L356.1 128H368l-.0021 16c0 8.836 7.164 16 16 16s16-7.164 16-16v-32c8.836 0 16-7.164 16-16c0-8.838-7.165-16-16-16v-32c0-8.838-7.164-16-16-16s-16 7.162-16 16L368 64h-21.04l-6.205-43.39C339.1 8.781 328.9 0 317 0h-58C247.1 0 236.9 8.781 235.3 20.61L229 64H224C206.3 64 192 78.33 192 96c0 16.26 12.31 29.15 28.02 31.2L212.2 181.8L149.8 186.6L144.7 155.5C142.5 139.8 128.9 128 113.1 128H74.94C59.13 128 45.5 139.8 43.34 155.1L34.56 210.1C14.64 215.1 0 234.2 0 256s14.64 40.01 34.56 45.86l8.723 54.68C45.5 372.2 59.13 384 74.94 384h38.13c15.81 0 29.44-11.81 31.59-26.97l5.188-31.59l62.38 4.781l7.799 54.58C204.3 386.8 192 399.7 192 416c0 17.67 14.33 32 32 32h5.049l6.201 43.41C236.9 503.2 247.1 512 259 512h58c11.94 0 22.06-8.781 23.75-20.59L346.1 448H368l-.0021 16c0 8.836 7.164 16 16 16s16-7.164 16-16v-32c8.836 0 16-7.164 16-16c0-8.838-7.165-16-16-16v-32c0-8.838-7.164-16-16-16s-16 7.162-16 16L368 384h-11.89l6.863-48H468C506.1 336 576 305.6 576 256S506.1 176 468 176zM468 288h-146.7l-25.16 176H279.8L254.3 285.3L109.6 274.2L99.47 336H88.61L77.18 264.7l-29.11-8.537l29.11-8.537L88.61 176h10.84l10.2 61.79l144.6-11.12L279.8 48h16.36l25.16 176H468C492.1 224 528 244.1 528 256S492.1 288 468 288z"/></svg>