<svg xmlns="http://www.w3.org/2000/svg" viewBox="0 0 640 512"><!--! Font Awesome Pro 6.0.0-alpha3 by @fontawesome - https://fontawesome.com License - https://fontawesome.com/license (Commercial License) --><path d="M615.1 464H24.02c-13.25 0-23.1 10.74-23.1 23.1S10.77 512 24.02 512h591.1c13.25 0 23.1-10.74 23.1-23.1C639.1 474.7 629.2 464 615.1 464zM74.64 367.8c9.124 10.37 22.25 16.25 35.1 16.25l124.5-.5c11.1 0 24.12-3.125 35.12-8.875l280.2-147.9c29.1-15.87 54.37-38.12 70.5-64.12c19.5-31.5 23.1-58.5 13.5-80.5c-10.37-21.75-33.5-33.1-68.75-36.37c-3.25-.25-6.5-.375-9.749-.375c-26.75 0-54.12 7.25-81.12 21.5L386.3 113.8l-.3749 .125L184.5 35.26c-12.1-4.1-27.5-4.25-39.87 2.25L108.8 56.51c-15.12 7.1-24.75 23.25-25.62 40.25C82.39 113.8 90.64 129.9 104.9 139.1L209.1 207.3L208.8 207.4L141.9 242.6L141.5 242.9L141.1 242.6L86.52 214c-6.875-3.625-14.62-5.5-22.37-5.5c-7.625 0-15.37 1.875-22.37 5.625L25.65 222.6c-12.1 6.875-22.25 19.37-24.87 33.75c-2.625 14.5 1.5 29.37 11.25 40.5L74.64 367.8zM64.15 256.5L141.6 297.1l161.1-85.5L131.1 99.01l35.87-18.1l221.9 86.62l108.5-57.25c19.1-10.62 39.75-15.1 58.62-15.1c2.125 0 4.375 .125 6.5 .25c14.1 .1 26.5 4.625 28.75 9.25c1.1 4.375 .375 15.1-10.1 34.5c-11.62 18.75-29.75 34.1-52.25 46.87l-280.2 147.1c-3.1 2.125-8.5 3.25-12.87 3.25l-124.2 .5L48.02 265L64.15 256.5z"/></svg>