<svg xmlns="http://www.w3.org/2000/svg" viewBox="0 0 576 512"><!--! Font Awesome Pro 6.0.0-alpha3 by @fontawesome - https://fontawesome.com License - https://fontawesome.com/license (Commercial License) --><path d="M464 176h-89.42L344.5 128H352c8.836 0 16-7.164 16-16v-32C368 71.16 360.8 64 352 64h-47.51L274.2 15.57C269 6.613 257.6 0 246.7 0H181.2C171.1 0 161.7 4.646 155.6 12.75C149.5 20.84 147.7 31.07 150.5 40.81L193.1 176h-41.05l-38.39-51.19C107.6 116.8 98.01 112 88 112H31.99c-9.922 0-19.12 4.489-25.22 12.31C.6699 132.1-1.439 142.1 .9746 151.8l21.59 74.14C9.584 229.1 .0001 241.7 .0001 256c0 14.32 9.584 26.01 22.56 30.09l-21.43 73.56c-2.572 10.21-.4629 20.22 5.641 28.04C12.88 395.5 22.07 400 31.99 400h56.01c10.01 0 19.58-4.781 25.6-12.79L152 336h41.05l-42.48 134.8c-2.918 10.13-1.032 20.36 5.067 28.46C161.8 507.4 171.1 512 181.2 512h65.5c11.45 0 22.1-6.182 27.77-16.13L304.5 448H352c8.836 0 16-7.164 16-16v-32c0-8.838-7.164-16-16-16h-7.475l30.05-48H464c38.46 0 112-31.15 112-80S502.5 176 464 176zM464 288h-116l-110.1 176H203L258.5 288H128l-47.99 64H53.36l27.97-96L53.34 160h26.67l47.99 64h130.5L203 48h34.81L347.1 224H464c26.24 0 62.61 21.75 64 31.91C526.6 266.2 490.2 288 464 288z"/></svg>