<svg xmlns="http://www.w3.org/2000/svg" viewBox="0 0 576 512"><!--! Font Awesome Pro 6.0.0-alpha3 by @fontawesome - https://fontawesome.com License - https://fontawesome.com/license (Commercial License) --><path d="M463.1 176h-89.42l-100.4-160.4C269 6.613 257.6 0 246.7 0H181.2C171.1 0 161.7 4.646 155.6 12.75C149.6 20.84 147.7 31.07 150.5 40.81L193.1 176H152L113.6 124.8C107.6 116.8 98.01 112 88 112H31.99c-9.922 0-19.12 4.489-25.22 12.31C.6702 132.1-1.439 142.1 .9751 151.8l30.35 104.2l-30.19 103.7c-2.572 10.21-.4631 20.22 5.64 28.04C12.88 395.5 22.07 400 31.99 400h56.01c10.01 0 19.58-4.781 25.6-12.79L152 336h41.05l-42.48 134.8c-2.918 10.13-1.033 20.36 5.067 28.46C161.8 507.4 171.1 512 181.2 512h65.5c11.45 0 22.1-6.182 27.77-16.13L374.6 336h89.42C502.5 336 576 304.8 576 256S502.5 176 463.1 176zM463.1 288h-116l-110.1 176H203L258.5 288H128L80.01 352H53.36l27.97-96l-27.99-96H80.01l47.99 64h130.5L203 48h34.81L347.1 224h116c26.24 0 62.61 21.75 64.01 31.91C526.6 266.2 490.2 288 463.1 288z"/></svg>