<svg xmlns="http://www.w3.org/2000/svg" viewBox="0 0 512 512"><!--! Font Awesome Pro 6.0.0-alpha3 by @fontawesome - https://fontawesome.com License - https://fontawesome.com/license (Commercial License) --><path d="M488 464h-208.3c-12.81 0-25.38-2.344-37.31-6.938L48 382.4v-24.31l198.3-50.81C254.8 305.1 263.4 304 272.1 304H488C501.3 304 512 293.3 512 280S501.3 256 488 256h-104.7L130.4 9.373C124.4 3.334 116.2-.041 107.7 0L31.86 .3613C11.72 .457-3.322 18.9 .6348 38.65l60.06 266.6l-30.6 7.836C12.38 317.6 0 333.6 0 351.8v36.03c0 16.41 10.28 31.41 25.66 37.34l199.6 76.64C242.7 508.6 261.1 512 279.8 512H488c13.25 0 24-10.75 24-24S501.3 464 488 464zM216 352c-13.25 0-23.1 10.74-23.1 24c0 13.25 10.75 24 23.1 24h144c13.25 0 24-10.75 24-24c0-13.26-10.75-24-24-24H216z"/></svg>