<svg xmlns="http://www.w3.org/2000/svg" viewBox="0 0 640 512"><!--! Font Awesome Pro 6.0.0-alpha3 by @fontawesome - https://fontawesome.com License - https://fontawesome.com/license (Commercial License) --><path d="M616 464h-592C10.75 464 0 474.7 0 487.1S10.75 512 23.1 512h592c13.25 0 24-10.75 24-23.1S629.3 464 616 464zM113.4 312.4c9.125 7.75 20.5 13.75 32.5 16.87l306.4 80c22.63 5.875 57 11 93.25 1.375c34.25-9.125 54.63-25 60.75-47C612.4 341 602.6 317 577.3 292C556.4 271.4 528.1 256 495.5 247.5l-98-25.62L294.9 33.75c-6.375-11.63-17.12-20-30-23.38C228.6 .875 227.1 0 219.1 0C206.2 0 193.6 5.25 184.5 14.75C172.4 27.25 168.1 45.38 173.1 62L206.8 172L129.1 152L106.4 94.88c-5.75-14-17.62-21.38-32.25-25.25C60 66 55.75 64.5 48 64.5c-35.38 0-48 28.62-48 45v84.5c0 14.12 6.25 27.5 17 36.62L113.4 312.4zM48 109.5l13.1 3.625L94.62 192.4l183 47.75L219.1 48L252.8 56.75l112.6 206.4l117.9 30.75c24.63 6.375 45.38 17.62 60.38 32.25C558.8 341 560.4 349.4 560 350.9c-.5 1.375-6.125 7.875-26.88 13.37c-6.75 1.751-31.62 8.25-68.75-1.5l-306.4-80C153 281.5 148.4 279 144.5 275.8L48 194V109.5z"/></svg>