<svg xmlns="http://www.w3.org/2000/svg" viewBox="0 0 640 512"><!--! Font Awesome Pro 6.0.0-alpha3 by @fontawesome - https://fontawesome.com License - https://fontawesome.com/license (Commercial License) --><path d="M630.8 469.1L460.1 336H496c38.46 0 111.1-31.15 111.1-80S534.5 176 496 176h-89.42L306.2 15.57C301 6.613 289.6 .0016 278.7 .0016H213.2c-10.14 0-19.47 4.644-25.57 12.75C181.5 20.84 179.7 31.07 182.5 40.81l32.17 102.1L38.81 5.109C34.41 1.672 29.19 0 24.03 0C16.91 0 9.845 3.156 5.126 9.187C-3.061 19.62-1.249 34.72 9.189 42.89l591.1 463.1c10.5 8.203 25.56 6.328 33.69-4.078C643.1 492.4 641.2 477.3 630.8 469.1zM281.5 195.3L235 48h34.81L379.1 224H496c26.24 0 62.61 21.75 64 31.91C558.6 266.2 522.2 288 496 288h-96.25L281.5 195.3zM269.9 464H235l46.27-146.8L244.1 288H160l-47.99 64H85.36l27.97-96L86.69 164.6L37.83 126.3C32.78 133.9 30.75 142.9 32.97 151.8l30.35 104.2l-30.19 103.7c-2.572 10.21-.4629 20.22 5.641 28.04C44.88 395.5 54.07 400 63.99 400h56.01c10.01 0 19.58-4.781 25.6-12.79L184 336h41.05l-42.48 134.8c-2.918 10.13-1.032 20.36 5.067 28.46c6.104 8.105 15.42 12.75 25.57 12.75h65.5c11.45 0 22.09-6.18 27.77-16.13l66.76-106.6l-37.98-29.77L269.9 464z"/></svg>