<svg xmlns="http://www.w3.org/2000/svg" viewBox="0 0 512 512"><!--! Font Awesome Pro 6.0.0-alpha3 by @fontawesome - https://fontawesome.com License - https://fontawesome.com/license (Commercial License) --><path d="M176 111.1v41.42L15.57 253.8C6.613 258.1 0 270.4 0 281.3v65.51c0 10.14 4.646 19.46 12.75 25.56c8.094 6.096 18.32 7.985 28.06 5.186L176 334.9v25.06l-51.19 38.39C116.8 404.4 112 413.1 112 423.1v56.01c0 9.922 4.489 19.11 12.31 25.22c7.824 6.103 17.83 8.217 27.46 5.803l104.2-30.35l103.7 30.19c10.21 2.572 20.22 .4582 28.04-5.645C395.5 499.1 400 489.9 400 480v-56.01c0-10.01-4.781-19.58-12.79-25.6L336 359.1v-25.06l134.8 42.48c10.13 2.918 20.36 1.029 28.46-5.071C507.4 366.2 512 356.9 512 346.8V281.3c0-11.45-6.182-22.09-16.13-27.77L336 153.4v-41.42C336 73.54 304.8 0 256 0S176 73.54 176 111.1zM288 112V180l176 110.1v34.81L288 269.5v114.5l64 47.99v26.65l-96-27.97l-96 27.99v-26.67l64-47.99V269.5l-176 55.47V290.1L224 180V112c0-26.24 21.75-62.61 31.91-64.01C266.2 49.39 288 85.76 288 112z"/></svg>