<svg xmlns="http://www.w3.org/2000/svg" viewBox="0 0 640 512"><!--! Font Awesome Pro 6.0.0-alpha3 by @fontawesome - https://fontawesome.com License - https://fontawesome.com/license (Commercial License) --><path d="M630.8 469.1l-131.1-102.7l35.04 11.04c10.13 2.918 20.36 1.025 28.46-5.074C571.4 366.2 576 356.9 576 346.8V281.3c0-11.45-6.182-22.09-16.13-27.77L400 153.4V111.1C400 73.54 368.8 0 320 0S240 73.54 240 112v41.42L233.4 157.6L38.81 5.109C34.41 1.672 29.19 0 24.03 0C16.91 0 9.844 3.156 5.126 9.188c-8.188 10.44-6.375 25.53 4.062 33.7l591.1 463.1c10.5 8.203 25.56 6.328 33.69-4.078C643.1 492.4 641.2 477.3 630.8 469.1zM392.4 282.2L273.5 189.1L288 180V112c0-26.24 21.75-62.61 31.91-64.01C330.2 49.39 352 85.76 352 112v68l176 110.1v34.81L392.4 282.2zM416 458.6l-96-27.97l-96 27.99v-26.67l64-47.99v-61.58L239.8 284.7L112 324.1V290.1l74.97-46.92L146.8 211.7l-67.22 42.07C70.61 258.1 64 270.4 64 281.3v65.51c0 10.14 4.646 19.46 12.75 25.56c8.094 6.096 18.32 7.984 28.06 5.186L240 334.9v25.06l-51.19 38.39C180.8 404.4 176 413.1 176 423.1v56.01c0 9.922 4.489 19.12 12.31 25.22c7.824 6.102 17.83 8.216 27.46 5.802l104.2-30.35l103.7 30.19c10.21 2.572 20.22 .458 28.04-5.644C459.5 499.1 464 489.9 464 480v-19.64L416 422.7V458.6z"/></svg>