<svg xmlns="http://www.w3.org/2000/svg" viewBox="0 0 448 512"><!--! Font Awesome Pro 6.0.0-alpha3 by @fontawesome - https://fontawesome.com License - https://fontawesome.com/license (Commercial License) --><path d="M216 200V180H180V216H200C208.8 216 216 208.8 216 200zM172 136H152c-8.8 0-16 7.2-16 16v20h36V136zM152 216h20V180H136V200C136 208.8 143.2 216 152 216zM216 152c0-8.8-7.2-16-16-16H180v36H216V152zM152 320h48c8.8 0 16-7.2 16-16V256c0-8.8-7.2-16-16-16h-48c-8.8 0-16 7.2-16 16v48C136 312.8 143.2 320 152 320zM312 200V180h-36V216h20C304.8 216 312 208.8 312 200zM312 152c0-8.8-7.2-16-16-16h-20v36h36V152zM248 216h20V180H232V200C232 208.8 239.2 216 248 216zM268 136H248c-8.8 0-16 7.2-16 16v20h36V136zM392 464H384V88C384 74.75 373.3 64 360 64h-8.006V48c0-8.837-7.163-16-16-16H248V23.1C248 10.75 237.3 0 224 0S200 10.75 200 23.1V32H112C103.2 32 96 39.16 96 48V64H88C74.75 64 64 74.75 64 88V464H55.1C42.75 464 32 474.7 32 487.1S42.75 512 55.1 512H392C405.3 512 416 501.3 416 488S405.3 464 392 464zM336 464h-224v-352h224V464z"/></svg>