<svg xmlns="http://www.w3.org/2000/svg" viewBox="0 0 640 512"><!--! Font Awesome Pro 6.0.0-alpha3 by @fontawesome - https://fontawesome.com License - https://fontawesome.com/license (Commercial License) --><path d="M616 32H248C234.8 32 224 42.75 224 56v112C224 181.3 234.8 192 248 192h368C629.3 192 640 181.3 640 168v-112C640 42.75 629.3 32 616 32zM592 144H512v-64h80V144zM616 320H248C234.8 320 224 330.8 224 344v112C224 469.3 234.8 480 248 480h368c13.25 0 24-10.75 24-24v-112C640 330.8 629.3 320 616 320zM592 432H352v-64h240V432zM168 200C168 213.3 157.3 224 144 224S120 213.3 120 200C120 186.8 109.2 176 96 176H72C58.78 176 48 186.8 48 200C48 213.3 37.25 224 24 224S0 213.3 0 200C0 160.3 32.31 128 72 128H96C135.7 128 168 160.3 168 200zM168 488C168 501.3 157.3 512 144 512s-24-10.75-24-24c0-13.22-10.78-24-24-24H72c-13.22 0-24 10.78-24 24C48 501.3 37.25 512 24 512S0 501.3 0 488C0 448.3 32.31 416 72 416H96C135.7 416 168 448.3 168 488zM32 48C32 21.49 53.49 0 80 0S128 21.49 128 48S106.5 96 80 96S32 74.51 32 48zM80 384C53.49 384 32 362.5 32 336S53.49 288 80 288S128 309.5 128 336S106.5 384 80 384z"/></svg>