<svg xmlns="http://www.w3.org/2000/svg" viewBox="0 0 640 512"><!--! Font Awesome Pro 6.0.0-alpha3 by @fontawesome - https://fontawesome.com License - https://fontawesome.com/license (Commercial License) --><path d="M551.2 153.6c-7.957 0-15.74 1.189-23.2 3.477V123.2C528 81.73 494.3 48 452.8 48h-84.89c-18.61 0-35.52 7.439-47.9 19.5C307.6 55.44 290.7 48 272.1 48H187.2C145.7 48 112 81.73 112 123.2v33.88C104.5 154.8 96.76 153.6 88.8 153.6C39.01 153.6 .0004 198.6 .0004 256s39.01 102.4 88.8 102.4c7.957 0 15.74-1.189 23.2-3.477v33.88C112 430.3 145.7 464 187.2 464h84.9c18.61 0 35.52-7.441 47.91-19.5C332.4 456.6 349.3 464 367.9 464h84.89C494.3 464 528 430.3 528 388.8v-33.88c7.457 2.287 15.24 3.477 23.2 3.477C600.1 358.4 640 313.4 640 256S600.1 153.6 551.2 153.6zM551.2 310.4c-11.8 0-22.34-6.754-29.75-17.46c-4.062-5.867-10.41-9.74-17.55-9.74C492.5 283.2 480 292.5 480 303.9v84.9C480 403.8 467.8 416 452.8 416h-84.89c-11.44 0-20.71-9.27-20.71-20.71c0-7.139 3.871-13.48 9.74-17.55c10.71-7.412 17.46-17.95 17.46-29.75c0-22.53-24.36-40.8-54.4-40.8c-30.04 0-54.4 18.27-54.4 40.8c0 11.8 6.75 22.34 17.46 29.75c5.869 4.062 9.74 10.41 9.74 17.55C292.8 406.7 283.5 416 272.1 416H187.2C172.2 416 160 403.8 160 388.8V303.9c0-11.44-12.47-20.71-23.9-20.71c-7.137 0-13.49 3.873-17.55 9.74C111.1 303.6 100.6 310.4 88.8 310.4C66.27 310.4 48 286 48 256s18.27-54.4 40.8-54.4c11.8 0 22.34 6.752 29.75 17.46C122.6 224.9 128.1 228.8 136.1 228.8C147.5 228.8 160 219.4 160 208V123.2C160 108.2 172.2 96 187.2 96h84.9c11.43 0 20.71 9.268 20.71 20.7c0 7.139-3.871 13.49-9.74 17.55C272.4 141.7 265.6 152.2 265.6 164c0 22.53 24.36 40.8 54.4 40.8c30.04 0 54.4-18.27 54.4-40.8c0-11.8-6.752-22.34-17.46-29.75c-5.869-4.062-9.74-10.41-9.74-17.55C347.2 105.3 356.5 96 367.9 96h84.89C467.8 96 480 108.2 480 123.2V208c0 11.44 12.47 20.8 23.91 20.8c7.137 0 13.48-3.873 17.55-9.742c7.41-10.71 17.95-17.46 29.75-17.46C573.7 201.6 592 225.1 592 256S573.7 310.4 551.2 310.4z"/></svg>