<svg xmlns="http://www.w3.org/2000/svg" viewBox="0 0 448 512"><!--! Font Awesome Pro 6.0.0-alpha3 by @fontawesome - https://fontawesome.com License - https://fontawesome.com/license (Commercial License) --><path d="M160 32H32C14.33 32 0 46.33 0 64v128c0 17.67 14.33 32 32 32h128c17.67 0 32-14.33 32-32V64C192 46.33 177.7 32 160 32zM144 176h-96v-96h96V176zM160 288H32c-17.67 0-32 14.33-32 32v128c0 17.67 14.33 32 32 32h128c17.67 0 32-14.33 32-32v-128C192 302.3 177.7 288 160 288zM144 432h-96v-96h96V432zM416 32h-128c-17.67 0-32 14.33-32 32v128c0 17.67 14.33 32 32 32h128c17.67 0 32-14.33 32-32V64C448 46.33 433.7 32 416 32zM400 176h-96v-96h96V176zM416 320h-64V288h-96v192h64v-96h32v32h96V288h-32V320zM352 480h32v-32h-32V480zM416 480h32v-32h-32V480zM112 112h-32v32h32V112zM368 112h-32v32h32V112zM112 368h-32v32h32V368z"/></svg>