<svg xmlns="http://www.w3.org/2000/svg" viewBox="0 0 640 512"><!--! Font Awesome Pro 6.0.0-alpha3 by @fontawesome - https://fontawesome.com License - https://fontawesome.com/license (Commercial License) --><path d="M616.3 61.27c-54.25-78.48-181.9-80.98-283.3-10.87C275.3 90.39 237.4 145.8 224.7 200.2C214.7 242.9 194.5 281.7 168 316.1C167.7 315.8 152.9 307.1 137.3 318.8l-123.6 86.73c-14.5 10.12-18 30.12-7.875 44.62l33.75 48.12c10.5 14.1 30.5 17.75 44.63 7.873l123.6-86.48c9.875-6.874 14-18.12 13-29.24c30.38-9.248 61.75-14.25 93.5-13.1c28.63 .25 34.88 3.749 58.25 4.124c49.75 .4999 104.6-16.12 154.1-50.37C629.7 258.9 669.8 138.5 616.3 61.27zM207.9 343.1C217.8 331.1 226.3 317.5 234.3 303.6c8.5 16.75 12.63 20.5 21 29.62C239.4 335.7 223.7 339.2 207.9 343.1zM499.3 290.7c-39.63 27.49-84.63 42.37-126.5 41.87c-139.5-1.5-135.8-157.3-12.5-242.7c56.63-39.12 106-41.87 126.6-41.87c10 0 10 0 0 0C625.2 49.53 624.2 204.4 499.3 290.7z"/></svg>