<svg xmlns="http://www.w3.org/2000/svg" viewBox="0 0 512 512"><!--! Font Awesome Pro 6.0.0-alpha3 by @fontawesome - https://fontawesome.com License - https://fontawesome.com/license (Commercial License) --><path d="M464 256H512c0 141.4-114.6 256-256 256s-256-114.6-256-256s114.6-256 256-256c62.04 0 118.7 22.38 162.9 59.14l52.11-52.11c9.375-9.375 24.56-9.375 33.94 0s9.375 24.56 0 33.94l-190 190C318.2 238.7 320 247.1 320 256c0 35.35-28.65 64-64 64S192 291.3 192 256c0-35.35 28.65-64 64-64c8.869 0 17.31 1.811 24.99 5.072l34.85-34.85C298.5 150.1 278.2 144 256 144C194.2 144 144 194.2 144 256s50.24 112 112 112c61.76 0 112-50.24 112-112H416c0 78.37-56.42 143.3-130.8 157.1C277.9 405.1 267.6 400 256 400s-21.88 5.135-29.19 13.06c-64.89-12-115.9-62.97-127.9-127.9C106.9 277.9 112 267.6 112 256S106.9 234.1 98.94 226.8C112.7 152.4 177.6 96 256 96c35.53 0 68.12 11.8 94.57 31.49l34.16-34.16C349.3 65.13 304.7 48 256 48c-103.4 0-189.2 75.91-205.1 174.9C39.79 229.1 32 241.8 32 256s7.787 26.02 18.89 33.13c14.2 88.15 83.83 157.8 171.1 171.1C229.1 472.2 241.8 480 256 480s26.02-7.787 33.13-18.89C388.1 445.2 464 359.4 464 256z"/></svg>