<svg xmlns="http://www.w3.org/2000/svg" viewBox="0 0 640 512"><!--! Font Awesome Pro 6.0.0-alpha3 by @fontawesome - https://fontawesome.com License - https://fontawesome.com/license (Commercial License) --><path d="M624.3 100.8l-53.11-53.11C561.2 37.63 547.6 31.1 533.4 31.1L450.6 32C431.7 12.35 405.4 0 376 0c-49.13 0-90.17 34.34-100.1 80.21C255.9 79.66 236.6 85.47 221.5 96.94C196.3 89.72 168.8 95.34 148.5 110.8C141.2 108.7 133.7 107.6 126.1 107.6c-45.11 0-81.86 35.09-82.36 78.41C17.48 199.5 0 226.3 0 256s17.48 56.5 43.77 69.97C44.23 366.1 76 398.9 116.6 403.5l37.38 93.46C157.6 506 166.4 512 176.2 512h23.75C213.3 512 224 501.3 224 487.1v-71.32C237.9 426.5 254.5 432 271.1 432S306.1 426.5 320 416.7v71.32C320 501.3 330.7 512 343.1 512h23.75c9.812 0 18.64-5.975 22.29-15.09l37.38-93.46c40.58-4.588 72.35-37.31 72.82-77.48C526.5 312.5 543.1 285.8 543.1 256c0-26.19-13.19-49.5-34.08-64l76.64-.0007c20.24 0 38.75-11.44 47.8-29.54C644.6 141.9 640.6 117 624.3 100.8zM469.1 286.5c-6.641 1.312-12.41 5.375-15.88 11.19c-3.484 5.812-4.359 12.81-2.391 19.28c.9844 3.25 1.438 5.844 1.438 8.125c-.0156 22.36-27.1 39.29-51.01 27.06c-9.695-4.957-22.83-1.414-30.16 6.641c-10.33 11.35-27.57 14.1-42.83 7.145c-9.906-5.156-22.06-2.719-29.3 5.75c-13.31 15.69-40.56 15.69-53.88 0c-7.25-8.5-19.41-10.91-29.3-5.75c-15.28 7.812-32.49 4.182-42.79-7.098c-7.357-8.053-20.49-11.64-30.2-6.688c-23.97 12.23-51.01-4.732-51.01-27.06c0-2.281 .4531-4.875 1.438-8.125C95.17 310.5 94.3 303.5 90.81 297.7C87.34 291.9 81.58 287.8 74.94 286.5C59.33 283.4 48 270.6 48 256s11.33-27.38 26.94-30.5c6.641-1.312 12.41-5.375 15.88-11.19C94.3 208.5 95.17 201.5 93.2 195C92.22 191.8 91.77 189.2 91.77 186.9c0-22.36 27.05-39.35 51.01-27.06c9.693 4.973 22.82 1.402 30.16-6.643C183.3 141.9 200.5 138.2 215.8 146.1c9.922 5.156 22.08 2.75 29.3-5.75c7.355-8.654 19.04-12.67 30.17-11.8C286.3 174 327.1 208 376 208c13.25 0 24-10.75 24-24S389.3 160 376 160C345.1 160 320 134.9 320 104c0-33.98 30.43-60.1 65.47-55.22C413 53.32 432 79.25 432 107.2v62.57c0 9.303 4.537 17.63 11.19 24.12c3.939 3.846 6.832 8.594 8.137 13.99c2.156 8.938 9.25 15.88 18.25 17.84C485.1 229 496 241.5 496 256C496 270.6 484.7 283.4 469.1 286.5zM511.1 111.1c-8.836 0-16-7.164-16-16s7.164-16 16-16c8.836 0 15.1 7.164 15.1 16S520.8 111.1 511.1 111.1z"/></svg>