<svg xmlns="http://www.w3.org/2000/svg" viewBox="0 0 384 512"><!--! Font Awesome Pro 6.0.0-alpha3 by @fontawesome - https://fontawesome.com License - https://fontawesome.com/license (Commercial License) --><path d="M384 352V32c0-17.75-14.25-32-32-32H32C14.25 0 0 14.25 0 32v320c0 17.75 14.25 32 32 32h6.875L3.25 467.4C-5.875 488.5 9.625 512 32.63 512h318.9c23 0 38.5-23.5 29.38-44.63L345.1 384H352C369.8 384 384 369.8 384 352zM56.75 464l55-128h160.5l55 128H56.75zM312.2 307.4C307.2 295.6 295.8 288 282.9 288H101.1C88.25 288 76.75 295.6 71.75 307.4L59.5 336H48v-288h288v288h-11.5L312.2 307.4z"/></svg>