<svg xmlns="http://www.w3.org/2000/svg" viewBox="0 0 576 512"><!--! Font Awesome Pro 6.0.0-alpha3 by @fontawesome - https://fontawesome.com License - https://fontawesome.com/license (Commercial License) --><path d="M512 32H64C28.65 32 0 60.65 0 96v320c0 35.35 28.65 64 64 64h448c35.35 0 64-28.65 64-64V96C576 60.65 547.3 32 512 32zM528 416c0 8.822-7.178 16-16 16H64c-8.822 0-16-7.178-16-16V96c0-8.822 7.178-16 16-16h448c8.822 0 16 7.178 16 16V416zM120 128C106.8 128 96 138.8 96 151.1v208C96 373.2 106.8 384 119.1 384C133.2 384 144 373.2 144 360V151.1C144 138.8 133.2 128 120 128zM192 128C183.2 128 176 135.2 176 143.1v224C176 376.8 183.2 384 192 384C200.8 384 208 376.8 208 368V143.1C208 135.2 200.8 128 192 128zM463.1 128C455.2 128 448 135.2 448 143.1v224C448 376.8 455.2 384 463.1 384s15.1-7.2 15.1-15.1v-224C479.1 135.2 472.8 128 463.1 128zM376 128c-13.2 0-23.99 10.8-23.99 23.1v208c0 13.2 10.79 23.1 23.99 23.1c13.2 0 24.01-10.8 24.01-23.1V151.1C400 138.8 389.2 128 376 128zM264 128c-13.2 0-24 10.8-24 23.1v208C240 373.2 250.8 384 264 384s24-10.8 24-23.1V151.1C288 138.8 277.2 128 264 128z"/></svg>