<svg xmlns="http://www.w3.org/2000/svg" viewBox="0 0 576 512"><!--! Font Awesome Pro 6.0.0-alpha3 by @fontawesome - https://fontawesome.com License - https://fontawesome.com/license (Commercial License) --><path d="M0 144v224C0 394.5 21.49 416 48 416V96C21.49 96 0 117.5 0 144zM96 96v320c0 26.51 21.49 48 48 48v-416C117.5 48 96 69.49 96 96zM512 0H256C220.7 0 192 28.65 192 64v384c0 35.35 28.65 64 64 64h256c35.35 0 64-28.65 64-64V64C576 28.65 547.3 0 512 0zM528 448c0 8.836-7.164 16-16 16H256c-8.836 0-16-7.164-16-16V64c0-8.838 7.164-16 16-16h256c8.836 0 16 7.162 16 16V448z"/></svg>