<svg xmlns="http://www.w3.org/2000/svg" viewBox="0 0 576 512"><!--! Font Awesome Pro 6.0.0-alpha3 by @fontawesome - https://fontawesome.com License - https://fontawesome.com/license (Commercial License) --><path d="M565.5 394.5l-114.3-320C442.1 49 418 32 390.1 32H185C157.1 32 133.9 49 124.8 74.47l-114.3 320C-4.412 436.2 26.49 480 70.75 480h434.5C549.5 480 580.4 436.2 565.5 394.5zM518.3 425.2C516.6 427.8 512.5 432 505.3 432H312v-24c0-13.25-10.75-24-24-24s-24 10.75-24 24v24H70.75c-7.221 0-11.29-4.25-13.08-6.783s-4.416-7.799-1.988-14.6l114.3-320C172.2 84.27 178.3 80 185 80H264v24C264 117.3 274.8 128 288 128s24-10.75 24-24V80h78.97c6.744 0 12.8 4.268 15.07 10.62l114.3 320C522.8 417.4 520.1 422.7 518.3 425.2zM288 192C274.8 192 264 202.8 264 216v80C264 309.3 274.8 320 288 320s24-10.75 24-24v-80C312 202.8 301.3 192 288 192z"/></svg>