<svg xmlns="http://www.w3.org/2000/svg" viewBox="0 0 512 512"><!--! Font Awesome Pro 6.0.0-alpha3 by @fontawesome - https://fontawesome.com License - https://fontawesome.com/license (Commercial License) --><path d="M367.1 104c-22.12 0-40 17.88-40 40s17.88 40 40 40S407.1 166.1 407.1 144S389.1 104 367.1 104zM505.1 19.33C503.9 13.71 498.4 8.208 492.8 6.958C460.1-.0417 434.6 0 409.1 0c-103.8 0-166.1 55.12-212.9 128h-101.4C78.49 128 59.24 139.9 51.99 154.5L2.493 253.2C.993 256.6 .1181 260.2-.0069 264c0 13.25 10.75 24 23.1 24h92.62L105.1 309.4c-9.249 19 4.376 34.75 6.25 36.63l53.75 53.75c15.5 15.5 33.75 7.5 36.62 6.125l21.37-10.5L223.1 488c0 13.25 10.75 24 23.1 24c3.625-.125 7.312-1 10.69-2.5l98.71-49.38c14.62-7.375 26.53-26.5 26.53-42.88l-.0642-101.5c72.75-46.88 128.1-109.5 128.1-212.8C512.1 77.5 512.1 51.96 505.1 19.33zM358.5 275c-36.88 18.5-121.1 60.13-166.7 82.75l-37.5-37.5C176.8 274.5 218.5 190.2 236.1 153.4C284.3 79.5 335.1 48 409.1 48c18 0 34.38 0 52.63 2.375c2.375 18.62 2.25 35.25 2.25 52.62C463.1 175.8 432.3 227.2 358.5 275z"/></svg>