<svg xmlns="http://www.w3.org/2000/svg" viewBox="0 0 640 512"><!--! Font Awesome Pro 6.0.0-alpha3 by @fontawesome - https://fontawesome.com License - https://fontawesome.com/license (Commercial License) --><path d="M640 224v232c0 13.25-10.75 24-24 24s-24-10.75-24-24v-122.1c-15.94 13.63-34.92 23.71-56 29.13V456c0 13.25-10.75 24-24 24s-24-10.75-24-24v-88.78c-16.58-1.174-32.71-4.426-48-9.871V456c0 13.25-10.75 24-24 24s-24-10.75-24-24v-124.8C377.2 320 363.1 306.7 353.3 291L344 277.5V456c0 13.25-10.75 24-24 24s-24-10.75-24-24V207.4l-48-70.06V456C248 469.3 237.3 480 224 480s-24-10.75-24-24V91.24C185.5 84.09 169.4 80 152.5 80C152.3 80 152.2 80.05 152 80.05V456C152 469.3 141.3 480 128 480s-24-10.75-24-24V92.1C70.88 109.1 48 142.4 48 181.1C48 182.1 47.54 182.1 47.41 184H48v272C48 469.3 37.25 480 24 480S0 469.3 0 456v-272h.5938C.4648 182.1 0 182.1 0 181.1C0 98.88 68.44 32 152.5 32c51 0 98.38 24.72 126.8 66.13L343.6 192H344v.5586l48.88 71.32C416.9 299 457.3 320 500.9 320C551.1 320 592 280.5 592 232c0-39.35-27.05-72.34-64-83.57v133C519.8 285.5 510.7 288 500.9 288C493.7 288 486.8 286.9 480 285.5V145.1c-16.6 2.021-32.73 6.045-48 12.53v101.6c-4.586-4.428-9.064-9.002-12.72-14.34l-65.34-95.37C394.6 115.4 446.2 96 500.9 96c73.92 0 133.1 56.79 138.3 128H640z"/></svg>