<svg xmlns="http://www.w3.org/2000/svg" viewBox="0 0 512 512"><!--! Font Awesome Pro 6.0.0-alpha3 by @fontawesome - https://fontawesome.com License - https://fontawesome.com/license (Commercial License) --><path d="M480.9 55.12c-3.125-9.875-11.71-16.63-20.96-16.63c-1.75 0-3.536 .2559-5.286 .7559c-18.25 5-37.75 7.875-58.12 7.875c-49.12 0-93.49-15.1-126.1-42.12C266.1 1.625 261.1 0 256 0S245.9 1.625 241.6 5C209 31.12 164.6 47.12 115.5 47.12c-20.37 0-39.87-2.875-58.12-8C55.64 38.75 53.93 38.46 52.18 38.46c-9.248 0-17.91 6.793-21.04 16.67C-5.852 175.1 9.406 410.4 256 512C502.6 410.4 517.9 175.1 480.9 55.12zM256 459.6c-86.51-40.27-144.8-102.4-173.4-184.9C72.91 246.9 67.73 218.8 65.51 192h380.1c-2.215 26.83-7.393 54.86-17.06 82.72C400.8 357.2 342.5 419.3 256 459.6z"/></svg>