<svg xmlns="http://www.w3.org/2000/svg" viewBox="0 0 512 512"><!--! Font Awesome Pro 6.0.0-alpha3 by @fontawesome - https://fontawesome.com License - https://fontawesome.com/license (Commercial License) --><path d="M424 336h-96C305.9 336 288 318.1 288 296S305.9 256 328 256H416c0 0 96-107 96-160s-43-96-96-96s-96 43-96 96c0 29.75 30.25 76.75 56.88 112H328c-48.5 0-88 39.5-88 88S279.5 384 328 384h96c22.12 0 40 17.88 40 40s-17.88 40-40 40H135.1C161.8 428.8 192 381.8 192 352c0-53-43-96-96-96s-96 43-96 96s96 160 96 160h328c48.5 0 88-39.5 88-88S472.5 336 424 336zM368 96c0-26.5 21.5-48 48-48s48 21.5 48 47.88c-.5 13.37-20.75 48.25-48 84.37C388.8 144.1 368.5 109.4 368 96zM96 436.2C68.75 400.1 48.5 365.4 48 352c0-26.5 21.5-48 48-48s48 21.5 48 47.88C143.5 365.2 123.2 400.1 96 436.2z"/></svg>