<svg xmlns="http://www.w3.org/2000/svg" viewBox="0 0 448 512"><!--! Font Awesome Pro 6.0.0-alpha3 by @fontawesome - https://fontawesome.com License - https://fontawesome.com/license (Commercial License) --><path d="M428.4 269.3c-30.5-45.5-11.75-104.5 12.1-155.5C445.4 105.6 444.7 96 439.5 88.63l-41.12-58.25c-4.625-6.5-11.86-10.22-19.23-10.22c-2.75 0-5.641 .4736-8.266 1.599c-15.37 5.875-32.62 8.875-50.24 8.875c-29.5 0-59.87-8.5-83.12-26.12C233.5 1.5 228.8 0 224 0S214.5 1.5 210.5 4.5C187.3 22.12 156.9 30.62 127.4 30.62c-17.62 0-34.87-2.1-50.25-8.875C74.51 20.75 71.78 20.22 68.9 20.22c-7.375 0-14.64 3.652-19.26 10.15L8.521 88.75c-5.25 7.375-5.875 16.87-1.875 25.12C31.39 164.8 50.14 223.7 19.64 269.3c-37.1 56.5-18.62 139.4 38.75 166L224 512l165.6-76.75C446.1 408.6 466.4 325.8 428.4 269.3zM397.2 355.6c-4.725 16.93-14.86 30.09-27.79 36.09L224 459.1l-145.4-67.38c-12.95-6.012-23.09-19.17-27.81-36.1c-5.762-20.64-2.512-42.91 8.732-59.63C81.99 262.5 85.87 225.6 81.91 192h284.2c-3.955 33.6-.0684 70.51 22.4 104C399.7 312.7 402.1 334.1 397.2 355.6z"/></svg>