<svg xmlns="http://www.w3.org/2000/svg" viewBox="0 0 384 512"><!--! Font Awesome Pro 6.0.0-alpha3 by @fontawesome - https://fontawesome.com License - https://fontawesome.com/license (Commercial License) --><path d="M240 320c84.15 0 151.7-72.54 143.3-158.4c-7.292-74.81-74.54-129.6-149.7-129.6L104 31.1C81.91 32 64 49.91 64 71.1V272H24C10.75 272 0 282.8 0 296S10.75 320 24 320H64v48H24C10.75 368 0 378.8 0 392S10.75 416 24 416H64v40C64 469.3 74.75 480 88 480s24-10.75 24-24V416h184c13.25 0 24-10.75 24-24s-10.75-24-24-24H112V320H240zM112 272v-192l124.2-.0001c46.43 0 89.08 31.29 97.93 76.87C346 218.2 299.2 272 240 272H112z"/></svg>