<svg xmlns="http://www.w3.org/2000/svg" viewBox="0 0 512 512"><!--! Font Awesome Pro 6.0.0-alpha3 by @fontawesome - https://fontawesome.com License - https://fontawesome.com/license (Commercial License) --><path d="M400 313.4l-8.277-3c-35.02-12.88-42.36-21.09-39.17-44.03c1.219-8.969 4.779-15.44 10.87-19.78C372.5 240.1 387 238.3 403.7 241.6c6.779 1.312 15.53 4.344 26.74 9.186c12.09 5.25 26.27-.3125 31.55-12.5c5.248-12.16-.3125-26.28-12.5-31.56c-14.59-6.311-26.21-10.22-36.61-12.25c-29.87-5.906-57.39-1.219-77.29 13.03c-16.93 12.06-27.49 30.15-30.55 52.28c-9.186 66.49 44.42 86.18 70.16 95.65l8.684 3.125c41.11 14.69 50.98 21.78 47.48 47.09c-1.219 8.969-4.779 15.44-10.87 19.78c-8.967 6.406-23.55 8.281-40.39 4.938c-10.53-1.969-23.96-8.031-35.83-13.38l-6.561-2.936c-12.06-5.375-26.27 .0938-31.65 12.22c-5.373 12.12 .0938 26.31 12.21 31.65l6.311 2.844c14.28 6.436 30.49 13.72 46.48 16.75C379.5 479.2 387.8 480 395.7 480c20.18 0 38.36-5.281 52.64-15.5c16.93-12.06 27.49-30.15 30.55-52.28C488.2 344.9 435.2 325.9 400 313.4zM287.1 168c0-75-61-136-135.1-136H55.1C42.75 32 32 42.75 32 56v400C32 469.3 42.75 480 55.1 480c13.25 0 23.1-10.75 23.1-24V304h72c3.867 0 7.502-.8242 11.29-1.143l45.63 159.7C211.9 473.1 221.5 480 231.1 480c2.156 0 4.375-.2813 6.594-.9375c12.75-3.625 20.12-16.91 16.47-29.66L209.7 290.7C255.8 268.9 287.1 222.3 287.1 168zM151.1 256H79.99V80h71.99c48.53 0 87.99 39.47 87.99 88S200.5 256 151.1 256z"/></svg>