<svg xmlns="http://www.w3.org/2000/svg" viewBox="0 0 512 512"><!--! Font Awesome Pro 6.0.0-alpha3 by @fontawesome - https://fontawesome.com License - https://fontawesome.com/license (Commercial License) --><path d="M256 168C256 93 195 32 120 32h-96C10.75 32 0 42.75 0 56v400C0 469.3 10.75 480 24 480s24-10.75 24-24V304h72c3.869 0 7.51-.8242 11.3-1.143l45.64 159.7C179.9 473.1 189.5 480 200 480c2.156 0 4.375-.2813 6.594-.9375c12.75-3.625 20.12-16.91 16.47-29.66L177.7 290.7C223.8 268.9 256 222.3 256 168zM120 256H48V80h72c48.53 0 88 39.47 88 88S168.5 256 120 256zM400 160h-88C298.8 160 288 170.8 288 184v304c0 13.25 10.75 24 24 24s24-10.75 24-24V384h64c61.75 0 112-50.25 112-112S461.8 160 400 160zM400 336h-64v-128h64c35.3 0 64 28.72 64 64S435.3 336 400 336z"/></svg>