<svg xmlns="http://www.w3.org/2000/svg" viewBox="0 0 640 512"><!--! Font Awesome Pro 6.0.0-alpha3 by @fontawesome - https://fontawesome.com License - https://fontawesome.com/license (Commercial License) --><path d="M592.1 208H596C620.3 208 640 188.3 640 164C640 91.13 580.9 32 508 32l-124 .0008C383.1 14.33 369.7 0 352 0H256C238.3 0 223.1 14.33 223.1 32l-159.1-.0005C28.74 32 0 60.75 0 95.1v197.5c0 17 6.745 33.25 18.75 45.25l77.25 77.25L96 432C96 476.3 131.8 512 176 512s79.98-35.79 79.98-80.04c0-5.5-.6083-10.71-1.608-15.96h163.3c-1.125 5.25-1.666 10.51-1.666 16.01C415.1 476.3 451.8 512 496 512s80-35.75 80-79.1c0-5.5-.6291-10.75-1.629-16l33.63 .0069C625.6 416 640 401.6 640 384V282.5c0-17-6.75-33.24-18.75-45.24L592.1 208zM175.1 464c-17.62 0-31.1-14.38-31.1-32s14.37-32 31.1-32s31.1 14.38 31.1 32S193.6 464 175.1 464zM368 368H223.6C210.3 358.1 193.9 352 176 352s-34.25 6.125-47.63 16H115.8L52.63 304.8c-3-3-4.75-7-4.75-11.25V96c0-8.75 7.25-16 16-16h444c45 0 81.88 35.5 83.88 80l-223.8 .001L368 368zM572.3 256H416V208h101.5c4.25 0 8.375 1.75 11.5 4.75L572.3 256zM495.1 464c-17.62 0-31.1-14.38-31.1-32s14.37-32 31.1-32c17.63 0 31.1 14.38 31.1 32S513.6 464 495.1 464zM592 368h-48.38C530.3 358.1 513.9 352 496 352s-34.25 6.125-47.63 16H416v-64h176V368zM288 128H128C110.4 128 96 142.4 96 160v64c0 17.6 14.4 32 32 32h160c17.6 0 32-14.4 32-32V160C320 142.4 305.6 128 288 128z"/></svg>