<svg xmlns="http://www.w3.org/2000/svg" viewBox="0 0 512 512"><!--! Font Awesome Pro 6.0.0-alpha3 by @fontawesome - https://fontawesome.com License - https://fontawesome.com/license (Commercial License) --><path d="M325.9 115.9l55.37-81.13c3.75-7.5 3.375-16.25-.1-23.38C375.9 4.375 368.2 0 359.9 0H151.1C143.6 0 135.1 4.25 131.6 11.38c-4.375 7.125-4.874 15.87-1.124 23.38L185.1 115.9C-9.914 235.6 .0833 392 .0833 412c0 55.25 49.14 100 109.6 100h292.5c60.62 0 109.7-44.75 109.7-100C511.9 392.4 520.7 235 325.9 115.9zM314.2 48l-38.25 56H235.1L197.7 48H314.2zM463.9 412c0 28.62-27.75 52-61.75 52H109.7c-33.1 0-61.62-23.38-61.62-52c-.875-81 32.62-175.5 170.9-260h74.12C430.6 236.1 464.6 330.9 463.9 412z"/></svg>