<svg xmlns="http://www.w3.org/2000/svg" viewBox="0 0 512 512"><!--! Font Awesome Pro 6.0.0-alpha3 by @fontawesome - https://fontawesome.com License - https://fontawesome.com/license (Commercial License) --><path d="M325.1 115.9l55.37-81.13c3.75-7.5 3.375-16.25-1-23.38C375.1 4.375 368.2 0 359.1 0H151.1c-8.375 0-16 4.25-20.38 11.38S126.7 27.25 130.5 34.75l55.5 81.13C-9.918 235.6 .0833 392 .0833 412c0 55.25 49.14 100 109.6 100h292.5c60.62 0 109.7-44.75 109.7-100C511.9 392.4 520.7 235 325.1 115.9zM314.2 48l-38.25 56h-40L197.7 48H314.2zM402.2 464h-292.5c-34 0-61.63-23.38-61.63-52C47.21 331 80.71 236.5 218.1 152h74.13c137.5 84.13 171.5 178.9 170.9 260C463.1 440.6 436.2 464 402.2 464zM327.1 359.8c-4.139 23.88-21.77 40.01-47 45.74V416c0 13.25-10.75 24-24 24s-24-10.75-24-24v-11.4c-9.527-2.219-18.95-5.254-27.44-8.316l-4.656-1.656c-12.47-4.438-19.03-18.16-14.59-30.64s18.12-19 30.66-14.61l4.844 1.75c8.812 3.172 18.78 6.766 26.5 7.922c16.97 2.719 31.19-.6094 32.38-7.391c.8125-4.703 1.312-7.547-30.38-16.61l-6.5-1.875c-18.19-5.359-66.44-19.55-57.91-69.02C189.1 240.3 206.8 224.2 232.1 218.5V208c0-13.25 10.75-24 24-24s24 10.75 24 24v11.25c5.916 1.365 12.23 3.096 19.81 5.732c12.53 4.344 19.16 18.02 14.81 30.55c-4.375 12.52-18.12 19.19-30.56 14.8c-8.219-2.859-14.62-4.625-19.59-5.406C247.6 262.3 233.5 265.5 232.3 272.3C231.6 276.4 231 279.6 256.4 287.1l6.188 1.797C288.1 296.2 335.7 309.8 327.1 359.8z"/></svg>