<svg xmlns="http://www.w3.org/2000/svg" viewBox="0 0 576 512"><!--! Font Awesome Pro 6.0.0-alpha3 by @fontawesome - https://fontawesome.com License - https://fontawesome.com/license (Commercial License) --><path d="M560 415.1h-127.1c-8.801 0-16 7.199-16 16l-.0078 32.02c0 8.799 7.199 16 16 16H560c8.801 0 16-7.201 16-16v-32.02C576 423.2 568.8 415.1 560 415.1zM560 287.1h-127.1c-8.799 0-15.99 7.183-15.99 15.98s7.192 16.02 15.99 16.02h127.1C568.8 319.1 576 312.8 576 303.1S568.8 287.1 560 287.1zM560 351.1h-127.1c-8.799 0-15.99 7.179-15.99 15.98s7.199 15.1 15.1 15.1h127.1c8.799 0 15.1-7.199 15.1-15.1S568.8 351.1 560 351.1zM560 191.1h-127.1c-8.801 0-16 7.201-16 16l.0078 31.98c0 8.801 7.191 16.01 15.99 16.01H560c8.801 0 16-7.214 16-16.01V207.1C576 199.2 568.8 191.1 560 191.1zM560 32h-127.1c-8.801 0-16 7.199-16 16l.0078 31.99c0 8.799 7.191 16 15.99 16H560c8.801 0 16-7.205 16-16V48C576 39.2 568.8 32 560 32zM560 127.1h-127.1c-8.799 0-15.99 7.191-15.99 15.99c0 8.799 7.199 15.1 15.1 15.1h127.1C568.8 159.1 576 152.8 576 143.1C576 135.2 568.8 127.1 560 127.1zM320 32.03h-207.1c-61.86 0-111.1 50.14-111.1 111.1c0 50.42 33.51 92.54 79.33 106.6l-72.93 125.4c-13.25 22.1-5.375 52.24 17.62 65.62l55.37 32.01C86.99 477.9 95.25 480 103.4 480c16.61 0 32.76-8.567 41.65-23.1l115.4-199.1l59.6-.0138c17.67 0 31.1-14.32 31.1-31.1V64.03C352 46.35 337.7 32.03 320 32.03zM103.4 432l-55.52-31.91L131.8 256h73.25L103.4 432zM304 208h-192c-35.29 0-64-28.71-64-64s28.71-64 64-64h192V208z"/></svg>