<svg xmlns="http://www.w3.org/2000/svg" viewBox="0 0 512 512"><!--! Font Awesome Pro 6.0.0-alpha3 by @fontawesome - https://fontawesome.com License - https://fontawesome.com/license (Commercial License) --><path d="M256 384H208C199.2 384 192 391.2 192 400V416c0 8.836 7.164 16 16 16H256c8.838 0 16-7.164 16-16v-16C272 391.2 264.8 384 256 384zM256 304H208C199.2 304 192 311.2 192 320v16C192 344.8 199.2 352 208 352H256c8.838 0 16-7.164 16-16V320C272 311.2 264.8 304 256 304zM144 304H96c-8.836 0-16 7.164-16 16v16C80 344.8 87.16 352 96 352h48C152.8 352 160 344.8 160 336V320C160 311.2 152.8 304 144 304zM144 384H96c-8.836 0-16 7.164-16 16V416c0 8.836 7.164 16 16 16h48C152.8 432 160 424.8 160 416v-16C160 391.2 152.8 384 144 384zM256 16C256 7.199 248.8 0 240 0S224 7.199 224 16V64h32V16zM192 16C192 7.199 184.8 0 176 0h-32C135.2 0 128 7.199 128 16V64h64V16zM496 0h-32C455.2 0 448 7.199 448 16v256C448 280.8 455.2 288 464 288h32C504.8 288 512 280.8 512 272v-256C512 7.199 504.8 0 496 0zM256 176H96C87.16 176 80 183.2 80 192v48C80 248.8 87.16 256 96 256h160c8.838 0 16-7.164 16-16V192C272 183.2 264.8 176 256 176zM400 0C391.2 0 384 7.199 384 16v256C384 280.8 391.2 288 400 288S416 280.8 416 272v-256C416 7.199 408.8 0 400 0zM288 96H64C28.65 96 0 124.7 0 160v288c0 35.35 28.65 64 64 64h224c35.35 0 64-28.65 64-64V160C352 124.7 323.3 96 288 96zM304 448c0 8.822-7.178 16-16 16H64c-8.822 0-16-7.178-16-16V160c0-8.822 7.178-16 16-16h224c8.822 0 16 7.178 16 16V448zM336 0h-32C295.2 0 288 7.199 288 16V64h64V16C352 7.199 344.8 0 336 0z"/></svg>