<svg xmlns="http://www.w3.org/2000/svg" viewBox="0 0 640 512"><!--! Font Awesome Pro 6.0.0-alpha3 by @fontawesome - https://fontawesome.com License - https://fontawesome.com/license (Commercial License) --><path d="M352 352H288c-17.67 0-32 14.33-32 32V480c0 17.67 14.33 32 32 32h64c17.67 0 32-14.33 32-32v-95.1C384 366.3 369.7 352 352 352zM61.28 202.5l-48 24C5.125 230.6 0 238.9 0 248v240C0 501.3 10.75 512 24 512s24-10.75 24-24V262.8l34.72-17.38c11.88-5.938 16.69-20.34 10.75-32.19C87.53 201.4 73.13 196.6 61.28 202.5zM320 111.1c-44.13 0-80 35.88-80 80c0 44.13 35.88 80.01 80 80.01s80-35.88 80-80.01C400 147.9 364.1 111.1 320 111.1zM368 191.1c0 8.799-7.199 16-16 16h-31.1C311.2 207.1 304 200.8 304 191.1v-32c0-8.801 7.199-16 16-16s16 7.21 16 16.01v16L352 175.1C360.8 175.1 368 183.2 368 191.1zM626.7 226.5l-48-24c-11.84-5.938-26.25-1.125-32.19 10.75c-5.938 11.84-1.125 26.25 10.75 32.19L592 262.8V488c0 13.25 10.75 24 24 24S640 501.3 640 488v-240C640 238.9 634.9 230.6 626.7 226.5zM497.8 111.1l-160-106.6C332.4 1.777 326.2-.0146 320-.0146S307.6 1.777 302.3 5.359l-160 106.6C133.4 117.1 128 127.1 128 138.6V488C128 501.3 138.7 512 152 512s24-10.75 24-24V147.2L320 51.2l144 95.97V488c0 13.25 10.75 24 24 24S512 501.3 512 488V138.6C512 127.1 506.6 117.1 497.8 111.1z"/></svg>