<svg xmlns="http://www.w3.org/2000/svg" viewBox="0 0 448 512"><!--! Font Awesome Pro 6.0.0-alpha3 by @fontawesome - https://fontawesome.com License - https://fontawesome.com/license (Commercial License) --><path d="M443.5 281.1C438.1 275.7 431.7 272 424 272H100.4L79.29 224h248.7c13.25 0 24-10.75 24-24c0-13.26-10.75-24-24-24H58.2L51.61 161C49.22 155.5 47.1 149.8 47.1 143.8V24c0-13.25-10.75-24-24-24S-.0006 10.75-.0006 24v119.8c0 12.62 2.578 24.91 7.672 36.5l79.64 181.3C101.8 394.6 134.6 416 170.8 416h45.16v48H120c-13.25 0-24 10.74-24 24c0 13.25 10.75 24 24 24H360c13.25 0 24-10.75 24-24c0-13.26-10.75-24-24-24h-96V416h128c10.33 0 19.5-6.625 22.77-16.41l32-96C449.2 296.3 447.1 288.2 443.5 281.1zM374.7 368H170.8c-17.17 0-32.72-10.09-39.59-25.75L121.5 320h269.2L374.7 368z"/></svg>