<svg xmlns="http://www.w3.org/2000/svg" viewBox="0 0 640 512"><!--! Font Awesome Pro 6.0.0-alpha3 by @fontawesome - https://fontawesome.com License - https://fontawesome.com/license (Commercial License) --><path d="M624.3 100.8l-53.11-53.11C561.2 37.63 547.6 32 533.4 32H464c0-17.67-14.33-32-32-32s-32 14.33-32 32v82.55c-20.48-17.5-49.92-25.42-77.47-17.61c-28.69-21.81-72.38-21.81-101.1 0C196.3 89.72 168.7 95.34 148.5 110.8C141.2 108.7 133.7 107.6 126.1 107.6c-45.11 0-81.86 35.09-82.36 78.41C17.48 199.5 0 226.3 0 256s17.48 56.5 43.77 69.97C44.23 366.1 76 398.9 116.6 403.5l37.38 93.46C157.6 506 166.4 512 176.2 512H200C213.3 512 224 501.3 224 488v-71.32C237.9 426.5 254.5 432 271.1 432S306.1 426.5 320 416.7V488c0 13.25 10.75 24 24 24h23.75c9.812 0 18.64-5.975 22.28-15.09l37.38-93.46c40.58-4.588 72.35-37.31 72.82-77.48C526.5 312.5 543.1 285.8 543.1 256c0-26.19-13.19-49.5-34.08-64h76.64c20.24 0 38.75-11.44 47.8-29.54C644.6 141.9 640.6 117 624.3 100.8zM469.1 286.5c-6.641 1.312-12.41 5.375-15.88 11.19c-3.484 5.812-4.359 12.81-2.391 19.28c.9844 3.25 1.438 5.844 1.438 8.125c-.0156 22.38-27.12 39.31-51.06 27.03c-9.953-5.156-22.06-2.75-29.3 5.75c-10.22 12.06-27.94 16.12-43.64 8.062c-9.906-5.156-22.06-2.719-29.3 5.75c-13.31 15.69-40.56 15.69-53.88 0c-4.688-5.5-11.42-8.438-18.3-8.438c-3.734 0-7.516 .875-11 2.688c-15.69 8.031-33.44 3.969-43.64-8.062c-7.25-8.5-19.44-10.91-29.3-5.75c-23.98 12.28-51.06-4.688-51.06-27.03c0-2.281 .4531-4.875 1.438-8.125C95.17 310.5 94.3 303.5 90.81 297.7C87.34 291.9 81.58 287.8 74.94 286.5C59.33 283.4 48 270.6 48 256s11.33-27.38 26.94-30.5c6.641-1.312 12.41-5.375 15.88-11.19C94.3 208.5 95.17 201.5 93.2 195C92.22 191.8 91.77 189.2 91.77 186.9c0-22.38 27.09-39.38 51.06-27.03c9.922 5.156 22.05 2.719 29.3-5.75c10.23-12.03 28-16.09 43.64-8.062c9.875 5.156 22.08 2.75 29.3-5.75c13.31-15.69 40.56-15.69 53.88 0c7.234 8.469 19.38 10.88 29.3 5.75c21.33-10.94 45.97 1.281 50.34 20.78C380 173.2 383.1 178.7 389.5 182.1c5.594 3.406 12.34 4.406 18.61 2.688c3.906-1.031 7-1.5 9.734-1.5c15.95 0 30.02 10.34 33.45 24.56c2.156 8.938 9.25 15.88 18.25 17.84C485.1 229 496 241.5 496 256C496 270.6 484.7 283.4 469.1 286.5zM512 112c-8.836 0-16-7.164-16-16s7.164-16 16-16s16 7.164 16 16S520.8 112 512 112z"/></svg>