<svg xmlns="http://www.w3.org/2000/svg" viewBox="0 0 448 512"><!--! Font Awesome Pro 6.0.0-alpha3 by @fontawesome - https://fontawesome.com License - https://fontawesome.com/license (Commercial License) --><path d="M256 152v176c0 13.25 10.75 24 24 24s24-10.75 24-24v-176C304 85.83 250.2 32 184 32h-144C26.75 32 16 42.75 16 56v400C16 469.3 26.75 480 40 480S64 469.3 64 456V80h120C223.7 80 256 112.3 256 152zM408 32C394.8 32 384 42.75 384 56v304c0 39.76-32.24 72-72 72H192V184C192 170.8 181.3 160 168 160S144 170.8 144 184v272C144 469.3 154.7 480 168 480h144c66.27 0 120-53.73 120-120v-304C432 42.75 421.3 32 408 32z"/></svg>