<svg xmlns="http://www.w3.org/2000/svg" viewBox="0 0 640 512"><!--! Font Awesome Pro 6.0.0-alpha3 by @fontawesome - https://fontawesome.com License - https://fontawesome.com/license (Commercial License) --><path d="M588.2 464.2c-20.89-3.732-41.84-15.52-59-33.22c-9.031-9.312-25.38-9.312-34.41 0C474.6 451.9 445.8 463.8 416 463.8s-58.56-11.98-78.8-32.85c-9.031-9.312-25.38-9.312-34.41 0C282.6 451.9 253.8 463.8 224 463.8c-32.36 0-68.04-13.52-86.79-32.85c-9.031-9.312-25.38-9.312-34.41 0c-19.14 19.76-31.66 29.78-51 33.22c-13.05 2.32-21.75 14.83-19.42 27.92c2.312 13.08 14.66 21.83 27.83 19.49c26.19-4.672 44.73-16.76 61-31.44c28 19.74 66.11 31.81 102.9 31.81c34.89 0 68.7-11.54 95.89-32.19c54.31 41.25 137.4 41.31 191.8 .1582c20.61 16.37 44.16 27.41 68 31.65c1.422 .252 2.844 .377 4.234 .377c11.41 0 21.53-8.199 23.59-19.87C609.1 479 601.2 466.5 588.2 464.2zM164.1 409.7C169.6 413.9 175.4 416 181.1 416c6.516 0 13-2.641 17.73-7.828c8.938-9.797 8.234-24.98-1.562-33.91L114.6 298.9C110 294.7 111.7 287.7 117.7 285.7L320 217.3l202.3 68.33c5.996 2.03 7.692 9.053 3.125 13.2l-82.72 75.41c-9.797 8.922-10.5 24.11-1.562 33.91C445.9 413.4 452.3 416 458.9 416c5.781 0 11.56-2.062 16.17-6.266l82.72-75.41c14.75-13.45 21.12-33.08 17.06-52.5c-4.109-19.61-18-35.17-37.16-41.64L512 231.5V120C512 89.13 486.9 64 456 64l-39.1 .0241L416 32c0-17.67-14.33-32-32-32H256C238.3 0 224 14.33 224 32L223.1 64.02L184 64C153.1 64 128 89.13 128 120v111.5l-25.66 8.666C83.19 246.7 69.3 262.2 65.19 281.8c-4.062 19.42 2.312 39.05 17.06 52.5L164.1 409.7zM176 120c0-4.406 3.594-8 8-8h272c4.406 0 8 3.594 8 8v95.31l-136.3-46.04c-.959-.3223-1.918-.1699-2.885-.3672c-1.594-.3359-3.129-.6035-4.785-.6074c-1.701-.002-3.281 .2715-4.918 .6211C314.2 169.1 313.2 168.1 312.3 169.3L176 215.3V120z"/></svg>