<svg xmlns="http://www.w3.org/2000/svg" viewBox="0 0 640 512"><!--! Font Awesome Pro 6.0.0-alpha3 by @fontawesome - https://fontawesome.com License - https://fontawesome.com/license (Commercial License) --><path d="M575.1 426.1V224L607.1 224c24.62 0 39.88-26.5 27.75-47.88l-91.5-160C538.5 6.152 527.9 0 516.5 0H123.5C112.1 0 101.5 6.152 95.75 16.12L82.48 39.33L38.81 5.109C28.36-3.063 13.29-1.234 5.121 9.187c-8.172 10.44-6.354 25.53 4.068 33.7l591.1 463.1C605.6 510.3 610.8 512 615.1 512c7.125 0 14.16-3.161 18.9-9.193c8.172-10.44 6.354-25.53-4.068-33.7L575.1 426.1zM527.1 388.5L318.1 224h209.9V388.5zM132.7 48h374.5l73 128H256.8L120.6 69.23L132.7 48zM111.1 320.3V224h51.02L101.8 176H59.62l13.04-22.82L34.48 123.3L4.248 176.1C-7.877 197.5 7.373 224 31.1 224l31.98 .0029L64 464C64 490.5 85.49 512 112 512h224C362.5 512 384 490.5 384 464v-66.8l-98.18-76.95H111.1zM335.1 464h-224v-95.75h224V464z"/></svg>