<svg xmlns="http://www.w3.org/2000/svg" viewBox="0 0 640 512"><!--! Font Awesome Pro 6.0.0-alpha3 by @fontawesome - https://fontawesome.com License - https://fontawesome.com/license (Commercial License) --><path d="M635.7 176.1l-91.5-160C538.5 6.153 527.9 0 516.5 0H123.5C112.1 0 101.5 6.153 95.75 16.12l-91.5 160C-7.877 197.5 7.373 224 31.1 224h31.99l.0154 240C64 490.5 85.49 512 111.1 512h224c26.51 0 47.1-21.49 47.1-47.1L383.1 224h144v264c0 13.2 10.8 23.1 24 23.1c13.2 0 24-10.8 24-24L575.1 224h32.01C632.6 224 647.9 197.5 635.7 176.1zM335.1 464H111.1v-95.75h223.1V464zM335.1 320.2H111.1V224h223.1V320.2zM59.62 176l73.13-128h374.5l73 128H59.62z"/></svg>