<svg xmlns="http://www.w3.org/2000/svg" viewBox="0 0 640 512"><!--! Font Awesome Pro 6.0.0-alpha3 by @fontawesome - https://fontawesome.com License - https://fontawesome.com/license (Commercial License) --><path d="M576.8 192.3C533 171.8 474.3 160 416 160h-9.109C291.4 109.5 231.1 32 112 32h-32C53.49 32 32 53.49 32 80V128C14.33 128 0 142.3 0 160v192c0 17.67 14.33 32 32 32v48C32 458.5 53.49 480 80 480h32c119.1 0 179.4-77.45 294.9-128H416c58.33 0 117-11.83 160.8-32.33C616.3 301.2 640 277.3 640 256C640 234.7 616.3 210.8 576.8 192.3zM128 80.87c55.34 4.221 96.75 29.66 147.8 61.47C284.1 148.1 294.6 153.1 304.5 160H168.6C158.3 146.2 144 136.7 128 131.8V80.87zM275.8 369.7C224.8 401.5 183.3 426.9 128 431.1v-50.95C144 375.3 158.3 365.8 168.6 352h135.9C294.6 358 284.1 363.9 275.8 369.7zM544 280.1C507.9 295.3 461.5 304 416 304H141.6L132.4 319.9C126.5 329.1 116.2 336 104.9 336H48v-160h56.88c11.21 0 21.58 5.963 27.21 15.65L141.6 208H416c45.55 0 91.94 8.715 128 23.02V280.1zM480 288c8.836 0 16-7.164 16-16v-32C496 231.2 488.8 224 480 224s-16 7.162-16 16v32C464 280.8 471.2 288 480 288z"/></svg>