<svg xmlns="http://www.w3.org/2000/svg" viewBox="0 0 512 512"><!--! Font Awesome Pro 6.0.0-alpha3 by @fontawesome - https://fontawesome.com License - https://fontawesome.com/license (Commercial License) --><path d="M488 64H112V23.1C112 10.8 101.2 0 88 0C74.8 0 64 10.8 64 23.1v40L23.1 64C10.8 64 0 74.8 0 87.1S10.8 112 23.1 112H64v376C64 501.2 74.8 512 87.1 512C101.2 512 112 501.2 112 488V112H192V160C174.2 160 160 174.2 160 192v160c0 17.67 14.33 32 32 32h256c17.67 0 32-14.33 32-32V192c0-17.75-14.25-32-32-32V112h40C501.2 112 512 101.2 512 88S501.2 64 488 64zM432 336h-224v-128h224V336zM416 160H224V112h192V160z"/></svg>