<svg xmlns="http://www.w3.org/2000/svg" viewBox="0 0 512 512"><!--! Font Awesome Pro 6.0.0-alpha3 by @fontawesome - https://fontawesome.com License - https://fontawesome.com/license (Commercial License) --><path d="M441.4 192c8.502 0 16.63-4.25 22.63-11.75l43.26-54.12c6.252-7.75 6.252-20.5 0-28.25l-43.26-54.12C457.1 36.25 449.9 32 441.4 32h-161.4V23.1C280 10.75 269.2 0 255.1 0S231.1 10.75 231.1 23.1V32H55.94C42.69 32 31.94 45.38 31.94 62v99.1C31.94 178.6 42.69 192 55.94 192h176v32h-161.4C62.06 224 53.94 228.2 47.94 235.8l-43.26 54.12c-6.252 7.75-6.252 20.5 0 28.25l43.26 54.12C53.94 379.8 62.07 384 70.57 384h161.4v104C231.1 501.3 242.7 512 255.1 512s24.03-10.75 24.03-23.1V384h175.1c13.25 0 24-13.38 24-29.1V254C479.1 237.4 469.2 224 455.1 224h-175.1V192H441.4zM432 336H80.46l-25.63-32l25.63-32h351.6V336zM79.96 80h351.6l25.63 32l-25.63 32H79.96V80z"/></svg>