<svg xmlns="http://www.w3.org/2000/svg" viewBox="0 0 448 512"><!--! Font Awesome Pro 6.0.0-alpha3 by @fontawesome - https://fontawesome.com License - https://fontawesome.com/license (Commercial License) --><path d="M263.1 159.1c13.25 0 23.1-10.75 23.1-23.1s-10.75-24-23.1-24s-23.1 10.75-23.1 24S250.7 159.1 263.1 159.1zM184 159.1c13.25 0 23.1-10.75 23.1-23.1s-10.75-24-23.1-24s-23.1 10.75-23.1 24S170.8 159.1 184 159.1zM135.9 228.5L128.5 263.1C125.9 275.7 133.1 287.1 145 287.1h158c11.12 0 19.12-12.25 16.5-24.88l-7.375-34.63c33.75-23.37 55.88-59.5 55.88-100.5C368 57.25 303.5 0 224 0S79.99 57.25 79.99 127.1C79.99 168.1 102.1 205.1 135.9 228.5zM224 47.1c53 0 96 35.88 96 80c0 23.25-12.88 45.63-35.25 61.13l-26.12 18.12l6.875 32.75h-83l6.875-32.75L163.3 189.1C140.9 173.6 128 151.2 128 127.1C128 83.87 171.1 47.1 224 47.1zM435.1 466.7L276 384l159.1-82.72c11.75-6.094 16.33-20.59 10.22-32.34c-6.141-11.75-20.58-16.38-32.38-10.22L224 356.1L35.08 258.7C23.3 252.6 8.832 257.2 2.707 268.9c-6.109 11.75-1.531 26.25 10.22 32.34L171.1 384l-159.1 82.72c-11.75 6.094-16.33 20.59-10.22 32.34C6.988 507.3 15.35 512 24.02 512c3.734 0 7.518-.875 11.06-2.719L224 411l188.9 98.24C416.5 511.1 420.2 512 423.1 512c8.656 0 17.03-4.719 21.31-12.94C451.4 487.3 446.8 472.8 435.1 466.7z"/></svg>