<svg xmlns="http://www.w3.org/2000/svg" viewBox="0 0 512 512"><!--! Font Awesome Pro 6.0.0-alpha3 by @fontawesome - https://fontawesome.com License - https://fontawesome.com/license (Commercial License) --><path d="M344 200C313.1 200 288 225.1 288 256s25.12 56 56 56S400 286.9 400 256S374.9 200 344 200zM168 200C137.1 200 112 225.1 112 256s25.12 56 56 56S224 286.9 224 256S198.9 200 168 200zM256 0C114.6 0 0 100.2 0 224c0 70.13 36.88 132.6 94.5 173.7c9.75 6.875 15.25 18.02 13.5 29.89l-6.75 47.89C98.5 494.8 113.4 512 132.9 512h246.4c19.5 0 34.38-17.25 31.63-36.5l-6.844-47.89c-1.75-11.75 3.75-23.02 13.5-29.89C475 356.6 512 294.1 512 224C512 100.2 397.4 0 256 0zM389.8 358.6c-24.63 17.5-37.38 46.5-33.25 75.62L360.8 464H320v-24C320 426.8 309.2 416 296 416S272 426.8 272 439.1V464h-32v-24C240 426.8 229.2 416 216 416S192 426.8 192 439.1V464H151.2l4.25-29.75c4.125-29.12-8.625-58.12-33.25-75.62C75.13 324.9 48 275.9 48 224c0-97 93.25-176 208-176s208 79 208 176C464 275.9 436.9 324.9 389.8 358.6z"/></svg>