<svg xmlns="http://www.w3.org/2000/svg" viewBox="0 0 640 512"><!--! Font Awesome Pro 6.0.0-alpha3 by @fontawesome - https://fontawesome.com License - https://fontawesome.com/license (Commercial License) --><path d="M612.7 350.8l-3.125-2.5c-10.31-8.25-25.5-6.563-33.75 3.75c-8.284 10.36-6.605 25.47 3.75 33.75l3.125 2.5c6.4 5.038 9.685 12.89 9.047 21.15c-1.012 13.09-13.13 22.6-26.26 22.6L439.1 432V384c66.25 0 120-53.75 120-120V144h24c13.2 0 24-10.8 24-23.1S597.2 96 583.1 96h-152c-8.8 0-16 7.2-16 16v72c0 65.25-134.4 52.25-181.2-42.62C201.5 73.88 134.6 32 60.25 32H23.1C10.8 32-.0003 42.8-.0003 55.1S10.8 80 23.1 80h8l.0004 152c0 66.88 43.75 123.2 103.1 143.5V432H55.1c-13.2 0-23.1 10.8-23.1 23.1S42.8 480 55.1 480h508c39 0 73.72-29.25 75.84-68.25C641.2 387.9 631.2 365.4 612.7 350.8zM79.1 232V81.38c47.88 6.5 89.62 36.38 111.8 81.25C260.2 301.6 463.1 308.4 463.1 184V144h48v120c0 39.75-32.25 72-71.1 72H183.1C126.7 336 79.1 289.2 79.1 232zM391.1 432h-208L184 384h207.1V432z"/></svg>