<svg xmlns="http://www.w3.org/2000/svg" viewBox="0 0 640 512"><!--! Font Awesome Pro 6.0.0-alpha3 by @fontawesome - https://fontawesome.com License - https://fontawesome.com/license (Commercial License) --><path d="M200 376c-13.25 0-24 10.75-24 23.1s10.75 23.97 24 23.97s23.97-10.75 23.97-24S213.3 376 200 376zM120 376c-13.25 0-24 10.75-24 24s10.75 23.97 24 23.97s23.97-10.75 23.97-24S133.3 376 120 376zM280 376c-13.25 0-24 10.75-24 24s10.75 23.97 24 23.97s23.97-10.75 23.97-23.1S293.3 376 280 376zM360 376c-13.25 0-24 10.75-24 24s10.75 23.97 24 23.97s23.97-10.75 23.97-24S373.3 376 360 376zM577.1 417.6c-7.451-7.467-11.63-17.59-11.63-28.13V250.7c0-10.65 4.225-20.87 11.75-28.41l54.9-53.36c9.336-9.357 9.328-24.51-.0195-33.86c-9.346-9.348-24.51-9.367-33.87-.0313l-54.88 53.12c-16.57 16.53-25.88 38.97-25.88 62.38v45.5L432 296V237.1c0-8.75-1.75-17.25-5.25-25.25L348.5 29.12C340.9 11.38 323.6 0 304.3 0H160C133.5 0 112 21.5 112 48V128H96C69.5 128 48 149.5 48 176v132.3C19 328.5 0 362 0 400C0 461.9 50.13 512 112 512h256c61.88 0 112-50.13 112-112c0-20.5-5.884-39.5-15.51-56l53.86-.0039v45.5c0 23.4 9.311 45.85 25.88 62.38l54.87 53.12c9.363 9.344 24.53 9.334 33.88-.0195c9.348-9.348 9.355-24.5 .0195-33.86L577.1 417.6zM160 48h144.4l65.13 152H220.6L160 112.5V48zM96 176h49.63l42.63 61.75C192.8 244.3 200.1 248 208 248H384v41.63c-5.25-.875-10.49-1.619-15.99-1.619h-256c-5.5 0-10.75 .8691-16 1.619V176zM368 464h-256c-35.25 0-64-28.75-64-64s28.75-64 64-64h256c35.25 0 64 28.75 64 64S403.3 464 368 464z"/></svg>