<svg xmlns="http://www.w3.org/2000/svg" viewBox="0 0 512 512"><!--! Font Awesome Pro 6.0.0-alpha3 by @fontawesome - https://fontawesome.com License - https://fontawesome.com/license (Commercial License) --><path d="M488 232c-13.25 0-24 10.75-24 24c0 12.34-1.094 24.69-3.234 36.8C336.9 338.7 176.5 338.9 52.39 293.2C52.1 293.1 51.8 293.2 51.5 293.1C49.32 281 48 268.7 48 256c0-40.65 11.9-78.5 32.14-110.6C80.93 197.8 123.5 240 176 240c53.02 0 96-42.98 96-96c0-41.78-26.85-76.96-64.11-90.16C223.4 50.16 239.4 48 256 48c53.44 0 103.9 20.34 142 56H368c-13.27 0-24 10.75-24 24c0 13.27 10.75 24 24 24l81.52-.0156c8.844 0 16.97-4.859 21.14-12.66c4.188-7.781 3.75-17.23-1.141-24.61C421.9 42.89 342.1 0 256 0c-141.2 0-256 114.8-256 256s114.8 256 256 256c78.64 0 151.8-35.39 200.7-97.09c8.234-10.39 6.484-25.48-3.906-33.72c-10.38-8.203-25.47-6.5-33.72 3.906C379.3 435.2 319.9 464 256 464c-81.2 0-151.5-46.88-185.7-114.9C128.5 366.4 191.8 376 256 376c80.44 0 159.5-14.17 228.8-40.98c3.938-1.516 7.406-4.062 10.06-7.375L501.8 319c2.344-2.938 3.984-6.391 4.75-10.06C510.2 291.6 512 273.8 512 256C512 242.8 501.3 232 488 232zM176 96C202.5 96 224 117.5 224 144S202.5 192 176 192S128 170.5 128 144S149.5 96 176 96zM376 184C362.8 184 352 194.8 352 208s10.75 24 24 24h48C437.3 232 448 221.3 448 208s-10.75-24-24-24H376z"/></svg>