<svg xmlns="http://www.w3.org/2000/svg" viewBox="0 0 512 512"><!--! Font Awesome Pro 6.0.0-alpha3 by @fontawesome - https://fontawesome.com License - https://fontawesome.com/license (Commercial License) --><path d="M256 0C114.8 0 0 114.8 0 256s114.8 256 256 256s256-114.8 256-256S397.2 0 256 0zM176 96C202.5 96 224 117.5 224 144S202.5 192 176 192S128 170.5 128 144S149.5 96 176 96zM80.14 145.4C80.93 197.8 123.5 240 176 240c53.02 0 96-42.98 96-96c0-41.78-26.85-76.96-64.11-90.16C223.4 50.16 239.4 48 256 48c114.7 0 208 93.31 208 208c0 12.42-1.293 24.53-3.391 36.35c-122.7 45.37-280.9 46.64-404.5 2.219L53.36 302.2c-.002-.0137 .0039 .0137 0 0L56.11 294.6C54.54 294 53.01 293.4 51.46 292.8C49.31 280.8 48 268.6 48 256C48 215.3 59.9 177.5 80.14 145.4zM256 464c-81.21 0-151.5-46.89-185.7-114.9C128.5 366.4 191.8 376 256 376c64.31 0 127.4-9.314 185.6-26.61C407.3 417.3 337.1 464 256 464z"/></svg>