<svg xmlns="http://www.w3.org/2000/svg" viewBox="0 0 512 512"><!--! Font Awesome Pro 6.0.0-alpha3 by @fontawesome - https://fontawesome.com License - https://fontawesome.com/license (Commercial License) --><path d="M475.5 36.62c-29.5-29.54-73.2-41.85-123-34.57c-45.16 6.576-89.5 28.78-123.2 62.51C189.8 104.1 178.4 165.2 198.7 219.2l-183.8 176.2c-9.279 8.857-14.72 21.28-14.9 34.11c-.1875 12.84 4.938 25.43 14.04 34.54l33.86 33.86C56.86 506.9 69.18 512 81.79 512h.6719c12.83-.1875 25.25-5.625 34.05-14.86l176.3-183.8c54 20.22 114.3 8.857 154.9-30.73l1.359-1.359C487.9 242.4 512 185.5 512 132.6C511.1 93.64 499.3 60.43 475.5 36.62zM413.1 248.5c-29.83 29.12-76.42 35.07-115.9 14.81l-15.91-8.141l-200.3 208.9l-33.77-33.87l208.8-200.3L248.8 213.1C228.5 174.5 234.4 127.9 264.7 96.89c24.62-24.61 60-42.31 94.63-47.35c7.016-1.016 13.8-1.516 20.33-1.516c25.58 0 47.09 7.732 61.86 22.53C460.1 89.08 463.1 114.5 464 132.6C464 173.8 444.9 218.3 413.1 248.5z"/></svg>