<svg xmlns="http://www.w3.org/2000/svg" viewBox="0 0 448 512"><!--! Font Awesome Pro 6.0.0-alpha3 by @fontawesome - https://fontawesome.com License - https://fontawesome.com/license (Commercial License) --><path d="M224 224C206.3 224 192 238.3 192 256s14.33 32 32 32c17.67 0 32-14.33 32-32S241.7 224 224 224zM224 336c-17.67 0-32 14.33-32 32s14.33 32 32 32c17.67 0 32-14.33 32-32S241.7 336 224 336zM224 112c-17.67 0-32 14.33-32 32s14.33 32 32 32c17.67 0 32-14.33 32-32S241.7 112 224 112zM384 32H64C28.65 32 0 60.65 0 96v320c0 35.35 28.65 64 64 64h320c35.35 0 64-28.65 64-64V96C448 60.65 419.3 32 384 32zM400 416c0 8.822-7.178 16-16 16H64c-8.822 0-16-7.178-16-16V96c0-8.822 7.178-16 16-16h320c8.822 0 16 7.178 16 16V416z"/></svg>