<svg xmlns="http://www.w3.org/2000/svg" viewBox="0 0 448 512"><!--! Font Awesome Pro 6.0.0-alpha3 by @fontawesome - https://fontawesome.com License - https://fontawesome.com/license (Commercial License) --><path d="M230 232.8L221.8 230.5c-39.84-10.81-38.72-16.92-37.37-23.98c2.219-11.94 24.91-17.86 52.47-13.92c7.156 1.031 16.28 3.328 27.84 7.016c12.62 4.094 26.16-2.938 30.16-15.56c4.031-12.62-2.969-26.14-15.59-30.16c-12.37-3.953-22.27-6.369-31.22-7.936V128c0-13.25-10.75-24-23.1-24c-13.25 0-23.1 10.75-23.1 24v17.16C166.3 150.5 142.5 169.3 137.2 197.7c-10.62 56.75 47.28 72.44 71.1 79.16l8.594 2.281c43.94 11.61 47.59 16.67 45.78 26.28c-2.25 11.92-24.75 17.92-52.62 13.91c-11.16-1.562-24.88-6.125-36.1-10.16l-6.5-2.156c-12.53-4.109-26.16 2.75-30.28 15.34c-4.125 12.59 2.75 26.16 15.34 30.28l6.281 2.078c12.79 4.266 27.16 8.775 41.25 11.21V384c0 13.25 10.75 24 23.1 24c13.25 0 23.1-10.75 23.1-24v-17.18c33.69-5.396 57.41-24.12 62.72-52.54C321.5 256.9 264.3 241.8 230 232.8zM384 32H64C28.65 32 0 60.66 0 96v320c0 35.34 28.65 64 64 64h320c35.35 0 64-28.66 64-64V96C448 60.66 419.3 32 384 32zM400 416c0 8.82-7.178 16-16 16H64c-8.822 0-16-7.18-16-16V96c0-8.82 7.178-16 16-16h320c8.822 0 16 7.18 16 16V416z"/></svg>