<svg xmlns="http://www.w3.org/2000/svg" viewBox="0 0 448 512"><!--! Font Awesome Pro 6.0.0-alpha3 by @fontawesome - https://fontawesome.com License - https://fontawesome.com/license (Commercial License) --><path d="M384 32H64C28.65 32 0 60.66 0 96v320c0 35.34 28.65 64 64 64h320c35.35 0 64-28.66 64-64V96C448 60.66 419.3 32 384 32zM400 416c0 8.82-7.178 16-16 16H64c-8.822 0-16-7.18-16-16V96c0-8.82 7.178-16 16-16h320c8.822 0 16 7.18 16 16V416zM336 368h-224C103.2 368 96 375.2 96 384s7.156 16 16 16h224c8.844 0 16-7.156 16-16S344.8 368 336 368zM120 296C120 309.3 130.8 320 144.1 320S168 309.3 168 296V192h25.78C201.6 192 208 185.6 208 177.8c0-3.75-1.445-7.166-3.834-9.709C201.1 164.7 154.6 111.5 154.6 111.5c-5.389-6.168-15.97-6.168-21.42 0l-49.72 56.89c-3.668 4.209-4.529 10.17-2.223 15.24C83.58 188.7 88.64 192 94.22 192H120V296zM314.6 111.5c-5.389-6.168-15.97-6.168-21.42 0l-49.72 56.89c-3.668 4.209-4.529 10.17-2.223 15.24C243.6 188.7 248.6 192 254.2 192H280v104c0 13.25 10.75 24 24 24s24-10.75 24-24V192h25.78C361.6 192 368 185.6 368 177.8c0-3.75-1.445-7.166-3.834-9.709C361.1 164.7 314.6 111.5 314.6 111.5z"/></svg>