<svg xmlns="http://www.w3.org/2000/svg" viewBox="0 0 448 512"><!--! Font Awesome Pro 6.0.0-alpha3 by @fontawesome - https://fontawesome.com License - https://fontawesome.com/license (Commercial License) --><path d="M384 31.1H64c-35.35 0-64 28.65-64 63.1v320c0 35.35 28.65 64 64 64h320c35.35 0 64-28.65 64-64v-320C448 60.65 419.3 31.1 384 31.1zM400 416c0 8.836-7.164 16-16 16H64c-8.836 0-16-7.164-16-16V96c0-8.838 7.164-16 16-16h320c8.836 0 16 7.162 16 16V416zM224 128C210.8 128 200 138.8 200 152v208C200 373.3 210.8 384 224 384s24-10.75 24-24v-208C248 138.8 237.3 128 224 128zM320 288c-13.25 0-24 10.75-24 24v48c0 13.25 10.75 24 24 24s24-10.75 24-24v-48C344 298.8 333.3 288 320 288zM128 224C114.8 224 104 234.8 104 248v112C104 373.3 114.8 384 128 384s24-10.75 24-24v-112C152 234.8 141.3 224 128 224z"/></svg>