<svg xmlns="http://www.w3.org/2000/svg" viewBox="0 0 448 512"><!--! Font Awesome Pro 6.0.0-alpha3 by @fontawesome - https://fontawesome.com License - https://fontawesome.com/license (Commercial License) --><path d="M384 32H64C28.65 32 0 60.66 0 96v320c0 35.34 28.65 64 64 64h320c35.35 0 64-28.66 64-64V96C448 60.66 419.3 32 384 32zM400 416c0 8.82-7.178 16-16 16H64c-8.822 0-16-7.18-16-16V96c0-8.82 7.178-16 16-16h320c8.822 0 16 7.18 16 16V416zM304 112h-64l32 64l-48 32l32 64l-80-64l32-32l-32-64h-32C135.2 112 128 119.2 128 128v96c0 47.54 34.64 86.73 80 94.38V368h-32C167.2 368 160 375.2 160 384c0 8.836 7.164 16 16 16h96c8.836 0 16-7.164 16-16c0-8.838-7.164-16-16-16h-32V318.4C285.4 310.7 320 271.5 320 224V128C320 119.2 312.8 112 304 112z"/></svg>