<svg xmlns="http://www.w3.org/2000/svg" viewBox="0 0 448 512"><!--! Font Awesome Pro 6.0.0-alpha3 by @fontawesome - https://fontawesome.com License - https://fontawesome.com/license (Commercial License) --><path d="M448 416v-320c0-35.35-28.65-63.1-64-63.1H64c-35.35 0-64 28.65-64 63.1v320c0 35.35 28.65 64 64 64h320C419.3 480 448 451.3 448 416zM64 432c-8.836 0-16-7.164-16-16V96c0-8.836 7.164-16 16-16h320c8.838 0 16 7.164 16 16v320c0 8.836-7.162 16-16 16H64zM352 256c0-13.25-10.75-24-24-24h-208C106.8 232 96 242.8 96 256s10.75 24 24 24h208C341.3 280 352 269.3 352 256zM192 352c0-13.25-10.75-24-24-24h-48C106.8 328 96 338.8 96 352s10.75 24 24 24h48C181.3 376 192 365.3 192 352zM256 160c0-13.25-10.75-24-24-24h-112C106.8 136 96 146.8 96 160s10.75 24 24 24h112C245.3 184 256 173.3 256 160z"/></svg>