<svg xmlns="http://www.w3.org/2000/svg" viewBox="0 0 640 512"><!--! Font Awesome Pro 6.0.0-alpha3 by @fontawesome - https://fontawesome.com License - https://fontawesome.com/license (Commercial License) --><path d="M630.8 469.1l-86.81-68.04l.0002-305.1c0-35.35-28.65-63.1-63.1-63.1H159.1c-21.6 0-40.51 10.86-52.1 27.25L38.81 5.109C34.41 1.672 29.19 0 24.03 0C16.91 0 9.845 3.156 5.127 9.187C-3.061 19.62-1.248 34.72 9.189 42.89L601.2 506.9c10.5 8.203 25.56 6.328 33.69-4.078C643.1 492.4 641.2 477.3 630.8 469.1zM365.8 261.4L272 187.9V176h64C362.5 176 384 197.5 384 224C384 239.2 376.8 252.6 365.8 261.4zM496 363.4l-92.15-72.22C421.1 273.9 432 250.3 432 224c0-52.94-43.06-95.1-96-95.1L248 128C235.3 128 225.1 137.1 224.3 150.5l-78.5-61.53C148.4 83.71 153.7 80 160 80h320c8.822 0 16 7.178 16 16V363.4zM160 432c-8.822 0-16-7.178-16-16V209.5L95.1 171.9l.0001 244.1c0 35.35 28.65 63.1 63.1 63.1L480 480c2.75 0 5.377-.4734 8.035-.8093L427.8 432H160zM272 360V320h12.86L223.1 272.2L224 360C224 373.3 234.8 384 248 384S272 373.3 272 360z"/></svg>