<svg xmlns="http://www.w3.org/2000/svg" viewBox="0 0 576 512"><!--! Font Awesome Pro 6.0.0-alpha3 by @fontawesome - https://fontawesome.com License - https://fontawesome.com/license (Commercial License) --><path d="M128 336c-8.875 0-15.99 7.125-15.99 16s7.124 16 15.1 16c8.875 0 15.99-7.125 15.99-16S136.9 336 128 336zM96.01 240C87.14 240 80.02 247.1 80.02 256c0 8.875 7.112 16 15.99 16S112 264.9 112 256C112 247.1 104.9 240 96.01 240zM128 144C119.1 144 112 151.1 112 160s7.113 16 15.99 16C136.9 176 144 168.9 144 160S136.9 144 128 144zM555 136.4l-243.6-88.77C283.5 37.36 254 32.13 224.3 32c-29.12 0-57.88 5.374-85 17.12c-143.4 62.12-139.2 206.9-139.2 206.9s-4.393 144.6 139.2 206.9c27.12 11.75 55.93 17.13 85.05 17.13c25.5 0 50.96-4.37 75.58-11.1l8.1 13.12c13.5 19.38 35.5 30.87 59.12 30.87L440 512c27.37 .125 52.37-15.38 64.5-39.88c12.12-24.37 9.375-53.75-7.25-75.37l57.75-21.13C567.6 371.1 576 358.1 576 345.6V166.4C576 152.1 567.6 140.9 555 136.4zM224.4 432c-103.4 0-177.7-89.88-176.4-176C46.78 163.2 126.5 80.12 224.3 80c32.25 0 175.7 26.75 175.7 176c-.125 26.88-6.5 53.38-18.5 77.38l-53.5-77V256c0-48.62-39.37-88-87.1-88S152 207.4 152 256c0 37.75 23.1 69.75 57.5 82.25l60.1 87.63C255.1 429.5 239.8 432 224.4 432zM280 256c0 22.12-17.87 40-39.1 40S200 278.1 200 256s17.87-40 39.1-40S280 233.9 280 256zM440 464h-71.1c-7.875 0-15.25-3.875-19.75-10.25l-79.87-114.9c15.5-5.375 29.12-14.88 39.37-27.5L380.5 416h59.5c13.25 0 23.1 10.75 23.1 24S453.3 464 440 464zM528 334.4L435.8 368h-18.5c14.5-24.62 24.04-51.75 28.29-80h82.45V334.4zM528 224h-82.45c-4.625-31.62-16.04-61.88-33.42-88.62l115.9 42.25V224z"/></svg>