<svg xmlns="http://www.w3.org/2000/svg" viewBox="0 0 640 512"><!--! Font Awesome Pro 6.0.0-alpha3 by @fontawesome - https://fontawesome.com License - https://fontawesome.com/license (Commercial License) --><path d="M288 256v48C288 312.9 295.1 320 304 320h32c8.875 0 16-7.125 16-16V256c0-17.62-14.38-32-32-32S288 238.4 288 256zM624 128V120.9c.0001-11.61-7.843-22.25-19.24-24.44C589.4 93.51 576 105.2 576 120V128c-8.837 0-16 7.163-16 15.1S567.2 160 576 160v192h-48V304c0-35.35-28.65-64-64-64h-32c-7 .125-13.88 1.25-20.38 3.625L385.5 34.97C382.1 14.99 366 0 345.9 0H294.1C273.1 0 256.1 15 254.5 34.99L228.5 243.6C221.9 241.4 215 240.1 208 240h-32c-35.35 0-64 28.65-64 64V352H64V160c8.837 0 16-7.163 16-15.1S72.84 128 64 128l0-7.099c0-11.61-7.843-22.25-19.24-24.44C29.42 93.51 16 105.2 16 120V128C7.163 128 0 135.2 0 143.1C0 152.8 7.163 160 15.1 160L16 424c0 11.25 7.75 21 18.62 23.38c11 2.5 22.13-3 26.88-13.13L168 476.8v11.25C168 501.3 178.7 512 191.1 512C205.3 512 216 501.3 216 488v-8.75c8.5-1.125 16.62-3.875 24-8.125C246.8 476.4 254.8 480 264 480h112c9.25 0 17.25-3.625 24-8.875c7.375 4.25 15.5 7 24 8.125v8.75C424 501.3 434.7 512 448 512s24-10.75 24-23.1v-11.25l106.5-42.5c4.75 10.13 15.88 15.63 26.88 13.13C616.3 445 624 435.2 624 424V160C632.8 160 640 152.8 640 144C640 135.2 632.8 128 624 128zM224 416c0 8.875-7.125 16-16 16h-32C167.1 432 160 424.9 160 416V304C160 295.1 167.1 288 176 288h32C216.9 288 224 295.1 224 304V416zM368 416c0 8.875-7.125 16-16 16H288c-8.875 0-16-7.125-16-16L271.8 283L301.2 48h37.5L368 280V416zM480 416c0 8.875-7.125 16-16 16h-32c-8.875 0-16-7.125-16-16V304C416 295.1 423.1 288 432 288h32C472.9 288 480 295.1 480 304V416z"/></svg>