<svg xmlns="http://www.w3.org/2000/svg" viewBox="0 0 640 512"><!--! Font Awesome Pro 6.0.0-alpha3 by @fontawesome - https://fontawesome.com License - https://fontawesome.com/license (Commercial License) --><path d="M491.2 68.74C394.1 47.67 307.3 99.12 272.2 178.8L201.1 185.2L163.2 160l25.41 0c31.88 0 61.38-21.82 66.47-53.29C261.6 66.59 230.9 32 192 32H48C21.6 32 0 53.6 0 80v32C0 138.4 21.6 160 48 160h28.75L125 192.1C86.25 195.6 64 224.5 64 256c0 30.88 21.5 60.25 61 63.88L76.75 352H48C21.6 352 0 373.6 0 400v32C0 458.4 21.6 480 47.1 480l140.7 0c31.88 0 61.38-21.82 66.47-53.29C261.6 386.6 230.9 352 192 352H163.2l37.88-25.25l71.12 6.5C301.1 400.8 369.5 448 448 448c119.5 0 213.6-109.4 187.7-233.5C620.6 142.7 562.9 84.43 491.2 68.74zM48 112v-32H192c8.875 0 16 7.125 16 16S200.9 112 192 112H48zM192 400c8.875 0 16 7.125 16 16S200.9 432 192 432H48v-32H192zM258.2 283.8l-131.9-12C118.2 271 112 264.1 112 256c0-8.25 6.25-15 14.38-15.75l131.9-12C256.9 237.5 256.1 246.8 256 256C256.1 265.2 256.9 274.5 258.2 283.8zM448 400c-79.38 0-144-64.63-144-144s64.63-144 144-144s144 64.62 144 144S527.4 400 448 400zM448 176c-44.13 0-80 35.88-80 80s35.88 80 80 80s80-35.88 80-80S492.1 176 448 176zM448 288c-17.62 0-32-14.38-32-32s14.38-32 32-32s32 14.38 32 32S465.6 288 448 288z"/></svg>