<svg xmlns="http://www.w3.org/2000/svg" viewBox="0 0 640 512"><!--! Font Awesome Pro 6.0.0-alpha3 by @fontawesome - https://fontawesome.com License - https://fontawesome.com/license (Commercial License) --><path d="M633.5 127.6l-112-120c-9.078-9.703-24.23-10.19-33.92-1.172c-9.688 9.047-10.22 24.23-1.172 33.92L592 153.5v42.87l-138.1-27.56c-28.56-43.7-77.78-72.76-133.9-72.76c-56.1 0-105.3 29.08-133.9 72.78L48 196.3V153.5l105.5-113.1C162.6 30.69 162.1 15.5 152.4 6.453C142.7-2.562 127.5-2.078 118.5 7.625l-112 120c-4.141 4.438-6.385 10.21-6.385 16.29v224.1c0 6.078 2.244 11.92 6.385 16.35l112 120C123.2 509.4 129.6 512 136 512c5.875 0 11.75-2.141 16.38-6.453c9.688-9.047 10.22-24.23 1.172-33.92L48 358.5V315.7l138.1 27.57c28.56 43.7 77.77 72.76 133.9 72.76c56.1 0 105.3-29.08 133.9-72.77L592 315.7v42.87l-105.5 113.1c-9.047 9.688-8.516 24.88 1.172 33.92C492.3 509.9 498.1 512 504 512c6.422 0 12.81-2.562 17.55-7.625l112-120c4.141-4.438 6.38-10.21 6.38-16.29V143.1C639.9 137.9 637.7 132.1 633.5 127.6zM430.4 240h-40.25c-1.875-7.875-5-15.38-9.25-22.25l28.5-28.5C420.5 204.1 427.8 221.6 430.4 240zM336 145.6c18.38 2.625 35.88 9.875 50.75 21l-28.5 28.5C351.4 190.9 343.9 187.8 336 185.9V145.6zM304 145.6v40.25c-7.875 1.875-15.38 5-22.25 9.25l-28.5-28.5C268.1 155.5 285.6 148.3 304 145.6zM259.1 217.8C254.9 224.6 251.8 232.1 249.9 240H209.6c2.625-18.38 9.875-35.88 21-50.75L259.1 217.8zM48 266.7V245.3l115.8-23.15C161.4 233.1 160 244.4 160 256s1.395 22.94 3.758 33.88L48 266.7zM209.6 272h40.25c1.875 7.875 5 15.38 9.25 22.25l-28.5 28.5C219.5 307.9 212.3 290.4 209.6 272zM304 366.4c-18.38-2.625-35.88-9.875-50.75-21l28.5-28.5C288.6 321.1 296.1 324.3 304 326.1V366.4zM296 256c0-13.25 10.75-24 24-24S344 242.8 344 256S333.3 280 320 280S296 269.3 296 256zM336 366.4v-40.25c7.875-1.875 15.38-5 22.25-9.25l28.5 28.5C371.9 356.5 354.4 363.8 336 366.4zM380.9 294.3C385.1 287.4 388.3 279.9 390.1 272h40.25c-2.625 18.38-9.875 35.88-21 50.75L380.9 294.3zM476.2 289.9C478.6 278.9 480 267.6 480 256s-1.395-22.94-3.758-33.88L592 245.3v21.46L476.2 289.9z"/></svg>