<svg xmlns="http://www.w3.org/2000/svg" viewBox="0 0 576 512"><!--! Font Awesome Pro 6.0.0-alpha3 by @fontawesome - https://fontawesome.com License - https://fontawesome.com/license (Commercial License) --><path d="M552 32c-13.25 0-24 10.75-24 23.1V195.2l-106.1-26.5C393.2 125 344.1 96 288 96S182.8 125 154.1 168.8L48 195.2V55.1C48 42.75 37.25 32 24 32S0 42.75 0 55.1V456C0 469.3 10.75 480 23.1 480S48 469.3 48 456V316.8l106.1 26.5C182.8 387 231.9 416 288 416s105.2-29 133.9-72.75L528 316.8v139.3C528 469.3 538.7 480 552 480S576 469.3 576 456V55.1C576 42.75 565.3 32 552 32zM131.2 288.1L56 269.2V242.8l75.25-18.88C126.9 245.1 126.9 266.9 131.2 288.1zM304 145.6c18.38 2.625 35.88 9.875 50.75 21l-28.5 28.5C319.4 190.9 311.9 187.8 304 185.9V145.6zM272 145.6v40.25c-7.875 1.875-15.38 5-22.25 9.25L221.2 166.6C236.1 155.5 253.6 148.2 272 145.6zM198.6 189.2l28.5 28.5C222.9 224.6 219.8 232.1 217.9 240H177.6C180.2 221.6 187.5 204.1 198.6 189.2zM177.6 272h40.25c1.875 7.875 5 15.38 9.25 22.25l-28.5 28.5C187.5 307.9 180.2 290.4 177.6 272zM272 366.4c-18.38-2.625-35.88-9.875-50.75-21l28.5-28.5C256.6 321.1 264.1 324.2 272 326.1V366.4zM264 256c0-13.25 10.75-24 24-24S312 242.8 312 256c0 13.25-10.75 24-24 24S264 269.2 264 256zM304 366.4v-40.25c7.875-1.875 15.38-5 22.25-9.25l28.5 28.5C339.9 356.5 322.4 363.8 304 366.4zM377.4 322.8l-28.5-28.5C353.1 287.4 356.2 279.9 358.1 272h40.25C395.8 290.4 388.5 307.9 377.4 322.8zM358.1 240c-1.875-7.875-5-15.38-9.25-22.25l28.5-28.5C388.5 204.1 395.8 221.6 398.4 240H358.1zM520 269.2l-75.25 18.88c4.375-21.25 4.375-43 0-64.25L520 242.8V269.2z"/></svg>