<svg xmlns="http://www.w3.org/2000/svg" viewBox="0 0 512 512"><!--! Font Awesome Pro 6.0.0-alpha3 by @fontawesome - https://fontawesome.com License - https://fontawesome.com/license (Commercial License) --><path d="M256 16C123.5 16 16 123.5 16 256s107.5 240 240 240s240-107.5 240-240S388.5 16 256 16zM256 64c94.95 0 173.8 69.34 189.1 160h-101.9c-11.09-19.05-31.56-32-55.19-32H224C200.4 192 180 204.1 168.9 224H66.89C82.2 133.3 161.1 64 256 64zM64.81 272H160l72 84v90.33C142.7 435.1 72.32 362.4 64.81 272zM280 446.3V356L352 272h95.19C439.7 362.4 369.3 435.1 280 446.3z"/></svg>