<svg xmlns="http://www.w3.org/2000/svg" viewBox="0 0 320 512"><!--! Font Awesome Pro 6.0.0-alpha3 by @fontawesome - https://fontawesome.com License - https://fontawesome.com/license (Commercial License) --><path d="M320 456c0 13.25-10.75 24-24 24h-272c-9.094 0-17.41-5.141-21.47-13.27s-3.188-17.86 2.281-25.14C32.66 404.5 48 358.4 48 312v-32H24C10.75 280 0 269.3 0 256s10.75-24 24-24H48V159.3C48 89.08 105.1 32 175.3 32c13.72 0 27.28 2.203 40.25 6.531l80.09 26.7c12.56 4.188 19.38 17.78 15.19 30.36c-4.219 12.55-17.72 19.38-30.38 15.17l-80.09-26.7C192.2 81.36 183.8 80 175.3 80C131.6 80 96 115.5 96 159.3V232h136C245.3 232 256 242.8 256 256s-10.75 24-24 24H96v32c0 41.63-10.09 82.98-28.91 120H296C309.3 432 320 442.8 320 456z"/></svg>