<svg xmlns="http://www.w3.org/2000/svg" viewBox="0 0 448 512"><!--! Font Awesome Pro 6.0.0-alpha3 by @fontawesome - https://fontawesome.com License - https://fontawesome.com/license (Commercial License) --><path d="M424.1 152.1c9.375-9.375 9.375-24.56 0-33.94s-24.56-9.375-33.94 0l-29.35 29.35c-31.05-27.5-70.28-45.9-113.7-50.89V48h32c13.25 0 24-10.75 24-24S293.3 0 280 0h-112C154.8 0 144 10.75 144 24S154.8 48 168 48h32v49.49C96.45 109.4 16 197.3 16 304c0 114.9 93.13 208 208 208s208-93.13 208-208c0-44.68-14.22-85.97-38.2-119.9L424.1 152.1zM224 464c-88.22 0-160-71.78-160-160s71.78-160 160-160s160 71.78 160 160S312.2 464 224 464zM288 204c-28.67 0-52 23.31-52 52v96c0 28.69 23.33 52 52 52s52-23.31 52-52V256C340 227.3 316.7 204 288 204zM300 352c0 6.625-5.391 12-12 12S276 358.6 276 352V256c0-6.625 5.391-12 12-12S300 249.4 300 256V352zM212 252c0-26.47-21.53-48-48-48s-48 21.53-48 48C116 263 124.1 272 136 272s20-8.969 20-20c0-8.812 16-10.88 16 2.062c0 16.28-6.609 32.25-18.16 43.81C134.6 317.1 124 342.7 124 369.9V384c0 11.03 8.953 20 20 20H192c11.05 0 20-8.969 20-20S203 364 192 364H164.3c1.391-14.19 7.719-27.72 17.86-37.88C201.4 306.9 212 281.3 212 252z"/></svg>