<svg xmlns="http://www.w3.org/2000/svg" viewBox="0 0 448 512"><!--! Font Awesome Pro 6.0.0-alpha3 by @fontawesome - https://fontawesome.com License - https://fontawesome.com/license (Commercial License) --><path d="M424.1 152.1c9.375-9.375 9.375-24.56 0-33.94s-24.56-9.375-33.94 0l-29.35 29.35c-31.05-27.5-70.28-45.9-113.7-50.89V48h32c13.25 0 24-10.75 24-24S293.3 0 280 0h-112C154.8 0 144 10.75 144 24S154.8 48 168 48h32v49.49C96.45 109.4 16 197.3 16 304c0 114.9 93.13 208 208 208s208-93.13 208-208c0-44.68-14.22-85.97-38.2-119.9L424.1 152.1zM224 464c-88.22 0-160-71.78-160-160s71.78-160 160-160s160 71.78 160 160S312.2 464 224 464zM224 192C210.8 192 200 202.8 200 216v112C200 341.3 210.8 352 224 352s24-10.75 24-24v-112C248 202.8 237.3 192 224 192z"/></svg>