<svg xmlns="http://www.w3.org/2000/svg" viewBox="0 0 640 512"><!--! Font Awesome Pro 6.0.0-alpha3 by @fontawesome - https://fontawesome.com License - https://fontawesome.com/license (Commercial License) --><path d="M630.8 469.1l-86.77-68.01l-.1006-125.1c-8.771 3.348-17.95 5.828-27.5 7.098c-6.176 .7969-12.15 1.186-18.28 1.186c-.748 0-1.457-.2402-2.203-.252l.0352 79.46l-149-116.8c30.49 9.539 65.46 5.223 91.8-13.07c17.34 12.03 38.07 18.67 59.39 18.67c4.842 0 9.465-.3125 14.18-.9219c30.71-4.078 57.02-23.59 70.37-52.17c14.17-30.33 12.01-65.2-5.764-93.33l-52.21-82.59C515.8 8.891 499.6 0 482.6 0H157.4C140.3 0 124.2 8.891 115.3 23.14L97.56 51.16L38.81 5.109C28.36-3.063 13.31-1.234 5.121 9.187c-8.172 10.44-6.354 25.53 4.068 33.7l591.1 463.1C605.6 510.3 610.8 512 615.1 512c7.125 0 14.16-3.161 18.9-9.193C643.1 492.4 641.2 477.3 630.8 469.1zM157.4 48l326.8 .7969l52.25 82.67c8.998 14.22 10.06 31.92 2.844 47.34c-6.482 13.89-18.6 22.97-33.13 24.91C488.3 206 469.1 199.5 456.5 185.7L438.7 166.1L420.9 185.7c-21.42 23.66-61.8 23.69-83.24 0L319.9 166L302.1 185.7C297.3 191.1 291.3 195.1 284.9 198L135.9 81.23L157.4 48zM469.2 464l49.43 38.74C509.8 508.6 499.3 512 487.1 512H152c-30.87 0-55.98-25.12-55.98-56V275.1c8.699 3.32 17.79 5.797 27.25 7.066c5.91 .7734 11.84 1.16 17.74 1.16c1.008 0 1.986-.3203 2.996-.3418V336h161.9l61.24 48h-223.1v72c0 4.406 3.594 8 7.998 8H469.2zM127.6 251.3C96.84 247.2 70.61 227.7 57.27 199.1C47.9 179 46.35 157.1 51.08 136.3l48.12 37.71c.5605 1.607 .8359 3.27 1.566 4.836c6.482 13.88 18.54 22.97 33.09 24.92c1.082 .1348 2.225-.0605 3.324 .0078l48.86 38.29C172.9 248.1 158.6 251.5 144 251.9C143 251.9 142.1 252.2 141 252.2C136.5 252.2 132 251.9 127.6 251.3z"/></svg>