<svg xmlns="http://www.w3.org/2000/svg" viewBox="0 0 576 512"><!--! Font Awesome Pro 6.0.0-alpha3 by @fontawesome - https://fontawesome.com License - https://fontawesome.com/license (Commercial License) --><path d="M544.9 105.8l-52.21-82.59C483.8 8.891 467.6 0 450.6 0H125.4c-17.01 0-33.15 8.891-42.08 23.14L31.02 105.8C13.26 133.9 11.12 168.8 25.27 199.1c13.34 28.55 39.57 48.06 70.29 52.19c4.473 .5859 8.98 .873 13.48 .873c1.004 0 1.994-.1973 2.997-.2266c20.32-.5781 40.41-6.822 57.03-18.38c34.63 24.08 84.26 24.05 118.8 0c34.63 24.08 84.23 24.03 118.9-.0156c17.34 12.03 38.07 18.67 59.39 18.67c4.842 0 9.466-.3125 14.18-.9219c30.71-4.078 57.02-23.59 70.37-52.17C564.9 168.8 562.7 133.9 544.9 105.8zM507.2 178.8c-6.483 13.89-18.6 22.97-33.13 24.91C456.3 206 437.1 199.5 424.5 185.7L406.7 166.1l-17.75 19.62c-21.42 23.66-61.8 23.69-83.24 0L287.9 166L270.1 185.7c-21.2 23.52-61.94 23.52-83.23 0L169.1 166L151.3 185.7c-12.37 13.73-32.15 20.16-49.42 18C87.3 201.8 75.24 192.7 68.76 178.8c-7.201-15.44-6.155-33.14 2.812-47.34L125.4 48l326.8 .7969l52.25 82.67C513.4 145.7 514.5 163.4 507.2 178.8zM466.2 284.2c-.7479 0-1.457-.2402-2.203-.252V336H112V283.8C111 283.9 110.1 284.2 109 284.2c-5.897 0-11.83-.3867-17.74-1.16C81.85 281.8 72.76 279.3 64.06 275.1V456c0 30.88 25.12 56 55.99 56h335.9c30.87 0 55.99-25.12 55.99-56V275.1c-8.773 3.348-17.95 5.828-27.5 7.098C478.3 283.8 472.3 284.2 466.2 284.2zM455.1 464H120c-4.405 0-7.998-3.594-7.998-8V384h351.9v72C463.1 460.4 460.4 464 455.1 464z"/></svg>