<svg xmlns="http://www.w3.org/2000/svg" viewBox="0 0 512 512"><!--! Font Awesome Pro 6.0.0-alpha3 by @fontawesome - https://fontawesome.com License - https://fontawesome.com/license (Commercial License) --><path d="M394.1 348.3C380.6 345.7 368 356 368 369.8c0 11.11 8.125 20.64 19.13 22.17C430.3 397.1 464 407.1 464 424c0 31.58-130.7 40-208 40c-77.25 0-208-8.424-208-40c0-16.93 37.41-26.6 76.68-32.1C135.8 390.3 144 380.8 144 369.6c0-13.71-12.47-24.13-25.93-21.52C62.34 358.9 0 380.7 0 424C0 493.5 160.9 512 256 512s256-18.53 256-88C512 383.8 458 360.7 394.1 348.3zM184 312l7.047 82.66C192.5 415.6 209.1 432 230.1 432h50.06c20.98 0 38.52-16.41 39.92-37.34L326.5 312H328c22.06 0 40-17.94 40-40V224c0-41.87-29.44-76.86-68.68-85.71C319 124.5 332 101.8 332 76C332 34.09 297.9 0 256 0S180 34.09 180 76c0 25.79 12.98 48.54 32.68 62.29C173.4 147.1 144 182.1 144 224v48C144 294.1 161.9 312 184 312zM256 48c15.44 0 28 12.56 28 28S271.4 104 256 104S228 91.44 228 76S240.6 48 256 48zM192 224c0-22.06 17.94-40 40-40h48C302.1 184 320 201.9 320 224v40h-16c-12.64 0-23.11 9.781-23.95 22.41L273.5 384H238.5l-6.5-97.59C231.1 273.8 220.6 264 208 264H192V224z"/></svg>