<svg xmlns="http://www.w3.org/2000/svg" viewBox="0 0 640 512"><!--! Font Awesome Pro 6.0.0-alpha3 by @fontawesome - https://fontawesome.com License - https://fontawesome.com/license (Commercial License) --><path d="M632 268.3L556 196.5C552.8 193.5 548.4 192 544 192s-8.877 1.502-12 4.502L496 230.5V147.9c0-10.75-4.875-20.88-13.25-27.5l-140.8-112.6C335.8 2.75 328 0 320 0C312.2 0 304.5 2.625 297.1 7.75L157.2 120.4C148.9 127 144 137.1 144 147.9V230.5L108 196.5C104.8 193.5 100.4 192 96 192S87.25 193.5 84 196.5L8 268.3C2.875 273.1 0 279.3 0 285.8l0 202.2C0 501.3 10.75 512 23.1 512S48 501.3 48 488V296.5L96 251.2l48 45.25v191.5C144 501.3 154.7 512 167.1 512S192 501.3 192 488V154l128-102.4l128 102.4V488C448 501.3 458.7 512 472 512s24-10.75 24-23.1V296.5L544 251.2l48 45.25v191.5C592 501.3 602.7 512 616 512S640 501.3 640 488V285.9C640 279.4 637.1 273.1 632 268.3zM388.1 154.3h-38.96L324 114.3c-1.875-3-6.125-3-8 0L290.9 154.3H252c-3.75 0-6 4.083-4 7.208l19.21 30.54L248 222.6C245.1 225.9 248.2 229.8 252 229.8h38.88L316 269.8c1.875 3 6.125 3 8 0l25.12-39.1H388c3.75 0 5.1-4.083 4-7.208l-19.21-30.54l19.34-30.58C393.1 158.2 391.8 154.3 388.1 154.3zM320 320c-35.35 0-64 28.65-64 64v96c0 17.67 14.33 32 32 32h64c17.67 0 32-14.33 32-32v-96C384 348.7 355.3 320 320 320z"/></svg>