<svg xmlns="http://www.w3.org/2000/svg" viewBox="0 0 512 512"><!--! Font Awesome Pro 6.0.0-alpha3 by @fontawesome - https://fontawesome.com License - https://fontawesome.com/license (Commercial License) --><path d="M448 32H64C28.65 32 0 60.65 0 96v320c0 35.35 28.65 64 64 64h384c35.35 0 64-28.65 64-64V96C512 60.65 483.3 32 448 32zM464 96v136h-184V80H448C456.8 80 464 87.18 464 96zM64 80h168v152H48V96C48 87.18 55.18 80 64 80zM48 416V280h184v152H64C55.18 432 48 424.8 48 416zM448 432h-168V280h184V416C464 424.8 456.8 432 448 432z"/></svg>