<svg xmlns="http://www.w3.org/2000/svg" viewBox="0 0 512 512"><!--! Font Awesome Pro 6.0.0-alpha3 by @fontawesome - https://fontawesome.com License - https://fontawesome.com/license (Commercial License) --><path d="M448 32H64.05C28.7 32 .0492 60.65 .0492 96v320c0 35.35 28.65 64 64 64h383.1c35.35 0 64-28.65 64-64V96C512 60.65 483.4 32 448 32zM232.2 432h-168c-8.837 0-16-7.163-16-16V312h184V432zM232.2 264h-184V144h184V264zM448.2 432h-168V312h184V416C464.2 424.8 457.1 432 448.2 432zM464.2 264h-184V144h184V264z"/></svg>