<svg xmlns="http://www.w3.org/2000/svg" viewBox="0 0 512 512"><!--! Font Awesome Pro 6.0.0-alpha3 by @fontawesome - https://fontawesome.com License - https://fontawesome.com/license (Commercial License) --><path d="M448 32H64C28.63 32 0 60.64 0 96v320c0 35.36 28.62 64 64 64h384c35.38 0 64-28.64 64-64V96C512 60.64 483.3 32 448 32zM464 416c0 8.836-7.162 16-16 16H64c-8.836 0-16-7.164-16-16V144H96v184c0 22.06 17.94 40 40 40H256v-32H136C131.6 336 128 332.4 128 328V270.4C130.7 270.9 133.2 272 136 272H192v-32H136C131.6 240 128 236.4 128 232V144h336V416zM288 384h128v-64h-128V384zM416 224H224v64h192V224z"/></svg>