<svg xmlns="http://www.w3.org/2000/svg" viewBox="0 0 512 512"><!--! Font Awesome Pro 6.0.0-alpha3 by @fontawesome - https://fontawesome.com License - https://fontawesome.com/license (Commercial License) --><path d="M416 320c-52.99 0-95.99 42.1-95.99 95.1c0 52.1 42.1 95.1 95.99 95.1C469 511.1 512 468.1 512 416C512 362.1 469 320 416 320zM416 463.1c-26.46 0-47.99-21.53-47.99-47.1c0-26.47 21.53-48 47.99-48s47.99 21.53 47.99 48C464 442.5 442.5 463.1 416 463.1zM93.19 175.1l201.6 201.7c5.268-16.2 13.54-30.86 24.38-43.52l-193.6-193.6l33.05-36.25c65.64-65.74 170.6-74.27 239-19.32c62.72 50.4 83.13 135.6 50.99 208.7c15.88 4.215 30.48 11.27 43.31 20.8c41.83-93.37 15.94-202.6-64.23-266.1C340.5-23.56 207.3-13.52 123.9 70.2L52.94 147.1C3.215 204.3 25.53 275 67.32 316.9L82.45 332.1L17.88 388.1c-10.85 9.566-17.35 23.35-17.85 37.82c-.4687 14.48 5.096 28.64 15.29 38.92l30.72 30.85c15.51 15.57 33.66 15.41 38.88 15.41c14.5-.5 28.29-7.031 37.88-17.98l56.51-64.77l14.41 14.45c28.6 28.66 68.58 42.61 109.4 38.07l-.9062-8.34c-6.172-12.18-10.39-25.36-12.39-39.38c-23.35 .375-45.74-7.859-62.09-24.25l-50.73-50.9l-90.36 103.5c-.3647 .4168-3.507 3.427-6.596 .25L49.38 431.9c-.819-.8191-2.784-4.246 .25-6.91l102.9-90.63L101.3 283c-20.41-20.48-46.01-65.24-12.69-102.9L93.19 175.1z"/></svg>