<svg xmlns="http://www.w3.org/2000/svg" viewBox="0 0 448 512"><!--! Font Awesome Pro 6.0.0-alpha3 by @fontawesome - https://fontawesome.com License - https://fontawesome.com/license (Commercial License) --><path d="M426.3 211.9l-158.2-158.2C255.5 41.11 233.5 32 215.8 32H48.98C21.96 32-.0254 53.99-.0254 81.01v166.8c0 17.75 9.11 39.75 21.67 52.32l158.2 158.3C194.3 472.8 213.2 480 232.2 480c18.95 0 37.91-7.204 52.33-21.63l141.8-141.8C455.2 287.7 455.2 240.8 426.3 211.9zM392.4 282.6l-141.8 141.8c-10.13 10.16-26.66 10.14-36.78 .0156L55.59 266.2C52.03 262.6 47.98 252.9 47.98 247.8V81.01l1-1h166.8c5.032 0 14.81 4.047 18.38 7.61l158.2 158.2C402.5 255.1 402.5 272.5 392.4 282.6zM135.1 144c0 13.26-10.75 24-24 24S87.99 157.3 87.99 144s10.75-24 24-24S135.1 130.7 135.1 144z"/></svg>