<svg xmlns="http://www.w3.org/2000/svg" viewBox="0 0 576 512"><!--! Font Awesome Pro 6.0.0-alpha3 by @fontawesome - https://fontawesome.com License - https://fontawesome.com/license (Commercial License) --><path d="M458.4 211.9l-158.2-158.2C287.6 41.11 265.6 32 247.8 32H81.01C53.99 32 32 53.99 32 81.01v166.8c0 17.75 9.11 39.75 21.67 52.32l158.2 158.3C226.3 472.8 245.3 480 264.2 480s37.91-7.204 52.33-21.63l141.8-141.8C487.2 287.7 487.2 240.8 458.4 211.9zM424.4 282.6l-141.8 141.8c-10.13 10.16-26.66 10.14-36.79 .0156L87.62 266.2c-3.563-3.563-7.61-13.35-7.61-18.38V81.01l1-1h166.8c5.032 0 14.81 4.047 18.38 7.61l158.2 158.2C434.6 255.1 434.6 272.5 424.4 282.6zM168 144c0 13.26-10.75 24-24 24S120 157.3 120 144s10.75-24 24-24S168 130.7 168 144zM536.5 170.7l-135.7-131.9c-9.453-9.219-24.67-9-33.94 .5c-9.234 9.5-9.016 24.69 .5 33.94l135.5 131.7c16.28 16.25 25.23 37.88 25.23 60.88s-8.969 44.63-25.3 60.95l-111.7 112.4c-9.344 9.406-9.312 24.59 .0938 33.94C395.8 477.7 401.9 480 408 480c6.172 0 12.33-2.359 17.02-7.078l111.7-112.3c25.34-25.34 39.31-59.03 39.31-94.86S562.1 196.2 536.5 170.7z"/></svg>