<svg xmlns="http://www.w3.org/2000/svg" viewBox="0 0 448 512"><!--! Font Awesome Pro 6.0.0-alpha3 by @fontawesome - https://fontawesome.com License - https://fontawesome.com/license (Commercial License) --><path d="M32 32C18.75 32 8 42.75 8 56v400c0 13.25 10.75 24 23.1 24S56 469.3 56 456V56C56 42.75 45.25 32 32 32zM160 32C146.8 32 136 42.75 136 56v400c0 13.25 10.75 24 23.1 24C173.3 480 184 469.3 184 456V56C184 42.75 173.3 32 160 32zM288 32c-13.25 0-24 10.75-24 24v400c0 13.25 10.75 24 24 24s24-10.75 24-24V56C312 42.75 301.3 32 288 32zM416 32c-13.25 0-24 10.75-24 23.1v400c0 13.25 10.75 24 24 24S440 469.3 440 456V56C440 42.75 429.3 32 416 32z"/></svg>