<svg xmlns="http://www.w3.org/2000/svg" viewBox="0 0 640 512"><!--! Font Awesome Pro 6.0.0-alpha3 by @fontawesome - https://fontawesome.com License - https://fontawesome.com/license (Commercial License) --><path d="M623.4 182.8l-87.4 28.35V456c0 13.25-10.75 24-24 24c-13.25 0-23.1-10.75-23.1-24V226.8l-79.1 25.95V456c0 13.25-10.75 24-24 24s-23.1-10.75-23.1-24V268.3L280 294.2V456c0 13.25-10.75 24-23.1 24S232 469.3 232 456V309.8l-79.1 25.95V456c0 13.25-10.75 24-23.1 24c-13.25 0-24-10.75-24-24v-104.7l-72.59 23.54C28.95 375.6 26.45 376 24.01 376c-10.12 0-19.53-6.438-22.84-16.59c-4.062-12.62 2.844-26.16 15.44-30.25l87.4-28.35V56c0-13.25 10.75-24 24-24c13.25 0 23.1 10.75 23.1 24v229.2l79.1-25.95V56c0-13.25 10.75-24 24-24S280 42.75 280 56v187.7l79.1-25.95V56c0-13.25 10.75-24 23.1-24s24 10.75 24 24v146.2l79.1-25.95V56c0-13.25 10.75-24 23.1-24c13.25 0 24 10.75 24 24v104.7l72.59-23.54C621.3 133.1 634.7 140 638.8 152.6C642.9 165.2 635.1 178.8 623.4 182.8z"/></svg>