<svg xmlns="http://www.w3.org/2000/svg" viewBox="0 0 512 512"><!--! Font Awesome Pro 6.0.0-alpha3 by @fontawesome - https://fontawesome.com License - https://fontawesome.com/license (Commercial License) --><path d="M112 288c-17.67 0-32 14.33-32 32c0 17.67 14.33 32 32 32s32-14.33 32-32C144 302.3 129.7 288 112 288zM400 288c-17.67 0-32 14.33-32 32c0 17.67 14.33 32 32 32s32-14.33 32-32C432 302.3 417.7 288 400 288zM462.9 220.7l-40.56-101.4C410.4 89.28 383.4 68.87 352 64.85V32c0-17.67-14.33-32-32-32H192C174.3 0 160 14.33 160 32v32.85C128.6 68.87 101.6 89.28 89.63 119.3L49.06 220.7C19.91 237.2 0 268.1 0 304V480c0 17.67 14.33 32 32 32s32-14.33 32-32v-48h384V480c0 17.67 14.33 32 32 32s32-14.33 32-32V304C512 268.1 492.1 237.2 462.9 220.7zM134.2 137.1C140.3 121.9 154.9 112 171.3 112h169.3c16.45 0 31.03 9.875 37.14 25.14L406.2 208H105.8L134.2 137.1zM464 384h-416V304C48 277.5 69.55 256 96.01 256h319.1C442.5 256 464 277.5 464 304V384z"/></svg>