<svg xmlns="http://www.w3.org/2000/svg" viewBox="0 0 640 512"><!--! Font Awesome Pro 6.0.0-alpha3 by @fontawesome - https://fontawesome.com License - https://fontawesome.com/license (Commercial License) --><path d="M336 336c-13.25 0-24 10.74-24 24c0 13.25 10.75 24 24 24s24-10.75 24-24C360 346.7 349.3 336 336 336zM48 328.4V224.1h203.2l12.42-31.04c2.418-6.033 5.498-11.61 8.877-16.95H216V48.7c68.53 3.988 120 24.6 120 50.4V128h2.41c5.664-21.64 22.18-38.76 43.55-45.09C367.7 22.19 273.7 0 192 0C103.4 0 0 25.99 0 99.1v229.3c.125 30.87 25.12 55.86 56 55.86L64 384.1v31.1C64 433.8 78.38 448 96 448s32-14.33 32-31.96v-31.96h64v-31.69c0-5.373 .375-10.75 1.125-15.99H56C51.63 336.4 48 332.8 48 328.4zM48 99.1c0-25.79 51.47-46.41 120-50.4v127.4H48V99.1zM528 336c-13.25 0-24 10.74-24 24c0 13.25 10.75 24 24 24s24-10.75 24-24C552 346.7 541.3 336 528 336zM80 280c0 13.25 10.75 23.1 24 23.1S128 293.3 128 280c0-13.25-10.75-23.99-24-23.99S80 266.8 80 280zM602.4 284.4l-31.82-79.54C559.7 177.6 533.7 160 504.4 160H496V144c0-17.67-14.33-32-32-32h-64c-17.67 0-32 14.33-32 32V160h-8.391c-29.33 0-55.33 17.6-66.23 44.83l-31.82 79.55C238.9 301.1 224 329.2 224 360V480c0 17.67 14.33 32 32 32s32-14.33 32-32v-32h288v32c0 17.67 14.33 32 32 32s32-14.33 32-32v-120C640 329.2 625.1 301.1 602.4 284.4zM337.9 222.7C341.5 213.8 350 208 359.6 208h144.8c9.598 0 18.1 5.76 21.67 14.66L542.6 264h-221.2L337.9 222.7zM592 400h-320v-40c0-26.47 21.53-48 48-48h224c26.47 0 48 21.53 48 48V400z"/></svg>