<svg xmlns="http://www.w3.org/2000/svg" viewBox="0 0 512 512"><!--! Font Awesome Pro 6.0.0-alpha3 by @fontawesome - https://fontawesome.com License - https://fontawesome.com/license (Commercial License) --><path d="M255.1-.0078c-141.4 0-256 114.6-256 256s114.6 256 256 256s256-114.6 256-256S397.4-.0078 255.1-.0078zM215 52.09C213.8 103.6 189.7 153.9 144.4 185.6c-28.2 19.72-60.37 29.49-92.4 30.16C68.15 133.6 132.9 68.57 215 52.09zM48.39 263.9c42.75-.0156 85.91-12.63 123.5-38.96c59.72-41.85 91.47-108.7 91.64-176.6c108.7 3.93 196.1 91.41 200.1 200.1c-42.77-.043-85.91 12.27-123.5 38.62c-59.71 41.84-91.46 108.6-91.63 176.5C139.9 459.7 52.5 372.4 48.39 263.9zM297 459.9c1.199-51.49 25.3-101.8 70.63-133.5c28.18-19.7 60.35-29.32 92.37-30.03C443.8 378.5 379.1 443.4 297 459.9z"/></svg>