<svg xmlns="http://www.w3.org/2000/svg" viewBox="0 0 640 512"><!--! Font Awesome Pro 6.0.0-alpha3 by @fontawesome - https://fontawesome.com License - https://fontawesome.com/license (Commercial License) --><path d="M48 400V96C21.5 96 0 117.5 0 144V416c0 35.31 28.64 64 64 64h432c26.5 0 48-21.5 48-48H80C62.34 432 48 417.7 48 400zM512 224c-8.836 0-16 7.162-16 16C496 248.8 503.2 256 512 256s16-7.164 16-16C528 231.2 520.8 224 512 224zM512 288c-8.836 0-16 7.162-16 16c0 8.836 7.164 16 16 16s16-7.164 16-16C528 295.2 520.8 288 512 288zM512 160c-8.836 0-16 7.162-16 16C496 184.8 503.2 192 512 192s16-7.164 16-16C528 167.2 520.8 160 512 160zM512 96c-8.836 0-16 7.162-16 16C496 120.8 503.2 128 512 128s16-7.164 16-16C528 103.2 520.8 96 512 96zM422 180H378l-48.76-80.26C328.1 97.67 325.2 96 322.8 96h-30.39C287.5 96 283.9 100.7 285.3 105.5L308 180L256.1 180L238.1 154.8C236.8 153 234.7 152 232.5 152h-17.5c-4.553 0-7.889 4.277-6.781 8.693L221.1 208L208.2 255.3C207.1 259.7 210.4 264 214.1 264h17.5c2.201-.002 4.279-1.039 5.605-2.805L256.1 236h51.02L285.3 310.5C283.9 315.3 287.5 319.1 292.4 320h30.39c2.654 0 5.117-1.43 6.438-3.742L377.1 236H422C437.5 236 464 223.5 464 208S437.5 180 422 180zM640 169.6V96c0-35.35-28.65-64-64-64H160C124.7 32 96 60.65 96 96v224c0 35.35 28.65 64 64 64h416c35.35 0 64-28.65 64-64V246.4C621.9 242.6 608 227.3 608 208S621.9 173.4 640 169.6zM592 140.7C572.2 156.7 560 181 560 208s12.16 51.27 32 67.35V320c0 8.822-7.178 16-16 16H160c-8.822 0-16-7.178-16-16V96c0-8.822 7.178-16 16-16h416c8.822 0 16 7.178 16 16V140.7z"/></svg>