<svg xmlns="http://www.w3.org/2000/svg" viewBox="0 0 640 512"><!--! Font Awesome Pro 6.0.0-alpha3 by @fontawesome - https://fontawesome.com License - https://fontawesome.com/license (Commercial License) --><path d="M632 216H640V128c0-35.38-28.62-64-64-64H64C28.62 64 0 92.63 0 128v256c0 35.38 28.62 64 64 64h512c35.38 0 64-28.62 64-64V296h-8c-22.12 0-40-17.88-40-40S609.9 216 632 216zM592 177.6C563.5 192.3 544 221.9 544 256s19.5 63.75 48 78.38V384c0 8.844-7.156 16-16 16H64c-8.844 0-16-7.156-16-16V128c0-8.844 7.156-16 16-16h512c8.844 0 16 7.156 16 16V177.6zM432 272C423.2 272 416 279.2 416 288c0 8.836 7.164 16 16 16S448 296.8 448 288C448 279.2 440.8 272 432 272zM432 336c-8.836 0-16 7.162-16 16c0 8.836 7.164 16 16 16S448 360.8 448 352C448 343.2 440.8 336 432 336zM432 208C423.2 208 416 215.2 416 224c0 8.836 7.164 16 16 16S448 232.8 448 224C448 215.2 440.8 208 432 208zM432 144C423.2 144 416 151.2 416 160c0 8.836 7.164 16 16 16S448 168.8 448 160C448 151.2 440.8 144 432 144zM310 228H265.1L217.2 147.7C216.1 145.7 213.2 144 210.8 144h-30.39c-4.93 0-8.496 4.719-7.133 9.459L196 228L144.1 228L126.1 202.8C124.8 201 122.7 200 120.5 200h-17.5c-4.553 0-7.889 4.277-6.781 8.693L109.1 256L96.21 303.3C95.11 307.7 98.44 312 102.1 312h17.5c2.201-.002 4.279-1.039 5.605-2.805L144.1 284h51.02l-22.75 74.53C171.9 363.3 175.5 367.1 180.4 368h30.39c2.654 0 5.117-1.43 6.438-3.742L265.1 284h44c15.46 .002 42.01-12.54 42.01-28S325.5 228 310 228z"/></svg>