<svg xmlns="http://www.w3.org/2000/svg" viewBox="0 0 576 512"><!--! Font Awesome Pro 6.0.0-alpha3 by @fontawesome - https://fontawesome.com License - https://fontawesome.com/license (Commercial License) --><path d="M568 216H576V128c0-35.35-28.65-64-64-64H64C28.65 64 0 92.65 0 128v88h8C30.12 216 48 233.9 48 256S30.12 296 8 296H0V384c0 35.35 28.65 64 64 64h448c35.35 0 64-28.65 64-64V296h-8c-22.12 0-40-17.88-40-40S545.9 216 568 216zM528 177.6C499.5 192.2 480 221.9 480 256s19.5 63.75 48 78.38V384c0 8.837-7.163 16-16 16H64c-8.837 0-16-7.163-16-16v-49.63C76.5 319.8 96 290.1 96 256S76.5 192.2 48 177.6V128c0-8.837 7.163-16 16-16h448c8.837 0 16 7.163 16 16V177.6z"/></svg>