<svg xmlns="http://www.w3.org/2000/svg" viewBox="0 0 576 512"><!--! Font Awesome Pro 6.0.0-alpha3 by @fontawesome - https://fontawesome.com License - https://fontawesome.com/license (Commercial License) --><path d="M568 216H576V128c0-35.35-28.65-64-64-64H64C28.65 64 0 92.65 0 128v88h8c22.12 0 40 17.88 40 40S30.13 296 8 296H0V384c0 35.35 28.65 64 64 64h448c35.35 0 64-28.65 64-64V296h-8c-22.12 0-40-17.87-40-39.1S545.9 216 568 216zM528 177.6C499.5 192.3 480 221.9 480 256s19.5 63.75 48 78.38V384c0 8.836-7.164 16-16 16H64c-8.836 0-16-7.164-16-16v-49.63C76.5 319.8 96 290.1 96 256S76.5 192.3 48 177.6V128c0-8.838 7.164-16 16-16h448c8.836 0 16 7.162 16 16V177.6zM416 160H160C142.3 160 128 174.3 128 192v128c0 17.67 14.33 32 32 32h256c17.67 0 32-14.33 32-32V192C448 174.3 433.7 160 416 160zM400 304h-224v-96h224V304z"/></svg>