<svg xmlns="http://www.w3.org/2000/svg" viewBox="0 0 512 512"><!--! Font Awesome Pro 6.0.0-alpha3 by @fontawesome - https://fontawesome.com License - https://fontawesome.com/license (Commercial License) --><path d="M256 16c-13.25 0-24 10.75-24 24v80C232 133.3 242.8 144 256 144s24-10.75 24-24V65.5C374.6 77.34 448 158.3 448 256c0 105.9-86.13 192-192 192s-192-86.13-192-192c0-41.31 12.91-80.66 37.31-113.8c7.875-10.69 5.594-25.69-5.062-33.56C85.56 100.8 70.5 103.1 62.69 113.8C32.16 155.2 16 204.4 16 256c0 132.3 107.7 240 239.1 240S496 388.3 496 256S388.3 16 256 16zM239 272.1c4.688 4.688 10.81 7.031 16.97 7.031s12.28-2.344 16.97-7.031c9.375-9.375 9.375-24.56 0-33.94l-79.1-80c-9.375-9.375-24.56-9.375-33.94 0s-9.375 24.56 0 33.94L239 272.1z"/></svg>