<svg xmlns="http://www.w3.org/2000/svg" viewBox="0 0 640 512"><!--! Font Awesome Pro 6.0.0-alpha3 by @fontawesome - https://fontawesome.com License - https://fontawesome.com/license (Commercial License) --><path d="M630.4 236.8l-96-72c-10.62-7.969-25.72-5.797-33.59 4.797c-7.969 10.61-5.812 25.66 4.781 33.61L543.1 232H376V123.3C399.4 113.8 416 90.84 416 64c0-35.34-28.65-64-64-64C316.7 0 288 28.66 288 64c0 26.84 16.56 49.75 40 59.25V232h-176V123.3C175.4 113.8 192 90.84 192 64c0-35.34-28.65-64-64-64C92.65 0 64 28.66 64 64c0 26.84 16.56 49.75 40 59.25V232h-80C10.75 232 0 242.8 0 256s10.75 24 24 24h176v108.7C176.6 398.3 160 421.2 160 448c0 35.34 28.65 64 64 64c35.35 0 64-28.66 64-64c0-26.84-16.56-49.75-40-59.25V280h295.1l-38.4 28.8c-10.59 7.953-12.75 23-4.781 33.61C505.5 348.7 512.7 352 520 352c5 0 10.06-1.562 14.38-4.797l96-72C636.4 270.7 640 263.5 640 256S636.4 241.3 630.4 236.8zM352 40c13.23 0 24 10.77 24 24c0 13.23-10.77 24-24 24c-13.23 0-24-10.77-24-24C328 50.77 338.8 40 352 40zM128 40c13.23 0 24 10.77 24 24c0 13.23-10.77 24-24 24C114.8 88 104 77.23 104 64C104 50.77 114.8 40 128 40zM224 472c-13.23 0-24-10.77-24-24c0-13.23 10.77-24 24-24c13.23 0 24 10.77 24 24C248 461.2 237.2 472 224 472z"/></svg>