<svg xmlns="http://www.w3.org/2000/svg" viewBox="0 0 640 512"><!--! Font Awesome Pro 6.0.0-alpha3 by @fontawesome - https://fontawesome.com License - https://fontawesome.com/license (Commercial License) --><path d="M616 232h-80V123.3C559.4 113.8 576 90.84 576 64c0-35.34-28.65-64-64-64c-35.35 0-64 28.66-64 64c0 26.84 16.56 49.75 40 59.25V232H152V123.3C175.4 113.8 192 90.84 192 64c0-35.34-28.65-64-64-64C92.65 0 64 28.66 64 64c0 26.84 16.56 49.75 40 59.25V232h-80C10.75 232 0 242.8 0 256s10.75 24 24 24h272v108.7C272.6 398.3 256 421.2 256 448c0 35.34 28.65 64 64 64c35.35 0 64-28.66 64-64c0-26.84-16.56-49.75-40-59.25V280h272C629.3 280 640 269.3 640 256S629.3 232 616 232zM512 40c13.23 0 24 10.77 24 24c0 13.23-10.77 24-24 24c-13.23 0-24-10.77-24-24C488 50.77 498.8 40 512 40zM128 40c13.23 0 24 10.77 24 24c0 13.23-10.77 24-24 24C114.8 88 104 77.23 104 64C104 50.77 114.8 40 128 40zM320 472c-13.23 0-24-10.77-24-24c0-13.23 10.77-24 24-24c13.23 0 24 10.77 24 24C344 461.2 333.2 472 320 472z"/></svg>