<svg xmlns="http://www.w3.org/2000/svg" viewBox="0 0 512 512"><!--! Font Awesome Pro 6.0.0-alpha3 by @fontawesome - https://fontawesome.com License - https://fontawesome.com/license (Commercial License) --><path d="M256 352c17.62 0 32-14.25 32-32c0-17.62-14.38-32-32-32s-32 14.38-32 32C224 337.8 238.4 352 256 352zM504.1 215.8c-6-28.62-19.5-54.88-34.25-80c-14.25-24.5-21.88-50.88-21.88-76.25V24c0-13.26-10.75-24-24-24c-13.25 0-23.1 10.74-23.1 24v35.5c0 89 55.63 112.5 63.25 206.1c4.625 59-11.12 105.3-53.25 153.4C402.5 427.4 391.5 432 380.3 432h-248.5C120 432 108.9 426.7 101.1 417.9c-41.47-47.64-56.97-93.66-52.38-152.3C56.25 173.8 112 147.1 112 59.5V24c0-13.26-10.75-24-24-24C74.75 0 64 10.74 64 24v35.5c0 25.38-7.5 51.75-21.88 76.25C27.38 160.9 13.88 187.1 7.877 215.6c-19.75 93.38-3 165.1 57.75 234.5c4.25 5 9.125 9.25 14.38 13.12L80 496c0 8.836 7.164 16 16 16h32c8.838 0 16-7.164 16-16V480h32v16c0 8.836 7.164 16 15.1 16h32c8.838 0 16-7.164 16-16V480h32v16c0 8.836 7.164 16 16 16h32c8.838 0 16-7.164 16-16V480h32v16c0 8.836 7.164 16 16 16h32c8.838 0 16-7.164 16-16l.0013-32.75c5.25-3.875 10.12-8.125 14.38-13C507.1 380.8 523.9 309 504.1 215.8zM256 256c13.25 0 24-10.75 24-24V96c0-13.25-10.75-24-24-24S232 82.75 232 96v136C232 245.3 242.8 256 256 256z"/></svg>