<svg xmlns="http://www.w3.org/2000/svg" viewBox="0 0 512 512"><!--! Font Awesome Pro 6.0.0-alpha3 by @fontawesome - https://fontawesome.com License - https://fontawesome.com/license (Commercial License) --><path d="M474.4 165.5c6.875-24.88 .5-52.63-19-72.13l-36.75-36.75c-14-14-32.5-21.75-52.38-21.75c-6.75 0-13.5 1-19.88 2.75C333.8 15.12 309.6 0 281.1 0h-52C202.4 0 178.3 15.12 165.6 37.63c-6.5-1.75-13.25-2.75-19.88-2.75c-19.88 0-38.38 7.75-52.38 21.75L56.63 93.38c-19.5 19.5-25.88 47.25-19 72.13C15.25 178.3 0 202.4 0 230v52c0 27.62 15.25 51.75 37.63 64.5c-6.875 24.88-.5 52.63 19 72.13l36.75 36.75c14 14 32.5 21.75 52.38 21.75c6.75 0 13.38-1 19.88-2.75C178.3 496.9 202.4 512 229.1 512h52c27.63 0 51.75-15.12 64.38-37.63c6.5 1.75 13.25 2.75 19.88 2.75c19.88 0 38.38-7.75 52.38-21.75l36.75-36.75c19.5-19.5 25.88-47.25 19-72.13C496.8 333.8 512 309.6 512 282v-52C512 202.4 496.8 178.3 474.4 165.5zM464 282c0 14.38-11.62 26-26 26h-7.625c-3.625 12.12-8.375 23.75-14.25 34.63l5.375 5.25c10.12 10.25 10.12 26.62 0 36.88l-36.75 36.75c-5.125 5-11.75 7.625-18.5 7.625c-6.625 0-13.25-2.625-18.38-7.625l-5.25-5.375C331.8 422 320.1 426.8 308 430.4V438c0 14.38-11.62 26-26 26h-52C215.6 464 204 452.4 204 438v-7.625C191.9 426.8 180.3 422 169.4 416.1L164.1 421.5c-5.125 5-11.75 7.625-18.38 7.625c-6.75 0-13.38-2.625-18.5-7.625L90.5 384.8c-10.12-10.25-10.12-26.62 0-36.88l5.375-5.25c-5.875-11-10.62-22.5-14.25-34.63H73.1C59.63 308 48 296.4 48 282v-52c0-14.38 11.62-26 25.1-26h7.625c3.625-12.12 8.375-23.75 14.25-34.63L90.5 164.1c-10.12-10.25-10.12-26.62 0-36.88L127.3 90.5c5.125-5 11.75-7.625 18.5-7.625c6.625 0 13.25 2.625 18.38 7.625l5.25 5.375C180.3 90 191.9 85.25 204 81.63V74C204 59.63 215.6 48 229.1 48h52C296.4 48 308 59.63 308 74v7.625c12.12 3.625 23.75 8.375 34.63 14.25l5.25-5.375c5.125-5 11.75-7.625 18.38-7.625c6.75 0 13.38 2.625 18.5 7.625l36.75 36.75c10.12 10.25 10.12 26.62 0 36.88l-5.375 5.25c5.875 10.88 10.62 22.5 14.25 34.63h7.625C452.4 204 464 215.6 464 230V282zM256 128C185.3 128 128 185.3 128 256c0 70.69 57.31 128 128 128s128-57.31 128-128C384 185.3 326.7 128 256 128zM180.1 256.6C167.5 252.5 160.6 238.9 164.7 226.3S182.3 206.8 194.9 210.9C207.5 215 214.4 228.6 210.3 241.2C206.3 253.8 192.7 260.7 180.1 256.6zM233.1 328.4c-7.791 10.72-22.8 13.1-33.52 5.311c-10.72-7.791-13.1-22.8-5.309-33.52c7.791-10.72 22.8-13.1 33.52-5.312C238.5 302.6 240.9 317.6 233.1 328.4zM256 208c-13.25 0-24-10.75-24-24C232 170.7 242.7 160 256 160s24 10.74 24 24C280 197.3 269.3 208 256 208zM312.4 333.7c-10.72 7.791-25.73 5.412-33.52-5.311s-5.418-25.74 5.304-33.53c10.72-7.791 25.74-5.411 33.53 5.314C325.5 310.9 323.2 325.9 312.4 333.7zM331.9 256.6c-12.61 4.096-26.15-2.801-30.25-15.41c-4.096-12.61 2.807-26.15 15.41-30.24c12.61-4.098 26.14 2.803 30.24 15.41S344.5 252.5 331.9 256.6z"/></svg>