<svg xmlns="http://www.w3.org/2000/svg" viewBox="0 0 512 512"><!--! Font Awesome Pro 6.0.0-alpha3 by @fontawesome - https://fontawesome.com License - https://fontawesome.com/license (Commercial License) --><path d="M256 116C161 116 84 193 84 288S161 460 256 460S428 383 428 288S351 116 256 116zM256 164c18.62 0 36 4.375 51.88 11.75L281.3 212.5C273.3 209.8 264.9 208 256 208S238.8 209.8 230.8 212.5L204.1 175.8C220 168.4 237.4 164 256 164zM133.5 302.5C132.9 297.8 132 293 132 288c0-32.5 12.88-61.88 33.38-84l26.5 36.63C181.1 253.9 176 270.1 176 288c0 .25 .125 .5 .125 .75L133.5 302.5zM232 409.6c-36.13-7.125-66.25-30.25-83.75-61.38L191 334.4c10 13.88 24.25 24.25 41 29.5V409.6zM256 320c-17.62 0-32-14.38-32-32s14.38-32 32-32s32 14.38 32 32S273.6 320 256 320zM280 409.6v-45.75c16.75-5.25 31-15.62 41-29.5l42.75 13.88C346.3 379.4 316.1 402.5 280 409.6zM378.5 302.5l-42.63-13.75C335.9 288.5 336 288.3 336 288c0-17.88-6-34.13-15.88-47.38L346.6 204C367.1 226.1 380 255.5 380 288C380 293 379.1 297.8 378.5 302.5zM476.4 417.8C498.1 379.8 512 335.4 512 288c0-141.4-114.6-256-256-256S0 146.6 0 288c0 47.45 13.03 91.78 35.58 129.8C15.13 423.3 0 441.8 0 464C0 490.5 21.49 512 48 512h416c26.51 0 48-21.49 48-48C512 441.8 496.9 423.3 476.4 417.8zM431.1 435.8C437.6 449.7 449.5 460.1 464 464L48.04 464.2c14.5-3.898 26.34-14.35 31.1-28.26c5.66-13.9 4.486-29.66-3.168-42.57C57.98 361.5 48 325.1 48 288c0-114.7 93.31-208 208-208s208 93.31 208 208c0 37.06-9.984 73.48-28.87 105.3C427.5 406.3 426.3 421.9 431.1 435.8z"/></svg>