<svg xmlns="http://www.w3.org/2000/svg" viewBox="0 0 512 512"><!--! Font Awesome Pro 6.0.0-alpha3 by @fontawesome - https://fontawesome.com License - https://fontawesome.com/license (Commercial License) --><path d="M256 84C161 84 84 161 84 256S161 428 256 428S428 351 428 256S351 84 256 84zM256 132c18.62 0 36 4.375 51.88 11.75l-26.63 36.75C273.2 177.8 264.9 176 256 176S238.8 177.8 230.8 180.5L204.1 143.8C220 136.4 237.4 132 256 132zM133.5 270.5C132.9 265.8 132 261 132 256c0-32.5 12.88-61.88 33.38-84l26.5 36.62C181.1 221.9 176 238.1 176 256c0 .25 .125 .5 .125 .75L133.5 270.5zM232 377.6c-36.13-7.125-66.25-30.25-83.75-61.38L191 302.4c10 13.87 24.25 24.25 41 29.5V377.6zM256 288C238.4 288 224 273.6 224 256s14.38-32 32-32s32 14.38 32 32S273.6 288 256 288zM280 377.6v-45.75c16.75-5.25 31-15.63 41-29.5l42.75 13.87C346.2 347.4 316.1 370.5 280 377.6zM335.9 256.8C335.9 256.5 336 256.2 336 256c0-17.88-6-34.12-15.88-47.38L346.6 172C367.1 194.1 380 223.5 380 256c0 5-.875 9.75-1.5 14.5L335.9 256.8zM256 0C114.6 0 0 114.6 0 256s114.6 256 256 256s256-114.6 256-256S397.4 0 256 0zM256 464c-114.8 0-208-93.25-208-208S141.2 48 256 48s208 93.25 208 208S370.8 464 256 464z"/></svg>