<svg xmlns="http://www.w3.org/2000/svg" viewBox="0 0 512 512"><!--! Font Awesome Pro 6.0.0-alpha3 by @fontawesome - https://fontawesome.com License - https://fontawesome.com/license (Commercial License) --><path d="M479.1 176c17.67-.0016 31.1-14.33 31.1-31.1L511.1 24.78c-.001-11.34-11.43-19.08-21.94-14.84c-36.04 14.56-74.57 22.07-113.5 22.07L135.5 32.02C96.46 32.03 57.99 24.54 21.94 9.988C11.42 5.743-.0011 13.49 0 24.83L.0112 144.1c.0017 17.67 14.33 31.99 32 31.99l31.1-.003L64.02 240.1L24.02 240.1c-13.2 .0013-23.1 10.8-23.1 23.1c.0012 13.2 10.8 23.99 24 23.99l39.99-.0274l.0297 199.1C64.04 501.2 74.82 512 88.02 512c13.2-.0013 24.02-10.8 24.02-23.1L112 288l287.1-.027l.0188 199.1c.0012 13.2 10.79 24.01 23.99 24.01c13.2-.0013 24.01-10.82 24.01-24.01l-.0213-199.1l40 .0019C501.2 288 512 277.2 512 264c-.0012-13.2-10.8-23.99-24-23.99l-39.1 .0038l-.006-63.99L479.1 176zM232 240L112 240.1L112 176.1l119.1-.0112L232 240zM400 240l-119.1 .0113L280 176l119.1-.0112L400 240zM48.01 128.1L48 68.97C76.63 76.34 106.1 80.09 135.5 80.08l240.9-.0226c29.5-.0028 58.1-3.755 87.5-11.13l.0056 59.11L48.01 128.1z"/></svg>