<svg xmlns="http://www.w3.org/2000/svg" viewBox="0 0 448 512"><!--! Font Awesome Pro 6.0.0-alpha3 by @fontawesome - https://fontawesome.com License - https://fontawesome.com/license (Commercial License) --><path d="M415.1 128h-95.98c0-17.67-14.33-32-31.1-32H248V48h16C277.3 48 288 37.25 288 24C288 10.74 277.3 0 264 0h-80C170.7 0 160 10.74 160 24C160 37.25 170.7 48 184 48h16V96H160C142.3 96 128 110.3 128 128H32.02c-21.26 0-36.61 20.35-30.77 40.79l40.18 140.6C35.83 313.8 32 320.3 32 328C32 341.3 42.75 352 56 352H80v136C80 501.3 90.75 512 104 512C117.3 512 128 501.3 128 488L128 352h191.1L320 488c0 13.25 10.75 24 24 24c13.26 0 24-10.75 24-24V352h24c13.26 0 24-10.75 24-24c0-7.67-3.83-14.2-9.428-18.59l40.18-140.6C452.6 148.3 437.2 128 415.1 128zM394.8 176l-36.57 128H320v-128H394.8zM272 176v128h-96v-128H272zM128 176v128H89.8l-36.57-128H128z"/></svg>