<svg xmlns="http://www.w3.org/2000/svg" viewBox="0 0 640 512"><!--! Font Awesome Pro 6.0.0-alpha3 by @fontawesome - https://fontawesome.com License - https://fontawesome.com/license (Commercial License) --><path d="M584 160h-64c0-28.14 9.562-56.56 27.62-82.17c7.625-10.83 5.031-25.8-5.781-33.44C530.9 36.7 516 39.31 508.4 50.17C484.6 83.91 472 121.9 472 160h-97.66c-.1973-.5527-.127-1.127-.3672-1.672L318.4 32.16C309.2 12.62 289.3 0 267.7 0H152C121.1 0 96 25.12 96 56v138.5C87.35 187.8 75.1 188 67.14 196L36 227.1c-8.625 8.625-8.625 22.49 0 31.12l5.02 5.02C36.15 272.5 32.13 282.1 29.13 291.1H21.1C9.875 291.1 0 301.9 0 314v43.1C0 370.1 9.875 380 21.1 380h7.131c3 9.875 6.887 19.49 11.89 28.74l-5 5c-8.625 8.625-8.625 22.5 0 31.12L67.12 475.1c8.625 8.625 22.5 8.625 31.12 0l5.02-5.02c9.25 4.875 18.87 8.887 28.74 11.89v7.133C132 502.1 141.9 512 153.1 512h44C210.1 512 220 502.1 220 489.1v-7.13c9.875-3 19.49-6.995 28.74-11.87l5.02 5.02c8.625 8.625 22.5 8.625 31.12 0L316 444.9c8.625-8.625 8.625-22.49 0-31.12l-5.062-5.02c5-9.25 8.928-18.87 11.93-28.74h7.133C342.1 380 352 370.1 352 357.1V314C352 301.9 342.1 291.1 329.1 291.1h-7.135C319.9 282.1 315.9 272.5 311 263.3l5.04-5.04c8.625-8.625 8.625-22.49 0-31.11L296.9 208H584c4.406 0 8 3.594 8 8v58.75c0 2.109-.8438 4.156-2.344 5.656l-53.25 53.25C534.9 335.1 532.8 336 530.8 336H408c-13.25 0-24 10.75-24 24S394.8 384 408 384h42.04C443.8 396.1 440 409.5 440 424c0 48.6 39.4 88 88 88s88-39.4 88-88c0-27.89-13.23-52.46-33.48-68.58l41.07-41.07C634.2 303.8 640 289.7 640 274.8V216C640 185.1 614.9 160 584 160zM152 48h115.7c3.094 0 5.938 1.797 7 4.047L322.2 160H144V56C144 51.59 147.6 48 152 48zM176 415.1c-44.13 0-80-35.88-80-80s35.88-80 80-80s80 35.88 80 80S220.1 415.1 176 415.1zM528 464c-22.06 0-40-17.95-40-40c0-22.06 17.94-40 40-40s40 17.94 40 40C568 446.1 550.1 464 528 464z"/></svg>