<svg xmlns="http://www.w3.org/2000/svg" viewBox="0 0 512 512"><!--! Font Awesome Pro 6.0.0-alpha3 by @fontawesome - https://fontawesome.com License - https://fontawesome.com/license (Commercial License) --><path d="M487.1 463.1l-13.38 .0013L294.5 11.5C291.7 4.623 284.1-.0007 277.5 0l-43 .004c-7.5 .0007-14.25 4.626-16.1 11.5L37.37 464L23.1 464C10.74 464-.0012 474.7 0 488C.0012 501.3 10.75 512 24 512l464-.0435C501.3 511.1 512 501.2 512 487.1S501.3 463.1 487.1 463.1zM365.6 319.1l-219.2 .0206l44.49-111.1l130.3-.0122L365.6 319.1zM256 48l45.97 111.1l-92 .0086L256 48zM127.2 367.1l257.5-.0241l38.26 95.99l-334 .0313L127.2 367.1z"/></svg>