<svg xmlns="http://www.w3.org/2000/svg" viewBox="0 0 384 512"><!--! Font Awesome Pro 6.0.0-alpha3 by @fontawesome - https://fontawesome.com License - https://fontawesome.com/license (Commercial License) --><path d="M335.1 319.1l-.0059-45.25c28.62-16.75 48.01-47.24 48.01-82.74l-48.01-.0119l-.0059-45.25c28.62-16.75 48.02-47.24 48.01-82.74l-48.02-.0165c-.002-35.2-28.8-64-64.01-63.1L111.1-.0117C76.79-.0078 47.1 28.79 48 63.99L.002 64c.0039 35.5 19.38 66 48.01 82.75l.0039 45.25L.0059 192c.0039 35.5 19.39 66.01 48.01 82.76l.0039 45.25l-48.01-.0102c.0039 37.75 22.02 70.02 53.65 85.77c16.63 61.13 71.98 106.2 138.3 106.2c66.37-.0059 121.7-45.13 138.4-106.3c31.62-15.75 53.63-47.1 53.62-85.75L335.1 319.1zM173 462.2c-45.63-8.777-77.01-51.43-77.02-97.9L95.1 63.1c-.002-8.838 7.159-16 15.1-16l159.1-.0156c8.836 0 16.02 7.175 16.02 16.01l.0137 304C288 427.1 234.3 473.1 173 462.2zM192 304C218.5 304 239.1 282.5 239.1 255.1c-.0039-26.5-21.5-47.1-47.1-47.1C165.5 208 144 229.5 144 256S165.5 304 192 304zM191.1 175.1C191.1 175.1 191.1 175.1 191.1 175.1c26.5-.002 47.99-21.51 47.99-48.01c-.0039-26.5-21.5-47.1-47.99-47.1c-.002 0 .002 0 0 0c-26.5 .0039-47.1 21.5-47.1 48.01C143.1 154.5 165.5 175.1 191.1 175.1zM191.1 111.1c8.818 0 15.99 7.18 15.99 16c0 8.826-7.17 16.01-15.99 16.01s-16-7.181-16-16C175.1 119.2 183.2 111.1 191.1 111.1zM192 336C192 336 192 336 192 336c-26.5 .002-47.99 21.51-47.99 48.01c.002 26.5 21.5 47.1 47.1 47.1c.002 0-.002 0 0 0c26.5-.002 47.99-21.51 47.99-48.01C240 357.5 218.5 336 192 336zM203.3 395.3c-1.75 1.75-5.553 4.684-11.31 4.684c-8.818 0-15.99-7.172-15.99-15.99c0-5.764 2.938-9.562 4.689-11.31c1.75-1.752 5.549-4.691 11.31-4.691c8.816 0 15.99 7.178 15.99 16C208 389.8 205.1 393.6 203.3 395.3z"/></svg>