<svg xmlns="http://www.w3.org/2000/svg" viewBox="0 0 512 512"><!--! Font Awesome Pro 6.0.0-alpha3 by @fontawesome - https://fontawesome.com License - https://fontawesome.com/license (Commercial License) --><path d="M312 376c13.26 0 24-10.75 24-24c0-13.26-10.74-24-24-24C298.7 328 288 338.7 288 352C288 365.3 298.7 376 312 376zM200 376C213.3 376 224 365.3 224 352c0-13.26-10.74-24-24-24c-13.25 0-24 10.74-24 24C176 365.3 186.7 376 200 376zM238.1 .5527C102.9 9.361 0 128.4 0 264.8V488C0 501.3 10.75 512 24 512s24-10.75 24-24V263.2c0-105.7 75.78-200 180.6-213.5C355.5 33.48 464 132.3 464 256v232c0 13.25 10.75 24 24 24S512 501.3 512 488V256C512 108.1 388.1-9.102 238.1 .5527zM364.4 434.5C385.9 420.1 400 395.7 400 368v-160C400 163.8 364.2 128 320 128H192C147.8 128 112 163.8 112 208v160c0 27.73 14.13 52.14 35.56 66.5l-36.53 36.53c-9.375 9.375-9.375 24.56 0 33.94C115.7 509.7 121.8 512 128 512s12.28-2.344 16.97-7.031l56-56C201.3 448.7 201.3 448.3 201.6 448h108.8c.2695 .2969 .3574 .6836 .6426 .9687l56 56C371.7 509.7 377.8 512 384 512s12.28-2.344 16.97-7.031c9.375-9.375 9.375-24.56 0-33.94L364.4 434.5zM352 368c0 17.64-14.36 32-32 32H192c-17.64 0-32-14.36-32-32v-64h192V368zM352 256H160V208c0-17.64 14.36-32 32-32h128c17.64 0 32 14.36 32 32V256z"/></svg>