<svg xmlns="http://www.w3.org/2000/svg" viewBox="0 0 384 512"><!--! Font Awesome Pro 6.0.0-alpha3 by @fontawesome - https://fontawesome.com License - https://fontawesome.com/license (Commercial License) --><path d="M256 376c13.26 0 24-10.75 24-24c0-13.26-10.74-24-24-24c-13.25 0-24 10.74-24 24C232 365.3 242.7 376 256 376zM128 376c13.26 0 24-10.75 24-24c0-13.26-10.74-24-24-24c-13.25 0-24 10.74-24 24C104 365.3 114.7 376 128 376zM324.8 418.8C341.6 401.5 352 378 352 352V192c0-53.02-42.98-96-96-96h-40V48h66.75c22.75 0 44.16 8.875 60.28 24.98C347.7 77.66 353.9 80 360 80c6.156 0 12.28-2.344 16.97-7.031c9.375-9.375 9.375-24.58 0-33.95C351.8 13.86 318.3 0 282.8 0h-181.5C65.69 0 32.22 13.86 7.031 39.02c-9.375 9.375-9.375 24.58 0 33.95c9.344 9.359 24.53 9.375 33.94 .0156C57.09 56.88 78.5 48 101.3 48H168V96H128C74.98 96 32 138.1 32 192v160c0 26.01 10.44 49.53 27.24 66.82l-52.21 52.21c-9.375 9.375-9.375 24.56 0 33.94C11.72 509.7 17.84 512 24 512s12.28-2.344 16.97-7.031l60.1-60.1C110.3 446.3 118.9 448 128 448h128c9.088 0 17.7-1.668 26.04-4.027l60.1 60.1C347.7 509.7 353.8 512 360 512s12.28-2.344 16.97-7.031c9.375-9.375 9.375-24.56 0-33.94L324.8 418.8zM304 352c0 26.47-21.53 48-48 48H128c-26.47 0-48-21.53-48-48V288h224V352zM304 240h-224V192c0-26.47 21.53-48 48-48h128c26.47 0 48 21.53 48 48V240z"/></svg>