<svg xmlns="http://www.w3.org/2000/svg" viewBox="0 0 640 512"><!--! Font Awesome Pro 6.0.0-alpha3 by @fontawesome - https://fontawesome.com License - https://fontawesome.com/license (Commercial License) --><path d="M616 336H576V96c0-35.35-28.65-64-64-64H64C28.65 32 0 60.65 0 96v224c0 35.35 28.65 64 64 64h32c0 53 43 96 96 96s96-43 96-96h328c13.25 0 24-10.75 24-24C640 346.7 629.3 336 616 336zM192 432c-26.5 0-48-21.5-48-48s21.5-48 48-48s48 21.5 48 48S218.5 432 192 432zM528 336H274.8C257.1 307.4 227.5 288 192 288s-66 19.38-82.75 48H64c-8.836 0-16-7.164-16-16V96c0-8.838 7.164-16 16-16h448c8.836 0 16 7.162 16 16V336zM336 112c-13.25 0-24 10.75-24 24v144c0 13.25 10.75 24 24 24s24-10.75 24-24v-144C360 122.8 349.3 112 336 112zM240 112c-13.25 0-24 10.75-24 24v96C216 245.3 226.8 256 240 256s24-10.75 24-24v-96C264 122.8 253.3 112 240 112zM144 112c-13.25 0-24 10.75-24 24v96C120 245.3 130.8 256 144 256s24-10.75 24-24v-96C168 122.8 157.3 112 144 112zM432 112c-13.25 0-24 10.75-24 24v144c0 13.25 10.75 24 24 24s24-10.75 24-24v-144C456 122.8 445.3 112 432 112z"/></svg>