<svg xmlns="http://www.w3.org/2000/svg" viewBox="0 0 448 512"><!--! Font Awesome Pro 6.0.0-alpha3 by @fontawesome - https://fontawesome.com License - https://fontawesome.com/license (Commercial License) --><path d="M352 0H96C42.98 0 0 42.98 0 96v256c0 42.85 28.26 78.71 67.01 91.05l-27.98 27.98c-9.375 9.375-9.375 24.56 0 33.94C43.72 509.7 49.86 512 56 512s12.28-2.344 16.97-7.031L129.9 448h188.1l56.97 56.97C379.7 509.7 385.9 512 392 512s12.28-2.344 16.97-7.031c9.375-9.375 9.375-24.56 0-33.94l-27.98-27.98C419.7 430.7 448 394.8 448 352V96C448 42.98 405 0 352 0zM400 352c0 26.47-21.53 48-48 48H96c-26.47 0-48-21.53-48-48V224h352V352zM400 176h-352V96c0-26.47 21.53-48 48-48h256c26.47 0 48 21.53 48 48V176zM224 360c22.09 0 40-17.91 40-40S246.1 280 224 280S184 297.9 184 320S201.9 360 224 360z"/></svg>