<svg xmlns="http://www.w3.org/2000/svg" viewBox="0 0 640 512"><!--! Font Awesome Pro 6.0.0-alpha3 by @fontawesome - https://fontawesome.com License - https://fontawesome.com/license (Commercial License) --><path d="M623.6 197.7l-53.26-53.26c-10.5-10.5-24.74-16.4-39.58-16.4H480l0-40c0-30.93-25.07-56-56-56h-368c-30.93 0-56 25.07-56 56l0 308.7c0 42.15 31.17 79.5 73.17 83.03C102.3 482.2 128.2 468.8 144 447.6c16.87 22.65 45.17 36.28 76.58 31.45c32.24-4.965 58.91-30.46 65.6-62.39c2.384-11.38 2.306-22.32 .2089-32.64h163.2c-2.145 10.56-2.259 21.85 .298 33.51c6.716 30.62 31.74 55.23 62.55 61.02C563.5 488.1 608 449.3 608 399.1c0-5.48-.5684-10.83-1.619-16L608 383.1c17.67 0 32-14.33 32-32v-114.7C640 222.4 634.1 208.2 623.6 197.7zM530.8 175.1c2.109 0 4.156 .8594 5.656 2.344l45.66 45.66L480 223.1l0-48H530.8zM79.1 431.1c-17.64 0-32-14.36-32-32s14.36-32 32-32s32 14.36 32 32S97.64 431.1 79.1 431.1zM207.1 431.1c-17.64 0-31.1-14.36-31.1-32s14.36-32 31.1-32s32 14.36 32 32S225.6 431.1 207.1 431.1zM255.1 335.1v.3613c-13.4-10.13-29.9-16.36-48-16.36c-26.29 0-49.42 12.85-64 32.44C129.4 332.9 106.3 319.1 79.1 319.1c-11.39 0-22.19 2.459-32 6.754V87.1c0-4.406 3.594-8 8-8h368c4.406 0 8 3.594 8 8v248L255.1 335.1zM528 431.1c-17.64 0-32-14.36-32-32s14.36-32 32-32s32 14.36 32 32S545.6 431.1 528 431.1zM576 335.1v.3613c-13.4-10.13-29.9-16.36-48-16.36c-18.09 0-34.6 6.232-48 16.36l0-64.36H592v64H576z"/></svg>