<svg xmlns="http://www.w3.org/2000/svg" viewBox="0 0 640 512"><!--! Font Awesome Pro 6.0.0-alpha3 by @fontawesome - https://fontawesome.com License - https://fontawesome.com/license (Commercial License) --><path d="M618.1 201.1L535 117.1c-13.53-13.53-31.87-21.13-51-21.13H432c-26.51 0-48 21.49-48 48v76.34l-188.3-207.2C188.1 4.781 177.3 0 165.9 0H96C92.68 0 89.53 .6758 86.65 1.893C73.63 5.953 64 17.67 64 32v143.1c0 8.828-7.188 16-16 16S32 184.8 32 176V156.8c0-8.844-7.156-16-16-16S0 147.1 0 156.8V176c0 26.47 21.53 47.1 48 47.1S96 202.5 96 176V62.5l86.07 177.5L48 239.1c-26.51 0-48 21.49-48 48v80c0 26.51 21.49 48 48 48H64C64 469 106.1 512 160 512s96-42.98 96-96h128C384 469 426.1 512 480 512s96-42.98 96-96h16c26.51 0 48-21.49 48-48V251.9C640 232.8 632.4 214.6 618.1 201.1zM484 143.1c6.445 0 12.5 2.508 17.06 7.067l83.97 83.97c1.447 1.447 2.316 3.252 3.33 4.969H432V143.1H484zM142.3 48H162.5l174.5 191.1H235.4L142.3 48zM160 463.1c-26.47 0-48-21.53-48-48s21.53-48 48-48s48 21.53 48 48S186.5 463.1 160 463.1zM242.7 367.1C226.1 339.4 195.4 319.1 160 319.1s-66.05 19.42-82.69 47.1H48V287.1L384 287.1v79.1H242.7zM480 463.1c-26.47 0-48-21.53-48-48s21.53-48 48-48s48 21.53 48 48S506.5 463.1 480 463.1zM562.7 367.1C546.1 339.4 515.4 319.1 480 319.1c-17.58 0-33.83 5.066-48 13.31V287.1h160v80H562.7z"/></svg>