<svg xmlns="http://www.w3.org/2000/svg" viewBox="0 0 512 512"><!--! Font Awesome Pro 6.0.0-alpha3 by @fontawesome - https://fontawesome.com License - https://fontawesome.com/license (Commercial License) --><path d="M112 320c-17.67 0-32 14.33-32 32c0 17.67 14.33 32 32 32s32-14.33 32-32C144 334.3 129.7 320 112 320zM400 320c-17.67 0-32 14.33-32 32c0 17.67 14.33 32 32 32s32-14.33 32-32C432 334.3 417.7 320 400 320zM424 0H88C39.47 0 0 39.47 0 88v312c0 23.63 12.95 44.04 32 55.12V512c0 17.67 14.33 32 32 32s32-14.33 32-32v-48h320V512c0 17.67 14.33 32 32 32s32-14.33 32-32v-56.88c19.05-11.09 32-31.49 32-55.12V88C512 39.47 472.5 0 424 0zM464 352v48c0 8.822-7.178 16-16 16H64c-8.822 0-16-7.178-16-16v-64C48 309.5 69.53 288 96 288h320c26.47 0 48 21.53 48 48V352zM105.8 240l28.34-70.86C140.3 153.9 154.9 144 171.3 144h169.3c16.45 0 31.03 9.875 37.14 25.14L406.2 240H105.8zM464 253.4c-.3652-.2129-.6914-.4824-1.061-.6914l-40.56-101.4C408.9 117.7 376.9 96 340.7 96H171.3C135.1 96 103.1 117.7 89.63 151.3L49.06 252.7C48.69 252.9 48.37 253.2 48 253.4V88c0-22.06 17.94-40 40-40h336c22.06 0 40 17.94 40 40V253.4z"/></svg>