<svg xmlns="http://www.w3.org/2000/svg" viewBox="0 0 640 512"><!--! Font Awesome Pro 6.0.0-alpha3 by @fontawesome - https://fontawesome.com License - https://fontawesome.com/license (Commercial License) --><path d="M577.1 385.6c-7.451-7.467-11.63-17.59-11.63-28.13V218.7c0-10.65 4.225-20.87 11.75-28.41l54.9-53.36c9.336-9.357 9.328-24.51-.0195-33.86c-9.346-9.348-24.51-9.367-33.87-.0313l-54.88 53.12c-16.57 16.53-25.88 38.97-25.88 62.38V320H480V232c0-30.88-25.12-56-56-56h-37.6L317.2 59.45C307.2 42.52 288.8 32 269.1 32H184C153.1 32 128 57.13 128 88V176H56C25.12 176 0 201.1 0 232v112c0 13.25 10.75 24 24 24h9.613c-.8828 5.23-1.612 10.52-1.612 16c0 53.02 42.98 96 96 96s96-42.98 96-96c0-5.48-.7379-10.77-1.621-16H273.6C272.7 373.2 272 378.5 272 384c0 53.02 42.98 96 96 96s96-42.98 96-96c0-5.48-.7305-10.77-1.613-16h57.01c2.357 19.51 10.79 37.85 24.84 51.88l54.87 53.12c9.363 9.344 24.53 9.334 33.88-.0195c9.348-9.348 9.355-24.5 .0195-33.86L577.1 385.6zM176 88c0-4.406 3.594-8 8-8h85.06c2.812 0 5.438 1.484 6.875 3.922L330.6 176H176V88zM128 432c-26.47 0-48-21.53-48-48s21.53-48 48-48s48 21.53 48 48S154.5 432 128 432zM199.1 320C181.5 300.5 156.3 288 128 288s-53.52 12.49-71.09 32H48V232C48 227.6 51.59 224 56 224h368c4.406 0 8 3.594 8 8v80.91C414.1 297.6 392.7 288 368 288c-28.32 0-53.51 12.49-71.09 32H199.1zM368 432c-26.47 0-47.99-21.53-47.99-48S341.5 336 368 336s48.02 21.53 48.02 48S394.5 432 368 432z"/></svg>