<svg xmlns="http://www.w3.org/2000/svg" viewBox="0 0 640 512"><!--! Font Awesome Pro 6.0.0-alpha3 by @fontawesome - https://fontawesome.com License - https://fontawesome.com/license (Commercial License) --><path d="M50.27 375.6c2.25 8.5 11 13.62 19.5 11.25l216.5-57.1c8.5-2.25 13.5-11.12 11.25-19.62l-49.75-185.5c-2.25-8.5-11-13.5-19.5-11.25L151 133.2l24.75 92.75L114 242.5L89.27 149.7L11.89 170.5c-8.5 2.25-13.62 11.12-11.25 19.62L50.27 375.6zM528 288c-44.6 0-82.8 26.27-100.8 64H399.1V64c0-8.838 7.164-16 16-16H616C629.3 48 640 37.25 640 24C640 10.74 629.3 0 616 0h-199.1c-35.35 0-63.1 28.65-63.1 63.1l-.0088 297.9l-335.1 103.2c-12.66 3.938-19.72 17.39-15.78 30.05C4.277 505.4 13.75 512 23.1 512c2.344 0 4.75-.3438 7.125-1.078L387.7 400l28.35 .0664C416 461.9 466.1 512 528 512s112-50.14 112-112S589.9 288 528 288zM528 464c-35.35 0-64-28.65-64-64c0-35.35 28.65-64 64-64s64 28.65 64 64C592 435.3 563.3 464 528 464z"/></svg>