<svg xmlns="http://www.w3.org/2000/svg" viewBox="0 0 640 512"><!--! Font Awesome Pro 6.0.0-alpha3 by @fontawesome - https://fontawesome.com License - https://fontawesome.com/license (Commercial License) --><path d="M7.768 338.2l16.42 61.75l295.9-79.25V198.7c-8.25-4-18-5.625-27.62-3.125c-21.25 5.625-33.1 27.62-28.25 48.1l6.125 23.13L84.89 317.5L78.77 294.2c-5.75-21.25-27.75-33.1-49-28.25c-21.38 5.75-33.1 27.75-28.37 48.1L7.768 338.2zM13.81 237.9c2.5-1 5.083-2.125 7.583-2.75C27.52 233.5 33.89 232.6 40.14 232.6c29.75 0 56.12 18.58 66.75 45.83L231.1 244.9C229.5 228.8 232.3 212.5 240.4 198.2C250 181.5 265.6 169.6 284.2 164.7c2.625-.75 5.25-.6667 8-1.042L291.9 162.6C282.8 128.5 247.7 108.3 213.5 117.3L58.93 158.7C24.81 167.9 4.643 202.1 13.77 237.2L13.81 237.9zM528 287.1c-44.6 0-82.8 26.27-100.8 64H399.1V64c0-8.838 7.164-16 16-16H616C629.3 48 640 37.25 640 24C640 10.74 629.3 0 616 0h-199.1c-35.35 0-63.1 28.65-63.1 63.1l-.0088 297.9l-335.1 103.2c-12.66 3.938-19.72 17.39-15.78 30.05C4.277 505.4 13.75 512 23.1 512c2.344 0 4.75-.3438 7.125-1.078L387.7 400l28.35 .0625c0 61.86 50.14 111.9 111.1 111.9s112-50.14 112-111.1S589.9 287.1 528 287.1zM528 464c-35.35 0-64-28.65-64-64c0-35.35 28.65-64 64-64s64 28.65 64 64C592 435.3 563.3 464 528 464z"/></svg>