<svg xmlns="http://www.w3.org/2000/svg" viewBox="0 0 640 512"><!--! Font Awesome Pro 6.0.0-alpha3 by @fontawesome - https://fontawesome.com License - https://fontawesome.com/license (Commercial License) --><path d="M616 368H608V251.9c0-19-7.75-37.5-21.12-50.88l-83.96-83.96C489.4 103.6 471.2 96 452.1 96H416V56C416 25.07 390.9 0 360 0h-240C89.07 0 64 25.07 64 56V96H15.1C7.2 96 0 103.2 0 111.1S7.2 128 15.1 128h224C248.8 128 256 120.8 256 112S248.8 96 240 96H112V56c0-4.4 3.6-8 8-8h240c4.4 0 8 3.6 8 8v312H242.8C226.1 339.4 195.5 320 160 320c-17.62 0-33.75 5.125-48 13.25V288H64l0 124.8c0 52.84 41.32 98.19 94.16 99.18C212 512.1 256 469.6 256 416h128c0 53 43 96 96 96s96-43 96-96h40c13.2 0 24-10.8 24-23.1S629.2 368 616 368zM160 464c-26.5 0-48-21.5-48-48s21.5-48 48-48s48 21.5 48 48S186.5 464 160 464zM416 144h36.13c6.25 0 12.5 2.625 17 7L542.1 224H416V144zM480 464c-26.5 0-48-21.5-48-48s21.5-48 48-48s48 21.5 48 48S506.5 464 480 464zM560 363.1C542.8 337.2 513.4 320 480 320c-24.75 0-47 9.625-64 24.88V272h144V363.1zM256 240C256 231.2 248.8 224 240 224h-224C7.2 224 0 231.2 0 240S7.2 256 15.1 256h224C248.8 256 256 248.8 256 240zM272 192C280.8 192 288 184.8 288 176C288 167.2 280.8 160 272 160h-224C39.2 160 32 167.2 32 176S39.2 192 47.1 192H272z"/></svg>