<svg xmlns="http://www.w3.org/2000/svg" viewBox="0 0 640 512"><!--! Font Awesome Pro 6.0.0-alpha3 by @fontawesome - https://fontawesome.com License - https://fontawesome.com/license (Commercial License) --><path d="M272 352H266.8c-2.125-7.375-5-14.25-8.625-20.88l3.75-3.625c6.25-6.25 6.25-16.5 0-22.75L239.3 282.1c-6.25-6.25-16.5-6.25-22.75 0L212.9 285.9C206.3 282.3 199.3 279.4 192 277.3V272C192 263.1 184.9 256 176 256h-32C135.1 256 128 263.1 128 272v5.25c-7.375 2.125-14.25 5-20.88 8.625L103.5 282.1c-6.25-6.25-16.5-6.25-22.75 0L58.12 304.8c-6.25 6.25-6.25 16.38 0 22.62l3.75 3.75C58.25 337.8 55.37 344.8 53.25 352H48C39.13 352 32 359.1 32 368v32C32 408.9 39.13 416 48 416h5.25c2.125 7.375 5 14.25 8.625 20.88L58.12 440.5c-6.25 6.25-6.25 16.38 0 22.62l22.63 22.62c6.25 6.25 16.5 6.25 22.75 0l3.625-3.625C113.8 485.8 120.6 488.6 128 490.8V496C128 504.9 135.1 512 144 512h32C184.9 512 192 504.9 192 496v-5.25c7.375-2.125 14.25-5 20.88-8.625l3.75 3.625c6.25 6.25 16.38 6.25 22.62 0l22.62-22.62c6.25-6.25 6.25-16.38 0-22.62l-3.75-3.625C261.8 430.3 264.6 423.3 266.9 416H272C280.9 416 288 408.9 288 400v-32C288 359.1 280.9 352 272 352zM160 432c-26.5 0-48-21.5-48-48s21.5-48 48-48s48 21.5 48 48S186.5 432 160 432zM592 352h-5.25c-2.125-7.375-5-14.25-8.625-20.88l3.75-3.625c6.25-6.25 6.25-16.5 0-22.75l-22.62-22.62c-6.25-6.25-16.5-6.25-22.75 0l-3.625 3.75C526.3 282.3 519.3 279.4 512 277.3V272C512 263.1 504.9 256 496 256h-32C455.1 256 448 263.1 448 272v5.25c-7.375 2.125-14.25 5-20.88 8.625L423.5 282.1c-6.25-6.25-16.5-6.25-22.75 0l-22.62 22.62c-6.25 6.25-6.25 16.5 0 22.75l3.75 3.625C378.3 337.8 375.4 344.8 373.3 352H368c-8.875 0-16 7.125-16 16v32c0 8.875 7.125 16 16 16h5.25c2.125 7.375 5 14.25 8.625 20.88l-3.75 3.625c-6.25 6.25-6.25 16.5 0 22.75l22.62 22.62c6.25 6.25 16.5 6.25 22.75 0l3.625-3.75c6.625 3.625 13.5 6.5 20.88 8.625V496c0 8.875 7.125 16 16 16h32c8.875 0 16-7.125 16-16v-5.25c7.375-2.125 14.25-5 20.88-8.625l3.75 3.75c6.25 6.25 16.38 6.25 22.62 0l22.62-22.62c6.25-6.25 6.25-16.5 0-22.75l-3.75-3.625C581.8 430.3 584.6 423.3 586.9 416H592c8.875 0 16-7.125 16-16v-32C608 359.1 600.9 352 592 352zM480 432c-26.5 0-48-21.5-48-48s21.5-48 48-48s48 21.5 48 48S506.5 432 480 432zM633.2 246.5C625.4 238.4 616.9 231.3 608 224.7V168c0-30.88-25.12-56-56-56h-65.89l-73.86-91.23C401.6 7.578 385.7 0 368.7 0H280C249.1 0 224 25.12 224 56V112H88C57.13 112 32 137.1 32 168v56.68C23.14 231.3 14.62 238.4 6.781 246.5C-2.469 256-2.219 271.2 7.281 280.4c9.5 9.25 24.75 9.031 33.94-.5C71.19 249 111.8 232 155.6 232c61.25 0 117.3 35.02 142.7 89.19C302.2 329.6 310.7 334.1 320 334.1s17.78-5.375 21.72-13.8C367.2 267 423.2 232 484.4 232c43.75 0 84.38 17.02 114.3 47.92C608 289.5 623.3 289.7 632.7 280.4C642.2 271.2 642.5 256 633.2 246.5zM272 56c0-4.406 3.594-8 8-8h88.72c2.406 0 4.719 1.094 6.219 2.953L424.4 112H272V56zM560 198.1C536.3 188.1 510.8 184 484.4 184C419.1 184 358.2 214.8 320 264.1C281.8 214.8 220.9 184 155.6 184C129.2 184 103.7 188.1 80 198.1V168C80 163.6 83.59 160 88 160h464c4.406 0 8 3.594 8 8V198.1z"/></svg>