<svg xmlns="http://www.w3.org/2000/svg" viewBox="0 0 640 512"><!--! Font Awesome Pro 6.0.0-alpha3 by @fontawesome - https://fontawesome.com License - https://fontawesome.com/license (Commercial License) --><path d="M616 368H608V252c0-19.13-7.6-37.47-21.12-51L503 117.1C489.5 103.6 471.1 96 452 96H416V56C416 25.07 390.9 0 360 0h-304C25.07 0 0 25.07 0 56v304C0 390.9 25.07 416 56 416H64c0 53 43 96 96 96s96-43 96-96h128c0 53 43 96 96 96s96-43 96-96h40c13.2 0 24-10.8 24-24C640 378.8 629.2 368 616 368zM160 464c-26.5 0-48-21.5-48-48s21.5-48 48-48s48 21.5 48 48S186.5 464 160 464zM368 368H242.8C226.1 339.4 195.5 320 160 320s-66.13 19.38-82.75 48H56c-4.375 0-8-3.625-8-8v-304c0-4.375 3.625-8 8-8h304c4.375 0 8 3.625 8 8V368zM416 144h36.13c6.25 0 12.5 2.625 17 7L542.1 224H416V144zM480 464c-26.5 0-48-21.5-48-48s21.5-48 48-48s48 21.5 48 48S506.5 464 480 464zM560 363.1C542.8 337.3 513.4 320 480 320c-24.75 0-47 9.625-64 24.88V272h144V363.1zM208 80C146.1 80 96 130.1 96 192s50.14 112 112 112S320 253.9 320 192S269.9 80 208 80zM256 224H208C199.2 224 192 216.8 192 208v-64C192 135.2 199.2 128 208 128S224 135.2 224 144V192h32c8.844 0 16 7.156 16 16S264.8 224 256 224z"/></svg>