<svg xmlns="http://www.w3.org/2000/svg" viewBox="0 0 640 512"><!--! Font Awesome Pro 6.0.0-alpha3 by @fontawesome - https://fontawesome.com License - https://fontawesome.com/license (Commercial License) --><path d="M637.2 122.7c-4.5-13.44-13.94-24.3-26.31-30.42L435.8 2.633c-10.56-5.359-23.4-2.344-30.37 7.281c-11.75 16.23-42.75 32.61-85.46 32.61c-42.68 0-73.65-16.38-85.4-32.61C227.6 .2894 214.7-2.726 204.2 2.633L29.37 92.09C16.71 98.35 7.274 109.2 2.774 122.7c-4.5 13.42-3.5 27.77 2.812 40.39l38.75 77.36c12.91 25.83 44.5 36.52 69.53 24.25l46.25-20.22L160 459.2C160 488.3 183.7 512 212.8 512h214.4c29.09 0 52.78-23.69 52.78-52.81L479.9 244.4l45.34 19.81c25.94 12.69 57.53 2.031 70.43-23.8l38.75-77.39C640.7 150.4 641.7 136.1 637.2 122.7zM591.5 141.5l-38.75 77.42c-1.219 2.344-4.156 3.266-7.343 1.719l-79.87-34.94c-7.468-3.234-15.1-2.547-22.78 1.906c-6.749 4.438-10.84 11.98-10.84 20.09l.0938 251.5c0 2.641-2.156 4.797-4.781 4.797H212.8c-2.625 0-4.781-2.156-4.781-4.781l.0938-251.5c0-8.109-4.093-15.66-10.84-20.09C193.3 185.1 188.7 183.7 184.1 183.7c-3.25 0-6.531 .6719-9.624 2.016L93.7 221.1C91.3 222.2 88.42 221.3 87.27 218.9L48.52 141.5C47.8 140.1 47.99 138.8 48.27 137.9c.3125-.875 .9687-2.078 2.687-2.938L209.9 53.65c25.84 23.09 66.09 36.88 110.2 36.88c44.06 0 84.27-13.78 110.1-36.88l159.2 81.44c1.437 .7187 2.094 1.922 2.406 2.797C592 138.8 592.2 140.1 591.5 141.5z"/></svg>