<svg xmlns="http://www.w3.org/2000/svg" viewBox="0 0 384 512"><!--! Font Awesome Pro 6.0.0-alpha3 by @fontawesome - https://fontawesome.com License - https://fontawesome.com/license (Commercial License) --><path d="M384 56c0 13.25-10.75 24-24 24h-144v104.8l89.81-23.95c12.91-3.469 25.97 4.25 29.38 17c3.406 12.81-4.188 25.97-17 29.38L216 234.4v46.32l89.81-23.95c12.91-3.469 25.97 4.25 29.38 17c3.406 12.81-4.188 25.97-17 29.38L216 330.4V456c0 13.25-10.75 24-24 24s-24-10.75-24-24v-112.8l-89.81 23.95C76.13 367.8 74.03 368 72 368c-10.62 0-20.31-7.094-23.19-17.81c-3.406-12.81 4.188-25.97 17-29.38L168 293.6V247.2L78.19 271.2C76.13 271.8 74.03 272 72 272c-10.62 0-20.31-7.094-23.19-17.81C45.41 241.4 53 228.2 65.81 224.8L168 197.6V80h-144C10.75 80 0 69.25 0 56S10.75 32 24 32h336C373.3 32 384 42.75 384 56z"/></svg>