<svg xmlns="http://www.w3.org/2000/svg" viewBox="0 0 384 512"><!--! Font Awesome Pro 6.0.0-alpha3 by @fontawesome - https://fontawesome.com License - https://fontawesome.com/license (Commercial License) --><path d="M383.1 281.1C378.9 392.6 287.6 480 175.9 480H88.01c-13.25 0-23.1-10.75-23.1-24V270.2L30.19 279.2C28.12 279.7 26.04 280 23.99 280c-10.61 0-20.31-7.078-23.17-17.81C-2.604 249.4 5.021 236.2 17.82 232.8l46.19-12.32V174.2L30.19 183.2C28.12 183.7 26.04 184 23.99 184c-10.61 0-20.31-7.078-23.17-17.81C-2.604 153.4 5.021 140.2 17.82 136.8l46.19-12.32V56c0-13.25 10.75-24 23.1-24s23.1 10.75 23.1 24v55.7l145.8-38.88c12.84-3.438 25.97 4.203 29.38 17c3.422 12.81-4.203 25.97-17 29.38L112 161.4v46.32l145.8-38.88c12.84-3.406 25.97 4.188 29.38 17c3.422 12.81-4.203 25.97-17 29.38L112 257.4V432h63.81c85.94 0 156.3-67.25 160.2-153.1c.5938-13.22 11.61-24.03 25.06-22.88C374.3 256.6 384.6 267.8 383.1 281.1z"/></svg>