<svg xmlns="http://www.w3.org/2000/svg" viewBox="0 0 640 512"><!--! Font Awesome Pro 6.0.0-alpha3 by @fontawesome - https://fontawesome.com License - https://fontawesome.com/license (Commercial License) --><path d="M637.1 160.5c-5.25-20.75-18.88-38.25-36.13-50.62C556.3 78 545.1 64 507.6 64c-39.63 0-73.5 23.62-86.25 57.88C380.8 71.5 317.8 32 248.4 32C232.3 32 84.63 43.88 35.5 191.5C30.13 207.6 31 224.6 37.5 240H32C14.38 240 0 254.4 0 272V288c0 11.88 6.625 22.75 17.13 28.38l81.5 42.75L70.5 408c-8.625 14.75-8.625 33.25 0 48C79 470.8 94.88 480 112 480H149c17.13 0 32.1-9.125 41.5-24l27.75-47.88c40.25 10.38 97.5 10.88 139.6 0L385.5 456c8.5 14.88 24.38 24 41.5 24h37c17.13 0 33-9.25 41.5-24c8.625-14.75 8.625-33.25 0-48l-30.63-53.13c30.63-20.75 51.25-50 61.5-82.88h15C607.8 272 651.9 219.1 637.1 160.5zM81.13 206.6C100.3 149.1 167.5 80 247.6 80h.75c80.13 0 147.4 69.12 166.5 126.6C418.1 216.5 408.3 239 384.1 239.8L114.6 240C92.13 240 75.5 223.5 81.13 206.6zM551.4 224h-47.38c-11.25 90.38-74.88 101.6-96.5 110.2L464 432h-37l-46.75-81c-66.88 21.88-108.8 24.75-184.5 0L149 432H112l53.25-92.13L66.38 288l316.6 .0002c32.13 0 80.88-21.75 81-79.75V153c0-19.88 11.63-30.5 21.75-35.75c31.5-16.12 47.13 3 89.25 33c10.63 7.625 17 20 17 33.13C592 205.8 573.8 224 551.4 224zM512 143.1c-8.875 0-16 7.125-16 16s7.125 16 16 16s16-7.125 16-16S520.9 143.1 512 143.1z"/></svg>