<svg xmlns="http://www.w3.org/2000/svg" viewBox="0 0 576 512"><!--! Font Awesome Pro 6.0.0-alpha3 by @fontawesome - https://fontawesome.com License - https://fontawesome.com/license (Commercial License) --><path d="M107.2 330.8c-11.69-6.25-26.22-1.703-32.44 9.969l-72 136c-6.188 11.72-1.719 26.25 10 32.44C16.34 511.1 20.19 512 23.97 512c8.625 0 16.94-4.641 21.25-12.77l72-136C123.4 351.5 118.9 336.1 107.2 330.8zM501.2 340.8c-6.188-11.67-20.75-16.22-32.44-9.969c-11.72 6.188-16.19 20.72-10 32.44l72 136C535.1 507.4 543.4 512 552 512c3.781 0 7.625-.8906 11.19-2.797c11.72-6.188 16.19-20.72 10-32.44L501.2 340.8zM576 196c0-53.88-63.61-90.64-148-109.4C401.1 35.34 348.8 0 288 0s-113.1 35.34-139.1 86.58C63.61 105.4 0 142.1 0 196c0 81.41 144.9 124 288 124S576 277.4 576 196zM288 48c58.53 0 106.7 46.78 110.8 107.7c-67.97 26.62-154.1 26.59-222-.125C180.4 95.66 228.9 48 288 48zM288 272c-146.5 0-240-45.02-240-76c0-17.57 30.1-39.63 82.82-55.45c-.9941 7.332-2.199 14.61-2.199 22.22c0 2.891 .3125 5.656 .9062 10.48C130.1 182.1 135.5 189.9 143.5 193.6C186.1 213.5 236.9 224 288 224s101-10.52 144.5-30.41c8.031-3.688 13.66-13.58 14.19-22.41c.375-2.766 .6875-5.531 .6875-8.422c0-7.607-1.205-14.88-2.199-22.22C497.9 156.4 528 178.4 528 196C528 226.1 434.5 272 288 272z"/></svg>