<svg xmlns="http://www.w3.org/2000/svg" viewBox="0 0 640 512"><!--! Font Awesome Pro 6.0.0-alpha3 by @fontawesome - https://fontawesome.com License - https://fontawesome.com/license (Commercial License) --><path d="M320 336c-13.25 0-24 10.74-24 24c0 13.25 10.75 24 24 24S344 373.3 344 360C344 346.7 333.3 336 320 336zM128 296c-13.25 0-24 10.74-24 24c0 13.25 10.75 24 24 24S152 333.3 152 320C152 306.7 141.3 296 128 296zM499.9 212.6C482.1 127.8 408.2 64 320 64S157.9 127.8 140.1 212.6C58.74 233.3 0 269.3 0 320C0 404 160.1 448 320 448s320-43.97 320-127.1C640 269.3 581.3 233.3 499.9 212.6zM320 112c72.34 0 131.7 58.44 135.5 134.6C372.6 279.1 266.9 279.9 184.1 246.4C186.9 171.8 246.8 112 320 112zM320 400c-166 0-272-47.38-272-80c0-17.98 32.31-40.39 88.98-56.94C137 263.5 137.1 263.8 137.1 264.3c.5938 8.766 5.969 16.5 13.94 20.16C201.9 307.7 260.3 320 320 320s118.1-12.28 168.9-35.53c7.531-3.455 12.87-12.1 13.98-21.44C559.6 279.6 592 302 592 320C592 352.6 486 400 320 400zM512 296c-13.25 0-24 10.74-24 24c0 13.25 10.75 24 24 24s24-10.75 24-24C536 306.7 525.3 296 512 296z"/></svg>