<svg xmlns="http://www.w3.org/2000/svg" viewBox="0 0 448 512"><!--! Font Awesome Pro 6.0.0-alpha3 by @fontawesome - https://fontawesome.com License - https://fontawesome.com/license (Commercial License) --><path d="M224 256c70.69 0 128-57.31 128-128c0-70.69-57.31-128-128-128S96 57.31 96 128C96 198.7 153.3 256 224 256zM224 48c44.11 0 80 35.89 80 80c0 44.11-35.89 80-80 80S144 172.1 144 128C144 83.89 179.9 48 224 48zM272 304h-96C78.95 304 0 382.1 0 480v8C0 501.3 10.75 512 24 512s24-10.75 24-24V480c0-56.53 37.08-104.1 88-120.1v43.57c-26.37 7.908-44.71 34.4-38.93 64.47c4.045 21.07 20.68 38.55 41.58 43.38C175.4 518.9 208 491.3 208 456c0-25.33-16.92-46.48-40-53.4v-49.79C170.7 352.6 173.3 352 176 352h96c2.74 0 5.303 .6387 8 .8086v49.8c-23.05 6.938-39.81 28.11-39.81 53.39L240 496c0 8.844 7.156 16 16 16s16-7.156 16-16v-40c0-13.23 10.77-24 24-24S320 442.8 320 456v40c0 8.844 7.156 16 16 16s16-7.156 16-16v-40c0-25.28-16.95-46.45-40-53.39v-43.58C362.9 375.9 400 423.5 400 480v8c0 13.25 10.75 24 24 24S448 501.3 448 488V480C448 382.1 369 304 272 304zM176 456C176 469.2 165.2 480 152 480C138.8 480 128 469.2 128 456c0-13.23 10.77-24 24-24C165.2 432 176 442.8 176 456z"/></svg>