<svg xmlns="http://www.w3.org/2000/svg" viewBox="0 0 448 512"><!--! Font Awesome Pro 6.0.0-alpha3 by @fontawesome - https://fontawesome.com License - https://fontawesome.com/license (Commercial License) --><path d="M302.6 306.8l-45.13 90.26L240 336l32-48h-96l32 48l-17.45 61.09L145.4 306.8C62.82 321.3 0 393.2 0 480c0 17.67 14.33 32 32 32h384c17.67 0 32-14.33 32-32C448 393.2 385.2 321.3 302.6 306.8zM48.99 464c5.432-43.57 32.79-80.82 71.67-99.35L170.3 464H48.99zM277.7 464l49.67-99.35c38.87 18.53 66.24 55.78 71.67 99.35H277.7zM224 256c70.69 0 128-57.31 128-128c0-70.69-57.31-128-128-128S96 57.31 96 128C96 198.7 153.3 256 224 256zM224 48c44.11 0 80 35.89 80 80c0 44.11-35.89 80-80 80S144 172.1 144 128C144 83.89 179.9 48 224 48z"/></svg>