<svg xmlns="http://www.w3.org/2000/svg" viewBox="0 0 512 512"><!--! Font Awesome Pro 6.0.0-alpha3 by @fontawesome - https://fontawesome.com License - https://fontawesome.com/license (Commercial License) --><path d="M435.9 0c-33.22 0-84.63 34.02-113.1 90.94c-20.41 40.83-43.13 124.7 34 227.5c7.906 10.59 23 12.77 33.59 4.797c10.59-7.953 12.75-23 4.781-33.61c-58.53-78.05-48.31-139.4-29.44-177.2C385.8 72.27 418.1 52.22 432 48.59V488c0 13.25 10.75 24 23.1 24C469.2 512 480 501.3 480 488V46.5C480 20.86 460.2 0 435.9 0zM112 160c13.25 0 24-10.75 24-24v-112C136 10.75 125.3 0 112 0S88 10.75 88 24v112C88 149.3 98.75 160 112 160zM176 160c13.25 0 24-10.75 24-24v-112C200 10.75 189.3 0 176 0S152 10.75 152 24v112C152 149.3 162.8 160 176 160zM248 0C234.8 0 224 10.75 224 24v144C224 190.1 206.1 208 184 208H176.3c-6.5 0-12.72 2.625-17.22 7.281C154.5 219.1 152.1 226.2 152.3 232.7L159.3 464h-30.5l7-231.3C135.9 226.2 133.5 219.1 128.1 215.3C124.5 210.6 118.3 208 111.8 208H104C81.94 208 64 190.1 64 168v-144C64 10.75 53.25 0 40 0S16 10.75 16 24v144c0 42.73 30.62 78.45 71.06 86.36L80.5 470.8c-.3125 10.75 3.781 21.34 11.28 29.06C99.25 507.6 109.7 512 120.5 512h47c10.78 0 21.25-4.438 28.72-12.17c7.5-7.719 11.59-18.31 11.28-29.03L200.9 254.4C241.4 246.5 272 210.7 272 168v-144C272 10.75 261.3 0 248 0z"/></svg>