<svg xmlns="http://www.w3.org/2000/svg" viewBox="0 0 640 512"><!--! Font Awesome Pro 6.0.0-alpha3 by @fontawesome - https://fontawesome.com License - https://fontawesome.com/license (Commercial License) --><path d="M625.2 206.2l-125.1-151.1C487 40.44 469 32 450 32H64C28.8 32 0 60.8 0 96v224c0 35.2 28.8 64 64 64c0 53.02 42.98 96 96 96s96-42.98 96-96h128c0 53.02 42.98 96 96 96s96-42.98 96-96c35.2 0 64-28.8 64-64V247.1C640 232.2 634.8 217.7 625.2 206.2zM462.3 85.76L555.7 192H376V80h74.02C454.8 80 459.3 82.11 462.3 85.76zM328 192h-112V80h112V192zM64 80h104V192H48V96C48 87.16 55.16 80 64 80zM160 432c-26.47 0-48-21.53-48-48s21.53-48 48-48s48 21.53 48 48S186.5 432 160 432zM480 432c-26.47 0-48-21.53-48-48s21.53-48 48-48s48 21.53 48 48S506.5 432 480 432zM576 336h-13.31C546.1 307.4 515.4 288 480 288s-66.05 19.43-82.69 48H242.7C226.1 307.4 195.4 288 160 288s-66.05 19.43-82.69 48H64c-8.836 0-16-7.164-16-16V240h544V320C592 328.8 584.8 336 576 336z"/></svg>