<svg xmlns="http://www.w3.org/2000/svg" viewBox="0 0 576 512"><!--! Font Awesome Pro 6.0.0-alpha3 by @fontawesome - https://fontawesome.com License - https://fontawesome.com/license (Commercial License) --><path d="M224 96C144.5 96 80 160.5 80 240C80 319.5 144.5 384 224 384s144-64.47 144-144C368 160.5 303.5 96 224 96zM224 336c-53.02 0-96-42.98-96-96s42.98-96 96-96s96 42.98 96 96S277 336 224 336zM224 192C197.5 192 176 213.5 176 240S197.5 288 224 288s48-21.49 48-48S250.5 192 224 192zM512 0H64C28.65 0 0 28.65 0 64v352c0 35.35 28.65 64 64 64v8C64 501.3 74.75 512 88 512s24-10.75 24-24V480h352v8c0 13.25 10.75 24 24 24S512 501.3 512 488V480c35.35 0 64-28.65 64-64V64C576 28.65 547.3 0 512 0zM528 416c0 8.822-7.178 16-16 16H64c-8.822 0-16-7.178-16-16V64c0-8.822 7.178-16 16-16h448c8.822 0 16 7.178 16 16V416zM448 128c-26.51 0-48 21.49-48 48c0 17.62 9.83 32.46 24 40.77V328c0 13.25 10.75 24 24 24s24-10.75 24-24V216.8C486.2 208.5 496 193.6 496 176C496 149.5 474.5 128 448 128z"/></svg>