<svg xmlns="http://www.w3.org/2000/svg" viewBox="0 0 640 512"><!--! Font Awesome Pro 6.0.0-alpha3 by @fontawesome - https://fontawesome.com License - https://fontawesome.com/license (Commercial License) --><path d="M632.9 385L543.1 320l-.0026-32l55.13-23.62c11.87-7.875 11.87-30.25 0-38.13L479.1 160l-.002-32l27.25-16.25c7.75-7.75 5.625-20.75-4.125-25.63L320 0L136.9 86.13C127.1 91 125 103.1 132.8 111.8L160 128L160 160L40.88 226.2c-11.87 7.875-11.87 30.25 0 38.13L96 288l-.0027 32l-88.87 65c-10.25 9-9.25 29.5 1.75 36.75L64 448l-.0026 40C64 501.3 74.75 512 88 512s23.1-10.75 23.1-23.1V448h183.1v40C296 501.3 306.7 512 320 512c13.25 0 23.1-10.75 23.1-23.1V448h183.1v40C527.1 501.3 538.7 512 551.1 512s23.1-10.75 23.1-23.1L575.1 448l55.13-26.25C642.1 414.5 643.1 394 632.9 385zM320 53L377.4 80H262.6L320 53zM208 128h223.1v32H208V128zM172.5 208h294.1l57.62 32H114.9L172.5 208zM144 288h351.1v32H144V288zM111.6 368h416.7l47.62 32H64L111.6 368z"/></svg>