<svg xmlns="http://www.w3.org/2000/svg" viewBox="0 0 640 512"><!--! Font Awesome Pro 6.0.0-alpha3 by @fontawesome - https://fontawesome.com License - https://fontawesome.com/license (Commercial License) --><path d="M624.3 26.48c-16.5-20.36-42.75-30.1-68.5-25.23L406.7 29.1h-8.251c-11-8.493-24.5-13.11-38.5-13.11H279.1c-13.88 0-27.5 4.621-38.5 13.11H233.2L84.22 1.247C58.59-3.624 32.46 5.993 15.96 26.23c-16.5 20.23-20.5 47.83-10.63 71.94l63.63 161.1C65.71 263.1 63.99 267.5 63.99 271.8v31.98c0 8.867 7.124 15.99 16 15.99h17.76c-.25 .2498-.6387 .4083-1.014 .6581c-34.63 34.35-43.13 87.17-20.88 130.6c22.25 43.46 70.06 67.44 118.3 59.32c48.13-8.118 85.56-46.46 92.31-94.79h67.06c6.875 48.08 44.25 86.24 92.25 94.23c48 8.118 95.69-15.92 117.9-59.14c22.25-43.21 14-95.92-20.5-130.3c-.25-.2498-.6379-.4084-1.013-.6581h17.76c8.876 0 16-7.123 16-15.99V271.8c0-4.371-1.743-8.699-4.993-11.57l63.38-161.6C644.6 74.56 640.6 46.83 624.3 26.48zM159.1 461.4c-22.63-5.495-40.25-23.1-45.75-45.71h45.75V461.4zM159.1 383.7H114.2c5.5-22.61 23.13-40.11 45.75-45.61L159.1 383.7zM118.8 255.8L49.84 80.05C46.46 72.19 47.84 63.19 53.09 56.57c5.375-6.619 14-9.742 22.38-8.243l141 26.48c-.125 1.748-.5 3.372-.5 5.121v175.8H118.8zM221.2 444.9c-8.126 7.993-18.25 13.74-29.25 16.49v-45.71h45.75C234.1 426.6 229.2 436.7 221.2 444.9zM191.1 383.7l.0024-45.61c22.63 5.495 40.25 22.1 45.75 45.61H191.1zM375.1 255.8h-112v-175.8c0-8.867 7.126-15.99 16-15.99h80.01c8.876 0 16 7.119 16 15.99V255.8zM447.1 461.4c-22.5-5.495-40.13-23.1-45.75-45.71h45.75V461.4zM447.1 383.7h-45.75c5.625-22.61 23.25-40.11 45.75-45.61L447.1 383.7zM509.2 444.9c-8.126 7.993-18.25 13.74-29.25 16.49v-45.71h45.75C522.1 426.6 517.4 436.7 509.2 444.9zM479.1 383.7l-.0022-45.61c22.63 5.495 40.25 22.1 45.75 45.61H479.1zM590 80.55l-68.88 175.2h-97.13v-175.8c0-1.873-.375-3.622-.5-5.495l141.1-26.1c8.376-1.624 17 1.499 22.25 8.243C589.5 59.82 595 68.56 590 80.55z"/></svg>