<svg xmlns="http://www.w3.org/2000/svg" viewBox="0 0 448 512"><!--! Font Awesome Pro 6.0.0-alpha3 by @fontawesome - https://fontawesome.com License - https://fontawesome.com/license (Commercial License) --><path d="M407.9 388.7V87.98c0-48.59-39.3-87.98-87.98-87.98L185.6 0c-40.44 0-75.75 27.49-85.51 66.61L.655 482.4c-3.038 12.77 4.777 25.6 17.53 28.78c12.97 3.237 26.09-4.725 29.18-17.71l53.18-221.5h259.3v116.7c-28.42 11.5-44.7 41.49-38.94 71.48C326.8 490.3 353.3 512 383.1 512s56.1-21.74 62.88-51.86C452.6 430.1 436.3 400.2 407.9 388.7zM359.8 223.9H111.9l34.68-145.7c4.507-17.75 20.53-30.24 38.94-30.24h134.2c22.16 0 40.06 17.87 40.06 39.99V223.9zM383.9 463.8c-8.889 0-16.01-7.121-16.01-15.99s7.153-15.94 16.04-15.94s15.98 7.069 15.98 15.94S392.8 463.8 383.9 463.8z"/></svg>