<svg xmlns="http://www.w3.org/2000/svg" viewBox="0 0 640 512"><!--! Font Awesome Pro 6.0.0-alpha3 by @fontawesome - https://fontawesome.com License - https://fontawesome.com/license (Commercial License) --><path d="M597.9 110.1l-251.6-104.9c-16.75-7-35.75-7-52.5 0L42.13 110.1C16.5 120.6-.125 145.6 0 173.3V488C0 501.3 10.75 512 24 512c13.26 0 24-10.75 24-24V173.3C48 165 52.88 157.5 60.5 154.4l251.8-104.8c5-2.125 10.62-2.125 15.62 0l251.6 104.8C587.1 157.6 592 165 592 173.3V488c0 13.25 10.75 24 24 24c13.26 0 24-10.75 24-24V173.3C640.1 145.6 623.5 120.6 597.9 110.1zM504 192H136C113.9 192 96 209.9 96 232v256C96 501.3 106.7 512 120 512c13.26 0 24-10.75 24-24V464h352v24c0 13.25 10.75 24 24 24c13.26 0 24-10.75 24-24v-256C544 209.9 526.1 192 504 192zM496 416h-352v-64h352V416zM496 304h-352v-64h352V304z"/></svg>