<svg xmlns="http://www.w3.org/2000/svg" viewBox="0 0 640 512"><!--! Font Awesome Pro 6.0.0-alpha3 by @fontawesome - https://fontawesome.com License - https://fontawesome.com/license (Commercial License) --><path d="M597.9 110.1l-251.6-104.9c-16.75-7-35.75-7-52.5 0L42.13 110.1C16.5 120.6-.125 145.6 0 173.3V488C0 501.3 10.75 512 24 512c13.26 0 24-10.75 24-24V173.3C48 165 52.88 157.5 60.5 154.4l251.8-104.8c5-2.125 10.62-2.125 15.62 0l251.6 104.8C587.1 157.6 592 165 592 173.3V488c0 13.25 10.75 24 24 24c13.26 0 24-10.75 24-24V173.3C640.1 145.6 623.5 120.6 597.9 110.1zM512 352h-160V272c0-17.67-14.33-32-32-32H128c-17.67 0-32 14.33-32 32V480c0 17.67 14.33 32 16 32h384c33.67 0 48-14.33 48-32v-96C544 366.3 529.7 352 512 352zM304 464h-160v-64h160V464zM304 352h-160V288h160V352zM496 464H352v-64h144V464z"/></svg>