<svg xmlns="http://www.w3.org/2000/svg" viewBox="0 0 384 512"><!--! Font Awesome Pro 6.0.0-alpha3 by @fontawesome - https://fontawesome.com License - https://fontawesome.com/license (Commercial License) --><path d="M216 236.8V176c0-13.25-10.75-24-24-24S168 162.8 168 176v72c0 7.125 3.156 13.88 8.625 18.44l48 40C229.1 310.2 234.6 312 240 312c6.875 0 13.69-2.938 18.44-8.625c8.5-10.19 7.125-25.31-3.062-33.81L216 236.8zM320 113.2V48C320 21.6 298.4 0 272 0h-160C85.6 0 64 21.6 64 48v65.18C24.8 148.3 0 199.2 0 256s24.8 107.7 64 142.8V464C64 490.4 85.6 512 112 512h160c26.4 0 48-21.6 48-48v-65.18C359.2 363.7 384 312.8 384 256S359.2 148.3 320 113.2zM192 400c-79.4 0-144-64.6-144-144S112.6 112 192 112s144 64.6 144 144S271.4 400 192 400z"/></svg>