<svg xmlns="http://www.w3.org/2000/svg" viewBox="0 0 384 512"><!--! Font Awesome Pro 6.0.0-alpha3 by @fontawesome - https://fontawesome.com License - https://fontawesome.com/license (Commercial License) --><path d="M320 73.61V48C320 21.6 298.4 0 272 0h-160C85.6 0 64 21.6 64 48v25.61C27.48 81.03 0 113.3 0 152v208c0 38.7 27.48 70.97 64 78.39V464C64 490.4 85.6 512 112 512h160c26.4 0 48-21.6 48-48v-25.61c36.52-7.414 64-39.68 64-78.39v-208C384 113.3 356.5 81.03 320 73.61zM336 360c0 17.64-14.36 32-32 32h-224c-17.64 0-32-14.36-32-32v-208c0-17.64 14.36-32 32-32h224c17.64 0 32 14.36 32 32V360zM199.2 191.8L192 198.1L184.8 191.8C166.5 173.3 136.8 170.3 116.8 186.9c-22.92 19.17-24.07 53.55-3.646 74.29l70.64 71.37C185.1 334.8 188.9 336 192 336s6.043-1.25 8.23-3.441l70.64-71.37c20.42-20.73 19.28-55.12-3.646-74.29C247.2 170.3 217.5 173.3 199.2 191.8z"/></svg>