<svg xmlns="http://www.w3.org/2000/svg" viewBox="0 0 384 512"><!--! Font Awesome Pro 6.0.0-alpha3 by @fontawesome - https://fontawesome.com License - https://fontawesome.com/license (Commercial License) --><path d="M144 256c0-13.26-10.75-24-24-24S96 242.7 96 256c0 13.25 10.75 24 24 24S144 269.3 144 256zM152 208c13.25 0 24-10.75 24-24c0-13.26-10.75-24-24-24S128 170.7 128 184C128 197.3 138.7 208 152 208zM232 208c13.25 0 24-10.75 24-24c0-13.26-10.75-24-24-24s-24 10.74-24 24C208 197.3 218.7 208 232 208zM152 304c-13.25 0-24 10.74-24 24c0 13.25 10.75 24 24 24s24-10.75 24-24C176 314.7 165.3 304 152 304zM264 232c-13.25 0-24 10.74-24 24c0 13.25 10.75 24 24 24s24-10.75 24-24C288 242.7 277.3 232 264 232zM232 304c-13.25 0-24 10.74-24 24c0 13.25 10.75 24 24 24s24-10.75 24-24C256 314.7 245.3 304 232 304zM224 256c0-17.67-14.33-31.1-32-31.1S160 238.3 160 256s14.33 32 32 32S224 273.7 224 256zM320 73.61V48C320 21.6 298.4 0 272 0h-160C85.6 0 64 21.6 64 48v25.61C27.48 81.03 0 113.3 0 152v208c0 38.7 27.48 70.97 64 78.39V464C64 490.4 85.6 512 112 512h160c26.4 0 48-21.6 48-48v-25.61c36.52-7.414 64-39.68 64-78.39v-208C384 113.3 356.5 81.03 320 73.61zM336 360c0 17.64-14.36 32-32 32h-224c-17.64 0-32-14.36-32-32v-208c0-17.64 14.36-32 32-32h224c17.64 0 32 14.36 32 32V360z"/></svg>