<svg xmlns="http://www.w3.org/2000/svg" viewBox="0 0 384 512"><!--! Font Awesome Pro 6.0.0-alpha3 by @fontawesome - https://fontawesome.com License - https://fontawesome.com/license (Commercial License) --><path d="M216 244.8V184C216 170.8 205.3 160 192 160S168 170.8 168 184V256c0 7.125 3.156 13.88 8.625 18.44l48 40C229.1 318.2 234.6 320 240 320c6.875 0 13.69-2.938 18.44-8.625c8.5-10.19 7.125-25.31-3.062-33.81L216 244.8zM320 73.61V48C320 21.6 298.4 0 272 0h-160C85.6 0 64 21.6 64 48v25.61C27.48 81.03 0 113.3 0 152v208c0 38.7 27.48 70.97 64 78.39V464C64 490.4 85.6 512 112 512h160c26.4 0 48-21.6 48-48v-25.61c36.52-7.414 64-39.68 64-78.39v-208C384 113.3 356.5 81.03 320 73.61zM336 360c0 17.64-14.36 32-32 32h-224c-17.64 0-32-14.36-32-32v-208c0-17.64 14.36-32 32-32h224c17.64 0 32 14.36 32 32V360z"/></svg>