<svg xmlns="http://www.w3.org/2000/svg" viewBox="0 0 384 512"><!--! Font Awesome Pro 6.0.0-alpha3 by @fontawesome - https://fontawesome.com License - https://fontawesome.com/license (Commercial License) --><path d="M208 240h-32c-4.375 0-8 3.625-8 8v32C168 284.4 171.6 288 176 288h32c4.375 0 8-3.625 8-8v-32C216 243.6 212.4 240 208 240zM208 320h-32c-4.375 0-8 3.625-8 8v32c0 4.375 3.625 8 8 8h32c4.375 0 8-3.625 8-8v-32C216 323.6 212.4 320 208 320zM128 240H96c-4.375 0-8 3.625-8 8v32C88 284.4 91.63 288 96 288h32c4.375 0 8-3.625 8-8v-32C136 243.6 132.4 240 128 240zM128 320H96c-4.375 0-8 3.625-8 8v32c0 4.375 3.625 8 8 8h32c4.375 0 8-3.625 8-8v-32C136 323.6 132.4 320 128 320zM288 240h-32c-4.375 0-8 3.625-8 8v32C248 284.4 251.6 288 256 288h32c4.375 0 8-3.625 8-8v-32C296 243.6 292.4 240 288 240zM288 320h-32c-4.375 0-8 3.625-8 8v32c0 4.375 3.625 8 8 8h32c4.375 0 8-3.625 8-8v-32C296 323.6 292.4 320 288 320zM288 144H96c-4.375 0-8 3.625-8 8v48C88 204.4 91.63 208 96 208h192c4.375 0 8-3.625 8-8v-48C296 147.6 292.4 144 288 144zM320 73.61V48C320 21.6 298.4 0 272 0h-160C85.6 0 64 21.6 64 48v25.61C27.48 81.03 0 113.3 0 152v208c0 38.7 27.48 70.97 64 78.39V464C64 490.4 85.6 512 112 512h160c26.4 0 48-21.6 48-48v-25.61c36.52-7.414 64-39.68 64-78.39v-208C384 113.3 356.5 81.03 320 73.61zM336 360c0 17.64-14.36 32-32 32h-224c-17.64 0-32-14.36-32-32v-208c0-17.64 14.36-32 32-32h224c17.64 0 32 14.36 32 32V360z"/></svg>