<svg xmlns="http://www.w3.org/2000/svg" viewBox="0 0 576 512"><!--! Font Awesome Pro 6.0.0-alpha3 by @fontawesome - https://fontawesome.com License - https://fontawesome.com/license (Commercial License) --><path d="M556.2 432.2c-20.89-3.732-41.84-15.52-59-33.22c-9.031-9.312-25.38-9.312-34.41 0C442.6 419.9 413.8 431.8 384 431.8s-58.56-11.98-78.8-32.85c-9.031-9.312-25.38-9.312-34.41 0C250.6 419.9 221.8 431.8 192 431.8c-32.36 0-68.04-13.52-86.79-32.85c-9.031-9.312-25.38-9.312-34.41 0c-19.14 19.76-31.66 29.78-51 33.22c-13.05 2.32-21.75 14.83-19.42 27.92c2.312 13.08 14.66 21.83 27.83 19.49c26.19-4.672 44.73-16.76 61-31.44c28 19.74 66.07 31.81 102.9 31.81c34.89 0 68.74-11.54 95.93-32.19c54.31 41.25 137.4 41.31 191.8 .1582c20.61 16.37 44.16 27.41 68 31.65c1.422 .252 2.844 .377 4.234 .377c11.41 0 21.53-8.199 23.59-19.87C577.1 447 569.2 434.5 556.2 432.2zM480 32c-52.94 0-96 43.06-96 96v96H176V128c0-26.47 21.53-48 48-48S272 101.5 272 128v8C272 149.3 282.8 160 296 160S320 149.3 320 136V128c0-52.94-43.06-96-96-96S128 75.06 128 128v232C128 373.3 138.8 384 152 384s24-10.75 24-24V272H384v88c0 13.25 10.75 24 24 24s24-10.75 24-24V128c0-26.47 21.53-48 48-48s48 21.53 48 48v8C528 149.3 538.8 160 552 160S576 149.3 576 136V128C576 75.06 532.9 32 480 32z"/></svg>