<svg xmlns="http://www.w3.org/2000/svg" viewBox="0 0 512 512"><!--! Font Awesome Pro 6.0.0-alpha3 by @fontawesome - https://fontawesome.com License - https://fontawesome.com/license (Commercial License) --><path d="M448 32H64C28.65 32 0 60.65 0 96v320c0 35.35 28.65 64 64 64h384c35.35 0 64-28.65 64-64V96C512 60.65 483.3 32 448 32zM288 96c17.75 0 32 14.25 32 32s-14.25 32-32 32s-32-14.25-32-32S270.3 96 288 96zM192 96c17.75 0 32 14.25 32 32S209.8 160 192 160S160 145.8 160 128S174.3 96 192 96zM96 96c17.75 0 32 14.25 32 32S113.8 160 96 160S64 145.8 64 128S78.25 96 96 96zM464 416c0 8.824-7.178 16-16 16H64c-8.822 0-16-7.176-16-16V224h416V416z"/></svg>