<svg xmlns="http://www.w3.org/2000/svg" viewBox="0 0 512 512"><!--! Font Awesome Pro 6.0.0-alpha3 by @fontawesome - https://fontawesome.com License - https://fontawesome.com/license (Commercial License) --><path d="M0 96v320c0 35.35 28.65 64 64 64h384c35.35 0 64-28.65 64-64V96c0-35.35-28.65-64-64-64H64C28.65 32 0 60.65 0 96zM256 128c0 17.75-14.25 32-32 32S192 145.8 192 128s14.25-32 32-32S256 110.3 256 128zM352 128c0 17.75-14.25 32-32 32s-32-14.25-32-32s14.25-32 32-32S352 110.3 352 128zM448 128c0 17.75-14.25 32-32 32s-32-14.25-32-32s14.25-32 32-32S448 110.3 448 128zM48 224h416v192c0 8.824-7.178 16-16 16H64c-8.822 0-16-7.176-16-16V224z"/></svg>