<svg xmlns="http://www.w3.org/2000/svg" viewBox="0 0 512 512"><!--! Font Awesome Pro 6.0.0-alpha3 by @fontawesome - https://fontawesome.com License - https://fontawesome.com/license (Commercial License) --><path d="M488 256h-54.79l53.92-193.6c3.547-12.76-3.922-25.1-16.69-29.56c-12.78-3.562-25.98 3.922-29.56 16.69l-57.5 206.4h-54.39l-49.65-205.6C276.7 39.61 267.1 32.01 256 32.01s-20.73 7.607-23.33 18.37L183 256H128.6L71.13 49.58c-3.578-12.81-16.89-20.26-29.56-16.69c-12.77 3.562-20.23 16.8-16.69 29.56L78.79 256H24c-13.25 0-24 10.75-24 23.1s10.75 23.1 24 23.1h68.16l44.13 158.4c2.938 10.53 12.55 17.8 23.55 17.56c10.92-.1875 20.34-7.75 22.91-18.36l38.06-157.6h70.38l38.06 157.6c2.562 10.61 11.89 18.17 22.81 18.36l.5156-.0037c10.77 0 20.22-7.171 23.12-17.56l44.13-158.4H488c13.25 0 24-10.75 24-23.1S501.3 256 488 256zM157.8 360.6L141.1 304h29.44L157.8 360.6zM232.4 256L256 158.3l23.6 97.74H232.4zM354.2 360.6l-13.67-56.61h29.44L354.2 360.6z"/></svg>