<svg xmlns="http://www.w3.org/2000/svg" viewBox="0 0 320 512"><!--! Font Awesome Pro 6.0.0-alpha3 by @fontawesome - https://fontawesome.com License - https://fontawesome.com/license (Commercial License) --><path d="M315.8 69.5L210.8 224H280c13.25 0 24 10.75 24 24S293.3 272 280 272h-96V320h96c13.25 0 24 10.75 24 24s-10.75 24-24 24h-96v88c0 13.25-10.75 24-24 24s-24-10.75-24-24V368h-96c-13.25 0-24-10.75-24-24S26.75 320 40 320h96V272h-96C26.75 272 16 261.3 16 248S26.75 224 40 224h69.21l-105.1-154.5C-3.297 58.53-.4531 43.61 10.5 36.16C21.47 28.73 36.39 31.53 43.84 42.5L160 213.3l116.2-170.8c7.453-10.97 22.39-13.78 33.34-6.344C320.5 43.61 323.3 58.53 315.8 69.5z"/></svg>