<svg xmlns="http://www.w3.org/2000/svg" viewBox="0 0 512 512"><!--! Font Awesome Pro 6.0.0-alpha3 by @fontawesome - https://fontawesome.com License - https://fontawesome.com/license (Commercial License) --><path d="M95.1 0c-53 0-96 43-96 95.99c.125 18.25 5.34 36.04 15.22 51.29l145.1-121.6C143.4 9.178 120.2 0 95.1 0zM415.1 0c-24.25 0-47.48 9.178-65.1 25.68l145.9 121.6c9.875-15.25 15.09-33.04 15.22-51.29C511.1 43 468.1 0 415.1 0zM435.3 421.9c29.12-38.62 44.75-85.59 44.75-133.1c0-122.9-96.37-223.1-224-223.1C132.3 63.1 32 164.3 32 287.1c0 48.37 15.75 95.34 44.75 133.1L41.33 457.5c-6.222 6.241-9.334 14.41-9.334 22.58c0 8.801 6.935 31.96 31.1 31.96c8.214 0 16.43-3.126 22.66-9.38L122 467.2C161.7 497.1 208.8 512 256 512s94.31-14.94 133.1-44.81l35.44 35.47C431.7 508.9 439.9 512 448 512c8.833 0 31.97-6.938 31.97-31.99c0-8.212-3.126-16.42-9.38-22.66L435.3 421.9zM232 184C232 170.8 242.7 160 255.1 160S280 170.8 280 184v112c0 13.25-10.76 24-24.01 24S232 309.3 232 296V184zM256 416c-17.67 0-32-14.33-32-32s14.33-32 32-32s32 14.33 32 32S273.7 416 256 416z"/></svg>