<svg xmlns="http://www.w3.org/2000/svg" viewBox="0 0 640 512"><!--! Font Awesome Pro 6.0.0-alpha3 by @fontawesome - https://fontawesome.com License - https://fontawesome.com/license (Commercial License) --><path d="M127.1 416c-17.67 0-31.1 14.33-31.1 31.1C95.1 465.7 110.3 480 127.1 480h361.1l-81.66-63.1H127.1zM127.1 352h197.8L244.1 288H127.1c-17.67 0-31.1 14.33-31.1 31.1C95.1 337.7 110.3 352 127.1 352zM630.8 469.1l-149.4-117.1h14.61c.0039 0-.0039 0 0 0L512 352c17.67 0 32-14.33 32-31.1S529.7 288 512 288h-112.3L318.1 224h177.9c.0078 0-.0078 0 0 0L512 224c17.67 0 32-14.33 32-31.1S529.7 160 512 160H236.4L154.8 96H512c17.67 0 32-14.33 32-31.1S529.7 32 512 32H128C114.6 32 103.2 40.22 98.45 51.86L38.81 5.116C34.41 1.679 29.19 0 24.03 0C16.91 0 9.84 3.158 5.121 9.189C-3.066 19.63-1.248 34.71 9.189 42.89l591.1 463.1c10.5 8.203 25.57 6.333 33.69-4.073C643.1 492.4 641.2 477.3 630.8 469.1zM128 224h32V222.1L101 175.8C98.12 180.6 95.1 185.1 95.1 192C95.1 209.7 110.3 224 128 224z"/></svg>