<svg xmlns="http://www.w3.org/2000/svg" viewBox="0 0 576 512"><!--! Font Awesome Pro 6.0.0-alpha3 by @fontawesome - https://fontawesome.com License - https://fontawesome.com/license (Commercial License) --><path d="M448 224V192c0-17.6-14.4-32-32-32l-96 0V99.61c0-46.43-31.37-89-76.96-97.77C181.7-9.965 128 36.77 128 96v64L32 160C14.4 160 0 174.4 0 192v256c0 17.6 14.4 32 32 32h128V272C160 245.6 181.6 224 208 224H448zM176 96c0-26.5 21.5-48 48-48S272 69.5 272 96v64h-96V96zM544 256H224C206.4 256 192 270.4 192 288v192c0 17.62 14.38 32 32 32h320c17.62 0 32-14.38 32-32V288C576 270.4 561.6 256 544 256zM480 351.1c0 27.62-12 53.99-32.75 72.1c-20.88 18.25-48.5 26.62-75.88 23.12C323 440.1 288 397.5 288 348.6V336c0-8.836 7.164-16 16-16c8.838 0 16 7.164 16 16v13.12c0 33.49 24.38 63.36 57.63 66.61c18 1.75 35.88-4.123 49.25-16.37C440.4 387.2 448 370.1 448 351.1v-15.1C448 327.2 455.2 320 464 320c8.838 0 16 7.163 16 15.1V351.1z"/></svg>