<svg xmlns="http://www.w3.org/2000/svg" viewBox="0 0 512 512"><!--! Font Awesome Pro 6.0.0-alpha3 by @fontawesome - https://fontawesome.com License - https://fontawesome.com/license (Commercial License) --><path d="M208 384c17.6 0 32-14.4 32-32v-10.19l-64-64V352C176 369.6 190.4 384 208 384zM256 0C114.6 0 0 114.6 0 256s114.6 256 256 256s256-114.6 256-256S397.4 0 256 0zM256 448c-105.9 0-192-86.13-192-192c0-44.3 15.22-85.02 40.52-117.5l269 269C341 432.8 300.3 448 256 448zM240 206.1V192h32c17.62 0 32 14.38 32 32c0 12.45-7.363 22.99-17.79 28.28L240 206.1zM407.5 373.5L331.8 297.8c17.18-13.45 29.94-32.18 34.34-54.61C378.1 181.1 331.2 128 272 128h-64C195.6 128 185 135.4 179.7 145.8L138.5 104.5C170.1 79.22 211.7 64 256 64c105.9 0 192 86.13 192 192C448 300.3 432.8 341 407.5 373.5z"/></svg>