<svg xmlns="http://www.w3.org/2000/svg" viewBox="0 0 384 512"><!--! Font Awesome Pro 6.0.0-alpha3 by @fontawesome - https://fontawesome.com License - https://fontawesome.com/license (Commercial License) --><path d="M384 256v32c0 105.9-86.13 192-192 192H160c-52.94 0-96-43.06-96-96V224H32C14.31 224 0 209.7 0 192s14.31-32 32-32h32V128c0-17.66-14.34-32-32-32C14.31 96 0 81.69 0 64s14.31-32 32-32c52.94 0 96 43.06 96 96v32h32c17.69 0 32 14.31 32 32S177.7 224 160 224H128v160c0 17.66 14.34 32 32 32h32c70.59 0 128-57.41 128-128V256c0-17.66-14.34-32-32-32h-16c-17.69 0-32-14.31-32-32s14.31-32 32-32H288C340.9 160 384 203.1 384 256z"/></svg>