<svg xmlns="http://www.w3.org/2000/svg" viewBox="0 0 640 512"><!--! Font Awesome Pro 6.0.0-alpha3 by @fontawesome - https://fontawesome.com License - https://fontawesome.com/license (Commercial License) --><path d="M288 56C288 42.8 277.2 32 264 32H248C234.8 32 224 42.8 224 55.1V192h64V56zM191.1 47.1C191.1 39.2 184.8 32 175.1 32s-15.1 7.2-15.1 15.1V192h31.1L191.1 47.1zM480 47.1C480 39.2 472.8 32 464 32S448 39.2 448 47.1V192h32V47.1zM576 55.1C576 42.8 565.2 32 552 32h-16C522.8 32 512 42.8 512 56V192h64V55.1zM128 56C128 42.8 117.2 32 104 32H88C74.8 32 64 42.8 64 55.1V192h64V56zM384 55.1C384 42.8 373.2 32 360 32h-16C330.8 32 320 42.8 320 56V192h64V55.1zM159.1 464C159.1 472.8 167.2 480 175.1 480s16-7.2 16-15.1L191.1 320H159.1V464zM64 456C64 469.2 74.8 480 87.1 480H104C117.2 480 128 469.2 128 456V320H64V456zM512 456c0 13.2 10.8 24 24 24h16c13.2 0 24-10.8 24-24V320h-64V456zM448 464c0 8.8 7.2 16 16 16s16-7.2 16-16V320h-32V464zM320 456c0 13.2 10.8 24 24 24h16c13.2 0 24-10.8 24-24V320h-64V456zM224 456C224 469.2 234.8 480 247.1 480H264C277.2 480 288 469.2 288 456V320H224V456zM616 232h-592C10.75 232 0 242.7 0 255.1C0 269.3 10.75 280 23.1 280h592C629.3 280 640 269.3 640 256C640 242.7 629.3 232 616 232z"/></svg>