<svg xmlns="http://www.w3.org/2000/svg" viewBox="0 0 512 512"><!--! Font Awesome Pro 6.0.0-alpha3 by @fontawesome - https://fontawesome.com License - https://fontawesome.com/license (Commercial License) --><path d="M488 352H24C10.75 352 0 362.8 0 376v80C0 469.3 10.75 480 24 480h464c13.25 0 24-10.75 24-24v-80C512 362.8 501.3 352 488 352zM464 432h-175v-32H464V432zM488 192H24C10.75 192 0 202.8 0 216v80C0 309.3 10.75 320 24 320h464C501.3 320 512 309.3 512 296v-80C512 202.8 501.3 192 488 192zM464 272H161v-32H464V272zM488 32H24C10.75 32 0 42.75 0 56v80C0 149.3 10.75 160 24 160h464C501.3 160 512 149.3 512 136v-80C512 42.75 501.3 32 488 32zM464 112h-111v-32H464V112z"/></svg>