<svg xmlns="http://www.w3.org/2000/svg" viewBox="0 0 448 512"><!--! Font Awesome Pro 6.0.0-alpha3 by @fontawesome - https://fontawesome.com License - https://fontawesome.com/license (Commercial License) --><path d="M352 224H95.1C78.33 224 64 238.3 64 255.1S78.33 288 95.1 288h256C369.7 288 384 273.7 384 256S369.7 224 352 224zM256 384H191.1C174.3 384 160 398.3 160 415.1S174.3 448 191.1 448h64C273.7 448 288 433.7 288 416S273.7 384 256 384zM416 64H31.1C14.33 64 0 78.33 0 95.1S14.33 128 31.1 128h384C433.7 128 448 113.7 448 96S433.7 64 416 64z"/></svg>