<svg xmlns="http://www.w3.org/2000/svg" viewBox="0 0 640 512"><!--! Font Awesome Pro 6.0.0-alpha3 by @fontawesome - https://fontawesome.com License - https://fontawesome.com/license (Commercial License) --><path d="M57.89 397.2c-10.39-14.3-30.41-17.45-44.7-7.078c-14.3 10.39-17.47 30.41-7.078 44.7l46.52 64C58.89 507.4 68.64 512 78.55 512c6.516 0 13.11-1.984 18.78-6.109c14.3-10.39 17.47-30.41 7.078-44.7L57.89 397.2zM496.1 352c-44.13 0-79.72 35.75-79.72 80s35.59 80 79.72 80s79.91-35.75 79.91-80S540.2 352 496.1 352zM627.3 60.18l-23.63-32.5c-22.62-31.12-64.75-35.87-93.63-14.87L307.8 159.7C262.2 192.8 220.4 230.9 183.4 273.4c-24.22 27.88-59.18 63.99-103.5 99.63l56.34 77.52c53.79-35.39 99.15-55.3 127.1-67.27c51.88-22 101.3-49.87 146.9-82.1l202.3-146.7C642.3 131.8 648.9 90.05 627.3 60.18z"/></svg>