<svg xmlns="http://www.w3.org/2000/svg" viewBox="0 0 512 512"><!--! Font Awesome Pro 6.0.0-alpha3 by @fontawesome - https://fontawesome.com License - https://fontawesome.com/license (Commercial License) --><path d="M444 256.9c22.88-2.141 45.68-.1953 67.67 4.977C511.7 259.9 512 258 512 256c0-141.4-114.6-256-256-256C253.9 0 251.1 .2578 249.9 .3047c3.658 15.51 6.111 31.34 6.111 47.54c0 6-.2813 12.03-.7813 18C254.6 74.19 247.6 80.5 239.3 80.5c-.4687 0-.9375-.0313-1.375-.0625C229.2 79.69 222.6 71.97 223.4 63.16c.4375-5.094 .6562-10.19 .6562-15.31c0-15.26-2.389-30.18-6.225-44.69C106.9 19.79 19.5 107.3 3.08 218.3c19.67 5.203 40.27 6.977 60.89 5.008c8.656-.5 16.59 5.656 17.41 14.47c.8125 8.781-5.656 16.59-14.47 17.41C60.66 255.8 54.44 256 48.16 256c-16.33 0-32.25-2.445-47.85-6.109C.2578 251.1 0 253.9 0 256c0 141.4 114.6 256 256 256c2.066 0 4.062-.2578 6.117-.3086C258.5 496.2 256 480.4 256 464.2c0-5.688 .25-11.38 .7187-17.03c.7187-8.812 8.781-15 17.28-14.59c8.813 .7187 15.34 8.469 14.59 17.28C288.2 454.6 288 459.4 288 464.2c0 15.25 2.383 30.16 6.209 44.66c110.8-16.63 198.2-104.1 214.7-215c-19.99-5.289-40.89-7.125-61.74-5.016c-8.469 .5938-16.62-5.562-17.5-14.38C428.8 265.6 435.3 257.8 444 256.9zM236.8 135.6C221.4 168.7 197.4 197.3 167.3 218.4C157.6 225.2 147.2 231.2 136.5 236.3C134.3 237.3 131.1 237.8 129.7 237.8c-5.969 0-11.72-3.375-14.47-9.156c-3.781-8-.3438-17.53 7.625-21.31c9.094-4.312 17.91-9.406 26.12-15.19c25.5-17.78 45.81-42.03 58.75-70.03c3.719-8.031 13.16-11.5 21.25-7.812C236.1 118 240.4 127.5 236.8 135.6zM388.3 305.1c-8.719 4.156-17.22 9.125-25.28 14.78c-25.69 18-46.13 42.53-59.09 70.88c-2.688 5.875-8.5 9.344-14.56 9.344c-2.25 0-4.5-.4687-6.656-1.438c-8.031-3.688-11.56-13.19-7.906-21.22c15.34-33.53 39.5-62.5 69.84-83.75c9.531-6.688 19.56-12.56 29.91-17.47c7.906-3.844 17.5-.4687 21.31 7.562C399.7 291.7 396.3 301.3 388.3 305.1z"/></svg>