<svg xmlns="http://www.w3.org/2000/svg" viewBox="0 0 576 512"><!--! Font Awesome Pro 6.0.0-alpha3 by @fontawesome - https://fontawesome.com License - https://fontawesome.com/license (Commercial License) --><path d="M560 192l-101.6 .0012l-93.11-179.1c-6.062-11.75-20.58-16.34-32.36-10.22c-11.78 6.094-16.34 20.59-10.22 32.34l81.61 156.9H171.7l81.61-156.9C259.4 23.32 254.9 8.818 243.1 2.724C231.4-3.369 216.8 1.224 210.7 12.94l-93.11 179.1L16 192c-8.836 0-16 7.164-16 15.1v32c0 8.836 7.164 15.1 16 15.1h23.11l45.75 205.9C91.37 491.2 117.3 512 147.3 512h281.3c29.1 0 55.97-20.83 62.48-50.12l45.75-205.9H560c8.838 0 16-7.164 16-15.1V208C576 199.2 568.8 192 560 192zM144 295.1c-13.25 0-24-10.75-24-24c0-13.25 10.75-24 24-24c13.26 0 24 10.75 24 24C168 285.3 157.3 295.1 144 295.1zM432 295.1c-13.25 0-24-10.75-24-24c0-13.25 10.75-24 24-24c13.26 0 24 10.75 24 24C456 285.3 445.3 295.1 432 295.1z"/></svg>