<svg xmlns="http://www.w3.org/2000/svg" viewBox="0 0 512 512"><!--! Font Awesome Pro 6.0.0-alpha3 by @fontawesome - https://fontawesome.com License - https://fontawesome.com/license (Commercial License) --><path d="M230.7 17.41C238.1 16.53 247.4 15.1 256 15.1c60.51-.0014 115.6 22.57 157.9 59.52L256 233.4L186.1 164.3c28.32-33.46 46.07-76.14 46.07-123.3C233 32.93 231.6 25.26 230.7 17.41zM278.6 256l69.03 69.03c33.46-28.32 76.14-46.07 123.3-46.07c8.107 0 15.78 1.407 23.63 2.386C495.5 273 495.1 264.6 495.1 256c.0014-60.51-22.63-115.6-59.59-157.8L278.6 256zM347.6 370.3c-22.57 27.59-36.68 62.35-36.68 100.7c0 6.165 1.133 11.97 1.816 17.95c38.07-9.252 72.54-27.45 101.1-52.43L347.6 370.3zM436.5 413.9c24.99-28.54 43.19-63.01 52.44-101.1c-5.986-.6822-11.79-1.817-17.95-1.817c-38.35 0-73.11 14.11-100.7 36.68L436.5 413.9zM75.56 98.18C50.57 126.7 32.34 161.2 23.09 199.2c5.986 .6822 11.79 1.816 17.95 1.816c38.35 0 73.11-14.11 100.7-36.68L75.56 98.18zM278.1 470.1c0-47.16 17.75-89.85 46.07-123.3L256 278.6l-157.9 157.9C140.4 473.4 195.5 496 256 495.1c8.568 0 17.01-.5344 25.35-1.41C280.4 486.7 278.1 479.1 278.1 470.1zM233.4 256L164.3 186.1C130.9 215.3 88.2 233 41.04 233c-8.107 0-15.78-1.407-23.63-2.388C16.53 238.1 16 247.4 16 256c-.0014 60.51 22.57 115.6 59.52 157.9L233.4 256zM199.2 23.09C161.2 32.34 126.7 50.53 98.15 75.52l66.21 66.21C186.9 114.1 201 79.39 201 41.04C201 34.87 199.9 29.07 199.2 23.09z"/></svg>