<svg xmlns="http://www.w3.org/2000/svg" viewBox="0 0 640 512"><!--! Font Awesome Pro 6.0.0-alpha3 by @fontawesome - https://fontawesome.com License - https://fontawesome.com/license (Commercial License) --><path d="M448 208H192V160h256V208zM640 208.1v118c0 25.43-15.05 48.44-38.35 58.63l-93.09 40.73L524.6 288H492.4l-24.48 209.8c-.7187 6.156-4.969 11.38-10.84 13.33C455.4 511.7 453.7 512 452 512c-4.312 0-8.531-1.75-11.59-4.984l-54.41-57.27l-54.41 57.27C328.6 510.2 324.4 512 320 512s-8.594-1.797-11.59-4.984l-54.41-57.27l-54.41 57.27c-3.062 3.234-7.286 4.98-11.6 4.98c-1.688 0-3.402-.2617-5.058-.8242c-5.875-1.953-10.12-7.177-10.84-13.33L147.6 288H115.4l16.04 137.5l-93.09-40.72C15.05 374.6 0 351.6 0 326.1V208.1C0 197.5 2.328 186.1 7.455 177.7C65.96 72.24 183.8 0 320 0s254 72.24 312.5 177.7C637.7 186.1 640 197.5 640 208.1zM226.1 288H179.9L184.1 324L226.1 288zM231.9 426.5l-40.96-43.11l8.955 76.79L231.9 426.5zM253.1 403.3l43.94-46.25L251.6 308.3l-48.44 41.52L253.1 403.3zM320 333.8L363.5 288H276.5L320 333.8zM363.9 426.5L320 380.3l-43.94 46.25L320 472.8L363.9 426.5zM385.1 403.3l50.84-53.52l-48.44-41.52l-46.35 48.78L385.1 403.3zM449 383.4l-40.96 43.11l32 33.68L449 383.4zM460.1 288h-46.24l42.04 36.03L460.1 288zM544 216c0-4.418-3.582-8-8-8H480V160c0-17.64-14.34-32-32-32H192C174.3 128 160 142.4 160 160v48H104C99.58 208 96 211.6 96 216v16C96 236.4 99.58 240 104 240h432C540.4 240 544 236.4 544 232V216z"/></svg>