<svg xmlns="http://www.w3.org/2000/svg" viewBox="0 0 640 512"><!--! Font Awesome Pro 6.0.0-alpha3 by @fontawesome - https://fontawesome.com License - https://fontawesome.com/license (Commercial License) --><path d="M112 192c0-13.25-10.75-24-24-24h-64C10.75 168 0 178.8 0 192s10.75 24 24 24h64C101.2 216 112 205.2 112 192zM51.62 64.75l55.5 32c7.375 4.5 16.63 4.625 24.25 .375c7.5-4.375 12.12-12.37 12.12-21c-.125-8.75-4.875-16.75-12.38-20.88l-55.5-32C68.25 18.75 58.1 18.62 51.38 22.88c-7.5 4.375-12.13 12.37-12.13 21C39.38 52.62 44.12 60.62 51.62 64.75zM521 100c4.125 0 8.25-1.125 12-3.25l55.38-32c11.25-6.75 14.88-21.25 8.375-32.5c-6.5-11.37-21-15.37-32.38-9l-55.38 32c-9.5 5.375-14 16.5-11.25 27C500.6 92.75 510.1 100 521 100zM319.1 512C355.4 512 384 483.4 384 448H256C256 483.4 284.6 512 319.1 512zM616 168h-64c-13.25 0-24 10.75-24 24s10.75 24 24 24h64C629.3 216 640 205.2 640 192S629.3 168 616 168zM479.9 208c0-77.75-54.38-139.9-127.9-155.1V32c0-17.62-14.38-32-32-32C302.2 0 288 14.38 288 32v20.88C214.5 68.12 160.1 130.2 160.1 208c0 102.2-36.13 133.6-55.5 154.3C99 368.2 96 375.9 96 384.1c.125 16.38 13 31.98 32.13 31.98h383.8c19.12 0 32-15.61 32.13-31.98c0-8.125-3-15.86-8.625-21.74C516 341.6 479.9 310.2 479.9 208z"/></svg>