<svg xmlns="http://www.w3.org/2000/svg" viewBox="0 0 448 512"><!--! Font Awesome Pro 6.0.0-alpha3 by @fontawesome - https://fontawesome.com License - https://fontawesome.com/license (Commercial License) --><path d="M223.1 512C259.4 512 288 483.4 288 448H160C160 483.4 188.6 512 223.1 512zM439.4 362.3C420.1 341.6 383.9 310.3 383.9 208c0-77.75-54.38-139.9-127.9-155.1V32c0-17.62-14.38-32-32-32C206.3 0 192 14.38 192 32v20.88C118.5 68.13 64.13 130.3 64.13 208c0 102.3-36.25 133.6-55.5 154.3C3 368.2 0 375.9 0 384.1c.125 16.38 13 31.98 32.13 31.98h383.8c19.12 0 32-15.61 32.13-31.98C448 375.9 445 368.2 439.4 362.3zM200 136C200 122.8 210.8 112 224 112s24 10.75 24 24v96C248 245.3 237.3 256 224 256S200 245.3 200 232V136zM224 352c-17.67 0-32-14.33-32-32s14.33-32 32-32s32 14.33 32 32S241.7 352 224 352z"/></svg>