<svg xmlns="http://www.w3.org/2000/svg" viewBox="0 0 640 512"><!--! Font Awesome Pro 6.0.0-alpha3 by @fontawesome - https://fontawesome.com License - https://fontawesome.com/license (Commercial License) --><path d="M464 463.1l-47.1-.0011v-41.27l-16.31-12.78c-37.08 23.66-80.61 38.05-127.7 38.05c-54 0-103.9-18.12-143.1-48.5v80.5c0 17.62 14.38 31.1 31.1 31.1l303.1 .002c17.61 0 33.85-5.416 47.6-14.34l-43.7-34.25C466.6 463.5 465.4 463.1 464 463.1zM373.5 389.4L71.64 152.8c-4.838 17.6-7.635 36.04-7.635 55.18c0 114.9 93.13 207.1 207.1 207.1C308.9 415.1 343.5 406.3 373.5 389.4zM630.8 469.1l-60.48-47.41c3.451-6.523 5.672-13.8 5.672-21.71c0-26.5-21.5-47.1-47.1-47.1c-12.06 0-22.72 4.777-31.09 12.15l-52.52-41.16c22.12-33.01 35.61-72.26 35.61-114.1c0-114.9-93.13-207.1-207.1-207.1c-60.76 0-115.2 26.22-153.2 67.79L38.81 5.117C28.21-3.154 13.16-1.096 5.115 9.19c-8.187 10.44-6.365 25.53 4.073 33.7l591.1 463.1c10.5 8.203 25.57 6.333 33.7-4.073C643.1 492.4 641.2 477.3 630.8 469.1zM343.2 243.7L317.2 223.3C318.9 218.5 320 213.4 320 207.1c0-26.5-21.5-47.1-47.1-47.1c-9.523 0-18.35 2.873-25.76 7.691L220.4 147.4c13.95-11.94 31.85-19.42 51.63-19.42c44.12 0 80 35.87 80 79.1C352 220.9 348.6 232.9 343.2 243.7z"/></svg>