<svg xmlns="http://www.w3.org/2000/svg" viewBox="0 0 512 512"><!--! Font Awesome Pro 6.0.0-alpha3 by @fontawesome - https://fontawesome.com License - https://fontawesome.com/license (Commercial License) --><path d="M480 384H192c-17.67 0-32 14.33-32 32s14.33 32 32 32h288c17.67 0 32-14.33 32-32S497.7 384 480 384zM32 128h448c17.67 0 32-14.33 32-32s-14.33-32-32-32H32C14.33 64 0 78.33 0 96S14.33 128 32 128zM480 224H192C174.3 224 160 238.3 160 256s14.33 32 32 32h288c17.67 0 32-14.33 32-32S497.7 224 480 224zM32 208c-17.67 0-32 14.33-32 32v192c0 17.67 14.33 32 32 32s32-14.33 32-32v-192C64 222.3 49.67 208 32 208z"/></svg>