<svg xmlns="http://www.w3.org/2000/svg" viewBox="0 0 448 512"><!--! Font Awesome Pro 6.0.0-alpha3 by @fontawesome - https://fontawesome.com License - https://fontawesome.com/license (Commercial License) --><path d="M448 360V24C448 10.74 437.3 0 424 0H96C42.98 0 0 42.98 0 96v320c0 53.02 42.98 96 96 96h328c13.25 0 24-10.75 24-24v-16c0-10.42-6.727-19.06-16-22.38v-67.23C441.3 379.1 448 370.4 448 360zM384 448H96c-17.67 0-32-14.33-32-32c0-17.67 14.33-32 32-32h120V209.9L176.1 248.1c-9.375 9.375-24.56 9.375-33.94 0s-9.375-24.56 0-33.94l80-80c9.375-9.375 24.56-9.375 33.94 0l80 80c9.375 9.375 9.375 24.56 0 33.94C332.3 253.7 326.2 256 320 256s-12.28-2.344-16.97-7.031L264 209.9V384H384V448z"/></svg>