<svg xmlns="http://www.w3.org/2000/svg" viewBox="0 0 448 512"><!--! Font Awesome Pro 6.0.0-alpha3 by @fontawesome - https://fontawesome.com License - https://fontawesome.com/license (Commercial License) --><path d="M448 360V24C448 10.74 437.3 0 424 0H96C42.98 0 0 42.98 0 96v320c0 53.02 42.98 96 96 96h328c13.25 0 24-10.75 24-24v-16c0-10.42-6.725-19.06-16-22.38v-67.23C441.3 379.1 448 370.4 448 360zM261.1 197.4l.3711-.4277l20.56-49.31c1.012-2.033 3.671-3.675 5.942-3.69c.0078 0-.0078 0 0 0c2.279 0 4.966 1.647 5.981 3.69l20.7 49.64l49.64 20.7C366.3 219.1 368 221.7 368 223.1c0 2.266-1.652 4.949-3.682 5.965l-49.64 20.7l-20.7 49.64c-1.016 2.043-3.697 3.695-5.977 3.695c-.0078 0 .0078 0 0 0c-2.271-.0156-4.936-1.662-5.947-3.695l-20.72-49.63L211.7 229.1c-2.023-1.012-3.664-3.676-3.676-5.938c.0117-2.27 1.65-4.977 3.676-5.988L261.1 197.4zM130.2 108.4L159.1 96l12.42-29.79C173 64.99 174.6 64 175.1 64s2.969 .9902 3.578 2.217L191.1 96L221.8 108.4c1.217 .6094 2.209 2.211 2.209 3.576c0 1.359-.9922 2.971-2.209 3.58L191.1 127.1L179.6 157.8C178.1 159 177.4 160 175.1 160S173 159 172.4 157.8L159.1 127.1L130.2 115.6C128.1 114.1 128 113.4 128 111.1C128 110.6 128.1 109 130.2 108.4zM384 448H96c-17.67 0-32-14.33-32-32c0-17.67 14.33-32 32-32h288V448z"/></svg>