<svg xmlns="http://www.w3.org/2000/svg" viewBox="0 0 448 512"><!--! Font Awesome Pro 6.0.0-alpha3 by @fontawesome - https://fontawesome.com License - https://fontawesome.com/license (Commercial License) --><path d="M448 360V24C448 10.74 437.3 0 424 0H96C42.98 0 0 42.98 0 96v320c0 53.02 42.98 96 96 96h328c13.25 0 24-10.75 24-24v-16c0-10.42-6.725-19.06-16-22.38v-67.23C441.3 379.1 448 370.4 448 360zM128 166c0-8.838 7.164-16 16-16h53.1V96c0-8.838 7.164-16 16-16h52c8.836 0 16 7.162 16 16v54H336c8.836 0 16 7.162 16 16v52c0 8.836-7.164 16-16 16h-54V288c0 8.836-7.164 16-16 16h-52c-8.836 0-16-7.164-16-16V234H144c-8.836 0-16-7.164-16-16V166zM384 448H96c-17.67 0-32-14.33-32-32c0-17.67 14.33-32 32-32h288V448z"/></svg>