<svg xmlns="http://www.w3.org/2000/svg" viewBox="0 0 448 512"><!--! Font Awesome Pro 6.0.0-alpha3 by @fontawesome - https://fontawesome.com License - https://fontawesome.com/license (Commercial License) --><path d="M208 296.6l16.88-28.12H191.3L208 296.6zM301.1 139.5h-34.87l17.5 29.12L301.1 139.5zM113.1 244.5h34.88l-17.5-29.12L113.1 244.5zM267.1 244.5h34.87l-17.37-29.12L267.1 244.5zM208 87.38L191.3 115.5h33.5L208 87.38zM148.9 139.5H113.1L131.5 168.6L148.9 139.5zM352 0H24C10.75 0 0 10.74 0 24v336c0 10.42 6.727 19.06 16 22.38v67.23C6.727 452.9 0 461.6 0 472v16C0 501.3 10.75 512 24 512H352c53.02 0 96-42.98 96-96V96C448 42.98 405 0 352 0zM89.38 125.6C93 119.3 99.63 115.4 106.9 115.5h56.38l27.5-46.25C194.4 63.25 201 59.5 208 59.5s13.5 3.625 17 9.625l27.75 46.38h56.38c7.25 0 13.88 3.875 17.38 10.12c3.5 6.25 3.5 13.88-.25 20.12L298.6 192l27.75 46.38c3.75 6.125 3.75 13.88 .25 20c-3.625 6.375-10.25 10.25-17.5 10.25h-56.38l-27.5 46.13C221.6 320.8 215.1 324.5 208 324.5c-7 0-13.5-3.625-17-9.625L163.3 268.5H106.9c-7.125 0-13.88-3.875-17.38-10.12C85.1 252.1 86.13 244.5 89.75 238.3L117.4 192L89.63 145.6C85.88 139.5 85.88 131.8 89.38 125.6zM352 448H64v-64h288c17.67 0 32 14.33 32 32C384 433.7 369.7 448 352 448zM176.9 244.5h62.25L270.6 192l-31.5-52.63H176.9L145.4 192L176.9 244.5z"/></svg>