<svg xmlns="http://www.w3.org/2000/svg" viewBox="0 0 448 512"><!--! Font Awesome Pro 6.0.0-alpha3 by @fontawesome - https://fontawesome.com License - https://fontawesome.com/license (Commercial License) --><path d="M272 144C280.8 144 288 136.8 288 128s-7.25-16-16-16S256 119.3 256 128S263.3 144 272 144zM448 360V24C448 10.74 437.3 0 424 0H96C42.98 0 0 42.98 0 96v320c0 53.02 42.98 96 96 96h328c13.25 0 24-10.75 24-24v-16c0-10.42-6.727-19.06-16-22.38v-67.23C441.3 379.1 448 370.4 448 360zM240 64C284.3 64 320 92.75 320 128c0 20.88-12.75 39.25-32 50.88V192c0 8.75-7.25 16-16 16h-64C199.3 208 192 200.8 192 192V178.9C172.8 167.3 160 148.9 160 128C160 92.75 195.8 64 240 64zM124.8 231.3l6.375-14.62C132.8 212.5 137.5 210.8 141.6 212.4l98.25 42.13l98.38-42.13c4.125-1.625 8.875 .125 10.5 4.25l6.375 14.62c1.625 4.125-.125 8.875-4.25 10.5L280.6 272l70.25 30.12c4.125 1.625 5.875 6.375 4.25 10.5l-6.375 14.62c-1.625 4.125-6.375 6-10.5 4.25L240 289.4l-98.25 42.25c-4.125 1.625-8.875-.125-10.5-4.25L124.9 312.8C123.3 308.6 125 303.9 129.1 302.3L199.5 272.1L129 241.8C124.9 240.1 123.1 235.4 124.8 231.3zM384 448H96c-17.67 0-32-14.33-32-32c0-17.67 14.33-32 32-32h288V448zM208 144C216.8 144 224 136.8 224 128S216.8 112 208 112S192 119.3 192 128S199.3 144 208 144z"/></svg>