<svg xmlns="http://www.w3.org/2000/svg" viewBox="0 0 448 512"><!--! Font Awesome Pro 6.0.0-alpha3 by @fontawesome - https://fontawesome.com License - https://fontawesome.com/license (Commercial License) --><path d="M16 382.4v67.23C6.727 452.9 0 461.6 0 472v16C0 501.3 10.75 512 24 512H352c53.02 0 96-42.98 96-96V96c0-53.02-42.98-96-96-96H24C10.75 0 0 10.74 0 24v336C0 370.4 6.727 379.1 16 382.4zM324.8 170.4c3.006 .4297 4.295 4.154 2.004 6.301L306.2 196.9l4.869 28.5c.4297 2.434-1.576 4.439-3.725 4.439c-.5723 0-1.145-.1445-1.719-.4297L280 215.9l-25.63 13.46c-.5723 .2852-1.145 .4297-1.719 .4297c-2.146 0-4.152-2.006-3.723-4.439l4.869-28.5l-20.62-20.19c-2.291-2.146-1.002-5.871 2.006-6.301l28.64-4.152l12.89-25.92C277.3 138.9 278.7 138.2 280 138.2s2.721 .7168 3.295 2.148l12.89 25.92L324.8 170.4zM216 72c23.66 0 46.61 6.953 66.36 20.09c3.219 2.141 4.438 6.281 2.906 9.844c-1.547 3.547-5.453 5.562-9.172 4.594C268.8 104.8 262.2 104 256 104C207.5 104 168 143.5 168 192S207.5 280 256 280c6.234 0 12.81-.8281 20.09-2.531c3.719-.9687 7.625 1.047 9.172 4.594c1.531 3.562 .3125 7.703-2.906 9.844C262.6 305 239.7 312 216 312C149.8 312 96 258.2 96 192S149.8 72 216 72zM64 384h288c17.67 0 32 14.33 32 32c0 17.67-14.33 32-32 32H64V384z"/></svg>