<svg xmlns="http://www.w3.org/2000/svg" viewBox="0 0 448 512"><!--! Font Awesome Pro 6.0.0-alpha3 by @fontawesome - https://fontawesome.com License - https://fontawesome.com/license (Commercial License) --><path d="M448 360V24C448 10.74 437.3 0 424 0H96C42.98 0 0 42.98 0 96v320c0 53.02 42.98 96 96 96h328c13.25 0 24-10.75 24-24v-16c0-10.42-6.727-19.06-16-22.38v-67.23C441.3 379.1 448 370.4 448 360zM149.8 109.1c24-20 59.75-16.38 81.63 5.75L240 123.6l8.625-8.75c22-22.12 57.63-25.75 81.63-5.75c27.5 23 28.88 64.13 4.25 89.13l-84.75 85.5c-5.5 5.5-14.25 5.5-19.75 0l-84.75-85.5C120.8 173.3 122.3 132.1 149.8 109.1zM384 448H96c-17.67 0-32-14.33-32-32c0-17.67 14.33-32 32-32h288V448z"/></svg>