<svg xmlns="http://www.w3.org/2000/svg" viewBox="0 0 512 512"><!--! Font Awesome Pro 6.0.0-alpha3 by @fontawesome - https://fontawesome.com License - https://fontawesome.com/license (Commercial License) --><path d="M145.7 286.9l45.24-45.14L100.5 151.3c27.75-15.12 58.1-23.24 91.5-23.24c31.1 0 62.87 7.748 90.37 22.49l46.62-46.62c-40.62-25.87-87.75-39.87-136.1-39.87c-49.75 0-97.25 14.25-138.1 40.62L49.97 100.8C43.73 94.53 33.5 94.5 27.26 100.7l-22.54 22.51C-1.533 129.5-1.523 139.7 4.727 145.9L145.7 286.9zM408.1 182.4l-46.62 46.62c14.75 27.49 22.5 58.24 22.5 90.36c0 32.49-8.124 63.74-23.25 91.48l-90.5-90.61l-45.25 45.24l141.8 141.8c6.25 6.249 16.38 6.249 22.62 0l22.6-22.62c6.25-6.249 6.25-16.5 0-22.75l-4.625-4.499c26.37-40.87 40.62-88.36 40.62-138.1C447.1 269.1 433.1 222.1 408.1 182.4zM493.2 .2817L364.6 26.03c-12.25 2.499-16.87 17.59-8 26.47l34.5 34.49l-250.6 250.6l-49.74-16.69c-7.375-2.375-15.5-.4991-20.1 4.1l-63.75 63.82c-10.75 10.75-6.374 29.12 8.126 33.99l55.62 18.5l18.5 55.62c4.875 14.5 23.25 18.87 34.12 8.124l63.62-63.74c5.5-5.499 7.375-13.62 5.001-20.1l-16.62-49.85l250.6-250.5l34.5 34.47c8.875 8.873 24 4.248 26.5-7.1l25.72-128.6C513.8 7.782 504.2-1.843 493.2 .2817z"/></svg>