<svg xmlns="http://www.w3.org/2000/svg" viewBox="0 0 448 512"><!--! Font Awesome Pro 6.0.0-alpha3 by @fontawesome - https://fontawesome.com License - https://fontawesome.com/license (Commercial License) --><path d="M448 160l-56.75-106.1C386.9 40.75 374.8 32 360.9 32H256l31.97 128H448zM287.9 192L288 272C288 280.8 280.8 288 272 288h-96C167.2 288 160 280.8 160 272V192H0v240C0 458.5 21.49 480 48 480h352c26.51 0 48-21.49 48-48V192H287.9zM160 160l32-128H87.13c-13.88 0-26 8.75-30.38 21.88L0 160H160z"/></svg>