<svg xmlns="http://www.w3.org/2000/svg" viewBox="0 0 640 512"><!--! Font Awesome Pro 6.0.0-alpha3 by @fontawesome - https://fontawesome.com License - https://fontawesome.com/license (Commercial License) --><path d="M194.3 143.8C192.9 138.7 192 133.4 192 128.1c0-35.25 28.75-64.03 64-64.03s64 28.78 64 64.03c0 11.25-3.125 21.52-8.25 30.77l8.25 1.001l155.3-19.76l35.75-98.3c2.1-8.375-1.25-17.51-9.625-20.51l-55.5-20.26c-8.25-2.1-17.5 1.255-20.5 9.63l-41.63 114.4C382 55.82 325.8 0 256 0C185.3 0 128 57.3 128 128c0 2.5 .627 4.896 .752 7.396L194.3 143.8zM638.3 271.8L586.8 169c-3-6.25-9.757-9.758-16.63-8.883l-250.2 31.87l91.74 152.1c3.752 6.25 11.38 9.261 18.51 7.261l197.9-56.51C638 292 642.8 281 638.3 271.8zM228.3 344.1l91.73-152.1l-250.2-31.87C62.9 159.3 56.24 162.8 53.24 169L1.755 271.8C-2.87 281.1 2.038 292.1 11.79 294.8l197.1 56.53C216.8 353.4 224.4 350.4 228.3 344.1zM425.8 385.3c-17 0-32.88-8.949-41.5-23.24L320 256l-64.25 106c-8.625 14.42-24.5 23.37-41.5 23.37c-4.5 0-9-.6211-13.25-1.863L64 344.5v80.99c0 14.67 9.999 27.35 24.25 30.83l216.1 53.82c10.25 2.486 20.88 2.486 31 0l216.4-53.82C565.1 452.7 576 440 576 425.5v-80.99l-137 38.9C434.8 384.6 430.3 385.3 425.8 385.3z"/></svg>