<svg xmlns="http://www.w3.org/2000/svg" viewBox="0 0 448 512"><!--! Font Awesome Pro 6.0.0-alpha3 by @fontawesome - https://fontawesome.com License - https://fontawesome.com/license (Commercial License) --><path d="M447.6 158.8l-56.38-104.9C386.9 40.75 374.8 32 360.9 32H240v128h206.8C447.1 159.5 447.3 159.3 447.6 158.8zM0 192v240C0 458.5 21.49 480 48 480h352c26.51 0 48-21.49 48-48V192H0zM276.2 372.4c-3.08 17.81-16.84 29.38-36.19 33.22V416c0 8.844-7.172 16-16.02 16S208 424.8 208 416v-10.72c-7.844-1.635-15.71-4.24-22.75-6.783l-3.547-1.266C173.4 394.3 169 385.1 172 376.8c2.953-8.344 12.08-12.67 20.42-9.734l3.703 1.328C203 370.9 210.8 373.7 216.1 374.6c12.75 2.047 26.39 .0156 27.73-7.688c.9531-5.531 .3125-8.281-25.09-15.56l-5.016-1.453c-14.66-4.297-49-14.39-42.8-50.28c3.096-17.91 16.74-29.76 36.25-33.55V256c0-8.844 7.156-16 16-16s16 7.156 16 16v10.86c5.541 1.17 11.28 2.586 16.88 4.52c8.359 2.891 12.8 12 9.906 20.34c-2.875 8.359-12.06 12.73-20.34 9.906c-5.156-1.781-10.59-3.484-15.52-4.25c-12.84-2.062-26.31 0-27.64 7.703C202.5 309.6 201.1 312.9 223.6 319.2l4.812 1.391C248.6 326.4 282.5 336.1 276.2 372.4zM208 160V32H87.13c-13.88 0-26 8.75-30.38 21.88L.375 158.8C.75 159.3 .875 159.5 1.25 160H208z"/></svg>