<svg xmlns="http://www.w3.org/2000/svg" viewBox="0 0 448 512"><!--! Font Awesome Pro 6.0.0-alpha3 by @fontawesome - https://fontawesome.com License - https://fontawesome.com/license (Commercial License) --><path d="M447.6 158.8l-56.38-104.9C386.9 40.75 374.8 32 360.9 32H240v128h206.8C447.1 159.5 447.3 159.3 447.6 158.8zM0 192v240C0 458.5 21.49 480 48 480h352c26.51 0 48-21.49 48-48V192H0zM312.1 296.1l-96 96C212.3 397.7 206.1 400 200 400s-12.28-2.344-16.97-7.031l-48-48c-9.375-9.375-9.375-24.56 0-33.94s24.56-9.375 33.94 0L200 342.1l79.03-79.03c9.375-9.375 24.56-9.375 33.94 0S322.3 287.6 312.1 296.1zM208 160V32H87.13c-13.88 0-26 8.75-30.38 21.88L.375 158.8C.75 159.3 .875 159.5 1.25 160H208z"/></svg>