<svg xmlns="http://www.w3.org/2000/svg" viewBox="0 0 512 512"><!--! Font Awesome Pro 6.0.0-alpha3 by @fontawesome - https://fontawesome.com License - https://fontawesome.com/license (Commercial License) --><path d="M479.1 224c0-35.25-28.76-64-63.1-64h-28.27c-25.42 0-48.99 18.14-51.38 43.46c-2.488 26.23 16.25 48.63 40.91 52.04c4 .625 6.875 4.125 6.875 8.125v16c0 4.625-4.125 8.5-8.875 8c-39.1-4.375-71.12-38.38-71.12-79.5c0-5.5 .625-10.88 1.625-16H173.2c-30.62 0-59.5-10.88-82.37-30.88c-3.5-3-3.625-8.375-.375-11.62l11.25-11.38c3-3 7.75-3 11-.375c16.88 14.38 38 22.38 60.5 22.38h146.7v.5c28.37-38.13 66.87-32.5 95.99-32.5L415.1 96c0-53.02-42.98-96-96-96H127.1C75.77 0 32.09 41.75 32 93.98V288c0 28.32 12.49 53.56 32 71.14V464C64 490.5 85.49 512 112 512h223.1c26.51 0 48-21.49 48-48V384l58.49-58.5C482.7 285.1 479.1 237.8 479.1 224zM280.9 418.7c7.344 4.906 9.344 14.83 4.438 22.19C282.2 445.5 277.2 448 272 448c-3.062 0-6.156-.875-8.875-2.688L224 419.2l-39.13 26.08C182.2 447.1 179.1 448 176 448c-5.156 0-10.22-2.5-13.31-7.125c-4.906-7.359-2.906-17.28 4.438-22.19L195.2 400l-28.03-18.69c-7.344-4.906-9.344-14.83-4.438-22.19c4.938-7.375 14.91-9.297 22.19-4.438L224 380.8l39.13-26.08c7.281-4.875 17.25-2.938 22.19 4.438c4.906 7.359 2.906 17.28-4.438 22.19L252.8 400L280.9 418.7z"/></svg>