<svg xmlns="http://www.w3.org/2000/svg" viewBox="0 0 576 512"><!--! Font Awesome Pro 6.0.0-alpha3 by @fontawesome - https://fontawesome.com License - https://fontawesome.com/license (Commercial License) --><path d="M48 432V96C21.49 96 0 117.5 0 144V448c0 35.34 28.65 64 64 64h368c26.51 0 48-21.49 48-48H80C62.33 464 48 449.7 48 432zM512 0H160C124.7 0 96 28.65 96 64v288c0 35.35 28.65 64 64 64h352c35.35 0 64-28.65 64-64V64C576 28.65 547.3 0 512 0zM224 116C224 122.6 218.6 128 212 128h-40C165.4 128 160 122.6 160 116v-40C160 69.38 165.4 64 172 64h40C218.6 64 224 69.38 224 76V116zM512 116C512 122.6 506.6 128 500 128h-232C261.4 128 256 122.6 256 116v-40C256 69.38 261.4 64 268 64h232C506.6 64 512 69.38 512 76V116z"/></svg>