<svg xmlns="http://www.w3.org/2000/svg" viewBox="0 0 384 512"><!--! Font Awesome Pro 6.0.0-alpha3 by @fontawesome - https://fontawesome.com License - https://fontawesome.com/license (Commercial License) --><path d="M336 .0145h-288c-26.51 0-48 21.49-48 48v432c0 17.67 14.33 32 32 32l112-.0073v-79.99c0-26.51 21.49-48.01 48-48.01s48 21.5 48 48.01v79.99l112 .0073c17.67 0 32-14.33 32-32v-432C384 21.5 362.5 .0145 336 .0145zM160 304c0 8.836-7.164 16-16 16h-32c-8.836 0-16-7.164-16-16v-32c0-8.838 7.164-16 16-16h32c8.836 0 16 7.167 16 16V304zM160 208c0 8.836-7.164 16-16 16h-32c-8.836 0-16-7.164-16-16v-32c0-8.838 7.164-16 16-16h32c8.836 0 16 7.167 16 16V208zM160 112c0 8.836-7.164 15.1-16 15.1h-32c-8.836 0-16-7.159-16-15.1v-32c0-8.838 7.164-16 16-16h32c8.836 0 16 7.162 16 16V112zM288 304c0 8.836-7.164 16-16 16h-32c-8.836 0-16-7.164-16-16v-32c0-8.838 7.164-16 16-16h32c8.836 0 16 7.167 16 16V304zM288 208c0 8.836-7.164 16-16 16h-32c-8.836 0-16-7.164-16-16v-32c0-8.838 7.164-16 16-16h32c8.836 0 16 7.167 16 16V208zM288 112c0 8.836-7.164 15.1-16 15.1h-32c-8.836 0-16-7.159-16-15.1v-32c0-8.838 7.164-16 16-16h32c8.836 0 16 7.162 16 16V112z"/></svg>