<svg xmlns="http://www.w3.org/2000/svg" viewBox="0 0 512 512"><!--! Font Awesome Pro 6.0.0-alpha3 by @fontawesome - https://fontawesome.com License - https://fontawesome.com/license (Commercial License) --><path d="M256 176c.2539 0 .4883 .0723 .7402 .0742l41.28-41.27l-3.373-16.87C282.3 114.5 269.5 112 256 112C176.6 112 112 176.6 112 256s64.6 144 144 144s144-64.6 144-144c0-13.47-2.457-26.26-5.934-38.64l-16.86-3.371l-41.28 41.28C335.9 255.5 336 255.8 336 256c0 44.18-35.82 80-80 80c-44.18 0-80-35.82-80-80S211.8 176 256 176zM499.3 176.6L465.9 209.9C460 215.9 452.7 219.9 444.8 222.1C446.8 233.1 448 244.4 448 256c0 106-85.96 192-192 192s-192-85.96-192-192s85.96-192 192-192c11.58 0 22.86 1.201 33.87 3.164c2.18-7.846 6.244-15.15 12.2-21.1l33.31-33.31C310.4 4.566 283.7 0 256 0C114.8 0 0 114.8 0 256s114.8 256 256 256s256-114.8 256-256C512 228.3 507.4 201.6 499.3 176.6zM320.3 83.14l12.44 62.18L247 231c-9.375 9.375-9.375 24.56 0 33.94C251.7 269.7 257.9 272 264 272s12.28-2.344 16.97-7.031l85.72-85.71l62.17 12.43c1.047 .2031 2.094 .3119 3.141 .3119c4.203 0 8.281-1.656 11.31-4.687l64-64c4.172-4.172 5.703-10.3 4-15.95c-1.703-5.641-6.391-9.891-12.17-11.05l-67.14-16.31l-16.31-67.14c-1.158-5.781-5.408-10.47-11.05-12.17c-5.688-1.719-11.78-.1719-15.95 4l-64 64C320.9 72.47 319.3 77.89 320.3 83.14z"/></svg>