<svg xmlns="http://www.w3.org/2000/svg" viewBox="0 0 640 512"><!--! Font Awesome Pro 6.0.0-alpha3 by @fontawesome - https://fontawesome.com License - https://fontawesome.com/license (Commercial License) --><path d="M224 268.7V31.97c0-6-3.375-11.62-8.875-14.25l-32-16C178.3-.7793 172.3-.5293 167.6 2.346C162.9 5.223 160 10.47 160 15.97v252.8C181.1 273.1 202.9 273.1 224 268.7zM370.2 176.5l13.54-77.73c1-5.5-1-11-5.125-14.62c-4.125-3.75-9.875-5-15.25-3.375l-17.25 5.125L326.6 196.1C340 188.9 354.7 182.1 370.2 176.5zM263.6 318.3C261.3 314.1 259.8 309.6 258.7 305C257.6 301 257.1 297 256.8 292.9c0-.002 0 .002 0 0c-19.02 6.998-41.13 11.08-64.81 11.08c-64.63 0-118.1-30-126.8-69c-1.5-6.75-8.25-10.1-15.25-10.1L15.1 223.1c-4.875 0-9.522 2.281-12.52 6.031s-4.104 8.716-3.104 13.47l54.13 243.5C57.75 501.6 70.73 512 85.73 512h186.7c-2.199-2.906-4.121-5.975-5.914-9.17c-.5508-.9648-1.076-1.932-1.588-2.92c-1.389-2.734-2.658-5.498-3.73-8.402c-.7871-2.078-1.375-4.232-1.986-6.389c-.6074-2.197-1.301-4.336-1.721-6.604C256.6 473.8 256 468.1 256 464c0-14.66 6.604-27.8 16.99-36.61C262.5 415.1 256 400.7 256 383.1c0-19.02 8.344-36.13 21.56-47.87C271.1 331.2 267.2 325.2 263.6 318.3zM128 258.5v-225.4l-3.75-20c-1-5.5-4.75-10-10-12c-5.125-2-11-1.25-15.38 2.125l-28.5 21.63C65.5 28.47 63.13 34.6 64.25 40.6l36.88 197.1C106.5 245.4 115.6 252.6 128 258.5zM50 191.1c3.625 0 6.999 1 10.37 1.75L40.38 86.6L20.63 80.73C15.25 79.1 9.504 80.35 5.379 83.98C1.254 87.73-.7461 93.23 .2539 98.73l16.25 93.26H50zM319.8 50.72c1-5.5-1-11-5.125-14.63C310.5 32.35 304.8 31.1 299.4 32.72L265.1 42.97C260.9 44.22 258 47.47 256 51.22l.002 207.3c3.941-1.887 7.479-3.953 10.79-6.084c.2187-.3359 .2988-.7246 .5254-1.059c3.637-5.332 7.846-10.35 12.26-15.25c2.662-3.045 5.424-6 8.328-8.895c.5332-1.359 1.221-2.643 1.729-3.965L319.8 50.72zM624 447.1h-320c-8.875 0-16 7.125-16 16c0 26.5 21.5 48 48 48h256c26.5 0 48-21.5 48-48C640 455.1 632.9 447.1 624 447.1zM293.8 269.4C279.3 290.7 293.9 319.1 319.3 319.1h289.5c25.38 0 40-29.25 25.5-50.63C604.8 226.1 540 192.1 464 191.1S323.3 226.1 293.8 269.4zM544 239.1c8.875 0 16 7.125 16 16S552.8 272 543.1 272s-16-7.125-16-16S535.1 239.1 544 239.1zM464 223.1c8.875 0 16 7.125 16 16S472.8 256 463.1 256s-15.99-7.125-15.99-16S455.1 223.1 464 223.1zM384 239.1c8.875 0 16 7.125 16 16S392.8 272 383.1 272s-16-7.125-16-16S375.1 239.1 384 239.1zM608 351.1h-288c-17.62 0-32 14.38-32 32s14.38 32 32 32h288c17.62 0 32-14.37 32-31.1S625.6 351.1 608 351.1z"/></svg>