<svg xmlns="http://www.w3.org/2000/svg" viewBox="0 0 640 512"><!--! Font Awesome Pro 6.0.0-alpha3 by @fontawesome - https://fontawesome.com License - https://fontawesome.com/license (Commercial License) --><path d="M352 175.1l-.0234-31.1c0-8.875-7.124-16-15.1-16H206.8l20-80L272 47.1c8.875 0 16-7.125 16-16L287.1 15.1c0-8.875-7.124-16-15.1-16H220.5c-18.38 0-34.37 12.49-38.75 30.24l-24.5 97.76h-141.3C7.124 127.1 0 135.1 0 143.1v31.1c0 8.875 7.125 16 16 16h320C344.9 191.1 352 184.9 352 175.1zM263.5 318.2c-11.25-21.25-9.75-47 3.75-66.87c6.749-9.875 15.12-18.88 24.12-27.38H38.25l25.75 258.3c1.25 16.88 15.12 29.88 31.1 29.75L256 511.1c4.75-.125 9.375-1.25 13.62-3.375C260.8 495.5 256 479.9 256 463.1c0-14.12 6.25-27.5 17-36.63c-11.62-12.62-17.75-29.38-16.88-46.62c.875-17.13 8.625-33.25 21.5-44.63C271.9 330.1 267.1 324.1 263.5 318.2zM624 447.1h-320c-8.875 0-16 7.125-16 16c0 26.5 21.5 48 48 48h256c26.5 0 48-21.5 48-48C640 455.1 632.9 447.1 624 447.1zM608 351.1h-288c-17.62 0-32 14.38-32 32s14.38 32 32 32h288c17.62 0 32-14.37 32-31.1S625.6 351.1 608 351.1zM293.8 269.4c-14.5 21.38 .125 50.63 25.5 50.63h289.5c25.38 0 40-29.25 25.5-50.63C604.8 226.1 540 192.1 464 191.1S323.2 226.1 293.8 269.4zM544 239.1c8.875 0 16 7.125 16 16c0 8.875-7.168 16-16.04 16s-16-7.125-16-16C527.1 247.1 535.1 239.1 544 239.1zM464 223.1c8.875 0 16 7.125 16 16s-7.168 16-16.04 16s-15.99-7.125-15.99-15.1S455.1 223.1 464 223.1zM384 239.1c8.875 0 16 7.125 16 16c0 8.875-7.168 16-16.04 16s-16-7.125-16-16C367.1 247.1 375.1 239.1 384 239.1z"/></svg>