<svg xmlns="http://www.w3.org/2000/svg" viewBox="0 0 576 512"><!--! Font Awesome Pro 6.0.0-alpha3 by @fontawesome - https://fontawesome.com License - https://fontawesome.com/license (Commercial License) --><path d="M520 112H496v-32C496 35.25 403.9 0 288 0S80 35.25 80 80v32H56C42.75 112 32 122.8 32 136v80C32 229.3 42.75 240 56 240H80v20.88C70.63 266.5 64 276.3 64 288v128c0 17.62 14.38 32 32 32v32c0 17.62 14.38 32 32 32h32c17.62 0 32-14.38 32-32v-32h192v32c0 17.62 14.38 32 32 32h32c17.62 0 32-14.38 32-32v-32c17.62 0 32-14.38 32-32V288c0-11.75-6.625-21.5-16-27.12V240h24C533.3 240 544 229.3 544 216v-80C544 122.8 533.3 112 520 112zM207.1 64h160c8.836 0 16 7.162 16 16c0 8.836-7.164 16-16 16h-160c-8.836 0-16-7.164-16-16C191.1 71.16 199.1 64 207.1 64zM144 384c-17.62 0-32-14.38-32-32s14.38-32 32-32s32 14.38 32 32S161.6 384 144 384zM272 256h-96c-17.62 0-32-14.38-32-32V160c0-17.62 14.38-32 32-32h96V256zM304 256V128h96c17.62 0 32 14.38 32 32v64c0 17.62-14.38 32-32 32H304zM432 384c-17.62 0-32-14.38-32-32s14.38-32 32-32s32 14.38 32 32S449.6 384 432 384z"/></svg>