<svg xmlns="http://www.w3.org/2000/svg" viewBox="0 0 448 512"><!--! Font Awesome Pro 6.0.0-alpha3 by @fontawesome - https://fontawesome.com License - https://fontawesome.com/license (Commercial License) --><path d="M.0002 464c0 26.5 21.5 48 48 48h352c26.5 0 48-21.5 48-48L448 192H0L.0002 464zM134.1 304.3l54.63-8l24.5-49.5c4.5-9 17.12-8.875 21.5 0l24.5 49.5l54.75 8c9.751 1.5 13.75 13.5 6.626 20.5L281 363.4l9.375 54.63c1.75 9.875-8.625 17.25-17.38 12.62L224 404.8l-48.88 25.88C166.4 435.3 156 427.7 157.8 418l9.375-54.63L127.5 324.8C120.3 317.8 124.3 305.8 134.1 304.3zM400 64H352V31.1C352 14.4 337.6 0 320 0C302.4 0 288 14.4 288 31.1V64H160V31.1C160 14.4 145.6 0 128 0S96 14.4 96 31.1V64H48c-26.51 0-48 21.49-48 48L0 160h448l.0002-48C448 85.49 426.5 64 400 64z"/></svg>