<svg xmlns="http://www.w3.org/2000/svg" viewBox="0 0 448 512"><!--! Font Awesome Pro 6.0.0-alpha3 by @fontawesome - https://fontawesome.com License - https://fontawesome.com/license (Commercial License) --><path d="M0 464C0 490.5 21.5 512 48 512h352c26.5 0 48-21.5 48-48V192H0V464zM266.7 261.3c7.029-7.031 18.44-7.031 25.47 0l22.54 22.53c7.029 7.031 7.029 18.43 0 25.47l-18.24 18.24l-48.01-48.01L266.7 261.3zM137.6 393.2c.4646-2.323 1.607-4.457 3.283-6.133l90.58-90.57l48 48l-90.58 90.56c-1.675 1.675-3.81 2.817-6.132 3.281L135.2 447.9c-4.197 .8394-7.937-2.898-7.097-7.095L137.6 393.2zM400 64H352V31.1C352 14.4 337.6 0 320 0C302.4 0 288 14.4 288 31.1V64H160V31.1C160 14.4 145.6 0 128 0S96 14.4 96 31.1V64H48C21.49 64 0 85.49 0 112V160h448V112C448 85.49 426.5 64 400 64z"/></svg>