<svg xmlns="http://www.w3.org/2000/svg" viewBox="0 0 448 512"><!--! Font Awesome Pro 6.0.0-alpha3 by @fontawesome - https://fontawesome.com License - https://fontawesome.com/license (Commercial License) --><path d="M448 112L448 160H0l.0002-48c0-26.51 21.49-48 48-48H96V31.1C96 14.4 110.4 0 128 0s32 14.4 32 31.1V64h128V31.1C288 14.4 302.4 0 320 0s32 14.4 32 31.1V64h48C426.5 64 448 85.49 448 112zM0 192h448l.0002 272c0 26.5-21.5 48-48 48h-352c-26.5 0-48-21.5-48-48L0 192zM127 360.1c9.375 9.375 24.56 9.375 33.94 0L200 321.9V424c0 13.25 10.75 24 24 24S248 437.3 248 424v-102.1l39.03 39.03C291.7 365.7 297.8 368 304 368s12.28-2.344 16.97-7.031c9.375-9.375 9.375-24.56 0-33.94l-80-80c-9.375-9.375-24.56-9.375-33.94 0l-80 80C117.7 336.4 117.7 351.6 127 360.1z"/></svg>