<svg xmlns="http://www.w3.org/2000/svg" viewBox="0 0 448 512"><!--! Font Awesome Pro 6.0.0-alpha3 by @fontawesome - https://fontawesome.com License - https://fontawesome.com/license (Commercial License) --><path d="M448 112V160H0V112C0 85.49 21.49 64 48 64H96V31.1C96 14.4 110.4 0 128 0s32 14.4 32 31.1V64h128V31.1C288 14.4 302.4 0 320 0s32 14.4 32 31.1V64h48C426.5 64 448 85.49 448 112zM0 192h448v272c0 26.5-21.5 48-48 48h-352C21.5 512 0 490.5 0 464V192zM320.1 327c-9.375-9.375-24.56-9.375-33.94 0L248 366.1V264c0-13.25-10.75-24-24-24S200 250.8 200 264v102.1l-39.03-39.03C156.3 322.3 150.2 320 144 320s-12.28 2.344-16.97 7.031c-9.375 9.375-9.375 24.56 0 33.94l80 80c9.375 9.375 24.56 9.375 33.94 0l80-80C330.3 351.6 330.3 336.4 320.1 327z"/></svg>