<svg xmlns="http://www.w3.org/2000/svg" viewBox="0 0 448 512"><!--! Font Awesome Pro 6.0.0-alpha3 by @fontawesome - https://fontawesome.com License - https://fontawesome.com/license (Commercial License) --><path d="M400 64H352V31.1C352 14.4 337.6 0 320 0C302.4 0 288 14.4 288 31.1V64H160V31.1C160 14.4 145.6 0 128 0S96 14.4 96 31.1V64H48c-26.51 0-48 21.49-48 48L0 160h448l.0002-48C448 85.49 426.5 64 400 64zM.0002 464c0 26.5 21.5 48 48 48h352c26.5 0 48-21.5 48-48L448 192H0L.0002 464zM384 432c0 8.836-7.162 16-16 16h-32c-8.836 0-16-7.164-16-16v-32c0-8.836 7.164-16 16-16h32c8.838 0 16 7.164 16 16V432zM184 264h176c13.25 0 24 10.74 24 24c0 13.25-10.75 24-24 24h-176C170.7 312 160 301.3 160 288C160 274.7 170.7 264 184 264zM64 272C64 263.2 71.16 256 80 256h32C120.8 256 128 263.2 128 272v32C128 312.8 120.8 320 112 320h-32C71.16 320 64 312.8 64 304V272zM88 392h176c13.25 0 24 10.74 24 24c0 13.25-10.75 24-24 24h-176c-13.25 0-23.1-10.75-23.1-24C64 402.7 74.75 392 88 392z"/></svg>