<svg xmlns="http://www.w3.org/2000/svg" viewBox="0 0 576 512"><!--! Font Awesome Pro 6.0.0-alpha3 by @fontawesome - https://fontawesome.com License - https://fontawesome.com/license (Commercial License) --><path d="M448 112C448 85.49 426.5 64 400 64H352V31.1C352 14.4 337.6 0 320 0C302.4 0 288 14.4 288 31.1V64H160V31.1C160 14.4 145.6 0 128 0S96 14.4 96 31.1V64H48C21.49 64 0 85.49 0 112V160h448V112zM432 224C352.4 224 288 288.4 288 368s64.38 144 144 144S576 447.6 576 368S511.6 224 432 224zM480 384h-54.25C420.4 384 416 379.6 416 374.3V304C416 295.2 423.2 288 432 288C440.8 288 448 295.2 448 304V352h32c8.838 0 16 7.162 16 16C496 376.8 488.8 384 480 384zM256 368C256 270.8 334.8 192 432 192H0v272C0 490.5 21.5 512 48 512h283C285.7 480.2 256 427.6 256 368z"/></svg>