<svg xmlns="http://www.w3.org/2000/svg" viewBox="0 0 448 512"><!--! Font Awesome Pro 6.0.0-alpha3 by @fontawesome - https://fontawesome.com License - https://fontawesome.com/license (Commercial License) --><path d="M.0002 464c0 26.5 21.5 48 48 48h352c26.5 0 48-21.5 48-48L448 192H0L.0002 464zM135.6 269.1c23.5-20.02 58.39-16.39 79.8 5.754l8.445 8.754l8.445-8.754c21.54-22.14 56.55-25.77 79.93-5.754c27.05 23.02 28.52 64.17 4.41 89.19l-82.99 85.56c-5.387 5.504-13.95 5.504-19.34 0l-82.98-85.56C107.2 333.3 108.7 292.1 135.6 269.1zM400 64H352V31.1C352 14.4 337.6 0 320 0C302.4 0 288 14.4 288 31.1V64H160V31.1C160 14.4 145.6 0 128 0S96 14.4 96 31.1V64H48c-26.51 0-48 21.49-48 48L0 160h448l.0002-48C448 85.49 426.5 64 400 64z"/></svg>