<svg xmlns="http://www.w3.org/2000/svg" viewBox="0 0 448 512"><!--! Font Awesome Pro 6.0.0-alpha3 by @fontawesome - https://fontawesome.com License - https://fontawesome.com/license (Commercial License) --><path d="M400 64H352V31.1C352 14.4 337.6 0 320 0s-32 14.4-32 31.1V64H160V31.1C160 14.4 145.6 0 128 0S96 14.4 96 31.1V64H48c-26.51 0-48 21.49-48 48L0 160h448l.0002-48C448 85.49 426.5 64 400 64zM.0002 464c0 26.5 21.5 48 48 48h352c26.5 0 48-21.5 48-48L448 192H0L.0002 464zM120 272h208C341.3 272 352 282.8 352 296S341.3 320 328 320h-208C106.8 320 96 309.3 96 296S106.8 272 120 272zM120 368h112c13.25 0 24 10.75 24 24S245.3 416 232 416h-112C106.8 416 96 405.3 96 392S106.8 368 120 368z"/></svg>