<svg xmlns="http://www.w3.org/2000/svg" viewBox="0 0 448 512"><!--! Font Awesome Pro 6.0.0-alpha3 by @fontawesome - https://fontawesome.com License - https://fontawesome.com/license (Commercial License) --><path d="M448 112V160H0V112C0 85.49 21.49 64 48 64H96V31.1C96 14.4 110.4 0 128 0s32 14.4 32 31.1V64h128V31.1C288 14.4 302.4 0 320 0s32 14.4 32 31.1V64h48C426.5 64 448 85.49 448 112zM0 192h448v272c0 26.5-21.5 48-48 48h-352C21.5 512 0 490.5 0 464V192zM135 376.1l48 48c4.5 4.5 10.62 7.031 16.97 7.031c.3125 0 .625 0 .9062-.0313c6.688-.25 12.97-3.281 17.31-8.344l96-112c8.625-10.06 7.469-25.22-2.594-33.84c-10.03-8.594-25.19-7.469-33.84 2.594l-79.13 92.34l-29.69-29.69c-9.375-9.375-24.56-9.375-33.94 0S125.7 367.6 135 376.1z"/></svg>