<svg xmlns="http://www.w3.org/2000/svg" viewBox="0 0 512 512"><!--! Font Awesome Pro 6.0.0-alpha3 by @fontawesome - https://fontawesome.com License - https://fontawesome.com/license (Commercial License) --><path d="M96 368c0 26.5 21.5 48 48 48h320c26.5 0 48-21.5 48-48l-.0001-176h-416L96 368zM464 64h-48l.0001-31.1c0-17.6-14.4-32-32-32s-31.1 14.4-31.1 32v32h-96V32c0-17.6-14.4-32-32-32s-31.1 14.4-31.1 32L192 64H144c-26.51 0-48 21.49-48 48L96 160h416l.0003-47.1C512 85.49 490.5 64 464 64zM392 512h-272C53.83 512 0 458.2 0 392v-208C0 170.8 10.75 160 24 160S48 170.8 48 184v208c0 39.7 32.3 72 72 72h272c13.25 0 24 10.75 24 24S405.3 512 392 512z"/></svg>