<svg xmlns="http://www.w3.org/2000/svg" viewBox="0 0 448 512"><!--! Font Awesome Pro 6.0.0-alpha3 by @fontawesome - https://fontawesome.com License - https://fontawesome.com/license (Commercial License) --><path d="M0 464C0 490.5 21.5 512 48 512h352c26.5 0 48-21.5 48-48V192H0V464zM183.8 375.4l53.5-80.26C240.3 290.7 245.3 288 250.7 288s10.35 2.672 13.31 7.125l85.33 128c3.273 4.91 3.578 11.22 .7949 16.43C347.3 444.8 341.9 448 336 448h-224c-6.021 0-11.53-3.379-14.26-8.75c-2.73-5.367-2.215-11.81 1.334-16.68l46.67-64C148.8 354.4 153.6 352 158.7 352s9.916 2.441 12.93 6.574L183.8 375.4zM128 256c17.62 0 32 14.38 32 32s-14.38 32-32 32S96 305.6 96 288S110.4 256 128 256zM400 64H352V31.1C352 14.4 337.6 0 320 0C302.4 0 288 14.4 288 31.1V64H160V31.1C160 14.4 145.6 0 128 0S96 14.4 96 31.1V64H48C21.49 64 0 85.49 0 112V160h448V112C448 85.49 426.5 64 400 64z"/></svg>