<svg xmlns="http://www.w3.org/2000/svg" viewBox="0 0 512 512"><!--! Font Awesome Pro 6.0.0-alpha3 by @fontawesome - https://fontawesome.com License - https://fontawesome.com/license (Commercial License) --><path d="M416 352V192c0-17.67-14.33-32-32-32h-52l-6.188-16.44C322.3 134.2 313.4 128 303.4 128H208.6c-10 0-19 6.188-22.5 15.56L180 160H128C110.3 160 96 174.3 96 192v160c0 17.67 14.33 32 32 32h256C401.7 384 416 369.7 416 352zM256 328c-30.92 0-56-25.08-56-56S225.1 216 256 216s56 25.08 56 56S286.9 328 256 328zM136 464H48v-88C48 362.7 37.25 352 24 352S0 362.7 0 376V480c0 17.67 14.33 32 32 32h104C149.3 512 160 501.3 160 488S149.3 464 136 464zM480 0h-104C362.7 0 352 10.75 352 23.1S362.7 48 376 48h88v88C464 149.3 474.7 160 488 160S512 149.3 512 136V32C512 14.33 497.7 0 480 0zM23.1 160C37.25 160 48 149.3 48 136V48h88C149.3 48 160 37.25 160 24S149.3 0 136 0H32C14.33 0 0 14.33 0 32v104C0 149.3 10.75 160 23.1 160zM488 352c-13.25 0-24 10.75-24 24v88h-88c-13.25 0-24 10.75-24 24S362.7 512 376 512H480c17.67 0 32-14.33 32-32v-104C512 362.7 501.3 352 488 352z"/></svg>