<svg xmlns="http://www.w3.org/2000/svg" viewBox="0 0 640 512"><!--! Font Awesome Pro 6.0.0-alpha3 by @fontawesome - https://fontawesome.com License - https://fontawesome.com/license (Commercial License) --><path d="M639.1 182.2c0-5.636-2.96-11.09-8.245-13.99l-300.2-165.3c-3.625-2-7.553-2.962-11.55-2.962S312.1 .9635 308.4 2.964L8.25 168.3C2.964 171.1 .0043 176.6 .0043 182.2c0 2.628 .6436 5.295 1.995 7.76L9.75 204c2.984 5.285 8.467 8.245 14.11 8.245c2.632 0 5.299-.6436 7.764-1.995l288.4-158.8l288.4 158.8c2.465 1.352 5.132 1.995 7.764 1.995c5.644 0 11.13-2.96 14.11-8.245l7.75-14C639.4 187.5 639.1 184.9 639.1 182.2zM510.5 293.6L483.8 213.3C473.2 181.5 443.4 160 409.8 160H230.2c-33.57 0-63.38 21.49-74 53.34L129.5 293.6C109.9 301 96 319.8 96 342V480c0 17.67 14.33 32 32 32h16c17.67 0 32-14.33 32-32v-33h288V480c0 17.67 14.33 32 32 32H512c17.67 0 32-14.33 32-32v-138C544 319.8 530.1 301 510.5 293.6zM216.9 233.6C218.8 227.8 224.2 224 230.2 224h179.6c6.035 0 11.37 3.846 13.28 9.57L441.2 288H198.8L216.9 233.6zM176 392c-13.25 0-24-10.75-24-24c0-13.26 10.75-24 24-24s24 10.74 24 24C200 381.3 189.3 392 176 392zM464 392c-13.25 0-24-10.75-24-24c0-13.26 10.75-24 24-24s24 10.74 24 24C488 381.3 477.3 392 464 392z"/></svg>