<svg xmlns="http://www.w3.org/2000/svg" viewBox="0 0 448 512"><!--! Font Awesome Pro 6.0.0-alpha3 by @fontawesome - https://fontawesome.com License - https://fontawesome.com/license (Commercial License) --><path d="M414.5 293.6L387.8 213.3C377.2 181.5 347.4 160 313.8 160H134.2c-33.57 0-63.38 21.49-74 53.34L33.48 293.6C13.94 301 0 319.8 0 342V480c0 17.67 14.33 32 32 32h16c17.67 0 32-14.33 32-32v-33h288V480c0 17.67 14.33 32 32 32H416c17.67 0 32-14.33 32-32v-138C448 319.8 434.1 301 414.5 293.6zM120.9 233.6C122.8 227.8 128.2 224 134.2 224h179.6c6.035 0 11.37 3.846 13.28 9.57L345.2 288H102.8L120.9 233.6zM80 392c-13.25 0-24-10.75-24-24c0-13.26 10.75-24 24-24s24 10.74 24 24C104 381.3 93.25 392 80 392zM368 392c-13.25 0-24-10.75-24-24c0-13.26 10.75-24 24-24s24 10.74 24 24C392 381.3 381.3 392 368 392zM384 127.1c24.31 0 44-19.09 44-42.59C428 61.75 384 0 384 0s-44 61.75-44 85.38C340 108.9 359.7 127.1 384 127.1zM224 127.1c24.31 0 44-19.1 44-42.6C268 61.75 224 .0062 224 .0062S180 61.75 180 85.38C180 108.9 199.7 127.1 224 127.1zM64 127.1c24.31 0 44-19.09 44-42.59C108 61.75 64 0 64 0S20 61.75 20 85.38C20 108.9 39.69 127.1 64 127.1z"/></svg>