<svg xmlns="http://www.w3.org/2000/svg" viewBox="0 0 640 512"><!--! Font Awesome Pro 6.0.0-alpha3 by @fontawesome - https://fontawesome.com License - https://fontawesome.com/license (Commercial License) --><path d="M220 272C213.4 272 208 266.6 208 260v-40C208 213.4 213.4 208 220 208h32.27l1.594-4.779C268.2 160.2 307.2 131 352 128.5V32c0-17.6-14.4-32-32-32H32C14.4 0 0 14.4 0 32v416c0 17.67 14.33 32 32 32h160v-137.1C192 313.1 206.6 287.3 230 272H220zM208 92C208 85.38 213.4 80 220 80h40C266.6 80 272 85.38 272 92v40C272 138.6 266.6 144 260 144h-40C213.4 144 208 138.6 208 132V92zM144 388c0 6.625-5.375 12-12 12h-40c-6.625 0-12-5.375-12-12v-40c0-6.625 5.375-12 12-12h40c6.625 0 12 5.375 12 12V388zM144 260C144 266.6 138.6 272 132 272h-40C85.38 272 80 266.6 80 260v-40C80 213.4 85.38 208 92 208h40C138.6 208 144 213.4 144 220V260zM144 132C144 138.6 138.6 144 132 144h-40C85.38 144 80 138.6 80 132v-40C80 85.38 85.38 80 92 80h40C138.6 80 144 85.38 144 92V132zM606.5 293.6L579.8 213.3C569.2 181.5 539.4 160 505.8 160h-147.6c-33.57 0-63.38 21.49-74 53.34L257.5 293.6C237.9 301 224 319.8 224 342V480c0 17.67 14.33 32 32 32h16c17.67 0 32-14.33 32-32v-33h256V480c0 17.67 14.33 32 32 32H608c17.67 0 32-14.33 32-32v-137.1C640 319.8 626.1 301 606.5 293.6zM344.9 233.6C346.8 227.8 352.2 224 358.2 224h147.6c6.035 0 11.37 3.846 13.28 9.57L537.2 288h-210.4L344.9 233.6zM304 392c-13.25 0-24-10.75-24-24c0-13.26 10.75-24 24-24s24 10.74 24 24C328 381.3 317.3 392 304 392zM560 392c-13.25 0-24-10.75-24-24c0-13.26 10.75-24 24-24s24 10.74 24 24C584 381.3 573.3 392 560 392z"/></svg>