<svg xmlns="http://www.w3.org/2000/svg" viewBox="0 0 512 512"><!--! Font Awesome Pro 6.0.0-alpha3 by @fontawesome - https://fontawesome.com License - https://fontawesome.com/license (Commercial License) --><path d="M505.9 111.1H447.8l-21.37-31.1l21.37-31.1h58.14c4.619 0 7.619-5.046 5.246-9.001C497.2 15.66 471.7 0 442.4 0c-32.79 0-60.59 19.86-73.01 48H142.8C131.9 23.19 108.6 4.574 80.9 .7793c-33.87-4.641-64.28 11.89-80.05 38.19c-2.381 3.967 .6094 9.034 5.24 9.034H64.22l21.37 31.1L64.22 112H6.078c-4.619 0-7.619 5.047-5.246 9.002C14.82 144.3 40.33 160 69.57 160c32.79 0 60.59-19.86 73.01-47.1h226.6c10.97 24.81 34.23 43.43 61.94 47.22c33.87 4.641 64.28-11.89 80.05-38.19C513.5 117.1 510.5 111.1 505.9 111.1zM430.5 293.6L403.8 213.3C393.2 181.5 363.4 160 329.8 160H182.2c-33.57 0-63.38 21.49-74 53.34L81.48 293.6C61.94 301 48 319.8 48 342V480c0 17.67 14.33 32 32 32H96c17.67 0 32-14.33 32-32v-33h256V480c0 17.67 14.33 32 32 32h16c17.67 0 32-14.33 32-32v-138C464 319.8 450.1 301 430.5 293.6zM168.9 233.6C170.8 227.8 176.2 224 182.2 224h147.6c6.035 0 11.37 3.846 13.28 9.57L361.2 288H150.8L168.9 233.6zM128 392c-13.25 0-24-10.75-24-24c0-13.26 10.75-24 24-24s24 10.74 24 24C152 381.3 141.3 392 128 392zM384 392c-13.25 0-24-10.75-24-24c0-13.26 10.75-24 24-24s24 10.74 24 24C408 381.3 397.3 392 384 392z"/></svg>