<svg xmlns="http://www.w3.org/2000/svg" viewBox="0 0 640 512"><!--! Font Awesome Pro 6.0.0-alpha3 by @fontawesome - https://fontawesome.com License - https://fontawesome.com/license (Commercial License) --><path d="M257.8 114.9l16.37-18.88l14.6-25.62c3.236-5.682-2.096-12.42-8.305-10.51L204.6 83.3C200.1 84.4 197.2 82.55 195.8 79.04L166.7 4.57c-2.385-6.094-10.94-6.094-13.32 0L124.2 79.04C122.8 82.55 119 84.4 115.4 83.3L39.53 59.85C33.32 57.93 27.99 64.67 31.23 70.36L70.78 139.8C72.64 143 71.7 147.2 68.62 149.3l-65.5 45.24C-2.238 198.3-.3359 206.7 6.084 207.7L84.55 219.8C88.25 220.3 90.89 223.7 90.62 227.4L84.84 307.3c-.4727 6.533 7.23 10.28 12 5.828l54.29-50.6l39.1-94.4C202.1 139.5 227.8 119.6 257.8 114.9zM622.3 290.3l6.492-91.28c2.576-36.24-18.33-70.07-51.9-83.97l-147.5-61.11c-33.57-13.9-72.27-4.768-96.08 22.68L273.3 145.8C250.7 145.2 228.1 158.2 219.8 180.3L162.6 318.3c-7.318 17.67 1.074 37.93 18.74 45.25l15.1 6.625c17.67 7.318 37.93-1.072 45.25-18.74l13.67-32.99l255.1 106l-13.67 32.99c-7.318 17.67 1.072 37.93 18.74 45.25l15.1 6.627c17.67 7.318 37.93-1.074 45.25-18.74l57.15-137.1C644.9 330.5 638.8 305.9 622.3 290.3zM313 249.4c-5.488 13.25-20.68 19.54-33.94 14.06c-13.25-5.49-19.54-20.68-14.06-33.94c5.49-13.25 20.68-19.55 33.94-14.06C312.2 220.1 318.5 236.2 313 249.4zM344.9 168.9l40.67-46.9c4.283-4.938 11.21-6.572 17.25-4.074l147.5 61.12c6.035 2.5 9.777 8.555 9.312 15.07l-4.404 61.93L344.9 168.9zM568.1 355.4c-5.49 13.25-20.68 19.54-33.94 14.06c-13.25-5.49-19.55-20.69-14.06-33.94c5.49-13.25 20.68-19.55 33.94-14.06C568.2 326.1 574.5 342.2 568.1 355.4z"/></svg>