<svg xmlns="http://www.w3.org/2000/svg" viewBox="0 0 640 512"><!--! Font Awesome Pro 6.0.0-alpha3 by @fontawesome - https://fontawesome.com License - https://fontawesome.com/license (Commercial License) --><path d="M592 448h-73.18l52.69-127.2c9.656-23.31 3.186-49.14-14.1-65.51l6.824-95.96c2.71-38.11-19.27-73.68-54.57-88.3l-155.1-64.25C319.2-7.861 278.6 1.745 253.5 30.61L190.5 103.3C166.7 102.6 143.8 116.3 134.2 139.6l-67.93 163.1c-6.252 15.09 .9165 32.4 16.01 38.65l27.33 11.32c15.1 6.252 32.4-.9173 38.66-16.01l16.98-40.1l273.3 113.2L422.8 448H47.1C21.49 448 0 469.5 0 495.1C0 504.8 7.163 512 16 512h608c8.837 0 16-7.163 16-16C640 469.5 618.5 448 592 448zM232.2 212.3C225.9 227.4 208.6 234.5 193.5 228.3C178.4 222 171.3 204.7 177.5 189.6c6.254-15.1 23.56-22.26 38.65-16.01C231.3 179.9 238.5 197.2 232.2 212.3zM250.9 123.9L298.2 69.37c8.354-9.637 21.89-12.83 33.67-7.947l155.1 64.25C498.8 130.6 506.1 142.4 505.2 155.1l-5.119 72.05L250.9 123.9zM505.5 325.5c-6.252 15.09-23.56 22.26-38.65 16.01c-15.09-6.254-22.26-23.56-16.01-38.65c6.254-15.1 23.56-22.26 38.65-16.01S511.8 310.4 505.5 325.5z"/></svg>