<svg xmlns="http://www.w3.org/2000/svg" viewBox="0 0 512 512"><!--! Font Awesome Pro 6.0.0-alpha3 by @fontawesome - https://fontawesome.com License - https://fontawesome.com/license (Commercial License) --><path d="M470.8 196.4l-32.91-98.73C424.8 58.44 388.1 32 346.8 32h-181.6C123.9 32 87.19 58.44 74.12 97.64L41.21 196.4C17.16 205.6 0 228.7 0 256v192c0 17.67 14.33 32 32 32h32c17.67 0 32-14.33 32-32v-48h320V448c0 17.67 14.33 32 32 32h32c17.67 0 32-14.33 32-32V256C512 228.7 494.8 205.6 470.8 196.4zM134.8 117.9C139.2 104.8 151.4 96 165.2 96h181.6c13.8 0 26 8.793 30.36 21.88L401.9 192H110.1L134.8 117.9zM96 320c-17.67 0-32-14.33-32-32c0-17.67 14.33-32 32-32s32 14.33 32 32C128 305.7 113.7 320 96 320zM384 288c0-17.67 14.33-32 32-32s32 14.33 32 32c0 17.67-14.33 32-32 32S384 305.7 384 288z"/></svg>