<svg xmlns="http://www.w3.org/2000/svg" viewBox="0 0 640 512"><!--! Font Awesome Pro 6.0.0-alpha3 by @fontawesome - https://fontawesome.com License - https://fontawesome.com/license (Commercial License) --><path d="M624 352H576V192c0-88.38-71.63-160-160-160H64C28.62 32 0 60.62 0 96v256c0 35.38 28.62 64 64 64h32c0 53 43 96 96 96s96-43 96-96h336c8.875 0 16-7.125 16-16v-32C640 359.1 632.9 352 624 352zM192 464c-26.5 0-48-21.5-48-48s21.5-48 48-48s48 21.5 48 48S218.5 464 192 464zM256 224c0 17.62-14.38 32-32 32H96C78.38 256 64 241.6 64 224V160c0-17.62 14.38-32 32-32h128c17.62 0 32 14.38 32 32V224zM448 224c0 17.62-14.38 32-32 32h-64c-17.62 0-32-14.38-32-32V160c0-17.62 14.38-32 32-32h64c17.62 0 32 14.38 32 32V224z"/></svg>