<svg xmlns="http://www.w3.org/2000/svg" viewBox="0 0 640 512"><!--! Font Awesome Pro 6.0.0-alpha3 by @fontawesome - https://fontawesome.com License - https://fontawesome.com/license (Commercial License) --><path d="M606.5 293.6L579.8 213.3C569.2 181.5 539.4 160 505.8 160h-147.6c-33.57 0-63.38 21.49-74 53.34L257.5 293.6C237.9 301 224 319.8 224 342V480c0 17.67 14.33 32 32 32h16c17.67 0 32-14.33 32-32v-33h256V480c0 17.67 14.33 32 32 32H608c17.67 0 32-14.33 32-32v-138C640 319.8 626.1 301 606.5 293.6zM344.9 233.6C346.8 227.8 352.2 224 358.2 224h147.6c6.035 0 11.37 3.846 13.28 9.57L537.2 288h-210.4L344.9 233.6zM304 392c-13.25 0-24-10.75-24-24c0-13.26 10.75-24 24-24s24 10.74 24 24C328 381.3 317.3 392 304 392zM560 392c-13.25 0-24-10.75-24-24c0-13.26 10.75-24 24-24s24 10.74 24 24C584 381.3 573.3 392 560 392zM253.9 203.2C268.9 158.2 310.8 128 358.2 128h22.45l-24.88-74.67C345.2 21.48 315.4 0 281.8 0H134.2c-33.57 0-63.38 21.49-74 53.34L33.48 133.6C13.94 141 0 159.8 0 182V320c0 17.67 14.33 32 32 32h16c17.67 0 32-14.33 32-32V287h132.9c5.334-6.074 11.3-11.62 18.34-15.1L253.9 203.2zM80 232c-13.25 0-24-10.75-24-24c0-13.26 10.75-24 24-24S104 194.7 104 208C104 221.3 93.25 232 80 232zM102.8 128l18.14-54.42C122.8 67.85 128.2 64 134.2 64h147.6c6.035 0 11.37 3.846 13.28 9.57L313.2 128H102.8z"/></svg>