<svg xmlns="http://www.w3.org/2000/svg" viewBox="0 0 640 512"><!--! Font Awesome Pro 6.0.0-alpha3 by @fontawesome - https://fontawesome.com License - https://fontawesome.com/license (Commercial License) --><path d="M239.1 416c-26.51 0-47.1 21.49-47.1 48S213.5 512 239.1 512s47.1-21.49 47.1-48S266.5 416 239.1 416zM527.1 416c-26.51 0-47.1 21.49-47.1 48s21.49 48 47.1 48s48-21.49 48-48S554.5 416 527.1 416zM633.5 44.73C627.4 36.64 618.1 32 607.1 32H185.1L183.6 19.51C181.4 8.189 171.5 0 160 0H87.1C74.75 0 64 10.75 64 23.1S74.75 48 87.1 48h52.14l60.28 316.5C202.6 375.8 212.5 384 224 384H552c13.25 0 24-10.75 24-23.1C576 346.7 565.3 336 552 336H243.9L234.7 288h318.4c14.28 0 26.84-9.474 30.76-23.21l54.86-191.1C641.5 63.05 639.6 52.83 633.5 44.73zM24 144h80C117.3 144 128 133.3 128 120C128 106.7 117.3 96 104 96h-80C10.75 96 0 106.7 0 120C0 133.3 10.75 144 24 144zM24 224h96C133.3 224 144 213.3 144 200c0-13.26-10.74-24-24-24h-96C10.75 176 0 186.7 0 200C0 213.3 10.75 224 24 224zM136 256h-112C10.75 256 0 266.7 0 280C0 293.3 10.75 304 24 304h112C149.3 304 160 293.3 160 280C160 266.7 149.3 256 136 256z"/></svg>