<svg xmlns="http://www.w3.org/2000/svg" viewBox="0 0 576 512"><!--! Font Awesome Pro 6.0.0-alpha3 by @fontawesome - https://fontawesome.com License - https://fontawesome.com/license (Commercial License) --><path d="M176 416c-26.51 0-47.1 21.49-47.1 48S149.5 512 176 512s47.1-21.49 47.1-48S202.5 416 176 416zM569.5 44.73C563.4 36.64 554.1 32 543.1 32H121.1L119.6 19.51C117.4 8.191 107.5 0 96 0H23.1C10.75 0 0 10.74 0 23.1C0 37.25 10.75 48 23.1 48h52.14l60.28 316.5C138.6 375.8 148.5 384 160 384H488c13.26 0 24-10.75 24-24c0-13.26-10.74-24-24-24H179.9L170.7 288h318.4c14.29 0 26.84-9.471 30.77-23.21l54.86-191.1C577.5 63.05 575.6 52.83 569.5 44.73zM392.6 216.6c-8 8-21.09 8.001-29.09 .0009l-27.48-27.48l-27.47 27.47c-8.002 8.002-21.09 8.002-29.09 0s-8.002-21.09 0-29.09l27.47-27.47L279.4 132.5c-8-8-7.999-21.09 .0009-29.09c7.998-7.998 21.09-7.998 29.09 0l27.48 27.48l27.47-27.47c8-8 21.09-7.999 29.09 .0009s8.002 21.09 .0016 29.09l-27.47 27.47l27.48 27.48C400.6 195.5 400.6 208.6 392.6 216.6zM463.1 416c-26.51 0-47.1 21.49-47.1 48s21.49 48 47.1 48s47.1-21.49 47.1-48S490.5 416 463.1 416z"/></svg>