<svg xmlns="http://www.w3.org/2000/svg" viewBox="0 0 640 512"><!--! Font Awesome Pro 6.0.0-alpha3 by @fontawesome - https://fontawesome.com License - https://fontawesome.com/license (Commercial License) --><path d="M640 176v304c0 17.67-14.33 32-32 32h-224v-128c0-35.35-28.65-64-64-64s-64 28.65-64 64v128H32c-17.67 0-32-14.33-32-32v-304c0-8.838 7.164-16 16-16L64 160c8.836 0 16 7.169 16 16.01v48L128 224V16.01c0-8.838 7.164-16 16-16H192c8.836 0 16 7.162 16 16v48l32-.0048v-47.1c0-8.838 7.164-16 16-16h32c8.836 0 16 7.162 16 16v48h32V16.01c0-8.838 7.164-16 16-16h32c8.836 0 16 7.162 16 16v47.1l32 .0048V16.01c0-8.838 7.164-16 16-16h48c8.836 0 16 7.162 16 16v207.1l48 .0087v-48c0-8.838 7.164-16.01 16-16.01l48 .0073C632.8 160 640 167.2 640 176z"/></svg>