<svg xmlns="http://www.w3.org/2000/svg" viewBox="0 0 448 512"><!--! Font Awesome Pro 6.0.0-alpha3 by @fontawesome - https://fontawesome.com License - https://fontawesome.com/license (Commercial License) --><path d="M448 212v-40C448 165.4 441.8 160 433.1 160H13.1C6.25 160 0 165.4 0 172v40C0 218.6 6.25 224 13.1 224h19.75C12.38 262.5 0 305.2 0 345.6c0 39 11.88 70.62 32 95.5V488C32 501.2 42.75 512 56 512s24-10.75 24-24v-7.5C119 501.8 169.1 512 224 512s105-10.25 144-31.5V488c0 13.25 10.75 24 24 24S416 501.2 416 488v-46.88c20.12-24.88 32-56.5 32-95.5C448 305.2 435.6 262.5 414.3 224h19.75C441.8 224 448 218.6 448 212zM160 64c17.62 0 32-14.38 32-32S177.6 0 160 0S128 14.38 128 32S142.4 64 160 64zM272 128C298.5 128 320 106.5 320 80S298.5 32 272 32S224 53.5 224 80S245.5 128 272 128z"/></svg>