<svg xmlns="http://www.w3.org/2000/svg" viewBox="0 0 512 512"><!--! Font Awesome Pro 6.0.0-alpha3 by @fontawesome - https://fontawesome.com License - https://fontawesome.com/license (Commercial License) --><path d="M480 416H64V63.1C64 46.33 49.67 32 32 32S0 46.33 0 63.1V448c0 17.6 14.4 32 32 32h448C497.7 480 512 465.7 512 448S497.7 416 480 416zM111.1 304C124.5 316.5 144.8 316.5 157.2 304L208 253.3l73.38 73.38C287.6 332.9 295.8 336 304 336s16.38-3.125 22.62-9.375l84.69-84.69l41.38 41.38C463.4 294 480 285.3 480 272v-128C480 135.2 472.8 128 464 128h-127.1c-14.25 0-21.39 17.23-11.31 27.31l41.38 41.38L304 258.8L230.6 185.4c-12.5-12.5-32.75-12.5-45.25 0L111.1 258.8C99.5 271.2 99.5 291.5 111.1 304z"/></svg>