<svg xmlns="http://www.w3.org/2000/svg" viewBox="0 0 640 512"><!--! Font Awesome Pro 6.0.0-alpha3 by @fontawesome - https://fontawesome.com License - https://fontawesome.com/license (Commercial License) --><path d="M119.1 272C107.1 252.1 87.55 240 64 240c-35.25 0-64 28.75-64 64s28.75 64 64 64c23.55 0 43.96-12.97 55.08-32h60.15C177.1 325.7 176 314.1 176 304s1.127-21.66 3.229-32H119.1zM576 192c35.25 0 64-28.75 64-64s-28.75-64-64-64s-64 28.75-64 64S540.8 192 576 192zM576 384c-11.19 0-21.66 3.094-30.78 8.213l-86.1-52.2C461.6 328.5 464 316.6 464 304c0-16.77-3.436-32.68-9.301-47.36l67.3-49.36c-17.94-12.26-31.13-30.59-37.53-51.86l-67.96 49.84C394.5 187.3 366.7 176 336 176c-7.988 0-15.74 .9492-23.32 2.352L276.3 100.3C283.5 89.98 288 77.54 288 64c0-35.25-28.75-64-64-64S160 28.75 160 64c0 33.29 25.73 60.47 58.28 63.42l36.57 78.36C226.5 229.3 208 264.3 208 304c0 70.67 57.33 128 128 128c34.97 0 66.61-14.11 89.71-36.85l86.39 51.83C512.1 447.3 512 447.7 512 448c0 35.25 28.75 64 64 64S640 483.3 640 448S611.3 384 576 384zM336 352C309.5 352 288 330.5 288 304S309.5 256 336 256S384 277.5 384 304S362.5 352 336 352z"/></svg>