<svg xmlns="http://www.w3.org/2000/svg" viewBox="0 0 576 512"><!--! Font Awesome Pro 6.0.0-alpha3 by @fontawesome - https://fontawesome.com License - https://fontawesome.com/license (Commercial License) --><path d="M510.6 92.63C516 94.75 521.9 96 528 96C554.5 96 576 74.5 576 48S554.5 0 528 0S480 21.5 480 48c0 2.375 .375 4.75 .75 7.125l-95.38 76.25C380 129.2 374.1 128 368 128s-12 1.25-17.38 3.375L255.3 55.12C255.6 52.75 256 50.38 256 48C256 21.5 234.5 0 208 0S160 21.5 160 48c0 4.25 .75 8.375 1.75 12.25l-101.5 101.5C56.38 160.8 52.25 160 48 160C21.5 160 0 181.5 0 208S21.5 256 48 256S96 234.5 96 208c0-4.25-.75-8.375-1.75-12.25l101.5-101.5C199.6 95.25 203.8 96 208 96c6.125 0 11.1-1.25 17.38-3.375l95.38 76.25C320.4 171.2 320 173.6 320 176C320 202.5 341.5 224 368 224S416 202.5 416 176c0-2.375-.375-4.75-.75-7.125L510.6 92.63zM384 320h-32c-17.67 0-32 14.33-32 32v128c0 17.67 14.33 32 32 32h32c17.67 0 32-14.33 32-32v-128C416 334.3 401.7 320 384 320zM544 192h-32c-17.67 0-32 14.33-32 32v256c0 17.67 14.33 32 32 32h32c17.67 0 32-14.33 32-32V224C576 206.3 561.7 192 544 192zM224 192H192C174.3 192 160 206.3 160 224v256c0 17.67 14.33 32 32 32h32c17.67 0 32-14.33 32-32V224C256 206.3 241.7 192 224 192zM64 352H32c-17.67 0-32 14.33-32 32v96c0 17.67 14.33 32 32 32h32c17.67 0 32-14.33 32-32v-96C96 366.3 81.67 352 64 352z"/></svg>