<svg xmlns="http://www.w3.org/2000/svg" viewBox="0 0 512 512"><!--! Font Awesome Pro 6.0.0-alpha3 by @fontawesome - https://fontawesome.com License - https://fontawesome.com/license (Commercial License) --><path d="M128 192c17.62 0 32-14.38 32-32S145.6 128 128 128S96 142.4 96 160S110.4 192 128 192zM384 96c17.62 0 32-14.38 32-32s-14.38-32-32-32s-32 14.38-32 32S366.4 96 384 96zM384 288c17.62 0 32-14.38 32-32s-14.38-32-32-32s-32 14.38-32 32S366.4 288 384 288zM32 96c17.62 0 32-14.38 32-32S49.63 32 32 32S0 46.38 0 64S14.38 96 32 96zM480 128c-17.62 0-32 14.38-32 32s14.38 32 32 32s32-14.38 32-32S497.6 128 480 128zM256 416c-17.62 0-32 14.38-32 32s14.38 32 32 32s32-14.38 32-32S273.6 416 256 416zM64 256c0-17.62-14.38-32-32-32S0 238.4 0 256s14.38 32 32 32S64 273.6 64 256zM288 273V64c0-17.67-14.31-32-32-32S224 46.33 224 64v209l-180.5 150.4c-13.56 11.31-15.41 31.48-4.094 45.06c11.31 13.56 31.44 15.41 45.09 4.094L256 329.7l171.5 142.9C433.5 477.6 440.8 480 447.1 480c9.188 0 18.28-3.922 24.62-11.52c11.31-13.58 9.469-33.75-4.094-45.06L288 273z"/></svg>