<svg xmlns="http://www.w3.org/2000/svg" viewBox="0 0 512 512"><!--! Font Awesome Pro 6.0.0-alpha3 by @fontawesome - https://fontawesome.com License - https://fontawesome.com/license (Commercial License) --><path d="M288 288c17.62 0 32-14.38 32-32s-14.38-32-32-32s-32 14.38-32 32S270.4 288 288 288zM384 352c17.62 0 32-14.38 32-32s-14.38-32-32-32s-32 14.38-32 32S366.4 352 384 352zM416 160c17.62 0 32-14.38 32-32s-14.38-32-32-32s-32 14.38-32 32S398.4 160 416 160zM160 352c17.62 0 32-14.38 32-32S177.6 288 160 288s-32 14.38-32 32S142.4 352 160 352zM192 192c17.62 0 32-14.38 32-32S209.6 128 192 128S160 142.4 160 160S174.4 192 192 192zM480 416H64V63.1C64 46.33 49.67 32 32 32S0 46.33 0 63.1V448c0 17.6 14.4 32 32 32h448C497.7 480 512 465.7 512 448S497.7 416 480 416z"/></svg>