<svg xmlns="http://www.w3.org/2000/svg" viewBox="0 0 512 512"><!--! Font Awesome Pro 6.0.0-alpha3 by @fontawesome - https://fontawesome.com License - https://fontawesome.com/license (Commercial License) --><path d="M352 352c35.25 0 64-28.75 64-64s-28.75-64-64-64s-64 28.75-64 64S316.8 352 352 352zM384 192c35.25 0 64-28.75 64-64s-28.75-64-64-64s-64 28.75-64 64S348.8 192 384 192zM176 352C202.4 352 224 330.4 224 304S202.4 256 176 256S128 277.6 128 304S149.6 352 176 352zM480 416H64V63.1C64 46.33 49.67 32 32 32S0 46.33 0 63.1V448c0 17.6 14.4 32 32 32h448C497.7 480 512 465.7 512 448S497.7 416 480 416zM240 224C266.4 224 288 202.4 288 176S266.4 128 240 128S192 149.6 192 176S213.6 224 240 224z"/></svg>