<svg xmlns="http://www.w3.org/2000/svg" viewBox="0 0 512 512"><!--! Font Awesome Pro 6.0.0-alpha3 by @fontawesome - https://fontawesome.com License - https://fontawesome.com/license (Commercial License) --><path d="M0 320v96c0 17.6 14.4 32 32 32h192V288H32C14.4 288 0 302.4 0 320zM32 224h96V64H32C14.4 64 0 78.4 0 96v96C0 209.6 14.4 224 32 224zM480 64h-192c0-8.838-7.164-16-16-16S256 55.16 256 64H160v48h96v64H160V224h96c0 8.836 7.164 16 16 16S288 232.8 288 224h192c17.6 0 32-14.4 32-32V96C512 78.4 497.6 64 480 64zM464 176H288v-64h176V176zM480 288h-96c0-8.838-7.164-16-16-16S352 279.2 352 288h-96v48h96v64h-96V448h96c0 8.836 7.164 16 16 16S384 456.8 384 448h96c17.6 0 32-14.4 32-32v-96C512 302.4 497.6 288 480 288zM464 400H384v-64h80V400z"/></svg>