<svg xmlns="http://www.w3.org/2000/svg" viewBox="0 0 512 512"><!--! Font Awesome Pro 6.0.0-alpha3 by @fontawesome - https://fontawesome.com License - https://fontawesome.com/license (Commercial License) --><path d="M480 416H64V63.1C64 46.33 49.67 32 32 32S0 46.33 0 63.1V448c0 17.6 14.4 32 32 32h448C497.7 480 512 465.7 512 448S497.7 416 480 416zM111.1 143.1C99.5 156.5 99.5 176.8 111.1 189.2l73.38 73.38c12.5 12.5 32.75 12.5 45.25 0L304 189.3l62.06 62.06l-41.38 41.38C314.6 302.8 321.7 320 336 320H464c8.837 0 16-7.163 16-16v-128c0-13.32-16.61-22.02-27.31-11.31l-41.38 41.38l-84.69-84.69C320.4 115.1 312.2 112 304 112s-16.38 3.125-22.62 9.375L208 194.8l-50.75-50.75C144.8 131.5 124.5 131.5 111.1 143.1z"/></svg>