<svg xmlns="http://www.w3.org/2000/svg" viewBox="0 0 640 512"><!--! Font Awesome Pro 6.0.0-alpha3 by @fontawesome - https://fontawesome.com License - https://fontawesome.com/license (Commercial License) --><path d="M600 128h-112.3l.0833-48h40.1c8.875 0 16-7.125 16-16l.0208-16c0-8.875-7.125-16-16-16h-127.1c-8.875 0-16 7.125-16 16L383.9 64c0 8.875 7.125 16 16 16h39.9L439.8 128H255.9l.0208-16c0-8.875-7.125-16-16-16h-128c-8.75 0-16 7.125-16 16L95.94 128H40C17.88 128.1 0 146 0 168.1V440C0 462.1 17.88 480 40 480h560c22.12 0 40-17.88 40-40V168.1C640 146 622.1 128.1 600 128zM175.9 416c-61.75 0-112-50.13-112-112C64.06 242.1 114.1 192 176 192c61.88 .125 112.1 50.19 111.9 112.1C287.9 365.9 237.8 416 175.9 416zM463.9 416c-61.88 0-112.1-50.13-112-112c0-61.88 50.12-112 112-112c61.88 .125 112 50.19 112 112.1C575.8 365.9 525.7 416 463.9 416zM231.1 243c-2.25-2.25-5.375-3.5-8.5-3.5c-3.25 0-6.25 1.25-8.5 3.5L163.2 293.9c-2.25 2.25-3.5 5.375-3.5 8.5c0 3.25 1.25 6.25 3.5 8.5L168.9 316.5c2.25 2.25 5.375 3.625 8.5 3.625c3.25 0 6.25-1.375 8.5-3.625L236.8 265.6c2.25-2.25 3.5-5.25 3.5-8.5c0-3.125-1.25-6.25-3.5-8.5L231.1 243zM467.9 224.1h-8c-6.625 0-12 5.375-12 12v72c0 6.625 5.375 12 12 12h8c6.625 0 12-5.375 12-12v-72c0-3.125-1.25-6.25-3.625-8.5C473.1 225.4 471 224.1 467.9 224.1z"/></svg>