<svg xmlns="http://www.w3.org/2000/svg" viewBox="0 0 448 512"><!--! Font Awesome Pro 6.0.0-alpha3 by @fontawesome - https://fontawesome.com License - https://fontawesome.com/license (Commercial License) --><path d="M367.1 448H79.97c-26.51 0-48.01 21.49-48.01 47.1C31.96 504.8 39.13 512 47.96 512h352c8.837 0 16-7.163 16-16C415.1 469.5 394.5 448 367.1 448zM415.1 160h-160V112h40.01c4.375 0 8.001-3.625 8.001-8v-48c0-4.375-3.626-8-8.001-8h-40.01V8c0-4.375-3.626-8-8.001-8H199.1C195.6 0 191.1 3.625 191.1 8V48h-40.01c-4.375 0-8.001 3.625-8.001 8v48c0 4.375 3.626 8 8.001 8h40.01V160h-160c-10.12 0-19.75 4.875-25.75 13C.1881 181.2-1.563 191.9 1.437 201.5L74.45 416h299l73.01-214.5c3-9.625 1.249-20.25-4.751-28.5C435.7 164.9 426.1 160 415.1 160z"/></svg>