<svg xmlns="http://www.w3.org/2000/svg" viewBox="0 0 512 512"><!--! Font Awesome Pro 6.0.0-alpha3 by @fontawesome - https://fontawesome.com License - https://fontawesome.com/license (Commercial License) --><path d="M256 112c30.88 0 56-25.12 56-56S286.9 0 256 0S199.1 25.12 199.1 56S225.1 112 256 112zM399.1 448H111.1c-26.51 0-48 21.49-48 47.1C63.98 504.8 71.15 512 79.98 512h352c8.837 0 16-7.163 16-16C447.1 469.5 426.5 448 399.1 448zM504.9 184.1L476.4 168.2c-7.5-5-16.88-2.5-22.25 4.625c-11 14.62-29.38 21.75-47.25 18.25c-23.12-4.25-38.88-26.25-38.88-49.75C367.1 134 361.1 128 354.6 128h-38.75c-6 0-11.63 4-12.88 9.875C298.2 160.1 278.7 176 255.1 176c-22.75 0-42.25-15.88-47-38.12C207.7 132 202.2 128 196.1 128h-38.75C149.1 128 143.1 134 143.1 141.4c0 25.75-19 48.75-44.63 50.5C83.1 193 67.47 185.8 57.72 172.8C52.47 165.6 42.97 163.2 35.72 168.2l-28.63 16c-6.75 4.375-9 13.25-5.375 20.38L104.2 416h303.5l102.5-211.4C513.9 197.4 511.6 188.6 504.9 184.1z"/></svg>