<svg xmlns="http://www.w3.org/2000/svg" viewBox="0 0 576 512"><!--! Font Awesome Pro 6.0.0-alpha3 by @fontawesome - https://fontawesome.com License - https://fontawesome.com/license (Commercial License) --><path d="M288 0C146.6 0 32 114.6 32 256c0 141.4 114.6 256 256 256s256-114.6 256-256C544 114.6 429.4 0 288 0zM390.2 182.7l-84 196C302.7 386.8 294.8 392 285.1 392c-1.437 0-2.922-.125-4.375-.4062C271.4 389.5 264 380.4 264 370V280H173.1c-10.41 0-19.45-7.406-21.55-17.59c-2.094-10.16 3.328-20.53 12.89-24.62l196-84c8.453-3.5 17.95-1.656 24.23 4.688C391.1 164.8 393.8 174.3 390.2 182.7z"/></svg>