<svg xmlns="http://www.w3.org/2000/svg" viewBox="0 0 512 512"><!--! Font Awesome Pro 6.0.0-alpha3 by @fontawesome - https://fontawesome.com License - https://fontawesome.com/license (Commercial License) --><path d="M256 0C114.6 0 0 114.6 0 256s114.6 256 256 256s256-114.6 256-256S397.4 0 256 0zM384 356.6C384 371.7 371.7 384 356.6 384H155.4C140.3 384 128 371.7 128 356.6V224h256V356.6zM384 192H128V155.4C128 140.3 140.3 128 155.4 128H192V111.1C192 103.2 199.2 96 208 96S224 103.2 224 111.1V128h64V111.1C288 103.2 295.2 96 304 96S320 103.2 320 111.1V128h36.57C371.7 128 384 140.3 384 155.4V192z"/></svg>