<svg xmlns="http://www.w3.org/2000/svg" viewBox="0 0 512 512"><!--! Font Awesome Pro 6.0.0-alpha3 by @fontawesome - https://fontawesome.com License - https://fontawesome.com/license (Commercial License) --><path d="M272 128h-64c-17.6 0-32 14.4-32 32v192C176 369.6 190.4 384 207.1 384S240 369.6 240 352V320l28.02 0c46.43 0 89.15-31.21 98.09-76.77C378.1 181.1 331.2 128 272 128zM272 256h-32V192h32c17.62 0 32 14.38 32 32S289.6 256 272 256zM256 0C114.6 0 0 114.6 0 256s114.6 256 256 256s256-114.6 256-256S397.4 0 256 0zM256 448c-105.9 0-192-86.13-192-192s86.13-192 192-192s192 86.13 192 192S361.9 448 256 448z"/></svg>