<svg xmlns="http://www.w3.org/2000/svg" viewBox="0 0 512 512"><!--! Font Awesome Pro 6.0.0-alpha3 by @fontawesome - https://fontawesome.com License - https://fontawesome.com/license (Commercial License) --><path d="M255.1 0c-141.4 0-256 114.6-256 256c0 141.4 114.6 256 256 256s255.1-114.6 255.1-256C511.1 114.6 397.4 0 255.1 0zM339.2 334.4C334.5 340.7 327.3 344 319.1 344c-5.016 0-10.06-1.562-14.39-4.812l-64-48C235.6 286.7 232 279.6 232 272V152C232 138.8 242.8 128 256 128s24 10.75 24 24v108l54.41 40.81C345 308.8 347.2 323.8 339.2 334.4z"/></svg>