<svg xmlns="http://www.w3.org/2000/svg" viewBox="0 0 448 512"><!--! Font Awesome Pro 6.0.0-alpha3 by @fontawesome - https://fontawesome.com License - https://fontawesome.com/license (Commercial License) --><path d="M224 448c123.7 0 224-100.3 224-224c0-123.7-100.3-224-224-224C100.3 0 0 100.3 0 224C0 347.7 100.3 448 224 448zM200 120c0-13.25 10.75-24 23.1-24s24 10.75 24 24v108l54.41 40.81c10.59 7.938 12.75 22.97 4.793 33.59C302.5 308.7 295.3 312 287.1 312c-5.016 0-10.06-1.562-14.39-4.812l-64-48C203.6 254.7 200 247.6 200 240V120zM224 480c-96.44 0-180.4-53.38-224-132.2V464C0 490.5 21.49 512 48 512h352c26.51 0 48-21.49 48-48v-116.2C404.4 426.6 320.4 480 224 480z"/></svg>