<svg xmlns="http://www.w3.org/2000/svg" viewBox="0 0 512 512"><!--! Font Awesome Pro 6.0.0-alpha3 by @fontawesome - https://fontawesome.com License - https://fontawesome.com/license (Commercial License) --><path d="M320 96c0-4.75-2.109-9.25-5.75-12.28l-96-80C213.5-.3125 206.8-1.094 201.2 1.5C195.6 4.156 192 9.781 192 16V64H144c-52.94 0-96 43.06-96 96v182.8C19.77 355.1 0 383.2 0 416c0 44.18 35.82 80 80 80C124.2 496 160 460.2 160 416c0-32.79-19.77-60.89-48-73.25V160c0-17.66 14.36-32 32-32H192v48c0 6.219 3.594 11.84 9.219 14.5C203.4 191.5 205.7 192 208 192c3.672 0 7.312-1.25 10.25-3.719l96-80C317.9 105.3 320 100.8 320 96zM80 440c-13.23 0-24-10.77-24-24s10.77-24 24-24c13.23 0 24 10.77 24 24S93.23 440 80 440zM432 16C387.8 16 352 51.82 352 96c0 32.79 19.77 60.89 48 73.25V352c0 17.66-14.36 32-32 32H320v-48c0-6.219-3.594-11.84-9.219-14.5c-5.578-2.562-12.23-1.812-17.03 2.219l-96 80C194.1 406.8 192 411.3 192 416s2.109 9.25 5.75 12.28l96 80C296.7 510.8 300.3 512 304 512c2.297 0 4.625-.5 6.781-1.5C316.4 507.8 320 502.2 320 496V448h48c52.94 0 96-43.06 96-96V169.2C492.2 156.9 512 128.8 512 96C512 51.82 476.2 16 432 16zM432 120c-13.23 0-24-10.77-24-24s10.77-24 24-24c13.23 0 24 10.77 24 24S445.2 120 432 120z"/></svg>