<svg xmlns="http://www.w3.org/2000/svg" viewBox="0 0 640 512"><!--! Font Awesome Pro 6.0.0-alpha3 by @fontawesome - https://fontawesome.com License - https://fontawesome.com/license (Commercial License) --><path d="M630.8 469.1l-95.55-74.9C560.1 354.4 576 306.1 576 256c0-141.4-114.6-256-256-256C246.9 0 181.3 31.08 134.7 80.29L38.81 5.116C28.21-3.155 13.17-1.098 5.121 9.189C-3.067 19.63-1.249 34.71 9.189 42.89l591.1 463.1c10.5 8.203 25.57 6.333 33.69-4.073C643.1 492.4 641.2 477.3 630.8 469.1zM446.1 156L389.5 279.1L279.7 193.9l140.2-64.09C436.6 122.3 453.8 139.4 446.1 156zM220.1 382.1c-16.66 7.609-33.81-9.547-26.19-26.2l36.1-78.1L82.34 161.2C70.62 190.6 64 222.5 64 256c0 141.4 114.6 256 256 256c55.54 0 106.8-17.87 148.7-47.92L311.1 340.5L220.1 382.1z"/></svg>