<svg xmlns="http://www.w3.org/2000/svg" viewBox="0 0 576 512"><!--! Font Awesome Pro 6.0.0-alpha3 by @fontawesome - https://fontawesome.com License - https://fontawesome.com/license (Commercial License) --><path d="M512 32h-448c-35.35 0-64 28.65-64 64v320c0 35.35 28.65 64 64 64h448c35.35 0 64-28.65 64-64V96C576 60.65 547.3 32 512 32zM63.1 272c0-8.838 7.164-16 16-16h96c8.836 0 16 7.162 16 16v32c0 8.836-7.164 16-16 16h-96c-8.836 0-16-7.164-16-16V272zM160 408C160 412.4 156.4 416 152 416h-80C67.58 416 64 412.4 64 408l0-16c0-4.42 3.582-8 8-8h80c4.418 0 8 3.58 8 8L160 408zM352 408c0 4.418-3.582 8-8 8h-144C195.6 416 192 412.4 192 408l0-16c0-4.42 3.582-8 8-8h143.1c4.418 0 8 3.58 8 8L352 408zM384 304c0 8.836-7.164 16-16 16h-128c-8.836 0-16-7.164-16-16v-32c0-8.838 7.164-16 15.1-16h128c8.836 0 16 7.162 16 16L384 304zM512 304c0 8.836-7.164 16-16 16h-64C423.2 320 416 312.8 416 304l0-32c0-8.838 7.164-16 16-16H496C504.8 256 512 263.2 512 272V304zM512 176C512 184.8 504.8 192 496 192h-96c-8.836 0-16-7.164-16-16v-64c0-8.838 7.164-16 16-16H496C504.8 96 512 103.2 512 112V176z"/></svg>