<svg xmlns="http://www.w3.org/2000/svg" viewBox="0 0 576 512"><!--! Font Awesome Pro 6.0.0-alpha3 by @fontawesome - https://fontawesome.com License - https://fontawesome.com/license (Commercial License) --><path d="M480 224c0-35.35-28.65-64-64-64H224V128c0-17.67 14.33-32 32-32h144C408.8 96 416 88.84 416 80v-32C416 39.16 408.8 32 400 32H256C202.1 32 160 74.98 160 128v32C124.7 160 95.1 188.7 95.1 224c-53.02 0-96 42.98-96 96L0 336h576V320C576 266.1 533 224 480 224zM0 384c0 53.02 42.98 96 96 96h384c53.02 0 96-42.98 96-96v-16H0L0 384z"/></svg>