<svg xmlns="http://www.w3.org/2000/svg" viewBox="0 0 512 512"><!--! Font Awesome Pro 6.0.0-alpha3 by @fontawesome - https://fontawesome.com License - https://fontawesome.com/license (Commercial License) --><path d="M512 336v128c0 26.51-21.49 48-48 48h-128c-26.51 0-48-21.49-48-48v-32H176c-52.94 0-96-43.06-96-96V224h-32C21.49 224 0 202.5 0 176v-128C0 21.49 21.49 0 48 0h128C202.5 0 224 21.49 224 48v128C224 202.5 202.5 224 176 224h-32v112c0 17.66 14.34 32 32 32H288v-32C288 309.5 309.5 288 336 288h128C490.5 288 512 309.5 512 336z"/></svg>