<svg xmlns="http://www.w3.org/2000/svg" viewBox="0 0 576 512"><!--! Font Awesome Pro 6.0.0-alpha3 by @fontawesome - https://fontawesome.com License - https://fontawesome.com/license (Commercial License) --><path d="M67.63 3.34L288 168.1v23.88H239.5L38.13 41.22c-6.875-5.375-8.126-15.5-2.75-22.5l9.875-12.63C50.63-.7847 60.63-2.035 67.63 3.34zM128 224l160-.0004V384l-96 .0002V496C192 504.9 184.9 512 176 512H112C103.1 512 96 504.9 96 496V282.1C58.88 268.9 32 233.6 32 192C32 174.4 46.38 160 64 160s32 14.38 32 32S110.4 224 128 224zM544 111.1v32c0 35.38-28.62 64.02-63.1 64.02L448 207.1v35.62l-128-45.75V47.98c0-14.25 17.21-21.37 27.33-11.25l27.29 27.25l53.63 .0085c10.88 0 23.75 7.875 28.62 17.75l7.125 14.25L528 95.97C536.9 95.97 544 103.1 544 111.1zM320 231.8l128 45.63v218.5c0 8.875-7.125 16-16 16l-63.1 .0114C359.1 511.1 352 504.8 352 495.1v-111.1l-31.1-.0025L320 231.8zM432 111.1c0-8.875-7.125-16-16-16s-15.1 7.133-15.1 16.01s7.125 16 15.1 16S432 120.9 432 111.1z"/></svg>