<svg xmlns="http://www.w3.org/2000/svg" viewBox="0 0 448 512"><!--! Font Awesome Pro 6.0.0-alpha3 by @fontawesome - https://fontawesome.com License - https://fontawesome.com/license (Commercial License) --><path d="M19.62 223.1C6.1 236.5 0 253.5 0 271.3v141.9C0 450.1 29.87 480 66.87 480h141.9c17.62 0 34.63-6.1 47.26-19.63l58.88-58.86L78.51 165.1L19.62 223.1zM443.3 59.23l-22.54-22.54c-6.25-6.251-16.49-6.251-22.61 .0001l-108.1 109l-71.91-71.99c-13.12-13-34.21-13-47.33 0L101.2 142.5l236.4 236.4l68.63-68.63c13.12-13.13 13.12-34.25 0-47.38L334.2 190.1l108.1-109C449.6 75.69 449.6 65.61 443.3 59.23z"/></svg>