<svg xmlns="http://www.w3.org/2000/svg" viewBox="0 0 192 512"><!--! Font Awesome Pro 6.0.0-alpha3 by @fontawesome - https://fontawesome.com License - https://fontawesome.com/license (Commercial License) --><path d="M96 160c44.17 0 80-35.83 80-80S140.2 0 96 0S16 35.83 16 80S51.83 160 96 160zM96 64c8.822 0 16 7.178 16 16S104.8 96 96 96S80 88.82 80 80S87.18 64 96 64zM96 176C51.83 176 16 211.8 16 256s35.83 80 80 80s80-35.83 80-80S140.2 176 96 176zM96 272C87.18 272 80 264.8 80 256S87.18 240 96 240s16 7.178 16 16S104.8 272 96 272zM96 352c-44.17 0-80 35.83-80 80S51.83 512 96 512s80-35.83 80-80S140.2 352 96 352zM96 448c-8.822 0-16-7.178-16-16S87.18 416 96 416s16 7.178 16 16S104.8 448 96 448z"/></svg>