<svg xmlns="http://www.w3.org/2000/svg" viewBox="0 0 512 512"><!--! Font Awesome Pro 6.0.0-alpha3 by @fontawesome - https://fontawesome.com License - https://fontawesome.com/license (Commercial License) --><path d="M160 256c0-44.17-35.83-80-80-80S0 211.8 0 256s35.83 80 80 80S160 300.2 160 256zM64 256c0-8.822 7.178-16 16-16S96 247.2 96 256S88.82 272 80 272S64 264.8 64 256zM176 256c0 44.17 35.83 80 80 80s80-35.83 80-80S300.2 176 256 176S176 211.8 176 256zM272 256c0 8.822-7.178 16-16 16S240 264.8 240 256S247.2 240 256 240S272 247.2 272 256zM352 256c0 44.17 35.83 80 80 80S512 300.2 512 256s-35.83-80-80-80S352 211.8 352 256zM448 256c0 8.822-7.178 16-16 16S416 264.8 416 256s7.178-16 16-16S448 247.2 448 256z"/></svg>