<svg xmlns="http://www.w3.org/2000/svg" viewBox="0 0 512 512"><!--! Font Awesome Pro 6.0.0-alpha3 by @fontawesome - https://fontawesome.com License - https://fontawesome.com/license (Commercial License) --><path d="M256 0C114.6 0 0 114.6 0 256s114.6 256 256 256s256-114.6 256-256S397.4 0 256 0zM336 176c17.69 0 31.99 14.3 31.99 32s-14.3 32-31.99 32s-32.02-14.3-32.02-32S318.3 176 336 176zM175.1 176c17.69 0 32.02 14.3 32.02 32s-14.33 32-32.02 32s-31.99-14.3-31.99-32S158.3 176 175.1 176zM346.2 394.2C323.8 367.4 290.9 352 255.1 352s-67.83 15.42-90.21 42.22c-13.5 16.3-38.07-4.203-24.57-20.5C169.7 339.6 211.6 320 256 320s86.27 19.58 114.6 53.78C384.3 389.1 359.7 410.5 346.2 394.2z"/></svg>