<svg xmlns="http://www.w3.org/2000/svg" viewBox="0 0 512 512"><!--! Font Awesome Pro 6.0.0-alpha3 by @fontawesome - https://fontawesome.com License - https://fontawesome.com/license (Commercial License) --><path d="M120 159.6c40 0 40 0 40 0c17.67 0 32 14.29 32 31.92c0 9.961-4.848 18.5-12.01 24.35C186.3 212.1 193 211.1 200 211.1c8.34 0 16.58 2.18 23.81 6.307l32.19 18.35l32.19-18.35c7.24-4.129 15.47-6.309 23.81-6.309c6.959 0 13.71 1.849 20.01 4.75c-7.162-5.855-12.01-14.39-12.01-24.35c0-17.63 14.33-31.92 32-31.92c0 0 0 0 40 0c30.93 0 56-25.01 56-55.87S422.9 47.89 392 47.89c-9.031 0-17.44 2.334-24.99 6.122C362.2 23.45 335.1 0 304 0c-19.22 0-36.27 8.632-48 22.02C244.3 8.632 227.2 0 208 0C176 0 149.8 23.45 144.1 54.01C137.4 50.22 129 47.89 120 47.89c-30.93 0-56 25.01-56 55.87S89.07 159.6 120 159.6zM511.9 254.4l-16.01 9.127c-9.838 5.608-21.92 5.608-31.75 0l-32.19-18.35c-4.918-2.804-10.96-2.804-15.88 0l-32.19 18.35c-9.838 5.61-21.92 5.61-31.75 0l-32.19-18.35c-4.918-2.804-10.96-2.804-15.88 0l-32.19 18.35c-9.838 5.61-21.92 5.61-31.75 0L207.9 245.2c-4.918-2.804-10.96-2.804-15.88 0L159.9 263.5c-9.838 5.61-21.92 5.61-31.75 0L95.94 245.2c-4.918-2.804-10.96-2.804-15.88 0L47.88 263.5c-9.836 5.608-21.91 5.608-31.75 0L.1113 254.4C.0566 254.4 .0645 254.4 .0098 254.4C-1.166 396.5 113.9 512 256 512s257.2-115.5 255.1-257.6C511.9 254.4 511.9 254.4 511.9 254.4zM143.1 336.4c0-17.71 14.29-31.92 31.97-31.92c17.8 0 32.09 14.22 32.09 31.92c0 17.71-14.29 31.92-32.09 31.92C158.3 368.3 143.1 354.1 143.1 336.4zM304 446.9H208c-8.836 0-16-7.147-16-15.96c0-26.45 21.49-47.89 48-47.89h32c26.51 0 48 21.44 48 47.89C320 439.8 312.8 446.9 304 446.9zM336 368.3c-17.8 0-32.09-14.22-32.09-31.92c0-17.71 14.29-31.92 32.09-31.92c17.68 0 31.97 14.22 31.97 31.92C368 354.1 353.7 368.3 336 368.3z"/></svg>