<svg xmlns="http://www.w3.org/2000/svg" viewBox="0 0 576 512"><!--! Font Awesome Pro 6.0.0-alpha3 by @fontawesome - https://fontawesome.com License - https://fontawesome.com/license (Commercial License) --><path d="M352 85.34c0-6.924-2.246-13.66-6.4-19.2l-44.8-59.73c-6.398-8.535-19.2-8.535-25.6 0L230.4 66.14C226.2 71.68 224 78.42 224 85.34v394.7c0 17.67 14.33 32 32 32h64c17.67 0 32-14.33 32-32V416h64v-64h-64V224h64V160h-64V85.34zM128 85.34C128 78.42 125.8 71.68 121.6 66.14L76.8 6.407c-6.4-8.535-19.2-8.535-25.6 0L6.4 66.14C2.246 71.68 0 78.42 0 85.34v394.7c0 17.67 14.33 32 32 32h64c17.67 0 32-14.33 32-32V416h64v-64H128V224h64V160H128V85.34zM569.6 66.14l-44.8-59.73c-6.398-8.535-19.2-8.535-25.6 0l-44.8 59.73C450.2 71.68 448 78.42 448 85.34v394.7c0 17.67 14.33 32 32 32h64c17.67 0 32-14.33 32-32V85.34C576 78.42 573.8 71.68 569.6 66.14z"/></svg>