<svg xmlns="http://www.w3.org/2000/svg" viewBox="0 0 512 512"><!--! Font Awesome Pro 6.0.0-alpha3 by @fontawesome - https://fontawesome.com License - https://fontawesome.com/license (Commercial License) --><path d="M292.2 287.2C299.5 278.8 303.1 267.1 303.1 256c0-26.51-21.49-48-48-48s-48 21.49-48 48c0 11.97 4.541 22.78 11.79 31.19l-89.82 191.3c-3.219 7.406-2.469 15.94 1.969 22.69C136.4 507.9 143.9 512 151.1 512h207.1c8.094 0 15.62-4.062 20.06-10.84c4.438-6.75 5.188-15.28 1.969-22.69L292.2 287.2zM475.1 209.4c-5.904-27.9-17.01-53.85-32.24-76.86c8.557-17.85 5.902-39.7-8.891-54.49C424.6 68.69 412.3 64 400 64c-7.104 0-14.01 2.032-20.55 5.167c-23.01-15.23-48.96-26.33-76.86-32.24C297.6 15.78 278.7 0 256 0S214.4 15.78 209.4 36.93C181.5 42.83 155.6 53.94 132.6 69.17C126 66.03 119.1 64 112 64c-12.28 0-24.57 4.687-33.94 14.06C63.27 92.85 60.61 114.7 69.17 132.6C53.94 155.6 42.83 181.5 36.93 209.4C15.78 214.4 0 233.3 0 256s15.78 41.57 36.92 46.59c5.904 27.9 17.01 53.85 32.25 76.86c-8.557 17.85-5.902 39.7 8.891 54.49c8.641 8.639 19.81 12.83 31.12 13.51l37.68-80.23c-.332-.3711-.5527-.7988-.9102-1.156c-3.607-3.605-7.918-5.895-12.22-8.113C115.4 336 102.9 309.5 98.43 280h81.81C177.7 272.2 175.1 264.2 175.1 256c0-8.416 1.666-16.38 4.086-24H98.43c3.979-26.14 14.09-50.09 29.14-70.49L185.3 219.3C192.9 204.7 204.7 192.9 219.3 185.3L161.5 127.6C181.9 112.5 205.9 102.4 232 98.43v81.66C239.6 177.7 247.6 176 255.1 176c8.418 0 16.38 1.666 24.01 4.088V98.43c26.14 3.979 50.09 14.09 70.49 29.14l-57.78 57.78c14.54 7.594 26.34 19.4 33.94 33.94l57.78-57.78C399.5 181.9 409.6 205.9 413.6 232h-81.67c2.42 7.625 4.086 15.58 4.086 24c0 8.225-1.74 16.23-4.248 24h81.83c-4.486 29.47-16.1 56.04-35.29 77.95c-4.303 2.219-8.613 4.508-12.22 8.113c-.3633 .3633-.5859 .7988-.9238 1.176l37.66 80.22c11.32-.6699 22.5-4.869 31.14-13.51c14.79-14.79 17.45-36.64 8.891-54.49c15.23-23.01 26.34-48.96 32.25-76.86C496.2 297.6 512 278.7 512 256S496.2 214.4 475.1 209.4z"/></svg>