<svg xmlns="http://www.w3.org/2000/svg" viewBox="0 0 384 512"><!--! Font Awesome Pro 6.0.0-alpha3 by @fontawesome - https://fontawesome.com License - https://fontawesome.com/license (Commercial License) --><path d="M256 0v128h128L256 0zM176 248c-30.88 0-56 25.12-56 56s25.12 56 56 56s56-25.12 56-56S206.9 248 176 248zM224 128L224 0L48 0C21.49 0 0 21.49 0 48v416C0 490.5 21.49 512 48 512h288c26.51 0 48-21.49 48-48V160h-127.1C238.3 160 224 145.7 224 128zM315.3 409.4c6.248 6.248 6.248 16.38 0 22.63l-11.31 11.31c-6.248 6.248-16.38 6.248-22.63 0l-52.12-50.42C213.6 402.3 195.6 408 176 408c-57.44 0-104-46.56-104-104S118.6 200 176 200s104 46.56 104 104c0 20.44-6.111 39.37-16.3 55.45L315.3 409.4z"/></svg>