<svg xmlns="http://www.w3.org/2000/svg" viewBox="0 0 448 512"><!--! Font Awesome Pro 6.0.0-alpha3 by @fontawesome - https://fontawesome.com License - https://fontawesome.com/license (Commercial License) --><path d="M448 112v288c-.125 44.13-35.88 79.88-80 80h-288c-44.13-.125-79.88-35.88-80-80v-288C.125 67.88 35.88 32.12 80 32h288C412.1 32.12 447.9 67.88 448 112zM139 238.9l-45-45C86.5 186.1 80.25 171.1 80.25 160.2c0-26.5 21.5-48 48-48c10.88 0 26 6.125 33.75 13.75L206.9 171C207.5 167.4 207.9 163.6 208 160c0-44.12-35.88-80-80-80S48 115.9 48 160S83.88 240 128 240C131.8 239.9 135.4 239.4 139 238.9zM208 262.6V352c0 8.875 7.125 16 16 16s16-7.125 16-16V262.6l91.25-91.38c2.75-3 4.25-6.875 4.5-11c0-4.25-1.75-8.25-4.75-11.25C328 146 324 144.2 319.8 144.2c-4.125 .25-8 1.751-11.13 4.5L224 233.4L139.2 148.8c-3-2.749-6.875-4.25-11-4.5C124 144.2 120 146 117 149C113.1 152 112.2 156 112.2 160.2c.25 4.125 1.75 8 4.375 11L208 262.6zM224 432c44 0 80-35.88 80-79.88c0-22-14.38-50.63-32-63.75V352c0 26.5-21.5 48-48 48S176 378.5 176 352V288.4c-17.62 13.25-32 41.75-32 63.75C144 396.1 180 432 224 432zM400 160c0-44.12-35.88-80-80-80S240 115.9 240 160c.125 3.75 .625 7.375 1.125 11l45-44.1c7.75-7.501 22.75-13.75 33.63-13.75c26.5 0 48 21.5 48 48c0 10.88-6.125 26-13.75 33.75L309 238.9C312.6 239.5 316.4 239.9 320 240C364.1 240 400 204.1 400 160z"/></svg>