<svg xmlns="http://www.w3.org/2000/svg" viewBox="0 0 576 512"><!--! Font Awesome Pro 6.0.0-alpha3 by @fontawesome - https://fontawesome.com License - https://fontawesome.com/license (Commercial License) --><path d="M271.3 216.3C240.4 216.8 215.8 242.4 216.3 273.3c.5389 30.87 26.09 55.55 56.97 55.01s55.55-26.09 55.01-56.97C327.7 240.4 302.2 215.7 271.3 216.3zM493.2 92.39l-191.1 3.351L236.1 32.87l-159.1 2.792C49.63 36.13 28.5 57.1 28.97 84.49l6.143 351.9c.4625 26.5 22.33 47.62 48.83 47.15l415.9-7.26c26.5-.4625 47.62-22.33 47.15-48.83l-5.026-287.1C541.5 113.1 519.7 91.93 493.2 92.39zM413.8 397.8l-11.11 11.5c-6.138 6.358-16.27 6.535-22.62 .3949l-52.1-49.5c-15.46 9.654-33.43 15.69-52.98 16.03c-57.43 1.002-104.8-44.74-105.8-102.2s44.74-104.8 102.2-105.8c57.43-1.002 104.8 44.74 105.8 102.2c.3568 20.44-5.423 39.48-15.33 55.73l52.48 49.01C419.8 381.3 419.9 391.5 413.8 397.8z"/></svg>