<svg xmlns="http://www.w3.org/2000/svg" viewBox="0 0 448 512"><!--! Font Awesome Pro 6.0.0-alpha3 by @fontawesome - https://fontawesome.com License - https://fontawesome.com/license (Commercial License) --><path d="M13.19 432.7c4.266 16.38 17.17 29.29 33.69 33.69C68.42 472.2 102 479.2 141.4 480L0 338.4C.7656 377.7 7.503 411.1 13.19 432.7zM434.8 79.26c-4.266-16.37-17.12-29.15-33.63-33.55C379.6 39.95 345.1 32.79 306.6 32L448 173.6C447.2 134.3 440.5 100.9 434.8 79.26zM3.828 280.7l195.2 195.7c119.7-17.5 224.8-107.3 245.2-245.1L248.9 35.61C129.3 53.11 24.17 142.9 3.828 280.7zM219.3 347.3c-3.125 3.125-7.22 4.688-11.31 4.688s-8.189-1.563-11.31-4.688L132.7 283.3c-6.25-6.25-6.25-16.38 0-22.63c6.25-6.25 16.38-6.25 22.63 0l64.01 64.01C225.6 330.9 225.6 341.1 219.3 347.3zM267.3 299.3c-3.125 3.125-7.22 4.688-11.31 4.688s-8.189-1.563-11.31-4.688L180.7 235.3c-6.25-6.25-6.25-16.38 0-22.63s16.38-6.25 22.63 0l64.01 64.01C273.6 282.9 273.6 293.1 267.3 299.3zM315.3 228.7c6.25 6.25 6.25 16.38 0 22.63c-3.125 3.125-7.22 4.688-11.31 4.688s-8.189-1.563-11.31-4.688l-64.01-64.01c-6.25-6.25-6.25-16.38 0-22.63s16.38-6.25 22.63 0L315.3 228.7z"/></svg>