<svg xmlns="http://www.w3.org/2000/svg" viewBox="0 0 512 512"><!--! Font Awesome Pro 6.0.0-alpha3 by @fontawesome - https://fontawesome.com License - https://fontawesome.com/license (Commercial License) --><path d="M509.6 126l-61.3 108.1c-20.34 31.38-53.29 51.64-90.51 55.58c-21.28 2.242-42.08-1.594-61.15-9.75l-213.7 223.8c-4.914 5.156-11.7 8.148-18.85 8.246c-7.104 .0976-13.99-2.699-19.02-7.734L7.739 466.9c-5.035-5.031-7.834-11.92-7.736-19.02c.0977-7.152 3.09-13.94 8.246-18.85l223.8-213.7C223.9 196.3 220 175.5 222.3 154.2c3.941-37.22 24.2-70.18 56.48-91.02l107.2-60.79c7.662-4.355 17.39-2.75 22.69 4.645c5.352 7.008 4.67 16.88-1.557 23.11l-112.1 112.1l13.64 13.64l124.7-101.1c7.004-5.738 17.2-5.23 23.59 1.168c6.396 6.398 6.908 16.59 1.168 23.59l-101.1 124.7l13.65 13.64l112.1-112.1c6.227-6.227 16.1-6.91 23.11-1.559C512.3 108.5 513.1 118.3 509.6 126z"/></svg>