<svg xmlns="http://www.w3.org/2000/svg" viewBox="0 0 640 512"><!--! Font Awesome Pro 6.0.0-alpha3 by @fontawesome - https://fontawesome.com License - https://fontawesome.com/license (Commercial License) --><path d="M608 384h-64V31.1c0-17.6-14.4-31.1-32-31.1s-32 14.4-32 31.1L480 432c0 8.8 7.2 16 16 16h112c17.6 0 32-14.4 32-31.1S625.6 384 608 384zM416 237.1c0-8.75-1.75-17.25-5.25-25.25l-78.25-182.8C324.9 11.38 307.6 0 288.3 0H144C117.5 0 96 21.5 96 48V160H48c-26.5 0-48 21.5-48 48L0 416c0 53 43 96 96 96s96-43 96-96h64c0 53 42.1 96 95.1 96S448 469 448 416c0-28.25-12.5-53.48-31.1-71.11L416 237.1zM96 464c-26.5 0-48-21.5-48-48s21.5-48 48-48s48 21.5 48 48S122.5 464 96 464zM256 256L160 160V64h117.8l74.25 173.1V256H256zM352 464c-26.5 0-48-21.5-48-48s21.5-48 48-48s48 21.5 48 48S378.5 464 352 464z"/></svg>