<svg xmlns="http://www.w3.org/2000/svg" viewBox="0 0 640 512"><!--! Font Awesome Pro 6.0.0-alpha3 by @fontawesome - https://fontawesome.com License - https://fontawesome.com/license (Commercial License) --><path d="M638.6 368.2L605.2 156.6c-8.844-50.25-48.42-90.77-100.7-103.1C454.3 41.63 371.6 32 320 32C268.4 32 185.7 41.63 135.5 53.48C83.16 65.84 43.63 106.3 34.78 156.6l-33.38 211.6c-10.31 58.52 37.41 111.8 100.1 111.8c49.69 0 93.78-30.06 109.5-74.64l7.5-21.36h203l7.5 21.36c15.72 44.58 59.81 74.64 109.5 74.64C601.2 479.1 648.9 426.7 638.6 368.2zM247.1 248L215.1 247.1L215.1 280c0 13.2-10.78 24-23.97 24c-13.2 0-24.03-10.8-24.03-24l.0371-32.01L135.1 248C122.8 248 111.1 237.2 111.1 224c0-13.2 10.77-24 23.97-24l32.04-.0117L167.1 168c0-13.2 10.82-24 24.03-24c13.2 0 23.97 10.8 23.97 24l.0371 31.99L247.1 200c13.2 0 24.03 10.8 24.03 24C271.1 237.2 261.2 248 247.1 248zM432 311.1c-22.09 0-40-17.92-40-40c0-22.08 17.91-40 40-40s40 17.92 40 40C472 294.1 454.1 311.1 432 311.1zM496 215.1c-22.09 0-40-17.92-40-40c0-22.08 17.91-40 40-40s40 17.92 40 40C536 198.1 518.1 215.1 496 215.1z"/></svg>