<svg xmlns="http://www.w3.org/2000/svg" viewBox="0 0 640 512"><!--! Font Awesome Pro 6.0.0-alpha3 by @fontawesome - https://fontawesome.com License - https://fontawesome.com/license (Commercial License) --><path d="M128 512h384l-.0001-160H128.1L128 512zM272 416h96c8.875 0 16 7.125 16 16s-7.125 16-16 16h-96c-8.875 0-16-7.125-16-16S263.1 416 272 416zM128 320h383.5l.5-96h-384V320zM610.5 117l-272-113.3C332.6 1.542 326.3 .25 320 0c-6.375 .25-12.67 1.417-18.54 3.667L29.5 117c-17.88 7.5-29.5 24.88-29.5 44.25L.0001 496c0 8.875 7.125 16 16 16h64c8.875 0 15.1-7.125 15.1-16V224c0-17.62 14.63-32 32.63-32h382.8c18 0 32.62 14.38 32.62 32v272c0 8.875 7.125 16 16 16h63.1c8.875 0 16-7.125 16-16L640 161.2C640 141.9 628.4 124.5 610.5 117z"/></svg>