<svg xmlns="http://www.w3.org/2000/svg" viewBox="0 0 640 512"><!--! Font Awesome Pro 6.0.0-alpha3 by @fontawesome - https://fontawesome.com License - https://fontawesome.com/license (Commercial License) --><path d="M96 171.9l.0005 244.1h287.1L384 397.6L96 171.9zM399.1 447.1H80c-8.75 0-15.1 7.25-15.1 15.1l-.0002 32c0 8.75 7.25 15.1 15.1 15.1h319.1c8.75 0 15.1-7.25 15.1-15.1l0-32C415.1 455.2 408.7 447.1 399.1 447.1zM630.8 469.1l-67.77-53.12c7.898-11.47 12.95-25 12.95-39.1V152.6c0-16.1-6.775-33.4-18.78-45.4l-80.97-80.97c-6.25-6.125-16.5-6.125-22.62 0l-11.37 11.37c-6.125 6.125-6.125 16.38 0 22.62l37.75 37.62l0 62.12c0 28.12 20.88 51.25 47.1 55.25v160.7c0 3.805-1.083 7.273-2.673 10.44L384 275.7V63.1C384 28.75 355.2 0 320 0H160C129.2 0 103.4 21.94 97.34 50.99l-58.53-45.87C34.41 1.679 29.19 0 24.03 0c-7.125 0-14.19 3.158-18.91 9.189c-8.187 10.44-6.37 25.53 4.068 33.7l591.1 463.1c10.5 8.203 25.57 6.333 33.69-4.073C643.1 492.4 641.2 477.3 630.8 469.1z"/></svg>