<svg xmlns="http://www.w3.org/2000/svg" viewBox="0 0 576 512"><!--! Font Awesome Pro 6.0.0-alpha3 by @fontawesome - https://fontawesome.com License - https://fontawesome.com/license (Commercial License) --><path d="M288 32c-159 0-288 129-288 288c0 52.75 14.25 102.3 39 144.8c5.625 9.625 16.38 15.25 27.5 15.25h443c11.12 0 21.88-5.625 27.5-15.25C561.8 422.3 576 372.8 576 320C576 161 447 32 288 32zM96 384c-17.62 0-32-14.38-32-32s14.38-32 32-32s32 14.38 32 32S113.6 384 96 384zM144 224c-17.62 0-32-14.38-32-32s14.38-32 32-32s32 14.38 32 32S161.6 224 144 224zM343.1 416H232.9C227.4 406.5 224 395.8 224 384c0-26.88 16.5-49.75 40-59.25V128c0-13.25 10.75-24 24-24s24 10.75 24 24v196.8c23.5 9.5 40 32.37 40 59.25C352 395.8 348.6 406.5 343.1 416zM400 192c0-17.62 14.38-32 32-32s32 14.38 32 32s-14.38 32-32 32S400 209.6 400 192zM480 384c-17.62 0-31.92-14.38-31.92-32s14.38-32 32-32S512 334.4 512 352S497.6 384 480 384z"/></svg>