<svg xmlns="http://www.w3.org/2000/svg" viewBox="0 0 576 512"><!--! Font Awesome Pro 6.0.0-alpha3 by @fontawesome - https://fontawesome.com License - https://fontawesome.com/license (Commercial License) --><path d="M288 32c-159 0-288 129-288 288c0 52.75 14.25 102.3 39 144.8c5.625 9.625 16.38 15.25 27.5 15.25h443c11.12 0 21.88-5.625 27.5-15.25C561.8 422.3 576 372.8 576 320C576 161 447 32 288 32zM343.1 416H232.9C227.4 406.5 224 395.8 224 384c0-12.12 3.5-23.25 9.375-32.88L124.8 206.4C116.9 195.8 119 180.8 129.6 172.8C140.2 164.9 155.2 167 163.2 177.6l108.5 144.8C277 321 282.4 320 288 320c35.38 0 64 28.63 64 64C352 395.8 348.6 406.5 343.1 416z"/></svg>