<svg xmlns="http://www.w3.org/2000/svg" viewBox="0 0 576 512"><!--! Font Awesome Pro 6.0.0-alpha3 by @fontawesome - https://fontawesome.com License - https://fontawesome.com/license (Commercial License) --><path d="M528 128h-58.14c11.96-22.92 15.01-50.55-.04-81.4C455.4 16.99 424.6-.0156 391.5 0C349.7 .0156 322.7 21.32 288 68.3C253.3 21.32 226.3 .0156 184.5 0C151.4-.0156 120.6 16.99 106.2 46.6C91.13 77.45 94.18 105.1 106.1 128H48C21.5 128 0 149.5 0 176v288C0 490.5 21.5 512 48 512h480c26.5 0 48-21.5 48-48v-288C576 149.5 554.5 128 528 128zM390.1 48c22.09 0 40 17.91 40 40s-17.91 40-40 40H304C355.5 51.3 370.2 48 390.1 48zM185.9 48C205.8 48 220.5 51.3 272 128H185.9c-22.09 0-40-17.91-40-40S163.8 48 185.9 48zM512 448H64v-64h448V448zM512 320H64V192h142.1L183 215c-9.375 9.375-9.375 24.56 0 33.94C187.7 253.7 193.8 256 200 256s12.28-2.344 16.97-7.031L273.9 192h28.12l56.97 56.97C363.7 253.7 369.8 256 376 256s12.28-2.344 16.97-7.031c9.375-9.375 9.375-24.56 0-33.94L369.9 192H512V320z"/></svg>