<svg xmlns="http://www.w3.org/2000/svg" viewBox="0 0 448 512"><!--! Font Awesome Pro 6.0.0-alpha3 by @fontawesome - https://fontawesome.com License - https://fontawesome.com/license (Commercial License) --><path d="M208 351.1c85.27 0 160-68.65 160-159.1c0-91.39-74.74-159.1-160-159.1c-85.27 0-160 68.65-160 159.1C48 283.4 122.7 351.1 208 351.1zM348.1 463.1h-92V426.1c44.63-9 87.13-30.75 121.8-65.26c46.8-46.8 70.15-108.2 70.15-169.5c0-50.35-15.76-100.6-47.28-142.9l10.75-10.75c3.125-3.125 4.688-7.22 4.688-11.31s-1.563-8.189-4.688-11.31l-11.38-11.25c-3.125-3.125-7.219-4.687-11.31-4.687s-8.188 1.562-11.31 4.687l-43 43.01c44.17 38.87 65.54 91.35 65.54 144.3c0 105.7-85.4 192-191.9 192c-94.07 0-141.4-63.27-143.9-66.14l-59.5 59.51c-3.125 3.125-4.688 7.219-4.688 11.31s1.562 8.187 4.688 11.31L15.94 411.2c3.126 3.127 7.22 4.69 11.31 4.69s8.188-1.563 11.31-4.69l26.75-26.62c37.75 28 81.88 43.63 126.8 46.63v32.75H99.94c-19.88 0-36 16.13-36 36.01c0 6.625 5.377 11.1 12 11.1h296.1c6.625 0 12-5.375 12-11.1C384.1 480.1 367.1 463.1 348.1 463.1z"/></svg>