<svg xmlns="http://www.w3.org/2000/svg" viewBox="0 0 576 512"><!--! Font Awesome Pro 6.0.0-alpha3 by @fontawesome - https://fontawesome.com License - https://fontawesome.com/license (Commercial License) --><path d="M565.1 231.9l-255.1-223.1c-6.03-5.282-13.55-7.916-21.08-7.916c-6.131 0-14.1 1.81-21.08 7.916l-255.1 223.1C3.842 238.1 .0001 246.1 .0001 256c0 17.56 14.22 31.1 31.1 31.1l32.02 .0064l-.0123 159.1c0 35.34 28.65 63.1 63.1 63.1h319.1c35.35 0 63.1-28.65 63.1-63.1l-.0037-159.1l31.1-.0074c17.74 0 32.01-14.39 32.01-31.99C575.1 246.1 572.2 238.1 565.1 231.9zM287.1 192c35.35 0 63.1 28.65 63.1 63.1s-28.65 63.1-63.1 63.1S223.1 291.4 223.1 256S252.7 192 287.1 192zM383.1 448H191.1c-8.836 0-15.1-7.164-15.1-15.1c0-44.18 35.82-79.1 79.1-79.1h63.1c44.18 0 79.1 35.82 79.1 79.1C399.1 440.8 392.8 448 383.1 448z"/></svg>