<svg xmlns="http://www.w3.org/2000/svg" viewBox="0 0 576 512"><!--! Font Awesome Pro 6.0.0-alpha3 by @fontawesome - https://fontawesome.com License - https://fontawesome.com/license (Commercial License) --><path d="M565.1 231.9l-255.1-223.1c-6.03-5.282-13.56-7.918-21.08-7.918c-6.198 0-14.15 1.848-21.08 7.918L10.92 231.9C-11.25 251.3 2.602 288 32 288h32.02l-.0121 160c0 35.35 28.65 64 63.1 64h319.1c35.35 0 63.1-28.65 63.1-64l-.0033-160l31.1-.001c17.74 0 32.01-14.4 32.01-31.1C575.1 246.9 572.2 238.1 565.1 231.9zM397.7 283.7c0 15.37-5.711 30.8-17.07 42.59l-82.87 85.59c-2.692 2.752-6.311 4.152-9.8 4.152c-3.489 0-7.106-1.4-9.8-4.152l-82.82-85.59c-11.38-11.8-17.06-27.22-17.06-42.6c0-29.53 22.34-59.66 57.2-59.66c15.94 0 32.13 6.56 44.02 18.85L287.1 251.6l8.409-8.784c11.96-12.29 28.13-18.85 44.1-18.85C375.2 223.1 397.7 253.1 397.7 283.7z"/></svg>