<svg xmlns="http://www.w3.org/2000/svg" viewBox="0 0 576 512"><!--! Font Awesome Pro 6.0.0-alpha3 by @fontawesome - https://fontawesome.com License - https://fontawesome.com/license (Commercial License) --><path d="M575.1 256c-.0006 17.6-14.27 31.1-32.01 31.1L511.1 288l.0031 160c0 35.35-28.65 64-63.1 64H128c-35.35 0-63.1-28.65-63.1-64L64.02 288h-32.02c-17.78 0-32-14.44-32-31.1c-.0004-9.052 3.842-17.9 10.92-24.1l255.1-223.1c6.963-6.098 14.93-7.918 21.08-7.918c7.523 0 15.05 2.637 21.08 7.918l255.1 223.1C572.2 238.1 575.1 246.1 575.1 256z"/></svg>