<svg xmlns="http://www.w3.org/2000/svg" viewBox="0 0 576 512"><!--! Font Awesome Pro 6.0.0-alpha3 by @fontawesome - https://fontawesome.com License - https://fontawesome.com/license (Commercial License) --><path d="M576 256C576 273.6 561.7 287.1 543.1 287.1L511.1 288l.0026 192c0 17.67-14.33 32-32 32h-95.99c-17.67 0-31.1-14.33-31.1-32l.0011-112c0-8.836-7.165-15.1-16-15.1H240c-8.836 0-15.99 7.162-15.99 15.1L224 480c0 17.67-14.33 32-32 32H96.02c-17.67 0-32-14.33-32-32l.0084-192H32C14.22 288 .0002 273.6-.0005 256C-.0009 246.1 3.842 238.1 10.92 231.9l255.1-223.1c6.964-6.098 14.93-7.918 21.08-7.918c7.523 0 15.05 2.637 21.08 7.918l255.1 223.1C572.2 238.1 576 246.1 576 256z"/></svg>