<svg xmlns="http://www.w3.org/2000/svg" viewBox="0 0 640 512"><!--! Font Awesome Pro 6.0.0-alpha3 by @fontawesome - https://fontawesome.com License - https://fontawesome.com/license (Commercial License) --><path d="M592 .0146h-224c-26.51 0-48 21.49-48 48v108.8l64 58.18V208c0-8.838 7.164-16 16-16h32c8.836 0 16 7.162 16 16v32c0 8.836-7.164 16-16 16h-20.39C414.2 264.2 416 272.6 416 281.3v6.714l16 .0049c8.836 0 16 7.162 16 16v32c0 8.836-7.164 16-16 16l-16-.0049l-.0065 125.1c-.002 12.82-3.811 24.69-10.09 34.88H608c17.67 0 32-14.33 32-32v-432C640 21.5 618.5 .0146 592 .0146zM448 144c0 8.836-7.164 16-16 16h-32c-8.836 0-16-7.164-16-16v-32c0-8.838 7.164-16 16-16h32c8.836 0 16 7.162 16 16V144zM576 336c0 8.836-7.164 16-16 16h-32c-8.836 0-16-7.164-16-16v-32c0-8.838 7.164-16 16-16h32c8.836 0 16 7.162 16 16V336zM576 240c0 8.836-7.164 16-16 16h-32c-8.836 0-16-7.164-16-16v-32c0-8.838 7.164-16 16-16h32c8.836 0 16 7.162 16 16V240zM576 144c0 8.836-7.164 16-16 16h-32c-8.836 0-16-7.164-16-16v-32c0-8.838 7.164-16 16-16h32c8.836 0 16 7.162 16 16V144zM215.5 105.1c-13.31-12.11-33.65-12.11-46.96 0L17.14 242.7C6.223 252.6 0 266.7 0 281.4v195.7c0 19.28 15.63 34.91 34.91 34.91h314.2c19.28 0 34.91-15.6 34.91-34.88L384 281.2c-.002-14.73-6.179-28.55-17.08-38.46L215.5 105.1zM240 368c0 8.875-7.125 16-16 16H160c-8.875 0-16-7.125-16-16v-64c0-8.875 7.132-16.01 16.01-16.01h64.01C232.9 288 240 295.1 240 304V368z"/></svg>