<svg xmlns="http://www.w3.org/2000/svg" viewBox="0 0 576 512"><!--! Font Awesome Pro 6.0.0-alpha3 by @fontawesome - https://fontawesome.com License - https://fontawesome.com/license (Commercial License) --><path d="M565.1 231.9l-53.08-46.45l.0036-137.5c0-8.828-7.156-15.1-15.1-15.1l-63.1-.0074c-8.842 0-15.1 7.172-15.1 15.1v53.49l-106.9-93.55c-6.03-5.282-13.56-7.919-21.08-7.919c-6.198 0-14.15 1.848-21.08 7.919L10.92 231.9C-11.25 251.3 2.602 287.1 32 287.1h32.02l-.012 159.1c0 35.35 28.65 63.1 63.1 63.1h319.1c35.35 0 63.1-28.65 63.1-63.1L511.1 287.1l31.1-.001c17.74 0 32.01-14.4 32.01-31.1C575.1 246.9 572.2 238.1 565.1 231.9zM400 330.1c0 8.836-7.164 15.1-15.1 15.1h-53.91v53.91c0 8.836-7.164 15.1-15.1 15.1H261.9c-8.836 0-15.1-7.164-15.1-15.1v-53.91H192c-8.836 0-15.1-7.164-15.1-15.1V277.9c0-8.838 7.164-15.1 15.1-15.1h53.91V207.1c0-8.838 7.164-15.1 15.1-15.1h52.18c8.836 0 15.1 7.162 15.1 15.1v53.91H384c8.836 0 15.1 7.162 15.1 15.1V330.1z"/></svg>