<svg xmlns="http://www.w3.org/2000/svg" viewBox="0 0 576 512"><!--! Font Awesome Pro 6.0.0-alpha3 by @fontawesome - https://fontawesome.com License - https://fontawesome.com/license (Commercial License) --><path d="M565.1 231.9l-53.08-46.45l.0037-137.5c0-8.828-7.156-15.1-15.1-15.1l-63.1-.0074c-8.844 0-15.1 7.172-15.1 15.1v53.49l-106.9-93.55c-6.03-5.282-13.55-7.919-21.08-7.919c-6.13 0-14.1 1.812-21.08 7.919L10.92 231.9C3.843 238.1 .0016 246.9 .0016 255.1c0 17.56 14.22 32 31.1 32h32.02l-.0124 159.1c0 35.35 28.65 63.1 63.1 63.1h319.1c35.35 0 63.1-28.65 63.1-63.1L511.1 287.1l31.1-.001c17.74 0 32.01-14.4 32.01-31.1C575.1 246.9 572.2 238.1 565.1 231.9zM397.7 283.7c0 15.37-5.711 30.8-17.07 42.59l-82.87 85.59c-2.692 2.752-6.311 4.152-9.8 4.152c-3.488 0-7.106-1.4-9.8-4.152l-82.82-85.59C183.1 314.5 178.3 299 178.3 283.7c0-29.53 22.38-59.66 57.2-59.66c15.94 0 32.13 6.56 44.02 18.85L287.1 251.6l8.409-8.784c11.96-12.29 28.13-18.85 44.1-18.85C375.2 223.1 397.7 253.1 397.7 283.7z"/></svg>