<svg xmlns="http://www.w3.org/2000/svg" viewBox="0 0 640 512"><!--! Font Awesome Pro 6.0.0-alpha3 by @fontawesome - https://fontawesome.com License - https://fontawesome.com/license (Commercial License) --><path d="M176 216c22.12 0 40-17.88 40-40S198.1 135.1 176 135.1s-40 17.88-40 40S153.9 216 176 216zM104 176c0-39.75 32.25-72 71.1-72S248 136.2 248 175.1c0 1.973-.4219 3.827-.5781 5.759l45.89-42.37L280.3 132.9l23-69.08c.4442-1.259 .6572-2.571 .6572-3.862c0-7.536-6.402-11.82-11.9-11.82c-1.232 0-2.529 .2166-3.758 .6029l-69 22.1l-32.63-65.08C184.6 2.499 180.5-.0005 176-.0005S167.4 2.499 165.4 6.624l-32.5 65.13L63.75 48.75C62.49 48.31 61.2 48.09 59.91 48.09c-7.536 0-11.86 6.469-11.86 11.97c0 1.232 .189 2.462 .5752 3.691l23 69l-65 32.63C2.5 167.4 0 171.5 0 175.1s2.5 8.626 6.625 10.63l65.13 32.5l-23 69.12C48.31 289.5 48.09 290.8 48.09 292.1c0 7.536 6.46 11.86 11.96 11.86c1.232 0 2.471-.1899 3.7-.5762l69-23l4.016 8c3.213-5.619 6.992-10.93 11.82-15.39L175.7 247.1C136.1 247.8 104 215.6 104 176zM629.7 296.5L575.1 246.9V143.1c0-8.838-7.162-16-16-16h-32c-8.834 0-15.1 7.162-15.1 15.1v43.85l-90.29-83.35c-6.127-5.656-13.88-8.499-21.67-8.499c-.0027 0 .0027 0 0 0c-7.786 0-15.61 2.843-21.74 8.499l-208 192C163.6 302.7 160 311.2 160 319.1c0 17.54 14.21 32 31.1 32h31.1l.002 112c0 26.4 21.6 48 48 48h255.1c26.4 0 48-21.6 48-48l-.0032-112h32.01c17.82 0 32-14.48 32-32C640 311.2 636.4 302.7 629.7 296.5zM447.1 367.1c0 8.875-7.125 16-16 16h-64c-8.875 0-16-7.125-16-16v-64c0-8.875 7.175-16.01 16.05-16.01h64.01c8.875 0 15.94 7.132 15.94 16.01V367.1z"/></svg>