<svg xmlns="http://www.w3.org/2000/svg" viewBox="0 0 640 512"><!--! Font Awesome Pro 6.0.0-alpha3 by @fontawesome - https://fontawesome.com License - https://fontawesome.com/license (Commercial License) --><path d="M111.1 223.1c58.29 0 88.19-42.45 88.19-44.78c0-2.525-2.153-5.294-5.297-5.294c-1.724 0-7.091 1.671-17.55 1.671c-48.52 0-87.65-39.49-87.65-87.73c0-56.94 47.02-74.23 47.02-80.8c0-.7654-.4346-4.52-4.203-5.185C125.7 .7495 118.9 .1245 111.1-.0005C50.13-.0005 0 50.13 0 112S50.13 223.1 111.1 223.1zM194.1 68.75L234.7 85.37l16.5 39.63c.875 1.875 2.749 3.001 4.751 3.001c2.125 0 3.874-1.126 4.874-3.001l16.5-39.63l39.75-16.62C318.9 67.87 319.1 66 319.1 64S318.9 60.12 317.1 59.25L277.4 42.62L260.7 2.999C259.9 1.124 257.1-.0004 255.1-.0004c-2.002 0-3.876 1.125-4.751 2.1L234.6 42.62L194.1 59.25C193.2 60.12 191.1 62 191.1 64S193.2 67.87 194.1 68.75zM117.4 362.6L100.7 322.1c-.875-1.875-2.749-2.998-4.749-2.998S92.13 321.1 91.25 322.1l-16.62 39.63L35 379.2C33.25 380.1 32 382 32 384s1.25 3.872 3 4.747l39.75 16.62l16.5 39.63c.875 1.875 2.749 3.003 4.749 3.003c2.125 0 3.874-1.128 4.874-3.003l16.5-39.63l39.75-16.62c1.75-.875 2.876-2.747 2.876-4.747s-1.126-3.878-2.876-4.753L117.4 362.6zM629.7 296.5L575.1 246.9V143.1c0-8.838-7.162-16-16-16h-32c-8.834 0-15.1 7.162-15.1 15.1v43.85l-90.29-83.35c-6.127-5.656-13.88-8.499-21.67-8.499c-.0027 0 .0027 0 0 0c-7.786 0-15.61 2.843-21.74 8.499l-208 192C163.6 302.7 160 311.2 160 319.1c0 17.54 14.21 32 31.1 32h31.1l.002 112c0 26.4 21.6 48 48 48h255.1c26.4 0 48-21.6 48-48l-.0032-112h32.01c17.82 0 32-14.48 32-32C640 311.2 636.4 302.7 629.7 296.5zM447.1 367.1c0 8.875-7.125 16-16 16h-64c-8.875 0-16-7.125-16-16v-64c0-8.875 7.175-16.01 16.05-16.01h64.01c8.875 0 15.94 7.132 15.94 16.01V367.1z"/></svg>