<svg xmlns="http://www.w3.org/2000/svg" viewBox="0 0 576 512"><!--! Font Awesome Pro 6.0.0-alpha3 by @fontawesome - https://fontawesome.com License - https://fontawesome.com/license (Commercial License) --><path d="M565.1 231.9L511.1 185.5l.003-137.5c0-8.828-7.156-15.1-15.1-15.1l-63.1-.0089c-8.842 0-15.1 7.172-15.1 15.1v53.49l-106.9-93.55c-6.03-5.282-13.56-7.919-21.08-7.919c-6.198 0-14.15 1.848-21.08 7.919l-255.1 223.1C-11.25 251.3 2.603 287.1 32 287.1l32.02-.0009l-.0132 159.1c0 35.34 28.65 63.1 63.1 63.1h319.1c35.35 0 63.1-28.65 63.1-63.1l-.004-159.1l31.1-.0001c17.74 0 32.01-14.4 32.01-32C575.1 246.9 572.2 238.1 565.1 231.9zM287.1 192c35.35 0 63.1 28.65 63.1 63.1s-28.65 63.1-63.1 63.1S224 291.3 224 255.1S252.7 192 287.1 192zM383.1 447.1H192c-8.836 0-15.1-7.164-15.1-15.1c0-44.18 35.82-79.1 79.1-79.1h63.1c44.18 0 79.1 35.82 79.1 79.1C399.1 440.8 392.8 447.1 383.1 447.1z"/></svg>