<svg xmlns="http://www.w3.org/2000/svg" viewBox="0 0 640 512"><!--! Font Awesome Pro 6.0.0-alpha3 by @fontawesome - https://fontawesome.com License - https://fontawesome.com/license (Commercial License) --><path d="M215.5 105.1c-13.31-12.11-33.65-12.11-46.96 0L17.14 242.7C6.223 252.6 0 266.7 0 281.4l0 195.7c0 19.28 15.63 34.91 34.91 34.91h314.2c19.28 0 34.91-15.6 34.91-34.88L384 281.2c-.002-14.73-6.179-28.55-17.08-38.46L215.5 105.1zM240 368c0 8.875-7.125 16-16 16H160c-8.875 0-16-7.125-16-16v-64c0-8.875 7.132-16.01 16.01-16.01h64.01C232.9 288 240 295.1 240 304V368zM631.6 455.6l-89.87-103.6h35.1c25.62 0 39.5-29.25 23.25-48.5l-94.87-111.5h44.75c21.37 0 32.87-22.5 19.37-37.25l-134.1-146.5c-10-11-28.5-11-38.5 0L287.3 127.2l101.1 91.89C405.9 234.1 415.1 257.7 416 281.3l-.0078 195.8c-.002 12.82-3.811 24.69-10.09 34.88h200.9C635.4 512 650.5 477.4 631.6 455.6z"/></svg>