<svg xmlns="http://www.w3.org/2000/svg" viewBox="0 0 640 512"><!--! Font Awesome Pro 6.0.0-alpha3 by @fontawesome - https://fontawesome.com License - https://fontawesome.com/license (Commercial License) --><path d="M251.6 219L352 127.8V16.01c0-8.838-7.164-16-16-16l-64 .0049c-8.836 0-16 7.162-16 16v80H224V16.01c0-8.838-7.164-15.1-16-15.1h-64c-8.836 0-16 7.157-16 15.1v80H96v-80c0-8.838-7.164-16-16-16l-64-.0049c-8.836 0-16 7.162-16 16V197.5c0 16.97 6.741 33.25 18.74 45.25L64 288v192c0 17.67 14.33 32 32 32h138.1C227.8 501.8 224 489.9 224 477.1V281.5C224 257.7 234.1 234.1 251.6 219zM212 224c0 8.836-7.164 16-16 16h-40c-8.836 0-16-7.164-16-16v-28c0-19.88 16.12-36 36-36s36 16.12 36 36V224zM622.9 242.8l-151.4-137.7c-13.31-12.11-33.65-12.11-46.96 0L273.1 242.7C262.2 252.6 256 266.7 256 281.4v195.7c0 19.28 15.63 34.91 34.91 34.91h314.2c19.28 0 34.91-15.6 34.91-34.88L640 281.2C639.1 266.5 633.8 252.7 622.9 242.8zM496 368c0 8.875-7.125 16-16 16h-64c-8.875 0-16-7.125-16-16v-64c0-8.875 7.132-16.01 16.01-16.01h64.01c8.875 0 15.98 7.134 15.98 16.01V368z"/></svg>