<svg xmlns="http://www.w3.org/2000/svg" viewBox="0 0 576 512"><!--! Font Awesome Pro 6.0.0-alpha3 by @fontawesome - https://fontawesome.com License - https://fontawesome.com/license (Commercial License) --><path d="M32 287.1h32.02v100.9c8.527-7.877 19.54-12.51 31.35-12.51c40.88 0 34.45 39.62 97.04 39.62c64.52 0 53.23-39.66 95.32-40.02c42.2 .3642 31.4 40.02 95.9 40.02c62.64 0 55.89-39.62 97.03-39.62c11.79 0 22.8 4.617 31.32 12.47V287.1h32.01c17.74 0 31.1-14.4 31.1-32c0-9.053-3.842-17.89-10.92-24.09l-53.08-46.45l.0032-137.5c0-8.828-7.156-15.1-15.1-15.1l-63.1-.0076c-8.842 0-15.1 7.172-15.1 15.1v53.49l-106.9-93.55c-6.03-5.282-13.56-7.918-21.08-7.918c-6.198 0-14.15 1.848-21.08 7.918L10.92 231.9C-11.25 251.3 2.602 287.1 32 287.1zM224 213.4c0-11.87 9.625-21.37 21.37-21.37h85.25c11.75 0 21.37 9.5 21.37 21.37v85.25c0 11.87-9.625 21.37-21.37 21.37H245.4c-11.75 0-21.37-9.625-21.37-21.37V213.4zM192.3 511.9C192.4 511.9 192.3 511.9 192.3 511.9C192.3 511.9 192.3 511.9 192.3 511.9c-5.09 0-10.02-.629-15.1-1.009C182.3 511.2 187.3 511.9 192.3 511.9zM562.4 448.4c-60.04-6.321-66.02-39.99-81.73-39.99c-19.18 0-26.55 39.62-97.04 39.62c-70.42 0-77.84-39.87-95.62-40.02c-17.69 .1536-25.2 40.02-95.6 40.02c-69.46 0-77.99-39.29-96.83-39.29c-.4287 0-.8567 .0157-1.283 .0472c.5156-.0747 1.055-.2525 1.581-.2525c.0239 0-.0241-.0008 0 0c-.1816-.0059-.3175-.1225-.4992-.1225c-.2381 0-7.418 .6709-11.21 5.281c-37.31 45.4-84.12 22.16-84.12 50.33v32.03c.0019 8.625 6.93 15.95 15.43 15.95c.7059 0 32.66-1.291 67.38-18.67c4.516-2.26 9.049-4.502 13.31-7.141c28.16 17.15 62.23 25.68 96.16 25.68c34.13 0 68.11-8.639 95.68-25.61c27.46 16.89 61.23 25.16 95.21 25.16c4.507 0 9.018-.1454 13.52-.4355c-4.383 .3714-8.746 .8158-13.14 .8158c-.0193 0 .0193 0 0 0c.0547 0-.0547 0 0 0c1.015 0 52.94 .7701 96.28-25.62c37.29 23.08 76.68 25.81 80.69 25.81c8.504 0 15.43-7.328 15.43-15.95v-32.03C575.1 456.2 570.3 449.2 562.4 448.4z"/></svg>