<svg xmlns="http://www.w3.org/2000/svg" viewBox="0 0 576 512"><!--! Font Awesome Pro 6.0.0-alpha3 by @fontawesome - https://fontawesome.com License - https://fontawesome.com/license (Commercial License) --><path d="M575.1 256c0 17.6-14.27 31.1-32.01 31.1L511.1 288l.0033 160c0 35.35-28.65 64-63.1 64h-128.3l-39.87-55.25l104.1-64L235.1 256l60.12 119.3l-104.1 64L229.2 512h-101.2c-35.35 0-63.1-28.65-63.1-64l.0121-160H32C14.22 288 .0026 273.6 .0007 256c0-9.053 3.842-17.9 10.92-24.09l255.1-223.1c6.932-6.07 14.88-7.919 21.08-7.919c7.522 0 15.05 2.636 21.08 7.919l106.9 93.55V47.98c0-8.828 7.156-16 15.1-16l63.1 .0078c8.844 0 15.1 7.172 15.1 16l-.0036 137.5l53.08 46.45C572.2 238.1 575.1 246.9 575.1 256z"/></svg>