<svg xmlns="http://www.w3.org/2000/svg" viewBox="0 0 576 512"><!--! Font Awesome Pro 6.0.0-alpha3 by @fontawesome - https://fontawesome.com License - https://fontawesome.com/license (Commercial License) --><path d="M64 384h416c17.67 0 32-14.33 32-32V315c0-44.13-29.97-82.37-72.72-93.12L320 192H272C263.2 192 256 184.8 256 176C256 167.2 263.2 160 272 160H320V128H272C263.2 128 256 120.8 256 112C256 103.2 263.2 96 272 96H320V16C320 7.199 312.8 0 304 0h-32C263.2 0 256 7.199 256 16V32L78.38 82.75C50.88 90.63 32 115.8 32 144.3V352C32 369.7 46.33 384 64 384zM560 416H544c-8.801 0-16 7.199-16 16v7.1C528 453.3 517.3 464 504 464H432V416H384v48H144V416H96v48H32c-17.6 0-32 14.4-32 32C0 504.8 7.199 512 16 512H512c35.2 0 64-28.8 64-64v-16C576 423.2 568.8 416 560 416z"/></svg>