<svg xmlns="http://www.w3.org/2000/svg" viewBox="0 0 640 512"><!--! Font Awesome Pro 6.0.0-alpha3 by @fontawesome - https://fontawesome.com License - https://fontawesome.com/license (Commercial License) --><path d="M576 64H63.1C28.65 64 0 92.65 0 128v256c0 35.35 28.65 64 63.1 64H576C611.3 448 640 419.3 640 384V128C640 92.65 611.3 64 576 64zM576 384H63.1V128H576V384zM120 352h80C213.3 352 224 341.3 224 328C224 314.7 213.3 304 200 304h-16v-128c0-8.838-7.164-16-16-16H131.4C123.2 160 115.5 164.2 111.1 171.2C101.1 187.2 112.6 208 131.4 208H136v96h-16C106.7 304 96 314.7 96 328C96 341.3 106.7 352 120 352zM252.9 237.3c11.73 6.109 26.25 1.594 32.38-10.19l4.938-9.453C293.3 211.7 298.1 208 302.8 208c10.61 0 15.02 7.547 16.41 10.8c1.406 3.25 3.875 11.64-3.422 19.36L246.5 311.5C239.1 318.5 238.2 328.7 241.1 337.5C245.8 346.3 254.4 352 264 352H352c13.25 0 24-10.75 24-24S365.3 304 352 304H319.7l31.06-32.89c18.36-19.44 23.17-46.78 12.58-71.33C352.8 175.3 329.6 160 302.8 160C280.2 160 259 173.6 247.6 195.5L242.7 204.9C236.6 216.7 241.2 231.2 252.9 237.3z"/></svg>