<svg xmlns="http://www.w3.org/2000/svg" viewBox="0 0 512 512"><!--! Font Awesome Pro 6.0.0-alpha3 by @fontawesome - https://fontawesome.com License - https://fontawesome.com/license (Commercial License) --><path d="M416 0h-96c-53.02 0-96 42.98-96 96v146.8l-214.6 214.6c-12.5 12.5-12.5 32.75 0 45.25C15.63 508.9 23.81 512 32 512s16.38-3.125 22.62-9.375l35.72-35.72l29.09 29.09c12.5 12.5 32.76 12.5 45.25 .0007l22.63-22.63c.002-.002-.002 .002 0 0l20.68-20.68c12.5-12.5 12.5-32.76 .0007-45.26l-29.09-29.09L269.3 288H416c53.02 0 96-42.98 96-96V96C512 42.98 469 0 416 0zM416 172.8C416 183.4 407.4 192 396.8 192h-57.6C328.6 192 320 183.4 320 172.8V115.2C320 104.6 328.6 96 339.2 96h57.6C407.4 96 416 104.6 416 115.2V172.8z"/></svg>