<svg xmlns="http://www.w3.org/2000/svg" viewBox="0 0 640 512"><!--! Font Awesome Pro 6.0.0-alpha3 by @fontawesome - https://fontawesome.com License - https://fontawesome.com/license (Commercial License) --><path d="M113.8 315.9l53.38 35.5C177.8 358.5 192 350.9 192 338.2V269.9c0-12.75-14.25-20.38-24.88-13.25L120 288V224c0-48.63-39.38-88.01-88-88.01L16 136c-8.875 0-16 7.12-16 15.1v16c0 8.875 7.125 16 16 16L32 184c22.12 0 40 17.87 40 40v64.01L24.88 256.6C14.25 249.5 0 257.1 0 269.9v68.26c0 12.75 14.25 20.38 24.88 13.25l53.38-35.5C89 308.7 103 308.7 113.8 315.9zM608 0h-262.5c-14.9 0-27.87 10.27-31.22 24.79L234.2 371.9L146.7 459.4c-9.822 9.809-26.61 2.863-26.61-11.02L120 358.5l-24-16l-24 16v84.77c0 16.62 4.983 33.11 15.73 45.74c26.5 31.5 68.1 28.2 92.87 4.322l87.47-87.52l347.1-80.1C629.7 322.4 640 309.4 640 294.5v-262.5C640 14.33 625.7 0 608 0zM555.3 212.7c6.25 6.254 6.25 16.38 0 22.63c-6.246 6.246-16.37 6.254-22.62 0L480 182.6L363.3 299.3c-6.246 6.25-16.37 6.258-22.62 0c-6.25-6.25-6.25-16.38 0-22.62l116.7-116.7l-52.69-52.69c-6.25-6.25-6.25-16.38 0-22.62s16.38-6.25 22.62 0L480 137.4l52.69-52.69c6.25-6.25 16.38-6.25 22.62 0s6.25 16.38 0 22.62l-52.69 52.69L555.3 212.7z"/></svg>