<svg xmlns="http://www.w3.org/2000/svg" viewBox="0 0 512 512"><!--! Font Awesome Pro 6.0.0-alpha3 by @fontawesome - https://fontawesome.com License - https://fontawesome.com/license (Commercial License) --><path d="M496 448H480v-32c0-17.67-14.33-32-32-32V192h-64v192h-96V192H224v192H128V192H64v192c-17.67 0-32 14.33-32 32v32H16C7.199 448 0 455.2 0 464v32C0 504.8 7.199 512 16 512h480c8.801 0 16-7.201 16-16v-32C512 455.2 504.8 448 496 448zM501.6 92.13l-234.4-90.07C264.3 .8958 259.2-.0039 256-.0039c-3.188 0-8.219 .8997-11.22 2.056L10.38 92.13C4.656 94.25 0 100.1 0 107.1V144C0 152.8 7.156 160 16 160h480C504.8 160 512 152.8 512 144V107.1C512 100.4 507.9 94.44 501.6 92.13z"/></svg>