<svg xmlns="http://www.w3.org/2000/svg" viewBox="0 0 512 512"><!--! Font Awesome Pro 6.0.0-alpha3 by @fontawesome - https://fontawesome.com License - https://fontawesome.com/license (Commercial License) --><path d="M48 256h416C472.8 256 480 248.8 480 240v-32C480 199.3 472.8 192 464 192h-18.88C431.6 111.8 368.3 48.38 288 34.88V16C288 7.25 280.8 0 272 0h-32C231.3 0 224 7.25 224 16v18.88C143.8 48.38 80.38 111.8 66.88 192H48C39.25 192 32 199.3 32 208v32C32 248.8 39.25 256 48 256zM496 448H480v-32c0-17.67-14.33-32-32-32V288h-64v96h-96V288H224v96H128V288H64v96c-17.67 0-32 14.33-32 32v32H16C7.199 448 0 455.2 0 464v32C0 504.8 7.199 512 16 512h480c8.801 0 16-7.201 16-16v-32C512 455.2 504.8 448 496 448z"/></svg>