<svg xmlns="http://www.w3.org/2000/svg" viewBox="0 0 512 512"><!--! Font Awesome Pro 6.0.0-alpha3 by @fontawesome - https://fontawesome.com License - https://fontawesome.com/license (Commercial License) --><path d="M48 368C21.5 368 0 389.5 0 416c0 26.5 21.5 48 48 48C74.5 464 96 442.5 96 416C96 389.5 74.5 368 48 368zM169.1 143.8C175.3 149.1 182.4 152 189.8 152H420C435.5 152 448 139.5 448 124v-56c0-15.46-12.54-28-28-28H189.8c-7.426 0-14.55 2.949-19.8 8.201L132.1 86.1c-5.467 5.469-5.467 14.33 0 19.8L169.1 143.8zM48 208C21.5 208 0 229.5 0 256c0 26.5 21.5 48 48 48C74.5 304 96 282.5 96 256C96 229.5 74.5 208 48 208zM48 48C21.5 48 0 69.5 0 96c0 26.5 21.5 48 48 48C74.5 144 96 122.5 96 96C96 69.5 74.5 48 48 48zM484 200H189.8c-7.426 0-14.55 2.949-19.8 8.201L132.1 246.1c-5.467 5.469-5.467 14.33 0 19.8l37.9 37.9C175.3 309.1 182.4 312 189.8 312H484C499.5 312 512 299.5 512 284v-56C512 212.5 499.5 200 484 200zM420 360H189.8c-7.426 0-14.55 2.949-19.8 8.201l-37.9 37.9c-5.467 5.469-5.467 14.33 0 19.8l37.9 37.9C175.3 469.1 182.4 472 189.8 472H420c15.46 0 28-12.54 28-28v-56C448 372.5 435.5 360 420 360z"/></svg>