<svg xmlns="http://www.w3.org/2000/svg" viewBox="0 0 512 512"><!--! Font Awesome Pro 6.0.0-alpha3 by @fontawesome - https://fontawesome.com License - https://fontawesome.com/license (Commercial License) --><path d="M208 208h-64C135.2 208 128 215.2 128 224v8H72V144H80C88.84 144 96 136.8 96 128V64c0-8.844-7.156-16-16-16h-64C7.156 48 0 55.16 0 64v64c0 8.844 7.156 16 16 16h8V384c0 30.88 25.12 56 56 56H128V448c0 8.844 7.156 16 16 16h64C216.8 464 224 456.8 224 448v-64c0-8.844-7.156-16-16-16h-64C135.2 368 128 375.2 128 384v8H80c-4.406 0-8-3.594-8-8V280H128V288c0 8.844 7.156 16 16 16h64C216.8 304 224 296.8 224 288V224C224 215.2 216.8 208 208 208zM192 128h288c17.67 0 32-14.33 32-32s-14.33-32-32-32H192C174.3 64 160 78.33 160 96S174.3 128 192 128zM480 224h-160c-17.67 0-32 14.33-32 32s14.33 32 32 32h160c17.67 0 32-14.33 32-32S497.7 224 480 224zM480 384h-160c-17.67 0-32 14.33-32 32s14.33 32 32 32h160c17.67 0 32-14.33 32-32S497.7 384 480 384z"/></svg>