<svg xmlns="http://www.w3.org/2000/svg" viewBox="0 0 384 512"><!--! Font Awesome Pro 6.0.0-alpha3 by @fontawesome - https://fontawesome.com License - https://fontawesome.com/license (Commercial License) --><path d="M192 0C86.38 0 0 86.38 0 191.1c0 76.75 25.62 99.24 172.8 310.3c9.625 12.88 28.88 12.88 38.5 0C358.4 291.2 384 268.7 384 191.1C384 86.38 297.6 0 192 0zM272.1 239c9.375 9.375 9.375 24.56 0 33.94c-9.381 9.381-24.56 9.373-33.94 0L192 225.9L144.1 272.1c-9.381 9.381-24.56 9.373-33.94 0c-9.375-9.375-9.375-24.56 0-33.94l47.03-47.03L111 144.1c-9.375-9.375-9.375-24.56 0-33.94s24.56-9.375 33.94 0L192 158.1l47.03-47.03c9.375-9.375 24.56-9.375 33.94 0s9.375 24.56 0 33.94l-47.03 47.03L272.1 239z"/></svg>