<svg xmlns="http://www.w3.org/2000/svg" viewBox="0 0 640 512"><!--! Font Awesome Pro 6.0.0-alpha3 by @fontawesome - https://fontawesome.com License - https://fontawesome.com/license (Commercial License) --><path d="M300.3 501.7c9.531 13.77 29.91 13.77 39.44 0c24.04-34.84 44.56-64.11 62.53-89.72L128.1 197.1C129.4 270.4 158.3 295.9 300.3 501.7zM630.8 469.1l-173.8-136.2c43.88-65.2 54.94-92.33 54.94-140.9c0-106-85.97-191.1-191.1-191.1c-70.83 0-132.4 38.58-165.6 95.67L38.81 5.109C34.41 1.672 29.19 0 24.03 0C16.91 0 9.846 3.156 5.127 9.187c-8.187 10.44-6.375 25.53 4.062 33.7l591.1 463.1c10.5 8.203 25.56 6.328 33.69-4.078C643.1 492.4 641.2 477.3 630.8 469.1z"/></svg>