<svg xmlns="http://www.w3.org/2000/svg" viewBox="0 0 384 512"><!--! Font Awesome Pro 6.0.0-alpha3 by @fontawesome - https://fontawesome.com License - https://fontawesome.com/license (Commercial License) --><path d="M192 0c-105.6 0-192 86.38-192 191.1c0 76.75 25.62 99.24 172.8 310.3c9.625 12.87 28.87 12.87 38.5 0C358.4 291.2 384 268.7 384 191.1C384 86.38 297.6 0 192 0zM192 351.1c-17.62 0-32-14.38-32-32s14.38-31.1 32-31.1s32 14.37 32 31.1S209.6 351.1 192 351.1zM218.6 238.7v1.375c0 8.749-7 15.87-15.75 15.87H186.5c-8.75 0-15.88-7.125-15.88-15.87V223.1c0-9.124 5.25-17.37 13.38-21.5c30.62-15.25 50.63-26.5 50.63-42.5c0-19.37-14-39.1-40-39.1c-17.87 0-33.13 11.87-38.13 28.12c-2.125 6.875-8.125 11.87-15.38 11.87H124.2c-10.25 0-17.62-9.5-15.37-19.5c8.875-39.25 44-68.5 85.75-68.5c55.13 0 88 44.75 88 87.1C282.6 200.1 249.9 222.5 218.6 238.7z"/></svg>