<svg xmlns="http://www.w3.org/2000/svg" viewBox="0 0 640 512"><!--! Font Awesome Pro 6.0.0-alpha3 by @fontawesome - https://fontawesome.com License - https://fontawesome.com/license (Commercial License) --><path d="M319.1 383.1c-70.75 0-127.1-57.25-127.1-127.1c0-2.809 .6484-5.437 .8262-8.203L136.1 203.3C134.1 210.1 132.1 216.9 130.9 224H95.1c-17.67 0-32.01 14.33-32.01 31.1c0 17.67 14.34 32 32.01 32h34.88c13.5 80.37 76.75 143.6 157.1 157.1v34.87c0 17.67 14.32 32 31.99 32c17.67 0 32.01-14.33 32.01-32v-34.87c22.76-3.82 43.85-12.03 63.12-23.08l-56.79-44.52C346.2 381.4 333.4 383.1 319.1 383.1zM630.8 469.1l-146.6-114.9c12.12-19.98 20.91-42.19 24.94-66.18h34.88c17.67 0 31.99-14.33 31.99-32c0-17.67-14.32-31.1-31.99-31.1h-34.88C495.6 143.6 432.4 80.38 351.1 66.88V32c0-17.67-14.34-32-32.01-32c-17.67 0-31.99 14.33-31.99 32v34.87C248.2 73.57 213.3 93.17 185.9 120.4L38.81 5.116C34.41 1.679 29.19 0 24.03 0c-7.125 0-14.19 3.158-18.91 9.189C-3.066 19.63-1.248 34.71 9.189 42.89l591.1 463.1c10.5 8.203 25.57 6.333 33.69-4.073C643.1 492.4 641.2 477.3 630.8 469.1zM433.3 314.3l-32.27-25.29c4.287-10.2 6.99-21.19 6.99-32.99c0-48.62-39.38-87.1-87.1-87.1c-19.34 0-36.87 6.648-51.3 17.29l-32.11-25.16c22.37-19.7 51.2-32.12 83.4-32.12c70.75 0 127.1 57.25 127.1 127.1C447.1 277.2 442.5 296.8 433.3 314.3z"/></svg>