<svg xmlns="http://www.w3.org/2000/svg" viewBox="0 0 384 512"><!--! Font Awesome Pro 6.0.0-alpha3 by @fontawesome - https://fontawesome.com License - https://fontawesome.com/license (Commercial License) --><path d="M192 0C85.97 0 0 85.97 0 192c0 77.41 26.97 99.03 172.3 309.7c9.531 13.77 29.91 13.77 39.44 0C357 291 384 269.4 384 192C384 85.97 298 0 192 0zM156.9 275.1c-1.676 1.678-3.809 2.816-6.131 3.281L103.2 287.9C99.02 288.7 95.28 284.1 96.12 280.8l9.522-47.58c.4648-2.322 1.607-4.459 3.283-6.133l79.76-79.77l48.01 48.01L156.9 275.1zM280.1 151l-21.65 21.65l-48.01-48.01l21.65-21.65c9.371-9.373 24.57-9.373 33.94 0l14.07 14.07C290.3 126.5 290.3 141.7 280.1 151z"/></svg>