<svg xmlns="http://www.w3.org/2000/svg" viewBox="0 0 576 512"><!--! Font Awesome Pro 6.0.0-alpha3 by @fontawesome - https://fontawesome.com License - https://fontawesome.com/license (Commercial License) --><path d="M32 176c-17.62 0-32 14.38-32 32v96c0 17.62 14.38 32 32 32c11.38 0 20.88-6.25 26.62-15.25l106.9 32.37C162.2 362.9 160 373.1 160 384c0 53 43 96 96 96c44.5 0 81.63-30.62 92.5-71.75L480 448V64L58.62 191.2C52.88 182.2 43.38 176 32 176zM211.3 366.9l91.5 27.62C297.1 415.9 278.9 432 256 432c-26.5 0-48-21.5-48-48C208 378 209.3 372.2 211.3 366.9zM560 32h-32C519.1 32 512 39.12 512 48v416c0 8.875 7.125 16 16 16h32c8.875 0 16-7.125 16-16v-416C576 39.12 568.9 32 560 32z"/></svg>