<svg xmlns="http://www.w3.org/2000/svg" viewBox="0 0 640 512"><!--! Font Awesome Pro 6.0.0-alpha3 by @fontawesome - https://fontawesome.com License - https://fontawesome.com/license (Commercial License) --><path d="M585.6 135.6l-137.2 138.3C439.4 282.8 427 288 414.3 288H112C103.2 288 96 280.8 96 272C96 263.2 103.2 256 112 256H320V193.7c0-12.69 5.163-25.1 14.2-34.08L366.1 128H80C53.6 128 32 149.6 32 176v288C32 490.4 53.6 512 80 512h480c26.4 0 48-21.6 48-48v-288C608 159 598.1 144.1 585.6 135.6zM528 384h-416C103.2 384 96 376.8 96 368C96 359.2 103.2 352 112 352h416c8.838 0 16 7.162 16 16C544 376.8 536.8 384 528 384zM600.5 75.38c10-10 10-26.12 0-36L568.6 7.5C563.7 2.5 557.2 0 550.7 0s-13.05 2.5-18.05 7.5l-27.25 27.25l67.88 67.88L600.5 75.38zM352 193.7V256h62.34c4.264 0 8.35-1.703 11.35-4.727l124.9-126l-67.88-67.88l-126 124.9C353.7 185.3 352 189.4 352 193.7z"/></svg>