<svg xmlns="http://www.w3.org/2000/svg" viewBox="0 0 640 512"><!--! Font Awesome Pro 6.0.0-alpha3 by @fontawesome - https://fontawesome.com License - https://fontawesome.com/license (Commercial License) --><path d="M591.1 31.1H144c-26.51 0-48 21.49-48 48v256c0 26.51 21.49 48 48 48h447.1C618.5 384 640 362.5 640 336v-256C640 53.49 618.5 31.1 591.1 31.1zM367.1 304c-44.18 0-80-42.98-80-96s35.82-96 80-96s80 42.98 80 96S412.2 304 367.1 304zM512 480H120C53.83 480 0 426.2 0 360v-240C0 106.8 10.75 96 24 96S48 106.8 48 120v240c0 39.7 32.3 72 72 72H512c13.25 0 24 10.75 24 24S525.3 480 512 480z"/></svg>