<svg xmlns="http://www.w3.org/2000/svg" viewBox="0 0 640 512"><!--! Font Awesome Pro 6.0.0-alpha3 by @fontawesome - https://fontawesome.com License - https://fontawesome.com/license (Commercial License) --><path d="M544 0H96C42.98 0 0 42.98 0 96v64c0 17.67 14.33 32 32 32s32-14.33 32-32V96c0-17.67 14.33-32 32-32h448c17.67 0 32 14.33 32 32v64c0 17.67 14.33 32 32 32s32-14.33 32-32V96C640 42.98 597 0 544 0zM128 464C128 490.5 149.5 512 176 512h288c26.51 0 48-21.49 48-48V96H128V464zM320 208c53.02 0 96 35.82 96 80s-42.98 80-96 80c-53.02 0-96-35.82-96-80S266.1 208 320 208z"/></svg>