<svg xmlns="http://www.w3.org/2000/svg" viewBox="0 0 640 512"><!--! Font Awesome Pro 6.0.0-alpha3 by @fontawesome - https://fontawesome.com License - https://fontawesome.com/license (Commercial License) --><path d="M96 352c0 17.67 14.33 32 32 32s32-14.33 32-32s-14.33-32-32-32S96 334.3 96 352zM198.1 336H254.4C246.4 272.9 193.2 224 128 224c-70.69 0-128 57.31-128 128s57.31 128 128 128c65.21 0 118.4-48.95 126.4-112H198.1C190.8 400 162.2 424 128 424c-39.7 0-72-32.3-72-72S88.3 280 128 280C162.2 280 190.8 304 198.1 336zM512 224c-13.46 0-26.19 2.65-38.38 6.503L418.2 128H480c17.67 0 32-14.33 32-32V64c0-17.67-14.33-32-32-32h-20.41c-7.486 0-14.74 2.625-20.49 7.416l-47.42 39.51l-18.56-34.34C368.9 36.84 360.8 32 352 32H272C263.2 32 256 39.16 256 48V64c0 8.836 7.164 16 16 16h65.69L354.1 110.3L256 192H233.9L211.7 169.8C195.2 153.3 172.8 144 149.5 144H48C39.16 144 32 151.2 32 160v16C32 184.8 39.16 192 48 192H128c88.37 0 160 71.63 160 160c0 10.96-1.125 21.66-3.225 32h70.45C353.1 373.7 352 362.1 352 352c0-52.16 25.34-97.93 64.06-127l15.31 28.33C402.7 276.8 384 312 384 352c0 70.69 57.31 128 128 128s128-57.31 128-128S582.7 224 512 224zM512 424c-39.7 0-72-32.3-72-72c0-18.52 7.21-35.28 18.74-48.05l24.53 45.39c4.201 7.77 13.88 10.62 21.65 6.42l14.14-7.51c7.779-4.199 10.65-13.96 6.446-21.74l-24.54-45.4C504.6 280.5 508.2 280 512 280c39.7 0 72 32.3 72 72S551.7 424 512 424z"/></svg>