<svg xmlns="http://www.w3.org/2000/svg" viewBox="0 0 576 512"><!--! Font Awesome Pro 6.0.0-alpha3 by @fontawesome - https://fontawesome.com License - https://fontawesome.com/license (Commercial License) --><path d="M310.3 380.1c25.79-7.025 46.98-27.8 54.32-53.5C376.7 285.2 354.8 246 320 230.8V160h48C376.8 160 384 152.8 384 144v-32C384 103.2 376.8 96 368 96H320V64h48C376.8 64 384 56.84 384 48v-32C384 7.164 376.8 0 368 0H288C270.3 0 256 14.33 256 32v198.8C227.8 243.1 208 271.3 208 304C208 355.4 256.7 395.6 310.3 380.1zM16.75 367.9c28.76-2.5 56.01-11.38 79.39-25.88c29.15 17.86 64.68 26.23 99.81 25.6C183.4 349.5 176 327.7 176 304c0-.5527 .1543-1.061 .1621-1.611C154.6 299.8 133.1 292.5 118.4 279.6c-13.5-11.25-33.26-8.875-47.13 2C55.76 293.8 35.26 301.8 13.63 304C5.752 304.8 0 311.8 0 319.8v32.13C0 361 7.627 368.8 16.75 367.9zM562.2 447.9c-21.51-2.375-42.13-10.5-57.89-22.88c-14.13-11.13-34.26-11.26-48.26 0c-37.88 30.38-107.3 30.38-145.8-1.504c-13.5-11.25-33.01-9.129-46.63 1.754c-38.01 30.13-106.9 30-145.3-1.629c-13.5-11.25-33.26-8.879-47.13 2.004c-15.5 12.12-36.01 20.12-57.64 22.38C5.752 448.8 0 455.8 0 463.8v32.13c0 9.125 7.627 16.88 16.75 16c28.76-2.5 56.01-11.38 79.39-25.88c56.51 34.63 137 34.13 192 0c56.51 34.63 137 34.13 192 0c23.25 14.25 50.88 23.25 79.14 25.75c9.002 .875 16.63-6.875 16.63-16v-31.51C576.1 456.3 570.4 448.8 562.2 447.9zM562.2 303.9c-21.51-2.375-42.13-10.5-57.89-22.88c-14.13-11.12-34.26-11.25-48.26 0c-15.06 12.08-35.14 19.14-56.25 21.52C399.9 303 400 303.5 400 304c0 23.62-7.391 45.46-19.87 63.52c35.63 .7539 71.34-7.658 100.1-25.5c23.25 14.25 50.88 23.26 79.14 25.76c9.002 .875 16.63-6.875 16.63-16v-31.51C576.1 312.3 570.4 304.8 562.2 303.9z"/></svg>