<svg xmlns="http://www.w3.org/2000/svg" viewBox="0 0 640 512"><!--! Font Awesome Pro 6.0.0-alpha3 by @fontawesome - https://fontawesome.com License - https://fontawesome.com/license (Commercial License) --><path d="M608 32h-32l-13.26-13.26C550.7 6.74 534.5 0 517.5 0h-20.5c-11.21 0-22.22 2.926-31.95 8.489L311.1 96H255.1c-106 0-191.1 85.96-191.1 192L63.99 289.6c0 32.69-15.86 62.12-39.4 84.79c-18.29 17.61-28.21 43.61-23.36 71.75C7.918 485 44.06 512 83.49 512H191.1c17.63 0 32-14.38 32-32s-14.38-32-32-32H79.99c-8.875 0-16-7.125-16-16S71.12 416 79.99 416h224c8.875 0 16-7.125 16-16c0-26.4-21.6-48-48-48H223.1l149.5-80.5L447.1 416h80c8.875 0 16-7.125 16-16c0-26.4-21.6-48-48-48h-12.25l-55.12-110.3L521.1 192h22.88c53.02 0 96-42.98 96-96l.0002-32C640 46.4 625.6 32 608 32zM511.1 48c8.875 0 16 7.125 16 16s-7.125 16-16 16c-8.875 0-16-7.125-16-16S503.1 48 511.1 48zM543.1 144h-35l-101.8 54.88l-13.88-27.62L511.1 112h77C582.4 130.6 564.9 144 543.1 144z"/></svg>