<svg xmlns="http://www.w3.org/2000/svg" viewBox="0 0 384 512"><!--! Font Awesome Pro 6.0.0-alpha3 by @fontawesome - https://fontawesome.com License - https://fontawesome.com/license (Commercial License) --><path d="M352 127.1v208c0 102.8-88.67 185.4-193.6 175.1C66.99 502.2 0 420 0 328.2V208C0 199.2 7.164 192 16 192h32C56.84 192 64 199.2 64 208v124.8c0 53.45 36.12 102.1 88.47 112.8C224.5 460.3 288 405.4 288 336V131.6c0-31.89-21.72-61.51-53.19-66.69C194.8 58.3 160 89.16 160 128v176C160 312.8 167.2 320 176 320S192 312.8 192 304v-160C192 135.2 199.2 128 208 128h32C248.8 128 256 135.2 256 144v155.3c0 41.84-30.01 80.05-71.64 84.3C136.5 388.5 96 350.9 96 304V133.7C96 66.89 144.7 7.113 211.2 .625C287.5-6.818 352 53.2 352 127.1z"/></svg>