<svg xmlns="http://www.w3.org/2000/svg" viewBox="0 0 512 512"><!--! Font Awesome Pro 6.0.0-alpha3 by @fontawesome - https://fontawesome.com License - https://fontawesome.com/license (Commercial License) --><path d="M460.7 249.6C466.6 253.9 473.2 256 479.1 256c9.752 0 19.26-4.387 25.63-12.76c10.63-14.12 7.742-34.23-6.385-44.85l-111.5-83.48c-13.75-10.25-29.04-18.42-45.42-23.79l-63.66-21.23L252.5 17.77C244.7 2.017 225.4-4.375 209.7 3.5C193.8 11.38 187.4 30.63 195.3 46.38L224.4 104.5C230.2 115.9 239.1 124.4 252.1 128.5l16.45 5.522L227.3 154.6c-21.75 10.88-35.39 32.82-35.39 57.19V264.9L117.8 289.6c-16.75 5.625-25.79 23.63-20.17 40.5c1.625 5.125 4.915 9.388 8.665 12.89l-38.68-14.14c-9.752-3.5-17.48-10.62-21.85-19.1c-5.625-12-19.88-17.12-31.89-11.62c-12 5.625-17.24 19.96-11.62 31.96c9.877 21 27.13 36.89 48.89 44.76l364.1 132.8C425.7 510.2 435.7 512 445.7 512c12.5 0 25-2.732 36.5-8.232c12-5.5 17.23-19.88 11.6-31.88c-5.627-12-19.81-17.1-31.81-11.6c-9.252 4.5-19.87 4.837-29.62 1.337l-90.68-33.12c8.625-4.125 15.53-11.76 17.78-21.89l21.88-101.1c3.877-18.25-3.114-37.27-18.12-48.4l-52.01-39l66.01-30.5L460.7 249.6zM316.3 301.3l-19.66 92c-1.5 7.125-.1348 13.92 2.74 19.92l-169.5-61.49c2.625-.25 5.492-.4443 8.117-1.319l85-28.38c19.63-6.5 32.77-24.75 32.77-45.5v-20.5L316.3 301.3zM431.9 95.99c26.5 0 48-21.5 48-47.1S458.4 0 431.9 0c-26.5 0-48 21.5-48 47.1S405.4 95.99 431.9 95.99z"/></svg>