<svg xmlns="http://www.w3.org/2000/svg" viewBox="0 0 448 512"><!--! Font Awesome Pro 6.0.0-alpha3 by @fontawesome - https://fontawesome.com License - https://fontawesome.com/license (Commercial License) --><path d="M399.1 0c-26.5 0-48.01 21.5-48.01 48S373.5 96 399.1 96C426.5 96 448 74.5 448 48S426.5 0 399.1 0zM399.1 448c-8.751 0-16 7.25-16 16S376.7 480 367.1 480h-96.01c-8.751 0-16 7.25-16 16s7.251 16 16 16h96.01c26.5 0 48.01-21.5 48.01-48C415.1 455.2 408.7 448 399.1 448zM117.7 456.6c-6.126 6.125-16.38 6.25-22.5 0l-67.98-67.89c-6.126-6.25-16.41-6.25-22.53 0c-6.251 6.125-6.251 16.41 0 22.53l67.88 67.98c9.376 9.375 21.59 14 33.96 14c12.25 0 24.63-4.75 33.88-14c6.251-6.25 6.251-16.5 0-22.62C134.2 450.4 124.1 450.2 117.7 456.6zM173.8 276.8L80.2 370.5c-12.5 12.5-12.5 32.75 0 45.25c6.126 6.125 14.38 9.375 22.5 9.375c8.251 0 16.5-3.125 22.63-9.375l91.89-92L187.1 293.6C182.1 288.6 177.7 282.9 173.8 276.8zM127.1 160h105.5L213.3 177.3c-13.5 11.5-21.63 28.38-22.25 46C190.3 241.1 197.2 258.5 209.7 271l78.26 78.25V432c0 17.75 14.25 32 32 32s32-14.25 32-32v-89.38c0-12.62-5.126-25-14.13-33.88L276.9 247.8c.5001-.5 1.25-.625 1.75-1.125l82.26-82.37c11.5-11.5 14.88-28.5 8.751-43.5c-6.251-15-20.75-24.72-37.01-24.72L127.1 96C110.2 96 95.96 110.2 95.96 128S110.2 160 127.1 160z"/></svg>