<svg xmlns="http://www.w3.org/2000/svg" viewBox="0 0 512 512"><!--! Font Awesome Pro 6.0.0-alpha3 by @fontawesome - https://fontawesome.com License - https://fontawesome.com/license (Commercial License) --><path d="M510.7 190.2c-2.25-13.12-14.86-21.98-27.73-19.73c-13.13 2.25-21.86 14.61-19.73 27.73c3.375 19.25-6.034 38.95-22.03 48.08l-267.2 137.4l44.89-108.1l121.4-110.5c11.5-11.5 14.98-28.52 8.732-43.52s-20.75-24.74-36.1-24.74H127.1c-17.75 0-32 14.24-32 31.99S110.2 160 127.1 160h97.5L166.6 236.5c-3.375 4.375 .1539-3.646-60.22 143.2c-5.125 12.5-1.788 26.24 7.337 34.99l-100.7 52.04c-11.75 6-16.37 20.54-10.25 32.29C6.957 507.3 15.32 512 24.07 512c3.625 0 7.459-.8581 10.96-2.733l429.2-220.9C498.6 268.8 517.2 229.2 510.7 190.2zM399.1 96c26.5 0 48-21.5 48-48S426.5 0 399.1 0s-48 21.5-48 48S373.5 96 399.1 96z"/></svg>