<svg xmlns="http://www.w3.org/2000/svg" viewBox="0 0 576 512"><!--! Font Awesome Pro 6.0.0-alpha3 by @fontawesome - https://fontawesome.com License - https://fontawesome.com/license (Commercial License) --><path d="M192.4 320c25.17 0 47.62-8.539 58.58-22.28C259.8 286.6 273.2 280.1 287.7 280c14.48 .125 28.44 6.592 37.33 17.73c10.96 13.75 33.41 22.29 58.58 22.29c24.73 0 47.47-8.492 59.35-22.16c.8672-.998 1.93-1.746 2.861-2.668l-140.4-116.1c2.086-1.07 4.041-2.324 6.188-3.307c32.97-15.11 70.84-18.83 106.6-10.69l38.59 8.844c17.19 3.984 34.38-6.812 38.34-24.05c3.938-17.22-6.812-34.39-24.03-38.33l-38.59-8.844c-49.5-11.33-101.9-6.062-147.6 14.88C251.4 132.1 222.5 155.5 201.8 184L179.1 213.3C158.1 241.3 147.4 273.8 145 307.7C157.5 315.4 174.3 320 192.4 320zM95.1 224c35.35 0 64-28.65 64-64c0-35.35-28.65-64-64-64s-64 28.65-64 64C31.1 195.3 60.65 224 95.1 224zM562.4 368.4c-28.43-2.992-54.76-15.52-70.54-34.71c-6.451-7.852-18.08-6.516-24.75 1.156c-39.09 44.1-131.2 43.85-167.1-1.156c-2.996-3.758-7.533-5.652-12.03-5.691c-4.5 .0391-9.01 1.934-12.01 5.691c-6.002 7.523-13.96 13.36-22.59 18.42c-1.842 1.082-3.777 2.047-5.697 3.029c-43.21 21.62-107.7 15.57-138.8-20.29c-6.664-7.672-18.3-9.008-24.75-1.156c-15.77 19.19-42.11 31.72-70.54 34.71C5.688 369.2 0 376.2 0 384v32.03c.002 9.051 7.637 16.68 16.71 15.89c28.8-2.488 56.11-11.33 79.41-25.75c56.49 34.39 136.9 33.91 191.9 .0781c54.1 33.84 135.4 34.31 191.9-.0781c23.3 14.42 50.61 23.27 79.41 25.75C568.4 432.7 575.1 425.1 576 416v-32.03C576 376.2 570.3 369.2 562.4 368.4z"/></svg>