<svg xmlns="http://www.w3.org/2000/svg" viewBox="0 0 512 512"><!--! Font Awesome Pro 6.0.0-alpha3 by @fontawesome - https://fontawesome.com License - https://fontawesome.com/license (Commercial License) --><path d="M432.1 96.02c26.51 0 47.98-21.5 47.98-48.01S458.6 0 432.1 0c-26.51 0-47.98 21.5-47.98 48.01S405.6 96.02 432.1 96.02zM505.1 452.2c-9.377-9.377-24.58-9.41-33.83-.0332c-12.13 12.13-30.5 15.48-45.13 8.727l-135.8-70.26l49.15-73.82c12.75-19 10.25-44.53-5.999-60.54l-40.38-40.49L186.1 162.7C183.2 182.5 189.4 202.7 203.8 217l75.03 75.21l-45.88 68.76L34.97 258.8C23.21 252.8 8.71 257.3 2.708 269.1C-3.418 280.8 1.208 295.3 12.96 301.3l392 202.6C416.9 509.4 429.5 512 442.1 512c23.25 0 45.97-9.002 62.97-26.01C514.3 476.7 514.3 461.4 505.1 452.2zM119.1 91.65L108.5 114.2c14.38 7.252 31.26 4.876 42.76-4.876l47.26 23.51c-.125 0-.125 .125-.2501 .25l114.5 56.76l32.51-13l6.376 19.13c4.001 12.13 12.63 22.01 24 27.76l58.14 28.1c15.88 7.877 35.04 1.496 42.91-14.38c7.877-15.75 1.471-35.01-14.41-42.89l-52.03-26.1l-17.12-51.15c-8.127-24.26-40.86-56.61-84.49-39.23L227.4 111.3l-62.48-30.1C165.2 65.83 157.7 51.76 143.1 44.76L132.9 66.45L98.23 59.45C96.48 59.08 94.6 59.7 93.23 61.2C91.35 63.33 91.6 66.7 93.73 68.58L119.1 91.65z"/></svg>