<svg xmlns="http://www.w3.org/2000/svg" viewBox="0 0 640 512"><!--! Font Awesome Pro 6.0.0-alpha3 by @fontawesome - https://fontawesome.com License - https://fontawesome.com/license (Commercial License) --><path d="M400 96C426.5 96 448 74.5 448 48S426.5 0 400 0S352 21.5 352 48S373.5 96 400 96zM172.8 170.1C178.4 177 188.1 178 194.5 172.4L298.8 83.5c6.375-5.5 7-15.5 1.375-22.38C272 27.25 223.2 22.12 191.4 49.88L133.3 98.63C126.9 104.2 126.2 114.1 131.9 121L172.8 170.1zM240 352H234.8c-2.125-7.25-4.1-14.25-8.625-20.88l3.75-3.625c6.25-6.25 6.25-16.5 0-22.75L207.3 282.1c-6.25-6.25-16.5-6.25-22.75 0L180.9 285.9C174.2 282.2 167.2 279.4 160 277.3V272C160 263.1 152.9 256 144 256h-32C103.1 256 96 263.1 96 272v5.25c-7.25 2.125-14.25 4.1-20.88 8.625L71.5 282.1c-6.25-6.25-16.48-6.25-22.72 0L26.15 304.8c-6.25 6.25-6.25 16.5 0 22.75l3.725 3.625C26.25 337.8 23.38 344.8 21.25 352H16C7.125 352 0 359.1 0 368v32C0 408.9 7.125 416 16 416h5.25c2.125 7.25 4.1 14.25 8.625 20.88L26.12 440.5c-6.25 6.25-6.25 16.5 0 22.75l22.63 22.62c6.25 6.25 16.47 6.25 22.72 0l3.65-3.75C81.75 485.8 88.75 488.6 96 490.8V496C96 504.9 103.1 512 112 512h32C152.9 512 160 504.9 160 496v-5.25c7.25-2.125 14.25-4.1 20.88-8.625l3.675 3.75c6.25 6.25 16.45 6.25 22.7 0l22.62-22.62c6.25-6.25 6.25-16.5 0-22.75l-3.75-3.625C229.8 430.2 232.6 423.2 234.8 416H240C248.9 416 256 408.9 256 400v-32C256 359.1 248.9 352 240 352zM128 448c-35.38 0-64-28.62-64-64s28.62-64 64-64s64 28.62 64 64S163.4 448 128 448zM624 352h-5.25c-2.125-7.25-5-14.25-8.625-20.88l3.75-3.625c6.25-6.25 6.25-16.5 0-22.75l-22.62-22.62c-6.25-6.25-16.5-6.25-22.75 0l-3.625 3.75C558.3 282.2 551.3 279.4 544 277.3V272C544 263.1 536.9 256 528 256h-32C487.1 256 480 263.1 480 272v5.25c-7.25 2.125-14.25 4.1-20.88 8.625L455.5 282.1c-6.25-6.25-16.4-6.25-22.65 0l-22.6 22.62c-6.25 6.25-6.25 16.5 0 22.75l3.625 3.625C410.2 337.8 407.4 344.8 405.3 352H400c-8.875 0-16 7.125-16 16v32c0 8.875 7.125 16 16 16h5.25c2.125 7.25 4.1 14.25 8.625 20.88l-3.75 3.625c-6.25 6.25-6.25 16.5 0 22.75l22.62 22.62c6.25 6.25 16.47 6.25 22.73 0l3.65-3.75C465.8 485.8 472.8 488.6 480 490.8V496c0 8.875 7.125 16 16 16h32c8.875 0 16-7.125 16-16v-5.25c7.25-2.125 14.25-4.1 20.88-8.625l3.75 3.75c6.25 6.25 16.38 6.25 22.62 0l22.62-22.62c6.25-6.25 6.25-16.5 0-22.75l-3.75-3.625C613.8 430.2 616.6 423.2 618.8 416H624c8.875 0 16-7.125 16-16v-32C640 359.1 632.9 352 624 352zM512 448c-35.38 0-64-28.62-64-64s28.62-64 64-64s64 28.62 64 64S547.4 448 512 448zM396 217C401.6 221.5 408.8 224 416 224h64c17.62 0 32-14.38 32-32s-14.38-32-32-32h-52.75L356 103c-12-9.625-29.12-9.375-40.75 .625l-112 96c-7.625 6.625-11.75 16.25-11.12 26.25c.5 10 5.75 19.12 14.12 24.75L288 305.1V416c0 17.62 14.38 32 32 32s32-14.38 32-32V288c0-10.75-5.375-20.62-14.25-26.62L296.4 233.8l58.25-49.88L396 217z"/></svg>