<svg xmlns="http://www.w3.org/2000/svg" viewBox="0 0 640 512"><!--! Font Awesome Pro 6.0.0-alpha3 by @fontawesome - https://fontawesome.com License - https://fontawesome.com/license (Commercial License) --><path d="M239.1 96c26.5 0 47.1-21.5 47.1-48S266.5 0 239.1 0c-26.5 0-47.1 21.5-47.1 48S213.5 96 239.1 96zM636.8 446.4l-9.55-12.78c-5.375-7.125-15.33-8.475-22.45-3.225L570.7 456c-7 5.25-15.37 8-23.1 8h-.7256l-46.01-61.25l68.89-45.98c4.5-3 7.113-8.024 7.113-13.27V266c0-6.125-3.4-11.65-8.775-14.28L407.9 172l-41.52-83.13c-4-7.875-13.49-11.16-21.49-7.161c-7.875 4-11.16 13.49-7.161 21.49l35.56 71.19L359.1 192h-58.72L245.1 136.8C231.5 122.3 210.7 115.6 190.5 118.9C170.2 122.3 152.7 135.1 143.5 153.4L113.7 213.1C106.1 228.4 104.7 245.8 110.2 262c3.375 10.25 9.325 18.81 16.83 26.06L95.1 288.1c-12.12 0-23.24 6.825-28.61 17.7l-31.1 64C24.76 391 40.25 416 63.1 416h385.1l36 48h-53.99c-8.75 0-15.1 7.25-15.1 16l.0026 16c0 8.75 7.249 16 15.1 16h114.7c18.1 0 37.52-6.237 52.77-17.61l34.11-25.61C640.7 463.5 642.1 453.5 636.8 446.4zM287.1 288h-24.39L196.6 254.5L222.2 203.4l33.89 33.89c12.12 12.12 28.16 18.84 45.16 18.84h10.73L287.1 288zM287.1 448H32c-17.75 0-32 14.25-32 32s14.25 32 32 32h255.1c17.75 0 32-14.25 32-32S305.7 448 287.1 448z"/></svg>