<svg xmlns="http://www.w3.org/2000/svg" viewBox="0 0 512 512"><!--! Font Awesome Pro 6.0.0-alpha3 by @fontawesome - https://fontawesome.com License - https://fontawesome.com/license (Commercial License) --><path d="M111.1 127.1c26.5 0 48.01-21.49 48.01-47.99S138.5 31.99 111.1 31.99S63.96 53.48 63.96 79.98S85.47 127.1 111.1 127.1zM255.1 0H223.1L223.1 183.9L255.1 175.9L255.1 0zM488 287.9c-13.25 0-24 10.74-24 23.99c0 13.88-8.769 26.51-21.77 31.26l-122.4 45.32V248c0-9.875-4.546-19.22-12.3-25.22c-7.876-6-17.99-8.273-27.49-5.773L211.8 234L187.7 180.3C176.8 156.2 148.4 145.3 124.2 156.3c-24.13 10.88-35.05 39.23-24.04 63.48c0 0 26.92 65.9 27.79 68.03c7.876 19.12 22.76 27.58 39.76 23.33l88.2-22.11v123.2l-144.3 53.2c-12.5 4.625-18.88 18.47-14.25 30.85C101 506 110.1 512 119.9 512c2.75 0 5.689-.4998 8.315-1.5l330.6-122.2c31.88-11.75 53.22-42.49 53.22-76.36C511.1 298.7 501.3 287.9 488 287.9zM191.6 381.3c12.63-4.125 19.42-17.75 15.17-30.37c-4.126-12.62-17.64-19.48-30.39-15.23l-18.39 6.231c-19 6.375-39.99-2.478-48.74-20.73L45.69 188.2C39.94 176.3 25.68 171.2 13.68 176.9C1.68 182.7-3.305 196.9 2.321 208.9l63.64 132.1c15 31.25 46.38 49.99 79.51 49.99C158.1 391.9 162.5 391 191.6 381.3z"/></svg>