<svg xmlns="http://www.w3.org/2000/svg" viewBox="0 0 512 512"><!--! Font Awesome Pro 6.0.0-alpha3 by @fontawesome - https://fontawesome.com License - https://fontawesome.com/license (Commercial License) --><path d="M505 420.1c-9.377-9.375-24.6-9.408-33.85-.0332c-12.13 12.12-30.53 15.48-45.16 8.725l-49.12-25.42c4.251-5.375 7.232-11.85 7.232-19.35l-.0004-96.02c0-17.75-14.37-32-32-32h-50.86l46.12-46.12c13.88-13.75 17.87-34.26 10.37-52.26c-7.502-18-24.88-29.63-44.26-29.63H160c-17.75 0-32 14.25-32 32s14.25 32 32 32h82.78L169.4 265.4C166.4 268.3 164.1 271.9 162.5 275.8C160.4 280.9 160.1 286.2 160.7 291.7L34.98 226.7c-11.75-6-26.29-1.466-32.29 10.28C-3.43 248.8 1.229 263.3 12.98 269.3l391.9 202.6C416.8 477.4 429.4 480 442 480c23.25 0 46.02-9.002 63.02-26C514.3 444.6 514.3 429.4 505 420.1zM320 374L215.6 320l104.5 .0202L320 374zM400 128c26.51 0 48.01-21.5 48.01-48S426.5 32 400 32c-26.51 0-48.01 21.5-48.01 48S373.5 128 400 128z"/></svg>