<svg xmlns="http://www.w3.org/2000/svg" viewBox="0 0 640 512"><!--! Font Awesome Pro 6.0.0-alpha3 by @fontawesome - https://fontawesome.com License - https://fontawesome.com/license (Commercial License) --><path d="M630.8 469.1l-139.4-109.3l64.22 18.35C565.8 381.1 576 373.4 576 362.8v-65.5c0-5.719-3.078-11.03-8.062-13.88L384 178.3V96C384 60.66 355.3 0 320 0S256 60.66 256 96V175.3L38.81 5.109C34.41 1.672 29.19 0 24.03 0C16.91 0 9.844 3.156 5.126 9.188c-8.188 10.44-6.375 25.53 4.062 33.7l591.1 463.1c10.5 8.203 25.56 6.328 33.69-4.078C643.1 492.4 641.2 477.3 630.8 469.1zM72.06 283.4C67.61 285.9 64 292.2 64 297.3v65.5c0 10.62 10.17 18.31 20.39 15.38L256 329.1v70.88l-57.59 43.19C194.4 446.2 192 450.1 192 456v40c0 10.41 9.781 18.03 19.88 15.5L320 480l108.1 31.5C438.2 514 448 506.4 448 496v-48.21L168.2 228.5L72.06 283.4z"/></svg>