<svg xmlns="http://www.w3.org/2000/svg" viewBox="0 0 640 512"><!--! Font Awesome Pro 6.0.0-alpha3 by @fontawesome - https://fontawesome.com License - https://fontawesome.com/license (Commercial License) --><path d="M32.5 147.9L63.1 256L32.5 364.1c-2.531 10.09 5.094 19.87 15.5 19.87H87.1c5.031 0 9.781-2.375 12.81-6.406L143.1 319.1h102.9l-49.03 171.6c-2.938 10.22 4.747 20.41 15.37 20.41h65.5c5.719 0 11.03-3.079 13.87-8.063l70.23-122.9L41.82 129.5C34.87 132.4 30.51 139.1 32.5 147.9zM630.8 469.1l-190.2-149.1h71.43c35.34 0 96-28.66 96-63.1s-60.66-63.1-96-63.1h-114.3L292.6 8.065c-2.562-4.453-8.781-8.063-13.91-8.063H213.2c-10.62 0-18.31 10.17-15.37 20.39L238.1 161.3L38.81 5.109C34.41 1.672 29.19 0 24.03 0C16.91 0 9.845 3.156 5.126 9.187c-8.187 10.44-6.375 25.53 4.062 33.7l591.1 463.1c10.5 8.203 25.56 6.328 33.69-4.078C643.1 492.4 641.2 477.3 630.8 469.1z"/></svg>