<svg xmlns="http://www.w3.org/2000/svg" viewBox="0 0 576 512"><!--! Font Awesome Pro 6.0.0-alpha3 by @fontawesome - https://fontawesome.com License - https://fontawesome.com/license (Commercial License) --><path d="M576 256c0 35.34-60.66 64-96 64h-132.6l-9.143 64H368l-.0021-16c0-8.838 7.164-16 16-16s16 7.162 16 16v32c8.836 0 16 7.162 16 16c0 8.836-7.165 16-16 16v32c0 8.836-7.164 16-16 16s-16-7.164-16-16L368 448h-38.86l-7.18 50.26C320.8 506.1 314.1 512 306.1 512H269.9c-7.963 0-14.71-5.855-15.84-13.74L246.9 448H224c-17.67 0-32-14.33-32-32c0-17.67 14.33-32 32-32h13.71L227.9 314.1L120.8 306.1L110.8 376.2C110.2 380.7 106.3 384 101.8 384H58.21c-4.549 0-8.406-3.346-9.051-7.85L36.57 288H32C14.33 288 0 273.7 0 256c0-17.67 14.33-32 32-32h4.572L49.16 135.8C49.81 131.3 53.67 128 58.21 128h43.57C106.3 128 110.2 131.3 110.8 135.8l10.01 70.08l107-8.918L237.7 128H224C206.3 128 192 113.7 192 96c0-17.67 14.33-32 32-32h22.86l7.18-50.26C255.2 5.854 261.9 0 269.9 0h36.25c7.963 0 14.72 5.854 15.84 13.74L329.1 64H368l-.0021-16c0-8.838 7.164-16 16-16s16 7.162 16 16v32c8.836 0 16 7.162 16 16c0 8.836-7.165 16-16 16v32c0 8.836-7.164 16-16 16s-16-7.164-16-16L368 128h-29.71l9.143 64h132.6C515.3 192 576 220.7 576 256z"/></svg>