<svg xmlns="http://www.w3.org/2000/svg" viewBox="0 0 448 512"><!--! Font Awesome Pro 6.0.0-alpha3 by @fontawesome - https://fontawesome.com License - https://fontawesome.com/license (Commercial License) --><path d="M400 464H384V88C384 74.75 373.3 64 360 64h-8.006V48c0-8.875-7.125-16-16-16H240V16C240 7.125 232.9 0 224 0S208 7.125 208 16V32h-96C103.1 32 96 39.13 96 48V64H88C74.75 64 64 74.75 64 88V464H48C39.13 464 32 471.1 32 480v16C32 504.9 39.13 512 48 512h352c8.875 0 16-7.125 16-16V480C416 471.1 408.9 464 400 464zM128 136C128 131.6 131.6 128 136 128H160v32H128V136zM128 176h32v32H136C131.6 208 128 204.4 128 200V176zM208 312C208 316.4 204.4 320 200 320h-64C131.6 320 128 316.4 128 312v-64C128 243.6 131.6 240 136 240h64c4.375 0 8 3.625 8 8V312zM208 200c0 4.375-3.625 8-8 8H176v-32h32V200zM208 160h-32V128h24C204.4 128 208 131.6 208 136V160zM272 208h-24c-4.375 0-8-3.625-8-8V176h32V208zM272 160h-32V136C240 131.6 243.6 128 248 128h24V160zM320 200c0 4.375-3.625 8-8 8H288v-32h32V200zM320 160h-32V128h24C316.4 128 320 131.6 320 136V160z"/></svg>