<svg xmlns="http://www.w3.org/2000/svg" viewBox="0 0 512 512"><!--! Font Awesome Pro 6.0.0-alpha3 by @fontawesome - https://fontawesome.com License - https://fontawesome.com/license (Commercial License) --><path d="M512 288c0 35.35-21.49 64-48 64c-13.88 0-26.28-7.945-34.1-20.54C424.2 324.6 416.8 320 408.4 320C394.9 320 384 330.9 384 344.4V480c0 17.67-14.33 32-32 32h-71.64C266.9 512 256 501.1 256 487.6c0-8.398 4.555-15.87 11.46-20.64C280.1 458.3 288 445.9 288 432c0-26.51-28.65-48-64-48s-64 21.49-64 48c0 13.88 7.943 26.28 20.54 34.1C187.4 471.8 192 479.2 192 487.6C192 501.1 181.1 512 167.6 512H32c-17.67 0-32-14.33-32-32v-135.6C0 330.9 10.91 320 24.36 320c8.396 0 15.87 4.555 20.64 11.46C53.72 344.1 66.12 352 80 352C106.5 352 128 323.3 128 288S106.5 223.1 80 223.1c-13.88 0-26.28 7.943-34.1 20.54C40.22 251.4 32.76 255.1 24.36 255.1C10.91 255.1 0 245.1 0 231.6v-71.64c0-17.67 14.33-31.1 32-31.1h135.6C181.1 127.1 192 117.1 192 103.6c0-8.398-4.555-15.87-11.46-20.64C167.9 74.28 160 61.88 160 47.1c0-26.51 28.65-47.1 64-47.1s64 21.49 64 47.1c0 13.88-7.943 26.28-20.54 34.1C260.6 87.78 256 95.24 256 103.6c0 13.45 10.91 24.36 24.36 24.36H352c17.67 0 32 14.33 32 31.1v71.64c0 13.45 10.91 24.36 24.36 24.36c8.396 0 15.87-4.555 20.64-11.46C437.7 231.9 450.1 223.1 464 223.1C490.5 223.1 512 252.7 512 288z"/></svg>