<svg xmlns="http://www.w3.org/2000/svg" viewBox="0 0 640 512"><!--! Font Awesome Pro 6.0.0-alpha3 by @fontawesome - https://fontawesome.com License - https://fontawesome.com/license (Commercial License) --><path d="M93.25 257.7c-22 17.5-40.25 55.75-54.63 97.49l60.38-22.12c5.75-2.125 10.62 4.75 6.625 9.498L11 454.7C3.75 487.1 0 510.2 0 510.2s206.8 13.5 266.6-34.12c60-47.75 76.63-150.1 76.63-150.1L256.5 216.8C256.5 216.8 153.1 209.9 93.25 257.7zM636.5 31.01l-19.75-24.1c-5.5-6.875-15.5-8-22.5-2.625l-232.5 177.9l-34-42.1c-5.125-6.375-15.12-5.125-18.62 2.25L283.8 195.1l86.75 109.1l58.75-12.38c8-1.625 11.5-11.12 6.375-17.62l-34.13-42.87l232.5-177.9C640.9 48.01 642 37.89 636.5 31.01zM495.1 351.1c-44.18 0-79.1 35.72-79.1 79.9s35.82 80.09 79.1 80.09c44.18 0 79.1-35.91 79.1-80.09S540.2 351.1 495.1 351.1z"/></svg>