<svg xmlns="http://www.w3.org/2000/svg" viewBox="0 0 640 512"><!--! Font Awesome Pro 6.0.0-alpha3 by @fontawesome - https://fontawesome.com License - https://fontawesome.com/license (Commercial License) --><path d="M11.86 420.5c-12.79 9.139-15.62 26.9-6.585 39.47l28.51 40.01c9.065 12.88 26.87 15.67 39.23 6.956l111.7-75.56l-62.56-88.23L11.86 420.5zM615.5 59.71c-55.24-77.88-182.9-78.83-283.4-7.583c-57.37 40.63-94.64 96.3-106.9 151.1c-10.1 49.5-34.89 94.6-67.51 132.7l45.62 64.5c87.49-33.63 144.4-18.62 171.1-18.62c49.49 0 104.3-17.28 153.5-52.15C630.8 257.3 669.7 136.5 615.5 59.71zM569.7 176.7c-23.87 74.38-110.8 141.2-194.1 141.2c-70.49 0-105.3-46.75-84.04-112.9c16.37-51.13 88.75-141 195.1-141C556.5 64 591.1 110.7 569.7 176.7z"/></svg>