<svg xmlns="http://www.w3.org/2000/svg" viewBox="0 0 512 512"><!--! Font Awesome Pro 6.0.0-alpha3 by @fontawesome - https://fontawesome.com License - https://fontawesome.com/license (Commercial License) --><path d="M448 256h64c0 141.4-114.6 256-256 256s-256-114.6-256-256s114.6-256 256-256c62.05 0 118.6 22.38 162.9 59.14l52.11-52.11c9.375-9.375 24.56-9.375 33.94 0s9.375 24.56 0 33.94l-190 190C318.2 238.7 320 247.1 320 256c0 35.35-28.65 64-64 64S192 291.3 192 256c0-35.35 28.65-64 64-64c8.869 0 17.31 1.811 24.99 5.072l23.31-23.31C290.1 165.3 273.7 160 256 160C203.1 160 160 203.1 160 256s43.07 96 96 96c52.94 0 96-43.06 96-96h64c0 76.67-53.1 140.6-125.1 156.2C283.1 400.3 270.7 392 256 392s-27.07 8.346-34.01 20.2c-58.73-12.74-104.9-57.82-120.1-115.6C112.5 289.4 120 277.8 120 264c0-15.21-8.805-27.99-21.3-34.75C111.5 153.7 176.8 96 256 96c35.53 0 68.09 11.84 94.57 31.49l22.83-22.83C340.9 79.34 300.3 64 256 64C160.1 64 80.64 134.7 66.47 226.7C51.11 232.3 40 246.7 40 264c0 18.47 12.77 33.34 29.79 37.94c17.72 71.77 75.72 127.8 148.7 142.3C223.7 460.3 238.3 472 256 472s32.29-11.74 37.53-27.74C381.5 426.8 448 349 448 256z"/></svg>