<svg xmlns="http://www.w3.org/2000/svg" viewBox="0 0 640 512"><!--! Font Awesome Pro 6.0.0-alpha3 by @fontawesome - https://fontawesome.com License - https://fontawesome.com/license (Commercial License) --><path d="M624.3 100.8l-53.11-53.11C561.2 37.63 547.6 31.1 533.4 31.1L456.1 32C435.6 12.32 407.3 0 376 0c-52.46 0-96.69 34.05-112.1 81.05C246.7 83.42 232.3 91.71 222.4 104C213.3 99.06 203.1 96 192 96C171.9 96 154.1 105.5 142.4 120C133.3 115.1 123.1 112 112 112c-35.35 0-64 28.65-64 64c0 6.082 1.119 11.85 2.705 17.42C21.75 199.5 0 225.2 0 256s21.75 56.45 50.71 62.58C49.12 324.2 48 329.9 48 336c0 35.35 28.65 64 64 64c1.053 0 2.015-.31 3.056-.3607l38.91 97.27C157.6 506 166.4 512 176.2 512h23.75C213.3 512 224 501.3 224 487.1v-78.07C235.7 423.3 252.8 432 271.1 432S308.3 423.3 320 409.9v78.07C320 501.3 330.7 512 343.1 512h23.75c9.812 0 18.64-5.975 22.29-15.09l38.91-97.27C429.1 399.7 430.9 400 432 400c35.35 0 64-28.65 64-64c0-6.082-1.119-11.85-2.705-17.42C522.3 312.5 543.1 286.8 543.1 256c0-30.42-21.27-55.77-49.72-62.27C494.1 193.1 493.9 192.6 493.7 192l92.83-.0007c20.24 0 38.75-11.44 47.8-29.54C644.6 141.9 640.6 117 624.3 100.8zM426.4 96c-9.295-19.41-29.28-32.78-52.39-31.96c-29.21 1.033-53.47 25.74-53.99 54.96C319.5 150.3 344.8 176 376 176h16c8.837 0 16 7.163 16 15.1S400.8 208 392 208h-13.43c-45.8 0-85.89-33.93-90.17-79.53C283.5 76.14 324.7 32 376 32c40.16 0 73.73 27.18 84.25 64H426.4zM511.1 111.1c-8.836 0-16-7.164-16-16s7.164-16 16-16c8.836 0 15.1 7.164 15.1 16S520.8 111.1 511.1 111.1z"/></svg>