<svg xmlns="http://www.w3.org/2000/svg" viewBox="0 0 384 512"><!--! Font Awesome Pro 6.0.0-alpha3 by @fontawesome - https://fontawesome.com License - https://fontawesome.com/license (Commercial License) --><path d="M288 320H96l-84.43 168.9C6.258 499.5 13.99 512 25.88 512h332.2c11.89 0 19.62-12.51 14.31-23.15L288 320zM352 0H32C14.25 0 0 14.25 0 32v320c0 16.5 12.62 29.5 28.62 31.25L63 314.5C63.25 313.9 63.75 313.5 64 313V64h256v249c.25 .5 .75 1 1 1.5l34.38 68.75C371.4 381.5 384 368.4 384 352V32C384 14.25 369.8 0 352 0z"/></svg>