<svg xmlns="http://www.w3.org/2000/svg" viewBox="0 0 512 512"><!--! Font Awesome Pro 6.0.0-alpha3 by @fontawesome - https://fontawesome.com License - https://fontawesome.com/license (Commercial License) --><path d="M505.1 19.25c-1.125-5.375-6.1-11.25-12.37-12.37C460.6 0 435.5 0 410.4 0c-103.1 0-165.2 55.25-211.3 128H94.92C78.67 128 59.3 139.9 52.05 154.5L2.65 253.2C1.025 256.6 .35 260.2 .1 264C.225 277.2 10.77 288 24.15 288h103.9c52.1 0 95.99 43 95.99 96l-.0125 104c0 13.25 10.75 24 23.1 24c3.75-.125 7.375-1.05 10.75-2.55l98.69-49.38c14.5-7.375 26.5-26.58 26.5-42.83V312.8c72.5-46.25 127.1-108.4 127.1-211C512.1 76.5 512.1 51.38 505.1 19.25zM383.1 168c-21.1 0-39.1-17.88-39.1-40c.125-22.12 17.94-40 40.06-40C406 88 423.1 105.9 423.1 128S406.1 168 383.1 168zM35.62 352.1c-25.75 25.75-38.62 90.5-34.1 159.3c69.12 3.625 133.6-9.375 159.4-35.13C200.2 436 202.9 382.4 166.2 345.8C129.6 309.2 75.1 311.8 35.62 352.1zM117.4 436.1c-8.625 8.5-30.12 12.88-53.12 11.62c-1.25-22.88 2.1-44.5 11.62-53c13.5-13.5 31.37-14.38 43.5-2.125C131.6 404.8 130.7 422.6 117.4 436.1z"/></svg>