<svg xmlns="http://www.w3.org/2000/svg" viewBox="0 0 640 512"><!--! Font Awesome Pro 6.0.0-alpha3 by @fontawesome - https://fontawesome.com License - https://fontawesome.com/license (Commercial License) --><path d="M640 240v216c0 13.25-10.75 24-24 24h-16C586.7 480 576 469.3 576 456v-96.38c-12.09 8.109-25.71 13.85-40 18.02V456c0 13.25-10.75 24-24 24s-24-10.75-24-24v-72.49c-16.54-.7285-32.62-3.684-48-8.672V456c0 13.25-10.75 24-24 24s-24-10.75-24-24v-104.7c-18.25-12.77-34.26-28.96-47-48.08L344 301.7V456c0 13.25-10.75 24-24 24s-24-10.75-24-24V229.7l-48-72V456C248 469.3 237.3 480 224 480s-24-10.75-24-24V106.6C186.9 99.81 172.3 96 157.1 96C155.3 96 153.7 96.42 152 96.51V456C152 469.3 141.3 480 128 480s-24-10.75-24-24V112.8C79.88 129.6 64 157.5 64 189.1V456C64 469.3 53.25 480 40 480h-16C10.75 480 0 469.3 0 456V189.1C0 102.5 70.47 32 157.1 32c52.63 0 101.5 26.16 130.7 69.94l110.5 165.8c5.016 7.521 10.88 14.25 17.31 20.3C437.1 308.3 465.7 320 496 320c44.13 0 80-35.88 80-80c0-32.73-19.79-60.85-48-73.22v108.7C519.5 283.2 508.3 288 496 288c-5.465 0-10.74-.9766-16-1.982V161.5c-16.77 1.729-32.85 5.982-48 12.76v83.97c-2.393-2.748-5.074-5.189-7.129-8.27l-69.61-104.4C395.1 113.5 444.2 96 496 96C575.4 96 640 160.6 640 240z"/></svg>