<svg xmlns="http://www.w3.org/2000/svg" viewBox="0 0 448 512"><!--! Font Awesome Pro 6.0.0-alpha3 by @fontawesome - https://fontawesome.com License - https://fontawesome.com/license (Commercial License) --><path d="M428.4 269.3c-30.5-45.5-11.75-104.5 12.1-155.5c3.1-8.125 3.375-17.75-1.875-25.13l-41.12-58.25c-5.125-7.25-15.75-13.13-27.5-8.625c-15.37 5.875-32.62 8.875-50.24 8.875c-29.5 0-59.87-8.5-83.12-26.12C233.5 1.5 228.7 0 224 0S214.5 1.5 210.5 4.5C187.3 22.12 156.9 30.62 127.4 30.62c-17.62 0-34.87-3-50.25-8.875c-11.75-4.5-22.5 1.5-27.5 8.625L8.521 88.75c-5.25 7.375-5.875 16.87-1.875 25.12c24.75 50.88 43.5 109.9 12.1 155.4c-37.1 56.5-18.62 139.4 38.75 166L224 512l165.6-76.75C446.1 408.6 466.4 325.8 428.4 269.3zM362.6 377.1L224 441.5l-138.6-64.38C65.51 368 55.64 330.4 72.76 304.9C97.51 268 102 228.1 98.01 192H349.1c-3.1 36.12 .5 76 25.25 112.9C392.5 330.5 382.2 368.1 362.6 377.1z"/></svg>