<svg xmlns="http://www.w3.org/2000/svg" viewBox="0 0 512 512"><!--! Font Awesome Pro 6.0.0-alpha3 by @fontawesome - https://fontawesome.com License - https://fontawesome.com/license (Commercial License) --><path d="M480.9 55.12c-3.625-11.62-14.1-19.12-26.25-15.88c-18.25 5-37.75 7.875-58.12 7.875c-49.12 0-93.49-16-126.1-42.12C266.1 1.625 261.1 0 256 0S245.9 1.625 241.6 5C209.1 31.12 164.6 47.12 115.5 47.12c-20.37 0-39.87-2.875-58.12-8c-11.25-3.125-22.62 4.375-26.25 16C-5.854 175.1 9.406 410.4 256 512C502.6 410.4 517.9 175.1 480.9 55.12zM256 441.9C131.3 380.9 88.02 279.5 80.77 192h350.5C423.1 279.5 380.7 380.9 256 441.9z"/></svg>