<svg xmlns="http://www.w3.org/2000/svg" viewBox="0 0 640 512"><!--! Font Awesome Pro 6.0.0-alpha3 by @fontawesome - https://fontawesome.com License - https://fontawesome.com/license (Commercial License) --><path d="M621.1 269.3l-58.24-58.25c-11.1-12-28.38-18.84-45.37-18.84l-101.5-.1667l-.0135 240c0 34.13 22.21 66.26 55.07 76.26c54.74 16.5 104.1-24.01 104.1-76.26l.0084-15.99l31.99-.0071C625.6 416 640 401.6 640 384V314.5C639.9 297.5 633.1 281.3 621.1 269.3zM495.1 464c-17.62 0-31.1-14.37-31.1-32c0-17.63 14.38-32 31.1-32s31.1 14.37 31.1 32C527.9 449.6 513.6 464 495.1 464zM479.1 288V240h37.45c4.249 0 8.248 1.75 11.25 4.75l43.37 43.25H479.1zM607.9 127.3c-.3749-52.63-43.24-95.25-95.98-95.25l-127.9 .0004L383.9 15.1c0-8.75-7.25-16-15.1-16H239.1c-8.748 0-15.1 7.249-15.1 15.1l.0215 16l-159.1-.0005C28.75 32 0 60.75 0 95.1v197.5c0 17 6.748 33.25 18.75 45.25l77.25 77.25L95.98 427.4c0 41.88 30.12 80 71.74 84.13c47.99 4.75 88.27-32.68 88.27-79.55l-.0333-16.07l127.1-.0001l.0249-255.9l191.9 .0007C593.8 160 608 145.3 607.9 127.3zM175.1 464c-17.62 0-31.1-14.37-31.1-32c0-17.63 14.38-32 31.1-32s31.1 14.37 31.1 32C207.1 449.6 193.6 464 175.1 464zM255.1 208c0 8.75-7.249 16-15.1 16H111.1c-8.748 0-15.1-7.25-15.1-16v-64c0-8.75 7.248-16 15.1-16h127.1c8.748 0 15.1 7.25 15.1 16V208z"/></svg>