<svg xmlns="http://www.w3.org/2000/svg" viewBox="0 0 512 512"><!--! Font Awesome Pro 6.0.0-alpha3 by @fontawesome - https://fontawesome.com License - https://fontawesome.com/license (Commercial License) --><path d="M192 96h128l47.39-71.13c3.251-4.875 3.626-11.25 .8751-16.38C365.4 3.25 360 0 354.2 0H157.1C151.1 0 146.6 3.25 143.9 8.5c-2.876 5.125-2.5 11.5 .75 16.38L192 96zM320 128H192c-202.4 115.4-191.9 268.6-191.9 288c0 53 49.11 96 109.6 96h292.5c60.64 0 109.7-43 109.7-96C511.9 397 521.3 242.8 320 128z"/></svg>