<svg xmlns="http://www.w3.org/2000/svg" viewBox="0 0 576 512"><!--! Font Awesome Pro 6.0.0-alpha3 by @fontawesome - https://fontawesome.com License - https://fontawesome.com/license (Commercial License) --><path d="M568 415.1h-143.1c-4.375 0-7.999 3.625-7.999 7.999l-.0052 48.01c0 4.374 3.625 7.999 7.999 7.999h143.1C572.4 479.1 576 476.3 576 471.1v-48.01C576 419.6 572.4 415.1 568 415.1zM568 287.1h-143.1c-4.375 0-7.994 3.614-7.994 7.988v15.1c0 4.374 3.62 8.011 7.994 8.011h143.1C572.4 319.1 576 316.3 576 311.1V295.1C576 291.6 572.4 287.1 568 287.1zM568 351.1h-143.1c-4.375 0-7.999 3.625-7.999 7.999v15.1c0 4.374 3.625 7.999 7.999 7.999h143.1C572.4 383.1 576 380.3 576 375.1V359.1C576 355.6 572.4 351.1 568 351.1zM568 191.1h-143.1c-4.375 0-7.999 3.625-7.999 7.999l.0052 47.99c0 4.374 3.625 7.999 7.999 7.999h143.1C572.4 255.1 576 252.3 576 247.1V199.1C576 195.6 572.4 191.1 568 191.1zM568 32h-143.1c-4.375 0-7.999 3.625-7.999 7.999v47.1c0 4.374 3.625 7.999 7.999 7.999h143.1C572.4 95.99 576 92.37 576 87.1V39.1C576 35.62 572.4 32 568 32zM568 127.1h-143.1c-4.375 0-7.999 3.625-7.999 7.999l.0052 15.99c0 4.374 3.625 7.999 7.999 7.999h143.1C572.4 159.1 576 156.4 576 151.1V135.1C576 131.6 572.4 127.1 568 127.1zM320 32.03h-207.1c-61.85 0-111.1 50.15-111.1 111.1c0 50.21 33.3 92.23 78.84 106.4l-72.43 125.5c-13.25 22.1-5.375 52.24 17.62 65.62l55.37 32.01c22.1 13.25 52.37 5.415 65.62-17.58l115.4-199.1l59.6-.0138c17.67 0 31.1-14.33 31.1-31.1V64.03C352 46.35 337.7 32.03 320 32.03z"/></svg>