<svg xmlns="http://www.w3.org/2000/svg" viewBox="0 0 448 512"><!--! Font Awesome Pro 6.0.0-alpha3 by @fontawesome - https://fontawesome.com License - https://fontawesome.com/license (Commercial License) --><path d="M444.6 334.3l-32 64C407.2 409.2 396.1 416 384 416h-120v48H360c13.25 0 24 10.74 24 24c0 13.25-10.75 24-24 24H120c-13.25 0-24-10.75-24-24c0-13.26 10.75-24 24-24h96V416H171.9c-38.13 0-72.64-22.56-87.95-57.5L8.047 185.1C2.781 173.1 0 159.8 0 146.6V32c0-17.69 14.33-32 32-32s32 14.31 32 32v114.6C64 151 64.92 155.4 66.67 159.4L80.93 192H320c17.67 0 32 14.33 32 32c0 17.67-14.33 32-32 32H108.9l14.41 32.94C124.9 288.7 126.3 288 128 288h288c11.09 0 21.39 5.75 27.22 15.19S449.6 324.4 444.6 334.3z"/></svg>