<svg xmlns="http://www.w3.org/2000/svg" viewBox="0 0 640 512"><!--! Font Awesome Pro 6.0.0-alpha3 by @fontawesome - https://fontawesome.com License - https://fontawesome.com/license (Commercial License) --><path d="M624.3 100.8l-53.11-53.11C561.2 37.63 547.6 32 533.4 32H464c0-17.67-14.33-32-32-32s-32 14.33-32 32v85.74C388.3 104.4 371.1 96 352 96c-11.07 0-21.32 3.064-30.4 8.01C309.9 89.48 292.1 80 272 80S234.1 89.48 222.4 104C213.3 99.06 203.1 96 192 96C171.9 96 154.1 105.5 142.4 120C133.3 115.1 123.1 112 112 112c-35.35 0-64 28.65-64 64c0 6.082 1.119 11.85 2.705 17.42C21.75 199.5 0 225.2 0 256s21.75 56.45 50.71 62.58C49.12 324.2 48 329.9 48 336c0 35.35 28.65 64 64 64c1.053 0 1.996-.3555 3.035-.4102l38.93 97.32C157.6 506 166.4 512 176.2 512H200C213.3 512 224 501.3 224 488v-78.41C235.7 423.1 252.7 432 271.1 432S308.3 423.1 320 409.6V488c0 13.25 10.75 24 24 24h23.75c9.812 0 18.64-5.975 22.28-15.09l38.93-97.32C430 399.6 430.9 400 432 400c35.35 0 64-28.65 64-64c0-6.082-1.119-11.85-2.705-17.42C522.3 312.5 543.1 286.8 543.1 256c0-30.42-21.27-55.77-49.72-62.27C494.1 193.1 493.9 192.6 493.7 192h92.83c20.24 0 38.75-11.44 47.8-29.54C644.6 141.9 640.6 117 624.3 100.8zM512 112c-8.836 0-16-7.164-16-16s7.164-16 16-16s16 7.164 16 16S520.8 112 512 112z"/></svg>