<svg xmlns="http://www.w3.org/2000/svg" viewBox="0 0 512 512"><!--! Font Awesome Pro 6.0.0-alpha3 by @fontawesome - https://fontawesome.com License - https://fontawesome.com/license (Commercial License) --><path d="M448 32H64C28.65 32 0 60.65 0 96v320c0 35.35 28.65 64 64 64h384c35.35 0 64-28.65 64-64V96C512 60.65 483.3 32 448 32zM136 336h-48C74.75 336 64 325.3 64 312C64 298.7 74.75 288 88 288h48C149.3 288 160 298.7 160 312C160 325.3 149.3 336 136 336zM136 240h-48C74.75 240 64 229.3 64 216C64 202.7 74.75 192 88 192h48C149.3 192 160 202.7 160 216C160 229.3 149.3 240 136 240zM136 144h-48C74.75 144 64 133.3 64 120C64 106.7 74.75 96 88 96h48C149.3 96 160 106.7 160 120C160 133.3 149.3 144 136 144zM448 416H224V96h224V416z"/></svg>