<svg xmlns="http://www.w3.org/2000/svg" viewBox="0 0 640 512"><!--! Font Awesome Pro 6.0.0-alpha3 by @fontawesome - https://fontawesome.com License - https://fontawesome.com/license (Commercial License) --><path d="M200 376c-13.25 0-24 10.75-24 23.1s10.75 23.97 24 23.97c13.25 0 23.97-10.75 23.97-24S213.3 376 200 376zM120 376c-13.25 0-24 10.75-24 24s10.75 23.97 24 23.97s23.97-10.75 23.97-24S133.3 376 120 376zM598.7 425.4c-14.5-14.5-22.61-34.12-22.61-54.62V269.2c0-20.5 8.113-40.12 22.61-54.62l36.67-36.73c6.251-6.125 6.244-16.35-.0064-22.6l-22.58-22.58c-6.251-6.25-16.46-6.235-22.58 .0148l-36.73 36.66c-26.5 26.5-41.39 62.39-41.39 99.89v18.73h-64.01V237.1c0-8.75-1.725-17.23-5.225-25.23l-78.28-182.8c-7.626-17.75-24.95-29.11-44.33-29.11L176 0c-26.5 0-48 21.5-48 48v112h-16c-26.5 0-48 21.5-48 48v91.23C26.25 317.2 0 355.4 0 400C0 461.9 50.12 512 112 512h256c61.88 0 112-50.13 112-112c0-17.25-4.213-33.38-11.21-48l43.25 .0179v18.73c0 37.5 14.89 73.39 41.39 99.89l36.73 36.66c6.126 6.25 16.33 6.254 22.58 .0039l22.58-22.58c6.251-6.25 6.257-16.47 .0064-22.59L598.7 425.4zM192 64h117.8l68.62 160H256L192 160V64zM368 448h-256c-26.5 0-48-21.5-48-48S85.5 352 112 352h256c26.5 0 48 21.5 48 48S394.5 448 368 448zM360 376c-13.25 0-24 10.75-24 24s10.75 23.97 24 23.97c13.25 0 23.97-10.75 23.97-24S373.3 376 360 376zM280 376c-13.25 0-24 10.75-24 24s10.75 23.97 24 23.97s23.97-10.75 23.97-23.1S293.3 376 280 376z"/></svg>