<svg xmlns="http://www.w3.org/2000/svg" viewBox="0 0 512 512"><!--! Font Awesome Pro 6.0.0-alpha3 by @fontawesome - https://fontawesome.com License - https://fontawesome.com/license (Commercial License) --><path d="M384 342.6C342.2 348.7 299.5 352 256 352c-86.35 0-169.7-12.71-248.6-35.1C34.41 428.4 135.3 512 256 512c76.61 0 145.2-33.77 192-87.13V384h-64V342.6zM509.8 224H448V160h-80V96H416V56.33C372.2 21.16 316.6 0 256 0c-141.4 0-256 114.6-256 256c0 8.389 .4668 16.66 1.256 24.85C81.71 306.2 167.3 320 256 320s174.3-13.76 254.7-39.15C511.5 272.7 512 264.4 512 256C512 245.1 511.1 234.5 509.8 224zM192 240C147.9 240 112 204.1 112 160S147.9 80 192 80s80 35.88 80 80S236.1 240 192 240zM192 128C174.3 128 160 142.3 160 160c0 17.67 14.33 32 32 32s32-14.33 32-32C224 142.3 209.7 128 192 128z"/></svg>