<svg xmlns="http://www.w3.org/2000/svg" viewBox="0 0 512 512"><!--! Font Awesome Pro 6.0.0-alpha3 by @fontawesome - https://fontawesome.com License - https://fontawesome.com/license (Commercial License) --><path d="M256 0C114.6 0 0 114.6 0 256c0 8.389 .4668 16.66 1.256 24.85C81.71 306.2 167.3 320 256 320s174.3-13.76 254.7-39.15C511.5 272.7 512 264.4 512 256C512 114.6 397.4 0 256 0zM192 240C147.9 240 112 204.1 112 160S147.9 80 192 80s80 35.88 80 80S236.1 240 192 240zM7.363 316C34.41 428.4 135.3 512 256 512s221.6-83.61 248.6-195.1C425.7 339.3 342.3 352 256 352S86.26 339.3 7.363 316zM192 128C174.3 128 160 142.3 160 160c0 17.67 14.33 32 32 32s32-14.33 32-32C224 142.3 209.7 128 192 128z"/></svg>