<svg xmlns="http://www.w3.org/2000/svg" viewBox="0 0 640 512"><!--! Font Awesome Pro 6.0.0-alpha3 by @fontawesome - https://fontawesome.com License - https://fontawesome.com/license (Commercial License) --><path d="M287.1 352c0 17.6-14.4 31.1-31.1 31.1c-17.6 0-32-14.4-32-31.1l.0001-79.76L95.1 171.9l.0001 244.1c0 35.35 28.65 63.1 63.1 63.1l327.8 .0004c.2358-.6831 .0361-.1267 .2719-.8098L287.1 322.4V352zM630.8 469.1l-86.81-68.04l.0002-305.1c0-35.35-28.65-63.1-63.1-63.1H159.1c-21.62 0-40.59 10.8-52.1 27.25L38.81 5.109C34.41 1.672 29.19 0 24.03 0C16.91 0 9.845 3.156 5.127 9.187c-8.187 10.44-6.375 25.53 4.062 33.7L601.2 506.9c10.5 8.203 25.56 6.328 33.69-4.078C643.1 492.4 641.2 477.3 630.8 469.1zM430.1 243.2c-3.701 18.86-13.54 34.92-26.71 47.63l-51.05-40.02c9.184-5.635 15.66-15.31 15.66-26.84c0-17.62-14.38-31.1-31.1-31.1H287.1v8.408L225.7 151.6c3.783-13.45 15.67-23.59 30.29-23.59l80-.0018C395.2 128 442.1 182 430.1 243.2z"/></svg>