<svg xmlns="http://www.w3.org/2000/svg" viewBox="0 0 640 512"><!--! Font Awesome Pro 6.0.0-alpha3 by @fontawesome - https://fontawesome.com License - https://fontawesome.com/license (Commercial License) --><path d="M448 64c-106 0-192 86-192 192c0 106 85.1 192 192 192c105.1 0 192-85.1 192-192C640 150 553.1 64 448 64zM448 320c-35.38 0-64-28.62-64-64s28.62-64 64-64s64 28.62 64 64S483.4 320 448 320zM448 224c-17.62 0-32 14.38-32 32s14.38 32 32 32s32-14.38 32-32S465.6 224 448 224zM240 128c0-17.62-14.38-32-32-32H24C10.75 96 0 106.8 0 120v16C0 149.3 10.75 160 24 160h41.34l70.65 57.4L130.8 217.9C111.1 219.8 96 236.3 96 256s15.12 36.25 34.75 38.13l5.234 .4727L65.34 352H24C10.75 352 0 362.8 0 376v16C0 405.3 10.75 416 24 416H208c17.62 0 32-14.38 32-32s-14.38-32-32-32H141.4l63.04-51.22L229 303C225.7 287.5 224 271.8 224 256S225.7 224.5 229 209L204.5 211.2L141.4 160H208C225.6 160 240 145.6 240 128z"/></svg>