<svg xmlns="http://www.w3.org/2000/svg" viewBox="0 0 640 512"><!--! Font Awesome Pro 6.0.0-alpha3 by @fontawesome - https://fontawesome.com License - https://fontawesome.com/license (Commercial License) --><path d="M639.9 143.1c-.0039-8.473-3.408-16.61-9.396-22.6L513.1 4.692c-6.246-6.252-16.38-6.256-22.63-.0098l-22.65 22.63c-6.25 6.246-6.254 16.38-.0078 22.63L575.9 157.2l.0605 58.75l-107.5-18.87c-23.49-59.16-80.96-101.1-148.5-101.1S195 137.1 171.5 197.1L64.04 215.1L64.05 157.3l107.3-107.3C177.6 43.69 177.6 33.56 171.3 27.31L148.7 4.682C142.4-1.564 132.3-1.56 126 4.692L9.462 121.4c-5.969 5.984-9.362 14.12-9.393 22.56v224.1c.0059 8.473 3.405 16.61 9.393 22.6l116.6 116.7c6.246 6.252 16.38 6.256 22.63 .0098l22.65-22.63c6.25-6.246 6.254-16.38 .0078-22.63l-107.2-107.3L64.05 296l107.5 18.87c23.49 59.16 80.96 101.1 148.5 101.1s124.1-41.96 148.5-101.1l107.5-18.87l-.0254 58.71l-107.3 107.3c-6.246 6.25-6.244 16.38 .0078 22.63l22.64 22.63c6.252 6.246 16.38 6.242 22.63-.0078l116.6-116.7c5.969-5.984 9.364-14.12 9.396-22.56V143.1zM331.1 161.2c16.98 2.096 33.08 8.742 46.58 19.24l-22.63 22.63c-7.224-4.898-15.38-8.256-23.96-9.863V161.2zM307.1 161.2v32C299.4 194.8 291.3 198.2 284 203.1L261.4 180.4C274.9 169.1 291 163.3 307.1 161.2zM244.4 197.4l22.63 22.63C262.2 227.3 258.8 235.4 257.2 244H225.2C227.3 227 233.1 210.9 244.4 197.4zM225.2 268h31.1c1.609 8.578 4.967 16.73 9.863 23.96l-22.63 22.63C233.1 301.1 227.3 284.1 225.2 268zM307.1 350.8c-16.98-2.098-33.08-8.744-46.58-19.24L284 308.9c7.224 4.897 15.38 8.254 23.96 9.863V350.8zM287.1 256C287.1 255.1 287.1 256 287.1 256c0-17.67 14.33-32 32-32s31.1 14.33 31.1 32c0 17.67-14.33 32-31.1 32C302.3 288 287.1 273.7 287.1 256zM331.1 350.8V318.8c8.578-1.609 16.73-4.967 23.96-9.863l22.63 22.63C365.1 342 348.1 348.7 331.1 350.8zM395.6 314.6l-22.63-22.63c4.896-7.225 8.254-15.38 9.863-23.96h31.1C412.7 284.1 406 301.1 395.6 314.6zM382.8 244c-1.609-8.578-4.967-16.73-9.863-23.96l22.63-22.63c10.49 13.51 17.14 29.61 19.23 46.58H382.8z"/></svg>