<svg xmlns="http://www.w3.org/2000/svg" viewBox="0 0 576 512"><!--! Font Awesome Pro 6.0.0-alpha3 by @fontawesome - https://fontawesome.com License - https://fontawesome.com/license (Commercial License) --><path d="M560 32H528C519.1 32 512 39.12 512 47.1V216l-75.51-18.88C412.1 137.1 355.5 96 288 96S163 137.1 139.5 197.1L64 216V48C64 39.12 56.88 32 48 32H16C7.125 32 0 39.12 0 47.1V464C0 472.9 7.125 480 16 480h32C56.88 480 64 472.9 64 464V296l75.51 18.88C163 374 220.5 416 288 416s124.1-41.1 148.5-101.1L512 296v168c0 8.875 7.125 16 16 16h32c8.875 0 16-7.125 16-16v-416C576 39.12 568.9 32 560 32zM300 161.2c17 2 33.1 8.741 46.6 19.24l-22.63 22.63C316.7 198.1 308.6 194.8 300 193.2V161.2zM276 161.2v32C267.4 194.8 259.3 198.1 252 203.1L229.4 180.5C242.9 169.1 259 163.2 276 161.2zM212.5 197.4l22.63 22.63C230.1 227.3 226.8 235.4 225.2 244H193.2C195.2 227 201.1 210.9 212.5 197.4zM193.2 268H225.2c1.625 8.625 4.867 16.72 9.867 23.97L212.5 314.6C201.1 301.1 195.2 285 193.2 268zM276 350.8c-17-2-33.1-8.741-46.6-19.24l22.63-22.63C259.3 313.9 267.4 317.2 276 318.8V350.8zM256 256c0-17.62 14.38-32 32-32s32 14.38 32 32s-14.38 32-32 32S256 273.6 256 256zM300 350.8v-32c8.625-1.625 16.72-4.867 23.97-9.867l22.63 22.63C333.1 342 317 348.8 300 350.8zM363.5 314.6l-22.63-22.63c5-7.25 8.242-15.35 9.867-23.97h32C380.8 285 374 301.1 363.5 314.6zM350.8 244c-1.625-8.625-4.867-16.72-9.867-23.97l22.63-22.63C374 210.9 380.8 227 382.8 244H350.8z"/></svg>