<svg xmlns="http://www.w3.org/2000/svg" viewBox="0 0 576 512"><!--! Font Awesome Pro 6.0.0-alpha3 by @fontawesome - https://fontawesome.com License - https://fontawesome.com/license (Commercial License) --><path d="M224 207.1c-26.5 0-47.1 21.5-47.1 48s21.5 48 47.1 48s47.1-21.5 47.1-48S250.5 207.1 224 207.1zM560 223.6C568.9 223.6 576 216.5 576 207.6V155.2c0-6.75-4.262-12.7-10.51-15.08L311.4 47.61C255.6 27.48 193.6 25.63 139.3 49.13c-143.4 62.13-139.2 206.9-139.2 206.9s-4.393 144.6 139.2 206.9c54.37 23.5 116.4 21.65 172.1 1.527l16.27-5.902l3.223 3.89c9.125 11.13 22.77 17.62 37.14 17.62L432 480c17.62 0 33.87-9.625 42.25-25.13c8.375-15.5 7.644-34.27-2.106-49.02l93.34-33.1C571.7 369.5 576 363.5 576 356.8V304.4c0-8.875-7.125-16-15.1-16H416V223.6H560zM80.01 271.1c-8.875 0-15.1-7.125-15.1-16c0-8.875 7.125-15.1 16-15.1s15.1 7.125 15.1 16C96.01 264.9 88.89 271.1 80.01 271.1zM112 367.1c-8.875 0-15.1-7.125-15.1-16s7.124-15.1 15.1-15.1s16 7.125 16 16C128 360.9 120.9 367.1 112 367.1zM112 175.1c-8.875 0-15.1-7.125-15.1-16S103.1 143.1 112 143.1s15.1 7.125 15.1 16S120.9 175.1 112 175.1zM224 335.1c-44.12 0-79.99-35.88-79.99-80s35.87-80 79.1-80c44.25 0 79.1 35.87 79.1 80S268.1 335.1 224 335.1z"/></svg>