<svg xmlns="http://www.w3.org/2000/svg" viewBox="0 0 512 512"><!--! Font Awesome Pro 6.0.0-alpha3 by @fontawesome - https://fontawesome.com License - https://fontawesome.com/license (Commercial License) --><path d="M256 16C123.5 16 16 123.5 16 256s107.5 240 240 240s240-107.5 240-240S388.5 16 256 16zM256 80c86.11 0 157.8 62.2 172.9 144h-85.78c-11.14-19-31.58-32-55.19-32H224C200.4 192 179.9 205 168.9 224H83.06C98.17 142.2 169.9 80 256 80zM83.06 288h92.9l48.07 64v76.95C152.6 415.8 96.25 359.4 83.06 288zM287.1 428.9V352l48.07-64h92.9C415.8 359.4 359.4 415.8 287.1 428.9z"/></svg>