<svg xmlns="http://www.w3.org/2000/svg" viewBox="0 0 448 512"><!--! Font Awesome Pro 6.0.0-alpha3 by @fontawesome - https://fontawesome.com License - https://fontawesome.com/license (Commercial License) --><path d="M300 256v96c0 6.625-5.391 12-12 12S276 358.6 276 352V256c0-6.625 5.391-12 12-12S300 249.4 300 256zM432 304c0 115.1-94.87 209.8-211.3 207.1c-113.1-1.746-208.1-100.5-204.6-214.4C19.15 196.5 94.37 113.5 191.1 98.5V64H176C158.4 64 144 49.6 144 32S158.4 0 176 0h96c17.6 0 31.99 14.4 31.99 31.1S289.6 64 272 64H255.1v34.5c37.5 5.797 71.69 21.59 99.69 44.59l24.69-24.69c6.248-6.248 16.38-6.247 22.63 .0014l22.68 22.69c6.248 6.249 6.246 16.38-.0043 22.63L398.5 190.9C419.7 223.3 432 262.2 432 304zM164.3 364c1.391-14.19 7.719-27.72 17.86-37.88C201.4 306.9 212 281.3 212 252c0-26.47-21.53-48-48-48s-48 21.53-48 48C116 263 124.1 272 136 272s20-8.969 20-20c0-8.812 16-10.88 16 2.062c0 16.28-6.609 32.25-18.16 43.81C134.6 317.1 124 342.7 124 369.9V384c0 11.03 8.953 20 20 20H192c11.05 0 20-8.969 20-20S203 364 192 364H164.3zM340 256c0-28.69-23.33-52-52-52S236 227.3 236 256v96c0 28.69 23.33 52 52 52s52-23.31 52-52V256z"/></svg>