<svg xmlns="http://www.w3.org/2000/svg" viewBox="0 0 512 512"><!--! Font Awesome Pro 6.0.0-alpha3 by @fontawesome - https://fontawesome.com License - https://fontawesome.com/license (Commercial License) --><path d="M416 287.1c27.99 0 53.68 9.254 74.76 24.51c39.43-83.77 23.56-187.2-48.08-254.8c-87.72-82.82-227.7-74.16-312.9 11.27l-54.66 54.8C73.61 125.3 72.58 126.1 71.14 128.5l230.7 230.7C322.8 317.2 365.8 287.1 416 287.1zM290.3 392.1l-238.6-238.6c-30.66 51.23-24.48 110.7 14.81 150.1l36.6 36.7l-92.38 81.32c-13.73 11.97-14.49 33.12-1.646 46.05l34.05 34.2c12.87 12.9 33.94 12.14 45.85-1.652l81.03-92.85l35.95 36.04c27.08 27.15 63.76 38.33 99.09 34.47c-10.56-18.61-17.12-39.89-17.12-62.81C288 408.1 288.1 400.5 290.3 392.1zM416 320c-52.99 0-95.99 42.1-95.99 95.1c0 52.1 42.1 95.1 95.99 95.1C469 511.1 512 468.1 512 416C512 363 469 320 416 320z"/></svg>