<svg xmlns="http://www.w3.org/2000/svg" viewBox="0 0 512 512"><!--! Font Awesome Pro 6.0.0-alpha3 by @fontawesome - https://fontawesome.com License - https://fontawesome.com/license (Commercial License) --><path d="M448 32H160v128h288v256H128V192H0v224c0 35.35 28.65 64 64 64h384c35.35 0 64-28.65 64-64V96C512 60.65 483.3 32 448 32zM128 32H64C28.65 32 0 60.65 0 96v64h128V32zM274.4 290.4l-40 40.01c-3.125 3.125-3.125 8.125 0 11.25l40 40.01C279.4 386.7 288 383.1 288 375.1V352h56C366.1 352 384 334.1 384 312V256h24.01c7.812 0 10.31-9.002 5.625-13.63l-40-40c-3.125-3.127-8.125-3.127-11.25 0l-40 40C317.3 247.4 320.9 256 328 256H352v56C352 316.4 348.4 320 344 320H288V295.1C288 288.2 278.1 285.7 274.4 290.4z"/></svg>