<svg xmlns="http://www.w3.org/2000/svg" viewBox="0 0 576 512"><!--! Font Awesome Pro 6.0.0-alpha3 by @fontawesome - https://fontawesome.com License - https://fontawesome.com/license (Commercial License) --><path d="M536.5 170.7l-135.7-131.9c-9.453-9.219-24.67-9-33.94 .5c-9.234 9.5-9.016 24.69 .5 33.94l135.5 131.7C519 221.1 528 242.8 528 265.8s-8.969 44.63-25.3 60.95l-111.7 112.4c-9.344 9.406-9.312 24.59 .0938 33.94C395.8 477.7 401.9 480 408 480c6.172 0 12.33-2.359 17.02-7.078l111.7-112.3C562 335.3 576 301.6 576 265.8S562 196.2 536.5 170.7zM463.6 225.6L286.4 48.4C277.4 39.38 259.6 32 246.8 32H60C44.54 32 32 44.54 32 60v186.8c0 12.76 7.381 30.58 16.4 39.6l177.2 177.2c21.87 21.87 57.32 21.87 79.2 .002l158.8-158.8C485.5 282.9 485.5 247.5 463.6 225.6zM144 176c-17.67 0-32-14.32-32-32c0-17.68 14.33-32 32-32s32 14.32 32 32C176 161.7 161.7 176 144 176z"/></svg>