<svg xmlns="http://www.w3.org/2000/svg" viewBox="0 0 640 512"><!--! Font Awesome Pro 6.0.0-alpha3 by @fontawesome - https://fontawesome.com License - https://fontawesome.com/license (Commercial License) --><path d="M617.9 190.4l-73.9 26.68l.0155 230.9C543.1 465.7 529.7 480 511.1 480c-17.67 0-32-14.33-32-31.1l-.0111-210.1l-63.99 20.75l.0067 189.4C415.1 465.7 401.7 480 383.1 480c-17.67 0-31.1-14.33-31.1-31.1l-.0022-168.8L288 300l-.0022 148C288 465.7 273.7 480 256 480c-17.67 0-31.1-14.33-31.1-31.1l.0067-127.3l-63.99 20.62l-.0111 106.6C160 465.7 145.7 480 128 480c-17.67 0-31.99-14.33-31.99-31.1l.0155-85.88l-54.17 16.23c-16.73 5.427-34.85-3.822-40.26-20.55c-5.437-16.79 3.738-34.92 20.53-40.35l73.9-22.57L96.02 63.1C96.02 46.33 110.3 32 128 32c17.67 0 32 14.33 32 31.1l.0111 210.1l63.99-20.75L224 63.1C224 46.33 238.3 32 256 32c17.67 0 31.1 14.33 31.1 31.1L288 232.8L351.1 212l.0022-148C351.1 46.33 366.3 32 383.1 32c17.67 0 31.1 14.33 31.1 31.1L415.1 191.2l63.99-20.62l.0111-106.6C479.1 46.33 494.3 32 511.1 32c17.67 0 31.99 14.33 31.99 31.1l-.0155 85.88l54.07-20.3c16.85-5.467 34.94 3.769 40.4 20.62C643.9 166.1 634.7 185 617.9 190.4z"/></svg>