<svg xmlns="http://www.w3.org/2000/svg" viewBox="0 0 448 512"><!--! Font Awesome Pro 6.0.0-alpha3 by @fontawesome - https://fontawesome.com License - https://fontawesome.com/license (Commercial License) --><path d="M32 32C14.33 32 0 46.33 0 63.1V448C0 465.7 14.33 480 31.1 480S64 465.7 64 448V63.1C64 46.33 49.67 32 32 32zM160 32C142.3 32 128 46.33 128 63.1V448C128 465.7 142.3 480 159.1 480S192 465.7 192 448V63.1C192 46.33 177.7 32 160 32zM416 32c-17.67 0-32 14.33-32 32v384c0 17.67 14.33 31.1 32 31.1s32-14.33 32-31.1V64C448 46.33 433.7 32 416 32zM288 32c-17.67 0-32 14.33-32 31.1V448C256 465.7 270.3 480 288 480s32-14.33 32-31.1V63.1C320 46.33 305.7 32 288 32z"/></svg>