<svg xmlns="http://www.w3.org/2000/svg" viewBox="0 0 512 512"><!--! Font Awesome Pro 6.0.0-alpha3 by @fontawesome - https://fontawesome.com License - https://fontawesome.com/license (Commercial License) --><path d="M363.1 319.8c-61.1 43.43-86.81 119.7-68.63 188.1c110.6-16.7 197.9-104 214.4-214.7c-14.72-3.875-29.85-6.031-45.1-6.031C428.9 288.1 393.7 298.4 363.1 319.8zM148.9 192.2c62-43.43 86.82-119.8 68.63-189c-110.4 16.67-197.5 103.7-214.3 214.1C51.59 230 104.8 223 148.9 192.2zM255.1-.0078c-1.928 0-3.791 .2461-5.709 .2891c18.85 80.39-11.31 167.9-82.97 218.1C131.1 243.8 89.47 255.9 48.28 255.9c-16.18 0-32.29-1.914-48-5.613c-.041 1.902-.2871 3.754-.2871 5.668c0 141.4 114.6 256 256 256c1.932 0 3.799-.2461 5.721-.2891c-18.84-80.39 11.32-167.9 82.97-218.1c50.45-35.36 111.3-44.88 167-31.75c.0449-1.977 .2969-3.898 .2969-5.883C511.1 114.6 397.4-.0078 255.1-.0078z"/></svg>