<svg xmlns="http://www.w3.org/2000/svg" viewBox="0 0 640 512"><!--! Font Awesome Pro 6.0.0-alpha3 by @fontawesome - https://fontawesome.com License - https://fontawesome.com/license (Commercial License) --><path d="M48 400V96C21.49 96 0 117.5 0 144V416c0 35.34 28.65 64 64 64h432c26.51 0 48-21.49 48-48H80C62.33 432 48 417.7 48 400zM640 160V80C640 53.5 618.5 32 592 32h-448C117.5 32 96 53.5 96 80v256C96 362.5 117.5 384 144 384h448c26.5 0 48-21.5 48-48V256c-26.5 0-48-21.5-48-48S613.5 160 640 160zM406 236h-42L315.2 316.3C313.9 318.6 311.4 320 308.8 320H278.4C273.5 319.1 269.9 315.3 271.3 310.5L294 236H240.1l-18.89 25.2C220.8 262.1 218.7 263.1 216.5 264H198.1c-4.553 0-7.891-4.281-6.783-8.697L205.1 208l-13.78-47.31C191.1 156.3 194.4 152 198.1 152h17.5c2.199 0 4.279 1.037 5.605 2.803l18.89 25.2L294 180L271.3 105.5C269.9 100.7 273.5 96 278.4 96h30.4C311.2 96 314.1 97.67 315.2 99.74L364 180h42C421.5 180 448 192.5 448 208S421.5 236 406 236zM528 320C519.2 320 512 312.8 512 304C512 295.2 519.2 288 528 288C536.8 288 544 295.2 544 304C544 312.8 536.8 320 528 320zM528 256C519.2 256 512 248.8 512 240C512 231.2 519.2 224 528 224C536.8 224 544 231.2 544 240C544 248.8 536.8 256 528 256zM528 192C519.2 192 512 184.8 512 176C512 167.2 519.2 160 528 160C536.8 160 544 167.2 544 176C544 184.8 536.8 192 528 192zM528 128C519.2 128 512 120.8 512 112C512 103.2 519.2 96 528 96C536.8 96 544 103.2 544 112C544 120.8 536.8 128 528 128z"/></svg>