<svg xmlns="http://www.w3.org/2000/svg" viewBox="0 0 640 512"><!--! Font Awesome Pro 6.0.0-alpha3 by @fontawesome - https://fontawesome.com License - https://fontawesome.com/license (Commercial License) --><path d="M627.2 230.4l-96-72c-14.12-10.62-34.19-7.719-44.78 6.391c-10.62 14.14-7.75 34.2 6.406 44.8L512 224H384V153.2C412.2 140.9 432 112.8 432 80C432 35.82 396.2 0 352 0C307.8 0 272 35.82 272 80c0 32.79 19.77 60.89 48 73.25V224H160V153.2C188.2 140.9 208 112.8 208 80C208 35.82 172.2 0 128 0C83.82 0 48 35.82 48 80c0 32.79 19.77 60.89 48 73.25V224H32C14.33 224 0 238.3 0 256s14.33 32 32 32h160v70.75C163.8 371.1 144 399.2 144 432C144 476.2 179.8 512 224 512c44.18 0 80-35.82 80-80c0-32.79-19.77-60.89-48-73.25V288h256l-19.2 14.41c-14.16 10.59-17.03 30.66-6.406 44.8C492.7 355.6 502.3 360 512 360c6.688 0 13.41-2.078 19.16-6.406l96-72C635.3 275.6 640 266.1 640 256S635.3 236.4 627.2 230.4zM352 48c17.64 0 32 14.36 32 32s-14.36 32-32 32s-32-14.36-32-32S334.4 48 352 48zM128 48c17.64 0 32 14.36 32 32s-14.36 32-32 32s-32-14.36-32-32S110.4 48 128 48zM224 464c-17.64 0-32-14.36-32-32s14.36-32 32-32s32 14.36 32 32S241.6 464 224 464z"/></svg>