<svg xmlns="http://www.w3.org/2000/svg" viewBox="0 0 512 512"><!--! Font Awesome Pro 6.0.0-alpha3 by @fontawesome - https://fontawesome.com License - https://fontawesome.com/license (Commercial License) --><path d="M202.1 322.3l-61.6 20.02C158.8 381.1 195.9 408.8 240 414.4v-64.64C224.2 345.6 210.7 335.8 202.1 322.3zM192 288c0-15.45 5.695-29.43 14.81-40.48L168.6 194.1C143.8 218.4 128 251.3 128 288c0 8.207 .9251 16.2 2.408 23.98L192.4 291.8C192.3 290.5 192 289.3 192 288zM256 223.1c8.287 0 16.15 1.705 23.41 4.572l37.94-52.2C299.1 166.3 278.3 160 256 160S212.9 166.3 194.6 176.4l37.94 52.2C239.8 225.7 247.7 223.1 256 223.1zM476.4 417.8C498.1 379.8 512 335.4 512 288c0-141.4-114.6-256-256-256S0 146.6 0 288c0 47.45 13.03 91.78 35.58 129.8C15.13 423.3 0 441.8 0 464C0 490.5 21.49 512 48 512h416c26.51 0 48-21.49 48-48C512 441.8 496.9 423.3 476.4 417.8zM256 448c-88.37 0-160-71.63-160-160s71.63-160 160-160s160 71.63 160 160S344.4 448 256 448zM305.2 247.5C314.3 258.6 320 272.6 320 288c0 1.314-.3086 2.545-.3867 3.84l61.98 20.14C383.1 304.2 384 296.2 384 288c0-36.73-15.76-69.65-40.63-93.01L305.2 247.5zM288 288c0-17.64-14.36-32-32-32S224 270.4 224 288s14.36 32 32 32S288 305.6 288 288zM272 349.7v64.64c44.12-5.588 81.16-33.31 99.47-72.04l-61.6-20.02C301.3 335.8 287.8 345.6 272 349.7z"/></svg>