<svg xmlns="http://www.w3.org/2000/svg" viewBox="0 0 512 512"><!--! Font Awesome Pro 6.0.0-alpha3 by @fontawesome - https://fontawesome.com License - https://fontawesome.com/license (Commercial License) --><path d="M474.5 141.5C458.4 113.3 448 80.63 448 46.13v-29C448 7.625 440.9 0 432 0h-32C391.1 0 384 7.125 384 16V64c0 32 15.25 74.88 35 109.3C437.1 206.5 448 244.9 448 284.1c0 41.13-12.75 82.5-35.75 118.1C406.5 411 396.3 416 385.8 416h-259.5c-10.5 0-20.75-5-26.5-13.75C76.75 366.6 64 325.3 64 284.1C64 244.9 73.1 206.5 93.13 173.3C112.8 138.9 128 96 128 64V16C128 7.125 120.9 0 112 0h-32C71.13 0 64 7.625 64 17.12v29c0 34.5-10.38 67.13-26.5 95.38C13.75 183 0 231.8 0 284.1C0 360.9 32.5 430.3 80 480l.0007 16c0 8.875 7.125 16 16 16h32c8.875 0 16-7.125 16-16V480h32v16c0 8.875 7.125 16 15.1 16h32c8.875 0 16-7.125 16-16V480h32v16c0 8.875 7.125 16 16 16h32c8.875 0 16-7.125 16-16V480h32v16c0 8.875 7.125 16 16 16h32c8.875 0 16-7.125 16-16L432 480c47.5-49.75 80-119.1 80-195.9C512 231.8 498.3 183 474.5 141.5zM256 352c17.62 0 32-14.25 32-32c0-17.62-14.38-32-32-32s-32 14.38-32 32C224 337.8 238.4 352 256 352zM256 256c13.25 0 24-10.75 24-24V96c0-13.25-10.75-24-24-24S232 82.75 232 96v136C232 245.3 242.8 256 256 256z"/></svg>