<svg xmlns="http://www.w3.org/2000/svg" viewBox="0 0 512 512"><!--! Font Awesome Pro 6.0.0-alpha3 by @fontawesome - https://fontawesome.com License - https://fontawesome.com/license (Commercial License) --><path d="M202.1 290.3L140.5 310.3C158.8 349.1 195.9 376.8 240 382.4V317.7C224.2 313.6 210.7 303.8 202.1 290.3zM192 256c0-15.45 5.695-29.43 14.81-40.48L168.6 162.1C143.8 186.4 128 219.3 128 256c0 8.207 .9251 16.2 2.408 23.98L192.4 259.8C192.3 258.5 192 257.3 192 256zM256 191.1c8.287 0 16.15 1.705 23.41 4.572l37.94-52.2C299.1 134.3 278.3 128 256 128S212.9 134.3 194.6 144.4l37.94 52.2C239.8 193.7 247.7 191.1 256 191.1zM305.2 215.5C314.3 226.6 320 240.6 320 256c0 1.314-.3086 2.545-.3867 3.84l61.98 20.14C383.1 272.2 384 264.2 384 256c0-36.73-15.76-69.65-40.63-93.01L305.2 215.5zM256 0C114.6 0 0 114.6 0 256s114.6 256 256 256s256-114.6 256-256S397.4 0 256 0zM256 416c-88.37 0-160-71.63-160-160s71.63-160 160-160s160 71.63 160 160S344.4 416 256 416zM272 317.7v64.64c44.12-5.588 81.16-33.31 99.47-72.04l-61.6-20.02C301.3 303.8 287.8 313.6 272 317.7zM288 256c0-17.64-14.36-32-32-32S224 238.4 224 256s14.36 32 32 32S288 273.6 288 256z"/></svg>