<svg xmlns="http://www.w3.org/2000/svg" viewBox="0 0 448 512"><!--! Font Awesome Pro 6.0.0-alpha3 by @fontawesome - https://fontawesome.com License - https://fontawesome.com/license (Commercial License) --><path d="M415.1 128h-95.98c0-17.67-14.33-32-31.1-32H248V48h16C277.3 48 288 37.25 288 24C288 10.74 277.3 0 264 0h-80C170.7 0 160 10.74 160 24C160 37.25 170.7 48 184 48h16V96H160C142.3 96 128 110.3 128 128H32.02c-21.26 0-36.61 20.35-30.77 40.79l37.74 132.1C34.88 306.3 32 312.7 32 320c0 17.67 14.33 32 32 32h32L96 480c0 17.67 14.33 32 32 32h192c17.67 0 32-14.33 32-32l-.0028-128H384c17.67 0 32-14.33 32-32c0-7.305-2.875-13.71-6.996-19.1l37.75-132.1C452.6 148.3 437.2 128 415.1 128zM394.8 176l-32 112H320V176H394.8zM160 176h128V288H160V176zM128 176V288H85.23l-32-112H128z"/></svg>