<svg xmlns="http://www.w3.org/2000/svg" viewBox="0 0 640 512"><!--! Font Awesome Pro 6.0.0-alpha3 by @fontawesome - https://fontawesome.com License - https://fontawesome.com/license (Commercial License) --><path d="M528 336c-48.63 0-88 39.38-88 88S479.4 512 528 512s88-39.38 88-88S576.6 336 528 336zM528 448c-13.25 0-24-10.75-24-24s10.75-24 24-24s24 10.75 24 24S541.3 448 528 448zM608 160h-64V119.8c0-14.13 4.763-27.79 13.14-38.79c4.5-5.875 3.59-14.12-1.285-19.5L534.2 37.27c-6.75-7.375-18.35-6.922-24.72 .8281C490.6 60.85 480 89.77 480 119.8V160h-102.4l-56.04-130.9C313.1 11.51 296.6 0 277.5 0H144C117.5 0 96 21.5 96 48v146.5C87.38 187.8 75.01 188 67.14 196L36 227.1c-8.625 8.625-8.625 22.49 0 31.12l5.02 5.02C36.15 272.5 32.13 282.1 29.13 291.1H21.1C9.875 291.1 0 301.9 0 314v43.1C0 370.1 9.875 380 21.1 380h7.131c3 9.875 6.887 19.49 11.89 28.74l-5 5c-8.625 8.625-8.625 22.5 0 31.12L67.12 475.1c8.625 8.625 22.5 8.625 31.12 0l5.02-5.02c9.25 4.875 18.87 8.887 28.74 11.89v7.133C132 502.1 141.9 512 153.1 512h44C210.1 512 220 502.1 220 489.1v-7.13C229.9 479.9 239.5 476 248.7 471l5.02 5.02c8.625 8.625 22.5 8.625 31.12 0L316 444.9c8.625-8.625 8.625-22.49 0-31.12l-5.062-5.02c5-9.25 8.928-18.87 11.93-28.74h7.133C342.1 380 352 370.1 352 357.1V352h80.52c22-29 56.36-48 95.48-48c18.62 0 36.16 4.6 51.78 12.22l50.85-50.84C636.6 259.4 640 251.3 640 242.8V192C640 174.4 625.6 160 608 160zM176 415.1c-44.12 0-80-35.88-80-80s35.88-80 80-80s80 35.88 80 80S220.1 415.1 176 415.1zM197.1 160H160V64h106.9L308 160H197.1z"/></svg>