<svg xmlns="http://www.w3.org/2000/svg" viewBox="0 0 512 512"><!--! Font Awesome Pro 6.0.0-alpha3 by @fontawesome - https://fontawesome.com License - https://fontawesome.com/license (Commercial License) --><path d="M362.1 192H149.9L111.6 288h288.8L362.1 192zM289.8 10.12C287.2 4 281.4 0 274.9 0H237.1c-6.5 0-12.37 4-14.88 10.12L175.4 128h161.3L289.8 10.12zM480 448h-16l-38.25-96H86.25L48 448H31.1C14.33 448 0 462.3 0 479.1C0 497.7 14.33 512 31.1 512h448c17.67 0 32-14.33 32-31.1C512 462.3 497.7 448 480 448z"/></svg>