<svg xmlns="http://www.w3.org/2000/svg" viewBox="0 0 384 512"><!--! Font Awesome Pro 6.0.0-alpha3 by @fontawesome - https://fontawesome.com License - https://fontawesome.com/license (Commercial License) --><path d="M381.6 498.3l-68.31-69.76C336.7 411.1 352 383.4 352 352V192c0-53.02-42.98-96-96-96h-48V48h107.1c10.61 0 20.79 4.215 28.29 11.72l1.936 1.936c6.25 6.248 16.38 6.248 22.63 0l11.31-11.31c6.25-6.248 6.25-16.38 0-22.63l-1.936-1.936C360.9 9.273 338.5 0 315.1 0H68.84C45.51 0 23.14 9.268 6.639 25.77L4.688 27.72c-6.25 6.248-6.25 16.38 0 22.63l11.31 11.31c6.25 6.248 16.38 6.248 22.63 0l1.943-1.943C48.07 52.21 58.24 48 68.84 48H176V96H128C74.98 96 32 138.1 32 192v160c0 31.43 15.32 59.07 38.67 76.58l-68.31 69.76C-2.685 503.4 .8835 512 8.01 512h41.94c4.244 0 8.314-1.686 11.31-4.688L120.6 448l.416-.707C123.3 447.5 125.6 448 128 448h128c2.4 0 4.65-.5332 7.006-.707L263.4 448l59.31 59.31C325.7 510.3 329.8 512 334.1 512h41.94C383.1 512 386.7 503.4 381.6 498.3zM128 376c-13.25 0-24-10.75-24-24c0-13.26 10.75-24 24-24S152 338.7 152 352C152 365.3 141.3 376 128 376zM256 376c-13.25 0-24-10.75-24-24c0-13.26 10.75-24 24-24s24 10.74 24 24C280 365.3 269.3 376 256 376zM288 224c0 17.6-14.4 32-32 32H128C110.4 256 96 241.6 96 224V192c0-17.6 14.4-32 32-32h128c17.6 0 32 14.4 32 32V224z"/></svg>