<svg xmlns="http://www.w3.org/2000/svg" viewBox="0 0 448 512"><!--! Font Awesome Pro 6.0.0-alpha3 by @fontawesome - https://fontawesome.com License - https://fontawesome.com/license (Commercial License) --><path d="M352 0H96C42.98 0 0 42.98 0 96v256c0 49.5 37.61 89.78 85.73 94.96l-51.38 51.38C29.32 503.4 32.88 512 40.01 512h41.94c4.244 0 8.314-1.686 11.31-4.688L152.6 448h142.8l59.31 59.31C357.7 510.3 361.8 512 366.1 512h41.94c7.127 0 10.7-8.617 5.656-13.66l-51.38-51.38C410.4 441.8 448 401.5 448 352V96C448 42.98 405 0 352 0zM224 368c-26.44 0-48-21.56-48-48S197.6 272 224 272s48 21.56 48 48S250.4 368 224 368zM384 192c0 17.6-14.4 32-32 32H96C78.4 224 64 209.6 64 192V96c0-17.6 14.4-32 32-32h256c17.6 0 32 14.4 32 32V192z"/></svg>