<svg xmlns="http://www.w3.org/2000/svg" viewBox="0 0 512 512"><!--! Font Awesome Pro 6.0.0-alpha3 by @fontawesome - https://fontawesome.com License - https://fontawesome.com/license (Commercial License) --><path d="M352 214.9C352 202.3 341.7 192 329.1 192H182.9C170.3 192 160 202.3 160 214.9v82.29C160 309.7 170.3 320 182.9 320h146.3C341.7 320 352 309.7 352 297.1V214.9zM328 352c-13.22 0-24 10.78-24 24s10.78 24 24 24S352 389.2 352 376S341.2 352 328 352zM184 400c13.22 0 24-10.78 24-24S197.2 352 184 352S160 362.8 160 376S170.8 400 184 400zM256 0C114.6 0 0 114.6 0 256v192c0 35.35 28.65 64 64 64h41.38l64.61-64.61C137.5 444.3 112 417.3 112 384V192c0-35.35 28.65-64 64-64h160c35.35 0 64 28.65 64 64v192c0 33.29-25.5 60.32-57.98 63.39L406.6 512H448c35.35 0 64-28.65 64-64V256C512 114.6 397.4 0 256 0zM214.6 448l-64 64h210.8l-64-64H214.6z"/></svg>