<svg xmlns="http://www.w3.org/2000/svg" viewBox="0 0 640 512"><!--! Font Awesome Pro 6.0.0-alpha3 by @fontawesome - https://fontawesome.com License - https://fontawesome.com/license (Commercial License) --><path d="M416 0c-35.35 0-63.1 28.65-63.1 63.1l.0009 291.6l-346.1 94.37c-4.25 1.25-6.75 5.625-5.625 9.75l12.62 46.37c1.25 4.25 5.625 6.75 9.875 5.625l393.6-107.5c2.471 62.28 55.26 111.6 118.1 107.5c59.99-3.829 104.7-57.75 104.7-117.9L640 0H416zM528 447.1c-26.5 0-48-21.5-48-47.1c0-26.5 21.5-47.1 48-47.1c26.5 0 47.1 21.5 47.1 47.1C576 426.5 554.5 447.1 528 447.1z"/></svg>