<svg xmlns="http://www.w3.org/2000/svg" viewBox="0 0 640 512"><!--! Font Awesome Pro 6.0.0-alpha3 by @fontawesome - https://fontawesome.com License - https://fontawesome.com/license (Commercial License) --><path d="M621.3 192L544 114.8C531.1 102.7 515.7 96 498.7 96H416c-17.67 0-32 14.33-32 32v135.8L160.8 10.83c-6.062-6.891-14.81-10.83-24-10.83c0 0-41.06-.0156-41.28 0C78.09 .2871 64 14.53 64 32v143.1c0 8.828-7.188 16-16 16S32 184.8 32 176V160c0-8.844-7.156-15.1-16-15.1S0 151.2 0 160v16c0 26.47 21.53 47.1 48 47.1S96 202.5 96 176V53.58L206.3 288H32c-17.67 0-32 14.33-32 32v64c0 17.67 14.33 32 32 32l32-.0007C64 468.1 107 512 160 512s96-43 96-96h128C384 468.1 427 512 480 512s96-43 96-96L608 416c17.67 0 32-14.33 32-32V237.3C640 220.3 633.3 204 621.3 192zM160 463.1c-26.5 0-48-21.5-48-48s21.5-48 48-48s48 21.5 48 48S186.5 463.1 160 463.1zM480 463.1c-26.5 0-48-21.5-48-48s21.5-48 48-48s48 21.5 48 48S506.5 463.1 480 463.1zM576 256h-128V160h50.75L576 237.3V256z"/></svg>