<svg xmlns="http://www.w3.org/2000/svg" viewBox="0 0 640 512"><!--! Font Awesome Pro 6.0.0-alpha3 by @fontawesome - https://fontawesome.com License - https://fontawesome.com/license (Commercial License) --><path d="M624 352H608V237.2c0-16.97-6.74-33.24-18.74-45.24l-77.27-77.27C499.1 102.7 483.7 96 466.8 96H384c-17.67 0-32 14.33-32 32v192H32c-17.67 0-32 14.33-32 32v32c0 17.67 14.33 32 32 32h32c0 53 43 96 96 96s96-43 96-96h128c0 53 43 96 96 96s96-43 96-96h48c8.801 0 16-7.201 16-16v-32C640 359.2 632.8 352 624 352zM160 464c-26.5 0-48-21.5-48-48s21.5-48 48-48s48 21.5 48 48S186.5 464 160 464zM480 464c-26.5 0-48-21.5-48-48s21.5-48 48-48s48 21.5 48 48S506.5 464 480 464zM544 256h-128V160h50.75L544 237.3V256z"/></svg>