<svg xmlns="http://www.w3.org/2000/svg" viewBox="0 0 640 512"><!--! Font Awesome Pro 6.0.0-alpha3 by @fontawesome - https://fontawesome.com License - https://fontawesome.com/license (Commercial License) --><path d="M21.39 235.1c39.62-10.62 73.75 13.33 85.5 43.33L231.1 244.9C226.6 209.2 248.5 174.2 284.2 164.7c2.5-.625 5.25-.6667 8-1.042c-9.998-36.1-45.1-55.12-78.75-46.37L58.93 158.7C26.18 167.6 4.186 201.4 13.81 237.9C16.31 236.9 18.77 235.7 21.39 235.1zM416 0c-35.35 0-63.1 28.65-63.1 63.1l.001 291.6l-346.1 94.37c-4.25 1.25-6.75 5.625-5.625 9.75l12.62 46.37c1.25 4.25 5.625 6.75 9.875 5.625l393.6-107.5c2.471 62.28 55.26 111.6 118.1 107.5c59.99-3.829 104.7-57.75 104.7-117.9L640 0H416zM528 447.1c-26.5 0-48-21.5-48-47.1c0-26.5 21.5-47.1 48-47.1c26.5 0 47.1 21.5 47.1 47.1C576 426.5 554.5 447.1 528 447.1zM24.19 399.1l295.9-79.25V198.7c-8.25-4-18-5.625-27.62-3.125c-21.25 5.625-33.1 27.62-28.25 48.1l6.125 23.13L84.89 317.5L78.77 294.2c-5.75-21.25-27.75-33.1-49-28.25c-21.37 5.75-33.1 27.75-28.37 48.1L24.19 399.1z"/></svg>