<svg xmlns="http://www.w3.org/2000/svg" viewBox="0 0 640 512"><!--! Font Awesome Pro 6.0.0-alpha3 by @fontawesome - https://fontawesome.com License - https://fontawesome.com/license (Commercial License) --><path d="M624 352H608V237.3c0-16.97-6.746-33.25-18.74-45.24l-77.26-77.26C499.1 102.7 483.7 96 466.8 96H416V48C416 21.49 394.5 0 368 0h-256C85.49 0 64 21.49 64 48V96H15.1C7.164 96 0 103.2 0 111.1C0 120.8 7.164 128 15.1 128h256C280.8 128 288 135.2 288 144C288 152.8 280.8 160 272 160h-224C39.16 160 32 167.2 32 176C32 184.8 39.16 192 47.1 192h192C248.8 192 256 199.2 256 208C256 216.8 248.8 224 240 224h-224C7.164 224 0 231.2 0 240C0 248.8 7.164 256 15.1 256h192C216.8 256 224 263.2 224 272C224 280.8 216.8 288 208 288H64v128c0 53 43 96 96 96s96-43 96-96h128c0 53 43 96 96 96s96-43 96-96h48c8.801 0 16-7.201 16-16v-32C640 359.2 632.8 352 624 352zM160 464c-26.5 0-48-21.5-48-48s21.5-48 48-48s48 21.5 48 48S186.5 464 160 464zM480 464c-26.5 0-48-21.5-48-48s21.5-48 48-48s48 21.5 48 48S506.5 464 480 464zM544 256h-128V160h50.75L544 237.3V256z"/></svg>