<svg xmlns="http://www.w3.org/2000/svg" viewBox="0 0 640 512"><!--! Font Awesome Pro 6.0.0-alpha3 by @fontawesome - https://fontawesome.com License - https://fontawesome.com/license (Commercial License) --><path d="M624 352H608V237.3c0-16.97-6.746-33.25-18.74-45.24l-77.26-77.26C499.1 102.7 483.7 96 466.8 96H416V48C416 21.49 394.5 0 368 0h-320C21.49 0 0 21.49 0 48v320C0 394.5 21.49 416 48 416H64c0 53 43 96 96 96s96-43 96-96h128c0 53 43 96 96 96s96-43 96-96h48c8.801 0 16-7.201 16-16v-32C640 359.2 632.8 352 624 352zM160 464c-26.5 0-48-21.5-48-48s21.5-48 48-48s48 21.5 48 48S186.5 464 160 464zM208 288C146.1 288 96 237.9 96 176S146.1 64 208 64S320 114.1 320 176S269.9 288 208 288zM480 464c-26.5 0-48-21.5-48-48s21.5-48 48-48s48 21.5 48 48S506.5 464 480 464zM544 256h-128V160h50.75L544 237.3V256zM248 160H224V104C224 99.63 220.4 96 216 96h-16C195.6 96 192 99.63 192 104v80C192 188.4 195.6 192 200 192h48C252.4 192 256 188.4 256 184v-16C256 163.6 252.4 160 248 160z"/></svg>