<svg xmlns="http://www.w3.org/2000/svg" viewBox="0 0 512 512"><!--! Font Awesome Pro 6.0.0-alpha3 by @fontawesome - https://fontawesome.com License - https://fontawesome.com/license (Commercial License) --><path d="M64 0C28.65 0 0 28.65 0 64v304c0 23.63 12.95 44.04 32 55.12V480c0 17.67 14.33 32 32 32h32c17.67 0 32-14.33 32-32v-48h256V480c0 17.67 14.33 32 32 32h32c17.67 0 32-14.33 32-32v-56.88c19.05-11.09 32-31.49 32-55.12V64c0-35.35-28.65-64-64-64H64zM96 352c-17.67 0-32-14.33-32-32c0-17.67 14.33-32 32-32s32 14.33 32 32C128 337.7 113.7 352 96 352zM110.1 224L134.8 149.9C139.2 136.8 151.4 128 165.2 128h181.6c13.8 0 26 8.793 30.36 21.88L401.9 224H110.1zM416 352c-17.67 0-32-14.33-32-32c0-17.67 14.33-32 32-32s32 14.33 32 32C448 337.7 433.7 352 416 352z"/></svg>