<svg xmlns="http://www.w3.org/2000/svg" viewBox="0 0 640 512"><!--! Font Awesome Pro 6.0.0-alpha3 by @fontawesome - https://fontawesome.com License - https://fontawesome.com/license (Commercial License) --><path d="M598.7 393.4c-14.5-14.5-22.63-34.13-22.63-54.63V237.2c0-20.5 8.126-40.13 22.63-54.63l36.63-36.75c6.251-6.125 6.251-16.35 .0001-22.6l-22.54-22.54c-6.251-6.25-16.46-6.229-22.59 .0208l-36.75 36.63c-26.5 26.5-41.38 62.38-41.38 99.87V288h-32V224c0-17.75-14.25-32-32-32h-45.88l-82.01-136.8C311.5 40.88 295.8 32 278.9 32H168C145.9 32 128 49.88 128 72L128 192H32C14.25 192 0 206.2 0 224v96c0 17.75 14.25 32 32 32h5.876c-3.625 10.12-5.877 20.75-5.877 32c0 53 42.1 96 96 96s96-43 96-96c0-11.25-2.249-21.88-5.874-32h75.76c-3.625 10.12-5.876 20.75-5.876 32c0 53 42.1 96 96 96s96-43 96-96c0-11.25-2.25-21.88-5.875-32h39.15c3.125 32.63 16.75 63.25 40.13 86.63l36.75 36.63c6.126 6.25 16.34 6.271 22.59 .0208l22.54-22.54c6.251-6.25 6.251-16.48-.0001-22.6L598.7 393.4zM192 96h77.88l57.63 96H192V96zM160 384c0 17.62-14.38 32-32 32S96.01 401.6 96.01 384s14.38-32 32-32S160 366.4 160 384zM384 416c-17.63 0-32-14.38-32-32s14.38-32 32-32s31.98 14.38 31.98 32S401.7 416 384 416z"/></svg>