<svg xmlns="http://www.w3.org/2000/svg" viewBox="0 0 640 512"><!--! Font Awesome Pro 6.0.0-alpha3 by @fontawesome - https://fontawesome.com License - https://fontawesome.com/license (Commercial License) --><path d="M624 352H608V237.3C608 220.2 601.3 204.1 589.3 192L512 114.8C500.1 102.8 483.6 96 466.8 96H416V48C416 21.5 394.5 0 368 0h-320C21.5 0 0 21.5 0 48v320C0 394.5 21.5 416 48 416H64c0 53 43 96 96 96s96-43 96-96h128c0 53 43 96 96 96s96-43 96-96h48c8.812 0 16-7.203 16-16v-32C640 359.2 632.8 352 624 352zM160 464c-26.5 0-48-21.5-48-48s21.5-48 48-48s48 21.5 48 48S186.5 464 160 464zM416 160h50.75L544 237.3V256h-128V160zM480 464c-26.5 0-48-21.5-48-48s21.5-48 48-48s48 21.5 48 48S506.5 464 480 464z"/></svg>