<svg xmlns="http://www.w3.org/2000/svg" viewBox="0 0 640 512"><!--! Font Awesome Pro 6.0.0-alpha3 by @fontawesome - https://fontawesome.com License - https://fontawesome.com/license (Commercial License) --><path d="M636.6 138.1l-43.04 85.1c-7.863 15.71-26.92 22.14-42.7 14.41l-70.98-38.81L480 480c.0059 17.67-14.32 32-31.99 32H191.1C174.3 512 159.1 497.7 160 480l.0996-279.4L89.12 239.4c-15.78 7.73-34.83 1.299-42.7-14.41l-43.04-85.1C-4.537 123.2 1.945 103.8 17.78 96l185.7-96c20.12 27.75 64.66 47.25 116.5 47.25c.0117 0-.0117 0 0 0s-.0117 0 0 0c51.88 0 96.41-19.5 116.5-47.25l185.7 96C638.1 103.8 644.5 123.2 636.6 138.1z"/></svg>