<svg xmlns="http://www.w3.org/2000/svg" viewBox="0 0 384 512"><!--! Font Awesome Pro 6.0.0-alpha3 by @fontawesome - https://fontawesome.com License - https://fontawesome.com/license (Commercial License) --><path d="M384 64c0 17.69-14.31 32-32 32h-128v87.03l88.25-22.06c17.06-4.344 34.5 6.125 38.78 23.28c4.312 17.12-6.125 34.5-23.28 38.78L224 248.1v30.06l88.25-22.06c17.06-4.344 34.5 6.125 38.78 23.28c4.312 17.12-6.125 34.5-23.28 38.78L224 344.1V448c0 17.69-14.31 32-32 32s-32-14.31-32-32v-87.03l-88.25 22.06C69.16 383.7 66.53 384 63.97 384c-14.34 0-27.38-9.688-31-24.25c-4.312-17.12 6.125-34.5 23.28-38.78L160 295V264.1L71.75 287C69.16 287.7 66.53 288 63.97 288c-14.34 0-27.38-9.688-31-24.25c-4.312-17.12 6.125-34.5 23.28-38.78L160 199V96H32C14.31 96 0 81.69 0 64s14.31-32 32-32h320C369.7 32 384 46.31 384 64z"/></svg>