<svg xmlns="http://www.w3.org/2000/svg" viewBox="0 0 576 512"><!--! Font Awesome Pro 6.0.0-alpha3 by @fontawesome - https://fontawesome.com License - https://fontawesome.com/license (Commercial License) --><path d="M1.722 481.7c-4 8-.7406 17.61 7.134 21.48l14.29 7.145c8 4 17.48 .7363 21.48-7.141l81.72-163.4C127.2 338 127.8 336 127.9 334c-15.38-3.75-30.61-8.238-45.61-13.49L1.722 481.7zM493.7 320.5c-15 5.25-30.24 9.737-45.62 13.49c.125 2.002 .6602 4.022 1.535 5.772l81.72 163.4c4 7.877 13.48 11.14 21.48 7.141l14.28-7.143c7.875-3.875 11.14-13.48 7.139-21.48L493.7 320.5zM575.1 208c0-40.88-56.5-76.5-140.6-96.12C417.3 47.63 358.4 0 288 0S158.8 47.63 140.8 111.9C56.5 131.5 .0025 167.1 .0025 208c0 61.88 128.1 112 287.1 112S575.1 269.9 575.1 208zM96 232c-13.25 0-24-10.75-24-24c0-13.25 10.75-24 24-24S120 194.8 120 208C120 221.3 109.3 232 96 232zM288 280c-13.25 0-24-10.75-24-24c0-13.25 10.75-24 24-24S312 242.8 312 256C312 269.3 301.3 280 288 280zM392.3 166.5C360 183.3 324.3 192 288 192S216 183.3 183.8 166.5C183 161.9 182.6 157.4 182.4 152.8c0-57.88 47.25-104.8 105.6-104.8s105.6 46.88 105.6 104.8C393.5 157.4 393 161.9 392.3 166.5zM480 232c-13.25 0-24-10.75-24-24c0-13.25 10.75-24 24-24S504 194.8 504 208C504 221.3 493.3 232 480 232z"/></svg>