<svg xmlns="http://www.w3.org/2000/svg" viewBox="0 0 640 512"><!--! Font Awesome Pro 6.0.0-alpha3 by @fontawesome - https://fontawesome.com License - https://fontawesome.com/license (Commercial License) --><path d="M494.8 212.9C481.5 128.6 408.4 64 320 64s-161.5 64.62-174.8 148.9C57.88 235.8 0 275.1 0 320C0 390.8 143.3 448 320 448s320-57.25 320-127.1C640 275.1 582.1 235.8 494.8 212.9zM128 360c-13.25 0-24-10.75-24-24S114.8 312 128 312s24 10.75 24 24S141.3 360 128 360zM320 392c-13.25 0-24-10.75-24-24s10.75-24 24-24s24 10.75 24 24S333.3 392 320 392zM447.4 256.8c-79.88 41.63-174.9 41.63-254.8 0C191.9 251.3 190.9 245.8 190.9 240c0-70.75 57.88-128 129.1-128s129.1 57.25 129.1 128C449.1 245.8 448.1 251.3 447.4 256.8zM512 360c-13.25 0-24-10.75-24-24S498.8 312 512 312s24 10.75 24 24S525.3 360 512 360z"/></svg>