<svg xmlns="http://www.w3.org/2000/svg" viewBox="0 0 640 512"><!--! Font Awesome Pro 6.0.0-alpha3 by @fontawesome - https://fontawesome.com License - https://fontawesome.com/license (Commercial License) --><path d="M628.9 210.6L494.4 49.27C485.3 38.33 471.8 32 457.5 32H48C21.6 32 0 53.6 0 80v256C0 362.4 21.6 384 48 384H64c0 53 43 96 96 96s96-43 96-96h128c0 53 43 96 96 96s96-43 96-96h16c26.4 0 48-21.6 48-48V241.4C640 230.1 636 219.3 628.9 210.6zM64 192V96h96v96H64zM160 432c-26.5 0-48-21.5-48-48s21.5-48 48-48s48 21.5 48 48S186.5 432 160 432zM320 192H224V96h96V192zM480 432c-26.5 0-48-21.5-48-48s21.5-48 48-48s48 21.5 48 48S506.5 432 480 432zM384 192V96h65.1l79.1 96H384z"/></svg>