<svg xmlns="http://www.w3.org/2000/svg" viewBox="0 0 512 512"><!--! Font Awesome Pro 6.0.0-alpha3 by @fontawesome - https://fontawesome.com License - https://fontawesome.com/license (Commercial License) --><path d="M200.3 106C185.4 80.24 165.2 53.9 137.4 29.26C55.75 72.05 0 157.4 0 256c0 21.33 2.898 41.94 7.814 61.75C53.59 182.1 155.1 124.9 200.3 106zM381.7 281.1c5.947-44.23 10.4-172.3-109-280.2C267.1 .4896 261.6 0 256 0C225.5 0 196.5 5.591 169.4 15.36c93.83 90.15 102.6 198.5 102.8 231.7C287.8 255.9 327.3 275.1 381.7 281.1zM240.1 246.5C239.1 228.5 236.9 184.7 214.9 134.6C173.6 151.6 60.4 211.7 26.67 369.2c15.66 31.64 37.52 59.66 64.22 82.23C122 325.1 211.5 263.3 240.1 246.5zM326.5 10.07c94.69 107.5 93.08 224.8 87.23 272.6c29.69 .0547 62.53-4.251 97.71-15.99C511.6 263.1 512 259.6 512 256C512 139.1 433.6 40.72 326.5 10.07zM255.7 274.5c-15.43 9.086-51.89 33.63-84.32 77.86c35.35 27.28 144.2 95.29 297.6 45.58c19.08-28.59 32.41-61.34 38.71-96.47C474.5 311.1 443 315 414.4 315C334.6 315 276.5 286.3 255.7 274.5zM153.1 379.3c-14.91 25.71-27.62 56.33-35.03 92.72C158.6 497.2 205.5 512 256 512c69 0 131.5-27.43 177.5-71.82c-25.42 5.105-49.71 7.668-72.38 7.668C258.6 447.8 185.5 402.1 153.1 379.3z"/></svg>