<svg xmlns="http://www.w3.org/2000/svg" viewBox="0 0 640 512"><!--! Font Awesome Pro 6.0.0-alpha3 by @fontawesome - https://fontawesome.com License - https://fontawesome.com/license (Commercial License) --><path d="M383.1 55.99c0-22.11-17.87-39.98-39.1-39.98H296c-22.12 0-39.1 17.88-39.1 39.98v167.8h127.1V55.99zM224 223.8V92.81c0-36.84-25.37-68.06-59.37-73.31L39.51 .3908c-25.1-3.996-46.5 23.38-37.25 49.73l68.5 173.7H224zM542.2 319.8h17.76c8.875 0 16-7.124 16-15.99V271.8c0-8.867-7.128-15.95-16-15.95H80c-8.875 0-16.01 7.085-16.01 15.95v31.98c0 8.867 7.125 15.99 16 15.99h17.76c-.25 .2498-.6387 .4083-1.014 .6581c-34.62 34.34-43.12 87.17-20.88 130.6s70.19 67.44 118.3 59.32c48.25-8.118 85.44-46.46 92.31-94.79h67.06c6.1 48.08 44.25 86.11 92.25 94.23c47.1 7.993 95.69-15.92 117.9-59.14c22.25-43.21 13.87-95.92-20.5-130.3C542.9 320.2 542.5 320.1 542.2 319.8zM159.1 461.4c-22.62-5.62-40.13-23.11-45.75-45.71h45.75V461.4zM159.1 383.7H114.2c5.5-22.6 23.13-40.11 45.75-45.61L159.1 383.7zM221.2 444.9c-8.125 7.993-18.25 13.74-29.25 16.49v-45.71h45.75C234.1 426.6 229.2 436.7 221.2 444.9zM191.1 383.7l.0024-45.61c22.62 5.495 40.25 23 45.75 45.61H191.1zM447.1 461.4c-22.62-5.62-40.13-23.11-45.75-45.71h45.75V461.4zM447.1 383.7h-45.75c5.5-22.6 23.12-40.11 45.75-45.61L447.1 383.7zM509.2 444.9c-8.125 7.993-18.25 13.74-29.25 16.49v-45.71h45.75C522.1 426.6 517.2 436.7 509.2 444.9zM479.1 383.7l-.0022-45.61c22.62 5.495 40.25 23 45.75 45.61H479.1zM600.5 .3908L475.5 19.5c-34.12 5.245-59.5 36.47-59.5 73.31v131h153.2l68.5-173.7C646.1 23.77 626.5-3.606 600.5 .3908z"/></svg>