<svg xmlns="http://www.w3.org/2000/svg" viewBox="0 0 448 512"><!--! Font Awesome Pro 6.0.0-alpha3 by @fontawesome - https://fontawesome.com License - https://fontawesome.com/license (Commercial License) --><path d="M415.9 392.8V95.98c0-52.97-43.01-95.98-96.01-95.98L190.6 .0002C143.7-.1248 103.6 33.75 95.98 79.98L.2377 487.6c-1.5 8.746 4.25 16.1 12.1 18.5l31.5 5.499c8.749 1.499 16.1-4.251 18.5-12.1l64.49-274.7h224.2v168.9c-25.12 14.49-37.37 43.87-29.87 71.85C329.6 492.6 354.1 512 383.1 512c28.1 0 54.35-19.37 61.85-47.35C453.3 436.7 441.1 407.3 415.9 392.8zM351.9 159.1h-209.1l16.25-69.23c2.5-15.49 15.87-26.74 31.5-26.74h129.4c17.62 0 31.1 14.38 31.1 31.99V159.1zM383.9 463.8c-8.874 0-16.01-7.123-16.01-15.99s7.168-15.94 16.04-15.94s15.98 7.071 15.98 15.94S392.8 463.8 383.9 463.8z"/></svg>