<svg xmlns="http://www.w3.org/2000/svg" viewBox="0 0 640 512"><!--! Font Awesome Pro 6.0.0-alpha3 by @fontawesome - https://fontawesome.com License - https://fontawesome.com/license (Commercial License) --><path d="M304 416h-160C135.3 416 128 423.3 128 432v64C128 504.8 135.3 512 144 512h160c8.75 0 16-7.25 16-16v-64C320 423.3 312.8 416 304 416zM304 288h-160C135.3 288 128 295.3 128 304v64C128 376.8 135.3 384 144 384h160c8.75 0 16-7.25 16-16v-64C320 295.3 312.8 288 304 288zM496 416h-128c-8.75 0-16 7.25-16 16v64c0 8.75 7.25 16 16 16h128c8.75 0 16-7.25 16-16v-64C512 423.3 504.8 416 496 416zM610.5 117l-272-113.3C332.6 1.542 326.3 .2503 320 .0003C313.6 .2503 307.3 1.417 301.5 3.667L29.5 117C11.62 124.5 0 141.9 0 161.3v334.7c0 8.875 7.125 16 16 16l64 .0001c8.875 0 16-7.125 16-16V256c0-17.62 14.62-31.1 32.63-31.1h382.8C529.4 224 544 238.4 544 256v240c0 8.875 7.125 16 16 16l64-.0001c8.875 0 16-7.125 16-16V161.3C640 141.9 628.4 124.5 610.5 117z"/></svg>