<svg xmlns="http://www.w3.org/2000/svg" viewBox="0 0 384 512"><!--! Font Awesome Pro 6.0.0-alpha3 by @fontawesome - https://fontawesome.com License - https://fontawesome.com/license (Commercial License) --><path d="M320 32c0-17.62-14.38-31.1-32-31.1H96c-17.62 0-32 14.38-32 31.1V48h256V32zM64 480c0 17.62 14.38 32 32 32h192c17.62 0 32-14.38 32-32V464H64V480zM320 80H64c-35.38 0-64 28.62-64 63.1v224c0 35.38 28.62 64 64 64h256c35.38 0 64-28.63 64-64v-224C384 108.6 355.4 80 320 80zM286.6 262.3l-84.76 85.63C199.2 350.5 195.8 352 192 352s-7.275-1.5-9.9-4.125L97.4 262.3c-24.5-24.88-23.16-66.1 4.344-89.1c24-20 59.63-16.4 81.63 5.846l8.632 8.654l8.618-8.654c22-22.25 57.61-25.85 81.61-5.846C309.7 196.2 311.1 237.4 286.6 262.3z"/></svg>