<svg xmlns="http://www.w3.org/2000/svg" viewBox="0 0 384 512"><!--! Font Awesome Pro 6.0.0-alpha3 by @fontawesome - https://fontawesome.com License - https://fontawesome.com/license (Commercial License) --><path d="M320 48H64V32c0-17.62 14.38-32 32-32h192c17.62 0 32 14.38 32 32V48zM64 480c0 17.62 14.38 32 32 32h192c17.62 0 32-14.38 32-32v-16H64V480zM384 144v224c0 35.38-28.62 64-64 64H64c-35.38 0-64-28.62-64-64v-224c0-35.38 28.62-64 64-64h256C355.4 80 384 108.6 384 144zM255.4 277.6L216 244.8V184C216 170.8 205.3 160 192 160S168 170.8 168 184V256c0 7.125 3.156 13.88 8.625 18.44l48 40C229.1 318.2 234.6 320 240 320c6.875 0 13.69-2.938 18.44-8.625C266.9 301.2 265.6 286.1 255.4 277.6z"/></svg>