<svg xmlns="http://www.w3.org/2000/svg" viewBox="0 0 576 512"><!--! Font Awesome Pro 6.0.0-alpha3 by @fontawesome - https://fontawesome.com License - https://fontawesome.com/license (Commercial License) --><path d="M562.4 416.4c-28.43-2.992-54.76-15.52-70.54-34.71c-6.451-7.852-18.08-6.516-24.75 1.156c-39.09 44.1-131.2 43.85-167.1-1.156c-2.996-3.758-7.533-5.652-12.03-5.691c-4.5 .0391-9.01 1.934-12.01 5.691c-35.9 45.01-128 46.15-167.1 1.156c-6.664-7.672-18.3-9.008-24.75-1.156c-15.77 19.19-42.11 31.72-70.54 34.71C5.688 417.2 0 424.2 0 432v32.03c.002 9.051 7.637 16.68 16.71 15.89c28.8-2.488 56.11-11.33 79.41-25.75c56.49 34.39 136.9 33.91 191.9 .0781c54.1 33.84 135.4 34.31 191.9-.0781c23.3 14.42 50.61 23.27 79.41 25.75C568.4 480.7 575.1 473.1 576 464v-32.03C576 424.2 570.3 417.2 562.4 416.4zM480 32c-53 0-96 43-96 96v96H192V128c0-17.62 14.38-32 32-32s32 14.38 32 32v16C256 152.9 263.1 160 272 160h32C312.9 160 320 152.9 320 144V128c0-53-43-96-96-96S128 75 128 128v229.2c1.719 1.514 3.508 2.936 5.033 4.693C144.8 375.5 167.4 383.9 192 383.1V288h192v95.99c24.58-.0898 47.15-8.535 58.96-22.13C444.5 360.1 446.3 358.7 448 357.2V128c0-17.62 14.38-32 32-32s32 14.38 32 32v16C512 152.9 519.1 160 528 160h32C568.9 160 576 152.9 576 144V128C576 75 533 32 480 32z"/></svg>