<svg xmlns="http://www.w3.org/2000/svg" viewBox="0 0 512 512"><!--! Font Awesome Pro 6.0.0-alpha3 by @fontawesome - https://fontawesome.com License - https://fontawesome.com/license (Commercial License) --><path d="M0 96v320c0 35.35 28.65 64 64 64h384c35.35 0 64-28.65 64-64V96c0-35.35-28.65-64-64-64H64C28.65 32 0 60.65 0 96zM384 128c0-17.75 14.25-32 32-32s32 14.25 32 32s-14.25 32-32 32S384 145.8 384 128zM288 128c0-17.75 14.25-32 32-32s32 14.25 32 32s-14.25 32-32 32S288 145.8 288 128zM192 128c0-17.75 14.25-32 32-32s32 14.25 32 32S241.8 160 224 160S192 145.8 192 128z"/></svg>