<svg xmlns="http://www.w3.org/2000/svg" viewBox="0 0 512 512"><!--! Font Awesome Pro 6.0.0-alpha3 by @fontawesome - https://fontawesome.com License - https://fontawesome.com/license (Commercial License) --><path d="M448 32H64C28.65 32 0 60.65 0 96v320c0 35.35 28.65 64 64 64h384c35.35 0 64-28.65 64-64V96C512 60.65 483.3 32 448 32zM96 160C78.25 160 64 145.8 64 128s14.25-32 32-32s32 14.25 32 32S113.8 160 96 160zM192 160C174.3 160 160 145.8 160 128s14.25-32 32-32s32 14.25 32 32S209.8 160 192 160zM288 160c-17.75 0-32-14.25-32-32s14.25-32 32-32s32 14.25 32 32S305.8 160 288 160z"/></svg>